<?xml version="1.0" encoding="UTF-8" standalone="no"?>
<!DOCTYPE svg PUBLIC "-//W3C//DTD SVG 1.1//EN"
 "http://www.w3.org/Graphics/SVG/1.1/DTD/svg11.dtd">
<!-- Generated by graphviz version 2.43.0 (0)
 -->
<!-- Title: System/include/BipedalLocomotion/System/Advanceable.h Pages: 1 -->
<svg width="3072pt" height="340pt"
 viewBox="0.00 0.00 3071.50 340.00" xmlns="http://www.w3.org/2000/svg" xmlns:xlink="http://www.w3.org/1999/xlink">
<g id="graph0" class="graph" transform="scale(1 1) rotate(0) translate(4 336)">
<title>System/include/BipedalLocomotion/System/Advanceable.h</title>
<!-- Node1 -->
<g id="node1" class="node">
<title>Node1</title>
<g id="a_node1"><a xlink:title=" ">
<polygon fill="#bfbfbf" stroke="black" points="610.5,-301.5 610.5,-331.5 798.5,-331.5 798.5,-301.5 610.5,-301.5"/>
<text text-anchor="start" x="618.5" y="-319.5" font-family="Helvetica,sans-Serif" font-size="10.00">System/include/BipedalLocomotion</text>
<text text-anchor="middle" x="704.5" y="-308.5" font-family="Helvetica,sans-Serif" font-size="10.00">/System/Advanceable.h</text>
</a>
</g>
</g>
<!-- Node2 -->
<g id="node2" class="node">
<title>Node2</title>
<g id="a_node2"><a xlink:href="QPInverseKinematics_8h.html" target="_top" xlink:title=" ">
<polygon fill="none" stroke="black" points="24,-78.5 24,-108.5 185,-108.5 185,-78.5 24,-78.5"/>
<text text-anchor="start" x="32" y="-96.5" font-family="Helvetica,sans-Serif" font-size="10.00">IK/include/BipedalLocomotion</text>
<text text-anchor="middle" x="104.5" y="-85.5" font-family="Helvetica,sans-Serif" font-size="10.00">/IK/QPInverseKinematics.h</text>
</a>
</g>
</g>
<!-- Node1&#45;&gt;Node2 -->
<g id="edge1" class="edge">
<title>Node1&#45;&gt;Node2</title>
<path fill="none" stroke="midnightblue" d="M621.62,-299.38C535.38,-280.99 397.53,-246.97 285.5,-198 224.97,-171.54 158.76,-130.21 125.72,-108.65"/>
<polygon fill="midnightblue" stroke="midnightblue" points="621.11,-302.85 631.61,-301.49 622.55,-296 621.11,-302.85"/>
</g>
<!-- Node4 -->
<g id="node4" class="node">
<title>Node4</title>
<g id="a_node4"><a xlink:href="AdvanceableRunner_8h.html" target="_top" xlink:title=" ">
<polygon fill="none" stroke="black" points="507.5,-234.5 507.5,-264.5 695.5,-264.5 695.5,-234.5 507.5,-234.5"/>
<text text-anchor="start" x="515.5" y="-252.5" font-family="Helvetica,sans-Serif" font-size="10.00">System/include/BipedalLocomotion</text>
<text text-anchor="middle" x="601.5" y="-241.5" font-family="Helvetica,sans-Serif" font-size="10.00">/System/AdvanceableRunner.h</text>
</a>
</g>
</g>
<!-- Node1&#45;&gt;Node4 -->
<g id="edge3" class="edge">
<title>Node1&#45;&gt;Node4</title>
<path fill="none" stroke="midnightblue" d="M673.62,-296.02C657.6,-285.9 638.37,-273.77 623.81,-264.58"/>
<polygon fill="midnightblue" stroke="midnightblue" points="671.83,-299.02 682.15,-301.4 675.56,-293.1 671.83,-299.02"/>
</g>
<!-- Node5 -->
<g id="node5" class="node">
<title>Node5</title>
<g id="a_node5"><a xlink:href="Sink_8h.html" target="_top" xlink:title=" ">
<polygon fill="none" stroke="black" points="713.5,-234.5 713.5,-264.5 901.5,-264.5 901.5,-234.5 713.5,-234.5"/>
<text text-anchor="start" x="721.5" y="-252.5" font-family="Helvetica,sans-Serif" font-size="10.00">System/include/BipedalLocomotion</text>
<text text-anchor="middle" x="807.5" y="-241.5" font-family="Helvetica,sans-Serif" font-size="10.00">/System/Sink.h</text>
</a>
</g>
</g>
<!-- Node1&#45;&gt;Node5 -->
<g id="edge4" class="edge">
<title>Node1&#45;&gt;Node5</title>
<path fill="none" stroke="midnightblue" d="M735.38,-296.02C751.4,-285.9 770.63,-273.77 785.19,-264.58"/>
<polygon fill="midnightblue" stroke="midnightblue" points="733.44,-293.1 726.85,-301.4 737.17,-299.02 733.44,-293.1"/>
</g>
<!-- Node6 -->
<g id="node6" class="node">
<title>Node6</title>
<g id="a_node6"><a xlink:href="Source_8h.html" target="_top" xlink:title=" ">
<polygon fill="none" stroke="black" points="1586.5,-234.5 1586.5,-264.5 1774.5,-264.5 1774.5,-234.5 1586.5,-234.5"/>
<text text-anchor="start" x="1594.5" y="-252.5" font-family="Helvetica,sans-Serif" font-size="10.00">System/include/BipedalLocomotion</text>
<text text-anchor="middle" x="1680.5" y="-241.5" font-family="Helvetica,sans-Serif" font-size="10.00">/System/Source.h</text>
</a>
</g>
</g>
<!-- Node1&#45;&gt;Node6 -->
<g id="edge5" class="edge">
<title>Node1&#45;&gt;Node6</title>
<path fill="none" stroke="midnightblue" d="M808.57,-308.57C999.48,-295.86 1402.87,-268.99 1586.23,-256.78"/>
<polygon fill="midnightblue" stroke="midnightblue" points="808.27,-305.08 798.53,-309.24 808.74,-312.07 808.27,-305.08"/>
</g>
<!-- Node3 -->
<g id="node3" class="node">
<title>Node3</title>
<g id="a_node3"><a xlink:href="QPInverseKinematics_8cpp.html" target="_top" xlink:title=" ">
<polygon fill="none" stroke="black" points="0,-6 0,-25 171,-25 171,-6 0,-6"/>
<text text-anchor="middle" x="85.5" y="-13" font-family="Helvetica,sans-Serif" font-size="10.00">IK/src/QPInverseKinematics.cpp</text>
</a>
</g>
</g>
<!-- Node2&#45;&gt;Node3 -->
<g id="edge2" class="edge">
<title>Node2&#45;&gt;Node3</title>
<path fill="none" stroke="midnightblue" d="M98.42,-68.17C94.72,-53.4 90.24,-35.45 87.64,-25.06"/>
<polygon fill="midnightblue" stroke="midnightblue" points="95.11,-69.35 100.93,-78.2 101.9,-67.65 95.11,-69.35"/>
</g>
<!-- Node7 -->
<g id="node7" class="node">
<title>Node7</title>
<g id="a_node7"><a xlink:href="ContactDetector_8h.html" target="_top" xlink:title=" ">
<polygon fill="none" stroke="black" points="538,-156.5 538,-197.5 699,-197.5 699,-156.5 538,-156.5"/>
<text text-anchor="start" x="546" y="-185.5" font-family="Helvetica,sans-Serif" font-size="10.00">Contacts/include/Bipedal</text>
<text text-anchor="start" x="546" y="-174.5" font-family="Helvetica,sans-Serif" font-size="10.00">Locomotion/ContactDetectors</text>
<text text-anchor="middle" x="618.5" y="-163.5" font-family="Helvetica,sans-Serif" font-size="10.00">/ContactDetector.h</text>
</a>
</g>
</g>
<!-- Node6&#45;&gt;Node7 -->
<g id="edge6" class="edge">
<title>Node6&#45;&gt;Node7</title>
<path fill="none" stroke="midnightblue" d="M1576.41,-241.93C1427.16,-232.46 1143.75,-214.32 902.5,-198 833.95,-193.36 756.12,-187.86 699.29,-183.81"/>
<polygon fill="midnightblue" stroke="midnightblue" points="1576.28,-245.42 1586.48,-242.56 1576.72,-238.44 1576.28,-245.42"/>
</g>
<!-- Node13 -->
<g id="node13" class="node">
<title>Node13</title>
<g id="a_node13"><a xlink:href="RecursiveLeastSquare_8h.html" target="_top" xlink:title=" ">
<polygon fill="none" stroke="black" points="912,-156.5 912,-197.5 1081,-197.5 1081,-156.5 912,-156.5"/>
<text text-anchor="start" x="920" y="-185.5" font-family="Helvetica,sans-Serif" font-size="10.00">Estimators/include</text>
<text text-anchor="start" x="920" y="-174.5" font-family="Helvetica,sans-Serif" font-size="10.00">/BipedalLocomotion/Estimators</text>
<text text-anchor="middle" x="996.5" y="-163.5" font-family="Helvetica,sans-Serif" font-size="10.00">/RecursiveLeastSquare.h</text>
</a>
</g>
</g>
<!-- Node6&#45;&gt;Node13 -->
<g id="edge12" class="edge">
<title>Node6&#45;&gt;Node13</title>
<path fill="none" stroke="midnightblue" d="M1576.09,-238.6C1473.17,-228.73 1311.43,-212.94 1171.5,-198 1142.01,-194.85 1109.74,-191.22 1081.03,-187.92"/>
<polygon fill="midnightblue" stroke="midnightblue" points="1575.89,-242.1 1586.18,-239.57 1576.56,-235.13 1575.89,-242.1"/>
</g>
<!-- Node15 -->
<g id="node15" class="node">
<title>Node15</title>
<g id="a_node15"><a xlink:href="FloatingBaseEstimator_8h.html" target="_top" xlink:title=" ">
<polygon fill="none" stroke="black" points="1181,-156.5 1181,-197.5 1396,-197.5 1396,-156.5 1181,-156.5"/>
<text text-anchor="start" x="1189" y="-185.5" font-family="Helvetica,sans-Serif" font-size="10.00">Estimators/include</text>
<text text-anchor="start" x="1189" y="-174.5" font-family="Helvetica,sans-Serif" font-size="10.00">/BipedalLocomotion/Floating</text>
<text text-anchor="middle" x="1288.5" y="-163.5" font-family="Helvetica,sans-Serif" font-size="10.00">BaseEstimators/FloatingBaseEstimator.h</text>
</a>
</g>
</g>
<!-- Node6&#45;&gt;Node15 -->
<g id="edge14" class="edge">
<title>Node6&#45;&gt;Node15</title>
<path fill="none" stroke="midnightblue" d="M1592.7,-232.71C1534.62,-222.26 1458.09,-208.5 1396.32,-197.39"/>
<polygon fill="midnightblue" stroke="midnightblue" points="1592.12,-236.16 1602.58,-234.49 1593.36,-229.27 1592.12,-236.16"/>
</g>
<!-- Node21 -->
<g id="node21" class="node">
<title>Node21</title>
<g id="a_node21"><a xlink:href="IntegrationBasedIK_8h.html" target="_top" xlink:title=" ">
<polygon fill="none" stroke="black" points="295,-162 295,-192 456,-192 456,-162 295,-162"/>
<text text-anchor="start" x="303" y="-180" font-family="Helvetica,sans-Serif" font-size="10.00">IK/include/BipedalLocomotion</text>
<text text-anchor="middle" x="375.5" y="-169" font-family="Helvetica,sans-Serif" font-size="10.00">/IK/IntegrationBasedIK.h</text>
</a>
</g>
</g>
<!-- Node6&#45;&gt;Node21 -->
<g id="edge20" class="edge">
<title>Node6&#45;&gt;Node21</title>
<path fill="none" stroke="midnightblue" d="M1576.22,-246.94C1373.85,-243.24 913.89,-231.57 528.5,-198 505.02,-195.95 479.6,-192.95 456.35,-189.89"/>
<polygon fill="midnightblue" stroke="midnightblue" points="1576.18,-250.44 1586.24,-247.12 1576.31,-243.44 1576.18,-250.44"/>
</g>
<!-- Node22 -->
<g id="node22" class="node">
<title>Node22</title>
<g id="a_node22"><a xlink:href="ArucoDetector_8h.html" target="_top" xlink:title=" ">
<polygon fill="none" stroke="black" points="1497.5,-156.5 1497.5,-197.5 1665.5,-197.5 1665.5,-156.5 1497.5,-156.5"/>
<text text-anchor="start" x="1505.5" y="-185.5" font-family="Helvetica,sans-Serif" font-size="10.00">Perception/include</text>
<text text-anchor="start" x="1505.5" y="-174.5" font-family="Helvetica,sans-Serif" font-size="10.00">/BipedalLocomotion/Perception</text>
<text text-anchor="middle" x="1581.5" y="-163.5" font-family="Helvetica,sans-Serif" font-size="10.00">/Features/ArucoDetector.h</text>
</a>
</g>
</g>
<!-- Node6&#45;&gt;Node22 -->
<g id="edge22" class="edge">
<title>Node6&#45;&gt;Node22</title>
<path fill="none" stroke="midnightblue" d="M1652.01,-228.21C1638.49,-218.58 1622.4,-207.12 1609.01,-197.59"/>
<polygon fill="midnightblue" stroke="midnightblue" points="1650.29,-231.28 1660.47,-234.23 1654.35,-225.58 1650.29,-231.28"/>
</g>
<!-- Node24 -->
<g id="node24" class="node">
<title>Node24</title>
<g id="a_node24"><a xlink:href="DCMPlanner_8h.html" target="_top" xlink:title=" ">
<polygon fill="none" stroke="black" points="1684.5,-162 1684.5,-192 1874.5,-192 1874.5,-162 1684.5,-162"/>
<text text-anchor="start" x="1692.5" y="-180" font-family="Helvetica,sans-Serif" font-size="10.00">Planners/include/Bipedal</text>
<text text-anchor="middle" x="1779.5" y="-169" font-family="Helvetica,sans-Serif" font-size="10.00">Locomotion/Planners/DCMPlanner.h</text>
</a>
</g>
</g>
<!-- Node6&#45;&gt;Node24 -->
<g id="edge24" class="edge">
<title>Node6&#45;&gt;Node24</title>
<path fill="none" stroke="midnightblue" d="M1708.68,-228.43C1725.03,-216.79 1745.2,-202.42 1759.83,-192"/>
<polygon fill="midnightblue" stroke="midnightblue" points="1706.65,-225.58 1700.53,-234.23 1710.71,-231.28 1706.65,-225.58"/>
</g>
<!-- Node28 -->
<g id="node28" class="node">
<title>Node28</title>
<g id="a_node28"><a xlink:href="QuinticSpline_8h.html" target="_top" xlink:title=" ">
<polygon fill="none" stroke="black" points="1990,-162 1990,-192 2185,-192 2185,-162 1990,-162"/>
<text text-anchor="start" x="1998" y="-180" font-family="Helvetica,sans-Serif" font-size="10.00">Planners/include/Bipedal</text>
<text text-anchor="middle" x="2087.5" y="-169" font-family="Helvetica,sans-Serif" font-size="10.00">Locomotion/Planners/QuinticSpline.h</text>
</a>
</g>
</g>
<!-- Node6&#45;&gt;Node28 -->
<g id="edge28" class="edge">
<title>Node6&#45;&gt;Node28</title>
<path fill="none" stroke="midnightblue" d="M1771.59,-232.72C1842.02,-220.52 1938.63,-203.79 2006.41,-192.05"/>
<polygon fill="midnightblue" stroke="midnightblue" points="1770.65,-229.33 1761.4,-234.49 1771.85,-236.23 1770.65,-229.33"/>
</g>
<!-- Node29 -->
<g id="node29" class="node">
<title>Node29</title>
<g id="a_node29"><a xlink:href="SwingFootPlanner_8h.html" target="_top" xlink:title=" ">
<polygon fill="none" stroke="black" points="2285.5,-73 2285.5,-114 2457.5,-114 2457.5,-73 2285.5,-73"/>
<text text-anchor="start" x="2293.5" y="-102" font-family="Helvetica,sans-Serif" font-size="10.00">Planners/include/Bipedal</text>
<text text-anchor="start" x="2293.5" y="-91" font-family="Helvetica,sans-Serif" font-size="10.00">Locomotion/Planners/SwingFoot</text>
<text text-anchor="middle" x="2371.5" y="-80" font-family="Helvetica,sans-Serif" font-size="10.00">Planner.h</text>
</a>
</g>
</g>
<!-- Node6&#45;&gt;Node29 -->
<g id="edge37" class="edge">
<title>Node6&#45;&gt;Node29</title>
<path fill="none" stroke="midnightblue" d="M1784.75,-243.48C1912.18,-236.44 2119.96,-221.75 2193.5,-198 2252.35,-178.99 2312.95,-138.41 2346.06,-114.09"/>
<polygon fill="midnightblue" stroke="midnightblue" points="1784.37,-240 1774.57,-244.04 1784.75,-246.99 1784.37,-240"/>
</g>
<!-- Node32 -->
<g id="node32" class="node">
<title>Node32</title>
<g id="a_node32"><a xlink:href="SO3Planner_8h.html" target="_top" xlink:title=" ">
<polygon fill="none" stroke="black" points="2304.5,-162 2304.5,-192 2490.5,-192 2490.5,-162 2304.5,-162"/>
<text text-anchor="start" x="2312.5" y="-180" font-family="Helvetica,sans-Serif" font-size="10.00">Planners/include/Bipedal</text>
<text text-anchor="middle" x="2397.5" y="-169" font-family="Helvetica,sans-Serif" font-size="10.00">Locomotion/Planners/SO3Planner.h</text>
</a>
</g>
</g>
<!-- Node6&#45;&gt;Node32 -->
<g id="edge33" class="edge">
<title>Node6&#45;&gt;Node32</title>
<path fill="none" stroke="midnightblue" d="M1784.7,-241.53C1901.86,-233.23 2097.67,-217.94 2265.5,-198 2280,-196.28 2295.36,-194.19 2310.27,-192.03"/>
<polygon fill="midnightblue" stroke="midnightblue" points="1784.39,-238.05 1774.66,-242.24 1784.89,-245.03 1784.39,-238.05"/>
</g>
<!-- Node34 -->
<g id="node34" class="node">
<title>Node34</title>
<g id="a_node34"><a xlink:href="YarpSensorBridge_8h.html" target="_top" xlink:title=" ">
<polygon fill="none" stroke="black" points="2610.5,-156.5 2610.5,-197.5 2800.5,-197.5 2800.5,-156.5 2610.5,-156.5"/>
<text text-anchor="start" x="2618.5" y="-185.5" font-family="Helvetica,sans-Serif" font-size="10.00">RobotInterface/YarpImplementation</text>
<text text-anchor="start" x="2618.5" y="-174.5" font-family="Helvetica,sans-Serif" font-size="10.00">/include/BipedalLocomotion</text>
<text text-anchor="middle" x="2705.5" y="-163.5" font-family="Helvetica,sans-Serif" font-size="10.00">/RobotInterface/YarpSensorBridge.h</text>
</a>
</g>
</g>
<!-- Node6&#45;&gt;Node34 -->
<g id="edge38" class="edge">
<title>Node6&#45;&gt;Node34</title>
<path fill="none" stroke="midnightblue" d="M1784.58,-243.26C1940.21,-235.15 2242.77,-218.37 2499.5,-198 2535.77,-195.12 2575.57,-191.39 2610.44,-187.93"/>
<polygon fill="midnightblue" stroke="midnightblue" points="1784.35,-239.77 1774.54,-243.78 1784.71,-246.76 1784.35,-239.77"/>
</g>
<!-- Node37 -->
<g id="node37" class="node">
<title>Node37</title>
<g id="a_node37"><a xlink:href="TaskSpaceInverseDynamics_8h.html" target="_top" xlink:title=" ">
<polygon fill="none" stroke="black" points="2869.5,-162 2869.5,-192 3059.5,-192 3059.5,-162 2869.5,-162"/>
<text text-anchor="start" x="2877.5" y="-180" font-family="Helvetica,sans-Serif" font-size="10.00">TSID/include/BipedalLocomotion</text>
<text text-anchor="middle" x="2964.5" y="-169" font-family="Helvetica,sans-Serif" font-size="10.00">/TSID/TaskSpaceInverseDynamics.h</text>
</a>
</g>
</g>
<!-- Node6&#45;&gt;Node37 -->
<g id="edge41" class="edge">
<title>Node6&#45;&gt;Node37</title>
<path fill="none" stroke="midnightblue" d="M1784.89,-246.75C1984.33,-242.75 2433.17,-230.64 2809.5,-198 2828.83,-196.32 2849.45,-194.02 2869.14,-191.58"/>
<polygon fill="midnightblue" stroke="midnightblue" points="1784.65,-243.25 1774.72,-246.95 1784.78,-250.25 1784.65,-243.25"/>
</g>
<!-- Node8 -->
<g id="node8" class="node">
<title>Node8</title>
<g id="a_node8"><a xlink:href="FixedFootDetector_8h.html" target="_top" xlink:title=" ">
<polygon fill="none" stroke="black" points="203,-73 203,-114 364,-114 364,-73 203,-73"/>
<text text-anchor="start" x="211" y="-102" font-family="Helvetica,sans-Serif" font-size="10.00">Contacts/include/Bipedal</text>
<text text-anchor="start" x="211" y="-91" font-family="Helvetica,sans-Serif" font-size="10.00">Locomotion/ContactDetectors</text>
<text text-anchor="middle" x="283.5" y="-80" font-family="Helvetica,sans-Serif" font-size="10.00">/FixedFootDetector.h</text>
</a>
</g>
</g>
<!-- Node7&#45;&gt;Node8 -->
<g id="edge7" class="edge">
<title>Node7&#45;&gt;Node8</title>
<path fill="none" stroke="midnightblue" d="M528.13,-156.68C481.5,-146.4 423.79,-133.18 372.5,-120 365.34,-118.16 357.88,-116.16 350.46,-114.11"/>
<polygon fill="midnightblue" stroke="midnightblue" points="527.39,-160.1 537.91,-158.83 528.89,-153.26 527.39,-160.1"/>
</g>
<!-- Node10 -->
<g id="node10" class="node">
<title>Node10</title>
<g id="a_node10"><a xlink:href="SchmittTriggerDetector_8h.html" target="_top" xlink:title=" ">
<polygon fill="none" stroke="black" points="382,-73 382,-114 543,-114 543,-73 382,-73"/>
<text text-anchor="start" x="390" y="-102" font-family="Helvetica,sans-Serif" font-size="10.00">Contacts/include/Bipedal</text>
<text text-anchor="start" x="390" y="-91" font-family="Helvetica,sans-Serif" font-size="10.00">Locomotion/ContactDetectors</text>
<text text-anchor="middle" x="462.5" y="-80" font-family="Helvetica,sans-Serif" font-size="10.00">/SchmittTriggerDetector.h</text>
</a>
</g>
</g>
<!-- Node7&#45;&gt;Node10 -->
<g id="edge9" class="edge">
<title>Node7&#45;&gt;Node10</title>
<path fill="none" stroke="midnightblue" d="M572.2,-151.81C549.11,-139.75 521.55,-125.35 499.83,-114"/>
<polygon fill="midnightblue" stroke="midnightblue" points="570.65,-154.95 581.13,-156.48 573.89,-148.75 570.65,-154.95"/>
</g>
<!-- Node12 -->
<g id="node12" class="node">
<title>Node12</title>
<g id="a_node12"><a xlink:href="ContactDetector_8cpp.html" target="_top" xlink:title=" ">
<polygon fill="none" stroke="black" points="561,-84 561,-103 740,-103 740,-84 561,-84"/>
<text text-anchor="middle" x="650.5" y="-91" font-family="Helvetica,sans-Serif" font-size="10.00">Contacts/src/ContactDetector.cpp</text>
</a>
</g>
</g>
<!-- Node7&#45;&gt;Node12 -->
<g id="edge11" class="edge">
<title>Node7&#45;&gt;Node12</title>
<path fill="none" stroke="midnightblue" d="M630.05,-146.58C636.1,-131.17 643.08,-113.41 647.12,-103.12"/>
<polygon fill="midnightblue" stroke="midnightblue" points="626.64,-145.68 626.25,-156.27 633.16,-148.24 626.64,-145.68"/>
</g>
<!-- Node9 -->
<g id="node9" class="node">
<title>Node9</title>
<g id="a_node9"><a xlink:href="FixedFootDetector_8cpp.html" target="_top" xlink:title=" ">
<polygon fill="none" stroke="black" points="189.5,-6 189.5,-25 377.5,-25 377.5,-6 189.5,-6"/>
<text text-anchor="middle" x="283.5" y="-13" font-family="Helvetica,sans-Serif" font-size="10.00">Contacts/src/FixedFootDetector.cpp</text>
</a>
</g>
</g>
<!-- Node8&#45;&gt;Node9 -->
<g id="edge8" class="edge">
<title>Node8&#45;&gt;Node9</title>
<path fill="none" stroke="midnightblue" d="M283.5,-62.55C283.5,-49.06 283.5,-34.15 283.5,-25.05"/>
<polygon fill="midnightblue" stroke="midnightblue" points="280,-62.93 283.5,-72.93 287,-62.93 280,-62.93"/>
</g>
<!-- Node11 -->
<g id="node11" class="node">
<title>Node11</title>
<g id="a_node11"><a xlink:href="SchmittTriggerDetector_8cpp.html" target="_top" xlink:title=" ">
<polygon fill="none" stroke="black" points="395.5,-0.5 395.5,-30.5 545.5,-30.5 545.5,-0.5 395.5,-0.5"/>
<text text-anchor="start" x="403.5" y="-18.5" font-family="Helvetica,sans-Serif" font-size="10.00">Contacts/src/SchmittTrigger</text>
<text text-anchor="middle" x="470.5" y="-7.5" font-family="Helvetica,sans-Serif" font-size="10.00">Detector.cpp</text>
</a>
</g>
</g>
<!-- Node10&#45;&gt;Node11 -->
<g id="edge10" class="edge">
<title>Node10&#45;&gt;Node11</title>
<path fill="none" stroke="midnightblue" d="M465.63,-62.78C466.79,-51.75 468.05,-39.75 469,-30.73"/>
<polygon fill="midnightblue" stroke="midnightblue" points="462.13,-62.62 464.56,-72.93 469.09,-63.35 462.13,-62.62"/>
</g>
<!-- Node14 -->
<g id="node14" class="node">
<title>Node14</title>
<g id="a_node14"><a xlink:href="RecursiveLeastSquare_8cpp.html" target="_top" xlink:title=" ">
<polygon fill="none" stroke="black" points="758,-78.5 758,-108.5 895,-108.5 895,-78.5 758,-78.5"/>
<text text-anchor="start" x="766" y="-96.5" font-family="Helvetica,sans-Serif" font-size="10.00">Estimators/src/Recursive</text>
<text text-anchor="middle" x="826.5" y="-85.5" font-family="Helvetica,sans-Serif" font-size="10.00">LeastSquare.cpp</text>
</a>
</g>
</g>
<!-- Node13&#45;&gt;Node14 -->
<g id="edge13" class="edge">
<title>Node13&#45;&gt;Node14</title>
<path fill="none" stroke="midnightblue" d="M946.46,-152.01C916.94,-137.86 880.61,-120.44 855.71,-108.5"/>
<polygon fill="midnightblue" stroke="midnightblue" points="945.25,-155.31 955.78,-156.48 948.28,-149 945.25,-155.31"/>
</g>
<!-- Node16 -->
<g id="node16" class="node">
<title>Node16</title>
<g id="a_node16"><a xlink:href="InvariantEKFBaseEstimator_8h.html" target="_top" xlink:title=" ">
<polygon fill="none" stroke="black" points="913.5,-67.5 913.5,-119.5 1095.5,-119.5 1095.5,-67.5 913.5,-67.5"/>
<text text-anchor="start" x="921.5" y="-107.5" font-family="Helvetica,sans-Serif" font-size="10.00">Estimators/include</text>
<text text-anchor="start" x="921.5" y="-96.5" font-family="Helvetica,sans-Serif" font-size="10.00">/BipedalLocomotion/Floating</text>
<text text-anchor="start" x="921.5" y="-85.5" font-family="Helvetica,sans-Serif" font-size="10.00">BaseEstimators/InvariantEKFBase</text>
<text text-anchor="middle" x="1004.5" y="-74.5" font-family="Helvetica,sans-Serif" font-size="10.00">Estimator.h</text>
</a>
</g>
</g>
<!-- Node15&#45;&gt;Node16 -->
<g id="edge15" class="edge">
<title>Node15&#45;&gt;Node16</title>
<path fill="none" stroke="midnightblue" d="M1210.77,-153.69C1173.87,-143.11 1129.64,-130.41 1091.62,-119.5"/>
<polygon fill="midnightblue" stroke="midnightblue" points="1209.9,-157.08 1220.47,-156.48 1211.83,-150.36 1209.9,-157.08"/>
</g>
<!-- Node18 -->
<g id="node18" class="node">
<title>Node18</title>
<g id="a_node18"><a xlink:href="LeggedOdometry_8h.html" target="_top" xlink:title=" ">
<polygon fill="none" stroke="black" points="1113.5,-73 1113.5,-114 1301.5,-114 1301.5,-73 1113.5,-73"/>
<text text-anchor="start" x="1121.5" y="-102" font-family="Helvetica,sans-Serif" font-size="10.00">Estimators/include</text>
<text text-anchor="start" x="1121.5" y="-91" font-family="Helvetica,sans-Serif" font-size="10.00">/BipedalLocomotion/Floating</text>
<text text-anchor="middle" x="1207.5" y="-80" font-family="Helvetica,sans-Serif" font-size="10.00">BaseEstimators/LeggedOdometry.h</text>
</a>
</g>
</g>
<!-- Node15&#45;&gt;Node18 -->
<g id="edge17" class="edge">
<title>Node15&#45;&gt;Node18</title>
<path fill="none" stroke="midnightblue" d="M1261.7,-149.04C1250.34,-137.6 1237.34,-124.53 1226.93,-114.05"/>
<polygon fill="midnightblue" stroke="midnightblue" points="1259.36,-151.65 1268.89,-156.27 1264.33,-146.71 1259.36,-151.65"/>
</g>
<!-- Node20 -->
<g id="node20" class="node">
<title>Node20</title>
<g id="a_node20"><a xlink:href="FloatingBaseEstimator_8cpp.html" target="_top" xlink:title=" ">
<polygon fill="none" stroke="black" points="1320,-78.5 1320,-108.5 1473,-108.5 1473,-78.5 1320,-78.5"/>
<text text-anchor="start" x="1328" y="-96.5" font-family="Helvetica,sans-Serif" font-size="10.00">Estimators/src/FloatingBase</text>
<text text-anchor="middle" x="1396.5" y="-85.5" font-family="Helvetica,sans-Serif" font-size="10.00">Estimator.cpp</text>
</a>
</g>
</g>
<!-- Node15&#45;&gt;Node20 -->
<g id="edge19" class="edge">
<title>Node15&#45;&gt;Node20</title>
<path fill="none" stroke="midnightblue" d="M1322.5,-150.34C1340.83,-136.51 1362.74,-119.97 1377.94,-108.5"/>
<polygon fill="midnightblue" stroke="midnightblue" points="1320.24,-147.66 1314.37,-156.48 1324.46,-153.25 1320.24,-147.66"/>
</g>
<!-- Node17 -->
<g id="node17" class="node">
<title>Node17</title>
<g id="a_node17"><a xlink:href="InvariantEKFBaseEstimator_8cpp.html" target="_top" xlink:title=" ">
<polygon fill="none" stroke="black" points="938,-0.5 938,-30.5 1071,-30.5 1071,-0.5 938,-0.5"/>
<text text-anchor="start" x="946" y="-18.5" font-family="Helvetica,sans-Serif" font-size="10.00">Estimators/src/Invariant</text>
<text text-anchor="middle" x="1004.5" y="-7.5" font-family="Helvetica,sans-Serif" font-size="10.00">EKFBaseEstimator.cpp</text>
</a>
</g>
</g>
<!-- Node16&#45;&gt;Node17 -->
<g id="edge16" class="edge">
<title>Node16&#45;&gt;Node17</title>
<path fill="none" stroke="midnightblue" d="M1004.5,-56.96C1004.5,-47.72 1004.5,-38.28 1004.5,-30.85"/>
<polygon fill="midnightblue" stroke="midnightblue" points="1001,-57.19 1004.5,-67.19 1008,-57.19 1001,-57.19"/>
</g>
<!-- Node19 -->
<g id="node19" class="node">
<title>Node19</title>
<g id="a_node19"><a xlink:href="LeggedOdometry_8cpp.html" target="_top" xlink:title=" ">
<polygon fill="none" stroke="black" points="1111.5,-6 1111.5,-25 1303.5,-25 1303.5,-6 1111.5,-6"/>
<text text-anchor="middle" x="1207.5" y="-13" font-family="Helvetica,sans-Serif" font-size="10.00">Estimators/src/LeggedOdometry.cpp</text>
</a>
</g>
</g>
<!-- Node18&#45;&gt;Node19 -->
<g id="edge18" class="edge">
<title>Node18&#45;&gt;Node19</title>
<path fill="none" stroke="midnightblue" d="M1207.5,-62.55C1207.5,-49.06 1207.5,-34.15 1207.5,-25.05"/>
<polygon fill="midnightblue" stroke="midnightblue" points="1204,-62.93 1207.5,-72.93 1211,-62.93 1204,-62.93"/>
</g>
<!-- Node21&#45;&gt;Node2 -->
<g id="edge21" class="edge">
<title>Node21&#45;&gt;Node2</title>
<path fill="none" stroke="midnightblue" d="M319.29,-159.09C269.62,-144.16 198.03,-122.63 151.39,-108.6"/>
<polygon fill="midnightblue" stroke="midnightblue" points="318.33,-162.46 328.91,-161.99 320.35,-155.76 318.33,-162.46"/>
</g>
<!-- Node23 -->
<g id="node23" class="node">
<title>Node23</title>
<g id="a_node23"><a xlink:href="ArucoDetector_8cpp.html" target="_top" xlink:title=" ">
<polygon fill="none" stroke="black" points="1491.5,-84 1491.5,-103 1669.5,-103 1669.5,-84 1491.5,-84"/>
<text text-anchor="middle" x="1580.5" y="-91" font-family="Helvetica,sans-Serif" font-size="10.00">Perception/src/ArucoDetector.cpp</text>
</a>
</g>
</g>
<!-- Node22&#45;&gt;Node23 -->
<g id="edge23" class="edge">
<title>Node22&#45;&gt;Node23</title>
<path fill="none" stroke="midnightblue" d="M1581.13,-146.14C1580.95,-130.83 1580.73,-113.31 1580.61,-103.12"/>
<polygon fill="midnightblue" stroke="midnightblue" points="1577.64,-146.31 1581.26,-156.27 1584.63,-146.23 1577.64,-146.31"/>
</g>
<!-- Node25 -->
<g id="node25" class="node">
<title>Node25</title>
<g id="a_node25"><a xlink:href="TimeVaryingDCMPlanner_8h.html" target="_top" xlink:title=" ">
<polygon fill="none" stroke="black" points="1688,-73 1688,-114 1871,-114 1871,-73 1688,-73"/>
<text text-anchor="start" x="1696" y="-102" font-family="Helvetica,sans-Serif" font-size="10.00">Planners/include/Bipedal</text>
<text text-anchor="start" x="1696" y="-91" font-family="Helvetica,sans-Serif" font-size="10.00">Locomotion/Planners/TimeVarying</text>
<text text-anchor="middle" x="1779.5" y="-80" font-family="Helvetica,sans-Serif" font-size="10.00">DCMPlanner.h</text>
</a>
</g>
</g>
<!-- Node24&#45;&gt;Node25 -->
<g id="edge25" class="edge">
<title>Node24&#45;&gt;Node25</title>
<path fill="none" stroke="midnightblue" d="M1779.5,-151.57C1779.5,-139.56 1779.5,-125.29 1779.5,-114.03"/>
<polygon fill="midnightblue" stroke="midnightblue" points="1776,-151.8 1779.5,-161.8 1783,-151.8 1776,-151.8"/>
</g>
<!-- Node27 -->
<g id="node27" class="node">
<title>Node27</title>
<g id="a_node27"><a xlink:href="DCMPlanner_8cpp.html" target="_top" xlink:title=" ">
<polygon fill="none" stroke="black" points="1889.5,-84 1889.5,-103 2047.5,-103 2047.5,-84 1889.5,-84"/>
<text text-anchor="middle" x="1968.5" y="-91" font-family="Helvetica,sans-Serif" font-size="10.00">Planners/src/DCMPlanner.cpp</text>
</a>
</g>
</g>
<!-- Node24&#45;&gt;Node27 -->
<g id="edge27" class="edge">
<title>Node24&#45;&gt;Node27</title>
<path fill="none" stroke="midnightblue" d="M1821.63,-157.83C1861.18,-140.78 1918.62,-116.01 1948.6,-103.08"/>
<polygon fill="midnightblue" stroke="midnightblue" points="1819.79,-154.82 1811.99,-161.99 1822.56,-161.24 1819.79,-154.82"/>
</g>
<!-- Node26 -->
<g id="node26" class="node">
<title>Node26</title>
<g id="a_node26"><a xlink:href="TimeVaryingDCMPlanner_8cpp.html" target="_top" xlink:title=" ">
<polygon fill="none" stroke="black" points="1857.5,-0.5 1857.5,-30.5 1997.5,-30.5 1997.5,-0.5 1857.5,-0.5"/>
<text text-anchor="start" x="1865.5" y="-18.5" font-family="Helvetica,sans-Serif" font-size="10.00">Planners/src/TimeVarying</text>
<text text-anchor="middle" x="1927.5" y="-7.5" font-family="Helvetica,sans-Serif" font-size="10.00">DCMPlanner.cpp</text>
</a>
</g>
</g>
<!-- Node25&#45;&gt;Node26 -->
<g id="edge26" class="edge">
<title>Node25&#45;&gt;Node26</title>
<path fill="none" stroke="midnightblue" d="M1826.61,-68.31C1850.72,-55.93 1879.24,-41.28 1899.8,-30.73"/>
<polygon fill="midnightblue" stroke="midnightblue" points="1824.91,-65.25 1817.61,-72.93 1828.11,-71.47 1824.91,-65.25"/>
</g>
<!-- Node28&#45;&gt;Node26 -->
<g id="edge32" class="edge">
<title>Node28&#45;&gt;Node26</title>
<path fill="none" stroke="midnightblue" d="M2086.64,-151.54C2084.52,-127.25 2077.72,-90.36 2056.5,-67 2040.65,-49.55 2018.03,-38.06 1996.15,-30.53"/>
<polygon fill="midnightblue" stroke="midnightblue" points="2083.16,-151.97 2087.32,-161.72 2090.14,-151.5 2083.16,-151.97"/>
</g>
<!-- Node28&#45;&gt;Node29 -->
<g id="edge29" class="edge">
<title>Node28&#45;&gt;Node29</title>
<path fill="none" stroke="midnightblue" d="M2146.08,-159.19C2191.81,-146.07 2255.41,-127.81 2303.41,-114.04"/>
<polygon fill="midnightblue" stroke="midnightblue" points="2144.97,-155.87 2136.32,-161.99 2146.9,-162.6 2144.97,-155.87"/>
</g>
<!-- Node31 -->
<g id="node31" class="node">
<title>Node31</title>
<g id="a_node31"><a xlink:href="QuinticSpline_8cpp.html" target="_top" xlink:title=" ">
<polygon fill="none" stroke="black" points="2103.5,-84 2103.5,-103 2267.5,-103 2267.5,-84 2103.5,-84"/>
<text text-anchor="middle" x="2185.5" y="-91" font-family="Helvetica,sans-Serif" font-size="10.00">Planners/src/QuinticSpline.cpp</text>
</a>
</g>
</g>
<!-- Node28&#45;&gt;Node31 -->
<g id="edge31" class="edge">
<title>Node28&#45;&gt;Node31</title>
<path fill="none" stroke="midnightblue" d="M2112.5,-155.21C2132.83,-138.3 2160.48,-115.31 2175.23,-103.04"/>
<polygon fill="midnightblue" stroke="midnightblue" points="2110.02,-152.72 2104.57,-161.8 2114.5,-158.1 2110.02,-152.72"/>
</g>
<!-- Node30 -->
<g id="node30" class="node">
<title>Node30</title>
<g id="a_node30"><a xlink:href="SwingFootPlanner_8cpp.html" target="_top" xlink:title=" ">
<polygon fill="none" stroke="black" points="2279,-6 2279,-25 2464,-25 2464,-6 2279,-6"/>
<text text-anchor="middle" x="2371.5" y="-13" font-family="Helvetica,sans-Serif" font-size="10.00">Planners/src/SwingFootPlanner.cpp</text>
</a>
</g>
</g>
<!-- Node29&#45;&gt;Node30 -->
<g id="edge30" class="edge">
<title>Node29&#45;&gt;Node30</title>
<path fill="none" stroke="midnightblue" d="M2371.5,-62.55C2371.5,-49.06 2371.5,-34.15 2371.5,-25.05"/>
<polygon fill="midnightblue" stroke="midnightblue" points="2368,-62.93 2371.5,-72.93 2375,-62.93 2368,-62.93"/>
</g>
<!-- Node32&#45;&gt;Node29 -->
<g id="edge36" class="edge">
<title>Node32&#45;&gt;Node29</title>
<path fill="none" stroke="midnightblue" d="M2389.82,-151.93C2385.97,-139.85 2381.36,-125.41 2377.73,-114.03"/>
<polygon fill="midnightblue" stroke="midnightblue" points="2386.6,-153.34 2392.97,-161.8 2393.27,-151.21 2386.6,-153.34"/>
</g>
<!-- Node33 -->
<g id="node33" class="node">
<title>Node33</title>
<g id="a_node33"><a xlink:href="SO3Planner_8tpp.html" target="_top" xlink:title=" ">
<polygon fill="none" stroke="black" points="2475.5,-78.5 2475.5,-108.5 2671.5,-108.5 2671.5,-78.5 2475.5,-78.5"/>
<text text-anchor="start" x="2483.5" y="-96.5" font-family="Helvetica,sans-Serif" font-size="10.00">Planners/include/Bipedal</text>
<text text-anchor="middle" x="2573.5" y="-85.5" font-family="Helvetica,sans-Serif" font-size="10.00">Locomotion/Planners/SO3Planner.tpp</text>
</a>
</g>
</g>
<!-- Node32&#45;&gt;Node33 -->
<g id="edge34" class="edge">
<title>Node32&#45;&gt;Node33</title>
<path fill="none" stroke="midnightblue" d="M2431.53,-157.58C2462.11,-142.73 2506.7,-122.16 2537.8,-108.6"/>
<polygon fill="midnightblue" stroke="midnightblue" points="2429.96,-154.45 2422.51,-161.99 2433.03,-160.74 2429.96,-154.45"/>
</g>
<!-- Node33&#45;&gt;Node32 -->
<g id="edge35" class="edge">
<title>Node33&#45;&gt;Node32</title>
<path fill="none" stroke="midnightblue" d="M2539.27,-113.02C2508.62,-127.89 2464.03,-148.46 2433,-161.99"/>
<polygon fill="midnightblue" stroke="midnightblue" points="2540.86,-116.14 2548.3,-108.6 2537.78,-109.85 2540.86,-116.14"/>
</g>
<!-- Node35 -->
<g id="node35" class="node">
<title>Node35</title>
<g id="a_node35"><a xlink:href="YarpSensorBridgeImpl_8h.html" target="_top" xlink:title=" ">
<polygon fill="none" stroke="black" points="2689.5,-73 2689.5,-114 2899.5,-114 2899.5,-73 2689.5,-73"/>
<text text-anchor="start" x="2697.5" y="-102" font-family="Helvetica,sans-Serif" font-size="10.00">RobotInterface/YarpImplementation</text>
<text text-anchor="start" x="2697.5" y="-91" font-family="Helvetica,sans-Serif" font-size="10.00">/include/BipedalLocomotion</text>
<text text-anchor="middle" x="2794.5" y="-80" font-family="Helvetica,sans-Serif" font-size="10.00">/RobotInterface/YarpSensorBridgeImpl.h</text>
</a>
</g>
</g>
<!-- Node34&#45;&gt;Node35 -->
<g id="edge39" class="edge">
<title>Node34&#45;&gt;Node35</title>
<path fill="none" stroke="midnightblue" d="M2734.59,-149.36C2747.16,-137.85 2761.6,-124.63 2773.15,-114.05"/>
<polygon fill="midnightblue" stroke="midnightblue" points="2732.06,-146.94 2727.04,-156.27 2736.78,-152.1 2732.06,-146.94"/>
</g>
<!-- Node36 -->
<g id="node36" class="node">
<title>Node36</title>
<g id="a_node36"><a xlink:href="YarpSensorBridge_8cpp.html" target="_top" xlink:title=" ">
<polygon fill="none" stroke="black" points="2699.5,-0.5 2699.5,-30.5 2889.5,-30.5 2889.5,-0.5 2699.5,-0.5"/>
<text text-anchor="start" x="2707.5" y="-18.5" font-family="Helvetica,sans-Serif" font-size="10.00">RobotInterface/YarpImplementation</text>
<text text-anchor="middle" x="2794.5" y="-7.5" font-family="Helvetica,sans-Serif" font-size="10.00">/src/YarpSensorBridge.cpp</text>
</a>
</g>
</g>
<!-- Node35&#45;&gt;Node36 -->
<g id="edge40" class="edge">
<title>Node35&#45;&gt;Node36</title>
<path fill="none" stroke="midnightblue" d="M2794.5,-62.78C2794.5,-51.75 2794.5,-39.75 2794.5,-30.73"/>
<polygon fill="midnightblue" stroke="midnightblue" points="2791,-62.93 2794.5,-72.93 2798,-62.93 2791,-62.93"/>
</g>
<!-- Node38 -->
<g id="node38" class="node">
<title>Node38</title>
<g id="a_node38"><a xlink:href="TaskSpaceInverseDynamics_8cpp.html" target="_top" xlink:title=" ">
<polygon fill="none" stroke="black" points="2917.5,-78.5 2917.5,-108.5 3063.5,-108.5 3063.5,-78.5 2917.5,-78.5"/>
<text text-anchor="start" x="2925.5" y="-96.5" font-family="Helvetica,sans-Serif" font-size="10.00">TSID/src/TaskSpaceInverse</text>
<text text-anchor="middle" x="2990.5" y="-85.5" font-family="Helvetica,sans-Serif" font-size="10.00">Dynamics.cpp</text>
</a>
</g>
</g>
<!-- Node37&#45;&gt;Node38 -->
<g id="edge42" class="edge">
<title>Node37&#45;&gt;Node38</title>
<path fill="none" stroke="midnightblue" d="M2972.09,-152.2C2976.62,-138.02 2982.2,-120.52 2986.02,-108.53"/>
<polygon fill="midnightblue" stroke="midnightblue" points="2968.73,-151.21 2969.03,-161.8 2975.4,-153.34 2968.73,-151.21"/>
</g>
</g>
</svg>
