<?xml version="1.0" encoding="UTF-8" standalone="no"?>
<!DOCTYPE svg PUBLIC "-//W3C//DTD SVG 1.1//EN"
 "http://www.w3.org/Graphics/SVG/1.1/DTD/svg11.dtd">
<!-- Generated by graphviz version 2.43.0 (0)
 -->
<!-- Title: System/include/BipedalLocomotion/System/AdvanceableRunner.h Pages: 1 -->
<!--zoomable 363 -->
<svg id="main" version="1.1" xmlns="http://www.w3.org/2000/svg" xmlns:xlink="http://www.w3.org/1999/xlink" xml:space="preserve" onload="init(evt)">
<style type="text/css"><![CDATA[
.edge:hover path { stroke: red; }
.edge:hover polygon { stroke: red; fill: red; }
]]></style>
<script type="text/javascript"><![CDATA[
var edges = document.getElementsByTagName('g');
if (edges && edges.length) {
  for (var i=0;i<edges.length;i++) {
    if (edges[i].id.substr(0,4)=='edge') {
      edges[i].setAttribute('class','edge');
    }
  }
}
]]></script>
        <defs>
                <circle id="rim" cx="0" cy="0" r="7"/>
                <circle id="rim2" cx="0" cy="0" r="3.5"/>
                <g id="zoomPlus">
                        <use xlink:href="#rim" fill="#404040">
                                <set attributeName="fill" to="#808080" begin="zoomplus.mouseover" end="zoomplus.mouseout"/>
                        </use>
                        <path d="M-4,0h8M0,-4v8" fill="none" stroke="white" stroke-width="1.5" pointer-events="none"/>
                </g>
                <g id="zoomMin">
                        <use xlink:href="#rim" fill="#404040">
                                <set attributeName="fill" to="#808080" begin="zoomminus.mouseover" end="zoomminus.mouseout"/>
                        </use>
                        <path d="M-4,0h8" fill="none" stroke="white" stroke-width="1.5" pointer-events="none"/>
                </g>
                <g id="dirArrow">
                        <path fill="none" stroke="white" stroke-width="1.5" d="M0,-3.0v7 M-2.5,-0.5L0,-3.0L2.5,-0.5"/>
                </g>
               <g id="resetDef">
                       <use xlink:href="#rim2" fill="#404040">
                               <set attributeName="fill" to="#808080" begin="reset.mouseover" end="reset.mouseout"/>
                       </use>
               </g>
        </defs>

<script type="text/javascript">
var viewWidth = 1139;
var viewHeight = 363;
var sectionId = 'dynsection-0';
</script>
<script xlink:href="svgpan.js"/>
<svg id="graph" class="graph">
<g id="viewport">
<title>System/include/BipedalLocomotion/System/AdvanceableRunner.h</title>
<!-- Node1 -->
<g id="node1" class="node">
<title>Node1</title>
<g id="a_node1"><a xlink:title=" ">
<polygon fill="#bfbfbf" stroke="black" points="482.5,-324.5 482.5,-354.5 670.5,-354.5 670.5,-324.5 482.5,-324.5"/>
<text text-anchor="start" x="490.5" y="-342.5" font-family="Helvetica,sans-Serif" font-size="10.00">System/include/BipedalLocomotion</text>
<text text-anchor="middle" x="576.5" y="-331.5" font-family="Helvetica,sans-Serif" font-size="10.00">/System/AdvanceableRunner.h</text>
</a>
</g>
</g>
<!-- Node2 -->
<g id="node2" class="node">
<title>Node2</title>
<g id="a_node2"><a xlink:href="TemplateHelpers_8h_source.html" target="_top" xlink:title=" ">
<polygon fill="none" stroke="black" points="52.5,-56.5 52.5,-86.5 210.5,-86.5 210.5,-56.5 52.5,-56.5"/>
<text text-anchor="start" x="60.5" y="-74.5" font-family="Helvetica,sans-Serif" font-size="10.00">BipedalLocomotion/Generic</text>
<text text-anchor="middle" x="131.5" y="-63.5" font-family="Helvetica,sans-Serif" font-size="10.00">Container/TemplateHelpers.h</text>
</a>
</g>
</g>
<!-- Node1&#45;&gt;Node2 -->
<g id="edge1" class="edge">
<title>Node1&#45;&gt;Node2</title>
<path fill="none" stroke="midnightblue" d="M482.16,-334.09C395.21,-328.34 274.01,-315.56 235.5,-288 170.13,-241.22 144.17,-142.05 135.38,-96.41"/>
<polygon fill="midnightblue" stroke="midnightblue" points="138.82,-95.73 133.59,-86.51 131.93,-96.98 138.82,-95.73"/>
</g>
<!-- Node3 -->
<g id="node3" class="node">
<title>Node3</title>
<g id="a_node3"><a xlink:title=" ">
<polygon fill="none" stroke="#bfbfbf" points="0,-0.5 0,-19.5 69,-19.5 69,-0.5 0,-0.5"/>
<text text-anchor="middle" x="34.5" y="-7.5" font-family="Helvetica,sans-Serif" font-size="10.00">type_traits</text>
</a>
</g>
</g>
<!-- Node1&#45;&gt;Node3 -->
<g id="edge36" class="edge">
<title>Node1&#45;&gt;Node3</title>
<path fill="none" stroke="midnightblue" d="M482.24,-335.21C324.58,-327.12 24.5,-299.49 24.5,-206.5 24.5,-206.5 24.5,-206.5 24.5,-137.5 24.5,-99.08 29.14,-54.31 32.1,-29.66"/>
<polygon fill="midnightblue" stroke="midnightblue" points="35.59,-29.93 33.35,-19.57 28.65,-29.06 35.59,-29.93"/>
</g>
<!-- Node6 -->
<g id="node6" class="node">
<title>Node6</title>
<g id="a_node6"><a xlink:href="IParametersHandler_8h.html" target="_top" xlink:title=" ">
<polygon fill="none" stroke="black" points="327,-190.5 327,-220.5 496,-220.5 496,-190.5 327,-190.5"/>
<text text-anchor="start" x="335" y="-208.5" font-family="Helvetica,sans-Serif" font-size="10.00">BipedalLocomotion/Parameters</text>
<text text-anchor="middle" x="411.5" y="-197.5" font-family="Helvetica,sans-Serif" font-size="10.00">Handler/IParametersHandler.h</text>
</a>
</g>
</g>
<!-- Node1&#45;&gt;Node6 -->
<g id="edge5" class="edge">
<title>Node1&#45;&gt;Node6</title>
<path fill="none" stroke="midnightblue" d="M505.47,-324.4C482.63,-316.86 458.79,-305.39 441.5,-288 426.11,-272.52 418.53,-248.49 414.85,-230.52"/>
<polygon fill="midnightblue" stroke="midnightblue" points="418.27,-229.74 413.07,-220.5 411.37,-230.96 418.27,-229.74"/>
</g>
<!-- Node7 -->
<g id="node7" class="node">
<title>Node7</title>
<g id="a_node7"><a xlink:title=" ">
<polygon fill="none" stroke="#bfbfbf" points="599.5,-62 599.5,-81 657.5,-81 657.5,-62 599.5,-62"/>
<text text-anchor="middle" x="628.5" y="-69" font-family="Helvetica,sans-Serif" font-size="10.00">memory</text>
</a>
</g>
</g>
<!-- Node1&#45;&gt;Node7 -->
<g id="edge34" class="edge">
<title>Node1&#45;&gt;Node7</title>
<path fill="none" stroke="midnightblue" d="M588.38,-324.49C595.82,-314.87 604.84,-301.46 609.5,-288 633.56,-218.53 631.93,-129.3 629.84,-91.15"/>
<polygon fill="midnightblue" stroke="midnightblue" points="633.32,-90.78 629.2,-81.02 626.33,-91.23 633.32,-90.78"/>
</g>
<!-- Node15 -->
<g id="node15" class="node">
<title>Node15</title>
<g id="a_node15"><a xlink:href="Advanceable_8h.html" target="_top" xlink:title=" ">
<polygon fill="none" stroke="black" points="244.5,-257.5 244.5,-287.5 394.5,-287.5 394.5,-257.5 244.5,-257.5"/>
<text text-anchor="start" x="252.5" y="-275.5" font-family="Helvetica,sans-Serif" font-size="10.00">BipedalLocomotion/System</text>
<text text-anchor="middle" x="319.5" y="-264.5" font-family="Helvetica,sans-Serif" font-size="10.00">/Advanceable.h</text>
</a>
</g>
</g>
<!-- Node1&#45;&gt;Node15 -->
<g id="edge17" class="edge">
<title>Node1&#45;&gt;Node15</title>
<path fill="none" stroke="midnightblue" d="M521.05,-324.48C481.16,-314.39 427.21,-300.74 385.16,-290.11"/>
<polygon fill="midnightblue" stroke="midnightblue" points="385.85,-286.67 375.29,-287.61 384.13,-293.46 385.85,-286.67"/>
</g>
<!-- Node17 -->
<g id="node17" class="node">
<title>Node17</title>
<g id="a_node17"><a xlink:href="Clock_8h.html" target="_top" xlink:title=" ">
<polygon fill="none" stroke="black" points="656.5,-257.5 656.5,-287.5 806.5,-287.5 806.5,-257.5 656.5,-257.5"/>
<text text-anchor="start" x="664.5" y="-275.5" font-family="Helvetica,sans-Serif" font-size="10.00">BipedalLocomotion/System</text>
<text text-anchor="middle" x="731.5" y="-264.5" font-family="Helvetica,sans-Serif" font-size="10.00">/Clock.h</text>
</a>
</g>
</g>
<!-- Node1&#45;&gt;Node17 -->
<g id="edge20" class="edge">
<title>Node1&#45;&gt;Node17</title>
<path fill="none" stroke="midnightblue" d="M610.13,-324.4C633.08,-314.77 663.69,-301.94 688.42,-291.56"/>
<polygon fill="midnightblue" stroke="midnightblue" points="690.06,-294.67 697.93,-287.58 687.36,-288.22 690.06,-294.67"/>
</g>
<!-- Node21 -->
<g id="node21" class="node">
<title>Node21</title>
<g id="a_node21"><a xlink:href="SharedResource_8h.html" target="_top" xlink:title=" ">
<polygon fill="none" stroke="black" points="450.5,-257.5 450.5,-287.5 600.5,-287.5 600.5,-257.5 450.5,-257.5"/>
<text text-anchor="start" x="458.5" y="-275.5" font-family="Helvetica,sans-Serif" font-size="10.00">BipedalLocomotion/System</text>
<text text-anchor="middle" x="525.5" y="-264.5" font-family="Helvetica,sans-Serif" font-size="10.00">/SharedResource.h</text>
</a>
</g>
</g>
<!-- Node1&#45;&gt;Node21 -->
<g id="edge27" class="edge">
<title>Node1&#45;&gt;Node21</title>
<path fill="none" stroke="midnightblue" d="M565.43,-324.4C558.82,-315.96 550.27,-305.07 542.78,-295.52"/>
<polygon fill="midnightblue" stroke="midnightblue" points="545.47,-293.28 536.54,-287.58 539.96,-297.6 545.47,-293.28"/>
</g>
<!-- Node23 -->
<g id="node23" class="node">
<title>Node23</title>
<g id="a_node23"><a xlink:href="Logger_8h.html" target="_top" xlink:title=" ">
<polygon fill="none" stroke="black" points="824.5,-257.5 824.5,-287.5 996.5,-287.5 996.5,-257.5 824.5,-257.5"/>
<text text-anchor="start" x="832.5" y="-275.5" font-family="Helvetica,sans-Serif" font-size="10.00">BipedalLocomotion/TextLogging</text>
<text text-anchor="middle" x="910.5" y="-264.5" font-family="Helvetica,sans-Serif" font-size="10.00">/Logger.h</text>
</a>
</g>
</g>
<!-- Node1&#45;&gt;Node23 -->
<g id="edge30" class="edge">
<title>Node1&#45;&gt;Node23</title>
<path fill="none" stroke="midnightblue" d="M648.56,-324.48C701.37,-314.2 773.14,-300.23 828.2,-289.52"/>
<polygon fill="midnightblue" stroke="midnightblue" points="829.13,-292.9 838.28,-287.55 827.8,-286.03 829.13,-292.9"/>
</g>
<!-- Node26 -->
<g id="node26" class="node">
<title>Node26</title>
<g id="a_node26"><a xlink:title=" ">
<polygon fill="none" stroke="#bfbfbf" points="1014.5,-263 1014.5,-282 1064.5,-282 1064.5,-263 1014.5,-263"/>
<text text-anchor="middle" x="1039.5" y="-270" font-family="Helvetica,sans-Serif" font-size="10.00">atomic</text>
</a>
</g>
</g>
<!-- Node1&#45;&gt;Node26 -->
<g id="edge33" class="edge">
<title>Node1&#45;&gt;Node26</title>
<path fill="none" stroke="midnightblue" d="M670.83,-335.13C758.74,-330.18 892.81,-318 1005.5,-288 1007.85,-287.37 1010.26,-286.61 1012.65,-285.77"/>
<polygon fill="midnightblue" stroke="midnightblue" points="1014.17,-288.93 1022.19,-282.01 1011.61,-282.42 1014.17,-288.93"/>
</g>
<!-- Node27 -->
<g id="node27" class="node">
<title>Node27</title>
<g id="a_node27"><a xlink:title=" ">
<polygon fill="none" stroke="#bfbfbf" points="1082.5,-263 1082.5,-282 1130.5,-282 1130.5,-263 1082.5,-263"/>
<text text-anchor="middle" x="1106.5" y="-270" font-family="Helvetica,sans-Serif" font-size="10.00">thread</text>
</a>
</g>
</g>
<!-- Node1&#45;&gt;Node27 -->
<g id="edge35" class="edge">
<title>Node1&#45;&gt;Node27</title>
<path fill="none" stroke="midnightblue" d="M670.56,-337.64C771.68,-334.71 936.38,-324.13 1073.5,-288 1075.8,-287.39 1078.14,-286.65 1080.46,-285.82"/>
<polygon fill="midnightblue" stroke="midnightblue" points="1081.78,-289.06 1089.74,-282.07 1079.16,-282.57 1081.78,-289.06"/>
</g>
<!-- Node2&#45;&gt;Node3 -->
<g id="edge2" class="edge">
<title>Node2&#45;&gt;Node3</title>
<path fill="none" stroke="midnightblue" d="M108.51,-56.4C93.11,-46.95 72.91,-34.56 57.5,-25.11"/>
<polygon fill="midnightblue" stroke="midnightblue" points="58.97,-21.9 48.61,-19.66 55.31,-27.87 58.97,-21.9"/>
</g>
<!-- Node4 -->
<g id="node4" class="node">
<title>Node4</title>
<g id="a_node4"><a xlink:title=" ">
<polygon fill="none" stroke="#bfbfbf" points="179,-0.5 179,-19.5 252,-19.5 252,-0.5 179,-0.5"/>
<text text-anchor="middle" x="215.5" y="-7.5" font-family="Helvetica,sans-Serif" font-size="10.00">string_view</text>
</a>
</g>
</g>
<!-- Node2&#45;&gt;Node4 -->
<g id="edge3" class="edge">
<title>Node2&#45;&gt;Node4</title>
<path fill="none" stroke="midnightblue" d="M151.41,-56.4C164.49,-47.13 181.58,-35.03 194.82,-25.65"/>
<polygon fill="midnightblue" stroke="midnightblue" points="197.14,-28.29 203.28,-19.66 193.09,-22.58 197.14,-28.29"/>
</g>
<!-- Node5 -->
<g id="node5" class="node">
<title>Node5</title>
<g id="a_node5"><a xlink:title=" ">
<polygon fill="none" stroke="#bfbfbf" points="92,-0.5 92,-19.5 161,-19.5 161,-0.5 92,-0.5"/>
<text text-anchor="middle" x="126.5" y="-7.5" font-family="Helvetica,sans-Serif" font-size="10.00">Eigen/Core</text>
</a>
</g>
</g>
<!-- Node2&#45;&gt;Node5 -->
<g id="edge4" class="edge">
<title>Node2&#45;&gt;Node5</title>
<path fill="none" stroke="midnightblue" d="M130.32,-56.4C129.65,-48.47 128.81,-38.46 128.08,-29.86"/>
<polygon fill="midnightblue" stroke="midnightblue" points="131.55,-29.33 127.23,-19.66 124.58,-29.92 131.55,-29.33"/>
</g>
<!-- Node6&#45;&gt;Node2 -->
<g id="edge9" class="edge">
<title>Node6&#45;&gt;Node2</title>
<path fill="none" stroke="midnightblue" d="M336.05,-190.5C287.41,-180.59 229.32,-166.83 207.5,-154 182.3,-139.19 160.38,-113.47 146.64,-94.89"/>
<polygon fill="midnightblue" stroke="midnightblue" points="149.41,-92.75 140.75,-86.66 143.72,-96.83 149.41,-92.75"/>
</g>
<!-- Node6&#45;&gt;Node7 -->
<g id="edge6" class="edge">
<title>Node6&#45;&gt;Node7</title>
<path fill="none" stroke="midnightblue" d="M439.65,-190.3C458.35,-180.61 483.27,-167.18 504.5,-154 524.82,-141.38 528.6,-136.28 548.5,-123 567.57,-110.27 589.63,-96.41 605.75,-86.43"/>
<polygon fill="midnightblue" stroke="midnightblue" points="607.81,-89.27 614.49,-81.05 604.14,-83.32 607.81,-89.27"/>
</g>
<!-- Node8 -->
<g id="node8" class="node">
<title>Node8</title>
<g id="a_node8"><a xlink:title=" ">
<polygon fill="none" stroke="#bfbfbf" points="386.5,-129 386.5,-148 430.5,-148 430.5,-129 386.5,-129"/>
<text text-anchor="middle" x="408.5" y="-136" font-family="Helvetica,sans-Serif" font-size="10.00">string</text>
</a>
</g>
</g>
<!-- Node6&#45;&gt;Node8 -->
<g id="edge7" class="edge">
<title>Node6&#45;&gt;Node8</title>
<path fill="none" stroke="midnightblue" d="M410.85,-190.4C410.41,-180.96 409.84,-168.45 409.36,-158.19"/>
<polygon fill="midnightblue" stroke="midnightblue" points="412.86,-158.02 408.9,-148.19 405.87,-158.35 412.86,-158.02"/>
</g>
<!-- Node9 -->
<g id="node9" class="node">
<title>Node9</title>
<g id="a_node9"><a xlink:title=" ">
<polygon fill="none" stroke="#bfbfbf" points="449,-129 449,-148 496,-148 496,-129 449,-129"/>
<text text-anchor="middle" x="472.5" y="-136" font-family="Helvetica,sans-Serif" font-size="10.00">vector</text>
</a>
</g>
</g>
<!-- Node6&#45;&gt;Node9 -->
<g id="edge8" class="edge">
<title>Node6&#45;&gt;Node9</title>
<path fill="none" stroke="midnightblue" d="M424.74,-190.4C434.34,-180.16 447.35,-166.3 457.37,-155.62"/>
<polygon fill="midnightblue" stroke="midnightblue" points="460.05,-157.88 464.34,-148.19 454.95,-153.09 460.05,-157.88"/>
</g>
<!-- Node10 -->
<g id="node10" class="node">
<title>Node10</title>
<g id="a_node10"><a xlink:href="Vector_8h_source.html" target="_top" xlink:title=" ">
<polygon fill="none" stroke="black" points="217,-123.5 217,-153.5 368,-153.5 368,-123.5 217,-123.5"/>
<text text-anchor="start" x="225" y="-141.5" font-family="Helvetica,sans-Serif" font-size="10.00">BipedalLocomotion/Generic</text>
<text text-anchor="middle" x="292.5" y="-130.5" font-family="Helvetica,sans-Serif" font-size="10.00">Container/Vector.h</text>
</a>
</g>
</g>
<!-- Node6&#45;&gt;Node10 -->
<g id="edge10" class="edge">
<title>Node6&#45;&gt;Node10</title>
<path fill="none" stroke="midnightblue" d="M385.68,-190.4C368.53,-181.03 345.8,-168.62 327.09,-158.39"/>
<polygon fill="midnightblue" stroke="midnightblue" points="328.72,-155.3 318.27,-153.58 325.37,-161.44 328.72,-155.3"/>
</g>
<!-- Node10&#45;&gt;Node2 -->
<g id="edge12" class="edge">
<title>Node10&#45;&gt;Node2</title>
<path fill="none" stroke="midnightblue" d="M257.57,-123.4C233.62,-113.73 201.65,-100.82 175.9,-90.43"/>
<polygon fill="midnightblue" stroke="midnightblue" points="176.95,-87.07 166.37,-86.58 174.33,-93.57 176.95,-87.07"/>
</g>
<!-- Node10&#45;&gt;Node7 -->
<g id="edge16" class="edge">
<title>Node10&#45;&gt;Node7</title>
<path fill="none" stroke="midnightblue" d="M368.04,-124.61C371.24,-124.07 374.4,-123.53 377.5,-123 471.72,-106.96 497.19,-111.76 589.5,-87 592.31,-86.25 595.21,-85.37 598.09,-84.43"/>
<polygon fill="midnightblue" stroke="midnightblue" points="599.41,-87.67 607.68,-81.06 597.09,-81.07 599.41,-87.67"/>
</g>
<!-- Node11 -->
<g id="node11" class="node">
<title>Node11</title>
<g id="a_node11"><a xlink:title=" ">
<polygon fill="none" stroke="#bfbfbf" points="377,-62 377,-81 498,-81 498,-62 377,-62"/>
<text text-anchor="middle" x="437.5" y="-69" font-family="Helvetica,sans-Serif" font-size="10.00">iDynTree/Core/Span.h</text>
</a>
</g>
</g>
<!-- Node10&#45;&gt;Node11 -->
<g id="edge11" class="edge">
<title>Node10&#45;&gt;Node11</title>
<path fill="none" stroke="midnightblue" d="M323.96,-123.4C349.4,-111.99 384.9,-96.08 409.4,-85.1"/>
<polygon fill="midnightblue" stroke="midnightblue" points="410.83,-88.29 418.52,-81.01 407.97,-81.9 410.83,-88.29"/>
</g>
<!-- Node12 -->
<g id="node12" class="node">
<title>Node12</title>
<g id="a_node12"><a xlink:title=" ">
<polygon fill="none" stroke="#bfbfbf" points="516,-62 516,-81 581,-81 581,-62 516,-62"/>
<text text-anchor="middle" x="548.5" y="-69" font-family="Helvetica,sans-Serif" font-size="10.00">functional</text>
</a>
</g>
</g>
<!-- Node10&#45;&gt;Node12 -->
<g id="edge13" class="edge">
<title>Node10&#45;&gt;Node12</title>
<path fill="none" stroke="midnightblue" d="M359.94,-123.41C402.3,-114.11 457.92,-101.08 506.5,-87 509.44,-86.15 512.48,-85.21 515.52,-84.23"/>
<polygon fill="midnightblue" stroke="midnightblue" points="516.7,-87.53 525.09,-81.05 514.49,-80.89 516.7,-87.53"/>
</g>
<!-- Node13 -->
<g id="node13" class="node">
<title>Node13</title>
<g id="a_node13"><a xlink:title=" ">
<polygon fill="none" stroke="#bfbfbf" points="228.5,-62 228.5,-81 280.5,-81 280.5,-62 228.5,-62"/>
<text text-anchor="middle" x="254.5" y="-69" font-family="Helvetica,sans-Serif" font-size="10.00">cassert</text>
</a>
</g>
</g>
<!-- Node10&#45;&gt;Node13 -->
<g id="edge14" class="edge">
<title>Node10&#45;&gt;Node13</title>
<path fill="none" stroke="midnightblue" d="M284.25,-123.4C278.51,-113.56 270.8,-100.38 264.67,-89.89"/>
<polygon fill="midnightblue" stroke="midnightblue" points="267.65,-88.06 259.58,-81.19 261.61,-91.59 267.65,-88.06"/>
</g>
<!-- Node14 -->
<g id="node14" class="node">
<title>Node14</title>
<g id="a_node14"><a xlink:title=" ">
<polygon fill="none" stroke="#bfbfbf" points="298.5,-62 298.5,-81 358.5,-81 358.5,-62 298.5,-62"/>
<text text-anchor="middle" x="328.5" y="-69" font-family="Helvetica,sans-Serif" font-size="10.00">iostream</text>
</a>
</g>
</g>
<!-- Node10&#45;&gt;Node14 -->
<g id="edge15" class="edge">
<title>Node10&#45;&gt;Node14</title>
<path fill="none" stroke="midnightblue" d="M300.31,-123.4C305.7,-113.66 312.91,-100.65 318.69,-90.21"/>
<polygon fill="midnightblue" stroke="midnightblue" points="321.9,-91.64 323.68,-81.19 315.78,-88.25 321.9,-91.64"/>
</g>
<!-- Node15&#45;&gt;Node6 -->
<g id="edge19" class="edge">
<title>Node15&#45;&gt;Node6</title>
<path fill="none" stroke="midnightblue" d="M339.46,-257.4C352.24,-248.37 369.02,-236.51 383.17,-226.52"/>
<polygon fill="midnightblue" stroke="midnightblue" points="385.43,-229.21 391.58,-220.58 381.39,-223.49 385.43,-229.21"/>
</g>
<!-- Node16 -->
<g id="node16" class="node">
<title>Node16</title>
<g id="a_node16"><a xlink:title=" ">
<polygon fill="none" stroke="#bfbfbf" points="258,-196 258,-215 309,-215 309,-196 258,-196"/>
<text text-anchor="middle" x="283.5" y="-203" font-family="Helvetica,sans-Serif" font-size="10.00">variant</text>
</a>
</g>
</g>
<!-- Node15&#45;&gt;Node16 -->
<g id="edge18" class="edge">
<title>Node15&#45;&gt;Node16</title>
<path fill="none" stroke="midnightblue" d="M311.69,-257.4C306.3,-247.66 299.09,-234.65 293.31,-224.21"/>
<polygon fill="midnightblue" stroke="midnightblue" points="296.22,-222.25 288.32,-215.19 290.1,-225.64 296.22,-222.25"/>
</g>
<!-- Node17&#45;&gt;Node7 -->
<g id="edge21" class="edge">
<title>Node17&#45;&gt;Node7</title>
<path fill="none" stroke="midnightblue" d="M715.8,-257.24C706.05,-247.73 693.84,-234.53 685.5,-221 658.88,-177.84 641.12,-120.19 633.21,-91.05"/>
<polygon fill="midnightblue" stroke="midnightblue" points="636.51,-89.83 630.58,-81.05 629.74,-91.61 636.51,-89.83"/>
</g>
<!-- Node18 -->
<g id="node18" class="node">
<title>Node18</title>
<g id="a_node18"><a xlink:href="IClock_8h.html" target="_top" xlink:title=" ">
<polygon fill="none" stroke="black" points="797.5,-123.5 797.5,-153.5 947.5,-153.5 947.5,-123.5 797.5,-123.5"/>
<text text-anchor="start" x="805.5" y="-141.5" font-family="Helvetica,sans-Serif" font-size="10.00">BipedalLocomotion/System</text>
<text text-anchor="middle" x="872.5" y="-130.5" font-family="Helvetica,sans-Serif" font-size="10.00">/IClock.h</text>
</a>
</g>
</g>
<!-- Node17&#45;&gt;Node18 -->
<g id="edge22" class="edge">
<title>Node17&#45;&gt;Node18</title>
<path fill="none" stroke="midnightblue" d="M795.99,-257.45C817.03,-249.89 838.74,-238.39 853.5,-221 866.97,-205.13 871.31,-181.5 872.53,-163.76"/>
<polygon fill="midnightblue" stroke="midnightblue" points="876.03,-163.73 872.93,-153.6 869.04,-163.46 876.03,-163.73"/>
</g>
<!-- Node20 -->
<g id="node20" class="node">
<title>Node20</title>
<g id="a_node20"><a xlink:href="StdClock_8h.html" target="_top" xlink:title=" ">
<polygon fill="none" stroke="black" points="694.5,-190.5 694.5,-220.5 844.5,-220.5 844.5,-190.5 694.5,-190.5"/>
<text text-anchor="start" x="702.5" y="-208.5" font-family="Helvetica,sans-Serif" font-size="10.00">BipedalLocomotion/System</text>
<text text-anchor="middle" x="769.5" y="-197.5" font-family="Helvetica,sans-Serif" font-size="10.00">/StdClock.h</text>
</a>
</g>
</g>
<!-- Node17&#45;&gt;Node20 -->
<g id="edge24" class="edge">
<title>Node17&#45;&gt;Node20</title>
<path fill="none" stroke="midnightblue" d="M739.75,-257.4C744.53,-249.22 750.66,-238.73 756.12,-229.39"/>
<polygon fill="midnightblue" stroke="midnightblue" points="759.25,-230.98 761.27,-220.58 753.2,-227.44 759.25,-230.98"/>
</g>
<!-- Node19 -->
<g id="node19" class="node">
<title>Node19</title>
<g id="a_node19"><a xlink:title=" ">
<polygon fill="none" stroke="#bfbfbf" points="796.5,-62 796.5,-81 846.5,-81 846.5,-62 796.5,-62"/>
<text text-anchor="middle" x="821.5" y="-69" font-family="Helvetica,sans-Serif" font-size="10.00">chrono</text>
</a>
</g>
</g>
<!-- Node18&#45;&gt;Node19 -->
<g id="edge23" class="edge">
<title>Node18&#45;&gt;Node19</title>
<path fill="none" stroke="midnightblue" d="M861.43,-123.4C853.56,-113.36 842.95,-99.84 834.65,-89.25"/>
<polygon fill="midnightblue" stroke="midnightblue" points="837.25,-86.9 828.32,-81.19 831.74,-91.22 837.25,-86.9"/>
</g>
<!-- Node20&#45;&gt;Node18 -->
<g id="edge25" class="edge">
<title>Node20&#45;&gt;Node18</title>
<path fill="none" stroke="midnightblue" d="M791.85,-190.4C806.43,-181.2 825.65,-169.07 841.67,-158.95"/>
<polygon fill="midnightblue" stroke="midnightblue" points="843.61,-161.87 850.19,-153.58 839.87,-155.95 843.61,-161.87"/>
</g>
<!-- Node20&#45;&gt;Node19 -->
<g id="edge26" class="edge">
<title>Node20&#45;&gt;Node19</title>
<path fill="none" stroke="midnightblue" d="M771.25,-190.48C773.66,-173.86 778.85,-145.58 788.5,-123 793.62,-111.03 801.54,-98.78 808.34,-89.34"/>
<polygon fill="midnightblue" stroke="midnightblue" points="811.2,-91.36 814.39,-81.26 805.6,-87.17 811.2,-91.36"/>
</g>
<!-- Node21&#45;&gt;Node7 -->
<g id="edge28" class="edge">
<title>Node21&#45;&gt;Node7</title>
<path fill="none" stroke="midnightblue" d="M526.85,-257.4C528.84,-240.7 533.47,-212.34 543.5,-190 561.43,-150.05 594.23,-110.15 613.42,-88.67"/>
<polygon fill="midnightblue" stroke="midnightblue" points="616.13,-90.89 620.27,-81.14 610.95,-86.18 616.13,-90.89"/>
</g>
<!-- Node22 -->
<g id="node22" class="node">
<title>Node22</title>
<g id="a_node22"><a xlink:title=" ">
<polygon fill="none" stroke="#bfbfbf" points="552.5,-196 552.5,-215 600.5,-215 600.5,-196 552.5,-196"/>
<text text-anchor="middle" x="576.5" y="-203" font-family="Helvetica,sans-Serif" font-size="10.00">mutex</text>
</a>
</g>
</g>
<!-- Node21&#45;&gt;Node22 -->
<g id="edge29" class="edge">
<title>Node21&#45;&gt;Node22</title>
<path fill="none" stroke="midnightblue" d="M536.57,-257.4C544.44,-247.36 555.05,-233.84 563.35,-223.25"/>
<polygon fill="midnightblue" stroke="midnightblue" points="566.26,-225.22 569.68,-215.19 560.75,-220.9 566.26,-225.22"/>
</g>
<!-- Node24 -->
<g id="node24" class="node">
<title>Node24</title>
<g id="a_node24"><a xlink:title=" ">
<polygon fill="none" stroke="#bfbfbf" points="901,-196 901,-215 1000,-215 1000,-196 901,-196"/>
<text text-anchor="middle" x="950.5" y="-203" font-family="Helvetica,sans-Serif" font-size="10.00">spdlog/fmt/ostr.h</text>
</a>
</g>
</g>
<!-- Node23&#45;&gt;Node24 -->
<g id="edge31" class="edge">
<title>Node23&#45;&gt;Node24</title>
<path fill="none" stroke="midnightblue" d="M919.18,-257.4C925.23,-247.56 933.34,-234.38 939.8,-223.89"/>
<polygon fill="midnightblue" stroke="midnightblue" points="942.89,-225.55 945.15,-215.19 936.93,-221.88 942.89,-225.55"/>
</g>
<!-- Node25 -->
<g id="node25" class="node">
<title>Node25</title>
<g id="a_node25"><a xlink:title=" ">
<polygon fill="none" stroke="#bfbfbf" points="1018,-196 1018,-215 1111,-215 1111,-196 1018,-196"/>
<text text-anchor="middle" x="1064.5" y="-203" font-family="Helvetica,sans-Serif" font-size="10.00">spdlog/spdlog.h</text>
</a>
</g>
</g>
<!-- Node23&#45;&gt;Node25 -->
<g id="edge32" class="edge">
<title>Node23&#45;&gt;Node25</title>
<path fill="none" stroke="midnightblue" d="M943.92,-257.4C971.06,-245.94 1008.97,-229.94 1035,-218.95"/>
<polygon fill="midnightblue" stroke="midnightblue" points="1036.49,-222.12 1044.34,-215.01 1033.77,-215.67 1036.49,-222.12"/>
</g>
</g>
</svg>
        <g id="navigator" transform="translate(0 0)" fill="#404254">
                <rect fill="#f2f5e9" fill-opacity="0.5" stroke="#606060" stroke-width=".5" x="0" y="0" width="60" height="60"/>
                <use id="zoomplus" xlink:href="#zoomPlus" x="17" y="9" onmousedown="handleZoom(evt,'in')"/>
                <use id="zoomminus" xlink:href="#zoomMin" x="42" y="9" onmousedown="handleZoom(evt,'out')"/>
                <use id="reset" xlink:href="#resetDef" x="30" y="36" onmousedown="handleReset()"/>
                <g id="arrowUp" xlink:href="#dirArrow" transform="translate(30 24)" onmousedown="handlePan(0,-1)">
                  <use xlink:href="#rim" fill="#404040">
                        <set attributeName="fill" to="#808080" begin="arrowUp.mouseover" end="arrowUp.mouseout"/>
                  </use>
                  <path fill="none" stroke="white" stroke-width="1.5" d="M0,-3.0v7 M-2.5,-0.5L0,-3.0L2.5,-0.5"/>
                </g>
                <g id="arrowRight" xlink:href="#dirArrow" transform="rotate(90) translate(36 -43)" onmousedown="handlePan(1,0)">
                  <use xlink:href="#rim" fill="#404040">
                        <set attributeName="fill" to="#808080" begin="arrowRight.mouseover" end="arrowRight.mouseout"/>
                  </use>
                  <path fill="none" stroke="white" stroke-width="1.5" d="M0,-3.0v7 M-2.5,-0.5L0,-3.0L2.5,-0.5"/>
                </g>
                <g id="arrowDown" xlink:href="#dirArrow" transform="rotate(180) translate(-30 -48)" onmousedown="handlePan(0,1)">
                  <use xlink:href="#rim" fill="#404040">
                        <set attributeName="fill" to="#808080" begin="arrowDown.mouseover" end="arrowDown.mouseout"/>
                  </use>
                  <path fill="none" stroke="white" stroke-width="1.5" d="M0,-3.0v7 M-2.5,-0.5L0,-3.0L2.5,-0.5"/>
                </g>
                <g id="arrowLeft" xlink:href="#dirArrow" transform="rotate(270) translate(-36 17)" onmousedown="handlePan(-1,0)">
                  <use xlink:href="#rim" fill="#404040">
                        <set attributeName="fill" to="#808080" begin="arrowLeft.mouseover" end="arrowLeft.mouseout"/>
                  </use>
                  <path fill="none" stroke="white" stroke-width="1.5" d="M0,-3.0v7 M-2.5,-0.5L0,-3.0L2.5,-0.5"/>
                </g>
        </g>
        <svg viewBox="0 0 15 15" width="100%" height="30px" preserveAspectRatio="xMaxYMin meet">
         <g id="arrow_out" transform="scale(0.3 0.3)">
          <a xlink:href="AdvanceableRunner_8h__incl_org.svg" target="_base">
           <rect id="button" ry="5" rx="5" y="6" x="6" height="38" width="38"
                fill="#f2f5e9" fill-opacity="0.5" stroke="#606060" stroke-width="1.0"/>
           <path id="arrow"
             d="M 11.500037,31.436501 C 11.940474,20.09759 22.043105,11.32322 32.158766,21.979434 L 37.068811,17.246167 C 37.068811,17.246167 37.088388,32 37.088388,32 L 22.160133,31.978069 C 22.160133,31.978069 26.997745,27.140456 26.997745,27.140456 C 18.528582,18.264221 13.291696,25.230495 11.500037,31.436501 z"
             style="fill:#404040;"/>
          </a>
         </g>
        </svg>
</svg>
