<?xml version="1.0" encoding="UTF-8" standalone="no"?>
<!DOCTYPE svg PUBLIC "-//W3C//DTD SVG 1.1//EN"
 "http://www.w3.org/Graphics/SVG/1.1/DTD/svg11.dtd">
<!-- Generated by graphviz version 2.43.0 (0)
 -->
<!-- Title: Perception/src/ArucoDetector.cpp Pages: 1 -->
<svg width="1079pt" height="486pt"
 viewBox="0.00 0.00 1078.50 486.00" xmlns="http://www.w3.org/2000/svg" xmlns:xlink="http://www.w3.org/1999/xlink">
<g id="graph0" class="graph" transform="scale(1 1) rotate(0) translate(4 482)">
<title>Perception/src/ArucoDetector.cpp</title>
<!-- Node1 -->
<g id="node1" class="node">
<title>Node1</title>
<g id="a_node1"><a xlink:title=" ">
<polygon fill="#bfbfbf" stroke="black" points="482,-458.5 482,-477.5 660,-477.5 660,-458.5 482,-458.5"/>
<text text-anchor="middle" x="571" y="-465.5" font-family="Helvetica,sans-Serif" font-size="10.00">Perception/src/ArucoDetector.cpp</text>
</a>
</g>
</g>
<!-- Node2 -->
<g id="node2" class="node">
<title>Node2</title>
<g id="a_node2"><a xlink:href="CommonConversions_8h.html" target="_top" xlink:title=" ">
<polygon fill="none" stroke="black" points="94.5,-391.5 94.5,-421.5 267.5,-421.5 267.5,-391.5 94.5,-391.5"/>
<text text-anchor="start" x="102.5" y="-409.5" font-family="Helvetica,sans-Serif" font-size="10.00">BipedalLocomotion/Conversions</text>
<text text-anchor="middle" x="181" y="-398.5" font-family="Helvetica,sans-Serif" font-size="10.00">/CommonConversions.h</text>
</a>
</g>
</g>
<!-- Node1&#45;&gt;Node2 -->
<g id="edge1" class="edge">
<title>Node1&#45;&gt;Node2</title>
<path fill="none" stroke="midnightblue" d="M515.12,-458.48C453.24,-449.03 352.35,-433.64 277.61,-422.24"/>
<polygon fill="midnightblue" stroke="midnightblue" points="278.11,-418.78 267.7,-420.73 277.06,-425.7 278.11,-418.78"/>
</g>
<!-- Node4 -->
<g id="node4" class="node">
<title>Node4</title>
<g id="a_node4"><a xlink:href="Vector_8h_source.html" target="_top" xlink:title=" ">
<polygon fill="none" stroke="black" points="197.5,-123.5 197.5,-153.5 348.5,-153.5 348.5,-123.5 197.5,-123.5"/>
<text text-anchor="start" x="205.5" y="-141.5" font-family="Helvetica,sans-Serif" font-size="10.00">BipedalLocomotion/Generic</text>
<text text-anchor="middle" x="273" y="-130.5" font-family="Helvetica,sans-Serif" font-size="10.00">Container/Vector.h</text>
</a>
</g>
</g>
<!-- Node1&#45;&gt;Node4 -->
<g id="edge3" class="edge">
<title>Node1&#45;&gt;Node4</title>
<path fill="none" stroke="midnightblue" d="M481.96,-463.02C350.89,-456.51 117.92,-442.27 85,-422 48.62,-399.59 34,-383.23 34,-340.5 34,-340.5 34,-340.5 34,-271.5 34,-199.21 118.81,-166.21 187.39,-151.34"/>
<polygon fill="midnightblue" stroke="midnightblue" points="188.29,-154.72 197.38,-149.27 186.88,-147.87 188.29,-154.72"/>
</g>
<!-- Node14 -->
<g id="node14" class="node">
<title>Node14</title>
<g id="a_node14"><a xlink:href="ArucoDetector_8h.html" target="_top" xlink:title=" ">
<polygon fill="none" stroke="black" points="301.5,-391.5 301.5,-421.5 466.5,-421.5 466.5,-391.5 301.5,-391.5"/>
<text text-anchor="start" x="309.5" y="-409.5" font-family="Helvetica,sans-Serif" font-size="10.00">BipedalLocomotion/Perception</text>
<text text-anchor="middle" x="384" y="-398.5" font-family="Helvetica,sans-Serif" font-size="10.00">/Features/ArucoDetector.h</text>
</a>
</g>
</g>
<!-- Node1&#45;&gt;Node14 -->
<g id="edge13" class="edge">
<title>Node1&#45;&gt;Node14</title>
<path fill="none" stroke="midnightblue" d="M544.21,-458.48C516.51,-449.66 472.53,-435.67 437.65,-424.57"/>
<polygon fill="midnightblue" stroke="midnightblue" points="438.66,-421.22 428.07,-421.52 436.54,-427.89 438.66,-421.22"/>
</g>
<!-- Node23 -->
<g id="node23" class="node">
<title>Node23</title>
<g id="a_node23"><a xlink:href="Logger_8h.html" target="_top" xlink:title=" ">
<polygon fill="none" stroke="black" points="485,-391.5 485,-421.5 657,-421.5 657,-391.5 485,-391.5"/>
<text text-anchor="start" x="493" y="-409.5" font-family="Helvetica,sans-Serif" font-size="10.00">BipedalLocomotion/TextLogging</text>
<text text-anchor="middle" x="571" y="-398.5" font-family="Helvetica,sans-Serif" font-size="10.00">/Logger.h</text>
</a>
</g>
</g>
<!-- Node1&#45;&gt;Node23 -->
<g id="edge28" class="edge">
<title>Node1&#45;&gt;Node23</title>
<path fill="none" stroke="midnightblue" d="M571,-458.48C571,-451.47 571,-441.19 571,-431.7"/>
<polygon fill="midnightblue" stroke="midnightblue" points="574.5,-431.52 571,-421.52 567.5,-431.52 574.5,-431.52"/>
</g>
<!-- Node26 -->
<g id="node26" class="node">
<title>Node26</title>
<g id="a_node26"><a xlink:title=" ">
<polygon fill="none" stroke="#bfbfbf" points="675.5,-397 675.5,-416 784.5,-416 784.5,-397 675.5,-397"/>
<text text-anchor="middle" x="730" y="-404" font-family="Helvetica,sans-Serif" font-size="10.00">opencv2/aruco.hpp</text>
</a>
</g>
</g>
<!-- Node1&#45;&gt;Node26 -->
<g id="edge31" class="edge">
<title>Node1&#45;&gt;Node26</title>
<path fill="none" stroke="midnightblue" d="M593.78,-458.48C621.05,-448.27 666.91,-431.11 697.8,-419.55"/>
<polygon fill="midnightblue" stroke="midnightblue" points="699.12,-422.79 707.26,-416.01 696.67,-416.24 699.12,-422.79"/>
</g>
<!-- Node27 -->
<g id="node27" class="node">
<title>Node27</title>
<g id="a_node27"><a xlink:title=" ">
<polygon fill="none" stroke="#bfbfbf" points="802.5,-397 802.5,-416 919.5,-416 919.5,-397 802.5,-397"/>
<text text-anchor="middle" x="861" y="-404" font-family="Helvetica,sans-Serif" font-size="10.00">opencv2/calib3d.hpp</text>
</a>
</g>
</g>
<!-- Node1&#45;&gt;Node27 -->
<g id="edge32" class="edge">
<title>Node1&#45;&gt;Node27</title>
<path fill="none" stroke="midnightblue" d="M614.2,-458.47C659.15,-449.55 731.56,-435.05 794,-422 799.82,-420.78 805.92,-419.49 811.97,-418.19"/>
<polygon fill="midnightblue" stroke="midnightblue" points="813.01,-421.55 822.05,-416.03 811.54,-414.71 813.01,-421.55"/>
</g>
<!-- Node28 -->
<g id="node28" class="node">
<title>Node28</title>
<g id="a_node28"><a xlink:title=" ">
<polygon fill="none" stroke="#bfbfbf" points="937.5,-397 937.5,-416 1070.5,-416 1070.5,-397 937.5,-397"/>
<text text-anchor="middle" x="1004" y="-404" font-family="Helvetica,sans-Serif" font-size="10.00">opencv2/core/eigen.hpp</text>
</a>
</g>
</g>
<!-- Node1&#45;&gt;Node28 -->
<g id="edge33" class="edge">
<title>Node1&#45;&gt;Node28</title>
<path fill="none" stroke="midnightblue" d="M650.84,-458.49C723.53,-450.38 833.73,-437.18 929,-422 936.64,-420.78 944.7,-419.37 952.58,-417.91"/>
<polygon fill="midnightblue" stroke="midnightblue" points="953.26,-421.34 962.43,-416.04 951.96,-414.46 953.26,-421.34"/>
</g>
<!-- Node3 -->
<g id="node3" class="node">
<title>Node3</title>
<g id="a_node3"><a xlink:title=" ">
<polygon fill="none" stroke="#bfbfbf" points="62.5,-330 62.5,-349 139.5,-349 139.5,-330 62.5,-330"/>
<text text-anchor="middle" x="101" y="-337" font-family="Helvetica,sans-Serif" font-size="10.00">Eigen/Dense</text>
</a>
</g>
</g>
<!-- Node2&#45;&gt;Node3 -->
<g id="edge2" class="edge">
<title>Node2&#45;&gt;Node3</title>
<path fill="none" stroke="midnightblue" d="M163.64,-391.4C150.67,-380.86 132.97,-366.48 119.69,-355.69"/>
<polygon fill="midnightblue" stroke="midnightblue" points="121.67,-352.78 111.7,-349.19 117.26,-358.22 121.67,-352.78"/>
</g>
<!-- Node5 -->
<g id="node5" class="node">
<title>Node5</title>
<g id="a_node5"><a xlink:title=" ">
<polygon fill="none" stroke="#bfbfbf" points="78.5,-62 78.5,-81 199.5,-81 199.5,-62 78.5,-62"/>
<text text-anchor="middle" x="139" y="-69" font-family="Helvetica,sans-Serif" font-size="10.00">iDynTree/Core/Span.h</text>
</a>
</g>
</g>
<!-- Node4&#45;&gt;Node5 -->
<g id="edge4" class="edge">
<title>Node4&#45;&gt;Node5</title>
<path fill="none" stroke="midnightblue" d="M243.92,-123.4C220.62,-112.09 188.19,-96.36 165.57,-85.39"/>
<polygon fill="midnightblue" stroke="midnightblue" points="167.06,-82.22 156.54,-81.01 164.01,-88.52 167.06,-82.22"/>
</g>
<!-- Node6 -->
<g id="node6" class="node">
<title>Node6</title>
<g id="a_node6"><a xlink:href="TemplateHelpers_8h_source.html" target="_top" xlink:title=" ">
<polygon fill="none" stroke="black" points="447,-56.5 447,-86.5 605,-86.5 605,-56.5 447,-56.5"/>
<text text-anchor="start" x="455" y="-74.5" font-family="Helvetica,sans-Serif" font-size="10.00">BipedalLocomotion/Generic</text>
<text text-anchor="middle" x="526" y="-63.5" font-family="Helvetica,sans-Serif" font-size="10.00">Container/TemplateHelpers.h</text>
</a>
</g>
</g>
<!-- Node4&#45;&gt;Node6 -->
<g id="edge5" class="edge">
<title>Node4&#45;&gt;Node6</title>
<path fill="none" stroke="midnightblue" d="M327.59,-123.48C366.85,-113.39 419.97,-99.74 461.36,-89.11"/>
<polygon fill="midnightblue" stroke="midnightblue" points="462.26,-92.49 471.08,-86.61 460.52,-85.71 462.26,-92.49"/>
</g>
<!-- Node10 -->
<g id="node10" class="node">
<title>Node10</title>
<g id="a_node10"><a xlink:title=" ">
<polygon fill="none" stroke="#bfbfbf" points="217.5,-62 217.5,-81 282.5,-81 282.5,-62 217.5,-62"/>
<text text-anchor="middle" x="250" y="-69" font-family="Helvetica,sans-Serif" font-size="10.00">functional</text>
</a>
</g>
</g>
<!-- Node4&#45;&gt;Node10 -->
<g id="edge9" class="edge">
<title>Node4&#45;&gt;Node10</title>
<path fill="none" stroke="midnightblue" d="M268.01,-123.4C264.64,-113.86 260.15,-101.18 256.5,-90.86"/>
<polygon fill="midnightblue" stroke="midnightblue" points="259.71,-89.45 253.08,-81.19 253.11,-91.79 259.71,-89.45"/>
</g>
<!-- Node11 -->
<g id="node11" class="node">
<title>Node11</title>
<g id="a_node11"><a xlink:title=" ">
<polygon fill="none" stroke="#bfbfbf" points="301,-62 301,-81 353,-81 353,-62 301,-62"/>
<text text-anchor="middle" x="327" y="-69" font-family="Helvetica,sans-Serif" font-size="10.00">cassert</text>
</a>
</g>
</g>
<!-- Node4&#45;&gt;Node11 -->
<g id="edge10" class="edge">
<title>Node4&#45;&gt;Node11</title>
<path fill="none" stroke="midnightblue" d="M284.72,-123.4C293.14,-113.26 304.51,-99.57 313.34,-88.94"/>
<polygon fill="midnightblue" stroke="midnightblue" points="316.08,-91.12 319.78,-81.19 310.69,-86.65 316.08,-91.12"/>
</g>
<!-- Node12 -->
<g id="node12" class="node">
<title>Node12</title>
<g id="a_node12"><a xlink:title=" ">
<polygon fill="none" stroke="#bfbfbf" points="0,-62 0,-81 60,-81 60,-62 0,-62"/>
<text text-anchor="middle" x="30" y="-69" font-family="Helvetica,sans-Serif" font-size="10.00">iostream</text>
</a>
</g>
</g>
<!-- Node4&#45;&gt;Node12 -->
<g id="edge11" class="edge">
<title>Node4&#45;&gt;Node12</title>
<path fill="none" stroke="midnightblue" d="M208.17,-123.43C167.82,-114.18 115.02,-101.2 69,-87 66.44,-86.21 63.79,-85.34 61.15,-84.44"/>
<polygon fill="midnightblue" stroke="midnightblue" points="62.31,-81.13 51.71,-81.07 59.96,-87.73 62.31,-81.13"/>
</g>
<!-- Node13 -->
<g id="node13" class="node">
<title>Node13</title>
<g id="a_node13"><a xlink:title=" ">
<polygon fill="none" stroke="#bfbfbf" points="371,-62 371,-81 429,-81 429,-62 371,-62"/>
<text text-anchor="middle" x="400" y="-69" font-family="Helvetica,sans-Serif" font-size="10.00">memory</text>
</a>
</g>
</g>
<!-- Node4&#45;&gt;Node13 -->
<g id="edge12" class="edge">
<title>Node4&#45;&gt;Node13</title>
<path fill="none" stroke="midnightblue" d="M300.56,-123.4C322.45,-112.19 352.83,-96.64 374.24,-85.69"/>
<polygon fill="midnightblue" stroke="midnightblue" points="376.07,-88.68 383.38,-81.01 372.88,-82.45 376.07,-88.68"/>
</g>
<!-- Node7 -->
<g id="node7" class="node">
<title>Node7</title>
<g id="a_node7"><a xlink:title=" ">
<polygon fill="none" stroke="#bfbfbf" points="402.5,-0.5 402.5,-19.5 471.5,-19.5 471.5,-0.5 402.5,-0.5"/>
<text text-anchor="middle" x="437" y="-7.5" font-family="Helvetica,sans-Serif" font-size="10.00">type_traits</text>
</a>
</g>
</g>
<!-- Node6&#45;&gt;Node7 -->
<g id="edge6" class="edge">
<title>Node6&#45;&gt;Node7</title>
<path fill="none" stroke="midnightblue" d="M504.91,-56.4C490.91,-47.04 472.59,-34.79 458.51,-25.38"/>
<polygon fill="midnightblue" stroke="midnightblue" points="460.21,-22.31 449.95,-19.66 456.32,-28.13 460.21,-22.31"/>
</g>
<!-- Node8 -->
<g id="node8" class="node">
<title>Node8</title>
<g id="a_node8"><a xlink:title=" ">
<polygon fill="none" stroke="#bfbfbf" points="489.5,-0.5 489.5,-19.5 562.5,-19.5 562.5,-0.5 489.5,-0.5"/>
<text text-anchor="middle" x="526" y="-7.5" font-family="Helvetica,sans-Serif" font-size="10.00">string_view</text>
</a>
</g>
</g>
<!-- Node6&#45;&gt;Node8 -->
<g id="edge7" class="edge">
<title>Node6&#45;&gt;Node8</title>
<path fill="none" stroke="midnightblue" d="M526,-56.4C526,-48.47 526,-38.46 526,-29.86"/>
<polygon fill="midnightblue" stroke="midnightblue" points="529.5,-29.66 526,-19.66 522.5,-29.66 529.5,-29.66"/>
</g>
<!-- Node9 -->
<g id="node9" class="node">
<title>Node9</title>
<g id="a_node9"><a xlink:title=" ">
<polygon fill="none" stroke="#bfbfbf" points="580.5,-0.5 580.5,-19.5 649.5,-19.5 649.5,-0.5 580.5,-0.5"/>
<text text-anchor="middle" x="615" y="-7.5" font-family="Helvetica,sans-Serif" font-size="10.00">Eigen/Core</text>
</a>
</g>
</g>
<!-- Node6&#45;&gt;Node9 -->
<g id="edge8" class="edge">
<title>Node6&#45;&gt;Node9</title>
<path fill="none" stroke="midnightblue" d="M547.09,-56.4C561.09,-47.04 579.41,-34.79 593.49,-25.38"/>
<polygon fill="midnightblue" stroke="midnightblue" points="595.68,-28.13 602.05,-19.66 591.79,-22.31 595.68,-28.13"/>
</g>
<!-- Node14&#45;&gt;Node3 -->
<g id="edge24" class="edge">
<title>Node14&#45;&gt;Node3</title>
<path fill="none" stroke="midnightblue" d="M310.26,-391.46C263.52,-382.14 201.92,-369.06 148,-355 144.4,-354.06 140.66,-353.02 136.94,-351.94"/>
<polygon fill="midnightblue" stroke="midnightblue" points="137.82,-348.55 127.23,-349.04 135.81,-355.26 137.82,-348.55"/>
</g>
<!-- Node14&#45;&gt;Node13 -->
<g id="edge26" class="edge">
<title>Node14&#45;&gt;Node13</title>
<path fill="none" stroke="midnightblue" d="M386.86,-391.31C391.46,-367.2 400,-316.67 400,-273.5 400,-273.5 400,-273.5 400,-204.5 400,-164.16 400,-116.88 400,-91.28"/>
<polygon fill="midnightblue" stroke="midnightblue" points="403.5,-91.15 400,-81.15 396.5,-91.15 403.5,-91.15"/>
</g>
<!-- Node15 -->
<g id="node15" class="node">
<title>Node15</title>
<g id="a_node15"><a xlink:href="IParametersHandler_8h.html" target="_top" xlink:title=" ">
<polygon fill="none" stroke="black" points="427.5,-190.5 427.5,-220.5 596.5,-220.5 596.5,-190.5 427.5,-190.5"/>
<text text-anchor="start" x="435.5" y="-208.5" font-family="Helvetica,sans-Serif" font-size="10.00">BipedalLocomotion/Parameters</text>
<text text-anchor="middle" x="512" y="-197.5" font-family="Helvetica,sans-Serif" font-size="10.00">Handler/IParametersHandler.h</text>
</a>
</g>
</g>
<!-- Node14&#45;&gt;Node15 -->
<g id="edge14" class="edge">
<title>Node14&#45;&gt;Node15</title>
<path fill="none" stroke="midnightblue" d="M393.15,-391.18C399.35,-381.21 407.57,-367.52 414,-355 435.74,-312.7 429.33,-295.69 457,-257 464.83,-246.04 475.37,-235.66 485.12,-227.19"/>
<polygon fill="midnightblue" stroke="midnightblue" points="487.63,-229.66 493.06,-220.56 483.14,-224.29 487.63,-229.66"/>
</g>
<!-- Node18 -->
<g id="node18" class="node">
<title>Node18</title>
<g id="a_node18"><a xlink:href="Source_8h.html" target="_top" xlink:title=" ">
<polygon fill="none" stroke="black" points="466,-324.5 466,-354.5 616,-354.5 616,-324.5 466,-324.5"/>
<text text-anchor="start" x="474" y="-342.5" font-family="Helvetica,sans-Serif" font-size="10.00">BipedalLocomotion/System</text>
<text text-anchor="middle" x="541" y="-331.5" font-family="Helvetica,sans-Serif" font-size="10.00">/Source.h</text>
</a>
</g>
</g>
<!-- Node14&#45;&gt;Node18 -->
<g id="edge20" class="edge">
<title>Node14&#45;&gt;Node18</title>
<path fill="none" stroke="midnightblue" d="M418.07,-391.4C441.42,-381.73 472.59,-368.82 497.7,-358.43"/>
<polygon fill="midnightblue" stroke="midnightblue" points="499.1,-361.64 507,-354.58 496.42,-355.17 499.1,-361.64"/>
</g>
<!-- Node21 -->
<g id="node21" class="node">
<title>Node21</title>
<g id="a_node21"><a xlink:title=" ">
<polygon fill="none" stroke="#bfbfbf" points="157.5,-330 157.5,-349 260.5,-349 260.5,-330 157.5,-330"/>
<text text-anchor="middle" x="209" y="-337" font-family="Helvetica,sans-Serif" font-size="10.00">opencv2/core.hpp</text>
</a>
</g>
</g>
<!-- Node14&#45;&gt;Node21 -->
<g id="edge25" class="edge">
<title>Node14&#45;&gt;Node21</title>
<path fill="none" stroke="midnightblue" d="M346.03,-391.4C314.78,-379.79 270.96,-363.51 241.36,-352.52"/>
<polygon fill="midnightblue" stroke="midnightblue" points="242.5,-349.21 231.9,-349.01 240.06,-355.77 242.5,-349.21"/>
</g>
<!-- Node22 -->
<g id="node22" class="node">
<title>Node22</title>
<g id="a_node22"><a xlink:title=" ">
<polygon fill="none" stroke="#bfbfbf" points="278.5,-330 278.5,-349 371.5,-349 371.5,-330 278.5,-330"/>
<text text-anchor="middle" x="325" y="-337" font-family="Helvetica,sans-Serif" font-size="10.00">unordered_map</text>
</a>
</g>
</g>
<!-- Node14&#45;&gt;Node22 -->
<g id="edge27" class="edge">
<title>Node14&#45;&gt;Node22</title>
<path fill="none" stroke="midnightblue" d="M371.2,-391.4C361.91,-381.16 349.32,-367.3 339.63,-356.62"/>
<polygon fill="midnightblue" stroke="midnightblue" points="342.2,-354.25 332.89,-349.19 337.02,-358.95 342.2,-354.25"/>
</g>
<!-- Node15&#45;&gt;Node4 -->
<g id="edge19" class="edge">
<title>Node15&#45;&gt;Node4</title>
<path fill="none" stroke="midnightblue" d="M460.43,-190.48C423.5,-180.43 373.59,-166.86 334.56,-156.24"/>
<polygon fill="midnightblue" stroke="midnightblue" points="335.45,-152.86 324.88,-153.61 333.62,-159.61 335.45,-152.86"/>
</g>
<!-- Node15&#45;&gt;Node6 -->
<g id="edge18" class="edge">
<title>Node15&#45;&gt;Node6</title>
<path fill="none" stroke="midnightblue" d="M513.5,-190.37C515.88,-167.94 520.55,-123.92 523.46,-96.49"/>
<polygon fill="midnightblue" stroke="midnightblue" points="526.94,-96.84 524.51,-86.52 519.98,-96.1 526.94,-96.84"/>
</g>
<!-- Node15&#45;&gt;Node13 -->
<g id="edge15" class="edge">
<title>Node15&#45;&gt;Node13</title>
<path fill="none" stroke="midnightblue" d="M500.01,-190.37C479.13,-165.76 436.17,-115.12 413.97,-88.96"/>
<polygon fill="midnightblue" stroke="midnightblue" points="416.43,-86.46 407.29,-81.1 411.1,-90.99 416.43,-86.46"/>
</g>
<!-- Node16 -->
<g id="node16" class="node">
<title>Node16</title>
<g id="a_node16"><a xlink:title=" ">
<polygon fill="none" stroke="#bfbfbf" points="531,-129 531,-148 575,-148 575,-129 531,-129"/>
<text text-anchor="middle" x="553" y="-136" font-family="Helvetica,sans-Serif" font-size="10.00">string</text>
</a>
</g>
</g>
<!-- Node15&#45;&gt;Node16 -->
<g id="edge16" class="edge">
<title>Node15&#45;&gt;Node16</title>
<path fill="none" stroke="midnightblue" d="M520.9,-190.4C527.1,-180.56 535.42,-167.38 542.03,-156.89"/>
<polygon fill="midnightblue" stroke="midnightblue" points="545.14,-158.52 547.52,-148.19 539.22,-154.79 545.14,-158.52"/>
</g>
<!-- Node17 -->
<g id="node17" class="node">
<title>Node17</title>
<g id="a_node17"><a xlink:title=" ">
<polygon fill="none" stroke="#bfbfbf" points="593.5,-129 593.5,-148 640.5,-148 640.5,-129 593.5,-129"/>
<text text-anchor="middle" x="617" y="-136" font-family="Helvetica,sans-Serif" font-size="10.00">vector</text>
</a>
</g>
</g>
<!-- Node15&#45;&gt;Node17 -->
<g id="edge17" class="edge">
<title>Node15&#45;&gt;Node17</title>
<path fill="none" stroke="midnightblue" d="M534.78,-190.4C552.55,-179.39 577.1,-164.2 594.74,-153.28"/>
<polygon fill="midnightblue" stroke="midnightblue" points="596.6,-156.25 603.26,-148.01 592.91,-150.29 596.6,-156.25"/>
</g>
<!-- Node19 -->
<g id="node19" class="node">
<title>Node19</title>
<g id="a_node19"><a xlink:href="Advanceable_8h.html" target="_top" xlink:title=" ">
<polygon fill="none" stroke="black" points="466,-257.5 466,-287.5 616,-287.5 616,-257.5 466,-257.5"/>
<text text-anchor="start" x="474" y="-275.5" font-family="Helvetica,sans-Serif" font-size="10.00">BipedalLocomotion/System</text>
<text text-anchor="middle" x="541" y="-264.5" font-family="Helvetica,sans-Serif" font-size="10.00">/Advanceable.h</text>
</a>
</g>
</g>
<!-- Node18&#45;&gt;Node19 -->
<g id="edge21" class="edge">
<title>Node18&#45;&gt;Node19</title>
<path fill="none" stroke="midnightblue" d="M541,-324.4C541,-316.64 541,-306.81 541,-297.86"/>
<polygon fill="midnightblue" stroke="midnightblue" points="544.5,-297.58 541,-287.58 537.5,-297.58 544.5,-297.58"/>
</g>
<!-- Node19&#45;&gt;Node15 -->
<g id="edge23" class="edge">
<title>Node19&#45;&gt;Node15</title>
<path fill="none" stroke="midnightblue" d="M534.71,-257.4C531.14,-249.39 526.57,-239.16 522.47,-229.98"/>
<polygon fill="midnightblue" stroke="midnightblue" points="525.55,-228.28 518.28,-220.58 519.16,-231.13 525.55,-228.28"/>
</g>
<!-- Node20 -->
<g id="node20" class="node">
<title>Node20</title>
<g id="a_node20"><a xlink:title=" ">
<polygon fill="none" stroke="#bfbfbf" points="614.5,-196 614.5,-215 665.5,-215 665.5,-196 614.5,-196"/>
<text text-anchor="middle" x="640" y="-203" font-family="Helvetica,sans-Serif" font-size="10.00">variant</text>
</a>
</g>
</g>
<!-- Node19&#45;&gt;Node20 -->
<g id="edge22" class="edge">
<title>Node19&#45;&gt;Node20</title>
<path fill="none" stroke="midnightblue" d="M562.48,-257.4C579.08,-246.5 601.96,-231.48 618.55,-220.58"/>
<polygon fill="midnightblue" stroke="midnightblue" points="620.6,-223.42 627.04,-215.01 616.76,-217.57 620.6,-223.42"/>
</g>
<!-- Node24 -->
<g id="node24" class="node">
<title>Node24</title>
<g id="a_node24"><a xlink:title=" ">
<polygon fill="none" stroke="#bfbfbf" points="634.5,-330 634.5,-349 733.5,-349 733.5,-330 634.5,-330"/>
<text text-anchor="middle" x="684" y="-337" font-family="Helvetica,sans-Serif" font-size="10.00">spdlog/fmt/ostr.h</text>
</a>
</g>
</g>
<!-- Node23&#45;&gt;Node24 -->
<g id="edge29" class="edge">
<title>Node23&#45;&gt;Node24</title>
<path fill="none" stroke="midnightblue" d="M595.52,-391.4C614.73,-380.34 641.3,-365.06 660.3,-354.13"/>
<polygon fill="midnightblue" stroke="midnightblue" points="662.29,-357.03 669.21,-349.01 658.8,-350.96 662.29,-357.03"/>
</g>
<!-- Node25 -->
<g id="node25" class="node">
<title>Node25</title>
<g id="a_node25"><a xlink:title=" ">
<polygon fill="none" stroke="#bfbfbf" points="751.5,-330 751.5,-349 844.5,-349 844.5,-330 751.5,-330"/>
<text text-anchor="middle" x="798" y="-337" font-family="Helvetica,sans-Serif" font-size="10.00">spdlog/spdlog.h</text>
</a>
</g>
</g>
<!-- Node23&#45;&gt;Node25 -->
<g id="edge30" class="edge">
<title>Node23&#45;&gt;Node25</title>
<path fill="none" stroke="midnightblue" d="M619.98,-391.48C661.37,-379.62 719.92,-362.86 758.4,-351.84"/>
<polygon fill="midnightblue" stroke="midnightblue" points="759.57,-355.15 768.22,-349.03 757.64,-348.42 759.57,-355.15"/>
</g>
</g>
</svg>
