<?xml version="1.0" encoding="UTF-8" standalone="no"?>
<!DOCTYPE svg PUBLIC "-//W3C//DTD SVG 1.1//EN"
 "http://www.w3.org/Graphics/SVG/1.1/DTD/svg11.dtd">
<!-- Generated by graphviz version 2.43.0 (0)
 -->
<!-- Title: TSID/src/BaseDynamicsTask.cpp Pages: 1 -->
<svg width="1258pt" height="486pt"
 viewBox="0.00 0.00 1258.00 486.00" xmlns="http://www.w3.org/2000/svg" xmlns:xlink="http://www.w3.org/1999/xlink">
<g id="graph0" class="graph" transform="scale(1 1) rotate(0) translate(4 482)">
<title>TSID/src/BaseDynamicsTask.cpp</title>
<!-- Node1 -->
<g id="node1" class="node">
<title>Node1</title>
<g id="a_node1"><a xlink:title=" ">
<polygon fill="#bfbfbf" stroke="black" points="837,-458.5 837,-477.5 1011,-477.5 1011,-458.5 837,-458.5"/>
<text text-anchor="middle" x="924" y="-465.5" font-family="Helvetica,sans-Serif" font-size="10.00">TSID/src/BaseDynamicsTask.cpp</text>
</a>
</g>
</g>
<!-- Node2 -->
<g id="node2" class="node">
<title>Node2</title>
<g id="a_node2"><a xlink:href="BaseDynamicsTask_8h.html" target="_top" xlink:title=" ">
<polygon fill="none" stroke="black" points="417,-391.5 417,-421.5 553,-421.5 553,-391.5 417,-391.5"/>
<text text-anchor="start" x="425" y="-409.5" font-family="Helvetica,sans-Serif" font-size="10.00">BipedalLocomotion/TSID</text>
<text text-anchor="middle" x="485" y="-398.5" font-family="Helvetica,sans-Serif" font-size="10.00">/BaseDynamicsTask.h</text>
</a>
</g>
</g>
<!-- Node1&#45;&gt;Node2 -->
<g id="edge1" class="edge">
<title>Node1&#45;&gt;Node2</title>
<path fill="none" stroke="midnightblue" d="M861.1,-458.48C782.62,-447.84 648.39,-429.65 563.32,-418.12"/>
<polygon fill="midnightblue" stroke="midnightblue" points="563.58,-414.62 553.2,-416.74 562.64,-421.55 563.58,-414.62"/>
</g>
<!-- Node22 -->
<g id="node22" class="node">
<title>Node22</title>
<g id="a_node22"><a xlink:href="Logger_8h.html" target="_top" xlink:title=" ">
<polygon fill="none" stroke="black" points="746,-391.5 746,-421.5 918,-421.5 918,-391.5 746,-391.5"/>
<text text-anchor="start" x="754" y="-409.5" font-family="Helvetica,sans-Serif" font-size="10.00">BipedalLocomotion/TextLogging</text>
<text text-anchor="middle" x="832" y="-398.5" font-family="Helvetica,sans-Serif" font-size="10.00">/Logger.h</text>
</a>
</g>
</g>
<!-- Node1&#45;&gt;Node22 -->
<g id="edge32" class="edge">
<title>Node1&#45;&gt;Node22</title>
<path fill="none" stroke="midnightblue" d="M910.82,-458.48C898.24,-450.34 878.84,-437.79 862.43,-427.18"/>
<polygon fill="midnightblue" stroke="midnightblue" points="863.98,-424.01 853.68,-421.52 860.18,-429.89 863.98,-424.01"/>
</g>
<!-- Node25 -->
<g id="node25" class="node">
<title>Node25</title>
<g id="a_node25"><a xlink:title=" ">
<polygon fill="none" stroke="#bfbfbf" points="936.5,-397 936.5,-416 1097.5,-416 1097.5,-397 936.5,-397"/>
<text text-anchor="middle" x="1017" y="-404" font-family="Helvetica,sans-Serif" font-size="10.00">iDynTree/Core/EigenHelpers.h</text>
</a>
</g>
</g>
<!-- Node1&#45;&gt;Node25 -->
<g id="edge35" class="edge">
<title>Node1&#45;&gt;Node25</title>
<path fill="none" stroke="midnightblue" d="M937.32,-458.48C952.38,-448.84 977.12,-433.02 995.04,-421.55"/>
<polygon fill="midnightblue" stroke="midnightblue" points="997.16,-424.35 1003.7,-416.01 993.39,-418.45 997.16,-424.35"/>
</g>
<!-- Node26 -->
<g id="node26" class="node">
<title>Node26</title>
<g id="a_node26"><a xlink:title=" ">
<polygon fill="none" stroke="#bfbfbf" points="1116,-397 1116,-416 1250,-416 1250,-397 1116,-397"/>
<text text-anchor="middle" x="1183" y="-404" font-family="Helvetica,sans-Serif" font-size="10.00">iDynTree/Model/Model.h</text>
</a>
</g>
</g>
<!-- Node1&#45;&gt;Node26 -->
<g id="edge36" class="edge">
<title>Node1&#45;&gt;Node26</title>
<path fill="none" stroke="midnightblue" d="M961.11,-458.48C1007.17,-447.89 1085.77,-429.84 1136,-418.3"/>
<polygon fill="midnightblue" stroke="midnightblue" points="1137,-421.66 1145.96,-416.01 1135.43,-414.84 1137,-421.66"/>
</g>
<!-- Node3 -->
<g id="node3" class="node">
<title>Node3</title>
<g id="a_node3"><a xlink:title=" ">
<polygon fill="none" stroke="#bfbfbf" points="730.5,-129 730.5,-148 777.5,-148 777.5,-129 730.5,-129"/>
<text text-anchor="middle" x="754" y="-136" font-family="Helvetica,sans-Serif" font-size="10.00">vector</text>
</a>
</g>
</g>
<!-- Node2&#45;&gt;Node3 -->
<g id="edge2" class="edge">
<title>Node2&#45;&gt;Node3</title>
<path fill="none" stroke="midnightblue" d="M525.51,-391.44C547.89,-382.7 575.61,-370.23 598,-355 668.43,-307.1 693.22,-295.22 735,-221 746,-201.46 750.65,-175.85 752.6,-158.59"/>
<polygon fill="midnightblue" stroke="midnightblue" points="756.13,-158.44 753.56,-148.16 749.16,-157.8 756.13,-158.44"/>
</g>
<!-- Node4 -->
<g id="node4" class="node">
<title>Node4</title>
<g id="a_node4"><a xlink:title=" ">
<polygon fill="none" stroke="#bfbfbf" points="275,-62 275,-81 333,-81 333,-62 275,-62"/>
<text text-anchor="middle" x="304" y="-69" font-family="Helvetica,sans-Serif" font-size="10.00">memory</text>
</a>
</g>
</g>
<!-- Node2&#45;&gt;Node4 -->
<g id="edge3" class="edge">
<title>Node2&#45;&gt;Node4</title>
<path fill="none" stroke="midnightblue" d="M416.8,-401.18C283.21,-390.84 0,-358.86 0,-273.5 0,-273.5 0,-273.5 0,-204.5 0,-90.4 182.42,-73.86 264.64,-72.21"/>
<polygon fill="midnightblue" stroke="midnightblue" points="264.9,-75.7 274.85,-72.07 264.8,-68.7 264.9,-75.7"/>
</g>
<!-- Node5 -->
<g id="node5" class="node">
<title>Node5</title>
<g id="a_node5"><a xlink:title=" ">
<polygon fill="none" stroke="#bfbfbf" points="28.5,-263 28.5,-282 105.5,-282 105.5,-263 28.5,-263"/>
<text text-anchor="middle" x="67" y="-270" font-family="Helvetica,sans-Serif" font-size="10.00">Eigen/Dense</text>
</a>
</g>
</g>
<!-- Node2&#45;&gt;Node5 -->
<g id="edge4" class="edge">
<title>Node2&#45;&gt;Node5</title>
<path fill="none" stroke="midnightblue" d="M416.82,-398.24C362.41,-391.1 284.82,-377.85 220,-355 170.31,-337.49 117.04,-305.82 88.31,-287.54"/>
<polygon fill="midnightblue" stroke="midnightblue" points="90.19,-284.58 79.89,-282.11 86.4,-290.47 90.19,-284.58"/>
</g>
<!-- Node6 -->
<g id="node6" class="node">
<title>Node6</title>
<g id="a_node6"><a xlink:href="LinearTask_8h.html" target="_top" xlink:title=" ">
<polygon fill="none" stroke="black" points="229,-324.5 229,-354.5 379,-354.5 379,-324.5 229,-324.5"/>
<text text-anchor="start" x="237" y="-342.5" font-family="Helvetica,sans-Serif" font-size="10.00">BipedalLocomotion/System</text>
<text text-anchor="middle" x="304" y="-331.5" font-family="Helvetica,sans-Serif" font-size="10.00">/LinearTask.h</text>
</a>
</g>
</g>
<!-- Node2&#45;&gt;Node6 -->
<g id="edge5" class="edge">
<title>Node2&#45;&gt;Node6</title>
<path fill="none" stroke="midnightblue" d="M445.73,-391.4C418.45,-381.6 381.92,-368.48 352.77,-358.02"/>
<polygon fill="midnightblue" stroke="midnightblue" points="353.79,-354.66 343.2,-354.58 351.43,-361.25 353.79,-354.66"/>
</g>
<!-- Node19 -->
<g id="node19" class="node">
<title>Node19</title>
<g id="a_node19"><a xlink:href="VariablesHandler_8h.html" target="_top" xlink:title=" ">
<polygon fill="none" stroke="black" points="394,-257.5 394,-287.5 544,-287.5 544,-257.5 394,-257.5"/>
<text text-anchor="start" x="402" y="-275.5" font-family="Helvetica,sans-Serif" font-size="10.00">BipedalLocomotion/System</text>
<text text-anchor="middle" x="469" y="-264.5" font-family="Helvetica,sans-Serif" font-size="10.00">/VariablesHandler.h</text>
</a>
</g>
</g>
<!-- Node2&#45;&gt;Node19 -->
<g id="edge30" class="edge">
<title>Node2&#45;&gt;Node19</title>
<path fill="none" stroke="midnightblue" d="M534.62,-391.4C552.45,-383.68 570.68,-372.09 581,-355 588.12,-343.21 588.48,-335.57 581,-324 571.57,-309.4 556.79,-298.97 541.02,-291.55"/>
<polygon fill="midnightblue" stroke="midnightblue" points="542.23,-288.26 531.66,-287.52 539.46,-294.69 542.23,-288.26"/>
</g>
<!-- Node21 -->
<g id="node21" class="node">
<title>Node21</title>
<g id="a_node21"><a xlink:title=" ">
<polygon fill="none" stroke="#bfbfbf" points="397.5,-330 397.5,-349 572.5,-349 572.5,-330 397.5,-330"/>
<text text-anchor="middle" x="485" y="-337" font-family="Helvetica,sans-Serif" font-size="10.00">iDynTree/KinDynComputations.h</text>
</a>
</g>
</g>
<!-- Node2&#45;&gt;Node21 -->
<g id="edge31" class="edge">
<title>Node2&#45;&gt;Node21</title>
<path fill="none" stroke="midnightblue" d="M485,-391.4C485,-382.06 485,-369.71 485,-359.52"/>
<polygon fill="midnightblue" stroke="midnightblue" points="488.5,-359.19 485,-349.19 481.5,-359.19 488.5,-359.19"/>
</g>
<!-- Node6&#45;&gt;Node4 -->
<g id="edge6" class="edge">
<title>Node6&#45;&gt;Node4</title>
<path fill="none" stroke="midnightblue" d="M304,-324.2C304,-279.35 304,-141.45 304,-91.13"/>
<polygon fill="midnightblue" stroke="midnightblue" points="307.5,-91.05 304,-81.05 300.5,-91.05 307.5,-91.05"/>
</g>
<!-- Node6&#45;&gt;Node5 -->
<g id="edge8" class="edge">
<title>Node6&#45;&gt;Node5</title>
<path fill="none" stroke="midnightblue" d="M249.7,-324.49C211.85,-314.6 160.24,-300.87 115,-288 111.59,-287.03 108.05,-286 104.51,-284.96"/>
<polygon fill="midnightblue" stroke="midnightblue" points="105.21,-281.51 94.62,-282.01 103.21,-288.22 105.21,-281.51"/>
</g>
<!-- Node7 -->
<g id="node7" class="node">
<title>Node7</title>
<g id="a_node7"><a xlink:title=" ">
<polygon fill="none" stroke="#bfbfbf" points="408,-129 408,-148 452,-148 452,-129 408,-129"/>
<text text-anchor="middle" x="430" y="-136" font-family="Helvetica,sans-Serif" font-size="10.00">string</text>
</a>
</g>
</g>
<!-- Node6&#45;&gt;Node7 -->
<g id="edge7" class="edge">
<title>Node6&#45;&gt;Node7</title>
<path fill="none" stroke="midnightblue" d="M313.06,-324.19C335.64,-288.53 394.34,-195.82 418.92,-157"/>
<polygon fill="midnightblue" stroke="midnightblue" points="422,-158.68 424.39,-148.36 416.08,-154.94 422,-158.68"/>
</g>
<!-- Node8 -->
<g id="node8" class="node">
<title>Node8</title>
<g id="a_node8"><a xlink:title=" ">
<polygon fill="none" stroke="#bfbfbf" points="124,-263 124,-282 276,-282 276,-263 124,-263"/>
<text text-anchor="middle" x="200" y="-270" font-family="Helvetica,sans-Serif" font-size="10.00">iDynTree/Core/MatrixView.h</text>
</a>
</g>
</g>
<!-- Node6&#45;&gt;Node8 -->
<g id="edge9" class="edge">
<title>Node6&#45;&gt;Node8</title>
<path fill="none" stroke="midnightblue" d="M281.43,-324.4C263.99,-313.5 239.97,-298.48 222.53,-287.58"/>
<polygon fill="midnightblue" stroke="midnightblue" points="223.95,-284.34 213.61,-282.01 220.24,-290.28 223.95,-284.34"/>
</g>
<!-- Node9 -->
<g id="node9" class="node">
<title>Node9</title>
<g id="a_node9"><a xlink:href="IParametersHandler_8h.html" target="_top" xlink:title=" ">
<polygon fill="none" stroke="black" points="557.5,-190.5 557.5,-220.5 726.5,-220.5 726.5,-190.5 557.5,-190.5"/>
<text text-anchor="start" x="565.5" y="-208.5" font-family="Helvetica,sans-Serif" font-size="10.00">BipedalLocomotion/Parameters</text>
<text text-anchor="middle" x="642" y="-197.5" font-family="Helvetica,sans-Serif" font-size="10.00">Handler/IParametersHandler.h</text>
</a>
</g>
</g>
<!-- Node6&#45;&gt;Node9 -->
<g id="edge10" class="edge">
<title>Node6&#45;&gt;Node9</title>
<path fill="none" stroke="midnightblue" d="M379.03,-325.38C446.55,-313.23 537.5,-295.89 553,-288 581.63,-273.43 607.89,-247.08 624.35,-228.29"/>
<polygon fill="midnightblue" stroke="midnightblue" points="627.16,-230.38 630.99,-220.5 621.83,-225.84 627.16,-230.38"/>
</g>
<!-- Node6&#45;&gt;Node19 -->
<g id="edge25" class="edge">
<title>Node6&#45;&gt;Node19</title>
<path fill="none" stroke="midnightblue" d="M339.8,-324.4C364.45,-314.69 397.39,-301.71 423.84,-291.29"/>
<polygon fill="midnightblue" stroke="midnightblue" points="425.25,-294.5 433.27,-287.58 422.68,-287.99 425.25,-294.5"/>
</g>
<!-- Node9&#45;&gt;Node3 -->
<g id="edge13" class="edge">
<title>Node9&#45;&gt;Node3</title>
<path fill="none" stroke="midnightblue" d="M666.3,-190.4C685.35,-179.34 711.68,-164.06 730.51,-153.13"/>
<polygon fill="midnightblue" stroke="midnightblue" points="732.45,-156.05 739.34,-148.01 728.94,-150 732.45,-156.05"/>
</g>
<!-- Node9&#45;&gt;Node4 -->
<g id="edge11" class="edge">
<title>Node9&#45;&gt;Node4</title>
<path fill="none" stroke="midnightblue" d="M601.17,-190.47C575.42,-181.15 541.73,-168.07 513,-154 488.84,-142.17 485.62,-133.87 461,-123 410.45,-100.69 394.29,-104.86 342,-87 339.74,-86.23 337.42,-85.41 335.09,-84.57"/>
<polygon fill="midnightblue" stroke="midnightblue" points="336.2,-81.25 325.61,-81.05 333.76,-87.81 336.2,-81.25"/>
</g>
<!-- Node9&#45;&gt;Node7 -->
<g id="edge12" class="edge">
<title>Node9&#45;&gt;Node7</title>
<path fill="none" stroke="midnightblue" d="M593.42,-190.47C559.57,-180.58 513.42,-166.85 473,-154 469.41,-152.86 465.66,-151.64 461.94,-150.41"/>
<polygon fill="midnightblue" stroke="midnightblue" points="462.86,-147.03 452.27,-147.17 460.64,-153.66 462.86,-147.03"/>
</g>
<!-- Node10 -->
<g id="node10" class="node">
<title>Node10</title>
<g id="a_node10"><a xlink:href="TemplateHelpers_8h_source.html" target="_top" xlink:title=" ">
<polygon fill="none" stroke="black" points="722,-56.5 722,-86.5 880,-86.5 880,-56.5 722,-56.5"/>
<text text-anchor="start" x="730" y="-74.5" font-family="Helvetica,sans-Serif" font-size="10.00">BipedalLocomotion/Generic</text>
<text text-anchor="middle" x="801" y="-63.5" font-family="Helvetica,sans-Serif" font-size="10.00">Container/TemplateHelpers.h</text>
</a>
</g>
</g>
<!-- Node9&#45;&gt;Node10 -->
<g id="edge14" class="edge">
<title>Node9&#45;&gt;Node10</title>
<path fill="none" stroke="midnightblue" d="M653.95,-190.24C668.69,-173.13 694.99,-144.12 721,-123 735.15,-111.51 752.06,-100.49 766.69,-91.7"/>
<polygon fill="midnightblue" stroke="midnightblue" points="768.62,-94.62 775.45,-86.52 765.06,-88.59 768.62,-94.62"/>
</g>
<!-- Node14 -->
<g id="node14" class="node">
<title>Node14</title>
<g id="a_node14"><a xlink:href="Vector_8h_source.html" target="_top" xlink:title=" ">
<polygon fill="none" stroke="black" points="522.5,-123.5 522.5,-153.5 673.5,-153.5 673.5,-123.5 522.5,-123.5"/>
<text text-anchor="start" x="530.5" y="-141.5" font-family="Helvetica,sans-Serif" font-size="10.00">BipedalLocomotion/Generic</text>
<text text-anchor="middle" x="598" y="-130.5" font-family="Helvetica,sans-Serif" font-size="10.00">Container/Vector.h</text>
</a>
</g>
</g>
<!-- Node9&#45;&gt;Node14 -->
<g id="edge18" class="edge">
<title>Node9&#45;&gt;Node14</title>
<path fill="none" stroke="midnightblue" d="M632.45,-190.4C626.86,-182.13 619.67,-171.51 613.3,-162.1"/>
<polygon fill="midnightblue" stroke="midnightblue" points="616.03,-159.9 607.53,-153.58 610.24,-163.82 616.03,-159.9"/>
</g>
<!-- Node11 -->
<g id="node11" class="node">
<title>Node11</title>
<g id="a_node11"><a xlink:title=" ">
<polygon fill="none" stroke="#bfbfbf" points="677.5,-0.5 677.5,-19.5 746.5,-19.5 746.5,-0.5 677.5,-0.5"/>
<text text-anchor="middle" x="712" y="-7.5" font-family="Helvetica,sans-Serif" font-size="10.00">type_traits</text>
</a>
</g>
</g>
<!-- Node10&#45;&gt;Node11 -->
<g id="edge15" class="edge">
<title>Node10&#45;&gt;Node11</title>
<path fill="none" stroke="midnightblue" d="M779.91,-56.4C765.91,-47.04 747.59,-34.79 733.51,-25.38"/>
<polygon fill="midnightblue" stroke="midnightblue" points="735.21,-22.31 724.95,-19.66 731.32,-28.13 735.21,-22.31"/>
</g>
<!-- Node12 -->
<g id="node12" class="node">
<title>Node12</title>
<g id="a_node12"><a xlink:title=" ">
<polygon fill="none" stroke="#bfbfbf" points="764.5,-0.5 764.5,-19.5 837.5,-19.5 837.5,-0.5 764.5,-0.5"/>
<text text-anchor="middle" x="801" y="-7.5" font-family="Helvetica,sans-Serif" font-size="10.00">string_view</text>
</a>
</g>
</g>
<!-- Node10&#45;&gt;Node12 -->
<g id="edge16" class="edge">
<title>Node10&#45;&gt;Node12</title>
<path fill="none" stroke="midnightblue" d="M801,-56.4C801,-48.47 801,-38.46 801,-29.86"/>
<polygon fill="midnightblue" stroke="midnightblue" points="804.5,-29.66 801,-19.66 797.5,-29.66 804.5,-29.66"/>
</g>
<!-- Node13 -->
<g id="node13" class="node">
<title>Node13</title>
<g id="a_node13"><a xlink:title=" ">
<polygon fill="none" stroke="#bfbfbf" points="855.5,-0.5 855.5,-19.5 924.5,-19.5 924.5,-0.5 855.5,-0.5"/>
<text text-anchor="middle" x="890" y="-7.5" font-family="Helvetica,sans-Serif" font-size="10.00">Eigen/Core</text>
</a>
</g>
</g>
<!-- Node10&#45;&gt;Node13 -->
<g id="edge17" class="edge">
<title>Node10&#45;&gt;Node13</title>
<path fill="none" stroke="midnightblue" d="M822.09,-56.4C836.09,-47.04 854.41,-34.79 868.49,-25.38"/>
<polygon fill="midnightblue" stroke="midnightblue" points="870.68,-28.13 877.05,-19.66 866.79,-22.31 870.68,-28.13"/>
</g>
<!-- Node14&#45;&gt;Node4 -->
<g id="edge24" class="edge">
<title>Node14&#45;&gt;Node4</title>
<path fill="none" stroke="midnightblue" d="M522.43,-126.06C471.03,-117.44 401.76,-104.16 342,-87 339.42,-86.26 336.76,-85.42 334.11,-84.52"/>
<polygon fill="midnightblue" stroke="midnightblue" points="335.28,-81.22 324.69,-81.12 332.91,-87.81 335.28,-81.22"/>
</g>
<!-- Node14&#45;&gt;Node10 -->
<g id="edge20" class="edge">
<title>Node14&#45;&gt;Node10</title>
<path fill="none" stroke="midnightblue" d="M642.05,-123.4C672.91,-113.52 714.33,-100.25 747.15,-89.74"/>
<polygon fill="midnightblue" stroke="midnightblue" points="748.58,-92.96 757.04,-86.58 746.45,-86.29 748.58,-92.96"/>
</g>
<!-- Node15 -->
<g id="node15" class="node">
<title>Node15</title>
<g id="a_node15"><a xlink:title=" ">
<polygon fill="none" stroke="#bfbfbf" points="351.5,-62 351.5,-81 472.5,-81 472.5,-62 351.5,-62"/>
<text text-anchor="middle" x="412" y="-69" font-family="Helvetica,sans-Serif" font-size="10.00">iDynTree/Core/Span.h</text>
</a>
</g>
</g>
<!-- Node14&#45;&gt;Node15 -->
<g id="edge19" class="edge">
<title>Node14&#45;&gt;Node15</title>
<path fill="none" stroke="midnightblue" d="M557.64,-123.4C524.28,-111.74 477.45,-95.37 445.98,-84.38"/>
<polygon fill="midnightblue" stroke="midnightblue" points="446.94,-81 436.34,-81.01 444.63,-87.61 446.94,-81"/>
</g>
<!-- Node16 -->
<g id="node16" class="node">
<title>Node16</title>
<g id="a_node16"><a xlink:title=" ">
<polygon fill="none" stroke="#bfbfbf" points="490.5,-62 490.5,-81 555.5,-81 555.5,-62 490.5,-62"/>
<text text-anchor="middle" x="523" y="-69" font-family="Helvetica,sans-Serif" font-size="10.00">functional</text>
</a>
</g>
</g>
<!-- Node14&#45;&gt;Node16 -->
<g id="edge21" class="edge">
<title>Node14&#45;&gt;Node16</title>
<path fill="none" stroke="midnightblue" d="M581.73,-123.4C569.68,-112.96 553.29,-98.75 540.88,-88"/>
<polygon fill="midnightblue" stroke="midnightblue" points="542.88,-85.1 533.03,-81.19 538.3,-90.39 542.88,-85.1"/>
</g>
<!-- Node17 -->
<g id="node17" class="node">
<title>Node17</title>
<g id="a_node17"><a xlink:title=" ">
<polygon fill="none" stroke="#bfbfbf" points="574,-62 574,-81 626,-81 626,-62 574,-62"/>
<text text-anchor="middle" x="600" y="-69" font-family="Helvetica,sans-Serif" font-size="10.00">cassert</text>
</a>
</g>
</g>
<!-- Node14&#45;&gt;Node17 -->
<g id="edge22" class="edge">
<title>Node14&#45;&gt;Node17</title>
<path fill="none" stroke="midnightblue" d="M598.43,-123.4C598.72,-114.06 599.1,-101.71 599.41,-91.52"/>
<polygon fill="midnightblue" stroke="midnightblue" points="602.92,-91.3 599.73,-81.19 595.93,-91.08 602.92,-91.3"/>
</g>
<!-- Node18 -->
<g id="node18" class="node">
<title>Node18</title>
<g id="a_node18"><a xlink:title=" ">
<polygon fill="none" stroke="#bfbfbf" points="644,-62 644,-81 704,-81 704,-62 644,-62"/>
<text text-anchor="middle" x="674" y="-69" font-family="Helvetica,sans-Serif" font-size="10.00">iostream</text>
</a>
</g>
</g>
<!-- Node14&#45;&gt;Node18 -->
<g id="edge23" class="edge">
<title>Node14&#45;&gt;Node18</title>
<path fill="none" stroke="midnightblue" d="M614.49,-123.4C626.69,-112.96 643.31,-98.75 655.88,-88"/>
<polygon fill="midnightblue" stroke="midnightblue" points="658.51,-90.35 663.83,-81.19 653.96,-85.03 658.51,-90.35"/>
</g>
<!-- Node19&#45;&gt;Node4 -->
<g id="edge27" class="edge">
<title>Node19&#45;&gt;Node4</title>
<path fill="none" stroke="midnightblue" d="M457.22,-257.36C448.8,-247.24 437.2,-233.28 427,-221 387.26,-173.12 340.38,-116.48 317.68,-89.04"/>
<polygon fill="midnightblue" stroke="midnightblue" points="320.27,-86.68 311.2,-81.21 314.88,-91.15 320.27,-86.68"/>
</g>
<!-- Node19&#45;&gt;Node7 -->
<g id="edge26" class="edge">
<title>Node19&#45;&gt;Node7</title>
<path fill="none" stroke="midnightblue" d="M457.47,-257.43C450.26,-247.79 441.51,-234.38 437,-221 430.07,-200.44 428.92,-175.4 429.11,-158.55"/>
<polygon fill="midnightblue" stroke="midnightblue" points="432.62,-158.44 429.41,-148.34 425.62,-158.23 432.62,-158.44"/>
</g>
<!-- Node19&#45;&gt;Node9 -->
<g id="edge29" class="edge">
<title>Node19&#45;&gt;Node9</title>
<path fill="none" stroke="midnightblue" d="M506.54,-257.4C532.5,-247.64 567.22,-234.59 595.02,-224.15"/>
<polygon fill="midnightblue" stroke="midnightblue" points="596.4,-227.37 604.53,-220.58 593.94,-220.82 596.4,-227.37"/>
</g>
<!-- Node20 -->
<g id="node20" class="node">
<title>Node20</title>
<g id="a_node20"><a xlink:title=" ">
<polygon fill="none" stroke="#bfbfbf" points="446.5,-196 446.5,-215 539.5,-215 539.5,-196 446.5,-196"/>
<text text-anchor="middle" x="493" y="-203" font-family="Helvetica,sans-Serif" font-size="10.00">unordered_map</text>
</a>
</g>
</g>
<!-- Node19&#45;&gt;Node20 -->
<g id="edge28" class="edge">
<title>Node19&#45;&gt;Node20</title>
<path fill="none" stroke="midnightblue" d="M474.21,-257.4C477.73,-247.86 482.41,-235.18 486.22,-224.86"/>
<polygon fill="midnightblue" stroke="midnightblue" points="489.61,-225.79 489.79,-215.19 483.04,-223.36 489.61,-225.79"/>
</g>
<!-- Node23 -->
<g id="node23" class="node">
<title>Node23</title>
<g id="a_node23"><a xlink:title=" ">
<polygon fill="none" stroke="#bfbfbf" points="782.5,-330 782.5,-349 881.5,-349 881.5,-330 782.5,-330"/>
<text text-anchor="middle" x="832" y="-337" font-family="Helvetica,sans-Serif" font-size="10.00">spdlog/fmt/ostr.h</text>
</a>
</g>
</g>
<!-- Node22&#45;&gt;Node23 -->
<g id="edge33" class="edge">
<title>Node22&#45;&gt;Node23</title>
<path fill="none" stroke="midnightblue" d="M832,-391.4C832,-382.06 832,-369.71 832,-359.52"/>
<polygon fill="midnightblue" stroke="midnightblue" points="835.5,-359.19 832,-349.19 828.5,-359.19 835.5,-359.19"/>
</g>
<!-- Node24 -->
<g id="node24" class="node">
<title>Node24</title>
<g id="a_node24"><a xlink:title=" ">
<polygon fill="none" stroke="#bfbfbf" points="899.5,-330 899.5,-349 992.5,-349 992.5,-330 899.5,-330"/>
<text text-anchor="middle" x="946" y="-337" font-family="Helvetica,sans-Serif" font-size="10.00">spdlog/spdlog.h</text>
</a>
</g>
</g>
<!-- Node22&#45;&gt;Node24 -->
<g id="edge34" class="edge">
<title>Node22&#45;&gt;Node24</title>
<path fill="none" stroke="midnightblue" d="M856.74,-391.4C876.21,-380.29 903.17,-364.92 922.35,-353.98"/>
<polygon fill="midnightblue" stroke="midnightblue" points="924.13,-357 931.08,-349.01 920.66,-350.92 924.13,-357"/>
</g>
</g>
</svg>
