<?xml version="1.0" encoding="UTF-8" standalone="no"?>
<!DOCTYPE svg PUBLIC "-//W3C//DTD SVG 1.1//EN"
 "http://www.w3.org/Graphics/SVG/1.1/DTD/svg11.dtd">
<!-- Generated by graphviz version 2.43.0 (0)
 -->
<!-- Title: TSID/include/BipedalLocomotion/TSID/BaseDynamicsTask.h Pages: 1 -->
<!--zoomable 430 -->
<svg id="main" version="1.1" xmlns="http://www.w3.org/2000/svg" xmlns:xlink="http://www.w3.org/1999/xlink" xml:space="preserve" onload="init(evt)">
<style type="text/css"><![CDATA[
.edge:hover path { stroke: red; }
.edge:hover polygon { stroke: red; fill: red; }
]]></style>
<script type="text/javascript"><![CDATA[
var edges = document.getElementsByTagName('g');
if (edges && edges.length) {
  for (var i=0;i<edges.length;i++) {
    if (edges[i].id.substr(0,4)=='edge') {
      edges[i].setAttribute('class','edge');
    }
  }
}
]]></script>
        <defs>
                <circle id="rim" cx="0" cy="0" r="7"/>
                <circle id="rim2" cx="0" cy="0" r="3.5"/>
                <g id="zoomPlus">
                        <use xlink:href="#rim" fill="#404040">
                                <set attributeName="fill" to="#808080" begin="zoomplus.mouseover" end="zoomplus.mouseout"/>
                        </use>
                        <path d="M-4,0h8M0,-4v8" fill="none" stroke="white" stroke-width="1.5" pointer-events="none"/>
                </g>
                <g id="zoomMin">
                        <use xlink:href="#rim" fill="#404040">
                                <set attributeName="fill" to="#808080" begin="zoomminus.mouseover" end="zoomminus.mouseout"/>
                        </use>
                        <path d="M-4,0h8" fill="none" stroke="white" stroke-width="1.5" pointer-events="none"/>
                </g>
                <g id="dirArrow">
                        <path fill="none" stroke="white" stroke-width="1.5" d="M0,-3.0v7 M-2.5,-0.5L0,-3.0L2.5,-0.5"/>
                </g>
               <g id="resetDef">
                       <use xlink:href="#rim2" fill="#404040">
                               <set attributeName="fill" to="#808080" begin="reset.mouseover" end="reset.mouseout"/>
                       </use>
               </g>
        </defs>

<script type="text/javascript">
var viewWidth = 709;
var viewHeight = 430;
var sectionId = 'dynsection-0';
</script>
<script xlink:href="svgpan.js"/>
<svg id="graph" class="graph">
<g id="viewport">
<title>TSID/include/BipedalLocomotion/TSID/BaseDynamicsTask.h</title>
<!-- Node1 -->
<g id="node1" class="node">
<title>Node1</title>
<g id="a_node1"><a xlink:title=" ">
<polygon fill="#bfbfbf" stroke="black" points="136,-391.5 136,-421.5 310,-421.5 310,-391.5 136,-391.5"/>
<text text-anchor="start" x="144" y="-409.5" font-family="Helvetica,sans-Serif" font-size="10.00">TSID/include/BipedalLocomotion</text>
<text text-anchor="middle" x="223" y="-398.5" font-family="Helvetica,sans-Serif" font-size="10.00">/TSID/BaseDynamicsTask.h</text>
</a>
</g>
</g>
<!-- Node2 -->
<g id="node2" class="node">
<title>Node2</title>
<g id="a_node2"><a xlink:title=" ">
<polygon fill="none" stroke="#bfbfbf" points="156.5,-129 156.5,-148 203.5,-148 203.5,-129 156.5,-129"/>
<text text-anchor="middle" x="180" y="-136" font-family="Helvetica,sans-Serif" font-size="10.00">vector</text>
</a>
</g>
</g>
<!-- Node1&#45;&gt;Node2 -->
<g id="edge1" class="edge">
<title>Node1&#45;&gt;Node2</title>
<path fill="none" stroke="midnightblue" d="M189.38,-391.46C151.66,-373.65 92.42,-338.97 67,-288 46.78,-247.46 65.29,-224.2 95,-190 109.34,-173.49 130.46,-160.91 148.06,-152.43"/>
<polygon fill="midnightblue" stroke="midnightblue" points="149.78,-155.49 157.41,-148.14 146.86,-149.13 149.78,-155.49"/>
</g>
<!-- Node3 -->
<g id="node3" class="node">
<title>Node3</title>
<g id="a_node3"><a xlink:title=" ">
<polygon fill="none" stroke="#bfbfbf" points="51,-62 51,-81 109,-81 109,-62 51,-62"/>
<text text-anchor="middle" x="80" y="-69" font-family="Helvetica,sans-Serif" font-size="10.00">memory</text>
</a>
</g>
</g>
<!-- Node1&#45;&gt;Node3 -->
<g id="edge2" class="edge">
<title>Node1&#45;&gt;Node3</title>
<path fill="none" stroke="midnightblue" d="M141.55,-391.46C77.84,-375.26 0,-341.55 0,-273.5 0,-273.5 0,-273.5 0,-204.5 0,-156.59 39.02,-111.22 62.56,-88.2"/>
<polygon fill="midnightblue" stroke="midnightblue" points="65.01,-90.7 69.87,-81.29 60.2,-85.62 65.01,-90.7"/>
</g>
<!-- Node4 -->
<g id="node4" class="node">
<title>Node4</title>
<g id="a_node4"><a xlink:title=" ">
<polygon fill="none" stroke="#bfbfbf" points="618.5,-263 618.5,-282 695.5,-282 695.5,-263 618.5,-263"/>
<text text-anchor="middle" x="657" y="-270" font-family="Helvetica,sans-Serif" font-size="10.00">Eigen/Dense</text>
</a>
</g>
</g>
<!-- Node1&#45;&gt;Node4 -->
<g id="edge3" class="edge">
<title>Node1&#45;&gt;Node4</title>
<path fill="none" stroke="midnightblue" d="M283.26,-391.45C312.87,-383.18 348.44,-371.14 378,-355 397.13,-344.56 396.23,-333.17 416,-324 495.15,-287.28 524.22,-308.65 609,-288 612.84,-287.07 616.83,-286.01 620.79,-284.9"/>
<polygon fill="midnightblue" stroke="midnightblue" points="621.86,-288.23 630.48,-282.07 619.9,-281.51 621.86,-288.23"/>
</g>
<!-- Node5 -->
<g id="node5" class="node">
<title>Node5</title>
<g id="a_node5"><a xlink:href="LinearTask_8h.html" target="_top" xlink:title=" ">
<polygon fill="none" stroke="black" points="219,-324.5 219,-354.5 369,-354.5 369,-324.5 219,-324.5"/>
<text text-anchor="start" x="227" y="-342.5" font-family="Helvetica,sans-Serif" font-size="10.00">BipedalLocomotion/System</text>
<text text-anchor="middle" x="294" y="-331.5" font-family="Helvetica,sans-Serif" font-size="10.00">/LinearTask.h</text>
</a>
</g>
</g>
<!-- Node1&#45;&gt;Node5 -->
<g id="edge4" class="edge">
<title>Node1&#45;&gt;Node5</title>
<path fill="none" stroke="midnightblue" d="M238.41,-391.4C247.99,-382.62 260.49,-371.18 271.2,-361.37"/>
<polygon fill="midnightblue" stroke="midnightblue" points="273.61,-363.91 278.62,-354.58 268.88,-358.75 273.61,-363.91"/>
</g>
<!-- Node18 -->
<g id="node18" class="node">
<title>Node18</title>
<g id="a_node18"><a xlink:href="VariablesHandler_8h.html" target="_top" xlink:title=" ">
<polygon fill="none" stroke="black" points="76,-257.5 76,-287.5 226,-287.5 226,-257.5 76,-257.5"/>
<text text-anchor="start" x="84" y="-275.5" font-family="Helvetica,sans-Serif" font-size="10.00">BipedalLocomotion/System</text>
<text text-anchor="middle" x="151" y="-264.5" font-family="Helvetica,sans-Serif" font-size="10.00">/VariablesHandler.h</text>
</a>
</g>
</g>
<!-- Node1&#45;&gt;Node18 -->
<g id="edge29" class="edge">
<title>Node1&#45;&gt;Node18</title>
<path fill="none" stroke="midnightblue" d="M215.29,-391.37C202.9,-368.65 178.41,-323.75 163.49,-296.4"/>
<polygon fill="midnightblue" stroke="midnightblue" points="166.51,-294.63 158.65,-287.52 160.37,-297.98 166.51,-294.63"/>
</g>
<!-- Node20 -->
<g id="node20" class="node">
<title>Node20</title>
<g id="a_node20"><a xlink:title=" ">
<polygon fill="none" stroke="#bfbfbf" points="425.5,-330 425.5,-349 600.5,-349 600.5,-330 425.5,-330"/>
<text text-anchor="middle" x="513" y="-337" font-family="Helvetica,sans-Serif" font-size="10.00">iDynTree/KinDynComputations.h</text>
</a>
</g>
</g>
<!-- Node1&#45;&gt;Node20 -->
<g id="edge30" class="edge">
<title>Node1&#45;&gt;Node20</title>
<path fill="none" stroke="midnightblue" d="M285.57,-391.48C339.35,-379.42 415.8,-362.29 464.9,-351.28"/>
<polygon fill="midnightblue" stroke="midnightblue" points="465.96,-354.63 474.95,-349.03 464.43,-347.8 465.96,-354.63"/>
</g>
<!-- Node5&#45;&gt;Node3 -->
<g id="edge5" class="edge">
<title>Node5&#45;&gt;Node3</title>
<path fill="none" stroke="midnightblue" d="M288.38,-324.31C276.62,-295.98 247.05,-231.59 206,-190 184.42,-168.14 170.19,-174.15 147,-154 124.72,-134.64 103.94,-107.36 91.6,-89.8"/>
<polygon fill="midnightblue" stroke="midnightblue" points="94.21,-87.41 85.66,-81.16 88.44,-91.38 94.21,-87.41"/>
</g>
<!-- Node5&#45;&gt;Node4 -->
<g id="edge7" class="edge">
<title>Node5&#45;&gt;Node4</title>
<path fill="none" stroke="midnightblue" d="M369.26,-326.22C373.91,-325.47 378.52,-324.72 383,-324 483.42,-307.82 509.87,-310.76 609,-288 612.94,-287.09 617.04,-286.04 621.1,-284.92"/>
<polygon fill="midnightblue" stroke="midnightblue" points="622.38,-288.19 631.01,-282.05 620.44,-281.47 622.38,-288.19"/>
</g>
<!-- Node6 -->
<g id="node6" class="node">
<title>Node6</title>
<g id="a_node6"><a xlink:title=" ">
<polygon fill="none" stroke="#bfbfbf" points="468,-129 468,-148 512,-148 512,-129 468,-129"/>
<text text-anchor="middle" x="490" y="-136" font-family="Helvetica,sans-Serif" font-size="10.00">string</text>
</a>
</g>
</g>
<!-- Node5&#45;&gt;Node6 -->
<g id="edge6" class="edge">
<title>Node5&#45;&gt;Node6</title>
<path fill="none" stroke="midnightblue" d="M324.55,-324.37C361.77,-305.69 424.22,-269.41 461,-221 475.3,-202.17 482.98,-175.68 486.77,-158.07"/>
<polygon fill="midnightblue" stroke="midnightblue" points="490.23,-158.66 488.7,-148.18 483.35,-157.33 490.23,-158.66"/>
</g>
<!-- Node7 -->
<g id="node7" class="node">
<title>Node7</title>
<g id="a_node7"><a xlink:title=" ">
<polygon fill="none" stroke="#bfbfbf" points="448,-263 448,-282 600,-282 600,-263 448,-263"/>
<text text-anchor="middle" x="524" y="-270" font-family="Helvetica,sans-Serif" font-size="10.00">iDynTree/Core/MatrixView.h</text>
</a>
</g>
</g>
<!-- Node5&#45;&gt;Node7 -->
<g id="edge8" class="edge">
<title>Node5&#45;&gt;Node7</title>
<path fill="none" stroke="midnightblue" d="M343.62,-324.48C385.57,-312.62 444.89,-295.86 483.88,-284.84"/>
<polygon fill="midnightblue" stroke="midnightblue" points="485.15,-288.12 493.82,-282.03 483.25,-281.38 485.15,-288.12"/>
</g>
<!-- Node8 -->
<g id="node8" class="node">
<title>Node8</title>
<g id="a_node8"><a xlink:href="IParametersHandler_8h.html" target="_top" xlink:title=" ">
<polygon fill="none" stroke="black" points="253.5,-190.5 253.5,-220.5 422.5,-220.5 422.5,-190.5 253.5,-190.5"/>
<text text-anchor="start" x="261.5" y="-208.5" font-family="Helvetica,sans-Serif" font-size="10.00">BipedalLocomotion/Parameters</text>
<text text-anchor="middle" x="338" y="-197.5" font-family="Helvetica,sans-Serif" font-size="10.00">Handler/IParametersHandler.h</text>
</a>
</g>
</g>
<!-- Node5&#45;&gt;Node8 -->
<g id="edge9" class="edge">
<title>Node5&#45;&gt;Node8</title>
<path fill="none" stroke="midnightblue" d="M298.71,-324.37C306.22,-301.85 320.99,-257.53 330.13,-230.12"/>
<polygon fill="midnightblue" stroke="midnightblue" points="333.48,-231.12 333.33,-220.52 326.84,-228.9 333.48,-231.12"/>
</g>
<!-- Node5&#45;&gt;Node18 -->
<g id="edge24" class="edge">
<title>Node5&#45;&gt;Node18</title>
<path fill="none" stroke="midnightblue" d="M262.97,-324.4C241.98,-314.86 214.06,-302.16 191.35,-291.84"/>
<polygon fill="midnightblue" stroke="midnightblue" points="192.52,-288.53 181.97,-287.58 189.62,-294.9 192.52,-288.53"/>
</g>
<!-- Node8&#45;&gt;Node2 -->
<g id="edge12" class="edge">
<title>Node8&#45;&gt;Node2</title>
<path fill="none" stroke="midnightblue" d="M303.72,-190.4C275.87,-178.94 236.97,-162.94 210.27,-151.95"/>
<polygon fill="midnightblue" stroke="midnightblue" points="211.26,-148.57 200.68,-148.01 208.59,-155.05 211.26,-148.57"/>
</g>
<!-- Node8&#45;&gt;Node3 -->
<g id="edge10" class="edge">
<title>Node8&#45;&gt;Node3</title>
<path fill="none" stroke="midnightblue" d="M311.51,-190.44C293.95,-180.8 270.62,-167.39 251,-154 232.71,-141.52 231.23,-133.97 212,-123 211.42,-122.67 150.81,-99.52 111.93,-84.68"/>
<polygon fill="midnightblue" stroke="midnightblue" points="113.15,-81.4 102.56,-81.11 110.66,-87.94 113.15,-81.4"/>
</g>
<!-- Node8&#45;&gt;Node6 -->
<g id="edge11" class="edge">
<title>Node8&#45;&gt;Node6</title>
<path fill="none" stroke="midnightblue" d="M370.98,-190.4C397.77,-178.94 435.19,-162.94 460.88,-151.95"/>
<polygon fill="midnightblue" stroke="midnightblue" points="462.29,-155.16 470.11,-148.01 459.54,-148.72 462.29,-155.16"/>
</g>
<!-- Node9 -->
<g id="node9" class="node">
<title>Node9</title>
<g id="a_node9"><a xlink:href="TemplateHelpers_8h_source.html" target="_top" xlink:title=" ">
<polygon fill="none" stroke="black" points="498,-56.5 498,-86.5 656,-86.5 656,-56.5 498,-56.5"/>
<text text-anchor="start" x="506" y="-74.5" font-family="Helvetica,sans-Serif" font-size="10.00">BipedalLocomotion/Generic</text>
<text text-anchor="middle" x="577" y="-63.5" font-family="Helvetica,sans-Serif" font-size="10.00">Container/TemplateHelpers.h</text>
</a>
</g>
</g>
<!-- Node8&#45;&gt;Node9 -->
<g id="edge13" class="edge">
<title>Node8&#45;&gt;Node9</title>
<path fill="none" stroke="midnightblue" d="M362.53,-190.44C379.08,-180.69 401.25,-167.16 420,-154 438.13,-141.28 439.99,-134.35 459,-123 480.5,-110.17 505.86,-98.87 527.55,-90.23"/>
<polygon fill="midnightblue" stroke="midnightblue" points="528.87,-93.48 536.92,-86.58 526.33,-86.96 528.87,-93.48"/>
</g>
<!-- Node13 -->
<g id="node13" class="node">
<title>Node13</title>
<g id="a_node13"><a xlink:href="Vector_8h_source.html" target="_top" xlink:title=" ">
<polygon fill="none" stroke="black" points="260.5,-123.5 260.5,-153.5 411.5,-153.5 411.5,-123.5 260.5,-123.5"/>
<text text-anchor="start" x="268.5" y="-141.5" font-family="Helvetica,sans-Serif" font-size="10.00">BipedalLocomotion/Generic</text>
<text text-anchor="middle" x="336" y="-130.5" font-family="Helvetica,sans-Serif" font-size="10.00">Container/Vector.h</text>
</a>
</g>
</g>
<!-- Node8&#45;&gt;Node13 -->
<g id="edge17" class="edge">
<title>Node8&#45;&gt;Node13</title>
<path fill="none" stroke="midnightblue" d="M337.57,-190.4C337.33,-182.64 337.02,-172.81 336.75,-163.86"/>
<polygon fill="midnightblue" stroke="midnightblue" points="340.24,-163.46 336.43,-153.58 333.24,-163.68 340.24,-163.46"/>
</g>
<!-- Node10 -->
<g id="node10" class="node">
<title>Node10</title>
<g id="a_node10"><a xlink:title=" ">
<polygon fill="none" stroke="#bfbfbf" points="453.5,-0.5 453.5,-19.5 522.5,-19.5 522.5,-0.5 453.5,-0.5"/>
<text text-anchor="middle" x="488" y="-7.5" font-family="Helvetica,sans-Serif" font-size="10.00">type_traits</text>
</a>
</g>
</g>
<!-- Node9&#45;&gt;Node10 -->
<g id="edge14" class="edge">
<title>Node9&#45;&gt;Node10</title>
<path fill="none" stroke="midnightblue" d="M555.91,-56.4C541.91,-47.04 523.59,-34.79 509.51,-25.38"/>
<polygon fill="midnightblue" stroke="midnightblue" points="511.21,-22.31 500.95,-19.66 507.32,-28.13 511.21,-22.31"/>
</g>
<!-- Node11 -->
<g id="node11" class="node">
<title>Node11</title>
<g id="a_node11"><a xlink:title=" ">
<polygon fill="none" stroke="#bfbfbf" points="540.5,-0.5 540.5,-19.5 613.5,-19.5 613.5,-0.5 540.5,-0.5"/>
<text text-anchor="middle" x="577" y="-7.5" font-family="Helvetica,sans-Serif" font-size="10.00">string_view</text>
</a>
</g>
</g>
<!-- Node9&#45;&gt;Node11 -->
<g id="edge15" class="edge">
<title>Node9&#45;&gt;Node11</title>
<path fill="none" stroke="midnightblue" d="M577,-56.4C577,-48.47 577,-38.46 577,-29.86"/>
<polygon fill="midnightblue" stroke="midnightblue" points="580.5,-29.66 577,-19.66 573.5,-29.66 580.5,-29.66"/>
</g>
<!-- Node12 -->
<g id="node12" class="node">
<title>Node12</title>
<g id="a_node12"><a xlink:title=" ">
<polygon fill="none" stroke="#bfbfbf" points="631.5,-0.5 631.5,-19.5 700.5,-19.5 700.5,-0.5 631.5,-0.5"/>
<text text-anchor="middle" x="666" y="-7.5" font-family="Helvetica,sans-Serif" font-size="10.00">Eigen/Core</text>
</a>
</g>
</g>
<!-- Node9&#45;&gt;Node12 -->
<g id="edge16" class="edge">
<title>Node9&#45;&gt;Node12</title>
<path fill="none" stroke="midnightblue" d="M598.09,-56.4C612.09,-47.04 630.41,-34.79 644.49,-25.38"/>
<polygon fill="midnightblue" stroke="midnightblue" points="646.68,-28.13 653.05,-19.66 642.79,-22.31 646.68,-28.13"/>
</g>
<!-- Node13&#45;&gt;Node3 -->
<g id="edge23" class="edge">
<title>Node13&#45;&gt;Node3</title>
<path fill="none" stroke="midnightblue" d="M264.17,-123.45C221.34,-114.43 166.12,-101.68 118,-87 115.58,-86.26 113.09,-85.44 110.6,-84.59"/>
<polygon fill="midnightblue" stroke="midnightblue" points="111.72,-81.27 101.13,-81.15 109.33,-87.85 111.72,-81.27"/>
</g>
<!-- Node13&#45;&gt;Node9 -->
<g id="edge19" class="edge">
<title>Node13&#45;&gt;Node9</title>
<path fill="none" stroke="midnightblue" d="M388,-123.48C425.25,-113.43 475.57,-99.86 514.93,-89.24"/>
<polygon fill="midnightblue" stroke="midnightblue" points="515.94,-92.59 524.68,-86.61 514.11,-85.84 515.94,-92.59"/>
</g>
<!-- Node14 -->
<g id="node14" class="node">
<title>Node14</title>
<g id="a_node14"><a xlink:title=" ">
<polygon fill="none" stroke="#bfbfbf" points="275.5,-62 275.5,-81 396.5,-81 396.5,-62 275.5,-62"/>
<text text-anchor="middle" x="336" y="-69" font-family="Helvetica,sans-Serif" font-size="10.00">iDynTree/Core/Span.h</text>
</a>
</g>
</g>
<!-- Node13&#45;&gt;Node14 -->
<g id="edge18" class="edge">
<title>Node13&#45;&gt;Node14</title>
<path fill="none" stroke="midnightblue" d="M336,-123.4C336,-114.06 336,-101.71 336,-91.52"/>
<polygon fill="midnightblue" stroke="midnightblue" points="339.5,-91.19 336,-81.19 332.5,-91.19 339.5,-91.19"/>
</g>
<!-- Node15 -->
<g id="node15" class="node">
<title>Node15</title>
<g id="a_node15"><a xlink:title=" ">
<polygon fill="none" stroke="#bfbfbf" points="414.5,-62 414.5,-81 479.5,-81 479.5,-62 414.5,-62"/>
<text text-anchor="middle" x="447" y="-69" font-family="Helvetica,sans-Serif" font-size="10.00">functional</text>
</a>
</g>
</g>
<!-- Node13&#45;&gt;Node15 -->
<g id="edge20" class="edge">
<title>Node13&#45;&gt;Node15</title>
<path fill="none" stroke="midnightblue" d="M360.09,-123.4C378.96,-112.34 405.06,-97.06 423.72,-86.13"/>
<polygon fill="midnightblue" stroke="midnightblue" points="425.61,-89.08 432.47,-81.01 422.07,-83.04 425.61,-89.08"/>
</g>
<!-- Node16 -->
<g id="node16" class="node">
<title>Node16</title>
<g id="a_node16"><a xlink:title=" ">
<polygon fill="none" stroke="#bfbfbf" points="127,-62 127,-81 179,-81 179,-62 127,-62"/>
<text text-anchor="middle" x="153" y="-69" font-family="Helvetica,sans-Serif" font-size="10.00">cassert</text>
</a>
</g>
</g>
<!-- Node13&#45;&gt;Node16 -->
<g id="edge21" class="edge">
<title>Node13&#45;&gt;Node16</title>
<path fill="none" stroke="midnightblue" d="M292.35,-123.42C262.74,-113.67 222.8,-100.13 188,-87 186.15,-86.3 184.26,-85.57 182.35,-84.82"/>
<polygon fill="midnightblue" stroke="midnightblue" points="183.48,-81.5 172.9,-81 180.86,-87.99 183.48,-81.5"/>
</g>
<!-- Node17 -->
<g id="node17" class="node">
<title>Node17</title>
<g id="a_node17"><a xlink:title=" ">
<polygon fill="none" stroke="#bfbfbf" points="197,-62 197,-81 257,-81 257,-62 197,-62"/>
<text text-anchor="middle" x="227" y="-69" font-family="Helvetica,sans-Serif" font-size="10.00">iostream</text>
</a>
</g>
</g>
<!-- Node13&#45;&gt;Node17 -->
<g id="edge22" class="edge">
<title>Node13&#45;&gt;Node17</title>
<path fill="none" stroke="midnightblue" d="M312.35,-123.4C293.82,-112.34 268.19,-97.06 249.86,-86.13"/>
<polygon fill="midnightblue" stroke="midnightblue" points="251.65,-83.12 241.27,-81.01 248.06,-89.13 251.65,-83.12"/>
</g>
<!-- Node18&#45;&gt;Node3 -->
<g id="edge26" class="edge">
<title>Node18&#45;&gt;Node3</title>
<path fill="none" stroke="midnightblue" d="M128.68,-257.46C116.57,-248.57 102.57,-235.95 95,-221 73.5,-178.55 75.13,-120.6 77.76,-91.22"/>
<polygon fill="midnightblue" stroke="midnightblue" points="81.26,-91.44 78.82,-81.13 74.3,-90.72 81.26,-91.44"/>
</g>
<!-- Node18&#45;&gt;Node6 -->
<g id="edge25" class="edge">
<title>Node18&#45;&gt;Node6</title>
<path fill="none" stroke="midnightblue" d="M226.15,-264.32C297.17,-256.41 397.65,-241.97 431,-221 455.44,-205.63 472.92,-176.13 482.23,-157.16"/>
<polygon fill="midnightblue" stroke="midnightblue" points="485.41,-158.63 486.46,-148.09 479.06,-155.67 485.41,-158.63"/>
</g>
<!-- Node18&#45;&gt;Node8 -->
<g id="edge28" class="edge">
<title>Node18&#45;&gt;Node8</title>
<path fill="none" stroke="midnightblue" d="M191.58,-257.4C219.88,-247.56 257.83,-234.37 288,-223.88"/>
<polygon fill="midnightblue" stroke="midnightblue" points="289.21,-227.17 297.5,-220.58 286.91,-220.55 289.21,-227.17"/>
</g>
<!-- Node19 -->
<g id="node19" class="node">
<title>Node19</title>
<g id="a_node19"><a xlink:title=" ">
<polygon fill="none" stroke="#bfbfbf" points="104.5,-196 104.5,-215 197.5,-215 197.5,-196 104.5,-196"/>
<text text-anchor="middle" x="151" y="-203" font-family="Helvetica,sans-Serif" font-size="10.00">unordered_map</text>
</a>
</g>
</g>
<!-- Node18&#45;&gt;Node19 -->
<g id="edge27" class="edge">
<title>Node18&#45;&gt;Node19</title>
<path fill="none" stroke="midnightblue" d="M151,-257.4C151,-248.06 151,-235.71 151,-225.52"/>
<polygon fill="midnightblue" stroke="midnightblue" points="154.5,-225.19 151,-215.19 147.5,-225.19 154.5,-225.19"/>
</g>
</g>
</svg>
        <g id="navigator" transform="translate(0 0)" fill="#404254">
                <rect fill="#f2f5e9" fill-opacity="0.5" stroke="#606060" stroke-width=".5" x="0" y="0" width="60" height="60"/>
                <use id="zoomplus" xlink:href="#zoomPlus" x="17" y="9" onmousedown="handleZoom(evt,'in')"/>
                <use id="zoomminus" xlink:href="#zoomMin" x="42" y="9" onmousedown="handleZoom(evt,'out')"/>
                <use id="reset" xlink:href="#resetDef" x="30" y="36" onmousedown="handleReset()"/>
                <g id="arrowUp" xlink:href="#dirArrow" transform="translate(30 24)" onmousedown="handlePan(0,-1)">
                  <use xlink:href="#rim" fill="#404040">
                        <set attributeName="fill" to="#808080" begin="arrowUp.mouseover" end="arrowUp.mouseout"/>
                  </use>
                  <path fill="none" stroke="white" stroke-width="1.5" d="M0,-3.0v7 M-2.5,-0.5L0,-3.0L2.5,-0.5"/>
                </g>
                <g id="arrowRight" xlink:href="#dirArrow" transform="rotate(90) translate(36 -43)" onmousedown="handlePan(1,0)">
                  <use xlink:href="#rim" fill="#404040">
                        <set attributeName="fill" to="#808080" begin="arrowRight.mouseover" end="arrowRight.mouseout"/>
                  </use>
                  <path fill="none" stroke="white" stroke-width="1.5" d="M0,-3.0v7 M-2.5,-0.5L0,-3.0L2.5,-0.5"/>
                </g>
                <g id="arrowDown" xlink:href="#dirArrow" transform="rotate(180) translate(-30 -48)" onmousedown="handlePan(0,1)">
                  <use xlink:href="#rim" fill="#404040">
                        <set attributeName="fill" to="#808080" begin="arrowDown.mouseover" end="arrowDown.mouseout"/>
                  </use>
                  <path fill="none" stroke="white" stroke-width="1.5" d="M0,-3.0v7 M-2.5,-0.5L0,-3.0L2.5,-0.5"/>
                </g>
                <g id="arrowLeft" xlink:href="#dirArrow" transform="rotate(270) translate(-36 17)" onmousedown="handlePan(-1,0)">
                  <use xlink:href="#rim" fill="#404040">
                        <set attributeName="fill" to="#808080" begin="arrowLeft.mouseover" end="arrowLeft.mouseout"/>
                  </use>
                  <path fill="none" stroke="white" stroke-width="1.5" d="M0,-3.0v7 M-2.5,-0.5L0,-3.0L2.5,-0.5"/>
                </g>
        </g>
        <svg viewBox="0 0 15 15" width="100%" height="30px" preserveAspectRatio="xMaxYMin meet">
         <g id="arrow_out" transform="scale(0.3 0.3)">
          <a xlink:href="BaseDynamicsTask_8h__incl_org.svg" target="_base">
           <rect id="button" ry="5" rx="5" y="6" x="6" height="38" width="38"
                fill="#f2f5e9" fill-opacity="0.5" stroke="#606060" stroke-width="1.0"/>
           <path id="arrow"
             d="M 11.500037,31.436501 C 11.940474,20.09759 22.043105,11.32322 32.158766,21.979434 L 37.068811,17.246167 C 37.068811,17.246167 37.088388,32 37.088388,32 L 22.160133,31.978069 C 22.160133,31.978069 26.997745,27.140456 26.997745,27.140456 C 18.528582,18.264221 13.291696,25.230495 11.500037,31.436501 z"
             style="fill:#404040;"/>
          </a>
         </g>
        </svg>
</svg>
