<?xml version="1.0" encoding="UTF-8" standalone="no"?>
<!DOCTYPE svg PUBLIC "-//W3C//DTD SVG 1.1//EN"
 "http://www.w3.org/Graphics/SVG/1.1/DTD/svg11.dtd">
<!-- Generated by graphviz version 2.43.0 (0)
 -->
<!-- Title: Math/src/CARE.cpp Pages: 1 -->
<svg width="613pt" height="352pt"
 viewBox="0.00 0.00 613.00 352.00" xmlns="http://www.w3.org/2000/svg" xmlns:xlink="http://www.w3.org/1999/xlink">
<g id="graph0" class="graph" transform="scale(1 1) rotate(0) translate(4 348)">
<title>Math/src/CARE.cpp</title>
<!-- Node1 -->
<g id="node1" class="node">
<title>Node1</title>
<g id="a_node1"><a xlink:title=" ">
<polygon fill="#bfbfbf" stroke="black" points="384,-324.5 384,-343.5 492,-343.5 492,-324.5 384,-324.5"/>
<text text-anchor="middle" x="438" y="-331.5" font-family="Helvetica,sans-Serif" font-size="10.00">Math/src/CARE.cpp</text>
</a>
</g>
</g>
<!-- Node2 -->
<g id="node2" class="node">
<title>Node2</title>
<g id="a_node2"><a xlink:title=" ">
<polygon fill="none" stroke="#bfbfbf" points="0,-62 0,-81 60,-81 60,-62 0,-62"/>
<text text-anchor="middle" x="30" y="-69" font-family="Helvetica,sans-Serif" font-size="10.00">iostream</text>
</a>
</g>
</g>
<!-- Node1&#45;&gt;Node2 -->
<g id="edge1" class="edge">
<title>Node1&#45;&gt;Node2</title>
<path fill="none" stroke="midnightblue" d="M423.02,-324.42C407.3,-315.4 381.87,-300.77 360,-288 258.82,-228.95 229.6,-220.28 133,-154 101.74,-132.55 67.64,-104.59 47.58,-87.62"/>
<polygon fill="midnightblue" stroke="midnightblue" points="49.77,-84.89 39.88,-81.07 45.23,-90.22 49.77,-84.89"/>
</g>
<!-- Node3 -->
<g id="node3" class="node">
<title>Node3</title>
<g id="a_node3"><a xlink:title=" ">
<polygon fill="none" stroke="#bfbfbf" points="525,-263 525,-282 581,-282 581,-263 525,-263"/>
<text text-anchor="middle" x="553" y="-270" font-family="Helvetica,sans-Serif" font-size="10.00">sstream</text>
</a>
</g>
</g>
<!-- Node1&#45;&gt;Node3 -->
<g id="edge2" class="edge">
<title>Node1&#45;&gt;Node3</title>
<path fill="none" stroke="midnightblue" d="M454.48,-324.48C473.61,-314.58 505.37,-298.14 527.65,-286.62"/>
<polygon fill="midnightblue" stroke="midnightblue" points="529.28,-289.71 536.55,-282.01 526.06,-283.5 529.28,-289.71"/>
</g>
<!-- Node4 -->
<g id="node4" class="node">
<title>Node4</title>
<g id="a_node4"><a xlink:href="CARE_8h.html" target="_top" xlink:title=" ">
<polygon fill="none" stroke="black" points="369,-257.5 369,-287.5 507,-287.5 507,-257.5 369,-257.5"/>
<text text-anchor="start" x="377" y="-275.5" font-family="Helvetica,sans-Serif" font-size="10.00">BipedalLocomotion/Math</text>
<text text-anchor="middle" x="438" y="-264.5" font-family="Helvetica,sans-Serif" font-size="10.00">/CARE.h</text>
</a>
</g>
</g>
<!-- Node1&#45;&gt;Node4 -->
<g id="edge3" class="edge">
<title>Node1&#45;&gt;Node4</title>
<path fill="none" stroke="midnightblue" d="M438,-324.48C438,-317.47 438,-307.19 438,-297.7"/>
<polygon fill="midnightblue" stroke="midnightblue" points="441.5,-297.52 438,-287.52 434.5,-297.52 441.5,-297.52"/>
</g>
<!-- Node5 -->
<g id="node5" class="node">
<title>Node5</title>
<g id="a_node5"><a xlink:title=" ">
<polygon fill="none" stroke="#bfbfbf" points="470.5,-196 470.5,-215 547.5,-215 547.5,-196 470.5,-196"/>
<text text-anchor="middle" x="509" y="-203" font-family="Helvetica,sans-Serif" font-size="10.00">Eigen/Dense</text>
</a>
</g>
</g>
<!-- Node4&#45;&gt;Node5 -->
<g id="edge4" class="edge">
<title>Node4&#45;&gt;Node5</title>
<path fill="none" stroke="midnightblue" d="M453.41,-257.4C464.81,-246.96 480.33,-232.75 492.07,-222"/>
<polygon fill="midnightblue" stroke="midnightblue" points="494.49,-224.53 499.5,-215.19 489.76,-219.37 494.49,-224.53"/>
</g>
<!-- Node6 -->
<g id="node6" class="node">
<title>Node6</title>
<g id="a_node6"><a xlink:title=" ">
<polygon fill="none" stroke="#bfbfbf" points="547,-62 547,-81 605,-81 605,-62 547,-62"/>
<text text-anchor="middle" x="576" y="-69" font-family="Helvetica,sans-Serif" font-size="10.00">memory</text>
</a>
</g>
</g>
<!-- Node4&#45;&gt;Node6 -->
<g id="edge5" class="edge">
<title>Node4&#45;&gt;Node6</title>
<path fill="none" stroke="midnightblue" d="M503.17,-257.45C523.38,-249.92 543.79,-238.44 557,-221 586.09,-182.61 583.02,-121.98 579.11,-91.43"/>
<polygon fill="midnightblue" stroke="midnightblue" points="582.54,-90.69 577.63,-81.3 575.61,-91.7 582.54,-90.69"/>
</g>
<!-- Node7 -->
<g id="node7" class="node">
<title>Node7</title>
<g id="a_node7"><a xlink:href="IParametersHandler_8h.html" target="_top" xlink:title=" ">
<polygon fill="none" stroke="black" points="283.5,-190.5 283.5,-220.5 452.5,-220.5 452.5,-190.5 283.5,-190.5"/>
<text text-anchor="start" x="291.5" y="-208.5" font-family="Helvetica,sans-Serif" font-size="10.00">BipedalLocomotion/Parameters</text>
<text text-anchor="middle" x="368" y="-197.5" font-family="Helvetica,sans-Serif" font-size="10.00">Handler/IParametersHandler.h</text>
</a>
</g>
</g>
<!-- Node4&#45;&gt;Node7 -->
<g id="edge6" class="edge">
<title>Node4&#45;&gt;Node7</title>
<path fill="none" stroke="midnightblue" d="M422.81,-257.4C413.45,-248.71 401.28,-237.4 390.79,-227.66"/>
<polygon fill="midnightblue" stroke="midnightblue" points="392.87,-224.82 383.16,-220.58 388.11,-229.95 392.87,-224.82"/>
</g>
<!-- Node7&#45;&gt;Node6 -->
<g id="edge7" class="edge">
<title>Node7&#45;&gt;Node6</title>
<path fill="none" stroke="midnightblue" d="M391.73,-190.33C408.4,-180.31 431.16,-166.5 451,-154 487.54,-130.98 529.5,-103.38 554.32,-86.93"/>
<polygon fill="midnightblue" stroke="midnightblue" points="556.55,-89.65 562.95,-81.2 552.68,-83.82 556.55,-89.65"/>
</g>
<!-- Node8 -->
<g id="node8" class="node">
<title>Node8</title>
<g id="a_node8"><a xlink:title=" ">
<polygon fill="none" stroke="#bfbfbf" points="312,-129 312,-148 356,-148 356,-129 312,-129"/>
<text text-anchor="middle" x="334" y="-136" font-family="Helvetica,sans-Serif" font-size="10.00">string</text>
</a>
</g>
</g>
<!-- Node7&#45;&gt;Node8 -->
<g id="edge8" class="edge">
<title>Node7&#45;&gt;Node8</title>
<path fill="none" stroke="midnightblue" d="M360.62,-190.4C355.53,-180.66 348.72,-167.65 343.27,-157.21"/>
<polygon fill="midnightblue" stroke="midnightblue" points="346.28,-155.43 338.55,-148.19 340.08,-158.68 346.28,-155.43"/>
</g>
<!-- Node9 -->
<g id="node9" class="node">
<title>Node9</title>
<g id="a_node9"><a xlink:title=" ">
<polygon fill="none" stroke="#bfbfbf" points="374.5,-129 374.5,-148 421.5,-148 421.5,-129 374.5,-129"/>
<text text-anchor="middle" x="398" y="-136" font-family="Helvetica,sans-Serif" font-size="10.00">vector</text>
</a>
</g>
</g>
<!-- Node7&#45;&gt;Node9 -->
<g id="edge9" class="edge">
<title>Node7&#45;&gt;Node9</title>
<path fill="none" stroke="midnightblue" d="M374.51,-190.4C378.96,-180.76 384.89,-167.91 389.68,-157.54"/>
<polygon fill="midnightblue" stroke="midnightblue" points="392.97,-158.74 393.99,-148.19 386.62,-155.81 392.97,-158.74"/>
</g>
<!-- Node10 -->
<g id="node10" class="node">
<title>Node10</title>
<g id="a_node10"><a xlink:href="TemplateHelpers_8h_source.html" target="_top" xlink:title=" ">
<polygon fill="none" stroke="black" points="371,-56.5 371,-86.5 529,-86.5 529,-56.5 371,-56.5"/>
<text text-anchor="start" x="379" y="-74.5" font-family="Helvetica,sans-Serif" font-size="10.00">BipedalLocomotion/Generic</text>
<text text-anchor="middle" x="450" y="-63.5" font-family="Helvetica,sans-Serif" font-size="10.00">Container/TemplateHelpers.h</text>
</a>
</g>
</g>
<!-- Node7&#45;&gt;Node10 -->
<g id="edge10" class="edge">
<title>Node7&#45;&gt;Node10</title>
<path fill="none" stroke="midnightblue" d="M392.64,-190.43C405.93,-181.61 421.51,-169.06 431,-154 441.86,-136.76 446.52,-113.94 448.52,-96.83"/>
<polygon fill="midnightblue" stroke="midnightblue" points="452.04,-96.82 449.49,-86.54 445.07,-96.17 452.04,-96.82"/>
</g>
<!-- Node14 -->
<g id="node14" class="node">
<title>Node14</title>
<g id="a_node14"><a xlink:href="Vector_8h_source.html" target="_top" xlink:title=" ">
<polygon fill="none" stroke="black" points="142.5,-123.5 142.5,-153.5 293.5,-153.5 293.5,-123.5 142.5,-123.5"/>
<text text-anchor="start" x="150.5" y="-141.5" font-family="Helvetica,sans-Serif" font-size="10.00">BipedalLocomotion/Generic</text>
<text text-anchor="middle" x="218" y="-130.5" font-family="Helvetica,sans-Serif" font-size="10.00">Container/Vector.h</text>
</a>
</g>
</g>
<!-- Node7&#45;&gt;Node14 -->
<g id="edge14" class="edge">
<title>Node7&#45;&gt;Node14</title>
<path fill="none" stroke="midnightblue" d="M335.45,-190.4C313.24,-180.77 283.62,-167.94 259.69,-157.56"/>
<polygon fill="midnightblue" stroke="midnightblue" points="261.05,-154.34 250.48,-153.58 258.27,-160.76 261.05,-154.34"/>
</g>
<!-- Node11 -->
<g id="node11" class="node">
<title>Node11</title>
<g id="a_node11"><a xlink:title=" ">
<polygon fill="none" stroke="#bfbfbf" points="326.5,-0.5 326.5,-19.5 395.5,-19.5 395.5,-0.5 326.5,-0.5"/>
<text text-anchor="middle" x="361" y="-7.5" font-family="Helvetica,sans-Serif" font-size="10.00">type_traits</text>
</a>
</g>
</g>
<!-- Node10&#45;&gt;Node11 -->
<g id="edge11" class="edge">
<title>Node10&#45;&gt;Node11</title>
<path fill="none" stroke="midnightblue" d="M428.91,-56.4C414.91,-47.04 396.59,-34.79 382.51,-25.38"/>
<polygon fill="midnightblue" stroke="midnightblue" points="384.21,-22.31 373.95,-19.66 380.32,-28.13 384.21,-22.31"/>
</g>
<!-- Node12 -->
<g id="node12" class="node">
<title>Node12</title>
<g id="a_node12"><a xlink:title=" ">
<polygon fill="none" stroke="#bfbfbf" points="413.5,-0.5 413.5,-19.5 486.5,-19.5 486.5,-0.5 413.5,-0.5"/>
<text text-anchor="middle" x="450" y="-7.5" font-family="Helvetica,sans-Serif" font-size="10.00">string_view</text>
</a>
</g>
</g>
<!-- Node10&#45;&gt;Node12 -->
<g id="edge12" class="edge">
<title>Node10&#45;&gt;Node12</title>
<path fill="none" stroke="midnightblue" d="M450,-56.4C450,-48.47 450,-38.46 450,-29.86"/>
<polygon fill="midnightblue" stroke="midnightblue" points="453.5,-29.66 450,-19.66 446.5,-29.66 453.5,-29.66"/>
</g>
<!-- Node13 -->
<g id="node13" class="node">
<title>Node13</title>
<g id="a_node13"><a xlink:title=" ">
<polygon fill="none" stroke="#bfbfbf" points="504.5,-0.5 504.5,-19.5 573.5,-19.5 573.5,-0.5 504.5,-0.5"/>
<text text-anchor="middle" x="539" y="-7.5" font-family="Helvetica,sans-Serif" font-size="10.00">Eigen/Core</text>
</a>
</g>
</g>
<!-- Node10&#45;&gt;Node13 -->
<g id="edge13" class="edge">
<title>Node10&#45;&gt;Node13</title>
<path fill="none" stroke="midnightblue" d="M471.09,-56.4C485.09,-47.04 503.41,-34.79 517.49,-25.38"/>
<polygon fill="midnightblue" stroke="midnightblue" points="519.68,-28.13 526.05,-19.66 515.79,-22.31 519.68,-28.13"/>
</g>
<!-- Node14&#45;&gt;Node2 -->
<g id="edge19" class="edge">
<title>Node14&#45;&gt;Node2</title>
<path fill="none" stroke="midnightblue" d="M175.5,-123.46C145.63,-113.51 104.77,-99.71 69,-87 66.76,-86.2 64.45,-85.37 62.13,-84.53"/>
<polygon fill="midnightblue" stroke="midnightblue" points="63.24,-81.21 52.64,-81.05 60.82,-87.78 63.24,-81.21"/>
</g>
<!-- Node14&#45;&gt;Node6 -->
<g id="edge20" class="edge">
<title>Node14&#45;&gt;Node6</title>
<path fill="none" stroke="midnightblue" d="M293.53,-124.55C296.73,-124.02 299.9,-123.5 303,-123 407.31,-106.12 435.84,-113.99 538,-87 540.66,-86.3 543.39,-85.47 546.11,-84.58"/>
<polygon fill="midnightblue" stroke="midnightblue" points="547.51,-87.8 555.75,-81.14 545.16,-81.2 547.51,-87.8"/>
</g>
<!-- Node14&#45;&gt;Node10 -->
<g id="edge16" class="edge">
<title>Node14&#45;&gt;Node10</title>
<path fill="none" stroke="midnightblue" d="M268.05,-123.48C303.76,-113.47 351.95,-99.97 389.76,-89.38"/>
<polygon fill="midnightblue" stroke="midnightblue" points="390.95,-92.68 399.63,-86.61 389.06,-85.94 390.95,-92.68"/>
</g>
<!-- Node15 -->
<g id="node15" class="node">
<title>Node15</title>
<g id="a_node15"><a xlink:title=" ">
<polygon fill="none" stroke="#bfbfbf" points="148.5,-62 148.5,-81 269.5,-81 269.5,-62 148.5,-62"/>
<text text-anchor="middle" x="209" y="-69" font-family="Helvetica,sans-Serif" font-size="10.00">iDynTree/Core/Span.h</text>
</a>
</g>
</g>
<!-- Node14&#45;&gt;Node15 -->
<g id="edge15" class="edge">
<title>Node14&#45;&gt;Node15</title>
<path fill="none" stroke="midnightblue" d="M216.05,-123.4C214.74,-113.96 213.01,-101.45 211.59,-91.19"/>
<polygon fill="midnightblue" stroke="midnightblue" points="215.04,-90.62 210.2,-81.19 208.11,-91.58 215.04,-90.62"/>
</g>
<!-- Node16 -->
<g id="node16" class="node">
<title>Node16</title>
<g id="a_node16"><a xlink:title=" ">
<polygon fill="none" stroke="#bfbfbf" points="287.5,-62 287.5,-81 352.5,-81 352.5,-62 287.5,-62"/>
<text text-anchor="middle" x="320" y="-69" font-family="Helvetica,sans-Serif" font-size="10.00">functional</text>
</a>
</g>
</g>
<!-- Node14&#45;&gt;Node16 -->
<g id="edge17" class="edge">
<title>Node14&#45;&gt;Node16</title>
<path fill="none" stroke="midnightblue" d="M240.13,-123.4C257.24,-112.5 280.8,-97.48 297.9,-86.58"/>
<polygon fill="midnightblue" stroke="midnightblue" points="300.1,-89.33 306.65,-81.01 296.34,-83.43 300.1,-89.33"/>
</g>
<!-- Node17 -->
<g id="node17" class="node">
<title>Node17</title>
<g id="a_node17"><a xlink:title=" ">
<polygon fill="none" stroke="#bfbfbf" points="78,-62 78,-81 130,-81 130,-62 78,-62"/>
<text text-anchor="middle" x="104" y="-69" font-family="Helvetica,sans-Serif" font-size="10.00">cassert</text>
</a>
</g>
</g>
<!-- Node14&#45;&gt;Node17 -->
<g id="edge18" class="edge">
<title>Node14&#45;&gt;Node17</title>
<path fill="none" stroke="midnightblue" d="M193.26,-123.4C173.79,-112.29 146.83,-96.92 127.65,-85.98"/>
<polygon fill="midnightblue" stroke="midnightblue" points="129.34,-82.92 118.92,-81.01 125.87,-89 129.34,-82.92"/>
</g>
</g>
</svg>
