<?xml version="1.0" encoding="UTF-8" standalone="no"?>
<!DOCTYPE svg PUBLIC "-//W3C//DTD SVG 1.1//EN"
 "http://www.w3.org/Graphics/SVG/1.1/DTD/svg11.dtd">
<!-- Generated by graphviz version 2.43.0 (0)
 -->
<!-- Title: BipedalLocomotion::Planners::SwingFootPlanner Pages: 1 -->
<svg width="1360pt" height="104pt"
 viewBox="0.00 0.00 1360.00 103.50" xmlns="http://www.w3.org/2000/svg" xmlns:xlink="http://www.w3.org/1999/xlink">
<g id="graph0" class="graph" transform="scale(1 1) rotate(0) translate(4 99.5)">
<title>BipedalLocomotion::Planners::SwingFootPlanner</title>
<!-- Node1 -->
<g id="node1" class="node">
<title>Node1</title>
<g id="a_node1"><a xlink:title="SwingFootPlanner implement a minimum jerk trajectory planner for the swing foot.">
<polygon fill="#bfbfbf" stroke="black" points="1200,-36 1200,-66 1352,-66 1352,-36 1200,-36"/>
<text text-anchor="start" x="1208" y="-54" font-family="Helvetica,sans-Serif" font-size="10.00">BipedalLocomotion::</text>
<text text-anchor="middle" x="1276" y="-43" font-family="Helvetica,sans-Serif" font-size="10.00">Planners::SwingFootPlanner</text>
</a>
</g>
</g>
<!-- Node2 -->
<g id="node2" class="node">
<title>Node2</title>
<g id="a_node2"><a xlink:href="classBipedalLocomotion_1_1System_1_1Source.html" target="_top" xlink:title=" ">
<polygon fill="none" stroke="black" points="972,-30.5 972,-71.5 1163,-71.5 1163,-30.5 972,-30.5"/>
<text text-anchor="start" x="980" y="-59.5" font-family="Helvetica,sans-Serif" font-size="10.00">BipedalLocomotion::</text>
<text text-anchor="start" x="980" y="-48.5" font-family="Helvetica,sans-Serif" font-size="10.00">System::Source&lt; SwingFootPlanner</text>
<text text-anchor="middle" x="1067.5" y="-37.5" font-family="Helvetica,sans-Serif" font-size="10.00">State &gt;</text>
</a>
</g>
</g>
<!-- Node2&#45;&gt;Node1 -->
<g id="edge1" class="edge">
<title>Node2&#45;&gt;Node1</title>
<path fill="none" stroke="midnightblue" d="M1173.4,-51C1182.36,-51 1191.31,-51 1199.97,-51"/>
<polygon fill="midnightblue" stroke="midnightblue" points="1173.29,-47.5 1163.29,-51 1173.29,-54.5 1173.29,-47.5"/>
</g>
<!-- Node3 -->
<g id="node3" class="node">
<title>Node3</title>
<g id="a_node3"><a xlink:href="classBipedalLocomotion_1_1System_1_1Advanceable.html" target="_top" xlink:title=" ">
<polygon fill="none" stroke="black" points="449,-43 449,-95 631,-95 631,-43 449,-43"/>
<text text-anchor="start" x="457" y="-83" font-family="Helvetica,sans-Serif" font-size="10.00">BipedalLocomotion::</text>
<text text-anchor="start" x="457" y="-72" font-family="Helvetica,sans-Serif" font-size="10.00">System::Advanceable</text>
<text text-anchor="start" x="457" y="-61" font-family="Helvetica,sans-Serif" font-size="10.00">&lt; EmptySignal, SwingFootPlanner</text>
<text text-anchor="middle" x="540" y="-50" font-family="Helvetica,sans-Serif" font-size="10.00">State &gt;</text>
</a>
</g>
</g>
<!-- Node3&#45;&gt;Node2 -->
<g id="edge2" class="edge">
<title>Node3&#45;&gt;Node2</title>
<path fill="none" stroke="midnightblue" d="M641.24,-65.65C724.88,-62.84 847.21,-58.71 954,-55 959.86,-54.8 965.89,-54.59 971.97,-54.37"/>
<polygon fill="midnightblue" stroke="midnightblue" points="641.11,-62.15 631.24,-65.98 641.35,-69.15 641.11,-62.15"/>
</g>
<!-- Node4 -->
<g id="node4" class="node">
<title>Node4</title>
<g id="a_node4"><a xlink:href="classBipedalLocomotion_1_1System_1_1Advanceable.html" target="_top" xlink:title="Basic class that represents a discrete system.">
<polygon fill="none" stroke="black" points="0,-25.5 0,-66.5 122,-66.5 122,-25.5 0,-25.5"/>
<text text-anchor="start" x="8" y="-54.5" font-family="Helvetica,sans-Serif" font-size="10.00">BipedalLocomotion::</text>
<text text-anchor="start" x="8" y="-43.5" font-family="Helvetica,sans-Serif" font-size="10.00">System::Advanceable</text>
<text text-anchor="middle" x="61" y="-32.5" font-family="Helvetica,sans-Serif" font-size="10.00">&lt; _Input, _Output &gt;</text>
</a>
</g>
</g>
<!-- Node4&#45;&gt;Node3 -->
<g id="edge3" class="edge">
<title>Node4&#45;&gt;Node3</title>
<path fill="none" stroke="orange" stroke-dasharray="5,2" d="M132.63,-49.41C216.7,-53.46 357.21,-60.23 449,-64.66"/>
<polygon fill="orange" stroke="orange" points="132.57,-45.9 122.41,-48.91 132.23,-52.89 132.57,-45.9"/>
<text text-anchor="start" x="140" y="-71" font-family="Helvetica,sans-Serif" font-size="10.00"> &lt; EmptySignal, SwingFoot</text>
<text text-anchor="middle" x="206.5" y="-60" font-family="Helvetica,sans-Serif" font-size="10.00">PlannerState &gt;</text>
</g>
<!-- Node6 -->
<g id="node6" class="node">
<title>Node6</title>
<g id="a_node6"><a xlink:href="classBipedalLocomotion_1_1System_1_1Advanceable.html" target="_top" xlink:title=" ">
<polygon fill="none" stroke="black" points="291,-0.5 291,-41.5 431,-41.5 431,-0.5 291,-0.5"/>
<text text-anchor="start" x="299" y="-29.5" font-family="Helvetica,sans-Serif" font-size="10.00">BipedalLocomotion::</text>
<text text-anchor="start" x="299" y="-18.5" font-family="Helvetica,sans-Serif" font-size="10.00">System::Advanceable</text>
<text text-anchor="middle" x="361" y="-7.5" font-family="Helvetica,sans-Serif" font-size="10.00">&lt; EmptySignal, Output &gt;</text>
</a>
</g>
</g>
<!-- Node4&#45;&gt;Node6 -->
<g id="edge6" class="edge">
<title>Node4&#45;&gt;Node6</title>
<path fill="none" stroke="orange" stroke-dasharray="5,2" d="M132.22,-37.76C134.85,-37.49 137.45,-37.24 140,-37 190.33,-32.27 247.25,-28.16 290.58,-25.29"/>
<polygon fill="orange" stroke="orange" points="131.6,-34.3 122.02,-38.82 132.33,-41.26 131.6,-34.3"/>
<text text-anchor="middle" x="206.5" y="-40" font-family="Helvetica,sans-Serif" font-size="10.00"> &lt; EmptySignal, Output &gt;</text>
</g>
<!-- Node5 -->
<g id="node5" class="node">
<title>Node5</title>
<g id="a_node5"><a xlink:href="classBipedalLocomotion_1_1System_1_1Source.html" target="_top" xlink:title="Source is a template specialization of Advanceable and represents a block that does not contains inpu...">
<polygon fill="none" stroke="black" points="649,-9 649,-39 797,-39 797,-9 649,-9"/>
<text text-anchor="start" x="657" y="-27" font-family="Helvetica,sans-Serif" font-size="10.00">BipedalLocomotion::</text>
<text text-anchor="middle" x="723" y="-16" font-family="Helvetica,sans-Serif" font-size="10.00">System::Source&lt; Output &gt;</text>
</a>
</g>
</g>
<!-- Node5&#45;&gt;Node2 -->
<g id="edge4" class="edge">
<title>Node5&#45;&gt;Node2</title>
<path fill="none" stroke="orange" stroke-dasharray="5,2" d="M807.12,-30.55C856.81,-34.47 920.11,-39.46 971.74,-43.53"/>
<polygon fill="orange" stroke="orange" points="807.3,-27.06 797.05,-29.76 806.75,-34.03 807.3,-27.06"/>
<text text-anchor="middle" x="884.5" y="-45" font-family="Helvetica,sans-Serif" font-size="10.00"> &lt; SwingFootPlannerState &gt;</text>
</g>
<!-- Node6&#45;&gt;Node5 -->
<g id="edge5" class="edge">
<title>Node6&#45;&gt;Node5</title>
<path fill="none" stroke="midnightblue" d="M441.52,-21.66C503.39,-22.18 588.57,-22.89 648.78,-23.39"/>
<polygon fill="midnightblue" stroke="midnightblue" points="441.44,-18.16 431.41,-21.58 441.38,-25.16 441.44,-18.16"/>
</g>
</g>
</svg>
