<?xml version="1.0" encoding="UTF-8" standalone="no"?>
<!DOCTYPE svg PUBLIC "-//W3C//DTD SVG 1.1//EN"
 "http://www.w3.org/Graphics/SVG/1.1/DTD/svg11.dtd">
<!-- Generated by graphviz version 2.43.0 (0)
 -->
<!-- Title: BipedalLocomotion::Planners::QuinticSpline Pages: 1 -->
<!--zoomable 104 -->
<svg id="main" version="1.1" xmlns="http://www.w3.org/2000/svg" xmlns:xlink="http://www.w3.org/1999/xlink" xml:space="preserve" onload="init(evt)">
<style type="text/css"><![CDATA[
.edge:hover path { stroke: red; }
.edge:hover polygon { stroke: red; fill: red; }
]]></style>
<script type="text/javascript"><![CDATA[
var edges = document.getElementsByTagName('g');
if (edges && edges.length) {
  for (var i=0;i<edges.length;i++) {
    if (edges[i].id.substr(0,4)=='edge') {
      edges[i].setAttribute('class','edge');
    }
  }
}
]]></script>
        <defs>
                <circle id="rim" cx="0" cy="0" r="7"/>
                <circle id="rim2" cx="0" cy="0" r="3.5"/>
                <g id="zoomPlus">
                        <use xlink:href="#rim" fill="#404040">
                                <set attributeName="fill" to="#808080" begin="zoomplus.mouseover" end="zoomplus.mouseout"/>
                        </use>
                        <path d="M-4,0h8M0,-4v8" fill="none" stroke="white" stroke-width="1.5" pointer-events="none"/>
                </g>
                <g id="zoomMin">
                        <use xlink:href="#rim" fill="#404040">
                                <set attributeName="fill" to="#808080" begin="zoomminus.mouseover" end="zoomminus.mouseout"/>
                        </use>
                        <path d="M-4,0h8" fill="none" stroke="white" stroke-width="1.5" pointer-events="none"/>
                </g>
                <g id="dirArrow">
                        <path fill="none" stroke="white" stroke-width="1.5" d="M0,-3.0v7 M-2.5,-0.5L0,-3.0L2.5,-0.5"/>
                </g>
               <g id="resetDef">
                       <use xlink:href="#rim2" fill="#404040">
                               <set attributeName="fill" to="#808080" begin="reset.mouseover" end="reset.mouseout"/>
                       </use>
               </g>
        </defs>

<script type="text/javascript">
var viewWidth = 1283;
var viewHeight = 104;
var sectionId = 'dynsection-0';
</script>
<script xlink:href="svgpan.js"/>
<svg id="graph" class="graph">
<g id="viewport">
<title>BipedalLocomotion::Planners::QuinticSpline</title>
<!-- Node1 -->
<g id="node1" class="node">
<title>Node1</title>
<g id="a_node1"><a xlink:title="Quintic spline implement a 5&#45;th order polynomial spline in $f\mathbb{R}^n$f.">
<polygon fill="#bfbfbf" stroke="black" points="1146,-36 1146,-66 1275,-66 1275,-36 1146,-36"/>
<text text-anchor="start" x="1154" y="-54" font-family="Helvetica,sans-Serif" font-size="10.00">BipedalLocomotion::</text>
<text text-anchor="middle" x="1210.5" y="-43" font-family="Helvetica,sans-Serif" font-size="10.00">Planners::QuinticSpline</text>
</a>
</g>
</g>
<!-- Node2 -->
<g id="node2" class="node">
<title>Node2</title>
<g id="a_node2"><a xlink:href="classBipedalLocomotion_1_1System_1_1Source.html" target="_top" xlink:title=" ">
<polygon fill="none" stroke="black" points="941,-30.5 941,-71.5 1109,-71.5 1109,-30.5 941,-30.5"/>
<text text-anchor="start" x="949" y="-59.5" font-family="Helvetica,sans-Serif" font-size="10.00">BipedalLocomotion::</text>
<text text-anchor="start" x="949" y="-48.5" font-family="Helvetica,sans-Serif" font-size="10.00">System::Source&lt; QuinticSpline</text>
<text text-anchor="middle" x="1025" y="-37.5" font-family="Helvetica,sans-Serif" font-size="10.00">State &gt;</text>
</a>
</g>
</g>
<!-- Node2&#45;&gt;Node1 -->
<g id="edge1" class="edge">
<title>Node2&#45;&gt;Node1</title>
<path fill="none" stroke="midnightblue" d="M1119.3,-51C1128.29,-51 1137.26,-51 1145.87,-51"/>
<polygon fill="midnightblue" stroke="midnightblue" points="1119.16,-47.5 1109.16,-51 1119.16,-54.5 1119.16,-47.5"/>
</g>
<!-- Node3 -->
<g id="node3" class="node">
<title>Node3</title>
<g id="a_node3"><a xlink:href="classBipedalLocomotion_1_1System_1_1Advanceable.html" target="_top" xlink:title=" ">
<polygon fill="none" stroke="black" points="463,-43 463,-95 623,-95 623,-43 463,-43"/>
<text text-anchor="start" x="471" y="-83" font-family="Helvetica,sans-Serif" font-size="10.00">BipedalLocomotion::</text>
<text text-anchor="start" x="471" y="-72" font-family="Helvetica,sans-Serif" font-size="10.00">System::Advanceable</text>
<text text-anchor="start" x="471" y="-61" font-family="Helvetica,sans-Serif" font-size="10.00">&lt; EmptySignal, QuinticSpline</text>
<text text-anchor="middle" x="543" y="-50" font-family="Helvetica,sans-Serif" font-size="10.00">State &gt;</text>
</a>
</g>
</g>
<!-- Node3&#45;&gt;Node2 -->
<g id="edge2" class="edge">
<title>Node3&#45;&gt;Node2</title>
<path fill="none" stroke="midnightblue" d="M633.24,-65.77C710.05,-62.98 823.83,-58.8 923,-55 928.79,-54.78 934.76,-54.55 940.78,-54.31"/>
<polygon fill="midnightblue" stroke="midnightblue" points="632.99,-62.28 623.12,-66.14 633.25,-69.27 632.99,-62.28"/>
</g>
<!-- Node4 -->
<g id="node4" class="node">
<title>Node4</title>
<g id="a_node4"><a xlink:href="classBipedalLocomotion_1_1System_1_1Advanceable.html" target="_top" xlink:title="Basic class that represents a discrete system.">
<polygon fill="none" stroke="black" points="0,-25.5 0,-66.5 122,-66.5 122,-25.5 0,-25.5"/>
<text text-anchor="start" x="8" y="-54.5" font-family="Helvetica,sans-Serif" font-size="10.00">BipedalLocomotion::</text>
<text text-anchor="start" x="8" y="-43.5" font-family="Helvetica,sans-Serif" font-size="10.00">System::Advanceable</text>
<text text-anchor="middle" x="61" y="-32.5" font-family="Helvetica,sans-Serif" font-size="10.00">&lt; _Input, _Output &gt;</text>
</a>
</g>
</g>
<!-- Node4&#45;&gt;Node3 -->
<g id="edge3" class="edge">
<title>Node4&#45;&gt;Node3</title>
<path fill="none" stroke="orange" stroke-dasharray="5,2" d="M132.47,-49.38C220.54,-53.6 370.86,-60.8 462.82,-65.21"/>
<polygon fill="orange" stroke="orange" points="132.46,-45.87 122.31,-48.89 132.13,-52.86 132.46,-45.87"/>
<text text-anchor="start" x="140" y="-71" font-family="Helvetica,sans-Serif" font-size="10.00"> &lt; EmptySignal, QuinticSpline</text>
<text text-anchor="middle" x="213.5" y="-60" font-family="Helvetica,sans-Serif" font-size="10.00">State &gt;</text>
</g>
<!-- Node6 -->
<g id="node6" class="node">
<title>Node6</title>
<g id="a_node6"><a xlink:href="classBipedalLocomotion_1_1System_1_1Advanceable.html" target="_top" xlink:title=" ">
<polygon fill="none" stroke="black" points="305,-0.5 305,-41.5 445,-41.5 445,-0.5 305,-0.5"/>
<text text-anchor="start" x="313" y="-29.5" font-family="Helvetica,sans-Serif" font-size="10.00">BipedalLocomotion::</text>
<text text-anchor="start" x="313" y="-18.5" font-family="Helvetica,sans-Serif" font-size="10.00">System::Advanceable</text>
<text text-anchor="middle" x="375" y="-7.5" font-family="Helvetica,sans-Serif" font-size="10.00">&lt; EmptySignal, Output &gt;</text>
</a>
</g>
</g>
<!-- Node4&#45;&gt;Node6 -->
<g id="edge6" class="edge">
<title>Node4&#45;&gt;Node6</title>
<path fill="none" stroke="orange" stroke-dasharray="5,2" d="M132.22,-37.74C134.85,-37.48 137.45,-37.23 140,-37 195.35,-31.92 258.2,-27.71 304.82,-24.88"/>
<polygon fill="orange" stroke="orange" points="131.61,-34.29 122.01,-38.79 132.32,-41.25 131.61,-34.29"/>
<text text-anchor="middle" x="213.5" y="-40" font-family="Helvetica,sans-Serif" font-size="10.00"> &lt; EmptySignal, Output &gt;</text>
</g>
<!-- Node5 -->
<g id="node5" class="node">
<title>Node5</title>
<g id="a_node5"><a xlink:href="classBipedalLocomotion_1_1System_1_1Source.html" target="_top" xlink:title="Source is a template specialization of Advanceable and represents a block that does not contains inpu...">
<polygon fill="none" stroke="black" points="641,-9 641,-39 789,-39 789,-9 641,-9"/>
<text text-anchor="start" x="649" y="-27" font-family="Helvetica,sans-Serif" font-size="10.00">BipedalLocomotion::</text>
<text text-anchor="middle" x="715" y="-16" font-family="Helvetica,sans-Serif" font-size="10.00">System::Source&lt; Output &gt;</text>
</a>
</g>
</g>
<!-- Node5&#45;&gt;Node2 -->
<g id="edge4" class="edge">
<title>Node5&#45;&gt;Node2</title>
<path fill="none" stroke="orange" stroke-dasharray="5,2" d="M799.45,-31.32C843.35,-35.16 897,-39.87 940.85,-43.71"/>
<polygon fill="orange" stroke="orange" points="799.65,-27.82 789.38,-30.43 799.04,-34.79 799.65,-27.82"/>
<text text-anchor="middle" x="865" y="-45" font-family="Helvetica,sans-Serif" font-size="10.00"> &lt; QuinticSplineState &gt;</text>
</g>
<!-- Node6&#45;&gt;Node5 -->
<g id="edge5" class="edge">
<title>Node6&#45;&gt;Node5</title>
<path fill="none" stroke="midnightblue" d="M455.46,-21.71C511.55,-22.2 586.14,-22.87 640.78,-23.35"/>
<polygon fill="midnightblue" stroke="midnightblue" points="455.25,-18.2 445.21,-21.61 455.18,-25.2 455.25,-18.2"/>
</g>
</g>
</svg>
        <g id="navigator" transform="translate(0 0)" fill="#404254">
                <rect fill="#f2f5e9" fill-opacity="0.5" stroke="#606060" stroke-width=".5" x="0" y="0" width="60" height="60"/>
                <use id="zoomplus" xlink:href="#zoomPlus" x="17" y="9" onmousedown="handleZoom(evt,'in')"/>
                <use id="zoomminus" xlink:href="#zoomMin" x="42" y="9" onmousedown="handleZoom(evt,'out')"/>
                <use id="reset" xlink:href="#resetDef" x="30" y="36" onmousedown="handleReset()"/>
                <g id="arrowUp" xlink:href="#dirArrow" transform="translate(30 24)" onmousedown="handlePan(0,-1)">
                  <use xlink:href="#rim" fill="#404040">
                        <set attributeName="fill" to="#808080" begin="arrowUp.mouseover" end="arrowUp.mouseout"/>
                  </use>
                  <path fill="none" stroke="white" stroke-width="1.5" d="M0,-3.0v7 M-2.5,-0.5L0,-3.0L2.5,-0.5"/>
                </g>
                <g id="arrowRight" xlink:href="#dirArrow" transform="rotate(90) translate(36 -43)" onmousedown="handlePan(1,0)">
                  <use xlink:href="#rim" fill="#404040">
                        <set attributeName="fill" to="#808080" begin="arrowRight.mouseover" end="arrowRight.mouseout"/>
                  </use>
                  <path fill="none" stroke="white" stroke-width="1.5" d="M0,-3.0v7 M-2.5,-0.5L0,-3.0L2.5,-0.5"/>
                </g>
                <g id="arrowDown" xlink:href="#dirArrow" transform="rotate(180) translate(-30 -48)" onmousedown="handlePan(0,1)">
                  <use xlink:href="#rim" fill="#404040">
                        <set attributeName="fill" to="#808080" begin="arrowDown.mouseover" end="arrowDown.mouseout"/>
                  </use>
                  <path fill="none" stroke="white" stroke-width="1.5" d="M0,-3.0v7 M-2.5,-0.5L0,-3.0L2.5,-0.5"/>
                </g>
                <g id="arrowLeft" xlink:href="#dirArrow" transform="rotate(270) translate(-36 17)" onmousedown="handlePan(-1,0)">
                  <use xlink:href="#rim" fill="#404040">
                        <set attributeName="fill" to="#808080" begin="arrowLeft.mouseover" end="arrowLeft.mouseout"/>
                  </use>
                  <path fill="none" stroke="white" stroke-width="1.5" d="M0,-3.0v7 M-2.5,-0.5L0,-3.0L2.5,-0.5"/>
                </g>
        </g>
        <svg viewBox="0 0 15 15" width="100%" height="30px" preserveAspectRatio="xMaxYMin meet">
         <g id="arrow_out" transform="scale(0.3 0.3)">
          <a xlink:href="classBipedalLocomotion_1_1Planners_1_1QuinticSpline__inherit__graph_org.svg" target="_base">
           <rect id="button" ry="5" rx="5" y="6" x="6" height="38" width="38"
                fill="#f2f5e9" fill-opacity="0.5" stroke="#606060" stroke-width="1.0"/>
           <path id="arrow"
             d="M 11.500037,31.436501 C 11.940474,20.09759 22.043105,11.32322 32.158766,21.979434 L 37.068811,17.246167 C 37.068811,17.246167 37.088388,32 37.088388,32 L 22.160133,31.978069 C 22.160133,31.978069 26.997745,27.140456 26.997745,27.140456 C 18.528582,18.264221 13.291696,25.230495 11.500037,31.436501 z"
             style="fill:#404040;"/>
          </a>
         </g>
        </svg>
</svg>
