<?xml version="1.0" encoding="UTF-8" standalone="no"?>
<!DOCTYPE svg PUBLIC "-//W3C//DTD SVG 1.1//EN"
 "http://www.w3.org/Graphics/SVG/1.1/DTD/svg11.dtd">
<!-- Generated by graphviz version 2.43.0 (0)
 -->
<!-- Title: BipedalLocomotion::Planners::SO3Planner&lt; trivialization &gt; Pages: 1 -->
<svg width="1570pt" height="98pt"
 viewBox="0.00 0.00 1570.00 98.00" xmlns="http://www.w3.org/2000/svg" xmlns:xlink="http://www.w3.org/1999/xlink">
<g id="graph0" class="graph" transform="scale(1 1) rotate(0) translate(4 94)">
<title>BipedalLocomotion::Planners::SO3Planner&lt; trivialization &gt;</title>
<!-- Node1 -->
<g id="node1" class="node">
<title>Node1</title>
<g id="a_node1"><a xlink:title="SO3Planner implements a minimum jerk trajectory planner for object belonging to SO(3).">
<polygon fill="#bfbfbf" stroke="black" points="1150,-30.5 1150,-71.5 1271,-71.5 1271,-30.5 1150,-30.5"/>
<text text-anchor="start" x="1158" y="-59.5" font-family="Helvetica,sans-Serif" font-size="10.00">BipedalLocomotion::</text>
<text text-anchor="start" x="1158" y="-48.5" font-family="Helvetica,sans-Serif" font-size="10.00">Planners::SO3Planner</text>
<text text-anchor="middle" x="1210.5" y="-37.5" font-family="Helvetica,sans-Serif" font-size="10.00">&lt; trivialization &gt;</text>
</a>
</g>
</g>
<!-- Node7 -->
<g id="node7" class="node">
<title>Node7</title>
<g id="a_node7"><a xlink:href="classBipedalLocomotion_1_1Planners_1_1SO3Planner.html" target="_top" xlink:title=" ">
<polygon fill="none" stroke="black" points="1428,-25 1428,-77 1562,-77 1562,-25 1428,-25"/>
<text text-anchor="start" x="1436" y="-65" font-family="Helvetica,sans-Serif" font-size="10.00">BipedalLocomotion::</text>
<text text-anchor="start" x="1436" y="-54" font-family="Helvetica,sans-Serif" font-size="10.00">Planners::SO3Planner</text>
<text text-anchor="start" x="1436" y="-43" font-family="Helvetica,sans-Serif" font-size="10.00">&lt; LieGroupTrivialization</text>
<text text-anchor="middle" x="1495" y="-32" font-family="Helvetica,sans-Serif" font-size="10.00">::Right &gt;</text>
</a>
</g>
</g>
<!-- Node1&#45;&gt;Node7 -->
<g id="edge7" class="edge">
<title>Node1&#45;&gt;Node7</title>
<path fill="none" stroke="orange" stroke-dasharray="5,2" d="M1281.28,-51C1326.04,-51 1383.81,-51 1427.85,-51"/>
<polygon fill="orange" stroke="orange" points="1281.07,-47.5 1271.07,-51 1281.07,-54.5 1281.07,-47.5"/>
<text text-anchor="start" x="1289" y="-65" font-family="Helvetica,sans-Serif" font-size="10.00"> &lt; LieGroupTrivialization</text>
<text text-anchor="middle" x="1349.5" y="-54" font-family="Helvetica,sans-Serif" font-size="10.00">::Right &gt;</text>
</g>
<!-- Node2 -->
<g id="node2" class="node">
<title>Node2</title>
<g id="a_node2"><a xlink:href="classBipedalLocomotion_1_1System_1_1Source.html" target="_top" xlink:title=" ">
<polygon fill="none" stroke="black" points="953,-30.5 953,-71.5 1113,-71.5 1113,-30.5 953,-30.5"/>
<text text-anchor="start" x="961" y="-59.5" font-family="Helvetica,sans-Serif" font-size="10.00">BipedalLocomotion::</text>
<text text-anchor="start" x="961" y="-48.5" font-family="Helvetica,sans-Serif" font-size="10.00">System::Source&lt; SO3Planner</text>
<text text-anchor="middle" x="1033" y="-37.5" font-family="Helvetica,sans-Serif" font-size="10.00">State &gt;</text>
</a>
</g>
</g>
<!-- Node2&#45;&gt;Node1 -->
<g id="edge1" class="edge">
<title>Node2&#45;&gt;Node1</title>
<path fill="none" stroke="midnightblue" d="M1123.2,-51C1132.23,-51 1141.24,-51 1149.85,-51"/>
<polygon fill="midnightblue" stroke="midnightblue" points="1123.02,-47.5 1113.02,-51 1123.02,-54.5 1123.02,-47.5"/>
</g>
<!-- Node3 -->
<g id="node3" class="node">
<title>Node3</title>
<g id="a_node3"><a xlink:href="classBipedalLocomotion_1_1System_1_1Advanceable.html" target="_top" xlink:title=" ">
<polygon fill="none" stroke="black" points="455,-48.5 455,-89.5 643,-89.5 643,-48.5 455,-48.5"/>
<text text-anchor="start" x="463" y="-77.5" font-family="Helvetica,sans-Serif" font-size="10.00">BipedalLocomotion::</text>
<text text-anchor="start" x="463" y="-66.5" font-family="Helvetica,sans-Serif" font-size="10.00">System::Advanceable</text>
<text text-anchor="middle" x="549" y="-55.5" font-family="Helvetica,sans-Serif" font-size="10.00">&lt; EmptySignal, SO3PlannerState &gt;</text>
</a>
</g>
</g>
<!-- Node3&#45;&gt;Node2 -->
<g id="edge2" class="edge">
<title>Node3&#45;&gt;Node2</title>
<path fill="none" stroke="midnightblue" d="M653.61,-65.37C731.11,-62.62 839.7,-58.7 935,-55 940.81,-54.77 946.82,-54.54 952.86,-54.3"/>
<polygon fill="midnightblue" stroke="midnightblue" points="653.23,-61.88 643.36,-65.73 653.48,-68.88 653.23,-61.88"/>
</g>
<!-- Node4 -->
<g id="node4" class="node">
<title>Node4</title>
<g id="a_node4"><a xlink:href="classBipedalLocomotion_1_1System_1_1Advanceable.html" target="_top" xlink:title="Basic class that represents a discrete system.">
<polygon fill="none" stroke="black" points="0,-25.5 0,-66.5 122,-66.5 122,-25.5 0,-25.5"/>
<text text-anchor="start" x="8" y="-54.5" font-family="Helvetica,sans-Serif" font-size="10.00">BipedalLocomotion::</text>
<text text-anchor="start" x="8" y="-43.5" font-family="Helvetica,sans-Serif" font-size="10.00">System::Advanceable</text>
<text text-anchor="middle" x="61" y="-32.5" font-family="Helvetica,sans-Serif" font-size="10.00">&lt; _Input, _Output &gt;</text>
</a>
</g>
</g>
<!-- Node4&#45;&gt;Node3 -->
<g id="edge3" class="edge">
<title>Node4&#45;&gt;Node3</title>
<path fill="none" stroke="orange" stroke-dasharray="5,2" d="M132.15,-49.32C217.13,-53.34 360.58,-60.13 454.79,-64.59"/>
<polygon fill="orange" stroke="orange" points="132.23,-45.82 122.08,-48.84 131.9,-52.81 132.23,-45.82"/>
<text text-anchor="start" x="140" y="-71" font-family="Helvetica,sans-Serif" font-size="10.00"> &lt; EmptySignal, SO3Planner</text>
<text text-anchor="middle" x="209.5" y="-60" font-family="Helvetica,sans-Serif" font-size="10.00">State &gt;</text>
</g>
<!-- Node6 -->
<g id="node6" class="node">
<title>Node6</title>
<g id="a_node6"><a xlink:href="classBipedalLocomotion_1_1System_1_1Advanceable.html" target="_top" xlink:title=" ">
<polygon fill="none" stroke="black" points="297,-0.5 297,-41.5 437,-41.5 437,-0.5 297,-0.5"/>
<text text-anchor="start" x="305" y="-29.5" font-family="Helvetica,sans-Serif" font-size="10.00">BipedalLocomotion::</text>
<text text-anchor="start" x="305" y="-18.5" font-family="Helvetica,sans-Serif" font-size="10.00">System::Advanceable</text>
<text text-anchor="middle" x="367" y="-7.5" font-family="Helvetica,sans-Serif" font-size="10.00">&lt; EmptySignal, Output &gt;</text>
</a>
</g>
</g>
<!-- Node4&#45;&gt;Node6 -->
<g id="edge6" class="edge">
<title>Node4&#45;&gt;Node6</title>
<path fill="none" stroke="orange" stroke-dasharray="5,2" d="M132.22,-37.75C134.85,-37.49 137.45,-37.24 140,-37 192.48,-32.12 251.94,-27.96 296.7,-25.11"/>
<polygon fill="orange" stroke="orange" points="131.6,-34.3 122.02,-38.8 132.32,-41.26 131.6,-34.3"/>
<text text-anchor="middle" x="209.5" y="-40" font-family="Helvetica,sans-Serif" font-size="10.00"> &lt; EmptySignal, Output &gt;</text>
</g>
<!-- Node5 -->
<g id="node5" class="node">
<title>Node5</title>
<g id="a_node5"><a xlink:href="classBipedalLocomotion_1_1System_1_1Source.html" target="_top" xlink:title="Source is a template specialization of Advanceable and represents a block that does not contains inpu...">
<polygon fill="none" stroke="black" points="661,-9 661,-39 809,-39 809,-9 661,-9"/>
<text text-anchor="start" x="669" y="-27" font-family="Helvetica,sans-Serif" font-size="10.00">BipedalLocomotion::</text>
<text text-anchor="middle" x="735" y="-16" font-family="Helvetica,sans-Serif" font-size="10.00">System::Source&lt; Output &gt;</text>
</a>
</g>
</g>
<!-- Node5&#45;&gt;Node2 -->
<g id="edge4" class="edge">
<title>Node5&#45;&gt;Node2</title>
<path fill="none" stroke="orange" stroke-dasharray="5,2" d="M819.34,-31.6C861.21,-35.42 911.67,-40.02 952.93,-43.79"/>
<polygon fill="orange" stroke="orange" points="819.45,-28.1 809.17,-30.67 818.81,-35.07 819.45,-28.1"/>
<text text-anchor="middle" x="881" y="-45" font-family="Helvetica,sans-Serif" font-size="10.00"> &lt; SO3PlannerState &gt;</text>
</g>
<!-- Node6&#45;&gt;Node5 -->
<g id="edge5" class="edge">
<title>Node6&#45;&gt;Node5</title>
<path fill="none" stroke="midnightblue" d="M447.63,-21.65C511.1,-22.17 599.26,-22.9 660.94,-23.4"/>
<polygon fill="midnightblue" stroke="midnightblue" points="447.3,-18.15 437.27,-21.57 447.24,-25.15 447.3,-18.15"/>
</g>
</g>
</svg>
