<?xml version="1.0" encoding="UTF-8" standalone="no"?>
<!DOCTYPE svg PUBLIC "-//W3C//DTD SVG 1.1//EN"
 "http://www.w3.org/Graphics/SVG/1.1/DTD/svg11.dtd">
<!-- Generated by graphviz version 2.43.0 (0)
 -->
<!-- Title: BipedalLocomotion::ParametersHandler::IParametersHandler Pages: 1 -->
<svg width="434pt" height="88pt"
 viewBox="0.00 0.00 434.00 88.00" xmlns="http://www.w3.org/2000/svg" xmlns:xlink="http://www.w3.org/1999/xlink">
<g id="graph0" class="graph" transform="scale(1 1) rotate(0) translate(4 84)">
<title>BipedalLocomotion::ParametersHandler::IParametersHandler</title>
<!-- Node1 -->
<g id="node1" class="node">
<title>Node1</title>
<g id="a_node1"><a xlink:title="Parameters handler interface.">
<polygon fill="#bfbfbf" stroke="black" points="0,-19 0,-60 175,-60 175,-19 0,-19"/>
<text text-anchor="start" x="8" y="-48" font-family="Helvetica,sans-Serif" font-size="10.00">BipedalLocomotion::</text>
<text text-anchor="start" x="8" y="-37" font-family="Helvetica,sans-Serif" font-size="10.00">ParametersHandler::IParameters</text>
<text text-anchor="middle" x="87.5" y="-26" font-family="Helvetica,sans-Serif" font-size="10.00">Handler</text>
</a>
</g>
</g>
<!-- Node2 -->
<g id="node2" class="node">
<title>Node2</title>
<g id="a_node2"><a xlink:href="classBipedalLocomotion_1_1ParametersHandler_1_1StdImplementation.html" target="_top" xlink:title="Parameters handler interface.">
<polygon fill="none" stroke="black" points="213.5,-49.5 213.5,-79.5 423.5,-79.5 423.5,-49.5 213.5,-49.5"/>
<text text-anchor="start" x="221.5" y="-67.5" font-family="Helvetica,sans-Serif" font-size="10.00">BipedalLocomotion::</text>
<text text-anchor="middle" x="318.5" y="-56.5" font-family="Helvetica,sans-Serif" font-size="10.00">ParametersHandler::StdImplementation</text>
</a>
</g>
</g>
<!-- Node1&#45;&gt;Node2 -->
<g id="edge1" class="edge">
<title>Node1&#45;&gt;Node2</title>
<path fill="none" stroke="midnightblue" d="M185.16,-50.05C194.52,-51.07 204.04,-52.11 213.47,-53.14"/>
<polygon fill="midnightblue" stroke="midnightblue" points="185.4,-46.56 175.08,-48.95 184.64,-53.52 185.4,-46.56"/>
</g>
<!-- Node3 -->
<g id="node3" class="node">
<title>Node3</title>
<g id="a_node3"><a xlink:href="classBipedalLocomotion_1_1ParametersHandler_1_1YarpImplementation.html" target="_top" xlink:title="YarpImplementation Yarp implementation of the IParametersHandler interface.">
<polygon fill="none" stroke="black" points="211,-0.5 211,-30.5 426,-30.5 426,-0.5 211,-0.5"/>
<text text-anchor="start" x="219" y="-18.5" font-family="Helvetica,sans-Serif" font-size="10.00">BipedalLocomotion::</text>
<text text-anchor="middle" x="318.5" y="-7.5" font-family="Helvetica,sans-Serif" font-size="10.00">ParametersHandler::YarpImplementation</text>
</a>
</g>
</g>
<!-- Node1&#45;&gt;Node3 -->
<g id="edge2" class="edge">
<title>Node1&#45;&gt;Node3</title>
<path fill="none" stroke="midnightblue" d="M185.27,-29.36C193.69,-28.48 202.25,-27.58 210.74,-26.69"/>
<polygon fill="midnightblue" stroke="midnightblue" points="184.66,-25.9 175.08,-30.43 185.39,-32.87 184.66,-25.9"/>
</g>
</g>
</svg>
