<?xml version="1.0" encoding="UTF-8" standalone="no"?>
<!DOCTYPE svg PUBLIC "-//W3C//DTD SVG 1.1//EN"
 "http://www.w3.org/Graphics/SVG/1.1/DTD/svg11.dtd">
<!-- Generated by graphviz version 2.43.0 (0)
 -->
<!-- Title: BipedalLocomotion::Estimators::RecursiveLeastSquare Pages: 1 -->
<svg width="1350pt" height="104pt"
 viewBox="0.00 0.00 1350.00 103.50" xmlns="http://www.w3.org/2000/svg" xmlns:xlink="http://www.w3.org/1999/xlink">
<g id="graph0" class="graph" transform="scale(1 1) rotate(0) translate(4 99.5)">
<title>BipedalLocomotion::Estimators::RecursiveLeastSquare</title>
<!-- Node1 -->
<g id="node1" class="node">
<title>Node1</title>
<g id="a_node1"><a xlink:title=" ">
<polygon fill="#bfbfbf" stroke="black" points="1193,-30.5 1193,-71.5 1342,-71.5 1342,-30.5 1193,-30.5"/>
<text text-anchor="start" x="1201" y="-59.5" font-family="Helvetica,sans-Serif" font-size="10.00">BipedalLocomotion::</text>
<text text-anchor="start" x="1201" y="-48.5" font-family="Helvetica,sans-Serif" font-size="10.00">Estimators::RecursiveLeast</text>
<text text-anchor="middle" x="1267.5" y="-37.5" font-family="Helvetica,sans-Serif" font-size="10.00">Square</text>
</a>
</g>
</g>
<!-- Node2 -->
<g id="node2" class="node">
<title>Node2</title>
<g id="a_node2"><a xlink:href="classBipedalLocomotion_1_1System_1_1Source.html" target="_top" xlink:title=" ">
<polygon fill="none" stroke="black" points="978,-30.5 978,-71.5 1156,-71.5 1156,-30.5 978,-30.5"/>
<text text-anchor="start" x="986" y="-59.5" font-family="Helvetica,sans-Serif" font-size="10.00">BipedalLocomotion::</text>
<text text-anchor="start" x="986" y="-48.5" font-family="Helvetica,sans-Serif" font-size="10.00">System::Source&lt; RecursiveLeast</text>
<text text-anchor="middle" x="1067" y="-37.5" font-family="Helvetica,sans-Serif" font-size="10.00">SquareState &gt;</text>
</a>
</g>
</g>
<!-- Node2&#45;&gt;Node1 -->
<g id="edge1" class="edge">
<title>Node2&#45;&gt;Node1</title>
<path fill="none" stroke="midnightblue" d="M1166.28,-51C1175.2,-51 1184.14,-51 1192.8,-51"/>
<polygon fill="midnightblue" stroke="midnightblue" points="1166.22,-47.5 1156.22,-51 1166.22,-54.5 1166.22,-47.5"/>
</g>
<!-- Node3 -->
<g id="node3" class="node">
<title>Node3</title>
<g id="a_node3"><a xlink:href="classBipedalLocomotion_1_1System_1_1Advanceable.html" target="_top" xlink:title=" ">
<polygon fill="none" stroke="black" points="446,-43 446,-95 616,-95 616,-43 446,-43"/>
<text text-anchor="start" x="454" y="-83" font-family="Helvetica,sans-Serif" font-size="10.00">BipedalLocomotion::</text>
<text text-anchor="start" x="454" y="-72" font-family="Helvetica,sans-Serif" font-size="10.00">System::Advanceable</text>
<text text-anchor="start" x="454" y="-61" font-family="Helvetica,sans-Serif" font-size="10.00">&lt; EmptySignal, RecursiveLeast</text>
<text text-anchor="middle" x="531" y="-50" font-family="Helvetica,sans-Serif" font-size="10.00">SquareState &gt;</text>
</a>
</g>
</g>
<!-- Node3&#45;&gt;Node2 -->
<g id="edge2" class="edge">
<title>Node3&#45;&gt;Node2</title>
<path fill="none" stroke="midnightblue" d="M626.14,-66.06C712.86,-63.31 845.11,-59.05 960,-55 965.8,-54.8 971.77,-54.58 977.8,-54.36"/>
<polygon fill="midnightblue" stroke="midnightblue" points="625.94,-62.56 616.06,-66.38 626.16,-69.56 625.94,-62.56"/>
</g>
<!-- Node4 -->
<g id="node4" class="node">
<title>Node4</title>
<g id="a_node4"><a xlink:href="classBipedalLocomotion_1_1System_1_1Advanceable.html" target="_top" xlink:title="Basic class that represents a discrete system.">
<polygon fill="none" stroke="black" points="0,-25.5 0,-66.5 122,-66.5 122,-25.5 0,-25.5"/>
<text text-anchor="start" x="8" y="-54.5" font-family="Helvetica,sans-Serif" font-size="10.00">BipedalLocomotion::</text>
<text text-anchor="start" x="8" y="-43.5" font-family="Helvetica,sans-Serif" font-size="10.00">System::Advanceable</text>
<text text-anchor="middle" x="61" y="-32.5" font-family="Helvetica,sans-Serif" font-size="10.00">&lt; _Input, _Output &gt;</text>
</a>
</g>
</g>
<!-- Node4&#45;&gt;Node3 -->
<g id="edge3" class="edge">
<title>Node4&#45;&gt;Node3</title>
<path fill="none" stroke="orange" stroke-dasharray="5,2" d="M132.42,-49.46C216.33,-53.58 356.38,-60.47 445.89,-64.87"/>
<polygon fill="orange" stroke="orange" points="132.38,-45.95 122.22,-48.96 132.04,-52.95 132.38,-45.95"/>
<text text-anchor="start" x="140" y="-71" font-family="Helvetica,sans-Serif" font-size="10.00"> &lt; EmptySignal, Recursive</text>
<text text-anchor="middle" x="205" y="-60" font-family="Helvetica,sans-Serif" font-size="10.00">LeastSquareState &gt;</text>
</g>
<!-- Node6 -->
<g id="node6" class="node">
<title>Node6</title>
<g id="a_node6"><a xlink:href="classBipedalLocomotion_1_1System_1_1Advanceable.html" target="_top" xlink:title=" ">
<polygon fill="none" stroke="black" points="288,-0.5 288,-41.5 428,-41.5 428,-0.5 288,-0.5"/>
<text text-anchor="start" x="296" y="-29.5" font-family="Helvetica,sans-Serif" font-size="10.00">BipedalLocomotion::</text>
<text text-anchor="start" x="296" y="-18.5" font-family="Helvetica,sans-Serif" font-size="10.00">System::Advanceable</text>
<text text-anchor="middle" x="358" y="-7.5" font-family="Helvetica,sans-Serif" font-size="10.00">&lt; EmptySignal, Output &gt;</text>
</a>
</g>
</g>
<!-- Node4&#45;&gt;Node6 -->
<g id="edge6" class="edge">
<title>Node4&#45;&gt;Node6</title>
<path fill="none" stroke="orange" stroke-dasharray="5,2" d="M132.22,-37.76C134.85,-37.5 137.45,-37.24 140,-37 189.27,-32.34 244.93,-28.26 287.55,-25.39"/>
<polygon fill="orange" stroke="orange" points="131.6,-34.31 122.02,-38.82 132.33,-41.27 131.6,-34.31"/>
<text text-anchor="middle" x="205" y="-40" font-family="Helvetica,sans-Serif" font-size="10.00"> &lt; EmptySignal, Output &gt;</text>
</g>
<!-- Node5 -->
<g id="node5" class="node">
<title>Node5</title>
<g id="a_node5"><a xlink:href="classBipedalLocomotion_1_1System_1_1Source.html" target="_top" xlink:title="Source is a template specialization of Advanceable and represents a block that does not contains inpu...">
<polygon fill="none" stroke="black" points="634,-9 634,-39 782,-39 782,-9 634,-9"/>
<text text-anchor="start" x="642" y="-27" font-family="Helvetica,sans-Serif" font-size="10.00">BipedalLocomotion::</text>
<text text-anchor="middle" x="708" y="-16" font-family="Helvetica,sans-Serif" font-size="10.00">System::Source&lt; Output &gt;</text>
</a>
</g>
</g>
<!-- Node5&#45;&gt;Node2 -->
<g id="edge4" class="edge">
<title>Node5&#45;&gt;Node2</title>
<path fill="none" stroke="orange" stroke-dasharray="5,2" d="M792.29,-30.3C847.99,-34.51 921.17,-40.05 977.84,-44.33"/>
<polygon fill="orange" stroke="orange" points="792.34,-26.79 782.11,-29.53 791.81,-33.77 792.34,-26.79"/>
<text text-anchor="middle" x="880" y="-46" font-family="Helvetica,sans-Serif" font-size="10.00"> &lt; RecursiveLeastSquareState &gt;</text>
</g>
<!-- Node6&#45;&gt;Node5 -->
<g id="edge5" class="edge">
<title>Node6&#45;&gt;Node5</title>
<path fill="none" stroke="midnightblue" d="M438.52,-21.69C497.24,-22.19 576.58,-22.88 633.76,-23.37"/>
<polygon fill="midnightblue" stroke="midnightblue" points="438.2,-18.18 428.17,-21.6 438.14,-25.18 438.2,-18.18"/>
</g>
</g>
</svg>
