<?xml version="1.0" encoding="UTF-8" standalone="no"?>
<!DOCTYPE svg PUBLIC "-//W3C//DTD SVG 1.1//EN"
 "http://www.w3.org/Graphics/SVG/1.1/DTD/svg11.dtd">
<!-- Generated by graphviz version 2.43.0 (0)
 -->
<!-- Title: BipedalLocomotion::Contacts::SchmittTriggerDetector Pages: 1 -->
<svg width="1558pt" height="104pt"
 viewBox="0.00 0.00 1558.00 103.50" xmlns="http://www.w3.org/2000/svg" xmlns:xlink="http://www.w3.org/1999/xlink">
<g id="graph0" class="graph" transform="scale(1 1) rotate(0) translate(4 99.5)">
<title>BipedalLocomotion::Contacts::SchmittTriggerDetector</title>
<!-- Node1 -->
<g id="node1" class="node">
<title>Node1</title>
<g id="a_node1"><a xlink:title="Schmitt Trigger thresholding based contact detector that maintains and updates the contact states for...">
<polygon fill="#bfbfbf" stroke="black" points="1372,-36 1372,-66 1550,-66 1550,-36 1372,-36"/>
<text text-anchor="start" x="1380" y="-54" font-family="Helvetica,sans-Serif" font-size="10.00">BipedalLocomotion::</text>
<text text-anchor="middle" x="1461" y="-43" font-family="Helvetica,sans-Serif" font-size="10.00">Contacts::SchmittTriggerDetector</text>
</a>
</g>
</g>
<!-- Node2 -->
<g id="node2" class="node">
<title>Node2</title>
<g id="a_node2"><a xlink:href="classBipedalLocomotion_1_1Contacts_1_1ContactDetector.html" target="_top" xlink:title=" ">
<polygon fill="none" stroke="black" points="1190,-36 1190,-66 1335,-66 1335,-36 1190,-36"/>
<text text-anchor="start" x="1198" y="-54" font-family="Helvetica,sans-Serif" font-size="10.00">BipedalLocomotion::</text>
<text text-anchor="middle" x="1262.5" y="-43" font-family="Helvetica,sans-Serif" font-size="10.00">Contacts::ContactDetector</text>
</a>
</g>
</g>
<!-- Node2&#45;&gt;Node1 -->
<g id="edge1" class="edge">
<title>Node2&#45;&gt;Node1</title>
<path fill="none" stroke="midnightblue" d="M1345.38,-51C1354.07,-51 1362.94,-51 1371.7,-51"/>
<polygon fill="midnightblue" stroke="midnightblue" points="1345.28,-47.5 1335.28,-51 1345.28,-54.5 1345.28,-47.5"/>
</g>
<!-- Node3 -->
<g id="node3" class="node">
<title>Node3</title>
<g id="a_node3"><a xlink:href="classBipedalLocomotion_1_1System_1_1Source.html" target="_top" xlink:title=" ">
<polygon fill="none" stroke="black" points="962,-30.5 962,-71.5 1153,-71.5 1153,-30.5 962,-30.5"/>
<text text-anchor="start" x="970" y="-59.5" font-family="Helvetica,sans-Serif" font-size="10.00">BipedalLocomotion::</text>
<text text-anchor="start" x="970" y="-48.5" font-family="Helvetica,sans-Serif" font-size="10.00">System::Source&lt; EstimatedContact</text>
<text text-anchor="middle" x="1057.5" y="-37.5" font-family="Helvetica,sans-Serif" font-size="10.00">List &gt;</text>
</a>
</g>
</g>
<!-- Node3&#45;&gt;Node2 -->
<g id="edge2" class="edge">
<title>Node3&#45;&gt;Node2</title>
<path fill="none" stroke="midnightblue" d="M1163.27,-51C1172.22,-51 1181.14,-51 1189.74,-51"/>
<polygon fill="midnightblue" stroke="midnightblue" points="1163.17,-47.5 1153.17,-51 1163.17,-54.5 1163.17,-47.5"/>
</g>
<!-- Node4 -->
<g id="node4" class="node">
<title>Node4</title>
<g id="a_node4"><a xlink:href="classBipedalLocomotion_1_1System_1_1Advanceable.html" target="_top" xlink:title=" ">
<polygon fill="none" stroke="black" points="448,-43 448,-95 630,-95 630,-43 448,-43"/>
<text text-anchor="start" x="456" y="-83" font-family="Helvetica,sans-Serif" font-size="10.00">BipedalLocomotion::</text>
<text text-anchor="start" x="456" y="-72" font-family="Helvetica,sans-Serif" font-size="10.00">System::Advanceable</text>
<text text-anchor="start" x="456" y="-61" font-family="Helvetica,sans-Serif" font-size="10.00">&lt; EmptySignal, EstimatedContact</text>
<text text-anchor="middle" x="539" y="-50" font-family="Helvetica,sans-Serif" font-size="10.00">List &gt;</text>
</a>
</g>
</g>
<!-- Node4&#45;&gt;Node3 -->
<g id="edge3" class="edge">
<title>Node4&#45;&gt;Node3</title>
<path fill="none" stroke="midnightblue" d="M640.54,-65.54C722.28,-62.72 840.59,-58.63 944,-55 949.86,-54.79 955.89,-54.58 961.97,-54.37"/>
<polygon fill="midnightblue" stroke="midnightblue" points="640.13,-62.05 630.26,-65.9 640.37,-69.05 640.13,-62.05"/>
</g>
<!-- Node5 -->
<g id="node5" class="node">
<title>Node5</title>
<g id="a_node5"><a xlink:href="classBipedalLocomotion_1_1System_1_1Advanceable.html" target="_top" xlink:title="Basic class that represents a discrete system.">
<polygon fill="none" stroke="black" points="0,-25.5 0,-66.5 122,-66.5 122,-25.5 0,-25.5"/>
<text text-anchor="start" x="8" y="-54.5" font-family="Helvetica,sans-Serif" font-size="10.00">BipedalLocomotion::</text>
<text text-anchor="start" x="8" y="-43.5" font-family="Helvetica,sans-Serif" font-size="10.00">System::Advanceable</text>
<text text-anchor="middle" x="61" y="-32.5" font-family="Helvetica,sans-Serif" font-size="10.00">&lt; _Input, _Output &gt;</text>
</a>
</g>
</g>
<!-- Node5&#45;&gt;Node4 -->
<g id="edge4" class="edge">
<title>Node5&#45;&gt;Node4</title>
<path fill="none" stroke="orange" stroke-dasharray="5,2" d="M132.47,-49.4C216.22,-53.45 356.14,-60.21 447.75,-64.64"/>
<polygon fill="orange" stroke="orange" points="132.44,-45.9 122.29,-48.91 132.11,-52.89 132.44,-45.9"/>
<text text-anchor="start" x="140" y="-71" font-family="Helvetica,sans-Serif" font-size="10.00"> &lt; EmptySignal, Estimated</text>
<text text-anchor="middle" x="206" y="-60" font-family="Helvetica,sans-Serif" font-size="10.00">ContactList &gt;</text>
</g>
<!-- Node7 -->
<g id="node7" class="node">
<title>Node7</title>
<g id="a_node7"><a xlink:href="classBipedalLocomotion_1_1System_1_1Advanceable.html" target="_top" xlink:title=" ">
<polygon fill="none" stroke="black" points="290,-0.5 290,-41.5 430,-41.5 430,-0.5 290,-0.5"/>
<text text-anchor="start" x="298" y="-29.5" font-family="Helvetica,sans-Serif" font-size="10.00">BipedalLocomotion::</text>
<text text-anchor="start" x="298" y="-18.5" font-family="Helvetica,sans-Serif" font-size="10.00">System::Advanceable</text>
<text text-anchor="middle" x="360" y="-7.5" font-family="Helvetica,sans-Serif" font-size="10.00">&lt; EmptySignal, Output &gt;</text>
</a>
</g>
</g>
<!-- Node5&#45;&gt;Node7 -->
<g id="edge7" class="edge">
<title>Node5&#45;&gt;Node7</title>
<path fill="none" stroke="orange" stroke-dasharray="5,2" d="M132.22,-37.76C134.85,-37.49 137.45,-37.24 140,-37 190.1,-32.28 246.76,-28.18 289.89,-25.3"/>
<polygon fill="orange" stroke="orange" points="131.6,-34.3 122.02,-38.82 132.33,-41.27 131.6,-34.3"/>
<text text-anchor="middle" x="206" y="-40" font-family="Helvetica,sans-Serif" font-size="10.00"> &lt; EmptySignal, Output &gt;</text>
</g>
<!-- Node6 -->
<g id="node6" class="node">
<title>Node6</title>
<g id="a_node6"><a xlink:href="classBipedalLocomotion_1_1System_1_1Source.html" target="_top" xlink:title="Source is a template specialization of Advanceable and represents a block that does not contains inpu...">
<polygon fill="none" stroke="black" points="648,-9 648,-39 796,-39 796,-9 648,-9"/>
<text text-anchor="start" x="656" y="-27" font-family="Helvetica,sans-Serif" font-size="10.00">BipedalLocomotion::</text>
<text text-anchor="middle" x="722" y="-16" font-family="Helvetica,sans-Serif" font-size="10.00">System::Source&lt; Output &gt;</text>
</a>
</g>
</g>
<!-- Node6&#45;&gt;Node3 -->
<g id="edge5" class="edge">
<title>Node6&#45;&gt;Node3</title>
<path fill="none" stroke="orange" stroke-dasharray="5,2" d="M806.39,-30.75C853.65,-34.58 912.93,-39.38 961.92,-43.34"/>
<polygon fill="orange" stroke="orange" points="806.44,-27.24 796.19,-29.93 805.87,-34.22 806.44,-27.24"/>
<text text-anchor="middle" x="879" y="-45" font-family="Helvetica,sans-Serif" font-size="10.00"> &lt; EstimatedContactList &gt;</text>
</g>
<!-- Node7&#45;&gt;Node6 -->
<g id="edge6" class="edge">
<title>Node7&#45;&gt;Node6</title>
<path fill="none" stroke="midnightblue" d="M440.52,-21.66C502.39,-22.18 587.57,-22.89 647.78,-23.39"/>
<polygon fill="midnightblue" stroke="midnightblue" points="440.44,-18.16 430.41,-21.58 440.38,-25.16 440.44,-18.16"/>
</g>
</g>
</svg>
