<?xml version="1.0" encoding="UTF-8" standalone="no"?>
<!DOCTYPE svg PUBLIC "-//W3C//DTD SVG 1.1//EN"
 "http://www.w3.org/Graphics/SVG/1.1/DTD/svg11.dtd">
<!-- Generated by graphviz version 2.43.0 (0)
 -->
<!-- Title: BipedalLocomotion::System::Source&lt; Output &gt; Pages: 1 -->
<!--zoomable 687 -->
<svg id="main" version="1.1" xmlns="http://www.w3.org/2000/svg" xmlns:xlink="http://www.w3.org/1999/xlink" xml:space="preserve" onload="init(evt)">
<style type="text/css"><![CDATA[
.edge:hover path { stroke: red; }
.edge:hover polygon { stroke: red; fill: red; }
]]></style>
<script type="text/javascript"><![CDATA[
var edges = document.getElementsByTagName('g');
if (edges && edges.length) {
  for (var i=0;i<edges.length;i++) {
    if (edges[i].id.substr(0,4)=='edge') {
      edges[i].setAttribute('class','edge');
    }
  }
}
]]></script>
        <defs>
                <circle id="rim" cx="0" cy="0" r="7"/>
                <circle id="rim2" cx="0" cy="0" r="3.5"/>
                <g id="zoomPlus">
                        <use xlink:href="#rim" fill="#404040">
                                <set attributeName="fill" to="#808080" begin="zoomplus.mouseover" end="zoomplus.mouseout"/>
                        </use>
                        <path d="M-4,0h8M0,-4v8" fill="none" stroke="white" stroke-width="1.5" pointer-events="none"/>
                </g>
                <g id="zoomMin">
                        <use xlink:href="#rim" fill="#404040">
                                <set attributeName="fill" to="#808080" begin="zoomminus.mouseover" end="zoomminus.mouseout"/>
                        </use>
                        <path d="M-4,0h8" fill="none" stroke="white" stroke-width="1.5" pointer-events="none"/>
                </g>
                <g id="dirArrow">
                        <path fill="none" stroke="white" stroke-width="1.5" d="M0,-3.0v7 M-2.5,-0.5L0,-3.0L2.5,-0.5"/>
                </g>
               <g id="resetDef">
                       <use xlink:href="#rim2" fill="#404040">
                               <set attributeName="fill" to="#808080" begin="reset.mouseover" end="reset.mouseout"/>
                       </use>
               </g>
        </defs>

<script type="text/javascript">
var viewWidth = 1571;
var viewHeight = 687;
var sectionId = 'dynsection-0';
</script>
<script xlink:href="svgpan.js"/>
<svg id="graph" class="graph">
<g id="viewport">
<title>BipedalLocomotion::System::Source&lt; Output &gt;</title>
<!-- Node1 -->
<g id="node1" class="node">
<title>Node1</title>
<g id="a_node1"><a xlink:title="Source is a template specialization of Advanceable and represents a block that does not contains inpu...">
<polygon fill="#bfbfbf" stroke="black" points="462,-342.5 462,-372.5 610,-372.5 610,-342.5 462,-342.5"/>
<text text-anchor="start" x="470" y="-360.5" font-family="Helvetica,sans-Serif" font-size="10.00">BipedalLocomotion::</text>
<text text-anchor="middle" x="536" y="-349.5" font-family="Helvetica,sans-Serif" font-size="10.00">System::Source&lt; Output &gt;</text>
</a>
</g>
</g>
<!-- Node4 -->
<g id="node4" class="node">
<title>Node4</title>
<g id="a_node4"><a xlink:href="classBipedalLocomotion_1_1System_1_1Source.html" target="_top" xlink:title=" ">
<polygon fill="none" stroke="black" points="812.5,-637 812.5,-678 990.5,-678 990.5,-637 812.5,-637"/>
<text text-anchor="start" x="820.5" y="-666" font-family="Helvetica,sans-Serif" font-size="10.00">BipedalLocomotion::</text>
<text text-anchor="start" x="820.5" y="-655" font-family="Helvetica,sans-Serif" font-size="10.00">System::Source&lt; RecursiveLeast</text>
<text text-anchor="middle" x="901.5" y="-644" font-family="Helvetica,sans-Serif" font-size="10.00">SquareState &gt;</text>
</a>
</g>
</g>
<!-- Node1&#45;&gt;Node4 -->
<g id="edge3" class="edge">
<title>Node1&#45;&gt;Node4</title>
<path fill="none" stroke="orange" stroke-dasharray="5,2" d="M538.15,-382.78C541.93,-434.14 558.19,-550.78 628,-609.5 678.64,-652.09 753.68,-662.75 812.2,-663.5"/>
<polygon fill="orange" stroke="orange" points="541.63,-382.34 537.5,-372.58 534.64,-382.78 541.63,-382.34"/>
<text text-anchor="middle" x="708" y="-664.5" font-family="Helvetica,sans-Serif" font-size="10.00"> &lt; RecursiveLeastSquareState &gt;</text>
</g>
<!-- Node6 -->
<g id="node6" class="node">
<title>Node6</title>
<g id="a_node6"><a xlink:href="classBipedalLocomotion_1_1System_1_1Source.html" target="_top" xlink:title=" ">
<polygon fill="none" stroke="black" points="817.5,-577 817.5,-618 985.5,-618 985.5,-577 817.5,-577"/>
<text text-anchor="start" x="825.5" y="-606" font-family="Helvetica,sans-Serif" font-size="10.00">BipedalLocomotion::</text>
<text text-anchor="start" x="825.5" y="-595" font-family="Helvetica,sans-Serif" font-size="10.00">System::Source&lt; QuinticSpline</text>
<text text-anchor="middle" x="901.5" y="-584" font-family="Helvetica,sans-Serif" font-size="10.00">State &gt;</text>
</a>
</g>
</g>
<!-- Node1&#45;&gt;Node6 -->
<g id="edge5" class="edge">
<title>Node1&#45;&gt;Node6</title>
<path fill="none" stroke="orange" stroke-dasharray="5,2" d="M542,-382.54C551.41,-422.71 575.68,-501.14 628,-541.5 681.82,-583.02 758.84,-595.81 817.27,-598.92"/>
<polygon fill="orange" stroke="orange" points="545.41,-381.74 539.83,-372.74 538.58,-383.26 545.41,-381.74"/>
<text text-anchor="middle" x="708" y="-599.5" font-family="Helvetica,sans-Serif" font-size="10.00"> &lt; QuinticSplineState &gt;</text>
</g>
<!-- Node8 -->
<g id="node8" class="node">
<title>Node8</title>
<g id="a_node8"><a xlink:href="classBipedalLocomotion_1_1System_1_1Source.html" target="_top" xlink:title=" ">
<polygon fill="none" stroke="black" points="823,-517 823,-558 980,-558 980,-517 823,-517"/>
<text text-anchor="start" x="831" y="-546" font-family="Helvetica,sans-Serif" font-size="10.00">BipedalLocomotion::</text>
<text text-anchor="start" x="831" y="-535" font-family="Helvetica,sans-Serif" font-size="10.00">System::Source&lt; Integration</text>
<text text-anchor="middle" x="901.5" y="-524" font-family="Helvetica,sans-Serif" font-size="10.00">BasedIKState &gt;</text>
</a>
</g>
</g>
<!-- Node1&#45;&gt;Node8 -->
<g id="edge7" class="edge">
<title>Node1&#45;&gt;Node8</title>
<path fill="none" stroke="orange" stroke-dasharray="5,2" d="M549.41,-381.69C564.37,-408.37 592.07,-450.56 628,-473.5 686.78,-511.02 765.29,-526.59 822.93,-533.02"/>
<polygon fill="orange" stroke="orange" points="552.33,-379.74 544.48,-372.63 546.18,-383.08 552.33,-379.74"/>
<text text-anchor="middle" x="708" y="-529.5" font-family="Helvetica,sans-Serif" font-size="10.00"> &lt; IntegrationBasedIKState &gt;</text>
</g>
<!-- Node11 -->
<g id="node11" class="node">
<title>Node11</title>
<g id="a_node11"><a xlink:href="classBipedalLocomotion_1_1System_1_1Source.html" target="_top" xlink:title=" ">
<polygon fill="none" stroke="black" points="821.5,-457 821.5,-498 981.5,-498 981.5,-457 821.5,-457"/>
<text text-anchor="start" x="829.5" y="-486" font-family="Helvetica,sans-Serif" font-size="10.00">BipedalLocomotion::</text>
<text text-anchor="start" x="829.5" y="-475" font-family="Helvetica,sans-Serif" font-size="10.00">System::Source&lt; SO3Planner</text>
<text text-anchor="middle" x="901.5" y="-464" font-family="Helvetica,sans-Serif" font-size="10.00">State &gt;</text>
</a>
</g>
</g>
<!-- Node1&#45;&gt;Node11 -->
<g id="edge10" class="edge">
<title>Node1&#45;&gt;Node11</title>
<path fill="none" stroke="orange" stroke-dasharray="5,2" d="M566.21,-378.35C583.48,-389.85 606.18,-403.56 628,-412.5 690.67,-438.18 765.79,-455.15 821.27,-465.3"/>
<polygon fill="orange" stroke="orange" points="567.95,-375.3 557.71,-372.58 564.01,-381.09 567.95,-375.3"/>
<text text-anchor="middle" x="708" y="-461.5" font-family="Helvetica,sans-Serif" font-size="10.00"> &lt; SO3PlannerState &gt;</text>
</g>
<!-- Node14 -->
<g id="node14" class="node">
<title>Node14</title>
<g id="a_node14"><a xlink:href="classBipedalLocomotion_1_1System_1_1Source.html" target="_top" xlink:title=" ">
<polygon fill="none" stroke="black" points="817.5,-397 817.5,-438 985.5,-438 985.5,-397 817.5,-397"/>
<text text-anchor="start" x="825.5" y="-426" font-family="Helvetica,sans-Serif" font-size="10.00">BipedalLocomotion::</text>
<text text-anchor="start" x="825.5" y="-415" font-family="Helvetica,sans-Serif" font-size="10.00">System::Source&lt; SensorBridge</text>
<text text-anchor="middle" x="901.5" y="-404" font-family="Helvetica,sans-Serif" font-size="10.00">MetaData &gt;</text>
</a>
</g>
</g>
<!-- Node1&#45;&gt;Node14 -->
<g id="edge14" class="edge">
<title>Node1&#45;&gt;Node14</title>
<path fill="none" stroke="orange" stroke-dasharray="5,2" d="M620.17,-371.23C679.25,-380.98 758.25,-394.02 817.33,-403.77"/>
<polygon fill="orange" stroke="orange" points="620.56,-367.75 610.12,-369.57 619.42,-374.65 620.56,-367.75"/>
<text text-anchor="middle" x="708" y="-400.5" font-family="Helvetica,sans-Serif" font-size="10.00"> &lt; SensorBridgeMetaData &gt;</text>
</g>
<!-- Node16 -->
<g id="node16" class="node">
<title>Node16</title>
<g id="a_node16"><a xlink:href="classBipedalLocomotion_1_1System_1_1Source.html" target="_top" xlink:title=" ">
<polygon fill="none" stroke="black" points="806,-337 806,-378 997,-378 997,-337 806,-337"/>
<text text-anchor="start" x="814" y="-366" font-family="Helvetica,sans-Serif" font-size="10.00">BipedalLocomotion::</text>
<text text-anchor="start" x="814" y="-355" font-family="Helvetica,sans-Serif" font-size="10.00">System::Source&lt; SwingFootPlanner</text>
<text text-anchor="middle" x="901.5" y="-344" font-family="Helvetica,sans-Serif" font-size="10.00">State &gt;</text>
</a>
</g>
</g>
<!-- Node1&#45;&gt;Node16 -->
<g id="edge16" class="edge">
<title>Node1&#45;&gt;Node16</title>
<path fill="none" stroke="orange" stroke-dasharray="5,2" d="M620.23,-357.5C675.52,-357.5 748.23,-357.5 805.74,-357.5"/>
<polygon fill="orange" stroke="orange" points="620.12,-354 610.12,-357.5 620.12,-361 620.12,-354"/>
<text text-anchor="middle" x="708" y="-360.5" font-family="Helvetica,sans-Serif" font-size="10.00"> &lt; SwingFootPlannerState &gt;</text>
</g>
<!-- Node18 -->
<g id="node18" class="node">
<title>Node18</title>
<g id="a_node18"><a xlink:href="classBipedalLocomotion_1_1System_1_1Source.html" target="_top" xlink:title=" ">
<polygon fill="none" stroke="black" points="806,-277 806,-318 997,-318 997,-277 806,-277"/>
<text text-anchor="start" x="814" y="-306" font-family="Helvetica,sans-Serif" font-size="10.00">BipedalLocomotion::</text>
<text text-anchor="start" x="814" y="-295" font-family="Helvetica,sans-Serif" font-size="10.00">System::Source&lt; EstimatedContact</text>
<text text-anchor="middle" x="901.5" y="-284" font-family="Helvetica,sans-Serif" font-size="10.00">List &gt;</text>
</a>
</g>
</g>
<!-- Node1&#45;&gt;Node18 -->
<g id="edge18" class="edge">
<title>Node1&#45;&gt;Node18</title>
<path fill="none" stroke="orange" stroke-dasharray="5,2" d="M620.23,-343.76C675.52,-334.64 748.23,-322.63 805.74,-313.14"/>
<polygon fill="orange" stroke="orange" points="619.42,-340.35 610.12,-345.43 620.56,-347.25 619.42,-340.35"/>
<text text-anchor="middle" x="708" y="-344.5" font-family="Helvetica,sans-Serif" font-size="10.00"> &lt; EstimatedContactList &gt;</text>
</g>
<!-- Node22 -->
<g id="node22" class="node">
<title>Node22</title>
<g id="a_node22"><a xlink:href="classBipedalLocomotion_1_1System_1_1Source.html" target="_top" xlink:title=" ">
<polygon fill="none" stroke="black" points="815,-217 815,-258 988,-258 988,-217 815,-217"/>
<text text-anchor="start" x="823" y="-246" font-family="Helvetica,sans-Serif" font-size="10.00">BipedalLocomotion::</text>
<text text-anchor="start" x="823" y="-235" font-family="Helvetica,sans-Serif" font-size="10.00">System::Source&lt; ArucoDetector</text>
<text text-anchor="middle" x="901.5" y="-224" font-family="Helvetica,sans-Serif" font-size="10.00">Output &gt;</text>
</a>
</g>
</g>
<!-- Node1&#45;&gt;Node22 -->
<g id="edge22" class="edge">
<title>Node1&#45;&gt;Node22</title>
<path fill="none" stroke="orange" stroke-dasharray="5,2" d="M566.21,-336.65C583.48,-325.15 606.18,-311.44 628,-302.5 688.31,-277.79 760.14,-261.14 814.91,-250.88"/>
<polygon fill="orange" stroke="orange" points="564.01,-333.91 557.71,-342.42 567.95,-339.7 564.01,-333.91"/>
<text text-anchor="middle" x="708" y="-305.5" font-family="Helvetica,sans-Serif" font-size="10.00"> &lt; ArucoDetectorOutput &gt;</text>
</g>
<!-- Node24 -->
<g id="node24" class="node">
<title>Node24</title>
<g id="a_node24"><a xlink:href="classBipedalLocomotion_1_1System_1_1Source.html" target="_top" xlink:title=" ">
<polygon fill="none" stroke="black" points="820,-167.5 820,-197.5 983,-197.5 983,-167.5 820,-167.5"/>
<text text-anchor="start" x="828" y="-185.5" font-family="Helvetica,sans-Serif" font-size="10.00">BipedalLocomotion::</text>
<text text-anchor="middle" x="901.5" y="-174.5" font-family="Helvetica,sans-Serif" font-size="10.00">System::Source&lt; TSIDState &gt;</text>
</a>
</g>
</g>
<!-- Node1&#45;&gt;Node24 -->
<g id="edge24" class="edge">
<title>Node1&#45;&gt;Node24</title>
<path fill="none" stroke="orange" stroke-dasharray="5,2" d="M549.33,-333.19C564.23,-306.41 591.87,-264.12 628,-241.5 685.85,-205.28 762.64,-191.06 819.96,-185.59"/>
<polygon fill="orange" stroke="orange" points="546.09,-331.83 544.43,-342.3 552.25,-335.15 546.09,-331.83"/>
<text text-anchor="middle" x="708" y="-244.5" font-family="Helvetica,sans-Serif" font-size="10.00"> &lt; TSIDState &gt;</text>
</g>
<!-- Node26 -->
<g id="node26" class="node">
<title>Node26</title>
<g id="a_node26"><a xlink:href="classBipedalLocomotion_1_1System_1_1Source.html" target="_top" xlink:title=" ">
<polygon fill="none" stroke="black" points="819.5,-107 819.5,-148 983.5,-148 983.5,-107 819.5,-107"/>
<text text-anchor="start" x="827.5" y="-136" font-family="Helvetica,sans-Serif" font-size="10.00">BipedalLocomotion::</text>
<text text-anchor="start" x="827.5" y="-125" font-family="Helvetica,sans-Serif" font-size="10.00">System::Source&lt; DCMPlanner</text>
<text text-anchor="middle" x="901.5" y="-114" font-family="Helvetica,sans-Serif" font-size="10.00">State &gt;</text>
</a>
</g>
</g>
<!-- Node1&#45;&gt;Node26 -->
<g id="edge26" class="edge">
<title>Node1&#45;&gt;Node26</title>
<path fill="none" stroke="orange" stroke-dasharray="5,2" d="M542.02,-332.31C551.41,-292.25 575.6,-214.58 628,-175.5 682.78,-134.65 760.82,-124.38 819.35,-123.31"/>
<polygon fill="orange" stroke="orange" points="538.55,-331.8 539.8,-342.32 545.38,-333.31 538.55,-331.8"/>
<text text-anchor="middle" x="708" y="-178.5" font-family="Helvetica,sans-Serif" font-size="10.00"> &lt; DCMPlannerState &gt;</text>
</g>
<!-- Node29 -->
<g id="node29" class="node">
<title>Node29</title>
<g id="a_node29"><a xlink:href="classBipedalLocomotion_1_1System_1_1Source.html" target="_top" xlink:title=" ">
<polygon fill="none" stroke="black" points="818,-47 818,-88 985,-88 985,-47 818,-47"/>
<text text-anchor="start" x="826" y="-76" font-family="Helvetica,sans-Serif" font-size="10.00">BipedalLocomotion::</text>
<text text-anchor="start" x="826" y="-65" font-family="Helvetica,sans-Serif" font-size="10.00">System::Source&lt; FloatingBase</text>
<text text-anchor="middle" x="901.5" y="-54" font-family="Helvetica,sans-Serif" font-size="10.00">Estimators::Output &gt;</text>
</a>
</g>
</g>
<!-- Node1&#45;&gt;Node29 -->
<g id="edge29" class="edge">
<title>Node1&#45;&gt;Node29</title>
<path fill="none" stroke="orange" stroke-dasharray="5,2" d="M537.63,-332C540.42,-279.2 554.91,-157.92 628,-99.5 680.84,-57.27 758.9,-52.04 817.95,-55.76"/>
<polygon fill="orange" stroke="orange" points="534.12,-332.05 537.19,-342.19 541.12,-332.35 534.12,-332.05"/>
<text text-anchor="start" x="642.5" y="-113.5" font-family="Helvetica,sans-Serif" font-size="10.00"> &lt; FloatingBaseEstimators</text>
<text text-anchor="middle" x="708" y="-102.5" font-family="Helvetica,sans-Serif" font-size="10.00">::Output &gt;</text>
</g>
<!-- Node2 -->
<g id="node2" class="node">
<title>Node2</title>
<g id="a_node2"><a xlink:href="classBipedalLocomotion_1_1System_1_1Advanceable.html" target="_top" xlink:title=" ">
<polygon fill="none" stroke="black" points="285,-337 285,-378 425,-378 425,-337 285,-337"/>
<text text-anchor="start" x="293" y="-366" font-family="Helvetica,sans-Serif" font-size="10.00">BipedalLocomotion::</text>
<text text-anchor="start" x="293" y="-355" font-family="Helvetica,sans-Serif" font-size="10.00">System::Advanceable</text>
<text text-anchor="middle" x="355" y="-344" font-family="Helvetica,sans-Serif" font-size="10.00">&lt; EmptySignal, Output &gt;</text>
</a>
</g>
</g>
<!-- Node2&#45;&gt;Node1 -->
<g id="edge1" class="edge">
<title>Node2&#45;&gt;Node1</title>
<path fill="none" stroke="midnightblue" d="M435.43,-357.5C444.22,-357.5 453.13,-357.5 461.83,-357.5"/>
<polygon fill="midnightblue" stroke="midnightblue" points="435.21,-354 425.21,-357.5 435.21,-361 435.21,-354"/>
</g>
<!-- Node3 -->
<g id="node3" class="node">
<title>Node3</title>
<g id="a_node3"><a xlink:href="classBipedalLocomotion_1_1System_1_1Advanceable.html" target="_top" xlink:title="Basic class that represents a discrete system.">
<polygon fill="none" stroke="black" points="0,-337 0,-378 122,-378 122,-337 0,-337"/>
<text text-anchor="start" x="8" y="-366" font-family="Helvetica,sans-Serif" font-size="10.00">BipedalLocomotion::</text>
<text text-anchor="start" x="8" y="-355" font-family="Helvetica,sans-Serif" font-size="10.00">System::Advanceable</text>
<text text-anchor="middle" x="61" y="-344" font-family="Helvetica,sans-Serif" font-size="10.00">&lt; _Input, _Output &gt;</text>
</a>
</g>
</g>
<!-- Node3&#45;&gt;Node2 -->
<g id="edge2" class="edge">
<title>Node3&#45;&gt;Node2</title>
<path fill="none" stroke="orange" stroke-dasharray="5,2" d="M132.4,-357.5C178.68,-357.5 238.96,-357.5 284.96,-357.5"/>
<polygon fill="orange" stroke="orange" points="132.15,-354 122.15,-357.5 132.15,-361 132.15,-354"/>
<text text-anchor="middle" x="203.5" y="-360.5" font-family="Helvetica,sans-Serif" font-size="10.00"> &lt; EmptySignal, Output &gt;</text>
</g>
<!-- Node5 -->
<g id="node5" class="node">
<title>Node5</title>
<g id="a_node5"><a xlink:href="classBipedalLocomotion_1_1Estimators_1_1RecursiveLeastSquare.html" target="_top" xlink:title=" ">
<polygon fill="none" stroke="black" points="1052.5,-637 1052.5,-678 1201.5,-678 1201.5,-637 1052.5,-637"/>
<text text-anchor="start" x="1060.5" y="-666" font-family="Helvetica,sans-Serif" font-size="10.00">BipedalLocomotion::</text>
<text text-anchor="start" x="1060.5" y="-655" font-family="Helvetica,sans-Serif" font-size="10.00">Estimators::RecursiveLeast</text>
<text text-anchor="middle" x="1127" y="-644" font-family="Helvetica,sans-Serif" font-size="10.00">Square</text>
</a>
</g>
</g>
<!-- Node4&#45;&gt;Node5 -->
<g id="edge4" class="edge">
<title>Node4&#45;&gt;Node5</title>
<path fill="none" stroke="midnightblue" d="M1000.69,-657.5C1018.09,-657.5 1035.93,-657.5 1052.49,-657.5"/>
<polygon fill="midnightblue" stroke="midnightblue" points="1000.51,-654 990.51,-657.5 1000.51,-661 1000.51,-654"/>
</g>
<!-- Node7 -->
<g id="node7" class="node">
<title>Node7</title>
<g id="a_node7"><a xlink:href="classBipedalLocomotion_1_1Planners_1_1QuinticSpline.html" target="_top" xlink:title="Quintic spline implement a 5&#45;th order polynomial spline in $f\mathbb{R}^n$f.">
<polygon fill="none" stroke="black" points="1062.5,-587.5 1062.5,-617.5 1191.5,-617.5 1191.5,-587.5 1062.5,-587.5"/>
<text text-anchor="start" x="1070.5" y="-605.5" font-family="Helvetica,sans-Serif" font-size="10.00">BipedalLocomotion::</text>
<text text-anchor="middle" x="1127" y="-594.5" font-family="Helvetica,sans-Serif" font-size="10.00">Planners::QuinticSpline</text>
</a>
</g>
</g>
<!-- Node6&#45;&gt;Node7 -->
<g id="edge6" class="edge">
<title>Node6&#45;&gt;Node7</title>
<path fill="none" stroke="midnightblue" d="M995.91,-599.59C1018.26,-600.09 1041.62,-600.61 1062.27,-601.07"/>
<polygon fill="midnightblue" stroke="midnightblue" points="995.8,-596.09 985.72,-599.36 995.64,-603.08 995.8,-596.09"/>
</g>
<!-- Node9 -->
<g id="node9" class="node">
<title>Node9</title>
<g id="a_node9"><a xlink:href="classBipedalLocomotion_1_1IK_1_1IntegrationBasedIK.html" target="_top" xlink:title="IntegrationBasedInverseKinematics implements the interface for the integration base inverse kinematic...">
<polygon fill="none" stroke="black" points="1064.5,-538.5 1064.5,-568.5 1189.5,-568.5 1189.5,-538.5 1064.5,-538.5"/>
<text text-anchor="start" x="1072.5" y="-556.5" font-family="Helvetica,sans-Serif" font-size="10.00">BipedalLocomotion::</text>
<text text-anchor="middle" x="1127" y="-545.5" font-family="Helvetica,sans-Serif" font-size="10.00">IK::IntegrationBasedIK</text>
</a>
</g>
</g>
<!-- Node8&#45;&gt;Node9 -->
<g id="edge8" class="edge">
<title>Node8&#45;&gt;Node9</title>
<path fill="none" stroke="midnightblue" d="M990.19,-543.78C1015.02,-545.56 1041.51,-547.45 1064.44,-549.09"/>
<polygon fill="midnightblue" stroke="midnightblue" points="990.27,-540.27 980.04,-543.05 989.77,-547.26 990.27,-540.27"/>
</g>
<!-- Node10 -->
<g id="node10" class="node">
<title>Node10</title>
<g id="a_node10"><a xlink:href="classBipedalLocomotion_1_1IK_1_1QPInverseKinematics.html" target="_top" xlink:title="QPInverseKinematics is a concrete class and implements an integration base inverse kinematics.">
<polygon fill="none" stroke="black" points="1401.5,-538.5 1401.5,-568.5 1538.5,-568.5 1538.5,-538.5 1401.5,-538.5"/>
<text text-anchor="start" x="1409.5" y="-556.5" font-family="Helvetica,sans-Serif" font-size="10.00">BipedalLocomotion::</text>
<text text-anchor="middle" x="1470" y="-545.5" font-family="Helvetica,sans-Serif" font-size="10.00">IK::QPInverseKinematics</text>
</a>
</g>
</g>
<!-- Node9&#45;&gt;Node10 -->
<g id="edge9" class="edge">
<title>Node9&#45;&gt;Node10</title>
<path fill="none" stroke="midnightblue" d="M1199.81,-553.5C1259.22,-553.5 1343.02,-553.5 1401.28,-553.5"/>
<polygon fill="midnightblue" stroke="midnightblue" points="1199.75,-550 1189.75,-553.5 1199.75,-557 1199.75,-550"/>
</g>
<!-- Node12 -->
<g id="node12" class="node">
<title>Node12</title>
<g id="a_node12"><a xlink:href="classBipedalLocomotion_1_1Planners_1_1SO3Planner.html" target="_top" xlink:title="SO3Planner implements a minimum jerk trajectory planner for object belonging to SO(3).">
<polygon fill="none" stroke="black" points="1066.5,-478 1066.5,-519 1187.5,-519 1187.5,-478 1066.5,-478"/>
<text text-anchor="start" x="1074.5" y="-507" font-family="Helvetica,sans-Serif" font-size="10.00">BipedalLocomotion::</text>
<text text-anchor="start" x="1074.5" y="-496" font-family="Helvetica,sans-Serif" font-size="10.00">Planners::SO3Planner</text>
<text text-anchor="middle" x="1127" y="-485" font-family="Helvetica,sans-Serif" font-size="10.00">&lt; trivialization &gt;</text>
</a>
</g>
</g>
<!-- Node11&#45;&gt;Node12 -->
<g id="edge11" class="edge">
<title>Node11&#45;&gt;Node12</title>
<path fill="none" stroke="midnightblue" d="M991.86,-485.9C1016.89,-488.25 1043.49,-490.75 1066.34,-492.89"/>
<polygon fill="midnightblue" stroke="midnightblue" points="991.9,-482.38 981.61,-484.93 991.24,-489.35 991.9,-482.38"/>
</g>
<!-- Node13 -->
<g id="node13" class="node">
<title>Node13</title>
<g id="a_node13"><a xlink:href="classBipedalLocomotion_1_1Planners_1_1SO3Planner.html" target="_top" xlink:title=" ">
<polygon fill="none" stroke="black" points="1403,-445.5 1403,-497.5 1537,-497.5 1537,-445.5 1403,-445.5"/>
<text text-anchor="start" x="1411" y="-485.5" font-family="Helvetica,sans-Serif" font-size="10.00">BipedalLocomotion::</text>
<text text-anchor="start" x="1411" y="-474.5" font-family="Helvetica,sans-Serif" font-size="10.00">Planners::SO3Planner</text>
<text text-anchor="start" x="1411" y="-463.5" font-family="Helvetica,sans-Serif" font-size="10.00">&lt; LieGroupTrivialization</text>
<text text-anchor="middle" x="1470" y="-452.5" font-family="Helvetica,sans-Serif" font-size="10.00">::Right &gt;</text>
</a>
</g>
</g>
<!-- Node11&#45;&gt;Node13 -->
<g id="edge13" class="edge">
<title>Node11&#45;&gt;Node13</title>
<path fill="none" stroke="midnightblue" d="M991.91,-470.56C1005.98,-469.7 1020.38,-468.97 1034,-468.5 1164.58,-464.04 1317.33,-466.98 1402.65,-469.35"/>
<polygon fill="midnightblue" stroke="midnightblue" points="991.49,-467.08 981.73,-471.2 991.93,-474.06 991.49,-467.08"/>
</g>
<!-- Node12&#45;&gt;Node13 -->
<g id="edge12" class="edge">
<title>Node12&#45;&gt;Node13</title>
<path fill="none" stroke="orange" stroke-dasharray="5,2" d="M1197.94,-492.96C1257.99,-488.21 1343.94,-481.4 1402.86,-476.74"/>
<polygon fill="orange" stroke="orange" points="1197.48,-489.49 1187.79,-493.77 1198.03,-496.47 1197.48,-489.49"/>
<text text-anchor="start" x="1238" y="-503.5" font-family="Helvetica,sans-Serif" font-size="10.00"> &lt; LieGroupTrivialization</text>
<text text-anchor="middle" x="1298.5" y="-492.5" font-family="Helvetica,sans-Serif" font-size="10.00">::Right &gt;</text>
</g>
<!-- Node15 -->
<g id="node15" class="node">
<title>Node15</title>
<g id="a_node15"><a xlink:href="classBipedalLocomotion_1_1RobotInterface_1_1YarpSensorBridge.html" target="_top" xlink:title="YarpSensorBridge Yarp implementation of the ISensorBridge interface Currently available interfaces.">
<polygon fill="none" stroke="black" points="1053,-380 1053,-421 1201,-421 1201,-380 1053,-380"/>
<text text-anchor="start" x="1061" y="-409" font-family="Helvetica,sans-Serif" font-size="10.00">BipedalLocomotion::</text>
<text text-anchor="start" x="1061" y="-398" font-family="Helvetica,sans-Serif" font-size="10.00">RobotInterface::YarpSensor</text>
<text text-anchor="middle" x="1127" y="-387" font-family="Helvetica,sans-Serif" font-size="10.00">Bridge</text>
</a>
</g>
</g>
<!-- Node14&#45;&gt;Node15 -->
<g id="edge15" class="edge">
<title>Node14&#45;&gt;Node15</title>
<path fill="none" stroke="midnightblue" d="M995.86,-410.4C1014.81,-408.96 1034.5,-407.46 1052.64,-406.08"/>
<polygon fill="midnightblue" stroke="midnightblue" points="995.43,-406.92 985.72,-411.17 995.96,-413.9 995.43,-406.92"/>
</g>
<!-- Node17 -->
<g id="node17" class="node">
<title>Node17</title>
<g id="a_node17"><a xlink:href="classBipedalLocomotion_1_1Planners_1_1SwingFootPlanner.html" target="_top" xlink:title="SwingFootPlanner implement a minimum jerk trajectory planner for the swing foot.">
<polygon fill="none" stroke="black" points="1051,-330.5 1051,-360.5 1203,-360.5 1203,-330.5 1051,-330.5"/>
<text text-anchor="start" x="1059" y="-348.5" font-family="Helvetica,sans-Serif" font-size="10.00">BipedalLocomotion::</text>
<text text-anchor="middle" x="1127" y="-337.5" font-family="Helvetica,sans-Serif" font-size="10.00">Planners::SwingFootPlanner</text>
</a>
</g>
</g>
<!-- Node16&#45;&gt;Node17 -->
<g id="edge17" class="edge">
<title>Node16&#45;&gt;Node17</title>
<path fill="none" stroke="midnightblue" d="M1007.37,-351.87C1022,-351.08 1036.78,-350.29 1050.72,-349.54"/>
<polygon fill="midnightblue" stroke="midnightblue" points="1007.08,-348.38 997.28,-352.41 1007.46,-355.37 1007.08,-348.38"/>
</g>
<!-- Node19 -->
<g id="node19" class="node">
<title>Node19</title>
<g id="a_node19"><a xlink:href="classBipedalLocomotion_1_1Contacts_1_1ContactDetector.html" target="_top" xlink:title=" ">
<polygon fill="none" stroke="black" points="1054.5,-281.5 1054.5,-311.5 1199.5,-311.5 1199.5,-281.5 1054.5,-281.5"/>
<text text-anchor="start" x="1062.5" y="-299.5" font-family="Helvetica,sans-Serif" font-size="10.00">BipedalLocomotion::</text>
<text text-anchor="middle" x="1127" y="-288.5" font-family="Helvetica,sans-Serif" font-size="10.00">Contacts::ContactDetector</text>
</a>
</g>
</g>
<!-- Node18&#45;&gt;Node19 -->
<g id="edge19" class="edge">
<title>Node18&#45;&gt;Node19</title>
<path fill="none" stroke="midnightblue" d="M1007.66,-297.03C1023.51,-296.96 1039.54,-296.89 1054.47,-296.82"/>
<polygon fill="midnightblue" stroke="midnightblue" points="1007.27,-293.53 997.28,-297.08 1007.3,-300.53 1007.27,-293.53"/>
</g>
<!-- Node20 -->
<g id="node20" class="node">
<title>Node20</title>
<g id="a_node20"><a xlink:href="classBipedalLocomotion_1_1Contacts_1_1FixedFootDetector.html" target="_top" xlink:title="The FixedFootDetector is a class that can be used to find the fixed foot given a sequence of contacts...">
<polygon fill="none" stroke="black" points="1393,-305.5 1393,-335.5 1547,-335.5 1547,-305.5 1393,-305.5"/>
<text text-anchor="start" x="1401" y="-323.5" font-family="Helvetica,sans-Serif" font-size="10.00">BipedalLocomotion::</text>
<text text-anchor="middle" x="1470" y="-312.5" font-family="Helvetica,sans-Serif" font-size="10.00">Contacts::FixedFootDetector</text>
</a>
</g>
</g>
<!-- Node19&#45;&gt;Node20 -->
<g id="edge20" class="edge">
<title>Node19&#45;&gt;Node20</title>
<path fill="none" stroke="midnightblue" d="M1210.06,-302.28C1265.61,-306.19 1338.48,-311.31 1392.76,-315.13"/>
<polygon fill="midnightblue" stroke="midnightblue" points="1210.12,-298.77 1199.9,-301.56 1209.63,-305.75 1210.12,-298.77"/>
</g>
<!-- Node21 -->
<g id="node21" class="node">
<title>Node21</title>
<g id="a_node21"><a xlink:href="classBipedalLocomotion_1_1Contacts_1_1SchmittTriggerDetector.html" target="_top" xlink:title="Schmitt Trigger thresholding based contact detector that maintains and updates the contact states for...">
<polygon fill="none" stroke="black" points="1381,-256.5 1381,-286.5 1559,-286.5 1559,-256.5 1381,-256.5"/>
<text text-anchor="start" x="1389" y="-274.5" font-family="Helvetica,sans-Serif" font-size="10.00">BipedalLocomotion::</text>
<text text-anchor="middle" x="1470" y="-263.5" font-family="Helvetica,sans-Serif" font-size="10.00">Contacts::SchmittTriggerDetector</text>
</a>
</g>
</g>
<!-- Node19&#45;&gt;Node21 -->
<g id="edge21" class="edge">
<title>Node19&#45;&gt;Node21</title>
<path fill="none" stroke="midnightblue" d="M1210.01,-290.49C1261.59,-286.71 1328.12,-281.83 1380.84,-277.96"/>
<polygon fill="midnightblue" stroke="midnightblue" points="1209.62,-287.01 1199.9,-291.23 1210.13,-293.99 1209.62,-287.01"/>
</g>
<!-- Node23 -->
<g id="node23" class="node">
<title>Node23</title>
<g id="a_node23"><a xlink:href="classBipedalLocomotion_1_1Perception_1_1ArucoDetector.html" target="_top" xlink:title=" ">
<polygon fill="none" stroke="black" points="1055,-222.5 1055,-252.5 1199,-252.5 1199,-222.5 1055,-222.5"/>
<text text-anchor="start" x="1063" y="-240.5" font-family="Helvetica,sans-Serif" font-size="10.00">BipedalLocomotion::</text>
<text text-anchor="middle" x="1127" y="-229.5" font-family="Helvetica,sans-Serif" font-size="10.00">Perception::ArucoDetector</text>
</a>
</g>
</g>
<!-- Node22&#45;&gt;Node23 -->
<g id="edge23" class="edge">
<title>Node22&#45;&gt;Node23</title>
<path fill="none" stroke="midnightblue" d="M998.43,-237.5C1017.4,-237.5 1037,-237.5 1054.97,-237.5"/>
<polygon fill="midnightblue" stroke="midnightblue" points="998.27,-234 988.27,-237.5 998.27,-241 998.27,-234"/>
</g>
<!-- Node25 -->
<g id="node25" class="node">
<title>Node25</title>
<g id="a_node25"><a xlink:href="classBipedalLocomotion_1_1TSID_1_1TaskSpaceInverseDynamics.html" target="_top" xlink:title="TaskSpaceInverseDynamics implements the interface for the task space inverse dynamics.">
<polygon fill="none" stroke="black" points="1036.5,-167.5 1036.5,-197.5 1217.5,-197.5 1217.5,-167.5 1036.5,-167.5"/>
<text text-anchor="start" x="1044.5" y="-185.5" font-family="Helvetica,sans-Serif" font-size="10.00">BipedalLocomotion::</text>
<text text-anchor="middle" x="1127" y="-174.5" font-family="Helvetica,sans-Serif" font-size="10.00">TSID::TaskSpaceInverseDynamics</text>
</a>
</g>
</g>
<!-- Node24&#45;&gt;Node25 -->
<g id="edge25" class="edge">
<title>Node24&#45;&gt;Node25</title>
<path fill="none" stroke="midnightblue" d="M993.41,-182.5C1007.57,-182.5 1022.2,-182.5 1036.34,-182.5"/>
<polygon fill="midnightblue" stroke="midnightblue" points="993.19,-179 983.19,-182.5 993.19,-186 993.19,-179"/>
</g>
<!-- Node27 -->
<g id="node27" class="node">
<title>Node27</title>
<g id="a_node27"><a xlink:href="classBipedalLocomotion_1_1Planners_1_1DCMPlanner.html" target="_top" xlink:title="DCMPlanner defines a trajectory generator for the variable height Divergent component of motion (DCM)...">
<polygon fill="none" stroke="black" points="1064.5,-112.5 1064.5,-142.5 1189.5,-142.5 1189.5,-112.5 1064.5,-112.5"/>
<text text-anchor="start" x="1072.5" y="-130.5" font-family="Helvetica,sans-Serif" font-size="10.00">BipedalLocomotion::</text>
<text text-anchor="middle" x="1127" y="-119.5" font-family="Helvetica,sans-Serif" font-size="10.00">Planners::DCMPlanner</text>
</a>
</g>
</g>
<!-- Node26&#45;&gt;Node27 -->
<g id="edge27" class="edge">
<title>Node26&#45;&gt;Node27</title>
<path fill="none" stroke="midnightblue" d="M993.59,-127.5C1017.33,-127.5 1042.36,-127.5 1064.19,-127.5"/>
<polygon fill="midnightblue" stroke="midnightblue" points="993.5,-124 983.5,-127.5 993.5,-131 993.5,-124"/>
</g>
<!-- Node28 -->
<g id="node28" class="node">
<title>Node28</title>
<g id="a_node28"><a xlink:href="classBipedalLocomotion_1_1Planners_1_1TimeVaryingDCMPlanner.html" target="_top" xlink:title="DCMPlanner defines a trajectory generator for the variable height Divergent component of motion (DCM)...">
<polygon fill="none" stroke="black" points="1377,-112.5 1377,-142.5 1563,-142.5 1563,-112.5 1377,-112.5"/>
<text text-anchor="start" x="1385" y="-130.5" font-family="Helvetica,sans-Serif" font-size="10.00">BipedalLocomotion::</text>
<text text-anchor="middle" x="1470" y="-119.5" font-family="Helvetica,sans-Serif" font-size="10.00">Planners::TimeVaryingDCMPlanner</text>
</a>
</g>
</g>
<!-- Node27&#45;&gt;Node28 -->
<g id="edge28" class="edge">
<title>Node27&#45;&gt;Node28</title>
<path fill="none" stroke="midnightblue" d="M1199.8,-127.5C1251.34,-127.5 1321.21,-127.5 1376.86,-127.5"/>
<polygon fill="midnightblue" stroke="midnightblue" points="1199.75,-124 1189.75,-127.5 1199.75,-131 1199.75,-124"/>
</g>
<!-- Node30 -->
<g id="node30" class="node">
<title>Node30</title>
<g id="a_node30"><a xlink:href="classBipedalLocomotion_1_1Estimators_1_1FloatingBaseEstimator.html" target="_top" xlink:title="FloatingBaseEstimator class contains the bare&#45;bones implementation for a LeggedOdometry based or Exte...">
<polygon fill="none" stroke="black" points="1034,-52.5 1034,-82.5 1220,-82.5 1220,-52.5 1034,-52.5"/>
<text text-anchor="start" x="1042" y="-70.5" font-family="Helvetica,sans-Serif" font-size="10.00">BipedalLocomotion::</text>
<text text-anchor="middle" x="1127" y="-59.5" font-family="Helvetica,sans-Serif" font-size="10.00">Estimators::FloatingBaseEstimator</text>
</a>
</g>
</g>
<!-- Node29&#45;&gt;Node30 -->
<g id="edge30" class="edge">
<title>Node29&#45;&gt;Node30</title>
<path fill="none" stroke="midnightblue" d="M995.26,-67.5C1008.05,-67.5 1021.19,-67.5 1033.97,-67.5"/>
<polygon fill="midnightblue" stroke="midnightblue" points="995.09,-64 985.09,-67.5 995.09,-71 995.09,-64"/>
</g>
<!-- Node31 -->
<g id="node31" class="node">
<title>Node31</title>
<g id="a_node31"><a xlink:href="classBipedalLocomotion_1_1Estimators_1_1InvariantEKFBaseEstimator.html" target="_top" xlink:title="InvariantEKFBaseEstimator class implements the Contact Aided Invariant EKF algorithm,...">
<polygon fill="none" stroke="black" points="1389.5,-50 1389.5,-91 1550.5,-91 1550.5,-50 1389.5,-50"/>
<text text-anchor="start" x="1397.5" y="-79" font-family="Helvetica,sans-Serif" font-size="10.00">BipedalLocomotion::</text>
<text text-anchor="start" x="1397.5" y="-68" font-family="Helvetica,sans-Serif" font-size="10.00">Estimators::InvariantEKFBase</text>
<text text-anchor="middle" x="1470" y="-57" font-family="Helvetica,sans-Serif" font-size="10.00">Estimator</text>
</a>
</g>
</g>
<!-- Node30&#45;&gt;Node31 -->
<g id="edge31" class="edge">
<title>Node30&#45;&gt;Node31</title>
<path fill="none" stroke="midnightblue" d="M1230.33,-68.4C1281.29,-68.85 1341.97,-69.38 1389.39,-69.8"/>
<polygon fill="midnightblue" stroke="midnightblue" points="1230.31,-64.9 1220.28,-68.31 1230.25,-71.9 1230.31,-64.9"/>
</g>
<!-- Node32 -->
<g id="node32" class="node">
<title>Node32</title>
<g id="a_node32"><a xlink:href="classBipedalLocomotion_1_1Estimators_1_1LeggedOdometry.html" target="_top" xlink:title="Floating base estimation algorithm using only kinematic measurements by assuming atleast one frame on...">
<polygon fill="none" stroke="black" points="1390.5,-0.5 1390.5,-30.5 1549.5,-30.5 1549.5,-0.5 1390.5,-0.5"/>
<text text-anchor="start" x="1398.5" y="-18.5" font-family="Helvetica,sans-Serif" font-size="10.00">BipedalLocomotion::</text>
<text text-anchor="middle" x="1470" y="-7.5" font-family="Helvetica,sans-Serif" font-size="10.00">Estimators::LeggedOdometry</text>
</a>
</g>
</g>
<!-- Node30&#45;&gt;Node32 -->
<g id="edge32" class="edge">
<title>Node30&#45;&gt;Node32</title>
<path fill="none" stroke="midnightblue" d="M1230.39,-51.89C1281.64,-44.07 1342.71,-34.76 1390.24,-27.51"/>
<polygon fill="midnightblue" stroke="midnightblue" points="1229.64,-48.46 1220.28,-53.43 1230.69,-55.38 1229.64,-48.46"/>
</g>
</g>
</svg>
        <g id="navigator" transform="translate(0 0)" fill="#404254">
                <rect fill="#f2f5e9" fill-opacity="0.5" stroke="#606060" stroke-width=".5" x="0" y="0" width="60" height="60"/>
                <use id="zoomplus" xlink:href="#zoomPlus" x="17" y="9" onmousedown="handleZoom(evt,'in')"/>
                <use id="zoomminus" xlink:href="#zoomMin" x="42" y="9" onmousedown="handleZoom(evt,'out')"/>
                <use id="reset" xlink:href="#resetDef" x="30" y="36" onmousedown="handleReset()"/>
                <g id="arrowUp" xlink:href="#dirArrow" transform="translate(30 24)" onmousedown="handlePan(0,-1)">
                  <use xlink:href="#rim" fill="#404040">
                        <set attributeName="fill" to="#808080" begin="arrowUp.mouseover" end="arrowUp.mouseout"/>
                  </use>
                  <path fill="none" stroke="white" stroke-width="1.5" d="M0,-3.0v7 M-2.5,-0.5L0,-3.0L2.5,-0.5"/>
                </g>
                <g id="arrowRight" xlink:href="#dirArrow" transform="rotate(90) translate(36 -43)" onmousedown="handlePan(1,0)">
                  <use xlink:href="#rim" fill="#404040">
                        <set attributeName="fill" to="#808080" begin="arrowRight.mouseover" end="arrowRight.mouseout"/>
                  </use>
                  <path fill="none" stroke="white" stroke-width="1.5" d="M0,-3.0v7 M-2.5,-0.5L0,-3.0L2.5,-0.5"/>
                </g>
                <g id="arrowDown" xlink:href="#dirArrow" transform="rotate(180) translate(-30 -48)" onmousedown="handlePan(0,1)">
                  <use xlink:href="#rim" fill="#404040">
                        <set attributeName="fill" to="#808080" begin="arrowDown.mouseover" end="arrowDown.mouseout"/>
                  </use>
                  <path fill="none" stroke="white" stroke-width="1.5" d="M0,-3.0v7 M-2.5,-0.5L0,-3.0L2.5,-0.5"/>
                </g>
                <g id="arrowLeft" xlink:href="#dirArrow" transform="rotate(270) translate(-36 17)" onmousedown="handlePan(-1,0)">
                  <use xlink:href="#rim" fill="#404040">
                        <set attributeName="fill" to="#808080" begin="arrowLeft.mouseover" end="arrowLeft.mouseout"/>
                  </use>
                  <path fill="none" stroke="white" stroke-width="1.5" d="M0,-3.0v7 M-2.5,-0.5L0,-3.0L2.5,-0.5"/>
                </g>
        </g>
        <svg viewBox="0 0 15 15" width="100%" height="30px" preserveAspectRatio="xMaxYMin meet">
         <g id="arrow_out" transform="scale(0.3 0.3)">
          <a xlink:href="classBipedalLocomotion_1_1System_1_1Source__inherit__graph_org.svg" target="_base">
           <rect id="button" ry="5" rx="5" y="6" x="6" height="38" width="38"
                fill="#f2f5e9" fill-opacity="0.5" stroke="#606060" stroke-width="1.0"/>
           <path id="arrow"
             d="M 11.500037,31.436501 C 11.940474,20.09759 22.043105,11.32322 32.158766,21.979434 L 37.068811,17.246167 C 37.068811,17.246167 37.088388,32 37.088388,32 L 22.160133,31.978069 C 22.160133,31.978069 26.997745,27.140456 26.997745,27.140456 C 18.528582,18.264221 13.291696,25.230495 11.500037,31.436501 z"
             style="fill:#404040;"/>
          </a>
         </g>
        </svg>
</svg>
