<?xml version="1.0" encoding="UTF-8" standalone="no"?>
<!DOCTYPE svg PUBLIC "-//W3C//DTD SVG 1.1//EN"
 "http://www.w3.org/Graphics/SVG/1.1/DTD/svg11.dtd">
<!-- Generated by graphviz version 2.43.0 (0)
 -->
<!-- Title: BipedalLocomotion::System::SharedResource&lt; T &gt; Pages: 1 -->
<svg width="408pt" height="110pt"
 viewBox="0.00 0.00 408.00 110.00" xmlns="http://www.w3.org/2000/svg" xmlns:xlink="http://www.w3.org/1999/xlink">
<g id="graph0" class="graph" transform="scale(1 1) rotate(0) translate(4 106)">
<title>BipedalLocomotion::System::SharedResource&lt; T &gt;</title>
<!-- Node1 -->
<g id="node1" class="node">
<title>Node1</title>
<g id="a_node1"><a xlink:title="Basic class that contains a shared resource between two Block classes.">
<polygon fill="#bfbfbf" stroke="black" points="0,-36 0,-66 167,-66 167,-36 0,-36"/>
<text text-anchor="start" x="8" y="-54" font-family="Helvetica,sans-Serif" font-size="10.00">BipedalLocomotion::</text>
<text text-anchor="middle" x="83.5" y="-43" font-family="Helvetica,sans-Serif" font-size="10.00">System::SharedResource&lt; T &gt;</text>
</a>
</g>
</g>
<!-- Node2 -->
<g id="node2" class="node">
<title>Node2</title>
<g id="a_node2"><a xlink:href="classBipedalLocomotion_1_1System_1_1SharedResource.html" target="_top" xlink:title=" ">
<polygon fill="none" stroke="black" points="262,-60.5 262,-101.5 400,-101.5 400,-60.5 262,-60.5"/>
<text text-anchor="start" x="270" y="-89.5" font-family="Helvetica,sans-Serif" font-size="10.00">BipedalLocomotion::</text>
<text text-anchor="start" x="270" y="-78.5" font-family="Helvetica,sans-Serif" font-size="10.00">System::SharedResource</text>
<text text-anchor="middle" x="331" y="-67.5" font-family="Helvetica,sans-Serif" font-size="10.00">&lt; Input &gt;</text>
</a>
</g>
</g>
<!-- Node1&#45;&gt;Node2 -->
<g id="edge1" class="edge">
<title>Node1&#45;&gt;Node2</title>
<path fill="none" stroke="orange" stroke-dasharray="5,2" d="M177.49,-62.36C205.53,-65.79 235.77,-69.48 261.87,-72.67"/>
<polygon fill="orange" stroke="orange" points="177.62,-58.85 167.27,-61.11 176.77,-65.8 177.62,-58.85"/>
<text text-anchor="middle" x="214.5" y="-73" font-family="Helvetica,sans-Serif" font-size="10.00"> &lt; Input &gt;</text>
</g>
<!-- Node3 -->
<g id="node3" class="node">
<title>Node3</title>
<g id="a_node3"><a xlink:href="classBipedalLocomotion_1_1System_1_1SharedResource.html" target="_top" xlink:title=" ">
<polygon fill="none" stroke="black" points="262,-0.5 262,-41.5 400,-41.5 400,-0.5 262,-0.5"/>
<text text-anchor="start" x="270" y="-29.5" font-family="Helvetica,sans-Serif" font-size="10.00">BipedalLocomotion::</text>
<text text-anchor="start" x="270" y="-18.5" font-family="Helvetica,sans-Serif" font-size="10.00">System::SharedResource</text>
<text text-anchor="middle" x="331" y="-7.5" font-family="Helvetica,sans-Serif" font-size="10.00">&lt; Output &gt;</text>
</a>
</g>
</g>
<!-- Node1&#45;&gt;Node3 -->
<g id="edge2" class="edge">
<title>Node1&#45;&gt;Node3</title>
<path fill="none" stroke="orange" stroke-dasharray="5,2" d="M177.49,-39.64C205.53,-36.21 235.77,-32.52 261.87,-29.33"/>
<polygon fill="orange" stroke="orange" points="176.77,-36.2 167.27,-40.89 177.62,-43.15 176.77,-36.2"/>
<text text-anchor="middle" x="214.5" y="-41" font-family="Helvetica,sans-Serif" font-size="10.00"> &lt; Output &gt;</text>
</g>
</g>
</svg>
