<?xml version="1.0" encoding="UTF-8" standalone="no"?>
<!DOCTYPE svg PUBLIC "-//W3C//DTD SVG 1.1//EN"
 "http://www.w3.org/Graphics/SVG/1.1/DTD/svg11.dtd">
<!-- Generated by graphviz version 2.43.0 (0)
 -->
<!-- Title: BipedalLocomotion::RobotInterface::YarpSensorBridge Pages: 1 -->
<svg width="1325pt" height="130pt"
 viewBox="0.00 0.00 1325.00 129.50" xmlns="http://www.w3.org/2000/svg" xmlns:xlink="http://www.w3.org/1999/xlink">
<g id="graph0" class="graph" transform="scale(1 1) rotate(0) translate(4 125.5)">
<title>BipedalLocomotion::RobotInterface::YarpSensorBridge</title>
<!-- Node1 -->
<g id="node1" class="node">
<title>Node1</title>
<g id="a_node1"><a xlink:title="YarpSensorBridge Yarp implementation of the ISensorBridge interface Currently available interfaces.">
<polygon fill="#bfbfbf" stroke="black" points="1169,-57.5 1169,-98.5 1317,-98.5 1317,-57.5 1169,-57.5"/>
<text text-anchor="start" x="1177" y="-86.5" font-family="Helvetica,sans-Serif" font-size="10.00">BipedalLocomotion::</text>
<text text-anchor="start" x="1177" y="-75.5" font-family="Helvetica,sans-Serif" font-size="10.00">RobotInterface::YarpSensor</text>
<text text-anchor="middle" x="1243" y="-64.5" font-family="Helvetica,sans-Serif" font-size="10.00">Bridge</text>
</a>
</g>
</g>
<!-- Node2 -->
<g id="node2" class="node">
<title>Node2</title>
<g id="a_node2"><a xlink:href="classBipedalLocomotion_1_1RobotInterface_1_1ISensorBridge.html" target="_top" xlink:title="Sensor bridge interface.">
<polygon fill="none" stroke="black" points="967,-91 967,-121 1129,-121 1129,-91 967,-91"/>
<text text-anchor="start" x="975" y="-109" font-family="Helvetica,sans-Serif" font-size="10.00">BipedalLocomotion::</text>
<text text-anchor="middle" x="1048" y="-98" font-family="Helvetica,sans-Serif" font-size="10.00">RobotInterface::ISensorBridge</text>
</a>
</g>
</g>
<!-- Node2&#45;&gt;Node1 -->
<g id="edge1" class="edge">
<title>Node2&#45;&gt;Node1</title>
<path fill="none" stroke="midnightblue" d="M1139.1,-92.93C1149.07,-91.48 1159.14,-90.02 1168.87,-88.61"/>
<polygon fill="midnightblue" stroke="midnightblue" points="1138.57,-89.47 1129.17,-94.37 1139.57,-96.4 1138.57,-89.47"/>
</g>
<!-- Node3 -->
<g id="node3" class="node">
<title>Node3</title>
<g id="a_node3"><a xlink:href="classBipedalLocomotion_1_1System_1_1Source.html" target="_top" xlink:title=" ">
<polygon fill="none" stroke="black" points="964,-30.5 964,-71.5 1132,-71.5 1132,-30.5 964,-30.5"/>
<text text-anchor="start" x="972" y="-59.5" font-family="Helvetica,sans-Serif" font-size="10.00">BipedalLocomotion::</text>
<text text-anchor="start" x="972" y="-48.5" font-family="Helvetica,sans-Serif" font-size="10.00">System::Source&lt; SensorBridge</text>
<text text-anchor="middle" x="1048" y="-37.5" font-family="Helvetica,sans-Serif" font-size="10.00">MetaData &gt;</text>
</a>
</g>
</g>
<!-- Node3&#45;&gt;Node1 -->
<g id="edge2" class="edge">
<title>Node3&#45;&gt;Node1</title>
<path fill="none" stroke="midnightblue" d="M1142.26,-64.05C1151.15,-65.29 1160.08,-66.54 1168.74,-67.75"/>
<polygon fill="midnightblue" stroke="midnightblue" points="1142.64,-60.57 1132.25,-62.65 1141.67,-67.5 1142.64,-60.57"/>
</g>
<!-- Node4 -->
<g id="node4" class="node">
<title>Node4</title>
<g id="a_node4"><a xlink:href="classBipedalLocomotion_1_1System_1_1Advanceable.html" target="_top" xlink:title=" ">
<polygon fill="none" stroke="black" points="463,-43 463,-95 623,-95 623,-43 463,-43"/>
<text text-anchor="start" x="471" y="-83" font-family="Helvetica,sans-Serif" font-size="10.00">BipedalLocomotion::</text>
<text text-anchor="start" x="471" y="-72" font-family="Helvetica,sans-Serif" font-size="10.00">System::Advanceable</text>
<text text-anchor="start" x="471" y="-61" font-family="Helvetica,sans-Serif" font-size="10.00">&lt; EmptySignal, SensorBridge</text>
<text text-anchor="middle" x="543" y="-50" font-family="Helvetica,sans-Serif" font-size="10.00">MetaData &gt;</text>
</a>
</g>
</g>
<!-- Node4&#45;&gt;Node3 -->
<g id="edge3" class="edge">
<title>Node4&#45;&gt;Node3</title>
<path fill="none" stroke="midnightblue" d="M633.55,-66C715.02,-63.25 838.59,-59 946,-55 951.79,-54.78 957.76,-54.56 963.78,-54.33"/>
<polygon fill="midnightblue" stroke="midnightblue" points="633.21,-62.51 623.33,-66.35 633.44,-69.51 633.21,-62.51"/>
</g>
<!-- Node5 -->
<g id="node5" class="node">
<title>Node5</title>
<g id="a_node5"><a xlink:href="classBipedalLocomotion_1_1System_1_1Advanceable.html" target="_top" xlink:title="Basic class that represents a discrete system.">
<polygon fill="none" stroke="black" points="0,-25.5 0,-66.5 122,-66.5 122,-25.5 0,-25.5"/>
<text text-anchor="start" x="8" y="-54.5" font-family="Helvetica,sans-Serif" font-size="10.00">BipedalLocomotion::</text>
<text text-anchor="start" x="8" y="-43.5" font-family="Helvetica,sans-Serif" font-size="10.00">System::Advanceable</text>
<text text-anchor="middle" x="61" y="-32.5" font-family="Helvetica,sans-Serif" font-size="10.00">&lt; _Input, _Output &gt;</text>
</a>
</g>
</g>
<!-- Node5&#45;&gt;Node4 -->
<g id="edge4" class="edge">
<title>Node5&#45;&gt;Node4</title>
<path fill="none" stroke="orange" stroke-dasharray="5,2" d="M132.47,-49.38C220.54,-53.6 370.86,-60.8 462.82,-65.21"/>
<polygon fill="orange" stroke="orange" points="132.46,-45.87 122.31,-48.89 132.13,-52.86 132.46,-45.87"/>
<text text-anchor="start" x="140" y="-71" font-family="Helvetica,sans-Serif" font-size="10.00"> &lt; EmptySignal, SensorBridge</text>
<text text-anchor="middle" x="213.5" y="-60" font-family="Helvetica,sans-Serif" font-size="10.00">MetaData &gt;</text>
</g>
<!-- Node7 -->
<g id="node7" class="node">
<title>Node7</title>
<g id="a_node7"><a xlink:href="classBipedalLocomotion_1_1System_1_1Advanceable.html" target="_top" xlink:title=" ">
<polygon fill="none" stroke="black" points="305,-0.5 305,-41.5 445,-41.5 445,-0.5 305,-0.5"/>
<text text-anchor="start" x="313" y="-29.5" font-family="Helvetica,sans-Serif" font-size="10.00">BipedalLocomotion::</text>
<text text-anchor="start" x="313" y="-18.5" font-family="Helvetica,sans-Serif" font-size="10.00">System::Advanceable</text>
<text text-anchor="middle" x="375" y="-7.5" font-family="Helvetica,sans-Serif" font-size="10.00">&lt; EmptySignal, Output &gt;</text>
</a>
</g>
</g>
<!-- Node5&#45;&gt;Node7 -->
<g id="edge7" class="edge">
<title>Node5&#45;&gt;Node7</title>
<path fill="none" stroke="orange" stroke-dasharray="5,2" d="M132.22,-37.74C134.85,-37.48 137.45,-37.23 140,-37 195.35,-31.92 258.2,-27.71 304.82,-24.88"/>
<polygon fill="orange" stroke="orange" points="131.61,-34.29 122.01,-38.79 132.32,-41.25 131.61,-34.29"/>
<text text-anchor="middle" x="213.5" y="-40" font-family="Helvetica,sans-Serif" font-size="10.00"> &lt; EmptySignal, Output &gt;</text>
</g>
<!-- Node6 -->
<g id="node6" class="node">
<title>Node6</title>
<g id="a_node6"><a xlink:href="classBipedalLocomotion_1_1System_1_1Source.html" target="_top" xlink:title="Source is a template specialization of Advanceable and represents a block that does not contains inpu...">
<polygon fill="none" stroke="black" points="641,-9 641,-39 789,-39 789,-9 641,-9"/>
<text text-anchor="start" x="649" y="-27" font-family="Helvetica,sans-Serif" font-size="10.00">BipedalLocomotion::</text>
<text text-anchor="middle" x="715" y="-16" font-family="Helvetica,sans-Serif" font-size="10.00">System::Source&lt; Output &gt;</text>
</a>
</g>
</g>
<!-- Node6&#45;&gt;Node3 -->
<g id="edge5" class="edge">
<title>Node6&#45;&gt;Node3</title>
<path fill="none" stroke="orange" stroke-dasharray="5,2" d="M799.26,-30.79C849.62,-34.9 913.61,-40.12 963.94,-44.22"/>
<polygon fill="orange" stroke="orange" points="799.3,-27.28 789.05,-29.96 798.73,-34.26 799.3,-27.28"/>
<text text-anchor="middle" x="876.5" y="-46" font-family="Helvetica,sans-Serif" font-size="10.00"> &lt; SensorBridgeMetaData &gt;</text>
</g>
<!-- Node7&#45;&gt;Node6 -->
<g id="edge6" class="edge">
<title>Node7&#45;&gt;Node6</title>
<path fill="none" stroke="midnightblue" d="M455.46,-21.71C511.55,-22.2 586.14,-22.87 640.78,-23.35"/>
<polygon fill="midnightblue" stroke="midnightblue" points="455.25,-18.2 445.21,-21.61 455.18,-25.2 455.25,-18.2"/>
</g>
</g>
</svg>
