<?xml version="1.0" encoding="UTF-8" standalone="no"?>
<!DOCTYPE svg PUBLIC "-//W3C//DTD SVG 1.1//EN"
 "http://www.w3.org/Graphics/SVG/1.1/DTD/svg11.dtd">
<!-- Generated by graphviz version 2.43.0 (0)
 -->
<!-- Title: BipedalLocomotion::TSID::TaskSpaceInverseDynamics Pages: 1 -->
<svg width="1278pt" height="98pt"
 viewBox="0.00 0.00 1278.00 98.00" xmlns="http://www.w3.org/2000/svg" xmlns:xlink="http://www.w3.org/1999/xlink">
<g id="graph0" class="graph" transform="scale(1 1) rotate(0) translate(4 94)">
<title>BipedalLocomotion::TSID::TaskSpaceInverseDynamics</title>
<!-- Node1 -->
<g id="node1" class="node">
<title>Node1</title>
<g id="a_node1"><a xlink:title="TaskSpaceInverseDynamics implements the interface for the task space inverse dynamics.">
<polygon fill="#bfbfbf" stroke="black" points="1089,-36 1089,-66 1270,-66 1270,-36 1089,-36"/>
<text text-anchor="start" x="1097" y="-54" font-family="Helvetica,sans-Serif" font-size="10.00">BipedalLocomotion::</text>
<text text-anchor="middle" x="1179.5" y="-43" font-family="Helvetica,sans-Serif" font-size="10.00">TSID::TaskSpaceInverseDynamics</text>
</a>
</g>
</g>
<!-- Node2 -->
<g id="node2" class="node">
<title>Node2</title>
<g id="a_node2"><a xlink:href="classBipedalLocomotion_1_1System_1_1Source.html" target="_top" xlink:title=" ">
<polygon fill="none" stroke="black" points="889,-36 889,-66 1052,-66 1052,-36 889,-36"/>
<text text-anchor="start" x="897" y="-54" font-family="Helvetica,sans-Serif" font-size="10.00">BipedalLocomotion::</text>
<text text-anchor="middle" x="970.5" y="-43" font-family="Helvetica,sans-Serif" font-size="10.00">System::Source&lt; TSIDState &gt;</text>
</a>
</g>
</g>
<!-- Node2&#45;&gt;Node1 -->
<g id="edge1" class="edge">
<title>Node2&#45;&gt;Node1</title>
<path fill="none" stroke="midnightblue" d="M1062.36,-51C1071.15,-51 1080.06,-51 1088.83,-51"/>
<polygon fill="midnightblue" stroke="midnightblue" points="1062.12,-47.5 1052.12,-51 1062.12,-54.5 1062.12,-47.5"/>
</g>
<!-- Node3 -->
<g id="node3" class="node">
<title>Node3</title>
<g id="a_node3"><a xlink:href="classBipedalLocomotion_1_1System_1_1Advanceable.html" target="_top" xlink:title=" ">
<polygon fill="none" stroke="black" points="458,-48.5 458,-89.5 613,-89.5 613,-48.5 458,-48.5"/>
<text text-anchor="start" x="466" y="-77.5" font-family="Helvetica,sans-Serif" font-size="10.00">BipedalLocomotion::</text>
<text text-anchor="start" x="466" y="-66.5" font-family="Helvetica,sans-Serif" font-size="10.00">System::Advanceable</text>
<text text-anchor="middle" x="535.5" y="-55.5" font-family="Helvetica,sans-Serif" font-size="10.00">&lt; EmptySignal, TSIDState &gt;</text>
</a>
</g>
</g>
<!-- Node3&#45;&gt;Node2 -->
<g id="edge2" class="edge">
<title>Node3&#45;&gt;Node2</title>
<path fill="none" stroke="midnightblue" d="M623.63,-65.38C701.1,-62.16 813.47,-57.49 888.9,-54.35"/>
<polygon fill="midnightblue" stroke="midnightblue" points="623.26,-61.89 613.41,-65.8 623.55,-68.88 623.26,-61.89"/>
</g>
<!-- Node4 -->
<g id="node4" class="node">
<title>Node4</title>
<g id="a_node4"><a xlink:href="classBipedalLocomotion_1_1System_1_1Advanceable.html" target="_top" xlink:title="Basic class that represents a discrete system.">
<polygon fill="none" stroke="black" points="0,-25.5 0,-66.5 122,-66.5 122,-25.5 0,-25.5"/>
<text text-anchor="start" x="8" y="-54.5" font-family="Helvetica,sans-Serif" font-size="10.00">BipedalLocomotion::</text>
<text text-anchor="start" x="8" y="-43.5" font-family="Helvetica,sans-Serif" font-size="10.00">System::Advanceable</text>
<text text-anchor="middle" x="61" y="-32.5" font-family="Helvetica,sans-Serif" font-size="10.00">&lt; _Input, _Output &gt;</text>
</a>
</g>
</g>
<!-- Node4&#45;&gt;Node3 -->
<g id="edge3" class="edge">
<title>Node4&#45;&gt;Node3</title>
<path fill="none" stroke="orange" stroke-dasharray="5,2" d="M132.39,-49.43C219.6,-53.67 367.66,-60.88 457.73,-65.26"/>
<polygon fill="orange" stroke="orange" points="132.48,-45.93 122.32,-48.94 132.14,-52.92 132.48,-45.93"/>
<text text-anchor="middle" x="211" y="-60" font-family="Helvetica,sans-Serif" font-size="10.00"> &lt; EmptySignal, TSIDState &gt;</text>
</g>
<!-- Node6 -->
<g id="node6" class="node">
<title>Node6</title>
<g id="a_node6"><a xlink:href="classBipedalLocomotion_1_1System_1_1Advanceable.html" target="_top" xlink:title=" ">
<polygon fill="none" stroke="black" points="300,-0.5 300,-41.5 440,-41.5 440,-0.5 300,-0.5"/>
<text text-anchor="start" x="308" y="-29.5" font-family="Helvetica,sans-Serif" font-size="10.00">BipedalLocomotion::</text>
<text text-anchor="start" x="308" y="-18.5" font-family="Helvetica,sans-Serif" font-size="10.00">System::Advanceable</text>
<text text-anchor="middle" x="370" y="-7.5" font-family="Helvetica,sans-Serif" font-size="10.00">&lt; EmptySignal, Output &gt;</text>
</a>
</g>
</g>
<!-- Node4&#45;&gt;Node6 -->
<g id="edge6" class="edge">
<title>Node4&#45;&gt;Node6</title>
<path fill="none" stroke="orange" stroke-dasharray="5,2" d="M132.22,-37.75C134.85,-37.49 137.45,-37.24 140,-37 193.57,-32.04 254.33,-27.86 299.79,-25.02"/>
<polygon fill="orange" stroke="orange" points="131.6,-34.29 122.02,-38.8 132.32,-41.26 131.6,-34.29"/>
<text text-anchor="middle" x="211" y="-40" font-family="Helvetica,sans-Serif" font-size="10.00"> &lt; EmptySignal, Output &gt;</text>
</g>
<!-- Node5 -->
<g id="node5" class="node">
<title>Node5</title>
<g id="a_node5"><a xlink:href="classBipedalLocomotion_1_1System_1_1Source.html" target="_top" xlink:title="Source is a template specialization of Advanceable and represents a block that does not contains inpu...">
<polygon fill="none" stroke="black" points="631,-9 631,-39 779,-39 779,-9 631,-9"/>
<text text-anchor="start" x="639" y="-27" font-family="Helvetica,sans-Serif" font-size="10.00">BipedalLocomotion::</text>
<text text-anchor="middle" x="705" y="-16" font-family="Helvetica,sans-Serif" font-size="10.00">System::Source&lt; Output &gt;</text>
</a>
</g>
</g>
<!-- Node5&#45;&gt;Node2 -->
<g id="edge4" class="edge">
<title>Node5&#45;&gt;Node2</title>
<path fill="none" stroke="orange" stroke-dasharray="5,2" d="M789.22,-32.53C821.06,-35.79 857.3,-39.5 888.9,-42.74"/>
<polygon fill="orange" stroke="orange" points="789.35,-29.02 779.05,-31.49 788.64,-35.99 789.35,-29.02"/>
<text text-anchor="middle" x="834" y="-44" font-family="Helvetica,sans-Serif" font-size="10.00"> &lt; TSIDState &gt;</text>
</g>
<!-- Node6&#45;&gt;Node5 -->
<g id="edge5" class="edge">
<title>Node6&#45;&gt;Node5</title>
<path fill="none" stroke="midnightblue" d="M450.42,-21.72C505.23,-22.21 577.56,-22.86 630.94,-23.34"/>
<polygon fill="midnightblue" stroke="midnightblue" points="450.43,-18.22 440.4,-21.63 450.37,-25.22 450.43,-18.22"/>
</g>
</g>
</svg>
