<?xml version="1.0" encoding="UTF-8" standalone="no"?>
<!DOCTYPE svg PUBLIC "-//W3C//DTD SVG 1.1//EN"
 "http://www.w3.org/Graphics/SVG/1.1/DTD/svg11.dtd">
<!-- Generated by graphviz version 2.43.0 (0)
 -->
<!-- Title: BipedalLocomotion::Planners::TimeVaryingDCMPlanner Pages: 1 -->
<svg width="1521pt" height="98pt"
 viewBox="0.00 0.00 1521.00 98.00" xmlns="http://www.w3.org/2000/svg" xmlns:xlink="http://www.w3.org/1999/xlink">
<g id="graph0" class="graph" transform="scale(1 1) rotate(0) translate(4 94)">
<title>BipedalLocomotion::Planners::TimeVaryingDCMPlanner</title>
<!-- Node1 -->
<g id="node1" class="node">
<title>Node1</title>
<g id="a_node1"><a xlink:title="DCMPlanner defines a trajectory generator for the variable height Divergent component of motion (DCM)...">
<polygon fill="#bfbfbf" stroke="black" points="1327,-36 1327,-66 1513,-66 1513,-36 1327,-36"/>
<text text-anchor="start" x="1335" y="-54" font-family="Helvetica,sans-Serif" font-size="10.00">BipedalLocomotion::</text>
<text text-anchor="middle" x="1420" y="-43" font-family="Helvetica,sans-Serif" font-size="10.00">Planners::TimeVaryingDCMPlanner</text>
</a>
</g>
</g>
<!-- Node2 -->
<g id="node2" class="node">
<title>Node2</title>
<g id="a_node2"><a xlink:href="classBipedalLocomotion_1_1Planners_1_1DCMPlanner.html" target="_top" xlink:title="DCMPlanner defines a trajectory generator for the variable height Divergent component of motion (DCM)...">
<polygon fill="none" stroke="black" points="1165,-36 1165,-66 1290,-66 1290,-36 1165,-36"/>
<text text-anchor="start" x="1173" y="-54" font-family="Helvetica,sans-Serif" font-size="10.00">BipedalLocomotion::</text>
<text text-anchor="middle" x="1227.5" y="-43" font-family="Helvetica,sans-Serif" font-size="10.00">Planners::DCMPlanner</text>
</a>
</g>
</g>
<!-- Node2&#45;&gt;Node1 -->
<g id="edge1" class="edge">
<title>Node2&#45;&gt;Node1</title>
<path fill="none" stroke="midnightblue" d="M1300.16,-51C1308.87,-51 1317.85,-51 1326.8,-51"/>
<polygon fill="midnightblue" stroke="midnightblue" points="1300.09,-47.5 1290.09,-51 1300.09,-54.5 1300.09,-47.5"/>
</g>
<!-- Node3 -->
<g id="node3" class="node">
<title>Node3</title>
<g id="a_node3"><a xlink:href="classBipedalLocomotion_1_1System_1_1Source.html" target="_top" xlink:title=" ">
<polygon fill="none" stroke="black" points="964,-30.5 964,-71.5 1128,-71.5 1128,-30.5 964,-30.5"/>
<text text-anchor="start" x="972" y="-59.5" font-family="Helvetica,sans-Serif" font-size="10.00">BipedalLocomotion::</text>
<text text-anchor="start" x="972" y="-48.5" font-family="Helvetica,sans-Serif" font-size="10.00">System::Source&lt; DCMPlanner</text>
<text text-anchor="middle" x="1046" y="-37.5" font-family="Helvetica,sans-Serif" font-size="10.00">State &gt;</text>
</a>
</g>
</g>
<!-- Node3&#45;&gt;Node2 -->
<g id="edge2" class="edge">
<title>Node3&#45;&gt;Node2</title>
<path fill="none" stroke="midnightblue" d="M1138.25,-51C1147.27,-51 1156.26,-51 1164.87,-51"/>
<polygon fill="midnightblue" stroke="midnightblue" points="1138.09,-47.5 1128.09,-51 1138.08,-54.5 1138.09,-47.5"/>
</g>
<!-- Node4 -->
<g id="node4" class="node">
<title>Node4</title>
<g id="a_node4"><a xlink:href="classBipedalLocomotion_1_1System_1_1Advanceable.html" target="_top" xlink:title=" ">
<polygon fill="none" stroke="black" points="458,-48.5 458,-89.5 650,-89.5 650,-48.5 458,-48.5"/>
<text text-anchor="start" x="466" y="-77.5" font-family="Helvetica,sans-Serif" font-size="10.00">BipedalLocomotion::</text>
<text text-anchor="start" x="466" y="-66.5" font-family="Helvetica,sans-Serif" font-size="10.00">System::Advanceable</text>
<text text-anchor="middle" x="554" y="-55.5" font-family="Helvetica,sans-Serif" font-size="10.00">&lt; EmptySignal, DCMPlannerState &gt;</text>
</a>
</g>
</g>
<!-- Node4&#45;&gt;Node3 -->
<g id="edge3" class="edge">
<title>Node4&#45;&gt;Node3</title>
<path fill="none" stroke="midnightblue" d="M660.62,-65.35C739.3,-62.6 849.37,-58.68 946,-55 951.84,-54.78 957.88,-54.54 963.96,-54.3"/>
<polygon fill="midnightblue" stroke="midnightblue" points="660.09,-61.87 650.21,-65.71 660.33,-68.86 660.09,-61.87"/>
</g>
<!-- Node5 -->
<g id="node5" class="node">
<title>Node5</title>
<g id="a_node5"><a xlink:href="classBipedalLocomotion_1_1System_1_1Advanceable.html" target="_top" xlink:title="Basic class that represents a discrete system.">
<polygon fill="none" stroke="black" points="0,-25.5 0,-66.5 122,-66.5 122,-25.5 0,-25.5"/>
<text text-anchor="start" x="8" y="-54.5" font-family="Helvetica,sans-Serif" font-size="10.00">BipedalLocomotion::</text>
<text text-anchor="start" x="8" y="-43.5" font-family="Helvetica,sans-Serif" font-size="10.00">System::Advanceable</text>
<text text-anchor="middle" x="61" y="-32.5" font-family="Helvetica,sans-Serif" font-size="10.00">&lt; _Input, _Output &gt;</text>
</a>
</g>
</g>
<!-- Node5&#45;&gt;Node4 -->
<g id="edge4" class="edge">
<title>Node5&#45;&gt;Node4</title>
<path fill="none" stroke="orange" stroke-dasharray="5,2" d="M132.33,-49.29C217.78,-53.3 362.32,-60.07 457.71,-64.54"/>
<polygon fill="orange" stroke="orange" points="132.36,-45.79 122.21,-48.82 132.03,-52.78 132.36,-45.79"/>
<text text-anchor="start" x="140" y="-71" font-family="Helvetica,sans-Serif" font-size="10.00"> &lt; EmptySignal, DCMPlanner</text>
<text text-anchor="middle" x="211" y="-60" font-family="Helvetica,sans-Serif" font-size="10.00">State &gt;</text>
</g>
<!-- Node7 -->
<g id="node7" class="node">
<title>Node7</title>
<g id="a_node7"><a xlink:href="classBipedalLocomotion_1_1System_1_1Advanceable.html" target="_top" xlink:title=" ">
<polygon fill="none" stroke="black" points="300,-0.5 300,-41.5 440,-41.5 440,-0.5 300,-0.5"/>
<text text-anchor="start" x="308" y="-29.5" font-family="Helvetica,sans-Serif" font-size="10.00">BipedalLocomotion::</text>
<text text-anchor="start" x="308" y="-18.5" font-family="Helvetica,sans-Serif" font-size="10.00">System::Advanceable</text>
<text text-anchor="middle" x="370" y="-7.5" font-family="Helvetica,sans-Serif" font-size="10.00">&lt; EmptySignal, Output &gt;</text>
</a>
</g>
</g>
<!-- Node5&#45;&gt;Node7 -->
<g id="edge7" class="edge">
<title>Node5&#45;&gt;Node7</title>
<path fill="none" stroke="orange" stroke-dasharray="5,2" d="M132.22,-37.75C134.85,-37.49 137.45,-37.24 140,-37 193.57,-32.04 254.33,-27.86 299.79,-25.02"/>
<polygon fill="orange" stroke="orange" points="131.6,-34.29 122.02,-38.8 132.32,-41.26 131.6,-34.29"/>
<text text-anchor="middle" x="211" y="-40" font-family="Helvetica,sans-Serif" font-size="10.00"> &lt; EmptySignal, Output &gt;</text>
</g>
<!-- Node6 -->
<g id="node6" class="node">
<title>Node6</title>
<g id="a_node6"><a xlink:href="classBipedalLocomotion_1_1System_1_1Source.html" target="_top" xlink:title="Source is a template specialization of Advanceable and represents a block that does not contains inpu...">
<polygon fill="none" stroke="black" points="668,-9 668,-39 816,-39 816,-9 668,-9"/>
<text text-anchor="start" x="676" y="-27" font-family="Helvetica,sans-Serif" font-size="10.00">BipedalLocomotion::</text>
<text text-anchor="middle" x="742" y="-16" font-family="Helvetica,sans-Serif" font-size="10.00">System::Source&lt; Output &gt;</text>
</a>
</g>
</g>
<!-- Node6&#45;&gt;Node3 -->
<g id="edge5" class="edge">
<title>Node6&#45;&gt;Node3</title>
<path fill="none" stroke="orange" stroke-dasharray="5,2" d="M826.23,-31.44C869.12,-35.28 921.21,-39.93 963.8,-43.74"/>
<polygon fill="orange" stroke="orange" points="826.38,-27.94 816.11,-30.54 825.75,-34.91 826.38,-27.94"/>
<text text-anchor="middle" x="890" y="-45" font-family="Helvetica,sans-Serif" font-size="10.00"> &lt; DCMPlannerState &gt;</text>
</g>
<!-- Node7&#45;&gt;Node6 -->
<g id="edge6" class="edge">
<title>Node7&#45;&gt;Node6</title>
<path fill="none" stroke="midnightblue" d="M450.28,-21.64C514.73,-22.17 604.97,-22.9 667.75,-23.41"/>
<polygon fill="midnightblue" stroke="midnightblue" points="450.19,-18.14 440.16,-21.56 450.13,-25.14 450.19,-18.14"/>
</g>
</g>
</svg>
