<?xml version="1.0" encoding="UTF-8" standalone="no"?>
<!DOCTYPE svg PUBLIC "-//W3C//DTD SVG 1.1//EN"
 "http://www.w3.org/Graphics/SVG/1.1/DTD/svg11.dtd">
<!-- Generated by graphviz version 2.43.0 (0)
 -->
<!-- Title: BipedalLocomotion::Estimators::LeggedOdometry Pages: 1 -->
<svg width="1548pt" height="104pt"
 viewBox="0.00 0.00 1548.00 103.50" xmlns="http://www.w3.org/2000/svg" xmlns:xlink="http://www.w3.org/1999/xlink">
<g id="graph0" class="graph" transform="scale(1 1) rotate(0) translate(4 99.5)">
<title>BipedalLocomotion::Estimators::LeggedOdometry</title>
<!-- Node1 -->
<g id="node1" class="node">
<title>Node1</title>
<g id="a_node1"><a xlink:title="Floating base estimation algorithm using only kinematic measurements by assuming atleast one frame on...">
<polygon fill="#bfbfbf" stroke="black" points="1381,-33 1381,-63 1540,-63 1540,-33 1381,-33"/>
<text text-anchor="start" x="1389" y="-51" font-family="Helvetica,sans-Serif" font-size="10.00">BipedalLocomotion::</text>
<text text-anchor="middle" x="1460.5" y="-40" font-family="Helvetica,sans-Serif" font-size="10.00">Estimators::LeggedOdometry</text>
</a>
</g>
</g>
<!-- Node2 -->
<g id="node2" class="node">
<title>Node2</title>
<g id="a_node2"><a xlink:href="classBipedalLocomotion_1_1Estimators_1_1FloatingBaseEstimator.html" target="_top" xlink:title="FloatingBaseEstimator class contains the bare&#45;bones implementation for a LeggedOdometry based or Exte...">
<polygon fill="none" stroke="black" points="1158,-33 1158,-63 1344,-63 1344,-33 1158,-33"/>
<text text-anchor="start" x="1166" y="-51" font-family="Helvetica,sans-Serif" font-size="10.00">BipedalLocomotion::</text>
<text text-anchor="middle" x="1251" y="-40" font-family="Helvetica,sans-Serif" font-size="10.00">Estimators::FloatingBaseEstimator</text>
</a>
</g>
</g>
<!-- Node2&#45;&gt;Node1 -->
<g id="edge1" class="edge">
<title>Node2&#45;&gt;Node1</title>
<path fill="none" stroke="midnightblue" d="M1354.29,-48C1363.22,-48 1372.17,-48 1380.87,-48"/>
<polygon fill="midnightblue" stroke="midnightblue" points="1354.22,-44.5 1344.22,-48 1354.22,-51.5 1354.22,-44.5"/>
</g>
<!-- Node3 -->
<g id="node3" class="node">
<title>Node3</title>
<g id="a_node3"><a xlink:href="classBipedalLocomotion_1_1System_1_1Source.html" target="_top" xlink:title=" ">
<polygon fill="none" stroke="black" points="954,-27.5 954,-68.5 1121,-68.5 1121,-27.5 954,-27.5"/>
<text text-anchor="start" x="962" y="-56.5" font-family="Helvetica,sans-Serif" font-size="10.00">BipedalLocomotion::</text>
<text text-anchor="start" x="962" y="-45.5" font-family="Helvetica,sans-Serif" font-size="10.00">System::Source&lt; FloatingBase</text>
<text text-anchor="middle" x="1037.5" y="-34.5" font-family="Helvetica,sans-Serif" font-size="10.00">Estimators::Output &gt;</text>
</a>
</g>
</g>
<!-- Node3&#45;&gt;Node2 -->
<g id="edge2" class="edge">
<title>Node3&#45;&gt;Node2</title>
<path fill="none" stroke="midnightblue" d="M1131.43,-48C1140.22,-48 1149.14,-48 1157.92,-48"/>
<polygon fill="midnightblue" stroke="midnightblue" points="1131.18,-44.5 1121.18,-48 1131.18,-51.5 1131.18,-44.5"/>
</g>
<!-- Node4 -->
<g id="node4" class="node">
<title>Node4</title>
<g id="a_node4"><a xlink:href="classBipedalLocomotion_1_1System_1_1Advanceable.html" target="_top" xlink:title=" ">
<polygon fill="none" stroke="black" points="462,-43 462,-95 621,-95 621,-43 462,-43"/>
<text text-anchor="start" x="470" y="-83" font-family="Helvetica,sans-Serif" font-size="10.00">BipedalLocomotion::</text>
<text text-anchor="start" x="470" y="-72" font-family="Helvetica,sans-Serif" font-size="10.00">System::Advanceable</text>
<text text-anchor="start" x="470" y="-61" font-family="Helvetica,sans-Serif" font-size="10.00">&lt; EmptySignal, FloatingBase</text>
<text text-anchor="middle" x="541.5" y="-50" font-family="Helvetica,sans-Serif" font-size="10.00">Estimators::Output &gt;</text>
</a>
</g>
</g>
<!-- Node4&#45;&gt;Node3 -->
<g id="edge3" class="edge">
<title>Node4&#45;&gt;Node3</title>
<path fill="none" stroke="midnightblue" d="M631.31,-66.7C711.09,-64.43 831.42,-60.5 936,-55 941.85,-54.69 947.89,-54.35 953.97,-53.97"/>
<polygon fill="midnightblue" stroke="midnightblue" points="631.2,-63.2 621.3,-66.98 631.39,-70.2 631.2,-63.2"/>
</g>
<!-- Node5 -->
<g id="node5" class="node">
<title>Node5</title>
<g id="a_node5"><a xlink:href="classBipedalLocomotion_1_1System_1_1Advanceable.html" target="_top" xlink:title="Basic class that represents a discrete system.">
<polygon fill="none" stroke="black" points="0,-25.5 0,-66.5 122,-66.5 122,-25.5 0,-25.5"/>
<text text-anchor="start" x="8" y="-54.5" font-family="Helvetica,sans-Serif" font-size="10.00">BipedalLocomotion::</text>
<text text-anchor="start" x="8" y="-43.5" font-family="Helvetica,sans-Serif" font-size="10.00">System::Advanceable</text>
<text text-anchor="middle" x="61" y="-32.5" font-family="Helvetica,sans-Serif" font-size="10.00">&lt; _Input, _Output &gt;</text>
</a>
</g>
</g>
<!-- Node5&#45;&gt;Node4 -->
<g id="edge4" class="edge">
<title>Node5&#45;&gt;Node4</title>
<path fill="none" stroke="orange" stroke-dasharray="5,2" d="M132.26,-49.38C220.2,-53.6 370.35,-60.82 461.98,-65.23"/>
<polygon fill="orange" stroke="orange" points="132.27,-45.87 122.12,-48.89 131.94,-52.87 132.27,-45.87"/>
<text text-anchor="start" x="140" y="-71" font-family="Helvetica,sans-Serif" font-size="10.00"> &lt; EmptySignal, FloatingBase</text>
<text text-anchor="middle" x="213" y="-60" font-family="Helvetica,sans-Serif" font-size="10.00">Estimators::Output &gt;</text>
</g>
<!-- Node7 -->
<g id="node7" class="node">
<title>Node7</title>
<g id="a_node7"><a xlink:href="classBipedalLocomotion_1_1System_1_1Advanceable.html" target="_top" xlink:title=" ">
<polygon fill="none" stroke="black" points="304,-0.5 304,-41.5 444,-41.5 444,-0.5 304,-0.5"/>
<text text-anchor="start" x="312" y="-29.5" font-family="Helvetica,sans-Serif" font-size="10.00">BipedalLocomotion::</text>
<text text-anchor="start" x="312" y="-18.5" font-family="Helvetica,sans-Serif" font-size="10.00">System::Advanceable</text>
<text text-anchor="middle" x="374" y="-7.5" font-family="Helvetica,sans-Serif" font-size="10.00">&lt; EmptySignal, Output &gt;</text>
</a>
</g>
</g>
<!-- Node5&#45;&gt;Node7 -->
<g id="edge7" class="edge">
<title>Node5&#45;&gt;Node7</title>
<path fill="none" stroke="orange" stroke-dasharray="5,2" d="M132.22,-37.74C134.85,-37.48 137.45,-37.23 140,-37 195.01,-31.94 257.47,-27.73 303.86,-24.91"/>
<polygon fill="orange" stroke="orange" points="131.61,-34.29 122.02,-38.79 132.32,-41.25 131.61,-34.29"/>
<text text-anchor="middle" x="213" y="-40" font-family="Helvetica,sans-Serif" font-size="10.00"> &lt; EmptySignal, Output &gt;</text>
</g>
<!-- Node6 -->
<g id="node6" class="node">
<title>Node6</title>
<g id="a_node6"><a xlink:href="classBipedalLocomotion_1_1System_1_1Source.html" target="_top" xlink:title="Source is a template specialization of Advanceable and represents a block that does not contains inpu...">
<polygon fill="none" stroke="black" points="639,-9 639,-39 787,-39 787,-9 639,-9"/>
<text text-anchor="start" x="647" y="-27" font-family="Helvetica,sans-Serif" font-size="10.00">BipedalLocomotion::</text>
<text text-anchor="middle" x="713" y="-16" font-family="Helvetica,sans-Serif" font-size="10.00">System::Source&lt; Output &gt;</text>
</a>
</g>
</g>
<!-- Node6&#45;&gt;Node3 -->
<g id="edge5" class="edge">
<title>Node6&#45;&gt;Node3</title>
<path fill="none" stroke="orange" stroke-dasharray="5,2" d="M797.24,-25.25C838.97,-26.42 890.24,-28.67 936,-33 941.8,-33.55 947.77,-34.2 953.77,-34.93"/>
<polygon fill="orange" stroke="orange" points="797.21,-21.75 787.12,-24.99 797.03,-28.75 797.21,-21.75"/>
<text text-anchor="start" x="805" y="-47" font-family="Helvetica,sans-Serif" font-size="10.00"> &lt; FloatingBaseEstimators</text>
<text text-anchor="middle" x="870.5" y="-36" font-family="Helvetica,sans-Serif" font-size="10.00">::Output &gt;</text>
</g>
<!-- Node7&#45;&gt;Node6 -->
<g id="edge6" class="edge">
<title>Node7&#45;&gt;Node6</title>
<path fill="none" stroke="midnightblue" d="M454.21,-21.71C510.04,-22.2 584.25,-22.86 638.71,-23.35"/>
<polygon fill="midnightblue" stroke="midnightblue" points="454.04,-18.2 444.01,-21.61 453.98,-25.2 454.04,-18.2"/>
</g>
</g>
</svg>
