<?xml version="1.0" encoding="UTF-8" standalone="no"?>
<!DOCTYPE svg PUBLIC "-//W3C//DTD SVG 1.1//EN"
 "http://www.w3.org/Graphics/SVG/1.1/DTD/svg11.dtd">
<!-- Generated by graphviz version 2.43.0 (0)
 -->
<!-- Title: BipedalLocomotion::RobotInterface::ICameraBridge Pages: 1 -->
<svg width="364pt" height="110pt"
 viewBox="0.00 0.00 364.00 110.00" xmlns="http://www.w3.org/2000/svg" xmlns:xlink="http://www.w3.org/1999/xlink">
<g id="graph0" class="graph" transform="scale(1 1) rotate(0) translate(4 106)">
<title>BipedalLocomotion::RobotInterface::ICameraBridge</title>
<!-- Node1 -->
<g id="node1" class="node">
<title>Node1</title>
<g id="a_node1"><a xlink:title="Sensor bridge interface.">
<polygon fill="#bfbfbf" stroke="black" points="0,-36 0,-66 167,-66 167,-36 0,-36"/>
<text text-anchor="start" x="8" y="-54" font-family="Helvetica,sans-Serif" font-size="10.00">BipedalLocomotion::</text>
<text text-anchor="middle" x="83.5" y="-43" font-family="Helvetica,sans-Serif" font-size="10.00">RobotInterface::ICameraBridge</text>
</a>
</g>
</g>
<!-- Node2 -->
<g id="node2" class="node">
<title>Node2</title>
<g id="a_node2"><a xlink:href="classBipedalLocomotion_1_1Perception_1_1Capture_1_1RealSense.html" target="_top" xlink:title="Realsense driver class.">
<polygon fill="none" stroke="black" points="221.5,-60.5 221.5,-101.5 337.5,-101.5 337.5,-60.5 221.5,-60.5"/>
<text text-anchor="start" x="229.5" y="-89.5" font-family="Helvetica,sans-Serif" font-size="10.00">BipedalLocomotion::</text>
<text text-anchor="start" x="229.5" y="-78.5" font-family="Helvetica,sans-Serif" font-size="10.00">Perception::Capture</text>
<text text-anchor="middle" x="279.5" y="-67.5" font-family="Helvetica,sans-Serif" font-size="10.00">::RealSense</text>
</a>
</g>
</g>
<!-- Node1&#45;&gt;Node2 -->
<g id="edge1" class="edge">
<title>Node1&#45;&gt;Node2</title>
<path fill="none" stroke="midnightblue" d="M176.95,-65.3C192.06,-67.63 207.31,-69.99 221.25,-72.15"/>
<polygon fill="midnightblue" stroke="midnightblue" points="177.47,-61.84 167.05,-63.77 176.4,-68.75 177.47,-61.84"/>
</g>
<!-- Node3 -->
<g id="node3" class="node">
<title>Node3</title>
<g id="a_node3"><a xlink:href="classBipedalLocomotion_1_1RobotInterface_1_1YarpCameraBridge.html" target="_top" xlink:title="YarpCameraBridge Yarp implementation of the ICameraBridge interface Currently available interfaces.">
<polygon fill="none" stroke="black" points="203,-0.5 203,-41.5 356,-41.5 356,-0.5 203,-0.5"/>
<text text-anchor="start" x="211" y="-29.5" font-family="Helvetica,sans-Serif" font-size="10.00">BipedalLocomotion::</text>
<text text-anchor="start" x="211" y="-18.5" font-family="Helvetica,sans-Serif" font-size="10.00">RobotInterface::YarpCamera</text>
<text text-anchor="middle" x="279.5" y="-7.5" font-family="Helvetica,sans-Serif" font-size="10.00">Bridge</text>
</a>
</g>
</g>
<!-- Node1&#45;&gt;Node3 -->
<g id="edge2" class="edge">
<title>Node1&#45;&gt;Node3</title>
<path fill="none" stroke="midnightblue" d="M177.12,-36.68C185.72,-35.35 194.36,-34.01 202.79,-32.71"/>
<polygon fill="midnightblue" stroke="midnightblue" points="176.4,-33.25 167.05,-38.23 177.47,-40.16 176.4,-33.25"/>
</g>
</g>
</svg>
