<?xml version="1.0" encoding="UTF-8" standalone="no"?>
<!DOCTYPE svg PUBLIC "-//W3C//DTD SVG 1.1//EN"
 "http://www.w3.org/Graphics/SVG/1.1/DTD/svg11.dtd">
<!-- Generated by graphviz version 2.43.0 (0)
 -->
<!-- Title: BipedalLocomotion::IK::IntegrationBasedIK Pages: 1 -->
<svg width="1479pt" height="104pt"
 viewBox="0.00 0.00 1479.00 103.50" xmlns="http://www.w3.org/2000/svg" xmlns:xlink="http://www.w3.org/1999/xlink">
<g id="graph0" class="graph" transform="scale(1 1) rotate(0) translate(4 99.5)">
<title>BipedalLocomotion::IK::IntegrationBasedIK</title>
<!-- Node1 -->
<g id="node1" class="node">
<title>Node1</title>
<g id="a_node1"><a xlink:title="IntegrationBasedInverseKinematics implements the interface for the integration base inverse kinematic...">
<polygon fill="#bfbfbf" stroke="black" points="1172,-36 1172,-66 1297,-66 1297,-36 1172,-36"/>
<text text-anchor="start" x="1180" y="-54" font-family="Helvetica,sans-Serif" font-size="10.00">BipedalLocomotion::</text>
<text text-anchor="middle" x="1234.5" y="-43" font-family="Helvetica,sans-Serif" font-size="10.00">IK::IntegrationBasedIK</text>
</a>
</g>
</g>
<!-- Node7 -->
<g id="node7" class="node">
<title>Node7</title>
<g id="a_node7"><a xlink:href="classBipedalLocomotion_1_1IK_1_1QPInverseKinematics.html" target="_top" xlink:title="QPInverseKinematics is a concrete class and implements an integration base inverse kinematics.">
<polygon fill="none" stroke="black" points="1334,-36 1334,-66 1471,-66 1471,-36 1334,-36"/>
<text text-anchor="start" x="1342" y="-54" font-family="Helvetica,sans-Serif" font-size="10.00">BipedalLocomotion::</text>
<text text-anchor="middle" x="1402.5" y="-43" font-family="Helvetica,sans-Serif" font-size="10.00">IK::QPInverseKinematics</text>
</a>
</g>
</g>
<!-- Node1&#45;&gt;Node7 -->
<g id="edge7" class="edge">
<title>Node1&#45;&gt;Node7</title>
<path fill="none" stroke="midnightblue" d="M1307.47,-51C1316.21,-51 1325.11,-51 1333.78,-51"/>
<polygon fill="midnightblue" stroke="midnightblue" points="1307.31,-47.5 1297.31,-51 1307.31,-54.5 1307.31,-47.5"/>
</g>
<!-- Node2 -->
<g id="node2" class="node">
<title>Node2</title>
<g id="a_node2"><a xlink:href="classBipedalLocomotion_1_1System_1_1Source.html" target="_top" xlink:title=" ">
<polygon fill="none" stroke="black" points="978,-30.5 978,-71.5 1135,-71.5 1135,-30.5 978,-30.5"/>
<text text-anchor="start" x="986" y="-59.5" font-family="Helvetica,sans-Serif" font-size="10.00">BipedalLocomotion::</text>
<text text-anchor="start" x="986" y="-48.5" font-family="Helvetica,sans-Serif" font-size="10.00">System::Source&lt; Integration</text>
<text text-anchor="middle" x="1056.5" y="-37.5" font-family="Helvetica,sans-Serif" font-size="10.00">BasedIKState &gt;</text>
</a>
</g>
</g>
<!-- Node2&#45;&gt;Node1 -->
<g id="edge1" class="edge">
<title>Node2&#45;&gt;Node1</title>
<path fill="none" stroke="midnightblue" d="M1145.3,-51C1154.25,-51 1163.21,-51 1171.79,-51"/>
<polygon fill="midnightblue" stroke="midnightblue" points="1145.21,-47.5 1135.21,-51 1145.21,-54.5 1145.21,-47.5"/>
</g>
<!-- Node3 -->
<g id="node3" class="node">
<title>Node3</title>
<g id="a_node3"><a xlink:href="classBipedalLocomotion_1_1System_1_1Advanceable.html" target="_top" xlink:title=" ">
<polygon fill="none" stroke="black" points="452,-43 452,-95 631,-95 631,-43 452,-43"/>
<text text-anchor="start" x="460" y="-83" font-family="Helvetica,sans-Serif" font-size="10.00">BipedalLocomotion::</text>
<text text-anchor="start" x="460" y="-72" font-family="Helvetica,sans-Serif" font-size="10.00">System::Advanceable</text>
<text text-anchor="start" x="460" y="-61" font-family="Helvetica,sans-Serif" font-size="10.00">&lt; EmptySignal, IntegrationBased</text>
<text text-anchor="middle" x="541.5" y="-50" font-family="Helvetica,sans-Serif" font-size="10.00">IKState &gt;</text>
</a>
</g>
</g>
<!-- Node3&#45;&gt;Node2 -->
<g id="edge2" class="edge">
<title>Node3&#45;&gt;Node2</title>
<path fill="none" stroke="midnightblue" d="M641.4,-65.92C726,-63.22 851.01,-59.11 960,-55 965.8,-54.78 971.81,-54.55 977.84,-54.31"/>
<polygon fill="midnightblue" stroke="midnightblue" points="641.17,-62.42 631.28,-66.24 641.39,-69.42 641.17,-62.42"/>
</g>
<!-- Node4 -->
<g id="node4" class="node">
<title>Node4</title>
<g id="a_node4"><a xlink:href="classBipedalLocomotion_1_1System_1_1Advanceable.html" target="_top" xlink:title="Basic class that represents a discrete system.">
<polygon fill="none" stroke="black" points="0,-25.5 0,-66.5 122,-66.5 122,-25.5 0,-25.5"/>
<text text-anchor="start" x="8" y="-54.5" font-family="Helvetica,sans-Serif" font-size="10.00">BipedalLocomotion::</text>
<text text-anchor="start" x="8" y="-43.5" font-family="Helvetica,sans-Serif" font-size="10.00">System::Advanceable</text>
<text text-anchor="middle" x="61" y="-32.5" font-family="Helvetica,sans-Serif" font-size="10.00">&lt; _Input, _Output &gt;</text>
</a>
</g>
</g>
<!-- Node4&#45;&gt;Node3 -->
<g id="edge3" class="edge">
<title>Node4&#45;&gt;Node3</title>
<path fill="none" stroke="orange" stroke-dasharray="5,2" d="M132.16,-49.37C216.88,-53.44 359.47,-60.3 451.76,-64.73"/>
<polygon fill="orange" stroke="orange" points="132.27,-45.87 122.12,-48.89 131.94,-52.87 132.27,-45.87"/>
<text text-anchor="start" x="140" y="-71" font-family="Helvetica,sans-Serif" font-size="10.00"> &lt; EmptySignal, Integration</text>
<text text-anchor="middle" x="208" y="-60" font-family="Helvetica,sans-Serif" font-size="10.00">BasedIKState &gt;</text>
</g>
<!-- Node6 -->
<g id="node6" class="node">
<title>Node6</title>
<g id="a_node6"><a xlink:href="classBipedalLocomotion_1_1System_1_1Advanceable.html" target="_top" xlink:title=" ">
<polygon fill="none" stroke="black" points="294,-0.5 294,-41.5 434,-41.5 434,-0.5 294,-0.5"/>
<text text-anchor="start" x="302" y="-29.5" font-family="Helvetica,sans-Serif" font-size="10.00">BipedalLocomotion::</text>
<text text-anchor="start" x="302" y="-18.5" font-family="Helvetica,sans-Serif" font-size="10.00">System::Advanceable</text>
<text text-anchor="middle" x="364" y="-7.5" font-family="Helvetica,sans-Serif" font-size="10.00">&lt; EmptySignal, Output &gt;</text>
</a>
</g>
</g>
<!-- Node4&#45;&gt;Node6 -->
<g id="edge6" class="edge">
<title>Node4&#45;&gt;Node6</title>
<path fill="none" stroke="orange" stroke-dasharray="5,2" d="M132.22,-37.75C134.85,-37.49 137.45,-37.24 140,-37 191.4,-32.19 249.58,-28.06 293.63,-25.2"/>
<polygon fill="orange" stroke="orange" points="131.6,-34.3 122.02,-38.81 132.32,-41.26 131.6,-34.3"/>
<text text-anchor="middle" x="208" y="-40" font-family="Helvetica,sans-Serif" font-size="10.00"> &lt; EmptySignal, Output &gt;</text>
</g>
<!-- Node5 -->
<g id="node5" class="node">
<title>Node5</title>
<g id="a_node5"><a xlink:href="classBipedalLocomotion_1_1System_1_1Source.html" target="_top" xlink:title="Source is a template specialization of Advanceable and represents a block that does not contains inpu...">
<polygon fill="none" stroke="black" points="649,-9 649,-39 797,-39 797,-9 649,-9"/>
<text text-anchor="start" x="657" y="-27" font-family="Helvetica,sans-Serif" font-size="10.00">BipedalLocomotion::</text>
<text text-anchor="middle" x="723" y="-16" font-family="Helvetica,sans-Serif" font-size="10.00">System::Source&lt; Output &gt;</text>
</a>
</g>
</g>
<!-- Node5&#45;&gt;Node2 -->
<g id="edge4" class="edge">
<title>Node5&#45;&gt;Node2</title>
<path fill="none" stroke="orange" stroke-dasharray="5,2" d="M807.42,-30.79C859.74,-35.06 926.73,-40.51 977.91,-44.68"/>
<polygon fill="orange" stroke="orange" points="807.41,-27.28 797.16,-29.96 806.84,-34.26 807.41,-27.28"/>
<text text-anchor="middle" x="887.5" y="-47" font-family="Helvetica,sans-Serif" font-size="10.00"> &lt; IntegrationBasedIKState &gt;</text>
</g>
<!-- Node6&#45;&gt;Node5 -->
<g id="edge5" class="edge">
<title>Node6&#45;&gt;Node5</title>
<path fill="none" stroke="midnightblue" d="M444.63,-21.67C505.77,-22.18 589.52,-22.89 648.95,-23.39"/>
<polygon fill="midnightblue" stroke="midnightblue" points="444.29,-18.17 434.26,-21.58 444.23,-25.17 444.29,-18.17"/>
</g>
</g>
</svg>
