<?xml version="1.0" encoding="UTF-8" standalone="no"?>
<!DOCTYPE svg PUBLIC "-//W3C//DTD SVG 1.1//EN"
 "http://www.w3.org/Graphics/SVG/1.1/DTD/svg11.dtd">
<!-- Generated by graphviz version 2.43.0 (0)
 -->
<!-- Title: BipedalLocomotion::Planners::QuinticSpline Pages: 1 -->
<svg width="1283pt" height="104pt"
 viewBox="0.00 0.00 1283.00 103.50" xmlns="http://www.w3.org/2000/svg" xmlns:xlink="http://www.w3.org/1999/xlink">
<g id="graph0" class="graph" transform="scale(1 1) rotate(0) translate(4 99.5)">
<title>BipedalLocomotion::Planners::QuinticSpline</title>
<!-- Node1 -->
<g id="node1" class="node">
<title>Node1</title>
<g id="a_node1"><a xlink:title="Quintic spline implement a 5&#45;th order polynomial spline in $f\mathbb{R}^n$f.">
<polygon fill="#bfbfbf" stroke="black" points="1146,-36 1146,-66 1275,-66 1275,-36 1146,-36"/>
<text text-anchor="start" x="1154" y="-54" font-family="Helvetica,sans-Serif" font-size="10.00">BipedalLocomotion::</text>
<text text-anchor="middle" x="1210.5" y="-43" font-family="Helvetica,sans-Serif" font-size="10.00">Planners::QuinticSpline</text>
</a>
</g>
</g>
<!-- Node2 -->
<g id="node2" class="node">
<title>Node2</title>
<g id="a_node2"><a xlink:href="classBipedalLocomotion_1_1System_1_1Source.html" target="_top" xlink:title=" ">
<polygon fill="none" stroke="black" points="941,-30.5 941,-71.5 1109,-71.5 1109,-30.5 941,-30.5"/>
<text text-anchor="start" x="949" y="-59.5" font-family="Helvetica,sans-Serif" font-size="10.00">BipedalLocomotion::</text>
<text text-anchor="start" x="949" y="-48.5" font-family="Helvetica,sans-Serif" font-size="10.00">System::Source&lt; QuinticSpline</text>
<text text-anchor="middle" x="1025" y="-37.5" font-family="Helvetica,sans-Serif" font-size="10.00">State &gt;</text>
</a>
</g>
</g>
<!-- Node2&#45;&gt;Node1 -->
<g id="edge1" class="edge">
<title>Node2&#45;&gt;Node1</title>
<path fill="none" stroke="midnightblue" d="M1119.3,-51C1128.29,-51 1137.26,-51 1145.87,-51"/>
<polygon fill="midnightblue" stroke="midnightblue" points="1119.16,-47.5 1109.16,-51 1119.16,-54.5 1119.16,-47.5"/>
</g>
<!-- Node3 -->
<g id="node3" class="node">
<title>Node3</title>
<g id="a_node3"><a xlink:href="classBipedalLocomotion_1_1System_1_1Advanceable.html" target="_top" xlink:title=" ">
<polygon fill="none" stroke="black" points="463,-43 463,-95 623,-95 623,-43 463,-43"/>
<text text-anchor="start" x="471" y="-83" font-family="Helvetica,sans-Serif" font-size="10.00">BipedalLocomotion::</text>
<text text-anchor="start" x="471" y="-72" font-family="Helvetica,sans-Serif" font-size="10.00">System::Advanceable</text>
<text text-anchor="start" x="471" y="-61" font-family="Helvetica,sans-Serif" font-size="10.00">&lt; EmptySignal, QuinticSpline</text>
<text text-anchor="middle" x="543" y="-50" font-family="Helvetica,sans-Serif" font-size="10.00">State &gt;</text>
</a>
</g>
</g>
<!-- Node3&#45;&gt;Node2 -->
<g id="edge2" class="edge">
<title>Node3&#45;&gt;Node2</title>
<path fill="none" stroke="midnightblue" d="M633.24,-65.77C710.05,-62.98 823.83,-58.8 923,-55 928.79,-54.78 934.76,-54.55 940.78,-54.31"/>
<polygon fill="midnightblue" stroke="midnightblue" points="632.99,-62.28 623.12,-66.14 633.25,-69.27 632.99,-62.28"/>
</g>
<!-- Node4 -->
<g id="node4" class="node">
<title>Node4</title>
<g id="a_node4"><a xlink:href="classBipedalLocomotion_1_1System_1_1Advanceable.html" target="_top" xlink:title="Basic class that represents a discrete system.">
<polygon fill="none" stroke="black" points="0,-25.5 0,-66.5 122,-66.5 122,-25.5 0,-25.5"/>
<text text-anchor="start" x="8" y="-54.5" font-family="Helvetica,sans-Serif" font-size="10.00">BipedalLocomotion::</text>
<text text-anchor="start" x="8" y="-43.5" font-family="Helvetica,sans-Serif" font-size="10.00">System::Advanceable</text>
<text text-anchor="middle" x="61" y="-32.5" font-family="Helvetica,sans-Serif" font-size="10.00">&lt; _Input, _Output &gt;</text>
</a>
</g>
</g>
<!-- Node4&#45;&gt;Node3 -->
<g id="edge3" class="edge">
<title>Node4&#45;&gt;Node3</title>
<path fill="none" stroke="orange" stroke-dasharray="5,2" d="M132.47,-49.38C220.54,-53.6 370.86,-60.8 462.82,-65.21"/>
<polygon fill="orange" stroke="orange" points="132.46,-45.87 122.31,-48.89 132.13,-52.86 132.46,-45.87"/>
<text text-anchor="start" x="140" y="-71" font-family="Helvetica,sans-Serif" font-size="10.00"> &lt; EmptySignal, QuinticSpline</text>
<text text-anchor="middle" x="213.5" y="-60" font-family="Helvetica,sans-Serif" font-size="10.00">State &gt;</text>
</g>
<!-- Node6 -->
<g id="node6" class="node">
<title>Node6</title>
<g id="a_node6"><a xlink:href="classBipedalLocomotion_1_1System_1_1Advanceable.html" target="_top" xlink:title=" ">
<polygon fill="none" stroke="black" points="305,-0.5 305,-41.5 445,-41.5 445,-0.5 305,-0.5"/>
<text text-anchor="start" x="313" y="-29.5" font-family="Helvetica,sans-Serif" font-size="10.00">BipedalLocomotion::</text>
<text text-anchor="start" x="313" y="-18.5" font-family="Helvetica,sans-Serif" font-size="10.00">System::Advanceable</text>
<text text-anchor="middle" x="375" y="-7.5" font-family="Helvetica,sans-Serif" font-size="10.00">&lt; EmptySignal, Output &gt;</text>
</a>
</g>
</g>
<!-- Node4&#45;&gt;Node6 -->
<g id="edge6" class="edge">
<title>Node4&#45;&gt;Node6</title>
<path fill="none" stroke="orange" stroke-dasharray="5,2" d="M132.22,-37.74C134.85,-37.48 137.45,-37.23 140,-37 195.35,-31.92 258.2,-27.71 304.82,-24.88"/>
<polygon fill="orange" stroke="orange" points="131.61,-34.29 122.01,-38.79 132.32,-41.25 131.61,-34.29"/>
<text text-anchor="middle" x="213.5" y="-40" font-family="Helvetica,sans-Serif" font-size="10.00"> &lt; EmptySignal, Output &gt;</text>
</g>
<!-- Node5 -->
<g id="node5" class="node">
<title>Node5</title>
<g id="a_node5"><a xlink:href="classBipedalLocomotion_1_1System_1_1Source.html" target="_top" xlink:title="Source is a template specialization of Advanceable and represents a block that does not contains inpu...">
<polygon fill="none" stroke="black" points="641,-9 641,-39 789,-39 789,-9 641,-9"/>
<text text-anchor="start" x="649" y="-27" font-family="Helvetica,sans-Serif" font-size="10.00">BipedalLocomotion::</text>
<text text-anchor="middle" x="715" y="-16" font-family="Helvetica,sans-Serif" font-size="10.00">System::Source&lt; Output &gt;</text>
</a>
</g>
</g>
<!-- Node5&#45;&gt;Node2 -->
<g id="edge4" class="edge">
<title>Node5&#45;&gt;Node2</title>
<path fill="none" stroke="orange" stroke-dasharray="5,2" d="M799.45,-31.32C843.35,-35.16 897,-39.87 940.85,-43.71"/>
<polygon fill="orange" stroke="orange" points="799.65,-27.82 789.38,-30.43 799.04,-34.79 799.65,-27.82"/>
<text text-anchor="middle" x="865" y="-45" font-family="Helvetica,sans-Serif" font-size="10.00"> &lt; QuinticSplineState &gt;</text>
</g>
<!-- Node6&#45;&gt;Node5 -->
<g id="edge5" class="edge">
<title>Node6&#45;&gt;Node5</title>
<path fill="none" stroke="midnightblue" d="M455.46,-21.71C511.55,-22.2 586.14,-22.87 640.78,-23.35"/>
<polygon fill="midnightblue" stroke="midnightblue" points="455.25,-18.2 445.21,-21.61 455.18,-25.2 455.25,-18.2"/>
</g>
</g>
</svg>
