<?xml version="1.0" encoding="UTF-8" standalone="no"?>
<!DOCTYPE svg PUBLIC "-//W3C//DTD SVG 1.1//EN"
 "http://www.w3.org/Graphics/SVG/1.1/DTD/svg11.dtd">
<!-- Generated by graphviz version 2.43.0 (0)
 -->
<!-- Title: BipedalLocomotion::Perception::ArucoDetector Pages: 1 -->
<svg width="1326pt" height="104pt"
 viewBox="0.00 0.00 1326.00 103.50" xmlns="http://www.w3.org/2000/svg" xmlns:xlink="http://www.w3.org/1999/xlink">
<g id="graph0" class="graph" transform="scale(1 1) rotate(0) translate(4 99.5)">
<title>BipedalLocomotion::Perception::ArucoDetector</title>
<!-- Node1 -->
<g id="node1" class="node">
<title>Node1</title>
<g id="a_node1"><a xlink:title=" ">
<polygon fill="#bfbfbf" stroke="black" points="1174,-36 1174,-66 1318,-66 1318,-36 1174,-36"/>
<text text-anchor="start" x="1182" y="-54" font-family="Helvetica,sans-Serif" font-size="10.00">BipedalLocomotion::</text>
<text text-anchor="middle" x="1246" y="-43" font-family="Helvetica,sans-Serif" font-size="10.00">Perception::ArucoDetector</text>
</a>
</g>
</g>
<!-- Node2 -->
<g id="node2" class="node">
<title>Node2</title>
<g id="a_node2"><a xlink:href="classBipedalLocomotion_1_1System_1_1Source.html" target="_top" xlink:title=" ">
<polygon fill="none" stroke="black" points="964,-30.5 964,-71.5 1137,-71.5 1137,-30.5 964,-30.5"/>
<text text-anchor="start" x="972" y="-59.5" font-family="Helvetica,sans-Serif" font-size="10.00">BipedalLocomotion::</text>
<text text-anchor="start" x="972" y="-48.5" font-family="Helvetica,sans-Serif" font-size="10.00">System::Source&lt; ArucoDetector</text>
<text text-anchor="middle" x="1050.5" y="-37.5" font-family="Helvetica,sans-Serif" font-size="10.00">Output &gt;</text>
</a>
</g>
</g>
<!-- Node2&#45;&gt;Node1 -->
<g id="edge1" class="edge">
<title>Node2&#45;&gt;Node1</title>
<path fill="none" stroke="midnightblue" d="M1147.29,-51C1156.23,-51 1165.18,-51 1173.83,-51"/>
<polygon fill="midnightblue" stroke="midnightblue" points="1147.22,-47.5 1137.22,-51 1147.22,-54.5 1147.22,-47.5"/>
</g>
<!-- Node3 -->
<g id="node3" class="node">
<title>Node3</title>
<g id="a_node3"><a xlink:href="classBipedalLocomotion_1_1System_1_1Advanceable.html" target="_top" xlink:title=" ">
<polygon fill="none" stroke="black" points="468,-43 468,-95 633,-95 633,-43 468,-43"/>
<text text-anchor="start" x="476" y="-83" font-family="Helvetica,sans-Serif" font-size="10.00">BipedalLocomotion::</text>
<text text-anchor="start" x="476" y="-72" font-family="Helvetica,sans-Serif" font-size="10.00">System::Advanceable</text>
<text text-anchor="start" x="476" y="-61" font-family="Helvetica,sans-Serif" font-size="10.00">&lt; EmptySignal, ArucoDetector</text>
<text text-anchor="middle" x="550.5" y="-50" font-family="Helvetica,sans-Serif" font-size="10.00">Output &gt;</text>
</a>
</g>
</g>
<!-- Node3&#45;&gt;Node2 -->
<g id="edge2" class="edge">
<title>Node3&#45;&gt;Node2</title>
<path fill="none" stroke="midnightblue" d="M643.14,-65.83C723.1,-63.04 842.23,-58.85 946,-55 951.84,-54.78 957.87,-54.56 963.94,-54.33"/>
<polygon fill="midnightblue" stroke="midnightblue" points="642.97,-62.33 633.1,-66.18 643.22,-69.33 642.97,-62.33"/>
</g>
<!-- Node4 -->
<g id="node4" class="node">
<title>Node4</title>
<g id="a_node4"><a xlink:href="classBipedalLocomotion_1_1System_1_1Advanceable.html" target="_top" xlink:title="Basic class that represents a discrete system.">
<polygon fill="none" stroke="black" points="0,-25.5 0,-66.5 122,-66.5 122,-25.5 0,-25.5"/>
<text text-anchor="start" x="8" y="-54.5" font-family="Helvetica,sans-Serif" font-size="10.00">BipedalLocomotion::</text>
<text text-anchor="start" x="8" y="-43.5" font-family="Helvetica,sans-Serif" font-size="10.00">System::Advanceable</text>
<text text-anchor="middle" x="61" y="-32.5" font-family="Helvetica,sans-Serif" font-size="10.00">&lt; _Input, _Output &gt;</text>
</a>
</g>
</g>
<!-- Node4&#45;&gt;Node3 -->
<g id="edge3" class="edge">
<title>Node4&#45;&gt;Node3</title>
<path fill="none" stroke="orange" stroke-dasharray="5,2" d="M132.52,-49.33C221.44,-53.52 373.99,-60.72 467.86,-65.15"/>
<polygon fill="orange" stroke="orange" points="132.42,-45.82 122.27,-48.84 132.09,-52.81 132.42,-45.82"/>
<text text-anchor="start" x="140" y="-71" font-family="Helvetica,sans-Serif" font-size="10.00"> &lt; EmptySignal, ArucoDetector</text>
<text text-anchor="middle" x="216" y="-60" font-family="Helvetica,sans-Serif" font-size="10.00">Output &gt;</text>
</g>
<!-- Node6 -->
<g id="node6" class="node">
<title>Node6</title>
<g id="a_node6"><a xlink:href="classBipedalLocomotion_1_1System_1_1Advanceable.html" target="_top" xlink:title=" ">
<polygon fill="none" stroke="black" points="310,-0.5 310,-41.5 450,-41.5 450,-0.5 310,-0.5"/>
<text text-anchor="start" x="318" y="-29.5" font-family="Helvetica,sans-Serif" font-size="10.00">BipedalLocomotion::</text>
<text text-anchor="start" x="318" y="-18.5" font-family="Helvetica,sans-Serif" font-size="10.00">System::Advanceable</text>
<text text-anchor="middle" x="380" y="-7.5" font-family="Helvetica,sans-Serif" font-size="10.00">&lt; EmptySignal, Output &gt;</text>
</a>
</g>
</g>
<!-- Node4&#45;&gt;Node6 -->
<g id="edge6" class="edge">
<title>Node4&#45;&gt;Node6</title>
<path fill="none" stroke="orange" stroke-dasharray="5,2" d="M132.22,-37.74C134.85,-37.48 137.45,-37.23 140,-37 197.15,-31.79 262.14,-27.55 309.9,-24.75"/>
<polygon fill="orange" stroke="orange" points="131.61,-34.28 122.01,-38.78 132.32,-41.25 131.61,-34.28"/>
<text text-anchor="middle" x="216" y="-40" font-family="Helvetica,sans-Serif" font-size="10.00"> &lt; EmptySignal, Output &gt;</text>
</g>
<!-- Node5 -->
<g id="node5" class="node">
<title>Node5</title>
<g id="a_node5"><a xlink:href="classBipedalLocomotion_1_1System_1_1Source.html" target="_top" xlink:title="Source is a template specialization of Advanceable and represents a block that does not contains inpu...">
<polygon fill="none" stroke="black" points="651,-9 651,-39 799,-39 799,-9 651,-9"/>
<text text-anchor="start" x="659" y="-27" font-family="Helvetica,sans-Serif" font-size="10.00">BipedalLocomotion::</text>
<text text-anchor="middle" x="725" y="-16" font-family="Helvetica,sans-Serif" font-size="10.00">System::Source&lt; Output &gt;</text>
</a>
</g>
</g>
<!-- Node5&#45;&gt;Node2 -->
<g id="edge4" class="edge">
<title>Node5&#45;&gt;Node2</title>
<path fill="none" stroke="orange" stroke-dasharray="5,2" d="M809.25,-30.95C856.69,-34.91 916.03,-39.86 963.87,-43.85"/>
<polygon fill="orange" stroke="orange" points="809.26,-27.44 799,-30.09 808.68,-34.41 809.26,-27.44"/>
<text text-anchor="middle" x="881.5" y="-46" font-family="Helvetica,sans-Serif" font-size="10.00"> &lt; ArucoDetectorOutput &gt;</text>
</g>
<!-- Node6&#45;&gt;Node5 -->
<g id="edge5" class="edge">
<title>Node6&#45;&gt;Node5</title>
<path fill="none" stroke="midnightblue" d="M460.54,-21.7C517.97,-22.2 594.93,-22.87 650.84,-23.36"/>
<polygon fill="midnightblue" stroke="midnightblue" points="460.44,-18.19 450.41,-21.61 460.38,-25.19 460.44,-18.19"/>
</g>
</g>
</svg>
