<?xml version="1.0" encoding="UTF-8" standalone="no"?>
<!DOCTYPE svg PUBLIC "-//W3C//DTD SVG 1.1//EN"
 "http://www.w3.org/Graphics/SVG/1.1/DTD/svg11.dtd">
<!-- Generated by graphviz version 2.43.0 (0)
 -->
<!-- Title: System/include/BipedalLocomotion/System/Clock.h Pages: 1 -->
<svg width="280pt" height="229pt"
 viewBox="0.00 0.00 280.00 229.00" xmlns="http://www.w3.org/2000/svg" xmlns:xlink="http://www.w3.org/1999/xlink">
<g id="graph0" class="graph" transform="scale(1 1) rotate(0) translate(4 225)">
<title>System/include/BipedalLocomotion/System/Clock.h</title>
<!-- Node1 -->
<g id="node1" class="node">
<title>Node1</title>
<g id="a_node1"><a xlink:title=" ">
<polygon fill="#bfbfbf" stroke="black" points="0,-190.5 0,-220.5 188,-220.5 188,-190.5 0,-190.5"/>
<text text-anchor="start" x="8" y="-208.5" font-family="Helvetica,sans-Serif" font-size="10.00">System/include/BipedalLocomotion</text>
<text text-anchor="middle" x="94" y="-197.5" font-family="Helvetica,sans-Serif" font-size="10.00">/System/Clock.h</text>
</a>
</g>
</g>
<!-- Node2 -->
<g id="node2" class="node">
<title>Node2</title>
<g id="a_node2"><a xlink:title=" ">
<polygon fill="none" stroke="#bfbfbf" points="8,-129 8,-148 66,-148 66,-129 8,-129"/>
<text text-anchor="middle" x="37" y="-136" font-family="Helvetica,sans-Serif" font-size="10.00">memory</text>
</a>
</g>
</g>
<!-- Node1&#45;&gt;Node2 -->
<g id="edge1" class="edge">
<title>Node1&#45;&gt;Node2</title>
<path fill="none" stroke="midnightblue" d="M81.63,-190.4C72.74,-180.26 60.74,-166.57 51.41,-155.94"/>
<polygon fill="midnightblue" stroke="midnightblue" points="53.85,-153.41 44.62,-148.19 48.59,-158.02 53.85,-153.41"/>
</g>
<!-- Node3 -->
<g id="node3" class="node">
<title>Node3</title>
<g id="a_node3"><a xlink:href="IClock_8h.html" target="_top" xlink:title=" ">
<polygon fill="none" stroke="black" points="19,-56.5 19,-86.5 169,-86.5 169,-56.5 19,-56.5"/>
<text text-anchor="start" x="27" y="-74.5" font-family="Helvetica,sans-Serif" font-size="10.00">BipedalLocomotion/System</text>
<text text-anchor="middle" x="94" y="-63.5" font-family="Helvetica,sans-Serif" font-size="10.00">/IClock.h</text>
</a>
</g>
</g>
<!-- Node1&#45;&gt;Node3 -->
<g id="edge2" class="edge">
<title>Node1&#45;&gt;Node3</title>
<path fill="none" stroke="midnightblue" d="M94,-190.37C94,-168.04 94,-124.31 94,-96.85"/>
<polygon fill="midnightblue" stroke="midnightblue" points="97.5,-96.52 94,-86.52 90.5,-96.52 97.5,-96.52"/>
</g>
<!-- Node5 -->
<g id="node5" class="node">
<title>Node5</title>
<g id="a_node5"><a xlink:href="StdClock_8h.html" target="_top" xlink:title=" ">
<polygon fill="none" stroke="black" points="122,-123.5 122,-153.5 272,-153.5 272,-123.5 122,-123.5"/>
<text text-anchor="start" x="130" y="-141.5" font-family="Helvetica,sans-Serif" font-size="10.00">BipedalLocomotion/System</text>
<text text-anchor="middle" x="197" y="-130.5" font-family="Helvetica,sans-Serif" font-size="10.00">/StdClock.h</text>
</a>
</g>
</g>
<!-- Node1&#45;&gt;Node5 -->
<g id="edge4" class="edge">
<title>Node1&#45;&gt;Node5</title>
<path fill="none" stroke="midnightblue" d="M116.35,-190.4C130.93,-181.2 150.15,-169.07 166.17,-158.95"/>
<polygon fill="midnightblue" stroke="midnightblue" points="168.11,-161.87 174.69,-153.58 164.37,-155.95 168.11,-161.87"/>
</g>
<!-- Node4 -->
<g id="node4" class="node">
<title>Node4</title>
<g id="a_node4"><a xlink:title=" ">
<polygon fill="none" stroke="#bfbfbf" points="120,-0.5 120,-19.5 170,-19.5 170,-0.5 120,-0.5"/>
<text text-anchor="middle" x="145" y="-7.5" font-family="Helvetica,sans-Serif" font-size="10.00">chrono</text>
</a>
</g>
</g>
<!-- Node3&#45;&gt;Node4 -->
<g id="edge3" class="edge">
<title>Node3&#45;&gt;Node4</title>
<path fill="none" stroke="midnightblue" d="M106.09,-56.4C113.57,-47.66 123.22,-36.41 131.03,-27.3"/>
<polygon fill="midnightblue" stroke="midnightblue" points="133.73,-29.53 137.58,-19.66 128.41,-24.97 133.73,-29.53"/>
</g>
<!-- Node5&#45;&gt;Node3 -->
<g id="edge5" class="edge">
<title>Node5&#45;&gt;Node3</title>
<path fill="none" stroke="midnightblue" d="M174.65,-123.4C160.07,-114.2 140.85,-102.07 124.83,-91.95"/>
<polygon fill="midnightblue" stroke="midnightblue" points="126.63,-88.95 116.31,-86.58 122.89,-94.87 126.63,-88.95"/>
</g>
<!-- Node5&#45;&gt;Node4 -->
<g id="edge6" class="edge">
<title>Node5&#45;&gt;Node4</title>
<path fill="none" stroke="midnightblue" d="M195.46,-123.39C193.25,-106.68 188.26,-78.31 178,-56 173.3,-45.79 166.09,-35.59 159.6,-27.49"/>
<polygon fill="midnightblue" stroke="midnightblue" points="162.1,-25.03 152.99,-19.62 156.74,-29.53 162.1,-25.03"/>
</g>
</g>
</svg>
