<?xml version="1.0" encoding="UTF-8" standalone="no"?>
<!DOCTYPE svg PUBLIC "-//W3C//DTD SVG 1.1//EN"
 "http://www.w3.org/Graphics/SVG/1.1/DTD/svg11.dtd">
<!-- Generated by graphviz version 2.43.0 (0)
 -->
<!-- Title: System/src/Clock.cpp Pages: 1 -->
<svg width="501pt" height="285pt"
 viewBox="0.00 0.00 500.50 285.00" xmlns="http://www.w3.org/2000/svg" xmlns:xlink="http://www.w3.org/1999/xlink">
<g id="graph0" class="graph" transform="scale(1 1) rotate(0) translate(4 281)">
<title>System/src/Clock.cpp</title>
<!-- Node1 -->
<g id="node1" class="node">
<title>Node1</title>
<g id="a_node1"><a xlink:title=" ">
<polygon fill="#bfbfbf" stroke="black" points="148.5,-257.5 148.5,-276.5 269.5,-276.5 269.5,-257.5 148.5,-257.5"/>
<text text-anchor="middle" x="209" y="-264.5" font-family="Helvetica,sans-Serif" font-size="10.00">System/src/Clock.cpp</text>
</a>
</g>
</g>
<!-- Node2 -->
<g id="node2" class="node">
<title>Node2</title>
<g id="a_node2"><a xlink:href="Clock_8h.html" target="_top" xlink:title=" ">
<polygon fill="none" stroke="black" points="45,-190.5 45,-220.5 195,-220.5 195,-190.5 45,-190.5"/>
<text text-anchor="start" x="53" y="-208.5" font-family="Helvetica,sans-Serif" font-size="10.00">BipedalLocomotion/System</text>
<text text-anchor="middle" x="120" y="-197.5" font-family="Helvetica,sans-Serif" font-size="10.00">/Clock.h</text>
</a>
</g>
</g>
<!-- Node1&#45;&gt;Node2 -->
<g id="edge1" class="edge">
<title>Node1&#45;&gt;Node2</title>
<path fill="none" stroke="midnightblue" d="M196.25,-257.48C184.08,-249.34 165.31,-236.79 149.44,-226.18"/>
<polygon fill="midnightblue" stroke="midnightblue" points="151.23,-223.17 140.98,-220.52 147.34,-228.99 151.23,-223.17"/>
</g>
<!-- Node7 -->
<g id="node7" class="node">
<title>Node7</title>
<g id="a_node7"><a xlink:href="Logger_8h.html" target="_top" xlink:title=" ">
<polygon fill="none" stroke="black" points="246,-190.5 246,-220.5 418,-220.5 418,-190.5 246,-190.5"/>
<text text-anchor="start" x="254" y="-208.5" font-family="Helvetica,sans-Serif" font-size="10.00">BipedalLocomotion/TextLogging</text>
<text text-anchor="middle" x="332" y="-197.5" font-family="Helvetica,sans-Serif" font-size="10.00">/Logger.h</text>
</a>
</g>
</g>
<!-- Node1&#45;&gt;Node7 -->
<g id="edge8" class="edge">
<title>Node1&#45;&gt;Node7</title>
<path fill="none" stroke="midnightblue" d="M226.62,-257.48C244.06,-249.04 271.32,-235.86 293.74,-225.01"/>
<polygon fill="midnightblue" stroke="midnightblue" points="295.53,-228.03 303.01,-220.52 292.49,-221.73 295.53,-228.03"/>
</g>
<!-- Node3 -->
<g id="node3" class="node">
<title>Node3</title>
<g id="a_node3"><a xlink:title=" ">
<polygon fill="none" stroke="#bfbfbf" points="0,-129 0,-148 58,-148 58,-129 0,-129"/>
<text text-anchor="middle" x="29" y="-136" font-family="Helvetica,sans-Serif" font-size="10.00">memory</text>
</a>
</g>
</g>
<!-- Node2&#45;&gt;Node3 -->
<g id="edge2" class="edge">
<title>Node2&#45;&gt;Node3</title>
<path fill="none" stroke="midnightblue" d="M100.25,-190.4C85.14,-179.6 64.36,-164.76 49.14,-153.89"/>
<polygon fill="midnightblue" stroke="midnightblue" points="51.08,-150.97 40.91,-148.01 47.01,-156.67 51.08,-150.97"/>
</g>
<!-- Node4 -->
<g id="node4" class="node">
<title>Node4</title>
<g id="a_node4"><a xlink:href="IClock_8h.html" target="_top" xlink:title=" ">
<polygon fill="none" stroke="black" points="11,-56.5 11,-86.5 161,-86.5 161,-56.5 11,-56.5"/>
<text text-anchor="start" x="19" y="-74.5" font-family="Helvetica,sans-Serif" font-size="10.00">BipedalLocomotion/System</text>
<text text-anchor="middle" x="86" y="-63.5" font-family="Helvetica,sans-Serif" font-size="10.00">/IClock.h</text>
</a>
</g>
</g>
<!-- Node2&#45;&gt;Node4 -->
<g id="edge3" class="edge">
<title>Node2&#45;&gt;Node4</title>
<path fill="none" stroke="midnightblue" d="M115.57,-190.41C112.46,-180.32 108.28,-166.38 105,-154 99.9,-134.76 94.82,-112.77 91.2,-96.49"/>
<polygon fill="midnightblue" stroke="midnightblue" points="94.61,-95.71 89.04,-86.7 87.77,-97.22 94.61,-95.71"/>
</g>
<!-- Node6 -->
<g id="node6" class="node">
<title>Node6</title>
<g id="a_node6"><a xlink:href="StdClock_8h.html" target="_top" xlink:title=" ">
<polygon fill="none" stroke="black" points="114,-123.5 114,-153.5 264,-153.5 264,-123.5 114,-123.5"/>
<text text-anchor="start" x="122" y="-141.5" font-family="Helvetica,sans-Serif" font-size="10.00">BipedalLocomotion/System</text>
<text text-anchor="middle" x="189" y="-130.5" font-family="Helvetica,sans-Serif" font-size="10.00">/StdClock.h</text>
</a>
</g>
</g>
<!-- Node2&#45;&gt;Node6 -->
<g id="edge5" class="edge">
<title>Node2&#45;&gt;Node6</title>
<path fill="none" stroke="midnightblue" d="M134.97,-190.4C144.19,-181.71 156.19,-170.4 166.54,-160.66"/>
<polygon fill="midnightblue" stroke="midnightblue" points="169.18,-162.98 174.06,-153.58 164.38,-157.89 169.18,-162.98"/>
</g>
<!-- Node5 -->
<g id="node5" class="node">
<title>Node5</title>
<g id="a_node5"><a xlink:title=" ">
<polygon fill="none" stroke="#bfbfbf" points="112,-0.5 112,-19.5 162,-19.5 162,-0.5 112,-0.5"/>
<text text-anchor="middle" x="137" y="-7.5" font-family="Helvetica,sans-Serif" font-size="10.00">chrono</text>
</a>
</g>
</g>
<!-- Node4&#45;&gt;Node5 -->
<g id="edge4" class="edge">
<title>Node4&#45;&gt;Node5</title>
<path fill="none" stroke="midnightblue" d="M98.09,-56.4C105.57,-47.66 115.22,-36.41 123.03,-27.3"/>
<polygon fill="midnightblue" stroke="midnightblue" points="125.73,-29.53 129.58,-19.66 120.41,-24.97 125.73,-29.53"/>
</g>
<!-- Node6&#45;&gt;Node4 -->
<g id="edge6" class="edge">
<title>Node6&#45;&gt;Node4</title>
<path fill="none" stroke="midnightblue" d="M166.65,-123.4C152.07,-114.2 132.85,-102.07 116.83,-91.95"/>
<polygon fill="midnightblue" stroke="midnightblue" points="118.63,-88.95 108.31,-86.58 114.89,-94.87 118.63,-88.95"/>
</g>
<!-- Node6&#45;&gt;Node5 -->
<g id="edge7" class="edge">
<title>Node6&#45;&gt;Node5</title>
<path fill="none" stroke="midnightblue" d="M187.46,-123.39C185.25,-106.68 180.26,-78.31 170,-56 165.3,-45.79 158.09,-35.59 151.6,-27.49"/>
<polygon fill="midnightblue" stroke="midnightblue" points="154.1,-25.03 144.99,-19.62 148.74,-29.53 154.1,-25.03"/>
</g>
<!-- Node8 -->
<g id="node8" class="node">
<title>Node8</title>
<g id="a_node8"><a xlink:title=" ">
<polygon fill="none" stroke="#bfbfbf" points="282.5,-129 282.5,-148 381.5,-148 381.5,-129 282.5,-129"/>
<text text-anchor="middle" x="332" y="-136" font-family="Helvetica,sans-Serif" font-size="10.00">spdlog/fmt/ostr.h</text>
</a>
</g>
</g>
<!-- Node7&#45;&gt;Node8 -->
<g id="edge9" class="edge">
<title>Node7&#45;&gt;Node8</title>
<path fill="none" stroke="midnightblue" d="M332,-190.4C332,-181.06 332,-168.71 332,-158.52"/>
<polygon fill="midnightblue" stroke="midnightblue" points="335.5,-158.19 332,-148.19 328.5,-158.19 335.5,-158.19"/>
</g>
<!-- Node9 -->
<g id="node9" class="node">
<title>Node9</title>
<g id="a_node9"><a xlink:title=" ">
<polygon fill="none" stroke="#bfbfbf" points="399.5,-129 399.5,-148 492.5,-148 492.5,-129 399.5,-129"/>
<text text-anchor="middle" x="446" y="-136" font-family="Helvetica,sans-Serif" font-size="10.00">spdlog/spdlog.h</text>
</a>
</g>
</g>
<!-- Node7&#45;&gt;Node9 -->
<g id="edge10" class="edge">
<title>Node7&#45;&gt;Node9</title>
<path fill="none" stroke="midnightblue" d="M356.74,-190.4C376.21,-179.29 403.17,-163.92 422.35,-152.98"/>
<polygon fill="midnightblue" stroke="midnightblue" points="424.13,-156 431.08,-148.01 420.66,-149.92 424.13,-156"/>
</g>
</g>
</svg>
