<?xml version="1.0" encoding="UTF-8" standalone="no"?>
<!DOCTYPE svg PUBLIC "-//W3C//DTD SVG 1.1//EN"
 "http://www.w3.org/Graphics/SVG/1.1/DTD/svg11.dtd">
<!-- Generated by graphviz version 2.43.0 (0)
 -->
<!-- Title: ContinuousDynamicalSystem/src/CompliantContactWrench.cpp Pages: 1 -->
<!--zoomable 441 -->
<svg id="main" version="1.1" xmlns="http://www.w3.org/2000/svg" xmlns:xlink="http://www.w3.org/1999/xlink" xml:space="preserve" onload="init(evt)">
<style type="text/css"><![CDATA[
.edge:hover path { stroke: red; }
.edge:hover polygon { stroke: red; fill: red; }
]]></style>
<script type="text/javascript"><![CDATA[
var edges = document.getElementsByTagName('g');
if (edges && edges.length) {
  for (var i=0;i<edges.length;i++) {
    if (edges[i].id.substr(0,4)=='edge') {
      edges[i].setAttribute('class','edge');
    }
  }
}
]]></script>
        <defs>
                <circle id="rim" cx="0" cy="0" r="7"/>
                <circle id="rim2" cx="0" cy="0" r="3.5"/>
                <g id="zoomPlus">
                        <use xlink:href="#rim" fill="#404040">
                                <set attributeName="fill" to="#808080" begin="zoomplus.mouseover" end="zoomplus.mouseout"/>
                        </use>
                        <path d="M-4,0h8M0,-4v8" fill="none" stroke="white" stroke-width="1.5" pointer-events="none"/>
                </g>
                <g id="zoomMin">
                        <use xlink:href="#rim" fill="#404040">
                                <set attributeName="fill" to="#808080" begin="zoomminus.mouseover" end="zoomminus.mouseout"/>
                        </use>
                        <path d="M-4,0h8" fill="none" stroke="white" stroke-width="1.5" pointer-events="none"/>
                </g>
                <g id="dirArrow">
                        <path fill="none" stroke="white" stroke-width="1.5" d="M0,-3.0v7 M-2.5,-0.5L0,-3.0L2.5,-0.5"/>
                </g>
               <g id="resetDef">
                       <use xlink:href="#rim2" fill="#404040">
                               <set attributeName="fill" to="#808080" begin="reset.mouseover" end="reset.mouseout"/>
                       </use>
               </g>
        </defs>

<script type="text/javascript">
var viewWidth = 1688;
var viewHeight = 441;
var sectionId = 'dynsection-0';
</script>
<script xlink:href="svgpan.js"/>
<svg id="graph" class="graph">
<g id="viewport">
<title>ContinuousDynamicalSystem/src/CompliantContactWrench.cpp</title>
<!-- Node1 -->
<g id="node1" class="node">
<title>Node1</title>
<g id="a_node1"><a xlink:title=" ">
<polygon fill="#bfbfbf" stroke="black" points="482.55,-402.5 482.55,-432.5 664.55,-432.5 664.55,-402.5 482.55,-402.5"/>
<text text-anchor="start" x="490.55" y="-420.5" font-family="Helvetica,sans-Serif" font-size="10.00">ContinuousDynamicalSystem</text>
<text text-anchor="middle" x="573.55" y="-409.5" font-family="Helvetica,sans-Serif" font-size="10.00">/src/CompliantContactWrench.cpp</text>
</a>
</g>
</g>
<!-- Node2 -->
<g id="node2" class="node">
<title>Node2</title>
<g id="a_node2"><a xlink:href="ContactModel_8h.html" target="_top" xlink:title=" ">
<polygon fill="none" stroke="black" points="580.05,-257.5 580.05,-287.5 731.05,-287.5 731.05,-257.5 580.05,-257.5"/>
<text text-anchor="start" x="588.05" y="-275.5" font-family="Helvetica,sans-Serif" font-size="10.00">BipedalLocomotion/Contact</text>
<text text-anchor="middle" x="655.55" y="-264.5" font-family="Helvetica,sans-Serif" font-size="10.00">Models/ContactModel.h</text>
</a>
</g>
</g>
<!-- Node1&#45;&gt;Node2 -->
<g id="edge1" class="edge">
<title>Node1&#45;&gt;Node2</title>
<path fill="none" stroke="midnightblue" d="M588.01,-402.48C597.34,-392.87 609.24,-379.46 617.55,-366 631.08,-344.09 641.69,-316.51 648.22,-297.19"/>
<polygon fill="midnightblue" stroke="midnightblue" points="651.55,-298.25 651.33,-287.66 644.9,-296.07 651.55,-298.25"/>
</g>
<!-- Node24 -->
<g id="node24" class="node">
<title>Node24</title>
<g id="a_node24"><a xlink:href="CompliantContactWrench_8h.html" target="_top" xlink:title=" ">
<polygon fill="none" stroke="black" points="412.05,-324.5 412.05,-365.5 609.05,-365.5 609.05,-324.5 412.05,-324.5"/>
<text text-anchor="start" x="420.05" y="-353.5" font-family="Helvetica,sans-Serif" font-size="10.00">BipedalLocomotion/Continuous</text>
<text text-anchor="start" x="420.05" y="-342.5" font-family="Helvetica,sans-Serif" font-size="10.00">DynamicalSystem/CompliantContact</text>
<text text-anchor="middle" x="510.55" y="-331.5" font-family="Helvetica,sans-Serif" font-size="10.00">Wrench.h</text>
</a>
</g>
</g>
<!-- Node1&#45;&gt;Node24 -->
<g id="edge27" class="edge">
<title>Node1&#45;&gt;Node24</title>
<path fill="none" stroke="midnightblue" d="M560.8,-402.23C553.36,-393.92 543.74,-383.15 534.91,-373.26"/>
<polygon fill="midnightblue" stroke="midnightblue" points="537.32,-370.71 528.05,-365.59 532.1,-375.38 537.32,-370.71"/>
</g>
<!-- Node3 -->
<g id="node3" class="node">
<title>Node3</title>
<g id="a_node3"><a xlink:title=" ">
<polygon fill="none" stroke="#bfbfbf" points="1181.05,-196 1181.05,-215 1216.05,-215 1216.05,-196 1181.05,-196"/>
<text text-anchor="middle" x="1198.55" y="-203" font-family="Helvetica,sans-Serif" font-size="10.00">any</text>
</a>
</g>
</g>
<!-- Node2&#45;&gt;Node3 -->
<g id="edge2" class="edge">
<title>Node2&#45;&gt;Node3</title>
<path fill="none" stroke="midnightblue" d="M731.39,-271.67C832.4,-270.17 1015.86,-261.4 1166.55,-221 1168.7,-220.42 1170.89,-219.71 1173.07,-218.92"/>
<polygon fill="midnightblue" stroke="midnightblue" points="1174.42,-222.15 1182.32,-215.09 1171.74,-215.68 1174.42,-222.15"/>
</g>
<!-- Node4 -->
<g id="node4" class="node">
<title>Node4</title>
<g id="a_node4"><a xlink:title=" ">
<polygon fill="none" stroke="#bfbfbf" points="539.55,-62 539.55,-81 597.55,-81 597.55,-62 539.55,-62"/>
<text text-anchor="middle" x="568.55" y="-69" font-family="Helvetica,sans-Serif" font-size="10.00">memory</text>
</a>
</g>
</g>
<!-- Node2&#45;&gt;Node4 -->
<g id="edge3" class="edge">
<title>Node2&#45;&gt;Node4</title>
<path fill="none" stroke="midnightblue" d="M579.6,-258.14C576.55,-257.73 573.52,-257.35 570.55,-257 509.39,-249.81 59.65,-265.93 17.55,-221 -55.99,-142.53 391.44,-90.35 529.14,-76.31"/>
<polygon fill="midnightblue" stroke="midnightblue" points="529.66,-79.78 539.26,-75.29 528.96,-72.81 529.66,-79.78"/>
</g>
<!-- Node5 -->
<g id="node5" class="node">
<title>Node5</title>
<g id="a_node5"><a xlink:title=" ">
<polygon fill="none" stroke="#bfbfbf" points="1103.55,-129 1103.55,-148 1147.55,-148 1147.55,-129 1103.55,-129"/>
<text text-anchor="middle" x="1125.55" y="-136" font-family="Helvetica,sans-Serif" font-size="10.00">string</text>
</a>
</g>
</g>
<!-- Node2&#45;&gt;Node5 -->
<g id="edge4" class="edge">
<title>Node2&#45;&gt;Node5</title>
<path fill="none" stroke="midnightblue" d="M731.21,-268.96C859.2,-263.87 1107.17,-250.31 1133.55,-221 1148.88,-203.96 1141.72,-176.05 1134.32,-157.73"/>
<polygon fill="midnightblue" stroke="midnightblue" points="1137.46,-156.16 1130.22,-148.43 1131.06,-158.99 1137.46,-156.16"/>
</g>
<!-- Node6 -->
<g id="node6" class="node">
<title>Node6</title>
<g id="a_node6"><a xlink:title=" ">
<polygon fill="none" stroke="#bfbfbf" points="27.05,-196 27.05,-215 120.05,-215 120.05,-196 27.05,-196"/>
<text text-anchor="middle" x="73.55" y="-203" font-family="Helvetica,sans-Serif" font-size="10.00">unordered_map</text>
</a>
</g>
</g>
<!-- Node2&#45;&gt;Node6 -->
<g id="edge5" class="edge">
<title>Node2&#45;&gt;Node6</title>
<path fill="none" stroke="midnightblue" d="M579.59,-258.2C576.54,-257.78 573.52,-257.37 570.55,-257 375.43,-232.44 323.45,-253.77 129.55,-221 124.04,-220.07 118.28,-218.86 112.64,-217.53"/>
<polygon fill="midnightblue" stroke="midnightblue" points="113.24,-214.08 102.69,-215.06 111.55,-220.87 113.24,-214.08"/>
</g>
<!-- Node7 -->
<g id="node7" class="node">
<title>Node7</title>
<g id="a_node7"><a xlink:title=" ">
<polygon fill="none" stroke="#bfbfbf" points="138.55,-196 138.55,-215 306.55,-215 306.55,-196 138.55,-196"/>
<text text-anchor="middle" x="222.55" y="-203" font-family="Helvetica,sans-Serif" font-size="10.00">iDynTree/Core/MatrixDynSize.h</text>
</a>
</g>
</g>
<!-- Node2&#45;&gt;Node7 -->
<g id="edge6" class="edge">
<title>Node2&#45;&gt;Node7</title>
<path fill="none" stroke="midnightblue" d="M580.02,-258.5C576.82,-257.99 573.65,-257.48 570.55,-257 457.45,-239.37 428.76,-237.82 315.55,-221 306.19,-219.61 296.31,-218.11 286.62,-216.61"/>
<polygon fill="midnightblue" stroke="midnightblue" points="287.04,-213.14 276.62,-215.07 285.97,-220.05 287.04,-213.14"/>
</g>
<!-- Node8 -->
<g id="node8" class="node">
<title>Node8</title>
<g id="a_node8"><a xlink:title=" ">
<polygon fill="none" stroke="#bfbfbf" points="325.05,-196 325.05,-215 488.05,-215 488.05,-196 325.05,-196"/>
<text text-anchor="middle" x="406.55" y="-203" font-family="Helvetica,sans-Serif" font-size="10.00">iDynTree/Core/MatrixFixSize.h</text>
</a>
</g>
</g>
<!-- Node2&#45;&gt;Node8 -->
<g id="edge7" class="edge">
<title>Node2&#45;&gt;Node8</title>
<path fill="none" stroke="midnightblue" d="M601.82,-257.48C556.03,-245.52 491.1,-228.57 448.91,-217.56"/>
<polygon fill="midnightblue" stroke="midnightblue" points="449.78,-214.17 439.22,-215.03 448.01,-220.94 449.78,-214.17"/>
</g>
<!-- Node9 -->
<g id="node9" class="node">
<title>Node9</title>
<g id="a_node9"><a xlink:title=" ">
<polygon fill="none" stroke="#bfbfbf" points="506.55,-196 506.55,-215 652.55,-215 652.55,-196 506.55,-196"/>
<text text-anchor="middle" x="579.55" y="-203" font-family="Helvetica,sans-Serif" font-size="10.00">iDynTree/Core/Transform.h</text>
</a>
</g>
</g>
<!-- Node2&#45;&gt;Node9 -->
<g id="edge8" class="edge">
<title>Node2&#45;&gt;Node9</title>
<path fill="none" stroke="midnightblue" d="M639.05,-257.4C626.85,-246.96 610.24,-232.75 597.67,-222"/>
<polygon fill="midnightblue" stroke="midnightblue" points="599.59,-219.03 589.71,-215.19 595.04,-224.35 599.59,-219.03"/>
</g>
<!-- Node10 -->
<g id="node10" class="node">
<title>Node10</title>
<g id="a_node10"><a xlink:title=" ">
<polygon fill="none" stroke="#bfbfbf" points="670.55,-196 670.55,-215 792.55,-215 792.55,-196 670.55,-196"/>
<text text-anchor="middle" x="731.55" y="-203" font-family="Helvetica,sans-Serif" font-size="10.00">iDynTree/Core/Twist.h</text>
</a>
</g>
</g>
<!-- Node2&#45;&gt;Node10 -->
<g id="edge9" class="edge">
<title>Node2&#45;&gt;Node10</title>
<path fill="none" stroke="midnightblue" d="M672.04,-257.4C684.24,-246.96 700.85,-232.75 713.42,-222"/>
<polygon fill="midnightblue" stroke="midnightblue" points="716.05,-224.35 721.38,-215.19 711.5,-219.03 716.05,-224.35"/>
</g>
<!-- Node11 -->
<g id="node11" class="node">
<title>Node11</title>
<g id="a_node11"><a xlink:title=" ">
<polygon fill="none" stroke="#bfbfbf" points="810.55,-196 810.55,-215 972.55,-215 972.55,-196 810.55,-196"/>
<text text-anchor="middle" x="891.55" y="-203" font-family="Helvetica,sans-Serif" font-size="10.00">iDynTree/Core/VectorFixSize.h</text>
</a>
</g>
</g>
<!-- Node2&#45;&gt;Node11 -->
<g id="edge10" class="edge">
<title>Node2&#45;&gt;Node11</title>
<path fill="none" stroke="midnightblue" d="M706.46,-257.48C749.68,-245.57 810.89,-228.72 850.89,-217.7"/>
<polygon fill="midnightblue" stroke="midnightblue" points="851.87,-221.06 860.58,-215.03 850.01,-214.31 851.87,-221.06"/>
</g>
<!-- Node12 -->
<g id="node12" class="node">
<title>Node12</title>
<g id="a_node12"><a xlink:title=" ">
<polygon fill="none" stroke="#bfbfbf" points="990.55,-196 990.55,-215 1124.55,-215 1124.55,-196 990.55,-196"/>
<text text-anchor="middle" x="1057.55" y="-203" font-family="Helvetica,sans-Serif" font-size="10.00">iDynTree/Core/Wrench.h</text>
</a>
</g>
</g>
<!-- Node2&#45;&gt;Node12 -->
<g id="edge11" class="edge">
<title>Node2&#45;&gt;Node12</title>
<path fill="none" stroke="midnightblue" d="M731.09,-260.56C797.24,-250.8 895.9,-235.8 981.55,-221 988.91,-219.73 996.66,-218.32 1004.28,-216.91"/>
<polygon fill="midnightblue" stroke="midnightblue" points="1005.01,-220.33 1014.19,-215.04 1003.71,-213.45 1005.01,-220.33"/>
</g>
<!-- Node13 -->
<g id="node13" class="node">
<title>Node13</title>
<g id="a_node13"><a xlink:href="IParametersHandler_8h.html" target="_top" xlink:title=" ">
<polygon fill="none" stroke="black" points="1234.05,-190.5 1234.05,-220.5 1403.05,-220.5 1403.05,-190.5 1234.05,-190.5"/>
<text text-anchor="start" x="1242.05" y="-208.5" font-family="Helvetica,sans-Serif" font-size="10.00">BipedalLocomotion/Parameters</text>
<text text-anchor="middle" x="1318.55" y="-197.5" font-family="Helvetica,sans-Serif" font-size="10.00">Handler/IParametersHandler.h</text>
</a>
</g>
</g>
<!-- Node2&#45;&gt;Node13 -->
<g id="edge12" class="edge">
<title>Node2&#45;&gt;Node13</title>
<path fill="none" stroke="midnightblue" d="M731.32,-266.39C838.71,-258.8 1041.53,-243.14 1223.89,-221.16"/>
<polygon fill="midnightblue" stroke="midnightblue" points="1224.43,-224.62 1233.93,-219.94 1223.58,-217.67 1224.43,-224.62"/>
</g>
<!-- Node13&#45;&gt;Node4 -->
<g id="edge13" class="edge">
<title>Node13&#45;&gt;Node4</title>
<path fill="none" stroke="midnightblue" d="M1276.16,-190.46C1251.78,-181.58 1221.03,-168.95 1195.55,-154 1176.45,-142.8 1177.12,-131.18 1156.55,-123 1056.26,-83.1 722.82,-74.67 607.89,-72.94"/>
<polygon fill="midnightblue" stroke="midnightblue" points="607.82,-69.44 597.78,-72.79 607.72,-76.43 607.82,-69.44"/>
</g>
<!-- Node13&#45;&gt;Node5 -->
<g id="edge14" class="edge">
<title>Node13&#45;&gt;Node5</title>
<path fill="none" stroke="midnightblue" d="M1271.88,-190.45C1240.49,-180.77 1198.3,-167.29 1161.55,-154 1159.64,-153.31 1157.69,-152.59 1155.73,-151.84"/>
<polygon fill="midnightblue" stroke="midnightblue" points="1156.6,-148.42 1146.01,-148.04 1154.05,-154.94 1156.6,-148.42"/>
</g>
<!-- Node14 -->
<g id="node14" class="node">
<title>Node14</title>
<g id="a_node14"><a xlink:title=" ">
<polygon fill="none" stroke="#bfbfbf" points="1204.05,-129 1204.05,-148 1251.05,-148 1251.05,-129 1204.05,-129"/>
<text text-anchor="middle" x="1227.55" y="-136" font-family="Helvetica,sans-Serif" font-size="10.00">vector</text>
</a>
</g>
</g>
<!-- Node13&#45;&gt;Node14 -->
<g id="edge15" class="edge">
<title>Node13&#45;&gt;Node14</title>
<path fill="none" stroke="midnightblue" d="M1298.8,-190.4C1283.68,-179.6 1262.9,-164.76 1247.69,-153.89"/>
<polygon fill="midnightblue" stroke="midnightblue" points="1249.63,-150.97 1239.46,-148.01 1245.56,-156.67 1249.63,-150.97"/>
</g>
<!-- Node15 -->
<g id="node15" class="node">
<title>Node15</title>
<g id="a_node15"><a xlink:href="TemplateHelpers_8h_source.html" target="_top" xlink:title=" ">
<polygon fill="none" stroke="black" points="1477.55,-56.5 1477.55,-86.5 1635.55,-86.5 1635.55,-56.5 1477.55,-56.5"/>
<text text-anchor="start" x="1485.55" y="-74.5" font-family="Helvetica,sans-Serif" font-size="10.00">BipedalLocomotion/Generic</text>
<text text-anchor="middle" x="1556.55" y="-63.5" font-family="Helvetica,sans-Serif" font-size="10.00">Container/TemplateHelpers.h</text>
</a>
</g>
</g>
<!-- Node13&#45;&gt;Node15 -->
<g id="edge16" class="edge">
<title>Node13&#45;&gt;Node15</title>
<path fill="none" stroke="midnightblue" d="M1352.68,-190.48C1374.95,-180.97 1404.45,-167.67 1429.55,-154 1464.53,-134.94 1502.77,-109.77 1528.04,-92.47"/>
<polygon fill="midnightblue" stroke="midnightblue" points="1530.17,-95.26 1536.42,-86.7 1526.2,-89.49 1530.17,-95.26"/>
</g>
<!-- Node19 -->
<g id="node19" class="node">
<title>Node19</title>
<g id="a_node19"><a xlink:href="Vector_8h_source.html" target="_top" xlink:title=" ">
<polygon fill="none" stroke="black" points="1269.05,-123.5 1269.05,-153.5 1420.05,-153.5 1420.05,-123.5 1269.05,-123.5"/>
<text text-anchor="start" x="1277.05" y="-141.5" font-family="Helvetica,sans-Serif" font-size="10.00">BipedalLocomotion/Generic</text>
<text text-anchor="middle" x="1344.55" y="-130.5" font-family="Helvetica,sans-Serif" font-size="10.00">Container/Vector.h</text>
</a>
</g>
</g>
<!-- Node13&#45;&gt;Node19 -->
<g id="edge20" class="edge">
<title>Node13&#45;&gt;Node19</title>
<path fill="none" stroke="midnightblue" d="M1324.19,-190.4C1327.39,-182.39 1331.48,-172.16 1335.15,-162.98"/>
<polygon fill="midnightblue" stroke="midnightblue" points="1338.45,-164.16 1338.91,-153.58 1331.95,-161.56 1338.45,-164.16"/>
</g>
<!-- Node16 -->
<g id="node16" class="node">
<title>Node16</title>
<g id="a_node16"><a xlink:title=" ">
<polygon fill="none" stroke="#bfbfbf" points="1433.05,-0.5 1433.05,-19.5 1502.05,-19.5 1502.05,-0.5 1433.05,-0.5"/>
<text text-anchor="middle" x="1467.55" y="-7.5" font-family="Helvetica,sans-Serif" font-size="10.00">type_traits</text>
</a>
</g>
</g>
<!-- Node15&#45;&gt;Node16 -->
<g id="edge17" class="edge">
<title>Node15&#45;&gt;Node16</title>
<path fill="none" stroke="midnightblue" d="M1535.45,-56.4C1521.45,-47.04 1503.13,-34.79 1489.05,-25.38"/>
<polygon fill="midnightblue" stroke="midnightblue" points="1490.75,-22.31 1480.5,-19.66 1486.86,-28.13 1490.75,-22.31"/>
</g>
<!-- Node17 -->
<g id="node17" class="node">
<title>Node17</title>
<g id="a_node17"><a xlink:title=" ">
<polygon fill="none" stroke="#bfbfbf" points="1520.05,-0.5 1520.05,-19.5 1593.05,-19.5 1593.05,-0.5 1520.05,-0.5"/>
<text text-anchor="middle" x="1556.55" y="-7.5" font-family="Helvetica,sans-Serif" font-size="10.00">string_view</text>
</a>
</g>
</g>
<!-- Node15&#45;&gt;Node17 -->
<g id="edge18" class="edge">
<title>Node15&#45;&gt;Node17</title>
<path fill="none" stroke="midnightblue" d="M1556.55,-56.4C1556.55,-48.47 1556.55,-38.46 1556.55,-29.86"/>
<polygon fill="midnightblue" stroke="midnightblue" points="1560.05,-29.66 1556.55,-19.66 1553.05,-29.66 1560.05,-29.66"/>
</g>
<!-- Node18 -->
<g id="node18" class="node">
<title>Node18</title>
<g id="a_node18"><a xlink:title=" ">
<polygon fill="none" stroke="#bfbfbf" points="1611.05,-0.5 1611.05,-19.5 1680.05,-19.5 1680.05,-0.5 1611.05,-0.5"/>
<text text-anchor="middle" x="1645.55" y="-7.5" font-family="Helvetica,sans-Serif" font-size="10.00">Eigen/Core</text>
</a>
</g>
</g>
<!-- Node15&#45;&gt;Node18 -->
<g id="edge19" class="edge">
<title>Node15&#45;&gt;Node18</title>
<path fill="none" stroke="midnightblue" d="M1577.64,-56.4C1591.64,-47.04 1609.96,-34.79 1624.04,-25.38"/>
<polygon fill="midnightblue" stroke="midnightblue" points="1626.23,-28.13 1632.6,-19.66 1622.34,-22.31 1626.23,-28.13"/>
</g>
<!-- Node19&#45;&gt;Node4 -->
<g id="edge26" class="edge">
<title>Node19&#45;&gt;Node4</title>
<path fill="none" stroke="midnightblue" d="M1269.04,-124.11C1266.18,-123.71 1263.34,-123.34 1260.55,-123 1013.17,-92.7 713.66,-78.39 607.86,-74.02"/>
<polygon fill="midnightblue" stroke="midnightblue" points="607.79,-70.51 597.65,-73.6 607.5,-77.51 607.79,-70.51"/>
</g>
<!-- Node19&#45;&gt;Node15 -->
<g id="edge22" class="edge">
<title>Node19&#45;&gt;Node15</title>
<path fill="none" stroke="midnightblue" d="M1390.29,-123.48C1422.64,-113.56 1466.2,-100.2 1500.62,-89.65"/>
<polygon fill="midnightblue" stroke="midnightblue" points="1501.99,-92.89 1510.52,-86.61 1499.94,-86.2 1501.99,-92.89"/>
</g>
<!-- Node20 -->
<g id="node20" class="node">
<title>Node20</title>
<g id="a_node20"><a xlink:title=" ">
<polygon fill="none" stroke="#bfbfbf" points="1338.05,-62 1338.05,-81 1459.05,-81 1459.05,-62 1338.05,-62"/>
<text text-anchor="middle" x="1398.55" y="-69" font-family="Helvetica,sans-Serif" font-size="10.00">iDynTree/Core/Span.h</text>
</a>
</g>
</g>
<!-- Node19&#45;&gt;Node20 -->
<g id="edge21" class="edge">
<title>Node19&#45;&gt;Node20</title>
<path fill="none" stroke="midnightblue" d="M1356.26,-123.4C1364.68,-113.26 1376.06,-99.57 1384.89,-88.94"/>
<polygon fill="midnightblue" stroke="midnightblue" points="1387.62,-91.12 1391.32,-81.19 1382.24,-86.65 1387.62,-91.12"/>
</g>
<!-- Node21 -->
<g id="node21" class="node">
<title>Node21</title>
<g id="a_node21"><a xlink:title=" ">
<polygon fill="none" stroke="#bfbfbf" points="1106.05,-62 1106.05,-81 1171.05,-81 1171.05,-62 1106.05,-62"/>
<text text-anchor="middle" x="1138.55" y="-69" font-family="Helvetica,sans-Serif" font-size="10.00">functional</text>
</a>
</g>
</g>
<!-- Node19&#45;&gt;Node21 -->
<g id="edge23" class="edge">
<title>Node19&#45;&gt;Node21</title>
<path fill="none" stroke="midnightblue" d="M1297.4,-123.44C1264.55,-113.54 1219.77,-99.81 1180.55,-87 1177.95,-86.15 1175.28,-85.26 1172.59,-84.36"/>
<polygon fill="midnightblue" stroke="midnightblue" points="1173.52,-80.98 1162.93,-81.07 1171.27,-87.61 1173.52,-80.98"/>
</g>
<!-- Node22 -->
<g id="node22" class="node">
<title>Node22</title>
<g id="a_node22"><a xlink:title=" ">
<polygon fill="none" stroke="#bfbfbf" points="1189.55,-62 1189.55,-81 1241.55,-81 1241.55,-62 1189.55,-62"/>
<text text-anchor="middle" x="1215.55" y="-69" font-family="Helvetica,sans-Serif" font-size="10.00">cassert</text>
</a>
</g>
</g>
<!-- Node19&#45;&gt;Node22 -->
<g id="edge24" class="edge">
<title>Node19&#45;&gt;Node22</title>
<path fill="none" stroke="midnightblue" d="M1316.55,-123.4C1294.22,-112.14 1263.18,-96.5 1241.42,-85.54"/>
<polygon fill="midnightblue" stroke="midnightblue" points="1242.93,-82.38 1232.43,-81.01 1239.78,-88.63 1242.93,-82.38"/>
</g>
<!-- Node23 -->
<g id="node23" class="node">
<title>Node23</title>
<g id="a_node23"><a xlink:title=" ">
<polygon fill="none" stroke="#bfbfbf" points="1259.55,-62 1259.55,-81 1319.55,-81 1319.55,-62 1259.55,-62"/>
<text text-anchor="middle" x="1289.55" y="-69" font-family="Helvetica,sans-Serif" font-size="10.00">iostream</text>
</a>
</g>
</g>
<!-- Node19&#45;&gt;Node23 -->
<g id="edge25" class="edge">
<title>Node19&#45;&gt;Node23</title>
<path fill="none" stroke="midnightblue" d="M1332.61,-123.4C1324.04,-113.26 1312.45,-99.57 1303.45,-88.94"/>
<polygon fill="midnightblue" stroke="midnightblue" points="1306.03,-86.57 1296.9,-81.19 1300.69,-91.09 1306.03,-86.57"/>
</g>
<!-- Node24&#45;&gt;Node2 -->
<g id="edge29" class="edge">
<title>Node24&#45;&gt;Node2</title>
<path fill="none" stroke="midnightblue" d="M550.94,-324.36C571.72,-314.26 596.91,-302.01 617.37,-292.06"/>
<polygon fill="midnightblue" stroke="midnightblue" points="618.94,-295.19 626.4,-287.67 615.88,-288.9 618.94,-295.19"/>
</g>
<!-- Node24&#45;&gt;Node4 -->
<g id="edge28" class="edge">
<title>Node24&#45;&gt;Node4</title>
<path fill="none" stroke="midnightblue" d="M412.01,-334.26C279.61,-318.9 55.13,-284.11 5.55,-221 -2.97,-210.17 -0.28,-202.48 5.55,-190 25.17,-147.98 42.84,-141.09 85.55,-123 165.4,-89.17 428.82,-77.1 529.21,-73.66"/>
<polygon fill="midnightblue" stroke="midnightblue" points="529.36,-77.16 539.24,-73.33 529.13,-70.17 529.36,-77.16"/>
</g>
<!-- Node25 -->
<g id="node25" class="node">
<title>Node25</title>
<g id="a_node25"><a xlink:title=" ">
<polygon fill="none" stroke="#bfbfbf" points="423.05,-263 423.05,-282 562.05,-282 562.05,-263 423.05,-263"/>
<text text-anchor="middle" x="492.55" y="-270" font-family="Helvetica,sans-Serif" font-size="10.00">iDynTree/Model/Indices.h</text>
</a>
</g>
</g>
<!-- Node24&#45;&gt;Node25 -->
<g id="edge30" class="edge">
<title>Node24&#45;&gt;Node25</title>
<path fill="none" stroke="midnightblue" d="M505.53,-324.36C502.96,-314.3 499.85,-302.1 497.31,-292.18"/>
<polygon fill="midnightblue" stroke="midnightblue" points="500.62,-291 494.76,-282.17 493.84,-292.73 500.62,-291"/>
</g>
</g>
</svg>
        <g id="navigator" transform="translate(0 0)" fill="#404254">
                <rect fill="#f2f5e9" fill-opacity="0.5" stroke="#606060" stroke-width=".5" x="0" y="0" width="60" height="60"/>
                <use id="zoomplus" xlink:href="#zoomPlus" x="17" y="9" onmousedown="handleZoom(evt,'in')"/>
                <use id="zoomminus" xlink:href="#zoomMin" x="42" y="9" onmousedown="handleZoom(evt,'out')"/>
                <use id="reset" xlink:href="#resetDef" x="30" y="36" onmousedown="handleReset()"/>
                <g id="arrowUp" xlink:href="#dirArrow" transform="translate(30 24)" onmousedown="handlePan(0,-1)">
                  <use xlink:href="#rim" fill="#404040">
                        <set attributeName="fill" to="#808080" begin="arrowUp.mouseover" end="arrowUp.mouseout"/>
                  </use>
                  <path fill="none" stroke="white" stroke-width="1.5" d="M0,-3.0v7 M-2.5,-0.5L0,-3.0L2.5,-0.5"/>
                </g>
                <g id="arrowRight" xlink:href="#dirArrow" transform="rotate(90) translate(36 -43)" onmousedown="handlePan(1,0)">
                  <use xlink:href="#rim" fill="#404040">
                        <set attributeName="fill" to="#808080" begin="arrowRight.mouseover" end="arrowRight.mouseout"/>
                  </use>
                  <path fill="none" stroke="white" stroke-width="1.5" d="M0,-3.0v7 M-2.5,-0.5L0,-3.0L2.5,-0.5"/>
                </g>
                <g id="arrowDown" xlink:href="#dirArrow" transform="rotate(180) translate(-30 -48)" onmousedown="handlePan(0,1)">
                  <use xlink:href="#rim" fill="#404040">
                        <set attributeName="fill" to="#808080" begin="arrowDown.mouseover" end="arrowDown.mouseout"/>
                  </use>
                  <path fill="none" stroke="white" stroke-width="1.5" d="M0,-3.0v7 M-2.5,-0.5L0,-3.0L2.5,-0.5"/>
                </g>
                <g id="arrowLeft" xlink:href="#dirArrow" transform="rotate(270) translate(-36 17)" onmousedown="handlePan(-1,0)">
                  <use xlink:href="#rim" fill="#404040">
                        <set attributeName="fill" to="#808080" begin="arrowLeft.mouseover" end="arrowLeft.mouseout"/>
                  </use>
                  <path fill="none" stroke="white" stroke-width="1.5" d="M0,-3.0v7 M-2.5,-0.5L0,-3.0L2.5,-0.5"/>
                </g>
        </g>
        <svg viewBox="0 0 15 15" width="100%" height="30px" preserveAspectRatio="xMaxYMin meet">
         <g id="arrow_out" transform="scale(0.3 0.3)">
          <a xlink:href="CompliantContactWrench_8cpp__incl_org.svg" target="_base">
           <rect id="button" ry="5" rx="5" y="6" x="6" height="38" width="38"
                fill="#f2f5e9" fill-opacity="0.5" stroke="#606060" stroke-width="1.0"/>
           <path id="arrow"
             d="M 11.500037,31.436501 C 11.940474,20.09759 22.043105,11.32322 32.158766,21.979434 L 37.068811,17.246167 C 37.068811,17.246167 37.088388,32 37.088388,32 L 22.160133,31.978069 C 22.160133,31.978069 26.997745,27.140456 26.997745,27.140456 C 18.528582,18.264221 13.291696,25.230495 11.500037,31.436501 z"
             style="fill:#404040;"/>
          </a>
         </g>
        </svg>
</svg>
