<?xml version="1.0" encoding="UTF-8" standalone="no"?>
<!DOCTYPE svg PUBLIC "-//W3C//DTD SVG 1.1//EN"
 "http://www.w3.org/Graphics/SVG/1.1/DTD/svg11.dtd">
<!-- Generated by graphviz version 2.43.0 (0)
 -->
<!-- Title: ContinuousDynamicalSystem/include/BipedalLocomotion/ContinuousDynamicalSystem/CompliantContactWrench.h Pages: 1 -->
<!--zoomable 385 -->
<svg id="main" version="1.1" xmlns="http://www.w3.org/2000/svg" xmlns:xlink="http://www.w3.org/1999/xlink" xml:space="preserve" onload="init(evt)">
<style type="text/css"><![CDATA[
.edge:hover path { stroke: red; }
.edge:hover polygon { stroke: red; fill: red; }
]]></style>
<script type="text/javascript"><![CDATA[
var edges = document.getElementsByTagName('g');
if (edges && edges.length) {
  for (var i=0;i<edges.length;i++) {
    if (edges[i].id.substr(0,4)=='edge') {
      edges[i].setAttribute('class','edge');
    }
  }
}
]]></script>
        <defs>
                <circle id="rim" cx="0" cy="0" r="7"/>
                <circle id="rim2" cx="0" cy="0" r="3.5"/>
                <g id="zoomPlus">
                        <use xlink:href="#rim" fill="#404040">
                                <set attributeName="fill" to="#808080" begin="zoomplus.mouseover" end="zoomplus.mouseout"/>
                        </use>
                        <path d="M-4,0h8M0,-4v8" fill="none" stroke="white" stroke-width="1.5" pointer-events="none"/>
                </g>
                <g id="zoomMin">
                        <use xlink:href="#rim" fill="#404040">
                                <set attributeName="fill" to="#808080" begin="zoomminus.mouseover" end="zoomminus.mouseout"/>
                        </use>
                        <path d="M-4,0h8" fill="none" stroke="white" stroke-width="1.5" pointer-events="none"/>
                </g>
                <g id="dirArrow">
                        <path fill="none" stroke="white" stroke-width="1.5" d="M0,-3.0v7 M-2.5,-0.5L0,-3.0L2.5,-0.5"/>
                </g>
               <g id="resetDef">
                       <use xlink:href="#rim2" fill="#404040">
                               <set attributeName="fill" to="#808080" begin="reset.mouseover" end="reset.mouseout"/>
                       </use>
               </g>
        </defs>

<script type="text/javascript">
var viewWidth = 1607;
var viewHeight = 385;
var sectionId = 'dynsection-0';
</script>
<script xlink:href="svgpan.js"/>
<svg id="graph" class="graph">
<g id="viewport">
<title>ContinuousDynamicalSystem/include/BipedalLocomotion/ContinuousDynamicalSystem/CompliantContactWrench.h</title>
<!-- Node1 -->
<g id="node1" class="node">
<title>Node1</title>
<g id="a_node1"><a xlink:title=" ">
<polygon fill="#bfbfbf" stroke="black" points="1349.5,-324.5 1349.5,-376.5 1513.5,-376.5 1513.5,-324.5 1349.5,-324.5"/>
<text text-anchor="start" x="1357.5" y="-364.5" font-family="Helvetica,sans-Serif" font-size="10.00">ContinuousDynamicalSystem</text>
<text text-anchor="start" x="1357.5" y="-353.5" font-family="Helvetica,sans-Serif" font-size="10.00">/include/BipedalLocomotion</text>
<text text-anchor="start" x="1357.5" y="-342.5" font-family="Helvetica,sans-Serif" font-size="10.00">/ContinuousDynamicalSystem</text>
<text text-anchor="middle" x="1431.5" y="-331.5" font-family="Helvetica,sans-Serif" font-size="10.00">/CompliantContactWrench.h</text>
</a>
</g>
</g>
<!-- Node2 -->
<g id="node2" class="node">
<title>Node2</title>
<g id="a_node2"><a xlink:title=" ">
<polygon fill="none" stroke="#bfbfbf" points="985.5,-62 985.5,-81 1043.5,-81 1043.5,-62 985.5,-62"/>
<text text-anchor="middle" x="1014.5" y="-69" font-family="Helvetica,sans-Serif" font-size="10.00">memory</text>
</a>
</g>
</g>
<!-- Node1&#45;&gt;Node2 -->
<g id="edge1" class="edge">
<title>Node1&#45;&gt;Node2</title>
<path fill="none" stroke="midnightblue" d="M1433.16,-324.17C1434.75,-275.84 1430.34,-170.99 1367.5,-123 1318.94,-85.92 1135.4,-76 1053.9,-73.4"/>
<polygon fill="midnightblue" stroke="midnightblue" points="1053.66,-69.89 1043.56,-73.09 1053.46,-76.89 1053.66,-69.89"/>
</g>
<!-- Node3 -->
<g id="node3" class="node">
<title>Node3</title>
<g id="a_node3"><a xlink:href="ContactModel_8h.html" target="_top" xlink:title=" ">
<polygon fill="none" stroke="black" points="659,-257.5 659,-287.5 810,-287.5 810,-257.5 659,-257.5"/>
<text text-anchor="start" x="667" y="-275.5" font-family="Helvetica,sans-Serif" font-size="10.00">BipedalLocomotion/Contact</text>
<text text-anchor="middle" x="734.5" y="-264.5" font-family="Helvetica,sans-Serif" font-size="10.00">Models/ContactModel.h</text>
</a>
</g>
</g>
<!-- Node1&#45;&gt;Node3 -->
<g id="edge2" class="edge">
<title>Node1&#45;&gt;Node3</title>
<path fill="none" stroke="midnightblue" d="M1349.5,-340.56C1216.66,-326.07 955.7,-297.62 820.4,-282.87"/>
<polygon fill="midnightblue" stroke="midnightblue" points="820.41,-279.35 810.09,-281.74 819.65,-286.31 820.41,-279.35"/>
</g>
<!-- Node24 -->
<g id="node24" class="node">
<title>Node24</title>
<g id="a_node24"><a xlink:title=" ">
<polygon fill="none" stroke="#bfbfbf" points="1460,-263 1460,-282 1599,-282 1599,-263 1460,-263"/>
<text text-anchor="middle" x="1529.5" y="-270" font-family="Helvetica,sans-Serif" font-size="10.00">iDynTree/Model/Indices.h</text>
</a>
</g>
</g>
<!-- Node1&#45;&gt;Node24 -->
<g id="edge28" class="edge">
<title>Node1&#45;&gt;Node24</title>
<path fill="none" stroke="midnightblue" d="M1463.86,-324.4C1479.23,-312.49 1497.07,-298.65 1510.27,-288.41"/>
<polygon fill="midnightblue" stroke="midnightblue" points="1512.45,-291.15 1518.2,-282.26 1508.16,-285.62 1512.45,-291.15"/>
</g>
<!-- Node3&#45;&gt;Node2 -->
<g id="edge4" class="edge">
<title>Node3&#45;&gt;Node2</title>
<path fill="none" stroke="midnightblue" d="M810.26,-271.16C971.47,-269.64 1336.89,-261.7 1374.5,-221 1471.08,-116.5 1165.55,-83.46 1053.79,-75.01"/>
<polygon fill="midnightblue" stroke="midnightblue" points="1053.83,-71.5 1043.6,-74.26 1053.32,-78.48 1053.83,-71.5"/>
</g>
<!-- Node4 -->
<g id="node4" class="node">
<title>Node4</title>
<g id="a_node4"><a xlink:title=" ">
<polygon fill="none" stroke="#bfbfbf" points="28,-196 28,-215 63,-215 63,-196 28,-196"/>
<text text-anchor="middle" x="45.5" y="-203" font-family="Helvetica,sans-Serif" font-size="10.00">any</text>
</a>
</g>
</g>
<!-- Node3&#45;&gt;Node4 -->
<g id="edge3" class="edge">
<title>Node3&#45;&gt;Node4</title>
<path fill="none" stroke="midnightblue" d="M658.73,-269.81C508.81,-265.81 179.48,-253.5 71.5,-221 70.08,-220.57 68.65,-220.06 67.23,-219.48"/>
<polygon fill="midnightblue" stroke="midnightblue" points="68.75,-216.33 58.23,-215.04 65.65,-222.61 68.75,-216.33"/>
</g>
<!-- Node5 -->
<g id="node5" class="node">
<title>Node5</title>
<g id="a_node5"><a xlink:title=" ">
<polygon fill="none" stroke="#bfbfbf" points="35.5,-129 35.5,-148 79.5,-148 79.5,-129 35.5,-129"/>
<text text-anchor="middle" x="57.5" y="-136" font-family="Helvetica,sans-Serif" font-size="10.00">string</text>
</a>
</g>
</g>
<!-- Node3&#45;&gt;Node5 -->
<g id="edge5" class="edge">
<title>Node3&#45;&gt;Node5</title>
<path fill="none" stroke="midnightblue" d="M658.74,-271.85C483.44,-271.88 61.46,-267.09 18.5,-221 0.69,-201.89 22.55,-173.17 40,-155.41"/>
<polygon fill="midnightblue" stroke="midnightblue" points="42.8,-157.57 47.56,-148.1 37.94,-152.54 42.8,-157.57"/>
</g>
<!-- Node6 -->
<g id="node6" class="node">
<title>Node6</title>
<g id="a_node6"><a xlink:title=" ">
<polygon fill="none" stroke="#bfbfbf" points="268,-196 268,-215 361,-215 361,-196 268,-196"/>
<text text-anchor="middle" x="314.5" y="-203" font-family="Helvetica,sans-Serif" font-size="10.00">unordered_map</text>
</a>
</g>
</g>
<!-- Node3&#45;&gt;Node6 -->
<g id="edge6" class="edge">
<title>Node3&#45;&gt;Node6</title>
<path fill="none" stroke="midnightblue" d="M658.78,-263.58C584.86,-255.24 469.38,-240.59 370.5,-221 365.4,-219.99 360.07,-218.79 354.81,-217.53"/>
<polygon fill="midnightblue" stroke="midnightblue" points="355.42,-214.07 344.87,-215.04 353.72,-220.87 355.42,-214.07"/>
</g>
<!-- Node7 -->
<g id="node7" class="node">
<title>Node7</title>
<g id="a_node7"><a xlink:title=" ">
<polygon fill="none" stroke="#bfbfbf" points="379.5,-196 379.5,-215 547.5,-215 547.5,-196 379.5,-196"/>
<text text-anchor="middle" x="463.5" y="-203" font-family="Helvetica,sans-Serif" font-size="10.00">iDynTree/Core/MatrixDynSize.h</text>
</a>
</g>
</g>
<!-- Node3&#45;&gt;Node7 -->
<g id="edge7" class="edge">
<title>Node3&#45;&gt;Node7</title>
<path fill="none" stroke="midnightblue" d="M676.03,-257.48C625.98,-245.47 554.93,-228.43 509.02,-217.42"/>
<polygon fill="midnightblue" stroke="midnightblue" points="509.6,-213.96 499.06,-215.03 507.97,-220.76 509.6,-213.96"/>
</g>
<!-- Node8 -->
<g id="node8" class="node">
<title>Node8</title>
<g id="a_node8"><a xlink:title=" ">
<polygon fill="none" stroke="#bfbfbf" points="566,-196 566,-215 729,-215 729,-196 566,-196"/>
<text text-anchor="middle" x="647.5" y="-203" font-family="Helvetica,sans-Serif" font-size="10.00">iDynTree/Core/MatrixFixSize.h</text>
</a>
</g>
</g>
<!-- Node3&#45;&gt;Node8 -->
<g id="edge8" class="edge">
<title>Node3&#45;&gt;Node8</title>
<path fill="none" stroke="midnightblue" d="M715.62,-257.4C701.39,-246.76 681.9,-232.2 667.42,-221.38"/>
<polygon fill="midnightblue" stroke="midnightblue" points="669.24,-218.38 659.14,-215.19 665.05,-223.98 669.24,-218.38"/>
</g>
<!-- Node9 -->
<g id="node9" class="node">
<title>Node9</title>
<g id="a_node9"><a xlink:title=" ">
<polygon fill="none" stroke="#bfbfbf" points="747.5,-196 747.5,-215 893.5,-215 893.5,-196 747.5,-196"/>
<text text-anchor="middle" x="820.5" y="-203" font-family="Helvetica,sans-Serif" font-size="10.00">iDynTree/Core/Transform.h</text>
</a>
</g>
</g>
<!-- Node3&#45;&gt;Node9 -->
<g id="edge9" class="edge">
<title>Node3&#45;&gt;Node9</title>
<path fill="none" stroke="midnightblue" d="M753.16,-257.4C767.23,-246.76 786.49,-232.2 800.81,-221.38"/>
<polygon fill="midnightblue" stroke="midnightblue" points="803.13,-224.02 809,-215.19 798.91,-218.43 803.13,-224.02"/>
</g>
<!-- Node10 -->
<g id="node10" class="node">
<title>Node10</title>
<g id="a_node10"><a xlink:title=" ">
<polygon fill="none" stroke="#bfbfbf" points="911.5,-196 911.5,-215 1033.5,-215 1033.5,-196 911.5,-196"/>
<text text-anchor="middle" x="972.5" y="-203" font-family="Helvetica,sans-Serif" font-size="10.00">iDynTree/Core/Twist.h</text>
</a>
</g>
</g>
<!-- Node3&#45;&gt;Node10 -->
<g id="edge10" class="edge">
<title>Node3&#45;&gt;Node10</title>
<path fill="none" stroke="midnightblue" d="M785.85,-257.48C829.44,-245.57 891.16,-228.72 931.5,-217.7"/>
<polygon fill="midnightblue" stroke="midnightblue" points="932.55,-221.04 941.27,-215.03 930.7,-214.29 932.55,-221.04"/>
</g>
<!-- Node11 -->
<g id="node11" class="node">
<title>Node11</title>
<g id="a_node11"><a xlink:title=" ">
<polygon fill="none" stroke="#bfbfbf" points="1051.5,-196 1051.5,-215 1213.5,-215 1213.5,-196 1051.5,-196"/>
<text text-anchor="middle" x="1132.5" y="-203" font-family="Helvetica,sans-Serif" font-size="10.00">iDynTree/Core/VectorFixSize.h</text>
</a>
</g>
</g>
<!-- Node3&#45;&gt;Node11 -->
<g id="edge11" class="edge">
<title>Node3&#45;&gt;Node11</title>
<path fill="none" stroke="midnightblue" d="M810.3,-259.12C885.75,-246.8 1000.16,-228.11 1070.41,-216.64"/>
<polygon fill="midnightblue" stroke="midnightblue" points="1071.14,-220.07 1080.44,-215 1070.01,-213.16 1071.14,-220.07"/>
</g>
<!-- Node12 -->
<g id="node12" class="node">
<title>Node12</title>
<g id="a_node12"><a xlink:title=" ">
<polygon fill="none" stroke="#bfbfbf" points="1231.5,-196 1231.5,-215 1365.5,-215 1365.5,-196 1231.5,-196"/>
<text text-anchor="middle" x="1298.5" y="-203" font-family="Helvetica,sans-Serif" font-size="10.00">iDynTree/Core/Wrench.h</text>
</a>
</g>
</g>
<!-- Node3&#45;&gt;Node12 -->
<g id="edge12" class="edge">
<title>Node3&#45;&gt;Node12</title>
<path fill="none" stroke="midnightblue" d="M810.41,-265.67C906.59,-257.81 1077.34,-242.32 1222.5,-221 1230.53,-219.82 1239.01,-218.39 1247.27,-216.89"/>
<polygon fill="midnightblue" stroke="midnightblue" points="1248,-220.32 1257.19,-215.05 1246.72,-213.43 1248,-220.32"/>
</g>
<!-- Node13 -->
<g id="node13" class="node">
<title>Node13</title>
<g id="a_node13"><a xlink:href="IParametersHandler_8h.html" target="_top" xlink:title=" ">
<polygon fill="none" stroke="black" points="81,-190.5 81,-220.5 250,-220.5 250,-190.5 81,-190.5"/>
<text text-anchor="start" x="89" y="-208.5" font-family="Helvetica,sans-Serif" font-size="10.00">BipedalLocomotion/Parameters</text>
<text text-anchor="middle" x="165.5" y="-197.5" font-family="Helvetica,sans-Serif" font-size="10.00">Handler/IParametersHandler.h</text>
</a>
</g>
</g>
<!-- Node3&#45;&gt;Node13 -->
<g id="edge13" class="edge">
<title>Node3&#45;&gt;Node13</title>
<path fill="none" stroke="midnightblue" d="M658.68,-264.55C566.93,-255.89 407.49,-240.04 260.16,-221.05"/>
<polygon fill="midnightblue" stroke="midnightblue" points="260.39,-217.55 250.02,-219.73 259.49,-224.49 260.39,-217.55"/>
</g>
<!-- Node13&#45;&gt;Node2 -->
<g id="edge14" class="edge">
<title>Node13&#45;&gt;Node2</title>
<path fill="none" stroke="midnightblue" d="M238.92,-190.45C289.73,-180.07 352.37,-165.75 376.5,-154 396.41,-144.3 394.92,-131.17 415.5,-123 517.91,-82.35 858.91,-74.4 975.23,-72.86"/>
<polygon fill="midnightblue" stroke="midnightblue" points="975.5,-76.36 985.45,-72.74 975.41,-69.36 975.5,-76.36"/>
</g>
<!-- Node13&#45;&gt;Node5 -->
<g id="edge15" class="edge">
<title>Node13&#45;&gt;Node5</title>
<path fill="none" stroke="midnightblue" d="M142.07,-190.4C123.79,-179.39 98.54,-164.2 80.4,-153.28"/>
<polygon fill="midnightblue" stroke="midnightblue" points="82.01,-150.16 71.63,-148.01 78.4,-156.16 82.01,-150.16"/>
</g>
<!-- Node14 -->
<g id="node14" class="node">
<title>Node14</title>
<g id="a_node14"><a xlink:title=" ">
<polygon fill="none" stroke="#bfbfbf" points="424,-129 424,-148 471,-148 471,-129 424,-129"/>
<text text-anchor="middle" x="447.5" y="-136" font-family="Helvetica,sans-Serif" font-size="10.00">vector</text>
</a>
</g>
</g>
<!-- Node13&#45;&gt;Node14 -->
<g id="edge16" class="edge">
<title>Node13&#45;&gt;Node14</title>
<path fill="none" stroke="midnightblue" d="M249.88,-190.49C297.26,-181.76 357.18,-169.29 409.5,-154 412.08,-153.25 414.73,-152.4 417.38,-151.49"/>
<polygon fill="midnightblue" stroke="midnightblue" points="418.59,-154.78 426.8,-148.09 416.2,-148.2 418.59,-154.78"/>
</g>
<!-- Node15 -->
<g id="node15" class="node">
<title>Node15</title>
<g id="a_node15"><a xlink:href="TemplateHelpers_8h_source.html" target="_top" xlink:title=" ">
<polygon fill="none" stroke="black" points="44.5,-56.5 44.5,-86.5 202.5,-86.5 202.5,-56.5 44.5,-56.5"/>
<text text-anchor="start" x="52.5" y="-74.5" font-family="Helvetica,sans-Serif" font-size="10.00">BipedalLocomotion/Generic</text>
<text text-anchor="middle" x="123.5" y="-63.5" font-family="Helvetica,sans-Serif" font-size="10.00">Container/TemplateHelpers.h</text>
</a>
</g>
</g>
<!-- Node13&#45;&gt;Node15 -->
<g id="edge17" class="edge">
<title>Node13&#45;&gt;Node15</title>
<path fill="none" stroke="midnightblue" d="M161.01,-190.37C153.84,-167.85 139.74,-123.53 131.02,-96.12"/>
<polygon fill="midnightblue" stroke="midnightblue" points="134.33,-94.99 127.96,-86.52 127.66,-97.12 134.33,-94.99"/>
</g>
<!-- Node19 -->
<g id="node19" class="node">
<title>Node19</title>
<g id="a_node19"><a xlink:href="Vector_8h_source.html" target="_top" xlink:title=" ">
<polygon fill="none" stroke="black" points="216,-123.5 216,-153.5 367,-153.5 367,-123.5 216,-123.5"/>
<text text-anchor="start" x="224" y="-141.5" font-family="Helvetica,sans-Serif" font-size="10.00">BipedalLocomotion/Generic</text>
<text text-anchor="middle" x="291.5" y="-130.5" font-family="Helvetica,sans-Serif" font-size="10.00">Container/Vector.h</text>
</a>
</g>
</g>
<!-- Node13&#45;&gt;Node19 -->
<g id="edge21" class="edge">
<title>Node13&#45;&gt;Node19</title>
<path fill="none" stroke="midnightblue" d="M192.84,-190.4C211.09,-180.98 235.28,-168.5 255.14,-158.26"/>
<polygon fill="midnightblue" stroke="midnightblue" points="256.93,-161.27 264.21,-153.58 253.72,-155.05 256.93,-161.27"/>
</g>
<!-- Node16 -->
<g id="node16" class="node">
<title>Node16</title>
<g id="a_node16"><a xlink:title=" ">
<polygon fill="none" stroke="#bfbfbf" points="0,-0.5 0,-19.5 69,-19.5 69,-0.5 0,-0.5"/>
<text text-anchor="middle" x="34.5" y="-7.5" font-family="Helvetica,sans-Serif" font-size="10.00">type_traits</text>
</a>
</g>
</g>
<!-- Node15&#45;&gt;Node16 -->
<g id="edge18" class="edge">
<title>Node15&#45;&gt;Node16</title>
<path fill="none" stroke="midnightblue" d="M102.41,-56.4C88.41,-47.04 70.09,-34.79 56.01,-25.38"/>
<polygon fill="midnightblue" stroke="midnightblue" points="57.71,-22.31 47.45,-19.66 53.82,-28.13 57.71,-22.31"/>
</g>
<!-- Node17 -->
<g id="node17" class="node">
<title>Node17</title>
<g id="a_node17"><a xlink:title=" ">
<polygon fill="none" stroke="#bfbfbf" points="87,-0.5 87,-19.5 160,-19.5 160,-0.5 87,-0.5"/>
<text text-anchor="middle" x="123.5" y="-7.5" font-family="Helvetica,sans-Serif" font-size="10.00">string_view</text>
</a>
</g>
</g>
<!-- Node15&#45;&gt;Node17 -->
<g id="edge19" class="edge">
<title>Node15&#45;&gt;Node17</title>
<path fill="none" stroke="midnightblue" d="M123.5,-56.4C123.5,-48.47 123.5,-38.46 123.5,-29.86"/>
<polygon fill="midnightblue" stroke="midnightblue" points="127,-29.66 123.5,-19.66 120,-29.66 127,-29.66"/>
</g>
<!-- Node18 -->
<g id="node18" class="node">
<title>Node18</title>
<g id="a_node18"><a xlink:title=" ">
<polygon fill="none" stroke="#bfbfbf" points="178,-0.5 178,-19.5 247,-19.5 247,-0.5 178,-0.5"/>
<text text-anchor="middle" x="212.5" y="-7.5" font-family="Helvetica,sans-Serif" font-size="10.00">Eigen/Core</text>
</a>
</g>
</g>
<!-- Node15&#45;&gt;Node18 -->
<g id="edge20" class="edge">
<title>Node15&#45;&gt;Node18</title>
<path fill="none" stroke="midnightblue" d="M144.59,-56.4C158.59,-47.04 176.91,-34.79 190.99,-25.38"/>
<polygon fill="midnightblue" stroke="midnightblue" points="193.18,-28.13 199.55,-19.66 189.29,-22.31 193.18,-28.13"/>
</g>
<!-- Node19&#45;&gt;Node2 -->
<g id="edge27" class="edge">
<title>Node19&#45;&gt;Node2</title>
<path fill="none" stroke="midnightblue" d="M367.06,-124.88C371.94,-124.2 376.79,-123.57 381.5,-123 605.39,-96.08 875.62,-79.94 975.2,-74.54"/>
<polygon fill="midnightblue" stroke="midnightblue" points="975.6,-78.02 985.39,-73.99 975.22,-71.03 975.6,-78.02"/>
</g>
<!-- Node19&#45;&gt;Node15 -->
<g id="edge23" class="edge">
<title>Node19&#45;&gt;Node15</title>
<path fill="none" stroke="midnightblue" d="M255.05,-123.4C229.95,-113.69 196.41,-100.71 169.48,-90.29"/>
<polygon fill="midnightblue" stroke="midnightblue" points="170.47,-86.92 159.88,-86.58 167.95,-93.45 170.47,-86.92"/>
</g>
<!-- Node20 -->
<g id="node20" class="node">
<title>Node20</title>
<g id="a_node20"><a xlink:title=" ">
<polygon fill="none" stroke="#bfbfbf" points="453,-62 453,-81 574,-81 574,-62 453,-62"/>
<text text-anchor="middle" x="513.5" y="-69" font-family="Helvetica,sans-Serif" font-size="10.00">iDynTree/Core/Span.h</text>
</a>
</g>
</g>
<!-- Node19&#45;&gt;Node20 -->
<g id="edge22" class="edge">
<title>Node19&#45;&gt;Node20</title>
<path fill="none" stroke="midnightblue" d="M339.4,-123.48C379.71,-111.67 436.65,-95 474.3,-83.98"/>
<polygon fill="midnightblue" stroke="midnightblue" points="475.76,-87.2 484.37,-81.03 473.79,-80.48 475.76,-87.2"/>
</g>
<!-- Node21 -->
<g id="node21" class="node">
<title>Node21</title>
<g id="a_node21"><a xlink:title=" ">
<polygon fill="none" stroke="#bfbfbf" points="221,-62 221,-81 286,-81 286,-62 221,-62"/>
<text text-anchor="middle" x="253.5" y="-69" font-family="Helvetica,sans-Serif" font-size="10.00">functional</text>
</a>
</g>
</g>
<!-- Node19&#45;&gt;Node21 -->
<g id="edge24" class="edge">
<title>Node19&#45;&gt;Node21</title>
<path fill="none" stroke="midnightblue" d="M283.25,-123.4C277.51,-113.56 269.8,-100.38 263.67,-89.89"/>
<polygon fill="midnightblue" stroke="midnightblue" points="266.65,-88.06 258.58,-81.19 260.61,-91.59 266.65,-88.06"/>
</g>
<!-- Node22 -->
<g id="node22" class="node">
<title>Node22</title>
<g id="a_node22"><a xlink:title=" ">
<polygon fill="none" stroke="#bfbfbf" points="304.5,-62 304.5,-81 356.5,-81 356.5,-62 304.5,-62"/>
<text text-anchor="middle" x="330.5" y="-69" font-family="Helvetica,sans-Serif" font-size="10.00">cassert</text>
</a>
</g>
</g>
<!-- Node19&#45;&gt;Node22 -->
<g id="edge25" class="edge">
<title>Node19&#45;&gt;Node22</title>
<path fill="none" stroke="midnightblue" d="M299.96,-123.4C305.86,-113.56 313.77,-100.38 320.06,-89.89"/>
<polygon fill="midnightblue" stroke="midnightblue" points="323.14,-91.57 325.28,-81.19 317.14,-87.97 323.14,-91.57"/>
</g>
<!-- Node23 -->
<g id="node23" class="node">
<title>Node23</title>
<g id="a_node23"><a xlink:title=" ">
<polygon fill="none" stroke="#bfbfbf" points="374.5,-62 374.5,-81 434.5,-81 434.5,-62 374.5,-62"/>
<text text-anchor="middle" x="404.5" y="-69" font-family="Helvetica,sans-Serif" font-size="10.00">iostream</text>
</a>
</g>
</g>
<!-- Node19&#45;&gt;Node23 -->
<g id="edge26" class="edge">
<title>Node19&#45;&gt;Node23</title>
<path fill="none" stroke="midnightblue" d="M316.02,-123.4C335.23,-112.34 361.8,-97.06 380.8,-86.13"/>
<polygon fill="midnightblue" stroke="midnightblue" points="382.79,-89.03 389.71,-81.01 379.3,-82.96 382.79,-89.03"/>
</g>
</g>
</svg>
        <g id="navigator" transform="translate(0 0)" fill="#404254">
                <rect fill="#f2f5e9" fill-opacity="0.5" stroke="#606060" stroke-width=".5" x="0" y="0" width="60" height="60"/>
                <use id="zoomplus" xlink:href="#zoomPlus" x="17" y="9" onmousedown="handleZoom(evt,'in')"/>
                <use id="zoomminus" xlink:href="#zoomMin" x="42" y="9" onmousedown="handleZoom(evt,'out')"/>
                <use id="reset" xlink:href="#resetDef" x="30" y="36" onmousedown="handleReset()"/>
                <g id="arrowUp" xlink:href="#dirArrow" transform="translate(30 24)" onmousedown="handlePan(0,-1)">
                  <use xlink:href="#rim" fill="#404040">
                        <set attributeName="fill" to="#808080" begin="arrowUp.mouseover" end="arrowUp.mouseout"/>
                  </use>
                  <path fill="none" stroke="white" stroke-width="1.5" d="M0,-3.0v7 M-2.5,-0.5L0,-3.0L2.5,-0.5"/>
                </g>
                <g id="arrowRight" xlink:href="#dirArrow" transform="rotate(90) translate(36 -43)" onmousedown="handlePan(1,0)">
                  <use xlink:href="#rim" fill="#404040">
                        <set attributeName="fill" to="#808080" begin="arrowRight.mouseover" end="arrowRight.mouseout"/>
                  </use>
                  <path fill="none" stroke="white" stroke-width="1.5" d="M0,-3.0v7 M-2.5,-0.5L0,-3.0L2.5,-0.5"/>
                </g>
                <g id="arrowDown" xlink:href="#dirArrow" transform="rotate(180) translate(-30 -48)" onmousedown="handlePan(0,1)">
                  <use xlink:href="#rim" fill="#404040">
                        <set attributeName="fill" to="#808080" begin="arrowDown.mouseover" end="arrowDown.mouseout"/>
                  </use>
                  <path fill="none" stroke="white" stroke-width="1.5" d="M0,-3.0v7 M-2.5,-0.5L0,-3.0L2.5,-0.5"/>
                </g>
                <g id="arrowLeft" xlink:href="#dirArrow" transform="rotate(270) translate(-36 17)" onmousedown="handlePan(-1,0)">
                  <use xlink:href="#rim" fill="#404040">
                        <set attributeName="fill" to="#808080" begin="arrowLeft.mouseover" end="arrowLeft.mouseout"/>
                  </use>
                  <path fill="none" stroke="white" stroke-width="1.5" d="M0,-3.0v7 M-2.5,-0.5L0,-3.0L2.5,-0.5"/>
                </g>
        </g>
        <svg viewBox="0 0 15 15" width="100%" height="30px" preserveAspectRatio="xMaxYMin meet">
         <g id="arrow_out" transform="scale(0.3 0.3)">
          <a xlink:href="CompliantContactWrench_8h__incl_org.svg" target="_base">
           <rect id="button" ry="5" rx="5" y="6" x="6" height="38" width="38"
                fill="#f2f5e9" fill-opacity="0.5" stroke="#606060" stroke-width="1.0"/>
           <path id="arrow"
             d="M 11.500037,31.436501 C 11.940474,20.09759 22.043105,11.32322 32.158766,21.979434 L 37.068811,17.246167 C 37.068811,17.246167 37.088388,32 37.088388,32 L 22.160133,31.978069 C 22.160133,31.978069 26.997745,27.140456 26.997745,27.140456 C 18.528582,18.264221 13.291696,25.230495 11.500037,31.436501 z"
             style="fill:#404040;"/>
          </a>
         </g>
        </svg>
</svg>
