<?xml version="1.0" encoding="UTF-8" standalone="no"?>
<!DOCTYPE svg PUBLIC "-//W3C//DTD SVG 1.1//EN"
 "http://www.w3.org/Graphics/SVG/1.1/DTD/svg11.dtd">
<!-- Generated by graphviz version 2.43.0 (0)
 -->
<!-- Title: ContinuousDynamicalSystem/include/BipedalLocomotion/ContinuousDynamicalSystem/CompliantContactWrench.h Pages: 1 -->
<svg width="648pt" height="228pt"
 viewBox="0.00 0.00 648.00 228.00" xmlns="http://www.w3.org/2000/svg" xmlns:xlink="http://www.w3.org/1999/xlink">
<g id="graph0" class="graph" transform="scale(1 1) rotate(0) translate(4 224)">
<title>ContinuousDynamicalSystem/include/BipedalLocomotion/ContinuousDynamicalSystem/CompliantContactWrench.h</title>
<!-- Node1 -->
<g id="node1" class="node">
<title>Node1</title>
<g id="a_node1"><a xlink:title=" ">
<polygon fill="#bfbfbf" stroke="black" points="229,-167.5 229,-219.5 393,-219.5 393,-167.5 229,-167.5"/>
<text text-anchor="start" x="237" y="-207.5" font-family="Helvetica,sans-Serif" font-size="10.00">ContinuousDynamicalSystem</text>
<text text-anchor="start" x="237" y="-196.5" font-family="Helvetica,sans-Serif" font-size="10.00">/include/BipedalLocomotion</text>
<text text-anchor="start" x="237" y="-185.5" font-family="Helvetica,sans-Serif" font-size="10.00">/ContinuousDynamicalSystem</text>
<text text-anchor="middle" x="311" y="-174.5" font-family="Helvetica,sans-Serif" font-size="10.00">/CompliantContactWrench.h</text>
</a>
</g>
</g>
<!-- Node2 -->
<g id="node2" class="node">
<title>Node2</title>
<g id="a_node2"><a xlink:href="FixedBaseDynamics_8h.html" target="_top" xlink:title=" ">
<polygon fill="none" stroke="black" points="0,-78.5 0,-130.5 164,-130.5 164,-78.5 0,-78.5"/>
<text text-anchor="start" x="8" y="-118.5" font-family="Helvetica,sans-Serif" font-size="10.00">ContinuousDynamicalSystem</text>
<text text-anchor="start" x="8" y="-107.5" font-family="Helvetica,sans-Serif" font-size="10.00">/include/BipedalLocomotion</text>
<text text-anchor="start" x="8" y="-96.5" font-family="Helvetica,sans-Serif" font-size="10.00">/ContinuousDynamicalSystem</text>
<text text-anchor="middle" x="82" y="-85.5" font-family="Helvetica,sans-Serif" font-size="10.00">/FixedBaseDynamics.h</text>
</a>
</g>
</g>
<!-- Node1&#45;&gt;Node2 -->
<g id="edge1" class="edge">
<title>Node1&#45;&gt;Node2</title>
<path fill="none" stroke="midnightblue" d="M235.61,-163.86C207.26,-153.09 175.27,-140.94 147.86,-130.52"/>
<polygon fill="midnightblue" stroke="midnightblue" points="234.48,-167.17 245.07,-167.45 236.97,-160.63 234.48,-167.17"/>
</g>
<!-- Node4 -->
<g id="node4" class="node">
<title>Node4</title>
<g id="a_node4"><a xlink:href="FloatingBaseDynamicsWithCompliantContacts_8h.html" target="_top" xlink:title=" ">
<polygon fill="none" stroke="black" points="182.5,-78.5 182.5,-130.5 439.5,-130.5 439.5,-78.5 182.5,-78.5"/>
<text text-anchor="start" x="190.5" y="-118.5" font-family="Helvetica,sans-Serif" font-size="10.00">ContinuousDynamicalSystem</text>
<text text-anchor="start" x="190.5" y="-107.5" font-family="Helvetica,sans-Serif" font-size="10.00">/include/BipedalLocomotion</text>
<text text-anchor="start" x="190.5" y="-96.5" font-family="Helvetica,sans-Serif" font-size="10.00">/ContinuousDynamicalSystem</text>
<text text-anchor="middle" x="311" y="-85.5" font-family="Helvetica,sans-Serif" font-size="10.00">/FloatingBaseDynamicsWithCompliantContacts.h</text>
</a>
</g>
</g>
<!-- Node1&#45;&gt;Node4 -->
<g id="edge3" class="edge">
<title>Node1&#45;&gt;Node4</title>
<path fill="none" stroke="midnightblue" d="M311,-157.19C311,-148.28 311,-138.9 311,-130.61"/>
<polygon fill="midnightblue" stroke="midnightblue" points="307.5,-157.34 311,-167.34 314.5,-157.34 307.5,-157.34"/>
</g>
<!-- Node6 -->
<g id="node6" class="node">
<title>Node6</title>
<g id="a_node6"><a xlink:href="CompliantContactWrench_8cpp.html" target="_top" xlink:title=" ">
<polygon fill="none" stroke="black" points="458,-89.5 458,-119.5 640,-119.5 640,-89.5 458,-89.5"/>
<text text-anchor="start" x="466" y="-107.5" font-family="Helvetica,sans-Serif" font-size="10.00">ContinuousDynamicalSystem</text>
<text text-anchor="middle" x="549" y="-96.5" font-family="Helvetica,sans-Serif" font-size="10.00">/src/CompliantContactWrench.cpp</text>
</a>
</g>
</g>
<!-- Node1&#45;&gt;Node6 -->
<g id="edge5" class="edge">
<title>Node1&#45;&gt;Node6</title>
<path fill="none" stroke="midnightblue" d="M389.16,-163.93C429.88,-149.04 477.86,-131.5 510.55,-119.55"/>
<polygon fill="midnightblue" stroke="midnightblue" points="387.71,-160.73 379.52,-167.45 390.11,-167.31 387.71,-160.73"/>
</g>
<!-- Node3 -->
<g id="node3" class="node">
<title>Node3</title>
<g id="a_node3"><a xlink:href="FixedBaseDynamics_8cpp_source.html" target="_top" xlink:title=" ">
<polygon fill="none" stroke="black" points="1.5,-6 1.5,-36 162.5,-36 162.5,-6 1.5,-6"/>
<text text-anchor="start" x="9.5" y="-24" font-family="Helvetica,sans-Serif" font-size="10.00">ContinuousDynamicalSystem</text>
<text text-anchor="middle" x="82" y="-13" font-family="Helvetica,sans-Serif" font-size="10.00">/src/FixedBaseDynamics.cpp</text>
</a>
</g>
</g>
<!-- Node2&#45;&gt;Node3 -->
<g id="edge2" class="edge">
<title>Node2&#45;&gt;Node3</title>
<path fill="none" stroke="midnightblue" d="M82,-68.08C82,-56.82 82,-45.01 82,-36.17"/>
<polygon fill="midnightblue" stroke="midnightblue" points="78.5,-68.16 82,-78.16 85.5,-68.16 78.5,-68.16"/>
</g>
<!-- Node5 -->
<g id="node5" class="node">
<title>Node5</title>
<g id="a_node5"><a xlink:href="FloatingBaseDynamicsWithCompliantContacts_8cpp.html" target="_top" xlink:title=" ">
<polygon fill="none" stroke="black" points="200,-0.5 200,-41.5 422,-41.5 422,-0.5 200,-0.5"/>
<text text-anchor="start" x="208" y="-29.5" font-family="Helvetica,sans-Serif" font-size="10.00">ContinuousDynamicalSystem</text>
<text text-anchor="start" x="208" y="-18.5" font-family="Helvetica,sans-Serif" font-size="10.00">/src/FloatingBaseDynamicsWithCompliant</text>
<text text-anchor="middle" x="311" y="-7.5" font-family="Helvetica,sans-Serif" font-size="10.00">Contacts.cpp</text>
</a>
</g>
</g>
<!-- Node4&#45;&gt;Node5 -->
<g id="edge4" class="edge">
<title>Node4&#45;&gt;Node5</title>
<path fill="none" stroke="midnightblue" d="M311,-68.15C311,-59.05 311,-49.6 311,-41.63"/>
<polygon fill="midnightblue" stroke="midnightblue" points="307.5,-68.16 311,-78.16 314.5,-68.16 307.5,-68.16"/>
</g>
</g>
</svg>
