<?xml version="1.0" encoding="UTF-8" standalone="no"?>
<!DOCTYPE svg PUBLIC "-//W3C//DTD SVG 1.1//EN"
 "http://www.w3.org/Graphics/SVG/1.1/DTD/svg11.dtd">
<!-- Generated by graphviz version 2.43.0 (0)
 -->
<!-- Title: IK/include/BipedalLocomotion/IK/CoMTask.h Pages: 1 -->
<svg width="1162pt" height="430pt"
 viewBox="0.00 0.00 1162.00 430.00" xmlns="http://www.w3.org/2000/svg" xmlns:xlink="http://www.w3.org/1999/xlink">
<g id="graph0" class="graph" transform="scale(1 1) rotate(0) translate(4 426)">
<title>IK/include/BipedalLocomotion/IK/CoMTask.h</title>
<!-- Node1 -->
<g id="node1" class="node">
<title>Node1</title>
<g id="a_node1"><a xlink:title=" ">
<polygon fill="#bfbfbf" stroke="black" points="685,-391.5 685,-421.5 846,-421.5 846,-391.5 685,-391.5"/>
<text text-anchor="start" x="693" y="-409.5" font-family="Helvetica,sans-Serif" font-size="10.00">IK/include/BipedalLocomotion</text>
<text text-anchor="middle" x="765.5" y="-398.5" font-family="Helvetica,sans-Serif" font-size="10.00">/IK/CoMTask.h</text>
</a>
</g>
</g>
<!-- Node2 -->
<g id="node2" class="node">
<title>Node2</title>
<g id="a_node2"><a xlink:title=" ">
<polygon fill="none" stroke="#bfbfbf" points="592.5,-62 592.5,-81 650.5,-81 650.5,-62 592.5,-62"/>
<text text-anchor="middle" x="621.5" y="-69" font-family="Helvetica,sans-Serif" font-size="10.00">memory</text>
</a>
</g>
</g>
<!-- Node1&#45;&gt;Node2 -->
<g id="edge1" class="edge">
<title>Node1&#45;&gt;Node2</title>
<path fill="none" stroke="midnightblue" d="M746.65,-391.3C735.71,-382.09 722.55,-369.2 714.5,-355 696.11,-322.55 694.5,-310.8 694.5,-273.5 694.5,-273.5 694.5,-273.5 694.5,-204.5 694.5,-157.65 658.85,-111.81 637.37,-88.46"/>
<polygon fill="midnightblue" stroke="midnightblue" points="639.88,-86.01 630.45,-81.17 634.8,-90.83 639.88,-86.01"/>
</g>
<!-- Node3 -->
<g id="node3" class="node">
<title>Node3</title>
<g id="a_node3"><a xlink:title=" ">
<polygon fill="none" stroke="#bfbfbf" points="723,-330 723,-349 808,-349 808,-330 723,-330"/>
<text text-anchor="middle" x="765.5" y="-337" font-family="Helvetica,sans-Serif" font-size="10.00">manif/manif.h</text>
</a>
</g>
</g>
<!-- Node1&#45;&gt;Node3 -->
<g id="edge2" class="edge">
<title>Node1&#45;&gt;Node3</title>
<path fill="none" stroke="midnightblue" d="M765.5,-391.4C765.5,-382.06 765.5,-369.71 765.5,-359.52"/>
<polygon fill="midnightblue" stroke="midnightblue" points="769,-359.19 765.5,-349.19 762,-359.19 769,-359.19"/>
</g>
<!-- Node4 -->
<g id="node4" class="node">
<title>Node4</title>
<g id="a_node4"><a xlink:href="LinearTask_8h.html" target="_top" xlink:title=" ">
<polygon fill="none" stroke="black" points="344.5,-324.5 344.5,-354.5 494.5,-354.5 494.5,-324.5 344.5,-324.5"/>
<text text-anchor="start" x="352.5" y="-342.5" font-family="Helvetica,sans-Serif" font-size="10.00">BipedalLocomotion/System</text>
<text text-anchor="middle" x="419.5" y="-331.5" font-family="Helvetica,sans-Serif" font-size="10.00">/LinearTask.h</text>
</a>
</g>
</g>
<!-- Node1&#45;&gt;Node4 -->
<g id="edge3" class="edge">
<title>Node1&#45;&gt;Node4</title>
<path fill="none" stroke="midnightblue" d="M690.85,-391.48C636.03,-381.18 561.49,-367.17 504.4,-356.45"/>
<polygon fill="midnightblue" stroke="midnightblue" points="504.79,-352.96 494.32,-354.55 503.5,-359.84 504.79,-352.96"/>
</g>
<!-- Node21 -->
<g id="node21" class="node">
<title>Node21</title>
<g id="a_node21"><a xlink:title=" ">
<polygon fill="none" stroke="#bfbfbf" points="826,-330 826,-349 1001,-349 1001,-330 826,-330"/>
<text text-anchor="middle" x="913.5" y="-337" font-family="Helvetica,sans-Serif" font-size="10.00">iDynTree/KinDynComputations.h</text>
</a>
</g>
</g>
<!-- Node1&#45;&gt;Node21 -->
<g id="edge28" class="edge">
<title>Node1&#45;&gt;Node21</title>
<path fill="none" stroke="midnightblue" d="M797.61,-391.4C823.58,-379.99 859.81,-364.08 884.82,-353.1"/>
<polygon fill="midnightblue" stroke="midnightblue" points="886.38,-356.23 894.13,-349.01 883.57,-349.82 886.38,-356.23"/>
</g>
<!-- Node22 -->
<g id="node22" class="node">
<title>Node22</title>
<g id="a_node22"><a xlink:title=" ">
<polygon fill="none" stroke="#bfbfbf" points="1019,-324.5 1019,-354.5 1154,-354.5 1154,-324.5 1019,-324.5"/>
<text text-anchor="start" x="1027" y="-342.5" font-family="Helvetica,sans-Serif" font-size="10.00">LieGroupControllers</text>
<text text-anchor="middle" x="1086.5" y="-331.5" font-family="Helvetica,sans-Serif" font-size="10.00">/ProportionalController.h</text>
</a>
</g>
</g>
<!-- Node1&#45;&gt;Node22 -->
<g id="edge29" class="edge">
<title>Node1&#45;&gt;Node22</title>
<path fill="none" stroke="midnightblue" d="M834.76,-391.48C885.92,-381.12 955.61,-367 1008.7,-356.25"/>
<polygon fill="midnightblue" stroke="midnightblue" points="1009.64,-359.64 1018.74,-354.22 1008.25,-352.77 1009.64,-359.64"/>
</g>
<!-- Node4&#45;&gt;Node2 -->
<g id="edge4" class="edge">
<title>Node4&#45;&gt;Node2</title>
<path fill="none" stroke="midnightblue" d="M494.75,-330.99C550.49,-323.69 619.73,-310.35 637.5,-288 684.21,-229.23 648.12,-130.66 630.13,-90.42"/>
<polygon fill="midnightblue" stroke="midnightblue" points="633.2,-88.71 625.82,-81.1 626.84,-91.65 633.2,-88.71"/>
</g>
<!-- Node5 -->
<g id="node5" class="node">
<title>Node5</title>
<g id="a_node5"><a xlink:title=" ">
<polygon fill="none" stroke="#bfbfbf" points="154.5,-129 154.5,-148 198.5,-148 198.5,-129 154.5,-129"/>
<text text-anchor="middle" x="176.5" y="-136" font-family="Helvetica,sans-Serif" font-size="10.00">string</text>
</a>
</g>
</g>
<!-- Node4&#45;&gt;Node5 -->
<g id="edge5" class="edge">
<title>Node4&#45;&gt;Node5</title>
<path fill="none" stroke="midnightblue" d="M344.25,-330.39C287.25,-322.68 215.29,-309.1 194.5,-288 160.25,-253.24 166.58,-189.49 172.37,-158.04"/>
<polygon fill="midnightblue" stroke="midnightblue" points="175.85,-158.53 174.41,-148.03 168.99,-157.14 175.85,-158.53"/>
</g>
<!-- Node6 -->
<g id="node6" class="node">
<title>Node6</title>
<g id="a_node6"><a xlink:title=" ">
<polygon fill="none" stroke="#bfbfbf" points="381,-263 381,-282 458,-282 458,-263 381,-263"/>
<text text-anchor="middle" x="419.5" y="-270" font-family="Helvetica,sans-Serif" font-size="10.00">Eigen/Dense</text>
</a>
</g>
</g>
<!-- Node4&#45;&gt;Node6 -->
<g id="edge6" class="edge">
<title>Node4&#45;&gt;Node6</title>
<path fill="none" stroke="midnightblue" d="M419.5,-324.4C419.5,-315.06 419.5,-302.71 419.5,-292.52"/>
<polygon fill="midnightblue" stroke="midnightblue" points="423,-292.19 419.5,-282.19 416,-292.19 423,-292.19"/>
</g>
<!-- Node7 -->
<g id="node7" class="node">
<title>Node7</title>
<g id="a_node7"><a xlink:title=" ">
<polygon fill="none" stroke="#bfbfbf" points="476.5,-263 476.5,-282 628.5,-282 628.5,-263 476.5,-263"/>
<text text-anchor="middle" x="552.5" y="-270" font-family="Helvetica,sans-Serif" font-size="10.00">iDynTree/Core/MatrixView.h</text>
</a>
</g>
</g>
<!-- Node4&#45;&gt;Node7 -->
<g id="edge7" class="edge">
<title>Node4&#45;&gt;Node7</title>
<path fill="none" stroke="midnightblue" d="M448.36,-324.4C471.39,-313.14 503.39,-297.5 525.82,-286.54"/>
<polygon fill="midnightblue" stroke="midnightblue" points="527.65,-289.54 535.09,-282.01 524.57,-283.25 527.65,-289.54"/>
</g>
<!-- Node8 -->
<g id="node8" class="node">
<title>Node8</title>
<g id="a_node8"><a xlink:href="IParametersHandler_8h.html" target="_top" xlink:title=" ">
<polygon fill="none" stroke="black" points="209,-190.5 209,-220.5 378,-220.5 378,-190.5 209,-190.5"/>
<text text-anchor="start" x="217" y="-208.5" font-family="Helvetica,sans-Serif" font-size="10.00">BipedalLocomotion/Parameters</text>
<text text-anchor="middle" x="293.5" y="-197.5" font-family="Helvetica,sans-Serif" font-size="10.00">Handler/IParametersHandler.h</text>
</a>
</g>
</g>
<!-- Node4&#45;&gt;Node8 -->
<g id="edge8" class="edge">
<title>Node4&#45;&gt;Node8</title>
<path fill="none" stroke="midnightblue" d="M344.37,-330.82C289.23,-323.45 221.03,-310.1 203.5,-288 194.94,-277.21 196.54,-268.89 203.5,-257 211.59,-243.18 225.01,-232.85 239.05,-225.26"/>
<polygon fill="midnightblue" stroke="midnightblue" points="240.92,-228.24 248.32,-220.66 237.8,-221.97 240.92,-228.24"/>
</g>
<!-- Node19 -->
<g id="node19" class="node">
<title>Node19</title>
<g id="a_node19"><a xlink:href="VariablesHandler_8h.html" target="_top" xlink:title=" ">
<polygon fill="none" stroke="black" points="212.5,-257.5 212.5,-287.5 362.5,-287.5 362.5,-257.5 212.5,-257.5"/>
<text text-anchor="start" x="220.5" y="-275.5" font-family="Helvetica,sans-Serif" font-size="10.00">BipedalLocomotion/System</text>
<text text-anchor="middle" x="287.5" y="-264.5" font-family="Helvetica,sans-Serif" font-size="10.00">/VariablesHandler.h</text>
</a>
</g>
</g>
<!-- Node4&#45;&gt;Node19 -->
<g id="edge23" class="edge">
<title>Node4&#45;&gt;Node19</title>
<path fill="none" stroke="midnightblue" d="M390.86,-324.4C371.66,-314.94 346.17,-302.39 325.31,-292.12"/>
<polygon fill="midnightblue" stroke="midnightblue" points="326.6,-288.85 316.09,-287.58 323.51,-295.13 326.6,-288.85"/>
</g>
<!-- Node8&#45;&gt;Node2 -->
<g id="edge9" class="edge">
<title>Node8&#45;&gt;Node2</title>
<path fill="none" stroke="midnightblue" d="M361.6,-190.43C397.42,-181.94 441.64,-169.7 479.5,-154 524.83,-135.2 573.6,-104.69 600.56,-86.82"/>
<polygon fill="midnightblue" stroke="midnightblue" points="602.78,-89.54 609.14,-81.06 598.89,-83.72 602.78,-89.54"/>
</g>
<!-- Node8&#45;&gt;Node5 -->
<g id="edge10" class="edge">
<title>Node8&#45;&gt;Node5</title>
<path fill="none" stroke="midnightblue" d="M268.11,-190.4C248.13,-179.29 220.46,-163.92 200.77,-152.98"/>
<polygon fill="midnightblue" stroke="midnightblue" points="202.25,-149.8 191.81,-148.01 198.85,-155.92 202.25,-149.8"/>
</g>
<!-- Node9 -->
<g id="node9" class="node">
<title>Node9</title>
<g id="a_node9"><a xlink:title=" ">
<polygon fill="none" stroke="#bfbfbf" points="424,-129 424,-148 471,-148 471,-129 424,-129"/>
<text text-anchor="middle" x="447.5" y="-136" font-family="Helvetica,sans-Serif" font-size="10.00">vector</text>
</a>
</g>
</g>
<!-- Node8&#45;&gt;Node9 -->
<g id="edge11" class="edge">
<title>Node8&#45;&gt;Node9</title>
<path fill="none" stroke="midnightblue" d="M327.73,-190.41C352,-180.37 385.31,-166.5 414.5,-154 415.87,-153.41 417.26,-152.81 418.67,-152.2"/>
<polygon fill="midnightblue" stroke="midnightblue" points="420.21,-155.35 427.98,-148.15 417.42,-148.93 420.21,-155.35"/>
</g>
<!-- Node10 -->
<g id="node10" class="node">
<title>Node10</title>
<g id="a_node10"><a xlink:href="TemplateHelpers_8h_source.html" target="_top" xlink:title=" ">
<polygon fill="none" stroke="black" points="44.5,-56.5 44.5,-86.5 202.5,-86.5 202.5,-56.5 44.5,-56.5"/>
<text text-anchor="start" x="52.5" y="-74.5" font-family="Helvetica,sans-Serif" font-size="10.00">BipedalLocomotion/Generic</text>
<text text-anchor="middle" x="123.5" y="-63.5" font-family="Helvetica,sans-Serif" font-size="10.00">Container/TemplateHelpers.h</text>
</a>
</g>
</g>
<!-- Node8&#45;&gt;Node10 -->
<g id="edge12" class="edge">
<title>Node8&#45;&gt;Node10</title>
<path fill="none" stroke="midnightblue" d="M280.33,-190.25C264.13,-173.16 235.34,-144.16 207.5,-123 192.33,-111.47 174.35,-100.36 158.93,-91.51"/>
<polygon fill="midnightblue" stroke="midnightblue" points="160.61,-88.44 150.18,-86.58 157.17,-94.54 160.61,-88.44"/>
</g>
<!-- Node14 -->
<g id="node14" class="node">
<title>Node14</title>
<g id="a_node14"><a xlink:href="Vector_8h_source.html" target="_top" xlink:title=" ">
<polygon fill="none" stroke="black" points="255,-123.5 255,-153.5 406,-153.5 406,-123.5 255,-123.5"/>
<text text-anchor="start" x="263" y="-141.5" font-family="Helvetica,sans-Serif" font-size="10.00">BipedalLocomotion/Generic</text>
<text text-anchor="middle" x="330.5" y="-130.5" font-family="Helvetica,sans-Serif" font-size="10.00">Container/Vector.h</text>
</a>
</g>
</g>
<!-- Node8&#45;&gt;Node14 -->
<g id="edge16" class="edge">
<title>Node8&#45;&gt;Node14</title>
<path fill="none" stroke="midnightblue" d="M301.53,-190.4C306.18,-182.22 312.16,-171.73 317.47,-162.39"/>
<polygon fill="midnightblue" stroke="midnightblue" points="320.58,-164 322.49,-153.58 314.5,-160.54 320.58,-164"/>
</g>
<!-- Node11 -->
<g id="node11" class="node">
<title>Node11</title>
<g id="a_node11"><a xlink:title=" ">
<polygon fill="none" stroke="#bfbfbf" points="0,-0.5 0,-19.5 69,-19.5 69,-0.5 0,-0.5"/>
<text text-anchor="middle" x="34.5" y="-7.5" font-family="Helvetica,sans-Serif" font-size="10.00">type_traits</text>
</a>
</g>
</g>
<!-- Node10&#45;&gt;Node11 -->
<g id="edge13" class="edge">
<title>Node10&#45;&gt;Node11</title>
<path fill="none" stroke="midnightblue" d="M102.41,-56.4C88.41,-47.04 70.09,-34.79 56.01,-25.38"/>
<polygon fill="midnightblue" stroke="midnightblue" points="57.71,-22.31 47.45,-19.66 53.82,-28.13 57.71,-22.31"/>
</g>
<!-- Node12 -->
<g id="node12" class="node">
<title>Node12</title>
<g id="a_node12"><a xlink:title=" ">
<polygon fill="none" stroke="#bfbfbf" points="87,-0.5 87,-19.5 160,-19.5 160,-0.5 87,-0.5"/>
<text text-anchor="middle" x="123.5" y="-7.5" font-family="Helvetica,sans-Serif" font-size="10.00">string_view</text>
</a>
</g>
</g>
<!-- Node10&#45;&gt;Node12 -->
<g id="edge14" class="edge">
<title>Node10&#45;&gt;Node12</title>
<path fill="none" stroke="midnightblue" d="M123.5,-56.4C123.5,-48.47 123.5,-38.46 123.5,-29.86"/>
<polygon fill="midnightblue" stroke="midnightblue" points="127,-29.66 123.5,-19.66 120,-29.66 127,-29.66"/>
</g>
<!-- Node13 -->
<g id="node13" class="node">
<title>Node13</title>
<g id="a_node13"><a xlink:title=" ">
<polygon fill="none" stroke="#bfbfbf" points="178,-0.5 178,-19.5 247,-19.5 247,-0.5 178,-0.5"/>
<text text-anchor="middle" x="212.5" y="-7.5" font-family="Helvetica,sans-Serif" font-size="10.00">Eigen/Core</text>
</a>
</g>
</g>
<!-- Node10&#45;&gt;Node13 -->
<g id="edge15" class="edge">
<title>Node10&#45;&gt;Node13</title>
<path fill="none" stroke="midnightblue" d="M144.59,-56.4C158.59,-47.04 176.91,-34.79 190.99,-25.38"/>
<polygon fill="midnightblue" stroke="midnightblue" points="193.18,-28.13 199.55,-19.66 189.29,-22.31 193.18,-28.13"/>
</g>
<!-- Node14&#45;&gt;Node2 -->
<g id="edge22" class="edge">
<title>Node14&#45;&gt;Node2</title>
<path fill="none" stroke="midnightblue" d="M406.24,-123.69C467.97,-112.18 550.04,-96.22 582.5,-87 585.14,-86.25 587.87,-85.4 590.58,-84.5"/>
<polygon fill="midnightblue" stroke="midnightblue" points="591.98,-87.72 600.25,-81.09 589.65,-81.12 591.98,-87.72"/>
</g>
<!-- Node14&#45;&gt;Node10 -->
<g id="edge18" class="edge">
<title>Node14&#45;&gt;Node10</title>
<path fill="none" stroke="midnightblue" d="M285.84,-123.48C254.25,-113.56 211.72,-100.2 178.11,-89.65"/>
<polygon fill="midnightblue" stroke="midnightblue" points="179.03,-86.27 168.44,-86.61 176.93,-92.95 179.03,-86.27"/>
</g>
<!-- Node15 -->
<g id="node15" class="node">
<title>Node15</title>
<g id="a_node15"><a xlink:title=" ">
<polygon fill="none" stroke="#bfbfbf" points="453,-62 453,-81 574,-81 574,-62 453,-62"/>
<text text-anchor="middle" x="513.5" y="-69" font-family="Helvetica,sans-Serif" font-size="10.00">iDynTree/Core/Span.h</text>
</a>
</g>
</g>
<!-- Node14&#45;&gt;Node15 -->
<g id="edge17" class="edge">
<title>Node14&#45;&gt;Node15</title>
<path fill="none" stroke="midnightblue" d="M370.21,-123.4C403.03,-111.74 449.1,-95.37 480.06,-84.38"/>
<polygon fill="midnightblue" stroke="midnightblue" points="481.3,-87.65 489.55,-81.01 478.95,-81.06 481.3,-87.65"/>
</g>
<!-- Node16 -->
<g id="node16" class="node">
<title>Node16</title>
<g id="a_node16"><a xlink:title=" ">
<polygon fill="none" stroke="#bfbfbf" points="221,-62 221,-81 286,-81 286,-62 221,-62"/>
<text text-anchor="middle" x="253.5" y="-69" font-family="Helvetica,sans-Serif" font-size="10.00">functional</text>
</a>
</g>
</g>
<!-- Node14&#45;&gt;Node16 -->
<g id="edge19" class="edge">
<title>Node14&#45;&gt;Node16</title>
<path fill="none" stroke="midnightblue" d="M313.79,-123.4C301.31,-112.86 284.27,-98.48 271.49,-87.69"/>
<polygon fill="midnightblue" stroke="midnightblue" points="273.7,-84.97 263.8,-81.19 269.18,-90.32 273.7,-84.97"/>
</g>
<!-- Node17 -->
<g id="node17" class="node">
<title>Node17</title>
<g id="a_node17"><a xlink:title=" ">
<polygon fill="none" stroke="#bfbfbf" points="304.5,-62 304.5,-81 356.5,-81 356.5,-62 304.5,-62"/>
<text text-anchor="middle" x="330.5" y="-69" font-family="Helvetica,sans-Serif" font-size="10.00">cassert</text>
</a>
</g>
</g>
<!-- Node14&#45;&gt;Node17 -->
<g id="edge20" class="edge">
<title>Node14&#45;&gt;Node17</title>
<path fill="none" stroke="midnightblue" d="M330.5,-123.4C330.5,-114.06 330.5,-101.71 330.5,-91.52"/>
<polygon fill="midnightblue" stroke="midnightblue" points="334,-91.19 330.5,-81.19 327,-91.19 334,-91.19"/>
</g>
<!-- Node18 -->
<g id="node18" class="node">
<title>Node18</title>
<g id="a_node18"><a xlink:title=" ">
<polygon fill="none" stroke="#bfbfbf" points="374.5,-62 374.5,-81 434.5,-81 434.5,-62 374.5,-62"/>
<text text-anchor="middle" x="404.5" y="-69" font-family="Helvetica,sans-Serif" font-size="10.00">iostream</text>
</a>
</g>
</g>
<!-- Node14&#45;&gt;Node18 -->
<g id="edge21" class="edge">
<title>Node14&#45;&gt;Node18</title>
<path fill="none" stroke="midnightblue" d="M346.56,-123.4C358.44,-112.96 374.61,-98.75 386.86,-88"/>
<polygon fill="midnightblue" stroke="midnightblue" points="389.4,-90.42 394.6,-81.19 384.78,-85.16 389.4,-90.42"/>
</g>
<!-- Node19&#45;&gt;Node2 -->
<g id="edge25" class="edge">
<title>Node19&#45;&gt;Node2</title>
<path fill="none" stroke="midnightblue" d="M362.69,-258.58C413.4,-248.9 475,-234.97 497.5,-221 551.83,-187.27 593.94,-121.57 611.95,-90.11"/>
<polygon fill="midnightblue" stroke="midnightblue" points="615.11,-91.62 616.93,-81.19 609,-88.21 615.11,-91.62"/>
</g>
<!-- Node19&#45;&gt;Node5 -->
<g id="edge24" class="edge">
<title>Node19&#45;&gt;Node5</title>
<path fill="none" stroke="midnightblue" d="M249.05,-257.38C231.65,-249.2 212.18,-237.25 199.5,-221 185.19,-202.65 179.78,-175.85 177.74,-158.05"/>
<polygon fill="midnightblue" stroke="midnightblue" points="181.22,-157.71 176.84,-148.06 174.25,-158.34 181.22,-157.71"/>
</g>
<!-- Node19&#45;&gt;Node8 -->
<g id="edge27" class="edge">
<title>Node19&#45;&gt;Node8</title>
<path fill="none" stroke="midnightblue" d="M288.8,-257.4C289.53,-249.56 290.45,-239.6 291.28,-230.57"/>
<polygon fill="midnightblue" stroke="midnightblue" points="294.77,-230.86 292.2,-220.58 287.8,-230.21 294.77,-230.86"/>
</g>
<!-- Node20 -->
<g id="node20" class="node">
<title>Node20</title>
<g id="a_node20"><a xlink:title=" ">
<polygon fill="none" stroke="#bfbfbf" points="396,-196 396,-215 489,-215 489,-196 396,-196"/>
<text text-anchor="middle" x="442.5" y="-203" font-family="Helvetica,sans-Serif" font-size="10.00">unordered_map</text>
</a>
</g>
</g>
<!-- Node19&#45;&gt;Node20 -->
<g id="edge26" class="edge">
<title>Node19&#45;&gt;Node20</title>
<path fill="none" stroke="midnightblue" d="M321.13,-257.4C348.45,-245.94 386.61,-229.94 412.81,-218.95"/>
<polygon fill="midnightblue" stroke="midnightblue" points="414.35,-222.1 422.21,-215.01 411.64,-215.65 414.35,-222.1"/>
</g>
</g>
</svg>
