<?xml version="1.0" encoding="UTF-8" standalone="no"?>
<!DOCTYPE svg PUBLIC "-//W3C//DTD SVG 1.1//EN"
 "http://www.w3.org/Graphics/SVG/1.1/DTD/svg11.dtd">
<!-- Generated by graphviz version 2.43.0 (0)
 -->
<!-- Title: IK/src/CoMTask.cpp Pages: 1 -->
<!--zoomable 486 -->
<svg id="main" version="1.1" xmlns="http://www.w3.org/2000/svg" xmlns:xlink="http://www.w3.org/1999/xlink" xml:space="preserve" onload="init(evt)">
<style type="text/css"><![CDATA[
.edge:hover path { stroke: red; }
.edge:hover polygon { stroke: red; fill: red; }
]]></style>
<script type="text/javascript"><![CDATA[
var edges = document.getElementsByTagName('g');
if (edges && edges.length) {
  for (var i=0;i<edges.length;i++) {
    if (edges[i].id.substr(0,4)=='edge') {
      edges[i].setAttribute('class','edge');
    }
  }
}
]]></script>
        <defs>
                <circle id="rim" cx="0" cy="0" r="7"/>
                <circle id="rim2" cx="0" cy="0" r="3.5"/>
                <g id="zoomPlus">
                        <use xlink:href="#rim" fill="#404040">
                                <set attributeName="fill" to="#808080" begin="zoomplus.mouseover" end="zoomplus.mouseout"/>
                        </use>
                        <path d="M-4,0h8M0,-4v8" fill="none" stroke="white" stroke-width="1.5" pointer-events="none"/>
                </g>
                <g id="zoomMin">
                        <use xlink:href="#rim" fill="#404040">
                                <set attributeName="fill" to="#808080" begin="zoomminus.mouseover" end="zoomminus.mouseout"/>
                        </use>
                        <path d="M-4,0h8" fill="none" stroke="white" stroke-width="1.5" pointer-events="none"/>
                </g>
                <g id="dirArrow">
                        <path fill="none" stroke="white" stroke-width="1.5" d="M0,-3.0v7 M-2.5,-0.5L0,-3.0L2.5,-0.5"/>
                </g>
               <g id="resetDef">
                       <use xlink:href="#rim2" fill="#404040">
                               <set attributeName="fill" to="#808080" begin="reset.mouseover" end="reset.mouseout"/>
                       </use>
               </g>
        </defs>

<script type="text/javascript">
var viewWidth = 1218;
var viewHeight = 486;
var sectionId = 'dynsection-0';
</script>
<script xlink:href="svgpan.js"/>
<svg id="graph" class="graph">
<g id="viewport">
<title>IK/src/CoMTask.cpp</title>
<!-- Node1 -->
<g id="node1" class="node">
<title>Node1</title>
<g id="a_node1"><a xlink:title=" ">
<polygon fill="#bfbfbf" stroke="black" points="620.5,-458.5 620.5,-477.5 730.5,-477.5 730.5,-458.5 620.5,-458.5"/>
<text text-anchor="middle" x="675.5" y="-465.5" font-family="Helvetica,sans-Serif" font-size="10.00">IK/src/CoMTask.cpp</text>
</a>
</g>
</g>
<!-- Node2 -->
<g id="node2" class="node">
<title>Node2</title>
<g id="a_node2"><a xlink:href="ManifConversions_8h.html" target="_top" xlink:title=" ">
<polygon fill="none" stroke="black" points="252,-391.5 252,-421.5 425,-421.5 425,-391.5 252,-391.5"/>
<text text-anchor="start" x="260" y="-409.5" font-family="Helvetica,sans-Serif" font-size="10.00">BipedalLocomotion/Conversions</text>
<text text-anchor="middle" x="338.5" y="-398.5" font-family="Helvetica,sans-Serif" font-size="10.00">/ManifConversions.h</text>
</a>
</g>
</g>
<!-- Node1&#45;&gt;Node2 -->
<g id="edge1" class="edge">
<title>Node1&#45;&gt;Node2</title>
<path fill="none" stroke="midnightblue" d="M627.22,-458.48C575.39,-449.32 491.9,-434.58 428,-423.3"/>
<polygon fill="midnightblue" stroke="midnightblue" points="428.38,-419.82 417.92,-421.52 427.16,-426.71 428.38,-419.82"/>
</g>
<!-- Node4 -->
<g id="node4" class="node">
<title>Node4</title>
<g id="a_node4"><a xlink:title=" ">
<polygon fill="none" stroke="#bfbfbf" points="0,-330 0,-349 161,-349 161,-330 0,-330"/>
<text text-anchor="middle" x="80.5" y="-337" font-family="Helvetica,sans-Serif" font-size="10.00">iDynTree/Core/EigenHelpers.h</text>
</a>
</g>
</g>
<!-- Node1&#45;&gt;Node4 -->
<g id="edge38" class="edge">
<title>Node1&#45;&gt;Node4</title>
<path fill="none" stroke="midnightblue" d="M620.28,-467.58C536.77,-467.05 374.15,-460.55 242.5,-422 189.1,-406.37 132.23,-373.48 102.12,-354.61"/>
<polygon fill="midnightblue" stroke="midnightblue" points="103.99,-351.65 93.67,-349.24 100.24,-357.56 103.99,-351.65"/>
</g>
<!-- Node6 -->
<g id="node6" class="node">
<title>Node6</title>
<g id="a_node6"><a xlink:href="CoMTask_8h.html" target="_top" xlink:title=" ">
<polygon fill="none" stroke="black" points="614,-391.5 614,-421.5 737,-421.5 737,-391.5 614,-391.5"/>
<text text-anchor="start" x="622" y="-409.5" font-family="Helvetica,sans-Serif" font-size="10.00">BipedalLocomotion/IK</text>
<text text-anchor="middle" x="675.5" y="-398.5" font-family="Helvetica,sans-Serif" font-size="10.00">/CoMTask.h</text>
</a>
</g>
</g>
<!-- Node1&#45;&gt;Node6 -->
<g id="edge5" class="edge">
<title>Node1&#45;&gt;Node6</title>
<path fill="none" stroke="midnightblue" d="M675.5,-458.48C675.5,-451.47 675.5,-441.19 675.5,-431.7"/>
<polygon fill="midnightblue" stroke="midnightblue" points="679,-431.52 675.5,-421.52 672,-431.52 679,-431.52"/>
</g>
<!-- Node27 -->
<g id="node27" class="node">
<title>Node27</title>
<g id="a_node27"><a xlink:href="Logger_8h.html" target="_top" xlink:title=" ">
<polygon fill="none" stroke="black" points="857.5,-391.5 857.5,-421.5 1029.5,-421.5 1029.5,-391.5 857.5,-391.5"/>
<text text-anchor="start" x="865.5" y="-409.5" font-family="Helvetica,sans-Serif" font-size="10.00">BipedalLocomotion/TextLogging</text>
<text text-anchor="middle" x="943.5" y="-398.5" font-family="Helvetica,sans-Serif" font-size="10.00">/Logger.h</text>
</a>
</g>
</g>
<!-- Node1&#45;&gt;Node27 -->
<g id="edge35" class="edge">
<title>Node1&#45;&gt;Node27</title>
<path fill="none" stroke="midnightblue" d="M713.9,-458.48C754.6,-449.44 819.87,-434.95 870.43,-423.72"/>
<polygon fill="midnightblue" stroke="midnightblue" points="871.33,-427.11 880.34,-421.52 869.82,-420.27 871.33,-427.11"/>
</g>
<!-- Node30 -->
<g id="node30" class="node">
<title>Node30</title>
<g id="a_node30"><a xlink:title=" ">
<polygon fill="none" stroke="#bfbfbf" points="1047.5,-397 1047.5,-416 1181.5,-416 1181.5,-397 1047.5,-397"/>
<text text-anchor="middle" x="1114.5" y="-404" font-family="Helvetica,sans-Serif" font-size="10.00">iDynTree/Model/Model.h</text>
</a>
</g>
</g>
<!-- Node1&#45;&gt;Node30 -->
<g id="edge39" class="edge">
<title>Node1&#45;&gt;Node30</title>
<path fill="none" stroke="midnightblue" d="M730.7,-461.29C801.98,-453.66 929.82,-439.09 1038.5,-422 1046.24,-420.78 1054.41,-419.37 1062.4,-417.91"/>
<polygon fill="midnightblue" stroke="midnightblue" points="1063.19,-421.32 1072.38,-416.04 1061.9,-414.44 1063.19,-421.32"/>
</g>
<!-- Node3 -->
<g id="node3" class="node">
<title>Node3</title>
<g id="a_node3"><a xlink:title=" ">
<polygon fill="none" stroke="#bfbfbf" points="179.5,-330 179.5,-349 325.5,-349 325.5,-330 179.5,-330"/>
<text text-anchor="middle" x="252.5" y="-337" font-family="Helvetica,sans-Serif" font-size="10.00">iDynTree/Core/Transform.h</text>
</a>
</g>
</g>
<!-- Node2&#45;&gt;Node3 -->
<g id="edge2" class="edge">
<title>Node2&#45;&gt;Node3</title>
<path fill="none" stroke="midnightblue" d="M319.84,-391.4C305.77,-380.76 286.51,-366.2 272.19,-355.38"/>
<polygon fill="midnightblue" stroke="midnightblue" points="274.09,-352.43 264,-349.19 269.87,-358.02 274.09,-352.43"/>
</g>
<!-- Node2&#45;&gt;Node4 -->
<g id="edge3" class="edge">
<title>Node2&#45;&gt;Node4</title>
<path fill="none" stroke="midnightblue" d="M282.84,-391.48C235.28,-379.5 167.83,-362.5 124.11,-351.49"/>
<polygon fill="midnightblue" stroke="midnightblue" points="124.9,-348.08 114.35,-349.03 123.19,-354.87 124.9,-348.08"/>
</g>
<!-- Node5 -->
<g id="node5" class="node">
<title>Node5</title>
<g id="a_node5"><a xlink:title=" ">
<polygon fill="none" stroke="#bfbfbf" points="344,-330 344,-349 429,-349 429,-330 344,-330"/>
<text text-anchor="middle" x="386.5" y="-337" font-family="Helvetica,sans-Serif" font-size="10.00">manif/manif.h</text>
</a>
</g>
</g>
<!-- Node2&#45;&gt;Node5 -->
<g id="edge4" class="edge">
<title>Node2&#45;&gt;Node5</title>
<path fill="none" stroke="midnightblue" d="M348.92,-391.4C356.33,-381.36 366.31,-367.84 374.13,-357.25"/>
<polygon fill="midnightblue" stroke="midnightblue" points="376.95,-359.32 380.08,-349.19 371.32,-355.16 376.95,-359.32"/>
</g>
<!-- Node6&#45;&gt;Node5 -->
<g id="edge7" class="edge">
<title>Node6&#45;&gt;Node5</title>
<path fill="none" stroke="midnightblue" d="M613.6,-393.56C565.41,-383.98 496.95,-369.74 437.5,-355 433.43,-353.99 429.19,-352.88 424.98,-351.74"/>
<polygon fill="midnightblue" stroke="midnightblue" points="425.84,-348.35 415.27,-349.05 423.97,-355.09 425.84,-348.35"/>
</g>
<!-- Node7 -->
<g id="node7" class="node">
<title>Node7</title>
<g id="a_node7"><a xlink:title=" ">
<polygon fill="none" stroke="#bfbfbf" points="711.5,-62 711.5,-81 769.5,-81 769.5,-62 711.5,-62"/>
<text text-anchor="middle" x="740.5" y="-69" font-family="Helvetica,sans-Serif" font-size="10.00">memory</text>
</a>
</g>
</g>
<!-- Node6&#45;&gt;Node7 -->
<g id="edge6" class="edge">
<title>Node6&#45;&gt;Node7</title>
<path fill="none" stroke="midnightblue" d="M712.11,-391.45C728.91,-383.23 747.68,-371.23 759.5,-355 781.39,-324.93 778.5,-310.69 778.5,-273.5 778.5,-273.5 778.5,-273.5 778.5,-204.5 778.5,-162.35 760.39,-115.48 749.17,-90.5"/>
<polygon fill="midnightblue" stroke="midnightblue" points="752.24,-88.81 744.86,-81.21 745.89,-91.76 752.24,-88.81"/>
</g>
<!-- Node8 -->
<g id="node8" class="node">
<title>Node8</title>
<g id="a_node8"><a xlink:href="LinearTask_8h.html" target="_top" xlink:title=" ">
<polygon fill="none" stroke="black" points="600.5,-324.5 600.5,-354.5 750.5,-354.5 750.5,-324.5 600.5,-324.5"/>
<text text-anchor="start" x="608.5" y="-342.5" font-family="Helvetica,sans-Serif" font-size="10.00">BipedalLocomotion/System</text>
<text text-anchor="middle" x="675.5" y="-331.5" font-family="Helvetica,sans-Serif" font-size="10.00">/LinearTask.h</text>
</a>
</g>
</g>
<!-- Node6&#45;&gt;Node8 -->
<g id="edge8" class="edge">
<title>Node6&#45;&gt;Node8</title>
<path fill="none" stroke="midnightblue" d="M675.5,-391.4C675.5,-383.64 675.5,-373.81 675.5,-364.86"/>
<polygon fill="midnightblue" stroke="midnightblue" points="679,-364.58 675.5,-354.58 672,-364.58 679,-364.58"/>
</g>
<!-- Node25 -->
<g id="node25" class="node">
<title>Node25</title>
<g id="a_node25"><a xlink:title=" ">
<polygon fill="none" stroke="#bfbfbf" points="807,-330 807,-349 982,-349 982,-330 807,-330"/>
<text text-anchor="middle" x="894.5" y="-337" font-family="Helvetica,sans-Serif" font-size="10.00">iDynTree/KinDynComputations.h</text>
</a>
</g>
</g>
<!-- Node6&#45;&gt;Node25 -->
<g id="edge33" class="edge">
<title>Node6&#45;&gt;Node25</title>
<path fill="none" stroke="midnightblue" d="M722.75,-391.48C762.52,-379.67 818.69,-363 855.83,-351.98"/>
<polygon fill="midnightblue" stroke="midnightblue" points="857.17,-355.23 865.76,-349.03 855.18,-348.52 857.17,-355.23"/>
</g>
<!-- Node26 -->
<g id="node26" class="node">
<title>Node26</title>
<g id="a_node26"><a xlink:title=" ">
<polygon fill="none" stroke="#bfbfbf" points="447,-324.5 447,-354.5 582,-354.5 582,-324.5 447,-324.5"/>
<text text-anchor="start" x="455" y="-342.5" font-family="Helvetica,sans-Serif" font-size="10.00">LieGroupControllers</text>
<text text-anchor="middle" x="514.5" y="-331.5" font-family="Helvetica,sans-Serif" font-size="10.00">/ProportionalController.h</text>
</a>
</g>
</g>
<!-- Node6&#45;&gt;Node26 -->
<g id="edge34" class="edge">
<title>Node6&#45;&gt;Node26</title>
<path fill="none" stroke="midnightblue" d="M640.57,-391.4C616.62,-381.73 584.65,-368.82 558.9,-358.43"/>
<polygon fill="midnightblue" stroke="midnightblue" points="559.95,-355.07 549.37,-354.58 557.33,-361.57 559.95,-355.07"/>
</g>
<!-- Node8&#45;&gt;Node7 -->
<g id="edge9" class="edge">
<title>Node8&#45;&gt;Node7</title>
<path fill="none" stroke="midnightblue" d="M684.17,-324.41C689.88,-314.54 697.09,-300.87 701.5,-288 725.5,-217.91 735.56,-129.68 739,-91.52"/>
<polygon fill="midnightblue" stroke="midnightblue" points="742.5,-91.62 739.86,-81.36 735.52,-91.03 742.5,-91.62"/>
</g>
<!-- Node9 -->
<g id="node9" class="node">
<title>Node9</title>
<g id="a_node9"><a xlink:title=" ">
<polygon fill="none" stroke="#bfbfbf" points="318.5,-129 318.5,-148 362.5,-148 362.5,-129 318.5,-129"/>
<text text-anchor="middle" x="340.5" y="-136" font-family="Helvetica,sans-Serif" font-size="10.00">string</text>
</a>
</g>
</g>
<!-- Node8&#45;&gt;Node9 -->
<g id="edge10" class="edge">
<title>Node8&#45;&gt;Node9</title>
<path fill="none" stroke="midnightblue" d="M600.45,-325.43C597.09,-324.93 593.76,-324.45 590.5,-324 515.02,-313.59 300.47,-344.64 249.5,-288 210.55,-244.72 281.68,-182.53 319.33,-154.36"/>
<polygon fill="midnightblue" stroke="midnightblue" points="321.66,-157 327.66,-148.27 317.53,-151.35 321.66,-157"/>
</g>
<!-- Node10 -->
<g id="node10" class="node">
<title>Node10</title>
<g id="a_node10"><a xlink:title=" ">
<polygon fill="none" stroke="#bfbfbf" points="259,-263 259,-282 336,-282 336,-263 259,-263"/>
<text text-anchor="middle" x="297.5" y="-270" font-family="Helvetica,sans-Serif" font-size="10.00">Eigen/Dense</text>
</a>
</g>
</g>
<!-- Node8&#45;&gt;Node10 -->
<g id="edge11" class="edge">
<title>Node8&#45;&gt;Node10</title>
<path fill="none" stroke="midnightblue" d="M600.43,-325.6C597.07,-325.05 593.75,-324.52 590.5,-324 481.8,-306.75 452.91,-311.98 345.5,-288 341.39,-287.08 337.12,-285.99 332.9,-284.83"/>
<polygon fill="midnightblue" stroke="midnightblue" points="333.8,-281.45 323.22,-282.03 331.86,-288.17 333.8,-281.45"/>
</g>
<!-- Node11 -->
<g id="node11" class="node">
<title>Node11</title>
<g id="a_node11"><a xlink:title=" ">
<polygon fill="none" stroke="#bfbfbf" points="354.5,-263 354.5,-282 506.5,-282 506.5,-263 354.5,-263"/>
<text text-anchor="middle" x="430.5" y="-270" font-family="Helvetica,sans-Serif" font-size="10.00">iDynTree/Core/MatrixView.h</text>
</a>
</g>
</g>
<!-- Node8&#45;&gt;Node11 -->
<g id="edge12" class="edge">
<title>Node8&#45;&gt;Node11</title>
<path fill="none" stroke="midnightblue" d="M622.64,-324.48C577.68,-312.55 513.97,-295.64 472.44,-284.63"/>
<polygon fill="midnightblue" stroke="midnightblue" points="473.21,-281.21 462.65,-282.03 471.41,-287.98 473.21,-281.21"/>
</g>
<!-- Node12 -->
<g id="node12" class="node">
<title>Node12</title>
<g id="a_node12"><a xlink:href="IParametersHandler_8h.html" target="_top" xlink:title=" ">
<polygon fill="none" stroke="black" points="506,-190.5 506,-220.5 675,-220.5 675,-190.5 506,-190.5"/>
<text text-anchor="start" x="514" y="-208.5" font-family="Helvetica,sans-Serif" font-size="10.00">BipedalLocomotion/Parameters</text>
<text text-anchor="middle" x="590.5" y="-197.5" font-family="Helvetica,sans-Serif" font-size="10.00">Handler/IParametersHandler.h</text>
</a>
</g>
</g>
<!-- Node8&#45;&gt;Node12 -->
<g id="edge13" class="edge">
<title>Node8&#45;&gt;Node12</title>
<path fill="none" stroke="midnightblue" d="M681.67,-324.42C688.18,-307.24 695.93,-277.89 683.5,-257 675.1,-242.88 661.22,-232.46 646.71,-224.88"/>
<polygon fill="midnightblue" stroke="midnightblue" points="648.17,-221.7 637.64,-220.52 645.13,-228.01 648.17,-221.7"/>
</g>
<!-- Node23 -->
<g id="node23" class="node">
<title>Node23</title>
<g id="a_node23"><a xlink:href="VariablesHandler_8h.html" target="_top" xlink:title=" ">
<polygon fill="none" stroke="black" points="524.5,-257.5 524.5,-287.5 674.5,-287.5 674.5,-257.5 524.5,-257.5"/>
<text text-anchor="start" x="532.5" y="-275.5" font-family="Helvetica,sans-Serif" font-size="10.00">BipedalLocomotion/System</text>
<text text-anchor="middle" x="599.5" y="-264.5" font-family="Helvetica,sans-Serif" font-size="10.00">/VariablesHandler.h</text>
</a>
</g>
</g>
<!-- Node8&#45;&gt;Node23 -->
<g id="edge28" class="edge">
<title>Node8&#45;&gt;Node23</title>
<path fill="none" stroke="midnightblue" d="M659.01,-324.4C648.65,-315.54 635.12,-303.96 623.57,-294.09"/>
<polygon fill="midnightblue" stroke="midnightblue" points="625.83,-291.42 615.96,-287.58 621.28,-296.74 625.83,-291.42"/>
</g>
<!-- Node12&#45;&gt;Node7 -->
<g id="edge14" class="edge">
<title>Node12&#45;&gt;Node7</title>
<path fill="none" stroke="midnightblue" d="M591.63,-190.3C593.77,-172.45 599.91,-141.86 617.5,-123 620.83,-119.43 673.43,-98.54 708.75,-84.77"/>
<polygon fill="midnightblue" stroke="midnightblue" points="710.15,-87.98 718.2,-81.1 707.62,-81.46 710.15,-87.98"/>
</g>
<!-- Node12&#45;&gt;Node9 -->
<g id="edge15" class="edge">
<title>Node12&#45;&gt;Node9</title>
<path fill="none" stroke="midnightblue" d="M518.92,-190.44C476.99,-181.5 423.25,-168.84 376.5,-154 374.22,-153.28 371.89,-152.48 369.55,-151.63"/>
<polygon fill="midnightblue" stroke="midnightblue" points="370.7,-148.33 360.11,-148.02 368.2,-154.86 370.7,-148.33"/>
</g>
<!-- Node13 -->
<g id="node13" class="node">
<title>Node13</title>
<g id="a_node13"><a xlink:title=" ">
<polygon fill="none" stroke="#bfbfbf" points="627,-129 627,-148 674,-148 674,-129 627,-129"/>
<text text-anchor="middle" x="650.5" y="-136" font-family="Helvetica,sans-Serif" font-size="10.00">vector</text>
</a>
</g>
</g>
<!-- Node12&#45;&gt;Node13 -->
<g id="edge16" class="edge">
<title>Node12&#45;&gt;Node13</title>
<path fill="none" stroke="midnightblue" d="M603.52,-190.4C612.97,-180.16 625.77,-166.3 635.62,-155.62"/>
<polygon fill="midnightblue" stroke="midnightblue" points="638.26,-157.92 642.47,-148.19 633.12,-153.17 638.26,-157.92"/>
</g>
<!-- Node14 -->
<g id="node14" class="node">
<title>Node14</title>
<g id="a_node14"><a xlink:href="TemplateHelpers_8h_source.html" target="_top" xlink:title=" ">
<polygon fill="none" stroke="black" points="164.5,-56.5 164.5,-86.5 322.5,-86.5 322.5,-56.5 164.5,-56.5"/>
<text text-anchor="start" x="172.5" y="-74.5" font-family="Helvetica,sans-Serif" font-size="10.00">BipedalLocomotion/Generic</text>
<text text-anchor="middle" x="243.5" y="-63.5" font-family="Helvetica,sans-Serif" font-size="10.00">Container/TemplateHelpers.h</text>
</a>
</g>
</g>
<!-- Node12&#45;&gt;Node14 -->
<g id="edge17" class="edge">
<title>Node12&#45;&gt;Node14</title>
<path fill="none" stroke="midnightblue" d="M513.47,-190.39C480.29,-182.48 441.8,-170.74 409.5,-154 390.15,-143.97 390.31,-134.02 371.5,-123 348.78,-109.68 321.88,-98.47 298.63,-90.02"/>
<polygon fill="midnightblue" stroke="midnightblue" points="299.5,-86.62 288.91,-86.57 297.16,-93.21 299.5,-86.62"/>
</g>
<!-- Node18 -->
<g id="node18" class="node">
<title>Node18</title>
<g id="a_node18"><a xlink:href="Vector_8h_source.html" target="_top" xlink:title=" ">
<polygon fill="none" stroke="black" points="419,-123.5 419,-153.5 570,-153.5 570,-123.5 419,-123.5"/>
<text text-anchor="start" x="427" y="-141.5" font-family="Helvetica,sans-Serif" font-size="10.00">BipedalLocomotion/Generic</text>
<text text-anchor="middle" x="494.5" y="-130.5" font-family="Helvetica,sans-Serif" font-size="10.00">Container/Vector.h</text>
</a>
</g>
</g>
<!-- Node12&#45;&gt;Node18 -->
<g id="edge21" class="edge">
<title>Node12&#45;&gt;Node18</title>
<path fill="none" stroke="midnightblue" d="M569.67,-190.4C556.21,-181.28 538.5,-169.29 523.65,-159.24"/>
<polygon fill="midnightblue" stroke="midnightblue" points="525.53,-156.28 515.29,-153.58 521.61,-162.08 525.53,-156.28"/>
</g>
<!-- Node15 -->
<g id="node15" class="node">
<title>Node15</title>
<g id="a_node15"><a xlink:title=" ">
<polygon fill="none" stroke="#bfbfbf" points="120,-0.5 120,-19.5 189,-19.5 189,-0.5 120,-0.5"/>
<text text-anchor="middle" x="154.5" y="-7.5" font-family="Helvetica,sans-Serif" font-size="10.00">type_traits</text>
</a>
</g>
</g>
<!-- Node14&#45;&gt;Node15 -->
<g id="edge18" class="edge">
<title>Node14&#45;&gt;Node15</title>
<path fill="none" stroke="midnightblue" d="M222.41,-56.4C208.41,-47.04 190.09,-34.79 176.01,-25.38"/>
<polygon fill="midnightblue" stroke="midnightblue" points="177.71,-22.31 167.45,-19.66 173.82,-28.13 177.71,-22.31"/>
</g>
<!-- Node16 -->
<g id="node16" class="node">
<title>Node16</title>
<g id="a_node16"><a xlink:title=" ">
<polygon fill="none" stroke="#bfbfbf" points="207,-0.5 207,-19.5 280,-19.5 280,-0.5 207,-0.5"/>
<text text-anchor="middle" x="243.5" y="-7.5" font-family="Helvetica,sans-Serif" font-size="10.00">string_view</text>
</a>
</g>
</g>
<!-- Node14&#45;&gt;Node16 -->
<g id="edge19" class="edge">
<title>Node14&#45;&gt;Node16</title>
<path fill="none" stroke="midnightblue" d="M243.5,-56.4C243.5,-48.47 243.5,-38.46 243.5,-29.86"/>
<polygon fill="midnightblue" stroke="midnightblue" points="247,-29.66 243.5,-19.66 240,-29.66 247,-29.66"/>
</g>
<!-- Node17 -->
<g id="node17" class="node">
<title>Node17</title>
<g id="a_node17"><a xlink:title=" ">
<polygon fill="none" stroke="#bfbfbf" points="298,-0.5 298,-19.5 367,-19.5 367,-0.5 298,-0.5"/>
<text text-anchor="middle" x="332.5" y="-7.5" font-family="Helvetica,sans-Serif" font-size="10.00">Eigen/Core</text>
</a>
</g>
</g>
<!-- Node14&#45;&gt;Node17 -->
<g id="edge20" class="edge">
<title>Node14&#45;&gt;Node17</title>
<path fill="none" stroke="midnightblue" d="M264.59,-56.4C278.59,-47.04 296.91,-34.79 310.99,-25.38"/>
<polygon fill="midnightblue" stroke="midnightblue" points="313.18,-28.13 319.55,-19.66 309.29,-22.31 313.18,-28.13"/>
</g>
<!-- Node18&#45;&gt;Node7 -->
<g id="edge27" class="edge">
<title>Node18&#45;&gt;Node7</title>
<path fill="none" stroke="midnightblue" d="M561.59,-123.47C602.64,-114.33 656.01,-101.45 702.5,-87 704.92,-86.25 707.41,-85.42 709.9,-84.56"/>
<polygon fill="midnightblue" stroke="midnightblue" points="711.16,-87.82 719.36,-81.11 708.77,-81.24 711.16,-87.82"/>
</g>
<!-- Node18&#45;&gt;Node14 -->
<g id="edge23" class="edge">
<title>Node18&#45;&gt;Node14</title>
<path fill="none" stroke="midnightblue" d="M440.35,-123.48C401.47,-113.41 348.92,-99.8 307.89,-89.17"/>
<polygon fill="midnightblue" stroke="midnightblue" points="308.55,-85.73 297.99,-86.61 306.79,-92.51 308.55,-85.73"/>
</g>
<!-- Node19 -->
<g id="node19" class="node">
<title>Node19</title>
<g id="a_node19"><a xlink:title=" ">
<polygon fill="none" stroke="#bfbfbf" points="419,-62 419,-81 540,-81 540,-62 419,-62"/>
<text text-anchor="middle" x="479.5" y="-69" font-family="Helvetica,sans-Serif" font-size="10.00">iDynTree/Core/Span.h</text>
</a>
</g>
</g>
<!-- Node18&#45;&gt;Node19 -->
<g id="edge22" class="edge">
<title>Node18&#45;&gt;Node19</title>
<path fill="none" stroke="midnightblue" d="M491.25,-123.4C489.07,-113.96 486.18,-101.45 483.81,-91.19"/>
<polygon fill="midnightblue" stroke="midnightblue" points="487.17,-90.15 481.51,-81.19 480.34,-91.73 487.17,-90.15"/>
</g>
<!-- Node20 -->
<g id="node20" class="node">
<title>Node20</title>
<g id="a_node20"><a xlink:title=" ">
<polygon fill="none" stroke="#bfbfbf" points="558,-62 558,-81 623,-81 623,-62 558,-62"/>
<text text-anchor="middle" x="590.5" y="-69" font-family="Helvetica,sans-Serif" font-size="10.00">functional</text>
</a>
</g>
</g>
<!-- Node18&#45;&gt;Node20 -->
<g id="edge24" class="edge">
<title>Node18&#45;&gt;Node20</title>
<path fill="none" stroke="midnightblue" d="M515.33,-123.4C531.28,-112.6 553.2,-97.76 569.25,-86.89"/>
<polygon fill="midnightblue" stroke="midnightblue" points="571.62,-89.51 577.94,-81.01 567.69,-83.72 571.62,-89.51"/>
</g>
<!-- Node21 -->
<g id="node21" class="node">
<title>Node21</title>
<g id="a_node21"><a xlink:title=" ">
<polygon fill="none" stroke="#bfbfbf" points="641.5,-62 641.5,-81 693.5,-81 693.5,-62 641.5,-62"/>
<text text-anchor="middle" x="667.5" y="-69" font-family="Helvetica,sans-Serif" font-size="10.00">cassert</text>
</a>
</g>
</g>
<!-- Node18&#45;&gt;Node21 -->
<g id="edge25" class="edge">
<title>Node18&#45;&gt;Node21</title>
<path fill="none" stroke="midnightblue" d="M533.59,-123.44C561.06,-113.48 598.62,-99.68 631.5,-87 633.34,-86.29 635.23,-85.55 637.13,-84.81"/>
<polygon fill="midnightblue" stroke="midnightblue" points="638.6,-87.99 646.6,-81.04 636.02,-81.48 638.6,-87.99"/>
</g>
<!-- Node22 -->
<g id="node22" class="node">
<title>Node22</title>
<g id="a_node22"><a xlink:title=" ">
<polygon fill="none" stroke="#bfbfbf" points="340.5,-62 340.5,-81 400.5,-81 400.5,-62 340.5,-62"/>
<text text-anchor="middle" x="370.5" y="-69" font-family="Helvetica,sans-Serif" font-size="10.00">iostream</text>
</a>
</g>
</g>
<!-- Node18&#45;&gt;Node22 -->
<g id="edge26" class="edge">
<title>Node18&#45;&gt;Node22</title>
<path fill="none" stroke="midnightblue" d="M467.59,-123.4C446.22,-112.19 416.55,-96.64 395.65,-85.69"/>
<polygon fill="midnightblue" stroke="midnightblue" points="397.21,-82.55 386.73,-81.01 393.96,-88.75 397.21,-82.55"/>
</g>
<!-- Node23&#45;&gt;Node7 -->
<g id="edge30" class="edge">
<title>Node23&#45;&gt;Node7</title>
<path fill="none" stroke="midnightblue" d="M633.9,-257.34C650.78,-248.92 670.27,-236.77 683.5,-221 700.64,-200.57 724.35,-126.47 734.97,-91.29"/>
<polygon fill="midnightblue" stroke="midnightblue" points="738.43,-91.93 737.93,-81.35 731.72,-89.93 738.43,-91.93"/>
</g>
<!-- Node23&#45;&gt;Node9 -->
<g id="edge29" class="edge">
<title>Node23&#45;&gt;Node9</title>
<path fill="none" stroke="midnightblue" d="M527.39,-257.49C469.85,-245.82 397.02,-229.74 385.5,-221 364.62,-205.16 352.13,-176.68 345.79,-157.93"/>
<polygon fill="midnightblue" stroke="midnightblue" points="349.07,-156.69 342.74,-148.19 342.39,-158.78 349.07,-156.69"/>
</g>
<!-- Node23&#45;&gt;Node12 -->
<g id="edge32" class="edge">
<title>Node23&#45;&gt;Node12</title>
<path fill="none" stroke="midnightblue" d="M597.55,-257.4C596.46,-249.56 595.08,-239.6 593.83,-230.57"/>
<polygon fill="midnightblue" stroke="midnightblue" points="597.29,-230 592.45,-220.58 590.35,-230.96 597.29,-230"/>
</g>
<!-- Node24 -->
<g id="node24" class="node">
<title>Node24</title>
<g id="a_node24"><a xlink:title=" ">
<polygon fill="none" stroke="#bfbfbf" points="395,-196 395,-215 488,-215 488,-196 395,-196"/>
<text text-anchor="middle" x="441.5" y="-203" font-family="Helvetica,sans-Serif" font-size="10.00">unordered_map</text>
</a>
</g>
</g>
<!-- Node23&#45;&gt;Node24 -->
<g id="edge31" class="edge">
<title>Node23&#45;&gt;Node24</title>
<path fill="none" stroke="midnightblue" d="M565.22,-257.4C537.37,-245.94 498.47,-229.94 471.77,-218.95"/>
<polygon fill="midnightblue" stroke="midnightblue" points="472.76,-215.57 462.18,-215.01 470.09,-222.05 472.76,-215.57"/>
</g>
<!-- Node28 -->
<g id="node28" class="node">
<title>Node28</title>
<g id="a_node28"><a xlink:title=" ">
<polygon fill="none" stroke="#bfbfbf" points="1111,-330 1111,-349 1210,-349 1210,-330 1111,-330"/>
<text text-anchor="middle" x="1160.5" y="-337" font-family="Helvetica,sans-Serif" font-size="10.00">spdlog/fmt/ostr.h</text>
</a>
</g>
</g>
<!-- Node27&#45;&gt;Node28 -->
<g id="edge36" class="edge">
<title>Node27&#45;&gt;Node28</title>
<path fill="none" stroke="midnightblue" d="M990.32,-391.48C1029.72,-379.67 1085.38,-363 1122.18,-351.98"/>
<polygon fill="midnightblue" stroke="midnightblue" points="1123.45,-355.25 1132.03,-349.03 1121.44,-348.55 1123.45,-355.25"/>
</g>
<!-- Node29 -->
<g id="node29" class="node">
<title>Node29</title>
<g id="a_node29"><a xlink:title=" ">
<polygon fill="none" stroke="#bfbfbf" points="1000,-330 1000,-349 1093,-349 1093,-330 1000,-330"/>
<text text-anchor="middle" x="1046.5" y="-337" font-family="Helvetica,sans-Serif" font-size="10.00">spdlog/spdlog.h</text>
</a>
</g>
</g>
<!-- Node27&#45;&gt;Node29 -->
<g id="edge37" class="edge">
<title>Node27&#45;&gt;Node29</title>
<path fill="none" stroke="midnightblue" d="M965.85,-391.4C983.12,-380.5 1006.92,-365.48 1024.18,-354.58"/>
<polygon fill="midnightblue" stroke="midnightblue" points="1026.43,-357.3 1033.02,-349.01 1022.69,-351.38 1026.43,-357.3"/>
</g>
</g>
</svg>
        <g id="navigator" transform="translate(0 0)" fill="#404254">
                <rect fill="#f2f5e9" fill-opacity="0.5" stroke="#606060" stroke-width=".5" x="0" y="0" width="60" height="60"/>
                <use id="zoomplus" xlink:href="#zoomPlus" x="17" y="9" onmousedown="handleZoom(evt,'in')"/>
                <use id="zoomminus" xlink:href="#zoomMin" x="42" y="9" onmousedown="handleZoom(evt,'out')"/>
                <use id="reset" xlink:href="#resetDef" x="30" y="36" onmousedown="handleReset()"/>
                <g id="arrowUp" xlink:href="#dirArrow" transform="translate(30 24)" onmousedown="handlePan(0,-1)">
                  <use xlink:href="#rim" fill="#404040">
                        <set attributeName="fill" to="#808080" begin="arrowUp.mouseover" end="arrowUp.mouseout"/>
                  </use>
                  <path fill="none" stroke="white" stroke-width="1.5" d="M0,-3.0v7 M-2.5,-0.5L0,-3.0L2.5,-0.5"/>
                </g>
                <g id="arrowRight" xlink:href="#dirArrow" transform="rotate(90) translate(36 -43)" onmousedown="handlePan(1,0)">
                  <use xlink:href="#rim" fill="#404040">
                        <set attributeName="fill" to="#808080" begin="arrowRight.mouseover" end="arrowRight.mouseout"/>
                  </use>
                  <path fill="none" stroke="white" stroke-width="1.5" d="M0,-3.0v7 M-2.5,-0.5L0,-3.0L2.5,-0.5"/>
                </g>
                <g id="arrowDown" xlink:href="#dirArrow" transform="rotate(180) translate(-30 -48)" onmousedown="handlePan(0,1)">
                  <use xlink:href="#rim" fill="#404040">
                        <set attributeName="fill" to="#808080" begin="arrowDown.mouseover" end="arrowDown.mouseout"/>
                  </use>
                  <path fill="none" stroke="white" stroke-width="1.5" d="M0,-3.0v7 M-2.5,-0.5L0,-3.0L2.5,-0.5"/>
                </g>
                <g id="arrowLeft" xlink:href="#dirArrow" transform="rotate(270) translate(-36 17)" onmousedown="handlePan(-1,0)">
                  <use xlink:href="#rim" fill="#404040">
                        <set attributeName="fill" to="#808080" begin="arrowLeft.mouseover" end="arrowLeft.mouseout"/>
                  </use>
                  <path fill="none" stroke="white" stroke-width="1.5" d="M0,-3.0v7 M-2.5,-0.5L0,-3.0L2.5,-0.5"/>
                </g>
        </g>
        <svg viewBox="0 0 15 15" width="100%" height="30px" preserveAspectRatio="xMaxYMin meet">
         <g id="arrow_out" transform="scale(0.3 0.3)">
          <a xlink:href="CoMTask_8cpp__incl_org.svg" target="_base">
           <rect id="button" ry="5" rx="5" y="6" x="6" height="38" width="38"
                fill="#f2f5e9" fill-opacity="0.5" stroke="#606060" stroke-width="1.0"/>
           <path id="arrow"
             d="M 11.500037,31.436501 C 11.940474,20.09759 22.043105,11.32322 32.158766,21.979434 L 37.068811,17.246167 C 37.068811,17.246167 37.088388,32 37.088388,32 L 22.160133,31.978069 C 22.160133,31.978069 26.997745,27.140456 26.997745,27.140456 C 18.528582,18.264221 13.291696,25.230495 11.500037,31.436501 z"
             style="fill:#404040;"/>
          </a>
         </g>
        </svg>
</svg>
