<?xml version="1.0" encoding="UTF-8" standalone="no"?>
<!DOCTYPE svg PUBLIC "-//W3C//DTD SVG 1.1//EN"
 "http://www.w3.org/Graphics/SVG/1.1/DTD/svg11.dtd">
<!-- Generated by graphviz version 2.43.0 (0)
 -->
<!-- Title: Math/include/BipedalLocomotion/Math/Constants.h Pages: 1 -->
<svg width="682pt" height="206pt"
 viewBox="0.00 0.00 682.00 206.00" xmlns="http://www.w3.org/2000/svg" xmlns:xlink="http://www.w3.org/1999/xlink">
<g id="graph0" class="graph" transform="scale(1 1) rotate(0) translate(4 202)">
<title>Math/include/BipedalLocomotion/Math/Constants.h</title>
<!-- Node1 -->
<g id="node1" class="node">
<title>Node1</title>
<g id="a_node1"><a xlink:title=" ">
<polygon fill="#bfbfbf" stroke="black" points="261,-167.5 261,-197.5 437,-197.5 437,-167.5 261,-167.5"/>
<text text-anchor="start" x="269" y="-185.5" font-family="Helvetica,sans-Serif" font-size="10.00">Math/include/BipedalLocomotion</text>
<text text-anchor="middle" x="349" y="-174.5" font-family="Helvetica,sans-Serif" font-size="10.00">/Math/Constants.h</text>
</a>
</g>
</g>
<!-- Node2 -->
<g id="node2" class="node">
<title>Node2</title>
<g id="a_node2"><a xlink:href="FixedBaseDynamics_8h.html" target="_top" xlink:title=" ">
<polygon fill="none" stroke="black" points="0,-78.5 0,-130.5 164,-130.5 164,-78.5 0,-78.5"/>
<text text-anchor="start" x="8" y="-118.5" font-family="Helvetica,sans-Serif" font-size="10.00">ContinuousDynamicalSystem</text>
<text text-anchor="start" x="8" y="-107.5" font-family="Helvetica,sans-Serif" font-size="10.00">/include/BipedalLocomotion</text>
<text text-anchor="start" x="8" y="-96.5" font-family="Helvetica,sans-Serif" font-size="10.00">/ContinuousDynamicalSystem</text>
<text text-anchor="middle" x="82" y="-85.5" font-family="Helvetica,sans-Serif" font-size="10.00">/FixedBaseDynamics.h</text>
</a>
</g>
</g>
<!-- Node1&#45;&gt;Node2 -->
<g id="edge1" class="edge">
<title>Node1&#45;&gt;Node2</title>
<path fill="none" stroke="midnightblue" d="M290.08,-164.73C253.06,-154.19 204.77,-140.45 164.03,-128.85"/>
<polygon fill="midnightblue" stroke="midnightblue" points="289.14,-168.1 299.72,-167.47 291.06,-161.37 289.14,-168.1"/>
</g>
<!-- Node3 -->
<g id="node3" class="node">
<title>Node3</title>
<g id="a_node3"><a xlink:href="FixedBaseDynamics_8cpp_source.html" target="_top" xlink:title=" ">
<polygon fill="none" stroke="black" points="70.5,-6 70.5,-36 231.5,-36 231.5,-6 70.5,-6"/>
<text text-anchor="start" x="78.5" y="-24" font-family="Helvetica,sans-Serif" font-size="10.00">ContinuousDynamicalSystem</text>
<text text-anchor="middle" x="151" y="-13" font-family="Helvetica,sans-Serif" font-size="10.00">/src/FixedBaseDynamics.cpp</text>
</a>
</g>
</g>
<!-- Node1&#45;&gt;Node3 -->
<g id="edge5" class="edge">
<title>Node1&#45;&gt;Node3</title>
<path fill="none" stroke="midnightblue" d="M272.27,-164.24C250.73,-156.67 228.46,-145.98 211,-131 195.18,-117.43 169.11,-62.37 157.24,-36.09"/>
<polygon fill="midnightblue" stroke="midnightblue" points="271.17,-167.56 281.76,-167.4 273.38,-160.92 271.17,-167.56"/>
</g>
<!-- Node4 -->
<g id="node4" class="node">
<title>Node4</title>
<g id="a_node4"><a xlink:href="FloatingBaseDynamicsWithCompliantContacts_8h.html" target="_top" xlink:title=" ">
<polygon fill="none" stroke="black" points="220.5,-78.5 220.5,-130.5 477.5,-130.5 477.5,-78.5 220.5,-78.5"/>
<text text-anchor="start" x="228.5" y="-118.5" font-family="Helvetica,sans-Serif" font-size="10.00">ContinuousDynamicalSystem</text>
<text text-anchor="start" x="228.5" y="-107.5" font-family="Helvetica,sans-Serif" font-size="10.00">/include/BipedalLocomotion</text>
<text text-anchor="start" x="228.5" y="-96.5" font-family="Helvetica,sans-Serif" font-size="10.00">/ContinuousDynamicalSystem</text>
<text text-anchor="middle" x="349" y="-85.5" font-family="Helvetica,sans-Serif" font-size="10.00">/FloatingBaseDynamicsWithCompliantContacts.h</text>
</a>
</g>
</g>
<!-- Node1&#45;&gt;Node4 -->
<g id="edge3" class="edge">
<title>Node1&#45;&gt;Node4</title>
<path fill="none" stroke="midnightblue" d="M349,-157.14C349,-148.63 349,-139.07 349,-130.5"/>
<polygon fill="midnightblue" stroke="midnightblue" points="345.5,-157.2 349,-167.2 352.5,-157.21 345.5,-157.2"/>
</g>
<!-- Node5 -->
<g id="node5" class="node">
<title>Node5</title>
<g id="a_node5"><a xlink:href="FloatingBaseDynamicsWithCompliantContacts_8cpp.html" target="_top" xlink:title=" ">
<polygon fill="none" stroke="black" points="278,-0.5 278,-41.5 500,-41.5 500,-0.5 278,-0.5"/>
<text text-anchor="start" x="286" y="-29.5" font-family="Helvetica,sans-Serif" font-size="10.00">ContinuousDynamicalSystem</text>
<text text-anchor="start" x="286" y="-18.5" font-family="Helvetica,sans-Serif" font-size="10.00">/src/FloatingBaseDynamicsWithCompliant</text>
<text text-anchor="middle" x="389" y="-7.5" font-family="Helvetica,sans-Serif" font-size="10.00">Contacts.cpp</text>
</a>
</g>
</g>
<!-- Node1&#45;&gt;Node5 -->
<g id="edge6" class="edge">
<title>Node1&#45;&gt;Node5</title>
<path fill="none" stroke="midnightblue" d="M445.17,-163.59C461.62,-156.18 476.7,-145.73 487,-131 500.49,-111.69 498.82,-98.37 487,-78 477.71,-61.98 461.92,-50.16 445.7,-41.62"/>
<polygon fill="midnightblue" stroke="midnightblue" points="443.83,-160.36 435.91,-167.4 446.49,-166.83 443.83,-160.36"/>
</g>
<!-- Node6 -->
<g id="node6" class="node">
<title>Node6</title>
<g id="a_node6"><a xlink:href="TimeVaryingDCMPlanner_8cpp.html" target="_top" xlink:title=" ">
<polygon fill="none" stroke="black" points="534,-89.5 534,-119.5 674,-119.5 674,-89.5 534,-89.5"/>
<text text-anchor="start" x="542" y="-107.5" font-family="Helvetica,sans-Serif" font-size="10.00">Planners/src/TimeVarying</text>
<text text-anchor="middle" x="604" y="-96.5" font-family="Helvetica,sans-Serif" font-size="10.00">DCMPlanner.cpp</text>
</a>
</g>
</g>
<!-- Node1&#45;&gt;Node6 -->
<g id="edge7" class="edge">
<title>Node1&#45;&gt;Node6</title>
<path fill="none" stroke="midnightblue" d="M406.91,-164.52C440.04,-154.77 482.38,-142.27 520,-131 532.26,-127.33 545.52,-123.32 557.81,-119.59"/>
<polygon fill="midnightblue" stroke="midnightblue" points="405.55,-161.27 396.94,-167.45 407.52,-167.98 405.55,-161.27"/>
</g>
<!-- Node2&#45;&gt;Node3 -->
<g id="edge2" class="edge">
<title>Node2&#45;&gt;Node3</title>
<path fill="none" stroke="midnightblue" d="M109.96,-70.48C120.08,-58.52 130.98,-45.64 139.01,-36.17"/>
<polygon fill="midnightblue" stroke="midnightblue" points="107.24,-68.27 103.45,-78.16 112.59,-72.79 107.24,-68.27"/>
</g>
<!-- Node4&#45;&gt;Node5 -->
<g id="edge4" class="edge">
<title>Node4&#45;&gt;Node5</title>
<path fill="none" stroke="midnightblue" d="M365.92,-69.03C370.51,-59.67 375.33,-49.85 379.37,-41.63"/>
<polygon fill="midnightblue" stroke="midnightblue" points="362.7,-67.64 361.44,-78.16 368.98,-70.72 362.7,-67.64"/>
</g>
</g>
</svg>
