<?xml version="1.0" encoding="UTF-8" standalone="no"?>
<!DOCTYPE svg PUBLIC "-//W3C//DTD SVG 1.1//EN"
 "http://www.w3.org/Graphics/SVG/1.1/DTD/svg11.dtd">
<!-- Generated by graphviz version 2.43.0 (0)
 -->
<!-- Title: Contacts/include/BipedalLocomotion/Contacts/ContactList.h Pages: 1 -->
<svg width="901pt" height="418pt"
 viewBox="0.00 0.00 901.00 418.00" xmlns="http://www.w3.org/2000/svg" xmlns:xlink="http://www.w3.org/1999/xlink">
<g id="graph0" class="graph" transform="scale(1 1) rotate(0) translate(4 414)">
<title>Contacts/include/BipedalLocomotion/Contacts/ContactList.h</title>
<!-- Node1 -->
<g id="node1" class="node">
<title>Node1</title>
<g id="a_node1"><a xlink:title=" ">
<polygon fill="#bfbfbf" stroke="black" points="468.5,-379.5 468.5,-409.5 654.5,-409.5 654.5,-379.5 468.5,-379.5"/>
<text text-anchor="start" x="476.5" y="-397.5" font-family="Helvetica,sans-Serif" font-size="10.00">Contacts/include/Bipedal</text>
<text text-anchor="middle" x="561.5" y="-386.5" font-family="Helvetica,sans-Serif" font-size="10.00">Locomotion/Contacts/ContactList.h</text>
</a>
</g>
</g>
<!-- Node2 -->
<g id="node2" class="node">
<title>Node2</title>
<g id="a_node2"><a xlink:href="ContactPhase_8h.html" target="_top" xlink:title=" ">
<polygon fill="none" stroke="black" points="267.5,-307 267.5,-337 465.5,-337 465.5,-307 267.5,-307"/>
<text text-anchor="start" x="275.5" y="-325" font-family="Helvetica,sans-Serif" font-size="10.00">Contacts/include/Bipedal</text>
<text text-anchor="middle" x="366.5" y="-314" font-family="Helvetica,sans-Serif" font-size="10.00">Locomotion/Contacts/ContactPhase.h</text>
</a>
</g>
</g>
<!-- Node1&#45;&gt;Node2 -->
<g id="edge1" class="edge">
<title>Node1&#45;&gt;Node2</title>
<path fill="none" stroke="midnightblue" d="M513,-375.96C479.8,-363.96 436.36,-348.26 405.42,-337.07"/>
<polygon fill="midnightblue" stroke="midnightblue" points="511.91,-379.29 522.51,-379.4 514.29,-372.71 511.91,-379.29"/>
</g>
<!-- Node3 -->
<g id="node3" class="node">
<title>Node3</title>
<g id="a_node3"><a xlink:href="ContactPhaseList_8h_source.html" target="_top" xlink:title=" ">
<polygon fill="none" stroke="black" points="145,-223.5 145,-264.5 334,-264.5 334,-223.5 145,-223.5"/>
<text text-anchor="start" x="153" y="-252.5" font-family="Helvetica,sans-Serif" font-size="10.00">Contacts/include/Bipedal</text>
<text text-anchor="start" x="153" y="-241.5" font-family="Helvetica,sans-Serif" font-size="10.00">Locomotion/Contacts/ContactPhase</text>
<text text-anchor="middle" x="239.5" y="-230.5" font-family="Helvetica,sans-Serif" font-size="10.00">List.h</text>
</a>
</g>
</g>
<!-- Node1&#45;&gt;Node3 -->
<g id="edge12" class="edge">
<title>Node1&#45;&gt;Node3</title>
<path fill="none" stroke="midnightblue" d="M458.23,-388.67C381.88,-382.88 286.52,-370.29 258.5,-343 237.64,-322.69 235.98,-286.83 237.3,-264.58"/>
<polygon fill="midnightblue" stroke="midnightblue" points="458.17,-392.17 468.39,-389.4 458.67,-385.19 458.17,-392.17"/>
</g>
<!-- Node12 -->
<g id="node12" class="node">
<title>Node12</title>
<g id="a_node12"><a xlink:href="ContactList_8cpp.html" target="_top" xlink:title=" ">
<polygon fill="none" stroke="black" points="484,-312.5 484,-331.5 639,-331.5 639,-312.5 484,-312.5"/>
<text text-anchor="middle" x="561.5" y="-319.5" font-family="Helvetica,sans-Serif" font-size="10.00">Contacts/src/ContactList.cpp</text>
</a>
</g>
</g>
<!-- Node1&#45;&gt;Node12 -->
<g id="edge13" class="edge">
<title>Node1&#45;&gt;Node12</title>
<path fill="none" stroke="midnightblue" d="M561.5,-369.09C561.5,-356.21 561.5,-341.2 561.5,-331.89"/>
<polygon fill="midnightblue" stroke="midnightblue" points="558,-369.23 561.5,-379.23 565,-369.23 558,-369.23"/>
</g>
<!-- Node13 -->
<g id="node13" class="node">
<title>Node13</title>
<g id="a_node13"><a xlink:href="SwingFootPlanner_8h.html" target="_top" xlink:title=" ">
<polygon fill="none" stroke="black" points="657.5,-301.5 657.5,-342.5 829.5,-342.5 829.5,-301.5 657.5,-301.5"/>
<text text-anchor="start" x="665.5" y="-330.5" font-family="Helvetica,sans-Serif" font-size="10.00">Planners/include/Bipedal</text>
<text text-anchor="start" x="665.5" y="-319.5" font-family="Helvetica,sans-Serif" font-size="10.00">Locomotion/Planners/SwingFoot</text>
<text text-anchor="middle" x="743.5" y="-308.5" font-family="Helvetica,sans-Serif" font-size="10.00">Planner.h</text>
</a>
</g>
</g>
<!-- Node1&#45;&gt;Node13 -->
<g id="edge14" class="edge">
<title>Node1&#45;&gt;Node13</title>
<path fill="none" stroke="midnightblue" d="M607.54,-375.67C633.61,-365.57 666.27,-352.92 693.04,-342.55"/>
<polygon fill="midnightblue" stroke="midnightblue" points="605.95,-372.53 597.89,-379.4 608.48,-379.05 605.95,-372.53"/>
</g>
<!-- Node14 -->
<g id="node14" class="node">
<title>Node14</title>
<g id="a_node14"><a xlink:href="SwingFootPlanner_8cpp.html" target="_top" xlink:title=" ">
<polygon fill="none" stroke="black" points="708,-234.5 708,-253.5 893,-253.5 893,-234.5 708,-234.5"/>
<text text-anchor="middle" x="800.5" y="-241.5" font-family="Helvetica,sans-Serif" font-size="10.00">Planners/src/SwingFootPlanner.cpp</text>
</a>
</g>
</g>
<!-- Node1&#45;&gt;Node14 -->
<g id="edge16" class="edge">
<title>Node1&#45;&gt;Node14</title>
<path fill="none" stroke="midnightblue" d="M664.82,-388.17C734.01,-382.19 816.34,-369.57 838.5,-343 861.64,-315.25 826.26,-271.8 809.03,-253.54"/>
<polygon fill="midnightblue" stroke="midnightblue" points="664.39,-384.7 654.71,-389.01 664.97,-391.67 664.39,-384.7"/>
</g>
<!-- Node2&#45;&gt;Node3 -->
<g id="edge2" class="edge">
<title>Node2&#45;&gt;Node3</title>
<path fill="none" stroke="midnightblue" d="M334.08,-301.6C315.22,-290.31 291.5,-276.12 272.54,-264.77"/>
<polygon fill="midnightblue" stroke="midnightblue" points="332.53,-304.75 342.91,-306.88 336.13,-298.74 332.53,-304.75"/>
</g>
<!-- Node11 -->
<g id="node11" class="node">
<title>Node11</title>
<g id="a_node11"><a xlink:href="ContactPhase_8cpp.html" target="_top" xlink:title=" ">
<polygon fill="none" stroke="black" points="352,-234.5 352,-253.5 519,-253.5 519,-234.5 352,-234.5"/>
<text text-anchor="middle" x="435.5" y="-241.5" font-family="Helvetica,sans-Serif" font-size="10.00">Contacts/src/ContactPhase.cpp</text>
</a>
</g>
</g>
<!-- Node2&#45;&gt;Node11 -->
<g id="edge11" class="edge">
<title>Node2&#45;&gt;Node11</title>
<path fill="none" stroke="midnightblue" d="M386.28,-299.21C400.08,-284.01 417.75,-264.55 427.73,-253.56"/>
<polygon fill="midnightblue" stroke="midnightblue" points="383.61,-296.95 379.48,-306.7 388.79,-301.65 383.61,-296.95"/>
</g>
<!-- Node4 -->
<g id="node4" class="node">
<title>Node4</title>
<g id="a_node4"><a xlink:href="FixedFootDetector_8h.html" target="_top" xlink:title=" ">
<polygon fill="none" stroke="black" points="0,-145.5 0,-186.5 161,-186.5 161,-145.5 0,-145.5"/>
<text text-anchor="start" x="8" y="-174.5" font-family="Helvetica,sans-Serif" font-size="10.00">Contacts/include/Bipedal</text>
<text text-anchor="start" x="8" y="-163.5" font-family="Helvetica,sans-Serif" font-size="10.00">Locomotion/ContactDetectors</text>
<text text-anchor="middle" x="80.5" y="-152.5" font-family="Helvetica,sans-Serif" font-size="10.00">/FixedFootDetector.h</text>
</a>
</g>
</g>
<!-- Node3&#45;&gt;Node4 -->
<g id="edge3" class="edge">
<title>Node3&#45;&gt;Node4</title>
<path fill="none" stroke="midnightblue" d="M189.39,-219.05C167.46,-208.57 142.06,-196.42 121.31,-186.51"/>
<polygon fill="midnightblue" stroke="midnightblue" points="188.02,-222.27 198.55,-223.43 191.04,-215.96 188.02,-222.27"/>
</g>
<!-- Node5 -->
<g id="node5" class="node">
<title>Node5</title>
<g id="a_node5"><a xlink:href="FixedFootDetector_8cpp.html" target="_top" xlink:title=" ">
<polygon fill="none" stroke="black" points="41.5,-78.5 41.5,-97.5 229.5,-97.5 229.5,-78.5 41.5,-78.5"/>
<text text-anchor="middle" x="135.5" y="-85.5" font-family="Helvetica,sans-Serif" font-size="10.00">Contacts/src/FixedFootDetector.cpp</text>
</a>
</g>
</g>
<!-- Node3&#45;&gt;Node5 -->
<g id="edge6" class="edge">
<title>Node3&#45;&gt;Node5</title>
<path fill="none" stroke="midnightblue" d="M220.57,-214.97C196.46,-179.27 156.14,-119.56 141.25,-97.51"/>
<polygon fill="midnightblue" stroke="midnightblue" points="217.83,-217.17 226.33,-223.5 223.63,-213.25 217.83,-217.17"/>
</g>
<!-- Node6 -->
<g id="node6" class="node">
<title>Node6</title>
<g id="a_node6"><a xlink:href="ContactPhaseList_8cpp_source.html" target="_top" xlink:title=" ">
<polygon fill="none" stroke="black" points="217.5,-151 217.5,-181 363.5,-181 363.5,-151 217.5,-151"/>
<text text-anchor="start" x="225.5" y="-169" font-family="Helvetica,sans-Serif" font-size="10.00">Contacts/src/ContactPhase</text>
<text text-anchor="middle" x="290.5" y="-158" font-family="Helvetica,sans-Serif" font-size="10.00">List.cpp</text>
</a>
</g>
</g>
<!-- Node3&#45;&gt;Node6 -->
<g id="edge5" class="edge">
<title>Node3&#45;&gt;Node6</title>
<path fill="none" stroke="midnightblue" d="M258.3,-214.98C266.01,-203.5 274.59,-190.71 280.95,-181.23"/>
<polygon fill="midnightblue" stroke="midnightblue" points="255.3,-213.17 252.63,-223.43 261.11,-217.07 255.3,-213.17"/>
</g>
<!-- Node7 -->
<g id="node7" class="node">
<title>Node7</title>
<g id="a_node7"><a xlink:href="DCMPlanner_8h.html" target="_top" xlink:title=" ">
<polygon fill="none" stroke="black" points="381.5,-151 381.5,-181 571.5,-181 571.5,-151 381.5,-151"/>
<text text-anchor="start" x="389.5" y="-169" font-family="Helvetica,sans-Serif" font-size="10.00">Planners/include/Bipedal</text>
<text text-anchor="middle" x="476.5" y="-158" font-family="Helvetica,sans-Serif" font-size="10.00">Locomotion/Planners/DCMPlanner.h</text>
</a>
</g>
</g>
<!-- Node3&#45;&gt;Node7 -->
<g id="edge7" class="edge">
<title>Node3&#45;&gt;Node7</title>
<path fill="none" stroke="midnightblue" d="M310.17,-220.34C349.88,-207.6 398.2,-192.11 432.51,-181.11"/>
<polygon fill="midnightblue" stroke="midnightblue" points="308.99,-217.04 300.53,-223.43 311.12,-223.71 308.99,-217.04"/>
</g>
<!-- Node4&#45;&gt;Node5 -->
<g id="edge4" class="edge">
<title>Node4&#45;&gt;Node5</title>
<path fill="none" stroke="midnightblue" d="M100.73,-137.04C110.86,-123.05 122.4,-107.1 129.31,-97.55"/>
<polygon fill="midnightblue" stroke="midnightblue" points="97.69,-135.27 94.66,-145.43 103.36,-139.38 97.69,-135.27"/>
</g>
<!-- Node8 -->
<g id="node8" class="node">
<title>Node8</title>
<g id="a_node8"><a xlink:href="TimeVaryingDCMPlanner_8h.html" target="_top" xlink:title=" ">
<polygon fill="none" stroke="black" points="249,-67.5 249,-108.5 432,-108.5 432,-67.5 249,-67.5"/>
<text text-anchor="start" x="257" y="-96.5" font-family="Helvetica,sans-Serif" font-size="10.00">Planners/include/Bipedal</text>
<text text-anchor="start" x="257" y="-85.5" font-family="Helvetica,sans-Serif" font-size="10.00">Locomotion/Planners/TimeVarying</text>
<text text-anchor="middle" x="340.5" y="-74.5" font-family="Helvetica,sans-Serif" font-size="10.00">DCMPlanner.h</text>
</a>
</g>
</g>
<!-- Node7&#45;&gt;Node8 -->
<g id="edge8" class="edge">
<title>Node7&#45;&gt;Node8</title>
<path fill="none" stroke="midnightblue" d="M442.3,-145.89C421.94,-134.51 396.15,-120.1 375.62,-108.63"/>
<polygon fill="midnightblue" stroke="midnightblue" points="440.8,-149.06 451.24,-150.88 444.22,-142.95 440.8,-149.06"/>
</g>
<!-- Node10 -->
<g id="node10" class="node">
<title>Node10</title>
<g id="a_node10"><a xlink:href="DCMPlanner_8cpp.html" target="_top" xlink:title=" ">
<polygon fill="none" stroke="black" points="450.5,-78.5 450.5,-97.5 608.5,-97.5 608.5,-78.5 450.5,-78.5"/>
<text text-anchor="middle" x="529.5" y="-85.5" font-family="Helvetica,sans-Serif" font-size="10.00">Planners/src/DCMPlanner.cpp</text>
</a>
</g>
</g>
<!-- Node7&#45;&gt;Node10 -->
<g id="edge10" class="edge">
<title>Node7&#45;&gt;Node10</title>
<path fill="none" stroke="midnightblue" d="M492.28,-142.37C502.79,-127.3 516,-108.35 523.53,-97.56"/>
<polygon fill="midnightblue" stroke="midnightblue" points="489.32,-140.5 486.47,-150.7 495.06,-144.5 489.32,-140.5"/>
</g>
<!-- Node9 -->
<g id="node9" class="node">
<title>Node9</title>
<g id="a_node9"><a xlink:href="TimeVaryingDCMPlanner_8cpp.html" target="_top" xlink:title=" ">
<polygon fill="none" stroke="black" points="270.5,-0.5 270.5,-30.5 410.5,-30.5 410.5,-0.5 270.5,-0.5"/>
<text text-anchor="start" x="278.5" y="-18.5" font-family="Helvetica,sans-Serif" font-size="10.00">Planners/src/TimeVarying</text>
<text text-anchor="middle" x="340.5" y="-7.5" font-family="Helvetica,sans-Serif" font-size="10.00">DCMPlanner.cpp</text>
</a>
</g>
</g>
<!-- Node8&#45;&gt;Node9 -->
<g id="edge9" class="edge">
<title>Node8&#45;&gt;Node9</title>
<path fill="none" stroke="midnightblue" d="M340.5,-57.08C340.5,-48.01 340.5,-38.45 340.5,-30.89"/>
<polygon fill="midnightblue" stroke="midnightblue" points="337,-57.36 340.5,-67.36 344,-57.36 337,-57.36"/>
</g>
<!-- Node13&#45;&gt;Node14 -->
<g id="edge15" class="edge">
<title>Node13&#45;&gt;Node14</title>
<path fill="none" stroke="midnightblue" d="M764.47,-293.04C774.96,-279.05 786.93,-263.1 794.09,-253.55"/>
<polygon fill="midnightblue" stroke="midnightblue" points="761.38,-291.33 758.18,-301.43 766.98,-295.53 761.38,-291.33"/>
</g>
</g>
</svg>
