<?xml version="1.0" encoding="UTF-8" standalone="no"?>
<!DOCTYPE svg PUBLIC "-//W3C//DTD SVG 1.1//EN"
 "http://www.w3.org/Graphics/SVG/1.1/DTD/svg11.dtd">
<!-- Generated by graphviz version 2.43.0 (0)
 -->
<!-- Title: Contacts/src/ContactPhase.cpp Pages: 1 -->
<svg width="543pt" height="352pt"
 viewBox="0.00 0.00 543.00 352.00" xmlns="http://www.w3.org/2000/svg" xmlns:xlink="http://www.w3.org/1999/xlink">
<g id="graph0" class="graph" transform="scale(1 1) rotate(0) translate(4 348)">
<title>Contacts/src/ContactPhase.cpp</title>
<!-- Node1 -->
<g id="node1" class="node">
<title>Node1</title>
<g id="a_node1"><a xlink:title=" ">
<polygon fill="#bfbfbf" stroke="black" points="273,-324.5 273,-343.5 440,-343.5 440,-324.5 273,-324.5"/>
<text text-anchor="middle" x="356.5" y="-331.5" font-family="Helvetica,sans-Serif" font-size="10.00">Contacts/src/ContactPhase.cpp</text>
</a>
</g>
</g>
<!-- Node2 -->
<g id="node2" class="node">
<title>Node2</title>
<g id="a_node2"><a xlink:href="ContactPhase_8h.html" target="_top" xlink:title=" ">
<polygon fill="none" stroke="black" points="214.5,-257.5 214.5,-287.5 370.5,-287.5 370.5,-257.5 214.5,-257.5"/>
<text text-anchor="start" x="222.5" y="-275.5" font-family="Helvetica,sans-Serif" font-size="10.00">BipedalLocomotion/Contacts</text>
<text text-anchor="middle" x="292.5" y="-264.5" font-family="Helvetica,sans-Serif" font-size="10.00">/ContactPhase.h</text>
</a>
</g>
</g>
<!-- Node1&#45;&gt;Node2 -->
<g id="edge1" class="edge">
<title>Node1&#45;&gt;Node2</title>
<path fill="none" stroke="midnightblue" d="M347.33,-324.48C338.91,-316.64 326.08,-304.71 314.94,-294.37"/>
<polygon fill="midnightblue" stroke="midnightblue" points="317.29,-291.77 307.58,-287.52 312.52,-296.9 317.29,-291.77"/>
</g>
<!-- Node14 -->
<g id="node14" class="node">
<title>Node14</title>
<g id="a_node14"><a xlink:title=" ">
<polygon fill="none" stroke="#bfbfbf" points="388.5,-263 388.5,-282 452.5,-282 452.5,-263 388.5,-263"/>
<text text-anchor="middle" x="420.5" y="-270" font-family="Helvetica,sans-Serif" font-size="10.00">algorithm</text>
</a>
</g>
</g>
<!-- Node1&#45;&gt;Node14 -->
<g id="edge17" class="edge">
<title>Node1&#45;&gt;Node14</title>
<path fill="none" stroke="midnightblue" d="M365.67,-324.48C375.65,-315.2 391.81,-300.17 404.01,-288.83"/>
<polygon fill="midnightblue" stroke="midnightblue" points="406.41,-291.38 411.35,-282.01 401.64,-286.25 406.41,-291.38"/>
</g>
<!-- Node3 -->
<g id="node3" class="node">
<title>Node3</title>
<g id="a_node3"><a xlink:href="Contact_8h.html" target="_top" xlink:title=" ">
<polygon fill="none" stroke="black" points="55.5,-123.5 55.5,-153.5 211.5,-153.5 211.5,-123.5 55.5,-123.5"/>
<text text-anchor="start" x="63.5" y="-141.5" font-family="Helvetica,sans-Serif" font-size="10.00">BipedalLocomotion/Contacts</text>
<text text-anchor="middle" x="133.5" y="-130.5" font-family="Helvetica,sans-Serif" font-size="10.00">/Contact.h</text>
</a>
</g>
</g>
<!-- Node2&#45;&gt;Node3 -->
<g id="edge2" class="edge">
<title>Node2&#45;&gt;Node3</title>
<path fill="none" stroke="midnightblue" d="M272.84,-257.31C259.32,-247.4 241.06,-233.72 225.5,-221 201.43,-201.32 174.96,-177.65 156.62,-160.9"/>
<polygon fill="midnightblue" stroke="midnightblue" points="158.54,-157.91 148.8,-153.73 153.81,-163.06 158.54,-157.91"/>
</g>
<!-- Node8 -->
<g id="node8" class="node">
<title>Node8</title>
<g id="a_node8"><a xlink:title=" ">
<polygon fill="none" stroke="#bfbfbf" points="220.5,-62 220.5,-81 264.5,-81 264.5,-62 220.5,-62"/>
<text text-anchor="middle" x="242.5" y="-69" font-family="Helvetica,sans-Serif" font-size="10.00">string</text>
</a>
</g>
</g>
<!-- Node2&#45;&gt;Node8 -->
<g id="edge16" class="edge">
<title>Node2&#45;&gt;Node8</title>
<path fill="none" stroke="midnightblue" d="M280,-257.09C272.44,-247.52 263.36,-234.3 258.5,-221 242.33,-176.68 241.06,-120.35 241.68,-91.47"/>
<polygon fill="midnightblue" stroke="midnightblue" points="245.19,-91.3 242.01,-81.2 238.19,-91.08 245.19,-91.3"/>
</g>
<!-- Node9 -->
<g id="node9" class="node">
<title>Node9</title>
<g id="a_node9"><a xlink:href="ContactList_8h.html" target="_top" xlink:title=" ">
<polygon fill="none" stroke="black" points="267.5,-190.5 267.5,-220.5 423.5,-220.5 423.5,-190.5 267.5,-190.5"/>
<text text-anchor="start" x="275.5" y="-208.5" font-family="Helvetica,sans-Serif" font-size="10.00">BipedalLocomotion/Contacts</text>
<text text-anchor="middle" x="345.5" y="-197.5" font-family="Helvetica,sans-Serif" font-size="10.00">/ContactList.h</text>
</a>
</g>
</g>
<!-- Node2&#45;&gt;Node9 -->
<g id="edge9" class="edge">
<title>Node2&#45;&gt;Node9</title>
<path fill="none" stroke="midnightblue" d="M304,-257.4C310.88,-248.96 319.76,-238.07 327.54,-228.52"/>
<polygon fill="midnightblue" stroke="midnightblue" points="330.42,-230.54 334.02,-220.58 324.99,-226.11 330.42,-230.54"/>
</g>
<!-- Node13 -->
<g id="node13" class="node">
<title>Node13</title>
<g id="a_node13"><a xlink:title=" ">
<polygon fill="none" stroke="#bfbfbf" points="442,-196 442,-215 535,-215 535,-196 442,-196"/>
<text text-anchor="middle" x="488.5" y="-203" font-family="Helvetica,sans-Serif" font-size="10.00">unordered_map</text>
</a>
</g>
</g>
<!-- Node2&#45;&gt;Node13 -->
<g id="edge15" class="edge">
<title>Node2&#45;&gt;Node13</title>
<path fill="none" stroke="midnightblue" d="M335.03,-257.4C370.33,-245.69 419.96,-229.23 453.12,-218.23"/>
<polygon fill="midnightblue" stroke="midnightblue" points="454.46,-221.48 462.85,-215.01 452.25,-214.83 454.46,-221.48"/>
</g>
<!-- Node4 -->
<g id="node4" class="node">
<title>Node4</title>
<g id="a_node4"><a xlink:href="Wrench_8h.html" target="_top" xlink:title=" ">
<polygon fill="none" stroke="black" points="64.5,-56.5 64.5,-86.5 202.5,-86.5 202.5,-56.5 64.5,-56.5"/>
<text text-anchor="start" x="72.5" y="-74.5" font-family="Helvetica,sans-Serif" font-size="10.00">BipedalLocomotion/Math</text>
<text text-anchor="middle" x="133.5" y="-63.5" font-family="Helvetica,sans-Serif" font-size="10.00">/Wrench.h</text>
</a>
</g>
</g>
<!-- Node3&#45;&gt;Node4 -->
<g id="edge3" class="edge">
<title>Node3&#45;&gt;Node4</title>
<path fill="none" stroke="midnightblue" d="M133.5,-123.4C133.5,-115.64 133.5,-105.81 133.5,-96.86"/>
<polygon fill="midnightblue" stroke="midnightblue" points="137,-96.58 133.5,-86.58 130,-96.58 137,-96.58"/>
</g>
<!-- Node6 -->
<g id="node6" class="node">
<title>Node6</title>
<g id="a_node6"><a xlink:title=" ">
<polygon fill="none" stroke="#bfbfbf" points="0,-0.5 0,-19.5 75,-19.5 75,-0.5 0,-0.5"/>
<text text-anchor="middle" x="37.5" y="-7.5" font-family="Helvetica,sans-Serif" font-size="10.00">manif/SE3.h</text>
</a>
</g>
</g>
<!-- Node3&#45;&gt;Node6 -->
<g id="edge7" class="edge">
<title>Node3&#45;&gt;Node6</title>
<path fill="none" stroke="midnightblue" d="M100.69,-123.49C84.79,-115.1 66.75,-102.95 55.5,-87 43.56,-70.08 39.46,-46.29 38.1,-29.86"/>
<polygon fill="midnightblue" stroke="midnightblue" points="41.59,-29.61 37.52,-19.83 34.6,-30.01 41.59,-29.61"/>
</g>
<!-- Node3&#45;&gt;Node8 -->
<g id="edge8" class="edge">
<title>Node3&#45;&gt;Node8</title>
<path fill="none" stroke="midnightblue" d="M157.15,-123.4C175.68,-112.34 201.31,-97.06 219.64,-86.13"/>
<polygon fill="midnightblue" stroke="midnightblue" points="221.44,-89.13 228.23,-81.01 217.85,-83.12 221.44,-89.13"/>
</g>
<!-- Node5 -->
<g id="node5" class="node">
<title>Node5</title>
<g id="a_node5"><a xlink:title=" ">
<polygon fill="none" stroke="#bfbfbf" points="94,-0.5 94,-19.5 171,-19.5 171,-0.5 94,-0.5"/>
<text text-anchor="middle" x="132.5" y="-7.5" font-family="Helvetica,sans-Serif" font-size="10.00">Eigen/Dense</text>
</a>
</g>
</g>
<!-- Node4&#45;&gt;Node5 -->
<g id="edge4" class="edge">
<title>Node4&#45;&gt;Node5</title>
<path fill="none" stroke="midnightblue" d="M133.26,-56.4C133.13,-48.47 132.96,-38.46 132.82,-29.86"/>
<polygon fill="midnightblue" stroke="midnightblue" points="136.31,-29.6 132.65,-19.66 129.31,-29.72 136.31,-29.6"/>
</g>
<!-- Node4&#45;&gt;Node6 -->
<g id="edge5" class="edge">
<title>Node4&#45;&gt;Node6</title>
<path fill="none" stroke="midnightblue" d="M110.75,-56.4C95.51,-46.95 75.51,-34.56 60.26,-25.11"/>
<polygon fill="midnightblue" stroke="midnightblue" points="61.81,-21.95 51.47,-19.66 58.12,-27.9 61.81,-21.95"/>
</g>
<!-- Node7 -->
<g id="node7" class="node">
<title>Node7</title>
<g id="a_node7"><a xlink:title=" ">
<polygon fill="none" stroke="#bfbfbf" points="189,-0.5 189,-19.5 266,-19.5 266,-0.5 189,-0.5"/>
<text text-anchor="middle" x="227.5" y="-7.5" font-family="Helvetica,sans-Serif" font-size="10.00">manif/SO3.h</text>
</a>
</g>
</g>
<!-- Node4&#45;&gt;Node7 -->
<g id="edge6" class="edge">
<title>Node4&#45;&gt;Node7</title>
<path fill="none" stroke="midnightblue" d="M155.78,-56.4C170.7,-46.95 190.28,-34.56 205.21,-25.11"/>
<polygon fill="midnightblue" stroke="midnightblue" points="207.24,-27.96 213.82,-19.66 203.5,-22.05 207.24,-27.96"/>
</g>
<!-- Node9&#45;&gt;Node3 -->
<g id="edge10" class="edge">
<title>Node9&#45;&gt;Node3</title>
<path fill="none" stroke="midnightblue" d="M299.76,-190.48C267.41,-180.56 223.85,-167.2 189.43,-156.65"/>
<polygon fill="midnightblue" stroke="midnightblue" points="190.11,-153.2 179.52,-153.61 188.06,-159.89 190.11,-153.2"/>
</g>
<!-- Node9&#45;&gt;Node8 -->
<g id="edge13" class="edge">
<title>Node9&#45;&gt;Node8</title>
<path fill="none" stroke="midnightblue" d="M363.68,-190.43C382.96,-173.76 408.61,-145.42 392.5,-123 365.84,-85.89 310.52,-75.68 275.02,-73.09"/>
<polygon fill="midnightblue" stroke="midnightblue" points="274.88,-69.57 264.7,-72.5 274.49,-76.56 274.88,-69.57"/>
</g>
<!-- Node10 -->
<g id="node10" class="node">
<title>Node10</title>
<g id="a_node10"><a xlink:title=" ">
<polygon fill="none" stroke="#bfbfbf" points="440,-129 440,-148 525,-148 525,-129 440,-129"/>
<text text-anchor="middle" x="482.5" y="-136" font-family="Helvetica,sans-Serif" font-size="10.00">manif/manif.h</text>
</a>
</g>
</g>
<!-- Node9&#45;&gt;Node10 -->
<g id="edge11" class="edge">
<title>Node9&#45;&gt;Node10</title>
<path fill="none" stroke="midnightblue" d="M375.23,-190.4C399.05,-179.09 432.21,-163.36 455.33,-152.39"/>
<polygon fill="midnightblue" stroke="midnightblue" points="457.04,-155.46 464.57,-148.01 454.03,-149.13 457.04,-155.46"/>
</g>
<!-- Node11 -->
<g id="node11" class="node">
<title>Node11</title>
<g id="a_node11"><a xlink:title=" ">
<polygon fill="none" stroke="#bfbfbf" points="267.5,-129 267.5,-148 299.5,-148 299.5,-129 267.5,-129"/>
<text text-anchor="middle" x="283.5" y="-136" font-family="Helvetica,sans-Serif" font-size="10.00">set</text>
</a>
</g>
</g>
<!-- Node9&#45;&gt;Node11 -->
<g id="edge12" class="edge">
<title>Node9&#45;&gt;Node11</title>
<path fill="none" stroke="midnightblue" d="M332.05,-190.4C322.28,-180.16 309.06,-166.3 298.88,-155.62"/>
<polygon fill="midnightblue" stroke="midnightblue" points="301.23,-153.01 291.79,-148.19 296.16,-157.85 301.23,-153.01"/>
</g>
<!-- Node12 -->
<g id="node12" class="node">
<title>Node12</title>
<g id="a_node12"><a xlink:title=" ">
<polygon fill="none" stroke="#bfbfbf" points="318,-129 318,-148 383,-148 383,-129 318,-129"/>
<text text-anchor="middle" x="350.5" y="-136" font-family="Helvetica,sans-Serif" font-size="10.00">functional</text>
</a>
</g>
</g>
<!-- Node9&#45;&gt;Node12 -->
<g id="edge14" class="edge">
<title>Node9&#45;&gt;Node12</title>
<path fill="none" stroke="midnightblue" d="M346.58,-190.4C347.31,-180.96 348.27,-168.45 349.06,-158.19"/>
<polygon fill="midnightblue" stroke="midnightblue" points="352.55,-158.43 349.83,-148.19 345.57,-157.9 352.55,-158.43"/>
</g>
</g>
</svg>
