<?xml version="1.0" encoding="UTF-8" standalone="no"?>
<!DOCTYPE svg PUBLIC "-//W3C//DTD SVG 1.1//EN"
 "http://www.w3.org/Graphics/SVG/1.1/DTD/svg11.dtd">
<!-- Generated by graphviz version 2.43.0 (0)
 -->
<!-- Title: ContactModels/include/BipedalLocomotion/ContactModels/ContactModel.h Pages: 1 -->
<!--zoomable 306 -->
<svg id="main" version="1.1" xmlns="http://www.w3.org/2000/svg" xmlns:xlink="http://www.w3.org/1999/xlink" xml:space="preserve" onload="init(evt)">
<style type="text/css"><![CDATA[
.edge:hover path { stroke: red; }
.edge:hover polygon { stroke: red; fill: red; }
]]></style>
<script type="text/javascript"><![CDATA[
var edges = document.getElementsByTagName('g');
if (edges && edges.length) {
  for (var i=0;i<edges.length;i++) {
    if (edges[i].id.substr(0,4)=='edge') {
      edges[i].setAttribute('class','edge');
    }
  }
}
]]></script>
        <defs>
                <circle id="rim" cx="0" cy="0" r="7"/>
                <circle id="rim2" cx="0" cy="0" r="3.5"/>
                <g id="zoomPlus">
                        <use xlink:href="#rim" fill="#404040">
                                <set attributeName="fill" to="#808080" begin="zoomplus.mouseover" end="zoomplus.mouseout"/>
                        </use>
                        <path d="M-4,0h8M0,-4v8" fill="none" stroke="white" stroke-width="1.5" pointer-events="none"/>
                </g>
                <g id="zoomMin">
                        <use xlink:href="#rim" fill="#404040">
                                <set attributeName="fill" to="#808080" begin="zoomminus.mouseover" end="zoomminus.mouseout"/>
                        </use>
                        <path d="M-4,0h8" fill="none" stroke="white" stroke-width="1.5" pointer-events="none"/>
                </g>
                <g id="dirArrow">
                        <path fill="none" stroke="white" stroke-width="1.5" d="M0,-3.0v7 M-2.5,-0.5L0,-3.0L2.5,-0.5"/>
                </g>
               <g id="resetDef">
                       <use xlink:href="#rim2" fill="#404040">
                               <set attributeName="fill" to="#808080" begin="reset.mouseover" end="reset.mouseout"/>
                       </use>
               </g>
        </defs>

<script type="text/javascript">
var viewWidth = 830;
var viewHeight = 306;
var sectionId = 'dynsection-1';
</script>
<script xlink:href="svgpan.js"/>
<svg id="graph" class="graph">
<g id="viewport">
<title>ContactModels/include/BipedalLocomotion/ContactModels/ContactModel.h</title>
<!-- Node1 -->
<g id="node1" class="node">
<title>Node1</title>
<g id="a_node1"><a xlink:title=" ">
<polygon fill="#bfbfbf" stroke="black" points="311.5,-256.5 311.5,-297.5 500.5,-297.5 500.5,-256.5 311.5,-256.5"/>
<text text-anchor="start" x="319.5" y="-285.5" font-family="Helvetica,sans-Serif" font-size="10.00">ContactModels/include</text>
<text text-anchor="start" x="319.5" y="-274.5" font-family="Helvetica,sans-Serif" font-size="10.00">/BipedalLocomotion/ContactModels</text>
<text text-anchor="middle" x="406" y="-263.5" font-family="Helvetica,sans-Serif" font-size="10.00">/ContactModel.h</text>
</a>
</g>
</g>
<!-- Node2 -->
<g id="node2" class="node">
<title>Node2</title>
<g id="a_node2"><a xlink:href="ContinuousContactModel_8h.html" target="_top" xlink:title=" ">
<polygon fill="none" stroke="black" points="13.5,-173 13.5,-214 202.5,-214 202.5,-173 13.5,-173"/>
<text text-anchor="start" x="21.5" y="-202" font-family="Helvetica,sans-Serif" font-size="10.00">ContactModels/include</text>
<text text-anchor="start" x="21.5" y="-191" font-family="Helvetica,sans-Serif" font-size="10.00">/BipedalLocomotion/ContactModels</text>
<text text-anchor="middle" x="108" y="-180" font-family="Helvetica,sans-Serif" font-size="10.00">/ContinuousContactModel.h</text>
</a>
</g>
</g>
<!-- Node1&#45;&gt;Node2 -->
<g id="edge1" class="edge">
<title>Node1&#45;&gt;Node2</title>
<path fill="none" stroke="midnightblue" d="M324.79,-253.79C279.3,-241.35 223.09,-225.98 179.31,-214"/>
<polygon fill="midnightblue" stroke="midnightblue" points="324.05,-257.22 334.62,-256.48 325.9,-250.46 324.05,-257.22"/>
</g>
<!-- Node4 -->
<g id="node4" class="node">
<title>Node4</title>
<g id="a_node4"><a xlink:href="ContactModel_8cpp.html" target="_top" xlink:title=" ">
<polygon fill="none" stroke="black" points="245.5,-178.5 245.5,-208.5 392.5,-208.5 392.5,-178.5 245.5,-178.5"/>
<text text-anchor="start" x="253.5" y="-196.5" font-family="Helvetica,sans-Serif" font-size="10.00">ContactModels/src/Contact</text>
<text text-anchor="middle" x="319" y="-185.5" font-family="Helvetica,sans-Serif" font-size="10.00">Model.cpp</text>
</a>
</g>
</g>
<!-- Node1&#45;&gt;Node4 -->
<g id="edge3" class="edge">
<title>Node1&#45;&gt;Node4</title>
<path fill="none" stroke="midnightblue" d="M377.64,-249.43C363.15,-235.86 346.11,-219.9 334.14,-208.68"/>
<polygon fill="midnightblue" stroke="midnightblue" points="375.25,-251.99 384.94,-256.27 380.03,-246.88 375.25,-251.99"/>
</g>
<!-- Node5 -->
<g id="node5" class="node">
<title>Node5</title>
<g id="a_node5"><a xlink:href="CompliantContactWrench_8h.html" target="_top" xlink:title=" ">
<polygon fill="none" stroke="black" points="411,-167.5 411,-219.5 575,-219.5 575,-167.5 411,-167.5"/>
<text text-anchor="start" x="419" y="-207.5" font-family="Helvetica,sans-Serif" font-size="10.00">ContinuousDynamicalSystem</text>
<text text-anchor="start" x="419" y="-196.5" font-family="Helvetica,sans-Serif" font-size="10.00">/include/BipedalLocomotion</text>
<text text-anchor="start" x="419" y="-185.5" font-family="Helvetica,sans-Serif" font-size="10.00">/ContinuousDynamicalSystem</text>
<text text-anchor="middle" x="493" y="-174.5" font-family="Helvetica,sans-Serif" font-size="10.00">/CompliantContactWrench.h</text>
</a>
</g>
</g>
<!-- Node1&#45;&gt;Node5 -->
<g id="edge4" class="edge">
<title>Node1&#45;&gt;Node5</title>
<path fill="none" stroke="midnightblue" d="M434.56,-249.24C444.74,-239.71 456.17,-229 466.2,-219.61"/>
<polygon fill="midnightblue" stroke="midnightblue" points="431.97,-246.88 427.06,-256.27 436.75,-251.99 431.97,-246.88"/>
</g>
<!-- Node10 -->
<g id="node10" class="node">
<title>Node10</title>
<g id="a_node10"><a xlink:href="CompliantContactWrench_8cpp.html" target="_top" xlink:title=" ">
<polygon fill="none" stroke="black" points="640,-89.5 640,-119.5 822,-119.5 822,-89.5 640,-89.5"/>
<text text-anchor="start" x="648" y="-107.5" font-family="Helvetica,sans-Serif" font-size="10.00">ContinuousDynamicalSystem</text>
<text text-anchor="middle" x="731" y="-96.5" font-family="Helvetica,sans-Serif" font-size="10.00">/src/CompliantContactWrench.cpp</text>
</a>
</g>
</g>
<!-- Node1&#45;&gt;Node10 -->
<g id="edge10" class="edge">
<title>Node1&#45;&gt;Node10</title>
<path fill="none" stroke="midnightblue" d="M499.35,-253.46C527.4,-244.9 557.7,-233.8 584,-220 637.57,-191.89 691.31,-143.75 716.39,-119.84"/>
<polygon fill="midnightblue" stroke="midnightblue" points="498.12,-250.18 489.53,-256.39 500.11,-256.89 498.12,-250.18"/>
</g>
<!-- Node3 -->
<g id="node3" class="node">
<title>Node3</title>
<g id="a_node3"><a xlink:href="ContinuousContactModel_8cpp.html" target="_top" xlink:title=" ">
<polygon fill="none" stroke="black" points="0,-89.5 0,-119.5 164,-119.5 164,-89.5 0,-89.5"/>
<text text-anchor="start" x="8" y="-107.5" font-family="Helvetica,sans-Serif" font-size="10.00">ContactModels/src/Continuous</text>
<text text-anchor="middle" x="82" y="-96.5" font-family="Helvetica,sans-Serif" font-size="10.00">ContactModel.cpp</text>
</a>
</g>
</g>
<!-- Node2&#45;&gt;Node3 -->
<g id="edge2" class="edge">
<title>Node2&#45;&gt;Node3</title>
<path fill="none" stroke="midnightblue" d="M99.22,-163.11C94.85,-148.48 89.76,-131.47 86.26,-119.74"/>
<polygon fill="midnightblue" stroke="midnightblue" points="95.88,-164.18 102.1,-172.76 102.59,-162.17 95.88,-164.18"/>
</g>
<!-- Node6 -->
<g id="node6" class="node">
<title>Node6</title>
<g id="a_node6"><a xlink:href="FixedBaseDynamics_8h.html" target="_top" xlink:title=" ">
<polygon fill="none" stroke="black" points="182,-78.5 182,-130.5 346,-130.5 346,-78.5 182,-78.5"/>
<text text-anchor="start" x="190" y="-118.5" font-family="Helvetica,sans-Serif" font-size="10.00">ContinuousDynamicalSystem</text>
<text text-anchor="start" x="190" y="-107.5" font-family="Helvetica,sans-Serif" font-size="10.00">/include/BipedalLocomotion</text>
<text text-anchor="start" x="190" y="-96.5" font-family="Helvetica,sans-Serif" font-size="10.00">/ContinuousDynamicalSystem</text>
<text text-anchor="middle" x="264" y="-85.5" font-family="Helvetica,sans-Serif" font-size="10.00">/FixedBaseDynamics.h</text>
</a>
</g>
</g>
<!-- Node5&#45;&gt;Node6 -->
<g id="edge5" class="edge">
<title>Node5&#45;&gt;Node6</title>
<path fill="none" stroke="midnightblue" d="M417.61,-163.86C389.26,-153.09 357.27,-140.94 329.86,-130.52"/>
<polygon fill="midnightblue" stroke="midnightblue" points="416.48,-167.17 427.07,-167.45 418.97,-160.63 416.48,-167.17"/>
</g>
<!-- Node8 -->
<g id="node8" class="node">
<title>Node8</title>
<g id="a_node8"><a xlink:href="FloatingBaseDynamicsWithCompliantContacts_8h.html" target="_top" xlink:title=" ">
<polygon fill="none" stroke="black" points="364.5,-78.5 364.5,-130.5 621.5,-130.5 621.5,-78.5 364.5,-78.5"/>
<text text-anchor="start" x="372.5" y="-118.5" font-family="Helvetica,sans-Serif" font-size="10.00">ContinuousDynamicalSystem</text>
<text text-anchor="start" x="372.5" y="-107.5" font-family="Helvetica,sans-Serif" font-size="10.00">/include/BipedalLocomotion</text>
<text text-anchor="start" x="372.5" y="-96.5" font-family="Helvetica,sans-Serif" font-size="10.00">/ContinuousDynamicalSystem</text>
<text text-anchor="middle" x="493" y="-85.5" font-family="Helvetica,sans-Serif" font-size="10.00">/FloatingBaseDynamicsWithCompliantContacts.h</text>
</a>
</g>
</g>
<!-- Node5&#45;&gt;Node8 -->
<g id="edge7" class="edge">
<title>Node5&#45;&gt;Node8</title>
<path fill="none" stroke="midnightblue" d="M493,-157.19C493,-148.28 493,-138.9 493,-130.61"/>
<polygon fill="midnightblue" stroke="midnightblue" points="489.5,-157.34 493,-167.34 496.5,-157.34 489.5,-157.34"/>
</g>
<!-- Node5&#45;&gt;Node10 -->
<g id="edge9" class="edge">
<title>Node5&#45;&gt;Node10</title>
<path fill="none" stroke="midnightblue" d="M571.16,-163.93C611.88,-149.04 659.86,-131.5 692.55,-119.55"/>
<polygon fill="midnightblue" stroke="midnightblue" points="569.71,-160.73 561.52,-167.45 572.11,-167.31 569.71,-160.73"/>
</g>
<!-- Node7 -->
<g id="node7" class="node">
<title>Node7</title>
<g id="a_node7"><a xlink:href="FixedBaseDynamics_8cpp_source.html" target="_top" xlink:title=" ">
<polygon fill="none" stroke="black" points="183.5,-6 183.5,-36 344.5,-36 344.5,-6 183.5,-6"/>
<text text-anchor="start" x="191.5" y="-24" font-family="Helvetica,sans-Serif" font-size="10.00">ContinuousDynamicalSystem</text>
<text text-anchor="middle" x="264" y="-13" font-family="Helvetica,sans-Serif" font-size="10.00">/src/FixedBaseDynamics.cpp</text>
</a>
</g>
</g>
<!-- Node6&#45;&gt;Node7 -->
<g id="edge6" class="edge">
<title>Node6&#45;&gt;Node7</title>
<path fill="none" stroke="midnightblue" d="M264,-68.08C264,-56.82 264,-45.01 264,-36.17"/>
<polygon fill="midnightblue" stroke="midnightblue" points="260.5,-68.16 264,-78.16 267.5,-68.16 260.5,-68.16"/>
</g>
<!-- Node9 -->
<g id="node9" class="node">
<title>Node9</title>
<g id="a_node9"><a xlink:href="FloatingBaseDynamicsWithCompliantContacts_8cpp.html" target="_top" xlink:title=" ">
<polygon fill="none" stroke="black" points="382,-0.5 382,-41.5 604,-41.5 604,-0.5 382,-0.5"/>
<text text-anchor="start" x="390" y="-29.5" font-family="Helvetica,sans-Serif" font-size="10.00">ContinuousDynamicalSystem</text>
<text text-anchor="start" x="390" y="-18.5" font-family="Helvetica,sans-Serif" font-size="10.00">/src/FloatingBaseDynamicsWithCompliant</text>
<text text-anchor="middle" x="493" y="-7.5" font-family="Helvetica,sans-Serif" font-size="10.00">Contacts.cpp</text>
</a>
</g>
</g>
<!-- Node8&#45;&gt;Node9 -->
<g id="edge8" class="edge">
<title>Node8&#45;&gt;Node9</title>
<path fill="none" stroke="midnightblue" d="M493,-68.15C493,-59.05 493,-49.6 493,-41.63"/>
<polygon fill="midnightblue" stroke="midnightblue" points="489.5,-68.16 493,-78.16 496.5,-68.16 489.5,-68.16"/>
</g>
</g>
</svg>
        <g id="navigator" transform="translate(0 0)" fill="#404254">
                <rect fill="#f2f5e9" fill-opacity="0.5" stroke="#606060" stroke-width=".5" x="0" y="0" width="60" height="60"/>
                <use id="zoomplus" xlink:href="#zoomPlus" x="17" y="9" onmousedown="handleZoom(evt,'in')"/>
                <use id="zoomminus" xlink:href="#zoomMin" x="42" y="9" onmousedown="handleZoom(evt,'out')"/>
                <use id="reset" xlink:href="#resetDef" x="30" y="36" onmousedown="handleReset()"/>
                <g id="arrowUp" xlink:href="#dirArrow" transform="translate(30 24)" onmousedown="handlePan(0,-1)">
                  <use xlink:href="#rim" fill="#404040">
                        <set attributeName="fill" to="#808080" begin="arrowUp.mouseover" end="arrowUp.mouseout"/>
                  </use>
                  <path fill="none" stroke="white" stroke-width="1.5" d="M0,-3.0v7 M-2.5,-0.5L0,-3.0L2.5,-0.5"/>
                </g>
                <g id="arrowRight" xlink:href="#dirArrow" transform="rotate(90) translate(36 -43)" onmousedown="handlePan(1,0)">
                  <use xlink:href="#rim" fill="#404040">
                        <set attributeName="fill" to="#808080" begin="arrowRight.mouseover" end="arrowRight.mouseout"/>
                  </use>
                  <path fill="none" stroke="white" stroke-width="1.5" d="M0,-3.0v7 M-2.5,-0.5L0,-3.0L2.5,-0.5"/>
                </g>
                <g id="arrowDown" xlink:href="#dirArrow" transform="rotate(180) translate(-30 -48)" onmousedown="handlePan(0,1)">
                  <use xlink:href="#rim" fill="#404040">
                        <set attributeName="fill" to="#808080" begin="arrowDown.mouseover" end="arrowDown.mouseout"/>
                  </use>
                  <path fill="none" stroke="white" stroke-width="1.5" d="M0,-3.0v7 M-2.5,-0.5L0,-3.0L2.5,-0.5"/>
                </g>
                <g id="arrowLeft" xlink:href="#dirArrow" transform="rotate(270) translate(-36 17)" onmousedown="handlePan(-1,0)">
                  <use xlink:href="#rim" fill="#404040">
                        <set attributeName="fill" to="#808080" begin="arrowLeft.mouseover" end="arrowLeft.mouseout"/>
                  </use>
                  <path fill="none" stroke="white" stroke-width="1.5" d="M0,-3.0v7 M-2.5,-0.5L0,-3.0L2.5,-0.5"/>
                </g>
        </g>
        <svg viewBox="0 0 15 15" width="100%" height="30px" preserveAspectRatio="xMaxYMin meet">
         <g id="arrow_out" transform="scale(0.3 0.3)">
          <a xlink:href="ContactModel_8h__dep__incl_org.svg" target="_base">
           <rect id="button" ry="5" rx="5" y="6" x="6" height="38" width="38"
                fill="#f2f5e9" fill-opacity="0.5" stroke="#606060" stroke-width="1.0"/>
           <path id="arrow"
             d="M 11.500037,31.436501 C 11.940474,20.09759 22.043105,11.32322 32.158766,21.979434 L 37.068811,17.246167 C 37.068811,17.246167 37.088388,32 37.088388,32 L 22.160133,31.978069 C 22.160133,31.978069 26.997745,27.140456 26.997745,27.140456 C 18.528582,18.264221 13.291696,25.230495 11.500037,31.436501 z"
             style="fill:#404040;"/>
          </a>
         </g>
        </svg>
</svg>
