<?xml version="1.0" encoding="UTF-8" standalone="no"?>
<!DOCTYPE svg PUBLIC "-//W3C//DTD SVG 1.1//EN"
 "http://www.w3.org/Graphics/SVG/1.1/DTD/svg11.dtd">
<!-- Generated by graphviz version 2.43.0 (0)
 -->
<!-- Title: Contacts/include/BipedalLocomotion/ContactDetectors/ContactDetector.h Pages: 1 -->
<svg width="725pt" height="441pt"
 viewBox="0.00 0.00 725.09 441.00" xmlns="http://www.w3.org/2000/svg" xmlns:xlink="http://www.w3.org/1999/xlink">
<g id="graph0" class="graph" transform="scale(1 1) rotate(0) translate(4 437)">
<title>Contacts/include/BipedalLocomotion/ContactDetectors/ContactDetector.h</title>
<!-- Node1 -->
<g id="node1" class="node">
<title>Node1</title>
<g id="a_node1"><a xlink:title=" ">
<polygon fill="#bfbfbf" stroke="black" points="292.59,-391.5 292.59,-432.5 453.59,-432.5 453.59,-391.5 292.59,-391.5"/>
<text text-anchor="start" x="300.59" y="-420.5" font-family="Helvetica,sans-Serif" font-size="10.00">Contacts/include/Bipedal</text>
<text text-anchor="start" x="300.59" y="-409.5" font-family="Helvetica,sans-Serif" font-size="10.00">Locomotion/ContactDetectors</text>
<text text-anchor="middle" x="373.09" y="-398.5" font-family="Helvetica,sans-Serif" font-size="10.00">/ContactDetector.h</text>
</a>
</g>
</g>
<!-- Node2 -->
<g id="node2" class="node">
<title>Node2</title>
<g id="a_node2"><a xlink:href="Contact_8h.html" target="_top" xlink:title=" ">
<polygon fill="none" stroke="black" points="124.09,-324.5 124.09,-354.5 280.09,-354.5 280.09,-324.5 124.09,-324.5"/>
<text text-anchor="start" x="132.09" y="-342.5" font-family="Helvetica,sans-Serif" font-size="10.00">BipedalLocomotion/Contacts</text>
<text text-anchor="middle" x="202.09" y="-331.5" font-family="Helvetica,sans-Serif" font-size="10.00">/Contact.h</text>
</a>
</g>
</g>
<!-- Node1&#45;&gt;Node2 -->
<g id="edge1" class="edge">
<title>Node1&#45;&gt;Node2</title>
<path fill="none" stroke="midnightblue" d="M325.46,-391.36C300.42,-381.04 269.95,-368.48 245.56,-358.42"/>
<polygon fill="midnightblue" stroke="midnightblue" points="246.77,-355.14 236.19,-354.56 244.1,-361.61 246.77,-355.14"/>
</g>
<!-- Node8 -->
<g id="node8" class="node">
<title>Node8</title>
<g id="a_node8"><a xlink:href="IParametersHandler_8h.html" target="_top" xlink:title=" ">
<polygon fill="none" stroke="black" points="297.59,-190.5 297.59,-220.5 466.59,-220.5 466.59,-190.5 297.59,-190.5"/>
<text text-anchor="start" x="305.59" y="-208.5" font-family="Helvetica,sans-Serif" font-size="10.00">BipedalLocomotion/Parameters</text>
<text text-anchor="middle" x="382.09" y="-197.5" font-family="Helvetica,sans-Serif" font-size="10.00">Handler/IParametersHandler.h</text>
</a>
</g>
</g>
<!-- Node1&#45;&gt;Node8 -->
<g id="edge8" class="edge">
<title>Node1&#45;&gt;Node8</title>
<path fill="none" stroke="midnightblue" d="M358.51,-391.37C351.78,-381.1 344.54,-367.99 341.09,-355 329.91,-312.9 326.52,-298.05 341.09,-257 344.87,-246.35 351.95,-236.32 359.18,-228.04"/>
<polygon fill="midnightblue" stroke="midnightblue" points="361.79,-230.38 366.06,-220.68 356.67,-225.6 361.79,-230.38"/>
</g>
<!-- Node20 -->
<g id="node20" class="node">
<title>Node20</title>
<g id="a_node20"><a xlink:href="Source_8h.html" target="_top" xlink:title=" ">
<polygon fill="none" stroke="black" points="350.09,-324.5 350.09,-354.5 500.09,-354.5 500.09,-324.5 350.09,-324.5"/>
<text text-anchor="start" x="358.09" y="-342.5" font-family="Helvetica,sans-Serif" font-size="10.00">BipedalLocomotion/System</text>
<text text-anchor="middle" x="425.09" y="-331.5" font-family="Helvetica,sans-Serif" font-size="10.00">/Source.h</text>
</a>
</g>
</g>
<!-- Node1&#45;&gt;Node20 -->
<g id="edge23" class="edge">
<title>Node1&#45;&gt;Node20</title>
<path fill="none" stroke="midnightblue" d="M387.57,-391.36C394.04,-382.59 401.7,-372.21 408.41,-363.12"/>
<polygon fill="midnightblue" stroke="midnightblue" points="411.35,-365.02 414.47,-354.89 405.72,-360.86 411.35,-365.02"/>
</g>
<!-- Node23 -->
<g id="node23" class="node">
<title>Node23</title>
<g id="a_node23"><a xlink:title=" ">
<polygon fill="none" stroke="#bfbfbf" points="517.59,-330 517.59,-349 610.59,-349 610.59,-330 517.59,-330"/>
<text text-anchor="middle" x="564.09" y="-337" font-family="Helvetica,sans-Serif" font-size="10.00">unordered_map</text>
</a>
</g>
</g>
<!-- Node1&#45;&gt;Node23 -->
<g id="edge27" class="edge">
<title>Node1&#45;&gt;Node23</title>
<path fill="none" stroke="midnightblue" d="M426.04,-391.46C459.81,-378.99 502.51,-363.23 531.42,-352.56"/>
<polygon fill="midnightblue" stroke="midnightblue" points="532.86,-355.76 541.03,-349.01 530.43,-349.19 532.86,-355.76"/>
</g>
<!-- Node3 -->
<g id="node3" class="node">
<title>Node3</title>
<g id="a_node3"><a xlink:href="Wrench_8h.html" target="_top" xlink:title=" ">
<polygon fill="none" stroke="black" points="77.09,-257.5 77.09,-287.5 215.09,-287.5 215.09,-257.5 77.09,-257.5"/>
<text text-anchor="start" x="85.09" y="-275.5" font-family="Helvetica,sans-Serif" font-size="10.00">BipedalLocomotion/Math</text>
<text text-anchor="middle" x="146.09" y="-264.5" font-family="Helvetica,sans-Serif" font-size="10.00">/Wrench.h</text>
</a>
</g>
</g>
<!-- Node2&#45;&gt;Node3 -->
<g id="edge2" class="edge">
<title>Node2&#45;&gt;Node3</title>
<path fill="none" stroke="midnightblue" d="M189.94,-324.4C182.6,-315.88 173.1,-304.85 164.81,-295.23"/>
<polygon fill="midnightblue" stroke="midnightblue" points="167.39,-292.87 158.22,-287.58 162.09,-297.44 167.39,-292.87"/>
</g>
<!-- Node5 -->
<g id="node5" class="node">
<title>Node5</title>
<g id="a_node5"><a xlink:title=" ">
<polygon fill="none" stroke="#bfbfbf" points="204.59,-196 204.59,-215 279.59,-215 279.59,-196 204.59,-196"/>
<text text-anchor="middle" x="242.09" y="-203" font-family="Helvetica,sans-Serif" font-size="10.00">manif/SE3.h</text>
</a>
</g>
</g>
<!-- Node2&#45;&gt;Node5 -->
<g id="edge6" class="edge">
<title>Node2&#45;&gt;Node5</title>
<path fill="none" stroke="midnightblue" d="M209.2,-324.2C213.94,-314.25 220.01,-300.55 224.09,-288 230.93,-266.95 236.01,-242 239,-225.31"/>
<polygon fill="midnightblue" stroke="midnightblue" points="242.49,-225.66 240.73,-215.21 235.59,-224.48 242.49,-225.66"/>
</g>
<!-- Node7 -->
<g id="node7" class="node">
<title>Node7</title>
<g id="a_node7"><a xlink:title=" ">
<polygon fill="none" stroke="#bfbfbf" points="104.09,-129 104.09,-148 148.09,-148 148.09,-129 104.09,-129"/>
<text text-anchor="middle" x="126.09" y="-136" font-family="Helvetica,sans-Serif" font-size="10.00">string</text>
</a>
</g>
</g>
<!-- Node2&#45;&gt;Node7 -->
<g id="edge7" class="edge">
<title>Node2&#45;&gt;Node7</title>
<path fill="none" stroke="midnightblue" d="M143.47,-324.4C93.95,-308.75 27.61,-277.83 5.09,-221 0.01,-208.19 -2.55,-201.47 5.09,-190 24.76,-160.47 65.33,-148.18 94.06,-143.08"/>
<polygon fill="midnightblue" stroke="midnightblue" points="94.71,-146.52 104.05,-141.51 93.62,-139.61 94.71,-146.52"/>
</g>
<!-- Node4 -->
<g id="node4" class="node">
<title>Node4</title>
<g id="a_node4"><a xlink:title=" ">
<polygon fill="none" stroke="#bfbfbf" points="14.59,-196 14.59,-215 91.59,-215 91.59,-196 14.59,-196"/>
<text text-anchor="middle" x="53.09" y="-203" font-family="Helvetica,sans-Serif" font-size="10.00">Eigen/Dense</text>
</a>
</g>
</g>
<!-- Node3&#45;&gt;Node4 -->
<g id="edge3" class="edge">
<title>Node3&#45;&gt;Node4</title>
<path fill="none" stroke="midnightblue" d="M125.91,-257.4C110.46,-246.6 89.22,-231.76 73.67,-220.89"/>
<polygon fill="midnightblue" stroke="midnightblue" points="75.46,-217.87 65.26,-215.01 71.45,-223.6 75.46,-217.87"/>
</g>
<!-- Node3&#45;&gt;Node5 -->
<g id="edge4" class="edge">
<title>Node3&#45;&gt;Node5</title>
<path fill="none" stroke="midnightblue" d="M166.92,-257.4C182.87,-246.6 204.79,-231.76 220.84,-220.89"/>
<polygon fill="midnightblue" stroke="midnightblue" points="223.21,-223.51 229.52,-215.01 219.28,-217.72 223.21,-223.51"/>
</g>
<!-- Node6 -->
<g id="node6" class="node">
<title>Node6</title>
<g id="a_node6"><a xlink:title=" ">
<polygon fill="none" stroke="#bfbfbf" points="109.59,-196 109.59,-215 186.59,-215 186.59,-196 109.59,-196"/>
<text text-anchor="middle" x="148.09" y="-203" font-family="Helvetica,sans-Serif" font-size="10.00">manif/SO3.h</text>
</a>
</g>
</g>
<!-- Node3&#45;&gt;Node6 -->
<g id="edge5" class="edge">
<title>Node3&#45;&gt;Node6</title>
<path fill="none" stroke="midnightblue" d="M146.52,-257.4C146.81,-248.06 147.19,-235.71 147.5,-225.52"/>
<polygon fill="midnightblue" stroke="midnightblue" points="151.01,-225.3 147.82,-215.19 144.02,-225.08 151.01,-225.3"/>
</g>
<!-- Node8&#45;&gt;Node7 -->
<g id="edge10" class="edge">
<title>Node8&#45;&gt;Node7</title>
<path fill="none" stroke="midnightblue" d="M326.86,-190.48C275.26,-177.37 200.03,-158.27 157.84,-147.56"/>
<polygon fill="midnightblue" stroke="midnightblue" points="158.66,-144.16 148.1,-145.09 156.93,-150.94 158.66,-144.16"/>
</g>
<!-- Node9 -->
<g id="node9" class="node">
<title>Node9</title>
<g id="a_node9"><a xlink:title=" ">
<polygon fill="none" stroke="#bfbfbf" points="659.09,-62 659.09,-81 717.09,-81 717.09,-62 659.09,-62"/>
<text text-anchor="middle" x="688.09" y="-69" font-family="Helvetica,sans-Serif" font-size="10.00">memory</text>
</a>
</g>
</g>
<!-- Node8&#45;&gt;Node9 -->
<g id="edge9" class="edge">
<title>Node8&#45;&gt;Node9</title>
<path fill="none" stroke="midnightblue" d="M422.94,-190.43C450.14,-180.8 486.56,-167.38 518.09,-154 570.19,-131.89 629.48,-102.46 662.46,-85.69"/>
<polygon fill="midnightblue" stroke="midnightblue" points="664.12,-88.78 671.43,-81.11 660.93,-82.54 664.12,-88.78"/>
</g>
<!-- Node10 -->
<g id="node10" class="node">
<title>Node10</title>
<g id="a_node10"><a xlink:title=" ">
<polygon fill="none" stroke="#bfbfbf" points="254.59,-129 254.59,-148 301.59,-148 301.59,-129 254.59,-129"/>
<text text-anchor="middle" x="278.09" y="-136" font-family="Helvetica,sans-Serif" font-size="10.00">vector</text>
</a>
</g>
</g>
<!-- Node8&#45;&gt;Node10 -->
<g id="edge11" class="edge">
<title>Node8&#45;&gt;Node10</title>
<path fill="none" stroke="midnightblue" d="M359.52,-190.4C342.08,-179.5 318.05,-164.48 300.62,-153.58"/>
<polygon fill="midnightblue" stroke="midnightblue" points="302.03,-150.34 291.7,-148.01 298.32,-156.28 302.03,-150.34"/>
</g>
<!-- Node11 -->
<g id="node11" class="node">
<title>Node11</title>
<g id="a_node11"><a xlink:href="TemplateHelpers_8h_source.html" target="_top" xlink:title=" ">
<polygon fill="none" stroke="black" points="111.09,-56.5 111.09,-86.5 269.09,-86.5 269.09,-56.5 111.09,-56.5"/>
<text text-anchor="start" x="119.09" y="-74.5" font-family="Helvetica,sans-Serif" font-size="10.00">BipedalLocomotion/Generic</text>
<text text-anchor="middle" x="190.09" y="-63.5" font-family="Helvetica,sans-Serif" font-size="10.00">Container/TemplateHelpers.h</text>
</a>
</g>
</g>
<!-- Node8&#45;&gt;Node11 -->
<g id="edge12" class="edge">
<title>Node8&#45;&gt;Node11</title>
<path fill="none" stroke="midnightblue" d="M372.66,-190.36C360.17,-172.57 336.62,-142.05 310.09,-123 290.82,-109.17 267.19,-98.19 246.01,-90.05"/>
<polygon fill="midnightblue" stroke="midnightblue" points="247.07,-86.71 236.47,-86.51 244.63,-93.27 247.07,-86.71"/>
</g>
<!-- Node15 -->
<g id="node15" class="node">
<title>Node15</title>
<g id="a_node15"><a xlink:href="Vector_8h_source.html" target="_top" xlink:title=" ">
<polygon fill="none" stroke="black" points="358.59,-123.5 358.59,-153.5 509.59,-153.5 509.59,-123.5 358.59,-123.5"/>
<text text-anchor="start" x="366.59" y="-141.5" font-family="Helvetica,sans-Serif" font-size="10.00">BipedalLocomotion/Generic</text>
<text text-anchor="middle" x="434.09" y="-130.5" font-family="Helvetica,sans-Serif" font-size="10.00">Container/Vector.h</text>
</a>
</g>
</g>
<!-- Node8&#45;&gt;Node15 -->
<g id="edge16" class="edge">
<title>Node8&#45;&gt;Node15</title>
<path fill="none" stroke="midnightblue" d="M393.37,-190.4C400.12,-181.96 408.83,-171.07 416.47,-161.52"/>
<polygon fill="midnightblue" stroke="midnightblue" points="419.31,-163.57 422.83,-153.58 413.85,-159.2 419.31,-163.57"/>
</g>
<!-- Node12 -->
<g id="node12" class="node">
<title>Node12</title>
<g id="a_node12"><a xlink:title=" ">
<polygon fill="none" stroke="#bfbfbf" points="66.59,-0.5 66.59,-19.5 135.59,-19.5 135.59,-0.5 66.59,-0.5"/>
<text text-anchor="middle" x="101.09" y="-7.5" font-family="Helvetica,sans-Serif" font-size="10.00">type_traits</text>
</a>
</g>
</g>
<!-- Node11&#45;&gt;Node12 -->
<g id="edge13" class="edge">
<title>Node11&#45;&gt;Node12</title>
<path fill="none" stroke="midnightblue" d="M169,-56.4C155,-47.04 136.68,-34.79 122.59,-25.38"/>
<polygon fill="midnightblue" stroke="midnightblue" points="124.3,-22.31 114.04,-19.66 120.41,-28.13 124.3,-22.31"/>
</g>
<!-- Node13 -->
<g id="node13" class="node">
<title>Node13</title>
<g id="a_node13"><a xlink:title=" ">
<polygon fill="none" stroke="#bfbfbf" points="153.59,-0.5 153.59,-19.5 226.59,-19.5 226.59,-0.5 153.59,-0.5"/>
<text text-anchor="middle" x="190.09" y="-7.5" font-family="Helvetica,sans-Serif" font-size="10.00">string_view</text>
</a>
</g>
</g>
<!-- Node11&#45;&gt;Node13 -->
<g id="edge14" class="edge">
<title>Node11&#45;&gt;Node13</title>
<path fill="none" stroke="midnightblue" d="M190.09,-56.4C190.09,-48.47 190.09,-38.46 190.09,-29.86"/>
<polygon fill="midnightblue" stroke="midnightblue" points="193.59,-29.66 190.09,-19.66 186.59,-29.66 193.59,-29.66"/>
</g>
<!-- Node14 -->
<g id="node14" class="node">
<title>Node14</title>
<g id="a_node14"><a xlink:title=" ">
<polygon fill="none" stroke="#bfbfbf" points="244.59,-0.5 244.59,-19.5 313.59,-19.5 313.59,-0.5 244.59,-0.5"/>
<text text-anchor="middle" x="279.09" y="-7.5" font-family="Helvetica,sans-Serif" font-size="10.00">Eigen/Core</text>
</a>
</g>
</g>
<!-- Node11&#45;&gt;Node14 -->
<g id="edge15" class="edge">
<title>Node11&#45;&gt;Node14</title>
<path fill="none" stroke="midnightblue" d="M211.18,-56.4C225.18,-47.04 243.5,-34.79 257.58,-25.38"/>
<polygon fill="midnightblue" stroke="midnightblue" points="259.77,-28.13 266.14,-19.66 255.88,-22.31 259.77,-28.13"/>
</g>
<!-- Node15&#45;&gt;Node9 -->
<g id="edge22" class="edge">
<title>Node15&#45;&gt;Node9</title>
<path fill="none" stroke="midnightblue" d="M504.77,-123.49C547.26,-114.45 602.22,-101.66 650.09,-87 652.51,-86.26 655,-85.44 657.49,-84.58"/>
<polygon fill="midnightblue" stroke="midnightblue" points="658.76,-87.84 666.96,-81.14 656.37,-81.27 658.76,-87.84"/>
</g>
<!-- Node15&#45;&gt;Node11 -->
<g id="edge18" class="edge">
<title>Node15&#45;&gt;Node11</title>
<path fill="none" stroke="midnightblue" d="M381.44,-123.48C343.73,-113.43 292.78,-99.86 252.93,-89.24"/>
<polygon fill="midnightblue" stroke="midnightblue" points="253.62,-85.8 243.06,-86.61 251.82,-92.57 253.62,-85.8"/>
</g>
<!-- Node16 -->
<g id="node16" class="node">
<title>Node16</title>
<g id="a_node16"><a xlink:title=" ">
<polygon fill="none" stroke="#bfbfbf" points="519.59,-62 519.59,-81 640.59,-81 640.59,-62 519.59,-62"/>
<text text-anchor="middle" x="580.09" y="-69" font-family="Helvetica,sans-Serif" font-size="10.00">iDynTree/Core/Span.h</text>
</a>
</g>
</g>
<!-- Node15&#45;&gt;Node16 -->
<g id="edge17" class="edge">
<title>Node15&#45;&gt;Node16</title>
<path fill="none" stroke="midnightblue" d="M465.77,-123.4C491.39,-111.99 527.13,-96.08 551.79,-85.1"/>
<polygon fill="midnightblue" stroke="midnightblue" points="553.27,-88.27 560.98,-81.01 550.42,-81.88 553.27,-88.27"/>
</g>
<!-- Node17 -->
<g id="node17" class="node">
<title>Node17</title>
<g id="a_node17"><a xlink:title=" ">
<polygon fill="none" stroke="#bfbfbf" points="287.59,-62 287.59,-81 352.59,-81 352.59,-62 287.59,-62"/>
<text text-anchor="middle" x="320.09" y="-69" font-family="Helvetica,sans-Serif" font-size="10.00">functional</text>
</a>
</g>
</g>
<!-- Node15&#45;&gt;Node17 -->
<g id="edge19" class="edge">
<title>Node15&#45;&gt;Node17</title>
<path fill="none" stroke="midnightblue" d="M409.35,-123.4C389.88,-112.29 362.92,-96.92 343.73,-85.98"/>
<polygon fill="midnightblue" stroke="midnightblue" points="345.43,-82.92 335.01,-81.01 341.96,-89 345.43,-82.92"/>
</g>
<!-- Node18 -->
<g id="node18" class="node">
<title>Node18</title>
<g id="a_node18"><a xlink:title=" ">
<polygon fill="none" stroke="#bfbfbf" points="371.09,-62 371.09,-81 423.09,-81 423.09,-62 371.09,-62"/>
<text text-anchor="middle" x="397.09" y="-69" font-family="Helvetica,sans-Serif" font-size="10.00">cassert</text>
</a>
</g>
</g>
<!-- Node15&#45;&gt;Node18 -->
<g id="edge20" class="edge">
<title>Node15&#45;&gt;Node18</title>
<path fill="none" stroke="midnightblue" d="M426.06,-123.4C420.46,-113.56 412.96,-100.38 406.99,-89.89"/>
<polygon fill="midnightblue" stroke="midnightblue" points="410.03,-88.15 402.04,-81.19 403.94,-91.62 410.03,-88.15"/>
</g>
<!-- Node19 -->
<g id="node19" class="node">
<title>Node19</title>
<g id="a_node19"><a xlink:title=" ">
<polygon fill="none" stroke="#bfbfbf" points="441.09,-62 441.09,-81 501.09,-81 501.09,-62 441.09,-62"/>
<text text-anchor="middle" x="471.09" y="-69" font-family="Helvetica,sans-Serif" font-size="10.00">iostream</text>
</a>
</g>
</g>
<!-- Node15&#45;&gt;Node19 -->
<g id="edge21" class="edge">
<title>Node15&#45;&gt;Node19</title>
<path fill="none" stroke="midnightblue" d="M442.12,-123.4C447.71,-113.56 455.22,-100.38 461.19,-89.89"/>
<polygon fill="midnightblue" stroke="midnightblue" points="464.23,-91.62 466.14,-81.19 458.15,-88.15 464.23,-91.62"/>
</g>
<!-- Node21 -->
<g id="node21" class="node">
<title>Node21</title>
<g id="a_node21"><a xlink:href="Advanceable_8h.html" target="_top" xlink:title=" ">
<polygon fill="none" stroke="black" points="350.09,-257.5 350.09,-287.5 500.09,-287.5 500.09,-257.5 350.09,-257.5"/>
<text text-anchor="start" x="358.09" y="-275.5" font-family="Helvetica,sans-Serif" font-size="10.00">BipedalLocomotion/System</text>
<text text-anchor="middle" x="425.09" y="-264.5" font-family="Helvetica,sans-Serif" font-size="10.00">/Advanceable.h</text>
</a>
</g>
</g>
<!-- Node20&#45;&gt;Node21 -->
<g id="edge24" class="edge">
<title>Node20&#45;&gt;Node21</title>
<path fill="none" stroke="midnightblue" d="M425.09,-324.4C425.09,-316.64 425.09,-306.81 425.09,-297.86"/>
<polygon fill="midnightblue" stroke="midnightblue" points="428.59,-297.58 425.09,-287.58 421.59,-297.58 428.59,-297.58"/>
</g>
<!-- Node21&#45;&gt;Node8 -->
<g id="edge26" class="edge">
<title>Node21&#45;&gt;Node8</title>
<path fill="none" stroke="midnightblue" d="M415.76,-257.4C410.29,-249.13 403.26,-238.51 397.04,-229.1"/>
<polygon fill="midnightblue" stroke="midnightblue" points="399.84,-226.99 391.4,-220.58 394,-230.85 399.84,-226.99"/>
</g>
<!-- Node22 -->
<g id="node22" class="node">
<title>Node22</title>
<g id="a_node22"><a xlink:title=" ">
<polygon fill="none" stroke="#bfbfbf" points="484.59,-196 484.59,-215 535.59,-215 535.59,-196 484.59,-196"/>
<text text-anchor="middle" x="510.09" y="-203" font-family="Helvetica,sans-Serif" font-size="10.00">variant</text>
</a>
</g>
</g>
<!-- Node21&#45;&gt;Node22 -->
<g id="edge25" class="edge">
<title>Node21&#45;&gt;Node22</title>
<path fill="none" stroke="midnightblue" d="M443.53,-257.4C457.44,-246.76 476.48,-232.2 490.63,-221.38"/>
<polygon fill="midnightblue" stroke="midnightblue" points="492.9,-224.05 498.72,-215.19 488.65,-218.49 492.9,-224.05"/>
</g>
</g>
</svg>
