<?xml version="1.0" encoding="UTF-8" standalone="no"?>
<!DOCTYPE svg PUBLIC "-//W3C//DTD SVG 1.1//EN"
 "http://www.w3.org/Graphics/SVG/1.1/DTD/svg11.dtd">
<!-- Generated by graphviz version 2.43.0 (0)
 -->
<!-- Title: ContactModels/src/ContinuousContactModel.cpp Pages: 1 -->
<!--zoomable 430 -->
<svg id="main" version="1.1" xmlns="http://www.w3.org/2000/svg" xmlns:xlink="http://www.w3.org/1999/xlink" xml:space="preserve" onload="init(evt)">
<style type="text/css"><![CDATA[
.edge:hover path { stroke: red; }
.edge:hover polygon { stroke: red; fill: red; }
]]></style>
<script type="text/javascript"><![CDATA[
var edges = document.getElementsByTagName('g');
if (edges && edges.length) {
  for (var i=0;i<edges.length;i++) {
    if (edges[i].id.substr(0,4)=='edge') {
      edges[i].setAttribute('class','edge');
    }
  }
}
]]></script>
        <defs>
                <circle id="rim" cx="0" cy="0" r="7"/>
                <circle id="rim2" cx="0" cy="0" r="3.5"/>
                <g id="zoomPlus">
                        <use xlink:href="#rim" fill="#404040">
                                <set attributeName="fill" to="#808080" begin="zoomplus.mouseover" end="zoomplus.mouseout"/>
                        </use>
                        <path d="M-4,0h8M0,-4v8" fill="none" stroke="white" stroke-width="1.5" pointer-events="none"/>
                </g>
                <g id="zoomMin">
                        <use xlink:href="#rim" fill="#404040">
                                <set attributeName="fill" to="#808080" begin="zoomminus.mouseover" end="zoomminus.mouseout"/>
                        </use>
                        <path d="M-4,0h8" fill="none" stroke="white" stroke-width="1.5" pointer-events="none"/>
                </g>
                <g id="dirArrow">
                        <path fill="none" stroke="white" stroke-width="1.5" d="M0,-3.0v7 M-2.5,-0.5L0,-3.0L2.5,-0.5"/>
                </g>
               <g id="resetDef">
                       <use xlink:href="#rim2" fill="#404040">
                               <set attributeName="fill" to="#808080" begin="reset.mouseover" end="reset.mouseout"/>
                       </use>
               </g>
        </defs>

<script type="text/javascript">
var viewWidth = 1660;
var viewHeight = 430;
var sectionId = 'dynsection-0';
</script>
<script xlink:href="svgpan.js"/>
<svg id="graph" class="graph">
<g id="viewport">
<title>ContactModels/src/ContinuousContactModel.cpp</title>
<!-- Node1 -->
<g id="node1" class="node">
<title>Node1</title>
<g id="a_node1"><a xlink:title=" ">
<polygon fill="#bfbfbf" stroke="black" points="378.5,-391.5 378.5,-421.5 542.5,-421.5 542.5,-391.5 378.5,-391.5"/>
<text text-anchor="start" x="386.5" y="-409.5" font-family="Helvetica,sans-Serif" font-size="10.00">ContactModels/src/Continuous</text>
<text text-anchor="middle" x="460.5" y="-398.5" font-family="Helvetica,sans-Serif" font-size="10.00">ContactModel.cpp</text>
</a>
</g>
</g>
<!-- Node2 -->
<g id="node2" class="node">
<title>Node2</title>
<g id="a_node2"><a xlink:title=" ">
<polygon fill="none" stroke="#bfbfbf" points="271,-330 271,-349 432,-349 432,-330 271,-330"/>
<text text-anchor="middle" x="351.5" y="-337" font-family="Helvetica,sans-Serif" font-size="10.00">iDynTree/Core/EigenHelpers.h</text>
</a>
</g>
</g>
<!-- Node1&#45;&gt;Node2 -->
<g id="edge1" class="edge">
<title>Node1&#45;&gt;Node2</title>
<path fill="none" stroke="midnightblue" d="M436.85,-391.4C418.32,-380.34 392.69,-365.06 374.36,-354.13"/>
<polygon fill="midnightblue" stroke="midnightblue" points="376.15,-351.12 365.77,-349.01 372.56,-357.13 376.15,-351.12"/>
</g>
<!-- Node3 -->
<g id="node3" class="node">
<title>Node3</title>
<g id="a_node3"><a xlink:href="ContinuousContactModel_8h.html" target="_top" xlink:title=" ">
<polygon fill="none" stroke="black" points="646.5,-324.5 646.5,-354.5 832.5,-354.5 832.5,-324.5 646.5,-324.5"/>
<text text-anchor="start" x="654.5" y="-342.5" font-family="Helvetica,sans-Serif" font-size="10.00">BipedalLocomotion/Contact</text>
<text text-anchor="middle" x="739.5" y="-331.5" font-family="Helvetica,sans-Serif" font-size="10.00">Models/ContinuousContactModel.h</text>
</a>
</g>
</g>
<!-- Node1&#45;&gt;Node3 -->
<g id="edge2" class="edge">
<title>Node1&#45;&gt;Node3</title>
<path fill="none" stroke="midnightblue" d="M520.7,-391.48C564.27,-381.32 623.31,-367.57 669.08,-356.91"/>
<polygon fill="midnightblue" stroke="midnightblue" points="669.99,-360.29 678.93,-354.61 668.4,-353.47 669.99,-360.29"/>
</g>
<!-- Node15 -->
<g id="node15" class="node">
<title>Node15</title>
<g id="a_node15"><a xlink:href="IParametersHandler_8h.html" target="_top" xlink:title=" ">
<polygon fill="none" stroke="black" points="236,-190.5 236,-220.5 405,-220.5 405,-190.5 236,-190.5"/>
<text text-anchor="start" x="244" y="-208.5" font-family="Helvetica,sans-Serif" font-size="10.00">BipedalLocomotion/Parameters</text>
<text text-anchor="middle" x="320.5" y="-197.5" font-family="Helvetica,sans-Serif" font-size="10.00">Handler/IParametersHandler.h</text>
</a>
</g>
</g>
<!-- Node1&#45;&gt;Node15 -->
<g id="edge33" class="edge">
<title>Node1&#45;&gt;Node15</title>
<path fill="none" stroke="midnightblue" d="M459.62,-391.37C458.05,-374.39 453.66,-345.5 441.5,-324 418.51,-283.34 377.2,-247.74 349.32,-226.67"/>
<polygon fill="midnightblue" stroke="midnightblue" points="351.25,-223.75 341.13,-220.61 347.09,-229.37 351.25,-223.75"/>
</g>
<!-- Node4 -->
<g id="node4" class="node">
<title>Node4</title>
<g id="a_node4"><a xlink:title=" ">
<polygon fill="none" stroke="#bfbfbf" points="1365.5,-196 1365.5,-215 1511.5,-215 1511.5,-196 1365.5,-196"/>
<text text-anchor="middle" x="1438.5" y="-203" font-family="Helvetica,sans-Serif" font-size="10.00">iDynTree/Core/Transform.h</text>
</a>
</g>
</g>
<!-- Node3&#45;&gt;Node4 -->
<g id="edge3" class="edge">
<title>Node3&#45;&gt;Node4</title>
<path fill="none" stroke="midnightblue" d="M813.64,-324.5C954.62,-297.88 1258.36,-240.52 1383.2,-216.94"/>
<polygon fill="midnightblue" stroke="midnightblue" points="1384.12,-220.33 1393.3,-215.04 1382.82,-213.45 1384.12,-220.33"/>
</g>
<!-- Node5 -->
<g id="node5" class="node">
<title>Node5</title>
<g id="a_node5"><a xlink:title=" ">
<polygon fill="none" stroke="#bfbfbf" points="1529.5,-196 1529.5,-215 1651.5,-215 1651.5,-196 1529.5,-196"/>
<text text-anchor="middle" x="1590.5" y="-203" font-family="Helvetica,sans-Serif" font-size="10.00">iDynTree/Core/Twist.h</text>
</a>
</g>
</g>
<!-- Node3&#45;&gt;Node5 -->
<g id="edge4" class="edge">
<title>Node3&#45;&gt;Node5</title>
<path fill="none" stroke="midnightblue" d="M832.69,-326.46C979.46,-307.05 1273.2,-266.41 1520.5,-221 1527.14,-219.78 1534.13,-218.42 1541,-217.04"/>
<polygon fill="midnightblue" stroke="midnightblue" points="1541.85,-220.44 1550.95,-215.02 1540.45,-213.58 1541.85,-220.44"/>
</g>
<!-- Node6 -->
<g id="node6" class="node">
<title>Node6</title>
<g id="a_node6"><a xlink:title=" ">
<polygon fill="none" stroke="#bfbfbf" points="423.5,-196 423.5,-215 557.5,-215 557.5,-196 423.5,-196"/>
<text text-anchor="middle" x="490.5" y="-203" font-family="Helvetica,sans-Serif" font-size="10.00">iDynTree/Core/Wrench.h</text>
</a>
</g>
</g>
<!-- Node3&#45;&gt;Node6 -->
<g id="edge5" class="edge">
<title>Node3&#45;&gt;Node6</title>
<path fill="none" stroke="midnightblue" d="M712.85,-324.37C664.49,-298.74 562.93,-244.9 515.68,-219.85"/>
<polygon fill="midnightblue" stroke="midnightblue" points="517.19,-216.69 506.72,-215.1 513.91,-222.87 517.19,-216.69"/>
</g>
<!-- Node7 -->
<g id="node7" class="node">
<title>Node7</title>
<g id="a_node7"><a xlink:href="ContactModel_8h.html" target="_top" xlink:title=" ">
<polygon fill="none" stroke="black" points="781,-257.5 781,-287.5 932,-287.5 932,-257.5 781,-257.5"/>
<text text-anchor="start" x="789" y="-275.5" font-family="Helvetica,sans-Serif" font-size="10.00">BipedalLocomotion/Contact</text>
<text text-anchor="middle" x="856.5" y="-264.5" font-family="Helvetica,sans-Serif" font-size="10.00">Models/ContactModel.h</text>
</a>
</g>
</g>
<!-- Node3&#45;&gt;Node7 -->
<g id="edge6" class="edge">
<title>Node3&#45;&gt;Node7</title>
<path fill="none" stroke="midnightblue" d="M764.89,-324.4C781.68,-315.07 803.89,-302.73 822.24,-292.53"/>
<polygon fill="midnightblue" stroke="midnightblue" points="824.12,-295.49 831.16,-287.58 820.72,-289.37 824.12,-295.49"/>
</g>
<!-- Node3&#45;&gt;Node15 -->
<g id="edge32" class="edge">
<title>Node3&#45;&gt;Node15</title>
<path fill="none" stroke="midnightblue" d="M695.06,-324.5C617.67,-300.12 458.44,-249.96 374.7,-223.58"/>
<polygon fill="midnightblue" stroke="midnightblue" points="375.71,-220.22 365.12,-220.56 373.6,-226.9 375.71,-220.22"/>
</g>
<!-- Node7&#45;&gt;Node4 -->
<g id="edge13" class="edge">
<title>Node7&#45;&gt;Node4</title>
<path fill="none" stroke="midnightblue" d="M932.15,-265.29C1029.4,-256.95 1203.38,-240.88 1351.5,-221 1360.96,-219.73 1370.97,-218.22 1380.71,-216.66"/>
<polygon fill="midnightblue" stroke="midnightblue" points="1381.41,-220.09 1390.72,-215.02 1380.28,-213.18 1381.41,-220.09"/>
</g>
<!-- Node7&#45;&gt;Node5 -->
<g id="edge14" class="edge">
<title>Node7&#45;&gt;Node5</title>
<path fill="none" stroke="midnightblue" d="M932.02,-268.91C1055.58,-263.97 1308.43,-250.9 1520.5,-221 1528.02,-219.94 1535.94,-218.56 1543.65,-217.07"/>
<polygon fill="midnightblue" stroke="midnightblue" points="1544.49,-220.47 1553.6,-215.07 1543.11,-213.61 1544.49,-220.47"/>
</g>
<!-- Node7&#45;&gt;Node6 -->
<g id="edge16" class="edge">
<title>Node7&#45;&gt;Node6</title>
<path fill="none" stroke="midnightblue" d="M780.73,-258.65C722.18,-248.64 639.15,-234.25 566.5,-221 559.41,-219.71 551.96,-218.32 544.61,-216.93"/>
<polygon fill="midnightblue" stroke="midnightblue" points="545.16,-213.48 534.68,-215.05 543.86,-220.35 545.16,-213.48"/>
</g>
<!-- Node8 -->
<g id="node8" class="node">
<title>Node8</title>
<g id="a_node8"><a xlink:title=" ">
<polygon fill="none" stroke="#bfbfbf" points="756,-196 756,-215 791,-215 791,-196 756,-196"/>
<text text-anchor="middle" x="773.5" y="-203" font-family="Helvetica,sans-Serif" font-size="10.00">any</text>
</a>
</g>
</g>
<!-- Node7&#45;&gt;Node8 -->
<g id="edge7" class="edge">
<title>Node7&#45;&gt;Node8</title>
<path fill="none" stroke="midnightblue" d="M838.49,-257.4C824.91,-246.76 806.32,-232.2 792.5,-221.38"/>
<polygon fill="midnightblue" stroke="midnightblue" points="794.63,-218.6 784.6,-215.19 790.32,-224.12 794.63,-218.6"/>
</g>
<!-- Node9 -->
<g id="node9" class="node">
<title>Node9</title>
<g id="a_node9"><a xlink:title=" ">
<polygon fill="none" stroke="#bfbfbf" points="591.5,-62 591.5,-81 649.5,-81 649.5,-62 591.5,-62"/>
<text text-anchor="middle" x="620.5" y="-69" font-family="Helvetica,sans-Serif" font-size="10.00">memory</text>
</a>
</g>
</g>
<!-- Node7&#45;&gt;Node9 -->
<g id="edge8" class="edge">
<title>Node7&#45;&gt;Node9</title>
<path fill="none" stroke="midnightblue" d="M932.03,-264.54C1061.37,-252.43 1312.11,-228.12 1318.5,-221 1327.7,-210.74 1327.4,-200.52 1318.5,-190 1232.74,-88.6 794.21,-74.66 659.75,-72.78"/>
<polygon fill="midnightblue" stroke="midnightblue" points="659.55,-69.28 649.5,-72.66 659.46,-76.28 659.55,-69.28"/>
</g>
<!-- Node10 -->
<g id="node10" class="node">
<title>Node10</title>
<g id="a_node10"><a xlink:title=" ">
<polygon fill="none" stroke="#bfbfbf" points="690.5,-129 690.5,-148 734.5,-148 734.5,-129 690.5,-129"/>
<text text-anchor="middle" x="712.5" y="-136" font-family="Helvetica,sans-Serif" font-size="10.00">string</text>
</a>
</g>
</g>
<!-- Node7&#45;&gt;Node10 -->
<g id="edge9" class="edge">
<title>Node7&#45;&gt;Node10</title>
<path fill="none" stroke="midnightblue" d="M849.38,-257.4C840.03,-239.93 822.21,-210.02 800.5,-190 783.45,-174.28 760.67,-161.38 742.56,-152.55"/>
<polygon fill="midnightblue" stroke="midnightblue" points="743.58,-149.16 733.05,-148.07 740.6,-155.49 743.58,-149.16"/>
</g>
<!-- Node11 -->
<g id="node11" class="node">
<title>Node11</title>
<g id="a_node11"><a xlink:title=" ">
<polygon fill="none" stroke="#bfbfbf" points="848,-196 848,-215 941,-215 941,-196 848,-196"/>
<text text-anchor="middle" x="894.5" y="-203" font-family="Helvetica,sans-Serif" font-size="10.00">unordered_map</text>
</a>
</g>
</g>
<!-- Node7&#45;&gt;Node11 -->
<g id="edge10" class="edge">
<title>Node7&#45;&gt;Node11</title>
<path fill="none" stroke="midnightblue" d="M864.75,-257.4C870.49,-247.56 878.2,-234.38 884.33,-223.89"/>
<polygon fill="midnightblue" stroke="midnightblue" points="887.39,-225.59 889.42,-215.19 881.35,-222.06 887.39,-225.59"/>
</g>
<!-- Node12 -->
<g id="node12" class="node">
<title>Node12</title>
<g id="a_node12"><a xlink:title=" ">
<polygon fill="none" stroke="#bfbfbf" points="959.5,-196 959.5,-215 1127.5,-215 1127.5,-196 959.5,-196"/>
<text text-anchor="middle" x="1043.5" y="-203" font-family="Helvetica,sans-Serif" font-size="10.00">iDynTree/Core/MatrixDynSize.h</text>
</a>
</g>
</g>
<!-- Node7&#45;&gt;Node12 -->
<g id="edge11" class="edge">
<title>Node7&#45;&gt;Node12</title>
<path fill="none" stroke="midnightblue" d="M897.08,-257.4C930.61,-245.74 977.7,-229.37 1009.33,-218.38"/>
<polygon fill="midnightblue" stroke="midnightblue" points="1010.73,-221.6 1019.03,-215.01 1008.43,-214.98 1010.73,-221.6"/>
</g>
<!-- Node13 -->
<g id="node13" class="node">
<title>Node13</title>
<g id="a_node13"><a xlink:title=" ">
<polygon fill="none" stroke="#bfbfbf" points="1146,-196 1146,-215 1309,-215 1309,-196 1146,-196"/>
<text text-anchor="middle" x="1227.5" y="-203" font-family="Helvetica,sans-Serif" font-size="10.00">iDynTree/Core/MatrixFixSize.h</text>
</a>
</g>
</g>
<!-- Node7&#45;&gt;Node13 -->
<g id="edge12" class="edge">
<title>Node7&#45;&gt;Node13</title>
<path fill="none" stroke="midnightblue" d="M932.02,-258.27C1002.11,-245.99 1104.98,-227.97 1169.01,-216.75"/>
<polygon fill="midnightblue" stroke="midnightblue" points="1169.69,-220.18 1178.94,-215.01 1168.48,-213.29 1169.69,-220.18"/>
</g>
<!-- Node14 -->
<g id="node14" class="node">
<title>Node14</title>
<g id="a_node14"><a xlink:title=" ">
<polygon fill="none" stroke="#bfbfbf" points="575.5,-196 575.5,-215 737.5,-215 737.5,-196 575.5,-196"/>
<text text-anchor="middle" x="656.5" y="-203" font-family="Helvetica,sans-Serif" font-size="10.00">iDynTree/Core/VectorFixSize.h</text>
</a>
</g>
</g>
<!-- Node7&#45;&gt;Node14 -->
<g id="edge15" class="edge">
<title>Node7&#45;&gt;Node14</title>
<path fill="none" stroke="midnightblue" d="M813.1,-257.4C777.08,-245.69 726.44,-229.23 692.6,-218.23"/>
<polygon fill="midnightblue" stroke="midnightblue" points="693.27,-214.77 682.68,-215.01 691.1,-221.43 693.27,-214.77"/>
</g>
<!-- Node7&#45;&gt;Node15 -->
<g id="edge17" class="edge">
<title>Node7&#45;&gt;Node15</title>
<path fill="none" stroke="midnightblue" d="M780.92,-263.78C694.97,-254.79 550.19,-239.03 415.15,-221.05"/>
<polygon fill="midnightblue" stroke="midnightblue" points="415.4,-217.56 405.03,-219.7 414.48,-224.49 415.4,-217.56"/>
</g>
<!-- Node15&#45;&gt;Node9 -->
<g id="edge18" class="edge">
<title>Node15&#45;&gt;Node9</title>
<path fill="none" stroke="midnightblue" d="M369.26,-190.43C399,-181.28 437.5,-168.39 470.5,-154 517.12,-133.67 568.64,-103.98 597.54,-86.6"/>
<polygon fill="midnightblue" stroke="midnightblue" points="599.69,-89.39 606.44,-81.22 596.07,-83.4 599.69,-89.39"/>
</g>
<!-- Node15&#45;&gt;Node10 -->
<g id="edge19" class="edge">
<title>Node15&#45;&gt;Node10</title>
<path fill="none" stroke="midnightblue" d="M405.08,-190.48C491.28,-176.18 620.54,-154.75 680.21,-144.85"/>
<polygon fill="midnightblue" stroke="midnightblue" points="680.88,-148.29 690.18,-143.2 679.74,-141.38 680.88,-148.29"/>
</g>
<!-- Node16 -->
<g id="node16" class="node">
<title>Node16</title>
<g id="a_node16"><a xlink:title=" ">
<polygon fill="none" stroke="#bfbfbf" points="414,-129 414,-148 461,-148 461,-129 414,-129"/>
<text text-anchor="middle" x="437.5" y="-136" font-family="Helvetica,sans-Serif" font-size="10.00">vector</text>
</a>
</g>
</g>
<!-- Node15&#45;&gt;Node16 -->
<g id="edge20" class="edge">
<title>Node15&#45;&gt;Node16</title>
<path fill="none" stroke="midnightblue" d="M345.89,-190.4C365.87,-179.29 393.54,-163.92 413.23,-152.98"/>
<polygon fill="midnightblue" stroke="midnightblue" points="415.15,-155.92 422.19,-148.01 411.75,-149.8 415.15,-155.92"/>
</g>
<!-- Node17 -->
<g id="node17" class="node">
<title>Node17</title>
<g id="a_node17"><a xlink:href="TemplateHelpers_8h_source.html" target="_top" xlink:title=" ">
<polygon fill="none" stroke="black" points="44.5,-56.5 44.5,-86.5 202.5,-86.5 202.5,-56.5 44.5,-56.5"/>
<text text-anchor="start" x="52.5" y="-74.5" font-family="Helvetica,sans-Serif" font-size="10.00">BipedalLocomotion/Generic</text>
<text text-anchor="middle" x="123.5" y="-63.5" font-family="Helvetica,sans-Serif" font-size="10.00">Container/TemplateHelpers.h</text>
</a>
</g>
</g>
<!-- Node15&#45;&gt;Node17 -->
<g id="edge21" class="edge">
<title>Node15&#45;&gt;Node17</title>
<path fill="none" stroke="midnightblue" d="M295.2,-190.3C278.1,-180.49 255.14,-166.94 235.5,-154 205.41,-134.17 172.17,-109.63 149.78,-92.69"/>
<polygon fill="midnightblue" stroke="midnightblue" points="151.83,-89.86 141.76,-86.59 147.6,-95.43 151.83,-89.86"/>
</g>
<!-- Node21 -->
<g id="node21" class="node">
<title>Node21</title>
<g id="a_node21"><a xlink:href="Vector_8h_source.html" target="_top" xlink:title=" ">
<polygon fill="none" stroke="black" points="245,-123.5 245,-153.5 396,-153.5 396,-123.5 245,-123.5"/>
<text text-anchor="start" x="253" y="-141.5" font-family="Helvetica,sans-Serif" font-size="10.00">BipedalLocomotion/Generic</text>
<text text-anchor="middle" x="320.5" y="-130.5" font-family="Helvetica,sans-Serif" font-size="10.00">Container/Vector.h</text>
</a>
</g>
</g>
<!-- Node15&#45;&gt;Node21 -->
<g id="edge25" class="edge">
<title>Node15&#45;&gt;Node21</title>
<path fill="none" stroke="midnightblue" d="M320.5,-190.4C320.5,-182.64 320.5,-172.81 320.5,-163.86"/>
<polygon fill="midnightblue" stroke="midnightblue" points="324,-163.58 320.5,-153.58 317,-163.58 324,-163.58"/>
</g>
<!-- Node18 -->
<g id="node18" class="node">
<title>Node18</title>
<g id="a_node18"><a xlink:title=" ">
<polygon fill="none" stroke="#bfbfbf" points="0,-0.5 0,-19.5 69,-19.5 69,-0.5 0,-0.5"/>
<text text-anchor="middle" x="34.5" y="-7.5" font-family="Helvetica,sans-Serif" font-size="10.00">type_traits</text>
</a>
</g>
</g>
<!-- Node17&#45;&gt;Node18 -->
<g id="edge22" class="edge">
<title>Node17&#45;&gt;Node18</title>
<path fill="none" stroke="midnightblue" d="M102.41,-56.4C88.41,-47.04 70.09,-34.79 56.01,-25.38"/>
<polygon fill="midnightblue" stroke="midnightblue" points="57.71,-22.31 47.45,-19.66 53.82,-28.13 57.71,-22.31"/>
</g>
<!-- Node19 -->
<g id="node19" class="node">
<title>Node19</title>
<g id="a_node19"><a xlink:title=" ">
<polygon fill="none" stroke="#bfbfbf" points="87,-0.5 87,-19.5 160,-19.5 160,-0.5 87,-0.5"/>
<text text-anchor="middle" x="123.5" y="-7.5" font-family="Helvetica,sans-Serif" font-size="10.00">string_view</text>
</a>
</g>
</g>
<!-- Node17&#45;&gt;Node19 -->
<g id="edge23" class="edge">
<title>Node17&#45;&gt;Node19</title>
<path fill="none" stroke="midnightblue" d="M123.5,-56.4C123.5,-48.47 123.5,-38.46 123.5,-29.86"/>
<polygon fill="midnightblue" stroke="midnightblue" points="127,-29.66 123.5,-19.66 120,-29.66 127,-29.66"/>
</g>
<!-- Node20 -->
<g id="node20" class="node">
<title>Node20</title>
<g id="a_node20"><a xlink:title=" ">
<polygon fill="none" stroke="#bfbfbf" points="178,-0.5 178,-19.5 247,-19.5 247,-0.5 178,-0.5"/>
<text text-anchor="middle" x="212.5" y="-7.5" font-family="Helvetica,sans-Serif" font-size="10.00">Eigen/Core</text>
</a>
</g>
</g>
<!-- Node17&#45;&gt;Node20 -->
<g id="edge24" class="edge">
<title>Node17&#45;&gt;Node20</title>
<path fill="none" stroke="midnightblue" d="M144.59,-56.4C158.59,-47.04 176.91,-34.79 190.99,-25.38"/>
<polygon fill="midnightblue" stroke="midnightblue" points="193.18,-28.13 199.55,-19.66 189.29,-22.31 193.18,-28.13"/>
</g>
<!-- Node21&#45;&gt;Node9 -->
<g id="edge31" class="edge">
<title>Node21&#45;&gt;Node9</title>
<path fill="none" stroke="midnightblue" d="M396.11,-124.44C460.64,-113.01 548.25,-96.75 582.5,-87 585.08,-86.26 587.74,-85.43 590.39,-84.53"/>
<polygon fill="midnightblue" stroke="midnightblue" points="591.59,-87.82 599.81,-81.14 589.22,-81.23 591.59,-87.82"/>
</g>
<!-- Node21&#45;&gt;Node17 -->
<g id="edge27" class="edge">
<title>Node21&#45;&gt;Node17</title>
<path fill="none" stroke="midnightblue" d="M277.75,-123.4C247.81,-113.52 207.61,-100.25 175.76,-89.74"/>
<polygon fill="midnightblue" stroke="midnightblue" points="176.76,-86.39 166.16,-86.58 174.56,-93.03 176.76,-86.39"/>
</g>
<!-- Node22 -->
<g id="node22" class="node">
<title>Node22</title>
<g id="a_node22"><a xlink:title=" ">
<polygon fill="none" stroke="#bfbfbf" points="369,-62 369,-81 490,-81 490,-62 369,-62"/>
<text text-anchor="middle" x="429.5" y="-69" font-family="Helvetica,sans-Serif" font-size="10.00">iDynTree/Core/Span.h</text>
</a>
</g>
</g>
<!-- Node21&#45;&gt;Node22 -->
<g id="edge26" class="edge">
<title>Node21&#45;&gt;Node22</title>
<path fill="none" stroke="midnightblue" d="M344.15,-123.4C362.68,-112.34 388.31,-97.06 406.64,-86.13"/>
<polygon fill="midnightblue" stroke="midnightblue" points="408.44,-89.13 415.23,-81.01 404.85,-83.12 408.44,-89.13"/>
</g>
<!-- Node23 -->
<g id="node23" class="node">
<title>Node23</title>
<g id="a_node23"><a xlink:title=" ">
<polygon fill="none" stroke="#bfbfbf" points="508,-62 508,-81 573,-81 573,-62 508,-62"/>
<text text-anchor="middle" x="540.5" y="-69" font-family="Helvetica,sans-Serif" font-size="10.00">functional</text>
</a>
</g>
</g>
<!-- Node21&#45;&gt;Node23 -->
<g id="edge28" class="edge">
<title>Node21&#45;&gt;Node23</title>
<path fill="none" stroke="midnightblue" d="M373.64,-123.48C409.39,-113.81 457.49,-100.34 499.5,-87 502.11,-86.17 504.8,-85.29 507.5,-84.38"/>
<polygon fill="midnightblue" stroke="midnightblue" points="508.86,-87.61 517.17,-81.05 506.58,-81 508.86,-87.61"/>
</g>
<!-- Node24 -->
<g id="node24" class="node">
<title>Node24</title>
<g id="a_node24"><a xlink:title=" ">
<polygon fill="none" stroke="#bfbfbf" points="220.5,-62 220.5,-81 272.5,-81 272.5,-62 220.5,-62"/>
<text text-anchor="middle" x="246.5" y="-69" font-family="Helvetica,sans-Serif" font-size="10.00">cassert</text>
</a>
</g>
</g>
<!-- Node21&#45;&gt;Node24 -->
<g id="edge29" class="edge">
<title>Node21&#45;&gt;Node24</title>
<path fill="none" stroke="midnightblue" d="M304.44,-123.4C292.56,-112.96 276.39,-98.75 264.14,-88"/>
<polygon fill="midnightblue" stroke="midnightblue" points="266.22,-85.16 256.4,-81.19 261.6,-90.42 266.22,-85.16"/>
</g>
<!-- Node25 -->
<g id="node25" class="node">
<title>Node25</title>
<g id="a_node25"><a xlink:title=" ">
<polygon fill="none" stroke="#bfbfbf" points="290.5,-62 290.5,-81 350.5,-81 350.5,-62 290.5,-62"/>
<text text-anchor="middle" x="320.5" y="-69" font-family="Helvetica,sans-Serif" font-size="10.00">iostream</text>
</a>
</g>
</g>
<!-- Node21&#45;&gt;Node25 -->
<g id="edge30" class="edge">
<title>Node21&#45;&gt;Node25</title>
<path fill="none" stroke="midnightblue" d="M320.5,-123.4C320.5,-114.06 320.5,-101.71 320.5,-91.52"/>
<polygon fill="midnightblue" stroke="midnightblue" points="324,-91.19 320.5,-81.19 317,-91.19 324,-91.19"/>
</g>
</g>
</svg>
        <g id="navigator" transform="translate(0 0)" fill="#404254">
                <rect fill="#f2f5e9" fill-opacity="0.5" stroke="#606060" stroke-width=".5" x="0" y="0" width="60" height="60"/>
                <use id="zoomplus" xlink:href="#zoomPlus" x="17" y="9" onmousedown="handleZoom(evt,'in')"/>
                <use id="zoomminus" xlink:href="#zoomMin" x="42" y="9" onmousedown="handleZoom(evt,'out')"/>
                <use id="reset" xlink:href="#resetDef" x="30" y="36" onmousedown="handleReset()"/>
                <g id="arrowUp" xlink:href="#dirArrow" transform="translate(30 24)" onmousedown="handlePan(0,-1)">
                  <use xlink:href="#rim" fill="#404040">
                        <set attributeName="fill" to="#808080" begin="arrowUp.mouseover" end="arrowUp.mouseout"/>
                  </use>
                  <path fill="none" stroke="white" stroke-width="1.5" d="M0,-3.0v7 M-2.5,-0.5L0,-3.0L2.5,-0.5"/>
                </g>
                <g id="arrowRight" xlink:href="#dirArrow" transform="rotate(90) translate(36 -43)" onmousedown="handlePan(1,0)">
                  <use xlink:href="#rim" fill="#404040">
                        <set attributeName="fill" to="#808080" begin="arrowRight.mouseover" end="arrowRight.mouseout"/>
                  </use>
                  <path fill="none" stroke="white" stroke-width="1.5" d="M0,-3.0v7 M-2.5,-0.5L0,-3.0L2.5,-0.5"/>
                </g>
                <g id="arrowDown" xlink:href="#dirArrow" transform="rotate(180) translate(-30 -48)" onmousedown="handlePan(0,1)">
                  <use xlink:href="#rim" fill="#404040">
                        <set attributeName="fill" to="#808080" begin="arrowDown.mouseover" end="arrowDown.mouseout"/>
                  </use>
                  <path fill="none" stroke="white" stroke-width="1.5" d="M0,-3.0v7 M-2.5,-0.5L0,-3.0L2.5,-0.5"/>
                </g>
                <g id="arrowLeft" xlink:href="#dirArrow" transform="rotate(270) translate(-36 17)" onmousedown="handlePan(-1,0)">
                  <use xlink:href="#rim" fill="#404040">
                        <set attributeName="fill" to="#808080" begin="arrowLeft.mouseover" end="arrowLeft.mouseout"/>
                  </use>
                  <path fill="none" stroke="white" stroke-width="1.5" d="M0,-3.0v7 M-2.5,-0.5L0,-3.0L2.5,-0.5"/>
                </g>
        </g>
        <svg viewBox="0 0 15 15" width="100%" height="30px" preserveAspectRatio="xMaxYMin meet">
         <g id="arrow_out" transform="scale(0.3 0.3)">
          <a xlink:href="ContinuousContactModel_8cpp__incl_org.svg" target="_base">
           <rect id="button" ry="5" rx="5" y="6" x="6" height="38" width="38"
                fill="#f2f5e9" fill-opacity="0.5" stroke="#606060" stroke-width="1.0"/>
           <path id="arrow"
             d="M 11.500037,31.436501 C 11.940474,20.09759 22.043105,11.32322 32.158766,21.979434 L 37.068811,17.246167 C 37.068811,17.246167 37.088388,32 37.088388,32 L 22.160133,31.978069 C 22.160133,31.978069 26.997745,27.140456 26.997745,27.140456 C 18.528582,18.264221 13.291696,25.230495 11.500037,31.436501 z"
             style="fill:#404040;"/>
          </a>
         </g>
        </svg>
</svg>
