<?xml version="1.0" encoding="UTF-8" standalone="no"?>
<!DOCTYPE svg PUBLIC "-//W3C//DTD SVG 1.1//EN"
 "http://www.w3.org/Graphics/SVG/1.1/DTD/svg11.dtd">
<!-- Generated by graphviz version 2.43.0 (0)
 -->
<!-- Title: ContactModels/src/ContactModel.cpp Pages: 1 -->
<!--zoomable 363 -->
<svg id="main" version="1.1" xmlns="http://www.w3.org/2000/svg" xmlns:xlink="http://www.w3.org/1999/xlink" xml:space="preserve" onload="init(evt)">
<style type="text/css"><![CDATA[
.edge:hover path { stroke: red; }
.edge:hover polygon { stroke: red; fill: red; }
]]></style>
<script type="text/javascript"><![CDATA[
var edges = document.getElementsByTagName('g');
if (edges && edges.length) {
  for (var i=0;i<edges.length;i++) {
    if (edges[i].id.substr(0,4)=='edge') {
      edges[i].setAttribute('class','edge');
    }
  }
}
]]></script>
        <defs>
                <circle id="rim" cx="0" cy="0" r="7"/>
                <circle id="rim2" cx="0" cy="0" r="3.5"/>
                <g id="zoomPlus">
                        <use xlink:href="#rim" fill="#404040">
                                <set attributeName="fill" to="#808080" begin="zoomplus.mouseover" end="zoomplus.mouseout"/>
                        </use>
                        <path d="M-4,0h8M0,-4v8" fill="none" stroke="white" stroke-width="1.5" pointer-events="none"/>
                </g>
                <g id="zoomMin">
                        <use xlink:href="#rim" fill="#404040">
                                <set attributeName="fill" to="#808080" begin="zoomminus.mouseover" end="zoomminus.mouseout"/>
                        </use>
                        <path d="M-4,0h8" fill="none" stroke="white" stroke-width="1.5" pointer-events="none"/>
                </g>
                <g id="dirArrow">
                        <path fill="none" stroke="white" stroke-width="1.5" d="M0,-3.0v7 M-2.5,-0.5L0,-3.0L2.5,-0.5"/>
                </g>
               <g id="resetDef">
                       <use xlink:href="#rim2" fill="#404040">
                               <set attributeName="fill" to="#808080" begin="reset.mouseover" end="reset.mouseout"/>
                       </use>
               </g>
        </defs>

<script type="text/javascript">
var viewWidth = 1573;
var viewHeight = 363;
var sectionId = 'dynsection-0';
</script>
<script xlink:href="svgpan.js"/>
<svg id="graph" class="graph">
<g id="viewport">
<title>ContactModels/src/ContactModel.cpp</title>
<!-- Node1 -->
<g id="node1" class="node">
<title>Node1</title>
<g id="a_node1"><a xlink:title=" ">
<polygon fill="#bfbfbf" stroke="black" points="758,-324.5 758,-354.5 905,-354.5 905,-324.5 758,-324.5"/>
<text text-anchor="start" x="766" y="-342.5" font-family="Helvetica,sans-Serif" font-size="10.00">ContactModels/src/Contact</text>
<text text-anchor="middle" x="831.5" y="-331.5" font-family="Helvetica,sans-Serif" font-size="10.00">Model.cpp</text>
</a>
</g>
</g>
<!-- Node2 -->
<g id="node2" class="node">
<title>Node2</title>
<g id="a_node2"><a xlink:href="ContactModel_8h.html" target="_top" xlink:title=" ">
<polygon fill="none" stroke="black" points="756,-257.5 756,-287.5 907,-287.5 907,-257.5 756,-257.5"/>
<text text-anchor="start" x="764" y="-275.5" font-family="Helvetica,sans-Serif" font-size="10.00">BipedalLocomotion/Contact</text>
<text text-anchor="middle" x="831.5" y="-264.5" font-family="Helvetica,sans-Serif" font-size="10.00">Models/ContactModel.h</text>
</a>
</g>
</g>
<!-- Node1&#45;&gt;Node2 -->
<g id="edge1" class="edge">
<title>Node1&#45;&gt;Node2</title>
<path fill="none" stroke="midnightblue" d="M831.5,-324.4C831.5,-316.64 831.5,-306.81 831.5,-297.86"/>
<polygon fill="midnightblue" stroke="midnightblue" points="835,-297.58 831.5,-287.58 828,-297.58 835,-297.58"/>
</g>
<!-- Node3 -->
<g id="node3" class="node">
<title>Node3</title>
<g id="a_node3"><a xlink:title=" ">
<polygon fill="none" stroke="#bfbfbf" points="174,-196 174,-215 209,-215 209,-196 174,-196"/>
<text text-anchor="middle" x="191.5" y="-203" font-family="Helvetica,sans-Serif" font-size="10.00">any</text>
</a>
</g>
</g>
<!-- Node2&#45;&gt;Node3 -->
<g id="edge2" class="edge">
<title>Node2&#45;&gt;Node3</title>
<path fill="none" stroke="midnightblue" d="M755.77,-268.44C615.85,-262.25 322.11,-246.62 223.5,-221 221.34,-220.44 219.15,-219.74 216.97,-218.96"/>
<polygon fill="midnightblue" stroke="midnightblue" points="218.29,-215.72 207.71,-215.14 215.62,-222.19 218.29,-215.72"/>
</g>
<!-- Node4 -->
<g id="node4" class="node">
<title>Node4</title>
<g id="a_node4"><a xlink:title=" ">
<polygon fill="none" stroke="#bfbfbf" points="590.5,-62 590.5,-81 648.5,-81 648.5,-62 590.5,-62"/>
<text text-anchor="middle" x="619.5" y="-69" font-family="Helvetica,sans-Serif" font-size="10.00">memory</text>
</a>
</g>
</g>
<!-- Node2&#45;&gt;Node4 -->
<g id="edge3" class="edge">
<title>Node2&#45;&gt;Node4</title>
<path fill="none" stroke="midnightblue" d="M907.1,-271.94C1084.29,-272.18 1514.75,-267.89 1558.5,-221 1567.9,-210.93 1567.62,-200.33 1558.5,-190 1497.8,-121.23 828.41,-83.03 658.52,-74.39"/>
<polygon fill="midnightblue" stroke="midnightblue" points="658.68,-70.9 648.52,-73.89 658.33,-77.89 658.68,-70.9"/>
</g>
<!-- Node5 -->
<g id="node5" class="node">
<title>Node5</title>
<g id="a_node5"><a xlink:title=" ">
<polygon fill="none" stroke="#bfbfbf" points="215.5,-129 215.5,-148 259.5,-148 259.5,-129 215.5,-129"/>
<text text-anchor="middle" x="237.5" y="-136" font-family="Helvetica,sans-Serif" font-size="10.00">string</text>
</a>
</g>
</g>
<!-- Node2&#45;&gt;Node5 -->
<g id="edge4" class="edge">
<title>Node2&#45;&gt;Node5</title>
<path fill="none" stroke="midnightblue" d="M755.81,-269.78C608.04,-265.72 292.32,-253.33 255.5,-221 237.83,-205.49 235.33,-176.9 235.87,-158.05"/>
<polygon fill="midnightblue" stroke="midnightblue" points="239.36,-158.19 236.46,-148 232.37,-157.78 239.36,-158.19"/>
</g>
<!-- Node6 -->
<g id="node6" class="node">
<title>Node6</title>
<g id="a_node6"><a xlink:title=" ">
<polygon fill="none" stroke="#bfbfbf" points="452,-196 452,-215 545,-215 545,-196 452,-196"/>
<text text-anchor="middle" x="498.5" y="-203" font-family="Helvetica,sans-Serif" font-size="10.00">unordered_map</text>
</a>
</g>
</g>
<!-- Node2&#45;&gt;Node6 -->
<g id="edge5" class="edge">
<title>Node2&#45;&gt;Node6</title>
<path fill="none" stroke="midnightblue" d="M755.96,-259.26C700.1,-249.84 622.29,-235.93 554.5,-221 549.72,-219.95 544.74,-218.77 539.8,-217.56"/>
<polygon fill="midnightblue" stroke="midnightblue" points="540.35,-214.09 529.8,-215.03 538.64,-220.87 540.35,-214.09"/>
</g>
<!-- Node7 -->
<g id="node7" class="node">
<title>Node7</title>
<g id="a_node7"><a xlink:title=" ">
<polygon fill="none" stroke="#bfbfbf" points="563.5,-196 563.5,-215 731.5,-215 731.5,-196 563.5,-196"/>
<text text-anchor="middle" x="647.5" y="-203" font-family="Helvetica,sans-Serif" font-size="10.00">iDynTree/Core/MatrixDynSize.h</text>
</a>
</g>
</g>
<!-- Node2&#45;&gt;Node7 -->
<g id="edge6" class="edge">
<title>Node2&#45;&gt;Node7</title>
<path fill="none" stroke="midnightblue" d="M791.57,-257.4C758.58,-245.74 712.25,-229.37 681.12,-218.38"/>
<polygon fill="midnightblue" stroke="midnightblue" points="682.18,-215.04 671.58,-215.01 679.84,-221.64 682.18,-215.04"/>
</g>
<!-- Node8 -->
<g id="node8" class="node">
<title>Node8</title>
<g id="a_node8"><a xlink:title=" ">
<polygon fill="none" stroke="#bfbfbf" points="750,-196 750,-215 913,-215 913,-196 750,-196"/>
<text text-anchor="middle" x="831.5" y="-203" font-family="Helvetica,sans-Serif" font-size="10.00">iDynTree/Core/MatrixFixSize.h</text>
</a>
</g>
</g>
<!-- Node2&#45;&gt;Node8 -->
<g id="edge7" class="edge">
<title>Node2&#45;&gt;Node8</title>
<path fill="none" stroke="midnightblue" d="M831.5,-257.4C831.5,-248.06 831.5,-235.71 831.5,-225.52"/>
<polygon fill="midnightblue" stroke="midnightblue" points="835,-225.19 831.5,-215.19 828,-225.19 835,-225.19"/>
</g>
<!-- Node9 -->
<g id="node9" class="node">
<title>Node9</title>
<g id="a_node9"><a xlink:title=" ">
<polygon fill="none" stroke="#bfbfbf" points="931.5,-196 931.5,-215 1077.5,-215 1077.5,-196 931.5,-196"/>
<text text-anchor="middle" x="1004.5" y="-203" font-family="Helvetica,sans-Serif" font-size="10.00">iDynTree/Core/Transform.h</text>
</a>
</g>
</g>
<!-- Node2&#45;&gt;Node9 -->
<g id="edge8" class="edge">
<title>Node2&#45;&gt;Node9</title>
<path fill="none" stroke="midnightblue" d="M869.04,-257.4C899.8,-245.84 942.87,-229.66 972.13,-218.66"/>
<polygon fill="midnightblue" stroke="midnightblue" points="973.73,-221.8 981.86,-215.01 971.27,-215.25 973.73,-221.8"/>
</g>
<!-- Node10 -->
<g id="node10" class="node">
<title>Node10</title>
<g id="a_node10"><a xlink:title=" ">
<polygon fill="none" stroke="#bfbfbf" points="1095.5,-196 1095.5,-215 1217.5,-215 1217.5,-196 1095.5,-196"/>
<text text-anchor="middle" x="1156.5" y="-203" font-family="Helvetica,sans-Serif" font-size="10.00">iDynTree/Core/Twist.h</text>
</a>
</g>
</g>
<!-- Node2&#45;&gt;Node10 -->
<g id="edge9" class="edge">
<title>Node2&#45;&gt;Node10</title>
<path fill="none" stroke="midnightblue" d="M903.25,-257.46C954.37,-247.42 1024.69,-233.52 1086.5,-221 1092.65,-219.75 1099.09,-218.44 1105.48,-217.12"/>
<polygon fill="midnightblue" stroke="midnightblue" points="1106.34,-220.52 1115.43,-215.07 1104.93,-213.66 1106.34,-220.52"/>
</g>
<!-- Node11 -->
<g id="node11" class="node">
<title>Node11</title>
<g id="a_node11"><a xlink:title=" ">
<polygon fill="none" stroke="#bfbfbf" points="1235.5,-196 1235.5,-215 1397.5,-215 1397.5,-196 1235.5,-196"/>
<text text-anchor="middle" x="1316.5" y="-203" font-family="Helvetica,sans-Serif" font-size="10.00">iDynTree/Core/VectorFixSize.h</text>
</a>
</g>
</g>
<!-- Node2&#45;&gt;Node11 -->
<g id="edge10" class="edge">
<title>Node2&#45;&gt;Node11</title>
<path fill="none" stroke="midnightblue" d="M907.32,-262.55C986.92,-252.98 1115.65,-237.01 1226.5,-221 1235.8,-219.66 1245.63,-218.16 1255.24,-216.64"/>
<polygon fill="midnightblue" stroke="midnightblue" points="1255.82,-220.1 1265.14,-215.07 1254.72,-213.18 1255.82,-220.1"/>
</g>
<!-- Node12 -->
<g id="node12" class="node">
<title>Node12</title>
<g id="a_node12"><a xlink:title=" ">
<polygon fill="none" stroke="#bfbfbf" points="1415.5,-196 1415.5,-215 1549.5,-215 1549.5,-196 1415.5,-196"/>
<text text-anchor="middle" x="1482.5" y="-203" font-family="Helvetica,sans-Serif" font-size="10.00">iDynTree/Core/Wrench.h</text>
</a>
</g>
</g>
<!-- Node2&#45;&gt;Node12 -->
<g id="edge11" class="edge">
<title>Node2&#45;&gt;Node12</title>
<path fill="none" stroke="midnightblue" d="M907.12,-267.3C1017.32,-260.62 1228.33,-245.76 1406.5,-221 1414.82,-219.84 1423.61,-218.39 1432.14,-216.85"/>
<polygon fill="midnightblue" stroke="midnightblue" points="1432.81,-220.28 1442,-215.01 1431.53,-213.4 1432.81,-220.28"/>
</g>
<!-- Node13 -->
<g id="node13" class="node">
<title>Node13</title>
<g id="a_node13"><a xlink:href="IParametersHandler_8h.html" target="_top" xlink:title=" ">
<polygon fill="none" stroke="black" points="265,-190.5 265,-220.5 434,-220.5 434,-190.5 265,-190.5"/>
<text text-anchor="start" x="273" y="-208.5" font-family="Helvetica,sans-Serif" font-size="10.00">BipedalLocomotion/Parameters</text>
<text text-anchor="middle" x="349.5" y="-197.5" font-family="Helvetica,sans-Serif" font-size="10.00">Handler/IParametersHandler.h</text>
</a>
</g>
</g>
<!-- Node2&#45;&gt;Node13 -->
<g id="edge12" class="edge">
<title>Node2&#45;&gt;Node13</title>
<path fill="none" stroke="midnightblue" d="M755.96,-262.2C679.93,-252.73 559.03,-237.32 444.07,-221.06"/>
<polygon fill="midnightblue" stroke="midnightblue" points="444.43,-217.58 434.04,-219.64 443.45,-224.51 444.43,-217.58"/>
</g>
<!-- Node13&#45;&gt;Node4 -->
<g id="edge13" class="edge">
<title>Node13&#45;&gt;Node4</title>
<path fill="none" stroke="midnightblue" d="M393.88,-190.46C418.97,-181.65 450.42,-169.1 476.5,-154 495.66,-142.9 496.76,-134.8 515.5,-123 539.22,-108.07 568,-94.41 589.26,-85.07"/>
<polygon fill="midnightblue" stroke="midnightblue" points="590.67,-88.27 598.46,-81.09 587.89,-81.84 590.67,-88.27"/>
</g>
<!-- Node13&#45;&gt;Node5 -->
<g id="edge14" class="edge">
<title>Node13&#45;&gt;Node5</title>
<path fill="none" stroke="midnightblue" d="M325.2,-190.4C306.15,-179.34 279.82,-164.06 260.99,-153.13"/>
<polygon fill="midnightblue" stroke="midnightblue" points="262.56,-150 252.16,-148.01 259.05,-156.05 262.56,-150"/>
</g>
<!-- Node14 -->
<g id="node14" class="node">
<title>Node14</title>
<g id="a_node14"><a xlink:title=" ">
<polygon fill="none" stroke="#bfbfbf" points="524,-129 524,-148 571,-148 571,-129 524,-129"/>
<text text-anchor="middle" x="547.5" y="-136" font-family="Helvetica,sans-Serif" font-size="10.00">vector</text>
</a>
</g>
</g>
<!-- Node13&#45;&gt;Node14 -->
<g id="edge15" class="edge">
<title>Node13&#45;&gt;Node14</title>
<path fill="none" stroke="midnightblue" d="M396.65,-190.42C428.64,-180.66 471.81,-167.12 509.5,-154 511.75,-153.22 514.07,-152.39 516.4,-151.54"/>
<polygon fill="midnightblue" stroke="midnightblue" points="517.73,-154.78 525.88,-148 515.29,-148.22 517.73,-154.78"/>
</g>
<!-- Node15 -->
<g id="node15" class="node">
<title>Node15</title>
<g id="a_node15"><a xlink:href="TemplateHelpers_8h_source.html" target="_top" xlink:title=" ">
<polygon fill="none" stroke="black" points="44.5,-56.5 44.5,-86.5 202.5,-86.5 202.5,-56.5 44.5,-56.5"/>
<text text-anchor="start" x="52.5" y="-74.5" font-family="Helvetica,sans-Serif" font-size="10.00">BipedalLocomotion/Generic</text>
<text text-anchor="middle" x="123.5" y="-63.5" font-family="Helvetica,sans-Serif" font-size="10.00">Container/TemplateHelpers.h</text>
</a>
</g>
</g>
<!-- Node13&#45;&gt;Node15 -->
<g id="edge16" class="edge">
<title>Node13&#45;&gt;Node15</title>
<path fill="none" stroke="midnightblue" d="M338.93,-190.46C324.74,-172.5 297.88,-141.49 268.5,-123 245.4,-108.46 217.58,-97.47 192.51,-89.52"/>
<polygon fill="midnightblue" stroke="midnightblue" points="193.27,-86.09 182.69,-86.51 191.22,-92.79 193.27,-86.09"/>
</g>
<!-- Node19 -->
<g id="node19" class="node">
<title>Node19</title>
<g id="a_node19"><a xlink:href="Vector_8h_source.html" target="_top" xlink:title=" ">
<polygon fill="none" stroke="black" points="316,-123.5 316,-153.5 467,-153.5 467,-123.5 316,-123.5"/>
<text text-anchor="start" x="324" y="-141.5" font-family="Helvetica,sans-Serif" font-size="10.00">BipedalLocomotion/Generic</text>
<text text-anchor="middle" x="391.5" y="-130.5" font-family="Helvetica,sans-Serif" font-size="10.00">Container/Vector.h</text>
</a>
</g>
</g>
<!-- Node13&#45;&gt;Node19 -->
<g id="edge20" class="edge">
<title>Node13&#45;&gt;Node19</title>
<path fill="none" stroke="midnightblue" d="M358.61,-190.4C363.95,-182.13 370.82,-171.51 376.9,-162.1"/>
<polygon fill="midnightblue" stroke="midnightblue" points="379.92,-163.88 382.4,-153.58 374.04,-160.08 379.92,-163.88"/>
</g>
<!-- Node16 -->
<g id="node16" class="node">
<title>Node16</title>
<g id="a_node16"><a xlink:title=" ">
<polygon fill="none" stroke="#bfbfbf" points="0,-0.5 0,-19.5 69,-19.5 69,-0.5 0,-0.5"/>
<text text-anchor="middle" x="34.5" y="-7.5" font-family="Helvetica,sans-Serif" font-size="10.00">type_traits</text>
</a>
</g>
</g>
<!-- Node15&#45;&gt;Node16 -->
<g id="edge17" class="edge">
<title>Node15&#45;&gt;Node16</title>
<path fill="none" stroke="midnightblue" d="M102.41,-56.4C88.41,-47.04 70.09,-34.79 56.01,-25.38"/>
<polygon fill="midnightblue" stroke="midnightblue" points="57.71,-22.31 47.45,-19.66 53.82,-28.13 57.71,-22.31"/>
</g>
<!-- Node17 -->
<g id="node17" class="node">
<title>Node17</title>
<g id="a_node17"><a xlink:title=" ">
<polygon fill="none" stroke="#bfbfbf" points="87,-0.5 87,-19.5 160,-19.5 160,-0.5 87,-0.5"/>
<text text-anchor="middle" x="123.5" y="-7.5" font-family="Helvetica,sans-Serif" font-size="10.00">string_view</text>
</a>
</g>
</g>
<!-- Node15&#45;&gt;Node17 -->
<g id="edge18" class="edge">
<title>Node15&#45;&gt;Node17</title>
<path fill="none" stroke="midnightblue" d="M123.5,-56.4C123.5,-48.47 123.5,-38.46 123.5,-29.86"/>
<polygon fill="midnightblue" stroke="midnightblue" points="127,-29.66 123.5,-19.66 120,-29.66 127,-29.66"/>
</g>
<!-- Node18 -->
<g id="node18" class="node">
<title>Node18</title>
<g id="a_node18"><a xlink:title=" ">
<polygon fill="none" stroke="#bfbfbf" points="178,-0.5 178,-19.5 247,-19.5 247,-0.5 178,-0.5"/>
<text text-anchor="middle" x="212.5" y="-7.5" font-family="Helvetica,sans-Serif" font-size="10.00">Eigen/Core</text>
</a>
</g>
</g>
<!-- Node15&#45;&gt;Node18 -->
<g id="edge19" class="edge">
<title>Node15&#45;&gt;Node18</title>
<path fill="none" stroke="midnightblue" d="M144.59,-56.4C158.59,-47.04 176.91,-34.79 190.99,-25.38"/>
<polygon fill="midnightblue" stroke="midnightblue" points="193.18,-28.13 199.55,-19.66 189.29,-22.31 193.18,-28.13"/>
</g>
<!-- Node19&#45;&gt;Node4 -->
<g id="edge26" class="edge">
<title>Node19&#45;&gt;Node4</title>
<path fill="none" stroke="midnightblue" d="M450.59,-123.49C488.33,-114.13 538.14,-100.99 581.5,-87 583.91,-86.22 586.39,-85.38 588.88,-84.5"/>
<polygon fill="midnightblue" stroke="midnightblue" points="590.16,-87.76 598.34,-81.03 587.74,-81.19 590.16,-87.76"/>
</g>
<!-- Node19&#45;&gt;Node15 -->
<g id="edge22" class="edge">
<title>Node19&#45;&gt;Node15</title>
<path fill="none" stroke="midnightblue" d="M333.68,-123.48C291.91,-113.34 235.34,-99.63 191.42,-88.97"/>
<polygon fill="midnightblue" stroke="midnightblue" points="192.22,-85.57 181.68,-86.61 190.57,-92.37 192.22,-85.57"/>
</g>
<!-- Node20 -->
<g id="node20" class="node">
<title>Node20</title>
<g id="a_node20"><a xlink:title=" ">
<polygon fill="none" stroke="#bfbfbf" points="220,-62 220,-81 341,-81 341,-62 220,-62"/>
<text text-anchor="middle" x="280.5" y="-69" font-family="Helvetica,sans-Serif" font-size="10.00">iDynTree/Core/Span.h</text>
</a>
</g>
</g>
<!-- Node19&#45;&gt;Node20 -->
<g id="edge21" class="edge">
<title>Node19&#45;&gt;Node20</title>
<path fill="none" stroke="midnightblue" d="M367.41,-123.4C348.54,-112.34 322.44,-97.06 303.78,-86.13"/>
<polygon fill="midnightblue" stroke="midnightblue" points="305.43,-83.04 295.03,-81.01 301.89,-89.08 305.43,-83.04"/>
</g>
<!-- Node21 -->
<g id="node21" class="node">
<title>Node21</title>
<g id="a_node21"><a xlink:title=" ">
<polygon fill="none" stroke="#bfbfbf" points="359,-62 359,-81 424,-81 424,-62 359,-62"/>
<text text-anchor="middle" x="391.5" y="-69" font-family="Helvetica,sans-Serif" font-size="10.00">functional</text>
</a>
</g>
</g>
<!-- Node19&#45;&gt;Node21 -->
<g id="edge23" class="edge">
<title>Node19&#45;&gt;Node21</title>
<path fill="none" stroke="midnightblue" d="M391.5,-123.4C391.5,-114.06 391.5,-101.71 391.5,-91.52"/>
<polygon fill="midnightblue" stroke="midnightblue" points="395,-91.19 391.5,-81.19 388,-91.19 395,-91.19"/>
</g>
<!-- Node22 -->
<g id="node22" class="node">
<title>Node22</title>
<g id="a_node22"><a xlink:title=" ">
<polygon fill="none" stroke="#bfbfbf" points="442.5,-62 442.5,-81 494.5,-81 494.5,-62 442.5,-62"/>
<text text-anchor="middle" x="468.5" y="-69" font-family="Helvetica,sans-Serif" font-size="10.00">cassert</text>
</a>
</g>
</g>
<!-- Node19&#45;&gt;Node22 -->
<g id="edge24" class="edge">
<title>Node19&#45;&gt;Node22</title>
<path fill="none" stroke="midnightblue" d="M408.21,-123.4C420.69,-112.86 437.73,-98.48 450.51,-87.69"/>
<polygon fill="midnightblue" stroke="midnightblue" points="452.82,-90.32 458.2,-81.19 448.3,-84.97 452.82,-90.32"/>
</g>
<!-- Node23 -->
<g id="node23" class="node">
<title>Node23</title>
<g id="a_node23"><a xlink:title=" ">
<polygon fill="none" stroke="#bfbfbf" points="512.5,-62 512.5,-81 572.5,-81 572.5,-62 512.5,-62"/>
<text text-anchor="middle" x="542.5" y="-69" font-family="Helvetica,sans-Serif" font-size="10.00">iostream</text>
</a>
</g>
</g>
<!-- Node19&#45;&gt;Node23 -->
<g id="edge25" class="edge">
<title>Node19&#45;&gt;Node23</title>
<path fill="none" stroke="midnightblue" d="M424.26,-123.4C450.76,-111.99 487.72,-96.08 513.23,-85.1"/>
<polygon fill="midnightblue" stroke="midnightblue" points="514.94,-88.18 522.74,-81.01 512.17,-81.75 514.94,-88.18"/>
</g>
</g>
</svg>
        <g id="navigator" transform="translate(0 0)" fill="#404254">
                <rect fill="#f2f5e9" fill-opacity="0.5" stroke="#606060" stroke-width=".5" x="0" y="0" width="60" height="60"/>
                <use id="zoomplus" xlink:href="#zoomPlus" x="17" y="9" onmousedown="handleZoom(evt,'in')"/>
                <use id="zoomminus" xlink:href="#zoomMin" x="42" y="9" onmousedown="handleZoom(evt,'out')"/>
                <use id="reset" xlink:href="#resetDef" x="30" y="36" onmousedown="handleReset()"/>
                <g id="arrowUp" xlink:href="#dirArrow" transform="translate(30 24)" onmousedown="handlePan(0,-1)">
                  <use xlink:href="#rim" fill="#404040">
                        <set attributeName="fill" to="#808080" begin="arrowUp.mouseover" end="arrowUp.mouseout"/>
                  </use>
                  <path fill="none" stroke="white" stroke-width="1.5" d="M0,-3.0v7 M-2.5,-0.5L0,-3.0L2.5,-0.5"/>
                </g>
                <g id="arrowRight" xlink:href="#dirArrow" transform="rotate(90) translate(36 -43)" onmousedown="handlePan(1,0)">
                  <use xlink:href="#rim" fill="#404040">
                        <set attributeName="fill" to="#808080" begin="arrowRight.mouseover" end="arrowRight.mouseout"/>
                  </use>
                  <path fill="none" stroke="white" stroke-width="1.5" d="M0,-3.0v7 M-2.5,-0.5L0,-3.0L2.5,-0.5"/>
                </g>
                <g id="arrowDown" xlink:href="#dirArrow" transform="rotate(180) translate(-30 -48)" onmousedown="handlePan(0,1)">
                  <use xlink:href="#rim" fill="#404040">
                        <set attributeName="fill" to="#808080" begin="arrowDown.mouseover" end="arrowDown.mouseout"/>
                  </use>
                  <path fill="none" stroke="white" stroke-width="1.5" d="M0,-3.0v7 M-2.5,-0.5L0,-3.0L2.5,-0.5"/>
                </g>
                <g id="arrowLeft" xlink:href="#dirArrow" transform="rotate(270) translate(-36 17)" onmousedown="handlePan(-1,0)">
                  <use xlink:href="#rim" fill="#404040">
                        <set attributeName="fill" to="#808080" begin="arrowLeft.mouseover" end="arrowLeft.mouseout"/>
                  </use>
                  <path fill="none" stroke="white" stroke-width="1.5" d="M0,-3.0v7 M-2.5,-0.5L0,-3.0L2.5,-0.5"/>
                </g>
        </g>
        <svg viewBox="0 0 15 15" width="100%" height="30px" preserveAspectRatio="xMaxYMin meet">
         <g id="arrow_out" transform="scale(0.3 0.3)">
          <a xlink:href="ContactModel_8cpp__incl_org.svg" target="_base">
           <rect id="button" ry="5" rx="5" y="6" x="6" height="38" width="38"
                fill="#f2f5e9" fill-opacity="0.5" stroke="#606060" stroke-width="1.0"/>
           <path id="arrow"
             d="M 11.500037,31.436501 C 11.940474,20.09759 22.043105,11.32322 32.158766,21.979434 L 37.068811,17.246167 C 37.068811,17.246167 37.088388,32 37.088388,32 L 22.160133,31.978069 C 22.160133,31.978069 26.997745,27.140456 26.997745,27.140456 C 18.528582,18.264221 13.291696,25.230495 11.500037,31.436501 z"
             style="fill:#404040;"/>
          </a>
         </g>
        </svg>
</svg>
