<?xml version="1.0" encoding="UTF-8" standalone="no"?>
<!DOCTYPE svg PUBLIC "-//W3C//DTD SVG 1.1//EN"
 "http://www.w3.org/Graphics/SVG/1.1/DTD/svg11.dtd">
<!-- Generated by graphviz version 2.43.0 (0)
 -->
<!-- Title: Contacts/src/ContactDetector.cpp Pages: 1 -->
<!--zoomable 486 -->
<svg id="main" version="1.1" xmlns="http://www.w3.org/2000/svg" xmlns:xlink="http://www.w3.org/1999/xlink" xml:space="preserve" onload="init(evt)">
<style type="text/css"><![CDATA[
.edge:hover path { stroke: red; }
.edge:hover polygon { stroke: red; fill: red; }
]]></style>
<script type="text/javascript"><![CDATA[
var edges = document.getElementsByTagName('g');
if (edges && edges.length) {
  for (var i=0;i<edges.length;i++) {
    if (edges[i].id.substr(0,4)=='edge') {
      edges[i].setAttribute('class','edge');
    }
  }
}
]]></script>
        <defs>
                <circle id="rim" cx="0" cy="0" r="7"/>
                <circle id="rim2" cx="0" cy="0" r="3.5"/>
                <g id="zoomPlus">
                        <use xlink:href="#rim" fill="#404040">
                                <set attributeName="fill" to="#808080" begin="zoomplus.mouseover" end="zoomplus.mouseout"/>
                        </use>
                        <path d="M-4,0h8M0,-4v8" fill="none" stroke="white" stroke-width="1.5" pointer-events="none"/>
                </g>
                <g id="zoomMin">
                        <use xlink:href="#rim" fill="#404040">
                                <set attributeName="fill" to="#808080" begin="zoomminus.mouseover" end="zoomminus.mouseout"/>
                        </use>
                        <path d="M-4,0h8" fill="none" stroke="white" stroke-width="1.5" pointer-events="none"/>
                </g>
                <g id="dirArrow">
                        <path fill="none" stroke="white" stroke-width="1.5" d="M0,-3.0v7 M-2.5,-0.5L0,-3.0L2.5,-0.5"/>
                </g>
               <g id="resetDef">
                       <use xlink:href="#rim2" fill="#404040">
                               <set attributeName="fill" to="#808080" begin="reset.mouseover" end="reset.mouseout"/>
                       </use>
               </g>
        </defs>

<script type="text/javascript">
var viewWidth = 893;
var viewHeight = 486;
var sectionId = 'dynsection-0';
</script>
<script xlink:href="svgpan.js"/>
<svg id="graph" class="graph">
<g id="viewport">
<title>Contacts/src/ContactDetector.cpp</title>
<!-- Node1 -->
<g id="node1" class="node">
<title>Node1</title>
<g id="a_node1"><a xlink:title=" ">
<polygon fill="#bfbfbf" stroke="black" points="509,-458.5 509,-477.5 688,-477.5 688,-458.5 509,-458.5"/>
<text text-anchor="middle" x="598.5" y="-465.5" font-family="Helvetica,sans-Serif" font-size="10.00">Contacts/src/ContactDetector.cpp</text>
</a>
</g>
</g>
<!-- Node2 -->
<g id="node2" class="node">
<title>Node2</title>
<g id="a_node2"><a xlink:href="ContactDetector_8h.html" target="_top" xlink:title=" ">
<polygon fill="none" stroke="black" points="395,-391.5 395,-421.5 550,-421.5 550,-391.5 395,-391.5"/>
<text text-anchor="start" x="403" y="-409.5" font-family="Helvetica,sans-Serif" font-size="10.00">BipedalLocomotion/Contact</text>
<text text-anchor="middle" x="472.5" y="-398.5" font-family="Helvetica,sans-Serif" font-size="10.00">Detectors/ContactDetector.h</text>
</a>
</g>
</g>
<!-- Node1&#45;&gt;Node2 -->
<g id="edge1" class="edge">
<title>Node1&#45;&gt;Node2</title>
<path fill="none" stroke="midnightblue" d="M580.45,-458.48C562.51,-450 534.41,-436.74 511.39,-425.86"/>
<polygon fill="midnightblue" stroke="midnightblue" points="512.73,-422.63 502.2,-421.52 509.74,-428.96 512.73,-422.63"/>
</g>
<!-- Node25 -->
<g id="node25" class="node">
<title>Node25</title>
<g id="a_node25"><a xlink:href="Logger_8h.html" target="_top" xlink:title=" ">
<polygon fill="none" stroke="black" points="638.5,-391.5 638.5,-421.5 810.5,-421.5 810.5,-391.5 638.5,-391.5"/>
<text text-anchor="start" x="646.5" y="-409.5" font-family="Helvetica,sans-Serif" font-size="10.00">BipedalLocomotion/TextLogging</text>
<text text-anchor="middle" x="724.5" y="-398.5" font-family="Helvetica,sans-Serif" font-size="10.00">/Logger.h</text>
</a>
</g>
</g>
<!-- Node1&#45;&gt;Node25 -->
<g id="edge29" class="edge">
<title>Node1&#45;&gt;Node25</title>
<path fill="none" stroke="midnightblue" d="M616.55,-458.48C634.49,-450 662.59,-436.74 685.61,-425.86"/>
<polygon fill="midnightblue" stroke="midnightblue" points="687.26,-428.96 694.8,-421.52 684.27,-422.63 687.26,-428.96"/>
</g>
<!-- Node3 -->
<g id="node3" class="node">
<title>Node3</title>
<g id="a_node3"><a xlink:href="Contact_8h.html" target="_top" xlink:title=" ">
<polygon fill="none" stroke="black" points="500.5,-324.5 500.5,-354.5 656.5,-354.5 656.5,-324.5 500.5,-324.5"/>
<text text-anchor="start" x="508.5" y="-342.5" font-family="Helvetica,sans-Serif" font-size="10.00">BipedalLocomotion/Contacts</text>
<text text-anchor="middle" x="578.5" y="-331.5" font-family="Helvetica,sans-Serif" font-size="10.00">/Contact.h</text>
</a>
</g>
</g>
<!-- Node2&#45;&gt;Node3 -->
<g id="edge2" class="edge">
<title>Node2&#45;&gt;Node3</title>
<path fill="none" stroke="midnightblue" d="M495.5,-391.4C510.5,-382.2 530.29,-370.07 546.77,-359.95"/>
<polygon fill="midnightblue" stroke="midnightblue" points="548.85,-362.79 555.54,-354.58 545.19,-356.82 548.85,-362.79"/>
</g>
<!-- Node9 -->
<g id="node9" class="node">
<title>Node9</title>
<g id="a_node9"><a xlink:href="IParametersHandler_8h.html" target="_top" xlink:title=" ">
<polygon fill="none" stroke="black" points="287,-190.5 287,-220.5 456,-220.5 456,-190.5 287,-190.5"/>
<text text-anchor="start" x="295" y="-208.5" font-family="Helvetica,sans-Serif" font-size="10.00">BipedalLocomotion/Parameters</text>
<text text-anchor="middle" x="371.5" y="-197.5" font-family="Helvetica,sans-Serif" font-size="10.00">Handler/IParametersHandler.h</text>
</a>
</g>
</g>
<!-- Node2&#45;&gt;Node9 -->
<g id="edge9" class="edge">
<title>Node2&#45;&gt;Node9</title>
<path fill="none" stroke="midnightblue" d="M470.64,-391.44C468.07,-374.78 462.59,-346.46 452.5,-324 436.3,-287.92 408.81,-251.16 390.41,-228.59"/>
<polygon fill="midnightblue" stroke="midnightblue" points="392.92,-226.13 383.85,-220.66 387.53,-230.6 392.92,-226.13"/>
</g>
<!-- Node21 -->
<g id="node21" class="node">
<title>Node21</title>
<g id="a_node21"><a xlink:href="Source_8h.html" target="_top" xlink:title=" ">
<polygon fill="none" stroke="black" points="183.5,-324.5 183.5,-354.5 333.5,-354.5 333.5,-324.5 183.5,-324.5"/>
<text text-anchor="start" x="191.5" y="-342.5" font-family="Helvetica,sans-Serif" font-size="10.00">BipedalLocomotion/System</text>
<text text-anchor="middle" x="258.5" y="-331.5" font-family="Helvetica,sans-Serif" font-size="10.00">/Source.h</text>
</a>
</g>
</g>
<!-- Node2&#45;&gt;Node21 -->
<g id="edge24" class="edge">
<title>Node2&#45;&gt;Node21</title>
<path fill="none" stroke="midnightblue" d="M426.33,-391.48C393.67,-381.56 349.7,-368.2 314.96,-357.65"/>
<polygon fill="midnightblue" stroke="midnightblue" points="315.54,-354.17 304.96,-354.61 313.51,-360.87 315.54,-354.17"/>
</g>
<!-- Node24 -->
<g id="node24" class="node">
<title>Node24</title>
<g id="a_node24"><a xlink:title=" ">
<polygon fill="none" stroke="#bfbfbf" points="351,-330 351,-349 444,-349 444,-330 351,-330"/>
<text text-anchor="middle" x="397.5" y="-337" font-family="Helvetica,sans-Serif" font-size="10.00">unordered_map</text>
</a>
</g>
</g>
<!-- Node2&#45;&gt;Node24 -->
<g id="edge28" class="edge">
<title>Node2&#45;&gt;Node24</title>
<path fill="none" stroke="midnightblue" d="M456.23,-391.4C444.18,-380.96 427.79,-366.75 415.38,-356"/>
<polygon fill="midnightblue" stroke="midnightblue" points="417.38,-353.1 407.53,-349.19 412.8,-358.39 417.38,-353.1"/>
</g>
<!-- Node4 -->
<g id="node4" class="node">
<title>Node4</title>
<g id="a_node4"><a xlink:href="Wrench_8h.html" target="_top" xlink:title=" ">
<polygon fill="none" stroke="black" points="576.5,-257.5 576.5,-287.5 714.5,-287.5 714.5,-257.5 576.5,-257.5"/>
<text text-anchor="start" x="584.5" y="-275.5" font-family="Helvetica,sans-Serif" font-size="10.00">BipedalLocomotion/Math</text>
<text text-anchor="middle" x="645.5" y="-264.5" font-family="Helvetica,sans-Serif" font-size="10.00">/Wrench.h</text>
</a>
</g>
</g>
<!-- Node3&#45;&gt;Node4 -->
<g id="edge3" class="edge">
<title>Node3&#45;&gt;Node4</title>
<path fill="none" stroke="midnightblue" d="M593.04,-324.4C601.99,-315.71 613.64,-304.4 623.69,-294.66"/>
<polygon fill="midnightblue" stroke="midnightblue" points="626.25,-297.05 630.99,-287.58 621.38,-292.03 626.25,-297.05"/>
</g>
<!-- Node6 -->
<g id="node6" class="node">
<title>Node6</title>
<g id="a_node6"><a xlink:title=" ">
<polygon fill="none" stroke="#bfbfbf" points="736,-196 736,-215 811,-215 811,-196 736,-196"/>
<text text-anchor="middle" x="773.5" y="-203" font-family="Helvetica,sans-Serif" font-size="10.00">manif/SE3.h</text>
</a>
</g>
</g>
<!-- Node3&#45;&gt;Node6 -->
<g id="edge7" class="edge">
<title>Node3&#45;&gt;Node6</title>
<path fill="none" stroke="midnightblue" d="M649.05,-324.4C674.46,-316.76 702.11,-305.22 723.5,-288 744.46,-271.13 758.92,-242.95 766.71,-224.54"/>
<polygon fill="midnightblue" stroke="midnightblue" points="769.97,-225.81 770.44,-215.23 763.48,-223.21 769.97,-225.81"/>
</g>
<!-- Node8 -->
<g id="node8" class="node">
<title>Node8</title>
<g id="a_node8"><a xlink:title=" ">
<polygon fill="none" stroke="#bfbfbf" points="499.5,-129 499.5,-148 543.5,-148 543.5,-129 499.5,-129"/>
<text text-anchor="middle" x="521.5" y="-136" font-family="Helvetica,sans-Serif" font-size="10.00">string</text>
</a>
</g>
</g>
<!-- Node3&#45;&gt;Node8 -->
<g id="edge8" class="edge">
<title>Node3&#45;&gt;Node8</title>
<path fill="none" stroke="midnightblue" d="M572.57,-324.27C563.65,-302.4 546.74,-259.08 536.5,-221 530.79,-199.78 526.56,-174.86 524.07,-158.22"/>
<polygon fill="midnightblue" stroke="midnightblue" points="527.51,-157.57 522.63,-148.17 520.58,-158.56 527.51,-157.57"/>
</g>
<!-- Node5 -->
<g id="node5" class="node">
<title>Node5</title>
<g id="a_node5"><a xlink:title=" ">
<polygon fill="none" stroke="#bfbfbf" points="641,-196 641,-215 718,-215 718,-196 641,-196"/>
<text text-anchor="middle" x="679.5" y="-203" font-family="Helvetica,sans-Serif" font-size="10.00">Eigen/Dense</text>
</a>
</g>
</g>
<!-- Node4&#45;&gt;Node5 -->
<g id="edge4" class="edge">
<title>Node4&#45;&gt;Node5</title>
<path fill="none" stroke="midnightblue" d="M652.88,-257.4C657.97,-247.66 664.78,-234.65 670.23,-224.21"/>
<polygon fill="midnightblue" stroke="midnightblue" points="673.42,-225.68 674.95,-215.19 667.22,-222.43 673.42,-225.68"/>
</g>
<!-- Node4&#45;&gt;Node6 -->
<g id="edge5" class="edge">
<title>Node4&#45;&gt;Node6</title>
<path fill="none" stroke="midnightblue" d="M673.27,-257.4C695.44,-246.14 726.24,-230.5 747.83,-219.54"/>
<polygon fill="midnightblue" stroke="midnightblue" points="749.42,-222.66 756.75,-215.01 746.25,-216.41 749.42,-222.66"/>
</g>
<!-- Node7 -->
<g id="node7" class="node">
<title>Node7</title>
<g id="a_node7"><a xlink:title=" ">
<polygon fill="none" stroke="#bfbfbf" points="546,-196 546,-215 623,-215 623,-196 546,-196"/>
<text text-anchor="middle" x="584.5" y="-203" font-family="Helvetica,sans-Serif" font-size="10.00">manif/SO3.h</text>
</a>
</g>
</g>
<!-- Node4&#45;&gt;Node7 -->
<g id="edge6" class="edge">
<title>Node4&#45;&gt;Node7</title>
<path fill="none" stroke="midnightblue" d="M632.26,-257.4C622.66,-247.16 609.65,-233.3 599.63,-222.62"/>
<polygon fill="midnightblue" stroke="midnightblue" points="602.05,-220.09 592.66,-215.19 596.95,-224.88 602.05,-220.09"/>
</g>
<!-- Node9&#45;&gt;Node8 -->
<g id="edge11" class="edge">
<title>Node9&#45;&gt;Node8</title>
<path fill="none" stroke="midnightblue" d="M404.05,-190.4C430.37,-178.99 467.09,-163.08 492.43,-152.1"/>
<polygon fill="midnightblue" stroke="midnightblue" points="494.08,-155.19 501.87,-148.01 491.3,-148.77 494.08,-155.19"/>
</g>
<!-- Node10 -->
<g id="node10" class="node">
<title>Node10</title>
<g id="a_node10"><a xlink:title=" ">
<polygon fill="none" stroke="#bfbfbf" points="592.5,-62 592.5,-81 650.5,-81 650.5,-62 592.5,-62"/>
<text text-anchor="middle" x="621.5" y="-69" font-family="Helvetica,sans-Serif" font-size="10.00">memory</text>
</a>
</g>
</g>
<!-- Node9&#45;&gt;Node10 -->
<g id="edge10" class="edge">
<title>Node9&#45;&gt;Node10</title>
<path fill="none" stroke="midnightblue" d="M395.39,-190.35C411.53,-180.57 433.15,-167.03 451.5,-154 469.56,-141.18 471.28,-134 490.5,-123 495.03,-120.41 552.09,-98.7 589.39,-84.6"/>
<polygon fill="midnightblue" stroke="midnightblue" points="590.75,-87.83 598.87,-81.02 588.28,-81.28 590.75,-87.83"/>
</g>
<!-- Node11 -->
<g id="node11" class="node">
<title>Node11</title>
<g id="a_node11"><a xlink:title=" ">
<polygon fill="none" stroke="#bfbfbf" points="188,-129 188,-148 235,-148 235,-129 188,-129"/>
<text text-anchor="middle" x="211.5" y="-136" font-family="Helvetica,sans-Serif" font-size="10.00">vector</text>
</a>
</g>
</g>
<!-- Node9&#45;&gt;Node11 -->
<g id="edge12" class="edge">
<title>Node9&#45;&gt;Node11</title>
<path fill="none" stroke="midnightblue" d="M336.78,-190.4C308.46,-178.89 268.85,-162.8 241.79,-151.81"/>
<polygon fill="midnightblue" stroke="midnightblue" points="243.02,-148.53 232.44,-148.01 240.39,-155.01 243.02,-148.53"/>
</g>
<!-- Node12 -->
<g id="node12" class="node">
<title>Node12</title>
<g id="a_node12"><a xlink:href="TemplateHelpers_8h_source.html" target="_top" xlink:title=" ">
<polygon fill="none" stroke="black" points="44.5,-56.5 44.5,-86.5 202.5,-86.5 202.5,-56.5 44.5,-56.5"/>
<text text-anchor="start" x="52.5" y="-74.5" font-family="Helvetica,sans-Serif" font-size="10.00">BipedalLocomotion/Generic</text>
<text text-anchor="middle" x="123.5" y="-63.5" font-family="Helvetica,sans-Serif" font-size="10.00">Container/TemplateHelpers.h</text>
</a>
</g>
</g>
<!-- Node9&#45;&gt;Node12 -->
<g id="edge13" class="edge">
<title>Node9&#45;&gt;Node12</title>
<path fill="none" stroke="midnightblue" d="M343.97,-190.31C326.04,-180.73 302.38,-167.42 282.5,-154 264.15,-141.61 262.55,-134.29 243.5,-123 221.73,-110.1 196.06,-98.83 174.06,-90.22"/>
<polygon fill="midnightblue" stroke="midnightblue" points="175.14,-86.89 164.55,-86.58 172.64,-93.43 175.14,-86.89"/>
</g>
<!-- Node16 -->
<g id="node16" class="node">
<title>Node16</title>
<g id="a_node16"><a xlink:href="Vector_8h_source.html" target="_top" xlink:title=" ">
<polygon fill="none" stroke="black" points="292,-123.5 292,-153.5 443,-153.5 443,-123.5 292,-123.5"/>
<text text-anchor="start" x="300" y="-141.5" font-family="Helvetica,sans-Serif" font-size="10.00">BipedalLocomotion/Generic</text>
<text text-anchor="middle" x="367.5" y="-130.5" font-family="Helvetica,sans-Serif" font-size="10.00">Container/Vector.h</text>
</a>
</g>
</g>
<!-- Node9&#45;&gt;Node16 -->
<g id="edge17" class="edge">
<title>Node9&#45;&gt;Node16</title>
<path fill="none" stroke="midnightblue" d="M370.63,-190.4C370.15,-182.56 369.54,-172.6 368.98,-163.57"/>
<polygon fill="midnightblue" stroke="midnightblue" points="372.47,-163.34 368.37,-153.58 365.49,-163.77 372.47,-163.34"/>
</g>
<!-- Node13 -->
<g id="node13" class="node">
<title>Node13</title>
<g id="a_node13"><a xlink:title=" ">
<polygon fill="none" stroke="#bfbfbf" points="0,-0.5 0,-19.5 69,-19.5 69,-0.5 0,-0.5"/>
<text text-anchor="middle" x="34.5" y="-7.5" font-family="Helvetica,sans-Serif" font-size="10.00">type_traits</text>
</a>
</g>
</g>
<!-- Node12&#45;&gt;Node13 -->
<g id="edge14" class="edge">
<title>Node12&#45;&gt;Node13</title>
<path fill="none" stroke="midnightblue" d="M102.41,-56.4C88.41,-47.04 70.09,-34.79 56.01,-25.38"/>
<polygon fill="midnightblue" stroke="midnightblue" points="57.71,-22.31 47.45,-19.66 53.82,-28.13 57.71,-22.31"/>
</g>
<!-- Node14 -->
<g id="node14" class="node">
<title>Node14</title>
<g id="a_node14"><a xlink:title=" ">
<polygon fill="none" stroke="#bfbfbf" points="87,-0.5 87,-19.5 160,-19.5 160,-0.5 87,-0.5"/>
<text text-anchor="middle" x="123.5" y="-7.5" font-family="Helvetica,sans-Serif" font-size="10.00">string_view</text>
</a>
</g>
</g>
<!-- Node12&#45;&gt;Node14 -->
<g id="edge15" class="edge">
<title>Node12&#45;&gt;Node14</title>
<path fill="none" stroke="midnightblue" d="M123.5,-56.4C123.5,-48.47 123.5,-38.46 123.5,-29.86"/>
<polygon fill="midnightblue" stroke="midnightblue" points="127,-29.66 123.5,-19.66 120,-29.66 127,-29.66"/>
</g>
<!-- Node15 -->
<g id="node15" class="node">
<title>Node15</title>
<g id="a_node15"><a xlink:title=" ">
<polygon fill="none" stroke="#bfbfbf" points="178,-0.5 178,-19.5 247,-19.5 247,-0.5 178,-0.5"/>
<text text-anchor="middle" x="212.5" y="-7.5" font-family="Helvetica,sans-Serif" font-size="10.00">Eigen/Core</text>
</a>
</g>
</g>
<!-- Node12&#45;&gt;Node15 -->
<g id="edge16" class="edge">
<title>Node12&#45;&gt;Node15</title>
<path fill="none" stroke="midnightblue" d="M144.59,-56.4C158.59,-47.04 176.91,-34.79 190.99,-25.38"/>
<polygon fill="midnightblue" stroke="midnightblue" points="193.18,-28.13 199.55,-19.66 189.29,-22.31 193.18,-28.13"/>
</g>
<!-- Node16&#45;&gt;Node10 -->
<g id="edge23" class="edge">
<title>Node16&#45;&gt;Node10</title>
<path fill="none" stroke="midnightblue" d="M437.32,-123.42C479.67,-114.31 534.6,-101.47 582.5,-87 585.07,-86.22 587.71,-85.37 590.36,-84.47"/>
<polygon fill="midnightblue" stroke="midnightblue" points="591.55,-87.76 599.8,-81.12 589.2,-81.17 591.55,-87.76"/>
</g>
<!-- Node16&#45;&gt;Node12 -->
<g id="edge19" class="edge">
<title>Node16&#45;&gt;Node12</title>
<path fill="none" stroke="midnightblue" d="M314.86,-123.48C277.14,-113.43 226.19,-99.86 186.35,-89.24"/>
<polygon fill="midnightblue" stroke="midnightblue" points="187.03,-85.8 176.47,-86.61 185.23,-92.57 187.03,-85.8"/>
</g>
<!-- Node17 -->
<g id="node17" class="node">
<title>Node17</title>
<g id="a_node17"><a xlink:title=" ">
<polygon fill="none" stroke="#bfbfbf" points="453,-62 453,-81 574,-81 574,-62 453,-62"/>
<text text-anchor="middle" x="513.5" y="-69" font-family="Helvetica,sans-Serif" font-size="10.00">iDynTree/Core/Span.h</text>
</a>
</g>
</g>
<!-- Node16&#45;&gt;Node17 -->
<g id="edge18" class="edge">
<title>Node16&#45;&gt;Node17</title>
<path fill="none" stroke="midnightblue" d="M399.18,-123.4C424.8,-111.99 460.54,-96.08 485.2,-85.1"/>
<polygon fill="midnightblue" stroke="midnightblue" points="486.68,-88.27 494.39,-81.01 483.83,-81.88 486.68,-88.27"/>
</g>
<!-- Node18 -->
<g id="node18" class="node">
<title>Node18</title>
<g id="a_node18"><a xlink:title=" ">
<polygon fill="none" stroke="#bfbfbf" points="221,-62 221,-81 286,-81 286,-62 221,-62"/>
<text text-anchor="middle" x="253.5" y="-69" font-family="Helvetica,sans-Serif" font-size="10.00">functional</text>
</a>
</g>
</g>
<!-- Node16&#45;&gt;Node18 -->
<g id="edge20" class="edge">
<title>Node16&#45;&gt;Node18</title>
<path fill="none" stroke="midnightblue" d="M342.76,-123.4C323.29,-112.29 296.33,-96.92 277.15,-85.98"/>
<polygon fill="midnightblue" stroke="midnightblue" points="278.84,-82.92 268.42,-81.01 275.37,-89 278.84,-82.92"/>
</g>
<!-- Node19 -->
<g id="node19" class="node">
<title>Node19</title>
<g id="a_node19"><a xlink:title=" ">
<polygon fill="none" stroke="#bfbfbf" points="304.5,-62 304.5,-81 356.5,-81 356.5,-62 304.5,-62"/>
<text text-anchor="middle" x="330.5" y="-69" font-family="Helvetica,sans-Serif" font-size="10.00">cassert</text>
</a>
</g>
</g>
<!-- Node16&#45;&gt;Node19 -->
<g id="edge21" class="edge">
<title>Node16&#45;&gt;Node19</title>
<path fill="none" stroke="midnightblue" d="M359.47,-123.4C353.87,-113.56 346.37,-100.38 340.4,-89.89"/>
<polygon fill="midnightblue" stroke="midnightblue" points="343.44,-88.15 335.45,-81.19 337.35,-91.62 343.44,-88.15"/>
</g>
<!-- Node20 -->
<g id="node20" class="node">
<title>Node20</title>
<g id="a_node20"><a xlink:title=" ">
<polygon fill="none" stroke="#bfbfbf" points="374.5,-62 374.5,-81 434.5,-81 434.5,-62 374.5,-62"/>
<text text-anchor="middle" x="404.5" y="-69" font-family="Helvetica,sans-Serif" font-size="10.00">iostream</text>
</a>
</g>
</g>
<!-- Node16&#45;&gt;Node20 -->
<g id="edge22" class="edge">
<title>Node16&#45;&gt;Node20</title>
<path fill="none" stroke="midnightblue" d="M375.53,-123.4C381.13,-113.56 388.63,-100.38 394.6,-89.89"/>
<polygon fill="midnightblue" stroke="midnightblue" points="397.65,-91.62 399.55,-81.19 391.56,-88.15 397.65,-91.62"/>
</g>
<!-- Node22 -->
<g id="node22" class="node">
<title>Node22</title>
<g id="a_node22"><a xlink:href="Advanceable_8h.html" target="_top" xlink:title=" ">
<polygon fill="none" stroke="black" points="183.5,-257.5 183.5,-287.5 333.5,-287.5 333.5,-257.5 183.5,-257.5"/>
<text text-anchor="start" x="191.5" y="-275.5" font-family="Helvetica,sans-Serif" font-size="10.00">BipedalLocomotion/System</text>
<text text-anchor="middle" x="258.5" y="-264.5" font-family="Helvetica,sans-Serif" font-size="10.00">/Advanceable.h</text>
</a>
</g>
</g>
<!-- Node21&#45;&gt;Node22 -->
<g id="edge25" class="edge">
<title>Node21&#45;&gt;Node22</title>
<path fill="none" stroke="midnightblue" d="M258.5,-324.4C258.5,-316.64 258.5,-306.81 258.5,-297.86"/>
<polygon fill="midnightblue" stroke="midnightblue" points="262,-297.58 258.5,-287.58 255,-297.58 262,-297.58"/>
</g>
<!-- Node22&#45;&gt;Node9 -->
<g id="edge27" class="edge">
<title>Node22&#45;&gt;Node9</title>
<path fill="none" stroke="midnightblue" d="M283.02,-257.4C299.16,-248.11 320.49,-235.84 338.17,-225.67"/>
<polygon fill="midnightblue" stroke="midnightblue" points="340.11,-228.6 347.03,-220.58 336.62,-222.53 340.11,-228.6"/>
</g>
<!-- Node23 -->
<g id="node23" class="node">
<title>Node23</title>
<g id="a_node23"><a xlink:title=" ">
<polygon fill="none" stroke="#bfbfbf" points="218,-196 218,-215 269,-215 269,-196 218,-196"/>
<text text-anchor="middle" x="243.5" y="-203" font-family="Helvetica,sans-Serif" font-size="10.00">variant</text>
</a>
</g>
</g>
<!-- Node22&#45;&gt;Node23 -->
<g id="edge26" class="edge">
<title>Node22&#45;&gt;Node23</title>
<path fill="none" stroke="midnightblue" d="M255.25,-257.4C253.07,-247.96 250.18,-235.45 247.81,-225.19"/>
<polygon fill="midnightblue" stroke="midnightblue" points="251.17,-224.15 245.51,-215.19 244.34,-225.73 251.17,-224.15"/>
</g>
<!-- Node26 -->
<g id="node26" class="node">
<title>Node26</title>
<g id="a_node26"><a xlink:title=" ">
<polygon fill="none" stroke="#bfbfbf" points="675,-330 675,-349 774,-349 774,-330 675,-330"/>
<text text-anchor="middle" x="724.5" y="-337" font-family="Helvetica,sans-Serif" font-size="10.00">spdlog/fmt/ostr.h</text>
</a>
</g>
</g>
<!-- Node25&#45;&gt;Node26 -->
<g id="edge30" class="edge">
<title>Node25&#45;&gt;Node26</title>
<path fill="none" stroke="midnightblue" d="M724.5,-391.4C724.5,-382.06 724.5,-369.71 724.5,-359.52"/>
<polygon fill="midnightblue" stroke="midnightblue" points="728,-359.19 724.5,-349.19 721,-359.19 728,-359.19"/>
</g>
<!-- Node27 -->
<g id="node27" class="node">
<title>Node27</title>
<g id="a_node27"><a xlink:title=" ">
<polygon fill="none" stroke="#bfbfbf" points="792,-330 792,-349 885,-349 885,-330 792,-330"/>
<text text-anchor="middle" x="838.5" y="-337" font-family="Helvetica,sans-Serif" font-size="10.00">spdlog/spdlog.h</text>
</a>
</g>
</g>
<!-- Node25&#45;&gt;Node27 -->
<g id="edge31" class="edge">
<title>Node25&#45;&gt;Node27</title>
<path fill="none" stroke="midnightblue" d="M749.24,-391.4C768.71,-380.29 795.67,-364.92 814.85,-353.98"/>
<polygon fill="midnightblue" stroke="midnightblue" points="816.63,-357 823.58,-349.01 813.16,-350.92 816.63,-357"/>
</g>
</g>
</svg>
        <g id="navigator" transform="translate(0 0)" fill="#404254">
                <rect fill="#f2f5e9" fill-opacity="0.5" stroke="#606060" stroke-width=".5" x="0" y="0" width="60" height="60"/>
                <use id="zoomplus" xlink:href="#zoomPlus" x="17" y="9" onmousedown="handleZoom(evt,'in')"/>
                <use id="zoomminus" xlink:href="#zoomMin" x="42" y="9" onmousedown="handleZoom(evt,'out')"/>
                <use id="reset" xlink:href="#resetDef" x="30" y="36" onmousedown="handleReset()"/>
                <g id="arrowUp" xlink:href="#dirArrow" transform="translate(30 24)" onmousedown="handlePan(0,-1)">
                  <use xlink:href="#rim" fill="#404040">
                        <set attributeName="fill" to="#808080" begin="arrowUp.mouseover" end="arrowUp.mouseout"/>
                  </use>
                  <path fill="none" stroke="white" stroke-width="1.5" d="M0,-3.0v7 M-2.5,-0.5L0,-3.0L2.5,-0.5"/>
                </g>
                <g id="arrowRight" xlink:href="#dirArrow" transform="rotate(90) translate(36 -43)" onmousedown="handlePan(1,0)">
                  <use xlink:href="#rim" fill="#404040">
                        <set attributeName="fill" to="#808080" begin="arrowRight.mouseover" end="arrowRight.mouseout"/>
                  </use>
                  <path fill="none" stroke="white" stroke-width="1.5" d="M0,-3.0v7 M-2.5,-0.5L0,-3.0L2.5,-0.5"/>
                </g>
                <g id="arrowDown" xlink:href="#dirArrow" transform="rotate(180) translate(-30 -48)" onmousedown="handlePan(0,1)">
                  <use xlink:href="#rim" fill="#404040">
                        <set attributeName="fill" to="#808080" begin="arrowDown.mouseover" end="arrowDown.mouseout"/>
                  </use>
                  <path fill="none" stroke="white" stroke-width="1.5" d="M0,-3.0v7 M-2.5,-0.5L0,-3.0L2.5,-0.5"/>
                </g>
                <g id="arrowLeft" xlink:href="#dirArrow" transform="rotate(270) translate(-36 17)" onmousedown="handlePan(-1,0)">
                  <use xlink:href="#rim" fill="#404040">
                        <set attributeName="fill" to="#808080" begin="arrowLeft.mouseover" end="arrowLeft.mouseout"/>
                  </use>
                  <path fill="none" stroke="white" stroke-width="1.5" d="M0,-3.0v7 M-2.5,-0.5L0,-3.0L2.5,-0.5"/>
                </g>
        </g>
        <svg viewBox="0 0 15 15" width="100%" height="30px" preserveAspectRatio="xMaxYMin meet">
         <g id="arrow_out" transform="scale(0.3 0.3)">
          <a xlink:href="ContactDetector_8cpp__incl_org.svg" target="_base">
           <rect id="button" ry="5" rx="5" y="6" x="6" height="38" width="38"
                fill="#f2f5e9" fill-opacity="0.5" stroke="#606060" stroke-width="1.0"/>
           <path id="arrow"
             d="M 11.500037,31.436501 C 11.940474,20.09759 22.043105,11.32322 32.158766,21.979434 L 37.068811,17.246167 C 37.068811,17.246167 37.088388,32 37.088388,32 L 22.160133,31.978069 C 22.160133,31.978069 26.997745,27.140456 26.997745,27.140456 C 18.528582,18.264221 13.291696,25.230495 11.500037,31.436501 z"
             style="fill:#404040;"/>
          </a>
         </g>
        </svg>
</svg>
