<?xml version="1.0" encoding="UTF-8" standalone="no"?>
<!DOCTYPE svg PUBLIC "-//W3C//DTD SVG 1.1//EN"
 "http://www.w3.org/Graphics/SVG/1.1/DTD/svg11.dtd">
<!-- Generated by graphviz version 2.43.0 (0)
 -->
<!-- Title: Contacts/include/BipedalLocomotion/Contacts/Contact.h Pages: 1 -->
<svg width="1639pt" height="507pt"
 viewBox="0.00 0.00 1639.00 507.00" xmlns="http://www.w3.org/2000/svg" xmlns:xlink="http://www.w3.org/1999/xlink">
<g id="graph0" class="graph" transform="scale(1 1) rotate(0) translate(4 503)">
<title>Contacts/include/BipedalLocomotion/Contacts/Contact.h</title>
<!-- Node1 -->
<g id="node1" class="node">
<title>Node1</title>
<g id="a_node1"><a xlink:title=" ">
<polygon fill="#bfbfbf" stroke="black" points="768.5,-468.5 768.5,-498.5 937.5,-498.5 937.5,-468.5 768.5,-468.5"/>
<text text-anchor="start" x="776.5" y="-486.5" font-family="Helvetica,sans-Serif" font-size="10.00">Contacts/include/Bipedal</text>
<text text-anchor="middle" x="853" y="-475.5" font-family="Helvetica,sans-Serif" font-size="10.00">Locomotion/Contacts/Contact.h</text>
</a>
</g>
</g>
<!-- Node2 -->
<g id="node2" class="node">
<title>Node2</title>
<g id="a_node2"><a xlink:href="ContactDetector_8h.html" target="_top" xlink:title=" ">
<polygon fill="none" stroke="black" points="827.5,-390.5 827.5,-431.5 988.5,-431.5 988.5,-390.5 827.5,-390.5"/>
<text text-anchor="start" x="835.5" y="-419.5" font-family="Helvetica,sans-Serif" font-size="10.00">Contacts/include/Bipedal</text>
<text text-anchor="start" x="835.5" y="-408.5" font-family="Helvetica,sans-Serif" font-size="10.00">Locomotion/ContactDetectors</text>
<text text-anchor="middle" x="908" y="-397.5" font-family="Helvetica,sans-Serif" font-size="10.00">/ContactDetector.h</text>
</a>
</g>
</g>
<!-- Node1&#45;&gt;Node2 -->
<g id="edge1" class="edge">
<title>Node1&#45;&gt;Node2</title>
<path fill="none" stroke="midnightblue" d="M870.35,-460.26C877.53,-451.06 885.77,-440.49 892.72,-431.59"/>
<polygon fill="midnightblue" stroke="midnightblue" points="867.52,-458.2 864.13,-468.23 873.04,-462.5 867.52,-458.2"/>
</g>
<!-- Node3 -->
<g id="node3" class="node">
<title>Node3</title>
<g id="a_node3"><a xlink:href="FixedFootDetector_8h.html" target="_top" xlink:title=" ">
<polygon fill="none" stroke="black" points="581.5,-145.5 581.5,-186.5 742.5,-186.5 742.5,-145.5 581.5,-145.5"/>
<text text-anchor="start" x="589.5" y="-174.5" font-family="Helvetica,sans-Serif" font-size="10.00">Contacts/include/Bipedal</text>
<text text-anchor="start" x="589.5" y="-163.5" font-family="Helvetica,sans-Serif" font-size="10.00">Locomotion/ContactDetectors</text>
<text text-anchor="middle" x="662" y="-152.5" font-family="Helvetica,sans-Serif" font-size="10.00">/FixedFootDetector.h</text>
</a>
</g>
</g>
<!-- Node1&#45;&gt;Node3 -->
<g id="edge7" class="edge">
<title>Node1&#45;&gt;Node3</title>
<path fill="none" stroke="midnightblue" d="M834.97,-460.14C828.87,-451.71 822.48,-441.79 818,-432 778.05,-344.77 822.88,-298.75 764,-223 751.73,-207.21 733.69,-195.26 716.19,-186.54"/>
<polygon fill="midnightblue" stroke="midnightblue" points="832.31,-462.43 841.12,-468.31 837.9,-458.21 832.31,-462.43"/>
</g>
<!-- Node8 -->
<g id="node8" class="node">
<title>Node8</title>
<g id="a_node8"><a xlink:href="ContactList_8h.html" target="_top" xlink:title=" ">
<polygon fill="none" stroke="black" points="331,-396 331,-426 517,-426 517,-396 331,-396"/>
<text text-anchor="start" x="339" y="-414" font-family="Helvetica,sans-Serif" font-size="10.00">Contacts/include/Bipedal</text>
<text text-anchor="middle" x="424" y="-403" font-family="Helvetica,sans-Serif" font-size="10.00">Locomotion/Contacts/ContactList.h</text>
</a>
</g>
</g>
<!-- Node1&#45;&gt;Node8 -->
<g id="edge8" class="edge">
<title>Node1&#45;&gt;Node8</title>
<path fill="none" stroke="midnightblue" d="M758.2,-466.92C683.84,-454.7 581.25,-437.84 509.42,-426.04"/>
<polygon fill="midnightblue" stroke="midnightblue" points="758.06,-470.45 768.5,-468.61 759.2,-463.54 758.06,-470.45"/>
</g>
<!-- Node9 -->
<g id="node9" class="node">
<title>Node9</title>
<g id="a_node9"><a xlink:href="ContactPhase_8h.html" target="_top" xlink:title=" ">
<polygon fill="none" stroke="black" points="573,-318 573,-348 771,-348 771,-318 573,-318"/>
<text text-anchor="start" x="581" y="-336" font-family="Helvetica,sans-Serif" font-size="10.00">Contacts/include/Bipedal</text>
<text text-anchor="middle" x="672" y="-325" font-family="Helvetica,sans-Serif" font-size="10.00">Locomotion/Contacts/ContactPhase.h</text>
</a>
</g>
</g>
<!-- Node1&#45;&gt;Node9 -->
<g id="edge24" class="edge">
<title>Node1&#45;&gt;Node9</title>
<path fill="none" stroke="midnightblue" d="M824.89,-462.36C812.49,-453.29 797.86,-442.32 785,-432 749.16,-403.22 708.86,-367.39 687.4,-348.02"/>
<polygon fill="midnightblue" stroke="midnightblue" points="822.92,-465.25 833.06,-468.3 827.03,-459.59 822.92,-465.25"/>
</g>
<!-- Node10 -->
<g id="node10" class="node">
<title>Node10</title>
<g id="a_node10"><a xlink:href="ContactPhaseList_8h_source.html" target="_top" xlink:title=" ">
<polygon fill="none" stroke="black" points="71.5,-229 71.5,-270 260.5,-270 260.5,-229 71.5,-229"/>
<text text-anchor="start" x="79.5" y="-258" font-family="Helvetica,sans-Serif" font-size="10.00">Contacts/include/Bipedal</text>
<text text-anchor="start" x="79.5" y="-247" font-family="Helvetica,sans-Serif" font-size="10.00">Locomotion/Contacts/ContactPhase</text>
<text text-anchor="middle" x="166" y="-236" font-family="Helvetica,sans-Serif" font-size="10.00">List.h</text>
</a>
</g>
</g>
<!-- Node1&#45;&gt;Node10 -->
<g id="edge25" class="edge">
<title>Node1&#45;&gt;Node10</title>
<path fill="none" stroke="midnightblue" d="M758.13,-482.67C650.63,-480.76 471.01,-471.17 322,-432 239.64,-410.35 193.36,-425.43 147,-354 130.39,-328.41 143.54,-292.16 154.68,-270.05"/>
<polygon fill="midnightblue" stroke="midnightblue" points="758.25,-486.17 768.3,-482.83 758.36,-479.17 758.25,-486.17"/>
</g>
<!-- Node20 -->
<g id="node20" class="node">
<title>Node20</title>
<g id="a_node20"><a xlink:href="Contact_8cpp.html" target="_top" xlink:title=" ">
<polygon fill="none" stroke="black" points="1006.5,-401.5 1006.5,-420.5 1143.5,-420.5 1143.5,-401.5 1006.5,-401.5"/>
<text text-anchor="middle" x="1075" y="-408.5" font-family="Helvetica,sans-Serif" font-size="10.00">Contacts/src/Contact.cpp</text>
</a>
</g>
</g>
<!-- Node1&#45;&gt;Node20 -->
<g id="edge26" class="edge">
<title>Node1&#45;&gt;Node20</title>
<path fill="none" stroke="midnightblue" d="M906.67,-465.46C951.35,-451.27 1013.12,-431.65 1048.06,-420.55"/>
<polygon fill="midnightblue" stroke="midnightblue" points="905.6,-462.12 897.13,-468.49 907.72,-468.8 905.6,-462.12"/>
</g>
<!-- Node21 -->
<g id="node21" class="node">
<title>Node21</title>
<g id="a_node21"><a xlink:href="FloatingBaseEstimatorIO_8h.html" target="_top" xlink:title=" ">
<polygon fill="none" stroke="black" points="1184.5,-390.5 1184.5,-431.5 1411.5,-431.5 1411.5,-390.5 1184.5,-390.5"/>
<text text-anchor="start" x="1192.5" y="-419.5" font-family="Helvetica,sans-Serif" font-size="10.00">Estimators/include</text>
<text text-anchor="start" x="1192.5" y="-408.5" font-family="Helvetica,sans-Serif" font-size="10.00">/BipedalLocomotion/Floating</text>
<text text-anchor="middle" x="1298" y="-397.5" font-family="Helvetica,sans-Serif" font-size="10.00">BaseEstimators/FloatingBaseEstimatorIO.h</text>
</a>
</g>
</g>
<!-- Node1&#45;&gt;Node21 -->
<g id="edge27" class="edge">
<title>Node1&#45;&gt;Node21</title>
<path fill="none" stroke="midnightblue" d="M947.76,-467.49C1016.9,-456.53 1110.92,-441.64 1184.13,-430.04"/>
<polygon fill="midnightblue" stroke="midnightblue" points="947.08,-464.05 937.75,-469.07 948.17,-470.97 947.08,-464.05"/>
</g>
<!-- Node28 -->
<g id="node28" class="node">
<title>Node28</title>
<g id="a_node28"><a xlink:href="TaskSpaceInverseDynamics_8h.html" target="_top" xlink:title=" ">
<polygon fill="none" stroke="black" points="1441,-396 1441,-426 1631,-426 1631,-396 1441,-396"/>
<text text-anchor="start" x="1449" y="-414" font-family="Helvetica,sans-Serif" font-size="10.00">TSID/include/BipedalLocomotion</text>
<text text-anchor="middle" x="1536" y="-403" font-family="Helvetica,sans-Serif" font-size="10.00">/TSID/TaskSpaceInverseDynamics.h</text>
</a>
</g>
</g>
<!-- Node1&#45;&gt;Node28 -->
<g id="edge34" class="edge">
<title>Node1&#45;&gt;Node28</title>
<path fill="none" stroke="midnightblue" d="M947.93,-476.49C1060.93,-468.78 1255.21,-453.75 1421,-432 1433.86,-430.31 1447.48,-428.22 1460.67,-426.03"/>
<polygon fill="midnightblue" stroke="midnightblue" points="947.67,-473 937.93,-477.17 948.14,-479.99 947.67,-473"/>
</g>
<!-- Node2&#45;&gt;Node3 -->
<g id="edge2" class="edge">
<title>Node2&#45;&gt;Node3</title>
<path fill="none" stroke="midnightblue" d="M878.75,-383.23C870.52,-374.54 862.15,-364.43 856,-354 824.88,-301.21 855.5,-267.15 813,-223 794.19,-203.46 767.96,-190.69 742.62,-182.36"/>
<polygon fill="midnightblue" stroke="midnightblue" points="876.38,-385.81 885.89,-390.48 881.37,-380.9 876.38,-385.81"/>
</g>
<!-- Node5 -->
<g id="node5" class="node">
<title>Node5</title>
<g id="a_node5"><a xlink:href="SchmittTriggerDetector_8h.html" target="_top" xlink:title=" ">
<polygon fill="none" stroke="black" points="865.5,-312.5 865.5,-353.5 1026.5,-353.5 1026.5,-312.5 865.5,-312.5"/>
<text text-anchor="start" x="873.5" y="-341.5" font-family="Helvetica,sans-Serif" font-size="10.00">Contacts/include/Bipedal</text>
<text text-anchor="start" x="873.5" y="-330.5" font-family="Helvetica,sans-Serif" font-size="10.00">Locomotion/ContactDetectors</text>
<text text-anchor="middle" x="946" y="-319.5" font-family="Helvetica,sans-Serif" font-size="10.00">/SchmittTriggerDetector.h</text>
</a>
</g>
</g>
<!-- Node2&#45;&gt;Node5 -->
<g id="edge4" class="edge">
<title>Node2&#45;&gt;Node5</title>
<path fill="none" stroke="midnightblue" d="M922.27,-381.47C926.93,-372.14 932,-362.01 936.25,-353.51"/>
<polygon fill="midnightblue" stroke="midnightblue" points="919.13,-379.92 917.79,-390.43 925.39,-383.05 919.13,-379.92"/>
</g>
<!-- Node7 -->
<g id="node7" class="node">
<title>Node7</title>
<g id="a_node7"><a xlink:href="ContactDetector_8cpp.html" target="_top" xlink:title=" ">
<polygon fill="none" stroke="black" points="1044.5,-323.5 1044.5,-342.5 1223.5,-342.5 1223.5,-323.5 1044.5,-323.5"/>
<text text-anchor="middle" x="1134" y="-330.5" font-family="Helvetica,sans-Serif" font-size="10.00">Contacts/src/ContactDetector.cpp</text>
</a>
</g>
</g>
<!-- Node2&#45;&gt;Node7 -->
<g id="edge6" class="edge">
<title>Node2&#45;&gt;Node7</title>
<path fill="none" stroke="midnightblue" d="M975.85,-387.18C1020.59,-372.14 1076.63,-353.29 1108.57,-342.55"/>
<polygon fill="midnightblue" stroke="midnightblue" points="974.56,-383.92 966.2,-390.43 976.79,-390.56 974.56,-383.92"/>
</g>
<!-- Node4 -->
<g id="node4" class="node">
<title>Node4</title>
<g id="a_node4"><a xlink:href="FixedFootDetector_8cpp.html" target="_top" xlink:title=" ">
<polygon fill="none" stroke="black" points="458,-78.5 458,-97.5 646,-97.5 646,-78.5 458,-78.5"/>
<text text-anchor="middle" x="552" y="-85.5" font-family="Helvetica,sans-Serif" font-size="10.00">Contacts/src/FixedFootDetector.cpp</text>
</a>
</g>
</g>
<!-- Node3&#45;&gt;Node4 -->
<g id="edge3" class="edge">
<title>Node3&#45;&gt;Node4</title>
<path fill="none" stroke="midnightblue" d="M625.23,-139.59C604.15,-125.03 579.04,-107.69 564.38,-97.55"/>
<polygon fill="midnightblue" stroke="midnightblue" points="623.46,-142.62 633.67,-145.43 627.43,-136.86 623.46,-142.62"/>
</g>
<!-- Node6 -->
<g id="node6" class="node">
<title>Node6</title>
<g id="a_node6"><a xlink:href="SchmittTriggerDetector_8cpp.html" target="_top" xlink:title=" ">
<polygon fill="none" stroke="black" points="871,-234.5 871,-264.5 1021,-264.5 1021,-234.5 871,-234.5"/>
<text text-anchor="start" x="879" y="-252.5" font-family="Helvetica,sans-Serif" font-size="10.00">Contacts/src/SchmittTrigger</text>
<text text-anchor="middle" x="946" y="-241.5" font-family="Helvetica,sans-Serif" font-size="10.00">Detector.cpp</text>
</a>
</g>
</g>
<!-- Node5&#45;&gt;Node6 -->
<g id="edge5" class="edge">
<title>Node5&#45;&gt;Node6</title>
<path fill="none" stroke="midnightblue" d="M946,-302.03C946,-289.26 946,-274.97 946,-264.68"/>
<polygon fill="midnightblue" stroke="midnightblue" points="942.5,-302.27 946,-312.27 949.5,-302.27 942.5,-302.27"/>
</g>
<!-- Node8&#45;&gt;Node9 -->
<g id="edge9" class="edge">
<title>Node8&#45;&gt;Node9</title>
<path fill="none" stroke="midnightblue" d="M479.49,-393C523.62,-379.47 584.65,-360.77 626.07,-348.07"/>
<polygon fill="midnightblue" stroke="midnightblue" points="478.31,-389.7 469.78,-395.97 480.36,-396.39 478.31,-389.7"/>
</g>
<!-- Node8&#45;&gt;Node10 -->
<g id="edge19" class="edge">
<title>Node8&#45;&gt;Node10</title>
<path fill="none" stroke="midnightblue" d="M320.68,-401.12C256.35,-393.2 182.13,-378.89 162,-354 142.89,-330.37 150.75,-292.83 158.31,-270.05"/>
<polygon fill="midnightblue" stroke="midnightblue" points="320.56,-404.63 330.91,-402.33 321.39,-397.68 320.56,-404.63"/>
</g>
<!-- Node17 -->
<g id="node17" class="node">
<title>Node17</title>
<g id="a_node17"><a xlink:href="ContactList_8cpp.html" target="_top" xlink:title=" ">
<polygon fill="none" stroke="black" points="399.5,-323.5 399.5,-342.5 554.5,-342.5 554.5,-323.5 399.5,-323.5"/>
<text text-anchor="middle" x="477" y="-330.5" font-family="Helvetica,sans-Serif" font-size="10.00">Contacts/src/ContactList.cpp</text>
</a>
</g>
</g>
<!-- Node8&#45;&gt;Node17 -->
<g id="edge20" class="edge">
<title>Node8&#45;&gt;Node17</title>
<path fill="none" stroke="midnightblue" d="M439.78,-387.37C450.29,-372.3 463.5,-353.35 471.03,-342.56"/>
<polygon fill="midnightblue" stroke="midnightblue" points="436.82,-385.5 433.97,-395.7 442.56,-389.5 436.82,-385.5"/>
</g>
<!-- Node18 -->
<g id="node18" class="node">
<title>Node18</title>
<g id="a_node18"><a xlink:href="SwingFootPlanner_8h.html" target="_top" xlink:title=" ">
<polygon fill="none" stroke="black" points="171,-312.5 171,-353.5 343,-353.5 343,-312.5 171,-312.5"/>
<text text-anchor="start" x="179" y="-341.5" font-family="Helvetica,sans-Serif" font-size="10.00">Planners/include/Bipedal</text>
<text text-anchor="start" x="179" y="-330.5" font-family="Helvetica,sans-Serif" font-size="10.00">Locomotion/Planners/SwingFoot</text>
<text text-anchor="middle" x="257" y="-319.5" font-family="Helvetica,sans-Serif" font-size="10.00">Planner.h</text>
</a>
</g>
</g>
<!-- Node8&#45;&gt;Node18 -->
<g id="edge21" class="edge">
<title>Node8&#45;&gt;Node18</title>
<path fill="none" stroke="midnightblue" d="M383.69,-391.65C358.43,-380.16 325.9,-365.36 300.13,-353.63"/>
<polygon fill="midnightblue" stroke="midnightblue" points="382.43,-394.93 392.98,-395.88 385.33,-388.56 382.43,-394.93"/>
</g>
<!-- Node19 -->
<g id="node19" class="node">
<title>Node19</title>
<g id="a_node19"><a xlink:href="SwingFootPlanner_8cpp.html" target="_top" xlink:title=" ">
<polygon fill="none" stroke="black" points="278.5,-240 278.5,-259 463.5,-259 463.5,-240 278.5,-240"/>
<text text-anchor="middle" x="371" y="-247" font-family="Helvetica,sans-Serif" font-size="10.00">Planners/src/SwingFootPlanner.cpp</text>
</a>
</g>
</g>
<!-- Node8&#45;&gt;Node19 -->
<g id="edge23" class="edge">
<title>Node8&#45;&gt;Node19</title>
<path fill="none" stroke="midnightblue" d="M407.55,-387.2C401.19,-377.4 394.4,-365.56 390,-354 377.2,-320.36 372.85,-277.21 371.52,-259.1"/>
<polygon fill="midnightblue" stroke="midnightblue" points="404.7,-389.22 413.2,-395.56 410.5,-385.31 404.7,-389.22"/>
</g>
<!-- Node9&#45;&gt;Node10 -->
<g id="edge10" class="edge">
<title>Node9&#45;&gt;Node10</title>
<path fill="none" stroke="midnightblue" d="M588.96,-316.23C580.21,-314.73 571.43,-313.29 563,-312 432.87,-292.11 398.46,-299.86 269,-276 259.67,-274.28 249.93,-272.22 240.31,-270.03"/>
<polygon fill="midnightblue" stroke="midnightblue" points="588.36,-319.68 598.81,-317.95 589.56,-312.79 588.36,-319.68"/>
</g>
<!-- Node16 -->
<g id="node16" class="node">
<title>Node16</title>
<g id="a_node16"><a xlink:href="ContactPhase_8cpp.html" target="_top" xlink:title=" ">
<polygon fill="none" stroke="black" points="588.5,-240 588.5,-259 755.5,-259 755.5,-240 588.5,-240"/>
<text text-anchor="middle" x="672" y="-247" font-family="Helvetica,sans-Serif" font-size="10.00">Contacts/src/ContactPhase.cpp</text>
</a>
</g>
</g>
<!-- Node9&#45;&gt;Node16 -->
<g id="edge18" class="edge">
<title>Node9&#45;&gt;Node16</title>
<path fill="none" stroke="midnightblue" d="M672,-307.75C672,-291.28 672,-270.49 672,-259.04"/>
<polygon fill="midnightblue" stroke="midnightblue" points="668.5,-307.8 672,-317.8 675.5,-307.8 668.5,-307.8"/>
</g>
<!-- Node10&#45;&gt;Node3 -->
<g id="edge11" class="edge">
<title>Node10&#45;&gt;Node3</title>
<path fill="none" stroke="midnightblue" d="M251.08,-226.69C257.13,-225.37 263.15,-224.12 269,-223 384.87,-200.79 415.25,-203.97 532,-187 547.93,-184.68 564.95,-182.13 581.24,-179.64"/>
<polygon fill="midnightblue" stroke="midnightblue" points="249.89,-223.37 240.89,-228.97 251.42,-230.2 249.89,-223.37"/>
</g>
<!-- Node10&#45;&gt;Node4 -->
<g id="edge13" class="edge">
<title>Node10&#45;&gt;Node4</title>
<path fill="none" stroke="midnightblue" d="M249,-226.12C284.6,-215.61 326.36,-202.08 363,-187 430.67,-159.14 506.73,-115.75 537.71,-97.52"/>
<polygon fill="midnightblue" stroke="midnightblue" points="247.74,-222.84 239.13,-229 249.71,-229.55 247.74,-222.84"/>
</g>
<!-- Node11 -->
<g id="node11" class="node">
<title>Node11</title>
<g id="a_node11"><a xlink:href="ContactPhaseList_8cpp_source.html" target="_top" xlink:title=" ">
<polygon fill="none" stroke="black" points="0,-151 0,-181 146,-181 146,-151 0,-151"/>
<text text-anchor="start" x="8" y="-169" font-family="Helvetica,sans-Serif" font-size="10.00">Contacts/src/ContactPhase</text>
<text text-anchor="middle" x="73" y="-158" font-family="Helvetica,sans-Serif" font-size="10.00">List.cpp</text>
</a>
</g>
</g>
<!-- Node10&#45;&gt;Node11 -->
<g id="edge12" class="edge">
<title>Node10&#45;&gt;Node11</title>
<path fill="none" stroke="midnightblue" d="M135.68,-221.93C120.2,-208.36 101.98,-192.4 89.19,-181.18"/>
<polygon fill="midnightblue" stroke="midnightblue" points="133.66,-224.81 143.49,-228.77 138.27,-219.55 133.66,-224.81"/>
</g>
<!-- Node12 -->
<g id="node12" class="node">
<title>Node12</title>
<g id="a_node12"><a xlink:href="DCMPlanner_8h.html" target="_top" xlink:title=" ">
<polygon fill="none" stroke="black" points="164,-151 164,-181 354,-181 354,-151 164,-151"/>
<text text-anchor="start" x="172" y="-169" font-family="Helvetica,sans-Serif" font-size="10.00">Planners/include/Bipedal</text>
<text text-anchor="middle" x="259" y="-158" font-family="Helvetica,sans-Serif" font-size="10.00">Locomotion/Planners/DCMPlanner.h</text>
</a>
</g>
</g>
<!-- Node10&#45;&gt;Node12 -->
<g id="edge14" class="edge">
<title>Node10&#45;&gt;Node12</title>
<path fill="none" stroke="midnightblue" d="M196.32,-221.93C211.8,-208.36 230.02,-192.4 242.81,-181.18"/>
<polygon fill="midnightblue" stroke="midnightblue" points="193.73,-219.55 188.51,-228.77 198.34,-224.81 193.73,-219.55"/>
</g>
<!-- Node13 -->
<g id="node13" class="node">
<title>Node13</title>
<g id="a_node13"><a xlink:href="TimeVaryingDCMPlanner_8h.html" target="_top" xlink:title=" ">
<polygon fill="none" stroke="black" points="12.5,-67.5 12.5,-108.5 195.5,-108.5 195.5,-67.5 12.5,-67.5"/>
<text text-anchor="start" x="20.5" y="-96.5" font-family="Helvetica,sans-Serif" font-size="10.00">Planners/include/Bipedal</text>
<text text-anchor="start" x="20.5" y="-85.5" font-family="Helvetica,sans-Serif" font-size="10.00">Locomotion/Planners/TimeVarying</text>
<text text-anchor="middle" x="104" y="-74.5" font-family="Helvetica,sans-Serif" font-size="10.00">DCMPlanner.h</text>
</a>
</g>
</g>
<!-- Node12&#45;&gt;Node13 -->
<g id="edge15" class="edge">
<title>Node12&#45;&gt;Node13</title>
<path fill="none" stroke="midnightblue" d="M220.96,-146.35C197.61,-134.9 167.74,-120.25 144.03,-108.63"/>
<polygon fill="midnightblue" stroke="midnightblue" points="219.69,-149.62 230.21,-150.88 222.77,-143.34 219.69,-149.62"/>
</g>
<!-- Node15 -->
<g id="node15" class="node">
<title>Node15</title>
<g id="a_node15"><a xlink:href="DCMPlanner_8cpp.html" target="_top" xlink:title=" ">
<polygon fill="none" stroke="black" points="214,-78.5 214,-97.5 372,-97.5 372,-78.5 214,-78.5"/>
<text text-anchor="middle" x="293" y="-85.5" font-family="Helvetica,sans-Serif" font-size="10.00">Planners/src/DCMPlanner.cpp</text>
</a>
</g>
</g>
<!-- Node12&#45;&gt;Node15 -->
<g id="edge17" class="edge">
<title>Node12&#45;&gt;Node15</title>
<path fill="none" stroke="midnightblue" d="M269.5,-141.52C276.18,-126.6 284.43,-108.15 289.17,-97.56"/>
<polygon fill="midnightblue" stroke="midnightblue" points="266.28,-140.15 265.4,-150.7 272.67,-143.01 266.28,-140.15"/>
</g>
<!-- Node14 -->
<g id="node14" class="node">
<title>Node14</title>
<g id="a_node14"><a xlink:href="TimeVaryingDCMPlanner_8cpp.html" target="_top" xlink:title=" ">
<polygon fill="none" stroke="black" points="34,-0.5 34,-30.5 174,-30.5 174,-0.5 34,-0.5"/>
<text text-anchor="start" x="42" y="-18.5" font-family="Helvetica,sans-Serif" font-size="10.00">Planners/src/TimeVarying</text>
<text text-anchor="middle" x="104" y="-7.5" font-family="Helvetica,sans-Serif" font-size="10.00">DCMPlanner.cpp</text>
</a>
</g>
</g>
<!-- Node13&#45;&gt;Node14 -->
<g id="edge16" class="edge">
<title>Node13&#45;&gt;Node14</title>
<path fill="none" stroke="midnightblue" d="M104,-57.08C104,-48.01 104,-38.45 104,-30.89"/>
<polygon fill="midnightblue" stroke="midnightblue" points="100.5,-57.36 104,-67.36 107.5,-57.36 100.5,-57.36"/>
</g>
<!-- Node18&#45;&gt;Node19 -->
<g id="edge22" class="edge">
<title>Node18&#45;&gt;Node19</title>
<path fill="none" stroke="midnightblue" d="M292.69,-306.48C315.35,-290.29 343.24,-270.34 358.88,-259.16"/>
<polygon fill="midnightblue" stroke="midnightblue" points="290.41,-303.82 284.31,-312.48 294.48,-309.51 290.41,-303.82"/>
</g>
<!-- Node22 -->
<g id="node22" class="node">
<title>Node22</title>
<g id="a_node22"><a xlink:href="FloatingBaseEstimator_8h.html" target="_top" xlink:title=" ">
<polygon fill="none" stroke="black" points="1241.5,-312.5 1241.5,-353.5 1456.5,-353.5 1456.5,-312.5 1241.5,-312.5"/>
<text text-anchor="start" x="1249.5" y="-341.5" font-family="Helvetica,sans-Serif" font-size="10.00">Estimators/include</text>
<text text-anchor="start" x="1249.5" y="-330.5" font-family="Helvetica,sans-Serif" font-size="10.00">/BipedalLocomotion/Floating</text>
<text text-anchor="middle" x="1349" y="-319.5" font-family="Helvetica,sans-Serif" font-size="10.00">BaseEstimators/FloatingBaseEstimator.h</text>
</a>
</g>
</g>
<!-- Node21&#45;&gt;Node22 -->
<g id="edge28" class="edge">
<title>Node21&#45;&gt;Node22</title>
<path fill="none" stroke="midnightblue" d="M1316.76,-382.05C1323.12,-372.57 1330.09,-362.18 1335.91,-353.51"/>
<polygon fill="midnightblue" stroke="midnightblue" points="1313.8,-380.17 1311.13,-390.43 1319.61,-384.07 1313.8,-380.17"/>
</g>
<!-- Node23 -->
<g id="node23" class="node">
<title>Node23</title>
<g id="a_node23"><a xlink:href="InvariantEKFBaseEstimator_8h.html" target="_top" xlink:title=" ">
<polygon fill="none" stroke="black" points="1055,-223.5 1055,-275.5 1237,-275.5 1237,-223.5 1055,-223.5"/>
<text text-anchor="start" x="1063" y="-263.5" font-family="Helvetica,sans-Serif" font-size="10.00">Estimators/include</text>
<text text-anchor="start" x="1063" y="-252.5" font-family="Helvetica,sans-Serif" font-size="10.00">/BipedalLocomotion/Floating</text>
<text text-anchor="start" x="1063" y="-241.5" font-family="Helvetica,sans-Serif" font-size="10.00">BaseEstimators/InvariantEKFBase</text>
<text text-anchor="middle" x="1146" y="-230.5" font-family="Helvetica,sans-Serif" font-size="10.00">Estimator.h</text>
</a>
</g>
</g>
<!-- Node22&#45;&gt;Node23 -->
<g id="edge29" class="edge">
<title>Node22&#45;&gt;Node23</title>
<path fill="none" stroke="midnightblue" d="M1291.09,-308.75C1265.27,-298.38 1234.79,-286.15 1208.46,-275.58"/>
<polygon fill="midnightblue" stroke="midnightblue" points="1289.79,-312 1300.38,-312.48 1292.4,-305.5 1289.79,-312"/>
</g>
<!-- Node25 -->
<g id="node25" class="node">
<title>Node25</title>
<g id="a_node25"><a xlink:href="LeggedOdometry_8h.html" target="_top" xlink:title=" ">
<polygon fill="none" stroke="black" points="1255,-229 1255,-270 1443,-270 1443,-229 1255,-229"/>
<text text-anchor="start" x="1263" y="-258" font-family="Helvetica,sans-Serif" font-size="10.00">Estimators/include</text>
<text text-anchor="start" x="1263" y="-247" font-family="Helvetica,sans-Serif" font-size="10.00">/BipedalLocomotion/Floating</text>
<text text-anchor="middle" x="1349" y="-236" font-family="Helvetica,sans-Serif" font-size="10.00">BaseEstimators/LeggedOdometry.h</text>
</a>
</g>
</g>
<!-- Node22&#45;&gt;Node25 -->
<g id="edge31" class="edge">
<title>Node22&#45;&gt;Node25</title>
<path fill="none" stroke="midnightblue" d="M1349,-302.06C1349,-291.38 1349,-279.63 1349,-270.05"/>
<polygon fill="midnightblue" stroke="midnightblue" points="1345.5,-302.27 1349,-312.27 1352.5,-302.27 1345.5,-302.27"/>
</g>
<!-- Node27 -->
<g id="node27" class="node">
<title>Node27</title>
<g id="a_node27"><a xlink:href="FloatingBaseEstimator_8cpp.html" target="_top" xlink:title=" ">
<polygon fill="none" stroke="black" points="1461.5,-234.5 1461.5,-264.5 1614.5,-264.5 1614.5,-234.5 1461.5,-234.5"/>
<text text-anchor="start" x="1469.5" y="-252.5" font-family="Helvetica,sans-Serif" font-size="10.00">Estimators/src/FloatingBase</text>
<text text-anchor="middle" x="1538" y="-241.5" font-family="Helvetica,sans-Serif" font-size="10.00">Estimator.cpp</text>
</a>
</g>
</g>
<!-- Node22&#45;&gt;Node27 -->
<g id="edge33" class="edge">
<title>Node22&#45;&gt;Node27</title>
<path fill="none" stroke="midnightblue" d="M1403.78,-308.38C1436.75,-294.16 1477.61,-276.54 1505.52,-264.5"/>
<polygon fill="midnightblue" stroke="midnightblue" points="1402.07,-305.31 1394.27,-312.48 1404.84,-311.73 1402.07,-305.31"/>
</g>
<!-- Node24 -->
<g id="node24" class="node">
<title>Node24</title>
<g id="a_node24"><a xlink:href="InvariantEKFBaseEstimator_8cpp.html" target="_top" xlink:title=" ">
<polygon fill="none" stroke="black" points="1079.5,-151 1079.5,-181 1212.5,-181 1212.5,-151 1079.5,-151"/>
<text text-anchor="start" x="1087.5" y="-169" font-family="Helvetica,sans-Serif" font-size="10.00">Estimators/src/Invariant</text>
<text text-anchor="middle" x="1146" y="-158" font-family="Helvetica,sans-Serif" font-size="10.00">EKFBaseEstimator.cpp</text>
</a>
</g>
</g>
<!-- Node23&#45;&gt;Node24 -->
<g id="edge30" class="edge">
<title>Node23&#45;&gt;Node24</title>
<path fill="none" stroke="midnightblue" d="M1146,-213.08C1146,-201.82 1146,-190.01 1146,-181.17"/>
<polygon fill="midnightblue" stroke="midnightblue" points="1142.5,-213.16 1146,-223.16 1149.5,-213.16 1142.5,-213.16"/>
</g>
<!-- Node26 -->
<g id="node26" class="node">
<title>Node26</title>
<g id="a_node26"><a xlink:href="LeggedOdometry_8cpp.html" target="_top" xlink:title=" ">
<polygon fill="none" stroke="black" points="1253,-156.5 1253,-175.5 1445,-175.5 1445,-156.5 1253,-156.5"/>
<text text-anchor="middle" x="1349" y="-163.5" font-family="Helvetica,sans-Serif" font-size="10.00">Estimators/src/LeggedOdometry.cpp</text>
</a>
</g>
</g>
<!-- Node25&#45;&gt;Node26 -->
<g id="edge32" class="edge">
<title>Node25&#45;&gt;Node26</title>
<path fill="none" stroke="midnightblue" d="M1349,-218.64C1349,-203.33 1349,-185.81 1349,-175.62"/>
<polygon fill="midnightblue" stroke="midnightblue" points="1345.5,-218.77 1349,-228.77 1352.5,-218.77 1345.5,-218.77"/>
</g>
<!-- Node29 -->
<g id="node29" class="node">
<title>Node29</title>
<g id="a_node29"><a xlink:href="TaskSpaceInverseDynamics_8cpp.html" target="_top" xlink:title=" ">
<polygon fill="none" stroke="black" points="1475,-318 1475,-348 1621,-348 1621,-318 1475,-318"/>
<text text-anchor="start" x="1483" y="-336" font-family="Helvetica,sans-Serif" font-size="10.00">TSID/src/TaskSpaceInverse</text>
<text text-anchor="middle" x="1548" y="-325" font-family="Helvetica,sans-Serif" font-size="10.00">Dynamics.cpp</text>
</a>
</g>
</g>
<!-- Node28&#45;&gt;Node29 -->
<g id="edge35" class="edge">
<title>Node28&#45;&gt;Node29</title>
<path fill="none" stroke="midnightblue" d="M1539.85,-385.59C1541.8,-373.26 1544.1,-358.72 1545.75,-348.23"/>
<polygon fill="midnightblue" stroke="midnightblue" points="1536.36,-385.28 1538.26,-395.7 1543.27,-386.37 1536.36,-385.28"/>
</g>
</g>
</svg>
