<?xml version="1.0" encoding="UTF-8" standalone="no"?>
<!DOCTYPE svg PUBLIC "-//W3C//DTD SVG 1.1//EN"
 "http://www.w3.org/Graphics/SVG/1.1/DTD/svg11.dtd">
<!-- Generated by graphviz version 2.43.0 (0)
 -->
<!-- Title: ContactModels/include/BipedalLocomotion/ContactModels/ContinuousContactModel.h Pages: 1 -->
<svg width="1531pt" height="374pt"
 viewBox="0.00 0.00 1530.50 374.00" xmlns="http://www.w3.org/2000/svg" xmlns:xlink="http://www.w3.org/1999/xlink">
<g id="graph0" class="graph" transform="scale(1 1) rotate(0) translate(4 370)">
<title>ContactModels/include/BipedalLocomotion/ContactModels/ContinuousContactModel.h</title>
<!-- Node1 -->
<g id="node1" class="node">
<title>Node1</title>
<g id="a_node1"><a xlink:title=" ">
<polygon fill="#bfbfbf" stroke="black" points="276.5,-324.5 276.5,-365.5 465.5,-365.5 465.5,-324.5 276.5,-324.5"/>
<text text-anchor="start" x="284.5" y="-353.5" font-family="Helvetica,sans-Serif" font-size="10.00">ContactModels/include</text>
<text text-anchor="start" x="284.5" y="-342.5" font-family="Helvetica,sans-Serif" font-size="10.00">/BipedalLocomotion/ContactModels</text>
<text text-anchor="middle" x="371" y="-331.5" font-family="Helvetica,sans-Serif" font-size="10.00">/ContinuousContactModel.h</text>
</a>
</g>
</g>
<!-- Node2 -->
<g id="node2" class="node">
<title>Node2</title>
<g id="a_node2"><a xlink:title=" ">
<polygon fill="none" stroke="#bfbfbf" points="0,-196 0,-215 146,-215 146,-196 0,-196"/>
<text text-anchor="middle" x="73" y="-203" font-family="Helvetica,sans-Serif" font-size="10.00">iDynTree/Core/Transform.h</text>
</a>
</g>
</g>
<!-- Node1&#45;&gt;Node2 -->
<g id="edge1" class="edge">
<title>Node1&#45;&gt;Node2</title>
<path fill="none" stroke="midnightblue" d="M328.62,-324.45C266.73,-295.89 153.29,-243.55 100.89,-219.37"/>
<polygon fill="midnightblue" stroke="midnightblue" points="102.1,-216.07 91.55,-215.06 99.16,-222.43 102.1,-216.07"/>
</g>
<!-- Node3 -->
<g id="node3" class="node">
<title>Node3</title>
<g id="a_node3"><a xlink:title=" ">
<polygon fill="none" stroke="#bfbfbf" points="164,-196 164,-215 286,-215 286,-196 164,-196"/>
<text text-anchor="middle" x="225" y="-203" font-family="Helvetica,sans-Serif" font-size="10.00">iDynTree/Core/Twist.h</text>
</a>
</g>
</g>
<!-- Node1&#45;&gt;Node3 -->
<g id="edge2" class="edge">
<title>Node1&#45;&gt;Node3</title>
<path fill="none" stroke="midnightblue" d="M350.08,-324.3C320.78,-296.71 268.14,-247.12 241.46,-222"/>
<polygon fill="midnightblue" stroke="midnightblue" points="243.75,-219.35 234.07,-215.04 238.95,-224.44 243.75,-219.35"/>
</g>
<!-- Node4 -->
<g id="node4" class="node">
<title>Node4</title>
<g id="a_node4"><a xlink:title=" ">
<polygon fill="none" stroke="#bfbfbf" points="304,-196 304,-215 438,-215 438,-196 304,-196"/>
<text text-anchor="middle" x="371" y="-203" font-family="Helvetica,sans-Serif" font-size="10.00">iDynTree/Core/Wrench.h</text>
</a>
</g>
</g>
<!-- Node1&#45;&gt;Node4 -->
<g id="edge3" class="edge">
<title>Node1&#45;&gt;Node4</title>
<path fill="none" stroke="midnightblue" d="M371,-324.3C371,-297.9 371,-251.36 371,-225.38"/>
<polygon fill="midnightblue" stroke="midnightblue" points="374.5,-225.04 371,-215.04 367.5,-225.04 374.5,-225.04"/>
</g>
<!-- Node5 -->
<g id="node5" class="node">
<title>Node5</title>
<g id="a_node5"><a xlink:href="ContactModel_8h.html" target="_top" xlink:title=" ">
<polygon fill="none" stroke="black" points="463.5,-257.5 463.5,-287.5 614.5,-287.5 614.5,-257.5 463.5,-257.5"/>
<text text-anchor="start" x="471.5" y="-275.5" font-family="Helvetica,sans-Serif" font-size="10.00">BipedalLocomotion/Contact</text>
<text text-anchor="middle" x="539" y="-264.5" font-family="Helvetica,sans-Serif" font-size="10.00">Models/ContactModel.h</text>
</a>
</g>
</g>
<!-- Node1&#45;&gt;Node5 -->
<g id="edge4" class="edge">
<title>Node1&#45;&gt;Node5</title>
<path fill="none" stroke="midnightblue" d="M417.8,-324.36C442.29,-314.08 472.07,-301.59 495.98,-291.55"/>
<polygon fill="midnightblue" stroke="midnightblue" points="497.63,-294.66 505.5,-287.56 494.92,-288.2 497.63,-294.66"/>
</g>
<!-- Node13 -->
<g id="node13" class="node">
<title>Node13</title>
<g id="a_node13"><a xlink:href="IParametersHandler_8h.html" target="_top" xlink:title=" ">
<polygon fill="none" stroke="black" points="1246.5,-190.5 1246.5,-220.5 1415.5,-220.5 1415.5,-190.5 1246.5,-190.5"/>
<text text-anchor="start" x="1254.5" y="-208.5" font-family="Helvetica,sans-Serif" font-size="10.00">BipedalLocomotion/Parameters</text>
<text text-anchor="middle" x="1331" y="-197.5" font-family="Helvetica,sans-Serif" font-size="10.00">Handler/IParametersHandler.h</text>
</a>
</g>
</g>
<!-- Node1&#45;&gt;Node13 -->
<g id="edge30" class="edge">
<title>Node1&#45;&gt;Node13</title>
<path fill="none" stroke="midnightblue" d="M465.56,-330.95C622.96,-309.14 948.9,-263.61 1236.25,-221.1"/>
<polygon fill="midnightblue" stroke="midnightblue" points="1237.08,-224.52 1246.46,-219.59 1236.05,-217.59 1237.08,-224.52"/>
</g>
<!-- Node5&#45;&gt;Node2 -->
<g id="edge11" class="edge">
<title>Node5&#45;&gt;Node2</title>
<path fill="none" stroke="midnightblue" d="M463.45,-262.57C385.91,-253.16 261.83,-237.46 155,-221 146.68,-219.72 137.91,-218.27 129.31,-216.8"/>
<polygon fill="midnightblue" stroke="midnightblue" points="129.79,-213.33 119.34,-215.06 128.6,-220.22 129.79,-213.33"/>
</g>
<!-- Node5&#45;&gt;Node3 -->
<g id="edge12" class="edge">
<title>Node5&#45;&gt;Node3</title>
<path fill="none" stroke="midnightblue" d="M471.16,-257.46C422.2,-247.33 354.52,-233.32 295,-221 288.86,-219.73 282.41,-218.39 276.03,-217.07"/>
<polygon fill="midnightblue" stroke="midnightblue" points="276.59,-213.61 266.09,-215.01 275.17,-220.47 276.59,-213.61"/>
</g>
<!-- Node5&#45;&gt;Node4 -->
<g id="edge14" class="edge">
<title>Node5&#45;&gt;Node4</title>
<path fill="none" stroke="midnightblue" d="M502.55,-257.4C472.68,-245.84 430.85,-229.66 402.44,-218.66"/>
<polygon fill="midnightblue" stroke="midnightblue" points="403.58,-215.35 392.99,-215.01 401.05,-221.88 403.58,-215.35"/>
</g>
<!-- Node6 -->
<g id="node6" class="node">
<title>Node6</title>
<g id="a_node6"><a xlink:title=" ">
<polygon fill="none" stroke="#bfbfbf" points="456.5,-196 456.5,-215 491.5,-215 491.5,-196 456.5,-196"/>
<text text-anchor="middle" x="474" y="-203" font-family="Helvetica,sans-Serif" font-size="10.00">any</text>
</a>
</g>
</g>
<!-- Node5&#45;&gt;Node6 -->
<g id="edge5" class="edge">
<title>Node5&#45;&gt;Node6</title>
<path fill="none" stroke="midnightblue" d="M524.9,-257.4C514.56,-247.06 500.52,-233.02 489.81,-222.31"/>
<polygon fill="midnightblue" stroke="midnightblue" points="492.24,-219.79 482.69,-215.19 487.29,-224.74 492.24,-219.79"/>
</g>
<!-- Node7 -->
<g id="node7" class="node">
<title>Node7</title>
<g id="a_node7"><a xlink:title=" ">
<polygon fill="none" stroke="#bfbfbf" points="873,-62 873,-81 931,-81 931,-62 873,-62"/>
<text text-anchor="middle" x="902" y="-69" font-family="Helvetica,sans-Serif" font-size="10.00">memory</text>
</a>
</g>
</g>
<!-- Node5&#45;&gt;Node7 -->
<g id="edge6" class="edge">
<title>Node5&#45;&gt;Node7</title>
<path fill="none" stroke="midnightblue" d="M537.72,-257.46C536.87,-240.05 537.88,-210.2 552,-190 623.18,-88.13 787.29,-73.17 862.75,-71.9"/>
<polygon fill="midnightblue" stroke="midnightblue" points="862.82,-75.4 872.79,-71.81 862.76,-68.4 862.82,-75.4"/>
</g>
<!-- Node8 -->
<g id="node8" class="node">
<title>Node8</title>
<g id="a_node8"><a xlink:title=" ">
<polygon fill="none" stroke="#bfbfbf" points="681,-129 681,-148 725,-148 725,-129 681,-129"/>
<text text-anchor="middle" x="703" y="-136" font-family="Helvetica,sans-Serif" font-size="10.00">string</text>
</a>
</g>
</g>
<!-- Node5&#45;&gt;Node8 -->
<g id="edge7" class="edge">
<title>Node5&#45;&gt;Node8</title>
<path fill="none" stroke="midnightblue" d="M542.21,-257.21C546.93,-239.26 557.38,-208.56 577,-190 603.11,-165.29 642.83,-152.1 670.68,-145.47"/>
<polygon fill="midnightblue" stroke="midnightblue" points="671.71,-148.83 680.71,-143.24 670.19,-142 671.71,-148.83"/>
</g>
<!-- Node9 -->
<g id="node9" class="node">
<title>Node9</title>
<g id="a_node9"><a xlink:title=" ">
<polygon fill="none" stroke="#bfbfbf" points="586.5,-196 586.5,-215 679.5,-215 679.5,-196 586.5,-196"/>
<text text-anchor="middle" x="633" y="-203" font-family="Helvetica,sans-Serif" font-size="10.00">unordered_map</text>
</a>
</g>
</g>
<!-- Node5&#45;&gt;Node9 -->
<g id="edge8" class="edge">
<title>Node5&#45;&gt;Node9</title>
<path fill="none" stroke="midnightblue" d="M559.4,-257.4C575.01,-246.6 596.48,-231.76 612.19,-220.89"/>
<polygon fill="midnightblue" stroke="midnightblue" points="614.46,-223.57 620.7,-215.01 610.48,-217.82 614.46,-223.57"/>
</g>
<!-- Node10 -->
<g id="node10" class="node">
<title>Node10</title>
<g id="a_node10"><a xlink:title=" ">
<polygon fill="none" stroke="#bfbfbf" points="698,-196 698,-215 866,-215 866,-196 698,-196"/>
<text text-anchor="middle" x="782" y="-203" font-family="Helvetica,sans-Serif" font-size="10.00">iDynTree/Core/MatrixDynSize.h</text>
</a>
</g>
</g>
<!-- Node5&#45;&gt;Node10 -->
<g id="edge9" class="edge">
<title>Node5&#45;&gt;Node10</title>
<path fill="none" stroke="midnightblue" d="M591.43,-257.48C636.03,-245.55 699.22,-228.64 740.4,-217.63"/>
<polygon fill="midnightblue" stroke="midnightblue" points="741.36,-220.99 750.12,-215.03 739.55,-214.23 741.36,-220.99"/>
</g>
<!-- Node11 -->
<g id="node11" class="node">
<title>Node11</title>
<g id="a_node11"><a xlink:title=" ">
<polygon fill="none" stroke="#bfbfbf" points="884.5,-196 884.5,-215 1047.5,-215 1047.5,-196 884.5,-196"/>
<text text-anchor="middle" x="966" y="-203" font-family="Helvetica,sans-Serif" font-size="10.00">iDynTree/Core/MatrixFixSize.h</text>
</a>
</g>
</g>
<!-- Node5&#45;&gt;Node11 -->
<g id="edge10" class="edge">
<title>Node5&#45;&gt;Node11</title>
<path fill="none" stroke="midnightblue" d="M614.76,-260.31C682.88,-250.2 785.66,-234.83 875,-221 884.06,-219.6 893.62,-218.1 903,-216.61"/>
<polygon fill="midnightblue" stroke="midnightblue" points="903.75,-220.04 913.08,-215.01 902.66,-213.12 903.75,-220.04"/>
</g>
<!-- Node12 -->
<g id="node12" class="node">
<title>Node12</title>
<g id="a_node12"><a xlink:title=" ">
<polygon fill="none" stroke="#bfbfbf" points="1066,-196 1066,-215 1228,-215 1228,-196 1066,-196"/>
<text text-anchor="middle" x="1147" y="-203" font-family="Helvetica,sans-Serif" font-size="10.00">iDynTree/Core/VectorFixSize.h</text>
</a>
</g>
</g>
<!-- Node5&#45;&gt;Node12 -->
<g id="edge13" class="edge">
<title>Node5&#45;&gt;Node12</title>
<path fill="none" stroke="midnightblue" d="M614.51,-265.57C715.35,-257.32 899.46,-241.1 1056,-221 1066,-219.72 1076.58,-218.19 1086.87,-216.61"/>
<polygon fill="midnightblue" stroke="midnightblue" points="1087.67,-220.03 1097.01,-215.02 1086.59,-213.11 1087.67,-220.03"/>
</g>
<!-- Node5&#45;&gt;Node13 -->
<g id="edge15" class="edge">
<title>Node5&#45;&gt;Node13</title>
<path fill="none" stroke="midnightblue" d="M614.59,-268.04C741.04,-261.8 1003.67,-246.96 1236.48,-220.99"/>
<polygon fill="midnightblue" stroke="midnightblue" points="1236.95,-224.46 1246.49,-219.87 1236.16,-217.51 1236.95,-224.46"/>
</g>
<!-- Node13&#45;&gt;Node7 -->
<g id="edge16" class="edge">
<title>Node13&#45;&gt;Node7</title>
<path fill="none" stroke="midnightblue" d="M1258.65,-190.41C1215.89,-181.43 1160.91,-168.72 1113,-154 1046.42,-133.54 970.81,-102.31 930.64,-85.05"/>
<polygon fill="midnightblue" stroke="midnightblue" points="932.02,-81.84 921.46,-81.08 929.25,-88.26 932.02,-81.84"/>
</g>
<!-- Node13&#45;&gt;Node8 -->
<g id="edge17" class="edge">
<title>Node13&#45;&gt;Node8</title>
<path fill="none" stroke="midnightblue" d="M1246.48,-191.22C1243.28,-190.8 1240.11,-190.39 1237,-190 1047.32,-166.42 818.53,-148.19 735.27,-141.89"/>
<polygon fill="midnightblue" stroke="midnightblue" points="735.41,-138.39 725.18,-141.13 734.89,-145.37 735.41,-138.39"/>
</g>
<!-- Node14 -->
<g id="node14" class="node">
<title>Node14</title>
<g id="a_node14"><a xlink:title=" ">
<polygon fill="none" stroke="#bfbfbf" points="1307.5,-129 1307.5,-148 1354.5,-148 1354.5,-129 1307.5,-129"/>
<text text-anchor="middle" x="1331" y="-136" font-family="Helvetica,sans-Serif" font-size="10.00">vector</text>
</a>
</g>
</g>
<!-- Node13&#45;&gt;Node14 -->
<g id="edge18" class="edge">
<title>Node13&#45;&gt;Node14</title>
<path fill="none" stroke="midnightblue" d="M1331,-190.4C1331,-181.06 1331,-168.71 1331,-158.52"/>
<polygon fill="midnightblue" stroke="midnightblue" points="1334.5,-158.19 1331,-148.19 1327.5,-158.19 1334.5,-158.19"/>
</g>
<!-- Node15 -->
<g id="node15" class="node">
<title>Node15</title>
<g id="a_node15"><a xlink:href="TemplateHelpers_8h_source.html" target="_top" xlink:title=" ">
<polygon fill="none" stroke="black" points="1320,-56.5 1320,-86.5 1478,-86.5 1478,-56.5 1320,-56.5"/>
<text text-anchor="start" x="1328" y="-74.5" font-family="Helvetica,sans-Serif" font-size="10.00">BipedalLocomotion/Generic</text>
<text text-anchor="middle" x="1399" y="-63.5" font-family="Helvetica,sans-Serif" font-size="10.00">Container/TemplateHelpers.h</text>
</a>
</g>
</g>
<!-- Node13&#45;&gt;Node15 -->
<g id="edge19" class="edge">
<title>Node13&#45;&gt;Node15</title>
<path fill="none" stroke="midnightblue" d="M1341.22,-190.32C1348.11,-180.42 1357.17,-166.74 1364,-154 1374.12,-135.12 1383.58,-112.69 1390.11,-96.14"/>
<polygon fill="midnightblue" stroke="midnightblue" points="1393.42,-97.28 1393.77,-86.69 1386.89,-94.75 1393.42,-97.28"/>
</g>
<!-- Node19 -->
<g id="node19" class="node">
<title>Node19</title>
<g id="a_node19"><a xlink:href="Vector_8h_source.html" target="_top" xlink:title=" ">
<polygon fill="none" stroke="black" points="1122.5,-123.5 1122.5,-153.5 1273.5,-153.5 1273.5,-123.5 1122.5,-123.5"/>
<text text-anchor="start" x="1130.5" y="-141.5" font-family="Helvetica,sans-Serif" font-size="10.00">BipedalLocomotion/Generic</text>
<text text-anchor="middle" x="1198" y="-130.5" font-family="Helvetica,sans-Serif" font-size="10.00">Container/Vector.h</text>
</a>
</g>
</g>
<!-- Node13&#45;&gt;Node19 -->
<g id="edge23" class="edge">
<title>Node13&#45;&gt;Node19</title>
<path fill="none" stroke="midnightblue" d="M1302.14,-190.4C1282.71,-180.9 1256.88,-168.28 1235.81,-157.98"/>
<polygon fill="midnightblue" stroke="midnightblue" points="1237.32,-154.82 1226.8,-153.58 1234.25,-161.11 1237.32,-154.82"/>
</g>
<!-- Node16 -->
<g id="node16" class="node">
<title>Node16</title>
<g id="a_node16"><a xlink:title=" ">
<polygon fill="none" stroke="#bfbfbf" points="1275.5,-0.5 1275.5,-19.5 1344.5,-19.5 1344.5,-0.5 1275.5,-0.5"/>
<text text-anchor="middle" x="1310" y="-7.5" font-family="Helvetica,sans-Serif" font-size="10.00">type_traits</text>
</a>
</g>
</g>
<!-- Node15&#45;&gt;Node16 -->
<g id="edge20" class="edge">
<title>Node15&#45;&gt;Node16</title>
<path fill="none" stroke="midnightblue" d="M1377.91,-56.4C1363.91,-47.04 1345.59,-34.79 1331.51,-25.38"/>
<polygon fill="midnightblue" stroke="midnightblue" points="1333.21,-22.31 1322.95,-19.66 1329.32,-28.13 1333.21,-22.31"/>
</g>
<!-- Node17 -->
<g id="node17" class="node">
<title>Node17</title>
<g id="a_node17"><a xlink:title=" ">
<polygon fill="none" stroke="#bfbfbf" points="1362.5,-0.5 1362.5,-19.5 1435.5,-19.5 1435.5,-0.5 1362.5,-0.5"/>
<text text-anchor="middle" x="1399" y="-7.5" font-family="Helvetica,sans-Serif" font-size="10.00">string_view</text>
</a>
</g>
</g>
<!-- Node15&#45;&gt;Node17 -->
<g id="edge21" class="edge">
<title>Node15&#45;&gt;Node17</title>
<path fill="none" stroke="midnightblue" d="M1399,-56.4C1399,-48.47 1399,-38.46 1399,-29.86"/>
<polygon fill="midnightblue" stroke="midnightblue" points="1402.5,-29.66 1399,-19.66 1395.5,-29.66 1402.5,-29.66"/>
</g>
<!-- Node18 -->
<g id="node18" class="node">
<title>Node18</title>
<g id="a_node18"><a xlink:title=" ">
<polygon fill="none" stroke="#bfbfbf" points="1453.5,-0.5 1453.5,-19.5 1522.5,-19.5 1522.5,-0.5 1453.5,-0.5"/>
<text text-anchor="middle" x="1488" y="-7.5" font-family="Helvetica,sans-Serif" font-size="10.00">Eigen/Core</text>
</a>
</g>
</g>
<!-- Node15&#45;&gt;Node18 -->
<g id="edge22" class="edge">
<title>Node15&#45;&gt;Node18</title>
<path fill="none" stroke="midnightblue" d="M1420.09,-56.4C1434.09,-47.04 1452.41,-34.79 1466.49,-25.38"/>
<polygon fill="midnightblue" stroke="midnightblue" points="1468.68,-28.13 1475.05,-19.66 1464.79,-22.31 1468.68,-28.13"/>
</g>
<!-- Node19&#45;&gt;Node7 -->
<g id="edge29" class="edge">
<title>Node19&#45;&gt;Node7</title>
<path fill="none" stroke="midnightblue" d="M1122.4,-126.21C1070.54,-117.61 1000.44,-104.31 940,-87 937.42,-86.26 934.76,-85.42 932.11,-84.52"/>
<polygon fill="midnightblue" stroke="midnightblue" points="933.28,-81.23 922.69,-81.13 930.91,-87.81 933.28,-81.23"/>
</g>
<!-- Node19&#45;&gt;Node15 -->
<g id="edge25" class="edge">
<title>Node19&#45;&gt;Node15</title>
<path fill="none" stroke="midnightblue" d="M1241.61,-123.4C1272.17,-113.52 1313.18,-100.25 1345.68,-89.74"/>
<polygon fill="midnightblue" stroke="midnightblue" points="1347.03,-92.98 1355.47,-86.58 1344.88,-86.32 1347.03,-92.98"/>
</g>
<!-- Node20 -->
<g id="node20" class="node">
<title>Node20</title>
<g id="a_node20"><a xlink:title=" ">
<polygon fill="none" stroke="#bfbfbf" points="949.5,-62 949.5,-81 1070.5,-81 1070.5,-62 949.5,-62"/>
<text text-anchor="middle" x="1010" y="-69" font-family="Helvetica,sans-Serif" font-size="10.00">iDynTree/Core/Span.h</text>
</a>
</g>
</g>
<!-- Node19&#45;&gt;Node20 -->
<g id="edge24" class="edge">
<title>Node19&#45;&gt;Node20</title>
<path fill="none" stroke="midnightblue" d="M1157.21,-123.4C1123.49,-111.74 1076.16,-95.37 1044.35,-84.38"/>
<polygon fill="midnightblue" stroke="midnightblue" points="1045.2,-80.97 1034.6,-81.01 1042.91,-87.58 1045.2,-80.97"/>
</g>
<!-- Node21 -->
<g id="node21" class="node">
<title>Node21</title>
<g id="a_node21"><a xlink:title=" ">
<polygon fill="none" stroke="#bfbfbf" points="1088.5,-62 1088.5,-81 1153.5,-81 1153.5,-62 1088.5,-62"/>
<text text-anchor="middle" x="1121" y="-69" font-family="Helvetica,sans-Serif" font-size="10.00">functional</text>
</a>
</g>
</g>
<!-- Node19&#45;&gt;Node21 -->
<g id="edge26" class="edge">
<title>Node19&#45;&gt;Node21</title>
<path fill="none" stroke="midnightblue" d="M1181.29,-123.4C1168.81,-112.86 1151.77,-98.48 1138.99,-87.69"/>
<polygon fill="midnightblue" stroke="midnightblue" points="1141.2,-84.97 1131.3,-81.19 1136.68,-90.32 1141.2,-84.97"/>
</g>
<!-- Node22 -->
<g id="node22" class="node">
<title>Node22</title>
<g id="a_node22"><a xlink:title=" ">
<polygon fill="none" stroke="#bfbfbf" points="1172,-62 1172,-81 1224,-81 1224,-62 1172,-62"/>
<text text-anchor="middle" x="1198" y="-69" font-family="Helvetica,sans-Serif" font-size="10.00">cassert</text>
</a>
</g>
</g>
<!-- Node19&#45;&gt;Node22 -->
<g id="edge27" class="edge">
<title>Node19&#45;&gt;Node22</title>
<path fill="none" stroke="midnightblue" d="M1198,-123.4C1198,-114.06 1198,-101.71 1198,-91.52"/>
<polygon fill="midnightblue" stroke="midnightblue" points="1201.5,-91.19 1198,-81.19 1194.5,-91.19 1201.5,-91.19"/>
</g>
<!-- Node23 -->
<g id="node23" class="node">
<title>Node23</title>
<g id="a_node23"><a xlink:title=" ">
<polygon fill="none" stroke="#bfbfbf" points="1242,-62 1242,-81 1302,-81 1302,-62 1242,-62"/>
<text text-anchor="middle" x="1272" y="-69" font-family="Helvetica,sans-Serif" font-size="10.00">iostream</text>
</a>
</g>
</g>
<!-- Node19&#45;&gt;Node23 -->
<g id="edge28" class="edge">
<title>Node19&#45;&gt;Node23</title>
<path fill="none" stroke="midnightblue" d="M1214.06,-123.4C1225.94,-112.96 1242.11,-98.75 1254.36,-88"/>
<polygon fill="midnightblue" stroke="midnightblue" points="1256.9,-90.42 1262.1,-81.19 1252.28,-85.16 1256.9,-90.42"/>
</g>
</g>
</svg>
