<?xml version="1.0" encoding="UTF-8" standalone="no"?>
<!DOCTYPE svg PUBLIC "-//W3C//DTD SVG 1.1//EN"
 "http://www.w3.org/Graphics/SVG/1.1/DTD/svg11.dtd">
<!-- Generated by graphviz version 2.43.0 (0)
 -->
<!-- Title: ContactModels/include/BipedalLocomotion/ContactModels/ContactModel.h Pages: 1 -->
<svg width="830pt" height="306pt"
 viewBox="0.00 0.00 830.00 306.00" xmlns="http://www.w3.org/2000/svg" xmlns:xlink="http://www.w3.org/1999/xlink">
<g id="graph0" class="graph" transform="scale(1 1) rotate(0) translate(4 302)">
<title>ContactModels/include/BipedalLocomotion/ContactModels/ContactModel.h</title>
<!-- Node1 -->
<g id="node1" class="node">
<title>Node1</title>
<g id="a_node1"><a xlink:title=" ">
<polygon fill="#bfbfbf" stroke="black" points="311.5,-256.5 311.5,-297.5 500.5,-297.5 500.5,-256.5 311.5,-256.5"/>
<text text-anchor="start" x="319.5" y="-285.5" font-family="Helvetica,sans-Serif" font-size="10.00">ContactModels/include</text>
<text text-anchor="start" x="319.5" y="-274.5" font-family="Helvetica,sans-Serif" font-size="10.00">/BipedalLocomotion/ContactModels</text>
<text text-anchor="middle" x="406" y="-263.5" font-family="Helvetica,sans-Serif" font-size="10.00">/ContactModel.h</text>
</a>
</g>
</g>
<!-- Node2 -->
<g id="node2" class="node">
<title>Node2</title>
<g id="a_node2"><a xlink:href="ContinuousContactModel_8h.html" target="_top" xlink:title=" ">
<polygon fill="none" stroke="black" points="13.5,-173 13.5,-214 202.5,-214 202.5,-173 13.5,-173"/>
<text text-anchor="start" x="21.5" y="-202" font-family="Helvetica,sans-Serif" font-size="10.00">ContactModels/include</text>
<text text-anchor="start" x="21.5" y="-191" font-family="Helvetica,sans-Serif" font-size="10.00">/BipedalLocomotion/ContactModels</text>
<text text-anchor="middle" x="108" y="-180" font-family="Helvetica,sans-Serif" font-size="10.00">/ContinuousContactModel.h</text>
</a>
</g>
</g>
<!-- Node1&#45;&gt;Node2 -->
<g id="edge1" class="edge">
<title>Node1&#45;&gt;Node2</title>
<path fill="none" stroke="midnightblue" d="M324.79,-253.79C279.3,-241.35 223.09,-225.98 179.31,-214"/>
<polygon fill="midnightblue" stroke="midnightblue" points="324.05,-257.22 334.62,-256.48 325.9,-250.46 324.05,-257.22"/>
</g>
<!-- Node4 -->
<g id="node4" class="node">
<title>Node4</title>
<g id="a_node4"><a xlink:href="ContactModel_8cpp.html" target="_top" xlink:title=" ">
<polygon fill="none" stroke="black" points="245.5,-178.5 245.5,-208.5 392.5,-208.5 392.5,-178.5 245.5,-178.5"/>
<text text-anchor="start" x="253.5" y="-196.5" font-family="Helvetica,sans-Serif" font-size="10.00">ContactModels/src/Contact</text>
<text text-anchor="middle" x="319" y="-185.5" font-family="Helvetica,sans-Serif" font-size="10.00">Model.cpp</text>
</a>
</g>
</g>
<!-- Node1&#45;&gt;Node4 -->
<g id="edge3" class="edge">
<title>Node1&#45;&gt;Node4</title>
<path fill="none" stroke="midnightblue" d="M377.64,-249.43C363.15,-235.86 346.11,-219.9 334.14,-208.68"/>
<polygon fill="midnightblue" stroke="midnightblue" points="375.25,-251.99 384.94,-256.27 380.03,-246.88 375.25,-251.99"/>
</g>
<!-- Node5 -->
<g id="node5" class="node">
<title>Node5</title>
<g id="a_node5"><a xlink:href="CompliantContactWrench_8h.html" target="_top" xlink:title=" ">
<polygon fill="none" stroke="black" points="411,-167.5 411,-219.5 575,-219.5 575,-167.5 411,-167.5"/>
<text text-anchor="start" x="419" y="-207.5" font-family="Helvetica,sans-Serif" font-size="10.00">ContinuousDynamicalSystem</text>
<text text-anchor="start" x="419" y="-196.5" font-family="Helvetica,sans-Serif" font-size="10.00">/include/BipedalLocomotion</text>
<text text-anchor="start" x="419" y="-185.5" font-family="Helvetica,sans-Serif" font-size="10.00">/ContinuousDynamicalSystem</text>
<text text-anchor="middle" x="493" y="-174.5" font-family="Helvetica,sans-Serif" font-size="10.00">/CompliantContactWrench.h</text>
</a>
</g>
</g>
<!-- Node1&#45;&gt;Node5 -->
<g id="edge4" class="edge">
<title>Node1&#45;&gt;Node5</title>
<path fill="none" stroke="midnightblue" d="M434.56,-249.24C444.74,-239.71 456.17,-229 466.2,-219.61"/>
<polygon fill="midnightblue" stroke="midnightblue" points="431.97,-246.88 427.06,-256.27 436.75,-251.99 431.97,-246.88"/>
</g>
<!-- Node10 -->
<g id="node10" class="node">
<title>Node10</title>
<g id="a_node10"><a xlink:href="CompliantContactWrench_8cpp.html" target="_top" xlink:title=" ">
<polygon fill="none" stroke="black" points="640,-89.5 640,-119.5 822,-119.5 822,-89.5 640,-89.5"/>
<text text-anchor="start" x="648" y="-107.5" font-family="Helvetica,sans-Serif" font-size="10.00">ContinuousDynamicalSystem</text>
<text text-anchor="middle" x="731" y="-96.5" font-family="Helvetica,sans-Serif" font-size="10.00">/src/CompliantContactWrench.cpp</text>
</a>
</g>
</g>
<!-- Node1&#45;&gt;Node10 -->
<g id="edge10" class="edge">
<title>Node1&#45;&gt;Node10</title>
<path fill="none" stroke="midnightblue" d="M499.35,-253.46C527.4,-244.9 557.7,-233.8 584,-220 637.57,-191.89 691.31,-143.75 716.39,-119.84"/>
<polygon fill="midnightblue" stroke="midnightblue" points="498.12,-250.18 489.53,-256.39 500.11,-256.89 498.12,-250.18"/>
</g>
<!-- Node3 -->
<g id="node3" class="node">
<title>Node3</title>
<g id="a_node3"><a xlink:href="ContinuousContactModel_8cpp.html" target="_top" xlink:title=" ">
<polygon fill="none" stroke="black" points="0,-89.5 0,-119.5 164,-119.5 164,-89.5 0,-89.5"/>
<text text-anchor="start" x="8" y="-107.5" font-family="Helvetica,sans-Serif" font-size="10.00">ContactModels/src/Continuous</text>
<text text-anchor="middle" x="82" y="-96.5" font-family="Helvetica,sans-Serif" font-size="10.00">ContactModel.cpp</text>
</a>
</g>
</g>
<!-- Node2&#45;&gt;Node3 -->
<g id="edge2" class="edge">
<title>Node2&#45;&gt;Node3</title>
<path fill="none" stroke="midnightblue" d="M99.22,-163.11C94.85,-148.48 89.76,-131.47 86.26,-119.74"/>
<polygon fill="midnightblue" stroke="midnightblue" points="95.88,-164.18 102.1,-172.76 102.59,-162.17 95.88,-164.18"/>
</g>
<!-- Node6 -->
<g id="node6" class="node">
<title>Node6</title>
<g id="a_node6"><a xlink:href="FixedBaseDynamics_8h.html" target="_top" xlink:title=" ">
<polygon fill="none" stroke="black" points="182,-78.5 182,-130.5 346,-130.5 346,-78.5 182,-78.5"/>
<text text-anchor="start" x="190" y="-118.5" font-family="Helvetica,sans-Serif" font-size="10.00">ContinuousDynamicalSystem</text>
<text text-anchor="start" x="190" y="-107.5" font-family="Helvetica,sans-Serif" font-size="10.00">/include/BipedalLocomotion</text>
<text text-anchor="start" x="190" y="-96.5" font-family="Helvetica,sans-Serif" font-size="10.00">/ContinuousDynamicalSystem</text>
<text text-anchor="middle" x="264" y="-85.5" font-family="Helvetica,sans-Serif" font-size="10.00">/FixedBaseDynamics.h</text>
</a>
</g>
</g>
<!-- Node5&#45;&gt;Node6 -->
<g id="edge5" class="edge">
<title>Node5&#45;&gt;Node6</title>
<path fill="none" stroke="midnightblue" d="M417.61,-163.86C389.26,-153.09 357.27,-140.94 329.86,-130.52"/>
<polygon fill="midnightblue" stroke="midnightblue" points="416.48,-167.17 427.07,-167.45 418.97,-160.63 416.48,-167.17"/>
</g>
<!-- Node8 -->
<g id="node8" class="node">
<title>Node8</title>
<g id="a_node8"><a xlink:href="FloatingBaseDynamicsWithCompliantContacts_8h.html" target="_top" xlink:title=" ">
<polygon fill="none" stroke="black" points="364.5,-78.5 364.5,-130.5 621.5,-130.5 621.5,-78.5 364.5,-78.5"/>
<text text-anchor="start" x="372.5" y="-118.5" font-family="Helvetica,sans-Serif" font-size="10.00">ContinuousDynamicalSystem</text>
<text text-anchor="start" x="372.5" y="-107.5" font-family="Helvetica,sans-Serif" font-size="10.00">/include/BipedalLocomotion</text>
<text text-anchor="start" x="372.5" y="-96.5" font-family="Helvetica,sans-Serif" font-size="10.00">/ContinuousDynamicalSystem</text>
<text text-anchor="middle" x="493" y="-85.5" font-family="Helvetica,sans-Serif" font-size="10.00">/FloatingBaseDynamicsWithCompliantContacts.h</text>
</a>
</g>
</g>
<!-- Node5&#45;&gt;Node8 -->
<g id="edge7" class="edge">
<title>Node5&#45;&gt;Node8</title>
<path fill="none" stroke="midnightblue" d="M493,-157.19C493,-148.28 493,-138.9 493,-130.61"/>
<polygon fill="midnightblue" stroke="midnightblue" points="489.5,-157.34 493,-167.34 496.5,-157.34 489.5,-157.34"/>
</g>
<!-- Node5&#45;&gt;Node10 -->
<g id="edge9" class="edge">
<title>Node5&#45;&gt;Node10</title>
<path fill="none" stroke="midnightblue" d="M571.16,-163.93C611.88,-149.04 659.86,-131.5 692.55,-119.55"/>
<polygon fill="midnightblue" stroke="midnightblue" points="569.71,-160.73 561.52,-167.45 572.11,-167.31 569.71,-160.73"/>
</g>
<!-- Node7 -->
<g id="node7" class="node">
<title>Node7</title>
<g id="a_node7"><a xlink:href="FixedBaseDynamics_8cpp_source.html" target="_top" xlink:title=" ">
<polygon fill="none" stroke="black" points="183.5,-6 183.5,-36 344.5,-36 344.5,-6 183.5,-6"/>
<text text-anchor="start" x="191.5" y="-24" font-family="Helvetica,sans-Serif" font-size="10.00">ContinuousDynamicalSystem</text>
<text text-anchor="middle" x="264" y="-13" font-family="Helvetica,sans-Serif" font-size="10.00">/src/FixedBaseDynamics.cpp</text>
</a>
</g>
</g>
<!-- Node6&#45;&gt;Node7 -->
<g id="edge6" class="edge">
<title>Node6&#45;&gt;Node7</title>
<path fill="none" stroke="midnightblue" d="M264,-68.08C264,-56.82 264,-45.01 264,-36.17"/>
<polygon fill="midnightblue" stroke="midnightblue" points="260.5,-68.16 264,-78.16 267.5,-68.16 260.5,-68.16"/>
</g>
<!-- Node9 -->
<g id="node9" class="node">
<title>Node9</title>
<g id="a_node9"><a xlink:href="FloatingBaseDynamicsWithCompliantContacts_8cpp.html" target="_top" xlink:title=" ">
<polygon fill="none" stroke="black" points="382,-0.5 382,-41.5 604,-41.5 604,-0.5 382,-0.5"/>
<text text-anchor="start" x="390" y="-29.5" font-family="Helvetica,sans-Serif" font-size="10.00">ContinuousDynamicalSystem</text>
<text text-anchor="start" x="390" y="-18.5" font-family="Helvetica,sans-Serif" font-size="10.00">/src/FloatingBaseDynamicsWithCompliant</text>
<text text-anchor="middle" x="493" y="-7.5" font-family="Helvetica,sans-Serif" font-size="10.00">Contacts.cpp</text>
</a>
</g>
</g>
<!-- Node8&#45;&gt;Node9 -->
<g id="edge8" class="edge">
<title>Node8&#45;&gt;Node9</title>
<path fill="none" stroke="midnightblue" d="M493,-68.15C493,-59.05 493,-49.6 493,-41.63"/>
<polygon fill="midnightblue" stroke="midnightblue" points="489.5,-68.16 493,-78.16 496.5,-68.16 489.5,-68.16"/>
</g>
</g>
</svg>
