<?xml version="1.0" encoding="UTF-8" standalone="no"?>
<!DOCTYPE svg PUBLIC "-//W3C//DTD SVG 1.1//EN"
 "http://www.w3.org/Graphics/SVG/1.1/DTD/svg11.dtd">
<!-- Generated by graphviz version 2.43.0 (0)
 -->
<!-- Title: Contacts/include/BipedalLocomotion/Contacts/ContactList.h Pages: 1 -->
<svg width="577pt" height="229pt"
 viewBox="0.00 0.00 577.00 229.00" xmlns="http://www.w3.org/2000/svg" xmlns:xlink="http://www.w3.org/1999/xlink">
<g id="graph0" class="graph" transform="scale(1 1) rotate(0) translate(4 225)">
<title>Contacts/include/BipedalLocomotion/Contacts/ContactList.h</title>
<!-- Node1 -->
<g id="node1" class="node">
<title>Node1</title>
<g id="a_node1"><a xlink:title=" ">
<polygon fill="#bfbfbf" stroke="black" points="299.5,-190.5 299.5,-220.5 485.5,-220.5 485.5,-190.5 299.5,-190.5"/>
<text text-anchor="start" x="307.5" y="-208.5" font-family="Helvetica,sans-Serif" font-size="10.00">Contacts/include/Bipedal</text>
<text text-anchor="middle" x="392.5" y="-197.5" font-family="Helvetica,sans-Serif" font-size="10.00">Locomotion/Contacts/ContactList.h</text>
</a>
</g>
</g>
<!-- Node2 -->
<g id="node2" class="node">
<title>Node2</title>
<g id="a_node2"><a xlink:href="Contact_8h.html" target="_top" xlink:title=" ">
<polygon fill="none" stroke="black" points="137.5,-123.5 137.5,-153.5 293.5,-153.5 293.5,-123.5 137.5,-123.5"/>
<text text-anchor="start" x="145.5" y="-141.5" font-family="Helvetica,sans-Serif" font-size="10.00">BipedalLocomotion/Contacts</text>
<text text-anchor="middle" x="215.5" y="-130.5" font-family="Helvetica,sans-Serif" font-size="10.00">/Contact.h</text>
</a>
</g>
</g>
<!-- Node1&#45;&gt;Node2 -->
<g id="edge1" class="edge">
<title>Node1&#45;&gt;Node2</title>
<path fill="none" stroke="midnightblue" d="M354.09,-190.4C327.54,-180.64 292,-167.59 263.57,-157.15"/>
<polygon fill="midnightblue" stroke="midnightblue" points="264.43,-153.74 253.83,-153.58 262.01,-160.31 264.43,-153.74"/>
</g>
<!-- Node7 -->
<g id="node7" class="node">
<title>Node7</title>
<g id="a_node7"><a xlink:title=" ">
<polygon fill="none" stroke="#bfbfbf" points="285.5,-62 285.5,-81 329.5,-81 329.5,-62 285.5,-62"/>
<text text-anchor="middle" x="307.5" y="-69" font-family="Helvetica,sans-Serif" font-size="10.00">string</text>
</a>
</g>
</g>
<!-- Node1&#45;&gt;Node7 -->
<g id="edge10" class="edge">
<title>Node1&#45;&gt;Node7</title>
<path fill="none" stroke="midnightblue" d="M375.15,-190.46C364.36,-181.04 350.83,-167.85 341.5,-154 328.15,-134.18 318.45,-108.29 312.91,-91.06"/>
<polygon fill="midnightblue" stroke="midnightblue" points="316.15,-89.68 309.87,-81.14 309.45,-91.73 316.15,-89.68"/>
</g>
<!-- Node8 -->
<g id="node8" class="node">
<title>Node8</title>
<g id="a_node8"><a xlink:title=" ">
<polygon fill="none" stroke="#bfbfbf" points="350,-129 350,-148 435,-148 435,-129 350,-129"/>
<text text-anchor="middle" x="392.5" y="-136" font-family="Helvetica,sans-Serif" font-size="10.00">manif/manif.h</text>
</a>
</g>
</g>
<!-- Node1&#45;&gt;Node8 -->
<g id="edge8" class="edge">
<title>Node1&#45;&gt;Node8</title>
<path fill="none" stroke="midnightblue" d="M392.5,-190.4C392.5,-181.06 392.5,-168.71 392.5,-158.52"/>
<polygon fill="midnightblue" stroke="midnightblue" points="396,-158.19 392.5,-148.19 389,-158.19 396,-158.19"/>
</g>
<!-- Node9 -->
<g id="node9" class="node">
<title>Node9</title>
<g id="a_node9"><a xlink:title=" ">
<polygon fill="none" stroke="#bfbfbf" points="453.5,-129 453.5,-148 485.5,-148 485.5,-129 453.5,-129"/>
<text text-anchor="middle" x="469.5" y="-136" font-family="Helvetica,sans-Serif" font-size="10.00">set</text>
</a>
</g>
</g>
<!-- Node1&#45;&gt;Node9 -->
<g id="edge9" class="edge">
<title>Node1&#45;&gt;Node9</title>
<path fill="none" stroke="midnightblue" d="M409.21,-190.4C421.69,-179.86 438.73,-165.48 451.51,-154.69"/>
<polygon fill="midnightblue" stroke="midnightblue" points="453.82,-157.32 459.2,-148.19 449.3,-151.97 453.82,-157.32"/>
</g>
<!-- Node10 -->
<g id="node10" class="node">
<title>Node10</title>
<g id="a_node10"><a xlink:title=" ">
<polygon fill="none" stroke="#bfbfbf" points="504,-129 504,-148 569,-148 569,-129 504,-129"/>
<text text-anchor="middle" x="536.5" y="-136" font-family="Helvetica,sans-Serif" font-size="10.00">functional</text>
</a>
</g>
</g>
<!-- Node1&#45;&gt;Node10 -->
<g id="edge11" class="edge">
<title>Node1&#45;&gt;Node10</title>
<path fill="none" stroke="midnightblue" d="M423.75,-190.4C448.9,-179.04 483.95,-163.22 508.27,-152.24"/>
<polygon fill="midnightblue" stroke="midnightblue" points="509.98,-155.31 517.65,-148.01 507.1,-148.93 509.98,-155.31"/>
</g>
<!-- Node3 -->
<g id="node3" class="node">
<title>Node3</title>
<g id="a_node3"><a xlink:href="Wrench_8h.html" target="_top" xlink:title=" ">
<polygon fill="none" stroke="black" points="63.5,-56.5 63.5,-86.5 201.5,-86.5 201.5,-56.5 63.5,-56.5"/>
<text text-anchor="start" x="71.5" y="-74.5" font-family="Helvetica,sans-Serif" font-size="10.00">BipedalLocomotion/Math</text>
<text text-anchor="middle" x="132.5" y="-63.5" font-family="Helvetica,sans-Serif" font-size="10.00">/Wrench.h</text>
</a>
</g>
</g>
<!-- Node2&#45;&gt;Node3 -->
<g id="edge2" class="edge">
<title>Node2&#45;&gt;Node3</title>
<path fill="none" stroke="midnightblue" d="M197.49,-123.4C186.07,-114.45 171.11,-102.74 158.42,-92.8"/>
<polygon fill="midnightblue" stroke="midnightblue" points="160.51,-89.99 150.47,-86.58 156.19,-95.5 160.51,-89.99"/>
</g>
<!-- Node5 -->
<g id="node5" class="node">
<title>Node5</title>
<g id="a_node5"><a xlink:title=" ">
<polygon fill="none" stroke="#bfbfbf" points="191,-0.5 191,-19.5 266,-19.5 266,-0.5 191,-0.5"/>
<text text-anchor="middle" x="228.5" y="-7.5" font-family="Helvetica,sans-Serif" font-size="10.00">manif/SE3.h</text>
</a>
</g>
</g>
<!-- Node2&#45;&gt;Node5 -->
<g id="edge6" class="edge">
<title>Node2&#45;&gt;Node5</title>
<path fill="none" stroke="midnightblue" d="M216.94,-123.48C219.28,-100.72 223.91,-55.7 226.54,-30.06"/>
<polygon fill="midnightblue" stroke="midnightblue" points="230.06,-30.09 227.6,-19.79 223.09,-29.38 230.06,-30.09"/>
</g>
<!-- Node2&#45;&gt;Node7 -->
<g id="edge7" class="edge">
<title>Node2&#45;&gt;Node7</title>
<path fill="none" stroke="midnightblue" d="M235.46,-123.4C250.75,-112.6 271.75,-97.76 287.14,-86.89"/>
<polygon fill="midnightblue" stroke="midnightblue" points="289.31,-89.64 295.46,-81.01 285.27,-83.92 289.31,-89.64"/>
</g>
<!-- Node4 -->
<g id="node4" class="node">
<title>Node4</title>
<g id="a_node4"><a xlink:title=" ">
<polygon fill="none" stroke="#bfbfbf" points="0,-0.5 0,-19.5 77,-19.5 77,-0.5 0,-0.5"/>
<text text-anchor="middle" x="38.5" y="-7.5" font-family="Helvetica,sans-Serif" font-size="10.00">Eigen/Dense</text>
</a>
</g>
</g>
<!-- Node3&#45;&gt;Node4 -->
<g id="edge3" class="edge">
<title>Node3&#45;&gt;Node4</title>
<path fill="none" stroke="midnightblue" d="M110.22,-56.4C95.3,-46.95 75.72,-34.56 60.79,-25.11"/>
<polygon fill="midnightblue" stroke="midnightblue" points="62.5,-22.05 52.18,-19.66 58.76,-27.96 62.5,-22.05"/>
</g>
<!-- Node3&#45;&gt;Node5 -->
<g id="edge4" class="edge">
<title>Node3&#45;&gt;Node5</title>
<path fill="none" stroke="midnightblue" d="M155.25,-56.4C170.49,-46.95 190.49,-34.56 205.74,-25.11"/>
<polygon fill="midnightblue" stroke="midnightblue" points="207.88,-27.9 214.53,-19.66 204.19,-21.95 207.88,-27.9"/>
</g>
<!-- Node6 -->
<g id="node6" class="node">
<title>Node6</title>
<g id="a_node6"><a xlink:title=" ">
<polygon fill="none" stroke="#bfbfbf" points="95,-0.5 95,-19.5 172,-19.5 172,-0.5 95,-0.5"/>
<text text-anchor="middle" x="133.5" y="-7.5" font-family="Helvetica,sans-Serif" font-size="10.00">manif/SO3.h</text>
</a>
</g>
</g>
<!-- Node3&#45;&gt;Node6 -->
<g id="edge5" class="edge">
<title>Node3&#45;&gt;Node6</title>
<path fill="none" stroke="midnightblue" d="M132.74,-56.4C132.87,-48.47 133.04,-38.46 133.18,-29.86"/>
<polygon fill="midnightblue" stroke="midnightblue" points="136.69,-29.72 133.35,-19.66 129.69,-29.6 136.69,-29.72"/>
</g>
</g>
</svg>
