<?xml version="1.0" encoding="UTF-8" standalone="no"?>
<!DOCTYPE svg PUBLIC "-//W3C//DTD SVG 1.1//EN"
 "http://www.w3.org/Graphics/SVG/1.1/DTD/svg11.dtd">
<!-- Generated by graphviz version 2.43.0 (0)
 -->
<!-- Title: Planners/include/BipedalLocomotion/Planners/ConvexHullHelper.h Pages: 1 -->
<svg width="227pt" height="106pt"
 viewBox="0.00 0.00 226.50 106.00" xmlns="http://www.w3.org/2000/svg" xmlns:xlink="http://www.w3.org/1999/xlink">
<g id="graph0" class="graph" transform="scale(1 1) rotate(0) translate(4 102)">
<title>Planners/include/BipedalLocomotion/Planners/ConvexHullHelper.h</title>
<!-- Node1 -->
<g id="node1" class="node">
<title>Node1</title>
<g id="a_node1"><a xlink:title=" ">
<polygon fill="#bfbfbf" stroke="black" points="29.5,-56.5 29.5,-97.5 207.5,-97.5 207.5,-56.5 29.5,-56.5"/>
<text text-anchor="start" x="37.5" y="-85.5" font-family="Helvetica,sans-Serif" font-size="10.00">Planners/include/Bipedal</text>
<text text-anchor="start" x="37.5" y="-74.5" font-family="Helvetica,sans-Serif" font-size="10.00">Locomotion/Planners/ConvexHull</text>
<text text-anchor="middle" x="118.5" y="-63.5" font-family="Helvetica,sans-Serif" font-size="10.00">Helper.h</text>
</a>
</g>
</g>
<!-- Node2 -->
<g id="node2" class="node">
<title>Node2</title>
<g id="a_node2"><a xlink:title=" ">
<polygon fill="none" stroke="#bfbfbf" points="0,-0.5 0,-19.5 77,-19.5 77,-0.5 0,-0.5"/>
<text text-anchor="middle" x="38.5" y="-7.5" font-family="Helvetica,sans-Serif" font-size="10.00">Eigen/Dense</text>
</a>
</g>
</g>
<!-- Node1&#45;&gt;Node2 -->
<g id="edge1" class="edge">
<title>Node1&#45;&gt;Node2</title>
<path fill="none" stroke="midnightblue" d="M94.5,-56.5C82.47,-46.72 68.13,-35.07 56.97,-26.01"/>
<polygon fill="midnightblue" stroke="midnightblue" points="59.12,-23.24 49.15,-19.65 54.7,-28.67 59.12,-23.24"/>
</g>
<!-- Node3 -->
<g id="node3" class="node">
<title>Node3</title>
<g id="a_node3"><a xlink:title=" ">
<polygon fill="none" stroke="#bfbfbf" points="95,-0.5 95,-19.5 142,-19.5 142,-0.5 95,-0.5"/>
<text text-anchor="middle" x="118.5" y="-7.5" font-family="Helvetica,sans-Serif" font-size="10.00">vector</text>
</a>
</g>
</g>
<!-- Node1&#45;&gt;Node3 -->
<g id="edge2" class="edge">
<title>Node1&#45;&gt;Node3</title>
<path fill="none" stroke="midnightblue" d="M118.5,-56.5C118.5,-48.07 118.5,-38.24 118.5,-29.87"/>
<polygon fill="midnightblue" stroke="midnightblue" points="122,-29.65 118.5,-19.65 115,-29.65 122,-29.65"/>
</g>
<!-- Node4 -->
<g id="node4" class="node">
<title>Node4</title>
<g id="a_node4"><a xlink:title=" ">
<polygon fill="none" stroke="#bfbfbf" points="160.5,-0.5 160.5,-19.5 218.5,-19.5 218.5,-0.5 160.5,-0.5"/>
<text text-anchor="middle" x="189.5" y="-7.5" font-family="Helvetica,sans-Serif" font-size="10.00">memory</text>
</a>
</g>
</g>
<!-- Node1&#45;&gt;Node4 -->
<g id="edge3" class="edge">
<title>Node1&#45;&gt;Node4</title>
<path fill="none" stroke="midnightblue" d="M139.8,-56.5C150.27,-46.92 162.71,-35.53 172.52,-26.54"/>
<polygon fill="midnightblue" stroke="midnightblue" points="175.04,-28.99 180.05,-19.65 170.31,-23.82 175.04,-28.99"/>
</g>
</g>
</svg>
