<?xml version="1.0" encoding="UTF-8" standalone="no"?>
<!DOCTYPE svg PUBLIC "-//W3C//DTD SVG 1.1//EN"
 "http://www.w3.org/Graphics/SVG/1.1/DTD/svg11.dtd">
<!-- Generated by graphviz version 2.43.0 (0)
 -->
<!-- Title: Planners/src/ConvexHullHelper.cpp Pages: 1 -->
<svg width="663pt" height="151pt"
 viewBox="0.00 0.00 662.50 151.00" xmlns="http://www.w3.org/2000/svg" xmlns:xlink="http://www.w3.org/1999/xlink">
<g id="graph0" class="graph" transform="scale(1 1) rotate(0) translate(4 147)">
<title>Planners/src/ConvexHullHelper.cpp</title>
<!-- Node1 -->
<g id="node1" class="node">
<title>Node1</title>
<g id="a_node1"><a xlink:title=" ">
<polygon fill="#bfbfbf" stroke="black" points="216,-123.5 216,-142.5 403,-142.5 403,-123.5 216,-123.5"/>
<text text-anchor="middle" x="309.5" y="-130.5" font-family="Helvetica,sans-Serif" font-size="10.00">Planners/src/ConvexHullHelper.cpp</text>
</a>
</g>
</g>
<!-- Node2 -->
<g id="node2" class="node">
<title>Node2</title>
<g id="a_node2"><a xlink:title=" ">
<polygon fill="none" stroke="#bfbfbf" points="0,-62 0,-81 165,-81 165,-62 0,-62"/>
<text text-anchor="middle" x="82.5" y="-69" font-family="Helvetica,sans-Serif" font-size="10.00">libqhullcpp/PointCoordinates.h</text>
</a>
</g>
</g>
<!-- Node1&#45;&gt;Node2 -->
<g id="edge1" class="edge">
<title>Node1&#45;&gt;Node2</title>
<path fill="none" stroke="midnightblue" d="M276.98,-123.48C236.94,-112.98 168.86,-95.14 124.8,-83.59"/>
<polygon fill="midnightblue" stroke="midnightblue" points="125.52,-80.16 114.96,-81.01 123.75,-86.93 125.52,-80.16"/>
</g>
<!-- Node3 -->
<g id="node3" class="node">
<title>Node3</title>
<g id="a_node3"><a xlink:title=" ">
<polygon fill="none" stroke="#bfbfbf" points="183,-62 183,-81 290,-81 290,-62 183,-62"/>
<text text-anchor="middle" x="236.5" y="-69" font-family="Helvetica,sans-Serif" font-size="10.00">libqhullcpp/Qhull.h</text>
</a>
</g>
</g>
<!-- Node1&#45;&gt;Node3 -->
<g id="edge2" class="edge">
<title>Node1&#45;&gt;Node3</title>
<path fill="none" stroke="midnightblue" d="M299.04,-123.48C287.55,-114.11 268.87,-98.88 254.91,-87.51"/>
<polygon fill="midnightblue" stroke="midnightblue" points="256.9,-84.61 246.94,-81.01 252.48,-90.04 256.9,-84.61"/>
</g>
<!-- Node4 -->
<g id="node4" class="node">
<title>Node4</title>
<g id="a_node4"><a xlink:title=" ">
<polygon fill="none" stroke="#bfbfbf" points="308.5,-62 308.5,-81 458.5,-81 458.5,-62 308.5,-62"/>
<text text-anchor="middle" x="383.5" y="-69" font-family="Helvetica,sans-Serif" font-size="10.00">libqhullcpp/QhullFacetList.h</text>
</a>
</g>
</g>
<!-- Node1&#45;&gt;Node4 -->
<g id="edge3" class="edge">
<title>Node1&#45;&gt;Node4</title>
<path fill="none" stroke="midnightblue" d="M320.1,-123.48C331.75,-114.11 350.69,-98.88 364.83,-87.51"/>
<polygon fill="midnightblue" stroke="midnightblue" points="367.32,-90 372.92,-81.01 362.93,-84.55 367.32,-90"/>
</g>
<!-- Node5 -->
<g id="node5" class="node">
<title>Node5</title>
<g id="a_node5"><a xlink:href="ConvexHullHelper_8h.html" target="_top" xlink:title=" ">
<polygon fill="none" stroke="black" points="477,-56.5 477,-86.5 632,-86.5 632,-56.5 477,-56.5"/>
<text text-anchor="start" x="485" y="-74.5" font-family="Helvetica,sans-Serif" font-size="10.00">BipedalLocomotion/Planners</text>
<text text-anchor="middle" x="554.5" y="-63.5" font-family="Helvetica,sans-Serif" font-size="10.00">/ConvexHullHelper.h</text>
</a>
</g>
</g>
<!-- Node1&#45;&gt;Node5 -->
<g id="edge4" class="edge">
<title>Node1&#45;&gt;Node5</title>
<path fill="none" stroke="midnightblue" d="M344.6,-123.48C381.58,-114.49 440.74,-100.13 486.84,-88.93"/>
<polygon fill="midnightblue" stroke="midnightblue" points="487.87,-92.28 496.76,-86.52 486.21,-85.48 487.87,-92.28"/>
</g>
<!-- Node6 -->
<g id="node6" class="node">
<title>Node6</title>
<g id="a_node6"><a xlink:title=" ">
<polygon fill="none" stroke="#bfbfbf" points="436,-0.5 436,-19.5 513,-19.5 513,-0.5 436,-0.5"/>
<text text-anchor="middle" x="474.5" y="-7.5" font-family="Helvetica,sans-Serif" font-size="10.00">Eigen/Dense</text>
</a>
</g>
</g>
<!-- Node5&#45;&gt;Node6 -->
<g id="edge5" class="edge">
<title>Node5&#45;&gt;Node6</title>
<path fill="none" stroke="midnightblue" d="M535.54,-56.4C523.08,-47.13 506.8,-35.03 494.19,-25.65"/>
<polygon fill="midnightblue" stroke="midnightblue" points="496.25,-22.82 486.14,-19.66 492.08,-28.43 496.25,-22.82"/>
</g>
<!-- Node7 -->
<g id="node7" class="node">
<title>Node7</title>
<g id="a_node7"><a xlink:title=" ">
<polygon fill="none" stroke="#bfbfbf" points="531,-0.5 531,-19.5 578,-19.5 578,-0.5 531,-0.5"/>
<text text-anchor="middle" x="554.5" y="-7.5" font-family="Helvetica,sans-Serif" font-size="10.00">vector</text>
</a>
</g>
</g>
<!-- Node5&#45;&gt;Node7 -->
<g id="edge6" class="edge">
<title>Node5&#45;&gt;Node7</title>
<path fill="none" stroke="midnightblue" d="M554.5,-56.4C554.5,-48.47 554.5,-38.46 554.5,-29.86"/>
<polygon fill="midnightblue" stroke="midnightblue" points="558,-29.66 554.5,-19.66 551,-29.66 558,-29.66"/>
</g>
<!-- Node8 -->
<g id="node8" class="node">
<title>Node8</title>
<g id="a_node8"><a xlink:title=" ">
<polygon fill="none" stroke="#bfbfbf" points="596.5,-0.5 596.5,-19.5 654.5,-19.5 654.5,-0.5 596.5,-0.5"/>
<text text-anchor="middle" x="625.5" y="-7.5" font-family="Helvetica,sans-Serif" font-size="10.00">memory</text>
</a>
</g>
</g>
<!-- Node5&#45;&gt;Node8 -->
<g id="edge7" class="edge">
<title>Node5&#45;&gt;Node8</title>
<path fill="none" stroke="midnightblue" d="M571.33,-56.4C582.17,-47.31 596.28,-35.49 607.37,-26.19"/>
<polygon fill="midnightblue" stroke="midnightblue" points="609.75,-28.76 615.17,-19.66 605.26,-23.4 609.75,-28.76"/>
</g>
</g>
</svg>
