<?xml version="1.0" encoding="UTF-8" standalone="no"?>
<!DOCTYPE svg PUBLIC "-//W3C//DTD SVG 1.1//EN"
 "http://www.w3.org/Graphics/SVG/1.1/DTD/svg11.dtd">
<!-- Generated by graphviz version 2.43.0 (0)
 -->
<!-- Title: AutoDiff/include/BipedalLocomotion/AutoDiff/CppAD.h Pages: 1 -->
<svg width="345pt" height="106pt"
 viewBox="0.00 0.00 344.50 106.00" xmlns="http://www.w3.org/2000/svg" xmlns:xlink="http://www.w3.org/1999/xlink">
<g id="graph0" class="graph" transform="scale(1 1) rotate(0) translate(4 102)">
<title>AutoDiff/include/BipedalLocomotion/AutoDiff/CppAD.h</title>
<!-- Node1 -->
<g id="node1" class="node">
<title>Node1</title>
<g id="a_node1"><a xlink:title=" ">
<polygon fill="#bfbfbf" stroke="black" points="64,-67.5 64,-97.5 225,-97.5 225,-67.5 64,-67.5"/>
<text text-anchor="start" x="72" y="-85.5" font-family="Helvetica,sans-Serif" font-size="10.00">AutoDiff/include/Bipedal</text>
<text text-anchor="middle" x="144.5" y="-74.5" font-family="Helvetica,sans-Serif" font-size="10.00">Locomotion/AutoDiff/CppAD.h</text>
</a>
</g>
</g>
<!-- Node2 -->
<g id="node2" class="node">
<title>Node2</title>
<g id="a_node2"><a xlink:title=" ">
<polygon fill="none" stroke="#bfbfbf" points="0,-6 0,-25 77,-25 77,-6 0,-6"/>
<text text-anchor="middle" x="38.5" y="-13" font-family="Helvetica,sans-Serif" font-size="10.00">Eigen/Dense</text>
</a>
</g>
</g>
<!-- Node1&#45;&gt;Node2 -->
<g id="edge1" class="edge">
<title>Node1&#45;&gt;Node2</title>
<path fill="none" stroke="midnightblue" d="M121.5,-67.4C103.56,-56.39 78.78,-41.2 60.98,-30.28"/>
<polygon fill="midnightblue" stroke="midnightblue" points="62.73,-27.25 52.37,-25.01 59.07,-33.22 62.73,-27.25"/>
</g>
<!-- Node3 -->
<g id="node3" class="node">
<title>Node3</title>
<g id="a_node3"><a xlink:title=" ">
<polygon fill="none" stroke="#bfbfbf" points="95,-6 95,-25 194,-25 194,-6 95,-6"/>
<text text-anchor="middle" x="144.5" y="-13" font-family="Helvetica,sans-Serif" font-size="10.00">cppad/cppad.hpp</text>
</a>
</g>
</g>
<!-- Node1&#45;&gt;Node3 -->
<g id="edge2" class="edge">
<title>Node1&#45;&gt;Node3</title>
<path fill="none" stroke="midnightblue" d="M144.5,-67.4C144.5,-58.06 144.5,-45.71 144.5,-35.52"/>
<polygon fill="midnightblue" stroke="midnightblue" points="148,-35.19 144.5,-25.19 141,-35.19 148,-35.19"/>
</g>
<!-- Node4 -->
<g id="node4" class="node">
<title>Node4</title>
<g id="a_node4"><a xlink:title=" ">
<polygon fill="none" stroke="#bfbfbf" points="212.5,-0.5 212.5,-30.5 336.5,-30.5 336.5,-0.5 212.5,-0.5"/>
<text text-anchor="start" x="220.5" y="-18.5" font-family="Helvetica,sans-Serif" font-size="10.00">cppad/example/cppad</text>
<text text-anchor="middle" x="274.5" y="-7.5" font-family="Helvetica,sans-Serif" font-size="10.00">_eigen.hpp</text>
</a>
</g>
</g>
<!-- Node1&#45;&gt;Node4 -->
<g id="edge3" class="edge">
<title>Node1&#45;&gt;Node4</title>
<path fill="none" stroke="midnightblue" d="M172.71,-67.4C191.62,-57.94 216.72,-45.39 237.27,-35.12"/>
<polygon fill="midnightblue" stroke="midnightblue" points="238.97,-38.18 246.35,-30.58 235.84,-31.92 238.97,-38.18"/>
</g>
</g>
</svg>
