<?xml version="1.0" encoding="UTF-8" standalone="no"?>
<!DOCTYPE svg PUBLIC "-//W3C//DTD SVG 1.1//EN"
 "http://www.w3.org/Graphics/SVG/1.1/DTD/svg11.dtd">
<!-- Generated by graphviz version 2.43.0 (0)
 -->
<!-- Title: Planners/include/BipedalLocomotion/Planners/DCMPlanner.h Pages: 1 -->
<svg width="368pt" height="184pt"
 viewBox="0.00 0.00 367.50 184.00" xmlns="http://www.w3.org/2000/svg" xmlns:xlink="http://www.w3.org/1999/xlink">
<g id="graph0" class="graph" transform="scale(1 1) rotate(0) translate(4 180)">
<title>Planners/include/BipedalLocomotion/Planners/DCMPlanner.h</title>
<!-- Node1 -->
<g id="node1" class="node">
<title>Node1</title>
<g id="a_node1"><a xlink:title=" ">
<polygon fill="#bfbfbf" stroke="black" points="90.5,-145.5 90.5,-175.5 280.5,-175.5 280.5,-145.5 90.5,-145.5"/>
<text text-anchor="start" x="98.5" y="-163.5" font-family="Helvetica,sans-Serif" font-size="10.00">Planners/include/Bipedal</text>
<text text-anchor="middle" x="185.5" y="-152.5" font-family="Helvetica,sans-Serif" font-size="10.00">Locomotion/Planners/DCMPlanner.h</text>
</a>
</g>
</g>
<!-- Node2 -->
<g id="node2" class="node">
<title>Node2</title>
<g id="a_node2"><a xlink:href="TimeVaryingDCMPlanner_8h.html" target="_top" xlink:title=" ">
<polygon fill="none" stroke="black" points="0,-67.5 0,-108.5 183,-108.5 183,-67.5 0,-67.5"/>
<text text-anchor="start" x="8" y="-96.5" font-family="Helvetica,sans-Serif" font-size="10.00">Planners/include/Bipedal</text>
<text text-anchor="start" x="8" y="-85.5" font-family="Helvetica,sans-Serif" font-size="10.00">Locomotion/Planners/TimeVarying</text>
<text text-anchor="middle" x="91.5" y="-74.5" font-family="Helvetica,sans-Serif" font-size="10.00">DCMPlanner.h</text>
</a>
</g>
</g>
<!-- Node1&#45;&gt;Node2 -->
<g id="edge1" class="edge">
<title>Node1&#45;&gt;Node2</title>
<path fill="none" stroke="midnightblue" d="M158.45,-139.21C145.61,-129.58 130.33,-118.12 117.62,-108.59"/>
<polygon fill="midnightblue" stroke="midnightblue" points="156.38,-142.03 166.48,-145.23 160.58,-136.43 156.38,-142.03"/>
</g>
<!-- Node4 -->
<g id="node4" class="node">
<title>Node4</title>
<g id="a_node4"><a xlink:href="DCMPlanner_8cpp.html" target="_top" xlink:title=" ">
<polygon fill="none" stroke="black" points="201.5,-78.5 201.5,-97.5 359.5,-97.5 359.5,-78.5 201.5,-78.5"/>
<text text-anchor="middle" x="280.5" y="-85.5" font-family="Helvetica,sans-Serif" font-size="10.00">Planners/src/DCMPlanner.cpp</text>
</a>
</g>
</g>
<!-- Node1&#45;&gt;Node4 -->
<g id="edge3" class="edge">
<title>Node1&#45;&gt;Node4</title>
<path fill="none" stroke="midnightblue" d="M212.83,-139.22C231.36,-125.47 254.92,-107.98 268.79,-97.69"/>
<polygon fill="midnightblue" stroke="midnightblue" points="210.67,-136.46 204.72,-145.23 214.84,-142.08 210.67,-136.46"/>
</g>
<!-- Node3 -->
<g id="node3" class="node">
<title>Node3</title>
<g id="a_node3"><a xlink:href="TimeVaryingDCMPlanner_8cpp.html" target="_top" xlink:title=" ">
<polygon fill="none" stroke="black" points="21.5,-0.5 21.5,-30.5 161.5,-30.5 161.5,-0.5 21.5,-0.5"/>
<text text-anchor="start" x="29.5" y="-18.5" font-family="Helvetica,sans-Serif" font-size="10.00">Planners/src/TimeVarying</text>
<text text-anchor="middle" x="91.5" y="-7.5" font-family="Helvetica,sans-Serif" font-size="10.00">DCMPlanner.cpp</text>
</a>
</g>
</g>
<!-- Node2&#45;&gt;Node3 -->
<g id="edge2" class="edge">
<title>Node2&#45;&gt;Node3</title>
<path fill="none" stroke="midnightblue" d="M91.5,-57.08C91.5,-48.01 91.5,-38.45 91.5,-30.89"/>
<polygon fill="midnightblue" stroke="midnightblue" points="88,-57.36 91.5,-67.36 95,-57.36 88,-57.36"/>
</g>
</g>
</svg>
