<?xml version="1.0" encoding="UTF-8" standalone="no"?>
<!DOCTYPE svg PUBLIC "-//W3C//DTD SVG 1.1//EN"
 "http://www.w3.org/Graphics/SVG/1.1/DTD/svg11.dtd">
<!-- Generated by graphviz version 2.43.0 (0)
 -->
<!-- Title: Planners/include/BipedalLocomotion/Planners/DCMPlanner.h Pages: 1 -->
<svg width="1008pt" height="430pt"
 viewBox="0.00 0.00 1007.50 430.00" xmlns="http://www.w3.org/2000/svg" xmlns:xlink="http://www.w3.org/1999/xlink">
<g id="graph0" class="graph" transform="scale(1 1) rotate(0) translate(4 426)">
<title>Planners/include/BipedalLocomotion/Planners/DCMPlanner.h</title>
<!-- Node1 -->
<g id="node1" class="node">
<title>Node1</title>
<g id="a_node1"><a xlink:title=" ">
<polygon fill="#bfbfbf" stroke="black" points="258,-391.5 258,-421.5 448,-421.5 448,-391.5 258,-391.5"/>
<text text-anchor="start" x="266" y="-409.5" font-family="Helvetica,sans-Serif" font-size="10.00">Planners/include/Bipedal</text>
<text text-anchor="middle" x="353" y="-398.5" font-family="Helvetica,sans-Serif" font-size="10.00">Locomotion/Planners/DCMPlanner.h</text>
</a>
</g>
</g>
<!-- Node2 -->
<g id="node2" class="node">
<title>Node2</title>
<g id="a_node2"><a xlink:title=" ">
<polygon fill="none" stroke="#bfbfbf" points="0,-62 0,-81 58,-81 58,-62 0,-62"/>
<text text-anchor="middle" x="29" y="-69" font-family="Helvetica,sans-Serif" font-size="10.00">memory</text>
</a>
</g>
</g>
<!-- Node1&#45;&gt;Node2 -->
<g id="edge1" class="edge">
<title>Node1&#45;&gt;Node2</title>
<path fill="none" stroke="midnightblue" d="M257.89,-401.84C170.68,-392.78 55,-363.75 55,-273.5 55,-273.5 55,-273.5 55,-204.5 55,-163.2 42.59,-115.97 34.92,-90.71"/>
<polygon fill="midnightblue" stroke="midnightblue" points="38.22,-89.53 31.88,-81.03 31.54,-91.62 38.22,-89.53"/>
</g>
<!-- Node3 -->
<g id="node3" class="node">
<title>Node3</title>
<g id="a_node3"><a xlink:title=" ">
<polygon fill="none" stroke="#bfbfbf" points="922.5,-0.5 922.5,-19.5 999.5,-19.5 999.5,-0.5 922.5,-0.5"/>
<text text-anchor="middle" x="961" y="-7.5" font-family="Helvetica,sans-Serif" font-size="10.00">Eigen/Dense</text>
</a>
</g>
</g>
<!-- Node1&#45;&gt;Node3 -->
<g id="edge2" class="edge">
<title>Node1&#45;&gt;Node3</title>
<path fill="none" stroke="midnightblue" d="M448.16,-404.35C619.44,-399.68 962,-377.36 962,-273.5 962,-273.5 962,-273.5 962,-137.5 962,-99.2 961.54,-54.38 961.24,-29.7"/>
<polygon fill="midnightblue" stroke="midnightblue" points="964.74,-29.55 961.11,-19.59 957.74,-29.63 964.74,-29.55"/>
</g>
<!-- Node4 -->
<g id="node4" class="node">
<title>Node4</title>
<g id="a_node4"><a xlink:href="IParametersHandler_8h.html" target="_top" xlink:title=" ">
<polygon fill="none" stroke="black" points="189.5,-190.5 189.5,-220.5 358.5,-220.5 358.5,-190.5 189.5,-190.5"/>
<text text-anchor="start" x="197.5" y="-208.5" font-family="Helvetica,sans-Serif" font-size="10.00">BipedalLocomotion/Parameters</text>
<text text-anchor="middle" x="274" y="-197.5" font-family="Helvetica,sans-Serif" font-size="10.00">Handler/IParametersHandler.h</text>
</a>
</g>
</g>
<!-- Node1&#45;&gt;Node4 -->
<g id="edge3" class="edge">
<title>Node1&#45;&gt;Node4</title>
<path fill="none" stroke="midnightblue" d="M312.51,-391.5C295.94,-383.54 278.47,-371.74 269,-355 246.96,-316.04 257.1,-261.66 265.92,-230.67"/>
<polygon fill="midnightblue" stroke="midnightblue" points="269.37,-231.33 268.93,-220.75 262.68,-229.3 269.37,-231.33"/>
</g>
<!-- Node16 -->
<g id="node16" class="node">
<title>Node16</title>
<g id="a_node16"><a xlink:href="ContactPhaseList_8h_source.html" target="_top" xlink:title=" ">
<polygon fill="none" stroke="black" points="552,-324.5 552,-354.5 708,-354.5 708,-324.5 552,-324.5"/>
<text text-anchor="start" x="560" y="-342.5" font-family="Helvetica,sans-Serif" font-size="10.00">BipedalLocomotion/Contacts</text>
<text text-anchor="middle" x="630" y="-331.5" font-family="Helvetica,sans-Serif" font-size="10.00">/ContactPhaseList.h</text>
</a>
</g>
</g>
<!-- Node1&#45;&gt;Node16 -->
<g id="edge18" class="edge">
<title>Node1&#45;&gt;Node16</title>
<path fill="none" stroke="midnightblue" d="M412.76,-391.48C456.03,-381.32 514.65,-367.57 560.09,-356.91"/>
<polygon fill="midnightblue" stroke="midnightblue" points="560.93,-360.3 569.87,-354.61 559.33,-353.49 560.93,-360.3"/>
</g>
<!-- Node27 -->
<g id="node27" class="node">
<title>Node27</title>
<g id="a_node27"><a xlink:href="Source_8h.html" target="_top" xlink:title=" ">
<polygon fill="none" stroke="black" points="278,-324.5 278,-354.5 428,-354.5 428,-324.5 278,-324.5"/>
<text text-anchor="start" x="286" y="-342.5" font-family="Helvetica,sans-Serif" font-size="10.00">BipedalLocomotion/System</text>
<text text-anchor="middle" x="353" y="-331.5" font-family="Helvetica,sans-Serif" font-size="10.00">/Source.h</text>
</a>
</g>
</g>
<!-- Node1&#45;&gt;Node27 -->
<g id="edge40" class="edge">
<title>Node1&#45;&gt;Node27</title>
<path fill="none" stroke="midnightblue" d="M353,-391.4C353,-383.64 353,-373.81 353,-364.86"/>
<polygon fill="midnightblue" stroke="midnightblue" points="356.5,-364.58 353,-354.58 349.5,-364.58 356.5,-364.58"/>
</g>
<!-- Node4&#45;&gt;Node2 -->
<g id="edge4" class="edge">
<title>Node4&#45;&gt;Node2</title>
<path fill="none" stroke="midnightblue" d="M247.78,-190.37C200.2,-164.74 100.27,-110.9 53.77,-85.85"/>
<polygon fill="midnightblue" stroke="midnightblue" points="55.42,-82.76 44.96,-81.1 52.1,-88.92 55.42,-82.76"/>
</g>
<!-- Node5 -->
<g id="node5" class="node">
<title>Node5</title>
<g id="a_node5"><a xlink:title=" ">
<polygon fill="none" stroke="#bfbfbf" points="666,-62 666,-81 710,-81 710,-62 666,-62"/>
<text text-anchor="middle" x="688" y="-69" font-family="Helvetica,sans-Serif" font-size="10.00">string</text>
</a>
</g>
</g>
<!-- Node4&#45;&gt;Node5 -->
<g id="edge5" class="edge">
<title>Node4&#45;&gt;Node5</title>
<path fill="none" stroke="midnightblue" d="M309.95,-190.4C331.75,-181.23 359.75,-168.34 383,-154 401.84,-142.38 401.86,-132.2 422,-123 500.97,-86.93 528.73,-103.35 614,-87 627.8,-84.35 643.03,-81.38 656.07,-78.82"/>
<polygon fill="midnightblue" stroke="midnightblue" points="656.86,-82.23 665.99,-76.86 655.5,-75.36 656.86,-82.23"/>
</g>
<!-- Node6 -->
<g id="node6" class="node">
<title>Node6</title>
<g id="a_node6"><a xlink:title=" ">
<polygon fill="none" stroke="#bfbfbf" points="430.5,-129 430.5,-148 477.5,-148 477.5,-129 430.5,-129"/>
<text text-anchor="middle" x="454" y="-136" font-family="Helvetica,sans-Serif" font-size="10.00">vector</text>
</a>
</g>
</g>
<!-- Node4&#45;&gt;Node6 -->
<g id="edge6" class="edge">
<title>Node4&#45;&gt;Node6</title>
<path fill="none" stroke="midnightblue" d="M314.18,-190.49C342.66,-180.48 381.75,-166.62 416,-154 418.1,-153.23 420.26,-152.42 422.44,-151.61"/>
<polygon fill="midnightblue" stroke="midnightblue" points="423.81,-154.83 431.93,-148.02 421.34,-148.28 423.81,-154.83"/>
</g>
<!-- Node7 -->
<g id="node7" class="node">
<title>Node7</title>
<g id="a_node7"><a xlink:href="TemplateHelpers_8h_source.html" target="_top" xlink:title=" ">
<polygon fill="none" stroke="black" points="76,-56.5 76,-86.5 234,-86.5 234,-56.5 76,-56.5"/>
<text text-anchor="start" x="84" y="-74.5" font-family="Helvetica,sans-Serif" font-size="10.00">BipedalLocomotion/Generic</text>
<text text-anchor="middle" x="155" y="-63.5" font-family="Helvetica,sans-Serif" font-size="10.00">Container/TemplateHelpers.h</text>
</a>
</g>
</g>
<!-- Node4&#45;&gt;Node7 -->
<g id="edge7" class="edge">
<title>Node4&#45;&gt;Node7</title>
<path fill="none" stroke="midnightblue" d="M254.47,-190.43C241.91,-180.89 225.64,-167.59 213,-154 196.04,-135.75 179.88,-112.37 168.94,-95.33"/>
<polygon fill="midnightblue" stroke="midnightblue" points="171.73,-93.19 163.43,-86.59 165.81,-96.92 171.73,-93.19"/>
</g>
<!-- Node11 -->
<g id="node11" class="node">
<title>Node11</title>
<g id="a_node11"><a xlink:href="Vector_8h_source.html" target="_top" xlink:title=" ">
<polygon fill="none" stroke="black" points="222.5,-123.5 222.5,-153.5 373.5,-153.5 373.5,-123.5 222.5,-123.5"/>
<text text-anchor="start" x="230.5" y="-141.5" font-family="Helvetica,sans-Serif" font-size="10.00">BipedalLocomotion/Generic</text>
<text text-anchor="middle" x="298" y="-130.5" font-family="Helvetica,sans-Serif" font-size="10.00">Container/Vector.h</text>
</a>
</g>
</g>
<!-- Node4&#45;&gt;Node11 -->
<g id="edge11" class="edge">
<title>Node4&#45;&gt;Node11</title>
<path fill="none" stroke="midnightblue" d="M279.21,-190.4C282.16,-182.39 285.94,-172.16 289.33,-162.98"/>
<polygon fill="midnightblue" stroke="midnightblue" points="292.62,-164.17 292.8,-153.58 286.06,-161.75 292.62,-164.17"/>
</g>
<!-- Node8 -->
<g id="node8" class="node">
<title>Node8</title>
<g id="a_node8"><a xlink:title=" ">
<polygon fill="none" stroke="#bfbfbf" points="31.5,-0.5 31.5,-19.5 100.5,-19.5 100.5,-0.5 31.5,-0.5"/>
<text text-anchor="middle" x="66" y="-7.5" font-family="Helvetica,sans-Serif" font-size="10.00">type_traits</text>
</a>
</g>
</g>
<!-- Node7&#45;&gt;Node8 -->
<g id="edge8" class="edge">
<title>Node7&#45;&gt;Node8</title>
<path fill="none" stroke="midnightblue" d="M133.91,-56.4C119.91,-47.04 101.59,-34.79 87.51,-25.38"/>
<polygon fill="midnightblue" stroke="midnightblue" points="89.21,-22.31 78.95,-19.66 85.32,-28.13 89.21,-22.31"/>
</g>
<!-- Node9 -->
<g id="node9" class="node">
<title>Node9</title>
<g id="a_node9"><a xlink:title=" ">
<polygon fill="none" stroke="#bfbfbf" points="118.5,-0.5 118.5,-19.5 191.5,-19.5 191.5,-0.5 118.5,-0.5"/>
<text text-anchor="middle" x="155" y="-7.5" font-family="Helvetica,sans-Serif" font-size="10.00">string_view</text>
</a>
</g>
</g>
<!-- Node7&#45;&gt;Node9 -->
<g id="edge9" class="edge">
<title>Node7&#45;&gt;Node9</title>
<path fill="none" stroke="midnightblue" d="M155,-56.4C155,-48.47 155,-38.46 155,-29.86"/>
<polygon fill="midnightblue" stroke="midnightblue" points="158.5,-29.66 155,-19.66 151.5,-29.66 158.5,-29.66"/>
</g>
<!-- Node10 -->
<g id="node10" class="node">
<title>Node10</title>
<g id="a_node10"><a xlink:title=" ">
<polygon fill="none" stroke="#bfbfbf" points="209.5,-0.5 209.5,-19.5 278.5,-19.5 278.5,-0.5 209.5,-0.5"/>
<text text-anchor="middle" x="244" y="-7.5" font-family="Helvetica,sans-Serif" font-size="10.00">Eigen/Core</text>
</a>
</g>
</g>
<!-- Node7&#45;&gt;Node10 -->
<g id="edge10" class="edge">
<title>Node7&#45;&gt;Node10</title>
<path fill="none" stroke="midnightblue" d="M176.09,-56.4C190.09,-47.04 208.41,-34.79 222.49,-25.38"/>
<polygon fill="midnightblue" stroke="midnightblue" points="224.68,-28.13 231.05,-19.66 220.79,-22.31 224.68,-28.13"/>
</g>
<!-- Node11&#45;&gt;Node2 -->
<g id="edge17" class="edge">
<title>Node11&#45;&gt;Node2</title>
<path fill="none" stroke="midnightblue" d="M222.37,-123.93C176.91,-115.04 118.14,-102.25 67,-87 64.42,-86.23 61.77,-85.37 59.13,-84.46"/>
<polygon fill="midnightblue" stroke="midnightblue" points="60.31,-81.17 49.71,-81.05 57.92,-87.75 60.31,-81.17"/>
</g>
<!-- Node11&#45;&gt;Node7 -->
<g id="edge13" class="edge">
<title>Node11&#45;&gt;Node7</title>
<path fill="none" stroke="midnightblue" d="M266.97,-123.4C245.98,-113.86 218.06,-101.16 195.35,-90.84"/>
<polygon fill="midnightblue" stroke="midnightblue" points="196.52,-87.53 185.97,-86.58 193.62,-93.9 196.52,-87.53"/>
</g>
<!-- Node12 -->
<g id="node12" class="node">
<title>Node12</title>
<g id="a_node12"><a xlink:title=" ">
<polygon fill="none" stroke="#bfbfbf" points="251.5,-62 251.5,-81 372.5,-81 372.5,-62 251.5,-62"/>
<text text-anchor="middle" x="312" y="-69" font-family="Helvetica,sans-Serif" font-size="10.00">iDynTree/Core/Span.h</text>
</a>
</g>
</g>
<!-- Node11&#45;&gt;Node12 -->
<g id="edge12" class="edge">
<title>Node11&#45;&gt;Node12</title>
<path fill="none" stroke="midnightblue" d="M301.04,-123.4C303.07,-113.96 305.76,-101.45 307.97,-91.19"/>
<polygon fill="midnightblue" stroke="midnightblue" points="311.44,-91.71 310.13,-81.19 304.6,-90.23 311.44,-91.71"/>
</g>
<!-- Node13 -->
<g id="node13" class="node">
<title>Node13</title>
<g id="a_node13"><a xlink:title=" ">
<polygon fill="none" stroke="#bfbfbf" points="539.5,-62 539.5,-81 604.5,-81 604.5,-62 539.5,-62"/>
<text text-anchor="middle" x="572" y="-69" font-family="Helvetica,sans-Serif" font-size="10.00">functional</text>
</a>
</g>
</g>
<!-- Node11&#45;&gt;Node13 -->
<g id="edge14" class="edge">
<title>Node11&#45;&gt;Node13</title>
<path fill="none" stroke="midnightblue" d="M373.26,-123.46C418.93,-114.36 478.2,-101.52 530,-87 532.95,-86.17 536,-85.25 539.04,-84.29"/>
<polygon fill="midnightblue" stroke="midnightblue" points="540.21,-87.59 548.61,-81.12 538.01,-80.94 540.21,-87.59"/>
</g>
<!-- Node14 -->
<g id="node14" class="node">
<title>Node14</title>
<g id="a_node14"><a xlink:title=" ">
<polygon fill="none" stroke="#bfbfbf" points="391,-62 391,-81 443,-81 443,-62 391,-62"/>
<text text-anchor="middle" x="417" y="-69" font-family="Helvetica,sans-Serif" font-size="10.00">cassert</text>
</a>
</g>
</g>
<!-- Node11&#45;&gt;Node14 -->
<g id="edge15" class="edge">
<title>Node11&#45;&gt;Node14</title>
<path fill="none" stroke="midnightblue" d="M323.82,-123.4C344.24,-112.24 372.55,-96.78 392.59,-85.83"/>
<polygon fill="midnightblue" stroke="midnightblue" points="394.33,-88.87 401.43,-81.01 390.97,-82.73 394.33,-88.87"/>
</g>
<!-- Node15 -->
<g id="node15" class="node">
<title>Node15</title>
<g id="a_node15"><a xlink:title=" ">
<polygon fill="none" stroke="#bfbfbf" points="461,-62 461,-81 521,-81 521,-62 461,-62"/>
<text text-anchor="middle" x="491" y="-69" font-family="Helvetica,sans-Serif" font-size="10.00">iostream</text>
</a>
</g>
</g>
<!-- Node11&#45;&gt;Node15 -->
<g id="edge16" class="edge">
<title>Node11&#45;&gt;Node15</title>
<path fill="none" stroke="midnightblue" d="M342.3,-123.48C373.16,-113.59 415.21,-99.86 452,-87 454.24,-86.22 456.56,-85.39 458.88,-84.56"/>
<polygon fill="midnightblue" stroke="midnightblue" points="460.18,-87.81 468.37,-81.08 457.78,-81.23 460.18,-87.81"/>
</g>
<!-- Node16&#45;&gt;Node6 -->
<g id="edge39" class="edge">
<title>Node16&#45;&gt;Node6</title>
<path fill="none" stroke="midnightblue" d="M617.34,-324.19C585.54,-288.23 502.42,-194.25 468.62,-156.03"/>
<polygon fill="midnightblue" stroke="midnightblue" points="471.08,-153.53 461.84,-148.36 465.84,-158.17 471.08,-153.53"/>
</g>
<!-- Node17 -->
<g id="node17" class="node">
<title>Node17</title>
<g id="a_node17"><a xlink:href="Contact_8h.html" target="_top" xlink:title=" ">
<polygon fill="none" stroke="black" points="764,-123.5 764,-153.5 920,-153.5 920,-123.5 764,-123.5"/>
<text text-anchor="start" x="772" y="-141.5" font-family="Helvetica,sans-Serif" font-size="10.00">BipedalLocomotion/Contacts</text>
<text text-anchor="middle" x="842" y="-130.5" font-family="Helvetica,sans-Serif" font-size="10.00">/Contact.h</text>
</a>
</g>
</g>
<!-- Node16&#45;&gt;Node17 -->
<g id="edge19" class="edge">
<title>Node16&#45;&gt;Node17</title>
<path fill="none" stroke="midnightblue" d="M708.13,-331.69C750.93,-325.22 803.54,-312.61 845,-288 888.92,-261.94 927.1,-236.04 905,-190 899.05,-177.61 888.43,-167.31 877.57,-159.31"/>
<polygon fill="midnightblue" stroke="midnightblue" points="879.53,-156.41 869.3,-153.64 875.57,-162.18 879.53,-156.41"/>
</g>
<!-- Node21 -->
<g id="node21" class="node">
<title>Node21</title>
<g id="a_node21"><a xlink:href="ContactList_8h.html" target="_top" xlink:title=" ">
<polygon fill="none" stroke="black" points="552,-190.5 552,-220.5 708,-220.5 708,-190.5 552,-190.5"/>
<text text-anchor="start" x="560" y="-208.5" font-family="Helvetica,sans-Serif" font-size="10.00">BipedalLocomotion/Contacts</text>
<text text-anchor="middle" x="630" y="-197.5" font-family="Helvetica,sans-Serif" font-size="10.00">/ContactList.h</text>
</a>
</g>
</g>
<!-- Node16&#45;&gt;Node21 -->
<g id="edge26" class="edge">
<title>Node16&#45;&gt;Node21</title>
<path fill="none" stroke="midnightblue" d="M630,-324.37C630,-302.04 630,-258.31 630,-230.85"/>
<polygon fill="midnightblue" stroke="midnightblue" points="633.5,-230.52 630,-220.52 626.5,-230.52 633.5,-230.52"/>
</g>
<!-- Node24 -->
<g id="node24" class="node">
<title>Node24</title>
<g id="a_node24"><a xlink:href="ContactPhase_8h.html" target="_top" xlink:title=" ">
<polygon fill="none" stroke="black" points="658,-257.5 658,-287.5 814,-287.5 814,-257.5 658,-257.5"/>
<text text-anchor="start" x="666" y="-275.5" font-family="Helvetica,sans-Serif" font-size="10.00">BipedalLocomotion/Contacts</text>
<text text-anchor="middle" x="736" y="-264.5" font-family="Helvetica,sans-Serif" font-size="10.00">/ContactPhase.h</text>
</a>
</g>
</g>
<!-- Node16&#45;&gt;Node24 -->
<g id="edge32" class="edge">
<title>Node16&#45;&gt;Node24</title>
<path fill="none" stroke="midnightblue" d="M653,-324.4C668,-315.2 687.79,-303.07 704.27,-292.95"/>
<polygon fill="midnightblue" stroke="midnightblue" points="706.35,-295.79 713.04,-287.58 702.69,-289.82 706.35,-295.79"/>
</g>
<!-- Node25 -->
<g id="node25" class="node">
<title>Node25</title>
<g id="a_node25"><a xlink:title=" ">
<polygon fill="none" stroke="#bfbfbf" points="802.5,-196 802.5,-215 895.5,-215 895.5,-196 802.5,-196"/>
<text text-anchor="middle" x="849" y="-203" font-family="Helvetica,sans-Serif" font-size="10.00">unordered_map</text>
</a>
</g>
</g>
<!-- Node16&#45;&gt;Node25 -->
<g id="edge37" class="edge">
<title>Node16&#45;&gt;Node25</title>
<path fill="none" stroke="midnightblue" d="M708.08,-335.38C747.07,-329.91 792.34,-317.08 823,-288 840.31,-271.58 846.14,-243.67 848.07,-225.16"/>
<polygon fill="midnightblue" stroke="midnightblue" points="851.57,-225.27 848.84,-215.04 844.59,-224.74 851.57,-225.27"/>
</g>
<!-- Node26 -->
<g id="node26" class="node">
<title>Node26</title>
<g id="a_node26"><a xlink:title=" ">
<polygon fill="none" stroke="#bfbfbf" points="446.5,-263 446.5,-282 529.5,-282 529.5,-263 446.5,-263"/>
<text text-anchor="middle" x="488" y="-270" font-family="Helvetica,sans-Serif" font-size="10.00">initializer_list</text>
</a>
</g>
</g>
<!-- Node16&#45;&gt;Node26 -->
<g id="edge38" class="edge">
<title>Node16&#45;&gt;Node26</title>
<path fill="none" stroke="midnightblue" d="M599.19,-324.4C574.38,-313.04 539.82,-297.22 515.84,-286.24"/>
<polygon fill="midnightblue" stroke="midnightblue" points="517.13,-282.99 506.58,-282.01 514.22,-289.35 517.13,-282.99"/>
</g>
<!-- Node17&#45;&gt;Node5 -->
<g id="edge25" class="edge">
<title>Node17&#45;&gt;Node5</title>
<path fill="none" stroke="midnightblue" d="M808.58,-123.4C781.44,-111.94 743.53,-95.94 717.5,-84.95"/>
<polygon fill="midnightblue" stroke="midnightblue" points="718.73,-81.67 708.16,-81.01 716.01,-88.12 718.73,-81.67"/>
</g>
<!-- Node18 -->
<g id="node18" class="node">
<title>Node18</title>
<g id="a_node18"><a xlink:href="Wrench_8h.html" target="_top" xlink:title=" ">
<polygon fill="none" stroke="black" points="796,-56.5 796,-86.5 934,-86.5 934,-56.5 796,-56.5"/>
<text text-anchor="start" x="804" y="-74.5" font-family="Helvetica,sans-Serif" font-size="10.00">BipedalLocomotion/Math</text>
<text text-anchor="middle" x="865" y="-63.5" font-family="Helvetica,sans-Serif" font-size="10.00">/Wrench.h</text>
</a>
</g>
</g>
<!-- Node17&#45;&gt;Node18 -->
<g id="edge20" class="edge">
<title>Node17&#45;&gt;Node18</title>
<path fill="none" stroke="midnightblue" d="M846.99,-123.4C849.79,-115.47 853.37,-105.38 856.59,-96.27"/>
<polygon fill="midnightblue" stroke="midnightblue" points="859.98,-97.17 860.02,-86.58 853.38,-94.84 859.98,-97.17"/>
</g>
<!-- Node19 -->
<g id="node19" class="node">
<title>Node19</title>
<g id="a_node19"><a xlink:title=" ">
<polygon fill="none" stroke="#bfbfbf" points="731.5,-0.5 731.5,-19.5 806.5,-19.5 806.5,-0.5 731.5,-0.5"/>
<text text-anchor="middle" x="769" y="-7.5" font-family="Helvetica,sans-Serif" font-size="10.00">manif/SE3.h</text>
</a>
</g>
</g>
<!-- Node17&#45;&gt;Node19 -->
<g id="edge24" class="edge">
<title>Node17&#45;&gt;Node19</title>
<path fill="none" stroke="midnightblue" d="M821.34,-123.41C809.57,-114.33 795.52,-101.54 787,-87 776.62,-69.3 772.23,-45.98 770.36,-29.86"/>
<polygon fill="midnightblue" stroke="midnightblue" points="773.82,-29.22 769.41,-19.58 766.85,-29.86 773.82,-29.22"/>
</g>
<!-- Node18&#45;&gt;Node3 -->
<g id="edge21" class="edge">
<title>Node18&#45;&gt;Node3</title>
<path fill="none" stroke="midnightblue" d="M887.75,-56.4C902.99,-46.95 922.99,-34.56 938.24,-25.11"/>
<polygon fill="midnightblue" stroke="midnightblue" points="940.38,-27.9 947.03,-19.66 936.69,-21.95 940.38,-27.9"/>
</g>
<!-- Node18&#45;&gt;Node19 -->
<g id="edge22" class="edge">
<title>Node18&#45;&gt;Node19</title>
<path fill="none" stroke="midnightblue" d="M842.25,-56.4C827.01,-46.95 807.01,-34.56 791.76,-25.11"/>
<polygon fill="midnightblue" stroke="midnightblue" points="793.31,-21.95 782.97,-19.66 789.62,-27.9 793.31,-21.95"/>
</g>
<!-- Node20 -->
<g id="node20" class="node">
<title>Node20</title>
<g id="a_node20"><a xlink:title=" ">
<polygon fill="none" stroke="#bfbfbf" points="826.5,-0.5 826.5,-19.5 903.5,-19.5 903.5,-0.5 826.5,-0.5"/>
<text text-anchor="middle" x="865" y="-7.5" font-family="Helvetica,sans-Serif" font-size="10.00">manif/SO3.h</text>
</a>
</g>
</g>
<!-- Node18&#45;&gt;Node20 -->
<g id="edge23" class="edge">
<title>Node18&#45;&gt;Node20</title>
<path fill="none" stroke="midnightblue" d="M865,-56.4C865,-48.47 865,-38.46 865,-29.86"/>
<polygon fill="midnightblue" stroke="midnightblue" points="868.5,-29.66 865,-19.66 861.5,-29.66 868.5,-29.66"/>
</g>
<!-- Node21&#45;&gt;Node5 -->
<g id="edge30" class="edge">
<title>Node21&#45;&gt;Node5</title>
<path fill="none" stroke="midnightblue" d="M601.09,-190.45C587.15,-181.99 571.8,-169.78 564,-154 557.9,-141.65 556.31,-134.43 564,-123 574.7,-107.09 623.08,-90.72 656.15,-81.09"/>
<polygon fill="midnightblue" stroke="midnightblue" points="657.21,-84.42 665.87,-78.32 655.29,-77.69 657.21,-84.42"/>
</g>
<!-- Node21&#45;&gt;Node13 -->
<g id="edge31" class="edge">
<title>Node21&#45;&gt;Node13</title>
<path fill="none" stroke="midnightblue" d="M594.86,-190.45C579.39,-182.29 562.76,-170.34 554,-154 543.12,-133.72 552.67,-107.23 561.49,-90.05"/>
<polygon fill="midnightblue" stroke="midnightblue" points="564.65,-91.56 566.43,-81.12 558.53,-88.17 564.65,-91.56"/>
</g>
<!-- Node21&#45;&gt;Node17 -->
<g id="edge27" class="edge">
<title>Node21&#45;&gt;Node17</title>
<path fill="none" stroke="midnightblue" d="M675.74,-190.48C708.09,-180.56 751.65,-167.2 786.07,-156.65"/>
<polygon fill="midnightblue" stroke="midnightblue" points="787.44,-159.89 795.98,-153.61 785.39,-153.2 787.44,-159.89"/>
</g>
<!-- Node22 -->
<g id="node22" class="node">
<title>Node22</title>
<g id="a_node22"><a xlink:title=" ">
<polygon fill="none" stroke="#bfbfbf" points="572.5,-129 572.5,-148 657.5,-148 657.5,-129 572.5,-129"/>
<text text-anchor="middle" x="615" y="-136" font-family="Helvetica,sans-Serif" font-size="10.00">manif/manif.h</text>
</a>
</g>
</g>
<!-- Node21&#45;&gt;Node22 -->
<g id="edge28" class="edge">
<title>Node21&#45;&gt;Node22</title>
<path fill="none" stroke="midnightblue" d="M626.75,-190.4C624.57,-180.96 621.68,-168.45 619.31,-158.19"/>
<polygon fill="midnightblue" stroke="midnightblue" points="622.67,-157.15 617.01,-148.19 615.84,-158.73 622.67,-157.15"/>
</g>
<!-- Node23 -->
<g id="node23" class="node">
<title>Node23</title>
<g id="a_node23"><a xlink:title=" ">
<polygon fill="none" stroke="#bfbfbf" points="676,-129 676,-148 708,-148 708,-129 676,-129"/>
<text text-anchor="middle" x="692" y="-136" font-family="Helvetica,sans-Serif" font-size="10.00">set</text>
</a>
</g>
</g>
<!-- Node21&#45;&gt;Node23 -->
<g id="edge29" class="edge">
<title>Node21&#45;&gt;Node23</title>
<path fill="none" stroke="midnightblue" d="M643.45,-190.4C653.22,-180.16 666.44,-166.3 676.62,-155.62"/>
<polygon fill="midnightblue" stroke="midnightblue" points="679.34,-157.85 683.71,-148.19 674.27,-153.01 679.34,-157.85"/>
</g>
<!-- Node24&#45;&gt;Node5 -->
<g id="edge36" class="edge">
<title>Node24&#45;&gt;Node5</title>
<path fill="none" stroke="midnightblue" d="M736.01,-257.17C735.64,-230.18 732.9,-170.3 717,-123 713.04,-111.21 706.19,-99.09 700.14,-89.68"/>
<polygon fill="midnightblue" stroke="midnightblue" points="702.98,-87.64 694.5,-81.29 697.17,-91.54 702.98,-87.64"/>
</g>
<!-- Node24&#45;&gt;Node17 -->
<g id="edge33" class="edge">
<title>Node24&#45;&gt;Node17</title>
<path fill="none" stroke="midnightblue" d="M745.27,-257.21C756.26,-240.58 775.45,-212.52 794,-190 802.21,-180.04 811.92,-169.6 820.45,-160.82"/>
<polygon fill="midnightblue" stroke="midnightblue" points="823.05,-163.17 827.57,-153.59 818.06,-158.26 823.05,-163.17"/>
</g>
<!-- Node24&#45;&gt;Node21 -->
<g id="edge34" class="edge">
<title>Node24&#45;&gt;Node21</title>
<path fill="none" stroke="midnightblue" d="M713,-257.4C698,-248.2 678.21,-236.07 661.73,-225.95"/>
<polygon fill="midnightblue" stroke="midnightblue" points="663.31,-222.82 652.96,-220.58 659.65,-228.79 663.31,-222.82"/>
</g>
<!-- Node24&#45;&gt;Node25 -->
<g id="edge35" class="edge">
<title>Node24&#45;&gt;Node25</title>
<path fill="none" stroke="midnightblue" d="M760.52,-257.4C779.73,-246.34 806.3,-231.06 825.3,-220.13"/>
<polygon fill="midnightblue" stroke="midnightblue" points="827.29,-223.03 834.21,-215.01 823.8,-216.96 827.29,-223.03"/>
</g>
<!-- Node28 -->
<g id="node28" class="node">
<title>Node28</title>
<g id="a_node28"><a xlink:href="Advanceable_8h.html" target="_top" xlink:title=" ">
<polygon fill="none" stroke="black" points="278,-257.5 278,-287.5 428,-287.5 428,-257.5 278,-257.5"/>
<text text-anchor="start" x="286" y="-275.5" font-family="Helvetica,sans-Serif" font-size="10.00">BipedalLocomotion/System</text>
<text text-anchor="middle" x="353" y="-264.5" font-family="Helvetica,sans-Serif" font-size="10.00">/Advanceable.h</text>
</a>
</g>
</g>
<!-- Node27&#45;&gt;Node28 -->
<g id="edge41" class="edge">
<title>Node27&#45;&gt;Node28</title>
<path fill="none" stroke="midnightblue" d="M353,-324.4C353,-316.64 353,-306.81 353,-297.86"/>
<polygon fill="midnightblue" stroke="midnightblue" points="356.5,-297.58 353,-287.58 349.5,-297.58 356.5,-297.58"/>
</g>
<!-- Node28&#45;&gt;Node4 -->
<g id="edge43" class="edge">
<title>Node28&#45;&gt;Node4</title>
<path fill="none" stroke="midnightblue" d="M335.86,-257.4C325.09,-248.54 311.02,-236.96 299.02,-227.09"/>
<polygon fill="midnightblue" stroke="midnightblue" points="301.05,-224.23 291.11,-220.58 296.61,-229.63 301.05,-224.23"/>
</g>
<!-- Node29 -->
<g id="node29" class="node">
<title>Node29</title>
<g id="a_node29"><a xlink:title=" ">
<polygon fill="none" stroke="#bfbfbf" points="376.5,-196 376.5,-215 427.5,-215 427.5,-196 376.5,-196"/>
<text text-anchor="middle" x="402" y="-203" font-family="Helvetica,sans-Serif" font-size="10.00">variant</text>
</a>
</g>
</g>
<!-- Node28&#45;&gt;Node29 -->
<g id="edge42" class="edge">
<title>Node28&#45;&gt;Node29</title>
<path fill="none" stroke="midnightblue" d="M363.63,-257.4C371.2,-247.36 381.39,-233.84 389.37,-223.25"/>
<polygon fill="midnightblue" stroke="midnightblue" points="392.22,-225.29 395.45,-215.19 386.63,-221.07 392.22,-225.29"/>
</g>
</g>
</svg>
