<?xml version="1.0" encoding="UTF-8" standalone="no"?>
<!DOCTYPE svg PUBLIC "-//W3C//DTD SVG 1.1//EN"
 "http://www.w3.org/Graphics/SVG/1.1/DTD/svg11.dtd">
<!-- Generated by graphviz version 2.43.0 (0)
 -->
<!-- Title: IK/include/BipedalLocomotion Pages: 1 -->
<svg width="243pt" height="231pt"
 viewBox="0.00 0.00 243.00 231.00" xmlns="http://www.w3.org/2000/svg" xmlns:xlink="http://www.w3.org/1999/xlink">
<g id="graph0" class="graph" transform="scale(1 1) rotate(0) translate(4 227)">
<title>IK/include/BipedalLocomotion</title>
<g id="clust1" class="cluster">
<title>clusterdir_67dd381f86eec7791e9db8646ed74f67</title>
<g id="a_clust1"><a xlink:href="dir_67dd381f86eec7791e9db8646ed74f67.html" target="_top" xlink:title="include">
<polygon fill="#ddddee" stroke="black" points="13,-128 13,-215 227,-215 227,-128 13,-128"/>
<text text-anchor="middle" x="120" y="-203" font-family="Helvetica,sans-Serif" font-size="10.00">include</text>
</a>
</g>
</g>
<g id="clust2" class="cluster">
<title>clusterdir_f8b8ea7f56d76964f7730cc9a74ce99f</title>
<g id="a_clust2"><a xlink:href="dir_f8b8ea7f56d76964f7730cc9a74ce99f.html" target="_top">
<polygon fill="#eeeeff" stroke="black" points="21,-136 21,-188 219,-188 219,-136 21,-136"/>
</a>
</g>
</g>
<!-- dir_f8b8ea7f56d76964f7730cc9a74ce99f -->
<g id="node1" class="node">
<title>dir_f8b8ea7f56d76964f7730cc9a74ce99f</title>
<text text-anchor="middle" x="156" y="-159.5" font-family="Helvetica,sans-Serif" font-size="10.00">BipedalLocomotion</text>
</g>
<!-- dir_4d873cee532edd16134c6568eb998b0c -->
<g id="node2" class="node">
<title>dir_4d873cee532edd16134c6568eb998b0c</title>
<g id="a_node2"><a xlink:href="dir_4d873cee532edd16134c6568eb998b0c.html" target="_top" xlink:title="IK">
<polygon fill="white" stroke="black" points="83,-180 29,-180 29,-144 83,-144 83,-180"/>
<text text-anchor="middle" x="56" y="-159.5" font-family="Helvetica,sans-Serif" font-size="10.00">IK</text>
</a>
</g>
</g>
<!-- dir_ef68f1e1f5148ff8ef7fb1c955106c3c -->
<g id="node3" class="node">
<title>dir_ef68f1e1f5148ff8ef7fb1c955106c3c</title>
<g id="a_node3"><a xlink:href="dir_ef68f1e1f5148ff8ef7fb1c955106c3c.html" target="_top" xlink:title="System">
<polygon fill="none" stroke="red" points="55,-108 1,-108 1,-72 55,-72 55,-108"/>
<text text-anchor="middle" x="28" y="-87.5" font-family="Helvetica,sans-Serif" font-size="10.00">System</text>
</a>
</g>
</g>
<!-- dir_4d873cee532edd16134c6568eb998b0c&#45;&gt;dir_ef68f1e1f5148ff8ef7fb1c955106c3c -->
<g id="edge2" class="edge">
<title>dir_4d873cee532edd16134c6568eb998b0c&#45;&gt;dir_ef68f1e1f5148ff8ef7fb1c955106c3c</title>
<path fill="none" stroke="black" d="M49.08,-143.7C45.93,-135.81 42.12,-126.3 38.62,-117.55"/>
<polygon fill="black" stroke="black" points="41.81,-116.09 34.84,-108.1 35.31,-118.69 41.81,-116.09"/>
<g id="a_edge2&#45;headlabel"><a xlink:href="dir_000040_000084.html" target="_top" xlink:title="8">
<text text-anchor="middle" x="45.78" y="-115.87" font-family="Helvetica,sans-Serif" font-size="10.00">8</text>
</a>
</g>
</g>
<!-- dir_995a11a27ec5ce2fce465ebbab555255 -->
<g id="node4" class="node">
<title>dir_995a11a27ec5ce2fce465ebbab555255</title>
<g id="a_node4"><a xlink:href="dir_995a11a27ec5ce2fce465ebbab555255.html" target="_top" xlink:title="ParametersHandler">
<polygon fill="none" stroke="red" points="110,-36 0,-36 0,0 110,0 110,-36"/>
<text text-anchor="middle" x="55" y="-15.5" font-family="Helvetica,sans-Serif" font-size="10.00">ParametersHandler</text>
</a>
</g>
</g>
<!-- dir_4d873cee532edd16134c6568eb998b0c&#45;&gt;dir_995a11a27ec5ce2fce465ebbab555255 -->
<g id="edge3" class="edge">
<title>dir_4d873cee532edd16134c6568eb998b0c&#45;&gt;dir_995a11a27ec5ce2fce465ebbab555255</title>
<path fill="none" stroke="black" d="M59.25,-143.89C61.05,-133.54 63.09,-120.06 64,-108 65.2,-92.04 65.34,-87.94 64,-72 63.28,-63.5 61.93,-54.31 60.49,-46.01"/>
<polygon fill="black" stroke="black" points="63.91,-45.29 58.65,-36.09 57.03,-46.56 63.91,-45.29"/>
<g id="a_edge3&#45;headlabel"><a xlink:href="dir_000040_000052.html" target="_top" xlink:title="2">
<text text-anchor="middle" x="67.36" y="-45.81" font-family="Helvetica,sans-Serif" font-size="10.00">2</text>
</a>
</g>
</g>
<!-- dir_ef68f1e1f5148ff8ef7fb1c955106c3c&#45;&gt;dir_995a11a27ec5ce2fce465ebbab555255 -->
<g id="edge1" class="edge">
<title>dir_ef68f1e1f5148ff8ef7fb1c955106c3c&#45;&gt;dir_995a11a27ec5ce2fce465ebbab555255</title>
<path fill="none" stroke="black" d="M34.67,-71.7C37.71,-63.81 41.38,-54.3 44.76,-45.55"/>
<polygon fill="black" stroke="black" points="48.07,-46.69 48.4,-36.1 41.54,-44.17 48.07,-46.69"/>
<g id="a_edge1&#45;headlabel"><a xlink:href="dir_000084_000052.html" target="_top" xlink:title="4">
<text text-anchor="middle" x="49.42" y="-48.57" font-family="Helvetica,sans-Serif" font-size="10.00">4</text>
</a>
</g>
</g>
</g>
</svg>
