<?xml version="1.0" encoding="UTF-8" standalone="no"?>
<!DOCTYPE svg PUBLIC "-//W3C//DTD SVG 1.1//EN"
 "http://www.w3.org/Graphics/SVG/1.1/DTD/svg11.dtd">
<!-- Generated by graphviz version 2.43.0 (0)
 -->
<!-- Title: Contacts/src Pages: 1 -->
<svg width="143pt" height="295pt"
 viewBox="0.00 0.00 142.50 295.00" xmlns="http://www.w3.org/2000/svg" xmlns:xlink="http://www.w3.org/1999/xlink">
<g id="graph0" class="graph" transform="scale(1 1) rotate(0) translate(4 291)">
<title>Contacts/src</title>
<g id="clust1" class="cluster">
<title>clusterdir_50541d64f188ef934de78ba6c49ffdbe</title>
<g id="a_clust1"><a xlink:href="dir_50541d64f188ef934de78ba6c49ffdbe.html" target="_top" xlink:title="Contacts">
<polygon fill="#ddddee" stroke="black" points="16.5,-208 16.5,-279 86.5,-279 86.5,-208 16.5,-208"/>
<text text-anchor="middle" x="51.5" y="-267" font-family="Helvetica,sans-Serif" font-size="10.00">Contacts</text>
</a>
</g>
</g>
<!-- dir_274c91e80578e5d4e4060e91dfb477c8 -->
<g id="node1" class="node">
<title>dir_274c91e80578e5d4e4060e91dfb477c8</title>
<g id="a_node1"><a xlink:href="dir_274c91e80578e5d4e4060e91dfb477c8.html" target="_top" xlink:title="src">
<polygon fill="#eeeeff" stroke="black" points="78.5,-252 24.5,-252 24.5,-216 78.5,-216 78.5,-252"/>
<text text-anchor="middle" x="51.5" y="-231.5" font-family="Helvetica,sans-Serif" font-size="10.00">src</text>
</a>
</g>
</g>
<!-- dir_4118ae531ffdde861fee1c6efaa3009d -->
<g id="node2" class="node">
<title>dir_4118ae531ffdde861fee1c6efaa3009d</title>
<g id="a_node2"><a xlink:href="dir_4118ae531ffdde861fee1c6efaa3009d.html" target="_top" xlink:title="TextLogging">
<polygon fill="none" stroke="red" points="75,-36 0,-36 0,0 75,0 75,-36"/>
<text text-anchor="middle" x="37.5" y="-15.5" font-family="Helvetica,sans-Serif" font-size="10.00">TextLogging</text>
</a>
</g>
</g>
<!-- dir_274c91e80578e5d4e4060e91dfb477c8&#45;&gt;dir_4118ae531ffdde861fee1c6efaa3009d -->
<g id="edge1" class="edge">
<title>dir_274c91e80578e5d4e4060e91dfb477c8&#45;&gt;dir_4118ae531ffdde861fee1c6efaa3009d</title>
<path fill="none" stroke="black" d="M35.89,-215.77C28.13,-206.03 19.55,-193.18 15.5,-180 1.39,-134.12 6.12,-119.07 15.5,-72 17.29,-63.01 20.64,-53.64 24.19,-45.32"/>
<polygon fill="black" stroke="black" points="27.42,-46.67 28.37,-36.12 21.04,-43.77 27.42,-46.67"/>
<g id="a_edge1&#45;headlabel"><a xlink:href="dir_000016_000094.html" target="_top" xlink:title="4">
<text text-anchor="middle" x="28.51" y="-48.62" font-family="Helvetica,sans-Serif" font-size="10.00">4</text>
</a>
</g>
</g>
<!-- dir_8b8b9ea914891d9a3d7877d38bac2629 -->
<g id="node3" class="node">
<title>dir_8b8b9ea914891d9a3d7877d38bac2629</title>
<g id="a_node3"><a xlink:href="dir_8b8b9ea914891d9a3d7877d38bac2629.html" target="_top" xlink:title="include">
<polygon fill="none" stroke="red" points="78.5,-180 24.5,-180 24.5,-144 78.5,-144 78.5,-180"/>
<text text-anchor="middle" x="51.5" y="-159.5" font-family="Helvetica,sans-Serif" font-size="10.00">include</text>
</a>
</g>
</g>
<!-- dir_274c91e80578e5d4e4060e91dfb477c8&#45;&gt;dir_8b8b9ea914891d9a3d7877d38bac2629 -->
<g id="edge2" class="edge">
<title>dir_274c91e80578e5d4e4060e91dfb477c8&#45;&gt;dir_8b8b9ea914891d9a3d7877d38bac2629</title>
<path fill="none" stroke="black" d="M51.5,-215.7C51.5,-207.98 51.5,-198.71 51.5,-190.11"/>
<polygon fill="black" stroke="black" points="55,-190.1 51.5,-180.1 48,-190.1 55,-190.1"/>
<g id="a_edge2&#45;headlabel"><a xlink:href="dir_000016_000012.html" target="_top" xlink:title="6">
<text text-anchor="middle" x="57.84" y="-191.2" font-family="Helvetica,sans-Serif" font-size="10.00">6</text>
</a>
</g>
</g>
<!-- dir_995a11a27ec5ce2fce465ebbab555255 -->
<g id="node4" class="node">
<title>dir_995a11a27ec5ce2fce465ebbab555255</title>
<g id="a_node4"><a xlink:href="dir_995a11a27ec5ce2fce465ebbab555255.html" target="_top" xlink:title="ParametersHandler">
<polygon fill="none" stroke="red" points="134.5,-108 24.5,-108 24.5,-72 134.5,-72 134.5,-108"/>
<text text-anchor="middle" x="79.5" y="-87.5" font-family="Helvetica,sans-Serif" font-size="10.00">ParametersHandler</text>
</a>
</g>
</g>
<!-- dir_274c91e80578e5d4e4060e91dfb477c8&#45;&gt;dir_995a11a27ec5ce2fce465ebbab555255 -->
<g id="edge3" class="edge">
<title>dir_274c91e80578e5d4e4060e91dfb477c8&#45;&gt;dir_995a11a27ec5ce2fce465ebbab555255</title>
<path fill="none" stroke="black" d="M67.11,-215.77C74.87,-206.03 83.45,-193.18 87.5,-180 93.71,-159.8 91.05,-135.89 87.19,-117.94"/>
<polygon fill="black" stroke="black" points="90.58,-117.04 84.84,-108.13 83.77,-118.67 90.58,-117.04"/>
<g id="a_edge3&#45;headlabel"><a xlink:href="dir_000016_000052.html" target="_top" xlink:title="1">
<text text-anchor="middle" x="94.17" y="-117.38" font-family="Helvetica,sans-Serif" font-size="10.00">1</text>
</a>
</g>
</g>
<!-- dir_8b8b9ea914891d9a3d7877d38bac2629&#45;&gt;dir_995a11a27ec5ce2fce465ebbab555255 -->
<g id="edge4" class="edge">
<title>dir_8b8b9ea914891d9a3d7877d38bac2629&#45;&gt;dir_995a11a27ec5ce2fce465ebbab555255</title>
<path fill="none" stroke="black" d="M58.42,-143.7C61.57,-135.81 65.38,-126.3 68.88,-117.55"/>
<polygon fill="black" stroke="black" points="72.19,-118.69 72.66,-108.1 65.69,-116.09 72.19,-118.69"/>
<g id="a_edge4&#45;headlabel"><a xlink:href="dir_000012_000052.html" target="_top" xlink:title="2">
<text text-anchor="middle" x="73.5" y="-120.58" font-family="Helvetica,sans-Serif" font-size="10.00">2</text>
</a>
</g>
</g>
<!-- dir_995a11a27ec5ce2fce465ebbab555255&#45;&gt;dir_4118ae531ffdde861fee1c6efaa3009d -->
<g id="edge5" class="edge">
<title>dir_995a11a27ec5ce2fce465ebbab555255&#45;&gt;dir_4118ae531ffdde861fee1c6efaa3009d</title>
<path fill="none" stroke="black" d="M69.12,-71.7C64.24,-63.56 58.31,-53.69 52.92,-44.7"/>
<polygon fill="black" stroke="black" points="55.91,-42.88 47.76,-36.1 49.91,-46.48 55.91,-42.88"/>
<g id="a_edge5&#45;headlabel"><a xlink:href="dir_000052_000094.html" target="_top" xlink:title="3">
<text text-anchor="middle" x="60.19" y="-42" font-family="Helvetica,sans-Serif" font-size="10.00">3</text>
</a>
</g>
</g>
</g>
</svg>
