<?xml version="1.0" encoding="UTF-8" standalone="no"?>
<!DOCTYPE svg PUBLIC "-//W3C//DTD SVG 1.1//EN"
 "http://www.w3.org/Graphics/SVG/1.1/DTD/svg11.dtd">
<!-- Generated by graphviz version 2.43.0 (0)
 -->
<!-- Title: ParametersHandler/YarpImplementation Pages: 1 -->
<svg width="261pt" height="375pt"
 viewBox="0.00 0.00 261.00 375.00" xmlns="http://www.w3.org/2000/svg" xmlns:xlink="http://www.w3.org/1999/xlink">
<g id="graph0" class="graph" transform="scale(1 1) rotate(0) translate(4 371)">
<title>ParametersHandler/YarpImplementation</title>
<g id="clust1" class="cluster">
<title>clusterdir_995a11a27ec5ce2fce465ebbab555255</title>
<g id="a_clust1"><a xlink:href="dir_995a11a27ec5ce2fce465ebbab555255.html" target="_top" xlink:title="ParametersHandler">
<polygon fill="#ddddee" stroke="black" points="25,-200 25,-359 245,-359 245,-200 25,-200"/>
<text text-anchor="middle" x="135" y="-347" font-family="Helvetica,sans-Serif" font-size="10.00">ParametersHandler</text>
</a>
</g>
</g>
<g id="clust2" class="cluster">
<title>clusterdir_6a34c73d6eb3da898e93a79ffdd09be5</title>
<g id="a_clust2"><a xlink:href="dir_6a34c73d6eb3da898e93a79ffdd09be5.html" target="_top">
<polygon fill="#eeeeff" stroke="black" points="33,-208 33,-332 237,-332 237,-208 33,-208"/>
</a>
</g>
</g>
<!-- dir_6a34c73d6eb3da898e93a79ffdd09be5 -->
<g id="node1" class="node">
<title>dir_6a34c73d6eb3da898e93a79ffdd09be5</title>
<text text-anchor="middle" x="171" y="-303.5" font-family="Helvetica,sans-Serif" font-size="10.00">YarpImplementation</text>
</g>
<!-- dir_63c44988ed8fd0278ad843c09d683190 -->
<g id="node2" class="node">
<title>dir_63c44988ed8fd0278ad843c09d683190</title>
<g id="a_node2"><a xlink:href="dir_63c44988ed8fd0278ad843c09d683190.html" target="_top" xlink:title="include">
<polygon fill="white" stroke="red" points="95,-252 41,-252 41,-216 95,-216 95,-252"/>
<text text-anchor="middle" x="68" y="-231.5" font-family="Helvetica,sans-Serif" font-size="10.00">include</text>
</a>
</g>
</g>
<!-- dir_c2ff16d22970d8b79330500bc8a01502 -->
<g id="node5" class="node">
<title>dir_c2ff16d22970d8b79330500bc8a01502</title>
<g id="a_node5"><a xlink:href="dir_c2ff16d22970d8b79330500bc8a01502.html" target="_top" xlink:title="include">
<polygon fill="none" stroke="red" points="54,-108 0,-108 0,-72 54,-72 54,-108"/>
<text text-anchor="middle" x="27" y="-87.5" font-family="Helvetica,sans-Serif" font-size="10.00">include</text>
</a>
</g>
</g>
<!-- dir_63c44988ed8fd0278ad843c09d683190&#45;&gt;dir_c2ff16d22970d8b79330500bc8a01502 -->
<g id="edge6" class="edge">
<title>dir_63c44988ed8fd0278ad843c09d683190&#45;&gt;dir_c2ff16d22970d8b79330500bc8a01502</title>
<path fill="none" stroke="black" d="M47.18,-215.62C37.54,-206.2 27.11,-193.7 22,-180 14.58,-160.12 16.54,-136.01 19.96,-117.9"/>
<polygon fill="black" stroke="black" points="23.41,-118.52 22.09,-108.01 16.56,-117.05 23.41,-118.52"/>
<g id="a_edge6&#45;headlabel"><a xlink:href="dir_000058_000053.html" target="_top" xlink:title="1">
<text text-anchor="middle" x="25.43" y="-120.13" font-family="Helvetica,sans-Serif" font-size="10.00">1</text>
</a>
</g>
</g>
<!-- dir_9f4ce4849845ca54ac66640ab17f25ff -->
<g id="node6" class="node">
<title>dir_9f4ce4849845ca54ac66640ab17f25ff</title>
<g id="a_node6"><a xlink:href="dir_9f4ce4849845ca54ac66640ab17f25ff.html" target="_top" xlink:title="YarpUtilities">
<polygon fill="none" stroke="red" points="105.5,-180 30.5,-180 30.5,-144 105.5,-144 105.5,-180"/>
<text text-anchor="middle" x="68" y="-159.5" font-family="Helvetica,sans-Serif" font-size="10.00">YarpUtilities</text>
</a>
</g>
</g>
<!-- dir_63c44988ed8fd0278ad843c09d683190&#45;&gt;dir_9f4ce4849845ca54ac66640ab17f25ff -->
<g id="edge7" class="edge">
<title>dir_63c44988ed8fd0278ad843c09d683190&#45;&gt;dir_9f4ce4849845ca54ac66640ab17f25ff</title>
<path fill="none" stroke="black" d="M68,-215.7C68,-207.98 68,-198.71 68,-190.11"/>
<polygon fill="black" stroke="black" points="71.5,-190.1 68,-180.1 64.5,-190.1 71.5,-190.1"/>
<g id="a_edge7&#45;headlabel"><a xlink:href="dir_000058_000099.html" target="_top" xlink:title="1">
<text text-anchor="middle" x="74.34" y="-191.2" font-family="Helvetica,sans-Serif" font-size="10.00">1</text>
</a>
</g>
</g>
<!-- dir_5de7b4db2057cbdfdd5db3942fa052ea -->
<g id="node3" class="node">
<title>dir_5de7b4db2057cbdfdd5db3942fa052ea</title>
<g id="a_node3"><a xlink:href="dir_5de7b4db2057cbdfdd5db3942fa052ea.html" target="_top" xlink:title="src">
<polygon fill="white" stroke="black" points="95,-324 41,-324 41,-288 95,-288 95,-324"/>
<text text-anchor="middle" x="68" y="-303.5" font-family="Helvetica,sans-Serif" font-size="10.00">src</text>
</a>
</g>
</g>
<!-- dir_5de7b4db2057cbdfdd5db3942fa052ea&#45;&gt;dir_63c44988ed8fd0278ad843c09d683190 -->
<g id="edge2" class="edge">
<title>dir_5de7b4db2057cbdfdd5db3942fa052ea&#45;&gt;dir_63c44988ed8fd0278ad843c09d683190</title>
<path fill="none" stroke="black" d="M68,-287.7C68,-279.98 68,-270.71 68,-262.11"/>
<polygon fill="black" stroke="black" points="71.5,-262.1 68,-252.1 64.5,-262.1 71.5,-262.1"/>
<g id="a_edge2&#45;headlabel"><a xlink:href="dir_000061_000058.html" target="_top" xlink:title="1">
<text text-anchor="middle" x="74.34" y="-263.2" font-family="Helvetica,sans-Serif" font-size="10.00">1</text>
</a>
</g>
</g>
<!-- dir_4118ae531ffdde861fee1c6efaa3009d -->
<g id="node4" class="node">
<title>dir_4118ae531ffdde861fee1c6efaa3009d</title>
<g id="a_node4"><a xlink:href="dir_4118ae531ffdde861fee1c6efaa3009d.html" target="_top" xlink:title="TextLogging">
<polygon fill="none" stroke="red" points="119.5,-36 44.5,-36 44.5,0 119.5,0 119.5,-36"/>
<text text-anchor="middle" x="82" y="-15.5" font-family="Helvetica,sans-Serif" font-size="10.00">TextLogging</text>
</a>
</g>
</g>
<!-- dir_5de7b4db2057cbdfdd5db3942fa052ea&#45;&gt;dir_4118ae531ffdde861fee1c6efaa3009d -->
<g id="edge1" class="edge">
<title>dir_5de7b4db2057cbdfdd5db3942fa052ea&#45;&gt;dir_4118ae531ffdde861fee1c6efaa3009d</title>
<path fill="none" stroke="black" d="M82.46,-287.97C90.08,-278.09 98.88,-265.05 104,-252 115.83,-221.87 112.55,-212.28 115,-180 116.21,-164.05 117.06,-159.87 115,-144 110.51,-109.37 99.29,-70.67 91.18,-45.63"/>
<polygon fill="black" stroke="black" points="94.49,-44.5 88.03,-36.11 87.84,-46.7 94.49,-44.5"/>
<g id="a_edge1&#45;headlabel"><a xlink:href="dir_000061_000094.html" target="_top" xlink:title="1">
<text text-anchor="middle" x="98.31" y="-44.53" font-family="Helvetica,sans-Serif" font-size="10.00">1</text>
</a>
</g>
</g>
<!-- dir_c2ff16d22970d8b79330500bc8a01502&#45;&gt;dir_4118ae531ffdde861fee1c6efaa3009d -->
<g id="edge3" class="edge">
<title>dir_c2ff16d22970d8b79330500bc8a01502&#45;&gt;dir_4118ae531ffdde861fee1c6efaa3009d</title>
<path fill="none" stroke="black" d="M40.6,-71.7C47.12,-63.39 55.07,-53.28 62.25,-44.14"/>
<polygon fill="black" stroke="black" points="65.13,-46.13 68.56,-36.1 59.63,-41.81 65.13,-46.13"/>
<g id="a_edge3&#45;headlabel"><a xlink:href="dir_000053_000094.html" target="_top" xlink:title="1">
<text text-anchor="middle" x="65.15" y="-48.21" font-family="Helvetica,sans-Serif" font-size="10.00">1</text>
</a>
</g>
</g>
<!-- dir_9f4ce4849845ca54ac66640ab17f25ff&#45;&gt;dir_4118ae531ffdde861fee1c6efaa3009d -->
<g id="edge4" class="edge">
<title>dir_9f4ce4849845ca54ac66640ab17f25ff&#45;&gt;dir_4118ae531ffdde861fee1c6efaa3009d</title>
<path fill="none" stroke="black" d="M69.69,-143.87C72.07,-119.67 76.46,-75.21 79.3,-46.39"/>
<polygon fill="black" stroke="black" points="82.81,-46.48 80.31,-36.19 75.84,-45.8 82.81,-46.48"/>
<g id="a_edge4&#45;headlabel"><a xlink:href="dir_000099_000094.html" target="_top" xlink:title="2">
<text text-anchor="middle" x="85.28" y="-47.84" font-family="Helvetica,sans-Serif" font-size="10.00">2</text>
</a>
</g>
</g>
<!-- dir_9f4ce4849845ca54ac66640ab17f25ff&#45;&gt;dir_c2ff16d22970d8b79330500bc8a01502 -->
<g id="edge5" class="edge">
<title>dir_9f4ce4849845ca54ac66640ab17f25ff&#45;&gt;dir_c2ff16d22970d8b79330500bc8a01502</title>
<path fill="none" stroke="black" d="M57.87,-143.7C53.15,-135.64 47.44,-125.89 42.22,-116.98"/>
<polygon fill="black" stroke="black" points="45.09,-114.96 37.02,-108.1 39.05,-118.5 45.09,-114.96"/>
<g id="a_edge5&#45;headlabel"><a xlink:href="dir_000099_000053.html" target="_top" xlink:title="1">
<text text-anchor="middle" x="49.36" y="-114.13" font-family="Helvetica,sans-Serif" font-size="10.00">1</text>
</a>
</g>
</g>
</g>
</svg>
