<?xml version="1.0" encoding="UTF-8" standalone="no"?>
<!DOCTYPE svg PUBLIC "-//W3C//DTD SVG 1.1//EN"
 "http://www.w3.org/Graphics/SVG/1.1/DTD/svg11.dtd">
<!-- Generated by graphviz version 2.43.0 (0)
 -->
<!-- Title: RobotInterface/YarpImplementation/src Pages: 1 -->
<svg width="139pt" height="223pt"
 viewBox="0.00 0.00 139.00 223.00" xmlns="http://www.w3.org/2000/svg" xmlns:xlink="http://www.w3.org/1999/xlink">
<g id="graph0" class="graph" transform="scale(1 1) rotate(0) translate(4 219)">
<title>RobotInterface/YarpImplementation/src</title>
<g id="clust1" class="cluster">
<title>clusterdir_3e94d037e35e99e0f94aa79b0e410f47</title>
<g id="a_clust1"><a xlink:href="dir_3e94d037e35e99e0f94aa79b0e410f47.html" target="_top" xlink:title="YarpImplementation">
<polygon fill="#ddddee" stroke="black" points="8,-136 8,-207 123,-207 123,-136 8,-136"/>
<text text-anchor="middle" x="65.5" y="-195" font-family="Helvetica,sans-Serif" font-size="10.00">YarpImplementation</text>
</a>
</g>
</g>
<!-- dir_330663fef904e37667f8b3fad7a8f8f3 -->
<g id="node1" class="node">
<title>dir_330663fef904e37667f8b3fad7a8f8f3</title>
<g id="a_node1"><a xlink:href="dir_330663fef904e37667f8b3fad7a8f8f3.html" target="_top" xlink:title="src">
<polygon fill="#eeeeff" stroke="black" points="92,-180 38,-180 38,-144 92,-144 92,-180"/>
<text text-anchor="middle" x="65" y="-159.5" font-family="Helvetica,sans-Serif" font-size="10.00">src</text>
</a>
</g>
</g>
<!-- dir_4118ae531ffdde861fee1c6efaa3009d -->
<g id="node2" class="node">
<title>dir_4118ae531ffdde861fee1c6efaa3009d</title>
<g id="a_node2"><a xlink:href="dir_4118ae531ffdde861fee1c6efaa3009d.html" target="_top" xlink:title="TextLogging">
<polygon fill="none" stroke="red" points="101.5,-36 26.5,-36 26.5,0 101.5,0 101.5,-36"/>
<text text-anchor="middle" x="64" y="-15.5" font-family="Helvetica,sans-Serif" font-size="10.00">TextLogging</text>
</a>
</g>
</g>
<!-- dir_330663fef904e37667f8b3fad7a8f8f3&#45;&gt;dir_4118ae531ffdde861fee1c6efaa3009d -->
<g id="edge1" class="edge">
<title>dir_330663fef904e37667f8b3fad7a8f8f3&#45;&gt;dir_4118ae531ffdde861fee1c6efaa3009d</title>
<path fill="none" stroke="black" d="M61.35,-143.91C59.32,-133.57 57.02,-120.09 56,-108 54.66,-92.06 54.8,-87.96 56,-72 56.64,-63.52 57.84,-54.34 59.12,-46.04"/>
<polygon fill="black" stroke="black" points="62.58,-46.55 60.75,-36.11 55.68,-45.41 62.58,-46.55"/>
<g id="a_edge1&#45;headlabel"><a xlink:href="dir_000083_000094.html" target="_top" xlink:title="3">
<text text-anchor="middle" x="64.8" y="-48.05" font-family="Helvetica,sans-Serif" font-size="10.00">3</text>
</a>
</g>
</g>
<!-- dir_c9ecf35bb6ca9c90f7c8106eb0f248ed -->
<g id="node3" class="node">
<title>dir_c9ecf35bb6ca9c90f7c8106eb0f248ed</title>
<g id="a_node3"><a xlink:href="dir_c9ecf35bb6ca9c90f7c8106eb0f248ed.html" target="_top" xlink:title="include">
<polygon fill="none" stroke="red" points="119,-108 65,-108 65,-72 119,-72 119,-108"/>
<text text-anchor="middle" x="92" y="-87.5" font-family="Helvetica,sans-Serif" font-size="10.00">include</text>
</a>
</g>
</g>
<!-- dir_330663fef904e37667f8b3fad7a8f8f3&#45;&gt;dir_c9ecf35bb6ca9c90f7c8106eb0f248ed -->
<g id="edge2" class="edge">
<title>dir_330663fef904e37667f8b3fad7a8f8f3&#45;&gt;dir_c9ecf35bb6ca9c90f7c8106eb0f248ed</title>
<path fill="none" stroke="black" d="M71.67,-143.7C74.71,-135.81 78.38,-126.3 81.76,-117.55"/>
<polygon fill="black" stroke="black" points="85.07,-118.69 85.4,-108.1 78.54,-116.17 85.07,-118.69"/>
<g id="a_edge2&#45;headlabel"><a xlink:href="dir_000083_000080.html" target="_top" xlink:title="3">
<text text-anchor="middle" x="86.42" y="-120.57" font-family="Helvetica,sans-Serif" font-size="10.00">3</text>
</a>
</g>
</g>
<!-- dir_c9ecf35bb6ca9c90f7c8106eb0f248ed&#45;&gt;dir_4118ae531ffdde861fee1c6efaa3009d -->
<g id="edge3" class="edge">
<title>dir_c9ecf35bb6ca9c90f7c8106eb0f248ed&#45;&gt;dir_4118ae531ffdde861fee1c6efaa3009d</title>
<path fill="none" stroke="black" d="M85.08,-71.7C81.93,-63.81 78.12,-54.3 74.62,-45.55"/>
<polygon fill="black" stroke="black" points="77.81,-44.09 70.84,-36.1 71.31,-46.69 77.81,-44.09"/>
<g id="a_edge3&#45;headlabel"><a xlink:href="dir_000080_000094.html" target="_top" xlink:title="1">
<text text-anchor="middle" x="81.78" y="-43.87" font-family="Helvetica,sans-Serif" font-size="10.00">1</text>
</a>
</g>
</g>
</g>
</svg>
