<?xml version="1.0" encoding="UTF-8" standalone="no"?>
<!DOCTYPE svg PUBLIC "-//W3C//DTD SVG 1.1//EN"
 "http://www.w3.org/Graphics/SVG/1.1/DTD/svg11.dtd">
<!-- Generated by graphviz version 2.43.0 (0)
 -->
<!-- Title: RobotInterface Pages: 1 -->
<svg width="411pt" height="276pt"
 viewBox="0.00 0.00 411.32 276.00" xmlns="http://www.w3.org/2000/svg" xmlns:xlink="http://www.w3.org/1999/xlink">
<g id="graph0" class="graph" transform="scale(1 1) rotate(0) translate(4 272)">
<title>RobotInterface</title>
<g id="clust1" class="cluster">
<title>clusterdir_b758cc06ecf5ffd178e3392fd03c4d77</title>
<g id="a_clust1"><a xlink:href="dir_b758cc06ecf5ffd178e3392fd03c4d77.html" target="_top">
<polygon fill="#eeeeff" stroke="black" points="8,-136 8,-260 318,-260 318,-136 8,-136"/>
</a>
</g>
</g>
<!-- dir_b758cc06ecf5ffd178e3392fd03c4d77 -->
<g id="node1" class="node">
<title>dir_b758cc06ecf5ffd178e3392fd03c4d77</title>
<text text-anchor="middle" x="266" y="-231.5" font-family="Helvetica,sans-Serif" font-size="10.00">RobotInterface</text>
</g>
<!-- dir_2ddfa6bbaecaa13cbf0c44c7a8ab174d -->
<g id="node2" class="node">
<title>dir_2ddfa6bbaecaa13cbf0c44c7a8ab174d</title>
<g id="a_node2"><a xlink:href="dir_2ddfa6bbaecaa13cbf0c44c7a8ab174d.html" target="_top" xlink:title="include">
<polygon fill="white" stroke="red" points="173,-180 119,-180 119,-144 173,-144 173,-180"/>
<text text-anchor="middle" x="146" y="-159.5" font-family="Helvetica,sans-Serif" font-size="10.00">include</text>
</a>
</g>
</g>
<!-- dir_995a11a27ec5ce2fce465ebbab555255 -->
<g id="node7" class="node">
<title>dir_995a11a27ec5ce2fce465ebbab555255</title>
<g id="a_node7"><a xlink:href="dir_995a11a27ec5ce2fce465ebbab555255.html" target="_top" xlink:title="ParametersHandler">
<polygon fill="none" stroke="red" points="308,-108 198,-108 198,-72 308,-72 308,-108"/>
<text text-anchor="middle" x="253" y="-87.5" font-family="Helvetica,sans-Serif" font-size="10.00">ParametersHandler</text>
</a>
</g>
</g>
<!-- dir_2ddfa6bbaecaa13cbf0c44c7a8ab174d&#45;&gt;dir_995a11a27ec5ce2fce465ebbab555255 -->
<g id="edge9" class="edge">
<title>dir_2ddfa6bbaecaa13cbf0c44c7a8ab174d&#45;&gt;dir_995a11a27ec5ce2fce465ebbab555255</title>
<path fill="none" stroke="black" d="M172.18,-143.88C186.04,-134.81 203.24,-123.55 218.21,-113.76"/>
<polygon fill="black" stroke="black" points="220.27,-116.59 226.72,-108.19 216.44,-110.74 220.27,-116.59"/>
<g id="a_edge9&#45;headlabel"><a xlink:href="dir_000075_000052.html" target="_top" xlink:title="4">
<text text-anchor="middle" x="218.82" y="-118.44" font-family="Helvetica,sans-Serif" font-size="10.00">4</text>
</a>
</g>
</g>
<!-- dir_12c4a4ce89df8d2e75d20f9936947c6f -->
<g id="node3" class="node">
<title>dir_12c4a4ce89df8d2e75d20f9936947c6f</title>
<g id="a_node3"><a xlink:href="dir_12c4a4ce89df8d2e75d20f9936947c6f.html" target="_top" xlink:title="src">
<polygon fill="white" stroke="black" points="70,-252 16,-252 16,-216 70,-216 70,-252"/>
<text text-anchor="middle" x="43" y="-231.5" font-family="Helvetica,sans-Serif" font-size="10.00">src</text>
</a>
</g>
</g>
<!-- dir_12c4a4ce89df8d2e75d20f9936947c6f&#45;&gt;dir_2ddfa6bbaecaa13cbf0c44c7a8ab174d -->
<g id="edge3" class="edge">
<title>dir_12c4a4ce89df8d2e75d20f9936947c6f&#45;&gt;dir_2ddfa6bbaecaa13cbf0c44c7a8ab174d</title>
<path fill="none" stroke="black" d="M68.2,-215.88C81.41,-206.89 97.79,-195.76 112.11,-186.03"/>
<polygon fill="black" stroke="black" points="114.4,-188.71 120.71,-180.19 110.47,-182.92 114.4,-188.71"/>
<g id="a_edge3&#45;headlabel"><a xlink:href="dir_000078_000075.html" target="_top" xlink:title="1">
<text text-anchor="middle" x="113.03" y="-190.57" font-family="Helvetica,sans-Serif" font-size="10.00">1</text>
</a>
</g>
</g>
<!-- dir_3e94d037e35e99e0f94aa79b0e410f47 -->
<g id="node4" class="node">
<title>dir_3e94d037e35e99e0f94aa79b0e410f47</title>
<g id="a_node4"><a xlink:href="dir_3e94d037e35e99e0f94aa79b0e410f47.html" target="_top" xlink:title="YarpImplementation">
<polygon fill="white" stroke="red" points="203.5,-252 88.5,-252 88.5,-216 203.5,-216 203.5,-252"/>
<text text-anchor="middle" x="146" y="-231.5" font-family="Helvetica,sans-Serif" font-size="10.00">YarpImplementation</text>
</a>
</g>
</g>
<!-- dir_3e94d037e35e99e0f94aa79b0e410f47&#45;&gt;dir_2ddfa6bbaecaa13cbf0c44c7a8ab174d -->
<g id="edge7" class="edge">
<title>dir_3e94d037e35e99e0f94aa79b0e410f47&#45;&gt;dir_2ddfa6bbaecaa13cbf0c44c7a8ab174d</title>
<path fill="none" stroke="black" d="M146,-215.7C146,-207.98 146,-198.71 146,-190.11"/>
<polygon fill="black" stroke="black" points="149.5,-190.1 146,-180.1 142.5,-190.1 149.5,-190.1"/>
<g id="a_edge7&#45;headlabel"><a xlink:href="dir_000079_000075.html" target="_top" xlink:title="2">
<text text-anchor="middle" x="152.34" y="-191.2" font-family="Helvetica,sans-Serif" font-size="10.00">2</text>
</a>
</g>
</g>
<!-- dir_ef68f1e1f5148ff8ef7fb1c955106c3c -->
<g id="node5" class="node">
<title>dir_ef68f1e1f5148ff8ef7fb1c955106c3c</title>
<g id="a_node5"><a xlink:href="dir_ef68f1e1f5148ff8ef7fb1c955106c3c.html" target="_top" xlink:title="System">
<polygon fill="none" stroke="red" points="380,-180 326,-180 326,-144 380,-144 380,-180"/>
<text text-anchor="middle" x="353" y="-159.5" font-family="Helvetica,sans-Serif" font-size="10.00">System</text>
</a>
</g>
</g>
<!-- dir_3e94d037e35e99e0f94aa79b0e410f47&#45;&gt;dir_ef68f1e1f5148ff8ef7fb1c955106c3c -->
<g id="edge4" class="edge">
<title>dir_3e94d037e35e99e0f94aa79b0e410f47&#45;&gt;dir_ef68f1e1f5148ff8ef7fb1c955106c3c</title>
<path fill="none" stroke="black" d="M203.66,-217.04C241.46,-206.35 288.38,-192.58 316.13,-182.15"/>
<polygon fill="black" stroke="black" points="317.76,-185.27 325.77,-178.34 315.18,-178.76 317.76,-185.27"/>
<g id="a_edge4&#45;headlabel"><a xlink:href="dir_000079_000084.html" target="_top" xlink:title="1">
<text text-anchor="middle" x="315.46" y="-186.74" font-family="Helvetica,sans-Serif" font-size="10.00">1</text>
</a>
</g>
</g>
<!-- dir_4118ae531ffdde861fee1c6efaa3009d -->
<g id="node6" class="node">
<title>dir_4118ae531ffdde861fee1c6efaa3009d</title>
<g id="a_node6"><a xlink:href="dir_4118ae531ffdde861fee1c6efaa3009d.html" target="_top" xlink:title="TextLogging">
<polygon fill="none" stroke="red" points="390.5,-36 315.5,-36 315.5,0 390.5,0 390.5,-36"/>
<text text-anchor="middle" x="353" y="-15.5" font-family="Helvetica,sans-Serif" font-size="10.00">TextLogging</text>
</a>
</g>
</g>
<!-- dir_3e94d037e35e99e0f94aa79b0e410f47&#45;&gt;dir_4118ae531ffdde861fee1c6efaa3009d -->
<g id="edge5" class="edge">
<title>dir_3e94d037e35e99e0f94aa79b0e410f47&#45;&gt;dir_4118ae531ffdde861fee1c6efaa3009d</title>
<path fill="none" stroke="black" d="M203.7,-218.18C206.84,-217.43 209.96,-216.7 213,-216 290.83,-198.18 338.52,-241.86 389,-180 420.92,-140.89 391.82,-79.32 370.6,-44.75"/>
<polygon fill="black" stroke="black" points="373.46,-42.73 365.14,-36.17 367.55,-46.49 373.46,-42.73"/>
<g id="a_edge5&#45;headlabel"><a xlink:href="dir_000079_000094.html" target="_top" xlink:title="4">
<text text-anchor="middle" x="377.78" y="-41.74" font-family="Helvetica,sans-Serif" font-size="10.00">4</text>
</a>
</g>
</g>
<!-- dir_3e94d037e35e99e0f94aa79b0e410f47&#45;&gt;dir_995a11a27ec5ce2fce465ebbab555255 -->
<g id="edge6" class="edge">
<title>dir_3e94d037e35e99e0f94aa79b0e410f47&#45;&gt;dir_995a11a27ec5ce2fce465ebbab555255</title>
<path fill="none" stroke="black" d="M158.91,-215.87C177.54,-191.14 212.13,-145.24 233.78,-116.51"/>
<polygon fill="black" stroke="black" points="236.82,-118.28 240.05,-108.19 231.23,-114.07 236.82,-118.28"/>
<g id="a_edge6&#45;headlabel"><a xlink:href="dir_000079_000052.html" target="_top" xlink:title="1">
<text text-anchor="middle" x="236.93" y="-120.36" font-family="Helvetica,sans-Serif" font-size="10.00">1</text>
</a>
</g>
</g>
<!-- dir_ef68f1e1f5148ff8ef7fb1c955106c3c&#45;&gt;dir_4118ae531ffdde861fee1c6efaa3009d -->
<g id="edge1" class="edge">
<title>dir_ef68f1e1f5148ff8ef7fb1c955106c3c&#45;&gt;dir_4118ae531ffdde861fee1c6efaa3009d</title>
<path fill="none" stroke="black" d="M353,-143.87C353,-119.67 353,-75.21 353,-46.39"/>
<polygon fill="black" stroke="black" points="356.5,-46.19 353,-36.19 349.5,-46.19 356.5,-46.19"/>
<g id="a_edge1&#45;headlabel"><a xlink:href="dir_000084_000094.html" target="_top" xlink:title="4">
<text text-anchor="middle" x="359.34" y="-47.28" font-family="Helvetica,sans-Serif" font-size="10.00">4</text>
</a>
</g>
</g>
<!-- dir_ef68f1e1f5148ff8ef7fb1c955106c3c&#45;&gt;dir_995a11a27ec5ce2fce465ebbab555255 -->
<g id="edge2" class="edge">
<title>dir_ef68f1e1f5148ff8ef7fb1c955106c3c&#45;&gt;dir_995a11a27ec5ce2fce465ebbab555255</title>
<path fill="none" stroke="black" d="M332.21,-143.76C328.84,-141.11 325.36,-138.44 322,-136 311.6,-128.45 300.01,-120.65 289.33,-113.72"/>
<polygon fill="black" stroke="black" points="290.93,-110.59 280.63,-108.12 287.14,-116.47 290.93,-110.59"/>
<g id="a_edge2&#45;headlabel"><a xlink:href="dir_000084_000052.html" target="_top" xlink:title="4">
<text text-anchor="middle" x="295.49" y="-107.64" font-family="Helvetica,sans-Serif" font-size="10.00">4</text>
</a>
</g>
</g>
<!-- dir_995a11a27ec5ce2fce465ebbab555255&#45;&gt;dir_4118ae531ffdde861fee1c6efaa3009d -->
<g id="edge8" class="edge">
<title>dir_995a11a27ec5ce2fce465ebbab555255&#45;&gt;dir_4118ae531ffdde861fee1c6efaa3009d</title>
<path fill="none" stroke="black" d="M277.46,-71.88C290.3,-62.89 306.2,-51.76 320.09,-42.03"/>
<polygon fill="black" stroke="black" points="322.26,-44.79 328.44,-36.19 318.24,-39.06 322.26,-44.79"/>
<g id="a_edge8&#45;headlabel"><a xlink:href="dir_000052_000094.html" target="_top" xlink:title="3">
<text text-anchor="middle" x="320.94" y="-46.68" font-family="Helvetica,sans-Serif" font-size="10.00">3</text>
</a>
</g>
</g>
</g>
</svg>
