<?xml version="1.0" encoding="UTF-8" standalone="no"?>
<!DOCTYPE svg PUBLIC "-//W3C//DTD SVG 1.1//EN"
 "http://www.w3.org/Graphics/SVG/1.1/DTD/svg11.dtd">
<!-- Generated by graphviz version 2.43.0 (0)
 -->
<!-- Title: Math Pages: 1 -->
<svg width="192pt" height="276pt"
 viewBox="0.00 0.00 192.00 276.00" xmlns="http://www.w3.org/2000/svg" xmlns:xlink="http://www.w3.org/1999/xlink">
<g id="graph0" class="graph" transform="scale(1 1) rotate(0) translate(4 272)">
<title>Math</title>
<g id="clust1" class="cluster">
<title>clusterdir_3813464283bee2267f39dcf080a84d74</title>
<g id="a_clust1"><a xlink:href="dir_3813464283bee2267f39dcf080a84d74.html" target="_top">
<polygon fill="#eeeeff" stroke="black" points="34,-136 34,-260 176,-260 176,-136 34,-136"/>
</a>
</g>
</g>
<!-- dir_3813464283bee2267f39dcf080a84d74 -->
<g id="node1" class="node">
<title>dir_3813464283bee2267f39dcf080a84d74</title>
<text text-anchor="middle" x="141" y="-231.5" font-family="Helvetica,sans-Serif" font-size="10.00">Math</text>
</g>
<!-- dir_5a5fe75cdfdc7c2cbe2afd8cce18b508 -->
<g id="node2" class="node">
<title>dir_5a5fe75cdfdc7c2cbe2afd8cce18b508</title>
<g id="a_node2"><a xlink:href="dir_5a5fe75cdfdc7c2cbe2afd8cce18b508.html" target="_top" xlink:title="include">
<polygon fill="white" stroke="red" points="96,-180 42,-180 42,-144 96,-144 96,-180"/>
<text text-anchor="middle" x="69" y="-159.5" font-family="Helvetica,sans-Serif" font-size="10.00">include</text>
</a>
</g>
</g>
<!-- dir_995a11a27ec5ce2fce465ebbab555255 -->
<g id="node5" class="node">
<title>dir_995a11a27ec5ce2fce465ebbab555255</title>
<g id="a_node5"><a xlink:href="dir_995a11a27ec5ce2fce465ebbab555255.html" target="_top" xlink:title="ParametersHandler">
<polygon fill="none" stroke="red" points="110,-108 0,-108 0,-72 110,-72 110,-108"/>
<text text-anchor="middle" x="55" y="-87.5" font-family="Helvetica,sans-Serif" font-size="10.00">ParametersHandler</text>
</a>
</g>
</g>
<!-- dir_5a5fe75cdfdc7c2cbe2afd8cce18b508&#45;&gt;dir_995a11a27ec5ce2fce465ebbab555255 -->
<g id="edge4" class="edge">
<title>dir_5a5fe75cdfdc7c2cbe2afd8cce18b508&#45;&gt;dir_995a11a27ec5ce2fce465ebbab555255</title>
<path fill="none" stroke="black" d="M65.54,-143.7C64,-135.98 62.14,-126.71 60.42,-118.11"/>
<polygon fill="black" stroke="black" points="63.81,-117.22 58.42,-108.1 56.95,-118.6 63.81,-117.22"/>
<g id="a_edge4&#45;headlabel"><a xlink:href="dir_000048_000052.html" target="_top" xlink:title="2">
<text text-anchor="middle" x="67.3" y="-117.69" font-family="Helvetica,sans-Serif" font-size="10.00">2</text>
</a>
</g>
</g>
<!-- dir_b14ebb86a4681ab22d3d6a64a2eb0f19 -->
<g id="node3" class="node">
<title>dir_b14ebb86a4681ab22d3d6a64a2eb0f19</title>
<g id="a_node3"><a xlink:href="dir_b14ebb86a4681ab22d3d6a64a2eb0f19.html" target="_top" xlink:title="src">
<polygon fill="white" stroke="black" points="96,-252 42,-252 42,-216 96,-216 96,-252"/>
<text text-anchor="middle" x="69" y="-231.5" font-family="Helvetica,sans-Serif" font-size="10.00">src</text>
</a>
</g>
</g>
<!-- dir_b14ebb86a4681ab22d3d6a64a2eb0f19&#45;&gt;dir_5a5fe75cdfdc7c2cbe2afd8cce18b508 -->
<g id="edge2" class="edge">
<title>dir_b14ebb86a4681ab22d3d6a64a2eb0f19&#45;&gt;dir_5a5fe75cdfdc7c2cbe2afd8cce18b508</title>
<path fill="none" stroke="black" d="M69,-215.7C69,-207.98 69,-198.71 69,-190.11"/>
<polygon fill="black" stroke="black" points="72.5,-190.1 69,-180.1 65.5,-190.1 72.5,-190.1"/>
<g id="a_edge2&#45;headlabel"><a xlink:href="dir_000051_000048.html" target="_top" xlink:title="2">
<text text-anchor="middle" x="75.34" y="-191.2" font-family="Helvetica,sans-Serif" font-size="10.00">2</text>
</a>
</g>
</g>
<!-- dir_4118ae531ffdde861fee1c6efaa3009d -->
<g id="node4" class="node">
<title>dir_4118ae531ffdde861fee1c6efaa3009d</title>
<g id="a_node4"><a xlink:href="dir_4118ae531ffdde861fee1c6efaa3009d.html" target="_top" xlink:title="TextLogging">
<polygon fill="none" stroke="red" points="133.5,-36 58.5,-36 58.5,0 133.5,0 133.5,-36"/>
<text text-anchor="middle" x="96" y="-15.5" font-family="Helvetica,sans-Serif" font-size="10.00">TextLogging</text>
</a>
</g>
</g>
<!-- dir_b14ebb86a4681ab22d3d6a64a2eb0f19&#45;&gt;dir_4118ae531ffdde861fee1c6efaa3009d -->
<g id="edge1" class="edge">
<title>dir_b14ebb86a4681ab22d3d6a64a2eb0f19&#45;&gt;dir_4118ae531ffdde861fee1c6efaa3009d</title>
<path fill="none" stroke="black" d="M83.26,-215.89C90.81,-205.98 99.62,-192.94 105,-180 117.53,-149.9 115.87,-140.45 119,-108 120.53,-92.07 122.25,-87.67 119,-72 117.12,-62.96 113.63,-53.58 109.91,-45.26"/>
<polygon fill="black" stroke="black" points="113,-43.6 105.54,-36.07 106.68,-46.61 113,-43.6"/>
<g id="a_edge1&#45;headlabel"><a xlink:href="dir_000051_000094.html" target="_top" xlink:title="1">
<text text-anchor="middle" x="117.11" y="-43.12" font-family="Helvetica,sans-Serif" font-size="10.00">1</text>
</a>
</g>
</g>
<!-- dir_995a11a27ec5ce2fce465ebbab555255&#45;&gt;dir_4118ae531ffdde861fee1c6efaa3009d -->
<g id="edge3" class="edge">
<title>dir_995a11a27ec5ce2fce465ebbab555255&#45;&gt;dir_4118ae531ffdde861fee1c6efaa3009d</title>
<path fill="none" stroke="black" d="M65.13,-71.7C69.85,-63.64 75.56,-53.89 80.78,-44.98"/>
<polygon fill="black" stroke="black" points="83.95,-46.5 85.98,-36.1 77.91,-42.96 83.95,-46.5"/>
<g id="a_edge3&#45;headlabel"><a xlink:href="dir_000052_000094.html" target="_top" xlink:title="3">
<text text-anchor="middle" x="84.58" y="-48.54" font-family="Helvetica,sans-Serif" font-size="10.00">3</text>
</a>
</g>
</g>
</g>
</svg>
