<?xml version="1.0" encoding="UTF-8" standalone="no"?>
<!DOCTYPE svg PUBLIC "-//W3C//DTD SVG 1.1//EN"
 "http://www.w3.org/Graphics/SVG/1.1/DTD/svg11.dtd">
<!-- Generated by graphviz version 2.43.0 (0)
 -->
<!-- Title: Contacts Pages: 1 -->
<svg width="224pt" height="348pt"
 viewBox="0.00 0.00 224.38 348.00" xmlns="http://www.w3.org/2000/svg" xmlns:xlink="http://www.w3.org/1999/xlink">
<g id="graph0" class="graph" transform="scale(1 1) rotate(0) translate(4 344)">
<title>Contacts</title>
<g id="clust1" class="cluster">
<title>clusterdir_50541d64f188ef934de78ba6c49ffdbe</title>
<g id="a_clust1"><a xlink:href="dir_50541d64f188ef934de78ba6c49ffdbe.html" target="_top">
<polygon fill="#eeeeff" stroke="black" points="60.38,-208 60.38,-332 208.38,-332 208.38,-208 60.38,-208"/>
</a>
</g>
</g>
<!-- dir_50541d64f188ef934de78ba6c49ffdbe -->
<g id="node1" class="node">
<title>dir_50541d64f188ef934de78ba6c49ffdbe</title>
<text text-anchor="middle" x="170.38" y="-303.5" font-family="Helvetica,sans-Serif" font-size="10.00">Contacts</text>
</g>
<!-- dir_8b8b9ea914891d9a3d7877d38bac2629 -->
<g id="node2" class="node">
<title>dir_8b8b9ea914891d9a3d7877d38bac2629</title>
<g id="a_node2"><a xlink:href="dir_8b8b9ea914891d9a3d7877d38bac2629.html" target="_top" xlink:title="include">
<polygon fill="white" stroke="red" points="122.38,-252 68.38,-252 68.38,-216 122.38,-216 122.38,-252"/>
<text text-anchor="middle" x="95.38" y="-231.5" font-family="Helvetica,sans-Serif" font-size="10.00">include</text>
</a>
</g>
</g>
<!-- dir_ef68f1e1f5148ff8ef7fb1c955106c3c -->
<g id="node4" class="node">
<title>dir_ef68f1e1f5148ff8ef7fb1c955106c3c</title>
<g id="a_node4"><a xlink:href="dir_ef68f1e1f5148ff8ef7fb1c955106c3c.html" target="_top" xlink:title="System">
<polygon fill="none" stroke="red" points="67.38,-180 13.38,-180 13.38,-144 67.38,-144 67.38,-180"/>
<text text-anchor="middle" x="40.38" y="-159.5" font-family="Helvetica,sans-Serif" font-size="10.00">System</text>
</a>
</g>
</g>
<!-- dir_8b8b9ea914891d9a3d7877d38bac2629&#45;&gt;dir_ef68f1e1f5148ff8ef7fb1c955106c3c -->
<g id="edge8" class="edge">
<title>dir_8b8b9ea914891d9a3d7877d38bac2629&#45;&gt;dir_ef68f1e1f5148ff8ef7fb1c955106c3c</title>
<path fill="none" stroke="black" d="M81.78,-215.7C75.25,-207.39 67.31,-197.28 60.13,-188.14"/>
<polygon fill="black" stroke="black" points="62.75,-185.81 53.81,-180.1 57.24,-190.13 62.75,-185.81"/>
<g id="a_edge8&#45;headlabel"><a xlink:href="dir_000012_000084.html" target="_top" xlink:title="1">
<text text-anchor="middle" x="67.2" y="-184.38" font-family="Helvetica,sans-Serif" font-size="10.00">1</text>
</a>
</g>
</g>
<!-- dir_3813464283bee2267f39dcf080a84d74 -->
<g id="node6" class="node">
<title>dir_3813464283bee2267f39dcf080a84d74</title>
<g id="a_node6"><a xlink:href="dir_3813464283bee2267f39dcf080a84d74.html" target="_top" xlink:title="Math">
<polygon fill="none" stroke="red" points="177.38,-180 123.38,-180 123.38,-144 177.38,-144 177.38,-180"/>
<text text-anchor="middle" x="150.38" y="-159.5" font-family="Helvetica,sans-Serif" font-size="10.00">Math</text>
</a>
</g>
</g>
<!-- dir_8b8b9ea914891d9a3d7877d38bac2629&#45;&gt;dir_3813464283bee2267f39dcf080a84d74 -->
<g id="edge9" class="edge">
<title>dir_8b8b9ea914891d9a3d7877d38bac2629&#45;&gt;dir_3813464283bee2267f39dcf080a84d74</title>
<path fill="none" stroke="black" d="M108.97,-215.7C115.5,-207.39 123.44,-197.28 130.62,-188.14"/>
<polygon fill="black" stroke="black" points="133.51,-190.13 136.94,-180.1 128.01,-185.81 133.51,-190.13"/>
<g id="a_edge9&#45;headlabel"><a xlink:href="dir_000012_000047.html" target="_top" xlink:title="1">
<text text-anchor="middle" x="133.52" y="-192.21" font-family="Helvetica,sans-Serif" font-size="10.00">1</text>
</a>
</g>
</g>
<!-- dir_995a11a27ec5ce2fce465ebbab555255 -->
<g id="node7" class="node">
<title>dir_995a11a27ec5ce2fce465ebbab555255</title>
<g id="a_node7"><a xlink:href="dir_995a11a27ec5ce2fce465ebbab555255.html" target="_top" xlink:title="ParametersHandler">
<polygon fill="none" stroke="red" points="161.38,-108 51.38,-108 51.38,-72 161.38,-72 161.38,-108"/>
<text text-anchor="middle" x="106.38" y="-87.5" font-family="Helvetica,sans-Serif" font-size="10.00">ParametersHandler</text>
</a>
</g>
</g>
<!-- dir_8b8b9ea914891d9a3d7877d38bac2629&#45;&gt;dir_995a11a27ec5ce2fce465ebbab555255 -->
<g id="edge10" class="edge">
<title>dir_8b8b9ea914891d9a3d7877d38bac2629&#45;&gt;dir_995a11a27ec5ce2fce465ebbab555255</title>
<path fill="none" stroke="black" d="M96.7,-215.87C98.58,-191.67 102.02,-147.21 104.25,-118.39"/>
<polygon fill="black" stroke="black" points="107.76,-118.43 105.04,-108.19 100.78,-117.89 107.76,-118.43"/>
<g id="a_edge10&#45;headlabel"><a xlink:href="dir_000012_000052.html" target="_top" xlink:title="2">
<text text-anchor="middle" x="110.31" y="-119.73" font-family="Helvetica,sans-Serif" font-size="10.00">2</text>
</a>
</g>
</g>
<!-- dir_274c91e80578e5d4e4060e91dfb477c8 -->
<g id="node3" class="node">
<title>dir_274c91e80578e5d4e4060e91dfb477c8</title>
<g id="a_node3"><a xlink:href="dir_274c91e80578e5d4e4060e91dfb477c8.html" target="_top" xlink:title="src">
<polygon fill="white" stroke="black" points="122.38,-324 68.38,-324 68.38,-288 122.38,-288 122.38,-324"/>
<text text-anchor="middle" x="95.38" y="-303.5" font-family="Helvetica,sans-Serif" font-size="10.00">src</text>
</a>
</g>
</g>
<!-- dir_274c91e80578e5d4e4060e91dfb477c8&#45;&gt;dir_8b8b9ea914891d9a3d7877d38bac2629 -->
<g id="edge2" class="edge">
<title>dir_274c91e80578e5d4e4060e91dfb477c8&#45;&gt;dir_8b8b9ea914891d9a3d7877d38bac2629</title>
<path fill="none" stroke="black" d="M95.38,-287.7C95.38,-279.98 95.38,-270.71 95.38,-262.11"/>
<polygon fill="black" stroke="black" points="98.88,-262.1 95.38,-252.1 91.88,-262.1 98.88,-262.1"/>
<g id="a_edge2&#45;headlabel"><a xlink:href="dir_000016_000012.html" target="_top" xlink:title="6">
<text text-anchor="middle" x="101.71" y="-263.2" font-family="Helvetica,sans-Serif" font-size="10.00">6</text>
</a>
</g>
</g>
<!-- dir_4118ae531ffdde861fee1c6efaa3009d -->
<g id="node5" class="node">
<title>dir_4118ae531ffdde861fee1c6efaa3009d</title>
<g id="a_node5"><a xlink:href="dir_4118ae531ffdde861fee1c6efaa3009d.html" target="_top" xlink:title="TextLogging">
<polygon fill="none" stroke="red" points="101.88,-36 26.88,-36 26.88,0 101.88,0 101.88,-36"/>
<text text-anchor="middle" x="64.38" y="-15.5" font-family="Helvetica,sans-Serif" font-size="10.00">TextLogging</text>
</a>
</g>
</g>
<!-- dir_274c91e80578e5d4e4060e91dfb477c8&#45;&gt;dir_4118ae531ffdde861fee1c6efaa3009d -->
<g id="edge1" class="edge">
<title>dir_274c91e80578e5d4e4060e91dfb477c8&#45;&gt;dir_4118ae531ffdde861fee1c6efaa3009d</title>
<path fill="none" stroke="black" d="M77.03,-287.64C54.83,-265.24 18.66,-223.9 4.38,-180 -11.4,-131.52 20.64,-76 43.67,-44.46"/>
<polygon fill="black" stroke="black" points="46.66,-46.31 49.89,-36.22 41.07,-42.1 46.66,-46.31"/>
<g id="a_edge1&#45;headlabel"><a xlink:href="dir_000016_000094.html" target="_top" xlink:title="4">
<text text-anchor="middle" x="46.76" y="-48.39" font-family="Helvetica,sans-Serif" font-size="10.00">4</text>
</a>
</g>
</g>
<!-- dir_274c91e80578e5d4e4060e91dfb477c8&#45;&gt;dir_995a11a27ec5ce2fce465ebbab555255 -->
<g id="edge3" class="edge">
<title>dir_274c91e80578e5d4e4060e91dfb477c8&#45;&gt;dir_995a11a27ec5ce2fce465ebbab555255</title>
<path fill="none" stroke="black" d="M113.72,-287.64C135.92,-265.24 172.09,-223.9 186.38,-180 191.33,-164.79 193.95,-158.1 186.38,-144 179.59,-131.36 168.32,-121.23 156.35,-113.35"/>
<polygon fill="black" stroke="black" points="157.92,-110.21 147.56,-108 154.28,-116.19 157.92,-110.21"/>
<g id="a_edge3&#45;headlabel"><a xlink:href="dir_000016_000052.html" target="_top" xlink:title="1">
<text text-anchor="middle" x="162.47" y="-107.15" font-family="Helvetica,sans-Serif" font-size="10.00">1</text>
</a>
</g>
</g>
<!-- dir_ef68f1e1f5148ff8ef7fb1c955106c3c&#45;&gt;dir_4118ae531ffdde861fee1c6efaa3009d -->
<g id="edge4" class="edge">
<title>dir_ef68f1e1f5148ff8ef7fb1c955106c3c&#45;&gt;dir_4118ae531ffdde861fee1c6efaa3009d</title>
<path fill="none" stroke="black" d="M38.9,-143.72C37.78,-125.63 37.21,-96.5 42.38,-72 44.27,-63.03 47.64,-53.66 51.19,-45.34"/>
<polygon fill="black" stroke="black" points="54.42,-46.7 55.35,-36.14 48.04,-43.81 54.42,-46.7"/>
<g id="a_edge4&#45;headlabel"><a xlink:href="dir_000084_000094.html" target="_top" xlink:title="4">
<text text-anchor="middle" x="55.52" y="-48.64" font-family="Helvetica,sans-Serif" font-size="10.00">4</text>
</a>
</g>
</g>
<!-- dir_ef68f1e1f5148ff8ef7fb1c955106c3c&#45;&gt;dir_995a11a27ec5ce2fce465ebbab555255 -->
<g id="edge5" class="edge">
<title>dir_ef68f1e1f5148ff8ef7fb1c955106c3c&#45;&gt;dir_995a11a27ec5ce2fce465ebbab555255</title>
<path fill="none" stroke="black" d="M56.69,-143.7C64.68,-135.22 74.45,-124.86 83.2,-115.58"/>
<polygon fill="black" stroke="black" points="85.93,-117.78 90.25,-108.1 80.84,-112.98 85.93,-117.78"/>
<g id="a_edge5&#45;headlabel"><a xlink:href="dir_000084_000052.html" target="_top" xlink:title="4">
<text text-anchor="middle" x="85.53" y="-119.84" font-family="Helvetica,sans-Serif" font-size="10.00">4</text>
</a>
</g>
</g>
<!-- dir_3813464283bee2267f39dcf080a84d74&#45;&gt;dir_4118ae531ffdde861fee1c6efaa3009d -->
<g id="edge6" class="edge">
<title>dir_3813464283bee2267f39dcf080a84d74&#45;&gt;dir_4118ae531ffdde861fee1c6efaa3009d</title>
<path fill="none" stroke="black" d="M161.37,-143.68C171.83,-124.78 184.11,-94.23 170.38,-72 157.42,-51.04 133.38,-38.09 111.47,-30.24"/>
<polygon fill="black" stroke="black" points="112.52,-26.9 101.93,-27.09 110.32,-33.55 112.52,-26.9"/>
<g id="a_edge6&#45;headlabel"><a xlink:href="dir_000047_000094.html" target="_top" xlink:title="1">
<text text-anchor="middle" x="116.82" y="-22.84" font-family="Helvetica,sans-Serif" font-size="10.00">1</text>
</a>
</g>
</g>
<!-- dir_3813464283bee2267f39dcf080a84d74&#45;&gt;dir_995a11a27ec5ce2fce465ebbab555255 -->
<g id="edge7" class="edge">
<title>dir_3813464283bee2267f39dcf080a84d74&#45;&gt;dir_995a11a27ec5ce2fce465ebbab555255</title>
<path fill="none" stroke="black" d="M139.5,-143.7C134.38,-135.56 128.18,-125.69 122.53,-116.7"/>
<polygon fill="black" stroke="black" points="125.41,-114.71 117.13,-108.1 119.49,-118.43 125.41,-114.71"/>
<g id="a_edge7&#45;headlabel"><a xlink:href="dir_000047_000052.html" target="_top" xlink:title="2">
<text text-anchor="middle" x="129.73" y="-113.74" font-family="Helvetica,sans-Serif" font-size="10.00">2</text>
</a>
</g>
</g>
<!-- dir_995a11a27ec5ce2fce465ebbab555255&#45;&gt;dir_4118ae531ffdde861fee1c6efaa3009d -->
<g id="edge11" class="edge">
<title>dir_995a11a27ec5ce2fce465ebbab555255&#45;&gt;dir_4118ae531ffdde861fee1c6efaa3009d</title>
<path fill="none" stroke="black" d="M95.99,-71.7C91.11,-63.56 85.19,-53.69 79.8,-44.7"/>
<polygon fill="black" stroke="black" points="82.78,-42.88 74.64,-36.1 76.78,-46.48 82.78,-42.88"/>
<g id="a_edge11&#45;headlabel"><a xlink:href="dir_000052_000094.html" target="_top" xlink:title="3">
<text text-anchor="middle" x="87.07" y="-42" font-family="Helvetica,sans-Serif" font-size="10.00">3</text>
</a>
</g>
</g>
</g>
</svg>
