<?xml version="1.0" encoding="UTF-8" standalone="no"?>
<!DOCTYPE svg PUBLIC "-//W3C//DTD SVG 1.1//EN"
 "http://www.w3.org/Graphics/SVG/1.1/DTD/svg11.dtd">
<!-- Generated by graphviz version 2.43.0 (0)
 -->
<!-- Title: RobotInterface/YarpImplementation/include Pages: 1 -->
<svg width="268pt" height="303pt"
 viewBox="0.00 0.00 268.00 303.00" xmlns="http://www.w3.org/2000/svg" xmlns:xlink="http://www.w3.org/1999/xlink">
<g id="graph0" class="graph" transform="scale(1 1) rotate(0) translate(4 299)">
<title>RobotInterface/YarpImplementation/include</title>
<g id="clust1" class="cluster">
<title>clusterdir_3e94d037e35e99e0f94aa79b0e410f47</title>
<g id="a_clust1"><a xlink:href="dir_3e94d037e35e99e0f94aa79b0e410f47.html" target="_top" xlink:title="YarpImplementation">
<polygon fill="#ddddee" stroke="black" points="38,-200 38,-287 252,-287 252,-200 38,-200"/>
<text text-anchor="middle" x="145" y="-275" font-family="Helvetica,sans-Serif" font-size="10.00">YarpImplementation</text>
</a>
</g>
</g>
<g id="clust2" class="cluster">
<title>clusterdir_c9ecf35bb6ca9c90f7c8106eb0f248ed</title>
<g id="a_clust2"><a xlink:href="dir_c9ecf35bb6ca9c90f7c8106eb0f248ed.html" target="_top">
<polygon fill="#eeeeff" stroke="black" points="46,-208 46,-260 244,-260 244,-208 46,-208"/>
</a>
</g>
</g>
<!-- dir_c9ecf35bb6ca9c90f7c8106eb0f248ed -->
<g id="node1" class="node">
<title>dir_c9ecf35bb6ca9c90f7c8106eb0f248ed</title>
<text text-anchor="middle" x="209" y="-231.5" font-family="Helvetica,sans-Serif" font-size="10.00">include</text>
</g>
<!-- dir_6d7a1fbb1996e04a5d9e5687233f00d1 -->
<g id="node2" class="node">
<title>dir_6d7a1fbb1996e04a5d9e5687233f00d1</title>
<g id="a_node2"><a xlink:href="dir_6d7a1fbb1996e04a5d9e5687233f00d1.html" target="_top" xlink:title="BipedalLocomotion">
<polygon fill="white" stroke="red" points="164,-252 54,-252 54,-216 164,-216 164,-252"/>
<text text-anchor="middle" x="109" y="-231.5" font-family="Helvetica,sans-Serif" font-size="10.00">BipedalLocomotion</text>
</a>
</g>
</g>
<!-- dir_ef68f1e1f5148ff8ef7fb1c955106c3c -->
<g id="node3" class="node">
<title>dir_ef68f1e1f5148ff8ef7fb1c955106c3c</title>
<g id="a_node3"><a xlink:href="dir_ef68f1e1f5148ff8ef7fb1c955106c3c.html" target="_top" xlink:title="System">
<polygon fill="none" stroke="red" points="54,-180 0,-180 0,-144 54,-144 54,-180"/>
<text text-anchor="middle" x="27" y="-159.5" font-family="Helvetica,sans-Serif" font-size="10.00">System</text>
</a>
</g>
</g>
<!-- dir_6d7a1fbb1996e04a5d9e5687233f00d1&#45;&gt;dir_ef68f1e1f5148ff8ef7fb1c955106c3c -->
<g id="edge3" class="edge">
<title>dir_6d7a1fbb1996e04a5d9e5687233f00d1&#45;&gt;dir_ef68f1e1f5148ff8ef7fb1c955106c3c</title>
<path fill="none" stroke="black" d="M88.73,-215.7C78.5,-206.97 65.94,-196.24 54.82,-186.75"/>
<polygon fill="black" stroke="black" points="56.91,-183.94 47.04,-180.1 52.37,-189.26 56.91,-183.94"/>
<g id="a_edge3&#45;headlabel"><a xlink:href="dir_000081_000084.html" target="_top" xlink:title="1">
<text text-anchor="middle" x="61.49" y="-181.61" font-family="Helvetica,sans-Serif" font-size="10.00">1</text>
</a>
</g>
</g>
<!-- dir_4118ae531ffdde861fee1c6efaa3009d -->
<g id="node4" class="node">
<title>dir_4118ae531ffdde861fee1c6efaa3009d</title>
<g id="a_node4"><a xlink:href="dir_4118ae531ffdde861fee1c6efaa3009d.html" target="_top" xlink:title="TextLogging">
<polygon fill="none" stroke="red" points="146.5,-36 71.5,-36 71.5,0 146.5,0 146.5,-36"/>
<text text-anchor="middle" x="109" y="-15.5" font-family="Helvetica,sans-Serif" font-size="10.00">TextLogging</text>
</a>
</g>
</g>
<!-- dir_6d7a1fbb1996e04a5d9e5687233f00d1&#45;&gt;dir_4118ae531ffdde861fee1c6efaa3009d -->
<g id="edge4" class="edge">
<title>dir_6d7a1fbb1996e04a5d9e5687233f00d1&#45;&gt;dir_4118ae531ffdde861fee1c6efaa3009d</title>
<path fill="none" stroke="black" d="M139.77,-215.91C152.54,-207.02 166,-194.88 173,-180 193.43,-136.56 193.43,-115.44 173,-72 167.48,-60.26 157.93,-50.22 147.88,-42.15"/>
<polygon fill="black" stroke="black" points="149.88,-39.27 139.77,-36.09 145.69,-44.88 149.88,-39.27"/>
<g id="a_edge4&#45;headlabel"><a xlink:href="dir_000081_000094.html" target="_top" xlink:title="1">
<text text-anchor="middle" x="154.46" y="-36.65" font-family="Helvetica,sans-Serif" font-size="10.00">1</text>
</a>
</g>
</g>
<!-- dir_995a11a27ec5ce2fce465ebbab555255 -->
<g id="node5" class="node">
<title>dir_995a11a27ec5ce2fce465ebbab555255</title>
<g id="a_node5"><a xlink:href="dir_995a11a27ec5ce2fce465ebbab555255.html" target="_top" xlink:title="ParametersHandler">
<polygon fill="none" stroke="red" points="164,-108 54,-108 54,-72 164,-72 164,-108"/>
<text text-anchor="middle" x="109" y="-87.5" font-family="Helvetica,sans-Serif" font-size="10.00">ParametersHandler</text>
</a>
</g>
</g>
<!-- dir_6d7a1fbb1996e04a5d9e5687233f00d1&#45;&gt;dir_995a11a27ec5ce2fce465ebbab555255 -->
<g id="edge5" class="edge">
<title>dir_6d7a1fbb1996e04a5d9e5687233f00d1&#45;&gt;dir_995a11a27ec5ce2fce465ebbab555255</title>
<path fill="none" stroke="black" d="M105.75,-215.89C103.95,-205.54 101.91,-192.06 101,-180 99.8,-164.04 99.8,-159.96 101,-144 101.64,-135.52 102.84,-126.34 104.12,-118.04"/>
<polygon fill="black" stroke="black" points="107.58,-118.55 105.75,-108.11 100.68,-117.41 107.58,-118.55"/>
<g id="a_edge5&#45;headlabel"><a xlink:href="dir_000081_000052.html" target="_top" xlink:title="1">
<text text-anchor="middle" x="109.8" y="-120.05" font-family="Helvetica,sans-Serif" font-size="10.00">1</text>
</a>
</g>
</g>
<!-- dir_2ddfa6bbaecaa13cbf0c44c7a8ab174d -->
<g id="node6" class="node">
<title>dir_2ddfa6bbaecaa13cbf0c44c7a8ab174d</title>
<g id="a_node6"><a xlink:href="dir_2ddfa6bbaecaa13cbf0c44c7a8ab174d.html" target="_top" xlink:title="include">
<polygon fill="none" stroke="red" points="164,-180 110,-180 110,-144 164,-144 164,-180"/>
<text text-anchor="middle" x="137" y="-159.5" font-family="Helvetica,sans-Serif" font-size="10.00">include</text>
</a>
</g>
</g>
<!-- dir_6d7a1fbb1996e04a5d9e5687233f00d1&#45;&gt;dir_2ddfa6bbaecaa13cbf0c44c7a8ab174d -->
<g id="edge6" class="edge">
<title>dir_6d7a1fbb1996e04a5d9e5687233f00d1&#45;&gt;dir_2ddfa6bbaecaa13cbf0c44c7a8ab174d</title>
<path fill="none" stroke="black" d="M115.92,-215.7C119.07,-207.81 122.88,-198.3 126.38,-189.55"/>
<polygon fill="black" stroke="black" points="129.69,-190.69 130.16,-180.1 123.19,-188.09 129.69,-190.69"/>
<g id="a_edge6&#45;headlabel"><a xlink:href="dir_000081_000075.html" target="_top" xlink:title="2">
<text text-anchor="middle" x="131" y="-192.58" font-family="Helvetica,sans-Serif" font-size="10.00">2</text>
</a>
</g>
</g>
<!-- dir_ef68f1e1f5148ff8ef7fb1c955106c3c&#45;&gt;dir_4118ae531ffdde861fee1c6efaa3009d -->
<g id="edge1" class="edge">
<title>dir_ef68f1e1f5148ff8ef7fb1c955106c3c&#45;&gt;dir_4118ae531ffdde861fee1c6efaa3009d</title>
<path fill="none" stroke="black" d="M27.14,-143.72C28.03,-124.84 31.64,-94.32 45,-72 51.84,-60.57 62.07,-50.49 72.36,-42.28"/>
<polygon fill="black" stroke="black" points="74.67,-44.91 80.55,-36.1 70.46,-39.32 74.67,-44.91"/>
<g id="a_edge1&#45;headlabel"><a xlink:href="dir_000084_000094.html" target="_top" xlink:title="4">
<text text-anchor="middle" x="73.51" y="-46.84" font-family="Helvetica,sans-Serif" font-size="10.00">4</text>
</a>
</g>
</g>
<!-- dir_ef68f1e1f5148ff8ef7fb1c955106c3c&#45;&gt;dir_995a11a27ec5ce2fce465ebbab555255 -->
<g id="edge2" class="edge">
<title>dir_ef68f1e1f5148ff8ef7fb1c955106c3c&#45;&gt;dir_995a11a27ec5ce2fce465ebbab555255</title>
<path fill="none" stroke="black" d="M47.27,-143.7C57.5,-134.97 70.06,-124.24 81.18,-114.75"/>
<polygon fill="black" stroke="black" points="83.63,-117.26 88.96,-108.1 79.09,-111.94 83.63,-117.26"/>
<g id="a_edge2&#45;headlabel"><a xlink:href="dir_000084_000052.html" target="_top" xlink:title="4">
<text text-anchor="middle" x="82.74" y="-119.25" font-family="Helvetica,sans-Serif" font-size="10.00">4</text>
</a>
</g>
</g>
<!-- dir_995a11a27ec5ce2fce465ebbab555255&#45;&gt;dir_4118ae531ffdde861fee1c6efaa3009d -->
<g id="edge7" class="edge">
<title>dir_995a11a27ec5ce2fce465ebbab555255&#45;&gt;dir_4118ae531ffdde861fee1c6efaa3009d</title>
<path fill="none" stroke="black" d="M109,-71.7C109,-63.98 109,-54.71 109,-46.11"/>
<polygon fill="black" stroke="black" points="112.5,-46.1 109,-36.1 105.5,-46.1 112.5,-46.1"/>
<g id="a_edge7&#45;headlabel"><a xlink:href="dir_000052_000094.html" target="_top" xlink:title="3">
<text text-anchor="middle" x="115.34" y="-47.2" font-family="Helvetica,sans-Serif" font-size="10.00">3</text>
</a>
</g>
</g>
<!-- dir_2ddfa6bbaecaa13cbf0c44c7a8ab174d&#45;&gt;dir_995a11a27ec5ce2fce465ebbab555255 -->
<g id="edge8" class="edge">
<title>dir_2ddfa6bbaecaa13cbf0c44c7a8ab174d&#45;&gt;dir_995a11a27ec5ce2fce465ebbab555255</title>
<path fill="none" stroke="black" d="M130.08,-143.7C126.93,-135.81 123.12,-126.3 119.62,-117.55"/>
<polygon fill="black" stroke="black" points="122.81,-116.09 115.84,-108.1 116.31,-118.69 122.81,-116.09"/>
<g id="a_edge8&#45;headlabel"><a xlink:href="dir_000075_000052.html" target="_top" xlink:title="4">
<text text-anchor="middle" x="126.78" y="-115.87" font-family="Helvetica,sans-Serif" font-size="10.00">4</text>
</a>
</g>
</g>
</g>
</svg>
