<?xml version="1.0" encoding="UTF-8" standalone="no"?>
<!DOCTYPE svg PUBLIC "-//W3C//DTD SVG 1.1//EN"
 "http://www.w3.org/Graphics/SVG/1.1/DTD/svg11.dtd">
<!-- Generated by graphviz version 2.43.0 (0)
 -->
<!-- Title: Math/src Pages: 1 -->
<svg width="156pt" height="151pt"
 viewBox="0.00 0.00 155.50 151.00" xmlns="http://www.w3.org/2000/svg" xmlns:xlink="http://www.w3.org/1999/xlink">
<g id="graph0" class="graph" transform="scale(1 1) rotate(0) translate(4 147)">
<title>Math/src</title>
<g id="clust1" class="cluster">
<title>clusterdir_3813464283bee2267f39dcf080a84d74</title>
<g id="a_clust1"><a xlink:href="dir_3813464283bee2267f39dcf080a84d74.html" target="_top" xlink:title="Math">
<polygon fill="#ddddee" stroke="black" points="43.5,-64 43.5,-135 113.5,-135 113.5,-64 43.5,-64"/>
<text text-anchor="middle" x="78.5" y="-123" font-family="Helvetica,sans-Serif" font-size="10.00">Math</text>
</a>
</g>
</g>
<!-- dir_b14ebb86a4681ab22d3d6a64a2eb0f19 -->
<g id="node1" class="node">
<title>dir_b14ebb86a4681ab22d3d6a64a2eb0f19</title>
<g id="a_node1"><a xlink:href="dir_b14ebb86a4681ab22d3d6a64a2eb0f19.html" target="_top" xlink:title="src">
<polygon fill="#eeeeff" stroke="black" points="105.5,-108 51.5,-108 51.5,-72 105.5,-72 105.5,-108"/>
<text text-anchor="middle" x="78.5" y="-87.5" font-family="Helvetica,sans-Serif" font-size="10.00">src</text>
</a>
</g>
</g>
<!-- dir_4118ae531ffdde861fee1c6efaa3009d -->
<g id="node2" class="node">
<title>dir_4118ae531ffdde861fee1c6efaa3009d</title>
<g id="a_node2"><a xlink:href="dir_4118ae531ffdde861fee1c6efaa3009d.html" target="_top" xlink:title="TextLogging">
<polygon fill="none" stroke="red" points="75,-36 0,-36 0,0 75,0 75,-36"/>
<text text-anchor="middle" x="37.5" y="-15.5" font-family="Helvetica,sans-Serif" font-size="10.00">TextLogging</text>
</a>
</g>
</g>
<!-- dir_b14ebb86a4681ab22d3d6a64a2eb0f19&#45;&gt;dir_4118ae531ffdde861fee1c6efaa3009d -->
<g id="edge1" class="edge">
<title>dir_b14ebb86a4681ab22d3d6a64a2eb0f19&#45;&gt;dir_4118ae531ffdde861fee1c6efaa3009d</title>
<path fill="none" stroke="black" d="M68.37,-71.7C63.65,-63.64 57.94,-53.89 52.72,-44.98"/>
<polygon fill="black" stroke="black" points="55.59,-42.96 47.52,-36.1 49.55,-46.5 55.59,-42.96"/>
<g id="a_edge1&#45;headlabel"><a xlink:href="dir_000051_000094.html" target="_top" xlink:title="1">
<text text-anchor="middle" x="59.86" y="-42.13" font-family="Helvetica,sans-Serif" font-size="10.00">1</text>
</a>
</g>
</g>
<!-- dir_5a5fe75cdfdc7c2cbe2afd8cce18b508 -->
<g id="node3" class="node">
<title>dir_5a5fe75cdfdc7c2cbe2afd8cce18b508</title>
<g id="a_node3"><a xlink:href="dir_5a5fe75cdfdc7c2cbe2afd8cce18b508.html" target="_top" xlink:title="include">
<polygon fill="none" stroke="red" points="147.5,-36 93.5,-36 93.5,0 147.5,0 147.5,-36"/>
<text text-anchor="middle" x="120.5" y="-15.5" font-family="Helvetica,sans-Serif" font-size="10.00">include</text>
</a>
</g>
</g>
<!-- dir_b14ebb86a4681ab22d3d6a64a2eb0f19&#45;&gt;dir_5a5fe75cdfdc7c2cbe2afd8cce18b508 -->
<g id="edge2" class="edge">
<title>dir_b14ebb86a4681ab22d3d6a64a2eb0f19&#45;&gt;dir_5a5fe75cdfdc7c2cbe2afd8cce18b508</title>
<path fill="none" stroke="black" d="M88.88,-71.7C93.76,-63.56 99.69,-53.69 105.08,-44.7"/>
<polygon fill="black" stroke="black" points="108.09,-46.48 110.24,-36.1 102.09,-42.88 108.09,-46.48"/>
<g id="a_edge2&#45;headlabel"><a xlink:href="dir_000051_000048.html" target="_top" xlink:title="2">
<text text-anchor="middle" x="108.68" y="-48.52" font-family="Helvetica,sans-Serif" font-size="10.00">2</text>
</a>
</g>
</g>
</g>
</svg>
