<?xml version="1.0" encoding="UTF-8" standalone="no"?>
<!DOCTYPE svg PUBLIC "-//W3C//DTD SVG 1.1//EN"
 "http://www.w3.org/Graphics/SVG/1.1/DTD/svg11.dtd">
<!-- Generated by graphviz version 2.43.0 (0)
 -->
<!-- Title: Perception Pages: 1 -->
<svg width="339pt" height="348pt"
 viewBox="0.00 0.00 339.24 348.00" xmlns="http://www.w3.org/2000/svg" xmlns:xlink="http://www.w3.org/1999/xlink">
<g id="graph0" class="graph" transform="scale(1 1) rotate(0) translate(4 344)">
<title>Perception</title>
<g id="clust1" class="cluster">
<title>clusterdir_65aef1d031b4180744df37dd53ab1e73</title>
<g id="a_clust1"><a xlink:href="dir_65aef1d031b4180744df37dd53ab1e73.html" target="_top">
<polygon fill="#eeeeff" stroke="black" points="89.74,-208 89.74,-332 245.74,-332 245.74,-208 89.74,-208"/>
</a>
</g>
</g>
<!-- dir_65aef1d031b4180744df37dd53ab1e73 -->
<g id="node1" class="node">
<title>dir_65aef1d031b4180744df37dd53ab1e73</title>
<text text-anchor="middle" x="203.74" y="-303.5" font-family="Helvetica,sans-Serif" font-size="10.00">Perception</text>
</g>
<!-- dir_e9d3b73e13adb0d4d413d7c9c28654f7 -->
<g id="node2" class="node">
<title>dir_e9d3b73e13adb0d4d413d7c9c28654f7</title>
<g id="a_node2"><a xlink:href="dir_e9d3b73e13adb0d4d413d7c9c28654f7.html" target="_top" xlink:title="include">
<polygon fill="white" stroke="red" points="151.74,-252 97.74,-252 97.74,-216 151.74,-216 151.74,-252"/>
<text text-anchor="middle" x="124.74" y="-231.5" font-family="Helvetica,sans-Serif" font-size="10.00">include</text>
</a>
</g>
</g>
<!-- dir_ef68f1e1f5148ff8ef7fb1c955106c3c -->
<g id="node4" class="node">
<title>dir_ef68f1e1f5148ff8ef7fb1c955106c3c</title>
<g id="a_node4"><a xlink:href="dir_ef68f1e1f5148ff8ef7fb1c955106c3c.html" target="_top" xlink:title="System">
<polygon fill="none" stroke="red" points="86.74,-180 32.74,-180 32.74,-144 86.74,-144 86.74,-180"/>
<text text-anchor="middle" x="59.74" y="-159.5" font-family="Helvetica,sans-Serif" font-size="10.00">System</text>
</a>
</g>
</g>
<!-- dir_e9d3b73e13adb0d4d413d7c9c28654f7&#45;&gt;dir_ef68f1e1f5148ff8ef7fb1c955106c3c -->
<g id="edge7" class="edge">
<title>dir_e9d3b73e13adb0d4d413d7c9c28654f7&#45;&gt;dir_ef68f1e1f5148ff8ef7fb1c955106c3c</title>
<path fill="none" stroke="black" d="M108.67,-215.7C100.8,-207.22 91.19,-196.86 82.57,-187.58"/>
<polygon fill="black" stroke="black" points="84.99,-185.05 75.62,-180.1 79.86,-189.81 84.99,-185.05"/>
<g id="a_edge7&#45;headlabel"><a xlink:href="dir_000063_000084.html" target="_top" xlink:title="1">
<text text-anchor="middle" x="89.52" y="-183.25" font-family="Helvetica,sans-Serif" font-size="10.00">1</text>
</a>
</g>
</g>
<!-- dir_4118ae531ffdde861fee1c6efaa3009d -->
<g id="node5" class="node">
<title>dir_4118ae531ffdde861fee1c6efaa3009d</title>
<g id="a_node5"><a xlink:href="dir_4118ae531ffdde861fee1c6efaa3009d.html" target="_top" xlink:title="TextLogging">
<polygon fill="none" stroke="red" points="148.24,-36 73.24,-36 73.24,0 148.24,0 148.24,-36"/>
<text text-anchor="middle" x="110.74" y="-15.5" font-family="Helvetica,sans-Serif" font-size="10.00">TextLogging</text>
</a>
</g>
</g>
<!-- dir_e9d3b73e13adb0d4d413d7c9c28654f7&#45;&gt;dir_4118ae531ffdde861fee1c6efaa3009d -->
<g id="edge8" class="edge">
<title>dir_e9d3b73e13adb0d4d413d7c9c28654f7&#45;&gt;dir_4118ae531ffdde861fee1c6efaa3009d</title>
<path fill="none" stroke="black" d="M128.57,-215.86C134.57,-186.2 144.44,-123.53 133.74,-72 131.86,-62.96 128.37,-53.58 124.65,-45.26"/>
<polygon fill="black" stroke="black" points="127.74,-43.6 120.28,-36.07 121.42,-46.61 127.74,-43.6"/>
<g id="a_edge8&#45;headlabel"><a xlink:href="dir_000063_000094.html" target="_top" xlink:title="1">
<text text-anchor="middle" x="131.85" y="-43.12" font-family="Helvetica,sans-Serif" font-size="10.00">1</text>
</a>
</g>
</g>
<!-- dir_995a11a27ec5ce2fce465ebbab555255 -->
<g id="node7" class="node">
<title>dir_995a11a27ec5ce2fce465ebbab555255</title>
<g id="a_node7"><a xlink:href="dir_995a11a27ec5ce2fce465ebbab555255.html" target="_top" xlink:title="ParametersHandler">
<polygon fill="none" stroke="red" points="124.74,-108 14.74,-108 14.74,-72 124.74,-72 124.74,-108"/>
<text text-anchor="middle" x="69.74" y="-87.5" font-family="Helvetica,sans-Serif" font-size="10.00">ParametersHandler</text>
</a>
</g>
</g>
<!-- dir_e9d3b73e13adb0d4d413d7c9c28654f7&#45;&gt;dir_995a11a27ec5ce2fce465ebbab555255 -->
<g id="edge9" class="edge">
<title>dir_e9d3b73e13adb0d4d413d7c9c28654f7&#45;&gt;dir_995a11a27ec5ce2fce465ebbab555255</title>
<path fill="none" stroke="black" d="M119.89,-215.68C114.62,-197.55 105.64,-168.39 95.74,-144 92.16,-135.17 87.75,-125.76 83.58,-117.36"/>
<polygon fill="black" stroke="black" points="86.68,-115.73 79.04,-108.38 80.43,-118.89 86.68,-115.73"/>
<g id="a_edge9&#45;headlabel"><a xlink:href="dir_000063_000052.html" target="_top" xlink:title="2">
<text text-anchor="middle" x="90.83" y="-115.15" font-family="Helvetica,sans-Serif" font-size="10.00">2</text>
</a>
</g>
</g>
<!-- dir_56a0623f6b27b940cd577879558c5e97 -->
<g id="node3" class="node">
<title>dir_56a0623f6b27b940cd577879558c5e97</title>
<g id="a_node3"><a xlink:href="dir_56a0623f6b27b940cd577879558c5e97.html" target="_top" xlink:title="src">
<polygon fill="white" stroke="black" points="151.74,-324 97.74,-324 97.74,-288 151.74,-288 151.74,-324"/>
<text text-anchor="middle" x="124.74" y="-303.5" font-family="Helvetica,sans-Serif" font-size="10.00">src</text>
</a>
</g>
</g>
<!-- dir_56a0623f6b27b940cd577879558c5e97&#45;&gt;dir_e9d3b73e13adb0d4d413d7c9c28654f7 -->
<g id="edge6" class="edge">
<title>dir_56a0623f6b27b940cd577879558c5e97&#45;&gt;dir_e9d3b73e13adb0d4d413d7c9c28654f7</title>
<path fill="none" stroke="black" d="M124.74,-287.7C124.74,-279.98 124.74,-270.71 124.74,-262.11"/>
<polygon fill="black" stroke="black" points="128.24,-262.1 124.74,-252.1 121.24,-262.1 128.24,-262.1"/>
<g id="a_edge6&#45;headlabel"><a xlink:href="dir_000068_000063.html" target="_top" xlink:title="1">
<text text-anchor="middle" x="131.08" y="-263.2" font-family="Helvetica,sans-Serif" font-size="10.00">1</text>
</a>
</g>
</g>
<!-- dir_56a0623f6b27b940cd577879558c5e97&#45;&gt;dir_4118ae531ffdde861fee1c6efaa3009d -->
<g id="edge4" class="edge">
<title>dir_56a0623f6b27b940cd577879558c5e97&#45;&gt;dir_4118ae531ffdde861fee1c6efaa3009d</title>
<path fill="none" stroke="black" d="M140.35,-287.77C148.11,-278.03 156.69,-265.18 160.74,-252 166.49,-233.31 161.46,-227.54 160.74,-208 158.52,-147.43 172.09,-128.72 150.74,-72 146.96,-61.97 140.65,-52.23 134.15,-43.89"/>
<polygon fill="black" stroke="black" points="136.74,-41.54 127.66,-36.07 131.35,-46 136.74,-41.54"/>
<g id="a_edge4&#45;headlabel"><a xlink:href="dir_000068_000094.html" target="_top" xlink:title="2">
<text text-anchor="middle" x="141.22" y="-39.99" font-family="Helvetica,sans-Serif" font-size="10.00">2</text>
</a>
</g>
</g>
<!-- dir_67ecbf5b3dd37b0be5aedd0167f75fa8 -->
<g id="node6" class="node">
<title>dir_67ecbf5b3dd37b0be5aedd0167f75fa8</title>
<g id="a_node6"><a xlink:href="dir_67ecbf5b3dd37b0be5aedd0167f75fa8.html" target="_top" xlink:title="Conversions">
<polygon fill="none" stroke="red" points="331.24,-252 254.24,-252 254.24,-216 331.24,-216 331.24,-252"/>
<text text-anchor="middle" x="292.74" y="-231.5" font-family="Helvetica,sans-Serif" font-size="10.00">Conversions</text>
</a>
</g>
</g>
<!-- dir_56a0623f6b27b940cd577879558c5e97&#45;&gt;dir_67ecbf5b3dd37b0be5aedd0167f75fa8 -->
<g id="edge5" class="edge">
<title>dir_56a0623f6b27b940cd577879558c5e97&#45;&gt;dir_67ecbf5b3dd37b0be5aedd0167f75fa8</title>
<path fill="none" stroke="black" d="M151.79,-292.02C154.8,-290.64 157.83,-289.27 160.74,-288 168.96,-284.41 210.39,-267.82 244.68,-254.14"/>
<polygon fill="black" stroke="black" points="246.13,-257.33 254.12,-250.37 243.54,-250.82 246.13,-257.33"/>
<g id="a_edge5&#45;headlabel"><a xlink:href="dir_000068_000023.html" target="_top" xlink:title="1">
<text text-anchor="middle" x="243.84" y="-258.79" font-family="Helvetica,sans-Serif" font-size="10.00">1</text>
</a>
</g>
</g>
<!-- dir_ef68f1e1f5148ff8ef7fb1c955106c3c&#45;&gt;dir_4118ae531ffdde861fee1c6efaa3009d -->
<g id="edge1" class="edge">
<title>dir_ef68f1e1f5148ff8ef7fb1c955106c3c&#45;&gt;dir_4118ae531ffdde861fee1c6efaa3009d</title>
<path fill="none" stroke="black" d="M34.81,-143.86C23.68,-134.67 11.74,-122.29 5.74,-108 -0.45,-93.25 -2.64,-85.63 5.74,-72 18.41,-51.41 41.81,-38.53 63.31,-30.64"/>
<polygon fill="black" stroke="black" points="64.67,-33.87 73.01,-27.35 62.42,-27.24 64.67,-33.87"/>
<g id="a_edge1&#45;headlabel"><a xlink:href="dir_000084_000094.html" target="_top" xlink:title="4">
<text text-anchor="middle" x="62.17" y="-35.22" font-family="Helvetica,sans-Serif" font-size="10.00">4</text>
</a>
</g>
</g>
<!-- dir_ef68f1e1f5148ff8ef7fb1c955106c3c&#45;&gt;dir_995a11a27ec5ce2fce465ebbab555255 -->
<g id="edge2" class="edge">
<title>dir_ef68f1e1f5148ff8ef7fb1c955106c3c&#45;&gt;dir_995a11a27ec5ce2fce465ebbab555255</title>
<path fill="none" stroke="black" d="M62.21,-143.7C63.31,-135.98 64.64,-126.71 65.87,-118.11"/>
<polygon fill="black" stroke="black" points="69.35,-118.5 67.3,-108.1 62.42,-117.51 69.35,-118.5"/>
<g id="a_edge2&#45;headlabel"><a xlink:href="dir_000084_000052.html" target="_top" xlink:title="4">
<text text-anchor="middle" x="71.65" y="-119.96" font-family="Helvetica,sans-Serif" font-size="10.00">4</text>
</a>
</g>
</g>
<!-- dir_995a11a27ec5ce2fce465ebbab555255&#45;&gt;dir_4118ae531ffdde861fee1c6efaa3009d -->
<g id="edge3" class="edge">
<title>dir_995a11a27ec5ce2fce465ebbab555255&#45;&gt;dir_4118ae531ffdde861fee1c6efaa3009d</title>
<path fill="none" stroke="black" d="M79.88,-71.7C84.59,-63.64 90.3,-53.89 95.52,-44.98"/>
<polygon fill="black" stroke="black" points="98.69,-46.5 100.72,-36.1 92.65,-42.96 98.69,-46.5"/>
<g id="a_edge3&#45;headlabel"><a xlink:href="dir_000052_000094.html" target="_top" xlink:title="3">
<text text-anchor="middle" x="99.32" y="-48.54" font-family="Helvetica,sans-Serif" font-size="10.00">3</text>
</a>
</g>
</g>
</g>
</svg>
