<?xml version="1.0" encoding="UTF-8" standalone="no"?>
<!DOCTYPE svg PUBLIC "-//W3C//DTD SVG 1.1//EN"
 "http://www.w3.org/Graphics/SVG/1.1/DTD/svg11.dtd">
<!-- Generated by graphviz version 2.43.0 (0)
 -->
<!-- Title: Planners/src Pages: 1 -->
<svg width="162pt" height="367pt"
 viewBox="0.00 0.00 161.65 367.00" xmlns="http://www.w3.org/2000/svg" xmlns:xlink="http://www.w3.org/1999/xlink">
<g id="graph0" class="graph" transform="scale(1 1) rotate(0) translate(4 363)">
<title>Planners/src</title>
<g id="clust1" class="cluster">
<title>clusterdir_cc5a7ea599a1eb2a878dda3f918ab084</title>
<g id="a_clust1"><a xlink:href="dir_cc5a7ea599a1eb2a878dda3f918ab084.html" target="_top" xlink:title="Planners">
<polygon fill="#ddddee" stroke="black" points="17.65,-280 17.65,-351 87.65,-351 87.65,-280 17.65,-280"/>
<text text-anchor="middle" x="52.65" y="-339" font-family="Helvetica,sans-Serif" font-size="10.00">Planners</text>
</a>
</g>
</g>
<!-- dir_7db49aa183034495a2794b7f72164f5b -->
<g id="node1" class="node">
<title>dir_7db49aa183034495a2794b7f72164f5b</title>
<g id="a_node1"><a xlink:href="dir_7db49aa183034495a2794b7f72164f5b.html" target="_top" xlink:title="src">
<polygon fill="#eeeeff" stroke="black" points="79.65,-324 25.65,-324 25.65,-288 79.65,-288 79.65,-324"/>
<text text-anchor="middle" x="52.65" y="-303.5" font-family="Helvetica,sans-Serif" font-size="10.00">src</text>
</a>
</g>
</g>
<!-- dir_4118ae531ffdde861fee1c6efaa3009d -->
<g id="node2" class="node">
<title>dir_4118ae531ffdde861fee1c6efaa3009d</title>
<g id="a_node2"><a xlink:href="dir_4118ae531ffdde861fee1c6efaa3009d.html" target="_top" xlink:title="TextLogging">
<polygon fill="none" stroke="red" points="81.15,-36 6.15,-36 6.15,0 81.15,0 81.15,-36"/>
<text text-anchor="middle" x="43.65" y="-15.5" font-family="Helvetica,sans-Serif" font-size="10.00">TextLogging</text>
</a>
</g>
</g>
<!-- dir_7db49aa183034495a2794b7f72164f5b&#45;&gt;dir_4118ae531ffdde861fee1c6efaa3009d -->
<g id="edge2" class="edge">
<title>dir_7db49aa183034495a2794b7f72164f5b&#45;&gt;dir_4118ae531ffdde861fee1c6efaa3009d</title>
<path fill="none" stroke="black" d="M43.66,-287.74C24.53,-248.67 -16.56,-150.76 7.65,-72 10.66,-62.22 16.16,-52.62 21.97,-44.33"/>
<polygon fill="black" stroke="black" points="24.85,-46.33 28.05,-36.23 19.25,-42.13 24.85,-46.33"/>
<g id="a_edge2&#45;headlabel"><a xlink:href="dir_000073_000094.html" target="_top" xlink:title="1">
<text text-anchor="middle" x="24.97" y="-48.41" font-family="Helvetica,sans-Serif" font-size="10.00">1</text>
</a>
</g>
</g>
<!-- dir_3813464283bee2267f39dcf080a84d74 -->
<g id="node3" class="node">
<title>dir_3813464283bee2267f39dcf080a84d74</title>
<g id="a_node3"><a xlink:href="dir_3813464283bee2267f39dcf080a84d74.html" target="_top" xlink:title="Math">
<polygon fill="none" stroke="red" points="70.65,-108 16.65,-108 16.65,-72 70.65,-72 70.65,-108"/>
<text text-anchor="middle" x="43.65" y="-87.5" font-family="Helvetica,sans-Serif" font-size="10.00">Math</text>
</a>
</g>
</g>
<!-- dir_7db49aa183034495a2794b7f72164f5b&#45;&gt;dir_3813464283bee2267f39dcf080a84d74 -->
<g id="edge3" class="edge">
<title>dir_7db49aa183034495a2794b7f72164f5b&#45;&gt;dir_3813464283bee2267f39dcf080a84d74</title>
<path fill="none" stroke="black" d="M51.93,-287.85C50.38,-250.83 46.69,-163.18 44.81,-118.39"/>
<polygon fill="black" stroke="black" points="48.3,-118.08 44.38,-108.23 41.3,-118.37 48.3,-118.08"/>
<g id="a_edge3&#45;headlabel"><a xlink:href="dir_000073_000047.html" target="_top" xlink:title="1">
<text text-anchor="middle" x="51.28" y="-119.05" font-family="Helvetica,sans-Serif" font-size="10.00">1</text>
</a>
</g>
</g>
<!-- dir_50541d64f188ef934de78ba6c49ffdbe -->
<g id="node4" class="node">
<title>dir_50541d64f188ef934de78ba6c49ffdbe</title>
<g id="a_node4"><a xlink:href="dir_50541d64f188ef934de78ba6c49ffdbe.html" target="_top" xlink:title="Contacts">
<polygon fill="none" stroke="red" points="124.15,-180 65.15,-180 65.15,-144 124.15,-144 124.15,-180"/>
<text text-anchor="middle" x="94.65" y="-159.5" font-family="Helvetica,sans-Serif" font-size="10.00">Contacts</text>
</a>
</g>
</g>
<!-- dir_7db49aa183034495a2794b7f72164f5b&#45;&gt;dir_50541d64f188ef934de78ba6c49ffdbe -->
<g id="edge4" class="edge">
<title>dir_7db49aa183034495a2794b7f72164f5b&#45;&gt;dir_50541d64f188ef934de78ba6c49ffdbe</title>
<path fill="none" stroke="black" d="M57.72,-287.87C64.91,-263.56 78.15,-218.82 86.67,-190.01"/>
<polygon fill="black" stroke="black" points="90.09,-190.77 89.57,-180.19 83.38,-188.79 90.09,-190.77"/>
<g id="a_edge4&#45;headlabel"><a xlink:href="dir_000073_000011.html" target="_top" xlink:title="1">
<text text-anchor="middle" x="91.79" y="-192.52" font-family="Helvetica,sans-Serif" font-size="10.00">1</text>
</a>
</g>
</g>
<!-- dir_47af31f393480a5d6889a54234fa11ed -->
<g id="node5" class="node">
<title>dir_47af31f393480a5d6889a54234fa11ed</title>
<g id="a_node5"><a xlink:href="dir_47af31f393480a5d6889a54234fa11ed.html" target="_top" xlink:title="include">
<polygon fill="none" stroke="red" points="153.65,-252 99.65,-252 99.65,-216 153.65,-216 153.65,-252"/>
<text text-anchor="middle" x="126.65" y="-231.5" font-family="Helvetica,sans-Serif" font-size="10.00">include</text>
</a>
</g>
</g>
<!-- dir_7db49aa183034495a2794b7f72164f5b&#45;&gt;dir_47af31f393480a5d6889a54234fa11ed -->
<g id="edge5" class="edge">
<title>dir_7db49aa183034495a2794b7f72164f5b&#45;&gt;dir_47af31f393480a5d6889a54234fa11ed</title>
<path fill="none" stroke="black" d="M70.95,-287.7C80.09,-279.05 91.3,-268.45 101.25,-259.03"/>
<polygon fill="black" stroke="black" points="103.71,-261.52 108.57,-252.1 98.9,-256.43 103.71,-261.52"/>
<g id="a_edge5&#45;headlabel"><a xlink:href="dir_000073_000070.html" target="_top" xlink:title="7">
<text text-anchor="middle" x="103.05" y="-263.55" font-family="Helvetica,sans-Serif" font-size="10.00">7</text>
</a>
</g>
</g>
<!-- dir_3813464283bee2267f39dcf080a84d74&#45;&gt;dir_4118ae531ffdde861fee1c6efaa3009d -->
<g id="edge1" class="edge">
<title>dir_3813464283bee2267f39dcf080a84d74&#45;&gt;dir_4118ae531ffdde861fee1c6efaa3009d</title>
<path fill="none" stroke="black" d="M43.65,-71.7C43.65,-63.98 43.65,-54.71 43.65,-46.11"/>
<polygon fill="black" stroke="black" points="47.16,-46.1 43.65,-36.1 40.16,-46.1 47.16,-46.1"/>
<g id="a_edge1&#45;headlabel"><a xlink:href="dir_000047_000094.html" target="_top" xlink:title="1">
<text text-anchor="middle" x="49.99" y="-47.2" font-family="Helvetica,sans-Serif" font-size="10.00">1</text>
</a>
</g>
</g>
<!-- dir_50541d64f188ef934de78ba6c49ffdbe&#45;&gt;dir_4118ae531ffdde861fee1c6efaa3009d -->
<g id="edge6" class="edge">
<title>dir_50541d64f188ef934de78ba6c49ffdbe&#45;&gt;dir_4118ae531ffdde861fee1c6efaa3009d</title>
<path fill="none" stroke="black" d="M93.92,-143.68C92.65,-125.3 89.17,-95.7 79.65,-72 75.78,-62.35 69.93,-52.67 64.07,-44.28"/>
<polygon fill="black" stroke="black" points="66.77,-42.05 58.04,-36.06 61.13,-46.19 66.77,-42.05"/>
<g id="a_edge6&#45;headlabel"><a xlink:href="dir_000011_000094.html" target="_top" xlink:title="4">
<text text-anchor="middle" x="71.19" y="-40.77" font-family="Helvetica,sans-Serif" font-size="10.00">4</text>
</a>
</g>
</g>
<!-- dir_50541d64f188ef934de78ba6c49ffdbe&#45;&gt;dir_3813464283bee2267f39dcf080a84d74 -->
<g id="edge7" class="edge">
<title>dir_50541d64f188ef934de78ba6c49ffdbe&#45;&gt;dir_3813464283bee2267f39dcf080a84d74</title>
<path fill="none" stroke="black" d="M82.05,-143.7C76.06,-135.47 68.78,-125.48 62.18,-116.42"/>
<polygon fill="black" stroke="black" points="64.83,-114.13 56.12,-108.1 59.18,-118.25 64.83,-114.13"/>
<g id="a_edge7&#45;headlabel"><a xlink:href="dir_000011_000047.html" target="_top" xlink:title="1">
<text text-anchor="middle" x="69.25" y="-112.86" font-family="Helvetica,sans-Serif" font-size="10.00">1</text>
</a>
</g>
</g>
<!-- dir_47af31f393480a5d6889a54234fa11ed&#45;&gt;dir_50541d64f188ef934de78ba6c49ffdbe -->
<g id="edge8" class="edge">
<title>dir_47af31f393480a5d6889a54234fa11ed&#45;&gt;dir_50541d64f188ef934de78ba6c49ffdbe</title>
<path fill="none" stroke="black" d="M118.74,-215.7C115.1,-207.73 110.7,-198.1 106.66,-189.26"/>
<polygon fill="black" stroke="black" points="109.81,-187.74 102.47,-180.1 103.45,-190.65 109.81,-187.74"/>
<g id="a_edge8&#45;headlabel"><a xlink:href="dir_000070_000011.html" target="_top" xlink:title="1">
<text text-anchor="middle" x="113.89" y="-187.33" font-family="Helvetica,sans-Serif" font-size="10.00">1</text>
</a>
</g>
</g>
</g>
</svg>
