<?xml version="1.0" encoding="UTF-8" standalone="no"?>
<!DOCTYPE svg PUBLIC "-//W3C//DTD SVG 1.1//EN"
 "http://www.w3.org/Graphics/SVG/1.1/DTD/svg11.dtd">
<!-- Generated by graphviz version 2.43.0 (0)
 -->
<!-- Title: Estimators/include/BipedalLocomotion Pages: 1 -->
<svg width="405pt" height="303pt"
 viewBox="0.00 0.00 405.00 303.00" xmlns="http://www.w3.org/2000/svg" xmlns:xlink="http://www.w3.org/1999/xlink">
<g id="graph0" class="graph" transform="scale(1 1) rotate(0) translate(4 299)">
<title>Estimators/include/BipedalLocomotion</title>
<g id="clust1" class="cluster">
<title>clusterdir_83e72bb223dd52ca9520cbeb993359a4</title>
<g id="a_clust1"><a xlink:href="dir_83e72bb223dd52ca9520cbeb993359a4.html" target="_top" xlink:title="include">
<polygon fill="#ddddee" stroke="black" points="8,-200 8,-287 389,-287 389,-200 8,-200"/>
<text text-anchor="middle" x="198.5" y="-275" font-family="Helvetica,sans-Serif" font-size="10.00">include</text>
</a>
</g>
</g>
<g id="clust2" class="cluster">
<title>clusterdir_76b3c42c31613a4250722fde83b07506</title>
<g id="a_clust2"><a xlink:href="dir_76b3c42c31613a4250722fde83b07506.html" target="_top">
<polygon fill="#eeeeff" stroke="black" points="16,-208 16,-260 381,-260 381,-208 16,-208"/>
</a>
</g>
</g>
<!-- dir_76b3c42c31613a4250722fde83b07506 -->
<g id="node1" class="node">
<title>dir_76b3c42c31613a4250722fde83b07506</title>
<text text-anchor="middle" x="318" y="-231.5" font-family="Helvetica,sans-Serif" font-size="10.00">BipedalLocomotion</text>
</g>
<!-- dir_ee07514d2807e20bc45d06fa42085a9b -->
<g id="node2" class="node">
<title>dir_ee07514d2807e20bc45d06fa42085a9b</title>
<g id="a_node2"><a xlink:href="dir_ee07514d2807e20bc45d06fa42085a9b.html" target="_top" xlink:title="Estimators">
<polygon fill="white" stroke="black" points="244.5,-252 175.5,-252 175.5,-216 244.5,-216 244.5,-252"/>
<text text-anchor="middle" x="210" y="-231.5" font-family="Helvetica,sans-Serif" font-size="10.00">Estimators</text>
</a>
</g>
</g>
<!-- dir_ef68f1e1f5148ff8ef7fb1c955106c3c -->
<g id="node4" class="node">
<title>dir_ef68f1e1f5148ff8ef7fb1c955106c3c</title>
<g id="a_node4"><a xlink:href="dir_ef68f1e1f5148ff8ef7fb1c955106c3c.html" target="_top" xlink:title="System">
<polygon fill="none" stroke="red" points="175,-108 121,-108 121,-72 175,-72 175,-108"/>
<text text-anchor="middle" x="148" y="-87.5" font-family="Helvetica,sans-Serif" font-size="10.00">System</text>
</a>
</g>
</g>
<!-- dir_ee07514d2807e20bc45d06fa42085a9b&#45;&gt;dir_ef68f1e1f5148ff8ef7fb1c955106c3c -->
<g id="edge2" class="edge">
<title>dir_ee07514d2807e20bc45d06fa42085a9b&#45;&gt;dir_ef68f1e1f5148ff8ef7fb1c955106c3c</title>
<path fill="none" stroke="black" d="M202.52,-215.87C191.86,-191.46 172.2,-146.43 159.63,-117.64"/>
<polygon fill="black" stroke="black" points="162.71,-115.95 155.51,-108.19 156.3,-118.75 162.71,-115.95"/>
<g id="a_edge2&#45;headlabel"><a xlink:href="dir_000030_000084.html" target="_top" xlink:title="1">
<text text-anchor="middle" x="166.75" y="-115.61" font-family="Helvetica,sans-Serif" font-size="10.00">1</text>
</a>
</g>
</g>
<!-- dir_995a11a27ec5ce2fce465ebbab555255 -->
<g id="node5" class="node">
<title>dir_995a11a27ec5ce2fce465ebbab555255</title>
<g id="a_node5"><a xlink:href="dir_995a11a27ec5ce2fce465ebbab555255.html" target="_top" xlink:title="ParametersHandler">
<polygon fill="none" stroke="red" points="176,-36 66,-36 66,0 176,0 176,-36"/>
<text text-anchor="middle" x="121" y="-15.5" font-family="Helvetica,sans-Serif" font-size="10.00">ParametersHandler</text>
</a>
</g>
</g>
<!-- dir_ee07514d2807e20bc45d06fa42085a9b&#45;&gt;dir_995a11a27ec5ce2fce465ebbab555255 -->
<g id="edge3" class="edge">
<title>dir_ee07514d2807e20bc45d06fa42085a9b&#45;&gt;dir_995a11a27ec5ce2fce465ebbab555255</title>
<path fill="none" stroke="black" d="M211,-215.75C212,-184.82 210.53,-118.8 184,-72 177.49,-60.52 167.48,-50.43 157.35,-42.22"/>
<polygon fill="black" stroke="black" points="159.33,-39.32 149.26,-36.04 155.08,-44.89 159.33,-39.32"/>
<g id="a_edge3&#45;headlabel"><a xlink:href="dir_000030_000052.html" target="_top" xlink:title="1">
<text text-anchor="middle" x="163.91" y="-36.75" font-family="Helvetica,sans-Serif" font-size="10.00">1</text>
</a>
</g>
</g>
<!-- dir_eb2aee06d54bf141ab9a7f577cd1a1c7 -->
<g id="node3" class="node">
<title>dir_eb2aee06d54bf141ab9a7f577cd1a1c7</title>
<g id="a_node3"><a xlink:href="dir_eb2aee06d54bf141ab9a7f577cd1a1c7.html" target="_top" xlink:title="FloatingBaseEstimators">
<polygon fill="white" stroke="black" points="157.5,-252 24.5,-252 24.5,-216 157.5,-216 157.5,-252"/>
<text text-anchor="middle" x="91" y="-231.5" font-family="Helvetica,sans-Serif" font-size="10.00">FloatingBaseEstimators</text>
</a>
</g>
</g>
<!-- dir_eb2aee06d54bf141ab9a7f577cd1a1c7&#45;&gt;dir_ef68f1e1f5148ff8ef7fb1c955106c3c -->
<g id="edge4" class="edge">
<title>dir_eb2aee06d54bf141ab9a7f577cd1a1c7&#45;&gt;dir_ef68f1e1f5148ff8ef7fb1c955106c3c</title>
<path fill="none" stroke="black" d="M105.98,-215.97C113.94,-206.09 123.23,-193.05 129,-180 137.72,-160.28 142.54,-136.3 145.14,-118.2"/>
<polygon fill="black" stroke="black" points="148.64,-118.41 146.46,-108.04 141.7,-117.51 148.64,-118.41"/>
<g id="a_edge4&#45;headlabel"><a xlink:href="dir_000031_000084.html" target="_top" xlink:title="1">
<text text-anchor="middle" x="151" y="-119.84" font-family="Helvetica,sans-Serif" font-size="10.00">1</text>
</a>
</g>
</g>
<!-- dir_eb2aee06d54bf141ab9a7f577cd1a1c7&#45;&gt;dir_995a11a27ec5ce2fce465ebbab555255 -->
<g id="edge5" class="edge">
<title>dir_eb2aee06d54bf141ab9a7f577cd1a1c7&#45;&gt;dir_995a11a27ec5ce2fce465ebbab555255</title>
<path fill="none" stroke="black" d="M74.11,-215.99C65.71,-206.31 56.42,-193.46 52,-180 47.01,-164.8 48.01,-159.49 52,-144 61.64,-106.59 85.12,-68.4 102.01,-44.24"/>
<polygon fill="black" stroke="black" points="104.93,-46.18 107.9,-36.01 99.24,-42.11 104.93,-46.18"/>
<g id="a_edge5&#45;headlabel"><a xlink:href="dir_000031_000052.html" target="_top" xlink:title="2">
<text text-anchor="middle" x="105.15" y="-48.25" font-family="Helvetica,sans-Serif" font-size="10.00">2</text>
</a>
</g>
</g>
<!-- dir_50541d64f188ef934de78ba6c49ffdbe -->
<g id="node6" class="node">
<title>dir_50541d64f188ef934de78ba6c49ffdbe</title>
<g id="a_node6"><a xlink:href="dir_50541d64f188ef934de78ba6c49ffdbe.html" target="_top" xlink:title="Contacts">
<polygon fill="none" stroke="red" points="120.5,-180 61.5,-180 61.5,-144 120.5,-144 120.5,-180"/>
<text text-anchor="middle" x="91" y="-159.5" font-family="Helvetica,sans-Serif" font-size="10.00">Contacts</text>
</a>
</g>
</g>
<!-- dir_eb2aee06d54bf141ab9a7f577cd1a1c7&#45;&gt;dir_50541d64f188ef934de78ba6c49ffdbe -->
<g id="edge6" class="edge">
<title>dir_eb2aee06d54bf141ab9a7f577cd1a1c7&#45;&gt;dir_50541d64f188ef934de78ba6c49ffdbe</title>
<path fill="none" stroke="black" d="M91,-215.7C91,-207.98 91,-198.71 91,-190.11"/>
<polygon fill="black" stroke="black" points="94.5,-190.1 91,-180.1 87.5,-190.1 94.5,-190.1"/>
<g id="a_edge6&#45;headlabel"><a xlink:href="dir_000031_000011.html" target="_top" xlink:title="1">
<text text-anchor="middle" x="97.34" y="-191.2" font-family="Helvetica,sans-Serif" font-size="10.00">1</text>
</a>
</g>
</g>
<!-- dir_ef68f1e1f5148ff8ef7fb1c955106c3c&#45;&gt;dir_995a11a27ec5ce2fce465ebbab555255 -->
<g id="edge1" class="edge">
<title>dir_ef68f1e1f5148ff8ef7fb1c955106c3c&#45;&gt;dir_995a11a27ec5ce2fce465ebbab555255</title>
<path fill="none" stroke="black" d="M141.33,-71.7C138.29,-63.81 134.62,-54.3 131.24,-45.55"/>
<polygon fill="black" stroke="black" points="134.46,-44.17 127.6,-36.1 127.93,-46.69 134.46,-44.17"/>
<g id="a_edge1&#45;headlabel"><a xlink:href="dir_000084_000052.html" target="_top" xlink:title="4">
<text text-anchor="middle" x="138.4" y="-44.01" font-family="Helvetica,sans-Serif" font-size="10.00">4</text>
</a>
</g>
</g>
<!-- dir_50541d64f188ef934de78ba6c49ffdbe&#45;&gt;dir_ef68f1e1f5148ff8ef7fb1c955106c3c -->
<g id="edge7" class="edge">
<title>dir_50541d64f188ef934de78ba6c49ffdbe&#45;&gt;dir_ef68f1e1f5148ff8ef7fb1c955106c3c</title>
<path fill="none" stroke="black" d="M105.09,-143.7C111.92,-135.3 120.26,-125.07 127.76,-115.86"/>
<polygon fill="black" stroke="black" points="130.47,-118.07 134.07,-108.1 125.04,-113.65 130.47,-118.07"/>
<g id="a_edge7&#45;headlabel"><a xlink:href="dir_000011_000084.html" target="_top" xlink:title="1">
<text text-anchor="middle" x="130.4" y="-120.15" font-family="Helvetica,sans-Serif" font-size="10.00">1</text>
</a>
</g>
</g>
<!-- dir_50541d64f188ef934de78ba6c49ffdbe&#45;&gt;dir_995a11a27ec5ce2fce465ebbab555255 -->
<g id="edge8" class="edge">
<title>dir_50541d64f188ef934de78ba6c49ffdbe&#45;&gt;dir_995a11a27ec5ce2fce465ebbab555255</title>
<path fill="none" stroke="black" d="M94.62,-143.87C99.75,-119.56 109.21,-74.82 115.29,-46.01"/>
<polygon fill="black" stroke="black" points="118.73,-46.7 117.37,-36.19 111.88,-45.25 118.73,-46.7"/>
<g id="a_edge8&#45;headlabel"><a xlink:href="dir_000011_000052.html" target="_top" xlink:title="3">
<text text-anchor="middle" x="120.76" y="-48.3" font-family="Helvetica,sans-Serif" font-size="10.00">3</text>
</a>
</g>
</g>
</g>
</svg>
