<?xml version="1.0" encoding="UTF-8" standalone="no"?>
<!DOCTYPE svg PUBLIC "-//W3C//DTD SVG 1.1//EN"
 "http://www.w3.org/Graphics/SVG/1.1/DTD/svg11.dtd">
<!-- Generated by graphviz version 2.43.0 (0)
 -->
<!-- Title: YarpUtilities/src Pages: 1 -->
<svg width="107pt" height="223pt"
 viewBox="0.00 0.00 107.00 223.00" xmlns="http://www.w3.org/2000/svg" xmlns:xlink="http://www.w3.org/1999/xlink">
<g id="graph0" class="graph" transform="scale(1 1) rotate(0) translate(4 219)">
<title>YarpUtilities/src</title>
<g id="clust1" class="cluster">
<title>clusterdir_9f4ce4849845ca54ac66640ab17f25ff</title>
<g id="a_clust1"><a xlink:href="dir_9f4ce4849845ca54ac66640ab17f25ff.html" target="_top" xlink:title="YarpUtilities">
<polygon fill="#ddddee" stroke="black" points="8,-136 8,-207 83,-207 83,-136 8,-136"/>
<text text-anchor="middle" x="45.5" y="-195" font-family="Helvetica,sans-Serif" font-size="10.00">YarpUtilities</text>
</a>
</g>
</g>
<!-- dir_fc0b33c5c53303c947304efe3c65cac1 -->
<g id="node1" class="node">
<title>dir_fc0b33c5c53303c947304efe3c65cac1</title>
<g id="a_node1"><a xlink:href="dir_fc0b33c5c53303c947304efe3c65cac1.html" target="_top" xlink:title="src">
<polygon fill="#eeeeff" stroke="black" points="72,-180 18,-180 18,-144 72,-144 72,-180"/>
<text text-anchor="middle" x="45" y="-159.5" font-family="Helvetica,sans-Serif" font-size="10.00">src</text>
</a>
</g>
</g>
<!-- dir_4118ae531ffdde861fee1c6efaa3009d -->
<g id="node2" class="node">
<title>dir_4118ae531ffdde861fee1c6efaa3009d</title>
<g id="a_node2"><a xlink:href="dir_4118ae531ffdde861fee1c6efaa3009d.html" target="_top" xlink:title="TextLogging">
<polygon fill="none" stroke="red" points="81.5,-36 6.5,-36 6.5,0 81.5,0 81.5,-36"/>
<text text-anchor="middle" x="44" y="-15.5" font-family="Helvetica,sans-Serif" font-size="10.00">TextLogging</text>
</a>
</g>
</g>
<!-- dir_fc0b33c5c53303c947304efe3c65cac1&#45;&gt;dir_4118ae531ffdde861fee1c6efaa3009d -->
<g id="edge1" class="edge">
<title>dir_fc0b33c5c53303c947304efe3c65cac1&#45;&gt;dir_4118ae531ffdde861fee1c6efaa3009d</title>
<path fill="none" stroke="black" d="M41.35,-143.91C39.32,-133.57 37.02,-120.09 36,-108 34.66,-92.06 34.8,-87.96 36,-72 36.64,-63.52 37.84,-54.34 39.12,-46.04"/>
<polygon fill="black" stroke="black" points="42.58,-46.55 40.75,-36.11 35.68,-45.41 42.58,-46.55"/>
<g id="a_edge1&#45;headlabel"><a xlink:href="dir_000103_000094.html" target="_top" xlink:title="1">
<text text-anchor="middle" x="44.8" y="-48.05" font-family="Helvetica,sans-Serif" font-size="10.00">1</text>
</a>
</g>
</g>
<!-- dir_12b71a80e2ec12f6f36343f858596976 -->
<g id="node3" class="node">
<title>dir_12b71a80e2ec12f6f36343f858596976</title>
<g id="a_node3"><a xlink:href="dir_12b71a80e2ec12f6f36343f858596976.html" target="_top" xlink:title="include">
<polygon fill="none" stroke="red" points="99,-108 45,-108 45,-72 99,-72 99,-108"/>
<text text-anchor="middle" x="72" y="-87.5" font-family="Helvetica,sans-Serif" font-size="10.00">include</text>
</a>
</g>
</g>
<!-- dir_fc0b33c5c53303c947304efe3c65cac1&#45;&gt;dir_12b71a80e2ec12f6f36343f858596976 -->
<g id="edge2" class="edge">
<title>dir_fc0b33c5c53303c947304efe3c65cac1&#45;&gt;dir_12b71a80e2ec12f6f36343f858596976</title>
<path fill="none" stroke="black" d="M51.67,-143.7C54.71,-135.81 58.38,-126.3 61.76,-117.55"/>
<polygon fill="black" stroke="black" points="65.07,-118.69 65.4,-108.1 58.54,-116.17 65.07,-118.69"/>
<g id="a_edge2&#45;headlabel"><a xlink:href="dir_000103_000100.html" target="_top" xlink:title="2">
<text text-anchor="middle" x="66.42" y="-120.57" font-family="Helvetica,sans-Serif" font-size="10.00">2</text>
</a>
</g>
</g>
<!-- dir_12b71a80e2ec12f6f36343f858596976&#45;&gt;dir_4118ae531ffdde861fee1c6efaa3009d -->
<g id="edge3" class="edge">
<title>dir_12b71a80e2ec12f6f36343f858596976&#45;&gt;dir_4118ae531ffdde861fee1c6efaa3009d</title>
<path fill="none" stroke="black" d="M65.08,-71.7C61.93,-63.81 58.12,-54.3 54.62,-45.55"/>
<polygon fill="black" stroke="black" points="57.81,-44.09 50.84,-36.1 51.31,-46.69 57.81,-44.09"/>
<g id="a_edge3&#45;headlabel"><a xlink:href="dir_000100_000094.html" target="_top" xlink:title="1">
<text text-anchor="middle" x="61.78" y="-43.87" font-family="Helvetica,sans-Serif" font-size="10.00">1</text>
</a>
</g>
</g>
</g>
</svg>
