<?xml version="1.0" encoding="UTF-8" standalone="no"?>
<!DOCTYPE svg PUBLIC "-//W3C//DTD SVG 1.1//EN"
 "http://www.w3.org/Graphics/SVG/1.1/DTD/svg11.dtd">
<!-- Generated by graphviz version 2.43.0 (0)
 -->
<!-- Title: System/YarpImplementation Pages: 1 -->
<svg width="244pt" height="231pt"
 viewBox="0.00 0.00 244.00 231.00" xmlns="http://www.w3.org/2000/svg" xmlns:xlink="http://www.w3.org/1999/xlink">
<g id="graph0" class="graph" transform="scale(1 1) rotate(0) translate(4 227)">
<title>System/YarpImplementation</title>
<g id="clust1" class="cluster">
<title>clusterdir_ef68f1e1f5148ff8ef7fb1c955106c3c</title>
<g id="a_clust1"><a xlink:href="dir_ef68f1e1f5148ff8ef7fb1c955106c3c.html" target="_top" xlink:title="System">
<polygon fill="#ddddee" stroke="black" points="8,-56 8,-215 228,-215 228,-56 8,-56"/>
<text text-anchor="middle" x="118" y="-203" font-family="Helvetica,sans-Serif" font-size="10.00">System</text>
</a>
</g>
</g>
<g id="clust2" class="cluster">
<title>clusterdir_cf5a4ee4a7cdd39a31caf469a583e8a8</title>
<g id="a_clust2"><a xlink:href="dir_cf5a4ee4a7cdd39a31caf469a583e8a8.html" target="_top">
<polygon fill="#eeeeff" stroke="black" points="16,-64 16,-188 220,-188 220,-64 16,-64"/>
</a>
</g>
</g>
<!-- dir_cf5a4ee4a7cdd39a31caf469a583e8a8 -->
<g id="node1" class="node">
<title>dir_cf5a4ee4a7cdd39a31caf469a583e8a8</title>
<text text-anchor="middle" x="154" y="-159.5" font-family="Helvetica,sans-Serif" font-size="10.00">YarpImplementation</text>
</g>
<!-- dir_f14d5810a2e6c218f8a29cfb3b83aba2 -->
<g id="node2" class="node">
<title>dir_f14d5810a2e6c218f8a29cfb3b83aba2</title>
<g id="a_node2"><a xlink:href="dir_f14d5810a2e6c218f8a29cfb3b83aba2.html" target="_top" xlink:title="include">
<polygon fill="white" stroke="red" points="78,-108 24,-108 24,-72 78,-72 78,-108"/>
<text text-anchor="middle" x="51" y="-87.5" font-family="Helvetica,sans-Serif" font-size="10.00">include</text>
</a>
</g>
</g>
<!-- dir_543817dc0abe17961f66d6d58373e100 -->
<g id="node4" class="node">
<title>dir_543817dc0abe17961f66d6d58373e100</title>
<g id="a_node4"><a xlink:href="dir_543817dc0abe17961f66d6d58373e100.html" target="_top" xlink:title="include">
<polygon fill="none" stroke="red" points="78,-36 24,-36 24,0 78,0 78,-36"/>
<text text-anchor="middle" x="51" y="-15.5" font-family="Helvetica,sans-Serif" font-size="10.00">include</text>
</a>
</g>
</g>
<!-- dir_f14d5810a2e6c218f8a29cfb3b83aba2&#45;&gt;dir_543817dc0abe17961f66d6d58373e100 -->
<g id="edge2" class="edge">
<title>dir_f14d5810a2e6c218f8a29cfb3b83aba2&#45;&gt;dir_543817dc0abe17961f66d6d58373e100</title>
<path fill="none" stroke="black" d="M51,-71.7C51,-63.98 51,-54.71 51,-46.11"/>
<polygon fill="black" stroke="black" points="54.5,-46.1 51,-36.1 47.5,-46.1 54.5,-46.1"/>
<g id="a_edge2&#45;headlabel"><a xlink:href="dir_000090_000085.html" target="_top" xlink:title="1">
<text text-anchor="middle" x="57.34" y="-47.2" font-family="Helvetica,sans-Serif" font-size="10.00">1</text>
</a>
</g>
</g>
<!-- dir_5c29d7a143fb1162179a427e98dddf41 -->
<g id="node3" class="node">
<title>dir_5c29d7a143fb1162179a427e98dddf41</title>
<g id="a_node3"><a xlink:href="dir_5c29d7a143fb1162179a427e98dddf41.html" target="_top" xlink:title="src">
<polygon fill="white" stroke="black" points="78,-180 24,-180 24,-144 78,-144 78,-180"/>
<text text-anchor="middle" x="51" y="-159.5" font-family="Helvetica,sans-Serif" font-size="10.00">src</text>
</a>
</g>
</g>
<!-- dir_5c29d7a143fb1162179a427e98dddf41&#45;&gt;dir_f14d5810a2e6c218f8a29cfb3b83aba2 -->
<g id="edge1" class="edge">
<title>dir_5c29d7a143fb1162179a427e98dddf41&#45;&gt;dir_f14d5810a2e6c218f8a29cfb3b83aba2</title>
<path fill="none" stroke="black" d="M51,-143.7C51,-135.98 51,-126.71 51,-118.11"/>
<polygon fill="black" stroke="black" points="54.5,-118.1 51,-108.1 47.5,-118.1 54.5,-118.1"/>
<g id="a_edge1&#45;headlabel"><a xlink:href="dir_000093_000090.html" target="_top" xlink:title="1">
<text text-anchor="middle" x="57.34" y="-119.2" font-family="Helvetica,sans-Serif" font-size="10.00">1</text>
</a>
</g>
</g>
</g>
</svg>
