<?xml version="1.0" encoding="UTF-8" standalone="no"?>
<!DOCTYPE svg PUBLIC "-//W3C//DTD SVG 1.1//EN"
 "http://www.w3.org/Graphics/SVG/1.1/DTD/svg11.dtd">
<!-- Generated by graphviz version 2.43.0 (0)
 -->
<!-- Title: ParametersHandler/YarpImplementation/include/BipedalLocomotion/ParametersHandler Pages: 1 -->
<svg width="150pt" height="223pt"
 viewBox="0.00 0.00 150.00 223.00" xmlns="http://www.w3.org/2000/svg" xmlns:xlink="http://www.w3.org/1999/xlink">
<g id="graph0" class="graph" transform="scale(1 1) rotate(0) translate(4 219)">
<title>ParametersHandler/YarpImplementation/include/BipedalLocomotion/ParametersHandler</title>
<g id="clust1" class="cluster">
<title>clusterdir_07a2b64e573b6e689d7d67e42a30668b</title>
<g id="a_clust1"><a xlink:href="dir_07a2b64e573b6e689d7d67e42a30668b.html" target="_top" xlink:title="BipedalLocomotion">
<polygon fill="#ddddee" stroke="black" points="8,-136 8,-207 134,-207 134,-136 8,-136"/>
<text text-anchor="middle" x="71" y="-195" font-family="Helvetica,sans-Serif" font-size="10.00">BipedalLocomotion</text>
</a>
</g>
</g>
<!-- dir_99be4c3d2da6bd084380a7aad5b94c0a -->
<g id="node1" class="node">
<title>dir_99be4c3d2da6bd084380a7aad5b94c0a</title>
<g id="a_node1"><a xlink:href="dir_99be4c3d2da6bd084380a7aad5b94c0a.html" target="_top" xlink:title="ParametersHandler">
<polygon fill="#eeeeff" stroke="black" points="126,-180 16,-180 16,-144 126,-144 126,-180"/>
<text text-anchor="middle" x="71" y="-159.5" font-family="Helvetica,sans-Serif" font-size="10.00">ParametersHandler</text>
</a>
</g>
</g>
<!-- dir_c2ff16d22970d8b79330500bc8a01502 -->
<g id="node2" class="node">
<title>dir_c2ff16d22970d8b79330500bc8a01502</title>
<g id="a_node2"><a xlink:href="dir_c2ff16d22970d8b79330500bc8a01502.html" target="_top" xlink:title="include">
<polygon fill="none" stroke="red" points="98,-36 44,-36 44,0 98,0 98,-36"/>
<text text-anchor="middle" x="71" y="-15.5" font-family="Helvetica,sans-Serif" font-size="10.00">include</text>
</a>
</g>
</g>
<!-- dir_99be4c3d2da6bd084380a7aad5b94c0a&#45;&gt;dir_c2ff16d22970d8b79330500bc8a01502 -->
<g id="edge1" class="edge">
<title>dir_99be4c3d2da6bd084380a7aad5b94c0a&#45;&gt;dir_c2ff16d22970d8b79330500bc8a01502</title>
<path fill="none" stroke="black" d="M65.59,-143.53C62.7,-133.29 59.45,-120.04 58,-108 56.08,-92.12 56.08,-87.88 58,-72 59.02,-63.53 60.93,-54.47 62.98,-46.28"/>
<polygon fill="black" stroke="black" points="66.4,-47.03 65.59,-36.47 59.64,-45.23 66.4,-47.03"/>
<g id="a_edge1&#45;headlabel"><a xlink:href="dir_000060_000053.html" target="_top" xlink:title="1">
<text text-anchor="middle" x="68.22" y="-48.74" font-family="Helvetica,sans-Serif" font-size="10.00">1</text>
</a>
</g>
</g>
<!-- dir_9f4ce4849845ca54ac66640ab17f25ff -->
<g id="node3" class="node">
<title>dir_9f4ce4849845ca54ac66640ab17f25ff</title>
<g id="a_node3"><a xlink:href="dir_9f4ce4849845ca54ac66640ab17f25ff.html" target="_top" xlink:title="YarpUtilities">
<polygon fill="none" stroke="red" points="141.5,-108 66.5,-108 66.5,-72 141.5,-72 141.5,-108"/>
<text text-anchor="middle" x="104" y="-87.5" font-family="Helvetica,sans-Serif" font-size="10.00">YarpUtilities</text>
</a>
</g>
</g>
<!-- dir_99be4c3d2da6bd084380a7aad5b94c0a&#45;&gt;dir_9f4ce4849845ca54ac66640ab17f25ff -->
<g id="edge2" class="edge">
<title>dir_99be4c3d2da6bd084380a7aad5b94c0a&#45;&gt;dir_9f4ce4849845ca54ac66640ab17f25ff</title>
<path fill="none" stroke="black" d="M79.16,-143.7C82.91,-135.73 87.45,-126.1 91.62,-117.26"/>
<polygon fill="black" stroke="black" points="94.84,-118.64 95.94,-108.1 88.51,-115.66 94.84,-118.64"/>
<g id="a_edge2&#45;headlabel"><a xlink:href="dir_000060_000099.html" target="_top" xlink:title="1">
<text text-anchor="middle" x="95.87" y="-120.6" font-family="Helvetica,sans-Serif" font-size="10.00">1</text>
</a>
</g>
</g>
<!-- dir_9f4ce4849845ca54ac66640ab17f25ff&#45;&gt;dir_c2ff16d22970d8b79330500bc8a01502 -->
<g id="edge3" class="edge">
<title>dir_9f4ce4849845ca54ac66640ab17f25ff&#45;&gt;dir_c2ff16d22970d8b79330500bc8a01502</title>
<path fill="none" stroke="black" d="M95.84,-71.7C92.09,-63.73 87.55,-54.1 83.38,-45.26"/>
<polygon fill="black" stroke="black" points="86.49,-43.66 79.06,-36.1 80.16,-46.64 86.49,-43.66"/>
<g id="a_edge3&#45;headlabel"><a xlink:href="dir_000099_000053.html" target="_top" xlink:title="1">
<text text-anchor="middle" x="90.59" y="-43.2" font-family="Helvetica,sans-Serif" font-size="10.00">1</text>
</a>
</g>
</g>
</g>
</svg>
