<?xml version="1.0" encoding="UTF-8" standalone="no"?>
<!DOCTYPE svg PUBLIC "-//W3C//DTD SVG 1.1//EN"
 "http://www.w3.org/Graphics/SVG/1.1/DTD/svg11.dtd">
<!-- Generated by graphviz version 2.43.0 (0)
 -->
<!-- Title: Perception/src Pages: 1 -->
<svg width="171pt" height="223pt"
 viewBox="0.00 0.00 170.55 223.00" xmlns="http://www.w3.org/2000/svg" xmlns:xlink="http://www.w3.org/1999/xlink">
<g id="graph0" class="graph" transform="scale(1 1) rotate(0) translate(4 219)">
<title>Perception/src</title>
<g id="clust1" class="cluster">
<title>clusterdir_65aef1d031b4180744df37dd53ab1e73</title>
<g id="a_clust1"><a xlink:href="dir_65aef1d031b4180744df37dd53ab1e73.html" target="_top" xlink:title="Perception">
<polygon fill="#ddddee" stroke="black" points="16.55,-136 16.55,-207 86.55,-207 86.55,-136 16.55,-136"/>
<text text-anchor="middle" x="51.55" y="-195" font-family="Helvetica,sans-Serif" font-size="10.00">Perception</text>
</a>
</g>
</g>
<!-- dir_56a0623f6b27b940cd577879558c5e97 -->
<g id="node1" class="node">
<title>dir_56a0623f6b27b940cd577879558c5e97</title>
<g id="a_node1"><a xlink:href="dir_56a0623f6b27b940cd577879558c5e97.html" target="_top" xlink:title="src">
<polygon fill="#eeeeff" stroke="black" points="78.55,-180 24.55,-180 24.55,-144 78.55,-144 78.55,-180"/>
<text text-anchor="middle" x="51.55" y="-159.5" font-family="Helvetica,sans-Serif" font-size="10.00">src</text>
</a>
</g>
</g>
<!-- dir_4118ae531ffdde861fee1c6efaa3009d -->
<g id="node2" class="node">
<title>dir_4118ae531ffdde861fee1c6efaa3009d</title>
<g id="a_node2"><a xlink:href="dir_4118ae531ffdde861fee1c6efaa3009d.html" target="_top" xlink:title="TextLogging">
<polygon fill="none" stroke="red" points="97.05,-36 22.05,-36 22.05,0 97.05,0 97.05,-36"/>
<text text-anchor="middle" x="59.55" y="-15.5" font-family="Helvetica,sans-Serif" font-size="10.00">TextLogging</text>
</a>
</g>
</g>
<!-- dir_56a0623f6b27b940cd577879558c5e97&#45;&gt;dir_4118ae531ffdde861fee1c6efaa3009d -->
<g id="edge1" class="edge">
<title>dir_56a0623f6b27b940cd577879558c5e97&#45;&gt;dir_4118ae531ffdde861fee1c6efaa3009d</title>
<path fill="none" stroke="black" d="M30.28,-143.7C20.44,-134.31 9.79,-121.8 4.55,-108 -1.13,-93.04 -1.71,-86.72 4.55,-72 9.28,-60.86 17.63,-50.93 26.42,-42.76"/>
<polygon fill="black" stroke="black" points="28.9,-45.24 34.17,-36.05 24.32,-39.95 28.9,-45.24"/>
<g id="a_edge1&#45;headlabel"><a xlink:href="dir_000068_000094.html" target="_top" xlink:title="2">
<text text-anchor="middle" x="28.04" y="-47.24" font-family="Helvetica,sans-Serif" font-size="10.00">2</text>
</a>
</g>
</g>
<!-- dir_67ecbf5b3dd37b0be5aedd0167f75fa8 -->
<g id="node3" class="node">
<title>dir_67ecbf5b3dd37b0be5aedd0167f75fa8</title>
<g id="a_node3"><a xlink:href="dir_67ecbf5b3dd37b0be5aedd0167f75fa8.html" target="_top" xlink:title="Conversions">
<polygon fill="none" stroke="red" points="90.05,-108 13.05,-108 13.05,-72 90.05,-72 90.05,-108"/>
<text text-anchor="middle" x="51.55" y="-87.5" font-family="Helvetica,sans-Serif" font-size="10.00">Conversions</text>
</a>
</g>
</g>
<!-- dir_56a0623f6b27b940cd577879558c5e97&#45;&gt;dir_67ecbf5b3dd37b0be5aedd0167f75fa8 -->
<g id="edge2" class="edge">
<title>dir_56a0623f6b27b940cd577879558c5e97&#45;&gt;dir_67ecbf5b3dd37b0be5aedd0167f75fa8</title>
<path fill="none" stroke="black" d="M51.55,-143.7C51.55,-135.98 51.55,-126.71 51.55,-118.11"/>
<polygon fill="black" stroke="black" points="55.05,-118.1 51.55,-108.1 48.05,-118.1 55.05,-118.1"/>
<g id="a_edge2&#45;headlabel"><a xlink:href="dir_000068_000023.html" target="_top" xlink:title="1">
<text text-anchor="middle" x="57.89" y="-119.2" font-family="Helvetica,sans-Serif" font-size="10.00">1</text>
</a>
</g>
</g>
<!-- dir_e9d3b73e13adb0d4d413d7c9c28654f7 -->
<g id="node4" class="node">
<title>dir_e9d3b73e13adb0d4d413d7c9c28654f7</title>
<g id="a_node4"><a xlink:href="dir_e9d3b73e13adb0d4d413d7c9c28654f7.html" target="_top" xlink:title="include">
<polygon fill="none" stroke="red" points="162.55,-108 108.55,-108 108.55,-72 162.55,-72 162.55,-108"/>
<text text-anchor="middle" x="135.55" y="-87.5" font-family="Helvetica,sans-Serif" font-size="10.00">include</text>
</a>
</g>
</g>
<!-- dir_56a0623f6b27b940cd577879558c5e97&#45;&gt;dir_e9d3b73e13adb0d4d413d7c9c28654f7 -->
<g id="edge3" class="edge">
<title>dir_56a0623f6b27b940cd577879558c5e97&#45;&gt;dir_e9d3b73e13adb0d4d413d7c9c28654f7</title>
<path fill="none" stroke="black" d="M72.31,-143.7C82.79,-134.97 95.66,-124.24 107.05,-114.75"/>
<polygon fill="black" stroke="black" points="109.58,-117.19 115.02,-108.1 105.1,-111.82 109.58,-117.19"/>
<g id="a_edge3&#45;headlabel"><a xlink:href="dir_000068_000063.html" target="_top" xlink:title="1">
<text text-anchor="middle" x="108.64" y="-119.18" font-family="Helvetica,sans-Serif" font-size="10.00">1</text>
</a>
</g>
</g>
<!-- dir_e9d3b73e13adb0d4d413d7c9c28654f7&#45;&gt;dir_4118ae531ffdde861fee1c6efaa3009d -->
<g id="edge4" class="edge">
<title>dir_e9d3b73e13adb0d4d413d7c9c28654f7&#45;&gt;dir_4118ae531ffdde861fee1c6efaa3009d</title>
<path fill="none" stroke="black" d="M116.76,-71.7C107.38,-63.05 95.86,-52.45 85.64,-43.03"/>
<polygon fill="black" stroke="black" points="87.85,-40.3 78.12,-36.1 83.1,-45.45 87.85,-40.3"/>
<g id="a_edge4&#45;headlabel"><a xlink:href="dir_000063_000094.html" target="_top" xlink:title="1">
<text text-anchor="middle" x="92.41" y="-38.15" font-family="Helvetica,sans-Serif" font-size="10.00">1</text>
</a>
</g>
</g>
</g>
</svg>
