<?xml version="1.0" encoding="UTF-8" standalone="no"?>
<!DOCTYPE svg PUBLIC "-//W3C//DTD SVG 1.1//EN"
 "http://www.w3.org/Graphics/SVG/1.1/DTD/svg11.dtd">
<!-- Generated by graphviz version 2.43.0 (0)
 -->
<!-- Title: ContinuousDynamicalSystem/include/BipedalLocomotion/ContinuousDynamicalSystem Pages: 1 -->
<svg width="417pt" height="303pt"
 viewBox="0.00 0.00 417.00 303.00" xmlns="http://www.w3.org/2000/svg" xmlns:xlink="http://www.w3.org/1999/xlink">
<g id="graph0" class="graph" transform="scale(1 1) rotate(0) translate(4 299)">
<title>ContinuousDynamicalSystem/include/BipedalLocomotion/ContinuousDynamicalSystem</title>
<g id="clust1" class="cluster">
<title>clusterdir_eaf5314e05d734149789ca52ab6ca8f2</title>
<g id="a_clust1"><a xlink:href="dir_eaf5314e05d734149789ca52ab6ca8f2.html" target="_top" xlink:title="BipedalLocomotion">
<polygon fill="#ddddee" stroke="black" points="8,-128 8,-287 202,-287 202,-128 8,-128"/>
<text text-anchor="middle" x="105" y="-275" font-family="Helvetica,sans-Serif" font-size="10.00">BipedalLocomotion</text>
</a>
</g>
</g>
<g id="clust2" class="cluster">
<title>clusterdir_c742c3754522739908222a171dc053d9</title>
<g id="a_clust2"><a xlink:href="dir_c742c3754522739908222a171dc053d9.html" target="_top">
<polygon fill="#eeeeff" stroke="black" points="16,-136 16,-260 194,-260 194,-136 16,-136"/>
</a>
</g>
</g>
<!-- dir_c742c3754522739908222a171dc053d9 -->
<g id="node1" class="node">
<title>dir_c742c3754522739908222a171dc053d9</title>
<text text-anchor="middle" x="105" y="-231.5" font-family="Helvetica,sans-Serif" font-size="10.00">ContinuousDynamicalSystem</text>
</g>
<!-- dir_d32d817a4db95a21286fb6e6fac94d14 -->
<g id="node2" class="node">
<title>dir_d32d817a4db95a21286fb6e6fac94d14</title>
<g id="a_node2"><a xlink:href="dir_d32d817a4db95a21286fb6e6fac94d14.html" target="_top" xlink:title="impl">
<polygon fill="white" stroke="black" points="132,-180 78,-180 78,-144 132,-144 132,-180"/>
<text text-anchor="middle" x="105" y="-159.5" font-family="Helvetica,sans-Serif" font-size="10.00">impl</text>
</a>
</g>
</g>
<!-- dir_c742c3754522739908222a171dc053d9&#45;&gt;dir_d32d817a4db95a21286fb6e6fac94d14 -->
<g id="edge5" class="edge">
<title>dir_c742c3754522739908222a171dc053d9&#45;&gt;dir_d32d817a4db95a21286fb6e6fac94d14</title>
<path fill="none" stroke="black" d="M105,-215.7C105,-207.98 105,-198.71 105,-190.11"/>
<polygon fill="black" stroke="black" points="108.5,-190.1 105,-180.1 101.5,-190.1 108.5,-190.1"/>
<g id="a_edge5&#45;headlabel"><a xlink:href="dir_000020_000021.html" target="_top" xlink:title="5">
<text text-anchor="middle" x="111.34" y="-191.2" font-family="Helvetica,sans-Serif" font-size="10.00">5</text>
</a>
</g>
</g>
<!-- dir_ddacabcd4572cd422cd722a5b78176ea -->
<g id="node3" class="node">
<title>dir_ddacabcd4572cd422cd722a5b78176ea</title>
<g id="a_node3"><a xlink:href="dir_ddacabcd4572cd422cd722a5b78176ea.html" target="_top" xlink:title="ContactModels">
<polygon fill="none" stroke="red" points="298.5,-180 209.5,-180 209.5,-144 298.5,-144 298.5,-180"/>
<text text-anchor="middle" x="254" y="-159.5" font-family="Helvetica,sans-Serif" font-size="10.00">ContactModels</text>
</a>
</g>
</g>
<!-- dir_c742c3754522739908222a171dc053d9&#45;&gt;dir_ddacabcd4572cd422cd722a5b78176ea -->
<g id="edge4" class="edge">
<title>dir_c742c3754522739908222a171dc053d9&#45;&gt;dir_ddacabcd4572cd422cd722a5b78176ea</title>
<path fill="none" stroke="black" d="M141.45,-215.88C161.64,-206.39 186.92,-194.51 208.41,-184.42"/>
<polygon fill="black" stroke="black" points="210.11,-187.49 217.67,-180.07 207.13,-181.15 210.11,-187.49"/>
<g id="a_edge4&#45;headlabel"><a xlink:href="dir_000020_000006.html" target="_top" xlink:title="1">
<text text-anchor="middle" x="208.06" y="-189.09" font-family="Helvetica,sans-Serif" font-size="10.00">1</text>
</a>
</g>
</g>
<!-- dir_4118ae531ffdde861fee1c6efaa3009d -->
<g id="node4" class="node">
<title>dir_4118ae531ffdde861fee1c6efaa3009d</title>
<g id="a_node4"><a xlink:href="dir_4118ae531ffdde861fee1c6efaa3009d.html" target="_top" xlink:title="TextLogging">
<polygon fill="none" stroke="red" points="336.5,-36 261.5,-36 261.5,0 336.5,0 336.5,-36"/>
<text text-anchor="middle" x="299" y="-15.5" font-family="Helvetica,sans-Serif" font-size="10.00">TextLogging</text>
</a>
</g>
</g>
<!-- dir_c742c3754522739908222a171dc053d9&#45;&gt;dir_4118ae531ffdde861fee1c6efaa3009d -->
<g id="edge6" class="edge">
<title>dir_c742c3754522739908222a171dc053d9&#45;&gt;dir_4118ae531ffdde861fee1c6efaa3009d</title>
<path fill="none" stroke="black" d="M117.25,-215.62C139.17,-185.04 187.29,-120.31 235,-72 245.18,-61.69 257.22,-51.32 268.09,-42.52"/>
<polygon fill="black" stroke="black" points="270.49,-45.08 276.13,-36.12 266.13,-39.61 270.49,-45.08"/>
<g id="a_edge6&#45;headlabel"><a xlink:href="dir_000020_000094.html" target="_top" xlink:title="2">
<text text-anchor="middle" x="269.44" y="-47.04" font-family="Helvetica,sans-Serif" font-size="10.00">2</text>
</a>
</g>
</g>
<!-- dir_3813464283bee2267f39dcf080a84d74 -->
<g id="node5" class="node">
<title>dir_3813464283bee2267f39dcf080a84d74</title>
<g id="a_node5"><a xlink:href="dir_3813464283bee2267f39dcf080a84d74.html" target="_top" xlink:title="Math">
<polygon fill="none" stroke="red" points="409,-180 355,-180 355,-144 409,-144 409,-180"/>
<text text-anchor="middle" x="382" y="-159.5" font-family="Helvetica,sans-Serif" font-size="10.00">Math</text>
</a>
</g>
</g>
<!-- dir_c742c3754522739908222a171dc053d9&#45;&gt;dir_3813464283bee2267f39dcf080a84d74 -->
<g id="edge7" class="edge">
<title>dir_c742c3754522739908222a171dc053d9&#45;&gt;dir_3813464283bee2267f39dcf080a84d74</title>
<path fill="none" stroke="black" d="M185.66,-218.47C231.68,-209.29 290.16,-196.12 341,-180 342.42,-179.55 343.87,-179.07 345.32,-178.57"/>
<polygon fill="black" stroke="black" points="346.74,-181.77 354.9,-175 344.3,-175.21 346.74,-181.77"/>
<g id="a_edge7&#45;headlabel"><a xlink:href="dir_000020_000047.html" target="_top" xlink:title="2">
<text text-anchor="middle" x="344.36" y="-183.18" font-family="Helvetica,sans-Serif" font-size="10.00">2</text>
</a>
</g>
</g>
<!-- dir_995a11a27ec5ce2fce465ebbab555255 -->
<g id="node6" class="node">
<title>dir_995a11a27ec5ce2fce465ebbab555255</title>
<g id="a_node6"><a xlink:href="dir_995a11a27ec5ce2fce465ebbab555255.html" target="_top" xlink:title="ParametersHandler">
<polygon fill="none" stroke="red" points="354,-108 244,-108 244,-72 354,-72 354,-108"/>
<text text-anchor="middle" x="299" y="-87.5" font-family="Helvetica,sans-Serif" font-size="10.00">ParametersHandler</text>
</a>
</g>
</g>
<!-- dir_c742c3754522739908222a171dc053d9&#45;&gt;dir_995a11a27ec5ce2fce465ebbab555255 -->
<g id="edge8" class="edge">
<title>dir_c742c3754522739908222a171dc053d9&#45;&gt;dir_995a11a27ec5ce2fce465ebbab555255</title>
<path fill="none" stroke="black" d="M185.65,-222.14C235.47,-213.59 292.72,-199.78 308,-180 321.58,-162.42 317.17,-136.69 310.64,-117.42"/>
<polygon fill="black" stroke="black" points="313.9,-116.14 307.11,-108 307.34,-118.59 313.9,-116.14"/>
<g id="a_edge8&#45;headlabel"><a xlink:href="dir_000020_000052.html" target="_top" xlink:title="3">
<text text-anchor="middle" x="317.82" y="-116.01" font-family="Helvetica,sans-Serif" font-size="10.00">3</text>
</a>
</g>
</g>
<!-- dir_ddacabcd4572cd422cd722a5b78176ea&#45;&gt;dir_995a11a27ec5ce2fce465ebbab555255 -->
<g id="edge1" class="edge">
<title>dir_ddacabcd4572cd422cd722a5b78176ea&#45;&gt;dir_995a11a27ec5ce2fce465ebbab555255</title>
<path fill="none" stroke="black" d="M265.12,-143.7C270.36,-135.56 276.7,-125.69 282.48,-116.7"/>
<polygon fill="black" stroke="black" points="285.54,-118.41 288,-108.1 279.65,-114.62 285.54,-118.41"/>
<g id="a_edge1&#45;headlabel"><a xlink:href="dir_000006_000052.html" target="_top" xlink:title="3">
<text text-anchor="middle" x="285.99" y="-120.47" font-family="Helvetica,sans-Serif" font-size="10.00">3</text>
</a>
</g>
</g>
<!-- dir_3813464283bee2267f39dcf080a84d74&#45;&gt;dir_4118ae531ffdde861fee1c6efaa3009d -->
<g id="edge2" class="edge">
<title>dir_3813464283bee2267f39dcf080a84d74&#45;&gt;dir_4118ae531ffdde861fee1c6efaa3009d</title>
<path fill="none" stroke="black" d="M381.63,-143.71C380.5,-124.82 376.51,-94.3 363,-72 356.1,-60.61 345.85,-50.54 335.57,-42.32"/>
<polygon fill="black" stroke="black" points="337.47,-39.37 327.38,-36.14 333.25,-44.96 337.47,-39.37"/>
<g id="a_edge2&#45;headlabel"><a xlink:href="dir_000047_000094.html" target="_top" xlink:title="1">
<text text-anchor="middle" x="342.05" y="-36.77" font-family="Helvetica,sans-Serif" font-size="10.00">1</text>
</a>
</g>
</g>
<!-- dir_3813464283bee2267f39dcf080a84d74&#45;&gt;dir_995a11a27ec5ce2fce465ebbab555255 -->
<g id="edge3" class="edge">
<title>dir_3813464283bee2267f39dcf080a84d74&#45;&gt;dir_995a11a27ec5ce2fce465ebbab555255</title>
<path fill="none" stroke="black" d="M361.48,-143.7C351.13,-134.97 338.41,-124.24 327.16,-114.75"/>
<polygon fill="black" stroke="black" points="329.18,-111.88 319.28,-108.1 324.67,-117.23 329.18,-111.88"/>
<g id="a_edge3&#45;headlabel"><a xlink:href="dir_000047_000052.html" target="_top" xlink:title="2">
<text text-anchor="middle" x="333.76" y="-109.52" font-family="Helvetica,sans-Serif" font-size="10.00">2</text>
</a>
</g>
</g>
<!-- dir_995a11a27ec5ce2fce465ebbab555255&#45;&gt;dir_4118ae531ffdde861fee1c6efaa3009d -->
<g id="edge9" class="edge">
<title>dir_995a11a27ec5ce2fce465ebbab555255&#45;&gt;dir_4118ae531ffdde861fee1c6efaa3009d</title>
<path fill="none" stroke="black" d="M299,-71.7C299,-63.98 299,-54.71 299,-46.11"/>
<polygon fill="black" stroke="black" points="302.5,-46.1 299,-36.1 295.5,-46.1 302.5,-46.1"/>
<g id="a_edge9&#45;headlabel"><a xlink:href="dir_000052_000094.html" target="_top" xlink:title="3">
<text text-anchor="middle" x="305.34" y="-47.2" font-family="Helvetica,sans-Serif" font-size="10.00">3</text>
</a>
</g>
</g>
</g>
</svg>
