<?xml version="1.0" encoding="UTF-8" standalone="no"?>
<!DOCTYPE svg PUBLIC "-//W3C//DTD SVG 1.1//EN"
 "http://www.w3.org/Graphics/SVG/1.1/DTD/svg11.dtd">
<!-- Generated by graphviz version 2.43.0 (0)
 -->
<!-- Title: ContactModels/src Pages: 1 -->
<svg width="118pt" height="223pt"
 viewBox="0.00 0.00 118.00 223.00" xmlns="http://www.w3.org/2000/svg" xmlns:xlink="http://www.w3.org/1999/xlink">
<g id="graph0" class="graph" transform="scale(1 1) rotate(0) translate(4 219)">
<title>ContactModels/src</title>
<g id="clust1" class="cluster">
<title>clusterdir_ddacabcd4572cd422cd722a5b78176ea</title>
<g id="a_clust1"><a xlink:href="dir_ddacabcd4572cd422cd722a5b78176ea.html" target="_top" xlink:title="ContactModels">
<polygon fill="#ddddee" stroke="black" points="12,-136 12,-207 101,-207 101,-136 12,-136"/>
<text text-anchor="middle" x="56.5" y="-195" font-family="Helvetica,sans-Serif" font-size="10.00">ContactModels</text>
</a>
</g>
</g>
<!-- dir_af3c263f52a1f0e4f3bb2c699015ebc8 -->
<g id="node1" class="node">
<title>dir_af3c263f52a1f0e4f3bb2c699015ebc8</title>
<g id="a_node1"><a xlink:href="dir_af3c263f52a1f0e4f3bb2c699015ebc8.html" target="_top" xlink:title="src">
<polygon fill="#eeeeff" stroke="black" points="83,-180 29,-180 29,-144 83,-144 83,-180"/>
<text text-anchor="middle" x="56" y="-159.5" font-family="Helvetica,sans-Serif" font-size="10.00">src</text>
</a>
</g>
</g>
<!-- dir_995a11a27ec5ce2fce465ebbab555255 -->
<g id="node2" class="node">
<title>dir_995a11a27ec5ce2fce465ebbab555255</title>
<g id="a_node2"><a xlink:href="dir_995a11a27ec5ce2fce465ebbab555255.html" target="_top" xlink:title="ParametersHandler">
<polygon fill="none" stroke="red" points="110,-36 0,-36 0,0 110,0 110,-36"/>
<text text-anchor="middle" x="55" y="-15.5" font-family="Helvetica,sans-Serif" font-size="10.00">ParametersHandler</text>
</a>
</g>
</g>
<!-- dir_af3c263f52a1f0e4f3bb2c699015ebc8&#45;&gt;dir_995a11a27ec5ce2fce465ebbab555255 -->
<g id="edge1" class="edge">
<title>dir_af3c263f52a1f0e4f3bb2c699015ebc8&#45;&gt;dir_995a11a27ec5ce2fce465ebbab555255</title>
<path fill="none" stroke="black" d="M52.35,-143.91C50.32,-133.57 48.02,-120.09 47,-108 45.66,-92.06 45.8,-87.96 47,-72 47.64,-63.52 48.84,-54.34 50.12,-46.04"/>
<polygon fill="black" stroke="black" points="53.58,-46.55 51.75,-36.11 46.68,-45.41 53.58,-46.55"/>
<g id="a_edge1&#45;headlabel"><a xlink:href="dir_000010_000052.html" target="_top" xlink:title="1">
<text text-anchor="middle" x="55.8" y="-48.05" font-family="Helvetica,sans-Serif" font-size="10.00">1</text>
</a>
</g>
</g>
<!-- dir_240d6632492a47ba12224b412d58f533 -->
<g id="node3" class="node">
<title>dir_240d6632492a47ba12224b412d58f533</title>
<g id="a_node3"><a xlink:href="dir_240d6632492a47ba12224b412d58f533.html" target="_top" xlink:title="include">
<polygon fill="none" stroke="red" points="110,-108 56,-108 56,-72 110,-72 110,-108"/>
<text text-anchor="middle" x="83" y="-87.5" font-family="Helvetica,sans-Serif" font-size="10.00">include</text>
</a>
</g>
</g>
<!-- dir_af3c263f52a1f0e4f3bb2c699015ebc8&#45;&gt;dir_240d6632492a47ba12224b412d58f533 -->
<g id="edge2" class="edge">
<title>dir_af3c263f52a1f0e4f3bb2c699015ebc8&#45;&gt;dir_240d6632492a47ba12224b412d58f533</title>
<path fill="none" stroke="black" d="M62.67,-143.7C65.71,-135.81 69.38,-126.3 72.76,-117.55"/>
<polygon fill="black" stroke="black" points="76.07,-118.69 76.4,-108.1 69.54,-116.17 76.07,-118.69"/>
<g id="a_edge2&#45;headlabel"><a xlink:href="dir_000010_000007.html" target="_top" xlink:title="2">
<text text-anchor="middle" x="77.42" y="-120.57" font-family="Helvetica,sans-Serif" font-size="10.00">2</text>
</a>
</g>
</g>
<!-- dir_240d6632492a47ba12224b412d58f533&#45;&gt;dir_995a11a27ec5ce2fce465ebbab555255 -->
<g id="edge3" class="edge">
<title>dir_240d6632492a47ba12224b412d58f533&#45;&gt;dir_995a11a27ec5ce2fce465ebbab555255</title>
<path fill="none" stroke="black" d="M76.08,-71.7C72.93,-63.81 69.12,-54.3 65.62,-45.55"/>
<polygon fill="black" stroke="black" points="68.81,-44.09 61.84,-36.1 62.31,-46.69 68.81,-44.09"/>
<g id="a_edge3&#45;headlabel"><a xlink:href="dir_000007_000052.html" target="_top" xlink:title="2">
<text text-anchor="middle" x="72.78" y="-43.87" font-family="Helvetica,sans-Serif" font-size="10.00">2</text>
</a>
</g>
</g>
</g>
</svg>
