<?xml version="1.0" encoding="UTF-8" standalone="no"?>
<!DOCTYPE svg PUBLIC "-//W3C//DTD SVG 1.1//EN"
 "http://www.w3.org/Graphics/SVG/1.1/DTD/svg11.dtd">
<!-- Generated by graphviz version 2.43.0 (0)
 -->
<!-- Title: Estimators/src Pages: 1 -->
<svg width="251pt" height="151pt"
 viewBox="0.00 0.00 251.00 151.00" xmlns="http://www.w3.org/2000/svg" xmlns:xlink="http://www.w3.org/1999/xlink">
<g id="graph0" class="graph" transform="scale(1 1) rotate(0) translate(4 147)">
<title>Estimators/src</title>
<g id="clust1" class="cluster">
<title>clusterdir_941407157475547b8b358a98f0692190</title>
<g id="a_clust1"><a xlink:href="dir_941407157475547b8b358a98f0692190.html" target="_top" xlink:title="Estimators">
<polygon fill="#ddddee" stroke="black" points="85.5,-64 85.5,-135 155.5,-135 155.5,-64 85.5,-64"/>
<text text-anchor="middle" x="120.5" y="-123" font-family="Helvetica,sans-Serif" font-size="10.00">Estimators</text>
</a>
</g>
</g>
<!-- dir_e8748f12afc033586b9763e57373849f -->
<g id="node1" class="node">
<title>dir_e8748f12afc033586b9763e57373849f</title>
<g id="a_node1"><a xlink:href="dir_e8748f12afc033586b9763e57373849f.html" target="_top" xlink:title="src">
<polygon fill="#eeeeff" stroke="black" points="147.5,-108 93.5,-108 93.5,-72 147.5,-72 147.5,-108"/>
<text text-anchor="middle" x="120.5" y="-87.5" font-family="Helvetica,sans-Serif" font-size="10.00">src</text>
</a>
</g>
</g>
<!-- dir_4118ae531ffdde861fee1c6efaa3009d -->
<g id="node2" class="node">
<title>dir_4118ae531ffdde861fee1c6efaa3009d</title>
<g id="a_node2"><a xlink:href="dir_4118ae531ffdde861fee1c6efaa3009d.html" target="_top" xlink:title="TextLogging">
<polygon fill="none" stroke="red" points="75,-36 0,-36 0,0 75,0 75,-36"/>
<text text-anchor="middle" x="37.5" y="-15.5" font-family="Helvetica,sans-Serif" font-size="10.00">TextLogging</text>
</a>
</g>
</g>
<!-- dir_e8748f12afc033586b9763e57373849f&#45;&gt;dir_4118ae531ffdde861fee1c6efaa3009d -->
<g id="edge1" class="edge">
<title>dir_e8748f12afc033586b9763e57373849f&#45;&gt;dir_4118ae531ffdde861fee1c6efaa3009d</title>
<path fill="none" stroke="black" d="M99.98,-71.7C89.63,-62.97 76.91,-52.24 65.66,-42.75"/>
<polygon fill="black" stroke="black" points="67.68,-39.88 57.78,-36.1 63.17,-45.23 67.68,-39.88"/>
<g id="a_edge1&#45;headlabel"><a xlink:href="dir_000032_000094.html" target="_top" xlink:title="1">
<text text-anchor="middle" x="72.26" y="-37.52" font-family="Helvetica,sans-Serif" font-size="10.00">1</text>
</a>
</g>
</g>
<!-- dir_83e72bb223dd52ca9520cbeb993359a4 -->
<g id="node3" class="node">
<title>dir_83e72bb223dd52ca9520cbeb993359a4</title>
<g id="a_node3"><a xlink:href="dir_83e72bb223dd52ca9520cbeb993359a4.html" target="_top" xlink:title="include">
<polygon fill="none" stroke="red" points="147.5,-36 93.5,-36 93.5,0 147.5,0 147.5,-36"/>
<text text-anchor="middle" x="120.5" y="-15.5" font-family="Helvetica,sans-Serif" font-size="10.00">include</text>
</a>
</g>
</g>
<!-- dir_e8748f12afc033586b9763e57373849f&#45;&gt;dir_83e72bb223dd52ca9520cbeb993359a4 -->
<g id="edge2" class="edge">
<title>dir_e8748f12afc033586b9763e57373849f&#45;&gt;dir_83e72bb223dd52ca9520cbeb993359a4</title>
<path fill="none" stroke="black" d="M120.5,-71.7C120.5,-63.98 120.5,-54.71 120.5,-46.11"/>
<polygon fill="black" stroke="black" points="124,-46.1 120.5,-36.1 117,-46.1 124,-46.1"/>
<g id="a_edge2&#45;headlabel"><a xlink:href="dir_000032_000028.html" target="_top" xlink:title="5">
<text text-anchor="middle" x="126.84" y="-47.2" font-family="Helvetica,sans-Serif" font-size="10.00">5</text>
</a>
</g>
</g>
<!-- dir_67ecbf5b3dd37b0be5aedd0167f75fa8 -->
<g id="node4" class="node">
<title>dir_67ecbf5b3dd37b0be5aedd0167f75fa8</title>
<g id="a_node4"><a xlink:href="dir_67ecbf5b3dd37b0be5aedd0167f75fa8.html" target="_top" xlink:title="Conversions">
<polygon fill="none" stroke="red" points="243,-36 166,-36 166,0 243,0 243,-36"/>
<text text-anchor="middle" x="204.5" y="-15.5" font-family="Helvetica,sans-Serif" font-size="10.00">Conversions</text>
</a>
</g>
</g>
<!-- dir_e8748f12afc033586b9763e57373849f&#45;&gt;dir_67ecbf5b3dd37b0be5aedd0167f75fa8 -->
<g id="edge3" class="edge">
<title>dir_e8748f12afc033586b9763e57373849f&#45;&gt;dir_67ecbf5b3dd37b0be5aedd0167f75fa8</title>
<path fill="none" stroke="black" d="M141.26,-71.7C151.74,-62.97 164.61,-52.24 176,-42.75"/>
<polygon fill="black" stroke="black" points="178.53,-45.19 183.97,-36.1 174.05,-39.82 178.53,-45.19"/>
<g id="a_edge3&#45;headlabel"><a xlink:href="dir_000032_000023.html" target="_top" xlink:title="2">
<text text-anchor="middle" x="177.59" y="-47.18" font-family="Helvetica,sans-Serif" font-size="10.00">2</text>
</a>
</g>
</g>
</g>
</svg>
