<?xml version="1.0" encoding="UTF-8" standalone="no"?>
<!DOCTYPE svg PUBLIC "-//W3C//DTD SVG 1.1//EN"
 "http://www.w3.org/Graphics/SVG/1.1/DTD/svg11.dtd">
<!-- Generated by graphviz version 2.43.0 (0)
 -->
<!-- Title: ContinuousDynamicalSystem Pages: 1 -->
<svg width="405pt" height="348pt"
 viewBox="0.00 0.00 405.00 348.00" xmlns="http://www.w3.org/2000/svg" xmlns:xlink="http://www.w3.org/1999/xlink">
<g id="graph0" class="graph" transform="scale(1 1) rotate(0) translate(4 344)">
<title>ContinuousDynamicalSystem</title>
<g id="clust1" class="cluster">
<title>clusterdir_76146152236a3f78e026f4bc2d877047</title>
<g id="a_clust1"><a xlink:href="dir_76146152236a3f78e026f4bc2d877047.html" target="_top">
<polygon fill="#eeeeff" stroke="black" points="61.5,-208 61.5,-332 311.5,-332 311.5,-208 61.5,-208"/>
</a>
</g>
</g>
<!-- dir_76146152236a3f78e026f4bc2d877047 -->
<g id="node1" class="node">
<title>dir_76146152236a3f78e026f4bc2d877047</title>
<text text-anchor="middle" x="222.5" y="-303.5" font-family="Helvetica,sans-Serif" font-size="10.00">ContinuousDynamicalSystem</text>
</g>
<!-- dir_99cb74f436ad600139b9f1cd091ccc03 -->
<g id="node2" class="node">
<title>dir_99cb74f436ad600139b9f1cd091ccc03</title>
<g id="a_node2"><a xlink:href="dir_99cb74f436ad600139b9f1cd091ccc03.html" target="_top" xlink:title="include">
<polygon fill="white" stroke="red" points="151.5,-252 97.5,-252 97.5,-216 151.5,-216 151.5,-252"/>
<text text-anchor="middle" x="124.5" y="-231.5" font-family="Helvetica,sans-Serif" font-size="10.00">include</text>
</a>
</g>
</g>
<!-- dir_ddacabcd4572cd422cd722a5b78176ea -->
<g id="node4" class="node">
<title>dir_ddacabcd4572cd422cd722a5b78176ea</title>
<g id="a_node4"><a xlink:href="dir_ddacabcd4572cd422cd722a5b78176ea.html" target="_top" xlink:title="ContactModels">
<polygon fill="none" stroke="red" points="280,-180 191,-180 191,-144 280,-144 280,-180"/>
<text text-anchor="middle" x="235.5" y="-159.5" font-family="Helvetica,sans-Serif" font-size="10.00">ContactModels</text>
</a>
</g>
</g>
<!-- dir_99cb74f436ad600139b9f1cd091ccc03&#45;&gt;dir_ddacabcd4572cd422cd722a5b78176ea -->
<g id="edge10" class="edge">
<title>dir_99cb74f436ad600139b9f1cd091ccc03&#45;&gt;dir_ddacabcd4572cd422cd722a5b78176ea</title>
<path fill="none" stroke="black" d="M151.65,-215.88C166.03,-206.81 183.88,-195.55 199.41,-185.76"/>
<polygon fill="black" stroke="black" points="201.65,-188.48 208.24,-180.19 197.92,-182.56 201.65,-188.48"/>
<g id="a_edge10&#45;headlabel"><a xlink:href="dir_000018_000006.html" target="_top" xlink:title="1">
<text text-anchor="middle" x="200.12" y="-190.3" font-family="Helvetica,sans-Serif" font-size="10.00">1</text>
</a>
</g>
</g>
<!-- dir_4118ae531ffdde861fee1c6efaa3009d -->
<g id="node5" class="node">
<title>dir_4118ae531ffdde861fee1c6efaa3009d</title>
<g id="a_node5"><a xlink:href="dir_4118ae531ffdde861fee1c6efaa3009d.html" target="_top" xlink:title="TextLogging">
<polygon fill="none" stroke="red" points="75,-36 0,-36 0,0 75,0 75,-36"/>
<text text-anchor="middle" x="37.5" y="-15.5" font-family="Helvetica,sans-Serif" font-size="10.00">TextLogging</text>
</a>
</g>
</g>
<!-- dir_99cb74f436ad600139b9f1cd091ccc03&#45;&gt;dir_4118ae531ffdde861fee1c6efaa3009d -->
<g id="edge11" class="edge">
<title>dir_99cb74f436ad600139b9f1cd091ccc03&#45;&gt;dir_4118ae531ffdde861fee1c6efaa3009d</title>
<path fill="none" stroke="black" d="M133.02,-215.98C147.28,-184.84 171.76,-117.73 143.5,-72 130.54,-51.04 106.51,-38.09 84.6,-30.24"/>
<polygon fill="black" stroke="black" points="85.64,-26.9 75.05,-27.09 83.45,-33.55 85.64,-26.9"/>
<g id="a_edge11&#45;headlabel"><a xlink:href="dir_000018_000094.html" target="_top" xlink:title="2">
<text text-anchor="middle" x="89.95" y="-22.84" font-family="Helvetica,sans-Serif" font-size="10.00">2</text>
</a>
</g>
</g>
<!-- dir_3813464283bee2267f39dcf080a84d74 -->
<g id="node6" class="node">
<title>dir_3813464283bee2267f39dcf080a84d74</title>
<g id="a_node6"><a xlink:href="dir_3813464283bee2267f39dcf080a84d74.html" target="_top" xlink:title="Math">
<polygon fill="none" stroke="red" points="96.5,-180 42.5,-180 42.5,-144 96.5,-144 96.5,-180"/>
<text text-anchor="middle" x="69.5" y="-159.5" font-family="Helvetica,sans-Serif" font-size="10.00">Math</text>
</a>
</g>
</g>
<!-- dir_99cb74f436ad600139b9f1cd091ccc03&#45;&gt;dir_3813464283bee2267f39dcf080a84d74 -->
<g id="edge12" class="edge">
<title>dir_99cb74f436ad600139b9f1cd091ccc03&#45;&gt;dir_3813464283bee2267f39dcf080a84d74</title>
<path fill="none" stroke="black" d="M110.9,-215.7C104.38,-207.39 96.43,-197.28 89.25,-188.14"/>
<polygon fill="black" stroke="black" points="91.87,-185.81 82.94,-180.1 86.37,-190.13 91.87,-185.81"/>
<g id="a_edge12&#45;headlabel"><a xlink:href="dir_000018_000047.html" target="_top" xlink:title="2">
<text text-anchor="middle" x="96.32" y="-184.38" font-family="Helvetica,sans-Serif" font-size="10.00">2</text>
</a>
</g>
</g>
<!-- dir_995a11a27ec5ce2fce465ebbab555255 -->
<g id="node8" class="node">
<title>dir_995a11a27ec5ce2fce465ebbab555255</title>
<g id="a_node8"><a xlink:href="dir_995a11a27ec5ce2fce465ebbab555255.html" target="_top" xlink:title="ParametersHandler">
<polygon fill="none" stroke="red" points="134.5,-108 24.5,-108 24.5,-72 134.5,-72 134.5,-108"/>
<text text-anchor="middle" x="79.5" y="-87.5" font-family="Helvetica,sans-Serif" font-size="10.00">ParametersHandler</text>
</a>
</g>
</g>
<!-- dir_99cb74f436ad600139b9f1cd091ccc03&#45;&gt;dir_995a11a27ec5ce2fce465ebbab555255 -->
<g id="edge13" class="edge">
<title>dir_99cb74f436ad600139b9f1cd091ccc03&#45;&gt;dir_995a11a27ec5ce2fce465ebbab555255</title>
<path fill="none" stroke="black" d="M122.13,-215.93C119.32,-197.76 113.92,-168.34 105.5,-144 102.38,-134.99 98.1,-125.54 93.91,-117.14"/>
<polygon fill="black" stroke="black" points="96.99,-115.48 89.28,-108.2 90.77,-118.69 96.99,-115.48"/>
<g id="a_edge13&#45;headlabel"><a xlink:href="dir_000018_000052.html" target="_top" xlink:title="3">
<text text-anchor="middle" x="101.16" y="-114.86" font-family="Helvetica,sans-Serif" font-size="10.00">3</text>
</a>
</g>
</g>
<!-- dir_832d6a8ac086c0ec339b22ab618dbc1c -->
<g id="node3" class="node">
<title>dir_832d6a8ac086c0ec339b22ab618dbc1c</title>
<g id="a_node3"><a xlink:href="dir_832d6a8ac086c0ec339b22ab618dbc1c.html" target="_top" xlink:title="src">
<polygon fill="white" stroke="black" points="123.5,-324 69.5,-324 69.5,-288 123.5,-288 123.5,-324"/>
<text text-anchor="middle" x="96.5" y="-303.5" font-family="Helvetica,sans-Serif" font-size="10.00">src</text>
</a>
</g>
</g>
<!-- dir_832d6a8ac086c0ec339b22ab618dbc1c&#45;&gt;dir_99cb74f436ad600139b9f1cd091ccc03 -->
<g id="edge5" class="edge">
<title>dir_832d6a8ac086c0ec339b22ab618dbc1c&#45;&gt;dir_99cb74f436ad600139b9f1cd091ccc03</title>
<path fill="none" stroke="black" d="M103.42,-287.7C106.57,-279.81 110.38,-270.3 113.88,-261.55"/>
<polygon fill="black" stroke="black" points="117.19,-262.69 117.66,-252.1 110.69,-260.09 117.19,-262.69"/>
<g id="a_edge5&#45;headlabel"><a xlink:href="dir_000022_000018.html" target="_top" xlink:title="5">
<text text-anchor="middle" x="118.5" y="-264.58" font-family="Helvetica,sans-Serif" font-size="10.00">5</text>
</a>
</g>
</g>
<!-- dir_832d6a8ac086c0ec339b22ab618dbc1c&#45;&gt;dir_ddacabcd4572cd422cd722a5b78176ea -->
<g id="edge1" class="edge">
<title>dir_832d6a8ac086c0ec339b22ab618dbc1c&#45;&gt;dir_ddacabcd4572cd422cd722a5b78176ea</title>
<path fill="none" stroke="black" d="M119.26,-287.78C131.89,-277.84 147.59,-264.8 160.5,-252 180.91,-231.77 201.79,-206.55 216.32,-188.13"/>
<polygon fill="black" stroke="black" points="219.12,-190.22 222.52,-180.18 213.61,-185.91 219.12,-190.22"/>
<g id="a_edge1&#45;headlabel"><a xlink:href="dir_000022_000006.html" target="_top" xlink:title="1">
<text text-anchor="middle" x="219.15" y="-192.3" font-family="Helvetica,sans-Serif" font-size="10.00">1</text>
</a>
</g>
</g>
<!-- dir_832d6a8ac086c0ec339b22ab618dbc1c&#45;&gt;dir_4118ae531ffdde861fee1c6efaa3009d -->
<g id="edge2" class="edge">
<title>dir_832d6a8ac086c0ec339b22ab618dbc1c&#45;&gt;dir_4118ae531ffdde861fee1c6efaa3009d</title>
<path fill="none" stroke="black" d="M85.16,-287.77C64.21,-254.66 20.49,-179.1 8.5,-108 5.84,-92.22 4.54,-87.5 8.5,-72 10.88,-62.7 15.26,-53.27 19.92,-45"/>
<polygon fill="black" stroke="black" points="23.04,-46.59 25.19,-36.22 17.04,-42.99 23.04,-46.59"/>
<g id="a_edge2&#45;headlabel"><a xlink:href="dir_000022_000094.html" target="_top" xlink:title="4">
<text text-anchor="middle" x="23.63" y="-48.63" font-family="Helvetica,sans-Serif" font-size="10.00">4</text>
</a>
</g>
</g>
<!-- dir_832d6a8ac086c0ec339b22ab618dbc1c&#45;&gt;dir_3813464283bee2267f39dcf080a84d74 -->
<g id="edge3" class="edge">
<title>dir_832d6a8ac086c0ec339b22ab618dbc1c&#45;&gt;dir_3813464283bee2267f39dcf080a84d74</title>
<path fill="none" stroke="black" d="M93.24,-287.87C88.64,-263.67 80.19,-219.21 74.71,-190.39"/>
<polygon fill="black" stroke="black" points="78.07,-189.36 72.77,-180.19 71.2,-190.67 78.07,-189.36"/>
<g id="a_edge3&#45;headlabel"><a xlink:href="dir_000022_000047.html" target="_top" xlink:title="2">
<text text-anchor="middle" x="81.54" y="-189.86" font-family="Helvetica,sans-Serif" font-size="10.00">2</text>
</a>
</g>
</g>
<!-- dir_67ecbf5b3dd37b0be5aedd0167f75fa8 -->
<g id="node7" class="node">
<title>dir_67ecbf5b3dd37b0be5aedd0167f75fa8</title>
<g id="a_node7"><a xlink:href="dir_67ecbf5b3dd37b0be5aedd0167f75fa8.html" target="_top" xlink:title="Conversions">
<polygon fill="none" stroke="red" points="397,-252 320,-252 320,-216 397,-216 397,-252"/>
<text text-anchor="middle" x="358.5" y="-231.5" font-family="Helvetica,sans-Serif" font-size="10.00">Conversions</text>
</a>
</g>
</g>
<!-- dir_832d6a8ac086c0ec339b22ab618dbc1c&#45;&gt;dir_67ecbf5b3dd37b0be5aedd0167f75fa8 -->
<g id="edge4" class="edge">
<title>dir_832d6a8ac086c0ec339b22ab618dbc1c&#45;&gt;dir_67ecbf5b3dd37b0be5aedd0167f75fa8</title>
<path fill="none" stroke="black" d="M123.73,-291.29C126.65,-290.08 129.61,-288.95 132.5,-288 208.01,-263.17 233.84,-274.32 309.69,-253.55"/>
<polygon fill="black" stroke="black" points="311.04,-256.8 319.7,-250.7 309.13,-250.07 311.04,-256.8"/>
<g id="a_edge4&#45;headlabel"><a xlink:href="dir_000022_000023.html" target="_top" xlink:title="1">
<text text-anchor="middle" x="308.36" y="-258.02" font-family="Helvetica,sans-Serif" font-size="10.00">1</text>
</a>
</g>
</g>
<!-- dir_ddacabcd4572cd422cd722a5b78176ea&#45;&gt;dir_995a11a27ec5ce2fce465ebbab555255 -->
<g id="edge6" class="edge">
<title>dir_ddacabcd4572cd422cd722a5b78176ea&#45;&gt;dir_995a11a27ec5ce2fce465ebbab555255</title>
<path fill="none" stroke="black" d="M197.34,-143.88C176.11,-134.35 149.49,-122.41 126.93,-112.28"/>
<polygon fill="black" stroke="black" points="128.09,-108.97 117.54,-108.07 125.23,-115.36 128.09,-108.97"/>
<g id="a_edge6&#45;headlabel"><a xlink:href="dir_000006_000052.html" target="_top" xlink:title="3">
<text text-anchor="middle" x="132.54" y="-105.35" font-family="Helvetica,sans-Serif" font-size="10.00">3</text>
</a>
</g>
</g>
<!-- dir_3813464283bee2267f39dcf080a84d74&#45;&gt;dir_4118ae531ffdde861fee1c6efaa3009d -->
<g id="edge7" class="edge">
<title>dir_3813464283bee2267f39dcf080a84d74&#45;&gt;dir_4118ae531ffdde861fee1c6efaa3009d</title>
<path fill="none" stroke="black" d="M44.57,-143.86C33.44,-134.67 21.5,-122.29 15.5,-108 7.03,-87.82 14.01,-63.63 22.28,-45.57"/>
<polygon fill="black" stroke="black" points="25.61,-46.74 26.92,-36.23 19.34,-43.63 25.61,-46.74"/>
<g id="a_edge7&#45;headlabel"><a xlink:href="dir_000047_000094.html" target="_top" xlink:title="1">
<text text-anchor="middle" x="26.55" y="-48.73" font-family="Helvetica,sans-Serif" font-size="10.00">1</text>
</a>
</g>
</g>
<!-- dir_3813464283bee2267f39dcf080a84d74&#45;&gt;dir_995a11a27ec5ce2fce465ebbab555255 -->
<g id="edge8" class="edge">
<title>dir_3813464283bee2267f39dcf080a84d74&#45;&gt;dir_995a11a27ec5ce2fce465ebbab555255</title>
<path fill="none" stroke="black" d="M71.97,-143.7C73.07,-135.98 74.4,-126.71 75.63,-118.11"/>
<polygon fill="black" stroke="black" points="79.11,-118.5 77.06,-108.1 72.18,-117.51 79.11,-118.5"/>
<g id="a_edge8&#45;headlabel"><a xlink:href="dir_000047_000052.html" target="_top" xlink:title="2">
<text text-anchor="middle" x="81.41" y="-119.96" font-family="Helvetica,sans-Serif" font-size="10.00">2</text>
</a>
</g>
</g>
<!-- dir_995a11a27ec5ce2fce465ebbab555255&#45;&gt;dir_4118ae531ffdde861fee1c6efaa3009d -->
<g id="edge9" class="edge">
<title>dir_995a11a27ec5ce2fce465ebbab555255&#45;&gt;dir_4118ae531ffdde861fee1c6efaa3009d</title>
<path fill="none" stroke="black" d="M69.12,-71.7C64.24,-63.56 58.31,-53.69 52.92,-44.7"/>
<polygon fill="black" stroke="black" points="55.91,-42.88 47.76,-36.1 49.91,-46.48 55.91,-42.88"/>
<g id="a_edge9&#45;headlabel"><a xlink:href="dir_000052_000094.html" target="_top" xlink:title="3">
<text text-anchor="middle" x="60.19" y="-42" font-family="Helvetica,sans-Serif" font-size="10.00">3</text>
</a>
</g>
</g>
</g>
</svg>
