<?xml version="1.0" encoding="UTF-8" standalone="no"?>
<!DOCTYPE svg PUBLIC "-//W3C//DTD SVG 1.1//EN"
 "http://www.w3.org/Graphics/SVG/1.1/DTD/svg11.dtd">
<!-- Generated by graphviz version 2.43.0 (0)
 -->
<!-- Title: Planners Pages: 1 -->
<svg width="287pt" height="420pt"
 viewBox="0.00 0.00 287.00 420.00" xmlns="http://www.w3.org/2000/svg" xmlns:xlink="http://www.w3.org/1999/xlink">
<g id="graph0" class="graph" transform="scale(1 1) rotate(0) translate(4 416)">
<title>Planners</title>
<g id="clust1" class="cluster">
<title>clusterdir_cc5a7ea599a1eb2a878dda3f918ab084</title>
<g id="a_clust1"><a xlink:href="dir_cc5a7ea599a1eb2a878dda3f918ab084.html" target="_top">
<polygon fill="#eeeeff" stroke="black" points="87,-280 87,-404 235,-404 235,-280 87,-280"/>
</a>
</g>
</g>
<!-- dir_cc5a7ea599a1eb2a878dda3f918ab084 -->
<g id="node1" class="node">
<title>dir_cc5a7ea599a1eb2a878dda3f918ab084</title>
<text text-anchor="middle" x="197" y="-375.5" font-family="Helvetica,sans-Serif" font-size="10.00">Planners</text>
</g>
<!-- dir_47af31f393480a5d6889a54234fa11ed -->
<g id="node2" class="node">
<title>dir_47af31f393480a5d6889a54234fa11ed</title>
<g id="a_node2"><a xlink:href="dir_47af31f393480a5d6889a54234fa11ed.html" target="_top" xlink:title="include">
<polygon fill="white" stroke="red" points="149,-324 95,-324 95,-288 149,-288 149,-324"/>
<text text-anchor="middle" x="122" y="-303.5" font-family="Helvetica,sans-Serif" font-size="10.00">include</text>
</a>
</g>
</g>
<!-- dir_ef68f1e1f5148ff8ef7fb1c955106c3c -->
<g id="node4" class="node">
<title>dir_ef68f1e1f5148ff8ef7fb1c955106c3c</title>
<g id="a_node4"><a xlink:href="dir_ef68f1e1f5148ff8ef7fb1c955106c3c.html" target="_top" xlink:title="System">
<polygon fill="none" stroke="red" points="93,-180 39,-180 39,-144 93,-144 93,-180"/>
<text text-anchor="middle" x="66" y="-159.5" font-family="Helvetica,sans-Serif" font-size="10.00">System</text>
</a>
</g>
</g>
<!-- dir_47af31f393480a5d6889a54234fa11ed&#45;&gt;dir_ef68f1e1f5148ff8ef7fb1c955106c3c -->
<g id="edge14" class="edge">
<title>dir_47af31f393480a5d6889a54234fa11ed&#45;&gt;dir_ef68f1e1f5148ff8ef7fb1c955106c3c</title>
<path fill="none" stroke="black" d="M115.25,-287.87C105.62,-263.46 87.86,-218.43 76.5,-189.64"/>
<polygon fill="black" stroke="black" points="79.7,-188.21 72.78,-180.19 73.19,-190.78 79.7,-188.21"/>
<g id="a_edge14&#45;headlabel"><a xlink:href="dir_000070_000084.html" target="_top" xlink:title="4">
<text text-anchor="middle" x="83.66" y="-188.01" font-family="Helvetica,sans-Serif" font-size="10.00">4</text>
</a>
</g>
</g>
<!-- dir_995a11a27ec5ce2fce465ebbab555255 -->
<g id="node7" class="node">
<title>dir_995a11a27ec5ce2fce465ebbab555255</title>
<g id="a_node7"><a xlink:href="dir_995a11a27ec5ce2fce465ebbab555255.html" target="_top" xlink:title="ParametersHandler">
<polygon fill="none" stroke="red" points="176,-108 66,-108 66,-72 176,-72 176,-108"/>
<text text-anchor="middle" x="121" y="-87.5" font-family="Helvetica,sans-Serif" font-size="10.00">ParametersHandler</text>
</a>
</g>
</g>
<!-- dir_47af31f393480a5d6889a54234fa11ed&#45;&gt;dir_995a11a27ec5ce2fce465ebbab555255 -->
<g id="edge15" class="edge">
<title>dir_47af31f393480a5d6889a54234fa11ed&#45;&gt;dir_995a11a27ec5ce2fce465ebbab555255</title>
<path fill="none" stroke="black" d="M121.92,-287.85C121.75,-250.83 121.34,-163.18 121.13,-118.39"/>
<polygon fill="black" stroke="black" points="124.63,-118.22 121.08,-108.23 117.63,-118.25 124.63,-118.22"/>
<g id="a_edge15&#45;headlabel"><a xlink:href="dir_000070_000052.html" target="_top" xlink:title="2">
<text text-anchor="middle" x="127.48" y="-119.3" font-family="Helvetica,sans-Serif" font-size="10.00">2</text>
</a>
</g>
</g>
<!-- dir_50541d64f188ef934de78ba6c49ffdbe -->
<g id="node8" class="node">
<title>dir_50541d64f188ef934de78ba6c49ffdbe</title>
<g id="a_node8"><a xlink:href="dir_50541d64f188ef934de78ba6c49ffdbe.html" target="_top" xlink:title="Contacts">
<polygon fill="none" stroke="red" points="208.5,-252 149.5,-252 149.5,-216 208.5,-216 208.5,-252"/>
<text text-anchor="middle" x="179" y="-231.5" font-family="Helvetica,sans-Serif" font-size="10.00">Contacts</text>
</a>
</g>
</g>
<!-- dir_47af31f393480a5d6889a54234fa11ed&#45;&gt;dir_50541d64f188ef934de78ba6c49ffdbe -->
<g id="edge16" class="edge">
<title>dir_47af31f393480a5d6889a54234fa11ed&#45;&gt;dir_50541d64f188ef934de78ba6c49ffdbe</title>
<path fill="none" stroke="black" d="M136.09,-287.7C142.92,-279.3 151.26,-269.07 158.76,-259.86"/>
<polygon fill="black" stroke="black" points="161.47,-262.07 165.07,-252.1 156.04,-257.65 161.47,-262.07"/>
<g id="a_edge16&#45;headlabel"><a xlink:href="dir_000070_000011.html" target="_top" xlink:title="1">
<text text-anchor="middle" x="161.4" y="-264.15" font-family="Helvetica,sans-Serif" font-size="10.00">1</text>
</a>
</g>
</g>
<!-- dir_7db49aa183034495a2794b7f72164f5b -->
<g id="node3" class="node">
<title>dir_7db49aa183034495a2794b7f72164f5b</title>
<g id="a_node3"><a xlink:href="dir_7db49aa183034495a2794b7f72164f5b.html" target="_top" xlink:title="src">
<polygon fill="white" stroke="black" points="149,-396 95,-396 95,-360 149,-360 149,-396"/>
<text text-anchor="middle" x="122" y="-375.5" font-family="Helvetica,sans-Serif" font-size="10.00">src</text>
</a>
</g>
</g>
<!-- dir_7db49aa183034495a2794b7f72164f5b&#45;&gt;dir_47af31f393480a5d6889a54234fa11ed -->
<g id="edge8" class="edge">
<title>dir_7db49aa183034495a2794b7f72164f5b&#45;&gt;dir_47af31f393480a5d6889a54234fa11ed</title>
<path fill="none" stroke="black" d="M122,-359.7C122,-351.98 122,-342.71 122,-334.11"/>
<polygon fill="black" stroke="black" points="125.5,-334.1 122,-324.1 118.5,-334.1 125.5,-334.1"/>
<g id="a_edge8&#45;headlabel"><a xlink:href="dir_000073_000070.html" target="_top" xlink:title="7">
<text text-anchor="middle" x="128.34" y="-335.2" font-family="Helvetica,sans-Serif" font-size="10.00">7</text>
</a>
</g>
</g>
<!-- dir_4118ae531ffdde861fee1c6efaa3009d -->
<g id="node5" class="node">
<title>dir_4118ae531ffdde861fee1c6efaa3009d</title>
<g id="a_node5"><a xlink:href="dir_4118ae531ffdde861fee1c6efaa3009d.html" target="_top" xlink:title="TextLogging">
<polygon fill="none" stroke="red" points="158.5,-36 83.5,-36 83.5,0 158.5,0 158.5,-36"/>
<text text-anchor="middle" x="121" y="-15.5" font-family="Helvetica,sans-Serif" font-size="10.00">TextLogging</text>
</a>
</g>
</g>
<!-- dir_7db49aa183034495a2794b7f72164f5b&#45;&gt;dir_4118ae531ffdde861fee1c6efaa3009d -->
<g id="edge5" class="edge">
<title>dir_7db49aa183034495a2794b7f72164f5b&#45;&gt;dir_4118ae531ffdde861fee1c6efaa3009d</title>
<path fill="none" stroke="black" d="M94.92,-361.6C58.98,-338.91 0,-292.85 0,-235 0,-235 0,-235 0,-161 0,-109.05 47.51,-66.45 82.98,-41.88"/>
<polygon fill="black" stroke="black" points="85.35,-44.5 91.71,-36.03 81.45,-38.69 85.35,-44.5"/>
<g id="a_edge5&#45;headlabel"><a xlink:href="dir_000073_000094.html" target="_top" xlink:title="1">
<text text-anchor="middle" x="83.95" y="-46.37" font-family="Helvetica,sans-Serif" font-size="10.00">1</text>
</a>
</g>
</g>
<!-- dir_3813464283bee2267f39dcf080a84d74 -->
<g id="node6" class="node">
<title>dir_3813464283bee2267f39dcf080a84d74</title>
<g id="a_node6"><a xlink:href="dir_3813464283bee2267f39dcf080a84d74.html" target="_top" xlink:title="Math">
<polygon fill="none" stroke="red" points="279,-180 225,-180 225,-144 279,-144 279,-180"/>
<text text-anchor="middle" x="252" y="-159.5" font-family="Helvetica,sans-Serif" font-size="10.00">Math</text>
</a>
</g>
</g>
<!-- dir_7db49aa183034495a2794b7f72164f5b&#45;&gt;dir_3813464283bee2267f39dcf080a84d74 -->
<g id="edge6" class="edge">
<title>dir_7db49aa183034495a2794b7f72164f5b&#45;&gt;dir_3813464283bee2267f39dcf080a84d74</title>
<path fill="none" stroke="black" d="M143.65,-359.82C155.04,-350.1 168.74,-337.25 179,-324 211.36,-282.22 233.22,-223.81 244.06,-190.04"/>
<polygon fill="black" stroke="black" points="247.43,-190.98 247.07,-180.39 240.75,-188.9 247.43,-190.98"/>
<g id="a_edge6&#45;headlabel"><a xlink:href="dir_000073_000047.html" target="_top" xlink:title="1">
<text text-anchor="middle" x="249.07" y="-192.76" font-family="Helvetica,sans-Serif" font-size="10.00">1</text>
</a>
</g>
</g>
<!-- dir_7db49aa183034495a2794b7f72164f5b&#45;&gt;dir_50541d64f188ef934de78ba6c49ffdbe -->
<g id="edge7" class="edge">
<title>dir_7db49aa183034495a2794b7f72164f5b&#45;&gt;dir_50541d64f188ef934de78ba6c49ffdbe</title>
<path fill="none" stroke="black" d="M136.06,-359.8C143.55,-349.87 152.36,-336.83 158,-324 166.71,-304.2 172.09,-280.26 175.23,-262.2"/>
<polygon fill="black" stroke="black" points="178.68,-262.75 176.82,-252.32 171.77,-261.64 178.68,-262.75"/>
<g id="a_edge7&#45;headlabel"><a xlink:href="dir_000073_000011.html" target="_top" xlink:title="1">
<text text-anchor="middle" x="180.92" y="-264.25" font-family="Helvetica,sans-Serif" font-size="10.00">1</text>
</a>
</g>
</g>
<!-- dir_ef68f1e1f5148ff8ef7fb1c955106c3c&#45;&gt;dir_4118ae531ffdde861fee1c6efaa3009d -->
<g id="edge1" class="edge">
<title>dir_ef68f1e1f5148ff8ef7fb1c955106c3c&#45;&gt;dir_4118ae531ffdde861fee1c6efaa3009d</title>
<path fill="none" stroke="black" d="M59.15,-143.71C52.9,-125.09 46.16,-95.05 57,-72 62.52,-60.26 72.07,-50.22 82.12,-42.15"/>
<polygon fill="black" stroke="black" points="84.31,-44.88 90.23,-36.09 80.12,-39.27 84.31,-44.88"/>
<g id="a_edge1&#45;headlabel"><a xlink:href="dir_000084_000094.html" target="_top" xlink:title="4">
<text text-anchor="middle" x="83.13" y="-46.81" font-family="Helvetica,sans-Serif" font-size="10.00">4</text>
</a>
</g>
</g>
<!-- dir_ef68f1e1f5148ff8ef7fb1c955106c3c&#45;&gt;dir_995a11a27ec5ce2fce465ebbab555255 -->
<g id="edge2" class="edge">
<title>dir_ef68f1e1f5148ff8ef7fb1c955106c3c&#45;&gt;dir_995a11a27ec5ce2fce465ebbab555255</title>
<path fill="none" stroke="black" d="M79.6,-143.7C86.12,-135.39 94.07,-125.28 101.25,-116.14"/>
<polygon fill="black" stroke="black" points="104.13,-118.13 107.56,-108.1 98.63,-113.81 104.13,-118.13"/>
<g id="a_edge2&#45;headlabel"><a xlink:href="dir_000084_000052.html" target="_top" xlink:title="4">
<text text-anchor="middle" x="104.15" y="-120.21" font-family="Helvetica,sans-Serif" font-size="10.00">4</text>
</a>
</g>
</g>
<!-- dir_3813464283bee2267f39dcf080a84d74&#45;&gt;dir_4118ae531ffdde861fee1c6efaa3009d -->
<g id="edge3" class="edge">
<title>dir_3813464283bee2267f39dcf080a84d74&#45;&gt;dir_4118ae531ffdde861fee1c6efaa3009d</title>
<path fill="none" stroke="black" d="M249.12,-143.75C245.1,-124.34 236.17,-92.81 218,-72 204.69,-56.75 185.88,-45.08 168.36,-36.61"/>
<polygon fill="black" stroke="black" points="169.36,-33.22 158.81,-32.24 166.45,-39.58 169.36,-33.22"/>
<g id="a_edge3&#45;headlabel"><a xlink:href="dir_000047_000094.html" target="_top" xlink:title="1">
<text text-anchor="middle" x="173.81" y="-29.63" font-family="Helvetica,sans-Serif" font-size="10.00">1</text>
</a>
</g>
</g>
<!-- dir_3813464283bee2267f39dcf080a84d74&#45;&gt;dir_995a11a27ec5ce2fce465ebbab555255 -->
<g id="edge4" class="edge">
<title>dir_3813464283bee2267f39dcf080a84d74&#45;&gt;dir_995a11a27ec5ce2fce465ebbab555255</title>
<path fill="none" stroke="black" d="M224.86,-146.5C206.79,-136.84 182.71,-123.98 162.29,-113.06"/>
<polygon fill="black" stroke="black" points="163.66,-109.83 153.2,-108.2 160.37,-116 163.66,-109.83"/>
<g id="a_edge4&#45;headlabel"><a xlink:href="dir_000047_000052.html" target="_top" xlink:title="2">
<text text-anchor="middle" x="168.17" y="-106.52" font-family="Helvetica,sans-Serif" font-size="10.00">2</text>
</a>
</g>
</g>
<!-- dir_995a11a27ec5ce2fce465ebbab555255&#45;&gt;dir_4118ae531ffdde861fee1c6efaa3009d -->
<g id="edge9" class="edge">
<title>dir_995a11a27ec5ce2fce465ebbab555255&#45;&gt;dir_4118ae531ffdde861fee1c6efaa3009d</title>
<path fill="none" stroke="black" d="M121,-71.7C121,-63.98 121,-54.71 121,-46.11"/>
<polygon fill="black" stroke="black" points="124.5,-46.1 121,-36.1 117.5,-46.1 124.5,-46.1"/>
<g id="a_edge9&#45;headlabel"><a xlink:href="dir_000052_000094.html" target="_top" xlink:title="3">
<text text-anchor="middle" x="127.34" y="-47.2" font-family="Helvetica,sans-Serif" font-size="10.00">3</text>
</a>
</g>
</g>
<!-- dir_50541d64f188ef934de78ba6c49ffdbe&#45;&gt;dir_ef68f1e1f5148ff8ef7fb1c955106c3c -->
<g id="edge10" class="edge">
<title>dir_50541d64f188ef934de78ba6c49ffdbe&#45;&gt;dir_ef68f1e1f5148ff8ef7fb1c955106c3c</title>
<path fill="none" stroke="black" d="M151.36,-215.88C136.47,-206.66 117.93,-195.17 101.94,-185.26"/>
<polygon fill="black" stroke="black" points="103.7,-182.24 93.36,-179.95 100.02,-188.19 103.7,-182.24"/>
<g id="a_edge10&#45;headlabel"><a xlink:href="dir_000011_000084.html" target="_top" xlink:title="1">
<text text-anchor="middle" x="108.25" y="-179.22" font-family="Helvetica,sans-Serif" font-size="10.00">1</text>
</a>
</g>
</g>
<!-- dir_50541d64f188ef934de78ba6c49ffdbe&#45;&gt;dir_4118ae531ffdde861fee1c6efaa3009d -->
<g id="edge11" class="edge">
<title>dir_50541d64f188ef934de78ba6c49ffdbe&#45;&gt;dir_4118ae531ffdde861fee1c6efaa3009d</title>
<path fill="none" stroke="black" d="M184.64,-215.52C193.51,-184.8 207.5,-119.84 185,-72 179.48,-60.26 169.93,-50.22 159.88,-42.15"/>
<polygon fill="black" stroke="black" points="161.88,-39.27 151.77,-36.09 157.69,-44.88 161.88,-39.27"/>
<g id="a_edge11&#45;headlabel"><a xlink:href="dir_000011_000094.html" target="_top" xlink:title="4">
<text text-anchor="middle" x="166.46" y="-36.65" font-family="Helvetica,sans-Serif" font-size="10.00">4</text>
</a>
</g>
</g>
<!-- dir_50541d64f188ef934de78ba6c49ffdbe&#45;&gt;dir_3813464283bee2267f39dcf080a84d74 -->
<g id="edge12" class="edge">
<title>dir_50541d64f188ef934de78ba6c49ffdbe&#45;&gt;dir_3813464283bee2267f39dcf080a84d74</title>
<path fill="none" stroke="black" d="M197.04,-215.7C206.06,-207.05 217.12,-196.45 226.94,-187.03"/>
<polygon fill="black" stroke="black" points="229.37,-189.55 234.16,-180.1 224.52,-184.5 229.37,-189.55"/>
<g id="a_edge12&#45;headlabel"><a xlink:href="dir_000011_000047.html" target="_top" xlink:title="1">
<text text-anchor="middle" x="228.74" y="-191.59" font-family="Helvetica,sans-Serif" font-size="10.00">1</text>
</a>
</g>
</g>
<!-- dir_50541d64f188ef934de78ba6c49ffdbe&#45;&gt;dir_995a11a27ec5ce2fce465ebbab555255 -->
<g id="edge13" class="edge">
<title>dir_50541d64f188ef934de78ba6c49ffdbe&#45;&gt;dir_995a11a27ec5ce2fce465ebbab555255</title>
<path fill="none" stroke="black" d="M172,-215.87C162.03,-191.46 143.64,-146.43 131.88,-117.64"/>
<polygon fill="black" stroke="black" points="135.04,-116.12 128.02,-108.19 128.56,-118.77 135.04,-116.12"/>
<g id="a_edge13&#45;headlabel"><a xlink:href="dir_000011_000052.html" target="_top" xlink:title="3">
<text text-anchor="middle" x="139.03" y="-115.88" font-family="Helvetica,sans-Serif" font-size="10.00">3</text>
</a>
</g>
</g>
</g>
</svg>
