<?xml version="1.0" encoding="UTF-8" standalone="no"?>
<!DOCTYPE svg PUBLIC "-//W3C//DTD SVG 1.1//EN"
 "http://www.w3.org/Graphics/SVG/1.1/DTD/svg11.dtd">
<!-- Generated by graphviz version 2.43.0 (0)
 -->
<!-- Title: ContinuousDynamicalSystem/include Pages: 1 -->
<svg width="254pt" height="303pt"
 viewBox="0.00 0.00 253.60 303.00" xmlns="http://www.w3.org/2000/svg" xmlns:xlink="http://www.w3.org/1999/xlink">
<g id="graph0" class="graph" transform="scale(1 1) rotate(0) translate(4 299)">
<title>ContinuousDynamicalSystem/include</title>
<g id="clust1" class="cluster">
<title>clusterdir_76146152236a3f78e026f4bc2d877047</title>
<g id="a_clust1"><a xlink:href="dir_76146152236a3f78e026f4bc2d877047.html" target="_top" xlink:title="ContinuousDynamicalSystem">
<polygon fill="#ddddee" stroke="black" points="23.6,-200 23.6,-287 237.6,-287 237.6,-200 23.6,-200"/>
<text text-anchor="middle" x="130.6" y="-275" font-family="Helvetica,sans-Serif" font-size="10.00">ContinuousDynamicalSystem</text>
</a>
</g>
</g>
<g id="clust2" class="cluster">
<title>clusterdir_99cb74f436ad600139b9f1cd091ccc03</title>
<g id="a_clust2"><a xlink:href="dir_99cb74f436ad600139b9f1cd091ccc03.html" target="_top">
<polygon fill="#eeeeff" stroke="black" points="31.6,-208 31.6,-260 229.6,-260 229.6,-208 31.6,-208"/>
</a>
</g>
</g>
<!-- dir_99cb74f436ad600139b9f1cd091ccc03 -->
<g id="node1" class="node">
<title>dir_99cb74f436ad600139b9f1cd091ccc03</title>
<text text-anchor="middle" x="194.6" y="-231.5" font-family="Helvetica,sans-Serif" font-size="10.00">include</text>
</g>
<!-- dir_eaf5314e05d734149789ca52ab6ca8f2 -->
<g id="node2" class="node">
<title>dir_eaf5314e05d734149789ca52ab6ca8f2</title>
<g id="a_node2"><a xlink:href="dir_eaf5314e05d734149789ca52ab6ca8f2.html" target="_top" xlink:title="BipedalLocomotion">
<polygon fill="white" stroke="red" points="149.6,-252 39.6,-252 39.6,-216 149.6,-216 149.6,-252"/>
<text text-anchor="middle" x="94.6" y="-231.5" font-family="Helvetica,sans-Serif" font-size="10.00">BipedalLocomotion</text>
</a>
</g>
</g>
<!-- dir_ddacabcd4572cd422cd722a5b78176ea -->
<g id="node3" class="node">
<title>dir_ddacabcd4572cd422cd722a5b78176ea</title>
<g id="a_node3"><a xlink:href="dir_ddacabcd4572cd422cd722a5b78176ea.html" target="_top" xlink:title="ContactModels">
<polygon fill="none" stroke="red" points="103.1,-180 14.1,-180 14.1,-144 103.1,-144 103.1,-180"/>
<text text-anchor="middle" x="58.6" y="-159.5" font-family="Helvetica,sans-Serif" font-size="10.00">ContactModels</text>
</a>
</g>
</g>
<!-- dir_eaf5314e05d734149789ca52ab6ca8f2&#45;&gt;dir_ddacabcd4572cd422cd722a5b78176ea -->
<g id="edge4" class="edge">
<title>dir_eaf5314e05d734149789ca52ab6ca8f2&#45;&gt;dir_ddacabcd4572cd422cd722a5b78176ea</title>
<path fill="none" stroke="black" d="M85.7,-215.7C81.6,-207.73 76.65,-198.1 72.1,-189.26"/>
<polygon fill="black" stroke="black" points="75.08,-187.4 67.39,-180.1 68.85,-190.6 75.08,-187.4"/>
<g id="a_edge4&#45;headlabel"><a xlink:href="dir_000019_000006.html" target="_top" xlink:title="1">
<text text-anchor="middle" x="79.25" y="-186.79" font-family="Helvetica,sans-Serif" font-size="10.00">1</text>
</a>
</g>
</g>
<!-- dir_4118ae531ffdde861fee1c6efaa3009d -->
<g id="node4" class="node">
<title>dir_4118ae531ffdde861fee1c6efaa3009d</title>
<g id="a_node4"><a xlink:href="dir_4118ae531ffdde861fee1c6efaa3009d.html" target="_top" xlink:title="TextLogging">
<polygon fill="none" stroke="red" points="141.1,-36 66.1,-36 66.1,0 141.1,0 141.1,-36"/>
<text text-anchor="middle" x="103.6" y="-15.5" font-family="Helvetica,sans-Serif" font-size="10.00">TextLogging</text>
</a>
</g>
</g>
<!-- dir_eaf5314e05d734149789ca52ab6ca8f2&#45;&gt;dir_4118ae531ffdde861fee1c6efaa3009d -->
<g id="edge5" class="edge">
<title>dir_eaf5314e05d734149789ca52ab6ca8f2&#45;&gt;dir_4118ae531ffdde861fee1c6efaa3009d</title>
<path fill="none" stroke="black" d="M46.04,-215.97C29.93,-207.73 13.77,-196.06 4.6,-180 -3.34,-166.11 1.01,-159.59 4.6,-144 12.58,-109.33 17.62,-99.98 39.6,-72 48.19,-61.06 59.39,-50.84 70.01,-42.36"/>
<polygon fill="black" stroke="black" points="72.19,-45.1 77.97,-36.22 67.91,-39.55 72.19,-45.1"/>
<g id="a_edge5&#45;headlabel"><a xlink:href="dir_000019_000094.html" target="_top" xlink:title="2">
<text text-anchor="middle" x="71.07" y="-47.04" font-family="Helvetica,sans-Serif" font-size="10.00">2</text>
</a>
</g>
</g>
<!-- dir_3813464283bee2267f39dcf080a84d74 -->
<g id="node5" class="node">
<title>dir_3813464283bee2267f39dcf080a84d74</title>
<g id="a_node5"><a xlink:href="dir_3813464283bee2267f39dcf080a84d74.html" target="_top" xlink:title="Math">
<polygon fill="none" stroke="red" points="213.6,-180 159.6,-180 159.6,-144 213.6,-144 213.6,-180"/>
<text text-anchor="middle" x="186.6" y="-159.5" font-family="Helvetica,sans-Serif" font-size="10.00">Math</text>
</a>
</g>
</g>
<!-- dir_eaf5314e05d734149789ca52ab6ca8f2&#45;&gt;dir_3813464283bee2267f39dcf080a84d74 -->
<g id="edge6" class="edge">
<title>dir_eaf5314e05d734149789ca52ab6ca8f2&#45;&gt;dir_3813464283bee2267f39dcf080a84d74</title>
<path fill="none" stroke="black" d="M117.34,-215.7C129.04,-206.8 143.46,-195.82 156.11,-186.2"/>
<polygon fill="black" stroke="black" points="158.28,-188.94 164.12,-180.1 154.04,-183.37 158.28,-188.94"/>
<g id="a_edge6&#45;headlabel"><a xlink:href="dir_000019_000047.html" target="_top" xlink:title="2">
<text text-anchor="middle" x="157.14" y="-190.88" font-family="Helvetica,sans-Serif" font-size="10.00">2</text>
</a>
</g>
</g>
<!-- dir_995a11a27ec5ce2fce465ebbab555255 -->
<g id="node6" class="node">
<title>dir_995a11a27ec5ce2fce465ebbab555255</title>
<g id="a_node6"><a xlink:href="dir_995a11a27ec5ce2fce465ebbab555255.html" target="_top" xlink:title="ParametersHandler">
<polygon fill="none" stroke="red" points="158.6,-108 48.6,-108 48.6,-72 158.6,-72 158.6,-108"/>
<text text-anchor="middle" x="103.6" y="-87.5" font-family="Helvetica,sans-Serif" font-size="10.00">ParametersHandler</text>
</a>
</g>
</g>
<!-- dir_eaf5314e05d734149789ca52ab6ca8f2&#45;&gt;dir_995a11a27ec5ce2fce465ebbab555255 -->
<g id="edge7" class="edge">
<title>dir_eaf5314e05d734149789ca52ab6ca8f2&#45;&gt;dir_995a11a27ec5ce2fce465ebbab555255</title>
<path fill="none" stroke="black" d="M101.66,-215.67C105.43,-205.47 109.68,-192.22 111.6,-180 114.81,-159.44 112.46,-135.98 109.49,-118.32"/>
<polygon fill="black" stroke="black" points="112.87,-117.34 107.61,-108.14 105.99,-118.61 112.87,-117.34"/>
<g id="a_edge7&#45;headlabel"><a xlink:href="dir_000019_000052.html" target="_top" xlink:title="3">
<text text-anchor="middle" x="116.32" y="-117.86" font-family="Helvetica,sans-Serif" font-size="10.00">3</text>
</a>
</g>
</g>
<!-- dir_ddacabcd4572cd422cd722a5b78176ea&#45;&gt;dir_995a11a27ec5ce2fce465ebbab555255 -->
<g id="edge1" class="edge">
<title>dir_ddacabcd4572cd422cd722a5b78176ea&#45;&gt;dir_995a11a27ec5ce2fce465ebbab555255</title>
<path fill="none" stroke="black" d="M69.72,-143.7C74.95,-135.56 81.3,-125.69 87.07,-116.7"/>
<polygon fill="black" stroke="black" points="90.14,-118.41 92.6,-108.1 84.25,-114.62 90.14,-118.41"/>
<g id="a_edge1&#45;headlabel"><a xlink:href="dir_000006_000052.html" target="_top" xlink:title="3">
<text text-anchor="middle" x="90.58" y="-120.47" font-family="Helvetica,sans-Serif" font-size="10.00">3</text>
</a>
</g>
</g>
<!-- dir_3813464283bee2267f39dcf080a84d74&#45;&gt;dir_4118ae531ffdde861fee1c6efaa3009d -->
<g id="edge2" class="edge">
<title>dir_3813464283bee2267f39dcf080a84d74&#45;&gt;dir_4118ae531ffdde861fee1c6efaa3009d</title>
<path fill="none" stroke="black" d="M186.22,-143.71C185.09,-124.82 181.1,-94.3 167.6,-72 160.69,-60.61 150.45,-50.54 140.16,-42.32"/>
<polygon fill="black" stroke="black" points="142.06,-39.37 131.97,-36.14 137.85,-44.96 142.06,-39.37"/>
<g id="a_edge2&#45;headlabel"><a xlink:href="dir_000047_000094.html" target="_top" xlink:title="1">
<text text-anchor="middle" x="146.64" y="-36.77" font-family="Helvetica,sans-Serif" font-size="10.00">1</text>
</a>
</g>
</g>
<!-- dir_3813464283bee2267f39dcf080a84d74&#45;&gt;dir_995a11a27ec5ce2fce465ebbab555255 -->
<g id="edge3" class="edge">
<title>dir_3813464283bee2267f39dcf080a84d74&#45;&gt;dir_995a11a27ec5ce2fce465ebbab555255</title>
<path fill="none" stroke="black" d="M166.08,-143.7C155.73,-134.97 143.01,-124.24 131.76,-114.75"/>
<polygon fill="black" stroke="black" points="133.78,-111.88 123.88,-108.1 129.26,-117.23 133.78,-111.88"/>
<g id="a_edge3&#45;headlabel"><a xlink:href="dir_000047_000052.html" target="_top" xlink:title="2">
<text text-anchor="middle" x="138.36" y="-109.52" font-family="Helvetica,sans-Serif" font-size="10.00">2</text>
</a>
</g>
</g>
<!-- dir_995a11a27ec5ce2fce465ebbab555255&#45;&gt;dir_4118ae531ffdde861fee1c6efaa3009d -->
<g id="edge8" class="edge">
<title>dir_995a11a27ec5ce2fce465ebbab555255&#45;&gt;dir_4118ae531ffdde861fee1c6efaa3009d</title>
<path fill="none" stroke="black" d="M103.6,-71.7C103.6,-63.98 103.6,-54.71 103.6,-46.11"/>
<polygon fill="black" stroke="black" points="107.1,-46.1 103.6,-36.1 100.1,-46.1 107.1,-46.1"/>
<g id="a_edge8&#45;headlabel"><a xlink:href="dir_000052_000094.html" target="_top" xlink:title="3">
<text text-anchor="middle" x="109.93" y="-47.2" font-family="Helvetica,sans-Serif" font-size="10.00">3</text>
</a>
</g>
</g>
</g>
</svg>
