<?xml version="1.0" encoding="UTF-8" standalone="no"?>
<!DOCTYPE svg PUBLIC "-//W3C//DTD SVG 1.1//EN"
 "http://www.w3.org/Graphics/SVG/1.1/DTD/svg11.dtd">
<!-- Generated by graphviz version 2.43.0 (0)
 -->
<!-- Title: RobotInterface/YarpImplementation Pages: 1 -->
<svg width="330pt" height="375pt"
 viewBox="0.00 0.00 330.00 375.00" xmlns="http://www.w3.org/2000/svg" xmlns:xlink="http://www.w3.org/1999/xlink">
<g id="graph0" class="graph" transform="scale(1 1) rotate(0) translate(4 371)">
<title>RobotInterface/YarpImplementation</title>
<g id="clust1" class="cluster">
<title>clusterdir_b758cc06ecf5ffd178e3392fd03c4d77</title>
<g id="a_clust1"><a xlink:href="dir_b758cc06ecf5ffd178e3392fd03c4d77.html" target="_top" xlink:title="RobotInterface">
<polygon fill="#ddddee" stroke="black" points="94,-200 94,-359 314,-359 314,-200 94,-200"/>
<text text-anchor="middle" x="204" y="-347" font-family="Helvetica,sans-Serif" font-size="10.00">RobotInterface</text>
</a>
</g>
</g>
<g id="clust2" class="cluster">
<title>clusterdir_3e94d037e35e99e0f94aa79b0e410f47</title>
<g id="a_clust2"><a xlink:href="dir_3e94d037e35e99e0f94aa79b0e410f47.html" target="_top">
<polygon fill="#eeeeff" stroke="black" points="102,-208 102,-332 306,-332 306,-208 102,-208"/>
</a>
</g>
</g>
<!-- dir_3e94d037e35e99e0f94aa79b0e410f47 -->
<g id="node1" class="node">
<title>dir_3e94d037e35e99e0f94aa79b0e410f47</title>
<text text-anchor="middle" x="240" y="-303.5" font-family="Helvetica,sans-Serif" font-size="10.00">YarpImplementation</text>
</g>
<!-- dir_c9ecf35bb6ca9c90f7c8106eb0f248ed -->
<g id="node2" class="node">
<title>dir_c9ecf35bb6ca9c90f7c8106eb0f248ed</title>
<g id="a_node2"><a xlink:href="dir_c9ecf35bb6ca9c90f7c8106eb0f248ed.html" target="_top" xlink:title="include">
<polygon fill="white" stroke="red" points="164,-252 110,-252 110,-216 164,-216 164,-252"/>
<text text-anchor="middle" x="137" y="-231.5" font-family="Helvetica,sans-Serif" font-size="10.00">include</text>
</a>
</g>
</g>
<!-- dir_ef68f1e1f5148ff8ef7fb1c955106c3c -->
<g id="node4" class="node">
<title>dir_ef68f1e1f5148ff8ef7fb1c955106c3c</title>
<g id="a_node4"><a xlink:href="dir_ef68f1e1f5148ff8ef7fb1c955106c3c.html" target="_top" xlink:title="System">
<polygon fill="none" stroke="red" points="54,-180 0,-180 0,-144 54,-144 54,-180"/>
<text text-anchor="middle" x="27" y="-159.5" font-family="Helvetica,sans-Serif" font-size="10.00">System</text>
</a>
</g>
</g>
<!-- dir_c9ecf35bb6ca9c90f7c8106eb0f248ed&#45;&gt;dir_ef68f1e1f5148ff8ef7fb1c955106c3c -->
<g id="edge5" class="edge">
<title>dir_c9ecf35bb6ca9c90f7c8106eb0f248ed&#45;&gt;dir_ef68f1e1f5148ff8ef7fb1c955106c3c</title>
<path fill="none" stroke="black" d="M110.09,-215.88C95.84,-206.81 78.15,-195.55 62.76,-185.76"/>
<polygon fill="black" stroke="black" points="64.33,-182.61 54.01,-180.19 60.57,-188.51 64.33,-182.61"/>
<g id="a_edge5&#45;headlabel"><a xlink:href="dir_000080_000084.html" target="_top" xlink:title="1">
<text text-anchor="middle" x="68.89" y="-179.64" font-family="Helvetica,sans-Serif" font-size="10.00">1</text>
</a>
</g>
</g>
<!-- dir_4118ae531ffdde861fee1c6efaa3009d -->
<g id="node5" class="node">
<title>dir_4118ae531ffdde861fee1c6efaa3009d</title>
<g id="a_node5"><a xlink:href="dir_4118ae531ffdde861fee1c6efaa3009d.html" target="_top" xlink:title="TextLogging">
<polygon fill="none" stroke="red" points="187.5,-36 112.5,-36 112.5,0 187.5,0 187.5,-36"/>
<text text-anchor="middle" x="150" y="-15.5" font-family="Helvetica,sans-Serif" font-size="10.00">TextLogging</text>
</a>
</g>
</g>
<!-- dir_c9ecf35bb6ca9c90f7c8106eb0f248ed&#45;&gt;dir_4118ae531ffdde861fee1c6efaa3009d -->
<g id="edge6" class="edge">
<title>dir_c9ecf35bb6ca9c90f7c8106eb0f248ed&#45;&gt;dir_4118ae531ffdde861fee1c6efaa3009d</title>
<path fill="none" stroke="black" d="M152.61,-215.77C160.37,-206.03 168.95,-193.18 173,-180 187.11,-134.12 182.76,-119 173,-72 171.12,-62.96 167.63,-53.58 163.91,-45.26"/>
<polygon fill="black" stroke="black" points="167,-43.6 159.54,-36.07 160.68,-46.61 167,-43.6"/>
<g id="a_edge6&#45;headlabel"><a xlink:href="dir_000080_000094.html" target="_top" xlink:title="1">
<text text-anchor="middle" x="171.11" y="-43.12" font-family="Helvetica,sans-Serif" font-size="10.00">1</text>
</a>
</g>
</g>
<!-- dir_995a11a27ec5ce2fce465ebbab555255 -->
<g id="node6" class="node">
<title>dir_995a11a27ec5ce2fce465ebbab555255</title>
<g id="a_node6"><a xlink:href="dir_995a11a27ec5ce2fce465ebbab555255.html" target="_top" xlink:title="ParametersHandler">
<polygon fill="none" stroke="red" points="164,-108 54,-108 54,-72 164,-72 164,-108"/>
<text text-anchor="middle" x="109" y="-87.5" font-family="Helvetica,sans-Serif" font-size="10.00">ParametersHandler</text>
</a>
</g>
</g>
<!-- dir_c9ecf35bb6ca9c90f7c8106eb0f248ed&#45;&gt;dir_995a11a27ec5ce2fce465ebbab555255 -->
<g id="edge7" class="edge">
<title>dir_c9ecf35bb6ca9c90f7c8106eb0f248ed&#45;&gt;dir_995a11a27ec5ce2fce465ebbab555255</title>
<path fill="none" stroke="black" d="M121.39,-215.77C113.63,-206.03 105.05,-193.18 101,-180 94.79,-159.8 97.45,-135.89 101.31,-117.94"/>
<polygon fill="black" stroke="black" points="104.73,-118.67 103.66,-108.13 97.92,-117.04 104.73,-118.67"/>
<g id="a_edge7&#45;headlabel"><a xlink:href="dir_000080_000052.html" target="_top" xlink:title="1">
<text text-anchor="middle" x="106.66" y="-120.33" font-family="Helvetica,sans-Serif" font-size="10.00">1</text>
</a>
</g>
</g>
<!-- dir_2ddfa6bbaecaa13cbf0c44c7a8ab174d -->
<g id="node7" class="node">
<title>dir_2ddfa6bbaecaa13cbf0c44c7a8ab174d</title>
<g id="a_node7"><a xlink:href="dir_2ddfa6bbaecaa13cbf0c44c7a8ab174d.html" target="_top" xlink:title="include">
<polygon fill="none" stroke="red" points="164,-180 110,-180 110,-144 164,-144 164,-180"/>
<text text-anchor="middle" x="137" y="-159.5" font-family="Helvetica,sans-Serif" font-size="10.00">include</text>
</a>
</g>
</g>
<!-- dir_c9ecf35bb6ca9c90f7c8106eb0f248ed&#45;&gt;dir_2ddfa6bbaecaa13cbf0c44c7a8ab174d -->
<g id="edge8" class="edge">
<title>dir_c9ecf35bb6ca9c90f7c8106eb0f248ed&#45;&gt;dir_2ddfa6bbaecaa13cbf0c44c7a8ab174d</title>
<path fill="none" stroke="black" d="M137,-215.7C137,-207.98 137,-198.71 137,-190.11"/>
<polygon fill="black" stroke="black" points="140.5,-190.1 137,-180.1 133.5,-190.1 140.5,-190.1"/>
<g id="a_edge8&#45;headlabel"><a xlink:href="dir_000080_000075.html" target="_top" xlink:title="2">
<text text-anchor="middle" x="143.34" y="-191.2" font-family="Helvetica,sans-Serif" font-size="10.00">2</text>
</a>
</g>
</g>
<!-- dir_330663fef904e37667f8b3fad7a8f8f3 -->
<g id="node3" class="node">
<title>dir_330663fef904e37667f8b3fad7a8f8f3</title>
<g id="a_node3"><a xlink:href="dir_330663fef904e37667f8b3fad7a8f8f3.html" target="_top" xlink:title="src">
<polygon fill="white" stroke="black" points="164,-324 110,-324 110,-288 164,-288 164,-324"/>
<text text-anchor="middle" x="137" y="-303.5" font-family="Helvetica,sans-Serif" font-size="10.00">src</text>
</a>
</g>
</g>
<!-- dir_330663fef904e37667f8b3fad7a8f8f3&#45;&gt;dir_c9ecf35bb6ca9c90f7c8106eb0f248ed -->
<g id="edge4" class="edge">
<title>dir_330663fef904e37667f8b3fad7a8f8f3&#45;&gt;dir_c9ecf35bb6ca9c90f7c8106eb0f248ed</title>
<path fill="none" stroke="black" d="M137,-287.7C137,-279.98 137,-270.71 137,-262.11"/>
<polygon fill="black" stroke="black" points="140.5,-262.1 137,-252.1 133.5,-262.1 140.5,-262.1"/>
<g id="a_edge4&#45;headlabel"><a xlink:href="dir_000083_000080.html" target="_top" xlink:title="3">
<text text-anchor="middle" x="143.34" y="-263.2" font-family="Helvetica,sans-Serif" font-size="10.00">3</text>
</a>
</g>
</g>
<!-- dir_330663fef904e37667f8b3fad7a8f8f3&#45;&gt;dir_4118ae531ffdde861fee1c6efaa3009d -->
<g id="edge3" class="edge">
<title>dir_330663fef904e37667f8b3fad7a8f8f3&#45;&gt;dir_4118ae531ffdde861fee1c6efaa3009d</title>
<path fill="none" stroke="black" d="M150.93,-287.75C158.38,-277.79 167.19,-264.76 173,-252 186.72,-221.88 187.74,-212.82 192,-180 194.48,-160.87 194.41,-81.76 191,-72 187.49,-61.95 181.25,-52.32 174.68,-44.08"/>
<polygon fill="black" stroke="black" points="177.24,-41.69 168.09,-36.35 171.92,-46.23 177.24,-41.69"/>
<g id="a_edge3&#45;headlabel"><a xlink:href="dir_000083_000094.html" target="_top" xlink:title="3">
<text text-anchor="middle" x="181.74" y="-40.08" font-family="Helvetica,sans-Serif" font-size="10.00">3</text>
</a>
</g>
</g>
<!-- dir_ef68f1e1f5148ff8ef7fb1c955106c3c&#45;&gt;dir_4118ae531ffdde861fee1c6efaa3009d -->
<g id="edge1" class="edge">
<title>dir_ef68f1e1f5148ff8ef7fb1c955106c3c&#45;&gt;dir_4118ae531ffdde861fee1c6efaa3009d</title>
<path fill="none" stroke="black" d="M26.23,-143.8C26.24,-124.43 29.04,-92.93 45,-72 59.32,-53.22 82.14,-40.59 102.85,-32.38"/>
<polygon fill="black" stroke="black" points="104.33,-35.57 112.49,-28.81 101.9,-29 104.33,-35.57"/>
<g id="a_edge1&#45;headlabel"><a xlink:href="dir_000084_000094.html" target="_top" xlink:title="4">
<text text-anchor="middle" x="101.95" y="-36.98" font-family="Helvetica,sans-Serif" font-size="10.00">4</text>
</a>
</g>
</g>
<!-- dir_ef68f1e1f5148ff8ef7fb1c955106c3c&#45;&gt;dir_995a11a27ec5ce2fce465ebbab555255 -->
<g id="edge2" class="edge">
<title>dir_ef68f1e1f5148ff8ef7fb1c955106c3c&#45;&gt;dir_995a11a27ec5ce2fce465ebbab555255</title>
<path fill="none" stroke="black" d="M47.27,-143.7C57.5,-134.97 70.06,-124.24 81.18,-114.75"/>
<polygon fill="black" stroke="black" points="83.63,-117.26 88.96,-108.1 79.09,-111.94 83.63,-117.26"/>
<g id="a_edge2&#45;headlabel"><a xlink:href="dir_000084_000052.html" target="_top" xlink:title="4">
<text text-anchor="middle" x="82.74" y="-119.25" font-family="Helvetica,sans-Serif" font-size="10.00">4</text>
</a>
</g>
</g>
<!-- dir_995a11a27ec5ce2fce465ebbab555255&#45;&gt;dir_4118ae531ffdde861fee1c6efaa3009d -->
<g id="edge9" class="edge">
<title>dir_995a11a27ec5ce2fce465ebbab555255&#45;&gt;dir_4118ae531ffdde861fee1c6efaa3009d</title>
<path fill="none" stroke="black" d="M119.13,-71.7C123.85,-63.64 129.56,-53.89 134.78,-44.98"/>
<polygon fill="black" stroke="black" points="137.95,-46.5 139.98,-36.1 131.91,-42.96 137.95,-46.5"/>
<g id="a_edge9&#45;headlabel"><a xlink:href="dir_000052_000094.html" target="_top" xlink:title="3">
<text text-anchor="middle" x="138.58" y="-48.54" font-family="Helvetica,sans-Serif" font-size="10.00">3</text>
</a>
</g>
</g>
<!-- dir_2ddfa6bbaecaa13cbf0c44c7a8ab174d&#45;&gt;dir_995a11a27ec5ce2fce465ebbab555255 -->
<g id="edge10" class="edge">
<title>dir_2ddfa6bbaecaa13cbf0c44c7a8ab174d&#45;&gt;dir_995a11a27ec5ce2fce465ebbab555255</title>
<path fill="none" stroke="black" d="M130.08,-143.7C126.93,-135.81 123.12,-126.3 119.62,-117.55"/>
<polygon fill="black" stroke="black" points="122.81,-116.09 115.84,-108.1 116.31,-118.69 122.81,-116.09"/>
<g id="a_edge10&#45;headlabel"><a xlink:href="dir_000075_000052.html" target="_top" xlink:title="4">
<text text-anchor="middle" x="126.78" y="-115.87" font-family="Helvetica,sans-Serif" font-size="10.00">4</text>
</a>
</g>
</g>
</g>
</svg>
