<?xml version="1.0" encoding="UTF-8" standalone="no"?>
<!DOCTYPE svg PUBLIC "-//W3C//DTD SVG 1.1//EN"
 "http://www.w3.org/Graphics/SVG/1.1/DTD/svg11.dtd">
<!-- Generated by graphviz version 2.43.0 (0)
 -->
<!-- Title: YarpUtilities/include/BipedalLocomotion Pages: 1 -->
<svg width="369pt" height="184pt"
 viewBox="0.00 0.00 369.00 184.35" xmlns="http://www.w3.org/2000/svg" xmlns:xlink="http://www.w3.org/1999/xlink">
<g id="graph0" class="graph" transform="scale(1 1) rotate(0) translate(4 180.35)">
<title>YarpUtilities/include/BipedalLocomotion</title>
<g id="clust1" class="cluster">
<title>clusterdir_12b71a80e2ec12f6f36343f858596976</title>
<g id="a_clust1"><a xlink:href="dir_12b71a80e2ec12f6f36343f858596976.html" target="_top" xlink:title="include">
<polygon fill="#ddddee" stroke="black" points="8,-56 8,-143 243,-143 243,-56 8,-56"/>
<text text-anchor="middle" x="125.5" y="-131" font-family="Helvetica,sans-Serif" font-size="10.00">include</text>
</a>
</g>
</g>
<g id="clust2" class="cluster">
<title>clusterdir_e64420540d8a40b091ba5d77d13addeb</title>
<g id="a_clust2"><a xlink:href="dir_e64420540d8a40b091ba5d77d13addeb.html" target="_top">
<polygon fill="#eeeeff" stroke="black" points="16,-64 16,-116 235,-116 235,-64 16,-64"/>
</a>
</g>
</g>
<!-- dir_e64420540d8a40b091ba5d77d13addeb -->
<g id="node1" class="node">
<title>dir_e64420540d8a40b091ba5d77d13addeb</title>
<text text-anchor="middle" x="172" y="-87.5" font-family="Helvetica,sans-Serif" font-size="10.00">BipedalLocomotion</text>
</g>
<!-- dir_d792c8169525b3134e3d3a9911cdd860 -->
<g id="node2" class="node">
<title>dir_d792c8169525b3134e3d3a9911cdd860</title>
<g id="a_node2"><a xlink:href="dir_d792c8169525b3134e3d3a9911cdd860.html" target="_top" xlink:title="YarpUtilities">
<polygon fill="white" stroke="black" points="98.5,-108 23.5,-108 23.5,-72 98.5,-72 98.5,-108"/>
<text text-anchor="middle" x="61" y="-87.5" font-family="Helvetica,sans-Serif" font-size="10.00">YarpUtilities</text>
</a>
</g>
</g>
<!-- dir_4118ae531ffdde861fee1c6efaa3009d -->
<g id="node3" class="node">
<title>dir_4118ae531ffdde861fee1c6efaa3009d</title>
<g id="a_node3"><a xlink:href="dir_4118ae531ffdde861fee1c6efaa3009d.html" target="_top" xlink:title="TextLogging">
<polygon fill="none" stroke="red" points="220.5,-36 145.5,-36 145.5,0 220.5,0 220.5,-36"/>
<text text-anchor="middle" x="183" y="-15.5" font-family="Helvetica,sans-Serif" font-size="10.00">TextLogging</text>
</a>
</g>
</g>
<!-- dir_d792c8169525b3134e3d3a9911cdd860&#45;&gt;dir_4118ae531ffdde861fee1c6efaa3009d -->
<g id="edge1" class="edge">
<title>dir_d792c8169525b3134e3d3a9911cdd860&#45;&gt;dir_4118ae531ffdde861fee1c6efaa3009d</title>
<path fill="none" stroke="black" d="M83.96,-71.82C91.46,-66.5 99.94,-60.78 108,-56 116.99,-50.67 126.86,-45.41 136.39,-40.6"/>
<polygon fill="black" stroke="black" points="137.99,-43.72 145.4,-36.15 134.88,-37.45 137.99,-43.72"/>
<g id="a_edge1&#45;headlabel"><a xlink:href="dir_000102_000094.html" target="_top" xlink:title="1">
<text text-anchor="middle" x="136.02" y="-45.36" font-family="Helvetica,sans-Serif" font-size="10.00">1</text>
</a>
</g>
</g>
<!-- dir_995a11a27ec5ce2fce465ebbab555255 -->
<g id="node4" class="node">
<title>dir_995a11a27ec5ce2fce465ebbab555255</title>
<g id="a_node4"><a xlink:href="dir_995a11a27ec5ce2fce465ebbab555255.html" target="_top" xlink:title="ParametersHandler">
<polygon fill="none" stroke="red" points="361,-108 251,-108 251,-72 361,-72 361,-108"/>
<text text-anchor="middle" x="306" y="-87.5" font-family="Helvetica,sans-Serif" font-size="10.00">ParametersHandler</text>
</a>
</g>
</g>
<!-- dir_d792c8169525b3134e3d3a9911cdd860&#45;&gt;dir_995a11a27ec5ce2fce465ebbab555255 -->
<g id="edge2" class="edge">
<title>dir_d792c8169525b3134e3d3a9911cdd860&#45;&gt;dir_995a11a27ec5ce2fce465ebbab555255</title>
<path fill="none" stroke="black" d="M69.35,-108.16C78.38,-125.36 94.54,-150.11 117,-161 162.19,-182.91 183.28,-179.43 230,-161 252.74,-152.03 272.69,-132.69 286.43,-116.45"/>
<polygon fill="black" stroke="black" points="289.45,-118.29 293.04,-108.32 284.02,-113.88 289.45,-118.29"/>
<g id="a_edge2&#45;headlabel"><a xlink:href="dir_000102_000052.html" target="_top" xlink:title="1">
<text text-anchor="middle" x="289.39" y="-120.37" font-family="Helvetica,sans-Serif" font-size="10.00">1</text>
</a>
</g>
</g>
<!-- dir_995a11a27ec5ce2fce465ebbab555255&#45;&gt;dir_d792c8169525b3134e3d3a9911cdd860 -->
<g id="edge4" class="edge">
<title>dir_995a11a27ec5ce2fce465ebbab555255&#45;&gt;dir_d792c8169525b3134e3d3a9911cdd860</title>
<path fill="none" stroke="black" d="M293.04,-108.32C279.56,-125.63 256.71,-150.47 230,-161 183.28,-179.43 162.19,-182.91 117,-161 98.22,-151.9 83.85,-133.11 74.37,-117.14"/>
<polygon fill="black" stroke="black" points="77.28,-115.19 69.35,-108.16 71.17,-118.6 77.28,-115.19"/>
<g id="a_edge4&#45;headlabel"><a xlink:href="dir_000052_000102.html" target="_top" xlink:title="1">
<text text-anchor="middle" x="81.52" y="-114.44" font-family="Helvetica,sans-Serif" font-size="10.00">1</text>
</a>
</g>
</g>
<!-- dir_995a11a27ec5ce2fce465ebbab555255&#45;&gt;dir_4118ae531ffdde861fee1c6efaa3009d -->
<g id="edge3" class="edge">
<title>dir_995a11a27ec5ce2fce465ebbab555255&#45;&gt;dir_4118ae531ffdde861fee1c6efaa3009d</title>
<path fill="none" stroke="black" d="M275.91,-71.88C259.68,-62.64 239.46,-51.13 222.03,-41.21"/>
<polygon fill="black" stroke="black" points="223.63,-38.09 213.2,-36.19 220.16,-44.18 223.63,-38.09"/>
<g id="a_edge3&#45;headlabel"><a xlink:href="dir_000052_000094.html" target="_top" xlink:title="3">
<text text-anchor="middle" x="228.16" y="-34.9" font-family="Helvetica,sans-Serif" font-size="10.00">3</text>
</a>
</g>
</g>
</g>
</svg>
