<?xml version="1.0" encoding="UTF-8" standalone="no"?>
<!DOCTYPE svg PUBLIC "-//W3C//DTD SVG 1.1//EN"
 "http://www.w3.org/Graphics/SVG/1.1/DTD/svg11.dtd">
<!-- Generated by graphviz version 2.43.0 (0)
 -->
<!-- Title: TSID/include/BipedalLocomotion/TSID Pages: 1 -->
<svg width="134pt" height="223pt"
 viewBox="0.00 0.00 134.00 223.00" xmlns="http://www.w3.org/2000/svg" xmlns:xlink="http://www.w3.org/1999/xlink">
<g id="graph0" class="graph" transform="scale(1 1) rotate(0) translate(4 219)">
<title>TSID/include/BipedalLocomotion/TSID</title>
<g id="clust1" class="cluster">
<title>clusterdir_cad7f247e84b7a43650490550f84fc11</title>
<g id="a_clust1"><a xlink:href="dir_cad7f247e84b7a43650490550f84fc11.html" target="_top" xlink:title="BipedalLocomotion">
<polygon fill="#ddddee" stroke="black" points="8,-136 8,-207 118,-207 118,-136 8,-136"/>
<text text-anchor="middle" x="63" y="-195" font-family="Helvetica,sans-Serif" font-size="10.00">BipedalLocomotion</text>
</a>
</g>
</g>
<!-- dir_14e94b1d2b214f46e7485b8938bfc05d -->
<g id="node1" class="node">
<title>dir_14e94b1d2b214f46e7485b8938bfc05d</title>
<g id="a_node1"><a xlink:href="dir_14e94b1d2b214f46e7485b8938bfc05d.html" target="_top" xlink:title="TSID">
<polygon fill="#eeeeff" stroke="black" points="90,-180 36,-180 36,-144 90,-144 90,-180"/>
<text text-anchor="middle" x="63" y="-159.5" font-family="Helvetica,sans-Serif" font-size="10.00">TSID</text>
</a>
</g>
</g>
<!-- dir_ef68f1e1f5148ff8ef7fb1c955106c3c -->
<g id="node2" class="node">
<title>dir_ef68f1e1f5148ff8ef7fb1c955106c3c</title>
<g id="a_node2"><a xlink:href="dir_ef68f1e1f5148ff8ef7fb1c955106c3c.html" target="_top" xlink:title="System">
<polygon fill="none" stroke="red" points="90,-36 36,-36 36,0 90,0 90,-36"/>
<text text-anchor="middle" x="63" y="-15.5" font-family="Helvetica,sans-Serif" font-size="10.00">System</text>
</a>
</g>
</g>
<!-- dir_14e94b1d2b214f46e7485b8938bfc05d&#45;&gt;dir_ef68f1e1f5148ff8ef7fb1c955106c3c -->
<g id="edge1" class="edge">
<title>dir_14e94b1d2b214f46e7485b8938bfc05d&#45;&gt;dir_ef68f1e1f5148ff8ef7fb1c955106c3c</title>
<path fill="none" stroke="black" d="M59.35,-143.91C57.32,-133.57 55.02,-120.09 54,-108 52.66,-92.06 52.66,-87.94 54,-72 54.72,-63.5 56.07,-54.31 57.51,-46.01"/>
<polygon fill="black" stroke="black" points="60.97,-46.56 59.35,-36.09 54.09,-45.29 60.97,-46.56"/>
<g id="a_edge1&#45;headlabel"><a xlink:href="dir_000044_000084.html" target="_top" xlink:title="9">
<text text-anchor="middle" x="63.11" y="-48.11" font-family="Helvetica,sans-Serif" font-size="10.00">9</text>
</a>
</g>
</g>
<!-- dir_50541d64f188ef934de78ba6c49ffdbe -->
<g id="node3" class="node">
<title>dir_50541d64f188ef934de78ba6c49ffdbe</title>
<g id="a_node3"><a xlink:href="dir_50541d64f188ef934de78ba6c49ffdbe.html" target="_top" xlink:title="Contacts">
<polygon fill="none" stroke="red" points="121.5,-108 62.5,-108 62.5,-72 121.5,-72 121.5,-108"/>
<text text-anchor="middle" x="92" y="-87.5" font-family="Helvetica,sans-Serif" font-size="10.00">Contacts</text>
</a>
</g>
</g>
<!-- dir_14e94b1d2b214f46e7485b8938bfc05d&#45;&gt;dir_50541d64f188ef934de78ba6c49ffdbe -->
<g id="edge2" class="edge">
<title>dir_14e94b1d2b214f46e7485b8938bfc05d&#45;&gt;dir_50541d64f188ef934de78ba6c49ffdbe</title>
<path fill="none" stroke="black" d="M70.17,-143.7C73.43,-135.81 77.37,-126.3 81,-117.55"/>
<polygon fill="black" stroke="black" points="84.32,-118.68 84.91,-108.1 77.85,-116 84.32,-118.68"/>
<g id="a_edge2&#45;headlabel"><a xlink:href="dir_000044_000011.html" target="_top" xlink:title="1">
<text text-anchor="middle" x="85.57" y="-120.59" font-family="Helvetica,sans-Serif" font-size="10.00">1</text>
</a>
</g>
</g>
<!-- dir_50541d64f188ef934de78ba6c49ffdbe&#45;&gt;dir_ef68f1e1f5148ff8ef7fb1c955106c3c -->
<g id="edge3" class="edge">
<title>dir_50541d64f188ef934de78ba6c49ffdbe&#45;&gt;dir_ef68f1e1f5148ff8ef7fb1c955106c3c</title>
<path fill="none" stroke="black" d="M84.83,-71.7C81.57,-63.81 77.63,-54.3 74,-45.55"/>
<polygon fill="black" stroke="black" points="77.15,-44 70.09,-36.1 70.68,-46.68 77.15,-44"/>
<g id="a_edge3&#45;headlabel"><a xlink:href="dir_000011_000084.html" target="_top" xlink:title="1">
<text text-anchor="middle" x="81.15" y="-43.74" font-family="Helvetica,sans-Serif" font-size="10.00">1</text>
</a>
</g>
</g>
</g>
</svg>
