<?xml version="1.0" encoding="UTF-8" standalone="no"?>
<!DOCTYPE svg PUBLIC "-//W3C//DTD SVG 1.1//EN"
 "http://www.w3.org/Graphics/SVG/1.1/DTD/svg11.dtd">
<!-- Generated by graphviz version 2.43.0 (0)
 -->
<!-- Title: ParametersHandler Pages: 1 -->
<svg width="449pt" height="204pt"
 viewBox="0.00 0.00 448.64 204.00" xmlns="http://www.w3.org/2000/svg" xmlns:xlink="http://www.w3.org/1999/xlink">
<g id="graph0" class="graph" transform="scale(1 1) rotate(0) translate(4 200)">
<title>ParametersHandler</title>
<g id="clust1" class="cluster">
<title>clusterdir_995a11a27ec5ce2fce465ebbab555255</title>
<g id="a_clust1"><a xlink:href="dir_995a11a27ec5ce2fce465ebbab555255.html" target="_top">
<polygon fill="#eeeeff" stroke="black" points="8,-64 8,-188 340,-188 340,-64 8,-64"/>
</a>
</g>
</g>
<!-- dir_995a11a27ec5ce2fce465ebbab555255 -->
<g id="node1" class="node">
<title>dir_995a11a27ec5ce2fce465ebbab555255</title>
<text text-anchor="middle" x="277" y="-159.5" font-family="Helvetica,sans-Serif" font-size="10.00">ParametersHandler</text>
</g>
<!-- dir_c2ff16d22970d8b79330500bc8a01502 -->
<g id="node2" class="node">
<title>dir_c2ff16d22970d8b79330500bc8a01502</title>
<g id="a_node2"><a xlink:href="dir_c2ff16d22970d8b79330500bc8a01502.html" target="_top" xlink:title="include">
<polygon fill="white" stroke="red" points="202,-108 148,-108 148,-72 202,-72 202,-108"/>
<text text-anchor="middle" x="175" y="-87.5" font-family="Helvetica,sans-Serif" font-size="10.00">include</text>
</a>
</g>
</g>
<!-- dir_4118ae531ffdde861fee1c6efaa3009d -->
<g id="node5" class="node">
<title>dir_4118ae531ffdde861fee1c6efaa3009d</title>
<g id="a_node5"><a xlink:href="dir_4118ae531ffdde861fee1c6efaa3009d.html" target="_top" xlink:title="TextLogging">
<polygon fill="none" stroke="red" points="388.5,-36 313.5,-36 313.5,0 388.5,0 388.5,-36"/>
<text text-anchor="middle" x="351" y="-15.5" font-family="Helvetica,sans-Serif" font-size="10.00">TextLogging</text>
</a>
</g>
</g>
<!-- dir_c2ff16d22970d8b79330500bc8a01502&#45;&gt;dir_4118ae531ffdde861fee1c6efaa3009d -->
<g id="edge1" class="edge">
<title>dir_c2ff16d22970d8b79330500bc8a01502&#45;&gt;dir_4118ae531ffdde861fee1c6efaa3009d</title>
<path fill="none" stroke="black" d="M202.11,-78.22C229.23,-67.43 271.48,-50.63 304.06,-37.67"/>
<polygon fill="black" stroke="black" points="305.4,-40.9 313.4,-33.96 302.81,-34.4 305.4,-40.9"/>
<g id="a_edge1&#45;headlabel"><a xlink:href="dir_000053_000094.html" target="_top" xlink:title="1">
<text text-anchor="middle" x="303.11" y="-42.37" font-family="Helvetica,sans-Serif" font-size="10.00">1</text>
</a>
</g>
</g>
<!-- dir_c0d5990a54af58a8d638adaf50280d31 -->
<g id="node3" class="node">
<title>dir_c0d5990a54af58a8d638adaf50280d31</title>
<g id="a_node3"><a xlink:href="dir_c0d5990a54af58a8d638adaf50280d31.html" target="_top" xlink:title="src">
<polygon fill="white" stroke="black" points="70,-180 16,-180 16,-144 70,-144 70,-180"/>
<text text-anchor="middle" x="43" y="-159.5" font-family="Helvetica,sans-Serif" font-size="10.00">src</text>
</a>
</g>
</g>
<!-- dir_c0d5990a54af58a8d638adaf50280d31&#45;&gt;dir_c2ff16d22970d8b79330500bc8a01502 -->
<g id="edge8" class="edge">
<title>dir_c0d5990a54af58a8d638adaf50280d31&#45;&gt;dir_c2ff16d22970d8b79330500bc8a01502</title>
<path fill="none" stroke="black" d="M70.03,-146.67C89.83,-136.17 116.92,-121.8 138.62,-110.29"/>
<polygon fill="black" stroke="black" points="140.36,-113.33 147.55,-105.56 137.08,-107.15 140.36,-113.33"/>
<g id="a_edge8&#45;headlabel"><a xlink:href="dir_000056_000053.html" target="_top" xlink:title="1">
<text text-anchor="middle" x="138.51" y="-115.03" font-family="Helvetica,sans-Serif" font-size="10.00">1</text>
</a>
</g>
</g>
<!-- dir_c0d5990a54af58a8d638adaf50280d31&#45;&gt;dir_4118ae531ffdde861fee1c6efaa3009d -->
<g id="edge7" class="edge">
<title>dir_c0d5990a54af58a8d638adaf50280d31&#45;&gt;dir_4118ae531ffdde861fee1c6efaa3009d</title>
<path fill="none" stroke="black" d="M70.27,-147.87C73.52,-146.49 76.81,-145.16 80,-144 136.73,-123.33 155.8,-132.47 211,-108 251.15,-90.2 293.15,-62.03 320.54,-42.15"/>
<polygon fill="black" stroke="black" points="322.91,-44.76 328.9,-36.02 318.77,-39.11 322.91,-44.76"/>
<g id="a_edge7&#45;headlabel"><a xlink:href="dir_000056_000094.html" target="_top" xlink:title="1">
<text text-anchor="middle" x="321.69" y="-46.67" font-family="Helvetica,sans-Serif" font-size="10.00">1</text>
</a>
</g>
</g>
<!-- dir_6a34c73d6eb3da898e93a79ffdd09be5 -->
<g id="node4" class="node">
<title>dir_6a34c73d6eb3da898e93a79ffdd09be5</title>
<g id="a_node4"><a xlink:href="dir_6a34c73d6eb3da898e93a79ffdd09be5.html" target="_top" xlink:title="YarpImplementation">
<polygon fill="white" stroke="red" points="203.5,-180 88.5,-180 88.5,-144 203.5,-144 203.5,-180"/>
<text text-anchor="middle" x="146" y="-159.5" font-family="Helvetica,sans-Serif" font-size="10.00">YarpImplementation</text>
</a>
</g>
</g>
<!-- dir_6a34c73d6eb3da898e93a79ffdd09be5&#45;&gt;dir_c2ff16d22970d8b79330500bc8a01502 -->
<g id="edge3" class="edge">
<title>dir_6a34c73d6eb3da898e93a79ffdd09be5&#45;&gt;dir_c2ff16d22970d8b79330500bc8a01502</title>
<path fill="none" stroke="black" d="M153.17,-143.7C156.43,-135.81 160.37,-126.3 164,-117.55"/>
<polygon fill="black" stroke="black" points="167.32,-118.68 167.91,-108.1 160.85,-116 167.32,-118.68"/>
<g id="a_edge3&#45;headlabel"><a xlink:href="dir_000057_000053.html" target="_top" xlink:title="1">
<text text-anchor="middle" x="168.57" y="-120.59" font-family="Helvetica,sans-Serif" font-size="10.00">1</text>
</a>
</g>
</g>
<!-- dir_6a34c73d6eb3da898e93a79ffdd09be5&#45;&gt;dir_4118ae531ffdde861fee1c6efaa3009d -->
<g id="edge2" class="edge">
<title>dir_6a34c73d6eb3da898e93a79ffdd09be5&#45;&gt;dir_4118ae531ffdde861fee1c6efaa3009d</title>
<path fill="none" stroke="black" d="M203.67,-146.03C206.82,-145.32 209.95,-144.64 213,-144 261.28,-133.93 400.08,-145.6 432,-108 444.66,-93.09 441.92,-80.85 432,-64 424.31,-50.93 411.3,-41.39 397.94,-34.54"/>
<polygon fill="black" stroke="black" points="399.23,-31.28 388.69,-30.22 396.27,-37.63 399.23,-31.28"/>
<g id="a_edge2&#45;headlabel"><a xlink:href="dir_000057_000094.html" target="_top" xlink:title="1">
<text text-anchor="middle" x="403.69" y="-27.73" font-family="Helvetica,sans-Serif" font-size="10.00">1</text>
</a>
</g>
</g>
<!-- dir_9f4ce4849845ca54ac66640ab17f25ff -->
<g id="node6" class="node">
<title>dir_9f4ce4849845ca54ac66640ab17f25ff</title>
<g id="a_node6"><a xlink:href="dir_9f4ce4849845ca54ac66640ab17f25ff.html" target="_top" xlink:title="YarpUtilities">
<polygon fill="none" stroke="red" points="422.5,-108 347.5,-108 347.5,-72 422.5,-72 422.5,-108"/>
<text text-anchor="middle" x="385" y="-87.5" font-family="Helvetica,sans-Serif" font-size="10.00">YarpUtilities</text>
</a>
</g>
</g>
<!-- dir_6a34c73d6eb3da898e93a79ffdd09be5&#45;&gt;dir_9f4ce4849845ca54ac66640ab17f25ff -->
<g id="edge4" class="edge">
<title>dir_6a34c73d6eb3da898e93a79ffdd09be5&#45;&gt;dir_9f4ce4849845ca54ac66640ab17f25ff</title>
<path fill="none" stroke="black" d="M203.72,-145.96C249.92,-133.87 310.9,-117.76 337.33,-109.96"/>
<polygon fill="black" stroke="black" points="338.58,-113.23 347.09,-106.92 336.5,-106.55 338.58,-113.23"/>
<g id="a_edge4&#45;headlabel"><a xlink:href="dir_000057_000099.html" target="_top" xlink:title="1">
<text text-anchor="middle" x="335.99" y="-114.51" font-family="Helvetica,sans-Serif" font-size="10.00">1</text>
</a>
</g>
</g>
<!-- dir_9f4ce4849845ca54ac66640ab17f25ff&#45;&gt;dir_c2ff16d22970d8b79330500bc8a01502 -->
<g id="edge6" class="edge">
<title>dir_9f4ce4849845ca54ac66640ab17f25ff&#45;&gt;dir_c2ff16d22970d8b79330500bc8a01502</title>
<path fill="none" stroke="black" d="M347.49,-90C302.42,-90 257.36,-90 212.29,-90"/>
<polygon fill="black" stroke="black" points="212.07,-86.5 202.07,-90 212.07,-93.5 212.07,-86.5"/>
<g id="a_edge6&#45;headlabel"><a xlink:href="dir_000099_000053.html" target="_top" xlink:title="1">
<text text-anchor="middle" x="215.66" y="-81.16" font-family="Helvetica,sans-Serif" font-size="10.00">1</text>
</a>
</g>
</g>
<!-- dir_9f4ce4849845ca54ac66640ab17f25ff&#45;&gt;dir_4118ae531ffdde861fee1c6efaa3009d -->
<g id="edge5" class="edge">
<title>dir_9f4ce4849845ca54ac66640ab17f25ff&#45;&gt;dir_4118ae531ffdde861fee1c6efaa3009d</title>
<path fill="none" stroke="black" d="M376.6,-71.7C372.73,-63.73 368.05,-54.1 363.76,-45.26"/>
<polygon fill="black" stroke="black" points="366.83,-43.57 359.31,-36.1 360.53,-46.63 366.83,-43.57"/>
<g id="a_edge5&#45;headlabel"><a xlink:href="dir_000099_000094.html" target="_top" xlink:title="2">
<text text-anchor="middle" x="370.95" y="-43.06" font-family="Helvetica,sans-Serif" font-size="10.00">2</text>
</a>
</g>
</g>
</g>
</svg>
