<?xml version="1.0" encoding="UTF-8" standalone="no"?>
<!DOCTYPE svg PUBLIC "-//W3C//DTD SVG 1.1//EN"
 "http://www.w3.org/Graphics/SVG/1.1/DTD/svg11.dtd">
<!-- Generated by graphviz version 2.43.0 (0)
 -->
<!-- Title: Contacts/include Pages: 1 -->
<svg width="258pt" height="231pt"
 viewBox="0.00 0.00 258.00 231.00" xmlns="http://www.w3.org/2000/svg" xmlns:xlink="http://www.w3.org/1999/xlink">
<g id="graph0" class="graph" transform="scale(1 1) rotate(0) translate(4 227)">
<title>Contacts/include</title>
<g id="clust1" class="cluster">
<title>clusterdir_50541d64f188ef934de78ba6c49ffdbe</title>
<g id="a_clust1"><a xlink:href="dir_50541d64f188ef934de78ba6c49ffdbe.html" target="_top" xlink:title="Contacts">
<polygon fill="#ddddee" stroke="black" points="28,-128 28,-215 242,-215 242,-128 28,-128"/>
<text text-anchor="middle" x="135" y="-203" font-family="Helvetica,sans-Serif" font-size="10.00">Contacts</text>
</a>
</g>
</g>
<g id="clust2" class="cluster">
<title>clusterdir_8b8b9ea914891d9a3d7877d38bac2629</title>
<g id="a_clust2"><a xlink:href="dir_8b8b9ea914891d9a3d7877d38bac2629.html" target="_top">
<polygon fill="#eeeeff" stroke="black" points="36,-136 36,-188 234,-188 234,-136 36,-136"/>
</a>
</g>
</g>
<!-- dir_8b8b9ea914891d9a3d7877d38bac2629 -->
<g id="node1" class="node">
<title>dir_8b8b9ea914891d9a3d7877d38bac2629</title>
<text text-anchor="middle" x="199" y="-159.5" font-family="Helvetica,sans-Serif" font-size="10.00">include</text>
</g>
<!-- dir_3f05e5bb63a57bd72eccc7af5274c138 -->
<g id="node2" class="node">
<title>dir_3f05e5bb63a57bd72eccc7af5274c138</title>
<g id="a_node2"><a xlink:href="dir_3f05e5bb63a57bd72eccc7af5274c138.html" target="_top" xlink:title="BipedalLocomotion">
<polygon fill="white" stroke="red" points="154,-180 44,-180 44,-144 154,-144 154,-180"/>
<text text-anchor="middle" x="99" y="-159.5" font-family="Helvetica,sans-Serif" font-size="10.00">BipedalLocomotion</text>
</a>
</g>
</g>
<!-- dir_ef68f1e1f5148ff8ef7fb1c955106c3c -->
<g id="node3" class="node">
<title>dir_ef68f1e1f5148ff8ef7fb1c955106c3c</title>
<g id="a_node3"><a xlink:href="dir_ef68f1e1f5148ff8ef7fb1c955106c3c.html" target="_top" xlink:title="System">
<polygon fill="none" stroke="red" points="54,-108 0,-108 0,-72 54,-72 54,-108"/>
<text text-anchor="middle" x="27" y="-87.5" font-family="Helvetica,sans-Serif" font-size="10.00">System</text>
</a>
</g>
</g>
<!-- dir_3f05e5bb63a57bd72eccc7af5274c138&#45;&gt;dir_ef68f1e1f5148ff8ef7fb1c955106c3c -->
<g id="edge3" class="edge">
<title>dir_3f05e5bb63a57bd72eccc7af5274c138&#45;&gt;dir_ef68f1e1f5148ff8ef7fb1c955106c3c</title>
<path fill="none" stroke="black" d="M81.2,-143.7C72.4,-135.14 61.62,-124.66 52,-115.3"/>
<polygon fill="black" stroke="black" points="54.2,-112.57 44.59,-108.1 49.32,-117.58 54.2,-112.57"/>
<g id="a_edge3&#45;headlabel"><a xlink:href="dir_000013_000084.html" target="_top" xlink:title="1">
<text text-anchor="middle" x="58.76" y="-110.54" font-family="Helvetica,sans-Serif" font-size="10.00">1</text>
</a>
</g>
</g>
<!-- dir_3813464283bee2267f39dcf080a84d74 -->
<g id="node4" class="node">
<title>dir_3813464283bee2267f39dcf080a84d74</title>
<g id="a_node4"><a xlink:href="dir_3813464283bee2267f39dcf080a84d74.html" target="_top" xlink:title="Math">
<polygon fill="none" stroke="red" points="126,-108 72,-108 72,-72 126,-72 126,-108"/>
<text text-anchor="middle" x="99" y="-87.5" font-family="Helvetica,sans-Serif" font-size="10.00">Math</text>
</a>
</g>
</g>
<!-- dir_3f05e5bb63a57bd72eccc7af5274c138&#45;&gt;dir_3813464283bee2267f39dcf080a84d74 -->
<g id="edge4" class="edge">
<title>dir_3f05e5bb63a57bd72eccc7af5274c138&#45;&gt;dir_3813464283bee2267f39dcf080a84d74</title>
<path fill="none" stroke="black" d="M99,-143.7C99,-135.98 99,-126.71 99,-118.11"/>
<polygon fill="black" stroke="black" points="102.5,-118.1 99,-108.1 95.5,-118.1 102.5,-118.1"/>
<g id="a_edge4&#45;headlabel"><a xlink:href="dir_000013_000047.html" target="_top" xlink:title="1">
<text text-anchor="middle" x="105.34" y="-119.2" font-family="Helvetica,sans-Serif" font-size="10.00">1</text>
</a>
</g>
</g>
<!-- dir_995a11a27ec5ce2fce465ebbab555255 -->
<g id="node5" class="node">
<title>dir_995a11a27ec5ce2fce465ebbab555255</title>
<g id="a_node5"><a xlink:href="dir_995a11a27ec5ce2fce465ebbab555255.html" target="_top" xlink:title="ParametersHandler">
<polygon fill="none" stroke="red" points="154,-36 44,-36 44,0 154,0 154,-36"/>
<text text-anchor="middle" x="99" y="-15.5" font-family="Helvetica,sans-Serif" font-size="10.00">ParametersHandler</text>
</a>
</g>
</g>
<!-- dir_3f05e5bb63a57bd72eccc7af5274c138&#45;&gt;dir_995a11a27ec5ce2fce465ebbab555255 -->
<g id="edge5" class="edge">
<title>dir_3f05e5bb63a57bd72eccc7af5274c138&#45;&gt;dir_995a11a27ec5ce2fce465ebbab555255</title>
<path fill="none" stroke="black" d="M114.61,-143.77C122.37,-134.03 130.95,-121.18 135,-108 139.7,-92.71 139.7,-87.29 135,-72 131.99,-62.22 126.49,-52.62 120.68,-44.33"/>
<polygon fill="black" stroke="black" points="123.41,-42.13 114.61,-36.23 117.81,-46.33 123.41,-42.13"/>
<g id="a_edge5&#45;headlabel"><a xlink:href="dir_000013_000052.html" target="_top" xlink:title="2">
<text text-anchor="middle" x="127.83" y="-40.8" font-family="Helvetica,sans-Serif" font-size="10.00">2</text>
</a>
</g>
</g>
<!-- dir_ef68f1e1f5148ff8ef7fb1c955106c3c&#45;&gt;dir_995a11a27ec5ce2fce465ebbab555255 -->
<g id="edge1" class="edge">
<title>dir_ef68f1e1f5148ff8ef7fb1c955106c3c&#45;&gt;dir_995a11a27ec5ce2fce465ebbab555255</title>
<path fill="none" stroke="black" d="M44.8,-71.7C53.6,-63.14 64.38,-52.66 74,-43.3"/>
<polygon fill="black" stroke="black" points="76.68,-45.58 81.41,-36.1 71.8,-40.57 76.68,-45.58"/>
<g id="a_edge1&#45;headlabel"><a xlink:href="dir_000084_000052.html" target="_top" xlink:title="4">
<text text-anchor="middle" x="76.08" y="-47.63" font-family="Helvetica,sans-Serif" font-size="10.00">4</text>
</a>
</g>
</g>
<!-- dir_3813464283bee2267f39dcf080a84d74&#45;&gt;dir_995a11a27ec5ce2fce465ebbab555255 -->
<g id="edge2" class="edge">
<title>dir_3813464283bee2267f39dcf080a84d74&#45;&gt;dir_995a11a27ec5ce2fce465ebbab555255</title>
<path fill="none" stroke="black" d="M99,-71.7C99,-63.98 99,-54.71 99,-46.11"/>
<polygon fill="black" stroke="black" points="102.5,-46.1 99,-36.1 95.5,-46.1 102.5,-46.1"/>
<g id="a_edge2&#45;headlabel"><a xlink:href="dir_000047_000052.html" target="_top" xlink:title="2">
<text text-anchor="middle" x="105.34" y="-47.2" font-family="Helvetica,sans-Serif" font-size="10.00">2</text>
</a>
</g>
</g>
</g>
</svg>
