<?xml version="1.0" encoding="UTF-8" standalone="no"?>
<!DOCTYPE svg PUBLIC "-//W3C//DTD SVG 1.1//EN"
 "http://www.w3.org/Graphics/SVG/1.1/DTD/svg11.dtd">
<!-- Generated by graphviz version 2.43.0 (0)
 -->
<!-- Title: YarpUtilities Pages: 1 -->
<svg width="297pt" height="204pt"
 viewBox="0.00 0.00 297.00 204.00" xmlns="http://www.w3.org/2000/svg" xmlns:xlink="http://www.w3.org/1999/xlink">
<g id="graph0" class="graph" transform="scale(1 1) rotate(0) translate(4 200)">
<title>YarpUtilities</title>
<g id="clust1" class="cluster">
<title>clusterdir_9f4ce4849845ca54ac66640ab17f25ff</title>
<g id="a_clust1"><a xlink:href="dir_9f4ce4849845ca54ac66640ab17f25ff.html" target="_top">
<polygon fill="#eeeeff" stroke="black" points="8,-64 8,-188 171,-188 171,-64 8,-64"/>
</a>
</g>
</g>
<!-- dir_9f4ce4849845ca54ac66640ab17f25ff -->
<g id="node1" class="node">
<title>dir_9f4ce4849845ca54ac66640ab17f25ff</title>
<text text-anchor="middle" x="126" y="-159.5" font-family="Helvetica,sans-Serif" font-size="10.00">YarpUtilities</text>
</g>
<!-- dir_12b71a80e2ec12f6f36343f858596976 -->
<g id="node2" class="node">
<title>dir_12b71a80e2ec12f6f36343f858596976</title>
<g id="a_node2"><a xlink:href="dir_12b71a80e2ec12f6f36343f858596976.html" target="_top" xlink:title="include">
<polygon fill="white" stroke="red" points="96,-108 42,-108 42,-72 96,-72 96,-108"/>
<text text-anchor="middle" x="69" y="-87.5" font-family="Helvetica,sans-Serif" font-size="10.00">include</text>
</a>
</g>
</g>
<!-- dir_4118ae531ffdde861fee1c6efaa3009d -->
<g id="node4" class="node">
<title>dir_4118ae531ffdde861fee1c6efaa3009d</title>
<g id="a_node4"><a xlink:href="dir_4118ae531ffdde861fee1c6efaa3009d.html" target="_top" xlink:title="TextLogging">
<polygon fill="none" stroke="red" points="161.5,-36 86.5,-36 86.5,0 161.5,0 161.5,-36"/>
<text text-anchor="middle" x="124" y="-15.5" font-family="Helvetica,sans-Serif" font-size="10.00">TextLogging</text>
</a>
</g>
</g>
<!-- dir_12b71a80e2ec12f6f36343f858596976&#45;&gt;dir_4118ae531ffdde861fee1c6efaa3009d -->
<g id="edge3" class="edge">
<title>dir_12b71a80e2ec12f6f36343f858596976&#45;&gt;dir_4118ae531ffdde861fee1c6efaa3009d</title>
<path fill="none" stroke="black" d="M82.6,-71.7C89.12,-63.39 97.07,-53.28 104.25,-44.14"/>
<polygon fill="black" stroke="black" points="107.13,-46.13 110.56,-36.1 101.63,-41.81 107.13,-46.13"/>
<g id="a_edge3&#45;headlabel"><a xlink:href="dir_000100_000094.html" target="_top" xlink:title="1">
<text text-anchor="middle" x="107.15" y="-48.21" font-family="Helvetica,sans-Serif" font-size="10.00">1</text>
</a>
</g>
</g>
<!-- dir_995a11a27ec5ce2fce465ebbab555255 -->
<g id="node5" class="node">
<title>dir_995a11a27ec5ce2fce465ebbab555255</title>
<g id="a_node5"><a xlink:href="dir_995a11a27ec5ce2fce465ebbab555255.html" target="_top" xlink:title="ParametersHandler">
<polygon fill="none" stroke="red" points="289,-108 179,-108 179,-72 289,-72 289,-108"/>
<text text-anchor="middle" x="234" y="-87.5" font-family="Helvetica,sans-Serif" font-size="10.00">ParametersHandler</text>
</a>
</g>
</g>
<!-- dir_12b71a80e2ec12f6f36343f858596976&#45;&gt;dir_995a11a27ec5ce2fce465ebbab555255 -->
<g id="edge4" class="edge">
<title>dir_12b71a80e2ec12f6f36343f858596976&#45;&gt;dir_995a11a27ec5ce2fce465ebbab555255</title>
<path fill="none" stroke="black" d="M96.07,-90C120.3,-90 144.53,-90 168.76,-90"/>
<polygon fill="black" stroke="black" points="168.77,-93.5 178.77,-90 168.77,-86.5 168.77,-93.5"/>
<g id="a_edge4&#45;headlabel"><a xlink:href="dir_000100_000052.html" target="_top" xlink:title="1">
<text text-anchor="middle" x="165.18" y="-93.84" font-family="Helvetica,sans-Serif" font-size="10.00">1</text>
</a>
</g>
</g>
<!-- dir_fc0b33c5c53303c947304efe3c65cac1 -->
<g id="node3" class="node">
<title>dir_fc0b33c5c53303c947304efe3c65cac1</title>
<g id="a_node3"><a xlink:href="dir_fc0b33c5c53303c947304efe3c65cac1.html" target="_top" xlink:title="src">
<polygon fill="white" stroke="black" points="70,-180 16,-180 16,-144 70,-144 70,-180"/>
<text text-anchor="middle" x="43" y="-159.5" font-family="Helvetica,sans-Serif" font-size="10.00">src</text>
</a>
</g>
</g>
<!-- dir_fc0b33c5c53303c947304efe3c65cac1&#45;&gt;dir_12b71a80e2ec12f6f36343f858596976 -->
<g id="edge2" class="edge">
<title>dir_fc0b33c5c53303c947304efe3c65cac1&#45;&gt;dir_12b71a80e2ec12f6f36343f858596976</title>
<path fill="none" stroke="black" d="M49.43,-143.7C52.36,-135.81 55.89,-126.3 59.14,-117.55"/>
<polygon fill="black" stroke="black" points="62.45,-118.7 62.65,-108.1 55.88,-116.26 62.45,-118.7"/>
<g id="a_edge2&#45;headlabel"><a xlink:href="dir_000103_000100.html" target="_top" xlink:title="2">
<text text-anchor="middle" x="63.86" y="-120.56" font-family="Helvetica,sans-Serif" font-size="10.00">2</text>
</a>
</g>
</g>
<!-- dir_fc0b33c5c53303c947304efe3c65cac1&#45;&gt;dir_4118ae531ffdde861fee1c6efaa3009d -->
<g id="edge1" class="edge">
<title>dir_fc0b33c5c53303c947304efe3c65cac1&#45;&gt;dir_4118ae531ffdde861fee1c6efaa3009d</title>
<path fill="none" stroke="black" d="M70.17,-143.92C82.61,-134.74 96.45,-122.36 105,-108 116.15,-89.27 120.8,-64.89 122.72,-46.38"/>
<polygon fill="black" stroke="black" points="126.22,-46.51 123.56,-36.25 119.24,-45.93 126.22,-46.51"/>
<g id="a_edge1&#45;headlabel"><a xlink:href="dir_000103_000094.html" target="_top" xlink:title="1">
<text text-anchor="middle" x="128.75" y="-47.82" font-family="Helvetica,sans-Serif" font-size="10.00">1</text>
</a>
</g>
</g>
<!-- dir_995a11a27ec5ce2fce465ebbab555255&#45;&gt;dir_12b71a80e2ec12f6f36343f858596976 -->
<g id="edge6" class="edge">
<title>dir_995a11a27ec5ce2fce465ebbab555255&#45;&gt;dir_12b71a80e2ec12f6f36343f858596976</title>
<path fill="none" stroke="black" d="M178.77,-90C154.54,-90 130.31,-90 106.09,-90"/>
<polygon fill="black" stroke="black" points="106.07,-86.5 96.07,-90 106.07,-93.5 106.07,-86.5"/>
<g id="a_edge6&#45;headlabel"><a xlink:href="dir_000052_000100.html" target="_top" xlink:title="1">
<text text-anchor="middle" x="109.66" y="-81.16" font-family="Helvetica,sans-Serif" font-size="10.00">1</text>
</a>
</g>
</g>
<!-- dir_995a11a27ec5ce2fce465ebbab555255&#45;&gt;dir_4118ae531ffdde861fee1c6efaa3009d -->
<g id="edge5" class="edge">
<title>dir_995a11a27ec5ce2fce465ebbab555255&#45;&gt;dir_4118ae531ffdde861fee1c6efaa3009d</title>
<path fill="none" stroke="black" d="M207.09,-71.88C192.84,-62.81 175.15,-51.55 159.76,-41.76"/>
<polygon fill="black" stroke="black" points="161.33,-38.61 151.01,-36.19 157.57,-44.51 161.33,-38.61"/>
<g id="a_edge5&#45;headlabel"><a xlink:href="dir_000052_000094.html" target="_top" xlink:title="3">
<text text-anchor="middle" x="165.89" y="-35.64" font-family="Helvetica,sans-Serif" font-size="10.00">3</text>
</a>
</g>
</g>
</g>
</svg>
