<?xml version="1.0" encoding="UTF-8" standalone="no"?>
<!DOCTYPE svg PUBLIC "-//W3C//DTD SVG 1.1//EN"
 "http://www.w3.org/Graphics/SVG/1.1/DTD/svg11.dtd">
<!-- Generated by graphviz version 2.43.0 (0)
 -->
<!-- Title: Contacts/include/BipedalLocomotion Pages: 1 -->
<svg width="368pt" height="303pt"
 viewBox="0.00 0.00 368.00 303.00" xmlns="http://www.w3.org/2000/svg" xmlns:xlink="http://www.w3.org/1999/xlink">
<g id="graph0" class="graph" transform="scale(1 1) rotate(0) translate(4 299)">
<title>Contacts/include/BipedalLocomotion</title>
<g id="clust1" class="cluster">
<title>clusterdir_8b8b9ea914891d9a3d7877d38bac2629</title>
<g id="a_clust1"><a xlink:href="dir_8b8b9ea914891d9a3d7877d38bac2629.html" target="_top" xlink:title="include">
<polygon fill="#ddddee" stroke="black" points="8,-128 8,-287 270,-287 270,-128 8,-128"/>
<text text-anchor="middle" x="139" y="-275" font-family="Helvetica,sans-Serif" font-size="10.00">include</text>
</a>
</g>
</g>
<g id="clust2" class="cluster">
<title>clusterdir_3f05e5bb63a57bd72eccc7af5274c138</title>
<g id="a_clust2"><a xlink:href="dir_3f05e5bb63a57bd72eccc7af5274c138.html" target="_top">
<polygon fill="#eeeeff" stroke="black" points="16,-136 16,-260 262,-260 262,-136 16,-136"/>
</a>
</g>
</g>
<!-- dir_3f05e5bb63a57bd72eccc7af5274c138 -->
<g id="node1" class="node">
<title>dir_3f05e5bb63a57bd72eccc7af5274c138</title>
<text text-anchor="middle" x="199" y="-231.5" font-family="Helvetica,sans-Serif" font-size="10.00">BipedalLocomotion</text>
</g>
<!-- dir_9d58fc40fd8815ed25424a9bc5b3d249 -->
<g id="node2" class="node">
<title>dir_9d58fc40fd8815ed25424a9bc5b3d249</title>
<g id="a_node2"><a xlink:href="dir_9d58fc40fd8815ed25424a9bc5b3d249.html" target="_top" xlink:title="ContactDetectors">
<polygon fill="white" stroke="black" points="125.5,-252 24.5,-252 24.5,-216 125.5,-216 125.5,-252"/>
<text text-anchor="middle" x="75" y="-231.5" font-family="Helvetica,sans-Serif" font-size="10.00">ContactDetectors</text>
</a>
</g>
</g>
<!-- dir_16fec6c370e9d5c39f9aa413b0bfb552 -->
<g id="node3" class="node">
<title>dir_16fec6c370e9d5c39f9aa413b0bfb552</title>
<g id="a_node3"><a xlink:href="dir_16fec6c370e9d5c39f9aa413b0bfb552.html" target="_top" xlink:title="Contacts">
<polygon fill="white" stroke="black" points="148.5,-180 89.5,-180 89.5,-144 148.5,-144 148.5,-180"/>
<text text-anchor="middle" x="119" y="-159.5" font-family="Helvetica,sans-Serif" font-size="10.00">Contacts</text>
</a>
</g>
</g>
<!-- dir_9d58fc40fd8815ed25424a9bc5b3d249&#45;&gt;dir_16fec6c370e9d5c39f9aa413b0bfb552 -->
<g id="edge3" class="edge">
<title>dir_9d58fc40fd8815ed25424a9bc5b3d249&#45;&gt;dir_16fec6c370e9d5c39f9aa413b0bfb552</title>
<path fill="none" stroke="black" d="M85.88,-215.7C90.99,-207.56 97.2,-197.69 102.84,-188.7"/>
<polygon fill="black" stroke="black" points="105.89,-190.43 108.25,-180.1 99.96,-186.71 105.89,-190.43"/>
<g id="a_edge3&#45;headlabel"><a xlink:href="dir_000014_000015.html" target="_top" xlink:title="2">
<text text-anchor="middle" x="106.38" y="-192.49" font-family="Helvetica,sans-Serif" font-size="10.00">2</text>
</a>
</g>
</g>
<!-- dir_ef68f1e1f5148ff8ef7fb1c955106c3c -->
<g id="node4" class="node">
<title>dir_ef68f1e1f5148ff8ef7fb1c955106c3c</title>
<g id="a_node4"><a xlink:href="dir_ef68f1e1f5148ff8ef7fb1c955106c3c.html" target="_top" xlink:title="System">
<polygon fill="none" stroke="red" points="332,-180 278,-180 278,-144 332,-144 332,-180"/>
<text text-anchor="middle" x="305" y="-159.5" font-family="Helvetica,sans-Serif" font-size="10.00">System</text>
</a>
</g>
</g>
<!-- dir_9d58fc40fd8815ed25424a9bc5b3d249&#45;&gt;dir_ef68f1e1f5148ff8ef7fb1c955106c3c -->
<g id="edge2" class="edge">
<title>dir_9d58fc40fd8815ed25424a9bc5b3d249&#45;&gt;dir_ef68f1e1f5148ff8ef7fb1c955106c3c</title>
<path fill="none" stroke="black" d="M125.73,-218.6C128.87,-217.71 131.98,-216.84 135,-216 193.16,-199.77 209.07,-200.11 266,-180 266.85,-179.7 267.71,-179.39 268.58,-179.07"/>
<polygon fill="black" stroke="black" points="269.9,-182.31 277.92,-175.39 267.34,-175.8 269.9,-182.31"/>
<g id="a_edge2&#45;headlabel"><a xlink:href="dir_000014_000084.html" target="_top" xlink:title="1">
<text text-anchor="middle" x="267.59" y="-183.77" font-family="Helvetica,sans-Serif" font-size="10.00">1</text>
</a>
</g>
</g>
<!-- dir_995a11a27ec5ce2fce465ebbab555255 -->
<g id="node6" class="node">
<title>dir_995a11a27ec5ce2fce465ebbab555255</title>
<g id="a_node6"><a xlink:href="dir_995a11a27ec5ce2fce465ebbab555255.html" target="_top" xlink:title="ParametersHandler">
<polygon fill="none" stroke="red" points="360,-36 250,-36 250,0 360,0 360,-36"/>
<text text-anchor="middle" x="305" y="-15.5" font-family="Helvetica,sans-Serif" font-size="10.00">ParametersHandler</text>
</a>
</g>
</g>
<!-- dir_9d58fc40fd8815ed25424a9bc5b3d249&#45;&gt;dir_995a11a27ec5ce2fce465ebbab555255 -->
<g id="edge4" class="edge">
<title>dir_9d58fc40fd8815ed25424a9bc5b3d249&#45;&gt;dir_995a11a27ec5ce2fce465ebbab555255</title>
<path fill="none" stroke="black" d="M125.64,-218.25C128.8,-217.46 131.94,-216.7 135,-216 180.3,-205.65 311.1,-215.58 341,-180 373.48,-141.35 344.17,-79.61 322.76,-44.89"/>
<polygon fill="black" stroke="black" points="325.59,-42.81 317.26,-36.26 319.69,-46.58 325.59,-42.81"/>
<g id="a_edge4&#45;headlabel"><a xlink:href="dir_000014_000052.html" target="_top" xlink:title="2">
<text text-anchor="middle" x="329.91" y="-41.82" font-family="Helvetica,sans-Serif" font-size="10.00">2</text>
</a>
</g>
</g>
<!-- dir_3813464283bee2267f39dcf080a84d74 -->
<g id="node5" class="node">
<title>dir_3813464283bee2267f39dcf080a84d74</title>
<g id="a_node5"><a xlink:href="dir_3813464283bee2267f39dcf080a84d74.html" target="_top" xlink:title="Math">
<polygon fill="none" stroke="red" points="190,-108 136,-108 136,-72 190,-72 190,-108"/>
<text text-anchor="middle" x="163" y="-87.5" font-family="Helvetica,sans-Serif" font-size="10.00">Math</text>
</a>
</g>
</g>
<!-- dir_16fec6c370e9d5c39f9aa413b0bfb552&#45;&gt;dir_3813464283bee2267f39dcf080a84d74 -->
<g id="edge6" class="edge">
<title>dir_16fec6c370e9d5c39f9aa413b0bfb552&#45;&gt;dir_3813464283bee2267f39dcf080a84d74</title>
<path fill="none" stroke="black" d="M129.88,-143.7C134.99,-135.56 141.2,-125.69 146.84,-116.7"/>
<polygon fill="black" stroke="black" points="149.89,-118.43 152.25,-108.1 143.96,-114.71 149.89,-118.43"/>
<g id="a_edge6&#45;headlabel"><a xlink:href="dir_000015_000047.html" target="_top" xlink:title="1">
<text text-anchor="middle" x="150.38" y="-120.49" font-family="Helvetica,sans-Serif" font-size="10.00">1</text>
</a>
</g>
</g>
<!-- dir_ef68f1e1f5148ff8ef7fb1c955106c3c&#45;&gt;dir_995a11a27ec5ce2fce465ebbab555255 -->
<g id="edge1" class="edge">
<title>dir_ef68f1e1f5148ff8ef7fb1c955106c3c&#45;&gt;dir_995a11a27ec5ce2fce465ebbab555255</title>
<path fill="none" stroke="black" d="M305,-143.87C305,-119.67 305,-75.21 305,-46.39"/>
<polygon fill="black" stroke="black" points="308.5,-46.19 305,-36.19 301.5,-46.19 308.5,-46.19"/>
<g id="a_edge1&#45;headlabel"><a xlink:href="dir_000084_000052.html" target="_top" xlink:title="4">
<text text-anchor="middle" x="311.34" y="-47.28" font-family="Helvetica,sans-Serif" font-size="10.00">4</text>
</a>
</g>
</g>
<!-- dir_3813464283bee2267f39dcf080a84d74&#45;&gt;dir_995a11a27ec5ce2fce465ebbab555255 -->
<g id="edge5" class="edge">
<title>dir_3813464283bee2267f39dcf080a84d74&#45;&gt;dir_995a11a27ec5ce2fce465ebbab555255</title>
<path fill="none" stroke="black" d="M190.04,-75.67C210.22,-65.72 238.2,-51.93 261.51,-40.44"/>
<polygon fill="black" stroke="black" points="263.09,-43.56 270.51,-36 259.99,-37.28 263.09,-43.56"/>
<g id="a_edge5&#45;headlabel"><a xlink:href="dir_000047_000052.html" target="_top" xlink:title="2">
<text text-anchor="middle" x="261.12" y="-45.2" font-family="Helvetica,sans-Serif" font-size="10.00">2</text>
</a>
</g>
</g>
</g>
</svg>
