<?xml version="1.0" encoding="UTF-8" standalone="no"?>
<!DOCTYPE svg PUBLIC "-//W3C//DTD SVG 1.1//EN"
 "http://www.w3.org/Graphics/SVG/1.1/DTD/svg11.dtd">
<!-- Generated by graphviz version 2.43.0 (0)
 -->
<!-- Title: IK Pages: 1 -->
<svg width="283pt" height="348pt"
 viewBox="0.00 0.00 283.04 348.00" xmlns="http://www.w3.org/2000/svg" xmlns:xlink="http://www.w3.org/1999/xlink">
<g id="graph0" class="graph" transform="scale(1 1) rotate(0) translate(4 344)">
<title>IK</title>
<g id="clust1" class="cluster">
<title>clusterdir_66c66c13cf9158c1f22f6cf6d3ba76a2</title>
<g id="a_clust1"><a xlink:href="dir_66c66c13cf9158c1f22f6cf6d3ba76a2.html" target="_top">
<polygon fill="#eeeeff" stroke="black" points="47.54,-208 47.54,-332 189.54,-332 189.54,-208 47.54,-208"/>
</a>
</g>
</g>
<!-- dir_66c66c13cf9158c1f22f6cf6d3ba76a2 -->
<g id="node1" class="node">
<title>dir_66c66c13cf9158c1f22f6cf6d3ba76a2</title>
<text text-anchor="middle" x="154.54" y="-303.5" font-family="Helvetica,sans-Serif" font-size="10.00">IK</text>
</g>
<!-- dir_67dd381f86eec7791e9db8646ed74f67 -->
<g id="node2" class="node">
<title>dir_67dd381f86eec7791e9db8646ed74f67</title>
<g id="a_node2"><a xlink:href="dir_67dd381f86eec7791e9db8646ed74f67.html" target="_top" xlink:title="include">
<polygon fill="white" stroke="red" points="109.54,-252 55.54,-252 55.54,-216 109.54,-216 109.54,-252"/>
<text text-anchor="middle" x="82.54" y="-231.5" font-family="Helvetica,sans-Serif" font-size="10.00">include</text>
</a>
</g>
</g>
<!-- dir_ef68f1e1f5148ff8ef7fb1c955106c3c -->
<g id="node4" class="node">
<title>dir_ef68f1e1f5148ff8ef7fb1c955106c3c</title>
<g id="a_node4"><a xlink:href="dir_ef68f1e1f5148ff8ef7fb1c955106c3c.html" target="_top" xlink:title="System">
<polygon fill="none" stroke="red" points="54.54,-180 0.54,-180 0.54,-144 54.54,-144 54.54,-180"/>
<text text-anchor="middle" x="27.54" y="-159.5" font-family="Helvetica,sans-Serif" font-size="10.00">System</text>
</a>
</g>
</g>
<!-- dir_67dd381f86eec7791e9db8646ed74f67&#45;&gt;dir_ef68f1e1f5148ff8ef7fb1c955106c3c -->
<g id="edge6" class="edge">
<title>dir_67dd381f86eec7791e9db8646ed74f67&#45;&gt;dir_ef68f1e1f5148ff8ef7fb1c955106c3c</title>
<path fill="none" stroke="black" d="M68.94,-215.7C62.41,-207.39 54.47,-197.28 47.29,-188.14"/>
<polygon fill="black" stroke="black" points="49.9,-185.81 40.97,-180.1 44.4,-190.13 49.9,-185.81"/>
<g id="a_edge6&#45;headlabel"><a xlink:href="dir_000038_000084.html" target="_top" xlink:title="8">
<text text-anchor="middle" x="54.36" y="-184.38" font-family="Helvetica,sans-Serif" font-size="10.00">8</text>
</a>
</g>
</g>
<!-- dir_995a11a27ec5ce2fce465ebbab555255 -->
<g id="node7" class="node">
<title>dir_995a11a27ec5ce2fce465ebbab555255</title>
<g id="a_node7"><a xlink:href="dir_995a11a27ec5ce2fce465ebbab555255.html" target="_top" xlink:title="ParametersHandler">
<polygon fill="none" stroke="red" points="123.54,-108 13.54,-108 13.54,-72 123.54,-72 123.54,-108"/>
<text text-anchor="middle" x="68.54" y="-87.5" font-family="Helvetica,sans-Serif" font-size="10.00">ParametersHandler</text>
</a>
</g>
</g>
<!-- dir_67dd381f86eec7791e9db8646ed74f67&#45;&gt;dir_995a11a27ec5ce2fce465ebbab555255 -->
<g id="edge7" class="edge">
<title>dir_67dd381f86eec7791e9db8646ed74f67&#45;&gt;dir_995a11a27ec5ce2fce465ebbab555255</title>
<path fill="none" stroke="black" d="M80.85,-215.87C78.46,-191.67 74.08,-147.21 71.24,-118.39"/>
<polygon fill="black" stroke="black" points="74.69,-117.8 70.23,-108.19 67.73,-118.48 74.69,-117.8"/>
<g id="a_edge7&#45;headlabel"><a xlink:href="dir_000038_000052.html" target="_top" xlink:title="2">
<text text-anchor="middle" x="77.87" y="-118.6" font-family="Helvetica,sans-Serif" font-size="10.00">2</text>
</a>
</g>
</g>
<!-- dir_13d238e9d5ba4cdcfd0b66121a5bbe03 -->
<g id="node3" class="node">
<title>dir_13d238e9d5ba4cdcfd0b66121a5bbe03</title>
<g id="a_node3"><a xlink:href="dir_13d238e9d5ba4cdcfd0b66121a5bbe03.html" target="_top" xlink:title="src">
<polygon fill="white" stroke="black" points="109.54,-324 55.54,-324 55.54,-288 109.54,-288 109.54,-324"/>
<text text-anchor="middle" x="82.54" y="-303.5" font-family="Helvetica,sans-Serif" font-size="10.00">src</text>
</a>
</g>
</g>
<!-- dir_13d238e9d5ba4cdcfd0b66121a5bbe03&#45;&gt;dir_67dd381f86eec7791e9db8646ed74f67 -->
<g id="edge4" class="edge">
<title>dir_13d238e9d5ba4cdcfd0b66121a5bbe03&#45;&gt;dir_67dd381f86eec7791e9db8646ed74f67</title>
<path fill="none" stroke="black" d="M82.54,-287.7C82.54,-279.98 82.54,-270.71 82.54,-262.11"/>
<polygon fill="black" stroke="black" points="86.04,-262.1 82.54,-252.1 79.04,-262.1 86.04,-262.1"/>
<g id="a_edge4&#45;headlabel"><a xlink:href="dir_000045_000038.html" target="_top" xlink:title="5">
<text text-anchor="middle" x="88.87" y="-263.2" font-family="Helvetica,sans-Serif" font-size="10.00">5</text>
</a>
</g>
</g>
<!-- dir_4118ae531ffdde861fee1c6efaa3009d -->
<g id="node5" class="node">
<title>dir_4118ae531ffdde861fee1c6efaa3009d</title>
<g id="a_node5"><a xlink:href="dir_4118ae531ffdde861fee1c6efaa3009d.html" target="_top" xlink:title="TextLogging">
<polygon fill="none" stroke="red" points="106.04,-36 31.04,-36 31.04,0 106.04,0 106.04,-36"/>
<text text-anchor="middle" x="68.54" y="-15.5" font-family="Helvetica,sans-Serif" font-size="10.00">TextLogging</text>
</a>
</g>
</g>
<!-- dir_13d238e9d5ba4cdcfd0b66121a5bbe03&#45;&gt;dir_4118ae531ffdde861fee1c6efaa3009d -->
<g id="edge3" class="edge">
<title>dir_13d238e9d5ba4cdcfd0b66121a5bbe03&#45;&gt;dir_4118ae531ffdde861fee1c6efaa3009d</title>
<path fill="none" stroke="black" d="M97.64,-287.6C105.25,-277.81 113.85,-264.97 118.54,-252 145.81,-176.54 166.68,-144.61 132.54,-72 127.01,-60.26 117.47,-50.22 107.41,-42.15"/>
<polygon fill="black" stroke="black" points="109.41,-39.27 99.3,-36.09 105.22,-44.88 109.41,-39.27"/>
<g id="a_edge3&#45;headlabel"><a xlink:href="dir_000045_000094.html" target="_top" xlink:title="5">
<text text-anchor="middle" x="113.99" y="-36.65" font-family="Helvetica,sans-Serif" font-size="10.00">5</text>
</a>
</g>
</g>
<!-- dir_67ecbf5b3dd37b0be5aedd0167f75fa8 -->
<g id="node6" class="node">
<title>dir_67ecbf5b3dd37b0be5aedd0167f75fa8</title>
<g id="a_node6"><a xlink:href="dir_67ecbf5b3dd37b0be5aedd0167f75fa8.html" target="_top" xlink:title="Conversions">
<polygon fill="none" stroke="red" points="275.04,-252 198.04,-252 198.04,-216 275.04,-216 275.04,-252"/>
<text text-anchor="middle" x="236.54" y="-231.5" font-family="Helvetica,sans-Serif" font-size="10.00">Conversions</text>
</a>
</g>
</g>
<!-- dir_13d238e9d5ba4cdcfd0b66121a5bbe03&#45;&gt;dir_67ecbf5b3dd37b0be5aedd0167f75fa8 -->
<g id="edge5" class="edge">
<title>dir_13d238e9d5ba4cdcfd0b66121a5bbe03&#45;&gt;dir_67ecbf5b3dd37b0be5aedd0167f75fa8</title>
<path fill="none" stroke="black" d="M109.64,-292.13C112.63,-290.73 115.65,-289.33 118.54,-288 141.63,-277.36 167.39,-265.76 188.93,-256.14"/>
<polygon fill="black" stroke="black" points="190.48,-259.27 198.19,-252 187.63,-252.88 190.48,-259.27"/>
<g id="a_edge5&#45;headlabel"><a xlink:href="dir_000045_000023.html" target="_top" xlink:title="3">
<text text-anchor="middle" x="188.36" y="-260.83" font-family="Helvetica,sans-Serif" font-size="10.00">3</text>
</a>
</g>
</g>
<!-- dir_ef68f1e1f5148ff8ef7fb1c955106c3c&#45;&gt;dir_4118ae531ffdde861fee1c6efaa3009d -->
<g id="edge1" class="edge">
<title>dir_ef68f1e1f5148ff8ef7fb1c955106c3c&#45;&gt;dir_4118ae531ffdde861fee1c6efaa3009d</title>
<path fill="none" stroke="black" d="M16.44,-143.96C5.97,-125.55 -6.6,-95.68 4.54,-72 10.06,-60.26 19.6,-50.22 29.66,-42.15"/>
<polygon fill="black" stroke="black" points="31.85,-44.88 37.77,-36.09 27.66,-39.27 31.85,-44.88"/>
<g id="a_edge1&#45;headlabel"><a xlink:href="dir_000084_000094.html" target="_top" xlink:title="4">
<text text-anchor="middle" x="30.66" y="-46.81" font-family="Helvetica,sans-Serif" font-size="10.00">4</text>
</a>
</g>
</g>
<!-- dir_ef68f1e1f5148ff8ef7fb1c955106c3c&#45;&gt;dir_995a11a27ec5ce2fce465ebbab555255 -->
<g id="edge2" class="edge">
<title>dir_ef68f1e1f5148ff8ef7fb1c955106c3c&#45;&gt;dir_995a11a27ec5ce2fce465ebbab555255</title>
<path fill="none" stroke="black" d="M37.67,-143.7C42.39,-135.64 48.1,-125.89 53.32,-116.98"/>
<polygon fill="black" stroke="black" points="56.48,-118.5 58.52,-108.1 50.44,-114.96 56.48,-118.5"/>
<g id="a_edge2&#45;headlabel"><a xlink:href="dir_000084_000052.html" target="_top" xlink:title="4">
<text text-anchor="middle" x="57.12" y="-120.54" font-family="Helvetica,sans-Serif" font-size="10.00">4</text>
</a>
</g>
</g>
<!-- dir_995a11a27ec5ce2fce465ebbab555255&#45;&gt;dir_4118ae531ffdde861fee1c6efaa3009d -->
<g id="edge8" class="edge">
<title>dir_995a11a27ec5ce2fce465ebbab555255&#45;&gt;dir_4118ae531ffdde861fee1c6efaa3009d</title>
<path fill="none" stroke="black" d="M68.54,-71.7C68.54,-63.98 68.54,-54.71 68.54,-46.11"/>
<polygon fill="black" stroke="black" points="72.04,-46.1 68.54,-36.1 65.04,-46.1 72.04,-46.1"/>
<g id="a_edge8&#45;headlabel"><a xlink:href="dir_000052_000094.html" target="_top" xlink:title="3">
<text text-anchor="middle" x="74.87" y="-47.2" font-family="Helvetica,sans-Serif" font-size="10.00">3</text>
</a>
</g>
</g>
</g>
</svg>
