<?xml version="1.0" encoding="UTF-8" standalone="no"?>
<!DOCTYPE svg PUBLIC "-//W3C//DTD SVG 1.1//EN"
 "http://www.w3.org/Graphics/SVG/1.1/DTD/svg11.dtd">
<!-- Generated by graphviz version 2.43.0 (0)
 -->
<!-- Title: Planners/include/BipedalLocomotion/Planners Pages: 1 -->
<svg width="159pt" height="295pt"
 viewBox="0.00 0.00 158.50 295.00" xmlns="http://www.w3.org/2000/svg" xmlns:xlink="http://www.w3.org/1999/xlink">
<g id="graph0" class="graph" transform="scale(1 1) rotate(0) translate(4 291)">
<title>Planners/include/BipedalLocomotion/Planners</title>
<g id="clust1" class="cluster">
<title>clusterdir_ca39150e121c2f7552b8919c494e6981</title>
<g id="a_clust1"><a xlink:href="dir_ca39150e121c2f7552b8919c494e6981.html" target="_top" xlink:title="BipedalLocomotion">
<polygon fill="#ddddee" stroke="black" points="8,-208 8,-279 118,-279 118,-208 8,-208"/>
<text text-anchor="middle" x="63" y="-267" font-family="Helvetica,sans-Serif" font-size="10.00">BipedalLocomotion</text>
</a>
</g>
</g>
<!-- dir_9a2340c01aedb0f76560dc44ac9c4ec3 -->
<g id="node1" class="node">
<title>dir_9a2340c01aedb0f76560dc44ac9c4ec3</title>
<g id="a_node1"><a xlink:href="dir_9a2340c01aedb0f76560dc44ac9c4ec3.html" target="_top" xlink:title="Planners">
<polygon fill="#eeeeff" stroke="black" points="92.5,-252 33.5,-252 33.5,-216 92.5,-216 92.5,-252"/>
<text text-anchor="middle" x="63" y="-231.5" font-family="Helvetica,sans-Serif" font-size="10.00">Planners</text>
</a>
</g>
</g>
<!-- dir_ef68f1e1f5148ff8ef7fb1c955106c3c -->
<g id="node2" class="node">
<title>dir_ef68f1e1f5148ff8ef7fb1c955106c3c</title>
<g id="a_node2"><a xlink:href="dir_ef68f1e1f5148ff8ef7fb1c955106c3c.html" target="_top" xlink:title="System">
<polygon fill="none" stroke="red" points="100,-108 46,-108 46,-72 100,-72 100,-108"/>
<text text-anchor="middle" x="73" y="-87.5" font-family="Helvetica,sans-Serif" font-size="10.00">System</text>
</a>
</g>
</g>
<!-- dir_9a2340c01aedb0f76560dc44ac9c4ec3&#45;&gt;dir_ef68f1e1f5148ff8ef7fb1c955106c3c -->
<g id="edge2" class="edge">
<title>dir_9a2340c01aedb0f76560dc44ac9c4ec3&#45;&gt;dir_ef68f1e1f5148ff8ef7fb1c955106c3c</title>
<path fill="none" stroke="black" d="M64.21,-215.87C65.91,-191.67 69.04,-147.21 71.07,-118.39"/>
<polygon fill="black" stroke="black" points="74.58,-118.41 71.79,-108.19 67.6,-117.92 74.58,-118.41"/>
<g id="a_edge2&#45;headlabel"><a xlink:href="dir_000072_000084.html" target="_top" xlink:title="4">
<text text-anchor="middle" x="77.16" y="-119.7" font-family="Helvetica,sans-Serif" font-size="10.00">4</text>
</a>
</g>
</g>
<!-- dir_995a11a27ec5ce2fce465ebbab555255 -->
<g id="node3" class="node">
<title>dir_995a11a27ec5ce2fce465ebbab555255</title>
<g id="a_node3"><a xlink:href="dir_995a11a27ec5ce2fce465ebbab555255.html" target="_top" xlink:title="ParametersHandler">
<polygon fill="none" stroke="red" points="128,-36 18,-36 18,0 128,0 128,-36"/>
<text text-anchor="middle" x="73" y="-15.5" font-family="Helvetica,sans-Serif" font-size="10.00">ParametersHandler</text>
</a>
</g>
</g>
<!-- dir_9a2340c01aedb0f76560dc44ac9c4ec3&#45;&gt;dir_995a11a27ec5ce2fce465ebbab555255 -->
<g id="edge3" class="edge">
<title>dir_9a2340c01aedb0f76560dc44ac9c4ec3&#45;&gt;dir_995a11a27ec5ce2fce465ebbab555255</title>
<path fill="none" stroke="black" d="M55.16,-215.73C42.71,-185.86 21.35,-122.88 37,-72 40.01,-62.22 45.51,-52.62 51.32,-44.33"/>
<polygon fill="black" stroke="black" points="54.19,-46.33 57.39,-36.23 48.59,-42.13 54.19,-46.33"/>
<g id="a_edge3&#45;headlabel"><a xlink:href="dir_000072_000052.html" target="_top" xlink:title="2">
<text text-anchor="middle" x="54.31" y="-48.41" font-family="Helvetica,sans-Serif" font-size="10.00">2</text>
</a>
</g>
</g>
<!-- dir_50541d64f188ef934de78ba6c49ffdbe -->
<g id="node4" class="node">
<title>dir_50541d64f188ef934de78ba6c49ffdbe</title>
<g id="a_node4"><a xlink:href="dir_50541d64f188ef934de78ba6c49ffdbe.html" target="_top" xlink:title="Contacts">
<polygon fill="none" stroke="red" points="150.5,-180 91.5,-180 91.5,-144 150.5,-144 150.5,-180"/>
<text text-anchor="middle" x="121" y="-159.5" font-family="Helvetica,sans-Serif" font-size="10.00">Contacts</text>
</a>
</g>
</g>
<!-- dir_9a2340c01aedb0f76560dc44ac9c4ec3&#45;&gt;dir_50541d64f188ef934de78ba6c49ffdbe -->
<g id="edge4" class="edge">
<title>dir_9a2340c01aedb0f76560dc44ac9c4ec3&#45;&gt;dir_50541d64f188ef934de78ba6c49ffdbe</title>
<path fill="none" stroke="black" d="M77.34,-215.7C84.29,-207.3 92.77,-197.07 100.4,-187.86"/>
<polygon fill="black" stroke="black" points="103.14,-190.04 106.83,-180.1 97.75,-185.57 103.14,-190.04"/>
<g id="a_edge4&#45;headlabel"><a xlink:href="dir_000072_000011.html" target="_top" xlink:title="1">
<text text-anchor="middle" x="103.04" y="-192.12" font-family="Helvetica,sans-Serif" font-size="10.00">1</text>
</a>
</g>
</g>
<!-- dir_ef68f1e1f5148ff8ef7fb1c955106c3c&#45;&gt;dir_995a11a27ec5ce2fce465ebbab555255 -->
<g id="edge1" class="edge">
<title>dir_ef68f1e1f5148ff8ef7fb1c955106c3c&#45;&gt;dir_995a11a27ec5ce2fce465ebbab555255</title>
<path fill="none" stroke="black" d="M73,-71.7C73,-63.98 73,-54.71 73,-46.11"/>
<polygon fill="black" stroke="black" points="76.5,-46.1 73,-36.1 69.5,-46.1 76.5,-46.1"/>
<g id="a_edge1&#45;headlabel"><a xlink:href="dir_000084_000052.html" target="_top" xlink:title="4">
<text text-anchor="middle" x="79.34" y="-47.2" font-family="Helvetica,sans-Serif" font-size="10.00">4</text>
</a>
</g>
</g>
<!-- dir_50541d64f188ef934de78ba6c49ffdbe&#45;&gt;dir_ef68f1e1f5148ff8ef7fb1c955106c3c -->
<g id="edge5" class="edge">
<title>dir_50541d64f188ef934de78ba6c49ffdbe&#45;&gt;dir_ef68f1e1f5148ff8ef7fb1c955106c3c</title>
<path fill="none" stroke="black" d="M109.13,-143.7C103.5,-135.47 96.65,-125.48 90.43,-116.42"/>
<polygon fill="black" stroke="black" points="93.27,-114.37 84.73,-108.1 87.5,-118.33 93.27,-114.37"/>
<g id="a_edge5&#45;headlabel"><a xlink:href="dir_000011_000084.html" target="_top" xlink:title="1">
<text text-anchor="middle" x="97.65" y="-113.23" font-family="Helvetica,sans-Serif" font-size="10.00">1</text>
</a>
</g>
</g>
<!-- dir_50541d64f188ef934de78ba6c49ffdbe&#45;&gt;dir_995a11a27ec5ce2fce465ebbab555255 -->
<g id="edge6" class="edge">
<title>dir_50541d64f188ef934de78ba6c49ffdbe&#45;&gt;dir_995a11a27ec5ce2fce465ebbab555255</title>
<path fill="none" stroke="black" d="M120.99,-143.69C120.46,-125.33 118.08,-95.74 109,-72 105.34,-62.44 99.66,-52.9 93.89,-44.61"/>
<polygon fill="black" stroke="black" points="96.65,-42.46 87.91,-36.47 91.01,-46.6 96.65,-42.46"/>
<g id="a_edge6&#45;headlabel"><a xlink:href="dir_000011_000052.html" target="_top" xlink:title="3">
<text text-anchor="middle" x="101.07" y="-41.18" font-family="Helvetica,sans-Serif" font-size="10.00">3</text>
</a>
</g>
</g>
</g>
</svg>
