<?xml version="1.0" encoding="UTF-8" standalone="no"?>
<!DOCTYPE svg PUBLIC "-//W3C//DTD SVG 1.1//EN"
 "http://www.w3.org/Graphics/SVG/1.1/DTD/svg11.dtd">
<!-- Generated by graphviz version 2.43.0 (0)
 -->
<!-- Title: ParametersHandler/YarpImplementation/include Pages: 1 -->
<svg width="238pt" height="231pt"
 viewBox="0.00 0.00 238.00 231.00" xmlns="http://www.w3.org/2000/svg" xmlns:xlink="http://www.w3.org/1999/xlink">
<g id="graph0" class="graph" transform="scale(1 1) rotate(0) translate(4 227)">
<title>ParametersHandler/YarpImplementation/include</title>
<g id="clust1" class="cluster">
<title>clusterdir_6a34c73d6eb3da898e93a79ffdd09be5</title>
<g id="a_clust1"><a xlink:href="dir_6a34c73d6eb3da898e93a79ffdd09be5.html" target="_top" xlink:title="YarpImplementation">
<polygon fill="#ddddee" stroke="black" points="8,-128 8,-215 222,-215 222,-128 8,-128"/>
<text text-anchor="middle" x="115" y="-203" font-family="Helvetica,sans-Serif" font-size="10.00">YarpImplementation</text>
</a>
</g>
</g>
<g id="clust2" class="cluster">
<title>clusterdir_63c44988ed8fd0278ad843c09d683190</title>
<g id="a_clust2"><a xlink:href="dir_63c44988ed8fd0278ad843c09d683190.html" target="_top">
<polygon fill="#eeeeff" stroke="black" points="16,-136 16,-188 214,-188 214,-136 16,-136"/>
</a>
</g>
</g>
<!-- dir_63c44988ed8fd0278ad843c09d683190 -->
<g id="node1" class="node">
<title>dir_63c44988ed8fd0278ad843c09d683190</title>
<text text-anchor="middle" x="179" y="-159.5" font-family="Helvetica,sans-Serif" font-size="10.00">include</text>
</g>
<!-- dir_07a2b64e573b6e689d7d67e42a30668b -->
<g id="node2" class="node">
<title>dir_07a2b64e573b6e689d7d67e42a30668b</title>
<g id="a_node2"><a xlink:href="dir_07a2b64e573b6e689d7d67e42a30668b.html" target="_top" xlink:title="BipedalLocomotion">
<polygon fill="white" stroke="red" points="134,-180 24,-180 24,-144 134,-144 134,-180"/>
<text text-anchor="middle" x="79" y="-159.5" font-family="Helvetica,sans-Serif" font-size="10.00">BipedalLocomotion</text>
</a>
</g>
</g>
<!-- dir_c2ff16d22970d8b79330500bc8a01502 -->
<g id="node3" class="node">
<title>dir_c2ff16d22970d8b79330500bc8a01502</title>
<g id="a_node3"><a xlink:href="dir_c2ff16d22970d8b79330500bc8a01502.html" target="_top" xlink:title="include">
<polygon fill="none" stroke="red" points="106,-36 52,-36 52,0 106,0 106,-36"/>
<text text-anchor="middle" x="79" y="-15.5" font-family="Helvetica,sans-Serif" font-size="10.00">include</text>
</a>
</g>
</g>
<!-- dir_07a2b64e573b6e689d7d67e42a30668b&#45;&gt;dir_c2ff16d22970d8b79330500bc8a01502 -->
<g id="edge1" class="edge">
<title>dir_07a2b64e573b6e689d7d67e42a30668b&#45;&gt;dir_c2ff16d22970d8b79330500bc8a01502</title>
<path fill="none" stroke="black" d="M73.59,-143.53C70.7,-133.29 67.45,-120.04 66,-108 64.08,-92.12 64.08,-87.88 66,-72 67.02,-63.53 68.93,-54.47 70.98,-46.28"/>
<polygon fill="black" stroke="black" points="74.4,-47.03 73.59,-36.47 67.64,-45.23 74.4,-47.03"/>
<g id="a_edge1&#45;headlabel"><a xlink:href="dir_000059_000053.html" target="_top" xlink:title="1">
<text text-anchor="middle" x="76.22" y="-48.74" font-family="Helvetica,sans-Serif" font-size="10.00">1</text>
</a>
</g>
</g>
<!-- dir_9f4ce4849845ca54ac66640ab17f25ff -->
<g id="node4" class="node">
<title>dir_9f4ce4849845ca54ac66640ab17f25ff</title>
<g id="a_node4"><a xlink:href="dir_9f4ce4849845ca54ac66640ab17f25ff.html" target="_top" xlink:title="YarpUtilities">
<polygon fill="none" stroke="red" points="149.5,-108 74.5,-108 74.5,-72 149.5,-72 149.5,-108"/>
<text text-anchor="middle" x="112" y="-87.5" font-family="Helvetica,sans-Serif" font-size="10.00">YarpUtilities</text>
</a>
</g>
</g>
<!-- dir_07a2b64e573b6e689d7d67e42a30668b&#45;&gt;dir_9f4ce4849845ca54ac66640ab17f25ff -->
<g id="edge2" class="edge">
<title>dir_07a2b64e573b6e689d7d67e42a30668b&#45;&gt;dir_9f4ce4849845ca54ac66640ab17f25ff</title>
<path fill="none" stroke="black" d="M87.16,-143.7C90.91,-135.73 95.45,-126.1 99.62,-117.26"/>
<polygon fill="black" stroke="black" points="102.84,-118.64 103.94,-108.1 96.51,-115.66 102.84,-118.64"/>
<g id="a_edge2&#45;headlabel"><a xlink:href="dir_000059_000099.html" target="_top" xlink:title="1">
<text text-anchor="middle" x="103.87" y="-120.6" font-family="Helvetica,sans-Serif" font-size="10.00">1</text>
</a>
</g>
</g>
<!-- dir_9f4ce4849845ca54ac66640ab17f25ff&#45;&gt;dir_c2ff16d22970d8b79330500bc8a01502 -->
<g id="edge3" class="edge">
<title>dir_9f4ce4849845ca54ac66640ab17f25ff&#45;&gt;dir_c2ff16d22970d8b79330500bc8a01502</title>
<path fill="none" stroke="black" d="M103.84,-71.7C100.09,-63.73 95.55,-54.1 91.38,-45.26"/>
<polygon fill="black" stroke="black" points="94.49,-43.66 87.06,-36.1 88.16,-46.64 94.49,-43.66"/>
<g id="a_edge3&#45;headlabel"><a xlink:href="dir_000099_000053.html" target="_top" xlink:title="1">
<text text-anchor="middle" x="98.59" y="-43.2" font-family="Helvetica,sans-Serif" font-size="10.00">1</text>
</a>
</g>
</g>
</g>
</svg>
