<?xml version="1.0" encoding="UTF-8" standalone="no"?>
<!DOCTYPE svg PUBLIC "-//W3C//DTD SVG 1.1//EN"
 "http://www.w3.org/Graphics/SVG/1.1/DTD/svg11.dtd">
<!-- Generated by graphviz version 2.43.0 (0)
 -->
<!-- Title: System Pages: 1 -->
<svg width="300pt" height="276pt"
 viewBox="0.00 0.00 300.00 276.00" xmlns="http://www.w3.org/2000/svg" xmlns:xlink="http://www.w3.org/1999/xlink">
<g id="graph0" class="graph" transform="scale(1 1) rotate(0) translate(4 272)">
<title>System</title>
<g id="clust1" class="cluster">
<title>clusterdir_ef68f1e1f5148ff8ef7fb1c955106c3c</title>
<g id="a_clust1"><a xlink:href="dir_ef68f1e1f5148ff8ef7fb1c955106c3c.html" target="_top">
<polygon fill="#eeeeff" stroke="black" points="8,-136 8,-260 284,-260 284,-136 8,-136"/>
</a>
</g>
</g>
<!-- dir_ef68f1e1f5148ff8ef7fb1c955106c3c -->
<g id="node1" class="node">
<title>dir_ef68f1e1f5148ff8ef7fb1c955106c3c</title>
<text text-anchor="middle" x="249" y="-231.5" font-family="Helvetica,sans-Serif" font-size="10.00">System</text>
</g>
<!-- dir_543817dc0abe17961f66d6d58373e100 -->
<g id="node2" class="node">
<title>dir_543817dc0abe17961f66d6d58373e100</title>
<g id="a_node2"><a xlink:href="dir_543817dc0abe17961f66d6d58373e100.html" target="_top" xlink:title="include">
<polygon fill="white" stroke="red" points="111,-180 57,-180 57,-144 111,-144 111,-180"/>
<text text-anchor="middle" x="84" y="-159.5" font-family="Helvetica,sans-Serif" font-size="10.00">include</text>
</a>
</g>
</g>
<!-- dir_4118ae531ffdde861fee1c6efaa3009d -->
<g id="node5" class="node">
<title>dir_4118ae531ffdde861fee1c6efaa3009d</title>
<g id="a_node5"><a xlink:href="dir_4118ae531ffdde861fee1c6efaa3009d.html" target="_top" xlink:title="TextLogging">
<polygon fill="none" stroke="red" points="131.5,-36 56.5,-36 56.5,0 131.5,0 131.5,-36"/>
<text text-anchor="middle" x="94" y="-15.5" font-family="Helvetica,sans-Serif" font-size="10.00">TextLogging</text>
</a>
</g>
</g>
<!-- dir_543817dc0abe17961f66d6d58373e100&#45;&gt;dir_4118ae531ffdde861fee1c6efaa3009d -->
<g id="edge3" class="edge">
<title>dir_543817dc0abe17961f66d6d58373e100&#45;&gt;dir_4118ae531ffdde861fee1c6efaa3009d</title>
<path fill="none" stroke="black" d="M59.07,-143.86C47.94,-134.67 36,-122.29 30,-108 23.81,-93.25 23.19,-86.48 30,-72 35.52,-60.26 45.07,-50.22 55.12,-42.15"/>
<polygon fill="black" stroke="black" points="57.31,-44.88 63.23,-36.09 53.12,-39.27 57.31,-44.88"/>
<g id="a_edge3&#45;headlabel"><a xlink:href="dir_000085_000094.html" target="_top" xlink:title="1">
<text text-anchor="middle" x="56.13" y="-46.81" font-family="Helvetica,sans-Serif" font-size="10.00">1</text>
</a>
</g>
</g>
<!-- dir_995a11a27ec5ce2fce465ebbab555255 -->
<g id="node6" class="node">
<title>dir_995a11a27ec5ce2fce465ebbab555255</title>
<g id="a_node6"><a xlink:href="dir_995a11a27ec5ce2fce465ebbab555255.html" target="_top" xlink:title="ParametersHandler">
<polygon fill="none" stroke="red" points="149,-108 39,-108 39,-72 149,-72 149,-108"/>
<text text-anchor="middle" x="94" y="-87.5" font-family="Helvetica,sans-Serif" font-size="10.00">ParametersHandler</text>
</a>
</g>
</g>
<!-- dir_543817dc0abe17961f66d6d58373e100&#45;&gt;dir_995a11a27ec5ce2fce465ebbab555255 -->
<g id="edge4" class="edge">
<title>dir_543817dc0abe17961f66d6d58373e100&#45;&gt;dir_995a11a27ec5ce2fce465ebbab555255</title>
<path fill="none" stroke="black" d="M86.47,-143.7C87.57,-135.98 88.9,-126.71 90.13,-118.11"/>
<polygon fill="black" stroke="black" points="93.61,-118.5 91.56,-108.1 86.68,-117.51 93.61,-118.5"/>
<g id="a_edge4&#45;headlabel"><a xlink:href="dir_000085_000052.html" target="_top" xlink:title="4">
<text text-anchor="middle" x="95.91" y="-119.96" font-family="Helvetica,sans-Serif" font-size="10.00">4</text>
</a>
</g>
</g>
<!-- dir_5f44df30490d7d577c379553603dbaeb -->
<g id="node3" class="node">
<title>dir_5f44df30490d7d577c379553603dbaeb</title>
<g id="a_node3"><a xlink:href="dir_5f44df30490d7d577c379553603dbaeb.html" target="_top" xlink:title="src">
<polygon fill="white" stroke="black" points="204,-252 150,-252 150,-216 204,-216 204,-252"/>
<text text-anchor="middle" x="177" y="-231.5" font-family="Helvetica,sans-Serif" font-size="10.00">src</text>
</a>
</g>
</g>
<!-- dir_5f44df30490d7d577c379553603dbaeb&#45;&gt;dir_543817dc0abe17961f66d6d58373e100 -->
<g id="edge2" class="edge">
<title>dir_5f44df30490d7d577c379553603dbaeb&#45;&gt;dir_543817dc0abe17961f66d6d58373e100</title>
<path fill="none" stroke="black" d="M154.01,-215.7C142.19,-206.8 127.61,-195.82 114.82,-186.2"/>
<polygon fill="black" stroke="black" points="116.82,-183.32 106.72,-180.1 112.61,-188.91 116.82,-183.32"/>
<g id="a_edge2&#45;headlabel"><a xlink:href="dir_000088_000085.html" target="_top" xlink:title="5">
<text text-anchor="middle" x="121.4" y="-180.71" font-family="Helvetica,sans-Serif" font-size="10.00">5</text>
</a>
</g>
</g>
<!-- dir_5f44df30490d7d577c379553603dbaeb&#45;&gt;dir_4118ae531ffdde861fee1c6efaa3009d -->
<g id="edge1" class="edge">
<title>dir_5f44df30490d7d577c379553603dbaeb&#45;&gt;dir_4118ae531ffdde861fee1c6efaa3009d</title>
<path fill="none" stroke="black" d="M178.96,-215.78C181.64,-184.91 183.56,-118.97 158,-72 151.69,-60.4 141.71,-50.32 131.49,-42.16"/>
<polygon fill="black" stroke="black" points="133.41,-39.22 123.31,-36.03 129.21,-44.82 133.41,-39.22"/>
<g id="a_edge1&#45;headlabel"><a xlink:href="dir_000088_000094.html" target="_top" xlink:title="3">
<text text-anchor="middle" x="137.99" y="-36.61" font-family="Helvetica,sans-Serif" font-size="10.00">3</text>
</a>
</g>
</g>
<!-- dir_cf5a4ee4a7cdd39a31caf469a583e8a8 -->
<g id="node4" class="node">
<title>dir_cf5a4ee4a7cdd39a31caf469a583e8a8</title>
<g id="a_node4"><a xlink:href="dir_cf5a4ee4a7cdd39a31caf469a583e8a8.html" target="_top" xlink:title="YarpImplementation">
<polygon fill="white" stroke="red" points="131.5,-252 16.5,-252 16.5,-216 131.5,-216 131.5,-252"/>
<text text-anchor="middle" x="74" y="-231.5" font-family="Helvetica,sans-Serif" font-size="10.00">YarpImplementation</text>
</a>
</g>
</g>
<!-- dir_cf5a4ee4a7cdd39a31caf469a583e8a8&#45;&gt;dir_543817dc0abe17961f66d6d58373e100 -->
<g id="edge6" class="edge">
<title>dir_cf5a4ee4a7cdd39a31caf469a583e8a8&#45;&gt;dir_543817dc0abe17961f66d6d58373e100</title>
<path fill="none" stroke="black" d="M76.47,-215.7C77.57,-207.98 78.9,-198.71 80.13,-190.11"/>
<polygon fill="black" stroke="black" points="83.61,-190.5 81.56,-180.1 76.68,-189.51 83.61,-190.5"/>
<g id="a_edge6&#45;headlabel"><a xlink:href="dir_000089_000085.html" target="_top" xlink:title="1">
<text text-anchor="middle" x="85.91" y="-191.96" font-family="Helvetica,sans-Serif" font-size="10.00">1</text>
</a>
</g>
</g>
<!-- dir_995a11a27ec5ce2fce465ebbab555255&#45;&gt;dir_4118ae531ffdde861fee1c6efaa3009d -->
<g id="edge5" class="edge">
<title>dir_995a11a27ec5ce2fce465ebbab555255&#45;&gt;dir_4118ae531ffdde861fee1c6efaa3009d</title>
<path fill="none" stroke="black" d="M94,-71.7C94,-63.98 94,-54.71 94,-46.11"/>
<polygon fill="black" stroke="black" points="97.5,-46.1 94,-36.1 90.5,-46.1 97.5,-46.1"/>
<g id="a_edge5&#45;headlabel"><a xlink:href="dir_000052_000094.html" target="_top" xlink:title="3">
<text text-anchor="middle" x="100.34" y="-47.2" font-family="Helvetica,sans-Serif" font-size="10.00">3</text>
</a>
</g>
</g>
</g>
</svg>
