<?xml version="1.0" encoding="UTF-8" standalone="no"?>
<!DOCTYPE svg PUBLIC "-//W3C//DTD SVG 1.1//EN"
 "http://www.w3.org/Graphics/SVG/1.1/DTD/svg11.dtd">
<!-- Generated by graphviz version 2.43.0 (0)
 -->
<!-- Title: System/include/BipedalLocomotion Pages: 1 -->
<svg width="238pt" height="231pt"
 viewBox="0.00 0.00 238.00 231.00" xmlns="http://www.w3.org/2000/svg" xmlns:xlink="http://www.w3.org/1999/xlink">
<g id="graph0" class="graph" transform="scale(1 1) rotate(0) translate(4 227)">
<title>System/include/BipedalLocomotion</title>
<g id="clust1" class="cluster">
<title>clusterdir_543817dc0abe17961f66d6d58373e100</title>
<g id="a_clust1"><a xlink:href="dir_543817dc0abe17961f66d6d58373e100.html" target="_top" xlink:title="include">
<polygon fill="#ddddee" stroke="black" points="8,-128 8,-215 222,-215 222,-128 8,-128"/>
<text text-anchor="middle" x="115" y="-203" font-family="Helvetica,sans-Serif" font-size="10.00">include</text>
</a>
</g>
</g>
<g id="clust2" class="cluster">
<title>clusterdir_851e45f592bcaa6147ca4dae8a337a6d</title>
<g id="a_clust2"><a xlink:href="dir_851e45f592bcaa6147ca4dae8a337a6d.html" target="_top">
<polygon fill="#eeeeff" stroke="black" points="16,-136 16,-188 214,-188 214,-136 16,-136"/>
</a>
</g>
</g>
<!-- dir_851e45f592bcaa6147ca4dae8a337a6d -->
<g id="node1" class="node">
<title>dir_851e45f592bcaa6147ca4dae8a337a6d</title>
<text text-anchor="middle" x="151" y="-159.5" font-family="Helvetica,sans-Serif" font-size="10.00">BipedalLocomotion</text>
</g>
<!-- dir_1a41e7752d0b8c023e1d3ecf18af98b7 -->
<g id="node2" class="node">
<title>dir_1a41e7752d0b8c023e1d3ecf18af98b7</title>
<g id="a_node2"><a xlink:href="dir_1a41e7752d0b8c023e1d3ecf18af98b7.html" target="_top" xlink:title="System">
<polygon fill="white" stroke="black" points="78,-180 24,-180 24,-144 78,-144 78,-180"/>
<text text-anchor="middle" x="51" y="-159.5" font-family="Helvetica,sans-Serif" font-size="10.00">System</text>
</a>
</g>
</g>
<!-- dir_4118ae531ffdde861fee1c6efaa3009d -->
<g id="node3" class="node">
<title>dir_4118ae531ffdde861fee1c6efaa3009d</title>
<g id="a_node3"><a xlink:href="dir_4118ae531ffdde861fee1c6efaa3009d.html" target="_top" xlink:title="TextLogging">
<polygon fill="none" stroke="red" points="87.5,-36 12.5,-36 12.5,0 87.5,0 87.5,-36"/>
<text text-anchor="middle" x="50" y="-15.5" font-family="Helvetica,sans-Serif" font-size="10.00">TextLogging</text>
</a>
</g>
</g>
<!-- dir_1a41e7752d0b8c023e1d3ecf18af98b7&#45;&gt;dir_4118ae531ffdde861fee1c6efaa3009d -->
<g id="edge1" class="edge">
<title>dir_1a41e7752d0b8c023e1d3ecf18af98b7&#45;&gt;dir_4118ae531ffdde861fee1c6efaa3009d</title>
<path fill="none" stroke="black" d="M41.46,-143.93C36.36,-133.82 30.61,-120.57 28,-108 24.75,-92.33 24.87,-87.69 28,-72 29.79,-63.01 33.14,-53.64 36.69,-45.32"/>
<polygon fill="black" stroke="black" points="39.92,-46.67 40.87,-36.12 33.54,-43.77 39.92,-46.67"/>
<g id="a_edge1&#45;headlabel"><a xlink:href="dir_000087_000094.html" target="_top" xlink:title="1">
<text text-anchor="middle" x="41.01" y="-48.62" font-family="Helvetica,sans-Serif" font-size="10.00">1</text>
</a>
</g>
</g>
<!-- dir_995a11a27ec5ce2fce465ebbab555255 -->
<g id="node4" class="node">
<title>dir_995a11a27ec5ce2fce465ebbab555255</title>
<g id="a_node4"><a xlink:href="dir_995a11a27ec5ce2fce465ebbab555255.html" target="_top" xlink:title="ParametersHandler">
<polygon fill="none" stroke="red" points="147,-108 37,-108 37,-72 147,-72 147,-108"/>
<text text-anchor="middle" x="92" y="-87.5" font-family="Helvetica,sans-Serif" font-size="10.00">ParametersHandler</text>
</a>
</g>
</g>
<!-- dir_1a41e7752d0b8c023e1d3ecf18af98b7&#45;&gt;dir_995a11a27ec5ce2fce465ebbab555255 -->
<g id="edge2" class="edge">
<title>dir_1a41e7752d0b8c023e1d3ecf18af98b7&#45;&gt;dir_995a11a27ec5ce2fce465ebbab555255</title>
<path fill="none" stroke="black" d="M61.13,-143.7C65.85,-135.64 71.56,-125.89 76.78,-116.98"/>
<polygon fill="black" stroke="black" points="79.95,-118.5 81.98,-108.1 73.91,-114.96 79.95,-118.5"/>
<g id="a_edge2&#45;headlabel"><a xlink:href="dir_000087_000052.html" target="_top" xlink:title="4">
<text text-anchor="middle" x="80.58" y="-120.54" font-family="Helvetica,sans-Serif" font-size="10.00">4</text>
</a>
</g>
</g>
<!-- dir_995a11a27ec5ce2fce465ebbab555255&#45;&gt;dir_4118ae531ffdde861fee1c6efaa3009d -->
<g id="edge3" class="edge">
<title>dir_995a11a27ec5ce2fce465ebbab555255&#45;&gt;dir_4118ae531ffdde861fee1c6efaa3009d</title>
<path fill="none" stroke="black" d="M81.62,-71.7C76.74,-63.56 70.81,-53.69 65.42,-44.7"/>
<polygon fill="black" stroke="black" points="68.41,-42.88 60.26,-36.1 62.41,-46.48 68.41,-42.88"/>
<g id="a_edge3&#45;headlabel"><a xlink:href="dir_000052_000094.html" target="_top" xlink:title="3">
<text text-anchor="middle" x="72.69" y="-42" font-family="Helvetica,sans-Serif" font-size="10.00">3</text>
</a>
</g>
</g>
</g>
</svg>
