<?xml version="1.0" encoding="UTF-8" standalone="no"?>
<!DOCTYPE svg PUBLIC "-//W3C//DTD SVG 1.1//EN"
 "http://www.w3.org/Graphics/SVG/1.1/DTD/svg11.dtd">
<!-- Generated by graphviz version 2.43.0 (0)
 -->
<!-- Title: Perception/include/BipedalLocomotion/Perception Pages: 1 -->
<svg width="311pt" height="303pt"
 viewBox="0.00 0.00 310.99 303.00" xmlns="http://www.w3.org/2000/svg" xmlns:xlink="http://www.w3.org/1999/xlink">
<g id="graph0" class="graph" transform="scale(1 1) rotate(0) translate(4 299)">
<title>Perception/include/BipedalLocomotion/Perception</title>
<g id="clust1" class="cluster">
<title>clusterdir_971a6c12d223bcc68795a08dd8fd8cb2</title>
<g id="a_clust1"><a xlink:href="dir_971a6c12d223bcc68795a08dd8fd8cb2.html" target="_top" xlink:title="BipedalLocomotion">
<polygon fill="#ddddee" stroke="black" points="43.99,-200 43.99,-287 294.99,-287 294.99,-200 43.99,-200"/>
<text text-anchor="middle" x="169.49" y="-275" font-family="Helvetica,sans-Serif" font-size="10.00">BipedalLocomotion</text>
</a>
</g>
</g>
<g id="clust2" class="cluster">
<title>clusterdir_224cc52f73d01a88baf301b7a814488c</title>
<g id="a_clust2"><a xlink:href="dir_224cc52f73d01a88baf301b7a814488c.html" target="_top">
<polygon fill="#eeeeff" stroke="black" points="51.99,-208 51.99,-260 286.99,-260 286.99,-208 51.99,-208"/>
</a>
</g>
</g>
<!-- dir_224cc52f73d01a88baf301b7a814488c -->
<g id="node1" class="node">
<title>dir_224cc52f73d01a88baf301b7a814488c</title>
<text text-anchor="middle" x="244.99" y="-231.5" font-family="Helvetica,sans-Serif" font-size="10.00">Perception</text>
</g>
<!-- dir_531c7abd5b4eafc7c353b939b0a8a2d6 -->
<g id="node2" class="node">
<title>dir_531c7abd5b4eafc7c353b939b0a8a2d6</title>
<g id="a_node2"><a xlink:href="dir_531c7abd5b4eafc7c353b939b0a8a2d6.html" target="_top" xlink:title="Capture">
<polygon fill="white" stroke="black" points="192.49,-252 137.49,-252 137.49,-216 192.49,-216 192.49,-252"/>
<text text-anchor="middle" x="164.99" y="-231.5" font-family="Helvetica,sans-Serif" font-size="10.00">Capture</text>
</a>
</g>
</g>
<!-- dir_90b3ac752beccf49ccfff4dd68d70892 -->
<g id="node3" class="node">
<title>dir_90b3ac752beccf49ccfff4dd68d70892</title>
<g id="a_node3"><a xlink:href="dir_90b3ac752beccf49ccfff4dd68d70892.html" target="_top" xlink:title="Features">
<polygon fill="white" stroke="black" points="119.49,-252 60.49,-252 60.49,-216 119.49,-216 119.49,-252"/>
<text text-anchor="middle" x="89.99" y="-231.5" font-family="Helvetica,sans-Serif" font-size="10.00">Features</text>
</a>
</g>
</g>
<!-- dir_ef68f1e1f5148ff8ef7fb1c955106c3c -->
<g id="node4" class="node">
<title>dir_ef68f1e1f5148ff8ef7fb1c955106c3c</title>
<g id="a_node4"><a xlink:href="dir_ef68f1e1f5148ff8ef7fb1c955106c3c.html" target="_top" xlink:title="System">
<polygon fill="none" stroke="red" points="61.99,-180 7.99,-180 7.99,-144 61.99,-144 61.99,-180"/>
<text text-anchor="middle" x="34.99" y="-159.5" font-family="Helvetica,sans-Serif" font-size="10.00">System</text>
</a>
</g>
</g>
<!-- dir_90b3ac752beccf49ccfff4dd68d70892&#45;&gt;dir_ef68f1e1f5148ff8ef7fb1c955106c3c -->
<g id="edge3" class="edge">
<title>dir_90b3ac752beccf49ccfff4dd68d70892&#45;&gt;dir_ef68f1e1f5148ff8ef7fb1c955106c3c</title>
<path fill="none" stroke="black" d="M76.39,-215.7C69.86,-207.39 61.92,-197.28 54.74,-188.14"/>
<polygon fill="black" stroke="black" points="57.36,-185.81 48.43,-180.1 51.85,-190.13 57.36,-185.81"/>
<g id="a_edge3&#45;headlabel"><a xlink:href="dir_000067_000084.html" target="_top" xlink:title="1">
<text text-anchor="middle" x="61.81" y="-184.38" font-family="Helvetica,sans-Serif" font-size="10.00">1</text>
</a>
</g>
</g>
<!-- dir_4118ae531ffdde861fee1c6efaa3009d -->
<g id="node5" class="node">
<title>dir_4118ae531ffdde861fee1c6efaa3009d</title>
<g id="a_node5"><a xlink:href="dir_4118ae531ffdde861fee1c6efaa3009d.html" target="_top" xlink:title="TextLogging">
<polygon fill="none" stroke="red" points="105.49,-36 30.49,-36 30.49,0 105.49,0 105.49,-36"/>
<text text-anchor="middle" x="67.99" y="-15.5" font-family="Helvetica,sans-Serif" font-size="10.00">TextLogging</text>
</a>
</g>
</g>
<!-- dir_90b3ac752beccf49ccfff4dd68d70892&#45;&gt;dir_4118ae531ffdde861fee1c6efaa3009d -->
<g id="edge4" class="edge">
<title>dir_90b3ac752beccf49ccfff4dd68d70892&#45;&gt;dir_4118ae531ffdde861fee1c6efaa3009d</title>
<path fill="none" stroke="black" d="M101.88,-215.84C121.25,-185.62 155.22,-121.41 131.99,-72 126.46,-60.26 116.92,-50.22 106.86,-42.15"/>
<polygon fill="black" stroke="black" points="108.86,-39.27 98.75,-36.09 104.67,-44.88 108.86,-39.27"/>
<g id="a_edge4&#45;headlabel"><a xlink:href="dir_000067_000094.html" target="_top" xlink:title="1">
<text text-anchor="middle" x="113.44" y="-36.65" font-family="Helvetica,sans-Serif" font-size="10.00">1</text>
</a>
</g>
</g>
<!-- dir_995a11a27ec5ce2fce465ebbab555255 -->
<g id="node6" class="node">
<title>dir_995a11a27ec5ce2fce465ebbab555255</title>
<g id="a_node6"><a xlink:href="dir_995a11a27ec5ce2fce465ebbab555255.html" target="_top" xlink:title="ParametersHandler">
<polygon fill="none" stroke="red" points="122.99,-108 12.99,-108 12.99,-72 122.99,-72 122.99,-108"/>
<text text-anchor="middle" x="67.99" y="-87.5" font-family="Helvetica,sans-Serif" font-size="10.00">ParametersHandler</text>
</a>
</g>
</g>
<!-- dir_90b3ac752beccf49ccfff4dd68d70892&#45;&gt;dir_995a11a27ec5ce2fce465ebbab555255 -->
<g id="edge5" class="edge">
<title>dir_90b3ac752beccf49ccfff4dd68d70892&#45;&gt;dir_995a11a27ec5ce2fce465ebbab555255</title>
<path fill="none" stroke="black" d="M87.33,-215.87C83.58,-191.67 76.69,-147.21 72.23,-118.39"/>
<polygon fill="black" stroke="black" points="75.64,-117.54 70.65,-108.19 68.72,-118.61 75.64,-117.54"/>
<g id="a_edge5&#45;headlabel"><a xlink:href="dir_000067_000052.html" target="_top" xlink:title="2">
<text text-anchor="middle" x="78.99" y="-118.15" font-family="Helvetica,sans-Serif" font-size="10.00">2</text>
</a>
</g>
</g>
<!-- dir_ef68f1e1f5148ff8ef7fb1c955106c3c&#45;&gt;dir_4118ae531ffdde861fee1c6efaa3009d -->
<g id="edge1" class="edge">
<title>dir_ef68f1e1f5148ff8ef7fb1c955106c3c&#45;&gt;dir_4118ae531ffdde861fee1c6efaa3009d</title>
<path fill="none" stroke="black" d="M21.19,-143.85C8.31,-125.62 -7.36,-96.13 3.99,-72 9.51,-60.26 19.05,-50.22 29.11,-42.15"/>
<polygon fill="black" stroke="black" points="31.3,-44.88 37.22,-36.09 27.11,-39.27 31.3,-44.88"/>
<g id="a_edge1&#45;headlabel"><a xlink:href="dir_000084_000094.html" target="_top" xlink:title="4">
<text text-anchor="middle" x="30.11" y="-46.81" font-family="Helvetica,sans-Serif" font-size="10.00">4</text>
</a>
</g>
</g>
<!-- dir_ef68f1e1f5148ff8ef7fb1c955106c3c&#45;&gt;dir_995a11a27ec5ce2fce465ebbab555255 -->
<g id="edge2" class="edge">
<title>dir_ef68f1e1f5148ff8ef7fb1c955106c3c&#45;&gt;dir_995a11a27ec5ce2fce465ebbab555255</title>
<path fill="none" stroke="black" d="M43.14,-143.7C46.9,-135.73 51.44,-126.1 55.6,-117.26"/>
<polygon fill="black" stroke="black" points="58.82,-118.64 59.92,-108.1 52.49,-115.66 58.82,-118.64"/>
<g id="a_edge2&#45;headlabel"><a xlink:href="dir_000084_000052.html" target="_top" xlink:title="4">
<text text-anchor="middle" x="59.86" y="-120.6" font-family="Helvetica,sans-Serif" font-size="10.00">4</text>
</a>
</g>
</g>
<!-- dir_995a11a27ec5ce2fce465ebbab555255&#45;&gt;dir_4118ae531ffdde861fee1c6efaa3009d -->
<g id="edge6" class="edge">
<title>dir_995a11a27ec5ce2fce465ebbab555255&#45;&gt;dir_4118ae531ffdde861fee1c6efaa3009d</title>
<path fill="none" stroke="black" d="M67.99,-71.7C67.99,-63.98 67.99,-54.71 67.99,-46.11"/>
<polygon fill="black" stroke="black" points="71.49,-46.1 67.99,-36.1 64.49,-46.1 71.49,-46.1"/>
<g id="a_edge6&#45;headlabel"><a xlink:href="dir_000052_000094.html" target="_top" xlink:title="3">
<text text-anchor="middle" x="74.33" y="-47.2" font-family="Helvetica,sans-Serif" font-size="10.00">3</text>
</a>
</g>
</g>
</g>
</svg>
