<?xml version="1.0" encoding="UTF-8" standalone="no"?>
<!DOCTYPE svg PUBLIC "-//W3C//DTD SVG 1.1//EN"
 "http://www.w3.org/Graphics/SVG/1.1/DTD/svg11.dtd">
<!-- Generated by graphviz version 2.43.0 (0)
 -->
<!-- Title: ContinuousDynamicalSystem/include/BipedalLocomotion Pages: 1 -->
<svg width="346pt" height="303pt"
 viewBox="0.00 0.00 346.00 303.00" xmlns="http://www.w3.org/2000/svg" xmlns:xlink="http://www.w3.org/1999/xlink">
<g id="graph0" class="graph" transform="scale(1 1) rotate(0) translate(4 299)">
<title>ContinuousDynamicalSystem/include/BipedalLocomotion</title>
<g id="clust1" class="cluster">
<title>clusterdir_99cb74f436ad600139b9f1cd091ccc03</title>
<g id="a_clust1"><a xlink:href="dir_99cb74f436ad600139b9f1cd091ccc03.html" target="_top" xlink:title="include">
<polygon fill="#ddddee" stroke="black" points="8,-200 8,-287 330,-287 330,-200 8,-200"/>
<text text-anchor="middle" x="169" y="-275" font-family="Helvetica,sans-Serif" font-size="10.00">include</text>
</a>
</g>
</g>
<g id="clust2" class="cluster">
<title>clusterdir_eaf5314e05d734149789ca52ab6ca8f2</title>
<g id="a_clust2"><a xlink:href="dir_eaf5314e05d734149789ca52ab6ca8f2.html" target="_top">
<polygon fill="#eeeeff" stroke="black" points="16,-208 16,-260 322,-260 322,-208 16,-208"/>
</a>
</g>
</g>
<!-- dir_eaf5314e05d734149789ca52ab6ca8f2 -->
<g id="node1" class="node">
<title>dir_eaf5314e05d734149789ca52ab6ca8f2</title>
<text text-anchor="middle" x="259" y="-231.5" font-family="Helvetica,sans-Serif" font-size="10.00">BipedalLocomotion</text>
</g>
<!-- dir_c742c3754522739908222a171dc053d9 -->
<g id="node2" class="node">
<title>dir_c742c3754522739908222a171dc053d9</title>
<g id="a_node2"><a xlink:href="dir_c742c3754522739908222a171dc053d9.html" target="_top" xlink:title="ContinuousDynamicalSystem">
<polygon fill="white" stroke="red" points="185.5,-252 24.5,-252 24.5,-216 185.5,-216 185.5,-252"/>
<text text-anchor="middle" x="105" y="-231.5" font-family="Helvetica,sans-Serif" font-size="10.00">ContinuousDynamicalSystem</text>
</a>
</g>
</g>
<!-- dir_ddacabcd4572cd422cd722a5b78176ea -->
<g id="node3" class="node">
<title>dir_ddacabcd4572cd422cd722a5b78176ea</title>
<g id="a_node3"><a xlink:href="dir_ddacabcd4572cd422cd722a5b78176ea.html" target="_top" xlink:title="ContactModels">
<polygon fill="none" stroke="red" points="113.5,-180 24.5,-180 24.5,-144 113.5,-144 113.5,-180"/>
<text text-anchor="middle" x="69" y="-159.5" font-family="Helvetica,sans-Serif" font-size="10.00">ContactModels</text>
</a>
</g>
</g>
<!-- dir_c742c3754522739908222a171dc053d9&#45;&gt;dir_ddacabcd4572cd422cd722a5b78176ea -->
<g id="edge4" class="edge">
<title>dir_c742c3754522739908222a171dc053d9&#45;&gt;dir_ddacabcd4572cd422cd722a5b78176ea</title>
<path fill="none" stroke="black" d="M96.1,-215.7C92,-207.73 87.05,-198.1 82.51,-189.26"/>
<polygon fill="black" stroke="black" points="85.48,-187.4 77.8,-180.1 79.26,-190.6 85.48,-187.4"/>
<g id="a_edge4&#45;headlabel"><a xlink:href="dir_000020_000006.html" target="_top" xlink:title="1">
<text text-anchor="middle" x="89.65" y="-186.79" font-family="Helvetica,sans-Serif" font-size="10.00">1</text>
</a>
</g>
</g>
<!-- dir_4118ae531ffdde861fee1c6efaa3009d -->
<g id="node4" class="node">
<title>dir_4118ae531ffdde861fee1c6efaa3009d</title>
<g id="a_node4"><a xlink:href="dir_4118ae531ffdde861fee1c6efaa3009d.html" target="_top" xlink:title="TextLogging">
<polygon fill="none" stroke="red" points="151.5,-36 76.5,-36 76.5,0 151.5,0 151.5,-36"/>
<text text-anchor="middle" x="114" y="-15.5" font-family="Helvetica,sans-Serif" font-size="10.00">TextLogging</text>
</a>
</g>
</g>
<!-- dir_c742c3754522739908222a171dc053d9&#45;&gt;dir_4118ae531ffdde861fee1c6efaa3009d -->
<g id="edge5" class="edge">
<title>dir_c742c3754522739908222a171dc053d9&#45;&gt;dir_4118ae531ffdde861fee1c6efaa3009d</title>
<path fill="none" stroke="black" d="M56.44,-215.97C40.33,-207.73 24.18,-196.06 15,-180 7.06,-166.11 11.41,-159.59 15,-144 22.98,-109.33 28.02,-99.98 50,-72 58.59,-61.06 69.79,-50.84 80.41,-42.36"/>
<polygon fill="black" stroke="black" points="82.59,-45.1 88.37,-36.22 78.32,-39.55 82.59,-45.1"/>
<g id="a_edge5&#45;headlabel"><a xlink:href="dir_000020_000094.html" target="_top" xlink:title="2">
<text text-anchor="middle" x="81.48" y="-47.04" font-family="Helvetica,sans-Serif" font-size="10.00">2</text>
</a>
</g>
</g>
<!-- dir_3813464283bee2267f39dcf080a84d74 -->
<g id="node5" class="node">
<title>dir_3813464283bee2267f39dcf080a84d74</title>
<g id="a_node5"><a xlink:href="dir_3813464283bee2267f39dcf080a84d74.html" target="_top" xlink:title="Math">
<polygon fill="none" stroke="red" points="224,-180 170,-180 170,-144 224,-144 224,-180"/>
<text text-anchor="middle" x="197" y="-159.5" font-family="Helvetica,sans-Serif" font-size="10.00">Math</text>
</a>
</g>
</g>
<!-- dir_c742c3754522739908222a171dc053d9&#45;&gt;dir_3813464283bee2267f39dcf080a84d74 -->
<g id="edge6" class="edge">
<title>dir_c742c3754522739908222a171dc053d9&#45;&gt;dir_3813464283bee2267f39dcf080a84d74</title>
<path fill="none" stroke="black" d="M127.74,-215.7C139.44,-206.8 153.86,-195.82 166.51,-186.2"/>
<polygon fill="black" stroke="black" points="168.68,-188.94 174.52,-180.1 164.44,-183.37 168.68,-188.94"/>
<g id="a_edge6&#45;headlabel"><a xlink:href="dir_000020_000047.html" target="_top" xlink:title="2">
<text text-anchor="middle" x="167.54" y="-190.88" font-family="Helvetica,sans-Serif" font-size="10.00">2</text>
</a>
</g>
</g>
<!-- dir_995a11a27ec5ce2fce465ebbab555255 -->
<g id="node6" class="node">
<title>dir_995a11a27ec5ce2fce465ebbab555255</title>
<g id="a_node6"><a xlink:href="dir_995a11a27ec5ce2fce465ebbab555255.html" target="_top" xlink:title="ParametersHandler">
<polygon fill="none" stroke="red" points="169,-108 59,-108 59,-72 169,-72 169,-108"/>
<text text-anchor="middle" x="114" y="-87.5" font-family="Helvetica,sans-Serif" font-size="10.00">ParametersHandler</text>
</a>
</g>
</g>
<!-- dir_c742c3754522739908222a171dc053d9&#45;&gt;dir_995a11a27ec5ce2fce465ebbab555255 -->
<g id="edge7" class="edge">
<title>dir_c742c3754522739908222a171dc053d9&#45;&gt;dir_995a11a27ec5ce2fce465ebbab555255</title>
<path fill="none" stroke="black" d="M112.07,-215.67C115.84,-205.47 120.09,-192.22 122,-180 125.22,-159.44 122.87,-135.98 119.9,-118.32"/>
<polygon fill="black" stroke="black" points="123.28,-117.34 118.02,-108.14 116.39,-118.61 123.28,-117.34"/>
<g id="a_edge7&#45;headlabel"><a xlink:href="dir_000020_000052.html" target="_top" xlink:title="3">
<text text-anchor="middle" x="126.72" y="-117.86" font-family="Helvetica,sans-Serif" font-size="10.00">3</text>
</a>
</g>
</g>
<!-- dir_ddacabcd4572cd422cd722a5b78176ea&#45;&gt;dir_995a11a27ec5ce2fce465ebbab555255 -->
<g id="edge1" class="edge">
<title>dir_ddacabcd4572cd422cd722a5b78176ea&#45;&gt;dir_995a11a27ec5ce2fce465ebbab555255</title>
<path fill="none" stroke="black" d="M80.12,-143.7C85.36,-135.56 91.7,-125.69 97.48,-116.7"/>
<polygon fill="black" stroke="black" points="100.54,-118.41 103,-108.1 94.65,-114.62 100.54,-118.41"/>
<g id="a_edge1&#45;headlabel"><a xlink:href="dir_000006_000052.html" target="_top" xlink:title="3">
<text text-anchor="middle" x="100.99" y="-120.47" font-family="Helvetica,sans-Serif" font-size="10.00">3</text>
</a>
</g>
</g>
<!-- dir_3813464283bee2267f39dcf080a84d74&#45;&gt;dir_4118ae531ffdde861fee1c6efaa3009d -->
<g id="edge2" class="edge">
<title>dir_3813464283bee2267f39dcf080a84d74&#45;&gt;dir_4118ae531ffdde861fee1c6efaa3009d</title>
<path fill="none" stroke="black" d="M196.63,-143.71C195.5,-124.82 191.51,-94.3 178,-72 171.1,-60.61 160.85,-50.54 150.57,-42.32"/>
<polygon fill="black" stroke="black" points="152.47,-39.37 142.38,-36.14 148.25,-44.96 152.47,-39.37"/>
<g id="a_edge2&#45;headlabel"><a xlink:href="dir_000047_000094.html" target="_top" xlink:title="1">
<text text-anchor="middle" x="157.05" y="-36.77" font-family="Helvetica,sans-Serif" font-size="10.00">1</text>
</a>
</g>
</g>
<!-- dir_3813464283bee2267f39dcf080a84d74&#45;&gt;dir_995a11a27ec5ce2fce465ebbab555255 -->
<g id="edge3" class="edge">
<title>dir_3813464283bee2267f39dcf080a84d74&#45;&gt;dir_995a11a27ec5ce2fce465ebbab555255</title>
<path fill="none" stroke="black" d="M176.48,-143.7C166.13,-134.97 153.41,-124.24 142.16,-114.75"/>
<polygon fill="black" stroke="black" points="144.18,-111.88 134.28,-108.1 139.67,-117.23 144.18,-111.88"/>
<g id="a_edge3&#45;headlabel"><a xlink:href="dir_000047_000052.html" target="_top" xlink:title="2">
<text text-anchor="middle" x="148.76" y="-109.52" font-family="Helvetica,sans-Serif" font-size="10.00">2</text>
</a>
</g>
</g>
<!-- dir_995a11a27ec5ce2fce465ebbab555255&#45;&gt;dir_4118ae531ffdde861fee1c6efaa3009d -->
<g id="edge8" class="edge">
<title>dir_995a11a27ec5ce2fce465ebbab555255&#45;&gt;dir_4118ae531ffdde861fee1c6efaa3009d</title>
<path fill="none" stroke="black" d="M114,-71.7C114,-63.98 114,-54.71 114,-46.11"/>
<polygon fill="black" stroke="black" points="117.5,-46.1 114,-36.1 110.5,-46.1 117.5,-46.1"/>
<g id="a_edge8&#45;headlabel"><a xlink:href="dir_000052_000094.html" target="_top" xlink:title="3">
<text text-anchor="middle" x="120.34" y="-47.2" font-family="Helvetica,sans-Serif" font-size="10.00">3</text>
</a>
</g>
</g>
</g>
</svg>
