<?xml version="1.0" encoding="UTF-8" standalone="no"?>
<!DOCTYPE svg PUBLIC "-//W3C//DTD SVG 1.1//EN"
 "http://www.w3.org/Graphics/SVG/1.1/DTD/svg11.dtd">
<!-- Generated by graphviz version 2.43.0 (0)
 -->
<!-- Title: Estimators/include/BipedalLocomotion/FloatingBaseEstimators Pages: 1 -->
<svg width="179pt" height="295pt"
 viewBox="0.00 0.00 178.50 295.00" xmlns="http://www.w3.org/2000/svg" xmlns:xlink="http://www.w3.org/1999/xlink">
<g id="graph0" class="graph" transform="scale(1 1) rotate(0) translate(4 291)">
<title>Estimators/include/BipedalLocomotion/FloatingBaseEstimators</title>
<g id="clust1" class="cluster">
<title>clusterdir_76b3c42c31613a4250722fde83b07506</title>
<g id="a_clust1"><a xlink:href="dir_76b3c42c31613a4250722fde83b07506.html" target="_top" xlink:title="BipedalLocomotion">
<polygon fill="#ddddee" stroke="black" points="8,-208 8,-279 158,-279 158,-208 8,-208"/>
<text text-anchor="middle" x="83" y="-267" font-family="Helvetica,sans-Serif" font-size="10.00">BipedalLocomotion</text>
</a>
</g>
</g>
<!-- dir_eb2aee06d54bf141ab9a7f577cd1a1c7 -->
<g id="node1" class="node">
<title>dir_eb2aee06d54bf141ab9a7f577cd1a1c7</title>
<g id="a_node1"><a xlink:href="dir_eb2aee06d54bf141ab9a7f577cd1a1c7.html" target="_top" xlink:title="FloatingBaseEstimators">
<polygon fill="#eeeeff" stroke="black" points="149.5,-252 16.5,-252 16.5,-216 149.5,-216 149.5,-252"/>
<text text-anchor="middle" x="83" y="-231.5" font-family="Helvetica,sans-Serif" font-size="10.00">FloatingBaseEstimators</text>
</a>
</g>
</g>
<!-- dir_ef68f1e1f5148ff8ef7fb1c955106c3c -->
<g id="node2" class="node">
<title>dir_ef68f1e1f5148ff8ef7fb1c955106c3c</title>
<g id="a_node2"><a xlink:href="dir_ef68f1e1f5148ff8ef7fb1c955106c3c.html" target="_top" xlink:title="System">
<polygon fill="none" stroke="red" points="120,-108 66,-108 66,-72 120,-72 120,-108"/>
<text text-anchor="middle" x="93" y="-87.5" font-family="Helvetica,sans-Serif" font-size="10.00">System</text>
</a>
</g>
</g>
<!-- dir_eb2aee06d54bf141ab9a7f577cd1a1c7&#45;&gt;dir_ef68f1e1f5148ff8ef7fb1c955106c3c -->
<g id="edge2" class="edge">
<title>dir_eb2aee06d54bf141ab9a7f577cd1a1c7&#45;&gt;dir_ef68f1e1f5148ff8ef7fb1c955106c3c</title>
<path fill="none" stroke="black" d="M84.21,-215.87C85.91,-191.67 89.04,-147.21 91.07,-118.39"/>
<polygon fill="black" stroke="black" points="94.58,-118.41 91.79,-108.19 87.6,-117.92 94.58,-118.41"/>
<g id="a_edge2&#45;headlabel"><a xlink:href="dir_000031_000084.html" target="_top" xlink:title="1">
<text text-anchor="middle" x="97.16" y="-119.7" font-family="Helvetica,sans-Serif" font-size="10.00">1</text>
</a>
</g>
</g>
<!-- dir_995a11a27ec5ce2fce465ebbab555255 -->
<g id="node3" class="node">
<title>dir_995a11a27ec5ce2fce465ebbab555255</title>
<g id="a_node3"><a xlink:href="dir_995a11a27ec5ce2fce465ebbab555255.html" target="_top" xlink:title="ParametersHandler">
<polygon fill="none" stroke="red" points="148,-36 38,-36 38,0 148,0 148,-36"/>
<text text-anchor="middle" x="93" y="-15.5" font-family="Helvetica,sans-Serif" font-size="10.00">ParametersHandler</text>
</a>
</g>
</g>
<!-- dir_eb2aee06d54bf141ab9a7f577cd1a1c7&#45;&gt;dir_995a11a27ec5ce2fce465ebbab555255 -->
<g id="edge3" class="edge">
<title>dir_eb2aee06d54bf141ab9a7f577cd1a1c7&#45;&gt;dir_995a11a27ec5ce2fce465ebbab555255</title>
<path fill="none" stroke="black" d="M75.16,-215.73C62.71,-185.86 41.35,-122.88 57,-72 60.01,-62.22 65.51,-52.62 71.32,-44.33"/>
<polygon fill="black" stroke="black" points="74.19,-46.33 77.39,-36.23 68.59,-42.13 74.19,-46.33"/>
<g id="a_edge3&#45;headlabel"><a xlink:href="dir_000031_000052.html" target="_top" xlink:title="2">
<text text-anchor="middle" x="74.31" y="-48.41" font-family="Helvetica,sans-Serif" font-size="10.00">2</text>
</a>
</g>
</g>
<!-- dir_50541d64f188ef934de78ba6c49ffdbe -->
<g id="node4" class="node">
<title>dir_50541d64f188ef934de78ba6c49ffdbe</title>
<g id="a_node4"><a xlink:href="dir_50541d64f188ef934de78ba6c49ffdbe.html" target="_top" xlink:title="Contacts">
<polygon fill="none" stroke="red" points="170.5,-180 111.5,-180 111.5,-144 170.5,-144 170.5,-180"/>
<text text-anchor="middle" x="141" y="-159.5" font-family="Helvetica,sans-Serif" font-size="10.00">Contacts</text>
</a>
</g>
</g>
<!-- dir_eb2aee06d54bf141ab9a7f577cd1a1c7&#45;&gt;dir_50541d64f188ef934de78ba6c49ffdbe -->
<g id="edge4" class="edge">
<title>dir_eb2aee06d54bf141ab9a7f577cd1a1c7&#45;&gt;dir_50541d64f188ef934de78ba6c49ffdbe</title>
<path fill="none" stroke="black" d="M97.34,-215.7C104.29,-207.3 112.77,-197.07 120.4,-187.86"/>
<polygon fill="black" stroke="black" points="123.14,-190.04 126.83,-180.1 117.75,-185.57 123.14,-190.04"/>
<g id="a_edge4&#45;headlabel"><a xlink:href="dir_000031_000011.html" target="_top" xlink:title="1">
<text text-anchor="middle" x="123.04" y="-192.12" font-family="Helvetica,sans-Serif" font-size="10.00">1</text>
</a>
</g>
</g>
<!-- dir_ef68f1e1f5148ff8ef7fb1c955106c3c&#45;&gt;dir_995a11a27ec5ce2fce465ebbab555255 -->
<g id="edge1" class="edge">
<title>dir_ef68f1e1f5148ff8ef7fb1c955106c3c&#45;&gt;dir_995a11a27ec5ce2fce465ebbab555255</title>
<path fill="none" stroke="black" d="M93,-71.7C93,-63.98 93,-54.71 93,-46.11"/>
<polygon fill="black" stroke="black" points="96.5,-46.1 93,-36.1 89.5,-46.1 96.5,-46.1"/>
<g id="a_edge1&#45;headlabel"><a xlink:href="dir_000084_000052.html" target="_top" xlink:title="4">
<text text-anchor="middle" x="99.34" y="-47.2" font-family="Helvetica,sans-Serif" font-size="10.00">4</text>
</a>
</g>
</g>
<!-- dir_50541d64f188ef934de78ba6c49ffdbe&#45;&gt;dir_ef68f1e1f5148ff8ef7fb1c955106c3c -->
<g id="edge5" class="edge">
<title>dir_50541d64f188ef934de78ba6c49ffdbe&#45;&gt;dir_ef68f1e1f5148ff8ef7fb1c955106c3c</title>
<path fill="none" stroke="black" d="M129.13,-143.7C123.5,-135.47 116.65,-125.48 110.43,-116.42"/>
<polygon fill="black" stroke="black" points="113.27,-114.37 104.73,-108.1 107.5,-118.33 113.27,-114.37"/>
<g id="a_edge5&#45;headlabel"><a xlink:href="dir_000011_000084.html" target="_top" xlink:title="1">
<text text-anchor="middle" x="117.65" y="-113.23" font-family="Helvetica,sans-Serif" font-size="10.00">1</text>
</a>
</g>
</g>
<!-- dir_50541d64f188ef934de78ba6c49ffdbe&#45;&gt;dir_995a11a27ec5ce2fce465ebbab555255 -->
<g id="edge6" class="edge">
<title>dir_50541d64f188ef934de78ba6c49ffdbe&#45;&gt;dir_995a11a27ec5ce2fce465ebbab555255</title>
<path fill="none" stroke="black" d="M140.99,-143.69C140.46,-125.33 138.08,-95.74 129,-72 125.34,-62.44 119.66,-52.9 113.89,-44.61"/>
<polygon fill="black" stroke="black" points="116.65,-42.46 107.91,-36.47 111.01,-46.6 116.65,-42.46"/>
<g id="a_edge6&#45;headlabel"><a xlink:href="dir_000011_000052.html" target="_top" xlink:title="3">
<text text-anchor="middle" x="121.07" y="-41.18" font-family="Helvetica,sans-Serif" font-size="10.00">3</text>
</a>
</g>
</g>
</g>
</svg>
