<?xml version="1.0" encoding="UTF-8" standalone="no"?>
<!DOCTYPE svg PUBLIC "-//W3C//DTD SVG 1.1//EN"
 "http://www.w3.org/Graphics/SVG/1.1/DTD/svg11.dtd">
<!-- Generated by graphviz version 2.43.0 (0)
 -->
<!-- Title: Estimators/include Pages: 1 -->
<svg width="238pt" height="303pt"
 viewBox="0.00 0.00 238.00 303.00" xmlns="http://www.w3.org/2000/svg" xmlns:xlink="http://www.w3.org/1999/xlink">
<g id="graph0" class="graph" transform="scale(1 1) rotate(0) translate(4 299)">
<title>Estimators/include</title>
<g id="clust1" class="cluster">
<title>clusterdir_941407157475547b8b358a98f0692190</title>
<g id="a_clust1"><a xlink:href="dir_941407157475547b8b358a98f0692190.html" target="_top" xlink:title="Estimators">
<polygon fill="#ddddee" stroke="black" points="8,-200 8,-287 222,-287 222,-200 8,-200"/>
<text text-anchor="middle" x="115" y="-275" font-family="Helvetica,sans-Serif" font-size="10.00">Estimators</text>
</a>
</g>
</g>
<g id="clust2" class="cluster">
<title>clusterdir_83e72bb223dd52ca9520cbeb993359a4</title>
<g id="a_clust2"><a xlink:href="dir_83e72bb223dd52ca9520cbeb993359a4.html" target="_top">
<polygon fill="#eeeeff" stroke="black" points="16,-208 16,-260 214,-260 214,-208 16,-208"/>
</a>
</g>
</g>
<!-- dir_83e72bb223dd52ca9520cbeb993359a4 -->
<g id="node1" class="node">
<title>dir_83e72bb223dd52ca9520cbeb993359a4</title>
<text text-anchor="middle" x="179" y="-231.5" font-family="Helvetica,sans-Serif" font-size="10.00">include</text>
</g>
<!-- dir_76b3c42c31613a4250722fde83b07506 -->
<g id="node2" class="node">
<title>dir_76b3c42c31613a4250722fde83b07506</title>
<g id="a_node2"><a xlink:href="dir_76b3c42c31613a4250722fde83b07506.html" target="_top" xlink:title="BipedalLocomotion">
<polygon fill="white" stroke="red" points="134,-252 24,-252 24,-216 134,-216 134,-252"/>
<text text-anchor="middle" x="79" y="-231.5" font-family="Helvetica,sans-Serif" font-size="10.00">BipedalLocomotion</text>
</a>
</g>
</g>
<!-- dir_ef68f1e1f5148ff8ef7fb1c955106c3c -->
<g id="node3" class="node">
<title>dir_ef68f1e1f5148ff8ef7fb1c955106c3c</title>
<g id="a_node3"><a xlink:href="dir_ef68f1e1f5148ff8ef7fb1c955106c3c.html" target="_top" xlink:title="System">
<polygon fill="none" stroke="red" points="116,-108 62,-108 62,-72 116,-72 116,-108"/>
<text text-anchor="middle" x="89" y="-87.5" font-family="Helvetica,sans-Serif" font-size="10.00">System</text>
</a>
</g>
</g>
<!-- dir_76b3c42c31613a4250722fde83b07506&#45;&gt;dir_ef68f1e1f5148ff8ef7fb1c955106c3c -->
<g id="edge4" class="edge">
<title>dir_76b3c42c31613a4250722fde83b07506&#45;&gt;dir_ef68f1e1f5148ff8ef7fb1c955106c3c</title>
<path fill="none" stroke="black" d="M80.21,-215.87C81.91,-191.67 85.04,-147.21 87.07,-118.39"/>
<polygon fill="black" stroke="black" points="90.58,-118.41 87.79,-108.19 83.6,-117.92 90.58,-118.41"/>
<g id="a_edge4&#45;headlabel"><a xlink:href="dir_000029_000084.html" target="_top" xlink:title="2">
<text text-anchor="middle" x="93.16" y="-119.7" font-family="Helvetica,sans-Serif" font-size="10.00">2</text>
</a>
</g>
</g>
<!-- dir_995a11a27ec5ce2fce465ebbab555255 -->
<g id="node4" class="node">
<title>dir_995a11a27ec5ce2fce465ebbab555255</title>
<g id="a_node4"><a xlink:href="dir_995a11a27ec5ce2fce465ebbab555255.html" target="_top" xlink:title="ParametersHandler">
<polygon fill="none" stroke="red" points="144,-36 34,-36 34,0 144,0 144,-36"/>
<text text-anchor="middle" x="89" y="-15.5" font-family="Helvetica,sans-Serif" font-size="10.00">ParametersHandler</text>
</a>
</g>
</g>
<!-- dir_76b3c42c31613a4250722fde83b07506&#45;&gt;dir_995a11a27ec5ce2fce465ebbab555255 -->
<g id="edge5" class="edge">
<title>dir_76b3c42c31613a4250722fde83b07506&#45;&gt;dir_995a11a27ec5ce2fce465ebbab555255</title>
<path fill="none" stroke="black" d="M71.16,-215.73C58.71,-185.86 37.35,-122.88 53,-72 56.01,-62.22 61.51,-52.62 67.32,-44.33"/>
<polygon fill="black" stroke="black" points="70.19,-46.33 73.39,-36.23 64.59,-42.13 70.19,-46.33"/>
<g id="a_edge5&#45;headlabel"><a xlink:href="dir_000029_000052.html" target="_top" xlink:title="3">
<text text-anchor="middle" x="70.31" y="-48.41" font-family="Helvetica,sans-Serif" font-size="10.00">3</text>
</a>
</g>
</g>
<!-- dir_50541d64f188ef934de78ba6c49ffdbe -->
<g id="node5" class="node">
<title>dir_50541d64f188ef934de78ba6c49ffdbe</title>
<g id="a_node5"><a xlink:href="dir_50541d64f188ef934de78ba6c49ffdbe.html" target="_top" xlink:title="Contacts">
<polygon fill="none" stroke="red" points="166.5,-180 107.5,-180 107.5,-144 166.5,-144 166.5,-180"/>
<text text-anchor="middle" x="137" y="-159.5" font-family="Helvetica,sans-Serif" font-size="10.00">Contacts</text>
</a>
</g>
</g>
<!-- dir_76b3c42c31613a4250722fde83b07506&#45;&gt;dir_50541d64f188ef934de78ba6c49ffdbe -->
<g id="edge6" class="edge">
<title>dir_76b3c42c31613a4250722fde83b07506&#45;&gt;dir_50541d64f188ef934de78ba6c49ffdbe</title>
<path fill="none" stroke="black" d="M93.34,-215.7C100.29,-207.3 108.77,-197.07 116.4,-187.86"/>
<polygon fill="black" stroke="black" points="119.14,-190.04 122.83,-180.1 113.75,-185.57 119.14,-190.04"/>
<g id="a_edge6&#45;headlabel"><a xlink:href="dir_000029_000011.html" target="_top" xlink:title="1">
<text text-anchor="middle" x="119.04" y="-192.12" font-family="Helvetica,sans-Serif" font-size="10.00">1</text>
</a>
</g>
</g>
<!-- dir_ef68f1e1f5148ff8ef7fb1c955106c3c&#45;&gt;dir_995a11a27ec5ce2fce465ebbab555255 -->
<g id="edge1" class="edge">
<title>dir_ef68f1e1f5148ff8ef7fb1c955106c3c&#45;&gt;dir_995a11a27ec5ce2fce465ebbab555255</title>
<path fill="none" stroke="black" d="M89,-71.7C89,-63.98 89,-54.71 89,-46.11"/>
<polygon fill="black" stroke="black" points="92.5,-46.1 89,-36.1 85.5,-46.1 92.5,-46.1"/>
<g id="a_edge1&#45;headlabel"><a xlink:href="dir_000084_000052.html" target="_top" xlink:title="4">
<text text-anchor="middle" x="95.34" y="-47.2" font-family="Helvetica,sans-Serif" font-size="10.00">4</text>
</a>
</g>
</g>
<!-- dir_50541d64f188ef934de78ba6c49ffdbe&#45;&gt;dir_ef68f1e1f5148ff8ef7fb1c955106c3c -->
<g id="edge2" class="edge">
<title>dir_50541d64f188ef934de78ba6c49ffdbe&#45;&gt;dir_ef68f1e1f5148ff8ef7fb1c955106c3c</title>
<path fill="none" stroke="black" d="M125.13,-143.7C119.5,-135.47 112.65,-125.48 106.43,-116.42"/>
<polygon fill="black" stroke="black" points="109.27,-114.37 100.73,-108.1 103.5,-118.33 109.27,-114.37"/>
<g id="a_edge2&#45;headlabel"><a xlink:href="dir_000011_000084.html" target="_top" xlink:title="1">
<text text-anchor="middle" x="113.65" y="-113.23" font-family="Helvetica,sans-Serif" font-size="10.00">1</text>
</a>
</g>
</g>
<!-- dir_50541d64f188ef934de78ba6c49ffdbe&#45;&gt;dir_995a11a27ec5ce2fce465ebbab555255 -->
<g id="edge3" class="edge">
<title>dir_50541d64f188ef934de78ba6c49ffdbe&#45;&gt;dir_995a11a27ec5ce2fce465ebbab555255</title>
<path fill="none" stroke="black" d="M136.99,-143.69C136.46,-125.33 134.08,-95.74 125,-72 121.34,-62.44 115.66,-52.9 109.89,-44.61"/>
<polygon fill="black" stroke="black" points="112.65,-42.46 103.91,-36.47 107.01,-46.6 112.65,-42.46"/>
<g id="a_edge3&#45;headlabel"><a xlink:href="dir_000011_000052.html" target="_top" xlink:title="3">
<text text-anchor="middle" x="117.07" y="-41.18" font-family="Helvetica,sans-Serif" font-size="10.00">3</text>
</a>
</g>
</g>
</g>
</svg>
