<?xml version="1.0" encoding="UTF-8" standalone="no"?>
<!DOCTYPE svg PUBLIC "-//W3C//DTD SVG 1.1//EN"
 "http://www.w3.org/Graphics/SVG/1.1/DTD/svg11.dtd">
<!-- Generated by graphviz version 2.43.0 (0)
 -->
<!-- Title: Contacts/include/BipedalLocomotion/ContactDetectors Pages: 1 -->
<svg width="177pt" height="223pt"
 viewBox="0.00 0.00 177.00 223.00" xmlns="http://www.w3.org/2000/svg" xmlns:xlink="http://www.w3.org/1999/xlink">
<g id="graph0" class="graph" transform="scale(1 1) rotate(0) translate(4 219)">
<title>Contacts/include/BipedalLocomotion/ContactDetectors</title>
<g id="clust1" class="cluster">
<title>clusterdir_3f05e5bb63a57bd72eccc7af5274c138</title>
<g id="a_clust1"><a xlink:href="dir_3f05e5bb63a57bd72eccc7af5274c138.html" target="_top" xlink:title="BipedalLocomotion">
<polygon fill="#ddddee" stroke="black" points="43,-136 43,-207 161,-207 161,-136 43,-136"/>
<text text-anchor="middle" x="102" y="-195" font-family="Helvetica,sans-Serif" font-size="10.00">BipedalLocomotion</text>
</a>
</g>
</g>
<!-- dir_9d58fc40fd8815ed25424a9bc5b3d249 -->
<g id="node1" class="node">
<title>dir_9d58fc40fd8815ed25424a9bc5b3d249</title>
<g id="a_node1"><a xlink:href="dir_9d58fc40fd8815ed25424a9bc5b3d249.html" target="_top" xlink:title="ContactDetectors">
<polygon fill="#eeeeff" stroke="black" points="152.5,-180 51.5,-180 51.5,-144 152.5,-144 152.5,-180"/>
<text text-anchor="middle" x="102" y="-159.5" font-family="Helvetica,sans-Serif" font-size="10.00">ContactDetectors</text>
</a>
</g>
</g>
<!-- dir_ef68f1e1f5148ff8ef7fb1c955106c3c -->
<g id="node2" class="node">
<title>dir_ef68f1e1f5148ff8ef7fb1c955106c3c</title>
<g id="a_node2"><a xlink:href="dir_ef68f1e1f5148ff8ef7fb1c955106c3c.html" target="_top" xlink:title="System">
<polygon fill="none" stroke="red" points="54,-108 0,-108 0,-72 54,-72 54,-108"/>
<text text-anchor="middle" x="27" y="-87.5" font-family="Helvetica,sans-Serif" font-size="10.00">System</text>
</a>
</g>
</g>
<!-- dir_9d58fc40fd8815ed25424a9bc5b3d249&#45;&gt;dir_ef68f1e1f5148ff8ef7fb1c955106c3c -->
<g id="edge2" class="edge">
<title>dir_9d58fc40fd8815ed25424a9bc5b3d249&#45;&gt;dir_ef68f1e1f5148ff8ef7fb1c955106c3c</title>
<path fill="none" stroke="black" d="M83.46,-143.7C74.2,-135.05 62.84,-124.45 52.74,-115.03"/>
<polygon fill="black" stroke="black" points="55.02,-112.37 45.33,-108.1 50.25,-117.49 55.02,-112.37"/>
<g id="a_edge2&#45;headlabel"><a xlink:href="dir_000014_000084.html" target="_top" xlink:title="1">
<text text-anchor="middle" x="59.59" y="-110.25" font-family="Helvetica,sans-Serif" font-size="10.00">1</text>
</a>
</g>
</g>
<!-- dir_16fec6c370e9d5c39f9aa413b0bfb552 -->
<g id="node3" class="node">
<title>dir_16fec6c370e9d5c39f9aa413b0bfb552</title>
<g id="a_node3"><a xlink:href="dir_16fec6c370e9d5c39f9aa413b0bfb552.html" target="_top" xlink:title="Contacts">
<polygon fill="none" stroke="black" points="131.5,-108 72.5,-108 72.5,-72 131.5,-72 131.5,-108"/>
<text text-anchor="middle" x="102" y="-87.5" font-family="Helvetica,sans-Serif" font-size="10.00">Contacts</text>
</a>
</g>
</g>
<!-- dir_9d58fc40fd8815ed25424a9bc5b3d249&#45;&gt;dir_16fec6c370e9d5c39f9aa413b0bfb552 -->
<g id="edge3" class="edge">
<title>dir_9d58fc40fd8815ed25424a9bc5b3d249&#45;&gt;dir_16fec6c370e9d5c39f9aa413b0bfb552</title>
<path fill="none" stroke="black" d="M102,-143.7C102,-135.98 102,-126.71 102,-118.11"/>
<polygon fill="black" stroke="black" points="105.5,-118.1 102,-108.1 98.5,-118.1 105.5,-118.1"/>
<g id="a_edge3&#45;headlabel"><a xlink:href="dir_000014_000015.html" target="_top" xlink:title="2">
<text text-anchor="middle" x="108.34" y="-119.2" font-family="Helvetica,sans-Serif" font-size="10.00">2</text>
</a>
</g>
</g>
<!-- dir_995a11a27ec5ce2fce465ebbab555255 -->
<g id="node4" class="node">
<title>dir_995a11a27ec5ce2fce465ebbab555255</title>
<g id="a_node4"><a xlink:href="dir_995a11a27ec5ce2fce465ebbab555255.html" target="_top" xlink:title="ParametersHandler">
<polygon fill="none" stroke="red" points="148,-36 38,-36 38,0 148,0 148,-36"/>
<text text-anchor="middle" x="93" y="-15.5" font-family="Helvetica,sans-Serif" font-size="10.00">ParametersHandler</text>
</a>
</g>
</g>
<!-- dir_9d58fc40fd8815ed25424a9bc5b3d249&#45;&gt;dir_995a11a27ec5ce2fce465ebbab555255 -->
<g id="edge4" class="edge">
<title>dir_9d58fc40fd8815ed25424a9bc5b3d249&#45;&gt;dir_995a11a27ec5ce2fce465ebbab555255</title>
<path fill="none" stroke="black" d="M118.89,-143.99C127.29,-134.31 136.58,-121.46 141,-108 145.99,-92.8 146.76,-86.93 141,-72 136.9,-61.36 129.56,-51.53 121.83,-43.3"/>
<polygon fill="black" stroke="black" points="124.27,-40.78 114.71,-36.21 119.33,-45.75 124.27,-40.78"/>
<g id="a_edge4&#45;headlabel"><a xlink:href="dir_000014_000052.html" target="_top" xlink:title="2">
<text text-anchor="middle" x="128.82" y="-38.81" font-family="Helvetica,sans-Serif" font-size="10.00">2</text>
</a>
</g>
</g>
<!-- dir_ef68f1e1f5148ff8ef7fb1c955106c3c&#45;&gt;dir_995a11a27ec5ce2fce465ebbab555255 -->
<g id="edge1" class="edge">
<title>dir_ef68f1e1f5148ff8ef7fb1c955106c3c&#45;&gt;dir_995a11a27ec5ce2fce465ebbab555255</title>
<path fill="none" stroke="black" d="M43.31,-71.7C51.31,-63.22 61.07,-52.86 69.82,-43.58"/>
<polygon fill="black" stroke="black" points="72.56,-45.78 76.87,-36.1 67.47,-40.98 72.56,-45.78"/>
<g id="a_edge1&#45;headlabel"><a xlink:href="dir_000084_000052.html" target="_top" xlink:title="4">
<text text-anchor="middle" x="72.16" y="-47.84" font-family="Helvetica,sans-Serif" font-size="10.00">4</text>
</a>
</g>
</g>
</g>
</svg>
