<?xml version="1.0" encoding="UTF-8" standalone="no"?>
<!DOCTYPE svg PUBLIC "-//W3C//DTD SVG 1.1//EN"
 "http://www.w3.org/Graphics/SVG/1.1/DTD/svg11.dtd">
<!-- Generated by graphviz version 2.43.0 (0)
 -->
<!-- Title: Planners/include/BipedalLocomotion Pages: 1 -->
<svg width="244pt" height="303pt"
 viewBox="0.00 0.00 244.00 303.00" xmlns="http://www.w3.org/2000/svg" xmlns:xlink="http://www.w3.org/1999/xlink">
<g id="graph0" class="graph" transform="scale(1 1) rotate(0) translate(4 299)">
<title>Planners/include/BipedalLocomotion</title>
<g id="clust1" class="cluster">
<title>clusterdir_47af31f393480a5d6889a54234fa11ed</title>
<g id="a_clust1"><a xlink:href="dir_47af31f393480a5d6889a54234fa11ed.html" target="_top" xlink:title="include">
<polygon fill="#ddddee" stroke="black" points="8,-200 8,-287 228,-287 228,-200 8,-200"/>
<text text-anchor="middle" x="118" y="-275" font-family="Helvetica,sans-Serif" font-size="10.00">include</text>
</a>
</g>
</g>
<g id="clust2" class="cluster">
<title>clusterdir_ca39150e121c2f7552b8919c494e6981</title>
<g id="a_clust2"><a xlink:href="dir_ca39150e121c2f7552b8919c494e6981.html" target="_top">
<polygon fill="#eeeeff" stroke="black" points="16,-208 16,-260 220,-260 220,-208 16,-208"/>
</a>
</g>
</g>
<!-- dir_ca39150e121c2f7552b8919c494e6981 -->
<g id="node1" class="node">
<title>dir_ca39150e121c2f7552b8919c494e6981</title>
<text text-anchor="middle" x="157" y="-231.5" font-family="Helvetica,sans-Serif" font-size="10.00">BipedalLocomotion</text>
</g>
<!-- dir_9a2340c01aedb0f76560dc44ac9c4ec3 -->
<g id="node2" class="node">
<title>dir_9a2340c01aedb0f76560dc44ac9c4ec3</title>
<g id="a_node2"><a xlink:href="dir_9a2340c01aedb0f76560dc44ac9c4ec3.html" target="_top" xlink:title="Planners">
<polygon fill="white" stroke="black" points="83.5,-252 24.5,-252 24.5,-216 83.5,-216 83.5,-252"/>
<text text-anchor="middle" x="54" y="-231.5" font-family="Helvetica,sans-Serif" font-size="10.00">Planners</text>
</a>
</g>
</g>
<!-- dir_ef68f1e1f5148ff8ef7fb1c955106c3c -->
<g id="node3" class="node">
<title>dir_ef68f1e1f5148ff8ef7fb1c955106c3c</title>
<g id="a_node3"><a xlink:href="dir_ef68f1e1f5148ff8ef7fb1c955106c3c.html" target="_top" xlink:title="System">
<polygon fill="none" stroke="red" points="91,-108 37,-108 37,-72 91,-72 91,-108"/>
<text text-anchor="middle" x="64" y="-87.5" font-family="Helvetica,sans-Serif" font-size="10.00">System</text>
</a>
</g>
</g>
<!-- dir_9a2340c01aedb0f76560dc44ac9c4ec3&#45;&gt;dir_ef68f1e1f5148ff8ef7fb1c955106c3c -->
<g id="edge2" class="edge">
<title>dir_9a2340c01aedb0f76560dc44ac9c4ec3&#45;&gt;dir_ef68f1e1f5148ff8ef7fb1c955106c3c</title>
<path fill="none" stroke="black" d="M55.21,-215.87C56.91,-191.67 60.04,-147.21 62.07,-118.39"/>
<polygon fill="black" stroke="black" points="65.58,-118.41 62.79,-108.19 58.6,-117.92 65.58,-118.41"/>
<g id="a_edge2&#45;headlabel"><a xlink:href="dir_000072_000084.html" target="_top" xlink:title="4">
<text text-anchor="middle" x="68.16" y="-119.7" font-family="Helvetica,sans-Serif" font-size="10.00">4</text>
</a>
</g>
</g>
<!-- dir_995a11a27ec5ce2fce465ebbab555255 -->
<g id="node4" class="node">
<title>dir_995a11a27ec5ce2fce465ebbab555255</title>
<g id="a_node4"><a xlink:href="dir_995a11a27ec5ce2fce465ebbab555255.html" target="_top" xlink:title="ParametersHandler">
<polygon fill="none" stroke="red" points="119,-36 9,-36 9,0 119,0 119,-36"/>
<text text-anchor="middle" x="64" y="-15.5" font-family="Helvetica,sans-Serif" font-size="10.00">ParametersHandler</text>
</a>
</g>
</g>
<!-- dir_9a2340c01aedb0f76560dc44ac9c4ec3&#45;&gt;dir_995a11a27ec5ce2fce465ebbab555255 -->
<g id="edge3" class="edge">
<title>dir_9a2340c01aedb0f76560dc44ac9c4ec3&#45;&gt;dir_995a11a27ec5ce2fce465ebbab555255</title>
<path fill="none" stroke="black" d="M46.16,-215.73C33.71,-185.86 12.35,-122.88 28,-72 31.01,-62.22 36.51,-52.62 42.32,-44.33"/>
<polygon fill="black" stroke="black" points="45.19,-46.33 48.39,-36.23 39.59,-42.13 45.19,-46.33"/>
<g id="a_edge3&#45;headlabel"><a xlink:href="dir_000072_000052.html" target="_top" xlink:title="2">
<text text-anchor="middle" x="45.31" y="-48.41" font-family="Helvetica,sans-Serif" font-size="10.00">2</text>
</a>
</g>
</g>
<!-- dir_50541d64f188ef934de78ba6c49ffdbe -->
<g id="node5" class="node">
<title>dir_50541d64f188ef934de78ba6c49ffdbe</title>
<g id="a_node5"><a xlink:href="dir_50541d64f188ef934de78ba6c49ffdbe.html" target="_top" xlink:title="Contacts">
<polygon fill="none" stroke="red" points="141.5,-180 82.5,-180 82.5,-144 141.5,-144 141.5,-180"/>
<text text-anchor="middle" x="112" y="-159.5" font-family="Helvetica,sans-Serif" font-size="10.00">Contacts</text>
</a>
</g>
</g>
<!-- dir_9a2340c01aedb0f76560dc44ac9c4ec3&#45;&gt;dir_50541d64f188ef934de78ba6c49ffdbe -->
<g id="edge4" class="edge">
<title>dir_9a2340c01aedb0f76560dc44ac9c4ec3&#45;&gt;dir_50541d64f188ef934de78ba6c49ffdbe</title>
<path fill="none" stroke="black" d="M68.34,-215.7C75.29,-207.3 83.77,-197.07 91.4,-187.86"/>
<polygon fill="black" stroke="black" points="94.14,-190.04 97.83,-180.1 88.75,-185.57 94.14,-190.04"/>
<g id="a_edge4&#45;headlabel"><a xlink:href="dir_000072_000011.html" target="_top" xlink:title="1">
<text text-anchor="middle" x="94.04" y="-192.12" font-family="Helvetica,sans-Serif" font-size="10.00">1</text>
</a>
</g>
</g>
<!-- dir_ef68f1e1f5148ff8ef7fb1c955106c3c&#45;&gt;dir_995a11a27ec5ce2fce465ebbab555255 -->
<g id="edge1" class="edge">
<title>dir_ef68f1e1f5148ff8ef7fb1c955106c3c&#45;&gt;dir_995a11a27ec5ce2fce465ebbab555255</title>
<path fill="none" stroke="black" d="M64,-71.7C64,-63.98 64,-54.71 64,-46.11"/>
<polygon fill="black" stroke="black" points="67.5,-46.1 64,-36.1 60.5,-46.1 67.5,-46.1"/>
<g id="a_edge1&#45;headlabel"><a xlink:href="dir_000084_000052.html" target="_top" xlink:title="4">
<text text-anchor="middle" x="70.34" y="-47.2" font-family="Helvetica,sans-Serif" font-size="10.00">4</text>
</a>
</g>
</g>
<!-- dir_50541d64f188ef934de78ba6c49ffdbe&#45;&gt;dir_ef68f1e1f5148ff8ef7fb1c955106c3c -->
<g id="edge5" class="edge">
<title>dir_50541d64f188ef934de78ba6c49ffdbe&#45;&gt;dir_ef68f1e1f5148ff8ef7fb1c955106c3c</title>
<path fill="none" stroke="black" d="M100.13,-143.7C94.5,-135.47 87.65,-125.48 81.43,-116.42"/>
<polygon fill="black" stroke="black" points="84.27,-114.37 75.73,-108.1 78.5,-118.33 84.27,-114.37"/>
<g id="a_edge5&#45;headlabel"><a xlink:href="dir_000011_000084.html" target="_top" xlink:title="1">
<text text-anchor="middle" x="88.65" y="-113.23" font-family="Helvetica,sans-Serif" font-size="10.00">1</text>
</a>
</g>
</g>
<!-- dir_50541d64f188ef934de78ba6c49ffdbe&#45;&gt;dir_995a11a27ec5ce2fce465ebbab555255 -->
<g id="edge6" class="edge">
<title>dir_50541d64f188ef934de78ba6c49ffdbe&#45;&gt;dir_995a11a27ec5ce2fce465ebbab555255</title>
<path fill="none" stroke="black" d="M111.99,-143.69C111.46,-125.33 109.08,-95.74 100,-72 96.34,-62.44 90.66,-52.9 84.89,-44.61"/>
<polygon fill="black" stroke="black" points="87.65,-42.46 78.91,-36.47 82.01,-46.6 87.65,-42.46"/>
<g id="a_edge6&#45;headlabel"><a xlink:href="dir_000011_000052.html" target="_top" xlink:title="3">
<text text-anchor="middle" x="92.07" y="-41.18" font-family="Helvetica,sans-Serif" font-size="10.00">3</text>
</a>
</g>
</g>
</g>
</svg>
