<?xml version="1.0" encoding="UTF-8" standalone="no"?>
<!DOCTYPE svg PUBLIC "-//W3C//DTD SVG 1.1//EN"
 "http://www.w3.org/Graphics/SVG/1.1/DTD/svg11.dtd">
<!-- Generated by graphviz version 2.43.0 (0)
 -->
<!-- Title: IK/include Pages: 1 -->
<svg width="238pt" height="231pt"
 viewBox="0.00 0.00 238.00 231.00" xmlns="http://www.w3.org/2000/svg" xmlns:xlink="http://www.w3.org/1999/xlink">
<g id="graph0" class="graph" transform="scale(1 1) rotate(0) translate(4 227)">
<title>IK/include</title>
<g id="clust1" class="cluster">
<title>clusterdir_66c66c13cf9158c1f22f6cf6d3ba76a2</title>
<g id="a_clust1"><a xlink:href="dir_66c66c13cf9158c1f22f6cf6d3ba76a2.html" target="_top" xlink:title="IK">
<polygon fill="#ddddee" stroke="black" points="8,-128 8,-215 222,-215 222,-128 8,-128"/>
<text text-anchor="middle" x="115" y="-203" font-family="Helvetica,sans-Serif" font-size="10.00">IK</text>
</a>
</g>
</g>
<g id="clust2" class="cluster">
<title>clusterdir_67dd381f86eec7791e9db8646ed74f67</title>
<g id="a_clust2"><a xlink:href="dir_67dd381f86eec7791e9db8646ed74f67.html" target="_top">
<polygon fill="#eeeeff" stroke="black" points="16,-136 16,-188 214,-188 214,-136 16,-136"/>
</a>
</g>
</g>
<!-- dir_67dd381f86eec7791e9db8646ed74f67 -->
<g id="node1" class="node">
<title>dir_67dd381f86eec7791e9db8646ed74f67</title>
<text text-anchor="middle" x="179" y="-159.5" font-family="Helvetica,sans-Serif" font-size="10.00">include</text>
</g>
<!-- dir_f8b8ea7f56d76964f7730cc9a74ce99f -->
<g id="node2" class="node">
<title>dir_f8b8ea7f56d76964f7730cc9a74ce99f</title>
<g id="a_node2"><a xlink:href="dir_f8b8ea7f56d76964f7730cc9a74ce99f.html" target="_top" xlink:title="BipedalLocomotion">
<polygon fill="white" stroke="red" points="134,-180 24,-180 24,-144 134,-144 134,-180"/>
<text text-anchor="middle" x="79" y="-159.5" font-family="Helvetica,sans-Serif" font-size="10.00">BipedalLocomotion</text>
</a>
</g>
</g>
<!-- dir_ef68f1e1f5148ff8ef7fb1c955106c3c -->
<g id="node3" class="node">
<title>dir_ef68f1e1f5148ff8ef7fb1c955106c3c</title>
<g id="a_node3"><a xlink:href="dir_ef68f1e1f5148ff8ef7fb1c955106c3c.html" target="_top" xlink:title="System">
<polygon fill="none" stroke="red" points="78,-108 24,-108 24,-72 78,-72 78,-108"/>
<text text-anchor="middle" x="51" y="-87.5" font-family="Helvetica,sans-Serif" font-size="10.00">System</text>
</a>
</g>
</g>
<!-- dir_f8b8ea7f56d76964f7730cc9a74ce99f&#45;&gt;dir_ef68f1e1f5148ff8ef7fb1c955106c3c -->
<g id="edge2" class="edge">
<title>dir_f8b8ea7f56d76964f7730cc9a74ce99f&#45;&gt;dir_ef68f1e1f5148ff8ef7fb1c955106c3c</title>
<path fill="none" stroke="black" d="M72.08,-143.7C68.93,-135.81 65.12,-126.3 61.62,-117.55"/>
<polygon fill="black" stroke="black" points="64.81,-116.09 57.84,-108.1 58.31,-118.69 64.81,-116.09"/>
<g id="a_edge2&#45;headlabel"><a xlink:href="dir_000039_000084.html" target="_top" xlink:title="8">
<text text-anchor="middle" x="68.78" y="-115.87" font-family="Helvetica,sans-Serif" font-size="10.00">8</text>
</a>
</g>
</g>
<!-- dir_995a11a27ec5ce2fce465ebbab555255 -->
<g id="node4" class="node">
<title>dir_995a11a27ec5ce2fce465ebbab555255</title>
<g id="a_node4"><a xlink:href="dir_995a11a27ec5ce2fce465ebbab555255.html" target="_top" xlink:title="ParametersHandler">
<polygon fill="none" stroke="red" points="133,-36 23,-36 23,0 133,0 133,-36"/>
<text text-anchor="middle" x="78" y="-15.5" font-family="Helvetica,sans-Serif" font-size="10.00">ParametersHandler</text>
</a>
</g>
</g>
<!-- dir_f8b8ea7f56d76964f7730cc9a74ce99f&#45;&gt;dir_995a11a27ec5ce2fce465ebbab555255 -->
<g id="edge3" class="edge">
<title>dir_f8b8ea7f56d76964f7730cc9a74ce99f&#45;&gt;dir_995a11a27ec5ce2fce465ebbab555255</title>
<path fill="none" stroke="black" d="M82.25,-143.89C84.05,-133.54 86.09,-120.06 87,-108 88.2,-92.04 88.34,-87.94 87,-72 86.28,-63.5 84.93,-54.31 83.49,-46.01"/>
<polygon fill="black" stroke="black" points="86.91,-45.29 81.65,-36.09 80.03,-46.56 86.91,-45.29"/>
<g id="a_edge3&#45;headlabel"><a xlink:href="dir_000039_000052.html" target="_top" xlink:title="2">
<text text-anchor="middle" x="90.36" y="-45.81" font-family="Helvetica,sans-Serif" font-size="10.00">2</text>
</a>
</g>
</g>
<!-- dir_ef68f1e1f5148ff8ef7fb1c955106c3c&#45;&gt;dir_995a11a27ec5ce2fce465ebbab555255 -->
<g id="edge1" class="edge">
<title>dir_ef68f1e1f5148ff8ef7fb1c955106c3c&#45;&gt;dir_995a11a27ec5ce2fce465ebbab555255</title>
<path fill="none" stroke="black" d="M57.67,-71.7C60.71,-63.81 64.38,-54.3 67.76,-45.55"/>
<polygon fill="black" stroke="black" points="71.07,-46.69 71.4,-36.1 64.54,-44.17 71.07,-46.69"/>
<g id="a_edge1&#45;headlabel"><a xlink:href="dir_000084_000052.html" target="_top" xlink:title="4">
<text text-anchor="middle" x="72.42" y="-48.57" font-family="Helvetica,sans-Serif" font-size="10.00">4</text>
</a>
</g>
</g>
</g>
</svg>
