<?xml version="1.0" encoding="UTF-8" standalone="no"?>
<!DOCTYPE svg PUBLIC "-//W3C//DTD SVG 1.1//EN"
 "http://www.w3.org/Graphics/SVG/1.1/DTD/svg11.dtd">
<!-- Generated by graphviz version 2.43.0 (0)
 -->
<!-- Title: System/include Pages: 1 -->
<svg width="238pt" height="231pt"
 viewBox="0.00 0.00 238.00 231.00" xmlns="http://www.w3.org/2000/svg" xmlns:xlink="http://www.w3.org/1999/xlink">
<g id="graph0" class="graph" transform="scale(1 1) rotate(0) translate(4 227)">
<title>System/include</title>
<g id="clust1" class="cluster">
<title>clusterdir_ef68f1e1f5148ff8ef7fb1c955106c3c</title>
<g id="a_clust1"><a xlink:href="dir_ef68f1e1f5148ff8ef7fb1c955106c3c.html" target="_top" xlink:title="System">
<polygon fill="#ddddee" stroke="black" points="8,-128 8,-215 222,-215 222,-128 8,-128"/>
<text text-anchor="middle" x="115" y="-203" font-family="Helvetica,sans-Serif" font-size="10.00">System</text>
</a>
</g>
</g>
<g id="clust2" class="cluster">
<title>clusterdir_543817dc0abe17961f66d6d58373e100</title>
<g id="a_clust2"><a xlink:href="dir_543817dc0abe17961f66d6d58373e100.html" target="_top">
<polygon fill="#eeeeff" stroke="black" points="16,-136 16,-188 214,-188 214,-136 16,-136"/>
</a>
</g>
</g>
<!-- dir_543817dc0abe17961f66d6d58373e100 -->
<g id="node1" class="node">
<title>dir_543817dc0abe17961f66d6d58373e100</title>
<text text-anchor="middle" x="179" y="-159.5" font-family="Helvetica,sans-Serif" font-size="10.00">include</text>
</g>
<!-- dir_851e45f592bcaa6147ca4dae8a337a6d -->
<g id="node2" class="node">
<title>dir_851e45f592bcaa6147ca4dae8a337a6d</title>
<g id="a_node2"><a xlink:href="dir_851e45f592bcaa6147ca4dae8a337a6d.html" target="_top" xlink:title="BipedalLocomotion">
<polygon fill="white" stroke="red" points="134,-180 24,-180 24,-144 134,-144 134,-180"/>
<text text-anchor="middle" x="79" y="-159.5" font-family="Helvetica,sans-Serif" font-size="10.00">BipedalLocomotion</text>
</a>
</g>
</g>
<!-- dir_4118ae531ffdde861fee1c6efaa3009d -->
<g id="node3" class="node">
<title>dir_4118ae531ffdde861fee1c6efaa3009d</title>
<g id="a_node3"><a xlink:href="dir_4118ae531ffdde861fee1c6efaa3009d.html" target="_top" xlink:title="TextLogging">
<polygon fill="none" stroke="red" points="115.5,-36 40.5,-36 40.5,0 115.5,0 115.5,-36"/>
<text text-anchor="middle" x="78" y="-15.5" font-family="Helvetica,sans-Serif" font-size="10.00">TextLogging</text>
</a>
</g>
</g>
<!-- dir_851e45f592bcaa6147ca4dae8a337a6d&#45;&gt;dir_4118ae531ffdde861fee1c6efaa3009d -->
<g id="edge1" class="edge">
<title>dir_851e45f592bcaa6147ca4dae8a337a6d&#45;&gt;dir_4118ae531ffdde861fee1c6efaa3009d</title>
<path fill="none" stroke="black" d="M69.46,-143.93C64.36,-133.82 58.61,-120.57 56,-108 52.75,-92.33 52.87,-87.69 56,-72 57.79,-63.01 61.14,-53.64 64.69,-45.32"/>
<polygon fill="black" stroke="black" points="67.92,-46.67 68.87,-36.12 61.54,-43.77 67.92,-46.67"/>
<g id="a_edge1&#45;headlabel"><a xlink:href="dir_000086_000094.html" target="_top" xlink:title="1">
<text text-anchor="middle" x="69.01" y="-48.62" font-family="Helvetica,sans-Serif" font-size="10.00">1</text>
</a>
</g>
</g>
<!-- dir_995a11a27ec5ce2fce465ebbab555255 -->
<g id="node4" class="node">
<title>dir_995a11a27ec5ce2fce465ebbab555255</title>
<g id="a_node4"><a xlink:href="dir_995a11a27ec5ce2fce465ebbab555255.html" target="_top" xlink:title="ParametersHandler">
<polygon fill="none" stroke="red" points="175,-108 65,-108 65,-72 175,-72 175,-108"/>
<text text-anchor="middle" x="120" y="-87.5" font-family="Helvetica,sans-Serif" font-size="10.00">ParametersHandler</text>
</a>
</g>
</g>
<!-- dir_851e45f592bcaa6147ca4dae8a337a6d&#45;&gt;dir_995a11a27ec5ce2fce465ebbab555255 -->
<g id="edge2" class="edge">
<title>dir_851e45f592bcaa6147ca4dae8a337a6d&#45;&gt;dir_995a11a27ec5ce2fce465ebbab555255</title>
<path fill="none" stroke="black" d="M89.13,-143.7C93.85,-135.64 99.56,-125.89 104.78,-116.98"/>
<polygon fill="black" stroke="black" points="107.95,-118.5 109.98,-108.1 101.91,-114.96 107.95,-118.5"/>
<g id="a_edge2&#45;headlabel"><a xlink:href="dir_000086_000052.html" target="_top" xlink:title="4">
<text text-anchor="middle" x="108.58" y="-120.54" font-family="Helvetica,sans-Serif" font-size="10.00">4</text>
</a>
</g>
</g>
<!-- dir_995a11a27ec5ce2fce465ebbab555255&#45;&gt;dir_4118ae531ffdde861fee1c6efaa3009d -->
<g id="edge3" class="edge">
<title>dir_995a11a27ec5ce2fce465ebbab555255&#45;&gt;dir_4118ae531ffdde861fee1c6efaa3009d</title>
<path fill="none" stroke="black" d="M109.62,-71.7C104.74,-63.56 98.81,-53.69 93.42,-44.7"/>
<polygon fill="black" stroke="black" points="96.41,-42.88 88.26,-36.1 90.41,-46.48 96.41,-42.88"/>
<g id="a_edge3&#45;headlabel"><a xlink:href="dir_000052_000094.html" target="_top" xlink:title="3">
<text text-anchor="middle" x="100.69" y="-42" font-family="Helvetica,sans-Serif" font-size="10.00">3</text>
</a>
</g>
</g>
</g>
</svg>
