<?xml version="1.0" encoding="UTF-8" standalone="no"?>
<!DOCTYPE svg PUBLIC "-//W3C//DTD SVG 1.1//EN"
 "http://www.w3.org/Graphics/SVG/1.1/DTD/svg11.dtd">
<!-- Generated by graphviz version 2.43.0 (0)
 -->
<!-- Title: TSID/include/BipedalLocomotion Pages: 1 -->
<svg width="238pt" height="231pt"
 viewBox="0.00 0.00 238.00 231.00" xmlns="http://www.w3.org/2000/svg" xmlns:xlink="http://www.w3.org/1999/xlink">
<g id="graph0" class="graph" transform="scale(1 1) rotate(0) translate(4 227)">
<title>TSID/include/BipedalLocomotion</title>
<g id="clust1" class="cluster">
<title>clusterdir_b3fde19edb359d87d45749a75c85f30a</title>
<g id="a_clust1"><a xlink:href="dir_b3fde19edb359d87d45749a75c85f30a.html" target="_top" xlink:title="include">
<polygon fill="#ddddee" stroke="black" points="8,-128 8,-215 222,-215 222,-128 8,-128"/>
<text text-anchor="middle" x="115" y="-203" font-family="Helvetica,sans-Serif" font-size="10.00">include</text>
</a>
</g>
</g>
<g id="clust2" class="cluster">
<title>clusterdir_cad7f247e84b7a43650490550f84fc11</title>
<g id="a_clust2"><a xlink:href="dir_cad7f247e84b7a43650490550f84fc11.html" target="_top">
<polygon fill="#eeeeff" stroke="black" points="16,-136 16,-188 214,-188 214,-136 16,-136"/>
</a>
</g>
</g>
<!-- dir_cad7f247e84b7a43650490550f84fc11 -->
<g id="node1" class="node">
<title>dir_cad7f247e84b7a43650490550f84fc11</title>
<text text-anchor="middle" x="151" y="-159.5" font-family="Helvetica,sans-Serif" font-size="10.00">BipedalLocomotion</text>
</g>
<!-- dir_14e94b1d2b214f46e7485b8938bfc05d -->
<g id="node2" class="node">
<title>dir_14e94b1d2b214f46e7485b8938bfc05d</title>
<g id="a_node2"><a xlink:href="dir_14e94b1d2b214f46e7485b8938bfc05d.html" target="_top" xlink:title="TSID">
<polygon fill="white" stroke="black" points="78,-180 24,-180 24,-144 78,-144 78,-180"/>
<text text-anchor="middle" x="51" y="-159.5" font-family="Helvetica,sans-Serif" font-size="10.00">TSID</text>
</a>
</g>
</g>
<!-- dir_ef68f1e1f5148ff8ef7fb1c955106c3c -->
<g id="node3" class="node">
<title>dir_ef68f1e1f5148ff8ef7fb1c955106c3c</title>
<g id="a_node3"><a xlink:href="dir_ef68f1e1f5148ff8ef7fb1c955106c3c.html" target="_top" xlink:title="System">
<polygon fill="none" stroke="red" points="78,-36 24,-36 24,0 78,0 78,-36"/>
<text text-anchor="middle" x="51" y="-15.5" font-family="Helvetica,sans-Serif" font-size="10.00">System</text>
</a>
</g>
</g>
<!-- dir_14e94b1d2b214f46e7485b8938bfc05d&#45;&gt;dir_ef68f1e1f5148ff8ef7fb1c955106c3c -->
<g id="edge1" class="edge">
<title>dir_14e94b1d2b214f46e7485b8938bfc05d&#45;&gt;dir_ef68f1e1f5148ff8ef7fb1c955106c3c</title>
<path fill="none" stroke="black" d="M47.35,-143.91C45.32,-133.57 43.02,-120.09 42,-108 40.66,-92.06 40.66,-87.94 42,-72 42.72,-63.5 44.07,-54.31 45.51,-46.01"/>
<polygon fill="black" stroke="black" points="48.97,-46.56 47.35,-36.09 42.09,-45.29 48.97,-46.56"/>
<g id="a_edge1&#45;headlabel"><a xlink:href="dir_000044_000084.html" target="_top" xlink:title="9">
<text text-anchor="middle" x="51.11" y="-48.11" font-family="Helvetica,sans-Serif" font-size="10.00">9</text>
</a>
</g>
</g>
<!-- dir_50541d64f188ef934de78ba6c49ffdbe -->
<g id="node4" class="node">
<title>dir_50541d64f188ef934de78ba6c49ffdbe</title>
<g id="a_node4"><a xlink:href="dir_50541d64f188ef934de78ba6c49ffdbe.html" target="_top" xlink:title="Contacts">
<polygon fill="none" stroke="red" points="109.5,-108 50.5,-108 50.5,-72 109.5,-72 109.5,-108"/>
<text text-anchor="middle" x="80" y="-87.5" font-family="Helvetica,sans-Serif" font-size="10.00">Contacts</text>
</a>
</g>
</g>
<!-- dir_14e94b1d2b214f46e7485b8938bfc05d&#45;&gt;dir_50541d64f188ef934de78ba6c49ffdbe -->
<g id="edge2" class="edge">
<title>dir_14e94b1d2b214f46e7485b8938bfc05d&#45;&gt;dir_50541d64f188ef934de78ba6c49ffdbe</title>
<path fill="none" stroke="black" d="M58.17,-143.7C61.43,-135.81 65.37,-126.3 69,-117.55"/>
<polygon fill="black" stroke="black" points="72.32,-118.68 72.91,-108.1 65.85,-116 72.32,-118.68"/>
<g id="a_edge2&#45;headlabel"><a xlink:href="dir_000044_000011.html" target="_top" xlink:title="1">
<text text-anchor="middle" x="73.57" y="-120.59" font-family="Helvetica,sans-Serif" font-size="10.00">1</text>
</a>
</g>
</g>
<!-- dir_50541d64f188ef934de78ba6c49ffdbe&#45;&gt;dir_ef68f1e1f5148ff8ef7fb1c955106c3c -->
<g id="edge3" class="edge">
<title>dir_50541d64f188ef934de78ba6c49ffdbe&#45;&gt;dir_ef68f1e1f5148ff8ef7fb1c955106c3c</title>
<path fill="none" stroke="black" d="M72.83,-71.7C69.57,-63.81 65.63,-54.3 62,-45.55"/>
<polygon fill="black" stroke="black" points="65.15,-44 58.09,-36.1 58.68,-46.68 65.15,-44"/>
<g id="a_edge3&#45;headlabel"><a xlink:href="dir_000011_000084.html" target="_top" xlink:title="1">
<text text-anchor="middle" x="69.15" y="-43.74" font-family="Helvetica,sans-Serif" font-size="10.00">1</text>
</a>
</g>
</g>
</g>
</svg>
