<?xml version="1.0" encoding="UTF-8" standalone="no"?>
<!DOCTYPE svg PUBLIC "-//W3C//DTD SVG 1.1//EN"
 "http://www.w3.org/Graphics/SVG/1.1/DTD/svg11.dtd">
<!-- Generated by graphviz version 2.43.0 (0)
 -->
<!-- Title: YarpUtilities/include Pages: 1 -->
<svg width="348pt" height="176pt"
 viewBox="0.00 0.00 348.00 176.08" xmlns="http://www.w3.org/2000/svg" xmlns:xlink="http://www.w3.org/1999/xlink">
<g id="graph0" class="graph" transform="scale(1 1) rotate(0) translate(4 172.08)">
<title>YarpUtilities/include</title>
<g id="clust1" class="cluster">
<title>clusterdir_9f4ce4849845ca54ac66640ab17f25ff</title>
<g id="a_clust1"><a xlink:href="dir_9f4ce4849845ca54ac66640ab17f25ff.html" target="_top" xlink:title="YarpUtilities">
<polygon fill="#ddddee" stroke="black" points="8,-56 8,-143 222,-143 222,-56 8,-56"/>
<text text-anchor="middle" x="115" y="-131" font-family="Helvetica,sans-Serif" font-size="10.00">YarpUtilities</text>
</a>
</g>
</g>
<g id="clust2" class="cluster">
<title>clusterdir_12b71a80e2ec12f6f36343f858596976</title>
<g id="a_clust2"><a xlink:href="dir_12b71a80e2ec12f6f36343f858596976.html" target="_top">
<polygon fill="#eeeeff" stroke="black" points="16,-64 16,-116 214,-116 214,-64 16,-64"/>
</a>
</g>
</g>
<!-- dir_12b71a80e2ec12f6f36343f858596976 -->
<g id="node1" class="node">
<title>dir_12b71a80e2ec12f6f36343f858596976</title>
<text text-anchor="middle" x="179" y="-87.5" font-family="Helvetica,sans-Serif" font-size="10.00">include</text>
</g>
<!-- dir_e64420540d8a40b091ba5d77d13addeb -->
<g id="node2" class="node">
<title>dir_e64420540d8a40b091ba5d77d13addeb</title>
<g id="a_node2"><a xlink:href="dir_e64420540d8a40b091ba5d77d13addeb.html" target="_top" xlink:title="BipedalLocomotion">
<polygon fill="white" stroke="red" points="134,-108 24,-108 24,-72 134,-72 134,-108"/>
<text text-anchor="middle" x="79" y="-87.5" font-family="Helvetica,sans-Serif" font-size="10.00">BipedalLocomotion</text>
</a>
</g>
</g>
<!-- dir_4118ae531ffdde861fee1c6efaa3009d -->
<g id="node3" class="node">
<title>dir_4118ae531ffdde861fee1c6efaa3009d</title>
<g id="a_node3"><a xlink:href="dir_4118ae531ffdde861fee1c6efaa3009d.html" target="_top" xlink:title="TextLogging">
<polygon fill="none" stroke="red" points="219.5,-36 144.5,-36 144.5,0 219.5,0 219.5,-36"/>
<text text-anchor="middle" x="182" y="-15.5" font-family="Helvetica,sans-Serif" font-size="10.00">TextLogging</text>
</a>
</g>
</g>
<!-- dir_e64420540d8a40b091ba5d77d13addeb&#45;&gt;dir_4118ae531ffdde861fee1c6efaa3009d -->
<g id="edge1" class="edge">
<title>dir_e64420540d8a40b091ba5d77d13addeb&#45;&gt;dir_4118ae531ffdde861fee1c6efaa3009d</title>
<path fill="none" stroke="black" d="M104.2,-71.88C117.41,-62.89 133.79,-51.76 148.11,-42.03"/>
<polygon fill="black" stroke="black" points="150.4,-44.71 156.71,-36.19 146.47,-38.92 150.4,-44.71"/>
<g id="a_edge1&#45;headlabel"><a xlink:href="dir_000101_000094.html" target="_top" xlink:title="1">
<text text-anchor="middle" x="149.03" y="-46.57" font-family="Helvetica,sans-Serif" font-size="10.00">1</text>
</a>
</g>
</g>
<!-- dir_995a11a27ec5ce2fce465ebbab555255 -->
<g id="node4" class="node">
<title>dir_995a11a27ec5ce2fce465ebbab555255</title>
<g id="a_node4"><a xlink:href="dir_995a11a27ec5ce2fce465ebbab555255.html" target="_top" xlink:title="ParametersHandler">
<polygon fill="none" stroke="red" points="340,-108 230,-108 230,-72 340,-72 340,-108"/>
<text text-anchor="middle" x="285" y="-87.5" font-family="Helvetica,sans-Serif" font-size="10.00">ParametersHandler</text>
</a>
</g>
</g>
<!-- dir_e64420540d8a40b091ba5d77d13addeb&#45;&gt;dir_995a11a27ec5ce2fce465ebbab555255 -->
<g id="edge2" class="edge">
<title>dir_e64420540d8a40b091ba5d77d13addeb&#45;&gt;dir_995a11a27ec5ce2fce465ebbab555255</title>
<path fill="none" stroke="black" d="M91.28,-108.3C104.1,-125.6 125.96,-150.42 152,-161 175.47,-170.53 185.43,-170.3 209,-161 231.74,-152.03 251.69,-132.69 265.43,-116.45"/>
<polygon fill="black" stroke="black" points="268.45,-118.29 272.04,-108.32 263.02,-113.88 268.45,-118.29"/>
<g id="a_edge2&#45;headlabel"><a xlink:href="dir_000101_000052.html" target="_top" xlink:title="1">
<text text-anchor="middle" x="268.39" y="-120.37" font-family="Helvetica,sans-Serif" font-size="10.00">1</text>
</a>
</g>
</g>
<!-- dir_995a11a27ec5ce2fce465ebbab555255&#45;&gt;dir_e64420540d8a40b091ba5d77d13addeb -->
<g id="edge3" class="edge">
<title>dir_995a11a27ec5ce2fce465ebbab555255&#45;&gt;dir_e64420540d8a40b091ba5d77d13addeb</title>
<path fill="none" stroke="black" d="M272.04,-108.32C258.56,-125.63 235.71,-150.47 209,-161 185.43,-170.3 175.47,-170.53 152,-161 129.82,-151.99 110.68,-132.65 97.57,-116.43"/>
<polygon fill="black" stroke="black" points="100.17,-114.07 91.28,-108.3 94.63,-118.35 100.17,-114.07"/>
<g id="a_edge3&#45;headlabel"><a xlink:href="dir_000052_000101.html" target="_top" xlink:title="1">
<text text-anchor="middle" x="104.62" y="-112.67" font-family="Helvetica,sans-Serif" font-size="10.00">1</text>
</a>
</g>
</g>
<!-- dir_995a11a27ec5ce2fce465ebbab555255&#45;&gt;dir_4118ae531ffdde861fee1c6efaa3009d -->
<g id="edge4" class="edge">
<title>dir_995a11a27ec5ce2fce465ebbab555255&#45;&gt;dir_4118ae531ffdde861fee1c6efaa3009d</title>
<path fill="none" stroke="black" d="M259.8,-71.88C246.59,-62.89 230.21,-51.76 215.89,-42.03"/>
<polygon fill="black" stroke="black" points="217.53,-38.92 207.29,-36.19 213.6,-44.71 217.53,-38.92"/>
<g id="a_edge4&#45;headlabel"><a xlink:href="dir_000052_000094.html" target="_top" xlink:title="3">
<text text-anchor="middle" x="222.1" y="-36.09" font-family="Helvetica,sans-Serif" font-size="10.00">3</text>
</a>
</g>
</g>
</g>
</svg>
