<?xml version="1.0" encoding="UTF-8" standalone="no"?>
<!DOCTYPE svg PUBLIC "-//W3C//DTD SVG 1.1//EN"
 "http://www.w3.org/Graphics/SVG/1.1/DTD/svg11.dtd">
<!-- Generated by graphviz version 2.43.0 (0)
 -->
<!-- Title: ContinuousDynamicalSystem/src Pages: 1 -->
<svg width="265pt" height="295pt"
 viewBox="0.00 0.00 265.10 295.00" xmlns="http://www.w3.org/2000/svg" xmlns:xlink="http://www.w3.org/1999/xlink">
<g id="graph0" class="graph" transform="scale(1 1) rotate(0) translate(4 291)">
<title>ContinuousDynamicalSystem/src</title>
<g id="clust1" class="cluster">
<title>clusterdir_76146152236a3f78e026f4bc2d877047</title>
<g id="a_clust1"><a xlink:href="dir_76146152236a3f78e026f4bc2d877047.html" target="_top" xlink:title="ContinuousDynamicalSystem">
<polygon fill="#ddddee" stroke="black" points="57,-208 57,-279 218,-279 218,-208 57,-208"/>
<text text-anchor="middle" x="137.5" y="-267" font-family="Helvetica,sans-Serif" font-size="10.00">ContinuousDynamicalSystem</text>
</a>
</g>
</g>
<!-- dir_832d6a8ac086c0ec339b22ab618dbc1c -->
<g id="node1" class="node">
<title>dir_832d6a8ac086c0ec339b22ab618dbc1c</title>
<g id="a_node1"><a xlink:href="dir_832d6a8ac086c0ec339b22ab618dbc1c.html" target="_top" xlink:title="src">
<polygon fill="#eeeeff" stroke="black" points="164,-252 110,-252 110,-216 164,-216 164,-252"/>
<text text-anchor="middle" x="137" y="-231.5" font-family="Helvetica,sans-Serif" font-size="10.00">src</text>
</a>
</g>
</g>
<!-- dir_ddacabcd4572cd422cd722a5b78176ea -->
<g id="node2" class="node">
<title>dir_ddacabcd4572cd422cd722a5b78176ea</title>
<g id="a_node2"><a xlink:href="dir_ddacabcd4572cd422cd722a5b78176ea.html" target="_top" xlink:title="ContactModels">
<polygon fill="none" stroke="red" points="199.5,-108 110.5,-108 110.5,-72 199.5,-72 199.5,-108"/>
<text text-anchor="middle" x="155" y="-87.5" font-family="Helvetica,sans-Serif" font-size="10.00">ContactModels</text>
</a>
</g>
</g>
<!-- dir_832d6a8ac086c0ec339b22ab618dbc1c&#45;&gt;dir_ddacabcd4572cd422cd722a5b78176ea -->
<g id="edge1" class="edge">
<title>dir_832d6a8ac086c0ec339b22ab618dbc1c&#45;&gt;dir_ddacabcd4572cd422cd722a5b78176ea</title>
<path fill="none" stroke="black" d="M139.17,-215.87C142.24,-191.67 147.87,-147.21 151.53,-118.39"/>
<polygon fill="black" stroke="black" points="155.04,-118.55 152.82,-108.19 148.09,-117.67 155.04,-118.55"/>
<g id="a_edge1&#45;headlabel"><a xlink:href="dir_000022_000006.html" target="_top" xlink:title="1">
<text text-anchor="middle" x="157.4" y="-119.97" font-family="Helvetica,sans-Serif" font-size="10.00">1</text>
</a>
</g>
</g>
<!-- dir_4118ae531ffdde861fee1c6efaa3009d -->
<g id="node3" class="node">
<title>dir_4118ae531ffdde861fee1c6efaa3009d</title>
<g id="a_node3"><a xlink:href="dir_4118ae531ffdde861fee1c6efaa3009d.html" target="_top" xlink:title="TextLogging">
<polygon fill="none" stroke="red" points="119.5,-36 44.5,-36 44.5,0 119.5,0 119.5,-36"/>
<text text-anchor="middle" x="82" y="-15.5" font-family="Helvetica,sans-Serif" font-size="10.00">TextLogging</text>
</a>
</g>
</g>
<!-- dir_832d6a8ac086c0ec339b22ab618dbc1c&#45;&gt;dir_4118ae531ffdde861fee1c6efaa3009d -->
<g id="edge2" class="edge">
<title>dir_832d6a8ac086c0ec339b22ab618dbc1c&#45;&gt;dir_4118ae531ffdde861fee1c6efaa3009d</title>
<path fill="none" stroke="black" d="M164.11,-228.99C191.59,-223.33 232.74,-210.09 252,-180 260.63,-166.53 256.26,-159.42 252,-144 242.09,-108.07 237.17,-96.41 209,-72 186.18,-52.23 154.95,-39.07 129.17,-30.8"/>
<polygon fill="black" stroke="black" points="130.17,-27.45 119.58,-27.87 128.12,-34.14 130.17,-27.45"/>
<g id="a_edge2&#45;headlabel"><a xlink:href="dir_000022_000094.html" target="_top" xlink:title="4">
<text text-anchor="middle" x="134.44" y="-23.28" font-family="Helvetica,sans-Serif" font-size="10.00">4</text>
</a>
</g>
</g>
<!-- dir_3813464283bee2267f39dcf080a84d74 -->
<g id="node4" class="node">
<title>dir_3813464283bee2267f39dcf080a84d74</title>
<g id="a_node4"><a xlink:href="dir_3813464283bee2267f39dcf080a84d74.html" target="_top" xlink:title="Math">
<polygon fill="none" stroke="red" points="54,-108 0,-108 0,-72 54,-72 54,-108"/>
<text text-anchor="middle" x="27" y="-87.5" font-family="Helvetica,sans-Serif" font-size="10.00">Math</text>
</a>
</g>
</g>
<!-- dir_832d6a8ac086c0ec339b22ab618dbc1c&#45;&gt;dir_3813464283bee2267f39dcf080a84d74 -->
<g id="edge3" class="edge">
<title>dir_832d6a8ac086c0ec339b22ab618dbc1c&#45;&gt;dir_3813464283bee2267f39dcf080a84d74</title>
<path fill="none" stroke="black" d="M109.71,-224.03C89.05,-215.82 61.66,-201.62 46,-180 33,-162.05 28.54,-137.06 27.17,-118.12"/>
<polygon fill="black" stroke="black" points="30.66,-117.86 26.68,-108.04 23.67,-118.2 30.66,-117.86"/>
<g id="a_edge3&#45;headlabel"><a xlink:href="dir_000022_000047.html" target="_top" xlink:title="2">
<text text-anchor="middle" x="33.67" y="-118.82" font-family="Helvetica,sans-Serif" font-size="10.00">2</text>
</a>
</g>
</g>
<!-- dir_67ecbf5b3dd37b0be5aedd0167f75fa8 -->
<g id="node5" class="node">
<title>dir_67ecbf5b3dd37b0be5aedd0167f75fa8</title>
<g id="a_node5"><a xlink:href="dir_67ecbf5b3dd37b0be5aedd0167f75fa8.html" target="_top" xlink:title="Conversions">
<polygon fill="none" stroke="red" points="242.5,-180 165.5,-180 165.5,-144 242.5,-144 242.5,-180"/>
<text text-anchor="middle" x="204" y="-159.5" font-family="Helvetica,sans-Serif" font-size="10.00">Conversions</text>
</a>
</g>
</g>
<!-- dir_832d6a8ac086c0ec339b22ab618dbc1c&#45;&gt;dir_67ecbf5b3dd37b0be5aedd0167f75fa8 -->
<g id="edge4" class="edge">
<title>dir_832d6a8ac086c0ec339b22ab618dbc1c&#45;&gt;dir_67ecbf5b3dd37b0be5aedd0167f75fa8</title>
<path fill="none" stroke="black" d="M153.56,-215.7C161.68,-207.22 171.59,-196.86 180.47,-187.58"/>
<polygon fill="black" stroke="black" points="183.24,-189.75 187.63,-180.1 178.19,-184.91 183.24,-189.75"/>
<g id="a_edge4&#45;headlabel"><a xlink:href="dir_000022_000023.html" target="_top" xlink:title="1">
<text text-anchor="middle" x="182.81" y="-191.81" font-family="Helvetica,sans-Serif" font-size="10.00">1</text>
</a>
</g>
</g>
<!-- dir_99cb74f436ad600139b9f1cd091ccc03 -->
<g id="node6" class="node">
<title>dir_99cb74f436ad600139b9f1cd091ccc03</title>
<g id="a_node6"><a xlink:href="dir_99cb74f436ad600139b9f1cd091ccc03.html" target="_top" xlink:title="include">
<polygon fill="none" stroke="red" points="109,-180 55,-180 55,-144 109,-144 109,-180"/>
<text text-anchor="middle" x="82" y="-159.5" font-family="Helvetica,sans-Serif" font-size="10.00">include</text>
</a>
</g>
</g>
<!-- dir_832d6a8ac086c0ec339b22ab618dbc1c&#45;&gt;dir_99cb74f436ad600139b9f1cd091ccc03 -->
<g id="edge5" class="edge">
<title>dir_832d6a8ac086c0ec339b22ab618dbc1c&#45;&gt;dir_99cb74f436ad600139b9f1cd091ccc03</title>
<path fill="none" stroke="black" d="M123.4,-215.7C116.88,-207.39 108.93,-197.28 101.75,-188.14"/>
<polygon fill="black" stroke="black" points="104.37,-185.81 95.44,-180.1 98.87,-190.13 104.37,-185.81"/>
<g id="a_edge5&#45;headlabel"><a xlink:href="dir_000022_000018.html" target="_top" xlink:title="5">
<text text-anchor="middle" x="108.82" y="-184.38" font-family="Helvetica,sans-Serif" font-size="10.00">5</text>
</a>
</g>
</g>
<!-- dir_3813464283bee2267f39dcf080a84d74&#45;&gt;dir_4118ae531ffdde861fee1c6efaa3009d -->
<g id="edge6" class="edge">
<title>dir_3813464283bee2267f39dcf080a84d74&#45;&gt;dir_4118ae531ffdde861fee1c6efaa3009d</title>
<path fill="none" stroke="black" d="M40.6,-71.7C47.12,-63.39 55.07,-53.28 62.25,-44.14"/>
<polygon fill="black" stroke="black" points="65.13,-46.13 68.56,-36.1 59.63,-41.81 65.13,-46.13"/>
<g id="a_edge6&#45;headlabel"><a xlink:href="dir_000047_000094.html" target="_top" xlink:title="1">
<text text-anchor="middle" x="65.15" y="-48.21" font-family="Helvetica,sans-Serif" font-size="10.00">1</text>
</a>
</g>
</g>
<!-- dir_99cb74f436ad600139b9f1cd091ccc03&#45;&gt;dir_ddacabcd4572cd422cd722a5b78176ea -->
<g id="edge7" class="edge">
<title>dir_99cb74f436ad600139b9f1cd091ccc03&#45;&gt;dir_ddacabcd4572cd422cd722a5b78176ea</title>
<path fill="none" stroke="black" d="M100.04,-143.7C109.06,-135.05 120.12,-124.45 129.94,-115.03"/>
<polygon fill="black" stroke="black" points="132.37,-117.55 137.16,-108.1 127.52,-112.5 132.37,-117.55"/>
<g id="a_edge7&#45;headlabel"><a xlink:href="dir_000018_000006.html" target="_top" xlink:title="1">
<text text-anchor="middle" x="131.74" y="-119.59" font-family="Helvetica,sans-Serif" font-size="10.00">1</text>
</a>
</g>
</g>
<!-- dir_99cb74f436ad600139b9f1cd091ccc03&#45;&gt;dir_4118ae531ffdde861fee1c6efaa3009d -->
<g id="edge8" class="edge">
<title>dir_99cb74f436ad600139b9f1cd091ccc03&#45;&gt;dir_4118ae531ffdde861fee1c6efaa3009d</title>
<path fill="none" stroke="black" d="M82,-143.87C82,-119.67 82,-75.21 82,-46.39"/>
<polygon fill="black" stroke="black" points="85.5,-46.19 82,-36.19 78.5,-46.19 85.5,-46.19"/>
<g id="a_edge8&#45;headlabel"><a xlink:href="dir_000018_000094.html" target="_top" xlink:title="2">
<text text-anchor="middle" x="88.34" y="-47.28" font-family="Helvetica,sans-Serif" font-size="10.00">2</text>
</a>
</g>
</g>
<!-- dir_99cb74f436ad600139b9f1cd091ccc03&#45;&gt;dir_3813464283bee2267f39dcf080a84d74 -->
<g id="edge9" class="edge">
<title>dir_99cb74f436ad600139b9f1cd091ccc03&#45;&gt;dir_3813464283bee2267f39dcf080a84d74</title>
<path fill="none" stroke="black" d="M68.4,-143.7C61.88,-135.39 53.93,-125.28 46.75,-116.14"/>
<polygon fill="black" stroke="black" points="49.37,-113.81 40.44,-108.1 43.87,-118.13 49.37,-113.81"/>
<g id="a_edge9&#45;headlabel"><a xlink:href="dir_000018_000047.html" target="_top" xlink:title="2">
<text text-anchor="middle" x="53.82" y="-112.38" font-family="Helvetica,sans-Serif" font-size="10.00">2</text>
</a>
</g>
</g>
</g>
</svg>
