<?xml version="1.0" encoding="UTF-8" standalone="no"?>
<!DOCTYPE svg PUBLIC "-//W3C//DTD SVG 1.1//EN"
 "http://www.w3.org/Graphics/SVG/1.1/DTD/svg11.dtd">
<!-- Generated by graphviz version 2.43.0 (0)
 -->
<!-- Title: TextLogging/src Pages: 1 -->
<svg width="99pt" height="151pt"
 viewBox="0.00 0.00 99.00 151.00" xmlns="http://www.w3.org/2000/svg" xmlns:xlink="http://www.w3.org/1999/xlink">
<g id="graph0" class="graph" transform="scale(1 1) rotate(0) translate(4 147)">
<title>TextLogging/src</title>
<g id="clust1" class="cluster">
<title>clusterdir_4118ae531ffdde861fee1c6efaa3009d</title>
<g id="a_clust1"><a xlink:href="dir_4118ae531ffdde861fee1c6efaa3009d.html" target="_top" xlink:title="TextLogging">
<polygon fill="#ddddee" stroke="black" points="8,-64 8,-135 83,-135 83,-64 8,-64"/>
<text text-anchor="middle" x="45.5" y="-123" font-family="Helvetica,sans-Serif" font-size="10.00">TextLogging</text>
</a>
</g>
</g>
<!-- dir_a9c85f30d6cf1ec03af822eebfeb4d61 -->
<g id="node1" class="node">
<title>dir_a9c85f30d6cf1ec03af822eebfeb4d61</title>
<g id="a_node1"><a xlink:href="dir_a9c85f30d6cf1ec03af822eebfeb4d61.html" target="_top" xlink:title="src">
<polygon fill="#eeeeff" stroke="black" points="72,-108 18,-108 18,-72 72,-72 72,-108"/>
<text text-anchor="middle" x="45" y="-87.5" font-family="Helvetica,sans-Serif" font-size="10.00">src</text>
</a>
</g>
</g>
<!-- dir_c82f6384d18ec3b604d22f93142c555c -->
<g id="node2" class="node">
<title>dir_c82f6384d18ec3b604d22f93142c555c</title>
<g id="a_node2"><a xlink:href="dir_c82f6384d18ec3b604d22f93142c555c.html" target="_top" xlink:title="include">
<polygon fill="none" stroke="red" points="72,-36 18,-36 18,0 72,0 72,-36"/>
<text text-anchor="middle" x="45" y="-15.5" font-family="Helvetica,sans-Serif" font-size="10.00">include</text>
</a>
</g>
</g>
<!-- dir_a9c85f30d6cf1ec03af822eebfeb4d61&#45;&gt;dir_c82f6384d18ec3b604d22f93142c555c -->
<g id="edge1" class="edge">
<title>dir_a9c85f30d6cf1ec03af822eebfeb4d61&#45;&gt;dir_c82f6384d18ec3b604d22f93142c555c</title>
<path fill="none" stroke="black" d="M45,-71.7C45,-63.98 45,-54.71 45,-46.11"/>
<polygon fill="black" stroke="black" points="48.5,-46.1 45,-36.1 41.5,-46.1 48.5,-46.1"/>
<g id="a_edge1&#45;headlabel"><a xlink:href="dir_000098_000095.html" target="_top" xlink:title="1">
<text text-anchor="middle" x="51.34" y="-47.2" font-family="Helvetica,sans-Serif" font-size="10.00">1</text>
</a>
</g>
</g>
</g>
</svg>
