<?xml version="1.0" encoding="UTF-8" standalone="no"?>
<!DOCTYPE svg PUBLIC "-//W3C//DTD SVG 1.1//EN"
 "http://www.w3.org/Graphics/SVG/1.1/DTD/svg11.dtd">
<!-- Generated by graphviz version 2.43.0 (0)
 -->
<!-- Title: TSID/src Pages: 1 -->
<svg width="251pt" height="151pt"
 viewBox="0.00 0.00 250.50 151.00" xmlns="http://www.w3.org/2000/svg" xmlns:xlink="http://www.w3.org/1999/xlink">
<g id="graph0" class="graph" transform="scale(1 1) rotate(0) translate(4 147)">
<title>TSID/src</title>
<g id="clust1" class="cluster">
<title>clusterdir_de4f433f8e8737405f5d27169f100f21</title>
<g id="a_clust1"><a xlink:href="dir_de4f433f8e8737405f5d27169f100f21.html" target="_top" xlink:title="TSID">
<polygon fill="#ddddee" stroke="black" points="96.5,-64 96.5,-135 166.5,-135 166.5,-64 96.5,-64"/>
<text text-anchor="middle" x="131.5" y="-123" font-family="Helvetica,sans-Serif" font-size="10.00">TSID</text>
</a>
</g>
</g>
<!-- dir_07065c84b9485f7d9476634ae8bd8fb1 -->
<g id="node1" class="node">
<title>dir_07065c84b9485f7d9476634ae8bd8fb1</title>
<g id="a_node1"><a xlink:href="dir_07065c84b9485f7d9476634ae8bd8fb1.html" target="_top" xlink:title="src">
<polygon fill="#eeeeff" stroke="black" points="158.5,-108 104.5,-108 104.5,-72 158.5,-72 158.5,-108"/>
<text text-anchor="middle" x="131.5" y="-87.5" font-family="Helvetica,sans-Serif" font-size="10.00">src</text>
</a>
</g>
</g>
<!-- dir_4118ae531ffdde861fee1c6efaa3009d -->
<g id="node2" class="node">
<title>dir_4118ae531ffdde861fee1c6efaa3009d</title>
<g id="a_node2"><a xlink:href="dir_4118ae531ffdde861fee1c6efaa3009d.html" target="_top" xlink:title="TextLogging">
<polygon fill="none" stroke="red" points="75,-36 0,-36 0,0 75,0 75,-36"/>
<text text-anchor="middle" x="37.5" y="-15.5" font-family="Helvetica,sans-Serif" font-size="10.00">TextLogging</text>
</a>
</g>
</g>
<!-- dir_07065c84b9485f7d9476634ae8bd8fb1&#45;&gt;dir_4118ae531ffdde861fee1c6efaa3009d -->
<g id="edge1" class="edge">
<title>dir_07065c84b9485f7d9476634ae8bd8fb1&#45;&gt;dir_4118ae531ffdde861fee1c6efaa3009d</title>
<path fill="none" stroke="black" d="M108.26,-71.7C96.31,-62.8 81.58,-51.82 68.65,-42.2"/>
<polygon fill="black" stroke="black" points="70.58,-39.27 60.47,-36.1 66.4,-44.88 70.58,-39.27"/>
<g id="a_edge1&#45;headlabel"><a xlink:href="dir_000046_000094.html" target="_top" xlink:title="5">
<text text-anchor="middle" x="75.16" y="-36.64" font-family="Helvetica,sans-Serif" font-size="10.00">5</text>
</a>
</g>
</g>
<!-- dir_67ecbf5b3dd37b0be5aedd0167f75fa8 -->
<g id="node3" class="node">
<title>dir_67ecbf5b3dd37b0be5aedd0167f75fa8</title>
<g id="a_node3"><a xlink:href="dir_67ecbf5b3dd37b0be5aedd0167f75fa8.html" target="_top" xlink:title="Conversions">
<polygon fill="none" stroke="red" points="170,-36 93,-36 93,0 170,0 170,-36"/>
<text text-anchor="middle" x="131.5" y="-15.5" font-family="Helvetica,sans-Serif" font-size="10.00">Conversions</text>
</a>
</g>
</g>
<!-- dir_07065c84b9485f7d9476634ae8bd8fb1&#45;&gt;dir_67ecbf5b3dd37b0be5aedd0167f75fa8 -->
<g id="edge2" class="edge">
<title>dir_07065c84b9485f7d9476634ae8bd8fb1&#45;&gt;dir_67ecbf5b3dd37b0be5aedd0167f75fa8</title>
<path fill="none" stroke="black" d="M131.5,-71.7C131.5,-63.98 131.5,-54.71 131.5,-46.11"/>
<polygon fill="black" stroke="black" points="135,-46.1 131.5,-36.1 128,-46.1 135,-46.1"/>
<g id="a_edge2&#45;headlabel"><a xlink:href="dir_000046_000023.html" target="_top" xlink:title="2">
<text text-anchor="middle" x="137.84" y="-47.2" font-family="Helvetica,sans-Serif" font-size="10.00">2</text>
</a>
</g>
</g>
<!-- dir_b3fde19edb359d87d45749a75c85f30a -->
<g id="node4" class="node">
<title>dir_b3fde19edb359d87d45749a75c85f30a</title>
<g id="a_node4"><a xlink:href="dir_b3fde19edb359d87d45749a75c85f30a.html" target="_top" xlink:title="include">
<polygon fill="none" stroke="red" points="242.5,-36 188.5,-36 188.5,0 242.5,0 242.5,-36"/>
<text text-anchor="middle" x="215.5" y="-15.5" font-family="Helvetica,sans-Serif" font-size="10.00">include</text>
</a>
</g>
</g>
<!-- dir_07065c84b9485f7d9476634ae8bd8fb1&#45;&gt;dir_b3fde19edb359d87d45749a75c85f30a -->
<g id="edge3" class="edge">
<title>dir_07065c84b9485f7d9476634ae8bd8fb1&#45;&gt;dir_b3fde19edb359d87d45749a75c85f30a</title>
<path fill="none" stroke="black" d="M152.26,-71.7C162.74,-62.97 175.61,-52.24 187,-42.75"/>
<polygon fill="black" stroke="black" points="189.53,-45.19 194.97,-36.1 185.05,-39.82 189.53,-45.19"/>
<g id="a_edge3&#45;headlabel"><a xlink:href="dir_000046_000042.html" target="_top" xlink:title="4">
<text text-anchor="middle" x="188.59" y="-47.18" font-family="Helvetica,sans-Serif" font-size="10.00">4</text>
</a>
</g>
</g>
</g>
</svg>
