<?xml version="1.0" encoding="UTF-8" standalone="no"?>
<!DOCTYPE svg PUBLIC "-//W3C//DTD SVG 1.1//EN"
 "http://www.w3.org/Graphics/SVG/1.1/DTD/svg11.dtd">
<!-- Generated by graphviz version 2.43.0 (0)
 -->
<!-- Title: YarpUtilities/include/BipedalLocomotion/YarpUtilities Pages: 1 -->
<svg width="167pt" height="223pt"
 viewBox="0.00 0.00 167.00 223.00" xmlns="http://www.w3.org/2000/svg" xmlns:xlink="http://www.w3.org/1999/xlink">
<g id="graph0" class="graph" transform="scale(1 1) rotate(0) translate(4 219)">
<title>YarpUtilities/include/BipedalLocomotion/YarpUtilities</title>
<g id="clust1" class="cluster">
<title>clusterdir_e64420540d8a40b091ba5d77d13addeb</title>
<g id="a_clust1"><a xlink:href="dir_e64420540d8a40b091ba5d77d13addeb.html" target="_top" xlink:title="BipedalLocomotion">
<polygon fill="#ddddee" stroke="black" points="8,-136 8,-207 118,-207 118,-136 8,-136"/>
<text text-anchor="middle" x="63" y="-195" font-family="Helvetica,sans-Serif" font-size="10.00">BipedalLocomotion</text>
</a>
</g>
</g>
<!-- dir_d792c8169525b3134e3d3a9911cdd860 -->
<g id="node1" class="node">
<title>dir_d792c8169525b3134e3d3a9911cdd860</title>
<g id="a_node1"><a xlink:href="dir_d792c8169525b3134e3d3a9911cdd860.html" target="_top" xlink:title="YarpUtilities">
<polygon fill="#eeeeff" stroke="black" points="100.5,-180 25.5,-180 25.5,-144 100.5,-144 100.5,-180"/>
<text text-anchor="middle" x="63" y="-159.5" font-family="Helvetica,sans-Serif" font-size="10.00">YarpUtilities</text>
</a>
</g>
</g>
<!-- dir_4118ae531ffdde861fee1c6efaa3009d -->
<g id="node2" class="node">
<title>dir_4118ae531ffdde861fee1c6efaa3009d</title>
<g id="a_node2"><a xlink:href="dir_4118ae531ffdde861fee1c6efaa3009d.html" target="_top" xlink:title="TextLogging">
<polygon fill="none" stroke="red" points="99.5,-36 24.5,-36 24.5,0 99.5,0 99.5,-36"/>
<text text-anchor="middle" x="62" y="-15.5" font-family="Helvetica,sans-Serif" font-size="10.00">TextLogging</text>
</a>
</g>
</g>
<!-- dir_d792c8169525b3134e3d3a9911cdd860&#45;&gt;dir_4118ae531ffdde861fee1c6efaa3009d -->
<g id="edge1" class="edge">
<title>dir_d792c8169525b3134e3d3a9911cdd860&#45;&gt;dir_4118ae531ffdde861fee1c6efaa3009d</title>
<path fill="none" stroke="black" d="M53.46,-143.93C48.36,-133.82 42.61,-120.57 40,-108 36.75,-92.33 36.87,-87.69 40,-72 41.79,-63.01 45.14,-53.64 48.69,-45.32"/>
<polygon fill="black" stroke="black" points="51.92,-46.67 52.87,-36.12 45.54,-43.77 51.92,-46.67"/>
<g id="a_edge1&#45;headlabel"><a xlink:href="dir_000102_000094.html" target="_top" xlink:title="1">
<text text-anchor="middle" x="53.01" y="-48.62" font-family="Helvetica,sans-Serif" font-size="10.00">1</text>
</a>
</g>
</g>
<!-- dir_995a11a27ec5ce2fce465ebbab555255 -->
<g id="node3" class="node">
<title>dir_995a11a27ec5ce2fce465ebbab555255</title>
<g id="a_node3"><a xlink:href="dir_995a11a27ec5ce2fce465ebbab555255.html" target="_top" xlink:title="ParametersHandler">
<polygon fill="none" stroke="red" points="159,-108 49,-108 49,-72 159,-72 159,-108"/>
<text text-anchor="middle" x="104" y="-87.5" font-family="Helvetica,sans-Serif" font-size="10.00">ParametersHandler</text>
</a>
</g>
</g>
<!-- dir_d792c8169525b3134e3d3a9911cdd860&#45;&gt;dir_995a11a27ec5ce2fce465ebbab555255 -->
<g id="edge2" class="edge">
<title>dir_d792c8169525b3134e3d3a9911cdd860&#45;&gt;dir_995a11a27ec5ce2fce465ebbab555255</title>
<path fill="none" stroke="black" d="M73.13,-143.7C77.85,-135.64 83.56,-125.89 88.78,-116.98"/>
<polygon fill="black" stroke="black" points="91.95,-118.5 93.98,-108.1 85.91,-114.96 91.95,-118.5"/>
<g id="a_edge2&#45;headlabel"><a xlink:href="dir_000102_000052.html" target="_top" xlink:title="1">
<text text-anchor="middle" x="92.58" y="-120.54" font-family="Helvetica,sans-Serif" font-size="10.00">1</text>
</a>
</g>
</g>
<!-- dir_995a11a27ec5ce2fce465ebbab555255&#45;&gt;dir_4118ae531ffdde861fee1c6efaa3009d -->
<g id="edge3" class="edge">
<title>dir_995a11a27ec5ce2fce465ebbab555255&#45;&gt;dir_4118ae531ffdde861fee1c6efaa3009d</title>
<path fill="none" stroke="black" d="M93.62,-71.7C88.74,-63.56 82.81,-53.69 77.42,-44.7"/>
<polygon fill="black" stroke="black" points="80.41,-42.88 72.26,-36.1 74.41,-46.48 80.41,-42.88"/>
<g id="a_edge3&#45;headlabel"><a xlink:href="dir_000052_000094.html" target="_top" xlink:title="3">
<text text-anchor="middle" x="84.69" y="-42" font-family="Helvetica,sans-Serif" font-size="10.00">3</text>
</a>
</g>
</g>
</g>
</svg>
