<?xml version="1.0" encoding="UTF-8" standalone="no"?>
<!DOCTYPE svg PUBLIC "-//W3C//DTD SVG 1.1//EN"
 "http://www.w3.org/Graphics/SVG/1.1/DTD/svg11.dtd">
<!-- Generated by graphviz version 2.43.0 (0)
 -->
<!-- Title: Estimators Pages: 1 -->
<svg width="263pt" height="420pt"
 viewBox="0.00 0.00 262.50 420.00" xmlns="http://www.w3.org/2000/svg" xmlns:xlink="http://www.w3.org/1999/xlink">
<g id="graph0" class="graph" transform="scale(1 1) rotate(0) translate(4 416)">
<title>Estimators</title>
<g id="clust1" class="cluster">
<title>clusterdir_941407157475547b8b358a98f0692190</title>
<g id="a_clust1"><a xlink:href="dir_941407157475547b8b358a98f0692190.html" target="_top">
<polygon fill="#eeeeff" stroke="black" points="11,-280 11,-404 169,-404 169,-280 11,-280"/>
</a>
</g>
</g>
<!-- dir_941407157475547b8b358a98f0692190 -->
<g id="node1" class="node">
<title>dir_941407157475547b8b358a98f0692190</title>
<text text-anchor="middle" x="126" y="-375.5" font-family="Helvetica,sans-Serif" font-size="10.00">Estimators</text>
</g>
<!-- dir_83e72bb223dd52ca9520cbeb993359a4 -->
<g id="node2" class="node">
<title>dir_83e72bb223dd52ca9520cbeb993359a4</title>
<g id="a_node2"><a xlink:href="dir_83e72bb223dd52ca9520cbeb993359a4.html" target="_top" xlink:title="include">
<polygon fill="white" stroke="red" points="116,-324 62,-324 62,-288 116,-288 116,-324"/>
<text text-anchor="middle" x="89" y="-303.5" font-family="Helvetica,sans-Serif" font-size="10.00">include</text>
</a>
</g>
</g>
<!-- dir_ef68f1e1f5148ff8ef7fb1c955106c3c -->
<g id="node4" class="node">
<title>dir_ef68f1e1f5148ff8ef7fb1c955106c3c</title>
<g id="a_node4"><a xlink:href="dir_ef68f1e1f5148ff8ef7fb1c955106c3c.html" target="_top" xlink:title="System">
<polygon fill="none" stroke="red" points="200,-180 146,-180 146,-144 200,-144 200,-180"/>
<text text-anchor="middle" x="173" y="-159.5" font-family="Helvetica,sans-Serif" font-size="10.00">System</text>
</a>
</g>
</g>
<!-- dir_83e72bb223dd52ca9520cbeb993359a4&#45;&gt;dir_ef68f1e1f5148ff8ef7fb1c955106c3c -->
<g id="edge6" class="edge">
<title>dir_83e72bb223dd52ca9520cbeb993359a4&#45;&gt;dir_ef68f1e1f5148ff8ef7fb1c955106c3c</title>
<path fill="none" stroke="black" d="M104.9,-287.69C113.57,-277.71 124.11,-264.68 132,-252 144.44,-232.01 155.41,-207.63 162.86,-189.44"/>
<polygon fill="black" stroke="black" points="166.16,-190.63 166.63,-180.04 159.66,-188.02 166.16,-190.63"/>
<g id="a_edge6&#45;headlabel"><a xlink:href="dir_000028_000084.html" target="_top" xlink:title="2">
<text text-anchor="middle" x="167.46" y="-192.52" font-family="Helvetica,sans-Serif" font-size="10.00">2</text>
</a>
</g>
</g>
<!-- dir_995a11a27ec5ce2fce465ebbab555255 -->
<g id="node7" class="node">
<title>dir_995a11a27ec5ce2fce465ebbab555255</title>
<g id="a_node7"><a xlink:href="dir_995a11a27ec5ce2fce465ebbab555255.html" target="_top" xlink:title="ParametersHandler">
<polygon fill="none" stroke="red" points="176,-108 66,-108 66,-72 176,-72 176,-108"/>
<text text-anchor="middle" x="121" y="-87.5" font-family="Helvetica,sans-Serif" font-size="10.00">ParametersHandler</text>
</a>
</g>
</g>
<!-- dir_83e72bb223dd52ca9520cbeb993359a4&#45;&gt;dir_995a11a27ec5ce2fce465ebbab555255 -->
<g id="edge7" class="edge">
<title>dir_83e72bb223dd52ca9520cbeb993359a4&#45;&gt;dir_995a11a27ec5ce2fce465ebbab555255</title>
<path fill="none" stroke="black" d="M92.46,-287.85C94.5,-277.49 97.05,-264.02 99,-252 106.6,-205.22 113.7,-150.5 117.68,-118.41"/>
<polygon fill="black" stroke="black" points="121.16,-118.79 118.91,-108.44 114.22,-117.93 121.16,-118.79"/>
<g id="a_edge7&#45;headlabel"><a xlink:href="dir_000028_000052.html" target="_top" xlink:title="3">
<text text-anchor="middle" x="123.54" y="-120.2" font-family="Helvetica,sans-Serif" font-size="10.00">3</text>
</a>
</g>
</g>
<!-- dir_50541d64f188ef934de78ba6c49ffdbe -->
<g id="node8" class="node">
<title>dir_50541d64f188ef934de78ba6c49ffdbe</title>
<g id="a_node8"><a xlink:href="dir_50541d64f188ef934de78ba6c49ffdbe.html" target="_top" xlink:title="Contacts">
<polygon fill="none" stroke="red" points="89.5,-252 30.5,-252 30.5,-216 89.5,-216 89.5,-252"/>
<text text-anchor="middle" x="60" y="-231.5" font-family="Helvetica,sans-Serif" font-size="10.00">Contacts</text>
</a>
</g>
</g>
<!-- dir_83e72bb223dd52ca9520cbeb993359a4&#45;&gt;dir_50541d64f188ef934de78ba6c49ffdbe -->
<g id="edge8" class="edge">
<title>dir_83e72bb223dd52ca9520cbeb993359a4&#45;&gt;dir_50541d64f188ef934de78ba6c49ffdbe</title>
<path fill="none" stroke="black" d="M81.83,-287.7C78.57,-279.81 74.63,-270.3 71,-261.55"/>
<polygon fill="black" stroke="black" points="74.15,-260 67.09,-252.1 67.68,-262.68 74.15,-260"/>
<g id="a_edge8&#45;headlabel"><a xlink:href="dir_000028_000011.html" target="_top" xlink:title="1">
<text text-anchor="middle" x="78.15" y="-259.74" font-family="Helvetica,sans-Serif" font-size="10.00">1</text>
</a>
</g>
</g>
<!-- dir_e8748f12afc033586b9763e57373849f -->
<g id="node3" class="node">
<title>dir_e8748f12afc033586b9763e57373849f</title>
<g id="a_node3"><a xlink:href="dir_e8748f12afc033586b9763e57373849f.html" target="_top" xlink:title="src">
<polygon fill="white" stroke="black" points="73,-396 19,-396 19,-360 73,-360 73,-396"/>
<text text-anchor="middle" x="46" y="-375.5" font-family="Helvetica,sans-Serif" font-size="10.00">src</text>
</a>
</g>
</g>
<!-- dir_e8748f12afc033586b9763e57373849f&#45;&gt;dir_83e72bb223dd52ca9520cbeb993359a4 -->
<g id="edge4" class="edge">
<title>dir_e8748f12afc033586b9763e57373849f&#45;&gt;dir_83e72bb223dd52ca9520cbeb993359a4</title>
<path fill="none" stroke="black" d="M56.63,-359.7C61.63,-351.56 67.69,-341.69 73.21,-332.7"/>
<polygon fill="black" stroke="black" points="76.24,-334.46 78.49,-324.1 70.28,-330.79 76.24,-334.46"/>
<g id="a_edge4&#45;headlabel"><a xlink:href="dir_000032_000028.html" target="_top" xlink:title="5">
<text text-anchor="middle" x="76.78" y="-336.51" font-family="Helvetica,sans-Serif" font-size="10.00">5</text>
</a>
</g>
</g>
<!-- dir_4118ae531ffdde861fee1c6efaa3009d -->
<g id="node5" class="node">
<title>dir_4118ae531ffdde861fee1c6efaa3009d</title>
<g id="a_node5"><a xlink:href="dir_4118ae531ffdde861fee1c6efaa3009d.html" target="_top" xlink:title="TextLogging">
<polygon fill="none" stroke="red" points="116.5,-36 41.5,-36 41.5,0 116.5,0 116.5,-36"/>
<text text-anchor="middle" x="79" y="-15.5" font-family="Helvetica,sans-Serif" font-size="10.00">TextLogging</text>
</a>
</g>
</g>
<!-- dir_e8748f12afc033586b9763e57373849f&#45;&gt;dir_4118ae531ffdde861fee1c6efaa3009d -->
<g id="edge3" class="edge">
<title>dir_e8748f12afc033586b9763e57373849f&#45;&gt;dir_4118ae531ffdde861fee1c6efaa3009d</title>
<path fill="none" stroke="black" d="M36.47,-359.66C23,-333.47 0,-281.9 0,-235 0,-235 0,-235 0,-161 0,-115.24 31.72,-70.45 54.96,-43.78"/>
<polygon fill="black" stroke="black" points="57.78,-45.88 61.86,-36.11 52.57,-41.21 57.78,-45.88"/>
<g id="a_edge3&#45;headlabel"><a xlink:href="dir_000032_000094.html" target="_top" xlink:title="1">
<text text-anchor="middle" x="57.49" y="-47.96" font-family="Helvetica,sans-Serif" font-size="10.00">1</text>
</a>
</g>
</g>
<!-- dir_67ecbf5b3dd37b0be5aedd0167f75fa8 -->
<g id="node6" class="node">
<title>dir_67ecbf5b3dd37b0be5aedd0167f75fa8</title>
<g id="a_node6"><a xlink:href="dir_67ecbf5b3dd37b0be5aedd0167f75fa8.html" target="_top" xlink:title="Conversions">
<polygon fill="none" stroke="red" points="254.5,-324 177.5,-324 177.5,-288 254.5,-288 254.5,-324"/>
<text text-anchor="middle" x="216" y="-303.5" font-family="Helvetica,sans-Serif" font-size="10.00">Conversions</text>
</a>
</g>
</g>
<!-- dir_e8748f12afc033586b9763e57373849f&#45;&gt;dir_67ecbf5b3dd37b0be5aedd0167f75fa8 -->
<g id="edge5" class="edge">
<title>dir_e8748f12afc033586b9763e57373849f&#45;&gt;dir_67ecbf5b3dd37b0be5aedd0167f75fa8</title>
<path fill="none" stroke="black" d="M73.01,-364.4C76.36,-362.89 79.75,-361.39 83,-360 91.33,-356.43 133.31,-339.74 167.91,-326.03"/>
<polygon fill="black" stroke="black" points="169.43,-329.19 177.44,-322.25 166.85,-322.68 169.43,-329.19"/>
<g id="a_edge5&#45;headlabel"><a xlink:href="dir_000032_000023.html" target="_top" xlink:title="2">
<text text-anchor="middle" x="167.13" y="-330.65" font-family="Helvetica,sans-Serif" font-size="10.00">2</text>
</a>
</g>
</g>
<!-- dir_ef68f1e1f5148ff8ef7fb1c955106c3c&#45;&gt;dir_4118ae531ffdde861fee1c6efaa3009d -->
<g id="edge1" class="edge">
<title>dir_ef68f1e1f5148ff8ef7fb1c955106c3c&#45;&gt;dir_4118ae531ffdde861fee1c6efaa3009d</title>
<path fill="none" stroke="black" d="M181.45,-143.9C189.52,-124.9 198.61,-94.02 185,-72 172.04,-51.04 148.01,-38.09 126.1,-30.24"/>
<polygon fill="black" stroke="black" points="127.14,-26.9 116.55,-27.09 124.95,-33.55 127.14,-26.9"/>
<g id="a_edge1&#45;headlabel"><a xlink:href="dir_000084_000094.html" target="_top" xlink:title="4">
<text text-anchor="middle" x="131.45" y="-22.84" font-family="Helvetica,sans-Serif" font-size="10.00">4</text>
</a>
</g>
</g>
<!-- dir_ef68f1e1f5148ff8ef7fb1c955106c3c&#45;&gt;dir_995a11a27ec5ce2fce465ebbab555255 -->
<g id="edge2" class="edge">
<title>dir_ef68f1e1f5148ff8ef7fb1c955106c3c&#45;&gt;dir_995a11a27ec5ce2fce465ebbab555255</title>
<path fill="none" stroke="black" d="M160.15,-143.7C153.97,-135.39 146.46,-125.28 139.68,-116.14"/>
<polygon fill="black" stroke="black" points="142.48,-114.04 133.71,-108.1 136.86,-118.22 142.48,-114.04"/>
<g id="a_edge2&#45;headlabel"><a xlink:href="dir_000084_000052.html" target="_top" xlink:title="4">
<text text-anchor="middle" x="146.9" y="-112.74" font-family="Helvetica,sans-Serif" font-size="10.00">4</text>
</a>
</g>
</g>
<!-- dir_995a11a27ec5ce2fce465ebbab555255&#45;&gt;dir_4118ae531ffdde861fee1c6efaa3009d -->
<g id="edge9" class="edge">
<title>dir_995a11a27ec5ce2fce465ebbab555255&#45;&gt;dir_4118ae531ffdde861fee1c6efaa3009d</title>
<path fill="none" stroke="black" d="M110.62,-71.7C105.74,-63.56 99.81,-53.69 94.42,-44.7"/>
<polygon fill="black" stroke="black" points="97.41,-42.88 89.26,-36.1 91.41,-46.48 97.41,-42.88"/>
<g id="a_edge9&#45;headlabel"><a xlink:href="dir_000052_000094.html" target="_top" xlink:title="3">
<text text-anchor="middle" x="101.69" y="-42" font-family="Helvetica,sans-Serif" font-size="10.00">3</text>
</a>
</g>
</g>
<!-- dir_50541d64f188ef934de78ba6c49ffdbe&#45;&gt;dir_ef68f1e1f5148ff8ef7fb1c955106c3c -->
<g id="edge10" class="edge">
<title>dir_50541d64f188ef934de78ba6c49ffdbe&#45;&gt;dir_ef68f1e1f5148ff8ef7fb1c955106c3c</title>
<path fill="none" stroke="black" d="M87.64,-215.88C102.53,-206.66 121.07,-195.17 137.06,-185.26"/>
<polygon fill="black" stroke="black" points="138.98,-188.19 145.64,-179.95 135.3,-182.24 138.98,-188.19"/>
<g id="a_edge10&#45;headlabel"><a xlink:href="dir_000011_000084.html" target="_top" xlink:title="1">
<text text-anchor="middle" x="137.42" y="-190" font-family="Helvetica,sans-Serif" font-size="10.00">1</text>
</a>
</g>
</g>
<!-- dir_50541d64f188ef934de78ba6c49ffdbe&#45;&gt;dir_4118ae531ffdde861fee1c6efaa3009d -->
<g id="edge11" class="edge">
<title>dir_50541d64f188ef934de78ba6c49ffdbe&#45;&gt;dir_4118ae531ffdde861fee1c6efaa3009d</title>
<path fill="none" stroke="black" d="M57.3,-215.87C53.16,-186.21 46.73,-123.54 57,-72 58.79,-63.01 62.14,-53.64 65.69,-45.32"/>
<polygon fill="black" stroke="black" points="68.92,-46.67 69.87,-36.12 62.54,-43.77 68.92,-46.67"/>
<g id="a_edge11&#45;headlabel"><a xlink:href="dir_000011_000094.html" target="_top" xlink:title="4">
<text text-anchor="middle" x="70.01" y="-48.62" font-family="Helvetica,sans-Serif" font-size="10.00">4</text>
</a>
</g>
</g>
<!-- dir_50541d64f188ef934de78ba6c49ffdbe&#45;&gt;dir_995a11a27ec5ce2fce465ebbab555255 -->
<g id="edge12" class="edge">
<title>dir_50541d64f188ef934de78ba6c49ffdbe&#45;&gt;dir_995a11a27ec5ce2fce465ebbab555255</title>
<path fill="none" stroke="black" d="M67.36,-215.87C77.85,-191.46 97.19,-146.43 109.56,-117.64"/>
<polygon fill="black" stroke="black" points="112.88,-118.76 113.62,-108.19 106.45,-116 112.88,-118.76"/>
<g id="a_edge12&#45;headlabel"><a xlink:href="dir_000011_000052.html" target="_top" xlink:title="3">
<text text-anchor="middle" x="114.07" y="-120.68" font-family="Helvetica,sans-Serif" font-size="10.00">3</text>
</a>
</g>
</g>
</g>
</svg>
