<?xml version="1.0" encoding="UTF-8" standalone="no"?>
<!DOCTYPE svg PUBLIC "-//W3C//DTD SVG 1.1//EN"
 "http://www.w3.org/Graphics/SVG/1.1/DTD/svg11.dtd">
<!-- Generated by graphviz version 2.43.0 (0)
 -->
<!-- Title: TSID Pages: 1 -->
<svg width="273pt" height="348pt"
 viewBox="0.00 0.00 272.50 348.00" xmlns="http://www.w3.org/2000/svg" xmlns:xlink="http://www.w3.org/1999/xlink">
<g id="graph0" class="graph" transform="scale(1 1) rotate(0) translate(4 344)">
<title>TSID</title>
<g id="clust1" class="cluster">
<title>clusterdir_de4f433f8e8737405f5d27169f100f21</title>
<g id="a_clust1"><a xlink:href="dir_de4f433f8e8737405f5d27169f100f21.html" target="_top">
<polygon fill="#eeeeff" stroke="black" points="37,-208 37,-332 179,-332 179,-208 37,-208"/>
</a>
</g>
</g>
<!-- dir_de4f433f8e8737405f5d27169f100f21 -->
<g id="node1" class="node">
<title>dir_de4f433f8e8737405f5d27169f100f21</title>
<text text-anchor="middle" x="144" y="-303.5" font-family="Helvetica,sans-Serif" font-size="10.00">TSID</text>
</g>
<!-- dir_b3fde19edb359d87d45749a75c85f30a -->
<g id="node2" class="node">
<title>dir_b3fde19edb359d87d45749a75c85f30a</title>
<g id="a_node2"><a xlink:href="dir_b3fde19edb359d87d45749a75c85f30a.html" target="_top" xlink:title="include">
<polygon fill="white" stroke="red" points="99,-252 45,-252 45,-216 99,-216 99,-252"/>
<text text-anchor="middle" x="72" y="-231.5" font-family="Helvetica,sans-Serif" font-size="10.00">include</text>
</a>
</g>
</g>
<!-- dir_ef68f1e1f5148ff8ef7fb1c955106c3c -->
<g id="node4" class="node">
<title>dir_ef68f1e1f5148ff8ef7fb1c955106c3c</title>
<g id="a_node4"><a xlink:href="dir_ef68f1e1f5148ff8ef7fb1c955106c3c.html" target="_top" xlink:title="System">
<polygon fill="none" stroke="red" points="54,-108 0,-108 0,-72 54,-72 54,-108"/>
<text text-anchor="middle" x="27" y="-87.5" font-family="Helvetica,sans-Serif" font-size="10.00">System</text>
</a>
</g>
</g>
<!-- dir_b3fde19edb359d87d45749a75c85f30a&#45;&gt;dir_ef68f1e1f5148ff8ef7fb1c955106c3c -->
<g id="edge7" class="edge">
<title>dir_b3fde19edb359d87d45749a75c85f30a&#45;&gt;dir_ef68f1e1f5148ff8ef7fb1c955106c3c</title>
<path fill="none" stroke="black" d="M55.47,-215.87C47.17,-206.15 37.87,-193.3 33,-180 25.78,-160.28 24.53,-136.47 24.94,-118.45"/>
<polygon fill="black" stroke="black" points="28.45,-118.45 25.37,-108.32 21.45,-118.16 28.45,-118.45"/>
<g id="a_edge7&#45;headlabel"><a xlink:href="dir_000042_000084.html" target="_top" xlink:title="9">
<text text-anchor="middle" x="31.13" y="-119.66" font-family="Helvetica,sans-Serif" font-size="10.00">9</text>
</a>
</g>
</g>
<!-- dir_50541d64f188ef934de78ba6c49ffdbe -->
<g id="node7" class="node">
<title>dir_50541d64f188ef934de78ba6c49ffdbe</title>
<g id="a_node7"><a xlink:href="dir_50541d64f188ef934de78ba6c49ffdbe.html" target="_top" xlink:title="Contacts">
<polygon fill="none" stroke="red" points="101.5,-180 42.5,-180 42.5,-144 101.5,-144 101.5,-180"/>
<text text-anchor="middle" x="72" y="-159.5" font-family="Helvetica,sans-Serif" font-size="10.00">Contacts</text>
</a>
</g>
</g>
<!-- dir_b3fde19edb359d87d45749a75c85f30a&#45;&gt;dir_50541d64f188ef934de78ba6c49ffdbe -->
<g id="edge8" class="edge">
<title>dir_b3fde19edb359d87d45749a75c85f30a&#45;&gt;dir_50541d64f188ef934de78ba6c49ffdbe</title>
<path fill="none" stroke="black" d="M72,-215.7C72,-207.98 72,-198.71 72,-190.11"/>
<polygon fill="black" stroke="black" points="75.5,-190.1 72,-180.1 68.5,-190.1 75.5,-190.1"/>
<g id="a_edge8&#45;headlabel"><a xlink:href="dir_000042_000011.html" target="_top" xlink:title="1">
<text text-anchor="middle" x="78.34" y="-191.2" font-family="Helvetica,sans-Serif" font-size="10.00">1</text>
</a>
</g>
</g>
<!-- dir_07065c84b9485f7d9476634ae8bd8fb1 -->
<g id="node3" class="node">
<title>dir_07065c84b9485f7d9476634ae8bd8fb1</title>
<g id="a_node3"><a xlink:href="dir_07065c84b9485f7d9476634ae8bd8fb1.html" target="_top" xlink:title="src">
<polygon fill="white" stroke="black" points="99,-324 45,-324 45,-288 99,-288 99,-324"/>
<text text-anchor="middle" x="72" y="-303.5" font-family="Helvetica,sans-Serif" font-size="10.00">src</text>
</a>
</g>
</g>
<!-- dir_07065c84b9485f7d9476634ae8bd8fb1&#45;&gt;dir_b3fde19edb359d87d45749a75c85f30a -->
<g id="edge4" class="edge">
<title>dir_07065c84b9485f7d9476634ae8bd8fb1&#45;&gt;dir_b3fde19edb359d87d45749a75c85f30a</title>
<path fill="none" stroke="black" d="M72,-287.7C72,-279.98 72,-270.71 72,-262.11"/>
<polygon fill="black" stroke="black" points="75.5,-262.1 72,-252.1 68.5,-262.1 75.5,-262.1"/>
<g id="a_edge4&#45;headlabel"><a xlink:href="dir_000046_000042.html" target="_top" xlink:title="4">
<text text-anchor="middle" x="78.34" y="-263.2" font-family="Helvetica,sans-Serif" font-size="10.00">4</text>
</a>
</g>
</g>
<!-- dir_4118ae531ffdde861fee1c6efaa3009d -->
<g id="node5" class="node">
<title>dir_4118ae531ffdde861fee1c6efaa3009d</title>
<g id="a_node5"><a xlink:href="dir_4118ae531ffdde861fee1c6efaa3009d.html" target="_top" xlink:title="TextLogging">
<polygon fill="none" stroke="red" points="119.5,-36 44.5,-36 44.5,0 119.5,0 119.5,-36"/>
<text text-anchor="middle" x="82" y="-15.5" font-family="Helvetica,sans-Serif" font-size="10.00">TextLogging</text>
</a>
</g>
</g>
<!-- dir_07065c84b9485f7d9476634ae8bd8fb1&#45;&gt;dir_4118ae531ffdde861fee1c6efaa3009d -->
<g id="edge2" class="edge">
<title>dir_07065c84b9485f7d9476634ae8bd8fb1&#45;&gt;dir_4118ae531ffdde861fee1c6efaa3009d</title>
<path fill="none" stroke="black" d="M87.46,-287.73C95.18,-277.97 103.76,-265.13 108,-252 131.21,-180.1 107.09,-89.97 92.08,-45.85"/>
<polygon fill="black" stroke="black" points="95.29,-44.43 88.67,-36.15 88.68,-46.75 95.29,-44.43"/>
<g id="a_edge2&#45;headlabel"><a xlink:href="dir_000046_000094.html" target="_top" xlink:title="5">
<text text-anchor="middle" x="99.16" y="-44.38" font-family="Helvetica,sans-Serif" font-size="10.00">5</text>
</a>
</g>
</g>
<!-- dir_67ecbf5b3dd37b0be5aedd0167f75fa8 -->
<g id="node6" class="node">
<title>dir_67ecbf5b3dd37b0be5aedd0167f75fa8</title>
<g id="a_node6"><a xlink:href="dir_67ecbf5b3dd37b0be5aedd0167f75fa8.html" target="_top" xlink:title="Conversions">
<polygon fill="none" stroke="red" points="264.5,-252 187.5,-252 187.5,-216 264.5,-216 264.5,-252"/>
<text text-anchor="middle" x="226" y="-231.5" font-family="Helvetica,sans-Serif" font-size="10.00">Conversions</text>
</a>
</g>
</g>
<!-- dir_07065c84b9485f7d9476634ae8bd8fb1&#45;&gt;dir_67ecbf5b3dd37b0be5aedd0167f75fa8 -->
<g id="edge3" class="edge">
<title>dir_07065c84b9485f7d9476634ae8bd8fb1&#45;&gt;dir_67ecbf5b3dd37b0be5aedd0167f75fa8</title>
<path fill="none" stroke="black" d="M99.1,-292.13C102.1,-290.73 105.11,-289.33 108,-288 131.1,-277.36 156.85,-265.76 178.39,-256.14"/>
<polygon fill="black" stroke="black" points="179.95,-259.27 187.65,-252 177.1,-252.88 179.95,-259.27"/>
<g id="a_edge3&#45;headlabel"><a xlink:href="dir_000046_000023.html" target="_top" xlink:title="2">
<text text-anchor="middle" x="177.82" y="-260.83" font-family="Helvetica,sans-Serif" font-size="10.00">2</text>
</a>
</g>
</g>
<!-- dir_ef68f1e1f5148ff8ef7fb1c955106c3c&#45;&gt;dir_4118ae531ffdde861fee1c6efaa3009d -->
<g id="edge1" class="edge">
<title>dir_ef68f1e1f5148ff8ef7fb1c955106c3c&#45;&gt;dir_4118ae531ffdde861fee1c6efaa3009d</title>
<path fill="none" stroke="black" d="M40.6,-71.7C47.12,-63.39 55.07,-53.28 62.25,-44.14"/>
<polygon fill="black" stroke="black" points="65.13,-46.13 68.56,-36.1 59.63,-41.81 65.13,-46.13"/>
<g id="a_edge1&#45;headlabel"><a xlink:href="dir_000084_000094.html" target="_top" xlink:title="4">
<text text-anchor="middle" x="65.15" y="-48.21" font-family="Helvetica,sans-Serif" font-size="10.00">4</text>
</a>
</g>
</g>
<!-- dir_50541d64f188ef934de78ba6c49ffdbe&#45;&gt;dir_ef68f1e1f5148ff8ef7fb1c955106c3c -->
<g id="edge5" class="edge">
<title>dir_50541d64f188ef934de78ba6c49ffdbe&#45;&gt;dir_ef68f1e1f5148ff8ef7fb1c955106c3c</title>
<path fill="none" stroke="black" d="M60.88,-143.7C55.64,-135.56 49.3,-125.69 43.52,-116.7"/>
<polygon fill="black" stroke="black" points="46.35,-114.62 38,-108.1 40.46,-118.41 46.35,-114.62"/>
<g id="a_edge5&#45;headlabel"><a xlink:href="dir_000011_000084.html" target="_top" xlink:title="1">
<text text-anchor="middle" x="50.68" y="-113.61" font-family="Helvetica,sans-Serif" font-size="10.00">1</text>
</a>
</g>
</g>
<!-- dir_50541d64f188ef934de78ba6c49ffdbe&#45;&gt;dir_4118ae531ffdde861fee1c6efaa3009d -->
<g id="edge6" class="edge">
<title>dir_50541d64f188ef934de78ba6c49ffdbe&#45;&gt;dir_4118ae531ffdde861fee1c6efaa3009d</title>
<path fill="none" stroke="black" d="M73.21,-143.87C74.91,-119.67 78.04,-75.21 80.07,-46.39"/>
<polygon fill="black" stroke="black" points="83.58,-46.41 80.79,-36.19 76.6,-45.92 83.58,-46.41"/>
<g id="a_edge6&#45;headlabel"><a xlink:href="dir_000011_000094.html" target="_top" xlink:title="4">
<text text-anchor="middle" x="86.16" y="-47.7" font-family="Helvetica,sans-Serif" font-size="10.00">4</text>
</a>
</g>
</g>
</g>
</svg>
