<?xml version="1.0" encoding="UTF-8" standalone="no"?>
<!DOCTYPE svg PUBLIC "-//W3C//DTD SVG 1.1//EN"
 "http://www.w3.org/Graphics/SVG/1.1/DTD/svg11.dtd">
<!-- Generated by graphviz version 2.43.0 (0)
 -->
<!-- Title: ContinuousDynamicalSystem/include/BipedalLocomotion/ContinuousDynamicalSystem/DynamicalSystem.h Pages: 1 -->
<!--zoomable 328 -->
<svg id="main" version="1.1" xmlns="http://www.w3.org/2000/svg" xmlns:xlink="http://www.w3.org/1999/xlink" xml:space="preserve" onload="init(evt)">
<style type="text/css"><![CDATA[
.edge:hover path { stroke: red; }
.edge:hover polygon { stroke: red; fill: red; }
]]></style>
<script type="text/javascript"><![CDATA[
var edges = document.getElementsByTagName('g');
if (edges && edges.length) {
  for (var i=0;i<edges.length;i++) {
    if (edges[i].id.substr(0,4)=='edge') {
      edges[i].setAttribute('class','edge');
    }
  }
}
]]></script>
        <defs>
                <circle id="rim" cx="0" cy="0" r="7"/>
                <circle id="rim2" cx="0" cy="0" r="3.5"/>
                <g id="zoomPlus">
                        <use xlink:href="#rim" fill="#404040">
                                <set attributeName="fill" to="#808080" begin="zoomplus.mouseover" end="zoomplus.mouseout"/>
                        </use>
                        <path d="M-4,0h8M0,-4v8" fill="none" stroke="white" stroke-width="1.5" pointer-events="none"/>
                </g>
                <g id="zoomMin">
                        <use xlink:href="#rim" fill="#404040">
                                <set attributeName="fill" to="#808080" begin="zoomminus.mouseover" end="zoomminus.mouseout"/>
                        </use>
                        <path d="M-4,0h8" fill="none" stroke="white" stroke-width="1.5" pointer-events="none"/>
                </g>
                <g id="dirArrow">
                        <path fill="none" stroke="white" stroke-width="1.5" d="M0,-3.0v7 M-2.5,-0.5L0,-3.0L2.5,-0.5"/>
                </g>
               <g id="resetDef">
                       <use xlink:href="#rim2" fill="#404040">
                               <set attributeName="fill" to="#808080" begin="reset.mouseover" end="reset.mouseout"/>
                       </use>
               </g>
        </defs>

<script type="text/javascript">
var viewWidth = 1049;
var viewHeight = 328;
var sectionId = 'dynsection-1';
</script>
<script xlink:href="svgpan.js"/>
<svg id="graph" class="graph">
<g id="viewport">
<title>ContinuousDynamicalSystem/include/BipedalLocomotion/ContinuousDynamicalSystem/DynamicalSystem.h</title>
<!-- Node1 -->
<g id="node1" class="node">
<title>Node1</title>
<g id="a_node1"><a xlink:title=" ">
<polygon fill="#bfbfbf" stroke="black" points="468,-267.5 468,-319.5 632,-319.5 632,-267.5 468,-267.5"/>
<text text-anchor="start" x="476" y="-307.5" font-family="Helvetica,sans-Serif" font-size="10.00">ContinuousDynamicalSystem</text>
<text text-anchor="start" x="476" y="-296.5" font-family="Helvetica,sans-Serif" font-size="10.00">/include/BipedalLocomotion</text>
<text text-anchor="start" x="476" y="-285.5" font-family="Helvetica,sans-Serif" font-size="10.00">/ContinuousDynamicalSystem</text>
<text text-anchor="middle" x="550" y="-274.5" font-family="Helvetica,sans-Serif" font-size="10.00">/DynamicalSystem.h</text>
</a>
</g>
</g>
<!-- Node2 -->
<g id="node2" class="node">
<title>Node2</title>
<g id="a_node2"><a xlink:href="FixedBaseDynamics_8h.html" target="_top" xlink:title=" ">
<polygon fill="none" stroke="black" points="0,-178.5 0,-230.5 164,-230.5 164,-178.5 0,-178.5"/>
<text text-anchor="start" x="8" y="-218.5" font-family="Helvetica,sans-Serif" font-size="10.00">ContinuousDynamicalSystem</text>
<text text-anchor="start" x="8" y="-207.5" font-family="Helvetica,sans-Serif" font-size="10.00">/include/BipedalLocomotion</text>
<text text-anchor="start" x="8" y="-196.5" font-family="Helvetica,sans-Serif" font-size="10.00">/ContinuousDynamicalSystem</text>
<text text-anchor="middle" x="82" y="-185.5" font-family="Helvetica,sans-Serif" font-size="10.00">/FixedBaseDynamics.h</text>
</a>
</g>
</g>
<!-- Node1&#45;&gt;Node2 -->
<g id="edge1" class="edge">
<title>Node1&#45;&gt;Node2</title>
<path fill="none" stroke="midnightblue" d="M457.76,-280.38C381.09,-269.61 269.37,-252.29 173,-231 170.12,-230.36 167.19,-229.69 164.24,-228.99"/>
<polygon fill="midnightblue" stroke="midnightblue" points="457.48,-283.88 467.87,-281.79 458.45,-276.95 457.48,-283.88"/>
</g>
<!-- Node4 -->
<g id="node4" class="node">
<title>Node4</title>
<g id="a_node4"><a xlink:href="FloatingBaseDynamicsWithCompliantContacts_8h.html" target="_top" xlink:title=" ">
<polygon fill="none" stroke="black" points="182.5,-178.5 182.5,-230.5 439.5,-230.5 439.5,-178.5 182.5,-178.5"/>
<text text-anchor="start" x="190.5" y="-218.5" font-family="Helvetica,sans-Serif" font-size="10.00">ContinuousDynamicalSystem</text>
<text text-anchor="start" x="190.5" y="-207.5" font-family="Helvetica,sans-Serif" font-size="10.00">/include/BipedalLocomotion</text>
<text text-anchor="start" x="190.5" y="-196.5" font-family="Helvetica,sans-Serif" font-size="10.00">/ContinuousDynamicalSystem</text>
<text text-anchor="middle" x="311" y="-185.5" font-family="Helvetica,sans-Serif" font-size="10.00">/FloatingBaseDynamicsWithCompliantContacts.h</text>
</a>
</g>
</g>
<!-- Node1&#45;&gt;Node4 -->
<g id="edge3" class="edge">
<title>Node1&#45;&gt;Node4</title>
<path fill="none" stroke="midnightblue" d="M471.7,-264C442.02,-253.19 408.47,-240.98 379.74,-230.52"/>
<polygon fill="midnightblue" stroke="midnightblue" points="470.6,-267.32 481.19,-267.45 472.99,-260.74 470.6,-267.32"/>
</g>
<!-- Node6 -->
<g id="node6" class="node">
<title>Node6</title>
<g id="a_node6"><a xlink:href="FloatingBaseSystemKinematics_8h.html" target="_top" xlink:title=" ">
<polygon fill="none" stroke="black" points="458,-178.5 458,-230.5 642,-230.5 642,-178.5 458,-178.5"/>
<text text-anchor="start" x="466" y="-218.5" font-family="Helvetica,sans-Serif" font-size="10.00">ContinuousDynamicalSystem</text>
<text text-anchor="start" x="466" y="-207.5" font-family="Helvetica,sans-Serif" font-size="10.00">/include/BipedalLocomotion</text>
<text text-anchor="start" x="466" y="-196.5" font-family="Helvetica,sans-Serif" font-size="10.00">/ContinuousDynamicalSystem</text>
<text text-anchor="middle" x="550" y="-185.5" font-family="Helvetica,sans-Serif" font-size="10.00">/FloatingBaseSystemKinematics.h</text>
</a>
</g>
</g>
<!-- Node1&#45;&gt;Node6 -->
<g id="edge5" class="edge">
<title>Node1&#45;&gt;Node6</title>
<path fill="none" stroke="midnightblue" d="M550,-257.19C550,-248.28 550,-238.9 550,-230.61"/>
<polygon fill="midnightblue" stroke="midnightblue" points="546.5,-257.34 550,-267.34 553.5,-257.34 546.5,-257.34"/>
</g>
<!-- Node8 -->
<g id="node8" class="node">
<title>Node8</title>
<g id="a_node8"><a xlink:href="Integrator_8h.html" target="_top" xlink:title=" ">
<polygon fill="none" stroke="black" points="665,-178.5 665,-230.5 829,-230.5 829,-178.5 665,-178.5"/>
<text text-anchor="start" x="673" y="-218.5" font-family="Helvetica,sans-Serif" font-size="10.00">ContinuousDynamicalSystem</text>
<text text-anchor="start" x="673" y="-207.5" font-family="Helvetica,sans-Serif" font-size="10.00">/include/BipedalLocomotion</text>
<text text-anchor="start" x="673" y="-196.5" font-family="Helvetica,sans-Serif" font-size="10.00">/ContinuousDynamicalSystem</text>
<text text-anchor="middle" x="747" y="-185.5" font-family="Helvetica,sans-Serif" font-size="10.00">/Integrator.h</text>
</a>
</g>
</g>
<!-- Node1&#45;&gt;Node8 -->
<g id="edge7" class="edge">
<title>Node1&#45;&gt;Node8</title>
<path fill="none" stroke="midnightblue" d="M616.13,-263.29C640.2,-252.67 667.17,-240.76 690.34,-230.52"/>
<polygon fill="midnightblue" stroke="midnightblue" points="614.45,-260.21 606.72,-267.45 617.28,-266.61 614.45,-260.21"/>
</g>
<!-- Node11 -->
<g id="node11" class="node">
<title>Node11</title>
<g id="a_node11"><a xlink:href="LinearTimeInvariantSystem_8h.html" target="_top" xlink:title=" ">
<polygon fill="none" stroke="black" points="854,-178.5 854,-230.5 1018,-230.5 1018,-178.5 854,-178.5"/>
<text text-anchor="start" x="862" y="-218.5" font-family="Helvetica,sans-Serif" font-size="10.00">ContinuousDynamicalSystem</text>
<text text-anchor="start" x="862" y="-207.5" font-family="Helvetica,sans-Serif" font-size="10.00">/include/BipedalLocomotion</text>
<text text-anchor="start" x="862" y="-196.5" font-family="Helvetica,sans-Serif" font-size="10.00">/ContinuousDynamicalSystem</text>
<text text-anchor="middle" x="936" y="-185.5" font-family="Helvetica,sans-Serif" font-size="10.00">/LinearTimeInvariantSystem.h</text>
</a>
</g>
</g>
<!-- Node1&#45;&gt;Node11 -->
<g id="edge10" class="edge">
<title>Node1&#45;&gt;Node11</title>
<path fill="none" stroke="midnightblue" d="M642.16,-273.9C698.79,-262.2 772.76,-246.45 838,-231 843.22,-229.76 848.58,-228.46 853.99,-227.12"/>
<polygon fill="midnightblue" stroke="midnightblue" points="641.24,-270.52 632.15,-275.96 642.65,-277.37 641.24,-270.52"/>
</g>
<!-- Node3 -->
<g id="node3" class="node">
<title>Node3</title>
<g id="a_node3"><a xlink:href="FixedBaseDynamics_8cpp_source.html" target="_top" xlink:title=" ">
<polygon fill="none" stroke="black" points="1.5,-100.5 1.5,-130.5 162.5,-130.5 162.5,-100.5 1.5,-100.5"/>
<text text-anchor="start" x="9.5" y="-118.5" font-family="Helvetica,sans-Serif" font-size="10.00">ContinuousDynamicalSystem</text>
<text text-anchor="middle" x="82" y="-107.5" font-family="Helvetica,sans-Serif" font-size="10.00">/src/FixedBaseDynamics.cpp</text>
</a>
</g>
</g>
<!-- Node2&#45;&gt;Node3 -->
<g id="edge2" class="edge">
<title>Node2&#45;&gt;Node3</title>
<path fill="none" stroke="midnightblue" d="M82,-168.15C82,-155.05 82,-140.93 82,-130.77"/>
<polygon fill="midnightblue" stroke="midnightblue" points="78.5,-168.34 82,-178.34 85.5,-168.34 78.5,-168.34"/>
</g>
<!-- Node5 -->
<g id="node5" class="node">
<title>Node5</title>
<g id="a_node5"><a xlink:href="FloatingBaseDynamicsWithCompliantContacts_8cpp.html" target="_top" xlink:title=" ">
<polygon fill="none" stroke="black" points="197,-95 197,-136 419,-136 419,-95 197,-95"/>
<text text-anchor="start" x="205" y="-124" font-family="Helvetica,sans-Serif" font-size="10.00">ContinuousDynamicalSystem</text>
<text text-anchor="start" x="205" y="-113" font-family="Helvetica,sans-Serif" font-size="10.00">/src/FloatingBaseDynamicsWithCompliant</text>
<text text-anchor="middle" x="308" y="-102" font-family="Helvetica,sans-Serif" font-size="10.00">Contacts.cpp</text>
</a>
</g>
</g>
<!-- Node4&#45;&gt;Node5 -->
<g id="edge4" class="edge">
<title>Node4&#45;&gt;Node5</title>
<path fill="none" stroke="midnightblue" d="M309.78,-168.16C309.4,-157.21 309,-145.55 308.68,-136.08"/>
<polygon fill="midnightblue" stroke="midnightblue" points="306.29,-168.46 310.13,-178.34 313.29,-168.22 306.29,-168.46"/>
</g>
<!-- Node7 -->
<g id="node7" class="node">
<title>Node7</title>
<g id="a_node7"><a xlink:href="FloatingBaseSystemKinematics_8cpp.html" target="_top" xlink:title=" ">
<polygon fill="none" stroke="black" points="437,-100.5 437,-130.5 649,-130.5 649,-100.5 437,-100.5"/>
<text text-anchor="start" x="445" y="-118.5" font-family="Helvetica,sans-Serif" font-size="10.00">ContinuousDynamicalSystem</text>
<text text-anchor="middle" x="543" y="-107.5" font-family="Helvetica,sans-Serif" font-size="10.00">/src/FloatingBaseSystemKinematics.cpp</text>
</a>
</g>
</g>
<!-- Node6&#45;&gt;Node7 -->
<g id="edge6" class="edge">
<title>Node6&#45;&gt;Node7</title>
<path fill="none" stroke="midnightblue" d="M547.16,-168.15C546.1,-155.05 544.97,-140.93 544.15,-130.77"/>
<polygon fill="midnightblue" stroke="midnightblue" points="543.68,-168.65 547.98,-178.34 550.66,-168.09 543.68,-168.65"/>
</g>
<!-- Node9 -->
<g id="node9" class="node">
<title>Node9</title>
<g id="a_node9"><a xlink:href="FixedStepIntegrator_8h.html" target="_top" xlink:title=" ">
<polygon fill="none" stroke="black" points="667,-89.5 667,-141.5 831,-141.5 831,-89.5 667,-89.5"/>
<text text-anchor="start" x="675" y="-129.5" font-family="Helvetica,sans-Serif" font-size="10.00">ContinuousDynamicalSystem</text>
<text text-anchor="start" x="675" y="-118.5" font-family="Helvetica,sans-Serif" font-size="10.00">/include/BipedalLocomotion</text>
<text text-anchor="start" x="675" y="-107.5" font-family="Helvetica,sans-Serif" font-size="10.00">/ContinuousDynamicalSystem</text>
<text text-anchor="middle" x="749" y="-96.5" font-family="Helvetica,sans-Serif" font-size="10.00">/FixedStepIntegrator.h</text>
</a>
</g>
</g>
<!-- Node8&#45;&gt;Node9 -->
<g id="edge8" class="edge">
<title>Node8&#45;&gt;Node9</title>
<path fill="none" stroke="midnightblue" d="M747.81,-168.19C748.02,-159.28 748.23,-149.9 748.42,-141.61"/>
<polygon fill="midnightblue" stroke="midnightblue" points="744.31,-168.26 747.58,-178.34 751.31,-168.42 744.31,-168.26"/>
</g>
<!-- Node10 -->
<g id="node10" class="node">
<title>Node10</title>
<g id="a_node10"><a xlink:href="ForwardEuler_8h.html" target="_top" xlink:title=" ">
<polygon fill="none" stroke="black" points="667,-0.5 667,-52.5 831,-52.5 831,-0.5 667,-0.5"/>
<text text-anchor="start" x="675" y="-40.5" font-family="Helvetica,sans-Serif" font-size="10.00">ContinuousDynamicalSystem</text>
<text text-anchor="start" x="675" y="-29.5" font-family="Helvetica,sans-Serif" font-size="10.00">/include/BipedalLocomotion</text>
<text text-anchor="start" x="675" y="-18.5" font-family="Helvetica,sans-Serif" font-size="10.00">/ContinuousDynamicalSystem</text>
<text text-anchor="middle" x="749" y="-7.5" font-family="Helvetica,sans-Serif" font-size="10.00">/ForwardEuler.h</text>
</a>
</g>
</g>
<!-- Node9&#45;&gt;Node10 -->
<g id="edge9" class="edge">
<title>Node9&#45;&gt;Node10</title>
<path fill="none" stroke="midnightblue" d="M749,-79.19C749,-70.28 749,-60.9 749,-52.61"/>
<polygon fill="midnightblue" stroke="midnightblue" points="745.5,-79.34 749,-89.34 752.5,-79.34 745.5,-79.34"/>
</g>
<!-- Node12 -->
<g id="node12" class="node">
<title>Node12</title>
<g id="a_node12"><a xlink:href="LinearTimeInvariantSystem_8cpp.html" target="_top" xlink:title=" ">
<polygon fill="none" stroke="black" points="849,-100.5 849,-130.5 1041,-130.5 1041,-100.5 849,-100.5"/>
<text text-anchor="start" x="857" y="-118.5" font-family="Helvetica,sans-Serif" font-size="10.00">ContinuousDynamicalSystem</text>
<text text-anchor="middle" x="945" y="-107.5" font-family="Helvetica,sans-Serif" font-size="10.00">/src/LinearTimeInvariantSystem.cpp</text>
</a>
</g>
</g>
<!-- Node11&#45;&gt;Node12 -->
<g id="edge11" class="edge">
<title>Node11&#45;&gt;Node12</title>
<path fill="none" stroke="midnightblue" d="M939.66,-168.15C941.01,-155.05 942.47,-140.93 943.52,-130.77"/>
<polygon fill="midnightblue" stroke="midnightblue" points="936.15,-168.03 938.6,-178.34 943.11,-168.75 936.15,-168.03"/>
</g>
</g>
</svg>
        <g id="navigator" transform="translate(0 0)" fill="#404254">
                <rect fill="#f2f5e9" fill-opacity="0.5" stroke="#606060" stroke-width=".5" x="0" y="0" width="60" height="60"/>
                <use id="zoomplus" xlink:href="#zoomPlus" x="17" y="9" onmousedown="handleZoom(evt,'in')"/>
                <use id="zoomminus" xlink:href="#zoomMin" x="42" y="9" onmousedown="handleZoom(evt,'out')"/>
                <use id="reset" xlink:href="#resetDef" x="30" y="36" onmousedown="handleReset()"/>
                <g id="arrowUp" xlink:href="#dirArrow" transform="translate(30 24)" onmousedown="handlePan(0,-1)">
                  <use xlink:href="#rim" fill="#404040">
                        <set attributeName="fill" to="#808080" begin="arrowUp.mouseover" end="arrowUp.mouseout"/>
                  </use>
                  <path fill="none" stroke="white" stroke-width="1.5" d="M0,-3.0v7 M-2.5,-0.5L0,-3.0L2.5,-0.5"/>
                </g>
                <g id="arrowRight" xlink:href="#dirArrow" transform="rotate(90) translate(36 -43)" onmousedown="handlePan(1,0)">
                  <use xlink:href="#rim" fill="#404040">
                        <set attributeName="fill" to="#808080" begin="arrowRight.mouseover" end="arrowRight.mouseout"/>
                  </use>
                  <path fill="none" stroke="white" stroke-width="1.5" d="M0,-3.0v7 M-2.5,-0.5L0,-3.0L2.5,-0.5"/>
                </g>
                <g id="arrowDown" xlink:href="#dirArrow" transform="rotate(180) translate(-30 -48)" onmousedown="handlePan(0,1)">
                  <use xlink:href="#rim" fill="#404040">
                        <set attributeName="fill" to="#808080" begin="arrowDown.mouseover" end="arrowDown.mouseout"/>
                  </use>
                  <path fill="none" stroke="white" stroke-width="1.5" d="M0,-3.0v7 M-2.5,-0.5L0,-3.0L2.5,-0.5"/>
                </g>
                <g id="arrowLeft" xlink:href="#dirArrow" transform="rotate(270) translate(-36 17)" onmousedown="handlePan(-1,0)">
                  <use xlink:href="#rim" fill="#404040">
                        <set attributeName="fill" to="#808080" begin="arrowLeft.mouseover" end="arrowLeft.mouseout"/>
                  </use>
                  <path fill="none" stroke="white" stroke-width="1.5" d="M0,-3.0v7 M-2.5,-0.5L0,-3.0L2.5,-0.5"/>
                </g>
        </g>
        <svg viewBox="0 0 15 15" width="100%" height="30px" preserveAspectRatio="xMaxYMin meet">
         <g id="arrow_out" transform="scale(0.3 0.3)">
          <a xlink:href="DynamicalSystem_8h__dep__incl_org.svg" target="_base">
           <rect id="button" ry="5" rx="5" y="6" x="6" height="38" width="38"
                fill="#f2f5e9" fill-opacity="0.5" stroke="#606060" stroke-width="1.0"/>
           <path id="arrow"
             d="M 11.500037,31.436501 C 11.940474,20.09759 22.043105,11.32322 32.158766,21.979434 L 37.068811,17.246167 C 37.068811,17.246167 37.088388,32 37.088388,32 L 22.160133,31.978069 C 22.160133,31.978069 26.997745,27.140456 26.997745,27.140456 C 18.528582,18.264221 13.291696,25.230495 11.500037,31.436501 z"
             style="fill:#404040;"/>
          </a>
         </g>
        </svg>
</svg>
