<?xml version="1.0" encoding="UTF-8" standalone="no"?>
<!DOCTYPE svg PUBLIC "-//W3C//DTD SVG 1.1//EN"
 "http://www.w3.org/Graphics/SVG/1.1/DTD/svg11.dtd">
<!-- Generated by graphviz version 2.43.0 (0)
 -->
<!-- Title: Contacts/src/FixedFootDetector.cpp Pages: 1 -->
<!--zoomable 553 -->
<svg id="main" version="1.1" xmlns="http://www.w3.org/2000/svg" xmlns:xlink="http://www.w3.org/1999/xlink" xml:space="preserve" onload="init(evt)">
<style type="text/css"><![CDATA[
.edge:hover path { stroke: red; }
.edge:hover polygon { stroke: red; fill: red; }
]]></style>
<script type="text/javascript"><![CDATA[
var edges = document.getElementsByTagName('g');
if (edges && edges.length) {
  for (var i=0;i<edges.length;i++) {
    if (edges[i].id.substr(0,4)=='edge') {
      edges[i].setAttribute('class','edge');
    }
  }
}
]]></script>
        <defs>
                <circle id="rim" cx="0" cy="0" r="7"/>
                <circle id="rim2" cx="0" cy="0" r="3.5"/>
                <g id="zoomPlus">
                        <use xlink:href="#rim" fill="#404040">
                                <set attributeName="fill" to="#808080" begin="zoomplus.mouseover" end="zoomplus.mouseout"/>
                        </use>
                        <path d="M-4,0h8M0,-4v8" fill="none" stroke="white" stroke-width="1.5" pointer-events="none"/>
                </g>
                <g id="zoomMin">
                        <use xlink:href="#rim" fill="#404040">
                                <set attributeName="fill" to="#808080" begin="zoomminus.mouseover" end="zoomminus.mouseout"/>
                        </use>
                        <path d="M-4,0h8" fill="none" stroke="white" stroke-width="1.5" pointer-events="none"/>
                </g>
                <g id="dirArrow">
                        <path fill="none" stroke="white" stroke-width="1.5" d="M0,-3.0v7 M-2.5,-0.5L0,-3.0L2.5,-0.5"/>
                </g>
               <g id="resetDef">
                       <use xlink:href="#rim2" fill="#404040">
                               <set attributeName="fill" to="#808080" begin="reset.mouseover" end="reset.mouseout"/>
                       </use>
               </g>
        </defs>

<script type="text/javascript">
var viewWidth = 1050;
var viewHeight = 553;
var sectionId = 'dynsection-0';
</script>
<script xlink:href="svgpan.js"/>
<svg id="graph" class="graph">
<g id="viewport">
<title>Contacts/src/FixedFootDetector.cpp</title>
<!-- Node1 -->
<g id="node1" class="node">
<title>Node1</title>
<g id="a_node1"><a xlink:title=" ">
<polygon fill="#bfbfbf" stroke="black" points="398,-525.5 398,-544.5 586,-544.5 586,-525.5 398,-525.5"/>
<text text-anchor="middle" x="492" y="-532.5" font-family="Helvetica,sans-Serif" font-size="10.00">Contacts/src/FixedFootDetector.cpp</text>
</a>
</g>
</g>
<!-- Node2 -->
<g id="node2" class="node">
<title>Node2</title>
<g id="a_node2"><a xlink:href="FixedFootDetector_8h.html" target="_top" xlink:title=" ">
<polygon fill="none" stroke="black" points="410,-458.5 410,-488.5 574,-488.5 574,-458.5 410,-458.5"/>
<text text-anchor="start" x="418" y="-476.5" font-family="Helvetica,sans-Serif" font-size="10.00">BipedalLocomotion/Contact</text>
<text text-anchor="middle" x="492" y="-465.5" font-family="Helvetica,sans-Serif" font-size="10.00">Detectors/FixedFootDetector.h</text>
</a>
</g>
</g>
<!-- Node1&#45;&gt;Node2 -->
<g id="edge1" class="edge">
<title>Node1&#45;&gt;Node2</title>
<path fill="none" stroke="midnightblue" d="M492,-525.48C492,-518.47 492,-508.19 492,-498.7"/>
<polygon fill="midnightblue" stroke="midnightblue" points="495.5,-498.52 492,-488.52 488.5,-498.52 495.5,-498.52"/>
</g>
<!-- Node10 -->
<g id="node10" class="node">
<title>Node10</title>
<g id="a_node10"><a xlink:href="IParametersHandler_8h.html" target="_top" xlink:title=" ">
<polygon fill="none" stroke="black" points="197.5,-190.5 197.5,-220.5 366.5,-220.5 366.5,-190.5 197.5,-190.5"/>
<text text-anchor="start" x="205.5" y="-208.5" font-family="Helvetica,sans-Serif" font-size="10.00">BipedalLocomotion/Parameters</text>
<text text-anchor="middle" x="282" y="-197.5" font-family="Helvetica,sans-Serif" font-size="10.00">Handler/IParametersHandler.h</text>
</a>
</g>
</g>
<!-- Node1&#45;&gt;Node10 -->
<g id="edge50" class="edge">
<title>Node1&#45;&gt;Node10</title>
<path fill="none" stroke="midnightblue" d="M406.65,-525.45C334.91,-512.99 244,-482.42 244,-407.5 244,-407.5 244,-407.5 244,-338.5 244,-299.34 259.63,-256.11 270.85,-230.14"/>
<polygon fill="midnightblue" stroke="midnightblue" points="274.15,-231.32 275.03,-220.76 267.76,-228.47 274.15,-231.32"/>
</g>
<!-- Node11 -->
<g id="node11" class="node">
<title>Node11</title>
<g id="a_node11"><a xlink:title=" ">
<polygon fill="none" stroke="#bfbfbf" points="13,-62 13,-81 71,-81 71,-62 13,-62"/>
<text text-anchor="middle" x="42" y="-69" font-family="Helvetica,sans-Serif" font-size="10.00">memory</text>
</a>
</g>
</g>
<!-- Node1&#45;&gt;Node11 -->
<g id="edge54" class="edge">
<title>Node1&#45;&gt;Node11</title>
<path fill="none" stroke="midnightblue" d="M397.72,-528.91C254.86,-518.57 0,-488.75 0,-407.5 0,-407.5 0,-407.5 0,-204.5 0,-161.8 20.2,-114.84 32.58,-90.07"/>
<polygon fill="midnightblue" stroke="midnightblue" points="35.7,-91.65 37.18,-81.16 29.48,-88.44 35.7,-91.65"/>
</g>
<!-- Node26 -->
<g id="node26" class="node">
<title>Node26</title>
<g id="a_node26"><a xlink:href="ContactPhaseList_8h_source.html" target="_top" xlink:title=" ">
<polygon fill="none" stroke="black" points="630,-391.5 630,-421.5 786,-421.5 786,-391.5 630,-391.5"/>
<text text-anchor="start" x="638" y="-409.5" font-family="Helvetica,sans-Serif" font-size="10.00">BipedalLocomotion/Contacts</text>
<text text-anchor="middle" x="708" y="-398.5" font-family="Helvetica,sans-Serif" font-size="10.00">/ContactPhaseList.h</text>
</a>
</g>
</g>
<!-- Node1&#45;&gt;Node26 -->
<g id="edge49" class="edge">
<title>Node1&#45;&gt;Node26</title>
<path fill="none" stroke="midnightblue" d="M510.81,-525.5C529.45,-516.88 558.66,-502.89 583,-489 617.22,-469.48 654.89,-444.39 679.84,-427.24"/>
<polygon fill="midnightblue" stroke="midnightblue" points="681.87,-430.09 688.11,-421.52 677.89,-424.33 681.87,-430.09"/>
</g>
<!-- Node32 -->
<g id="node32" class="node">
<title>Node32</title>
<g id="a_node32"><a xlink:href="Logger_8h.html" target="_top" xlink:title=" ">
<polygon fill="none" stroke="black" points="768,-458.5 768,-488.5 940,-488.5 940,-458.5 768,-458.5"/>
<text text-anchor="start" x="776" y="-476.5" font-family="Helvetica,sans-Serif" font-size="10.00">BipedalLocomotion/TextLogging</text>
<text text-anchor="middle" x="854" y="-465.5" font-family="Helvetica,sans-Serif" font-size="10.00">/Logger.h</text>
</a>
</g>
</g>
<!-- Node1&#45;&gt;Node32 -->
<g id="edge51" class="edge">
<title>Node1&#45;&gt;Node32</title>
<path fill="none" stroke="midnightblue" d="M543.87,-525.48C599.77,-516.29 689.96,-501.46 758.7,-490.16"/>
<polygon fill="midnightblue" stroke="midnightblue" points="759.38,-493.6 768.68,-488.52 758.25,-486.69 759.38,-493.6"/>
</g>
<!-- Node3 -->
<g id="node3" class="node">
<title>Node3</title>
<g id="a_node3"><a xlink:href="ContactDetector_8h.html" target="_top" xlink:title=" ">
<polygon fill="none" stroke="black" points="414.5,-391.5 414.5,-421.5 569.5,-421.5 569.5,-391.5 414.5,-391.5"/>
<text text-anchor="start" x="422.5" y="-409.5" font-family="Helvetica,sans-Serif" font-size="10.00">BipedalLocomotion/Contact</text>
<text text-anchor="middle" x="492" y="-398.5" font-family="Helvetica,sans-Serif" font-size="10.00">Detectors/ContactDetector.h</text>
</a>
</g>
</g>
<!-- Node2&#45;&gt;Node3 -->
<g id="edge2" class="edge">
<title>Node2&#45;&gt;Node3</title>
<path fill="none" stroke="midnightblue" d="M492,-458.4C492,-450.64 492,-440.81 492,-431.86"/>
<polygon fill="midnightblue" stroke="midnightblue" points="495.5,-431.58 492,-421.58 488.5,-431.58 495.5,-431.58"/>
</g>
<!-- Node4 -->
<g id="node4" class="node">
<title>Node4</title>
<g id="a_node4"><a xlink:href="Contact_8h.html" target="_top" xlink:title=" ">
<polygon fill="none" stroke="black" points="584,-190.5 584,-220.5 740,-220.5 740,-190.5 584,-190.5"/>
<text text-anchor="start" x="592" y="-208.5" font-family="Helvetica,sans-Serif" font-size="10.00">BipedalLocomotion/Contacts</text>
<text text-anchor="middle" x="662" y="-197.5" font-family="Helvetica,sans-Serif" font-size="10.00">/Contact.h</text>
</a>
</g>
</g>
<!-- Node2&#45;&gt;Node4 -->
<g id="edge46" class="edge">
<title>Node2&#45;&gt;Node4</title>
<path fill="none" stroke="midnightblue" d="M527.19,-458.48C544.46,-450.1 564.41,-437.95 578,-422 627.36,-364.08 649.67,-273.82 657.93,-230.84"/>
<polygon fill="midnightblue" stroke="midnightblue" points="661.42,-231.21 659.78,-220.75 654.54,-229.95 661.42,-231.21"/>
</g>
<!-- Node2&#45;&gt;Node10 -->
<g id="edge47" class="edge">
<title>Node2&#45;&gt;Node10</title>
<path fill="none" stroke="midnightblue" d="M448.1,-458.49C403.04,-441.63 334.86,-408.67 301,-355 276.93,-316.85 276.76,-262.18 279.15,-230.92"/>
<polygon fill="midnightblue" stroke="midnightblue" points="282.64,-231.19 280.07,-220.91 275.67,-230.55 282.64,-231.19"/>
</g>
<!-- Node2&#45;&gt;Node11 -->
<g id="edge48" class="edge">
<title>Node2&#45;&gt;Node11</title>
<path fill="none" stroke="midnightblue" d="M409.78,-465.52C278.95,-452.12 38,-417.04 38,-340.5 38,-340.5 38,-340.5 38,-204.5 38,-164.14 39.89,-116.87 41.07,-91.28"/>
<polygon fill="midnightblue" stroke="midnightblue" points="44.58,-91.3 41.56,-81.15 37.58,-90.97 44.58,-91.3"/>
</g>
<!-- Node2&#45;&gt;Node26 -->
<g id="edge30" class="edge">
<title>Node2&#45;&gt;Node26</title>
<path fill="none" stroke="midnightblue" d="M538.6,-458.48C571.7,-448.51 616.33,-435.09 651.47,-424.51"/>
<polygon fill="midnightblue" stroke="midnightblue" points="652.54,-427.84 661.11,-421.61 650.52,-421.14 652.54,-427.84"/>
</g>
<!-- Node3&#45;&gt;Node4 -->
<g id="edge3" class="edge">
<title>Node3&#45;&gt;Node4</title>
<path fill="none" stroke="midnightblue" d="M498.85,-391.09C512.73,-362.93 546.42,-299.64 588,-257 599.47,-245.24 614.07,-234.59 627.27,-226.13"/>
<polygon fill="midnightblue" stroke="midnightblue" points="629.47,-228.88 636.13,-220.64 625.78,-222.93 629.47,-228.88"/>
</g>
<!-- Node3&#45;&gt;Node10 -->
<g id="edge10" class="edge">
<title>Node3&#45;&gt;Node10</title>
<path fill="none" stroke="midnightblue" d="M491.09,-391.47C489.33,-374.08 484.15,-344.25 469,-324 433.33,-276.34 372.15,-243.27 329.51,-224.62"/>
<polygon fill="midnightblue" stroke="midnightblue" points="330.75,-221.35 320.18,-220.64 328,-227.78 330.75,-221.35"/>
</g>
<!-- Node22 -->
<g id="node22" class="node">
<title>Node22</title>
<g id="a_node22"><a xlink:href="Source_8h.html" target="_top" xlink:title=" ">
<polygon fill="none" stroke="black" points="310,-324.5 310,-354.5 460,-354.5 460,-324.5 310,-324.5"/>
<text text-anchor="start" x="318" y="-342.5" font-family="Helvetica,sans-Serif" font-size="10.00">BipedalLocomotion/System</text>
<text text-anchor="middle" x="385" y="-331.5" font-family="Helvetica,sans-Serif" font-size="10.00">/Source.h</text>
</a>
</g>
</g>
<!-- Node3&#45;&gt;Node22 -->
<g id="edge25" class="edge">
<title>Node3&#45;&gt;Node22</title>
<path fill="none" stroke="midnightblue" d="M468.78,-391.4C453.64,-382.2 433.67,-370.07 417.03,-359.95"/>
<polygon fill="midnightblue" stroke="midnightblue" points="418.54,-356.78 408.17,-354.58 414.9,-362.76 418.54,-356.78"/>
</g>
<!-- Node25 -->
<g id="node25" class="node">
<title>Node25</title>
<g id="a_node25"><a xlink:title=" ">
<polygon fill="none" stroke="#bfbfbf" points="668.5,-263 668.5,-282 761.5,-282 761.5,-263 668.5,-263"/>
<text text-anchor="middle" x="715" y="-270" font-family="Helvetica,sans-Serif" font-size="10.00">unordered_map</text>
</a>
</g>
</g>
<!-- Node3&#45;&gt;Node25 -->
<g id="edge29" class="edge">
<title>Node3&#45;&gt;Node25</title>
<path fill="none" stroke="midnightblue" d="M515.86,-391.37C558.9,-365.9 649,-312.57 691.65,-287.32"/>
<polygon fill="midnightblue" stroke="midnightblue" points="693.65,-290.2 700.48,-282.1 690.09,-284.18 693.65,-290.2"/>
</g>
<!-- Node5 -->
<g id="node5" class="node">
<title>Node5</title>
<g id="a_node5"><a xlink:href="Wrench_8h.html" target="_top" xlink:title=" ">
<polygon fill="none" stroke="black" points="623,-123.5 623,-153.5 761,-153.5 761,-123.5 623,-123.5"/>
<text text-anchor="start" x="631" y="-141.5" font-family="Helvetica,sans-Serif" font-size="10.00">BipedalLocomotion/Math</text>
<text text-anchor="middle" x="692" y="-130.5" font-family="Helvetica,sans-Serif" font-size="10.00">/Wrench.h</text>
</a>
</g>
</g>
<!-- Node4&#45;&gt;Node5 -->
<g id="edge4" class="edge">
<title>Node4&#45;&gt;Node5</title>
<path fill="none" stroke="midnightblue" d="M668.51,-190.4C672.24,-182.3 677.03,-171.94 681.3,-162.69"/>
<polygon fill="midnightblue" stroke="midnightblue" points="684.49,-164.12 685.5,-153.58 678.13,-161.19 684.49,-164.12"/>
</g>
<!-- Node7 -->
<g id="node7" class="node">
<title>Node7</title>
<g id="a_node7"><a xlink:title=" ">
<polygon fill="none" stroke="#bfbfbf" points="555.5,-62 555.5,-81 630.5,-81 630.5,-62 555.5,-62"/>
<text text-anchor="middle" x="593" y="-69" font-family="Helvetica,sans-Serif" font-size="10.00">manif/SE3.h</text>
</a>
</g>
</g>
<!-- Node4&#45;&gt;Node7 -->
<g id="edge8" class="edge">
<title>Node4&#45;&gt;Node7</title>
<path fill="none" stroke="midnightblue" d="M644.57,-190.26C634.26,-180.96 621.74,-167.97 614,-154 603.07,-134.27 597.68,-108.7 595.13,-91.51"/>
<polygon fill="midnightblue" stroke="midnightblue" points="598.54,-90.58 593.78,-81.12 591.6,-91.48 598.54,-90.58"/>
</g>
<!-- Node9 -->
<g id="node9" class="node">
<title>Node9</title>
<g id="a_node9"><a xlink:title=" ">
<polygon fill="none" stroke="#bfbfbf" points="788,-129 788,-148 832,-148 832,-129 788,-129"/>
<text text-anchor="middle" x="810" y="-136" font-family="Helvetica,sans-Serif" font-size="10.00">string</text>
</a>
</g>
</g>
<!-- Node4&#45;&gt;Node9 -->
<g id="edge9" class="edge">
<title>Node4&#45;&gt;Node9</title>
<path fill="none" stroke="midnightblue" d="M694.11,-190.4C720.08,-178.99 756.31,-163.08 781.32,-152.1"/>
<polygon fill="midnightblue" stroke="midnightblue" points="782.88,-155.23 790.63,-148.01 780.07,-148.82 782.88,-155.23"/>
</g>
<!-- Node6 -->
<g id="node6" class="node">
<title>Node6</title>
<g id="a_node6"><a xlink:title=" ">
<polygon fill="none" stroke="#bfbfbf" points="731.5,-62 731.5,-81 808.5,-81 808.5,-62 731.5,-62"/>
<text text-anchor="middle" x="770" y="-69" font-family="Helvetica,sans-Serif" font-size="10.00">Eigen/Dense</text>
</a>
</g>
</g>
<!-- Node5&#45;&gt;Node6 -->
<g id="edge5" class="edge">
<title>Node5&#45;&gt;Node6</title>
<path fill="none" stroke="midnightblue" d="M708.92,-123.4C721.57,-112.86 738.83,-98.48 751.77,-87.69"/>
<polygon fill="midnightblue" stroke="midnightblue" points="754.12,-90.29 759.57,-81.19 749.64,-84.91 754.12,-90.29"/>
</g>
<!-- Node5&#45;&gt;Node7 -->
<g id="edge6" class="edge">
<title>Node5&#45;&gt;Node7</title>
<path fill="none" stroke="midnightblue" d="M670.52,-123.4C653.92,-112.5 631.04,-97.48 614.45,-86.58"/>
<polygon fill="midnightblue" stroke="midnightblue" points="616.24,-83.57 605.96,-81.01 612.4,-89.42 616.24,-83.57"/>
</g>
<!-- Node8 -->
<g id="node8" class="node">
<title>Node8</title>
<g id="a_node8"><a xlink:title=" ">
<polygon fill="none" stroke="#bfbfbf" points="826.5,-62 826.5,-81 903.5,-81 903.5,-62 826.5,-62"/>
<text text-anchor="middle" x="865" y="-69" font-family="Helvetica,sans-Serif" font-size="10.00">manif/SO3.h</text>
</a>
</g>
</g>
<!-- Node5&#45;&gt;Node8 -->
<g id="edge7" class="edge">
<title>Node5&#45;&gt;Node8</title>
<path fill="none" stroke="midnightblue" d="M729.54,-123.4C760.3,-111.84 803.37,-95.66 832.63,-84.66"/>
<polygon fill="midnightblue" stroke="midnightblue" points="834.23,-87.8 842.36,-81.01 831.77,-81.25 834.23,-87.8"/>
</g>
<!-- Node10&#45;&gt;Node9 -->
<g id="edge12" class="edge">
<title>Node10&#45;&gt;Node9</title>
<path fill="none" stroke="midnightblue" d="M366.78,-202C464.94,-197.67 630.94,-185.89 770,-154 773.24,-153.26 776.58,-152.33 779.88,-151.3"/>
<polygon fill="midnightblue" stroke="midnightblue" points="781.19,-154.55 789.53,-148.01 778.93,-147.92 781.19,-154.55"/>
</g>
<!-- Node10&#45;&gt;Node11 -->
<g id="edge11" class="edge">
<title>Node10&#45;&gt;Node11</title>
<path fill="none" stroke="midnightblue" d="M256.32,-190.37C209.8,-164.79 112.22,-111.12 66.55,-86"/>
<polygon fill="midnightblue" stroke="midnightblue" points="68.08,-82.85 57.63,-81.1 64.71,-88.98 68.08,-82.85"/>
</g>
<!-- Node12 -->
<g id="node12" class="node">
<title>Node12</title>
<g id="a_node12"><a xlink:title=" ">
<polygon fill="none" stroke="#bfbfbf" points="926.5,-129 926.5,-148 973.5,-148 973.5,-129 926.5,-129"/>
<text text-anchor="middle" x="950" y="-136" font-family="Helvetica,sans-Serif" font-size="10.00">vector</text>
</a>
</g>
</g>
<!-- Node10&#45;&gt;Node12 -->
<g id="edge13" class="edge">
<title>Node10&#45;&gt;Node12</title>
<path fill="none" stroke="midnightblue" d="M366.87,-197.95C476.51,-189.24 673.22,-172.73 841,-154 866.27,-151.18 894.76,-147.37 916.27,-144.36"/>
<polygon fill="midnightblue" stroke="midnightblue" points="916.81,-147.82 926.22,-142.96 915.83,-140.89 916.81,-147.82"/>
</g>
<!-- Node13 -->
<g id="node13" class="node">
<title>Node13</title>
<g id="a_node13"><a xlink:href="TemplateHelpers_8h_source.html" target="_top" xlink:title=" ">
<polygon fill="none" stroke="black" points="91,-56.5 91,-86.5 249,-86.5 249,-56.5 91,-56.5"/>
<text text-anchor="start" x="99" y="-74.5" font-family="Helvetica,sans-Serif" font-size="10.00">BipedalLocomotion/Generic</text>
<text text-anchor="middle" x="170" y="-63.5" font-family="Helvetica,sans-Serif" font-size="10.00">Container/TemplateHelpers.h</text>
</a>
</g>
</g>
<!-- Node10&#45;&gt;Node13 -->
<g id="edge14" class="edge">
<title>Node10&#45;&gt;Node13</title>
<path fill="none" stroke="midnightblue" d="M270.01,-190.37C250.48,-167.35 211.64,-121.57 188.53,-94.34"/>
<polygon fill="midnightblue" stroke="midnightblue" points="191.04,-91.89 181.9,-86.52 185.7,-96.41 191.04,-91.89"/>
</g>
<!-- Node17 -->
<g id="node17" class="node">
<title>Node17</title>
<g id="a_node17"><a xlink:href="Vector_8h_source.html" target="_top" xlink:title=" ">
<polygon fill="none" stroke="black" points="251.5,-123.5 251.5,-153.5 402.5,-153.5 402.5,-123.5 251.5,-123.5"/>
<text text-anchor="start" x="259.5" y="-141.5" font-family="Helvetica,sans-Serif" font-size="10.00">BipedalLocomotion/Generic</text>
<text text-anchor="middle" x="327" y="-130.5" font-family="Helvetica,sans-Serif" font-size="10.00">Container/Vector.h</text>
</a>
</g>
</g>
<!-- Node10&#45;&gt;Node17 -->
<g id="edge18" class="edge">
<title>Node10&#45;&gt;Node17</title>
<path fill="none" stroke="midnightblue" d="M291.76,-190.4C297.54,-182.05 304.99,-171.29 311.55,-161.81"/>
<polygon fill="midnightblue" stroke="midnightblue" points="314.44,-163.79 317.25,-153.58 308.68,-159.81 314.44,-163.79"/>
</g>
<!-- Node14 -->
<g id="node14" class="node">
<title>Node14</title>
<g id="a_node14"><a xlink:title=" ">
<polygon fill="none" stroke="#bfbfbf" points="46.5,-0.5 46.5,-19.5 115.5,-19.5 115.5,-0.5 46.5,-0.5"/>
<text text-anchor="middle" x="81" y="-7.5" font-family="Helvetica,sans-Serif" font-size="10.00">type_traits</text>
</a>
</g>
</g>
<!-- Node13&#45;&gt;Node14 -->
<g id="edge15" class="edge">
<title>Node13&#45;&gt;Node14</title>
<path fill="none" stroke="midnightblue" d="M148.91,-56.4C134.91,-47.04 116.59,-34.79 102.51,-25.38"/>
<polygon fill="midnightblue" stroke="midnightblue" points="104.21,-22.31 93.95,-19.66 100.32,-28.13 104.21,-22.31"/>
</g>
<!-- Node15 -->
<g id="node15" class="node">
<title>Node15</title>
<g id="a_node15"><a xlink:title=" ">
<polygon fill="none" stroke="#bfbfbf" points="133.5,-0.5 133.5,-19.5 206.5,-19.5 206.5,-0.5 133.5,-0.5"/>
<text text-anchor="middle" x="170" y="-7.5" font-family="Helvetica,sans-Serif" font-size="10.00">string_view</text>
</a>
</g>
</g>
<!-- Node13&#45;&gt;Node15 -->
<g id="edge16" class="edge">
<title>Node13&#45;&gt;Node15</title>
<path fill="none" stroke="midnightblue" d="M170,-56.4C170,-48.47 170,-38.46 170,-29.86"/>
<polygon fill="midnightblue" stroke="midnightblue" points="173.5,-29.66 170,-19.66 166.5,-29.66 173.5,-29.66"/>
</g>
<!-- Node16 -->
<g id="node16" class="node">
<title>Node16</title>
<g id="a_node16"><a xlink:title=" ">
<polygon fill="none" stroke="#bfbfbf" points="224.5,-0.5 224.5,-19.5 293.5,-19.5 293.5,-0.5 224.5,-0.5"/>
<text text-anchor="middle" x="259" y="-7.5" font-family="Helvetica,sans-Serif" font-size="10.00">Eigen/Core</text>
</a>
</g>
</g>
<!-- Node13&#45;&gt;Node16 -->
<g id="edge17" class="edge">
<title>Node13&#45;&gt;Node16</title>
<path fill="none" stroke="midnightblue" d="M191.09,-56.4C205.09,-47.04 223.41,-34.79 237.49,-25.38"/>
<polygon fill="midnightblue" stroke="midnightblue" points="239.68,-28.13 246.05,-19.66 235.79,-22.31 239.68,-28.13"/>
</g>
<!-- Node17&#45;&gt;Node11 -->
<g id="edge24" class="edge">
<title>Node17&#45;&gt;Node11</title>
<path fill="none" stroke="midnightblue" d="M251.26,-124.81C202.5,-115.93 138,-102.83 82,-87 79.2,-86.21 76.32,-85.32 73.44,-84.38"/>
<polygon fill="midnightblue" stroke="midnightblue" points="74.42,-81.01 63.82,-81.06 72.13,-87.63 74.42,-81.01"/>
</g>
<!-- Node17&#45;&gt;Node13 -->
<g id="edge20" class="edge">
<title>Node17&#45;&gt;Node13</title>
<path fill="none" stroke="midnightblue" d="M292.93,-123.4C269.58,-113.73 238.41,-100.82 213.3,-90.43"/>
<polygon fill="midnightblue" stroke="midnightblue" points="214.58,-87.17 204,-86.58 211.9,-93.64 214.58,-87.17"/>
</g>
<!-- Node18 -->
<g id="node18" class="node">
<title>Node18</title>
<g id="a_node18"><a xlink:title=" ">
<polygon fill="none" stroke="#bfbfbf" points="266.5,-62 266.5,-81 387.5,-81 387.5,-62 266.5,-62"/>
<text text-anchor="middle" x="327" y="-69" font-family="Helvetica,sans-Serif" font-size="10.00">iDynTree/Core/Span.h</text>
</a>
</g>
</g>
<!-- Node17&#45;&gt;Node18 -->
<g id="edge19" class="edge">
<title>Node17&#45;&gt;Node18</title>
<path fill="none" stroke="midnightblue" d="M327,-123.4C327,-114.06 327,-101.71 327,-91.52"/>
<polygon fill="midnightblue" stroke="midnightblue" points="330.5,-91.19 327,-81.19 323.5,-91.19 330.5,-91.19"/>
</g>
<!-- Node19 -->
<g id="node19" class="node">
<title>Node19</title>
<g id="a_node19"><a xlink:title=" ">
<polygon fill="none" stroke="#bfbfbf" points="648.5,-62 648.5,-81 713.5,-81 713.5,-62 648.5,-62"/>
<text text-anchor="middle" x="681" y="-69" font-family="Helvetica,sans-Serif" font-size="10.00">functional</text>
</a>
</g>
</g>
<!-- Node17&#45;&gt;Node19 -->
<g id="edge21" class="edge">
<title>Node17&#45;&gt;Node19</title>
<path fill="none" stroke="midnightblue" d="M402.76,-128.94C466.4,-120.87 559.45,-107.01 639,-87 642.22,-86.19 645.54,-85.24 648.84,-84.23"/>
<polygon fill="midnightblue" stroke="midnightblue" points="650.13,-87.49 658.55,-81.05 647.95,-80.84 650.13,-87.49"/>
</g>
<!-- Node20 -->
<g id="node20" class="node">
<title>Node20</title>
<g id="a_node20"><a xlink:title=" ">
<polygon fill="none" stroke="#bfbfbf" points="406,-62 406,-81 458,-81 458,-62 406,-62"/>
<text text-anchor="middle" x="432" y="-69" font-family="Helvetica,sans-Serif" font-size="10.00">cassert</text>
</a>
</g>
</g>
<!-- Node17&#45;&gt;Node20 -->
<g id="edge22" class="edge">
<title>Node17&#45;&gt;Node20</title>
<path fill="none" stroke="midnightblue" d="M349.78,-123.4C367.55,-112.39 392.1,-97.2 409.74,-86.28"/>
<polygon fill="midnightblue" stroke="midnightblue" points="411.6,-89.25 418.26,-81.01 407.91,-83.29 411.6,-89.25"/>
</g>
<!-- Node21 -->
<g id="node21" class="node">
<title>Node21</title>
<g id="a_node21"><a xlink:title=" ">
<polygon fill="none" stroke="#bfbfbf" points="476,-62 476,-81 536,-81 536,-62 476,-62"/>
<text text-anchor="middle" x="506" y="-69" font-family="Helvetica,sans-Serif" font-size="10.00">iostream</text>
</a>
</g>
</g>
<!-- Node17&#45;&gt;Node21 -->
<g id="edge23" class="edge">
<title>Node17&#45;&gt;Node21</title>
<path fill="none" stroke="midnightblue" d="M366.26,-123.45C394.35,-113.38 433.03,-99.44 467,-87 469.09,-86.23 471.25,-85.44 473.42,-84.64"/>
<polygon fill="midnightblue" stroke="midnightblue" points="474.75,-87.88 482.92,-81.12 472.32,-81.31 474.75,-87.88"/>
</g>
<!-- Node23 -->
<g id="node23" class="node">
<title>Node23</title>
<g id="a_node23"><a xlink:href="Advanceable_8h.html" target="_top" xlink:title=" ">
<polygon fill="none" stroke="black" points="66,-257.5 66,-287.5 216,-287.5 216,-257.5 66,-257.5"/>
<text text-anchor="start" x="74" y="-275.5" font-family="Helvetica,sans-Serif" font-size="10.00">BipedalLocomotion/System</text>
<text text-anchor="middle" x="141" y="-264.5" font-family="Helvetica,sans-Serif" font-size="10.00">/Advanceable.h</text>
</a>
</g>
</g>
<!-- Node22&#45;&gt;Node23 -->
<g id="edge26" class="edge">
<title>Node22&#45;&gt;Node23</title>
<path fill="none" stroke="midnightblue" d="M332.36,-324.48C294.64,-314.43 243.69,-300.86 203.85,-290.24"/>
<polygon fill="midnightblue" stroke="midnightblue" points="204.53,-286.8 193.97,-287.61 202.73,-293.57 204.53,-286.8"/>
</g>
<!-- Node23&#45;&gt;Node10 -->
<g id="edge28" class="edge">
<title>Node23&#45;&gt;Node10</title>
<path fill="none" stroke="midnightblue" d="M171.59,-257.4C192.29,-247.86 219.82,-235.16 242.22,-224.84"/>
<polygon fill="midnightblue" stroke="midnightblue" points="243.85,-227.94 251.46,-220.58 240.92,-221.58 243.85,-227.94"/>
</g>
<!-- Node24 -->
<g id="node24" class="node">
<title>Node24</title>
<g id="a_node24"><a xlink:title=" ">
<polygon fill="none" stroke="#bfbfbf" points="115.5,-196 115.5,-215 166.5,-215 166.5,-196 115.5,-196"/>
<text text-anchor="middle" x="141" y="-203" font-family="Helvetica,sans-Serif" font-size="10.00">variant</text>
</a>
</g>
</g>
<!-- Node23&#45;&gt;Node24 -->
<g id="edge27" class="edge">
<title>Node23&#45;&gt;Node24</title>
<path fill="none" stroke="midnightblue" d="M141,-257.4C141,-248.06 141,-235.71 141,-225.52"/>
<polygon fill="midnightblue" stroke="midnightblue" points="144.5,-225.19 141,-215.19 137.5,-225.19 144.5,-225.19"/>
</g>
<!-- Node26&#45;&gt;Node4 -->
<g id="edge31" class="edge">
<title>Node26&#45;&gt;Node4</title>
<path fill="none" stroke="midnightblue" d="M699.87,-391.25C688.1,-369.72 666.85,-327.23 659,-288 655.21,-269.05 656.31,-247.14 658.17,-230.81"/>
<polygon fill="midnightblue" stroke="midnightblue" points="661.69,-230.87 659.53,-220.5 654.75,-229.96 661.69,-230.87"/>
</g>
<!-- Node26&#45;&gt;Node12 -->
<g id="edge45" class="edge">
<title>Node26&#45;&gt;Node12</title>
<path fill="none" stroke="midnightblue" d="M786.26,-392.32C867.97,-378.43 984.91,-358.12 989,-355 1048.4,-309.7 1055.25,-256.39 1021,-190 1012.44,-173.41 995.64,-161.08 980.53,-152.76"/>
<polygon fill="midnightblue" stroke="midnightblue" points="981.92,-149.54 971.43,-148.09 978.73,-155.77 981.92,-149.54"/>
</g>
<!-- Node26&#45;&gt;Node25 -->
<g id="edge43" class="edge">
<title>Node26&#45;&gt;Node25</title>
<path fill="none" stroke="midnightblue" d="M703.46,-391.32C698.86,-375.02 692.94,-347.5 697,-324 698.91,-312.94 703.02,-301.09 706.83,-291.65"/>
<polygon fill="midnightblue" stroke="midnightblue" points="710.16,-292.76 710.87,-282.19 703.72,-290.01 710.16,-292.76"/>
</g>
<!-- Node27 -->
<g id="node27" class="node">
<title>Node27</title>
<g id="a_node27"><a xlink:href="ContactList_8h.html" target="_top" xlink:title=" ">
<polygon fill="none" stroke="black" points="856,-257.5 856,-287.5 1012,-287.5 1012,-257.5 856,-257.5"/>
<text text-anchor="start" x="864" y="-275.5" font-family="Helvetica,sans-Serif" font-size="10.00">BipedalLocomotion/Contacts</text>
<text text-anchor="middle" x="934" y="-264.5" font-family="Helvetica,sans-Serif" font-size="10.00">/ContactList.h</text>
</a>
</g>
</g>
<!-- Node26&#45;&gt;Node27 -->
<g id="edge32" class="edge">
<title>Node26&#45;&gt;Node27</title>
<path fill="none" stroke="midnightblue" d="M786.3,-391.8C863.36,-378.14 969.96,-358.68 973,-355 987.83,-337.08 972.39,-312.57 956.78,-295.12"/>
<polygon fill="midnightblue" stroke="midnightblue" points="959.12,-292.51 949.7,-287.65 954.04,-297.32 959.12,-292.51"/>
</g>
<!-- Node30 -->
<g id="node30" class="node">
<title>Node30</title>
<g id="a_node30"><a xlink:href="ContactPhase_8h.html" target="_top" xlink:title=" ">
<polygon fill="none" stroke="black" points="808,-324.5 808,-354.5 964,-354.5 964,-324.5 808,-324.5"/>
<text text-anchor="start" x="816" y="-342.5" font-family="Helvetica,sans-Serif" font-size="10.00">BipedalLocomotion/Contacts</text>
<text text-anchor="middle" x="886" y="-331.5" font-family="Helvetica,sans-Serif" font-size="10.00">/ContactPhase.h</text>
</a>
</g>
</g>
<!-- Node26&#45;&gt;Node30 -->
<g id="edge38" class="edge">
<title>Node26&#45;&gt;Node30</title>
<path fill="none" stroke="midnightblue" d="M746.62,-391.4C773.45,-381.6 809.38,-368.48 838.03,-358.02"/>
<polygon fill="midnightblue" stroke="midnightblue" points="839.26,-361.29 847.45,-354.58 836.86,-354.72 839.26,-361.29"/>
</g>
<!-- Node31 -->
<g id="node31" class="node">
<title>Node31</title>
<g id="a_node31"><a xlink:title=" ">
<polygon fill="none" stroke="#bfbfbf" points="706.5,-330 706.5,-349 789.5,-349 789.5,-330 706.5,-330"/>
<text text-anchor="middle" x="748" y="-337" font-family="Helvetica,sans-Serif" font-size="10.00">initializer_list</text>
</a>
</g>
</g>
<!-- Node26&#45;&gt;Node31 -->
<g id="edge44" class="edge">
<title>Node26&#45;&gt;Node31</title>
<path fill="none" stroke="midnightblue" d="M716.68,-391.4C722.73,-381.56 730.84,-368.38 737.3,-357.89"/>
<polygon fill="midnightblue" stroke="midnightblue" points="740.39,-359.55 742.65,-349.19 734.43,-355.88 740.39,-359.55"/>
</g>
<!-- Node27&#45;&gt;Node4 -->
<g id="edge33" class="edge">
<title>Node27&#45;&gt;Node4</title>
<path fill="none" stroke="midnightblue" d="M875.31,-257.48C832.92,-247.34 775.51,-233.63 730.93,-222.97"/>
<polygon fill="midnightblue" stroke="midnightblue" points="731.59,-219.53 721.05,-220.61 729.96,-226.34 731.59,-219.53"/>
</g>
<!-- Node27&#45;&gt;Node9 -->
<g id="edge36" class="edge">
<title>Node27&#45;&gt;Node9</title>
<path fill="none" stroke="midnightblue" d="M912.47,-257.5C898.89,-248.09 881.43,-234.91 868,-221 848.84,-201.16 831.13,-174.57 820.44,-157.24"/>
<polygon fill="midnightblue" stroke="midnightblue" points="823.17,-154.98 815.01,-148.23 817.17,-158.6 823.17,-154.98"/>
</g>
<!-- Node27&#45;&gt;Node19 -->
<g id="edge37" class="edge">
<title>Node27&#45;&gt;Node19</title>
<path fill="none" stroke="midnightblue" d="M976.81,-257.42C993.69,-249.52 1011.33,-237.8 1021,-221 1044.31,-180.52 1021.66,-149.22 983,-123 886.09,-57.27 835.78,-114.66 722,-87 718.77,-86.22 715.44,-85.27 712.14,-84.25"/>
<polygon fill="midnightblue" stroke="midnightblue" points="713.05,-80.86 702.46,-81.01 710.83,-87.5 713.05,-80.86"/>
</g>
<!-- Node28 -->
<g id="node28" class="node">
<title>Node28</title>
<g id="a_node28"><a xlink:title=" ">
<polygon fill="none" stroke="#bfbfbf" points="876.5,-196 876.5,-215 961.5,-215 961.5,-196 876.5,-196"/>
<text text-anchor="middle" x="919" y="-203" font-family="Helvetica,sans-Serif" font-size="10.00">manif/manif.h</text>
</a>
</g>
</g>
<!-- Node27&#45;&gt;Node28 -->
<g id="edge34" class="edge">
<title>Node27&#45;&gt;Node28</title>
<path fill="none" stroke="midnightblue" d="M930.75,-257.4C928.57,-247.96 925.68,-235.45 923.31,-225.19"/>
<polygon fill="midnightblue" stroke="midnightblue" points="926.67,-224.15 921.01,-215.19 919.84,-225.73 926.67,-224.15"/>
</g>
<!-- Node29 -->
<g id="node29" class="node">
<title>Node29</title>
<g id="a_node29"><a xlink:title=" ">
<polygon fill="none" stroke="#bfbfbf" points="980,-196 980,-215 1012,-215 1012,-196 980,-196"/>
<text text-anchor="middle" x="996" y="-203" font-family="Helvetica,sans-Serif" font-size="10.00">set</text>
</a>
</g>
</g>
<!-- Node27&#45;&gt;Node29 -->
<g id="edge35" class="edge">
<title>Node27&#45;&gt;Node29</title>
<path fill="none" stroke="midnightblue" d="M947.45,-257.4C957.22,-247.16 970.44,-233.3 980.62,-222.62"/>
<polygon fill="midnightblue" stroke="midnightblue" points="983.34,-224.85 987.71,-215.19 978.27,-220.01 983.34,-224.85"/>
</g>
<!-- Node30&#45;&gt;Node4 -->
<g id="edge39" class="edge">
<title>Node30&#45;&gt;Node4</title>
<path fill="none" stroke="midnightblue" d="M865.82,-324.36C851.38,-314.24 831.49,-300.29 814,-288 794.43,-274.24 790.69,-269 770,-257 749.44,-245.08 725.6,-233.69 705.56,-224.76"/>
<polygon fill="midnightblue" stroke="midnightblue" points="706.91,-221.53 696.35,-220.71 704.09,-227.94 706.91,-221.53"/>
</g>
<!-- Node30&#45;&gt;Node9 -->
<g id="edge42" class="edge">
<title>Node30&#45;&gt;Node9</title>
<path fill="none" stroke="midnightblue" d="M872.28,-324.13C863.85,-314.57 853.47,-301.36 847,-288 825.84,-244.3 816.04,-187.32 812.16,-158.29"/>
<polygon fill="midnightblue" stroke="midnightblue" points="815.62,-157.79 810.91,-148.3 808.68,-158.65 815.62,-157.79"/>
</g>
<!-- Node30&#45;&gt;Node25 -->
<g id="edge41" class="edge">
<title>Node30&#45;&gt;Node25</title>
<path fill="none" stroke="midnightblue" d="M848.9,-324.4C818.49,-312.84 775.92,-296.66 747,-285.66"/>
<polygon fill="midnightblue" stroke="midnightblue" points="747.97,-282.29 737.38,-282.01 745.48,-288.83 747.97,-282.29"/>
</g>
<!-- Node30&#45;&gt;Node27 -->
<g id="edge40" class="edge">
<title>Node30&#45;&gt;Node27</title>
<path fill="none" stroke="midnightblue" d="M896.42,-324.4C902.58,-316.05 910.53,-305.29 917.52,-295.81"/>
<polygon fill="midnightblue" stroke="midnightblue" points="920.48,-297.7 923.61,-287.58 914.85,-293.54 920.48,-297.7"/>
</g>
<!-- Node33 -->
<g id="node33" class="node">
<title>Node33</title>
<g id="a_node33"><a xlink:title=" ">
<polygon fill="none" stroke="#bfbfbf" points="804.5,-397 804.5,-416 903.5,-416 903.5,-397 804.5,-397"/>
<text text-anchor="middle" x="854" y="-404" font-family="Helvetica,sans-Serif" font-size="10.00">spdlog/fmt/ostr.h</text>
</a>
</g>
</g>
<!-- Node32&#45;&gt;Node33 -->
<g id="edge52" class="edge">
<title>Node32&#45;&gt;Node33</title>
<path fill="none" stroke="midnightblue" d="M854,-458.4C854,-449.06 854,-436.71 854,-426.52"/>
<polygon fill="midnightblue" stroke="midnightblue" points="857.5,-426.19 854,-416.19 850.5,-426.19 857.5,-426.19"/>
</g>
<!-- Node34 -->
<g id="node34" class="node">
<title>Node34</title>
<g id="a_node34"><a xlink:title=" ">
<polygon fill="none" stroke="#bfbfbf" points="921.5,-397 921.5,-416 1014.5,-416 1014.5,-397 921.5,-397"/>
<text text-anchor="middle" x="968" y="-404" font-family="Helvetica,sans-Serif" font-size="10.00">spdlog/spdlog.h</text>
</a>
</g>
</g>
<!-- Node32&#45;&gt;Node34 -->
<g id="edge53" class="edge">
<title>Node32&#45;&gt;Node34</title>
<path fill="none" stroke="midnightblue" d="M878.74,-458.4C898.21,-447.29 925.17,-431.92 944.35,-420.98"/>
<polygon fill="midnightblue" stroke="midnightblue" points="946.13,-424 953.08,-416.01 942.66,-417.92 946.13,-424"/>
</g>
</g>
</svg>
        <g id="navigator" transform="translate(0 0)" fill="#404254">
                <rect fill="#f2f5e9" fill-opacity="0.5" stroke="#606060" stroke-width=".5" x="0" y="0" width="60" height="60"/>
                <use id="zoomplus" xlink:href="#zoomPlus" x="17" y="9" onmousedown="handleZoom(evt,'in')"/>
                <use id="zoomminus" xlink:href="#zoomMin" x="42" y="9" onmousedown="handleZoom(evt,'out')"/>
                <use id="reset" xlink:href="#resetDef" x="30" y="36" onmousedown="handleReset()"/>
                <g id="arrowUp" xlink:href="#dirArrow" transform="translate(30 24)" onmousedown="handlePan(0,-1)">
                  <use xlink:href="#rim" fill="#404040">
                        <set attributeName="fill" to="#808080" begin="arrowUp.mouseover" end="arrowUp.mouseout"/>
                  </use>
                  <path fill="none" stroke="white" stroke-width="1.5" d="M0,-3.0v7 M-2.5,-0.5L0,-3.0L2.5,-0.5"/>
                </g>
                <g id="arrowRight" xlink:href="#dirArrow" transform="rotate(90) translate(36 -43)" onmousedown="handlePan(1,0)">
                  <use xlink:href="#rim" fill="#404040">
                        <set attributeName="fill" to="#808080" begin="arrowRight.mouseover" end="arrowRight.mouseout"/>
                  </use>
                  <path fill="none" stroke="white" stroke-width="1.5" d="M0,-3.0v7 M-2.5,-0.5L0,-3.0L2.5,-0.5"/>
                </g>
                <g id="arrowDown" xlink:href="#dirArrow" transform="rotate(180) translate(-30 -48)" onmousedown="handlePan(0,1)">
                  <use xlink:href="#rim" fill="#404040">
                        <set attributeName="fill" to="#808080" begin="arrowDown.mouseover" end="arrowDown.mouseout"/>
                  </use>
                  <path fill="none" stroke="white" stroke-width="1.5" d="M0,-3.0v7 M-2.5,-0.5L0,-3.0L2.5,-0.5"/>
                </g>
                <g id="arrowLeft" xlink:href="#dirArrow" transform="rotate(270) translate(-36 17)" onmousedown="handlePan(-1,0)">
                  <use xlink:href="#rim" fill="#404040">
                        <set attributeName="fill" to="#808080" begin="arrowLeft.mouseover" end="arrowLeft.mouseout"/>
                  </use>
                  <path fill="none" stroke="white" stroke-width="1.5" d="M0,-3.0v7 M-2.5,-0.5L0,-3.0L2.5,-0.5"/>
                </g>
        </g>
        <svg viewBox="0 0 15 15" width="100%" height="30px" preserveAspectRatio="xMaxYMin meet">
         <g id="arrow_out" transform="scale(0.3 0.3)">
          <a xlink:href="FixedFootDetector_8cpp__incl_org.svg" target="_base">
           <rect id="button" ry="5" rx="5" y="6" x="6" height="38" width="38"
                fill="#f2f5e9" fill-opacity="0.5" stroke="#606060" stroke-width="1.0"/>
           <path id="arrow"
             d="M 11.500037,31.436501 C 11.940474,20.09759 22.043105,11.32322 32.158766,21.979434 L 37.068811,17.246167 C 37.068811,17.246167 37.088388,32 37.088388,32 L 22.160133,31.978069 C 22.160133,31.978069 26.997745,27.140456 26.997745,27.140456 C 18.528582,18.264221 13.291696,25.230495 11.500037,31.436501 z"
             style="fill:#404040;"/>
          </a>
         </g>
        </svg>
</svg>
