<?xml version="1.0" encoding="UTF-8" standalone="no"?>
<!DOCTYPE svg PUBLIC "-//W3C//DTD SVG 1.1//EN"
 "http://www.w3.org/Graphics/SVG/1.1/DTD/svg11.dtd">
<!-- Generated by graphviz version 2.43.0 (0)
 -->
<!-- Title: Contacts/include/BipedalLocomotion/ContactDetectors/FixedFootDetector.h Pages: 1 -->
<svg width="1048pt" height="508pt"
 viewBox="0.00 0.00 1047.50 508.00" xmlns="http://www.w3.org/2000/svg" xmlns:xlink="http://www.w3.org/1999/xlink">
<g id="graph0" class="graph" transform="scale(1 1) rotate(0) translate(4 504)">
<title>Contacts/include/BipedalLocomotion/ContactDetectors/FixedFootDetector.h</title>
<!-- Node1 -->
<g id="node1" class="node">
<title>Node1</title>
<g id="a_node1"><a xlink:title=" ">
<polygon fill="#bfbfbf" stroke="black" points="260.5,-458.5 260.5,-499.5 421.5,-499.5 421.5,-458.5 260.5,-458.5"/>
<text text-anchor="start" x="268.5" y="-487.5" font-family="Helvetica,sans-Serif" font-size="10.00">Contacts/include/Bipedal</text>
<text text-anchor="start" x="268.5" y="-476.5" font-family="Helvetica,sans-Serif" font-size="10.00">Locomotion/ContactDetectors</text>
<text text-anchor="middle" x="341" y="-465.5" font-family="Helvetica,sans-Serif" font-size="10.00">/FixedFootDetector.h</text>
</a>
</g>
</g>
<!-- Node2 -->
<g id="node2" class="node">
<title>Node2</title>
<g id="a_node2"><a xlink:href="ContactDetector_8h.html" target="_top" xlink:title=" ">
<polygon fill="none" stroke="black" points="263.5,-391.5 263.5,-421.5 418.5,-421.5 418.5,-391.5 263.5,-391.5"/>
<text text-anchor="start" x="271.5" y="-409.5" font-family="Helvetica,sans-Serif" font-size="10.00">BipedalLocomotion/Contact</text>
<text text-anchor="middle" x="341" y="-398.5" font-family="Helvetica,sans-Serif" font-size="10.00">Detectors/ContactDetector.h</text>
</a>
</g>
</g>
<!-- Node1&#45;&gt;Node2 -->
<g id="edge1" class="edge">
<title>Node1&#45;&gt;Node2</title>
<path fill="none" stroke="midnightblue" d="M341,-458.36C341,-450.23 341,-440.7 341,-432.11"/>
<polygon fill="midnightblue" stroke="midnightblue" points="344.5,-431.89 341,-421.89 337.5,-431.89 344.5,-431.89"/>
</g>
<!-- Node3 -->
<g id="node3" class="node">
<title>Node3</title>
<g id="a_node3"><a xlink:href="Contact_8h.html" target="_top" xlink:title=" ">
<polygon fill="none" stroke="black" points="777,-190.5 777,-220.5 933,-220.5 933,-190.5 777,-190.5"/>
<text text-anchor="start" x="785" y="-208.5" font-family="Helvetica,sans-Serif" font-size="10.00">BipedalLocomotion/Contacts</text>
<text text-anchor="middle" x="855" y="-197.5" font-family="Helvetica,sans-Serif" font-size="10.00">/Contact.h</text>
</a>
</g>
</g>
<!-- Node1&#45;&gt;Node3 -->
<g id="edge45" class="edge">
<title>Node1&#45;&gt;Node3</title>
<path fill="none" stroke="midnightblue" d="M421.59,-469.58C551.6,-454.3 799.04,-417.66 858,-355 888.35,-322.75 884.67,-300.43 876,-257 874.16,-247.76 870.59,-238.1 866.91,-229.74"/>
<polygon fill="midnightblue" stroke="midnightblue" points="870.05,-228.18 862.64,-220.61 863.71,-231.15 870.05,-228.18"/>
</g>
<!-- Node9 -->
<g id="node9" class="node">
<title>Node9</title>
<g id="a_node9"><a xlink:href="IParametersHandler_8h.html" target="_top" xlink:title=" ">
<polygon fill="none" stroke="black" points="122.5,-190.5 122.5,-220.5 291.5,-220.5 291.5,-190.5 122.5,-190.5"/>
<text text-anchor="start" x="130.5" y="-208.5" font-family="Helvetica,sans-Serif" font-size="10.00">BipedalLocomotion/Parameters</text>
<text text-anchor="middle" x="207" y="-197.5" font-family="Helvetica,sans-Serif" font-size="10.00">Handler/IParametersHandler.h</text>
</a>
</g>
</g>
<!-- Node1&#45;&gt;Node9 -->
<g id="edge46" class="edge">
<title>Node1&#45;&gt;Node9</title>
<path fill="none" stroke="midnightblue" d="M297.77,-458.39C259.91,-438.48 207.65,-403.65 186,-355 168.28,-315.19 173.41,-299.51 183,-257 185.09,-247.74 189.08,-238.19 193.22,-229.92"/>
<polygon fill="midnightblue" stroke="midnightblue" points="196.42,-231.37 198.04,-220.9 190.24,-228.07 196.42,-231.37"/>
</g>
<!-- Node10 -->
<g id="node10" class="node">
<title>Node10</title>
<g id="a_node10"><a xlink:title=" ">
<polygon fill="none" stroke="#bfbfbf" points="0,-62 0,-81 58,-81 58,-62 0,-62"/>
<text text-anchor="middle" x="29" y="-69" font-family="Helvetica,sans-Serif" font-size="10.00">memory</text>
</a>
</g>
</g>
<!-- Node1&#45;&gt;Node10 -->
<g id="edge47" class="edge">
<title>Node1&#45;&gt;Node10</title>
<path fill="none" stroke="midnightblue" d="M260.14,-471.71C178.38,-460.41 64,-428.82 64,-340.5 64,-340.5 64,-340.5 64,-204.5 64,-162.6 47.32,-115.63 36.99,-90.57"/>
<polygon fill="midnightblue" stroke="midnightblue" points="40.15,-89.08 33.01,-81.25 33.71,-91.82 40.15,-89.08"/>
</g>
<!-- Node25 -->
<g id="node25" class="node">
<title>Node25</title>
<g id="a_node25"><a xlink:href="ContactPhaseList_8h_source.html" target="_top" xlink:title=" ">
<polygon fill="none" stroke="black" points="493,-391.5 493,-421.5 649,-421.5 649,-391.5 493,-391.5"/>
<text text-anchor="start" x="501" y="-409.5" font-family="Helvetica,sans-Serif" font-size="10.00">BipedalLocomotion/Contacts</text>
<text text-anchor="middle" x="571" y="-398.5" font-family="Helvetica,sans-Serif" font-size="10.00">/ContactPhaseList.h</text>
</a>
</g>
</g>
<!-- Node1&#45;&gt;Node25 -->
<g id="edge29" class="edge">
<title>Node1&#45;&gt;Node25</title>
<path fill="none" stroke="midnightblue" d="M404.76,-458.46C439.49,-447.81 482.05,-434.76 515.42,-424.54"/>
<polygon fill="midnightblue" stroke="midnightblue" points="516.48,-427.87 525.01,-421.6 514.42,-421.18 516.48,-427.87"/>
</g>
<!-- Node2&#45;&gt;Node3 -->
<g id="edge2" class="edge">
<title>Node2&#45;&gt;Node3</title>
<path fill="none" stroke="midnightblue" d="M418.51,-396.65C497.8,-386.97 615.24,-370.73 658,-355 732.05,-327.76 801.55,-262.82 834.69,-228.55"/>
<polygon fill="midnightblue" stroke="midnightblue" points="837.58,-230.59 841.95,-220.93 832.52,-225.76 837.58,-230.59"/>
</g>
<!-- Node2&#45;&gt;Node9 -->
<g id="edge9" class="edge">
<title>Node2&#45;&gt;Node9</title>
<path fill="none" stroke="midnightblue" d="M263.28,-394.86C239.71,-387.59 216.29,-375.4 202,-355 176.07,-317.99 187.97,-262.09 198.07,-230.48"/>
<polygon fill="midnightblue" stroke="midnightblue" points="201.47,-231.35 201.37,-220.76 194.84,-229.11 201.47,-231.35"/>
</g>
<!-- Node21 -->
<g id="node21" class="node">
<title>Node21</title>
<g id="a_node21"><a xlink:href="Source_8h.html" target="_top" xlink:title=" ">
<polygon fill="none" stroke="black" points="211,-324.5 211,-354.5 361,-354.5 361,-324.5 211,-324.5"/>
<text text-anchor="start" x="219" y="-342.5" font-family="Helvetica,sans-Serif" font-size="10.00">BipedalLocomotion/System</text>
<text text-anchor="middle" x="286" y="-331.5" font-family="Helvetica,sans-Serif" font-size="10.00">/Source.h</text>
</a>
</g>
</g>
<!-- Node2&#45;&gt;Node21 -->
<g id="edge24" class="edge">
<title>Node2&#45;&gt;Node21</title>
<path fill="none" stroke="midnightblue" d="M329.07,-391.4C321.86,-382.88 312.52,-371.85 304.39,-362.23"/>
<polygon fill="midnightblue" stroke="midnightblue" points="307.04,-359.95 297.91,-354.58 301.7,-364.47 307.04,-359.95"/>
</g>
<!-- Node24 -->
<g id="node24" class="node">
<title>Node24</title>
<g id="a_node24"><a xlink:title=" ">
<polygon fill="none" stroke="#bfbfbf" points="417.5,-263 417.5,-282 510.5,-282 510.5,-263 417.5,-263"/>
<text text-anchor="middle" x="464" y="-270" font-family="Helvetica,sans-Serif" font-size="10.00">unordered_map</text>
</a>
</g>
</g>
<!-- Node2&#45;&gt;Node24 -->
<g id="edge28" class="edge">
<title>Node2&#45;&gt;Node24</title>
<path fill="none" stroke="midnightblue" d="M354.16,-391.37C377.2,-366.65 424.69,-315.68 448.98,-289.62"/>
<polygon fill="midnightblue" stroke="midnightblue" points="451.73,-291.8 455.99,-282.1 446.61,-287.03 451.73,-291.8"/>
</g>
<!-- Node4 -->
<g id="node4" class="node">
<title>Node4</title>
<g id="a_node4"><a xlink:href="Wrench_8h.html" target="_top" xlink:title=" ">
<polygon fill="none" stroke="black" points="838,-123.5 838,-153.5 976,-153.5 976,-123.5 838,-123.5"/>
<text text-anchor="start" x="846" y="-141.5" font-family="Helvetica,sans-Serif" font-size="10.00">BipedalLocomotion/Math</text>
<text text-anchor="middle" x="907" y="-130.5" font-family="Helvetica,sans-Serif" font-size="10.00">/Wrench.h</text>
</a>
</g>
</g>
<!-- Node3&#45;&gt;Node4 -->
<g id="edge3" class="edge">
<title>Node3&#45;&gt;Node4</title>
<path fill="none" stroke="midnightblue" d="M866.28,-190.4C873.03,-181.96 881.75,-171.07 889.38,-161.52"/>
<polygon fill="midnightblue" stroke="midnightblue" points="892.22,-163.57 895.74,-153.58 886.76,-159.2 892.22,-163.57"/>
</g>
<!-- Node6 -->
<g id="node6" class="node">
<title>Node6</title>
<g id="a_node6"><a xlink:title=" ">
<polygon fill="none" stroke="#bfbfbf" points="773.5,-62 773.5,-81 848.5,-81 848.5,-62 773.5,-62"/>
<text text-anchor="middle" x="811" y="-69" font-family="Helvetica,sans-Serif" font-size="10.00">manif/SE3.h</text>
</a>
</g>
</g>
<!-- Node3&#45;&gt;Node6 -->
<g id="edge7" class="edge">
<title>Node3&#45;&gt;Node6</title>
<path fill="none" stroke="midnightblue" d="M846.47,-190.36C840.81,-180.47 833.62,-166.8 829,-154 821.48,-133.18 816.53,-108.19 813.75,-91.42"/>
<polygon fill="midnightblue" stroke="midnightblue" points="817.17,-90.62 812.18,-81.27 810.26,-91.69 817.17,-90.62"/>
</g>
<!-- Node8 -->
<g id="node8" class="node">
<title>Node8</title>
<g id="a_node8"><a xlink:title=" ">
<polygon fill="none" stroke="#bfbfbf" points="516,-129 516,-148 560,-148 560,-129 516,-129"/>
<text text-anchor="middle" x="538" y="-136" font-family="Helvetica,sans-Serif" font-size="10.00">string</text>
</a>
</g>
</g>
<!-- Node3&#45;&gt;Node8 -->
<g id="edge8" class="edge">
<title>Node3&#45;&gt;Node8</title>
<path fill="none" stroke="midnightblue" d="M786.61,-190.48C719.66,-176.75 620.59,-156.43 570.11,-146.08"/>
<polygon fill="midnightblue" stroke="midnightblue" points="570.6,-142.61 560.1,-144.03 569.19,-149.47 570.6,-142.61"/>
</g>
<!-- Node5 -->
<g id="node5" class="node">
<title>Node5</title>
<g id="a_node5"><a xlink:title=" ">
<polygon fill="none" stroke="#bfbfbf" points="962.5,-62 962.5,-81 1039.5,-81 1039.5,-62 962.5,-62"/>
<text text-anchor="middle" x="1001" y="-69" font-family="Helvetica,sans-Serif" font-size="10.00">Eigen/Dense</text>
</a>
</g>
</g>
<!-- Node4&#45;&gt;Node5 -->
<g id="edge4" class="edge">
<title>Node4&#45;&gt;Node5</title>
<path fill="none" stroke="midnightblue" d="M927.4,-123.4C943.01,-112.6 964.48,-97.76 980.19,-86.89"/>
<polygon fill="midnightblue" stroke="midnightblue" points="982.46,-89.57 988.7,-81.01 978.48,-83.82 982.46,-89.57"/>
</g>
<!-- Node4&#45;&gt;Node6 -->
<g id="edge5" class="edge">
<title>Node4&#45;&gt;Node6</title>
<path fill="none" stroke="midnightblue" d="M886.17,-123.4C870.22,-112.6 848.3,-97.76 832.25,-86.89"/>
<polygon fill="midnightblue" stroke="midnightblue" points="833.81,-83.72 823.56,-81.01 829.88,-89.51 833.81,-83.72"/>
</g>
<!-- Node7 -->
<g id="node7" class="node">
<title>Node7</title>
<g id="a_node7"><a xlink:title=" ">
<polygon fill="none" stroke="#bfbfbf" points="867.5,-62 867.5,-81 944.5,-81 944.5,-62 867.5,-62"/>
<text text-anchor="middle" x="906" y="-69" font-family="Helvetica,sans-Serif" font-size="10.00">manif/SO3.h</text>
</a>
</g>
</g>
<!-- Node4&#45;&gt;Node7 -->
<g id="edge6" class="edge">
<title>Node4&#45;&gt;Node7</title>
<path fill="none" stroke="midnightblue" d="M906.78,-123.4C906.64,-114.06 906.45,-101.71 906.29,-91.52"/>
<polygon fill="midnightblue" stroke="midnightblue" points="909.79,-91.14 906.13,-81.19 902.79,-91.25 909.79,-91.14"/>
</g>
<!-- Node9&#45;&gt;Node8 -->
<g id="edge11" class="edge">
<title>Node9&#45;&gt;Node8</title>
<path fill="none" stroke="midnightblue" d="M278.41,-190.48C348.82,-176.65 453.25,-156.14 505.6,-145.86"/>
<polygon fill="midnightblue" stroke="midnightblue" points="506.51,-149.25 515.65,-143.89 505.17,-142.38 506.51,-149.25"/>
</g>
<!-- Node9&#45;&gt;Node10 -->
<g id="edge10" class="edge">
<title>Node9&#45;&gt;Node10</title>
<path fill="none" stroke="midnightblue" d="M187.95,-190.37C154.03,-165.22 83.49,-112.91 48.94,-87.29"/>
<polygon fill="midnightblue" stroke="midnightblue" points="50.71,-84.24 40.59,-81.1 46.54,-89.87 50.71,-84.24"/>
</g>
<!-- Node11 -->
<g id="node11" class="node">
<title>Node11</title>
<g id="a_node11"><a xlink:title=" ">
<polygon fill="none" stroke="#bfbfbf" points="365.5,-129 365.5,-148 412.5,-148 412.5,-129 365.5,-129"/>
<text text-anchor="middle" x="389" y="-136" font-family="Helvetica,sans-Serif" font-size="10.00">vector</text>
</a>
</g>
</g>
<!-- Node9&#45;&gt;Node11 -->
<g id="edge12" class="edge">
<title>Node9&#45;&gt;Node11</title>
<path fill="none" stroke="midnightblue" d="M248.07,-190.43C276.94,-180.46 316.42,-166.66 351,-154 353.1,-153.23 355.26,-152.43 357.44,-151.62"/>
<polygon fill="midnightblue" stroke="midnightblue" points="358.81,-154.84 366.93,-148.04 356.34,-148.29 358.81,-154.84"/>
</g>
<!-- Node12 -->
<g id="node12" class="node">
<title>Node12</title>
<g id="a_node12"><a xlink:href="TemplateHelpers_8h_source.html" target="_top" xlink:title=" ">
<polygon fill="none" stroke="black" points="364,-56.5 364,-86.5 522,-86.5 522,-56.5 364,-56.5"/>
<text text-anchor="start" x="372" y="-74.5" font-family="Helvetica,sans-Serif" font-size="10.00">BipedalLocomotion/Generic</text>
<text text-anchor="middle" x="443" y="-63.5" font-family="Helvetica,sans-Serif" font-size="10.00">Container/TemplateHelpers.h</text>
</a>
</g>
</g>
<!-- Node9&#45;&gt;Node12 -->
<g id="edge13" class="edge">
<title>Node9&#45;&gt;Node12</title>
<path fill="none" stroke="midnightblue" d="M243.29,-190.45C265.29,-181.3 293.55,-168.41 317,-154 335.87,-142.41 337.71,-135.48 356,-123 372.4,-111.81 391.39,-100.6 407.44,-91.59"/>
<polygon fill="midnightblue" stroke="midnightblue" points="409.46,-94.47 416.51,-86.56 406.06,-88.35 409.46,-94.47"/>
</g>
<!-- Node16 -->
<g id="node16" class="node">
<title>Node16</title>
<g id="a_node16"><a xlink:href="Vector_8h_source.html" target="_top" xlink:title=" ">
<polygon fill="none" stroke="black" points="157.5,-123.5 157.5,-153.5 308.5,-153.5 308.5,-123.5 157.5,-123.5"/>
<text text-anchor="start" x="165.5" y="-141.5" font-family="Helvetica,sans-Serif" font-size="10.00">BipedalLocomotion/Generic</text>
<text text-anchor="middle" x="233" y="-130.5" font-family="Helvetica,sans-Serif" font-size="10.00">Container/Vector.h</text>
</a>
</g>
</g>
<!-- Node9&#45;&gt;Node16 -->
<g id="edge17" class="edge">
<title>Node9&#45;&gt;Node16</title>
<path fill="none" stroke="midnightblue" d="M212.64,-190.4C215.84,-182.39 219.94,-172.16 223.61,-162.98"/>
<polygon fill="midnightblue" stroke="midnightblue" points="226.91,-164.16 227.37,-153.58 220.41,-161.56 226.91,-164.16"/>
</g>
<!-- Node13 -->
<g id="node13" class="node">
<title>Node13</title>
<g id="a_node13"><a xlink:title=" ">
<polygon fill="none" stroke="#bfbfbf" points="319.5,-0.5 319.5,-19.5 388.5,-19.5 388.5,-0.5 319.5,-0.5"/>
<text text-anchor="middle" x="354" y="-7.5" font-family="Helvetica,sans-Serif" font-size="10.00">type_traits</text>
</a>
</g>
</g>
<!-- Node12&#45;&gt;Node13 -->
<g id="edge14" class="edge">
<title>Node12&#45;&gt;Node13</title>
<path fill="none" stroke="midnightblue" d="M421.91,-56.4C407.91,-47.04 389.59,-34.79 375.51,-25.38"/>
<polygon fill="midnightblue" stroke="midnightblue" points="377.21,-22.31 366.95,-19.66 373.32,-28.13 377.21,-22.31"/>
</g>
<!-- Node14 -->
<g id="node14" class="node">
<title>Node14</title>
<g id="a_node14"><a xlink:title=" ">
<polygon fill="none" stroke="#bfbfbf" points="406.5,-0.5 406.5,-19.5 479.5,-19.5 479.5,-0.5 406.5,-0.5"/>
<text text-anchor="middle" x="443" y="-7.5" font-family="Helvetica,sans-Serif" font-size="10.00">string_view</text>
</a>
</g>
</g>
<!-- Node12&#45;&gt;Node14 -->
<g id="edge15" class="edge">
<title>Node12&#45;&gt;Node14</title>
<path fill="none" stroke="midnightblue" d="M443,-56.4C443,-48.47 443,-38.46 443,-29.86"/>
<polygon fill="midnightblue" stroke="midnightblue" points="446.5,-29.66 443,-19.66 439.5,-29.66 446.5,-29.66"/>
</g>
<!-- Node15 -->
<g id="node15" class="node">
<title>Node15</title>
<g id="a_node15"><a xlink:title=" ">
<polygon fill="none" stroke="#bfbfbf" points="497.5,-0.5 497.5,-19.5 566.5,-19.5 566.5,-0.5 497.5,-0.5"/>
<text text-anchor="middle" x="532" y="-7.5" font-family="Helvetica,sans-Serif" font-size="10.00">Eigen/Core</text>
</a>
</g>
</g>
<!-- Node12&#45;&gt;Node15 -->
<g id="edge16" class="edge">
<title>Node12&#45;&gt;Node15</title>
<path fill="none" stroke="midnightblue" d="M464.09,-56.4C478.09,-47.04 496.41,-34.79 510.49,-25.38"/>
<polygon fill="midnightblue" stroke="midnightblue" points="512.68,-28.13 519.05,-19.66 508.79,-22.31 512.68,-28.13"/>
</g>
<!-- Node16&#45;&gt;Node10 -->
<g id="edge23" class="edge">
<title>Node16&#45;&gt;Node10</title>
<path fill="none" stroke="midnightblue" d="M183.68,-123.47C150.51,-113.79 105.9,-100.32 67,-87 64.75,-86.23 62.42,-85.41 60.09,-84.56"/>
<polygon fill="midnightblue" stroke="midnightblue" points="61.2,-81.24 50.61,-81.04 58.76,-87.8 61.2,-81.24"/>
</g>
<!-- Node16&#45;&gt;Node12 -->
<g id="edge19" class="edge">
<title>Node16&#45;&gt;Node12</title>
<path fill="none" stroke="midnightblue" d="M278.31,-123.48C310.35,-113.56 353.5,-100.2 387.6,-89.65"/>
<polygon fill="midnightblue" stroke="midnightblue" points="388.89,-92.91 397.41,-86.61 386.82,-86.22 388.89,-92.91"/>
</g>
<!-- Node17 -->
<g id="node17" class="node">
<title>Node17</title>
<g id="a_node17"><a xlink:title=" ">
<polygon fill="none" stroke="#bfbfbf" points="76.5,-62 76.5,-81 197.5,-81 197.5,-62 76.5,-62"/>
<text text-anchor="middle" x="137" y="-69" font-family="Helvetica,sans-Serif" font-size="10.00">iDynTree/Core/Span.h</text>
</a>
</g>
</g>
<!-- Node16&#45;&gt;Node17 -->
<g id="edge18" class="edge">
<title>Node16&#45;&gt;Node17</title>
<path fill="none" stroke="midnightblue" d="M212.17,-123.4C196.22,-112.6 174.3,-97.76 158.25,-86.89"/>
<polygon fill="midnightblue" stroke="midnightblue" points="159.81,-83.72 149.56,-81.01 155.88,-89.51 159.81,-83.72"/>
</g>
<!-- Node18 -->
<g id="node18" class="node">
<title>Node18</title>
<g id="a_node18"><a xlink:title=" ">
<polygon fill="none" stroke="#bfbfbf" points="614.5,-62 614.5,-81 679.5,-81 679.5,-62 614.5,-62"/>
<text text-anchor="middle" x="647" y="-69" font-family="Helvetica,sans-Serif" font-size="10.00">functional</text>
</a>
</g>
</g>
<!-- Node16&#45;&gt;Node18 -->
<g id="edge20" class="edge">
<title>Node16&#45;&gt;Node18</title>
<path fill="none" stroke="midnightblue" d="M308.93,-125.58C395.64,-111.96 534.46,-90.17 604.15,-79.23"/>
<polygon fill="midnightblue" stroke="midnightblue" points="604.99,-82.64 614.32,-77.63 603.9,-75.72 604.99,-82.64"/>
</g>
<!-- Node19 -->
<g id="node19" class="node">
<title>Node19</title>
<g id="a_node19"><a xlink:title=" ">
<polygon fill="none" stroke="#bfbfbf" points="216,-62 216,-81 268,-81 268,-62 216,-62"/>
<text text-anchor="middle" x="242" y="-69" font-family="Helvetica,sans-Serif" font-size="10.00">cassert</text>
</a>
</g>
</g>
<!-- Node16&#45;&gt;Node19 -->
<g id="edge21" class="edge">
<title>Node16&#45;&gt;Node19</title>
<path fill="none" stroke="midnightblue" d="M234.95,-123.4C236.26,-113.96 237.99,-101.45 239.41,-91.19"/>
<polygon fill="midnightblue" stroke="midnightblue" points="242.89,-91.58 240.8,-81.19 235.96,-90.62 242.89,-91.58"/>
</g>
<!-- Node20 -->
<g id="node20" class="node">
<title>Node20</title>
<g id="a_node20"><a xlink:title=" ">
<polygon fill="none" stroke="#bfbfbf" points="286,-62 286,-81 346,-81 346,-62 286,-62"/>
<text text-anchor="middle" x="316" y="-69" font-family="Helvetica,sans-Serif" font-size="10.00">iostream</text>
</a>
</g>
</g>
<!-- Node16&#45;&gt;Node20 -->
<g id="edge22" class="edge">
<title>Node16&#45;&gt;Node20</title>
<path fill="none" stroke="midnightblue" d="M251.01,-123.4C264.59,-112.76 283.18,-98.2 297,-87.38"/>
<polygon fill="midnightblue" stroke="midnightblue" points="299.18,-90.12 304.9,-81.19 294.87,-84.6 299.18,-90.12"/>
</g>
<!-- Node22 -->
<g id="node22" class="node">
<title>Node22</title>
<g id="a_node22"><a xlink:href="Advanceable_8h.html" target="_top" xlink:title=" ">
<polygon fill="none" stroke="black" points="211,-257.5 211,-287.5 361,-287.5 361,-257.5 211,-257.5"/>
<text text-anchor="start" x="219" y="-275.5" font-family="Helvetica,sans-Serif" font-size="10.00">BipedalLocomotion/System</text>
<text text-anchor="middle" x="286" y="-264.5" font-family="Helvetica,sans-Serif" font-size="10.00">/Advanceable.h</text>
</a>
</g>
</g>
<!-- Node21&#45;&gt;Node22 -->
<g id="edge25" class="edge">
<title>Node21&#45;&gt;Node22</title>
<path fill="none" stroke="midnightblue" d="M286,-324.4C286,-316.64 286,-306.81 286,-297.86"/>
<polygon fill="midnightblue" stroke="midnightblue" points="289.5,-297.58 286,-287.58 282.5,-297.58 289.5,-297.58"/>
</g>
<!-- Node22&#45;&gt;Node9 -->
<g id="edge27" class="edge">
<title>Node22&#45;&gt;Node9</title>
<path fill="none" stroke="midnightblue" d="M268.86,-257.4C258.09,-248.54 244.02,-236.96 232.02,-227.09"/>
<polygon fill="midnightblue" stroke="midnightblue" points="234.05,-224.23 224.11,-220.58 229.61,-229.63 234.05,-224.23"/>
</g>
<!-- Node23 -->
<g id="node23" class="node">
<title>Node23</title>
<g id="a_node23"><a xlink:title=" ">
<polygon fill="none" stroke="#bfbfbf" points="309.5,-196 309.5,-215 360.5,-215 360.5,-196 309.5,-196"/>
<text text-anchor="middle" x="335" y="-203" font-family="Helvetica,sans-Serif" font-size="10.00">variant</text>
</a>
</g>
</g>
<!-- Node22&#45;&gt;Node23 -->
<g id="edge26" class="edge">
<title>Node22&#45;&gt;Node23</title>
<path fill="none" stroke="midnightblue" d="M296.63,-257.4C304.2,-247.36 314.39,-233.84 322.37,-223.25"/>
<polygon fill="midnightblue" stroke="midnightblue" points="325.22,-225.29 328.45,-215.19 319.63,-221.07 325.22,-225.29"/>
</g>
<!-- Node25&#45;&gt;Node3 -->
<g id="edge30" class="edge">
<title>Node25&#45;&gt;Node3</title>
<path fill="none" stroke="midnightblue" d="M649.26,-400.48C717.72,-394.36 810.02,-381.39 835,-355 866.65,-321.56 864.09,-263.37 859.5,-230.65"/>
<polygon fill="midnightblue" stroke="midnightblue" points="862.93,-229.93 857.92,-220.6 856.02,-231.02 862.93,-229.93"/>
</g>
<!-- Node25&#45;&gt;Node11 -->
<g id="edge44" class="edge">
<title>Node25&#45;&gt;Node11</title>
<path fill="none" stroke="midnightblue" d="M532.43,-391.43C511.59,-382.76 486.09,-370.36 466,-355 434.71,-331.08 424.07,-323.96 408,-288 388.62,-244.64 387.22,-187.51 388.02,-158.37"/>
<polygon fill="midnightblue" stroke="midnightblue" points="391.51,-158.47 388.41,-148.34 384.52,-158.2 391.51,-158.47"/>
</g>
<!-- Node25&#45;&gt;Node24 -->
<g id="edge42" class="edge">
<title>Node25&#45;&gt;Node24</title>
<path fill="none" stroke="midnightblue" d="M532.74,-391.47C515.47,-383.31 496.25,-371.36 484,-355 470.25,-336.63 465.85,-310.02 464.5,-292.25"/>
<polygon fill="midnightblue" stroke="midnightblue" points="467.98,-291.85 463.98,-282.04 460.99,-292.2 467.98,-291.85"/>
</g>
<!-- Node26 -->
<g id="node26" class="node">
<title>Node26</title>
<g id="a_node26"><a xlink:href="ContactList_8h.html" target="_top" xlink:title=" ">
<polygon fill="none" stroke="black" points="567,-257.5 567,-287.5 723,-287.5 723,-257.5 567,-257.5"/>
<text text-anchor="start" x="575" y="-275.5" font-family="Helvetica,sans-Serif" font-size="10.00">BipedalLocomotion/Contacts</text>
<text text-anchor="middle" x="645" y="-264.5" font-family="Helvetica,sans-Serif" font-size="10.00">/ContactList.h</text>
</a>
</g>
</g>
<!-- Node25&#45;&gt;Node26 -->
<g id="edge31" class="edge">
<title>Node25&#45;&gt;Node26</title>
<path fill="none" stroke="midnightblue" d="M613.81,-391.42C630.69,-383.52 648.33,-371.8 658,-355 668.16,-337.35 663.03,-314.19 656.46,-297.06"/>
<polygon fill="midnightblue" stroke="midnightblue" points="659.65,-295.61 652.53,-287.77 653.2,-298.34 659.65,-295.61"/>
</g>
<!-- Node29 -->
<g id="node29" class="node">
<title>Node29</title>
<g id="a_node29"><a xlink:href="ContactPhase_8h.html" target="_top" xlink:title=" ">
<polygon fill="none" stroke="black" points="493,-324.5 493,-354.5 649,-354.5 649,-324.5 493,-324.5"/>
<text text-anchor="start" x="501" y="-342.5" font-family="Helvetica,sans-Serif" font-size="10.00">BipedalLocomotion/Contacts</text>
<text text-anchor="middle" x="571" y="-331.5" font-family="Helvetica,sans-Serif" font-size="10.00">/ContactPhase.h</text>
</a>
</g>
</g>
<!-- Node25&#45;&gt;Node29 -->
<g id="edge37" class="edge">
<title>Node25&#45;&gt;Node29</title>
<path fill="none" stroke="midnightblue" d="M571,-391.4C571,-383.64 571,-373.81 571,-364.86"/>
<polygon fill="midnightblue" stroke="midnightblue" points="574.5,-364.58 571,-354.58 567.5,-364.58 574.5,-364.58"/>
</g>
<!-- Node30 -->
<g id="node30" class="node">
<title>Node30</title>
<g id="a_node30"><a xlink:title=" ">
<polygon fill="none" stroke="#bfbfbf" points="743.5,-330 743.5,-349 826.5,-349 826.5,-330 743.5,-330"/>
<text text-anchor="middle" x="785" y="-337" font-family="Helvetica,sans-Serif" font-size="10.00">initializer_list</text>
</a>
</g>
</g>
<!-- Node25&#45;&gt;Node30 -->
<g id="edge43" class="edge">
<title>Node25&#45;&gt;Node30</title>
<path fill="none" stroke="midnightblue" d="M617.17,-391.48C656.03,-379.67 710.92,-363 747.21,-351.98"/>
<polygon fill="midnightblue" stroke="midnightblue" points="748.37,-355.28 756.92,-349.03 746.34,-348.59 748.37,-355.28"/>
</g>
<!-- Node26&#45;&gt;Node3 -->
<g id="edge32" class="edge">
<title>Node26&#45;&gt;Node3</title>
<path fill="none" stroke="midnightblue" d="M690.31,-257.48C722.35,-247.56 765.5,-234.2 799.6,-223.65"/>
<polygon fill="midnightblue" stroke="midnightblue" points="800.89,-226.91 809.41,-220.61 798.82,-220.22 800.89,-226.91"/>
</g>
<!-- Node26&#45;&gt;Node8 -->
<g id="edge35" class="edge">
<title>Node26&#45;&gt;Node8</title>
<path fill="none" stroke="midnightblue" d="M619.88,-257.47C605.58,-248.51 588.15,-235.8 576,-221 560.33,-201.92 549.51,-175.3 543.54,-157.75"/>
<polygon fill="midnightblue" stroke="midnightblue" points="546.84,-156.58 540.44,-148.14 540.18,-158.73 546.84,-156.58"/>
</g>
<!-- Node26&#45;&gt;Node18 -->
<g id="edge36" class="edge">
<title>Node26&#45;&gt;Node18</title>
<path fill="none" stroke="midnightblue" d="M686.4,-257.4C703.03,-249.46 720.49,-237.71 730,-221 757.62,-172.46 699.15,-114.6 666.7,-87.68"/>
<polygon fill="midnightblue" stroke="midnightblue" points="668.69,-84.78 658.71,-81.23 664.29,-90.23 668.69,-84.78"/>
</g>
<!-- Node27 -->
<g id="node27" class="node">
<title>Node27</title>
<g id="a_node27"><a xlink:title=" ">
<polygon fill="none" stroke="#bfbfbf" points="585.5,-196 585.5,-215 670.5,-215 670.5,-196 585.5,-196"/>
<text text-anchor="middle" x="628" y="-203" font-family="Helvetica,sans-Serif" font-size="10.00">manif/manif.h</text>
</a>
</g>
</g>
<!-- Node26&#45;&gt;Node27 -->
<g id="edge33" class="edge">
<title>Node26&#45;&gt;Node27</title>
<path fill="none" stroke="midnightblue" d="M641.31,-257.4C638.84,-247.96 635.57,-235.45 632.89,-225.19"/>
<polygon fill="midnightblue" stroke="midnightblue" points="636.19,-223.98 630.27,-215.19 629.42,-225.75 636.19,-223.98"/>
</g>
<!-- Node28 -->
<g id="node28" class="node">
<title>Node28</title>
<g id="a_node28"><a xlink:title=" ">
<polygon fill="none" stroke="#bfbfbf" points="689,-196 689,-215 721,-215 721,-196 689,-196"/>
<text text-anchor="middle" x="705" y="-203" font-family="Helvetica,sans-Serif" font-size="10.00">set</text>
</a>
</g>
</g>
<!-- Node26&#45;&gt;Node28 -->
<g id="edge34" class="edge">
<title>Node26&#45;&gt;Node28</title>
<path fill="none" stroke="midnightblue" d="M658.02,-257.4C667.47,-247.16 680.27,-233.3 690.12,-222.62"/>
<polygon fill="midnightblue" stroke="midnightblue" points="692.76,-224.92 696.97,-215.19 687.62,-220.17 692.76,-224.92"/>
</g>
<!-- Node29&#45;&gt;Node3 -->
<g id="edge38" class="edge">
<title>Node29&#45;&gt;Node3</title>
<path fill="none" stroke="midnightblue" d="M631.66,-324.42C662.61,-316.02 700.31,-303.87 732,-288 753.07,-277.45 755.47,-270.18 775,-257 790.56,-246.5 808.17,-235.31 822.9,-226.14"/>
<polygon fill="midnightblue" stroke="midnightblue" points="824.99,-228.96 831.65,-220.71 821.31,-223 824.99,-228.96"/>
</g>
<!-- Node29&#45;&gt;Node8 -->
<g id="edge41" class="edge">
<title>Node29&#45;&gt;Node8</title>
<path fill="none" stroke="midnightblue" d="M566.91,-324.45C564.09,-314.38 560.43,-300.44 558,-288 548.97,-241.77 542.71,-186.66 539.82,-158.34"/>
<polygon fill="midnightblue" stroke="midnightblue" points="543.29,-157.87 538.82,-148.26 536.32,-158.56 543.29,-157.87"/>
</g>
<!-- Node29&#45;&gt;Node24 -->
<g id="edge40" class="edge">
<title>Node29&#45;&gt;Node24</title>
<path fill="none" stroke="midnightblue" d="M547.78,-324.4C529.67,-313.39 504.66,-298.2 486.69,-287.28"/>
<polygon fill="midnightblue" stroke="midnightblue" points="488.37,-284.21 478,-282.01 484.73,-290.19 488.37,-284.21"/>
</g>
<!-- Node29&#45;&gt;Node26 -->
<g id="edge39" class="edge">
<title>Node29&#45;&gt;Node26</title>
<path fill="none" stroke="midnightblue" d="M587.06,-324.4C597.04,-315.62 610.07,-304.18 621.24,-294.37"/>
<polygon fill="midnightblue" stroke="midnightblue" points="623.77,-296.81 628.97,-287.58 619.15,-291.55 623.77,-296.81"/>
</g>
</g>
</svg>
