<?xml version="1.0" encoding="UTF-8" standalone="no"?>
<!DOCTYPE svg PUBLIC "-//W3C//DTD SVG 1.1//EN"
 "http://www.w3.org/Graphics/SVG/1.1/DTD/svg11.dtd">
<!-- Generated by graphviz version 2.43.0 (0)
 -->
<!-- Title: ContinuousDynamicalSystem/include/BipedalLocomotion/ContinuousDynamicalSystem/FixedStepIntegrator.h Pages: 1 -->
<!--zoomable 452 -->
<svg id="main" version="1.1" xmlns="http://www.w3.org/2000/svg" xmlns:xlink="http://www.w3.org/1999/xlink" xml:space="preserve" onload="init(evt)">
<style type="text/css"><![CDATA[
.edge:hover path { stroke: red; }
.edge:hover polygon { stroke: red; fill: red; }
]]></style>
<script type="text/javascript"><![CDATA[
var edges = document.getElementsByTagName('g');
if (edges && edges.length) {
  for (var i=0;i<edges.length;i++) {
    if (edges[i].id.substr(0,4)=='edge') {
      edges[i].setAttribute('class','edge');
    }
  }
}
]]></script>
        <defs>
                <circle id="rim" cx="0" cy="0" r="7"/>
                <circle id="rim2" cx="0" cy="0" r="3.5"/>
                <g id="zoomPlus">
                        <use xlink:href="#rim" fill="#404040">
                                <set attributeName="fill" to="#808080" begin="zoomplus.mouseover" end="zoomplus.mouseout"/>
                        </use>
                        <path d="M-4,0h8M0,-4v8" fill="none" stroke="white" stroke-width="1.5" pointer-events="none"/>
                </g>
                <g id="zoomMin">
                        <use xlink:href="#rim" fill="#404040">
                                <set attributeName="fill" to="#808080" begin="zoomminus.mouseover" end="zoomminus.mouseout"/>
                        </use>
                        <path d="M-4,0h8" fill="none" stroke="white" stroke-width="1.5" pointer-events="none"/>
                </g>
                <g id="dirArrow">
                        <path fill="none" stroke="white" stroke-width="1.5" d="M0,-3.0v7 M-2.5,-0.5L0,-3.0L2.5,-0.5"/>
                </g>
               <g id="resetDef">
                       <use xlink:href="#rim2" fill="#404040">
                               <set attributeName="fill" to="#808080" begin="reset.mouseover" end="reset.mouseout"/>
                       </use>
               </g>
        </defs>

<script type="text/javascript">
var viewWidth = 860;
var viewHeight = 452;
var sectionId = 'dynsection-0';
</script>
<script xlink:href="svgpan.js"/>
<svg id="graph" class="graph">
<g id="viewport">
<title>ContinuousDynamicalSystem/include/BipedalLocomotion/ContinuousDynamicalSystem/FixedStepIntegrator.h</title>
<!-- Node1 -->
<g id="node1" class="node">
<title>Node1</title>
<g id="a_node1"><a xlink:title=" ">
<polygon fill="#bfbfbf" stroke="black" points="318.48,-391.5 318.48,-443.5 482.48,-443.5 482.48,-391.5 318.48,-391.5"/>
<text text-anchor="start" x="326.48" y="-431.5" font-family="Helvetica,sans-Serif" font-size="10.00">ContinuousDynamicalSystem</text>
<text text-anchor="start" x="326.48" y="-420.5" font-family="Helvetica,sans-Serif" font-size="10.00">/include/BipedalLocomotion</text>
<text text-anchor="start" x="326.48" y="-409.5" font-family="Helvetica,sans-Serif" font-size="10.00">/ContinuousDynamicalSystem</text>
<text text-anchor="middle" x="400.48" y="-398.5" font-family="Helvetica,sans-Serif" font-size="10.00">/FixedStepIntegrator.h</text>
</a>
</g>
</g>
<!-- Node2 -->
<g id="node2" class="node">
<title>Node2</title>
<g id="a_node2"><a xlink:title=" ">
<polygon fill="none" stroke="#bfbfbf" points="251.98,-330 251.98,-349 298.98,-349 298.98,-330 251.98,-330"/>
<text text-anchor="middle" x="275.48" y="-337" font-family="Helvetica,sans-Serif" font-size="10.00">cmath</text>
</a>
</g>
</g>
<!-- Node1&#45;&gt;Node2 -->
<g id="edge1" class="edge">
<title>Node1&#45;&gt;Node2</title>
<path fill="none" stroke="midnightblue" d="M359.2,-391.4C338.92,-379.07 315.26,-364.69 298.27,-354.36"/>
<polygon fill="midnightblue" stroke="midnightblue" points="299.95,-351.28 289.59,-349.08 296.31,-357.26 299.95,-351.28"/>
</g>
<!-- Node3 -->
<g id="node3" class="node">
<title>Node3</title>
<g id="a_node3"><a xlink:href="Integrator_8h.html" target="_top" xlink:title=" ">
<polygon fill="none" stroke="black" points="316.48,-324.5 316.48,-354.5 484.48,-354.5 484.48,-324.5 316.48,-324.5"/>
<text text-anchor="start" x="324.48" y="-342.5" font-family="Helvetica,sans-Serif" font-size="10.00">BipedalLocomotion/Continuous</text>
<text text-anchor="middle" x="400.48" y="-331.5" font-family="Helvetica,sans-Serif" font-size="10.00">DynamicalSystem/Integrator.h</text>
</a>
</g>
</g>
<!-- Node1&#45;&gt;Node3 -->
<g id="edge2" class="edge">
<title>Node1&#45;&gt;Node3</title>
<path fill="none" stroke="midnightblue" d="M400.48,-391.19C400.48,-382.79 400.48,-373.44 400.48,-365.09"/>
<polygon fill="midnightblue" stroke="midnightblue" points="403.98,-364.85 400.48,-354.85 396.98,-364.85 403.98,-364.85"/>
</g>
<!-- Node20 -->
<g id="node20" class="node">
<title>Node20</title>
<g id="a_node20"><a xlink:href="Logger_8h.html" target="_top" xlink:title=" ">
<polygon fill="none" stroke="black" points="623.48,-257.5 623.48,-287.5 795.48,-287.5 795.48,-257.5 623.48,-257.5"/>
<text text-anchor="start" x="631.48" y="-275.5" font-family="Helvetica,sans-Serif" font-size="10.00">BipedalLocomotion/TextLogging</text>
<text text-anchor="middle" x="709.48" y="-264.5" font-family="Helvetica,sans-Serif" font-size="10.00">/Logger.h</text>
</a>
</g>
</g>
<!-- Node1&#45;&gt;Node20 -->
<g id="edge31" class="edge">
<title>Node1&#45;&gt;Node20</title>
<path fill="none" stroke="midnightblue" d="M454.66,-391.43C516.05,-363.02 614.68,-317.37 669.49,-292.01"/>
<polygon fill="midnightblue" stroke="midnightblue" points="671.26,-295.04 678.87,-287.67 668.32,-288.69 671.26,-295.04"/>
</g>
<!-- Node4 -->
<g id="node4" class="node">
<title>Node4</title>
<g id="a_node4"><a xlink:title=" ">
<polygon fill="none" stroke="#bfbfbf" points="50.48,-62 50.48,-81 108.48,-81 108.48,-62 50.48,-62"/>
<text text-anchor="middle" x="79.48" y="-69" font-family="Helvetica,sans-Serif" font-size="10.00">memory</text>
</a>
</g>
</g>
<!-- Node3&#45;&gt;Node4 -->
<g id="edge3" class="edge">
<title>Node3&#45;&gt;Node4</title>
<path fill="none" stroke="midnightblue" d="M316.41,-325.26C239.23,-312.83 134.11,-295.12 115.48,-288 62.72,-267.82 34.94,-270.36 7.48,-221 -18.88,-173.63 33.06,-115.16 61.95,-87.88"/>
<polygon fill="midnightblue" stroke="midnightblue" points="64.4,-90.38 69.41,-81.04 59.67,-85.22 64.4,-90.38"/>
</g>
<!-- Node5 -->
<g id="node5" class="node">
<title>Node5</title>
<g id="a_node5"><a xlink:href="DynamicalSystem_8h.html" target="_top" xlink:title=" ">
<polygon fill="none" stroke="black" points="152.98,-257.5 152.98,-287.5 359.98,-287.5 359.98,-257.5 152.98,-257.5"/>
<text text-anchor="start" x="160.98" y="-275.5" font-family="Helvetica,sans-Serif" font-size="10.00">BipedalLocomotion/Continuous</text>
<text text-anchor="middle" x="256.48" y="-264.5" font-family="Helvetica,sans-Serif" font-size="10.00">DynamicalSystem/DynamicalSystem.h</text>
</a>
</g>
</g>
<!-- Node3&#45;&gt;Node5 -->
<g id="edge4" class="edge">
<title>Node3&#45;&gt;Node5</title>
<path fill="none" stroke="midnightblue" d="M369.23,-324.4C348,-314.81 319.73,-302.05 296.8,-291.7"/>
<polygon fill="midnightblue" stroke="midnightblue" points="298.22,-288.5 287.66,-287.58 295.34,-294.88 298.22,-288.5"/>
</g>
<!-- Node7 -->
<g id="node7" class="node">
<title>Node7</title>
<g id="a_node7"><a xlink:href="traits_8h.html" target="_top" xlink:title=" ">
<polygon fill="none" stroke="black" points="16.48,-190.5 16.48,-220.5 184.48,-220.5 184.48,-190.5 16.48,-190.5"/>
<text text-anchor="start" x="24.48" y="-208.5" font-family="Helvetica,sans-Serif" font-size="10.00">BipedalLocomotion/Continuous</text>
<text text-anchor="middle" x="100.48" y="-197.5" font-family="Helvetica,sans-Serif" font-size="10.00">DynamicalSystem/impl/traits.h</text>
</a>
</g>
</g>
<!-- Node3&#45;&gt;Node7 -->
<g id="edge25" class="edge">
<title>Node3&#45;&gt;Node7</title>
<path fill="none" stroke="midnightblue" d="M320.18,-324.44C247.5,-311.45 150.71,-293.38 143.48,-288 124.53,-273.9 113.13,-248.95 106.88,-230.36"/>
<polygon fill="midnightblue" stroke="midnightblue" points="110.22,-229.31 103.92,-220.8 103.53,-231.38 110.22,-229.31"/>
</g>
<!-- Node8 -->
<g id="node8" class="node">
<title>Node8</title>
<g id="a_node8"><a xlink:href="TemplateHelpers_8h_source.html" target="_top" xlink:title=" ">
<polygon fill="none" stroke="black" points="497.48,-56.5 497.48,-86.5 655.48,-86.5 655.48,-56.5 497.48,-56.5"/>
<text text-anchor="start" x="505.48" y="-74.5" font-family="Helvetica,sans-Serif" font-size="10.00">BipedalLocomotion/Generic</text>
<text text-anchor="middle" x="576.48" y="-63.5" font-family="Helvetica,sans-Serif" font-size="10.00">Container/TemplateHelpers.h</text>
</a>
</g>
</g>
<!-- Node3&#45;&gt;Node8 -->
<g id="edge26" class="edge">
<title>Node3&#45;&gt;Node8</title>
<path fill="none" stroke="midnightblue" d="M421.46,-324.35C459.93,-296.92 540.38,-232.28 568.48,-154 575.08,-135.63 576.9,-113.52 577.17,-96.96"/>
<polygon fill="midnightblue" stroke="midnightblue" points="580.67,-96.5 577.15,-86.51 573.67,-96.51 580.67,-96.5"/>
</g>
<!-- Node12 -->
<g id="node12" class="node">
<title>Node12</title>
<g id="a_node12"><a xlink:href="IParametersHandler_8h.html" target="_top" xlink:title=" ">
<polygon fill="none" stroke="black" points="315.98,-190.5 315.98,-220.5 484.98,-220.5 484.98,-190.5 315.98,-190.5"/>
<text text-anchor="start" x="323.98" y="-208.5" font-family="Helvetica,sans-Serif" font-size="10.00">BipedalLocomotion/Parameters</text>
<text text-anchor="middle" x="400.48" y="-197.5" font-family="Helvetica,sans-Serif" font-size="10.00">Handler/IParametersHandler.h</text>
</a>
</g>
</g>
<!-- Node3&#45;&gt;Node12 -->
<g id="edge27" class="edge">
<title>Node3&#45;&gt;Node12</title>
<path fill="none" stroke="midnightblue" d="M400.48,-324.37C400.48,-302.04 400.48,-258.31 400.48,-230.85"/>
<polygon fill="midnightblue" stroke="midnightblue" points="403.98,-230.52 400.48,-220.52 396.98,-230.52 403.98,-230.52"/>
</g>
<!-- Node3&#45;&gt;Node20 -->
<g id="edge28" class="edge">
<title>Node3&#45;&gt;Node20</title>
<path fill="none" stroke="midnightblue" d="M467.15,-324.48C515.8,-314.24 581.85,-300.35 632.71,-289.65"/>
<polygon fill="midnightblue" stroke="midnightblue" points="633.6,-293.04 642.66,-287.55 632.16,-286.19 633.6,-293.04"/>
</g>
<!-- Node5&#45;&gt;Node4 -->
<g id="edge5" class="edge">
<title>Node5&#45;&gt;Node4</title>
<path fill="none" stroke="midnightblue" d="M253.54,-257.32C249.28,-239.76 239.94,-209.76 222.48,-190 201.13,-165.83 185.02,-173.69 159.48,-154 145.69,-143.36 113.15,-108.94 94.09,-88.39"/>
<polygon fill="midnightblue" stroke="midnightblue" points="96.64,-86 87.29,-81.03 91.5,-90.75 96.64,-86"/>
</g>
<!-- Node6 -->
<g id="node6" class="node">
<title>Node6</title>
<g id="a_node6"><a xlink:title=" ">
<polygon fill="none" stroke="#bfbfbf" points="75.98,-129 75.98,-148 116.98,-148 116.98,-129 75.98,-129"/>
<text text-anchor="middle" x="96.48" y="-136" font-family="Helvetica,sans-Serif" font-size="10.00">tuple</text>
</a>
</g>
</g>
<!-- Node5&#45;&gt;Node6 -->
<g id="edge6" class="edge">
<title>Node5&#45;&gt;Node6</title>
<path fill="none" stroke="midnightblue" d="M248.2,-257.31C237.4,-239.74 217.08,-209.73 193.48,-190 182.16,-180.54 148.85,-163.96 124.41,-152.39"/>
<polygon fill="midnightblue" stroke="midnightblue" points="125.76,-149.15 115.22,-148.07 122.79,-155.49 125.76,-149.15"/>
</g>
<!-- Node5&#45;&gt;Node7 -->
<g id="edge7" class="edge">
<title>Node5&#45;&gt;Node7</title>
<path fill="none" stroke="midnightblue" d="M222.63,-257.4C199.43,-247.73 168.45,-234.82 143.5,-224.43"/>
<polygon fill="midnightblue" stroke="midnightblue" points="144.84,-221.19 134.26,-220.58 142.15,-227.65 144.84,-221.19"/>
</g>
<!-- Node5&#45;&gt;Node8 -->
<g id="edge9" class="edge">
<title>Node5&#45;&gt;Node8</title>
<path fill="none" stroke="midnightblue" d="M360.27,-257.93C413.67,-249.29 471.97,-236.76 493.48,-221 536.04,-189.81 559.62,-129.82 569.98,-96.43"/>
<polygon fill="midnightblue" stroke="midnightblue" points="573.41,-97.17 572.89,-86.59 566.7,-95.19 573.41,-97.17"/>
</g>
<!-- Node5&#45;&gt;Node12 -->
<g id="edge13" class="edge">
<title>Node5&#45;&gt;Node12</title>
<path fill="none" stroke="midnightblue" d="M287.73,-257.4C308.95,-247.81 337.23,-235.05 360.16,-224.7"/>
<polygon fill="midnightblue" stroke="midnightblue" points="361.62,-227.88 369.29,-220.58 358.74,-221.5 361.62,-227.88"/>
</g>
<!-- Node7&#45;&gt;Node6 -->
<g id="edge8" class="edge">
<title>Node7&#45;&gt;Node6</title>
<path fill="none" stroke="midnightblue" d="M99.61,-190.4C99.03,-180.96 98.26,-168.45 97.63,-158.19"/>
<polygon fill="midnightblue" stroke="midnightblue" points="101.12,-157.96 97.01,-148.19 94.14,-158.39 101.12,-157.96"/>
</g>
<!-- Node9 -->
<g id="node9" class="node">
<title>Node9</title>
<g id="a_node9"><a xlink:title=" ">
<polygon fill="none" stroke="#bfbfbf" points="452.98,-0.5 452.98,-19.5 521.98,-19.5 521.98,-0.5 452.98,-0.5"/>
<text text-anchor="middle" x="487.48" y="-7.5" font-family="Helvetica,sans-Serif" font-size="10.00">type_traits</text>
</a>
</g>
</g>
<!-- Node8&#45;&gt;Node9 -->
<g id="edge10" class="edge">
<title>Node8&#45;&gt;Node9</title>
<path fill="none" stroke="midnightblue" d="M555.39,-56.4C541.39,-47.04 523.07,-34.79 508.98,-25.38"/>
<polygon fill="midnightblue" stroke="midnightblue" points="510.69,-22.31 500.43,-19.66 506.8,-28.13 510.69,-22.31"/>
</g>
<!-- Node10 -->
<g id="node10" class="node">
<title>Node10</title>
<g id="a_node10"><a xlink:title=" ">
<polygon fill="none" stroke="#bfbfbf" points="539.98,-0.5 539.98,-19.5 612.98,-19.5 612.98,-0.5 539.98,-0.5"/>
<text text-anchor="middle" x="576.48" y="-7.5" font-family="Helvetica,sans-Serif" font-size="10.00">string_view</text>
</a>
</g>
</g>
<!-- Node8&#45;&gt;Node10 -->
<g id="edge11" class="edge">
<title>Node8&#45;&gt;Node10</title>
<path fill="none" stroke="midnightblue" d="M576.48,-56.4C576.48,-48.47 576.48,-38.46 576.48,-29.86"/>
<polygon fill="midnightblue" stroke="midnightblue" points="579.98,-29.66 576.48,-19.66 572.98,-29.66 579.98,-29.66"/>
</g>
<!-- Node11 -->
<g id="node11" class="node">
<title>Node11</title>
<g id="a_node11"><a xlink:title=" ">
<polygon fill="none" stroke="#bfbfbf" points="630.98,-0.5 630.98,-19.5 699.98,-19.5 699.98,-0.5 630.98,-0.5"/>
<text text-anchor="middle" x="665.48" y="-7.5" font-family="Helvetica,sans-Serif" font-size="10.00">Eigen/Core</text>
</a>
</g>
</g>
<!-- Node8&#45;&gt;Node11 -->
<g id="edge12" class="edge">
<title>Node8&#45;&gt;Node11</title>
<path fill="none" stroke="midnightblue" d="M597.57,-56.4C611.57,-47.04 629.89,-34.79 643.97,-25.38"/>
<polygon fill="midnightblue" stroke="midnightblue" points="646.16,-28.13 652.53,-19.66 642.27,-22.31 646.16,-28.13"/>
</g>
<!-- Node12&#45;&gt;Node4 -->
<g id="edge14" class="edge">
<title>Node12&#45;&gt;Node4</title>
<path fill="none" stroke="midnightblue" d="M316.69,-190.4C280.49,-182.49 238.31,-170.75 202.48,-154 181.14,-144.03 179.01,-136.18 159.48,-123 140.48,-110.17 118.41,-96.32 102.27,-86.37"/>
<polygon fill="midnightblue" stroke="midnightblue" points="103.87,-83.25 93.52,-81 100.21,-89.21 103.87,-83.25"/>
</g>
<!-- Node12&#45;&gt;Node8 -->
<g id="edge17" class="edge">
<title>Node12&#45;&gt;Node8</title>
<path fill="none" stroke="midnightblue" d="M435.15,-190.35C454.96,-181.43 479.71,-168.8 499.48,-154 522.51,-136.75 544.62,-112.25 559.19,-94.62"/>
<polygon fill="midnightblue" stroke="midnightblue" points="562.13,-96.56 565.71,-86.58 556.69,-92.15 562.13,-96.56"/>
</g>
<!-- Node13 -->
<g id="node13" class="node">
<title>Node13</title>
<g id="a_node13"><a xlink:title=" ">
<polygon fill="none" stroke="#bfbfbf" points="381.48,-129 381.48,-148 425.48,-148 425.48,-129 381.48,-129"/>
<text text-anchor="middle" x="403.48" y="-136" font-family="Helvetica,sans-Serif" font-size="10.00">string</text>
</a>
</g>
</g>
<!-- Node12&#45;&gt;Node13 -->
<g id="edge15" class="edge">
<title>Node12&#45;&gt;Node13</title>
<path fill="none" stroke="midnightblue" d="M401.13,-190.4C401.57,-180.96 402.14,-168.45 402.62,-158.19"/>
<polygon fill="midnightblue" stroke="midnightblue" points="406.11,-158.35 403.08,-148.19 399.12,-158.02 406.11,-158.35"/>
</g>
<!-- Node14 -->
<g id="node14" class="node">
<title>Node14</title>
<g id="a_node14"><a xlink:title=" ">
<polygon fill="none" stroke="#bfbfbf" points="443.98,-129 443.98,-148 490.98,-148 490.98,-129 443.98,-129"/>
<text text-anchor="middle" x="467.48" y="-136" font-family="Helvetica,sans-Serif" font-size="10.00">vector</text>
</a>
</g>
</g>
<!-- Node12&#45;&gt;Node14 -->
<g id="edge16" class="edge">
<title>Node12&#45;&gt;Node14</title>
<path fill="none" stroke="midnightblue" d="M415.02,-190.4C425.67,-180.06 440.14,-166.02 451.18,-155.31"/>
<polygon fill="midnightblue" stroke="midnightblue" points="453.78,-157.67 458.52,-148.19 448.9,-152.65 453.78,-157.67"/>
</g>
<!-- Node15 -->
<g id="node15" class="node">
<title>Node15</title>
<g id="a_node15"><a xlink:href="Vector_8h_source.html" target="_top" xlink:title=" ">
<polygon fill="none" stroke="black" points="211.98,-123.5 211.98,-153.5 362.98,-153.5 362.98,-123.5 211.98,-123.5"/>
<text text-anchor="start" x="219.98" y="-141.5" font-family="Helvetica,sans-Serif" font-size="10.00">BipedalLocomotion/Generic</text>
<text text-anchor="middle" x="287.48" y="-130.5" font-family="Helvetica,sans-Serif" font-size="10.00">Container/Vector.h</text>
</a>
</g>
</g>
<!-- Node12&#45;&gt;Node15 -->
<g id="edge18" class="edge">
<title>Node12&#45;&gt;Node15</title>
<path fill="none" stroke="midnightblue" d="M375.96,-190.4C359.82,-181.11 338.49,-168.84 320.81,-158.67"/>
<polygon fill="midnightblue" stroke="midnightblue" points="322.36,-155.53 311.95,-153.58 318.87,-161.6 322.36,-155.53"/>
</g>
<!-- Node15&#45;&gt;Node4 -->
<g id="edge24" class="edge">
<title>Node15&#45;&gt;Node4</title>
<path fill="none" stroke="midnightblue" d="M236.58,-123.47C202.64,-113.85 157.14,-100.44 117.48,-87 115.22,-86.24 112.9,-85.42 110.57,-84.58"/>
<polygon fill="midnightblue" stroke="midnightblue" points="111.67,-81.26 101.08,-81.07 109.24,-87.82 111.67,-81.26"/>
</g>
<!-- Node15&#45;&gt;Node8 -->
<g id="edge20" class="edge">
<title>Node15&#45;&gt;Node8</title>
<path fill="none" stroke="midnightblue" d="M349.83,-123.48C395.07,-113.3 456.39,-99.51 503.84,-88.84"/>
<polygon fill="midnightblue" stroke="midnightblue" points="504.75,-92.22 513.74,-86.61 503.22,-85.39 504.75,-92.22"/>
</g>
<!-- Node16 -->
<g id="node16" class="node">
<title>Node16</title>
<g id="a_node16"><a xlink:title=" ">
<polygon fill="none" stroke="#bfbfbf" points="204.98,-62 204.98,-81 325.98,-81 325.98,-62 204.98,-62"/>
<text text-anchor="middle" x="265.48" y="-69" font-family="Helvetica,sans-Serif" font-size="10.00">iDynTree/Core/Span.h</text>
</a>
</g>
</g>
<!-- Node15&#45;&gt;Node16 -->
<g id="edge19" class="edge">
<title>Node15&#45;&gt;Node16</title>
<path fill="none" stroke="midnightblue" d="M282.71,-123.4C279.48,-113.86 275.19,-101.18 271.69,-90.86"/>
<polygon fill="midnightblue" stroke="midnightblue" points="274.94,-89.54 268.42,-81.19 268.31,-91.79 274.94,-89.54"/>
</g>
<!-- Node17 -->
<g id="node17" class="node">
<title>Node17</title>
<g id="a_node17"><a xlink:title=" ">
<polygon fill="none" stroke="#bfbfbf" points="343.98,-62 343.98,-81 408.98,-81 408.98,-62 343.98,-62"/>
<text text-anchor="middle" x="376.48" y="-69" font-family="Helvetica,sans-Serif" font-size="10.00">functional</text>
</a>
</g>
</g>
<!-- Node15&#45;&gt;Node17 -->
<g id="edge21" class="edge">
<title>Node15&#45;&gt;Node17</title>
<path fill="none" stroke="midnightblue" d="M306.79,-123.4C321.44,-112.7 341.52,-98.03 356.36,-87.19"/>
<polygon fill="midnightblue" stroke="midnightblue" points="358.82,-89.73 364.83,-81.01 354.69,-84.08 358.82,-89.73"/>
</g>
<!-- Node18 -->
<g id="node18" class="node">
<title>Node18</title>
<g id="a_node18"><a xlink:title=" ">
<polygon fill="none" stroke="#bfbfbf" points="427.48,-62 427.48,-81 479.48,-81 479.48,-62 427.48,-62"/>
<text text-anchor="middle" x="453.48" y="-69" font-family="Helvetica,sans-Serif" font-size="10.00">cassert</text>
</a>
</g>
</g>
<!-- Node15&#45;&gt;Node18 -->
<g id="edge22" class="edge">
<title>Node15&#45;&gt;Node18</title>
<path fill="none" stroke="midnightblue" d="M323.95,-123.47C350.03,-113.4 385.96,-99.47 417.48,-87 419.12,-86.35 420.79,-85.69 422.49,-85.01"/>
<polygon fill="midnightblue" stroke="midnightblue" points="424.19,-88.1 432.18,-81.13 421.59,-81.6 424.19,-88.1"/>
</g>
<!-- Node19 -->
<g id="node19" class="node">
<title>Node19</title>
<g id="a_node19"><a xlink:title=" ">
<polygon fill="none" stroke="#bfbfbf" points="126.48,-62 126.48,-81 186.48,-81 186.48,-62 126.48,-62"/>
<text text-anchor="middle" x="156.48" y="-69" font-family="Helvetica,sans-Serif" font-size="10.00">iostream</text>
</a>
</g>
</g>
<!-- Node15&#45;&gt;Node19 -->
<g id="edge23" class="edge">
<title>Node15&#45;&gt;Node19</title>
<path fill="none" stroke="midnightblue" d="M259.05,-123.4C236.37,-112.14 204.85,-96.5 182.75,-85.54"/>
<polygon fill="midnightblue" stroke="midnightblue" points="184.14,-82.32 173.62,-81.01 181.03,-88.59 184.14,-82.32"/>
</g>
<!-- Node21 -->
<g id="node21" class="node">
<title>Node21</title>
<g id="a_node21"><a xlink:title=" ">
<polygon fill="none" stroke="#bfbfbf" points="641.98,-196 641.98,-215 740.98,-215 740.98,-196 641.98,-196"/>
<text text-anchor="middle" x="691.48" y="-203" font-family="Helvetica,sans-Serif" font-size="10.00">spdlog/fmt/ostr.h</text>
</a>
</g>
</g>
<!-- Node20&#45;&gt;Node21 -->
<g id="edge29" class="edge">
<title>Node20&#45;&gt;Node21</title>
<path fill="none" stroke="midnightblue" d="M705.57,-257.4C702.93,-247.86 699.42,-235.18 696.56,-224.86"/>
<polygon fill="midnightblue" stroke="midnightblue" points="699.93,-223.9 693.89,-215.19 693.18,-225.77 699.93,-223.9"/>
</g>
<!-- Node22 -->
<g id="node22" class="node">
<title>Node22</title>
<g id="a_node22"><a xlink:title=" ">
<polygon fill="none" stroke="#bfbfbf" points="758.98,-196 758.98,-215 851.98,-215 851.98,-196 758.98,-196"/>
<text text-anchor="middle" x="805.48" y="-203" font-family="Helvetica,sans-Serif" font-size="10.00">spdlog/spdlog.h</text>
</a>
</g>
</g>
<!-- Node20&#45;&gt;Node22 -->
<g id="edge30" class="edge">
<title>Node20&#45;&gt;Node22</title>
<path fill="none" stroke="midnightblue" d="M730.31,-257.4C746.26,-246.6 768.18,-231.76 784.23,-220.89"/>
<polygon fill="midnightblue" stroke="midnightblue" points="786.6,-223.51 792.92,-215.01 782.67,-217.72 786.6,-223.51"/>
</g>
</g>
</svg>
        <g id="navigator" transform="translate(0 0)" fill="#404254">
                <rect fill="#f2f5e9" fill-opacity="0.5" stroke="#606060" stroke-width=".5" x="0" y="0" width="60" height="60"/>
                <use id="zoomplus" xlink:href="#zoomPlus" x="17" y="9" onmousedown="handleZoom(evt,'in')"/>
                <use id="zoomminus" xlink:href="#zoomMin" x="42" y="9" onmousedown="handleZoom(evt,'out')"/>
                <use id="reset" xlink:href="#resetDef" x="30" y="36" onmousedown="handleReset()"/>
                <g id="arrowUp" xlink:href="#dirArrow" transform="translate(30 24)" onmousedown="handlePan(0,-1)">
                  <use xlink:href="#rim" fill="#404040">
                        <set attributeName="fill" to="#808080" begin="arrowUp.mouseover" end="arrowUp.mouseout"/>
                  </use>
                  <path fill="none" stroke="white" stroke-width="1.5" d="M0,-3.0v7 M-2.5,-0.5L0,-3.0L2.5,-0.5"/>
                </g>
                <g id="arrowRight" xlink:href="#dirArrow" transform="rotate(90) translate(36 -43)" onmousedown="handlePan(1,0)">
                  <use xlink:href="#rim" fill="#404040">
                        <set attributeName="fill" to="#808080" begin="arrowRight.mouseover" end="arrowRight.mouseout"/>
                  </use>
                  <path fill="none" stroke="white" stroke-width="1.5" d="M0,-3.0v7 M-2.5,-0.5L0,-3.0L2.5,-0.5"/>
                </g>
                <g id="arrowDown" xlink:href="#dirArrow" transform="rotate(180) translate(-30 -48)" onmousedown="handlePan(0,1)">
                  <use xlink:href="#rim" fill="#404040">
                        <set attributeName="fill" to="#808080" begin="arrowDown.mouseover" end="arrowDown.mouseout"/>
                  </use>
                  <path fill="none" stroke="white" stroke-width="1.5" d="M0,-3.0v7 M-2.5,-0.5L0,-3.0L2.5,-0.5"/>
                </g>
                <g id="arrowLeft" xlink:href="#dirArrow" transform="rotate(270) translate(-36 17)" onmousedown="handlePan(-1,0)">
                  <use xlink:href="#rim" fill="#404040">
                        <set attributeName="fill" to="#808080" begin="arrowLeft.mouseover" end="arrowLeft.mouseout"/>
                  </use>
                  <path fill="none" stroke="white" stroke-width="1.5" d="M0,-3.0v7 M-2.5,-0.5L0,-3.0L2.5,-0.5"/>
                </g>
        </g>
        <svg viewBox="0 0 15 15" width="100%" height="30px" preserveAspectRatio="xMaxYMin meet">
         <g id="arrow_out" transform="scale(0.3 0.3)">
          <a xlink:href="FixedStepIntegrator_8h__incl_org.svg" target="_base">
           <rect id="button" ry="5" rx="5" y="6" x="6" height="38" width="38"
                fill="#f2f5e9" fill-opacity="0.5" stroke="#606060" stroke-width="1.0"/>
           <path id="arrow"
             d="M 11.500037,31.436501 C 11.940474,20.09759 22.043105,11.32322 32.158766,21.979434 L 37.068811,17.246167 C 37.068811,17.246167 37.088388,32 37.088388,32 L 22.160133,31.978069 C 22.160133,31.978069 26.997745,27.140456 26.997745,27.140456 C 18.528582,18.264221 13.291696,25.230495 11.500037,31.436501 z"
             style="fill:#404040;"/>
          </a>
         </g>
        </svg>
</svg>
