<?xml version="1.0" encoding="UTF-8" standalone="no"?>
<!DOCTYPE svg PUBLIC "-//W3C//DTD SVG 1.1//EN"
 "http://www.w3.org/Graphics/SVG/1.1/DTD/svg11.dtd">
<!-- Generated by graphviz version 2.43.0 (0)
 -->
<!-- Title: ContinuousDynamicalSystem/include/BipedalLocomotion/ContinuousDynamicalSystem/FixedBaseDynamics.h Pages: 1 -->
<!--zoomable 463 -->
<svg id="main" version="1.1" xmlns="http://www.w3.org/2000/svg" xmlns:xlink="http://www.w3.org/1999/xlink" xml:space="preserve" onload="init(evt)">
<style type="text/css"><![CDATA[
.edge:hover path { stroke: red; }
.edge:hover polygon { stroke: red; fill: red; }
]]></style>
<script type="text/javascript"><![CDATA[
var edges = document.getElementsByTagName('g');
if (edges && edges.length) {
  for (var i=0;i<edges.length;i++) {
    if (edges[i].id.substr(0,4)=='edge') {
      edges[i].setAttribute('class','edge');
    }
  }
}
]]></script>
        <defs>
                <circle id="rim" cx="0" cy="0" r="7"/>
                <circle id="rim2" cx="0" cy="0" r="3.5"/>
                <g id="zoomPlus">
                        <use xlink:href="#rim" fill="#404040">
                                <set attributeName="fill" to="#808080" begin="zoomplus.mouseover" end="zoomplus.mouseout"/>
                        </use>
                        <path d="M-4,0h8M0,-4v8" fill="none" stroke="white" stroke-width="1.5" pointer-events="none"/>
                </g>
                <g id="zoomMin">
                        <use xlink:href="#rim" fill="#404040">
                                <set attributeName="fill" to="#808080" begin="zoomminus.mouseover" end="zoomminus.mouseout"/>
                        </use>
                        <path d="M-4,0h8" fill="none" stroke="white" stroke-width="1.5" pointer-events="none"/>
                </g>
                <g id="dirArrow">
                        <path fill="none" stroke="white" stroke-width="1.5" d="M0,-3.0v7 M-2.5,-0.5L0,-3.0L2.5,-0.5"/>
                </g>
               <g id="resetDef">
                       <use xlink:href="#rim2" fill="#404040">
                               <set attributeName="fill" to="#808080" begin="reset.mouseover" end="reset.mouseout"/>
                       </use>
               </g>
        </defs>

<script type="text/javascript">
var viewWidth = 1847;
var viewHeight = 463;
var sectionId = 'dynsection-0';
</script>
<script xlink:href="svgpan.js"/>
<svg id="graph" class="graph">
<g id="viewport">
<title>ContinuousDynamicalSystem/include/BipedalLocomotion/ContinuousDynamicalSystem/FixedBaseDynamics.h</title>
<!-- Node1 -->
<g id="node1" class="node">
<title>Node1</title>
<g id="a_node1"><a xlink:title=" ">
<polygon fill="#bfbfbf" stroke="black" points="756.5,-402.5 756.5,-454.5 920.5,-454.5 920.5,-402.5 756.5,-402.5"/>
<text text-anchor="start" x="764.5" y="-442.5" font-family="Helvetica,sans-Serif" font-size="10.00">ContinuousDynamicalSystem</text>
<text text-anchor="start" x="764.5" y="-431.5" font-family="Helvetica,sans-Serif" font-size="10.00">/include/BipedalLocomotion</text>
<text text-anchor="start" x="764.5" y="-420.5" font-family="Helvetica,sans-Serif" font-size="10.00">/ContinuousDynamicalSystem</text>
<text text-anchor="middle" x="838.5" y="-409.5" font-family="Helvetica,sans-Serif" font-size="10.00">/FixedBaseDynamics.h</text>
</a>
</g>
</g>
<!-- Node2 -->
<g id="node2" class="node">
<title>Node2</title>
<g id="a_node2"><a xlink:title=" ">
<polygon fill="none" stroke="#bfbfbf" points="626.5,-62 626.5,-81 684.5,-81 684.5,-62 626.5,-62"/>
<text text-anchor="middle" x="655.5" y="-69" font-family="Helvetica,sans-Serif" font-size="10.00">memory</text>
</a>
</g>
</g>
<!-- Node1&#45;&gt;Node2 -->
<g id="edge1" class="edge">
<title>Node1&#45;&gt;Node2</title>
<path fill="none" stroke="midnightblue" d="M920.79,-412.42C1117.26,-376.43 1597.52,-288.42 1598.5,-288 1653.74,-264.46 1726.46,-238.82 1691.5,-190 1637.65,-114.81 1585.25,-140.83 1494.5,-123 1338.4,-92.33 839.56,-77.27 695.07,-73.48"/>
<polygon fill="midnightblue" stroke="midnightblue" points="694.98,-69.98 684.9,-73.22 694.8,-76.97 694.98,-69.98"/>
</g>
<!-- Node3 -->
<g id="node3" class="node">
<title>Node3</title>
<g id="a_node3"><a xlink:title=" ">
<polygon fill="none" stroke="#bfbfbf" points="152,-196 152,-215 193,-215 193,-196 152,-196"/>
<text text-anchor="middle" x="172.5" y="-203" font-family="Helvetica,sans-Serif" font-size="10.00">tuple</text>
</a>
</g>
</g>
<!-- Node1&#45;&gt;Node3 -->
<g id="edge2" class="edge">
<title>Node1&#45;&gt;Node3</title>
<path fill="none" stroke="midnightblue" d="M756.42,-404.74C634.02,-369.94 397.2,-299.24 202.5,-221 201.12,-220.45 199.72,-219.86 198.32,-219.25"/>
<polygon fill="midnightblue" stroke="midnightblue" points="199.69,-216.03 189.14,-215.04 196.77,-222.39 199.69,-216.03"/>
</g>
<!-- Node4 -->
<g id="node4" class="node">
<title>Node4</title>
<g id="a_node4"><a xlink:title=" ">
<polygon fill="none" stroke="#bfbfbf" points="43,-129 43,-148 90,-148 90,-129 43,-129"/>
<text text-anchor="middle" x="66.5" y="-136" font-family="Helvetica,sans-Serif" font-size="10.00">vector</text>
</a>
</g>
</g>
<!-- Node1&#45;&gt;Node4 -->
<g id="edge3" class="edge">
<title>Node1&#45;&gt;Node4</title>
<path fill="none" stroke="midnightblue" d="M756.29,-425.47C599.66,-420.72 264.47,-406.09 156.5,-366 100.65,-345.26 74.74,-340.98 47.5,-288 25.49,-245.18 45.28,-186.57 57.9,-157.45"/>
<polygon fill="midnightblue" stroke="midnightblue" points="61.19,-158.69 62.14,-148.13 54.81,-155.79 61.19,-158.69"/>
</g>
<!-- Node5 -->
<g id="node5" class="node">
<title>Node5</title>
<g id="a_node5"><a xlink:href="CompliantContactWrench_8h.html" target="_top" xlink:title=" ">
<polygon fill="none" stroke="black" points="740,-324.5 740,-365.5 937,-365.5 937,-324.5 740,-324.5"/>
<text text-anchor="start" x="748" y="-353.5" font-family="Helvetica,sans-Serif" font-size="10.00">BipedalLocomotion/Continuous</text>
<text text-anchor="start" x="748" y="-342.5" font-family="Helvetica,sans-Serif" font-size="10.00">DynamicalSystem/CompliantContact</text>
<text text-anchor="middle" x="838.5" y="-331.5" font-family="Helvetica,sans-Serif" font-size="10.00">Wrench.h</text>
</a>
</g>
</g>
<!-- Node1&#45;&gt;Node5 -->
<g id="edge4" class="edge">
<title>Node1&#45;&gt;Node5</title>
<path fill="none" stroke="midnightblue" d="M838.5,-402.16C838.5,-393.79 838.5,-384.4 838.5,-375.73"/>
<polygon fill="midnightblue" stroke="midnightblue" points="842,-375.63 838.5,-365.63 835,-375.63 842,-375.63"/>
</g>
<!-- Node27 -->
<g id="node27" class="node">
<title>Node27</title>
<g id="a_node27"><a xlink:href="DynamicalSystem_8h.html" target="_top" xlink:title=" ">
<polygon fill="none" stroke="black" points="206,-330 206,-360 413,-360 413,-330 206,-330"/>
<text text-anchor="start" x="214" y="-348" font-family="Helvetica,sans-Serif" font-size="10.00">BipedalLocomotion/Continuous</text>
<text text-anchor="middle" x="309.5" y="-337" font-family="Helvetica,sans-Serif" font-size="10.00">DynamicalSystem/DynamicalSystem.h</text>
</a>
</g>
</g>
<!-- Node1&#45;&gt;Node27 -->
<g id="edge33" class="edge">
<title>Node1&#45;&gt;Node27</title>
<path fill="none" stroke="midnightblue" d="M756.42,-414.86C663.27,-400.5 511.27,-377.09 410.81,-361.61"/>
<polygon fill="midnightblue" stroke="midnightblue" points="411.07,-358.11 400.65,-360.04 410,-365.02 411.07,-358.11"/>
</g>
<!-- Node28 -->
<g id="node28" class="node">
<title>Node28</title>
<g id="a_node28"><a xlink:href="traits_8h.html" target="_top" xlink:title=" ">
<polygon fill="none" stroke="black" points="56.5,-257.5 56.5,-287.5 224.5,-287.5 224.5,-257.5 56.5,-257.5"/>
<text text-anchor="start" x="64.5" y="-275.5" font-family="Helvetica,sans-Serif" font-size="10.00">BipedalLocomotion/Continuous</text>
<text text-anchor="middle" x="140.5" y="-264.5" font-family="Helvetica,sans-Serif" font-size="10.00">DynamicalSystem/impl/traits.h</text>
</a>
</g>
</g>
<!-- Node1&#45;&gt;Node28 -->
<g id="edge40" class="edge">
<title>Node1&#45;&gt;Node28</title>
<path fill="none" stroke="midnightblue" d="M756.41,-423.69C594.14,-415.57 243.94,-394.93 197.5,-366 172.34,-350.33 156.6,-319.05 148.18,-297.23"/>
<polygon fill="midnightblue" stroke="midnightblue" points="151.42,-295.88 144.73,-287.67 144.84,-298.26 151.42,-295.88"/>
</g>
<!-- Node29 -->
<g id="node29" class="node">
<title>Node29</title>
<g id="a_node29"><a xlink:href="Constants_8h.html" target="_top" xlink:title=" ">
<polygon fill="none" stroke="black" points="1412.5,-330 1412.5,-360 1550.5,-360 1550.5,-330 1412.5,-330"/>
<text text-anchor="start" x="1420.5" y="-348" font-family="Helvetica,sans-Serif" font-size="10.00">BipedalLocomotion/Math</text>
<text text-anchor="middle" x="1481.5" y="-337" font-family="Helvetica,sans-Serif" font-size="10.00">/Constants.h</text>
</a>
</g>
</g>
<!-- Node1&#45;&gt;Node29 -->
<g id="edge41" class="edge">
<title>Node1&#45;&gt;Node29</title>
<path fill="none" stroke="midnightblue" d="M920.57,-421.77C1030.11,-413.38 1229.89,-395.45 1398.5,-366 1404.73,-364.91 1411.19,-363.63 1417.62,-362.25"/>
<polygon fill="midnightblue" stroke="midnightblue" points="1418.68,-365.6 1427.68,-360.02 1417.16,-358.77 1418.68,-365.6"/>
</g>
<!-- Node30 -->
<g id="node30" class="node">
<title>Node30</title>
<g id="a_node30"><a xlink:title=" ">
<polygon fill="none" stroke="#bfbfbf" points="1569,-335.5 1569,-354.5 1646,-354.5 1646,-335.5 1569,-335.5"/>
<text text-anchor="middle" x="1607.5" y="-342.5" font-family="Helvetica,sans-Serif" font-size="10.00">Eigen/Dense</text>
</a>
</g>
</g>
<!-- Node1&#45;&gt;Node30 -->
<g id="edge42" class="edge">
<title>Node1&#45;&gt;Node30</title>
<path fill="none" stroke="midnightblue" d="M920.6,-423.69C1083.09,-415.63 1440.29,-395.16 1559.5,-366 1566.69,-364.24 1574.19,-361.56 1581.08,-358.72"/>
<polygon fill="midnightblue" stroke="midnightblue" points="1582.85,-361.77 1590.61,-354.55 1580.04,-355.36 1582.85,-361.77"/>
</g>
<!-- Node31 -->
<g id="node31" class="node">
<title>Node31</title>
<g id="a_node31"><a xlink:title=" ">
<polygon fill="none" stroke="#bfbfbf" points="1664,-335.5 1664,-354.5 1839,-354.5 1839,-335.5 1664,-335.5"/>
<text text-anchor="middle" x="1751.5" y="-342.5" font-family="Helvetica,sans-Serif" font-size="10.00">iDynTree/KinDynComputations.h</text>
</a>
</g>
</g>
<!-- Node1&#45;&gt;Node31 -->
<g id="edge43" class="edge">
<title>Node1&#45;&gt;Node31</title>
<path fill="none" stroke="midnightblue" d="M920.63,-424.86C1068.32,-419.32 1388.25,-403.73 1655.5,-366 1672.09,-363.66 1690.12,-360.16 1706.02,-356.74"/>
<polygon fill="midnightblue" stroke="midnightblue" points="1707.12,-360.08 1716.13,-354.52 1705.61,-353.25 1707.12,-360.08"/>
</g>
<!-- Node5&#45;&gt;Node2 -->
<g id="edge5" class="edge">
<title>Node5&#45;&gt;Node2</title>
<path fill="none" stroke="midnightblue" d="M937.01,-341.5C1178.43,-333.61 1772.84,-302.61 1672.5,-190 1606.09,-115.47 873.07,-81.26 694.53,-74"/>
<polygon fill="midnightblue" stroke="midnightblue" points="694.66,-70.5 684.53,-73.6 694.38,-77.5 694.66,-70.5"/>
</g>
<!-- Node6 -->
<g id="node6" class="node">
<title>Node6</title>
<g id="a_node6"><a xlink:href="ContactModel_8h.html" target="_top" xlink:title=" ">
<polygon fill="none" stroke="black" points="763,-257.5 763,-287.5 914,-287.5 914,-257.5 763,-257.5"/>
<text text-anchor="start" x="771" y="-275.5" font-family="Helvetica,sans-Serif" font-size="10.00">BipedalLocomotion/Contact</text>
<text text-anchor="middle" x="838.5" y="-264.5" font-family="Helvetica,sans-Serif" font-size="10.00">Models/ContactModel.h</text>
</a>
</g>
</g>
<!-- Node5&#45;&gt;Node6 -->
<g id="edge6" class="edge">
<title>Node5&#45;&gt;Node6</title>
<path fill="none" stroke="midnightblue" d="M838.5,-324.36C838.5,-316.23 838.5,-306.7 838.5,-298.11"/>
<polygon fill="midnightblue" stroke="midnightblue" points="842,-297.89 838.5,-287.89 835,-297.89 842,-297.89"/>
</g>
<!-- Node26 -->
<g id="node26" class="node">
<title>Node26</title>
<g id="a_node26"><a xlink:title=" ">
<polygon fill="none" stroke="#bfbfbf" points="606,-263 606,-282 745,-282 745,-263 606,-263"/>
<text text-anchor="middle" x="675.5" y="-270" font-family="Helvetica,sans-Serif" font-size="10.00">iDynTree/Model/Indices.h</text>
</a>
</g>
</g>
<!-- Node5&#45;&gt;Node26 -->
<g id="edge32" class="edge">
<title>Node5&#45;&gt;Node26</title>
<path fill="none" stroke="midnightblue" d="M793.1,-324.36C764.95,-312.19 729.6,-296.9 705.04,-286.28"/>
<polygon fill="midnightblue" stroke="midnightblue" points="706.12,-282.93 695.55,-282.17 703.34,-289.36 706.12,-282.93"/>
</g>
<!-- Node6&#45;&gt;Node2 -->
<g id="edge8" class="edge">
<title>Node6&#45;&gt;Node2</title>
<path fill="none" stroke="midnightblue" d="M772.55,-257.5C750.12,-249.91 726.47,-238.38 709.5,-221 673.82,-184.44 661.48,-122.5 657.4,-91.44"/>
<polygon fill="midnightblue" stroke="midnightblue" points="660.83,-90.7 656.21,-81.17 653.88,-91.5 660.83,-90.7"/>
</g>
<!-- Node7 -->
<g id="node7" class="node">
<title>Node7</title>
<g id="a_node7"><a xlink:title=" ">
<polygon fill="none" stroke="#bfbfbf" points="588,-196 588,-215 623,-215 623,-196 588,-196"/>
<text text-anchor="middle" x="605.5" y="-203" font-family="Helvetica,sans-Serif" font-size="10.00">any</text>
</a>
</g>
</g>
<!-- Node6&#45;&gt;Node7 -->
<g id="edge7" class="edge">
<title>Node6&#45;&gt;Node7</title>
<path fill="none" stroke="midnightblue" d="M769.69,-257.42C730.45,-248.6 680.64,-236.06 637.5,-221 635.84,-220.42 634.14,-219.79 632.44,-219.12"/>
<polygon fill="midnightblue" stroke="midnightblue" points="633.45,-215.74 622.87,-215.05 630.71,-222.18 633.45,-215.74"/>
</g>
<!-- Node8 -->
<g id="node8" class="node">
<title>Node8</title>
<g id="a_node8"><a xlink:title=" ">
<polygon fill="none" stroke="#bfbfbf" points="534.5,-129 534.5,-148 578.5,-148 578.5,-129 534.5,-129"/>
<text text-anchor="middle" x="556.5" y="-136" font-family="Helvetica,sans-Serif" font-size="10.00">string</text>
</a>
</g>
</g>
<!-- Node6&#45;&gt;Node8 -->
<g id="edge9" class="edge">
<title>Node6&#45;&gt;Node8</title>
<path fill="none" stroke="midnightblue" d="M776.7,-257.42C745.43,-249.05 707.45,-236.93 675.5,-221 654.42,-210.49 651.87,-203.41 632.5,-190 614.49,-177.53 593.76,-163.79 578.5,-153.8"/>
<polygon fill="midnightblue" stroke="midnightblue" points="580.07,-150.64 569.78,-148.11 576.24,-156.51 580.07,-150.64"/>
</g>
<!-- Node9 -->
<g id="node9" class="node">
<title>Node9</title>
<g id="a_node9"><a xlink:title=" ">
<polygon fill="none" stroke="#bfbfbf" points="718,-196 718,-215 811,-215 811,-196 718,-196"/>
<text text-anchor="middle" x="764.5" y="-203" font-family="Helvetica,sans-Serif" font-size="10.00">unordered_map</text>
</a>
</g>
</g>
<!-- Node6&#45;&gt;Node9 -->
<g id="edge10" class="edge">
<title>Node6&#45;&gt;Node9</title>
<path fill="none" stroke="midnightblue" d="M822.44,-257.4C810.56,-246.96 794.39,-232.75 782.14,-222"/>
<polygon fill="midnightblue" stroke="midnightblue" points="784.22,-219.16 774.4,-215.19 779.6,-224.42 784.22,-219.16"/>
</g>
<!-- Node10 -->
<g id="node10" class="node">
<title>Node10</title>
<g id="a_node10"><a xlink:title=" ">
<polygon fill="none" stroke="#bfbfbf" points="829.5,-196 829.5,-215 997.5,-215 997.5,-196 829.5,-196"/>
<text text-anchor="middle" x="913.5" y="-203" font-family="Helvetica,sans-Serif" font-size="10.00">iDynTree/Core/MatrixDynSize.h</text>
</a>
</g>
</g>
<!-- Node6&#45;&gt;Node10 -->
<g id="edge11" class="edge">
<title>Node6&#45;&gt;Node10</title>
<path fill="none" stroke="midnightblue" d="M854.77,-257.4C866.82,-246.96 883.21,-232.75 895.62,-222"/>
<polygon fill="midnightblue" stroke="midnightblue" points="898.2,-224.39 903.47,-215.19 893.62,-219.1 898.2,-224.39"/>
</g>
<!-- Node11 -->
<g id="node11" class="node">
<title>Node11</title>
<g id="a_node11"><a xlink:title=" ">
<polygon fill="none" stroke="#bfbfbf" points="1016,-196 1016,-215 1179,-215 1179,-196 1016,-196"/>
<text text-anchor="middle" x="1097.5" y="-203" font-family="Helvetica,sans-Serif" font-size="10.00">iDynTree/Core/MatrixFixSize.h</text>
</a>
</g>
</g>
<!-- Node6&#45;&gt;Node11 -->
<g id="edge12" class="edge">
<title>Node6&#45;&gt;Node11</title>
<path fill="none" stroke="midnightblue" d="M894.38,-257.48C942.12,-245.5 1009.83,-228.5 1053.72,-217.49"/>
<polygon fill="midnightblue" stroke="midnightblue" points="1054.67,-220.86 1063.52,-215.03 1052.97,-214.07 1054.67,-220.86"/>
</g>
<!-- Node12 -->
<g id="node12" class="node">
<title>Node12</title>
<g id="a_node12"><a xlink:title=" ">
<polygon fill="none" stroke="#bfbfbf" points="1197.5,-196 1197.5,-215 1343.5,-215 1343.5,-196 1197.5,-196"/>
<text text-anchor="middle" x="1270.5" y="-203" font-family="Helvetica,sans-Serif" font-size="10.00">iDynTree/Core/Transform.h</text>
</a>
</g>
</g>
<!-- Node6&#45;&gt;Node12 -->
<g id="edge13" class="edge">
<title>Node6&#45;&gt;Node12</title>
<path fill="none" stroke="midnightblue" d="M914.05,-261.3C985,-251.56 1094.09,-236.15 1188.5,-221 1196.71,-219.68 1205.37,-218.23 1213.86,-216.76"/>
<polygon fill="midnightblue" stroke="midnightblue" points="1214.46,-220.21 1223.71,-215.04 1213.26,-213.31 1214.46,-220.21"/>
</g>
<!-- Node13 -->
<g id="node13" class="node">
<title>Node13</title>
<g id="a_node13"><a xlink:title=" ">
<polygon fill="none" stroke="#bfbfbf" points="1361.5,-196 1361.5,-215 1483.5,-215 1483.5,-196 1361.5,-196"/>
<text text-anchor="middle" x="1422.5" y="-203" font-family="Helvetica,sans-Serif" font-size="10.00">iDynTree/Core/Twist.h</text>
</a>
</g>
</g>
<!-- Node6&#45;&gt;Node13 -->
<g id="edge14" class="edge">
<title>Node6&#45;&gt;Node13</title>
<path fill="none" stroke="midnightblue" d="M914.15,-266.6C1014.66,-259.5 1197.59,-244.59 1352.5,-221 1359.75,-219.9 1367.39,-218.53 1374.85,-217.08"/>
<polygon fill="midnightblue" stroke="midnightblue" points="1375.74,-220.47 1384.85,-215.06 1374.36,-213.61 1375.74,-220.47"/>
</g>
<!-- Node14 -->
<g id="node14" class="node">
<title>Node14</title>
<g id="a_node14"><a xlink:title=" ">
<polygon fill="none" stroke="#bfbfbf" points="1501.5,-196 1501.5,-215 1663.5,-215 1663.5,-196 1501.5,-196"/>
<text text-anchor="middle" x="1582.5" y="-203" font-family="Helvetica,sans-Serif" font-size="10.00">iDynTree/Core/VectorFixSize.h</text>
</a>
</g>
</g>
<!-- Node6&#45;&gt;Node14 -->
<g id="edge15" class="edge">
<title>Node6&#45;&gt;Node14</title>
<path fill="none" stroke="midnightblue" d="M914.23,-267.69C1036.26,-261.09 1283.86,-245.82 1492.5,-221 1502.74,-219.78 1513.6,-218.24 1524.1,-216.63"/>
<polygon fill="midnightblue" stroke="midnightblue" points="1524.69,-220.08 1534.03,-215.06 1523.6,-213.16 1524.69,-220.08"/>
</g>
<!-- Node15 -->
<g id="node15" class="node">
<title>Node15</title>
<g id="a_node15"><a xlink:title=" ">
<polygon fill="none" stroke="#bfbfbf" points="435.5,-196 435.5,-215 569.5,-215 569.5,-196 435.5,-196"/>
<text text-anchor="middle" x="502.5" y="-203" font-family="Helvetica,sans-Serif" font-size="10.00">iDynTree/Core/Wrench.h</text>
</a>
</g>
</g>
<!-- Node6&#45;&gt;Node15 -->
<g id="edge16" class="edge">
<title>Node6&#45;&gt;Node15</title>
<path fill="none" stroke="midnightblue" d="M766.01,-257.48C703.04,-245.29 613.26,-227.93 556.45,-216.94"/>
<polygon fill="midnightblue" stroke="midnightblue" points="557.07,-213.49 546.59,-215.03 555.74,-220.36 557.07,-213.49"/>
</g>
<!-- Node16 -->
<g id="node16" class="node">
<title>Node16</title>
<g id="a_node16"><a xlink:href="IParametersHandler_8h.html" target="_top" xlink:title=" ">
<polygon fill="none" stroke="black" points="211,-190.5 211,-220.5 380,-220.5 380,-190.5 211,-190.5"/>
<text text-anchor="start" x="219" y="-208.5" font-family="Helvetica,sans-Serif" font-size="10.00">BipedalLocomotion/Parameters</text>
<text text-anchor="middle" x="295.5" y="-197.5" font-family="Helvetica,sans-Serif" font-size="10.00">Handler/IParametersHandler.h</text>
</a>
</g>
</g>
<!-- Node6&#45;&gt;Node16 -->
<g id="edge17" class="edge">
<title>Node6&#45;&gt;Node16</title>
<path fill="none" stroke="midnightblue" d="M762.98,-258.24C760.12,-257.81 757.28,-257.39 754.5,-257 609.28,-236.52 572.27,-237.07 426.5,-221 414.77,-219.71 402.45,-218.35 390.26,-217"/>
<polygon fill="midnightblue" stroke="midnightblue" points="390.39,-213.49 380.06,-215.87 389.62,-220.45 390.39,-213.49"/>
</g>
<!-- Node16&#45;&gt;Node2 -->
<g id="edge18" class="edge">
<title>Node16&#45;&gt;Node2</title>
<path fill="none" stroke="midnightblue" d="M315.15,-190.32C347.47,-166.99 408.34,-123.07 408.5,-123 413.28,-120.9 548.01,-93.91 616.43,-80.27"/>
<polygon fill="midnightblue" stroke="midnightblue" points="617.29,-83.67 626.41,-78.28 615.92,-76.8 617.29,-83.67"/>
</g>
<!-- Node16&#45;&gt;Node4 -->
<g id="edge20" class="edge">
<title>Node16&#45;&gt;Node4</title>
<path fill="none" stroke="midnightblue" d="M246.09,-190.48C201.92,-177.94 138.38,-159.9 99.92,-148.99"/>
<polygon fill="midnightblue" stroke="midnightblue" points="100.82,-145.6 90.24,-146.24 98.91,-152.34 100.82,-145.6"/>
</g>
<!-- Node16&#45;&gt;Node8 -->
<g id="edge19" class="edge">
<title>Node16&#45;&gt;Node8</title>
<path fill="none" stroke="midnightblue" d="M351.81,-190.48C404.56,-177.34 481.52,-158.17 524.47,-147.48"/>
<polygon fill="midnightblue" stroke="midnightblue" points="525.51,-150.82 534.37,-145.01 523.82,-144.03 525.51,-150.82"/>
</g>
<!-- Node17 -->
<g id="node17" class="node">
<title>Node17</title>
<g id="a_node17"><a xlink:href="TemplateHelpers_8h_source.html" target="_top" xlink:title=" ">
<polygon fill="none" stroke="black" points="44.5,-56.5 44.5,-86.5 202.5,-86.5 202.5,-56.5 44.5,-56.5"/>
<text text-anchor="start" x="52.5" y="-74.5" font-family="Helvetica,sans-Serif" font-size="10.00">BipedalLocomotion/Generic</text>
<text text-anchor="middle" x="123.5" y="-63.5" font-family="Helvetica,sans-Serif" font-size="10.00">Container/TemplateHelpers.h</text>
</a>
</g>
</g>
<!-- Node16&#45;&gt;Node17 -->
<g id="edge21" class="edge">
<title>Node16&#45;&gt;Node17</title>
<path fill="none" stroke="midnightblue" d="M260.21,-190.34C240.43,-181.49 215.92,-168.95 196.5,-154 174.25,-136.87 153.36,-112.35 139.67,-94.69"/>
<polygon fill="midnightblue" stroke="midnightblue" points="142.39,-92.48 133.56,-86.63 136.81,-96.71 142.39,-92.48"/>
</g>
<!-- Node21 -->
<g id="node21" class="node">
<title>Node21</title>
<g id="a_node21"><a xlink:href="Vector_8h_source.html" target="_top" xlink:title=" ">
<polygon fill="none" stroke="black" points="205,-123.5 205,-153.5 356,-153.5 356,-123.5 205,-123.5"/>
<text text-anchor="start" x="213" y="-141.5" font-family="Helvetica,sans-Serif" font-size="10.00">BipedalLocomotion/Generic</text>
<text text-anchor="middle" x="280.5" y="-130.5" font-family="Helvetica,sans-Serif" font-size="10.00">Container/Vector.h</text>
</a>
</g>
</g>
<!-- Node16&#45;&gt;Node21 -->
<g id="edge25" class="edge">
<title>Node16&#45;&gt;Node21</title>
<path fill="none" stroke="midnightblue" d="M292.25,-190.4C290.44,-182.56 288.14,-172.6 286.05,-163.57"/>
<polygon fill="midnightblue" stroke="midnightblue" points="289.41,-162.53 283.75,-153.58 282.59,-164.11 289.41,-162.53"/>
</g>
<!-- Node18 -->
<g id="node18" class="node">
<title>Node18</title>
<g id="a_node18"><a xlink:title=" ">
<polygon fill="none" stroke="#bfbfbf" points="0,-0.5 0,-19.5 69,-19.5 69,-0.5 0,-0.5"/>
<text text-anchor="middle" x="34.5" y="-7.5" font-family="Helvetica,sans-Serif" font-size="10.00">type_traits</text>
</a>
</g>
</g>
<!-- Node17&#45;&gt;Node18 -->
<g id="edge22" class="edge">
<title>Node17&#45;&gt;Node18</title>
<path fill="none" stroke="midnightblue" d="M102.41,-56.4C88.41,-47.04 70.09,-34.79 56.01,-25.38"/>
<polygon fill="midnightblue" stroke="midnightblue" points="57.71,-22.31 47.45,-19.66 53.82,-28.13 57.71,-22.31"/>
</g>
<!-- Node19 -->
<g id="node19" class="node">
<title>Node19</title>
<g id="a_node19"><a xlink:title=" ">
<polygon fill="none" stroke="#bfbfbf" points="87,-0.5 87,-19.5 160,-19.5 160,-0.5 87,-0.5"/>
<text text-anchor="middle" x="123.5" y="-7.5" font-family="Helvetica,sans-Serif" font-size="10.00">string_view</text>
</a>
</g>
</g>
<!-- Node17&#45;&gt;Node19 -->
<g id="edge23" class="edge">
<title>Node17&#45;&gt;Node19</title>
<path fill="none" stroke="midnightblue" d="M123.5,-56.4C123.5,-48.47 123.5,-38.46 123.5,-29.86"/>
<polygon fill="midnightblue" stroke="midnightblue" points="127,-29.66 123.5,-19.66 120,-29.66 127,-29.66"/>
</g>
<!-- Node20 -->
<g id="node20" class="node">
<title>Node20</title>
<g id="a_node20"><a xlink:title=" ">
<polygon fill="none" stroke="#bfbfbf" points="178,-0.5 178,-19.5 247,-19.5 247,-0.5 178,-0.5"/>
<text text-anchor="middle" x="212.5" y="-7.5" font-family="Helvetica,sans-Serif" font-size="10.00">Eigen/Core</text>
</a>
</g>
</g>
<!-- Node17&#45;&gt;Node20 -->
<g id="edge24" class="edge">
<title>Node17&#45;&gt;Node20</title>
<path fill="none" stroke="midnightblue" d="M144.59,-56.4C158.59,-47.04 176.91,-34.79 190.99,-25.38"/>
<polygon fill="midnightblue" stroke="midnightblue" points="193.18,-28.13 199.55,-19.66 189.29,-22.31 193.18,-28.13"/>
</g>
<!-- Node21&#45;&gt;Node2 -->
<g id="edge31" class="edge">
<title>Node21&#45;&gt;Node2</title>
<path fill="none" stroke="midnightblue" d="M356.31,-125.09C431.13,-112.8 540.27,-94.72 582.5,-87 593.48,-84.99 605.36,-82.69 616.29,-80.52"/>
<polygon fill="midnightblue" stroke="midnightblue" points="617.29,-83.88 626.41,-78.49 615.92,-77.02 617.29,-83.88"/>
</g>
<!-- Node21&#45;&gt;Node17 -->
<g id="edge27" class="edge">
<title>Node21&#45;&gt;Node17</title>
<path fill="none" stroke="midnightblue" d="M246.43,-123.4C223.08,-113.73 191.91,-100.82 166.8,-90.43"/>
<polygon fill="midnightblue" stroke="midnightblue" points="168.08,-87.17 157.5,-86.58 165.4,-93.64 168.08,-87.17"/>
</g>
<!-- Node22 -->
<g id="node22" class="node">
<title>Node22</title>
<g id="a_node22"><a xlink:title=" ">
<polygon fill="none" stroke="#bfbfbf" points="369,-62 369,-81 490,-81 490,-62 369,-62"/>
<text text-anchor="middle" x="429.5" y="-69" font-family="Helvetica,sans-Serif" font-size="10.00">iDynTree/Core/Span.h</text>
</a>
</g>
</g>
<!-- Node21&#45;&gt;Node22 -->
<g id="edge26" class="edge">
<title>Node21&#45;&gt;Node22</title>
<path fill="none" stroke="midnightblue" d="M312.83,-123.4C338.97,-111.99 375.45,-96.08 400.62,-85.1"/>
<polygon fill="midnightblue" stroke="midnightblue" points="402.23,-88.21 410,-81.01 399.43,-81.8 402.23,-88.21"/>
</g>
<!-- Node23 -->
<g id="node23" class="node">
<title>Node23</title>
<g id="a_node23"><a xlink:title=" ">
<polygon fill="none" stroke="#bfbfbf" points="508,-62 508,-81 573,-81 573,-62 508,-62"/>
<text text-anchor="middle" x="540.5" y="-69" font-family="Helvetica,sans-Serif" font-size="10.00">functional</text>
</a>
</g>
</g>
<!-- Node21&#45;&gt;Node23 -->
<g id="edge28" class="edge">
<title>Node21&#45;&gt;Node23</title>
<path fill="none" stroke="midnightblue" d="M350.55,-123.46C393.8,-114.27 450.24,-101.34 499.5,-87 502.29,-86.19 505.16,-85.29 508.03,-84.36"/>
<polygon fill="midnightblue" stroke="midnightblue" points="509.32,-87.62 517.66,-81.09 507.07,-80.99 509.32,-87.62"/>
</g>
<!-- Node24 -->
<g id="node24" class="node">
<title>Node24</title>
<g id="a_node24"><a xlink:title=" ">
<polygon fill="none" stroke="#bfbfbf" points="220.5,-62 220.5,-81 272.5,-81 272.5,-62 220.5,-62"/>
<text text-anchor="middle" x="246.5" y="-69" font-family="Helvetica,sans-Serif" font-size="10.00">cassert</text>
</a>
</g>
</g>
<!-- Node21&#45;&gt;Node24 -->
<g id="edge29" class="edge">
<title>Node21&#45;&gt;Node24</title>
<path fill="none" stroke="midnightblue" d="M273.12,-123.4C268.03,-113.66 261.22,-100.65 255.77,-90.21"/>
<polygon fill="midnightblue" stroke="midnightblue" points="258.78,-88.43 251.05,-81.19 252.58,-91.68 258.78,-88.43"/>
</g>
<!-- Node25 -->
<g id="node25" class="node">
<title>Node25</title>
<g id="a_node25"><a xlink:title=" ">
<polygon fill="none" stroke="#bfbfbf" points="290.5,-62 290.5,-81 350.5,-81 350.5,-62 290.5,-62"/>
<text text-anchor="middle" x="320.5" y="-69" font-family="Helvetica,sans-Serif" font-size="10.00">iostream</text>
</a>
</g>
</g>
<!-- Node21&#45;&gt;Node25 -->
<g id="edge30" class="edge">
<title>Node21&#45;&gt;Node25</title>
<path fill="none" stroke="midnightblue" d="M289.18,-123.4C295.23,-113.56 303.34,-100.38 309.8,-89.89"/>
<polygon fill="midnightblue" stroke="midnightblue" points="312.89,-91.55 315.15,-81.19 306.93,-87.88 312.89,-91.55"/>
</g>
<!-- Node27&#45;&gt;Node2 -->
<g id="edge34" class="edge">
<title>Node27&#45;&gt;Node2</title>
<path fill="none" stroke="midnightblue" d="M318.16,-329.6C335.96,-300.8 378.95,-235.01 426.5,-190 465.08,-153.47 478.44,-147.66 525.5,-123 555.74,-107.15 592.1,-93.44 618.67,-84.32"/>
<polygon fill="midnightblue" stroke="midnightblue" points="619.98,-87.57 628.34,-81.06 617.74,-80.94 619.98,-87.57"/>
</g>
<!-- Node27&#45;&gt;Node3 -->
<g id="edge35" class="edge">
<title>Node27&#45;&gt;Node3</title>
<path fill="none" stroke="midnightblue" d="M305.46,-329.75C299.56,-311.07 286.99,-278.2 266.5,-257 261.28,-251.6 224.99,-232.79 199.06,-219.72"/>
<polygon fill="midnightblue" stroke="midnightblue" points="200.56,-216.56 190.05,-215.2 197.42,-222.81 200.56,-216.56"/>
</g>
<!-- Node27&#45;&gt;Node16 -->
<g id="edge39" class="edge">
<title>Node27&#45;&gt;Node16</title>
<path fill="none" stroke="midnightblue" d="M309.2,-329.79C308.72,-312.53 307.5,-282.54 304.5,-257 303.48,-248.29 301.91,-238.82 300.37,-230.45"/>
<polygon fill="midnightblue" stroke="midnightblue" points="303.8,-229.74 298.47,-220.58 296.92,-231.06 303.8,-229.74"/>
</g>
<!-- Node27&#45;&gt;Node17 -->
<g id="edge38" class="edge">
<title>Node27&#45;&gt;Node17</title>
<path fill="none" stroke="midnightblue" d="M298.42,-329.76C281.23,-307.95 248.55,-267.67 233.5,-257 198.35,-232.09 169.98,-254.98 143.5,-221 115.46,-185.03 116.45,-128.67 119.85,-96.73"/>
<polygon fill="midnightblue" stroke="midnightblue" points="123.36,-96.88 121.12,-86.52 116.41,-96.02 123.36,-96.88"/>
</g>
<!-- Node27&#45;&gt;Node28 -->
<g id="edge36" class="edge">
<title>Node27&#45;&gt;Node28</title>
<path fill="none" stroke="midnightblue" d="M275.71,-329.9C249.22,-318.86 212.2,-303.41 183.59,-291.47"/>
<polygon fill="midnightblue" stroke="midnightblue" points="184.81,-288.19 174.23,-287.57 182.12,-294.65 184.81,-288.19"/>
</g>
<!-- Node28&#45;&gt;Node3 -->
<g id="edge37" class="edge">
<title>Node28&#45;&gt;Node3</title>
<path fill="none" stroke="midnightblue" d="M147.44,-257.4C152.24,-247.66 158.64,-234.65 163.78,-224.21"/>
<polygon fill="midnightblue" stroke="midnightblue" points="166.94,-225.71 168.22,-215.19 160.66,-222.62 166.94,-225.71"/>
</g>
</g>
</svg>
        <g id="navigator" transform="translate(0 0)" fill="#404254">
                <rect fill="#f2f5e9" fill-opacity="0.5" stroke="#606060" stroke-width=".5" x="0" y="0" width="60" height="60"/>
                <use id="zoomplus" xlink:href="#zoomPlus" x="17" y="9" onmousedown="handleZoom(evt,'in')"/>
                <use id="zoomminus" xlink:href="#zoomMin" x="42" y="9" onmousedown="handleZoom(evt,'out')"/>
                <use id="reset" xlink:href="#resetDef" x="30" y="36" onmousedown="handleReset()"/>
                <g id="arrowUp" xlink:href="#dirArrow" transform="translate(30 24)" onmousedown="handlePan(0,-1)">
                  <use xlink:href="#rim" fill="#404040">
                        <set attributeName="fill" to="#808080" begin="arrowUp.mouseover" end="arrowUp.mouseout"/>
                  </use>
                  <path fill="none" stroke="white" stroke-width="1.5" d="M0,-3.0v7 M-2.5,-0.5L0,-3.0L2.5,-0.5"/>
                </g>
                <g id="arrowRight" xlink:href="#dirArrow" transform="rotate(90) translate(36 -43)" onmousedown="handlePan(1,0)">
                  <use xlink:href="#rim" fill="#404040">
                        <set attributeName="fill" to="#808080" begin="arrowRight.mouseover" end="arrowRight.mouseout"/>
                  </use>
                  <path fill="none" stroke="white" stroke-width="1.5" d="M0,-3.0v7 M-2.5,-0.5L0,-3.0L2.5,-0.5"/>
                </g>
                <g id="arrowDown" xlink:href="#dirArrow" transform="rotate(180) translate(-30 -48)" onmousedown="handlePan(0,1)">
                  <use xlink:href="#rim" fill="#404040">
                        <set attributeName="fill" to="#808080" begin="arrowDown.mouseover" end="arrowDown.mouseout"/>
                  </use>
                  <path fill="none" stroke="white" stroke-width="1.5" d="M0,-3.0v7 M-2.5,-0.5L0,-3.0L2.5,-0.5"/>
                </g>
                <g id="arrowLeft" xlink:href="#dirArrow" transform="rotate(270) translate(-36 17)" onmousedown="handlePan(-1,0)">
                  <use xlink:href="#rim" fill="#404040">
                        <set attributeName="fill" to="#808080" begin="arrowLeft.mouseover" end="arrowLeft.mouseout"/>
                  </use>
                  <path fill="none" stroke="white" stroke-width="1.5" d="M0,-3.0v7 M-2.5,-0.5L0,-3.0L2.5,-0.5"/>
                </g>
        </g>
        <svg viewBox="0 0 15 15" width="100%" height="30px" preserveAspectRatio="xMaxYMin meet">
         <g id="arrow_out" transform="scale(0.3 0.3)">
          <a xlink:href="FixedBaseDynamics_8h__incl_org.svg" target="_base">
           <rect id="button" ry="5" rx="5" y="6" x="6" height="38" width="38"
                fill="#f2f5e9" fill-opacity="0.5" stroke="#606060" stroke-width="1.0"/>
           <path id="arrow"
             d="M 11.500037,31.436501 C 11.940474,20.09759 22.043105,11.32322 32.158766,21.979434 L 37.068811,17.246167 C 37.068811,17.246167 37.088388,32 37.088388,32 L 22.160133,31.978069 C 22.160133,31.978069 26.997745,27.140456 26.997745,27.140456 C 18.528582,18.264221 13.291696,25.230495 11.500037,31.436501 z"
             style="fill:#404040;"/>
          </a>
         </g>
        </svg>
</svg>
