<?xml version="1.0" encoding="UTF-8" standalone="no"?>
<!DOCTYPE svg PUBLIC "-//W3C//DTD SVG 1.1//EN"
 "http://www.w3.org/Graphics/SVG/1.1/DTD/svg11.dtd">
<!-- Generated by graphviz version 2.43.0 (0)
 -->
<!-- Title: Estimators/include/BipedalLocomotion/FloatingBaseEstimators/FloatingBaseEstimator.h Pages: 1 -->
<svg width="1115pt" height="452pt"
 viewBox="0.00 0.00 1114.50 452.00" xmlns="http://www.w3.org/2000/svg" xmlns:xlink="http://www.w3.org/1999/xlink">
<g id="graph0" class="graph" transform="scale(1 1) rotate(0) translate(4 448)">
<title>Estimators/include/BipedalLocomotion/FloatingBaseEstimators/FloatingBaseEstimator.h</title>
<!-- Node1 -->
<g id="node1" class="node">
<title>Node1</title>
<g id="a_node1"><a xlink:title=" ">
<polygon fill="#bfbfbf" stroke="black" points="325.5,-402.5 325.5,-443.5 540.5,-443.5 540.5,-402.5 325.5,-402.5"/>
<text text-anchor="start" x="333.5" y="-431.5" font-family="Helvetica,sans-Serif" font-size="10.00">Estimators/include</text>
<text text-anchor="start" x="333.5" y="-420.5" font-family="Helvetica,sans-Serif" font-size="10.00">/BipedalLocomotion/Floating</text>
<text text-anchor="middle" x="433" y="-409.5" font-family="Helvetica,sans-Serif" font-size="10.00">BaseEstimators/FloatingBaseEstimator.h</text>
</a>
</g>
</g>
<!-- Node2 -->
<g id="node2" class="node">
<title>Node2</title>
<g id="a_node2"><a xlink:href="Source_8h.html" target="_top" xlink:title=" ">
<polygon fill="none" stroke="black" points="0,-330 0,-360 150,-360 150,-330 0,-330"/>
<text text-anchor="start" x="8" y="-348" font-family="Helvetica,sans-Serif" font-size="10.00">BipedalLocomotion/System</text>
<text text-anchor="middle" x="75" y="-337" font-family="Helvetica,sans-Serif" font-size="10.00">/Source.h</text>
</a>
</g>
</g>
<!-- Node1&#45;&gt;Node2 -->
<g id="edge1" class="edge">
<title>Node1&#45;&gt;Node2</title>
<path fill="none" stroke="midnightblue" d="M337.37,-402.47C285.95,-391.88 221.46,-378.44 164,-366 158.35,-364.78 152.5,-363.5 146.62,-362.2"/>
<polygon fill="midnightblue" stroke="midnightblue" points="147.26,-358.75 136.73,-360.01 145.74,-365.59 147.26,-358.75"/>
</g>
<!-- Node5 -->
<g id="node5" class="node">
<title>Node5</title>
<g id="a_node5"><a xlink:href="IParametersHandler_8h.html" target="_top" xlink:title=" ">
<polygon fill="none" stroke="black" points="235.5,-190.5 235.5,-220.5 404.5,-220.5 404.5,-190.5 235.5,-190.5"/>
<text text-anchor="start" x="243.5" y="-208.5" font-family="Helvetica,sans-Serif" font-size="10.00">BipedalLocomotion/Parameters</text>
<text text-anchor="middle" x="320" y="-197.5" font-family="Helvetica,sans-Serif" font-size="10.00">Handler/IParametersHandler.h</text>
</a>
</g>
</g>
<!-- Node1&#45;&gt;Node5 -->
<g id="edge19" class="edge">
<title>Node1&#45;&gt;Node5</title>
<path fill="none" stroke="midnightblue" d="M422.77,-402.5C401.91,-362.7 354.51,-272.32 332.13,-229.64"/>
<polygon fill="midnightblue" stroke="midnightblue" points="335.13,-227.81 327.38,-220.58 328.93,-231.06 335.13,-227.81"/>
</g>
<!-- Node6 -->
<g id="node6" class="node">
<title>Node6</title>
<g id="a_node6"><a xlink:title=" ">
<polygon fill="none" stroke="#bfbfbf" points="144,-62 144,-81 202,-81 202,-62 144,-62"/>
<text text-anchor="middle" x="173" y="-69" font-family="Helvetica,sans-Serif" font-size="10.00">memory</text>
</a>
</g>
</g>
<!-- Node1&#45;&gt;Node6 -->
<g id="edge36" class="edge">
<title>Node1&#45;&gt;Node6</title>
<path fill="none" stroke="midnightblue" d="M325.23,-402.86C255.63,-383.58 178,-345.86 178,-273.5 178,-273.5 178,-273.5 178,-204.5 178,-164.13 175.64,-116.86 174.16,-91.27"/>
<polygon fill="midnightblue" stroke="midnightblue" points="177.64,-90.92 173.55,-81.14 170.66,-91.34 177.64,-90.92"/>
</g>
<!-- Node17 -->
<g id="node17" class="node">
<title>Node17</title>
<g id="a_node17"><a xlink:title=" ">
<polygon fill="none" stroke="#bfbfbf" points="690,-62 690,-81 750,-81 750,-62 690,-62"/>
<text text-anchor="middle" x="720" y="-69" font-family="Helvetica,sans-Serif" font-size="10.00">iostream</text>
</a>
</g>
</g>
<!-- Node1&#45;&gt;Node17 -->
<g id="edge35" class="edge">
<title>Node1&#45;&gt;Node17</title>
<path fill="none" stroke="midnightblue" d="M434.26,-402.24C438.81,-348.23 459.28,-197.24 548,-123 594.96,-83.7 622.68,-105.69 681,-87 683.41,-86.23 685.89,-85.4 688.37,-84.54"/>
<polygon fill="midnightblue" stroke="midnightblue" points="689.62,-87.81 697.85,-81.14 687.25,-81.22 689.62,-87.81"/>
</g>
<!-- Node18 -->
<g id="node18" class="node">
<title>Node18</title>
<g id="a_node18"><a xlink:href="FloatingBaseEstimatorParams_8h.html" target="_top" xlink:title=" ">
<polygon fill="none" stroke="black" points="461.5,-324.5 461.5,-365.5 668.5,-365.5 668.5,-324.5 461.5,-324.5"/>
<text text-anchor="start" x="469.5" y="-353.5" font-family="Helvetica,sans-Serif" font-size="10.00">BipedalLocomotion/Floating</text>
<text text-anchor="start" x="469.5" y="-342.5" font-family="Helvetica,sans-Serif" font-size="10.00">BaseEstimators/FloatingBaseEstimator</text>
<text text-anchor="middle" x="565" y="-331.5" font-family="Helvetica,sans-Serif" font-size="10.00">Params.h</text>
</a>
</g>
</g>
<!-- Node1&#45;&gt;Node18 -->
<g id="edge20" class="edge">
<title>Node1&#45;&gt;Node18</title>
<path fill="none" stroke="midnightblue" d="M466.99,-402.43C483.78,-392.77 504.2,-381.01 522.05,-370.73"/>
<polygon fill="midnightblue" stroke="midnightblue" points="524.2,-373.53 531.12,-365.51 520.71,-367.46 524.2,-373.53"/>
</g>
<!-- Node21 -->
<g id="node21" class="node">
<title>Node21</title>
<g id="a_node21"><a xlink:href="FloatingBaseEstimatorIO_8h.html" target="_top" xlink:title=" ">
<polygon fill="none" stroke="black" points="686.5,-330 686.5,-360 913.5,-360 913.5,-330 686.5,-330"/>
<text text-anchor="start" x="694.5" y="-348" font-family="Helvetica,sans-Serif" font-size="10.00">BipedalLocomotion/Floating</text>
<text text-anchor="middle" x="800" y="-337" font-family="Helvetica,sans-Serif" font-size="10.00">BaseEstimators/FloatingBaseEstimatorIO.h</text>
</a>
</g>
</g>
<!-- Node1&#45;&gt;Node21 -->
<g id="edge23" class="edge">
<title>Node1&#45;&gt;Node21</title>
<path fill="none" stroke="midnightblue" d="M527.51,-402.43C587.92,-389.92 665.3,-373.89 722.16,-362.12"/>
<polygon fill="midnightblue" stroke="midnightblue" points="723.08,-365.5 732.17,-360.05 721.66,-358.65 723.08,-365.5"/>
</g>
<!-- Node27 -->
<g id="node27" class="node">
<title>Node27</title>
<g id="a_node27"><a xlink:title=" ">
<polygon fill="none" stroke="#bfbfbf" points="931.5,-335.5 931.5,-354.5 1106.5,-354.5 1106.5,-335.5 931.5,-335.5"/>
<text text-anchor="middle" x="1019" y="-342.5" font-family="Helvetica,sans-Serif" font-size="10.00">iDynTree/KinDynComputations.h</text>
</a>
</g>
</g>
<!-- Node1&#45;&gt;Node27 -->
<g id="edge34" class="edge">
<title>Node1&#45;&gt;Node27</title>
<path fill="none" stroke="midnightblue" d="M540.93,-412.53C640.47,-403.12 792.18,-387.06 923,-366 938.99,-363.43 956.36,-360 971.87,-356.72"/>
<polygon fill="midnightblue" stroke="midnightblue" points="972.72,-360.11 981.76,-354.59 971.25,-353.27 972.72,-360.11"/>
</g>
<!-- Node3 -->
<g id="node3" class="node">
<title>Node3</title>
<g id="a_node3"><a xlink:href="Advanceable_8h.html" target="_top" xlink:title=" ">
<polygon fill="none" stroke="black" points="0,-257.5 0,-287.5 150,-287.5 150,-257.5 0,-257.5"/>
<text text-anchor="start" x="8" y="-275.5" font-family="Helvetica,sans-Serif" font-size="10.00">BipedalLocomotion/System</text>
<text text-anchor="middle" x="75" y="-264.5" font-family="Helvetica,sans-Serif" font-size="10.00">/Advanceable.h</text>
</a>
</g>
</g>
<!-- Node2&#45;&gt;Node3 -->
<g id="edge2" class="edge">
<title>Node2&#45;&gt;Node3</title>
<path fill="none" stroke="midnightblue" d="M75,-329.73C75,-320.66 75,-308.66 75,-298.08"/>
<polygon fill="midnightblue" stroke="midnightblue" points="78.5,-297.75 75,-287.75 71.5,-297.75 78.5,-297.75"/>
</g>
<!-- Node4 -->
<g id="node4" class="node">
<title>Node4</title>
<g id="a_node4"><a xlink:title=" ">
<polygon fill="none" stroke="#bfbfbf" points="49.5,-196 49.5,-215 100.5,-215 100.5,-196 49.5,-196"/>
<text text-anchor="middle" x="75" y="-203" font-family="Helvetica,sans-Serif" font-size="10.00">variant</text>
</a>
</g>
</g>
<!-- Node3&#45;&gt;Node4 -->
<g id="edge3" class="edge">
<title>Node3&#45;&gt;Node4</title>
<path fill="none" stroke="midnightblue" d="M75,-257.4C75,-248.06 75,-235.71 75,-225.52"/>
<polygon fill="midnightblue" stroke="midnightblue" points="78.5,-225.19 75,-215.19 71.5,-225.19 78.5,-225.19"/>
</g>
<!-- Node3&#45;&gt;Node5 -->
<g id="edge4" class="edge">
<title>Node3&#45;&gt;Node5</title>
<path fill="none" stroke="midnightblue" d="M127.86,-257.48C165.73,-247.43 216.89,-233.86 256.9,-223.24"/>
<polygon fill="midnightblue" stroke="midnightblue" points="258.04,-226.56 266.81,-220.61 256.25,-219.79 258.04,-226.56"/>
</g>
<!-- Node5&#45;&gt;Node6 -->
<g id="edge5" class="edge">
<title>Node5&#45;&gt;Node6</title>
<path fill="none" stroke="midnightblue" d="M312.53,-190.4C302.73,-172.92 284.17,-143.01 262,-123 244.48,-107.19 221.18,-94.19 202.81,-85.34"/>
<polygon fill="midnightblue" stroke="midnightblue" points="204.26,-82.15 193.71,-81.1 201.3,-88.5 204.26,-82.15"/>
</g>
<!-- Node7 -->
<g id="node7" class="node">
<title>Node7</title>
<g id="a_node7"><a xlink:title=" ">
<polygon fill="none" stroke="#bfbfbf" points="557,-129 557,-148 601,-148 601,-129 557,-129"/>
<text text-anchor="middle" x="579" y="-136" font-family="Helvetica,sans-Serif" font-size="10.00">string</text>
</a>
</g>
</g>
<!-- Node5&#45;&gt;Node7 -->
<g id="edge6" class="edge">
<title>Node5&#45;&gt;Node7</title>
<path fill="none" stroke="midnightblue" d="M375.88,-190.48C428.09,-177.37 504.19,-158.27 546.88,-147.56"/>
<polygon fill="midnightblue" stroke="midnightblue" points="547.88,-150.92 556.73,-145.09 546.18,-144.13 547.88,-150.92"/>
</g>
<!-- Node8 -->
<g id="node8" class="node">
<title>Node8</title>
<g id="a_node8"><a xlink:title=" ">
<polygon fill="none" stroke="#bfbfbf" points="206.5,-129 206.5,-148 253.5,-148 253.5,-129 206.5,-129"/>
<text text-anchor="middle" x="230" y="-136" font-family="Helvetica,sans-Serif" font-size="10.00">vector</text>
</a>
</g>
</g>
<!-- Node5&#45;&gt;Node8 -->
<g id="edge7" class="edge">
<title>Node5&#45;&gt;Node8</title>
<path fill="none" stroke="midnightblue" d="M300.47,-190.4C285.52,-179.6 264.97,-164.76 249.92,-153.89"/>
<polygon fill="midnightblue" stroke="midnightblue" points="251.93,-151.02 241.78,-148.01 247.84,-156.7 251.93,-151.02"/>
</g>
<!-- Node9 -->
<g id="node9" class="node">
<title>Node9</title>
<g id="a_node9"><a xlink:href="TemplateHelpers_8h_source.html" target="_top" xlink:title=" ">
<polygon fill="none" stroke="black" points="220,-56.5 220,-86.5 378,-86.5 378,-56.5 220,-56.5"/>
<text text-anchor="start" x="228" y="-74.5" font-family="Helvetica,sans-Serif" font-size="10.00">BipedalLocomotion/Generic</text>
<text text-anchor="middle" x="299" y="-63.5" font-family="Helvetica,sans-Serif" font-size="10.00">Container/TemplateHelpers.h</text>
</a>
</g>
</g>
<!-- Node5&#45;&gt;Node9 -->
<g id="edge8" class="edge">
<title>Node5&#45;&gt;Node9</title>
<path fill="none" stroke="midnightblue" d="M317.75,-190.37C314.18,-167.94 307.18,-123.92 302.82,-96.49"/>
<polygon fill="midnightblue" stroke="midnightblue" points="306.26,-95.85 301.23,-86.52 299.35,-96.95 306.26,-95.85"/>
</g>
<!-- Node13 -->
<g id="node13" class="node">
<title>Node13</title>
<g id="a_node13"><a xlink:href="Vector_8h_source.html" target="_top" xlink:title=" ">
<polygon fill="none" stroke="black" points="348.5,-123.5 348.5,-153.5 499.5,-153.5 499.5,-123.5 348.5,-123.5"/>
<text text-anchor="start" x="356.5" y="-141.5" font-family="Helvetica,sans-Serif" font-size="10.00">BipedalLocomotion/Generic</text>
<text text-anchor="middle" x="424" y="-130.5" font-family="Helvetica,sans-Serif" font-size="10.00">Container/Vector.h</text>
</a>
</g>
</g>
<!-- Node5&#45;&gt;Node13 -->
<g id="edge12" class="edge">
<title>Node5&#45;&gt;Node13</title>
<path fill="none" stroke="midnightblue" d="M342.57,-190.4C357.29,-181.2 376.69,-169.07 392.87,-158.95"/>
<polygon fill="midnightblue" stroke="midnightblue" points="394.85,-161.84 401.48,-153.58 391.14,-155.91 394.85,-161.84"/>
</g>
<!-- Node10 -->
<g id="node10" class="node">
<title>Node10</title>
<g id="a_node10"><a xlink:title=" ">
<polygon fill="none" stroke="#bfbfbf" points="175.5,-0.5 175.5,-19.5 244.5,-19.5 244.5,-0.5 175.5,-0.5"/>
<text text-anchor="middle" x="210" y="-7.5" font-family="Helvetica,sans-Serif" font-size="10.00">type_traits</text>
</a>
</g>
</g>
<!-- Node9&#45;&gt;Node10 -->
<g id="edge9" class="edge">
<title>Node9&#45;&gt;Node10</title>
<path fill="none" stroke="midnightblue" d="M277.91,-56.4C263.91,-47.04 245.59,-34.79 231.51,-25.38"/>
<polygon fill="midnightblue" stroke="midnightblue" points="233.21,-22.31 222.95,-19.66 229.32,-28.13 233.21,-22.31"/>
</g>
<!-- Node11 -->
<g id="node11" class="node">
<title>Node11</title>
<g id="a_node11"><a xlink:title=" ">
<polygon fill="none" stroke="#bfbfbf" points="262.5,-0.5 262.5,-19.5 335.5,-19.5 335.5,-0.5 262.5,-0.5"/>
<text text-anchor="middle" x="299" y="-7.5" font-family="Helvetica,sans-Serif" font-size="10.00">string_view</text>
</a>
</g>
</g>
<!-- Node9&#45;&gt;Node11 -->
<g id="edge10" class="edge">
<title>Node9&#45;&gt;Node11</title>
<path fill="none" stroke="midnightblue" d="M299,-56.4C299,-48.47 299,-38.46 299,-29.86"/>
<polygon fill="midnightblue" stroke="midnightblue" points="302.5,-29.66 299,-19.66 295.5,-29.66 302.5,-29.66"/>
</g>
<!-- Node12 -->
<g id="node12" class="node">
<title>Node12</title>
<g id="a_node12"><a xlink:title=" ">
<polygon fill="none" stroke="#bfbfbf" points="353.5,-0.5 353.5,-19.5 422.5,-19.5 422.5,-0.5 353.5,-0.5"/>
<text text-anchor="middle" x="388" y="-7.5" font-family="Helvetica,sans-Serif" font-size="10.00">Eigen/Core</text>
</a>
</g>
</g>
<!-- Node9&#45;&gt;Node12 -->
<g id="edge11" class="edge">
<title>Node9&#45;&gt;Node12</title>
<path fill="none" stroke="midnightblue" d="M320.09,-56.4C334.09,-47.04 352.41,-34.79 366.49,-25.38"/>
<polygon fill="midnightblue" stroke="midnightblue" points="368.68,-28.13 375.05,-19.66 364.79,-22.31 368.68,-28.13"/>
</g>
<!-- Node13&#45;&gt;Node6 -->
<g id="edge18" class="edge">
<title>Node13&#45;&gt;Node6</title>
<path fill="none" stroke="midnightblue" d="M354.31,-123.41C312.41,-114.33 258.22,-101.54 211,-87 208.58,-86.25 206.09,-85.43 203.6,-84.57"/>
<polygon fill="midnightblue" stroke="midnightblue" points="204.73,-81.26 194.13,-81.13 202.33,-87.84 204.73,-81.26"/>
</g>
<!-- Node13&#45;&gt;Node9 -->
<g id="edge14" class="edge">
<title>Node13&#45;&gt;Node9</title>
<path fill="none" stroke="midnightblue" d="M396.88,-123.4C378.78,-113.98 354.77,-101.5 335.07,-91.26"/>
<polygon fill="midnightblue" stroke="midnightblue" points="336.56,-88.08 326.07,-86.58 333.33,-94.3 336.56,-88.08"/>
</g>
<!-- Node14 -->
<g id="node14" class="node">
<title>Node14</title>
<g id="a_node14"><a xlink:title=" ">
<polygon fill="none" stroke="#bfbfbf" points="550.5,-62 550.5,-81 671.5,-81 671.5,-62 550.5,-62"/>
<text text-anchor="middle" x="611" y="-69" font-family="Helvetica,sans-Serif" font-size="10.00">iDynTree/Core/Span.h</text>
</a>
</g>
</g>
<!-- Node13&#45;&gt;Node14 -->
<g id="edge13" class="edge">
<title>Node13&#45;&gt;Node14</title>
<path fill="none" stroke="midnightblue" d="M464.58,-123.4C498.11,-111.74 545.2,-95.37 576.83,-84.38"/>
<polygon fill="midnightblue" stroke="midnightblue" points="578.23,-87.6 586.53,-81.01 575.93,-80.98 578.23,-87.6"/>
</g>
<!-- Node15 -->
<g id="node15" class="node">
<title>Node15</title>
<g id="a_node15"><a xlink:title=" ">
<polygon fill="none" stroke="#bfbfbf" points="396.5,-62 396.5,-81 461.5,-81 461.5,-62 396.5,-62"/>
<text text-anchor="middle" x="429" y="-69" font-family="Helvetica,sans-Serif" font-size="10.00">functional</text>
</a>
</g>
</g>
<!-- Node13&#45;&gt;Node15 -->
<g id="edge15" class="edge">
<title>Node13&#45;&gt;Node15</title>
<path fill="none" stroke="midnightblue" d="M425.08,-123.4C425.81,-113.96 426.77,-101.45 427.56,-91.19"/>
<polygon fill="midnightblue" stroke="midnightblue" points="431.05,-91.43 428.33,-81.19 424.07,-90.9 431.05,-91.43"/>
</g>
<!-- Node16 -->
<g id="node16" class="node">
<title>Node16</title>
<g id="a_node16"><a xlink:title=" ">
<polygon fill="none" stroke="#bfbfbf" points="480,-62 480,-81 532,-81 532,-62 480,-62"/>
<text text-anchor="middle" x="506" y="-69" font-family="Helvetica,sans-Serif" font-size="10.00">cassert</text>
</a>
</g>
</g>
<!-- Node13&#45;&gt;Node16 -->
<g id="edge16" class="edge">
<title>Node13&#45;&gt;Node16</title>
<path fill="none" stroke="midnightblue" d="M441.79,-123.4C455.08,-112.86 473.23,-98.48 486.84,-87.69"/>
<polygon fill="midnightblue" stroke="midnightblue" points="489.37,-90.15 495.03,-81.19 485.02,-84.66 489.37,-90.15"/>
</g>
<!-- Node13&#45;&gt;Node17 -->
<g id="edge17" class="edge">
<title>Node13&#45;&gt;Node17</title>
<path fill="none" stroke="midnightblue" d="M499.69,-124.03C562.82,-112.53 647.63,-96.41 681,-87 683.65,-86.25 686.37,-85.41 689.08,-84.51"/>
<polygon fill="midnightblue" stroke="midnightblue" points="690.48,-87.73 698.75,-81.11 688.16,-81.13 690.48,-87.73"/>
</g>
<!-- Node19 -->
<g id="node19" class="node">
<title>Node19</title>
<g id="a_node19"><a xlink:title=" ">
<polygon fill="none" stroke="#bfbfbf" points="620.5,-129 620.5,-148 697.5,-148 697.5,-129 620.5,-129"/>
<text text-anchor="middle" x="659" y="-136" font-family="Helvetica,sans-Serif" font-size="10.00">Eigen/Dense</text>
</a>
</g>
</g>
<!-- Node18&#45;&gt;Node19 -->
<g id="edge21" class="edge">
<title>Node18&#45;&gt;Node19</title>
<path fill="none" stroke="midnightblue" d="M567.27,-324.4C569.82,-306.37 574.85,-279.15 584,-257 600.07,-218.07 628.95,-177.77 645.8,-155.95"/>
<polygon fill="midnightblue" stroke="midnightblue" points="648.59,-158.07 652.01,-148.04 643.08,-153.74 648.59,-158.07"/>
</g>
<!-- Node20 -->
<g id="node20" class="node">
<title>Node20</title>
<g id="a_node20"><a xlink:title=" ">
<polygon fill="none" stroke="#bfbfbf" points="593,-263 593,-282 631,-282 631,-263 593,-263"/>
<text text-anchor="middle" x="612" y="-270" font-family="Helvetica,sans-Serif" font-size="10.00">map</text>
</a>
</g>
</g>
<!-- Node18&#45;&gt;Node20 -->
<g id="edge22" class="edge">
<title>Node18&#45;&gt;Node20</title>
<path fill="none" stroke="midnightblue" d="M578.09,-324.36C585.16,-313.76 593.81,-300.79 600.6,-290.6"/>
<polygon fill="midnightblue" stroke="midnightblue" points="603.58,-292.44 606.22,-282.17 597.76,-288.55 603.58,-292.44"/>
</g>
<!-- Node21&#45;&gt;Node19 -->
<g id="edge24" class="edge">
<title>Node21&#45;&gt;Node19</title>
<path fill="none" stroke="midnightblue" d="M764.29,-329.96C744.88,-320.68 721.88,-306.75 707,-288 675.79,-248.66 664.61,-188.46 660.82,-158.21"/>
<polygon fill="midnightblue" stroke="midnightblue" points="664.29,-157.74 659.7,-148.19 657.33,-158.52 664.29,-157.74"/>
</g>
<!-- Node21&#45;&gt;Node20 -->
<g id="edge33" class="edge">
<title>Node21&#45;&gt;Node20</title>
<path fill="none" stroke="midnightblue" d="M758.6,-329.89C727.21,-318.99 683.12,-303.24 645,-288 643.4,-287.36 641.77,-286.69 640.12,-286.01"/>
<polygon fill="midnightblue" stroke="midnightblue" points="641.33,-282.72 630.75,-282 638.57,-289.15 641.33,-282.72"/>
</g>
<!-- Node22 -->
<g id="node22" class="node">
<title>Node22</title>
<g id="a_node22"><a xlink:title=" ">
<polygon fill="none" stroke="#bfbfbf" points="890.5,-263 890.5,-282 975.5,-282 975.5,-263 890.5,-263"/>
<text text-anchor="middle" x="933" y="-270" font-family="Helvetica,sans-Serif" font-size="10.00">manif/manif.h</text>
</a>
</g>
</g>
<!-- Node21&#45;&gt;Node22 -->
<g id="edge25" class="edge">
<title>Node21&#45;&gt;Node22</title>
<path fill="none" stroke="midnightblue" d="M826.59,-329.9C850.31,-317.33 884.78,-299.06 908,-286.75"/>
<polygon fill="midnightblue" stroke="midnightblue" points="909.7,-289.81 916.9,-282.03 906.43,-283.62 909.7,-289.81"/>
</g>
<!-- Node23 -->
<g id="node23" class="node">
<title>Node23</title>
<g id="a_node23"><a xlink:href="Contact_8h.html" target="_top" xlink:title=" ">
<polygon fill="none" stroke="black" points="716,-257.5 716,-287.5 872,-287.5 872,-257.5 716,-257.5"/>
<text text-anchor="start" x="724" y="-275.5" font-family="Helvetica,sans-Serif" font-size="10.00">BipedalLocomotion/Contacts</text>
<text text-anchor="middle" x="794" y="-264.5" font-family="Helvetica,sans-Serif" font-size="10.00">/Contact.h</text>
</a>
</g>
</g>
<!-- Node21&#45;&gt;Node23 -->
<g id="edge26" class="edge">
<title>Node21&#45;&gt;Node23</title>
<path fill="none" stroke="midnightblue" d="M798.79,-329.73C798.01,-320.56 796.97,-308.41 796.06,-297.74"/>
<polygon fill="midnightblue" stroke="midnightblue" points="799.55,-297.41 795.21,-287.75 792.57,-298.01 799.55,-297.41"/>
</g>
<!-- Node23&#45;&gt;Node7 -->
<g id="edge32" class="edge">
<title>Node23&#45;&gt;Node7</title>
<path fill="none" stroke="midnightblue" d="M770.99,-257.37C729.59,-231.95 643,-178.79 601.77,-153.48"/>
<polygon fill="midnightblue" stroke="midnightblue" points="603.36,-150.35 593,-148.1 599.69,-156.31 603.36,-150.35"/>
</g>
<!-- Node24 -->
<g id="node24" class="node">
<title>Node24</title>
<g id="a_node24"><a xlink:href="Wrench_8h.html" target="_top" xlink:title=" ">
<polygon fill="none" stroke="black" points="725,-190.5 725,-220.5 863,-220.5 863,-190.5 725,-190.5"/>
<text text-anchor="start" x="733" y="-208.5" font-family="Helvetica,sans-Serif" font-size="10.00">BipedalLocomotion/Math</text>
<text text-anchor="middle" x="794" y="-197.5" font-family="Helvetica,sans-Serif" font-size="10.00">/Wrench.h</text>
</a>
</g>
</g>
<!-- Node23&#45;&gt;Node24 -->
<g id="edge27" class="edge">
<title>Node23&#45;&gt;Node24</title>
<path fill="none" stroke="midnightblue" d="M794,-257.4C794,-249.64 794,-239.81 794,-230.86"/>
<polygon fill="midnightblue" stroke="midnightblue" points="797.5,-230.58 794,-220.58 790.5,-230.58 797.5,-230.58"/>
</g>
<!-- Node25 -->
<g id="node25" class="node">
<title>Node25</title>
<g id="a_node25"><a xlink:title=" ">
<polygon fill="none" stroke="#bfbfbf" points="852.5,-129 852.5,-148 927.5,-148 927.5,-129 852.5,-129"/>
<text text-anchor="middle" x="890" y="-136" font-family="Helvetica,sans-Serif" font-size="10.00">manif/SE3.h</text>
</a>
</g>
</g>
<!-- Node23&#45;&gt;Node25 -->
<g id="edge31" class="edge">
<title>Node23&#45;&gt;Node25</title>
<path fill="none" stroke="midnightblue" d="M827.31,-257.35C843.13,-248.99 860.96,-236.9 872,-221 884.95,-202.35 888.79,-176 889.82,-158.36"/>
<polygon fill="midnightblue" stroke="midnightblue" points="893.32,-158.31 890.16,-148.2 886.33,-158.07 893.32,-158.31"/>
</g>
<!-- Node24&#45;&gt;Node19 -->
<g id="edge28" class="edge">
<title>Node24&#45;&gt;Node19</title>
<path fill="none" stroke="midnightblue" d="M764.71,-190.4C741.23,-179.09 708.56,-163.36 685.77,-152.39"/>
<polygon fill="midnightblue" stroke="midnightblue" points="687.2,-149.19 676.67,-148.01 684.16,-155.5 687.2,-149.19"/>
</g>
<!-- Node24&#45;&gt;Node25 -->
<g id="edge29" class="edge">
<title>Node24&#45;&gt;Node25</title>
<path fill="none" stroke="midnightblue" d="M814.83,-190.4C830.78,-179.6 852.7,-164.76 868.75,-153.89"/>
<polygon fill="midnightblue" stroke="midnightblue" points="871.12,-156.51 877.44,-148.01 867.19,-150.72 871.12,-156.51"/>
</g>
<!-- Node26 -->
<g id="node26" class="node">
<title>Node26</title>
<g id="a_node26"><a xlink:title=" ">
<polygon fill="none" stroke="#bfbfbf" points="755.5,-129 755.5,-148 832.5,-148 832.5,-129 755.5,-129"/>
<text text-anchor="middle" x="794" y="-136" font-family="Helvetica,sans-Serif" font-size="10.00">manif/SO3.h</text>
</a>
</g>
</g>
<!-- Node24&#45;&gt;Node26 -->
<g id="edge30" class="edge">
<title>Node24&#45;&gt;Node26</title>
<path fill="none" stroke="midnightblue" d="M794,-190.4C794,-181.06 794,-168.71 794,-158.52"/>
<polygon fill="midnightblue" stroke="midnightblue" points="797.5,-158.19 794,-148.19 790.5,-158.19 797.5,-158.19"/>
</g>
</g>
</svg>
