<?xml version="1.0" encoding="UTF-8" standalone="no"?>
<!DOCTYPE svg PUBLIC "-//W3C//DTD SVG 1.1//EN"
 "http://www.w3.org/Graphics/SVG/1.1/DTD/svg11.dtd">
<!-- Generated by graphviz version 2.43.0 (0)
 -->
<!-- Title: Estimators/include/BipedalLocomotion/FloatingBaseEstimators/FloatingBaseEstimatorIO.h Pages: 1 -->
<svg width="386pt" height="240pt"
 viewBox="0.00 0.00 385.50 240.00" xmlns="http://www.w3.org/2000/svg" xmlns:xlink="http://www.w3.org/1999/xlink">
<g id="graph0" class="graph" transform="scale(1 1) rotate(0) translate(4 236)">
<title>Estimators/include/BipedalLocomotion/FloatingBaseEstimators/FloatingBaseEstimatorIO.h</title>
<!-- Node1 -->
<g id="node1" class="node">
<title>Node1</title>
<g id="a_node1"><a xlink:title=" ">
<polygon fill="#bfbfbf" stroke="black" points="60,-190.5 60,-231.5 287,-231.5 287,-190.5 60,-190.5"/>
<text text-anchor="start" x="68" y="-219.5" font-family="Helvetica,sans-Serif" font-size="10.00">Estimators/include</text>
<text text-anchor="start" x="68" y="-208.5" font-family="Helvetica,sans-Serif" font-size="10.00">/BipedalLocomotion/Floating</text>
<text text-anchor="middle" x="173.5" y="-197.5" font-family="Helvetica,sans-Serif" font-size="10.00">BaseEstimators/FloatingBaseEstimatorIO.h</text>
</a>
</g>
</g>
<!-- Node2 -->
<g id="node2" class="node">
<title>Node2</title>
<g id="a_node2"><a xlink:title=" ">
<polygon fill="none" stroke="#bfbfbf" points="0,-0.5 0,-19.5 77,-19.5 77,-0.5 0,-0.5"/>
<text text-anchor="middle" x="38.5" y="-7.5" font-family="Helvetica,sans-Serif" font-size="10.00">Eigen/Dense</text>
</a>
</g>
</g>
<!-- Node1&#45;&gt;Node2 -->
<g id="edge1" class="edge">
<title>Node1&#45;&gt;Node2</title>
<path fill="none" stroke="midnightblue" d="M100.17,-190.47C81.87,-182.15 64.16,-170.42 52.5,-154 25.98,-116.65 30.3,-59.31 34.87,-29.87"/>
<polygon fill="midnightblue" stroke="midnightblue" points="38.36,-30.19 36.62,-19.73 31.47,-28.99 38.36,-30.19"/>
</g>
<!-- Node3 -->
<g id="node3" class="node">
<title>Node3</title>
<g id="a_node3"><a xlink:title=" ">
<polygon fill="none" stroke="#bfbfbf" points="62,-129 62,-148 147,-148 147,-129 62,-129"/>
<text text-anchor="middle" x="104.5" y="-136" font-family="Helvetica,sans-Serif" font-size="10.00">manif/manif.h</text>
</a>
</g>
</g>
<!-- Node1&#45;&gt;Node3 -->
<g id="edge2" class="edge">
<title>Node1&#45;&gt;Node3</title>
<path fill="none" stroke="midnightblue" d="M154.28,-190.36C143.48,-179.32 130.17,-165.72 120.03,-155.37"/>
<polygon fill="midnightblue" stroke="midnightblue" points="122.48,-152.87 112.99,-148.17 117.48,-157.77 122.48,-152.87"/>
</g>
<!-- Node4 -->
<g id="node4" class="node">
<title>Node4</title>
<g id="a_node4"><a xlink:href="Contact_8h.html" target="_top" xlink:title=" ">
<polygon fill="none" stroke="black" points="165.5,-123.5 165.5,-153.5 321.5,-153.5 321.5,-123.5 165.5,-123.5"/>
<text text-anchor="start" x="173.5" y="-141.5" font-family="Helvetica,sans-Serif" font-size="10.00">BipedalLocomotion/Contacts</text>
<text text-anchor="middle" x="243.5" y="-130.5" font-family="Helvetica,sans-Serif" font-size="10.00">/Contact.h</text>
</a>
</g>
</g>
<!-- Node1&#45;&gt;Node4 -->
<g id="edge3" class="edge">
<title>Node1&#45;&gt;Node4</title>
<path fill="none" stroke="midnightblue" d="M193,-190.36C202.06,-181.23 212.87,-170.35 222.15,-161"/>
<polygon fill="midnightblue" stroke="midnightblue" points="224.65,-163.45 229.21,-153.89 219.68,-158.52 224.65,-163.45"/>
</g>
<!-- Node9 -->
<g id="node9" class="node">
<title>Node9</title>
<g id="a_node9"><a xlink:title=" ">
<polygon fill="none" stroke="#bfbfbf" points="339.5,-129 339.5,-148 377.5,-148 377.5,-129 339.5,-129"/>
<text text-anchor="middle" x="358.5" y="-136" font-family="Helvetica,sans-Serif" font-size="10.00">map</text>
</a>
</g>
</g>
<!-- Node1&#45;&gt;Node9 -->
<g id="edge10" class="edge">
<title>Node1&#45;&gt;Node9</title>
<path fill="none" stroke="midnightblue" d="M234.26,-190.47C263.69,-180.47 299.32,-167.56 330.5,-154 331.53,-153.55 332.57,-153.08 333.62,-152.6"/>
<polygon fill="midnightblue" stroke="midnightblue" points="335.55,-155.55 342.98,-148.01 332.46,-149.27 335.55,-155.55"/>
</g>
<!-- Node5 -->
<g id="node5" class="node">
<title>Node5</title>
<g id="a_node5"><a xlink:href="Wrench_8h.html" target="_top" xlink:title=" ">
<polygon fill="none" stroke="black" points="69.5,-56.5 69.5,-86.5 207.5,-86.5 207.5,-56.5 69.5,-56.5"/>
<text text-anchor="start" x="77.5" y="-74.5" font-family="Helvetica,sans-Serif" font-size="10.00">BipedalLocomotion/Math</text>
<text text-anchor="middle" x="138.5" y="-63.5" font-family="Helvetica,sans-Serif" font-size="10.00">/Wrench.h</text>
</a>
</g>
</g>
<!-- Node4&#45;&gt;Node5 -->
<g id="edge4" class="edge">
<title>Node4&#45;&gt;Node5</title>
<path fill="none" stroke="midnightblue" d="M220.72,-123.4C205.86,-114.2 186.26,-102.07 169.93,-91.95"/>
<polygon fill="midnightblue" stroke="midnightblue" points="171.58,-88.86 161.24,-86.58 167.9,-94.82 171.58,-88.86"/>
</g>
<!-- Node6 -->
<g id="node6" class="node">
<title>Node6</title>
<g id="a_node6"><a xlink:title=" ">
<polygon fill="none" stroke="#bfbfbf" points="196,-0.5 196,-19.5 271,-19.5 271,-0.5 196,-0.5"/>
<text text-anchor="middle" x="233.5" y="-7.5" font-family="Helvetica,sans-Serif" font-size="10.00">manif/SE3.h</text>
</a>
</g>
</g>
<!-- Node4&#45;&gt;Node6 -->
<g id="edge8" class="edge">
<title>Node4&#45;&gt;Node6</title>
<path fill="none" stroke="midnightblue" d="M242.39,-123.48C240.59,-100.72 237.03,-55.7 235.01,-30.06"/>
<polygon fill="midnightblue" stroke="midnightblue" points="238.47,-29.48 234.19,-19.79 231.49,-30.03 238.47,-29.48"/>
</g>
<!-- Node8 -->
<g id="node8" class="node">
<title>Node8</title>
<g id="a_node8"><a xlink:title=" ">
<polygon fill="none" stroke="#bfbfbf" points="263.5,-62 263.5,-81 307.5,-81 307.5,-62 263.5,-62"/>
<text text-anchor="middle" x="285.5" y="-69" font-family="Helvetica,sans-Serif" font-size="10.00">string</text>
</a>
</g>
</g>
<!-- Node4&#45;&gt;Node8 -->
<g id="edge9" class="edge">
<title>Node4&#45;&gt;Node8</title>
<path fill="none" stroke="midnightblue" d="M252.61,-123.4C258.97,-113.56 267.49,-100.38 274.26,-89.89"/>
<polygon fill="midnightblue" stroke="midnightblue" points="277.39,-91.49 279.88,-81.19 271.52,-87.69 277.39,-91.49"/>
</g>
<!-- Node5&#45;&gt;Node2 -->
<g id="edge5" class="edge">
<title>Node5&#45;&gt;Node2</title>
<path fill="none" stroke="midnightblue" d="M114.8,-56.4C98.77,-46.86 77.7,-34.32 61.76,-24.84"/>
<polygon fill="midnightblue" stroke="midnightblue" points="63.43,-21.76 53.05,-19.66 59.86,-27.78 63.43,-21.76"/>
</g>
<!-- Node5&#45;&gt;Node6 -->
<g id="edge6" class="edge">
<title>Node5&#45;&gt;Node6</title>
<path fill="none" stroke="midnightblue" d="M161.01,-56.4C176.1,-46.95 195.89,-34.56 210.97,-25.11"/>
<polygon fill="midnightblue" stroke="midnightblue" points="213.06,-27.93 219.68,-19.66 209.34,-22 213.06,-27.93"/>
</g>
<!-- Node7 -->
<g id="node7" class="node">
<title>Node7</title>
<g id="a_node7"><a xlink:title=" ">
<polygon fill="none" stroke="#bfbfbf" points="100,-0.5 100,-19.5 177,-19.5 177,-0.5 100,-0.5"/>
<text text-anchor="middle" x="138.5" y="-7.5" font-family="Helvetica,sans-Serif" font-size="10.00">manif/SO3.h</text>
</a>
</g>
</g>
<!-- Node5&#45;&gt;Node7 -->
<g id="edge7" class="edge">
<title>Node5&#45;&gt;Node7</title>
<path fill="none" stroke="midnightblue" d="M138.5,-56.4C138.5,-48.47 138.5,-38.46 138.5,-29.86"/>
<polygon fill="midnightblue" stroke="midnightblue" points="142,-29.66 138.5,-19.66 135,-29.66 142,-29.66"/>
</g>
</g>
</svg>
