<?xml version="1.0" encoding="UTF-8" standalone="no"?>
<!DOCTYPE svg PUBLIC "-//W3C//DTD SVG 1.1//EN"
 "http://www.w3.org/Graphics/SVG/1.1/DTD/svg11.dtd">
<!-- Generated by graphviz version 2.43.0 (0)
 -->
<!-- Title: ContinuousDynamicalSystem/include/BipedalLocomotion/ContinuousDynamicalSystem/FloatingBaseSystemKinematics.h Pages: 1 -->
<svg width="722pt" height="385pt"
 viewBox="0.00 0.00 721.50 385.00" xmlns="http://www.w3.org/2000/svg" xmlns:xlink="http://www.w3.org/1999/xlink">
<g id="graph0" class="graph" transform="scale(1 1) rotate(0) translate(4 381)">
<title>ContinuousDynamicalSystem/include/BipedalLocomotion/ContinuousDynamicalSystem/FloatingBaseSystemKinematics.h</title>
<!-- Node1 -->
<g id="node1" class="node">
<title>Node1</title>
<g id="a_node1"><a xlink:title=" ">
<polygon fill="#bfbfbf" stroke="black" points="291,-324.5 291,-376.5 475,-376.5 475,-324.5 291,-324.5"/>
<text text-anchor="start" x="299" y="-364.5" font-family="Helvetica,sans-Serif" font-size="10.00">ContinuousDynamicalSystem</text>
<text text-anchor="start" x="299" y="-353.5" font-family="Helvetica,sans-Serif" font-size="10.00">/include/BipedalLocomotion</text>
<text text-anchor="start" x="299" y="-342.5" font-family="Helvetica,sans-Serif" font-size="10.00">/ContinuousDynamicalSystem</text>
<text text-anchor="middle" x="383" y="-331.5" font-family="Helvetica,sans-Serif" font-size="10.00">/FloatingBaseSystemKinematics.h</text>
</a>
</g>
</g>
<!-- Node2 -->
<g id="node2" class="node">
<title>Node2</title>
<g id="a_node2"><a xlink:title=" ">
<polygon fill="none" stroke="#bfbfbf" points="0,-62 0,-81 58,-81 58,-62 0,-62"/>
<text text-anchor="middle" x="29" y="-69" font-family="Helvetica,sans-Serif" font-size="10.00">memory</text>
</a>
</g>
</g>
<!-- Node1&#45;&gt;Node2 -->
<g id="edge1" class="edge">
<title>Node1&#45;&gt;Node2</title>
<path fill="none" stroke="midnightblue" d="M313.78,-324.41C257.65,-302.17 178.12,-266.23 117,-221 84.39,-196.87 75.43,-189.05 55,-154 43.34,-134 36.24,-108.14 32.47,-90.98"/>
<polygon fill="midnightblue" stroke="midnightblue" points="35.89,-90.2 30.46,-81.1 29.03,-91.59 35.89,-90.2"/>
</g>
<!-- Node3 -->
<g id="node3" class="node">
<title>Node3</title>
<g id="a_node3"><a xlink:title=" ">
<polygon fill="none" stroke="#bfbfbf" points="403.5,-129 403.5,-148 450.5,-148 450.5,-129 403.5,-129"/>
<text text-anchor="middle" x="427" y="-136" font-family="Helvetica,sans-Serif" font-size="10.00">vector</text>
</a>
</g>
</g>
<!-- Node1&#45;&gt;Node3 -->
<g id="edge2" class="edge">
<title>Node1&#45;&gt;Node3</title>
<path fill="none" stroke="midnightblue" d="M388.31,-324.17C397.26,-281.46 415.14,-196.09 423.07,-158.27"/>
<polygon fill="midnightblue" stroke="midnightblue" points="426.56,-158.67 425.18,-148.17 419.71,-157.23 426.56,-158.67"/>
</g>
<!-- Node4 -->
<g id="node4" class="node">
<title>Node4</title>
<g id="a_node4"><a xlink:href="DynamicalSystem_8h.html" target="_top" xlink:title=" ">
<polygon fill="none" stroke="black" points="411.5,-257.5 411.5,-287.5 618.5,-287.5 618.5,-257.5 411.5,-257.5"/>
<text text-anchor="start" x="419.5" y="-275.5" font-family="Helvetica,sans-Serif" font-size="10.00">BipedalLocomotion/Continuous</text>
<text text-anchor="middle" x="515" y="-264.5" font-family="Helvetica,sans-Serif" font-size="10.00">DynamicalSystem/DynamicalSystem.h</text>
</a>
</g>
</g>
<!-- Node1&#45;&gt;Node4 -->
<g id="edge3" class="edge">
<title>Node1&#45;&gt;Node4</title>
<path fill="none" stroke="midnightblue" d="M426.59,-324.4C444.46,-314.12 464.81,-302.4 481.48,-292.8"/>
<polygon fill="midnightblue" stroke="midnightblue" points="483.41,-295.73 490.33,-287.71 479.91,-289.66 483.41,-295.73"/>
</g>
<!-- Node11 -->
<g id="node11" class="node">
<title>Node11</title>
<g id="a_node11"><a xlink:href="IParametersHandler_8h.html" target="_top" xlink:title=" ">
<polygon fill="none" stroke="black" points="186.5,-190.5 186.5,-220.5 355.5,-220.5 355.5,-190.5 186.5,-190.5"/>
<text text-anchor="start" x="194.5" y="-208.5" font-family="Helvetica,sans-Serif" font-size="10.00">BipedalLocomotion/Parameters</text>
<text text-anchor="middle" x="271" y="-197.5" font-family="Helvetica,sans-Serif" font-size="10.00">Handler/IParametersHandler.h</text>
</a>
</g>
</g>
<!-- Node1&#45;&gt;Node11 -->
<g id="edge24" class="edge">
<title>Node1&#45;&gt;Node11</title>
<path fill="none" stroke="midnightblue" d="M363.23,-324.26C342.02,-297.18 308.65,-254.57 288.4,-228.71"/>
<polygon fill="midnightblue" stroke="midnightblue" points="290.99,-226.35 282.07,-220.63 285.48,-230.66 290.99,-226.35"/>
</g>
<!-- Node18 -->
<g id="node18" class="node">
<title>Node18</title>
<g id="a_node18"><a xlink:title=" ">
<polygon fill="none" stroke="#bfbfbf" points="636.5,-263 636.5,-282 713.5,-282 713.5,-263 636.5,-263"/>
<text text-anchor="middle" x="675" y="-270" font-family="Helvetica,sans-Serif" font-size="10.00">Eigen/Dense</text>
</a>
</g>
</g>
<!-- Node1&#45;&gt;Node18 -->
<g id="edge25" class="edge">
<title>Node1&#45;&gt;Node18</title>
<path fill="none" stroke="midnightblue" d="M475.22,-327.58C521.27,-316.33 577.74,-302.05 628,-288 631.39,-287.05 634.91,-286.03 638.43,-284.99"/>
<polygon fill="midnightblue" stroke="midnightblue" points="639.67,-288.27 648.23,-282.03 637.64,-281.57 639.67,-288.27"/>
</g>
<!-- Node4&#45;&gt;Node2 -->
<g id="edge4" class="edge">
<title>Node4&#45;&gt;Node2</title>
<path fill="none" stroke="midnightblue" d="M411.19,-268.41C342.61,-263.4 251.9,-251.03 177,-221 129.04,-201.77 117.84,-191.22 82,-154 63.31,-134.59 47.31,-107.69 37.93,-90.19"/>
<polygon fill="midnightblue" stroke="midnightblue" points="40.92,-88.35 33.19,-81.1 34.71,-91.59 40.92,-88.35"/>
</g>
<!-- Node5 -->
<g id="node5" class="node">
<title>Node5</title>
<g id="a_node5"><a xlink:title=" ">
<polygon fill="none" stroke="#bfbfbf" points="644.5,-129 644.5,-148 685.5,-148 685.5,-129 644.5,-129"/>
<text text-anchor="middle" x="665" y="-136" font-family="Helvetica,sans-Serif" font-size="10.00">tuple</text>
</a>
</g>
</g>
<!-- Node4&#45;&gt;Node5 -->
<g id="edge5" class="edge">
<title>Node4&#45;&gt;Node5</title>
<path fill="none" stroke="midnightblue" d="M606.87,-257.45C647.88,-249.12 689.73,-237.02 702,-221 717.51,-200.75 697.92,-172.96 681.86,-155.63"/>
<polygon fill="midnightblue" stroke="midnightblue" points="683.93,-152.74 674.43,-148.04 678.93,-157.63 683.93,-152.74"/>
</g>
<!-- Node6 -->
<g id="node6" class="node">
<title>Node6</title>
<g id="a_node6"><a xlink:href="traits_8h.html" target="_top" xlink:title=" ">
<polygon fill="none" stroke="black" points="525,-190.5 525,-220.5 693,-220.5 693,-190.5 525,-190.5"/>
<text text-anchor="start" x="533" y="-208.5" font-family="Helvetica,sans-Serif" font-size="10.00">BipedalLocomotion/Continuous</text>
<text text-anchor="middle" x="609" y="-197.5" font-family="Helvetica,sans-Serif" font-size="10.00">DynamicalSystem/impl/traits.h</text>
</a>
</g>
</g>
<!-- Node4&#45;&gt;Node6 -->
<g id="edge6" class="edge">
<title>Node4&#45;&gt;Node6</title>
<path fill="none" stroke="midnightblue" d="M535.4,-257.4C548.45,-248.37 565.6,-236.51 580.05,-226.52"/>
<polygon fill="midnightblue" stroke="midnightblue" points="582.41,-229.14 588.64,-220.58 578.43,-223.39 582.41,-229.14"/>
</g>
<!-- Node7 -->
<g id="node7" class="node">
<title>Node7</title>
<g id="a_node7"><a xlink:href="TemplateHelpers_8h_source.html" target="_top" xlink:title=" ">
<polygon fill="none" stroke="black" points="447,-56.5 447,-86.5 605,-86.5 605,-56.5 447,-56.5"/>
<text text-anchor="start" x="455" y="-74.5" font-family="Helvetica,sans-Serif" font-size="10.00">BipedalLocomotion/Generic</text>
<text text-anchor="middle" x="526" y="-63.5" font-family="Helvetica,sans-Serif" font-size="10.00">Container/TemplateHelpers.h</text>
</a>
</g>
</g>
<!-- Node4&#45;&gt;Node7 -->
<g id="edge8" class="edge">
<title>Node4&#45;&gt;Node7</title>
<path fill="none" stroke="midnightblue" d="M514.86,-257.36C514.78,-241.09 514.85,-213.6 516,-190 517.57,-157.69 521.01,-120.51 523.42,-96.78"/>
<polygon fill="midnightblue" stroke="midnightblue" points="526.92,-96.89 524.47,-86.59 519.96,-96.17 526.92,-96.89"/>
</g>
<!-- Node4&#45;&gt;Node11 -->
<g id="edge12" class="edge">
<title>Node4&#45;&gt;Node11</title>
<path fill="none" stroke="midnightblue" d="M462.36,-257.48C424.64,-247.43 373.69,-233.86 333.85,-223.24"/>
<polygon fill="midnightblue" stroke="midnightblue" points="334.53,-219.8 323.97,-220.61 332.73,-226.57 334.53,-219.8"/>
</g>
<!-- Node6&#45;&gt;Node5 -->
<g id="edge7" class="edge">
<title>Node6&#45;&gt;Node5</title>
<path fill="none" stroke="midnightblue" d="M621.15,-190.4C629.88,-180.26 641.68,-166.57 650.84,-155.94"/>
<polygon fill="midnightblue" stroke="midnightblue" points="653.63,-158.06 657.51,-148.19 648.33,-153.49 653.63,-158.06"/>
</g>
<!-- Node8 -->
<g id="node8" class="node">
<title>Node8</title>
<g id="a_node8"><a xlink:title=" ">
<polygon fill="none" stroke="#bfbfbf" points="402.5,-0.5 402.5,-19.5 471.5,-19.5 471.5,-0.5 402.5,-0.5"/>
<text text-anchor="middle" x="437" y="-7.5" font-family="Helvetica,sans-Serif" font-size="10.00">type_traits</text>
</a>
</g>
</g>
<!-- Node7&#45;&gt;Node8 -->
<g id="edge9" class="edge">
<title>Node7&#45;&gt;Node8</title>
<path fill="none" stroke="midnightblue" d="M504.91,-56.4C490.91,-47.04 472.59,-34.79 458.51,-25.38"/>
<polygon fill="midnightblue" stroke="midnightblue" points="460.21,-22.31 449.95,-19.66 456.32,-28.13 460.21,-22.31"/>
</g>
<!-- Node9 -->
<g id="node9" class="node">
<title>Node9</title>
<g id="a_node9"><a xlink:title=" ">
<polygon fill="none" stroke="#bfbfbf" points="489.5,-0.5 489.5,-19.5 562.5,-19.5 562.5,-0.5 489.5,-0.5"/>
<text text-anchor="middle" x="526" y="-7.5" font-family="Helvetica,sans-Serif" font-size="10.00">string_view</text>
</a>
</g>
</g>
<!-- Node7&#45;&gt;Node9 -->
<g id="edge10" class="edge">
<title>Node7&#45;&gt;Node9</title>
<path fill="none" stroke="midnightblue" d="M526,-56.4C526,-48.47 526,-38.46 526,-29.86"/>
<polygon fill="midnightblue" stroke="midnightblue" points="529.5,-29.66 526,-19.66 522.5,-29.66 529.5,-29.66"/>
</g>
<!-- Node10 -->
<g id="node10" class="node">
<title>Node10</title>
<g id="a_node10"><a xlink:title=" ">
<polygon fill="none" stroke="#bfbfbf" points="580.5,-0.5 580.5,-19.5 649.5,-19.5 649.5,-0.5 580.5,-0.5"/>
<text text-anchor="middle" x="615" y="-7.5" font-family="Helvetica,sans-Serif" font-size="10.00">Eigen/Core</text>
</a>
</g>
</g>
<!-- Node7&#45;&gt;Node10 -->
<g id="edge11" class="edge">
<title>Node7&#45;&gt;Node10</title>
<path fill="none" stroke="midnightblue" d="M547.09,-56.4C561.09,-47.04 579.41,-34.79 593.49,-25.38"/>
<polygon fill="midnightblue" stroke="midnightblue" points="595.68,-28.13 602.05,-19.66 591.79,-22.31 595.68,-28.13"/>
</g>
<!-- Node11&#45;&gt;Node2 -->
<g id="edge13" class="edge">
<title>Node11&#45;&gt;Node2</title>
<path fill="none" stroke="midnightblue" d="M214.06,-190.4C185.87,-182.09 151.98,-170.02 124,-154 107.29,-144.43 68.18,-109.05 45.7,-88.18"/>
<polygon fill="midnightblue" stroke="midnightblue" points="47.94,-85.49 38.24,-81.22 43.17,-90.6 47.94,-85.49"/>
</g>
<!-- Node11&#45;&gt;Node3 -->
<g id="edge15" class="edge">
<title>Node11&#45;&gt;Node3</title>
<path fill="none" stroke="midnightblue" d="M304.85,-190.4C332.34,-178.94 370.75,-162.94 397.11,-151.95"/>
<polygon fill="midnightblue" stroke="midnightblue" points="398.7,-155.08 406.58,-148.01 396.01,-148.62 398.7,-155.08"/>
</g>
<!-- Node11&#45;&gt;Node7 -->
<g id="edge16" class="edge">
<title>Node11&#45;&gt;Node7</title>
<path fill="none" stroke="midnightblue" d="M296.11,-190.45C313.06,-180.71 335.76,-167.17 355,-154 373.56,-141.29 375.41,-134.05 395,-123 418.6,-109.68 446.41,-98.41 470.32,-89.91"/>
<polygon fill="midnightblue" stroke="midnightblue" points="471.67,-93.15 479.96,-86.56 469.37,-86.54 471.67,-93.15"/>
</g>
<!-- Node12 -->
<g id="node12" class="node">
<title>Node12</title>
<g id="a_node12"><a xlink:title=" ">
<polygon fill="none" stroke="#bfbfbf" points="133,-129 133,-148 177,-148 177,-129 133,-129"/>
<text text-anchor="middle" x="155" y="-136" font-family="Helvetica,sans-Serif" font-size="10.00">string</text>
</a>
</g>
</g>
<!-- Node11&#45;&gt;Node12 -->
<g id="edge14" class="edge">
<title>Node11&#45;&gt;Node12</title>
<path fill="none" stroke="midnightblue" d="M245.83,-190.4C226.02,-179.29 198.58,-163.92 179.06,-152.98"/>
<polygon fill="midnightblue" stroke="midnightblue" points="180.62,-149.84 170.18,-148.01 177.19,-155.95 180.62,-149.84"/>
</g>
<!-- Node13 -->
<g id="node13" class="node">
<title>Node13</title>
<g id="a_node13"><a xlink:href="Vector_8h_source.html" target="_top" xlink:title=" ">
<polygon fill="none" stroke="black" points="195.5,-123.5 195.5,-153.5 346.5,-153.5 346.5,-123.5 195.5,-123.5"/>
<text text-anchor="start" x="203.5" y="-141.5" font-family="Helvetica,sans-Serif" font-size="10.00">BipedalLocomotion/Generic</text>
<text text-anchor="middle" x="271" y="-130.5" font-family="Helvetica,sans-Serif" font-size="10.00">Container/Vector.h</text>
</a>
</g>
</g>
<!-- Node11&#45;&gt;Node13 -->
<g id="edge17" class="edge">
<title>Node11&#45;&gt;Node13</title>
<path fill="none" stroke="midnightblue" d="M271,-190.4C271,-182.64 271,-172.81 271,-163.86"/>
<polygon fill="midnightblue" stroke="midnightblue" points="274.5,-163.58 271,-153.58 267.5,-163.58 274.5,-163.58"/>
</g>
<!-- Node13&#45;&gt;Node2 -->
<g id="edge23" class="edge">
<title>Node13&#45;&gt;Node2</title>
<path fill="none" stroke="midnightblue" d="M205.67,-123.46C165.36,-114.28 112.78,-101.34 67,-87 64.58,-86.24 62.1,-85.41 59.61,-84.55"/>
<polygon fill="midnightblue" stroke="midnightblue" points="60.74,-81.23 50.14,-81.09 58.34,-87.81 60.74,-81.23"/>
</g>
<!-- Node13&#45;&gt;Node7 -->
<g id="edge19" class="edge">
<title>Node13&#45;&gt;Node7</title>
<path fill="none" stroke="midnightblue" d="M326.02,-123.48C365.6,-113.39 419.13,-99.74 460.85,-89.11"/>
<polygon fill="midnightblue" stroke="midnightblue" points="461.82,-92.47 470.64,-86.61 460.09,-85.69 461.82,-92.47"/>
</g>
<!-- Node14 -->
<g id="node14" class="node">
<title>Node14</title>
<g id="a_node14"><a xlink:title=" ">
<polygon fill="none" stroke="#bfbfbf" points="224.5,-62 224.5,-81 345.5,-81 345.5,-62 224.5,-62"/>
<text text-anchor="middle" x="285" y="-69" font-family="Helvetica,sans-Serif" font-size="10.00">iDynTree/Core/Span.h</text>
</a>
</g>
</g>
<!-- Node13&#45;&gt;Node14 -->
<g id="edge18" class="edge">
<title>Node13&#45;&gt;Node14</title>
<path fill="none" stroke="midnightblue" d="M274.04,-123.4C276.07,-113.96 278.76,-101.45 280.97,-91.19"/>
<polygon fill="midnightblue" stroke="midnightblue" points="284.44,-91.71 283.13,-81.19 277.6,-90.23 284.44,-91.71"/>
</g>
<!-- Node15 -->
<g id="node15" class="node">
<title>Node15</title>
<g id="a_node15"><a xlink:title=" ">
<polygon fill="none" stroke="#bfbfbf" points="363.5,-62 363.5,-81 428.5,-81 428.5,-62 363.5,-62"/>
<text text-anchor="middle" x="396" y="-69" font-family="Helvetica,sans-Serif" font-size="10.00">functional</text>
</a>
</g>
</g>
<!-- Node13&#45;&gt;Node15 -->
<g id="edge20" class="edge">
<title>Node13&#45;&gt;Node15</title>
<path fill="none" stroke="midnightblue" d="M298.12,-123.4C319.67,-112.19 349.57,-96.64 370.64,-85.69"/>
<polygon fill="midnightblue" stroke="midnightblue" points="372.38,-88.73 379.64,-81.01 369.15,-82.52 372.38,-88.73"/>
</g>
<!-- Node16 -->
<g id="node16" class="node">
<title>Node16</title>
<g id="a_node16"><a xlink:title=" ">
<polygon fill="none" stroke="#bfbfbf" points="76,-62 76,-81 128,-81 128,-62 76,-62"/>
<text text-anchor="middle" x="102" y="-69" font-family="Helvetica,sans-Serif" font-size="10.00">cassert</text>
</a>
</g>
</g>
<!-- Node13&#45;&gt;Node16 -->
<g id="edge21" class="edge">
<title>Node13&#45;&gt;Node16</title>
<path fill="none" stroke="midnightblue" d="M232.75,-123.46C205.88,-113.5 169.14,-99.71 137,-87 135.36,-86.35 133.68,-85.68 131.99,-85"/>
<polygon fill="midnightblue" stroke="midnightblue" points="132.89,-81.59 122.31,-81.05 130.25,-88.07 132.89,-81.59"/>
</g>
<!-- Node17 -->
<g id="node17" class="node">
<title>Node17</title>
<g id="a_node17"><a xlink:title=" ">
<polygon fill="none" stroke="#bfbfbf" points="146,-62 146,-81 206,-81 206,-62 146,-62"/>
<text text-anchor="middle" x="176" y="-69" font-family="Helvetica,sans-Serif" font-size="10.00">iostream</text>
</a>
</g>
</g>
<!-- Node13&#45;&gt;Node17 -->
<g id="edge22" class="edge">
<title>Node13&#45;&gt;Node17</title>
<path fill="none" stroke="midnightblue" d="M250.39,-123.4C234.6,-112.6 212.91,-97.76 197.03,-86.89"/>
<polygon fill="midnightblue" stroke="midnightblue" points="198.66,-83.77 188.43,-81.01 194.71,-89.54 198.66,-83.77"/>
</g>
</g>
</svg>
