<?xml version="1.0" encoding="UTF-8" standalone="no"?>
<!DOCTYPE svg PUBLIC "-//W3C//DTD SVG 1.1//EN"
 "http://www.w3.org/Graphics/SVG/1.1/DTD/svg11.dtd">
<!-- Generated by graphviz version 2.43.0 (0)
 -->
<!-- Title: ContinuousDynamicalSystem/include/BipedalLocomotion/ContinuousDynamicalSystem/FloatingBaseDynamicsWithCompliantContacts.h Pages: 1 -->
<svg width="2148pt" height="463pt"
 viewBox="0.00 0.00 2147.83 463.00" xmlns="http://www.w3.org/2000/svg" xmlns:xlink="http://www.w3.org/1999/xlink">
<g id="graph0" class="graph" transform="scale(1 1) rotate(0) translate(4 459)">
<title>ContinuousDynamicalSystem/include/BipedalLocomotion/ContinuousDynamicalSystem/FloatingBaseDynamicsWithCompliantContacts.h</title>
<!-- Node1 -->
<g id="node1" class="node">
<title>Node1</title>
<g id="a_node1"><a xlink:title=" ">
<polygon fill="#bfbfbf" stroke="black" points="1490.83,-402.5 1490.83,-454.5 1747.83,-454.5 1747.83,-402.5 1490.83,-402.5"/>
<text text-anchor="start" x="1498.83" y="-442.5" font-family="Helvetica,sans-Serif" font-size="10.00">ContinuousDynamicalSystem</text>
<text text-anchor="start" x="1498.83" y="-431.5" font-family="Helvetica,sans-Serif" font-size="10.00">/include/BipedalLocomotion</text>
<text text-anchor="start" x="1498.83" y="-420.5" font-family="Helvetica,sans-Serif" font-size="10.00">/ContinuousDynamicalSystem</text>
<text text-anchor="middle" x="1619.33" y="-409.5" font-family="Helvetica,sans-Serif" font-size="10.00">/FloatingBaseDynamicsWithCompliantContacts.h</text>
</a>
</g>
</g>
<!-- Node2 -->
<g id="node2" class="node">
<title>Node2</title>
<g id="a_node2"><a xlink:title=" ">
<polygon fill="none" stroke="#bfbfbf" points="713.33,-62 713.33,-81 771.33,-81 771.33,-62 713.33,-62"/>
<text text-anchor="middle" x="742.33" y="-69" font-family="Helvetica,sans-Serif" font-size="10.00">memory</text>
</a>
</g>
</g>
<!-- Node1&#45;&gt;Node2 -->
<g id="edge1" class="edge">
<title>Node1&#45;&gt;Node2</title>
<path fill="none" stroke="midnightblue" d="M1490.61,-425.54C1206.1,-420.53 531.2,-404.85 306.33,-366 167.16,-341.96 2.33,-414.73 2.33,-273.5 2.33,-273.5 2.33,-273.5 2.33,-204.5 2.33,-167.31 -6.98,-147.13 21.33,-123 73.38,-78.63 559.81,-73.21 702.91,-72.58"/>
<polygon fill="midnightblue" stroke="midnightblue" points="703.01,-76.07 713,-72.54 702.98,-69.07 703.01,-76.07"/>
</g>
<!-- Node3 -->
<g id="node3" class="node">
<title>Node3</title>
<g id="a_node3"><a xlink:title=" ">
<polygon fill="none" stroke="#bfbfbf" points="30.83,-129 30.83,-148 77.83,-148 77.83,-129 30.83,-129"/>
<text text-anchor="middle" x="54.33" y="-136" font-family="Helvetica,sans-Serif" font-size="10.00">vector</text>
</a>
</g>
</g>
<!-- Node1&#45;&gt;Node3 -->
<g id="edge2" class="edge">
<title>Node1&#45;&gt;Node3</title>
<path fill="none" stroke="midnightblue" d="M1490.79,-427.12C1185.17,-424.28 424.13,-405.29 202.33,-288 140.53,-255.32 88.16,-188.1 65.85,-156.56"/>
<polygon fill="midnightblue" stroke="midnightblue" points="68.72,-154.55 60.14,-148.32 62.97,-158.54 68.72,-154.55"/>
</g>
<!-- Node4 -->
<g id="node4" class="node">
<title>Node4</title>
<g id="a_node4"><a xlink:href="CompliantContactWrench_8h.html" target="_top" xlink:title=" ">
<polygon fill="none" stroke="black" points="626.83,-324.5 626.83,-365.5 823.83,-365.5 823.83,-324.5 626.83,-324.5"/>
<text text-anchor="start" x="634.83" y="-353.5" font-family="Helvetica,sans-Serif" font-size="10.00">BipedalLocomotion/Continuous</text>
<text text-anchor="start" x="634.83" y="-342.5" font-family="Helvetica,sans-Serif" font-size="10.00">DynamicalSystem/CompliantContact</text>
<text text-anchor="middle" x="725.33" y="-331.5" font-family="Helvetica,sans-Serif" font-size="10.00">Wrench.h</text>
</a>
</g>
</g>
<!-- Node1&#45;&gt;Node4 -->
<g id="edge3" class="edge">
<title>Node1&#45;&gt;Node4</title>
<path fill="none" stroke="midnightblue" d="M1490.76,-415.78C1314.23,-399.69 999.89,-371.03 834.29,-355.93"/>
<polygon fill="midnightblue" stroke="midnightblue" points="834.37,-352.43 824.09,-355 833.73,-359.4 834.37,-352.43"/>
</g>
<!-- Node26 -->
<g id="node26" class="node">
<title>Node26</title>
<g id="a_node26"><a xlink:href="DynamicalSystem_8h.html" target="_top" xlink:title=" ">
<polygon fill="none" stroke="black" points="1473.83,-257.5 1473.83,-287.5 1680.83,-287.5 1680.83,-257.5 1473.83,-257.5"/>
<text text-anchor="start" x="1481.83" y="-275.5" font-family="Helvetica,sans-Serif" font-size="10.00">BipedalLocomotion/Continuous</text>
<text text-anchor="middle" x="1577.33" y="-264.5" font-family="Helvetica,sans-Serif" font-size="10.00">DynamicalSystem/DynamicalSystem.h</text>
</a>
</g>
</g>
<!-- Node1&#45;&gt;Node26 -->
<g id="edge32" class="edge">
<title>Node1&#45;&gt;Node26</title>
<path fill="none" stroke="midnightblue" d="M1612.49,-402.41C1604.57,-373.39 1591.63,-325.96 1583.85,-297.43"/>
<polygon fill="midnightblue" stroke="midnightblue" points="1587.15,-296.23 1581.15,-287.51 1580.4,-298.07 1587.15,-296.23"/>
</g>
<!-- Node28 -->
<g id="node28" class="node">
<title>Node28</title>
<g id="a_node28"><a xlink:href="traits_8h.html" target="_top" xlink:title=" ">
<polygon fill="none" stroke="black" points="1681.33,-190.5 1681.33,-220.5 1849.33,-220.5 1849.33,-190.5 1681.33,-190.5"/>
<text text-anchor="start" x="1689.33" y="-208.5" font-family="Helvetica,sans-Serif" font-size="10.00">BipedalLocomotion/Continuous</text>
<text text-anchor="middle" x="1765.33" y="-197.5" font-family="Helvetica,sans-Serif" font-size="10.00">DynamicalSystem/impl/traits.h</text>
</a>
</g>
</g>
<!-- Node1&#45;&gt;Node28 -->
<g id="edge39" class="edge">
<title>Node1&#45;&gt;Node28</title>
<path fill="none" stroke="midnightblue" d="M1636.07,-402.15C1664.76,-358.72 1722.87,-270.77 1750.32,-229.22"/>
<polygon fill="midnightblue" stroke="midnightblue" points="1753.4,-230.9 1755.99,-220.63 1747.56,-227.04 1753.4,-230.9"/>
</g>
<!-- Node29 -->
<g id="node29" class="node">
<title>Node29</title>
<g id="a_node29"><a xlink:href="Constants_8h.html" target="_top" xlink:title=" ">
<polygon fill="none" stroke="black" points="1713.33,-330 1713.33,-360 1851.33,-360 1851.33,-330 1713.33,-330"/>
<text text-anchor="start" x="1721.33" y="-348" font-family="Helvetica,sans-Serif" font-size="10.00">BipedalLocomotion/Math</text>
<text text-anchor="middle" x="1782.33" y="-337" font-family="Helvetica,sans-Serif" font-size="10.00">/Constants.h</text>
</a>
</g>
</g>
<!-- Node1&#45;&gt;Node29 -->
<g id="edge40" class="edge">
<title>Node1&#45;&gt;Node29</title>
<path fill="none" stroke="midnightblue" d="M1669.56,-402.38C1693.95,-390.19 1722.75,-375.79 1745.13,-364.6"/>
<polygon fill="midnightblue" stroke="midnightblue" points="1746.93,-367.61 1754.3,-360.01 1743.79,-361.35 1746.93,-367.61"/>
</g>
<!-- Node30 -->
<g id="node30" class="node">
<title>Node30</title>
<g id="a_node30"><a xlink:title=" ">
<polygon fill="none" stroke="#bfbfbf" points="1869.83,-335.5 1869.83,-354.5 1946.83,-354.5 1946.83,-335.5 1869.83,-335.5"/>
<text text-anchor="middle" x="1908.33" y="-342.5" font-family="Helvetica,sans-Serif" font-size="10.00">Eigen/Dense</text>
</a>
</g>
</g>
<!-- Node1&#45;&gt;Node30 -->
<g id="edge41" class="edge">
<title>Node1&#45;&gt;Node30</title>
<path fill="none" stroke="midnightblue" d="M1731.59,-402.43C1772.49,-392.36 1818.86,-379.85 1860.33,-366 1866.73,-363.86 1873.49,-361.26 1879.86,-358.66"/>
<polygon fill="midnightblue" stroke="midnightblue" points="1881.56,-361.74 1889.42,-354.62 1878.84,-355.29 1881.56,-361.74"/>
</g>
<!-- Node31 -->
<g id="node31" class="node">
<title>Node31</title>
<g id="a_node31"><a xlink:title=" ">
<polygon fill="none" stroke="#bfbfbf" points="1964.83,-335.5 1964.83,-354.5 2139.83,-354.5 2139.83,-335.5 1964.83,-335.5"/>
<text text-anchor="middle" x="2052.33" y="-342.5" font-family="Helvetica,sans-Serif" font-size="10.00">iDynTree/KinDynComputations.h</text>
</a>
</g>
</g>
<!-- Node1&#45;&gt;Node31 -->
<g id="edge42" class="edge">
<title>Node1&#45;&gt;Node31</title>
<path fill="none" stroke="midnightblue" d="M1747.89,-404.81C1810.8,-393.52 1887.6,-379.43 1956.33,-366 1971.26,-363.08 1987.47,-359.76 2002.24,-356.68"/>
<polygon fill="midnightblue" stroke="midnightblue" points="2003.13,-360.07 2012.2,-354.59 2001.7,-353.22 2003.13,-360.07"/>
</g>
<!-- Node4&#45;&gt;Node2 -->
<g id="edge4" class="edge">
<title>Node4&#45;&gt;Node2</title>
<path fill="none" stroke="midnightblue" d="M626.57,-337.34C478.93,-325.09 211.73,-293.3 153.33,-221 144.67,-210.28 148.15,-202.77 153.33,-190 168.91,-151.55 180.94,-140.98 218.33,-123 304.01,-81.79 596.57,-74.21 703.11,-72.81"/>
<polygon fill="midnightblue" stroke="midnightblue" points="703.17,-76.31 713.12,-72.69 703.08,-69.31 703.17,-76.31"/>
</g>
<!-- Node5 -->
<g id="node5" class="node">
<title>Node5</title>
<g id="a_node5"><a xlink:href="ContactModel_8h.html" target="_top" xlink:title=" ">
<polygon fill="none" stroke="black" points="568.83,-257.5 568.83,-287.5 719.83,-287.5 719.83,-257.5 568.83,-257.5"/>
<text text-anchor="start" x="576.83" y="-275.5" font-family="Helvetica,sans-Serif" font-size="10.00">BipedalLocomotion/Contact</text>
<text text-anchor="middle" x="644.33" y="-264.5" font-family="Helvetica,sans-Serif" font-size="10.00">Models/ContactModel.h</text>
</a>
</g>
</g>
<!-- Node4&#45;&gt;Node5 -->
<g id="edge5" class="edge">
<title>Node4&#45;&gt;Node5</title>
<path fill="none" stroke="midnightblue" d="M702.76,-324.36C691.99,-314.99 679.1,-303.76 668.16,-294.25"/>
<polygon fill="midnightblue" stroke="midnightblue" points="670.45,-291.6 660.61,-287.67 665.85,-296.88 670.45,-291.6"/>
</g>
<!-- Node25 -->
<g id="node25" class="node">
<title>Node25</title>
<g id="a_node25"><a xlink:title=" ">
<polygon fill="none" stroke="#bfbfbf" points="737.83,-263 737.83,-282 876.83,-282 876.83,-263 737.83,-263"/>
<text text-anchor="middle" x="807.33" y="-270" font-family="Helvetica,sans-Serif" font-size="10.00">iDynTree/Model/Indices.h</text>
</a>
</g>
</g>
<!-- Node4&#45;&gt;Node25 -->
<g id="edge31" class="edge">
<title>Node4&#45;&gt;Node25</title>
<path fill="none" stroke="midnightblue" d="M748.17,-324.36C761.26,-313.11 777.45,-299.19 789.58,-288.76"/>
<polygon fill="midnightblue" stroke="midnightblue" points="791.94,-291.35 797.24,-282.17 787.37,-286.04 791.94,-291.35"/>
</g>
<!-- Node5&#45;&gt;Node2 -->
<g id="edge7" class="edge">
<title>Node5&#45;&gt;Node2</title>
<path fill="none" stroke="midnightblue" d="M568.7,-269.01C440.06,-263.99 189.91,-250.52 163.33,-221 154.11,-210.76 154.61,-200.67 163.33,-190 232.17,-105.78 584.38,-80.46 703.16,-74.25"/>
<polygon fill="midnightblue" stroke="midnightblue" points="703.45,-77.74 713.26,-73.74 703.1,-70.75 703.45,-77.74"/>
</g>
<!-- Node6 -->
<g id="node6" class="node">
<title>Node6</title>
<g id="a_node6"><a xlink:title=" ">
<polygon fill="none" stroke="#bfbfbf" points="172.83,-196 172.83,-215 207.83,-215 207.83,-196 172.83,-196"/>
<text text-anchor="middle" x="190.33" y="-203" font-family="Helvetica,sans-Serif" font-size="10.00">any</text>
</a>
</g>
</g>
<!-- Node5&#45;&gt;Node6 -->
<g id="edge6" class="edge">
<title>Node5&#45;&gt;Node6</title>
<path fill="none" stroke="midnightblue" d="M568.66,-269.4C483.14,-265.43 340.48,-253.99 222.33,-221 220.18,-220.4 217.99,-219.68 215.82,-218.88"/>
<polygon fill="midnightblue" stroke="midnightblue" points="217.15,-215.64 206.57,-215.02 214.46,-222.1 217.15,-215.64"/>
</g>
<!-- Node7 -->
<g id="node7" class="node">
<title>Node7</title>
<g id="a_node7"><a xlink:title=" ">
<polygon fill="none" stroke="#bfbfbf" points="762.33,-129 762.33,-148 806.33,-148 806.33,-129 762.33,-129"/>
<text text-anchor="middle" x="784.33" y="-136" font-family="Helvetica,sans-Serif" font-size="10.00">string</text>
</a>
</g>
</g>
<!-- Node5&#45;&gt;Node7 -->
<g id="edge8" class="edge">
<title>Node5&#45;&gt;Node7</title>
<path fill="none" stroke="midnightblue" d="M568.52,-266.97C461.19,-259.77 275.64,-244.12 255.33,-221 246.23,-210.65 246.06,-200.19 255.33,-190 288.85,-153.13 642.58,-142.52 752.16,-140.11"/>
<polygon fill="midnightblue" stroke="midnightblue" points="752.35,-143.61 762.27,-139.9 752.2,-136.61 752.35,-143.61"/>
</g>
<!-- Node8 -->
<g id="node8" class="node">
<title>Node8</title>
<g id="a_node8"><a xlink:title=" ">
<polygon fill="none" stroke="#bfbfbf" points="264.83,-196 264.83,-215 357.83,-215 357.83,-196 264.83,-196"/>
<text text-anchor="middle" x="311.33" y="-203" font-family="Helvetica,sans-Serif" font-size="10.00">unordered_map</text>
</a>
</g>
</g>
<!-- Node5&#45;&gt;Node8 -->
<g id="edge9" class="edge">
<title>Node5&#45;&gt;Node8</title>
<path fill="none" stroke="midnightblue" d="M568.79,-259.26C512.93,-249.84 435.11,-235.93 367.33,-221 362.55,-219.95 357.57,-218.77 352.63,-217.56"/>
<polygon fill="midnightblue" stroke="midnightblue" points="353.18,-214.09 342.62,-215.03 351.47,-220.87 353.18,-214.09"/>
</g>
<!-- Node9 -->
<g id="node9" class="node">
<title>Node9</title>
<g id="a_node9"><a xlink:title=" ">
<polygon fill="none" stroke="#bfbfbf" points="376.33,-196 376.33,-215 544.33,-215 544.33,-196 376.33,-196"/>
<text text-anchor="middle" x="460.33" y="-203" font-family="Helvetica,sans-Serif" font-size="10.00">iDynTree/Core/MatrixDynSize.h</text>
</a>
</g>
</g>
<!-- Node5&#45;&gt;Node9 -->
<g id="edge10" class="edge">
<title>Node5&#45;&gt;Node9</title>
<path fill="none" stroke="midnightblue" d="M604.4,-257.4C571.4,-245.74 525.08,-229.37 493.95,-218.38"/>
<polygon fill="midnightblue" stroke="midnightblue" points="495,-215.04 484.41,-215.01 492.67,-221.64 495,-215.04"/>
</g>
<!-- Node10 -->
<g id="node10" class="node">
<title>Node10</title>
<g id="a_node10"><a xlink:title=" ">
<polygon fill="none" stroke="#bfbfbf" points="562.83,-196 562.83,-215 725.83,-215 725.83,-196 562.83,-196"/>
<text text-anchor="middle" x="644.33" y="-203" font-family="Helvetica,sans-Serif" font-size="10.00">iDynTree/Core/MatrixFixSize.h</text>
</a>
</g>
</g>
<!-- Node5&#45;&gt;Node10 -->
<g id="edge11" class="edge">
<title>Node5&#45;&gt;Node10</title>
<path fill="none" stroke="midnightblue" d="M644.33,-257.4C644.33,-248.06 644.33,-235.71 644.33,-225.52"/>
<polygon fill="midnightblue" stroke="midnightblue" points="647.83,-225.19 644.33,-215.19 640.83,-225.19 647.83,-225.19"/>
</g>
<!-- Node11 -->
<g id="node11" class="node">
<title>Node11</title>
<g id="a_node11"><a xlink:title=" ">
<polygon fill="none" stroke="#bfbfbf" points="744.33,-196 744.33,-215 890.33,-215 890.33,-196 744.33,-196"/>
<text text-anchor="middle" x="817.33" y="-203" font-family="Helvetica,sans-Serif" font-size="10.00">iDynTree/Core/Transform.h</text>
</a>
</g>
</g>
<!-- Node5&#45;&gt;Node11 -->
<g id="edge12" class="edge">
<title>Node5&#45;&gt;Node11</title>
<path fill="none" stroke="midnightblue" d="M681.87,-257.4C712.62,-245.84 755.7,-229.66 784.95,-218.66"/>
<polygon fill="midnightblue" stroke="midnightblue" points="786.55,-221.8 794.68,-215.01 784.09,-215.25 786.55,-221.8"/>
</g>
<!-- Node12 -->
<g id="node12" class="node">
<title>Node12</title>
<g id="a_node12"><a xlink:title=" ">
<polygon fill="none" stroke="#bfbfbf" points="908.33,-196 908.33,-215 1030.33,-215 1030.33,-196 908.33,-196"/>
<text text-anchor="middle" x="969.33" y="-203" font-family="Helvetica,sans-Serif" font-size="10.00">iDynTree/Core/Twist.h</text>
</a>
</g>
</g>
<!-- Node5&#45;&gt;Node12 -->
<g id="edge13" class="edge">
<title>Node5&#45;&gt;Node12</title>
<path fill="none" stroke="midnightblue" d="M716.08,-257.46C767.2,-247.42 837.51,-233.52 899.33,-221 905.47,-219.75 911.92,-218.44 918.31,-217.12"/>
<polygon fill="midnightblue" stroke="midnightblue" points="919.17,-220.52 928.25,-215.07 917.75,-213.66 919.17,-220.52"/>
</g>
<!-- Node13 -->
<g id="node13" class="node">
<title>Node13</title>
<g id="a_node13"><a xlink:title=" ">
<polygon fill="none" stroke="#bfbfbf" points="1048.33,-196 1048.33,-215 1210.33,-215 1210.33,-196 1048.33,-196"/>
<text text-anchor="middle" x="1129.33" y="-203" font-family="Helvetica,sans-Serif" font-size="10.00">iDynTree/Core/VectorFixSize.h</text>
</a>
</g>
</g>
<!-- Node5&#45;&gt;Node13 -->
<g id="edge14" class="edge">
<title>Node5&#45;&gt;Node13</title>
<path fill="none" stroke="midnightblue" d="M719.85,-258.26C722.71,-257.82 725.54,-257.4 728.33,-257 866.05,-237.16 901.49,-240.07 1039.33,-221 1048.87,-219.68 1058.96,-218.17 1068.8,-216.63"/>
<polygon fill="midnightblue" stroke="midnightblue" points="1069.6,-220.05 1078.93,-215.02 1068.51,-213.13 1069.6,-220.05"/>
</g>
<!-- Node14 -->
<g id="node14" class="node">
<title>Node14</title>
<g id="a_node14"><a xlink:title=" ">
<polygon fill="none" stroke="#bfbfbf" points="1228.33,-196 1228.33,-215 1362.33,-215 1362.33,-196 1228.33,-196"/>
<text text-anchor="middle" x="1295.33" y="-203" font-family="Helvetica,sans-Serif" font-size="10.00">iDynTree/Core/Wrench.h</text>
</a>
</g>
</g>
<!-- Node5&#45;&gt;Node14 -->
<g id="edge15" class="edge">
<title>Node5&#45;&gt;Node14</title>
<path fill="none" stroke="midnightblue" d="M719.83,-258.11C722.7,-257.71 725.54,-257.34 728.33,-257 945.51,-230.36 1002.39,-249.55 1219.33,-221 1227.75,-219.89 1236.65,-218.45 1245.28,-216.9"/>
<polygon fill="midnightblue" stroke="midnightblue" points="1246.04,-220.31 1255.24,-215.05 1244.76,-213.43 1246.04,-220.31"/>
</g>
<!-- Node15 -->
<g id="node15" class="node">
<title>Node15</title>
<g id="a_node15"><a xlink:href="IParametersHandler_8h.html" target="_top" xlink:title=" ">
<polygon fill="none" stroke="black" points="1380.83,-190.5 1380.83,-220.5 1549.83,-220.5 1549.83,-190.5 1380.83,-190.5"/>
<text text-anchor="start" x="1388.83" y="-208.5" font-family="Helvetica,sans-Serif" font-size="10.00">BipedalLocomotion/Parameters</text>
<text text-anchor="middle" x="1465.33" y="-197.5" font-family="Helvetica,sans-Serif" font-size="10.00">Handler/IParametersHandler.h</text>
</a>
</g>
</g>
<!-- Node5&#45;&gt;Node15 -->
<g id="edge16" class="edge">
<title>Node5&#45;&gt;Node15</title>
<path fill="none" stroke="midnightblue" d="M720.28,-257.99C722.99,-257.63 725.68,-257.3 728.33,-257 1009.38,-224.98 1084.9,-250.25 1370.57,-220.99"/>
<polygon fill="midnightblue" stroke="midnightblue" points="1371.24,-224.44 1380.83,-219.93 1370.52,-217.48 1371.24,-224.44"/>
</g>
<!-- Node15&#45;&gt;Node2 -->
<g id="edge17" class="edge">
<title>Node15&#45;&gt;Node2</title>
<path fill="none" stroke="midnightblue" d="M1388.64,-190.5C1235.51,-162.54 896.71,-100.69 781.54,-79.66"/>
<polygon fill="midnightblue" stroke="midnightblue" points="781.88,-76.16 771.41,-77.81 780.62,-83.05 781.88,-76.16"/>
</g>
<!-- Node15&#45;&gt;Node3 -->
<g id="edge19" class="edge">
<title>Node15&#45;&gt;Node3</title>
<path fill="none" stroke="midnightblue" d="M1380.58,-190.97C1377.46,-190.62 1374.37,-190.29 1371.33,-190 1111.29,-165.04 267.39,-144.43 88.03,-140.27"/>
<polygon fill="midnightblue" stroke="midnightblue" points="87.96,-136.76 77.88,-140.03 87.8,-143.76 87.96,-136.76"/>
</g>
<!-- Node15&#45;&gt;Node7 -->
<g id="edge18" class="edge">
<title>Node15&#45;&gt;Node7</title>
<path fill="none" stroke="midnightblue" d="M1380.81,-191.19C1377.61,-190.77 1374.44,-190.37 1371.33,-190 1160.5,-164.7 905.6,-147.22 816.74,-141.52"/>
<polygon fill="midnightblue" stroke="midnightblue" points="816.71,-138.01 806.5,-140.87 816.26,-145 816.71,-138.01"/>
</g>
<!-- Node16 -->
<g id="node16" class="node">
<title>Node16</title>
<g id="a_node16"><a xlink:href="TemplateHelpers_8h_source.html" target="_top" xlink:title=" ">
<polygon fill="none" stroke="black" points="1386.33,-56.5 1386.33,-86.5 1544.33,-86.5 1544.33,-56.5 1386.33,-56.5"/>
<text text-anchor="start" x="1394.33" y="-74.5" font-family="Helvetica,sans-Serif" font-size="10.00">BipedalLocomotion/Generic</text>
<text text-anchor="middle" x="1465.33" y="-63.5" font-family="Helvetica,sans-Serif" font-size="10.00">Container/TemplateHelpers.h</text>
</a>
</g>
</g>
<!-- Node15&#45;&gt;Node16 -->
<g id="edge20" class="edge">
<title>Node15&#45;&gt;Node16</title>
<path fill="none" stroke="midnightblue" d="M1465.33,-190.37C1465.33,-168.04 1465.33,-124.31 1465.33,-96.85"/>
<polygon fill="midnightblue" stroke="midnightblue" points="1468.83,-96.52 1465.33,-86.52 1461.83,-96.52 1468.83,-96.52"/>
</g>
<!-- Node20 -->
<g id="node20" class="node">
<title>Node20</title>
<g id="a_node20"><a xlink:href="Vector_8h_source.html" target="_top" xlink:title=" ">
<polygon fill="none" stroke="black" points="1643.83,-123.5 1643.83,-153.5 1794.83,-153.5 1794.83,-123.5 1643.83,-123.5"/>
<text text-anchor="start" x="1651.83" y="-141.5" font-family="Helvetica,sans-Serif" font-size="10.00">BipedalLocomotion/Generic</text>
<text text-anchor="middle" x="1719.33" y="-130.5" font-family="Helvetica,sans-Serif" font-size="10.00">Container/Vector.h</text>
</a>
</g>
</g>
<!-- Node15&#45;&gt;Node20 -->
<g id="edge24" class="edge">
<title>Node15&#45;&gt;Node20</title>
<path fill="none" stroke="midnightblue" d="M1520.13,-190.48C1559.55,-180.39 1612.88,-166.74 1654.43,-156.11"/>
<polygon fill="midnightblue" stroke="midnightblue" points="1655.37,-159.48 1664.19,-153.61 1653.63,-152.7 1655.37,-159.48"/>
</g>
<!-- Node17 -->
<g id="node17" class="node">
<title>Node17</title>
<g id="a_node17"><a xlink:title=" ">
<polygon fill="none" stroke="#bfbfbf" points="1341.83,-0.5 1341.83,-19.5 1410.83,-19.5 1410.83,-0.5 1341.83,-0.5"/>
<text text-anchor="middle" x="1376.33" y="-7.5" font-family="Helvetica,sans-Serif" font-size="10.00">type_traits</text>
</a>
</g>
</g>
<!-- Node16&#45;&gt;Node17 -->
<g id="edge21" class="edge">
<title>Node16&#45;&gt;Node17</title>
<path fill="none" stroke="midnightblue" d="M1444.23,-56.4C1430.24,-47.04 1411.92,-34.79 1397.83,-25.38"/>
<polygon fill="midnightblue" stroke="midnightblue" points="1399.54,-22.31 1389.28,-19.66 1395.65,-28.13 1399.54,-22.31"/>
</g>
<!-- Node18 -->
<g id="node18" class="node">
<title>Node18</title>
<g id="a_node18"><a xlink:title=" ">
<polygon fill="none" stroke="#bfbfbf" points="1428.83,-0.5 1428.83,-19.5 1501.83,-19.5 1501.83,-0.5 1428.83,-0.5"/>
<text text-anchor="middle" x="1465.33" y="-7.5" font-family="Helvetica,sans-Serif" font-size="10.00">string_view</text>
</a>
</g>
</g>
<!-- Node16&#45;&gt;Node18 -->
<g id="edge22" class="edge">
<title>Node16&#45;&gt;Node18</title>
<path fill="none" stroke="midnightblue" d="M1465.33,-56.4C1465.33,-48.47 1465.33,-38.46 1465.33,-29.86"/>
<polygon fill="midnightblue" stroke="midnightblue" points="1468.83,-29.66 1465.33,-19.66 1461.83,-29.66 1468.83,-29.66"/>
</g>
<!-- Node19 -->
<g id="node19" class="node">
<title>Node19</title>
<g id="a_node19"><a xlink:title=" ">
<polygon fill="none" stroke="#bfbfbf" points="1519.83,-0.5 1519.83,-19.5 1588.83,-19.5 1588.83,-0.5 1519.83,-0.5"/>
<text text-anchor="middle" x="1554.33" y="-7.5" font-family="Helvetica,sans-Serif" font-size="10.00">Eigen/Core</text>
</a>
</g>
</g>
<!-- Node16&#45;&gt;Node19 -->
<g id="edge23" class="edge">
<title>Node16&#45;&gt;Node19</title>
<path fill="none" stroke="midnightblue" d="M1486.42,-56.4C1500.42,-47.04 1518.74,-34.79 1532.82,-25.38"/>
<polygon fill="midnightblue" stroke="midnightblue" points="1535.01,-28.13 1541.38,-19.66 1531.12,-22.31 1535.01,-28.13"/>
</g>
<!-- Node20&#45;&gt;Node2 -->
<g id="edge30" class="edge">
<title>Node20&#45;&gt;Node2</title>
<path fill="none" stroke="midnightblue" d="M1643.59,-128.24C1626.42,-126.33 1608.26,-124.46 1591.33,-123 1280.02,-96.13 903.26,-79.18 781.97,-74.1"/>
<polygon fill="midnightblue" stroke="midnightblue" points="781.83,-70.6 771.69,-73.68 781.54,-77.59 781.83,-70.6"/>
</g>
<!-- Node20&#45;&gt;Node16 -->
<g id="edge26" class="edge">
<title>Node20&#45;&gt;Node16</title>
<path fill="none" stroke="midnightblue" d="M1664.53,-123.48C1625.1,-113.39 1571.78,-99.74 1530.22,-89.11"/>
<polygon fill="midnightblue" stroke="midnightblue" points="1531.02,-85.7 1520.47,-86.61 1529.29,-92.48 1531.02,-85.7"/>
</g>
<!-- Node21 -->
<g id="node21" class="node">
<title>Node21</title>
<g id="a_node21"><a xlink:title=" ">
<polygon fill="none" stroke="#bfbfbf" points="1561.83,-62 1561.83,-81 1682.83,-81 1682.83,-62 1561.83,-62"/>
<text text-anchor="middle" x="1622.33" y="-69" font-family="Helvetica,sans-Serif" font-size="10.00">iDynTree/Core/Span.h</text>
</a>
</g>
</g>
<!-- Node20&#45;&gt;Node21 -->
<g id="edge25" class="edge">
<title>Node20&#45;&gt;Node21</title>
<path fill="none" stroke="midnightblue" d="M1698.28,-123.4C1682.01,-112.5 1659.6,-97.48 1643.34,-86.58"/>
<polygon fill="midnightblue" stroke="midnightblue" points="1645.28,-83.67 1635.02,-81.01 1641.38,-89.48 1645.28,-83.67"/>
</g>
<!-- Node22 -->
<g id="node22" class="node">
<title>Node22</title>
<g id="a_node22"><a xlink:title=" ">
<polygon fill="none" stroke="#bfbfbf" points="1700.83,-62 1700.83,-81 1765.83,-81 1765.83,-62 1700.83,-62"/>
<text text-anchor="middle" x="1733.33" y="-69" font-family="Helvetica,sans-Serif" font-size="10.00">functional</text>
</a>
</g>
</g>
<!-- Node20&#45;&gt;Node22 -->
<g id="edge27" class="edge">
<title>Node20&#45;&gt;Node22</title>
<path fill="none" stroke="midnightblue" d="M1722.36,-123.4C1724.4,-113.96 1727.09,-101.45 1729.3,-91.19"/>
<polygon fill="midnightblue" stroke="midnightblue" points="1732.77,-91.71 1731.45,-81.19 1725.93,-90.23 1732.77,-91.71"/>
</g>
<!-- Node23 -->
<g id="node23" class="node">
<title>Node23</title>
<g id="a_node23"><a xlink:title=" ">
<polygon fill="none" stroke="#bfbfbf" points="1784.33,-62 1784.33,-81 1836.33,-81 1836.33,-62 1784.33,-62"/>
<text text-anchor="middle" x="1810.33" y="-69" font-family="Helvetica,sans-Serif" font-size="10.00">cassert</text>
</a>
</g>
</g>
<!-- Node20&#45;&gt;Node23 -->
<g id="edge28" class="edge">
<title>Node20&#45;&gt;Node23</title>
<path fill="none" stroke="midnightblue" d="M1739.07,-123.4C1754.19,-112.6 1774.97,-97.76 1790.18,-86.89"/>
<polygon fill="midnightblue" stroke="midnightblue" points="1792.31,-89.67 1798.42,-81.01 1788.25,-83.97 1792.31,-89.67"/>
</g>
<!-- Node24 -->
<g id="node24" class="node">
<title>Node24</title>
<g id="a_node24"><a xlink:title=" ">
<polygon fill="none" stroke="#bfbfbf" points="1854.33,-62 1854.33,-81 1914.33,-81 1914.33,-62 1854.33,-62"/>
<text text-anchor="middle" x="1884.33" y="-69" font-family="Helvetica,sans-Serif" font-size="10.00">iostream</text>
</a>
</g>
</g>
<!-- Node20&#45;&gt;Node24 -->
<g id="edge29" class="edge">
<title>Node20&#45;&gt;Node24</title>
<path fill="none" stroke="midnightblue" d="M1755.13,-123.4C1784.34,-111.89 1825.19,-95.8 1853.09,-84.81"/>
<polygon fill="midnightblue" stroke="midnightblue" points="1854.71,-87.93 1862.73,-81.01 1852.15,-81.42 1854.71,-87.93"/>
</g>
<!-- Node26&#45;&gt;Node2 -->
<g id="edge33" class="edge">
<title>Node26&#45;&gt;Node2</title>
<path fill="none" stroke="midnightblue" d="M1578.43,-257.37C1579.02,-239.01 1576.99,-207.26 1558.33,-190 1443.39,-83.69 928.96,-73.27 781.78,-72.49"/>
<polygon fill="midnightblue" stroke="midnightblue" points="781.45,-68.99 771.43,-72.45 781.42,-75.99 781.45,-68.99"/>
</g>
<!-- Node26&#45;&gt;Node15 -->
<g id="edge38" class="edge">
<title>Node26&#45;&gt;Node15</title>
<path fill="none" stroke="midnightblue" d="M1553.02,-257.4C1537.03,-248.11 1515.88,-235.84 1498.37,-225.67"/>
<polygon fill="midnightblue" stroke="midnightblue" points="1499.99,-222.57 1489.58,-220.58 1496.47,-228.62 1499.99,-222.57"/>
</g>
<!-- Node26&#45;&gt;Node16 -->
<g id="edge37" class="edge">
<title>Node26&#45;&gt;Node16</title>
<path fill="none" stroke="midnightblue" d="M1584.15,-257.35C1596.69,-229.09 1619.62,-164.82 1591.33,-123 1581.39,-108.31 1566.41,-97.9 1550.22,-90.51"/>
<polygon fill="midnightblue" stroke="midnightblue" points="1551.14,-87.11 1540.57,-86.5 1548.46,-93.57 1551.14,-87.11"/>
</g>
<!-- Node27 -->
<g id="node27" class="node">
<title>Node27</title>
<g id="a_node27"><a xlink:title=" ">
<polygon fill="none" stroke="#bfbfbf" points="1812.83,-129 1812.83,-148 1853.83,-148 1853.83,-129 1812.83,-129"/>
<text text-anchor="middle" x="1833.33" y="-136" font-family="Helvetica,sans-Serif" font-size="10.00">tuple</text>
</a>
</g>
</g>
<!-- Node26&#45;&gt;Node27 -->
<g id="edge34" class="edge">
<title>Node26&#45;&gt;Node27</title>
<path fill="none" stroke="midnightblue" d="M1592.17,-257.33C1614.21,-236.55 1654.86,-199.27 1672.33,-190 1726.05,-161.51 1747.52,-175.7 1804.33,-154 1805.71,-153.47 1807.11,-152.9 1808.51,-152.3"/>
<polygon fill="midnightblue" stroke="midnightblue" points="1810.04,-155.45 1817.63,-148.06 1807.08,-149.1 1810.04,-155.45"/>
</g>
<!-- Node26&#45;&gt;Node28 -->
<g id="edge35" class="edge">
<title>Node26&#45;&gt;Node28</title>
<path fill="none" stroke="midnightblue" d="M1618.12,-257.4C1646.57,-247.56 1684.73,-234.37 1715.06,-223.88"/>
<polygon fill="midnightblue" stroke="midnightblue" points="1716.31,-227.15 1724.61,-220.58 1714.02,-220.54 1716.31,-227.15"/>
</g>
<!-- Node28&#45;&gt;Node27 -->
<g id="edge36" class="edge">
<title>Node28&#45;&gt;Node27</title>
<path fill="none" stroke="midnightblue" d="M1780.08,-190.4C1790.89,-180.06 1805.58,-166.02 1816.79,-155.31"/>
<polygon fill="midnightblue" stroke="midnightblue" points="1819.42,-157.63 1824.23,-148.19 1814.58,-152.57 1819.42,-157.63"/>
</g>
</g>
</svg>
