<?xml version="1.0" encoding="UTF-8" standalone="no"?>
<!DOCTYPE svg PUBLIC "-//W3C//DTD SVG 1.1//EN"
 "http://www.w3.org/Graphics/SVG/1.1/DTD/svg11.dtd">
<!-- Generated by graphviz version 2.43.0 (0)
 -->
<!-- Title: Estimators/include/BipedalLocomotion/FloatingBaseEstimators/FloatingBaseEstimatorIO.h Pages: 1 -->
<!--zoomable 284 -->
<svg id="main" version="1.1" xmlns="http://www.w3.org/2000/svg" xmlns:xlink="http://www.w3.org/1999/xlink" xml:space="preserve" onload="init(evt)">
<style type="text/css"><![CDATA[
.edge:hover path { stroke: red; }
.edge:hover polygon { stroke: red; fill: red; }
]]></style>
<script type="text/javascript"><![CDATA[
var edges = document.getElementsByTagName('g');
if (edges && edges.length) {
  for (var i=0;i<edges.length;i++) {
    if (edges[i].id.substr(0,4)=='edge') {
      edges[i].setAttribute('class','edge');
    }
  }
}
]]></script>
        <defs>
                <circle id="rim" cx="0" cy="0" r="7"/>
                <circle id="rim2" cx="0" cy="0" r="3.5"/>
                <g id="zoomPlus">
                        <use xlink:href="#rim" fill="#404040">
                                <set attributeName="fill" to="#808080" begin="zoomplus.mouseover" end="zoomplus.mouseout"/>
                        </use>
                        <path d="M-4,0h8M0,-4v8" fill="none" stroke="white" stroke-width="1.5" pointer-events="none"/>
                </g>
                <g id="zoomMin">
                        <use xlink:href="#rim" fill="#404040">
                                <set attributeName="fill" to="#808080" begin="zoomminus.mouseover" end="zoomminus.mouseout"/>
                        </use>
                        <path d="M-4,0h8" fill="none" stroke="white" stroke-width="1.5" pointer-events="none"/>
                </g>
                <g id="dirArrow">
                        <path fill="none" stroke="white" stroke-width="1.5" d="M0,-3.0v7 M-2.5,-0.5L0,-3.0L2.5,-0.5"/>
                </g>
               <g id="resetDef">
                       <use xlink:href="#rim2" fill="#404040">
                               <set attributeName="fill" to="#808080" begin="reset.mouseover" end="reset.mouseout"/>
                       </use>
               </g>
        </defs>

<script type="text/javascript">
var viewWidth = 568;
var viewHeight = 284;
var sectionId = 'dynsection-1';
</script>
<script xlink:href="svgpan.js"/>
<svg id="graph" class="graph">
<g id="viewport">
<title>Estimators/include/BipedalLocomotion/FloatingBaseEstimators/FloatingBaseEstimatorIO.h</title>
<!-- Node1 -->
<g id="node1" class="node">
<title>Node1</title>
<g id="a_node1"><a xlink:title=" ">
<polygon fill="#bfbfbf" stroke="black" points="180.5,-234.5 180.5,-275.5 407.5,-275.5 407.5,-234.5 180.5,-234.5"/>
<text text-anchor="start" x="188.5" y="-263.5" font-family="Helvetica,sans-Serif" font-size="10.00">Estimators/include</text>
<text text-anchor="start" x="188.5" y="-252.5" font-family="Helvetica,sans-Serif" font-size="10.00">/BipedalLocomotion/Floating</text>
<text text-anchor="middle" x="294" y="-241.5" font-family="Helvetica,sans-Serif" font-size="10.00">BaseEstimators/FloatingBaseEstimatorIO.h</text>
</a>
</g>
</g>
<!-- Node2 -->
<g id="node2" class="node">
<title>Node2</title>
<g id="a_node2"><a xlink:href="FloatingBaseEstimator_8h.html" target="_top" xlink:title=" ">
<polygon fill="none" stroke="black" points="186.5,-156.5 186.5,-197.5 401.5,-197.5 401.5,-156.5 186.5,-156.5"/>
<text text-anchor="start" x="194.5" y="-185.5" font-family="Helvetica,sans-Serif" font-size="10.00">Estimators/include</text>
<text text-anchor="start" x="194.5" y="-174.5" font-family="Helvetica,sans-Serif" font-size="10.00">/BipedalLocomotion/Floating</text>
<text text-anchor="middle" x="294" y="-163.5" font-family="Helvetica,sans-Serif" font-size="10.00">BaseEstimators/FloatingBaseEstimator.h</text>
</a>
</g>
</g>
<!-- Node1&#45;&gt;Node2 -->
<g id="edge1" class="edge">
<title>Node1&#45;&gt;Node2</title>
<path fill="none" stroke="midnightblue" d="M294,-224.3C294,-215.3 294,-205.65 294,-197.51"/>
<polygon fill="midnightblue" stroke="midnightblue" points="290.5,-224.43 294,-234.43 297.5,-224.43 290.5,-224.43"/>
</g>
<!-- Node3 -->
<g id="node3" class="node">
<title>Node3</title>
<g id="a_node3"><a xlink:href="InvariantEKFBaseEstimator_8h.html" target="_top" xlink:title=" ">
<polygon fill="none" stroke="black" points="0,-67.5 0,-119.5 182,-119.5 182,-67.5 0,-67.5"/>
<text text-anchor="start" x="8" y="-107.5" font-family="Helvetica,sans-Serif" font-size="10.00">Estimators/include</text>
<text text-anchor="start" x="8" y="-96.5" font-family="Helvetica,sans-Serif" font-size="10.00">/BipedalLocomotion/Floating</text>
<text text-anchor="start" x="8" y="-85.5" font-family="Helvetica,sans-Serif" font-size="10.00">BaseEstimators/InvariantEKFBase</text>
<text text-anchor="middle" x="91" y="-74.5" font-family="Helvetica,sans-Serif" font-size="10.00">Estimator.h</text>
</a>
</g>
</g>
<!-- Node2&#45;&gt;Node3 -->
<g id="edge2" class="edge">
<title>Node2&#45;&gt;Node3</title>
<path fill="none" stroke="midnightblue" d="M236.09,-152.75C210.27,-142.38 179.79,-130.15 153.46,-119.58"/>
<polygon fill="midnightblue" stroke="midnightblue" points="234.79,-156 245.38,-156.48 237.4,-149.5 234.79,-156"/>
</g>
<!-- Node5 -->
<g id="node5" class="node">
<title>Node5</title>
<g id="a_node5"><a xlink:href="LeggedOdometry_8h.html" target="_top" xlink:title=" ">
<polygon fill="none" stroke="black" points="200,-73 200,-114 388,-114 388,-73 200,-73"/>
<text text-anchor="start" x="208" y="-102" font-family="Helvetica,sans-Serif" font-size="10.00">Estimators/include</text>
<text text-anchor="start" x="208" y="-91" font-family="Helvetica,sans-Serif" font-size="10.00">/BipedalLocomotion/Floating</text>
<text text-anchor="middle" x="294" y="-80" font-family="Helvetica,sans-Serif" font-size="10.00">BaseEstimators/LeggedOdometry.h</text>
</a>
</g>
</g>
<!-- Node2&#45;&gt;Node5 -->
<g id="edge4" class="edge">
<title>Node2&#45;&gt;Node5</title>
<path fill="none" stroke="midnightblue" d="M294,-146.06C294,-135.38 294,-123.63 294,-114.05"/>
<polygon fill="midnightblue" stroke="midnightblue" points="290.5,-146.27 294,-156.27 297.5,-146.27 290.5,-146.27"/>
</g>
<!-- Node7 -->
<g id="node7" class="node">
<title>Node7</title>
<g id="a_node7"><a xlink:href="FloatingBaseEstimator_8cpp.html" target="_top" xlink:title=" ">
<polygon fill="none" stroke="black" points="406.5,-78.5 406.5,-108.5 559.5,-108.5 559.5,-78.5 406.5,-78.5"/>
<text text-anchor="start" x="414.5" y="-96.5" font-family="Helvetica,sans-Serif" font-size="10.00">Estimators/src/FloatingBase</text>
<text text-anchor="middle" x="483" y="-85.5" font-family="Helvetica,sans-Serif" font-size="10.00">Estimator.cpp</text>
</a>
</g>
</g>
<!-- Node2&#45;&gt;Node7 -->
<g id="edge6" class="edge">
<title>Node2&#45;&gt;Node7</title>
<path fill="none" stroke="midnightblue" d="M348.78,-152.38C381.75,-138.16 422.61,-120.54 450.52,-108.5"/>
<polygon fill="midnightblue" stroke="midnightblue" points="347.07,-149.31 339.27,-156.48 349.84,-155.73 347.07,-149.31"/>
</g>
<!-- Node4 -->
<g id="node4" class="node">
<title>Node4</title>
<g id="a_node4"><a xlink:href="InvariantEKFBaseEstimator_8cpp.html" target="_top" xlink:title=" ">
<polygon fill="none" stroke="black" points="24.5,-0.5 24.5,-30.5 157.5,-30.5 157.5,-0.5 24.5,-0.5"/>
<text text-anchor="start" x="32.5" y="-18.5" font-family="Helvetica,sans-Serif" font-size="10.00">Estimators/src/Invariant</text>
<text text-anchor="middle" x="91" y="-7.5" font-family="Helvetica,sans-Serif" font-size="10.00">EKFBaseEstimator.cpp</text>
</a>
</g>
</g>
<!-- Node3&#45;&gt;Node4 -->
<g id="edge3" class="edge">
<title>Node3&#45;&gt;Node4</title>
<path fill="none" stroke="midnightblue" d="M91,-56.96C91,-47.72 91,-38.28 91,-30.85"/>
<polygon fill="midnightblue" stroke="midnightblue" points="87.5,-57.19 91,-67.19 94.5,-57.19 87.5,-57.19"/>
</g>
<!-- Node6 -->
<g id="node6" class="node">
<title>Node6</title>
<g id="a_node6"><a xlink:href="LeggedOdometry_8cpp.html" target="_top" xlink:title=" ">
<polygon fill="none" stroke="black" points="198,-6 198,-25 390,-25 390,-6 198,-6"/>
<text text-anchor="middle" x="294" y="-13" font-family="Helvetica,sans-Serif" font-size="10.00">Estimators/src/LeggedOdometry.cpp</text>
</a>
</g>
</g>
<!-- Node5&#45;&gt;Node6 -->
<g id="edge5" class="edge">
<title>Node5&#45;&gt;Node6</title>
<path fill="none" stroke="midnightblue" d="M294,-62.55C294,-49.06 294,-34.15 294,-25.05"/>
<polygon fill="midnightblue" stroke="midnightblue" points="290.5,-62.93 294,-72.93 297.5,-62.93 290.5,-62.93"/>
</g>
</g>
</svg>
        <g id="navigator" transform="translate(0 0)" fill="#404254">
                <rect fill="#f2f5e9" fill-opacity="0.5" stroke="#606060" stroke-width=".5" x="0" y="0" width="60" height="60"/>
                <use id="zoomplus" xlink:href="#zoomPlus" x="17" y="9" onmousedown="handleZoom(evt,'in')"/>
                <use id="zoomminus" xlink:href="#zoomMin" x="42" y="9" onmousedown="handleZoom(evt,'out')"/>
                <use id="reset" xlink:href="#resetDef" x="30" y="36" onmousedown="handleReset()"/>
                <g id="arrowUp" xlink:href="#dirArrow" transform="translate(30 24)" onmousedown="handlePan(0,-1)">
                  <use xlink:href="#rim" fill="#404040">
                        <set attributeName="fill" to="#808080" begin="arrowUp.mouseover" end="arrowUp.mouseout"/>
                  </use>
                  <path fill="none" stroke="white" stroke-width="1.5" d="M0,-3.0v7 M-2.5,-0.5L0,-3.0L2.5,-0.5"/>
                </g>
                <g id="arrowRight" xlink:href="#dirArrow" transform="rotate(90) translate(36 -43)" onmousedown="handlePan(1,0)">
                  <use xlink:href="#rim" fill="#404040">
                        <set attributeName="fill" to="#808080" begin="arrowRight.mouseover" end="arrowRight.mouseout"/>
                  </use>
                  <path fill="none" stroke="white" stroke-width="1.5" d="M0,-3.0v7 M-2.5,-0.5L0,-3.0L2.5,-0.5"/>
                </g>
                <g id="arrowDown" xlink:href="#dirArrow" transform="rotate(180) translate(-30 -48)" onmousedown="handlePan(0,1)">
                  <use xlink:href="#rim" fill="#404040">
                        <set attributeName="fill" to="#808080" begin="arrowDown.mouseover" end="arrowDown.mouseout"/>
                  </use>
                  <path fill="none" stroke="white" stroke-width="1.5" d="M0,-3.0v7 M-2.5,-0.5L0,-3.0L2.5,-0.5"/>
                </g>
                <g id="arrowLeft" xlink:href="#dirArrow" transform="rotate(270) translate(-36 17)" onmousedown="handlePan(-1,0)">
                  <use xlink:href="#rim" fill="#404040">
                        <set attributeName="fill" to="#808080" begin="arrowLeft.mouseover" end="arrowLeft.mouseout"/>
                  </use>
                  <path fill="none" stroke="white" stroke-width="1.5" d="M0,-3.0v7 M-2.5,-0.5L0,-3.0L2.5,-0.5"/>
                </g>
        </g>
        <svg viewBox="0 0 15 15" width="100%" height="30px" preserveAspectRatio="xMaxYMin meet">
         <g id="arrow_out" transform="scale(0.3 0.3)">
          <a xlink:href="FloatingBaseEstimatorIO_8h__dep__incl_org.svg" target="_base">
           <rect id="button" ry="5" rx="5" y="6" x="6" height="38" width="38"
                fill="#f2f5e9" fill-opacity="0.5" stroke="#606060" stroke-width="1.0"/>
           <path id="arrow"
             d="M 11.500037,31.436501 C 11.940474,20.09759 22.043105,11.32322 32.158766,21.979434 L 37.068811,17.246167 C 37.068811,17.246167 37.088388,32 37.088388,32 L 22.160133,31.978069 C 22.160133,31.978069 26.997745,27.140456 26.997745,27.140456 C 18.528582,18.264221 13.291696,25.230495 11.500037,31.436501 z"
             style="fill:#404040;"/>
          </a>
         </g>
        </svg>
</svg>
