<?xml version="1.0" encoding="UTF-8" standalone="no"?>
<!DOCTYPE svg PUBLIC "-//W3C//DTD SVG 1.1//EN"
 "http://www.w3.org/Graphics/SVG/1.1/DTD/svg11.dtd">
<!-- Generated by graphviz version 2.43.0 (0)
 -->
<!-- Title: ContinuousDynamicalSystem/src/FloatingBaseDynamicsWithCompliantContacts.cpp Pages: 1 -->
<svg width="2254pt" height="530pt"
 viewBox="0.00 0.00 2254.00 530.00" xmlns="http://www.w3.org/2000/svg" xmlns:xlink="http://www.w3.org/1999/xlink">
<g id="graph0" class="graph" transform="scale(1 1) rotate(0) translate(4 526)">
<title>ContinuousDynamicalSystem/src/FloatingBaseDynamicsWithCompliantContacts.cpp</title>
<!-- Node1 -->
<g id="node1" class="node">
<title>Node1</title>
<g id="a_node1"><a xlink:title=" ">
<polygon fill="#bfbfbf" stroke="black" points="1547.5,-480.5 1547.5,-521.5 1769.5,-521.5 1769.5,-480.5 1547.5,-480.5"/>
<text text-anchor="start" x="1555.5" y="-509.5" font-family="Helvetica,sans-Serif" font-size="10.00">ContinuousDynamicalSystem</text>
<text text-anchor="start" x="1555.5" y="-498.5" font-family="Helvetica,sans-Serif" font-size="10.00">/src/FloatingBaseDynamicsWithCompliant</text>
<text text-anchor="middle" x="1658.5" y="-487.5" font-family="Helvetica,sans-Serif" font-size="10.00">Contacts.cpp</text>
</a>
</g>
</g>
<!-- Node2 -->
<g id="node2" class="node">
<title>Node2</title>
<g id="a_node2"><a xlink:title=" ">
<polygon fill="none" stroke="#bfbfbf" points="0,-413.5 0,-432.5 161,-432.5 161,-413.5 0,-413.5"/>
<text text-anchor="middle" x="80.5" y="-420.5" font-family="Helvetica,sans-Serif" font-size="10.00">iDynTree/Core/EigenHelpers.h</text>
</a>
</g>
</g>
<!-- Node1&#45;&gt;Node2 -->
<g id="edge1" class="edge">
<title>Node1&#45;&gt;Node2</title>
<path fill="none" stroke="midnightblue" d="M1547.28,-498.25C1249.85,-493.17 440.72,-476.69 175.5,-444 158.62,-441.92 140.29,-438.37 124.27,-434.84"/>
<polygon fill="midnightblue" stroke="midnightblue" points="124.65,-431.33 114.12,-432.53 123.1,-438.16 124.65,-431.33"/>
</g>
<!-- Node3 -->
<g id="node3" class="node">
<title>Node3</title>
<g id="a_node3"><a xlink:title=" ">
<polygon fill="none" stroke="#bfbfbf" points="128.5,-196 128.5,-215 250.5,-215 250.5,-196 128.5,-196"/>
<text text-anchor="middle" x="189.5" y="-203" font-family="Helvetica,sans-Serif" font-size="10.00">iDynTree/Core/Twist.h</text>
</a>
</g>
</g>
<!-- Node1&#45;&gt;Node3 -->
<g id="edge2" class="edge">
<title>Node1&#45;&gt;Node3</title>
<path fill="none" stroke="midnightblue" d="M1547.26,-497.62C1224.39,-489.65 303.89,-458.91 208.5,-366 170.45,-328.94 178.5,-258.73 185.12,-225.22"/>
<polygon fill="midnightblue" stroke="midnightblue" points="188.56,-225.87 187.24,-215.36 181.71,-224.4 188.56,-225.87"/>
</g>
<!-- Node4 -->
<g id="node4" class="node">
<title>Node4</title>
<g id="a_node4"><a xlink:title=" ">
<polygon fill="none" stroke="#bfbfbf" points="1395.5,-413.5 1395.5,-432.5 1529.5,-432.5 1529.5,-413.5 1395.5,-413.5"/>
<text text-anchor="middle" x="1462.5" y="-420.5" font-family="Helvetica,sans-Serif" font-size="10.00">iDynTree/Model/Model.h</text>
</a>
</g>
</g>
<!-- Node1&#45;&gt;Node4 -->
<g id="edge3" class="edge">
<title>Node1&#45;&gt;Node4</title>
<path fill="none" stroke="midnightblue" d="M1608.03,-480.43C1572,-466.46 1524.67,-448.11 1493.92,-436.18"/>
<polygon fill="midnightblue" stroke="midnightblue" points="1495.14,-432.9 1484.56,-432.55 1492.61,-439.43 1495.14,-432.9"/>
</g>
<!-- Node5 -->
<g id="node5" class="node">
<title>Node5</title>
<g id="a_node5"><a xlink:href="FloatingBaseDynamicsWithCompliantContacts_8h.html" target="_top" xlink:title=" ">
<polygon fill="none" stroke="black" points="1548,-402.5 1548,-443.5 1769,-443.5 1769,-402.5 1548,-402.5"/>
<text text-anchor="start" x="1556" y="-431.5" font-family="Helvetica,sans-Serif" font-size="10.00">BipedalLocomotion/Continuous</text>
<text text-anchor="start" x="1556" y="-420.5" font-family="Helvetica,sans-Serif" font-size="10.00">DynamicalSystem/FloatingBaseDynamics</text>
<text text-anchor="middle" x="1658.5" y="-409.5" font-family="Helvetica,sans-Serif" font-size="10.00">WithCompliantContacts.h</text>
</a>
</g>
</g>
<!-- Node1&#45;&gt;Node5 -->
<g id="edge4" class="edge">
<title>Node1&#45;&gt;Node5</title>
<path fill="none" stroke="midnightblue" d="M1658.5,-480.43C1658.5,-472.27 1658.5,-462.62 1658.5,-453.63"/>
<polygon fill="midnightblue" stroke="midnightblue" points="1662,-453.51 1658.5,-443.51 1655,-453.51 1662,-453.51"/>
</g>
<!-- Node32 -->
<g id="node32" class="node">
<title>Node32</title>
<g id="a_node32"><a xlink:href="Constants_8h.html" target="_top" xlink:title=" ">
<polygon fill="none" stroke="black" points="1745.5,-330 1745.5,-360 1883.5,-360 1883.5,-330 1745.5,-330"/>
<text text-anchor="start" x="1753.5" y="-348" font-family="Helvetica,sans-Serif" font-size="10.00">BipedalLocomotion/Math</text>
<text text-anchor="middle" x="1814.5" y="-337" font-family="Helvetica,sans-Serif" font-size="10.00">/Constants.h</text>
</a>
</g>
</g>
<!-- Node1&#45;&gt;Node32 -->
<g id="edge49" class="edge">
<title>Node1&#45;&gt;Node32</title>
<path fill="none" stroke="midnightblue" d="M1722.72,-480.45C1742.38,-471.87 1762.7,-460.01 1777.5,-444 1796.61,-423.32 1806.14,-391.8 1810.69,-370.13"/>
<polygon fill="midnightblue" stroke="midnightblue" points="1814.17,-370.56 1812.59,-360.08 1807.29,-369.26 1814.17,-370.56"/>
</g>
<!-- Node35 -->
<g id="node35" class="node">
<title>Node35</title>
<g id="a_node35"><a xlink:href="CommonConversions_8h.html" target="_top" xlink:title=" ">
<polygon fill="none" stroke="black" points="1826,-408 1826,-438 1999,-438 1999,-408 1826,-408"/>
<text text-anchor="start" x="1834" y="-426" font-family="Helvetica,sans-Serif" font-size="10.00">BipedalLocomotion/Conversions</text>
<text text-anchor="middle" x="1912.5" y="-415" font-family="Helvetica,sans-Serif" font-size="10.00">/CommonConversions.h</text>
</a>
</g>
</g>
<!-- Node1&#45;&gt;Node35 -->
<g id="edge47" class="edge">
<title>Node1&#45;&gt;Node35</title>
<path fill="none" stroke="midnightblue" d="M1723.91,-480.43C1764.7,-468.22 1816.67,-452.67 1855.72,-440.99"/>
<polygon fill="midnightblue" stroke="midnightblue" points="1856.78,-444.33 1865.35,-438.11 1854.77,-437.62 1856.78,-444.33"/>
</g>
<!-- Node36 -->
<g id="node36" class="node">
<title>Node36</title>
<g id="a_node36"><a xlink:href="Logger_8h.html" target="_top" xlink:title=" ">
<polygon fill="none" stroke="black" points="2017.5,-408 2017.5,-438 2189.5,-438 2189.5,-408 2017.5,-408"/>
<text text-anchor="start" x="2025.5" y="-426" font-family="Helvetica,sans-Serif" font-size="10.00">BipedalLocomotion/TextLogging</text>
<text text-anchor="middle" x="2103.5" y="-415" font-family="Helvetica,sans-Serif" font-size="10.00">/Logger.h</text>
</a>
</g>
</g>
<!-- Node1&#45;&gt;Node36 -->
<g id="edge50" class="edge">
<title>Node1&#45;&gt;Node36</title>
<path fill="none" stroke="midnightblue" d="M1769.54,-483.53C1838.22,-473 1928.14,-458.63 2007.5,-444 2014.19,-442.77 2021.14,-441.43 2028.09,-440.05"/>
<polygon fill="midnightblue" stroke="midnightblue" points="2029.14,-443.41 2038.25,-438.02 2027.76,-436.55 2029.14,-443.41"/>
</g>
<!-- Node6 -->
<g id="node6" class="node">
<title>Node6</title>
<g id="a_node6"><a xlink:title=" ">
<polygon fill="none" stroke="#bfbfbf" points="1617.5,-62 1617.5,-81 1675.5,-81 1675.5,-62 1617.5,-62"/>
<text text-anchor="middle" x="1646.5" y="-69" font-family="Helvetica,sans-Serif" font-size="10.00">memory</text>
</a>
</g>
</g>
<!-- Node5&#45;&gt;Node6 -->
<g id="edge5" class="edge">
<title>Node5&#45;&gt;Node6</title>
<path fill="none" stroke="midnightblue" d="M1658.99,-402.37C1660.01,-354.52 1661.63,-228.08 1653.5,-123 1652.68,-112.34 1651.07,-100.51 1649.61,-90.97"/>
<polygon fill="midnightblue" stroke="midnightblue" points="1653.05,-90.36 1648.01,-81.04 1646.14,-91.47 1653.05,-90.36"/>
</g>
<!-- Node7 -->
<g id="node7" class="node">
<title>Node7</title>
<g id="a_node7"><a xlink:title=" ">
<polygon fill="none" stroke="#bfbfbf" points="488,-129 488,-148 535,-148 535,-129 488,-129"/>
<text text-anchor="middle" x="511.5" y="-136" font-family="Helvetica,sans-Serif" font-size="10.00">vector</text>
</a>
</g>
</g>
<!-- Node5&#45;&gt;Node7 -->
<g id="edge6" class="edge">
<title>Node5&#45;&gt;Node7</title>
<path fill="none" stroke="midnightblue" d="M1547.69,-403.46C1544.59,-402.97 1541.53,-402.48 1538.5,-402 1269.3,-359.48 503.43,-427.45 325.5,-221 280.48,-168.76 412.86,-148.77 477.82,-142.25"/>
<polygon fill="midnightblue" stroke="midnightblue" points="478.37,-145.71 488,-141.28 477.71,-138.74 478.37,-145.71"/>
</g>
<!-- Node8 -->
<g id="node8" class="node">
<title>Node8</title>
<g id="a_node8"><a xlink:href="CompliantContactWrench_8h.html" target="_top" xlink:title=" ">
<polygon fill="none" stroke="black" points="1412,-324.5 1412,-365.5 1609,-365.5 1609,-324.5 1412,-324.5"/>
<text text-anchor="start" x="1420" y="-353.5" font-family="Helvetica,sans-Serif" font-size="10.00">BipedalLocomotion/Continuous</text>
<text text-anchor="start" x="1420" y="-342.5" font-family="Helvetica,sans-Serif" font-size="10.00">DynamicalSystem/CompliantContact</text>
<text text-anchor="middle" x="1510.5" y="-331.5" font-family="Helvetica,sans-Serif" font-size="10.00">Wrench.h</text>
</a>
</g>
</g>
<!-- Node5&#45;&gt;Node8 -->
<g id="edge7" class="edge">
<title>Node5&#45;&gt;Node8</title>
<path fill="none" stroke="midnightblue" d="M1620.39,-402.43C1601.22,-392.59 1577.83,-380.57 1557.55,-370.16"/>
<polygon fill="midnightblue" stroke="midnightblue" points="1558.98,-366.96 1548.48,-365.51 1555.78,-373.19 1558.98,-366.96"/>
</g>
<!-- Node29 -->
<g id="node29" class="node">
<title>Node29</title>
<g id="a_node29"><a xlink:href="DynamicalSystem_8h.html" target="_top" xlink:title=" ">
<polygon fill="none" stroke="black" points="1670,-257.5 1670,-287.5 1877,-287.5 1877,-257.5 1670,-257.5"/>
<text text-anchor="start" x="1678" y="-275.5" font-family="Helvetica,sans-Serif" font-size="10.00">BipedalLocomotion/Continuous</text>
<text text-anchor="middle" x="1773.5" y="-264.5" font-family="Helvetica,sans-Serif" font-size="10.00">DynamicalSystem/DynamicalSystem.h</text>
</a>
</g>
</g>
<!-- Node5&#45;&gt;Node29 -->
<g id="edge36" class="edge">
<title>Node5&#45;&gt;Node29</title>
<path fill="none" stroke="midnightblue" d="M1664.2,-402.32C1671.02,-381.27 1684,-347.72 1703.5,-324 1713.3,-312.08 1726.55,-301.57 1738.88,-293.28"/>
<polygon fill="midnightblue" stroke="midnightblue" points="1741.12,-296 1747.64,-287.64 1737.33,-290.11 1741.12,-296"/>
</g>
<!-- Node31 -->
<g id="node31" class="node">
<title>Node31</title>
<g id="a_node31"><a xlink:href="traits_8h.html" target="_top" xlink:title=" ">
<polygon fill="none" stroke="black" points="1801.5,-190.5 1801.5,-220.5 1969.5,-220.5 1969.5,-190.5 1801.5,-190.5"/>
<text text-anchor="start" x="1809.5" y="-208.5" font-family="Helvetica,sans-Serif" font-size="10.00">BipedalLocomotion/Continuous</text>
<text text-anchor="middle" x="1885.5" y="-197.5" font-family="Helvetica,sans-Serif" font-size="10.00">DynamicalSystem/impl/traits.h</text>
</a>
</g>
</g>
<!-- Node5&#45;&gt;Node31 -->
<g id="edge43" class="edge">
<title>Node5&#45;&gt;Node31</title>
<path fill="none" stroke="midnightblue" d="M1674.38,-402.35C1683.02,-391.63 1693.88,-378.11 1703.5,-366 1718.27,-347.41 1716.53,-336.83 1736.5,-324 1793.82,-287.18 1843.36,-341.53 1885.5,-288 1898.04,-272.07 1896.54,-248.45 1892.79,-230.73"/>
<polygon fill="midnightblue" stroke="midnightblue" points="1896.08,-229.44 1890.27,-220.58 1889.29,-231.13 1896.08,-229.44"/>
</g>
<!-- Node5&#45;&gt;Node32 -->
<g id="edge44" class="edge">
<title>Node5&#45;&gt;Node32</title>
<path fill="none" stroke="midnightblue" d="M1698.67,-402.43C1722.58,-390.78 1752.75,-376.08 1776.3,-364.61"/>
<polygon fill="midnightblue" stroke="midnightblue" points="1777.84,-367.75 1785.3,-360.23 1774.78,-361.46 1777.84,-367.75"/>
</g>
<!-- Node33 -->
<g id="node33" class="node">
<title>Node33</title>
<g id="a_node33"><a xlink:title=" ">
<polygon fill="none" stroke="#bfbfbf" points="1902,-335.5 1902,-354.5 1979,-354.5 1979,-335.5 1902,-335.5"/>
<text text-anchor="middle" x="1940.5" y="-342.5" font-family="Helvetica,sans-Serif" font-size="10.00">Eigen/Dense</text>
</a>
</g>
</g>
<!-- Node5&#45;&gt;Node33 -->
<g id="edge45" class="edge">
<title>Node5&#45;&gt;Node33</title>
<path fill="none" stroke="midnightblue" d="M1755.38,-402.47C1797.89,-392.96 1848.11,-380.46 1892.5,-366 1898.92,-363.91 1905.69,-361.33 1912.05,-358.73"/>
<polygon fill="midnightblue" stroke="midnightblue" points="1913.76,-361.81 1921.61,-354.69 1911.04,-355.36 1913.76,-361.81"/>
</g>
<!-- Node34 -->
<g id="node34" class="node">
<title>Node34</title>
<g id="a_node34"><a xlink:title=" ">
<polygon fill="none" stroke="#bfbfbf" points="218,-335.5 218,-354.5 393,-354.5 393,-335.5 218,-335.5"/>
<text text-anchor="middle" x="305.5" y="-342.5" font-family="Helvetica,sans-Serif" font-size="10.00">iDynTree/KinDynComputations.h</text>
</a>
</g>
</g>
<!-- Node5&#45;&gt;Node34 -->
<g id="edge46" class="edge">
<title>Node5&#45;&gt;Node34</title>
<path fill="none" stroke="midnightblue" d="M1547.75,-402.99C1544.64,-402.63 1541.55,-402.3 1538.5,-402 1038.02,-352.55 907.23,-422.57 407.5,-366 389.06,-363.91 368.98,-360.28 351.55,-356.67"/>
<polygon fill="midnightblue" stroke="midnightblue" points="352.14,-353.22 341.63,-354.56 350.68,-360.06 352.14,-353.22"/>
</g>
<!-- Node8&#45;&gt;Node6 -->
<g id="edge8" class="edge">
<title>Node8&#45;&gt;Node6</title>
<path fill="none" stroke="midnightblue" d="M1543.76,-324.46C1557.61,-314.94 1572.91,-302.42 1583.5,-288 1629.07,-225.95 1641.83,-131.38 1645.27,-91.39"/>
<polygon fill="midnightblue" stroke="midnightblue" points="1648.78,-91.47 1646.05,-81.23 1641.8,-90.94 1648.78,-91.47"/>
</g>
<!-- Node9 -->
<g id="node9" class="node">
<title>Node9</title>
<g id="a_node9"><a xlink:href="ContactModel_8h.html" target="_top" xlink:title=" ">
<polygon fill="none" stroke="black" points="789,-257.5 789,-287.5 940,-287.5 940,-257.5 789,-257.5"/>
<text text-anchor="start" x="797" y="-275.5" font-family="Helvetica,sans-Serif" font-size="10.00">BipedalLocomotion/Contact</text>
<text text-anchor="middle" x="864.5" y="-264.5" font-family="Helvetica,sans-Serif" font-size="10.00">Models/ContactModel.h</text>
</a>
</g>
</g>
<!-- Node8&#45;&gt;Node9 -->
<g id="edge9" class="edge">
<title>Node8&#45;&gt;Node9</title>
<path fill="none" stroke="midnightblue" d="M1411.68,-333.22C1285.64,-319.46 1069.73,-295.9 950.28,-282.86"/>
<polygon fill="midnightblue" stroke="midnightblue" points="950.41,-279.36 940.09,-281.75 949.65,-286.31 950.41,-279.36"/>
</g>
<!-- Node28 -->
<g id="node28" class="node">
<title>Node28</title>
<g id="a_node28"><a xlink:title=" ">
<polygon fill="none" stroke="#bfbfbf" points="1436,-263 1436,-282 1575,-282 1575,-263 1436,-263"/>
<text text-anchor="middle" x="1505.5" y="-270" font-family="Helvetica,sans-Serif" font-size="10.00">iDynTree/Model/Indices.h</text>
</a>
</g>
</g>
<!-- Node8&#45;&gt;Node28 -->
<g id="edge35" class="edge">
<title>Node8&#45;&gt;Node28</title>
<path fill="none" stroke="midnightblue" d="M1509.11,-324.36C1508.39,-314.3 1507.53,-302.1 1506.82,-292.18"/>
<polygon fill="midnightblue" stroke="midnightblue" points="1510.31,-291.9 1506.12,-282.17 1503.33,-292.4 1510.31,-291.9"/>
</g>
<!-- Node9&#45;&gt;Node3 -->
<g id="edge17" class="edge">
<title>Node9&#45;&gt;Node3</title>
<path fill="none" stroke="midnightblue" d="M788.96,-265.63C680.98,-257.03 476.33,-239.96 302.5,-221 288.97,-219.52 274.55,-217.8 260.7,-216.05"/>
<polygon fill="midnightblue" stroke="midnightblue" points="261.1,-212.58 250.73,-214.79 260.21,-219.52 261.1,-212.58"/>
</g>
<!-- Node9&#45;&gt;Node6 -->
<g id="edge11" class="edge">
<title>Node9&#45;&gt;Node6</title>
<path fill="none" stroke="midnightblue" d="M940.11,-269.74C1107.76,-265.29 1500.01,-251.69 1551.5,-221 1601.57,-191.15 1629.72,-123.52 1640.86,-90.84"/>
<polygon fill="midnightblue" stroke="midnightblue" points="1644.22,-91.8 1643.98,-81.21 1637.57,-89.64 1644.22,-91.8"/>
</g>
<!-- Node10 -->
<g id="node10" class="node">
<title>Node10</title>
<g id="a_node10"><a xlink:title=" ">
<polygon fill="none" stroke="#bfbfbf" points="345,-196 345,-215 380,-215 380,-196 345,-196"/>
<text text-anchor="middle" x="362.5" y="-203" font-family="Helvetica,sans-Serif" font-size="10.00">any</text>
</a>
</g>
</g>
<!-- Node9&#45;&gt;Node10 -->
<g id="edge10" class="edge">
<title>Node9&#45;&gt;Node10</title>
<path fill="none" stroke="midnightblue" d="M788.61,-267.16C673.65,-259.96 461.08,-244.03 388.5,-221 387.25,-220.6 386,-220.15 384.75,-219.64"/>
<polygon fill="midnightblue" stroke="midnightblue" points="386.05,-216.38 375.53,-215.11 382.96,-222.66 386.05,-216.38"/>
</g>
<!-- Node11 -->
<g id="node11" class="node">
<title>Node11</title>
<g id="a_node11"><a xlink:title=" ">
<polygon fill="none" stroke="#bfbfbf" points="1019.5,-129 1019.5,-148 1063.5,-148 1063.5,-129 1019.5,-129"/>
<text text-anchor="middle" x="1041.5" y="-136" font-family="Helvetica,sans-Serif" font-size="10.00">string</text>
</a>
</g>
</g>
<!-- Node9&#45;&gt;Node11 -->
<g id="edge12" class="edge">
<title>Node9&#45;&gt;Node11</title>
<path fill="none" stroke="midnightblue" d="M788.79,-269.79C649.8,-265.87 365.39,-253.87 335.5,-221 326.23,-210.81 326.11,-200.08 335.5,-190 358.76,-165.02 873.67,-145.35 1009.1,-140.6"/>
<polygon fill="midnightblue" stroke="midnightblue" points="1009.38,-144.09 1019.25,-140.25 1009.14,-137.1 1009.38,-144.09"/>
</g>
<!-- Node12 -->
<g id="node12" class="node">
<title>Node12</title>
<g id="a_node12"><a xlink:title=" ">
<polygon fill="none" stroke="#bfbfbf" points="398,-196 398,-215 491,-215 491,-196 398,-196"/>
<text text-anchor="middle" x="444.5" y="-203" font-family="Helvetica,sans-Serif" font-size="10.00">unordered_map</text>
</a>
</g>
</g>
<!-- Node9&#45;&gt;Node12 -->
<g id="edge13" class="edge">
<title>Node9&#45;&gt;Node12</title>
<path fill="none" stroke="midnightblue" d="M788.78,-263.58C714.86,-255.24 599.38,-240.59 500.5,-221 495.4,-219.99 490.07,-218.79 484.81,-217.53"/>
<polygon fill="midnightblue" stroke="midnightblue" points="485.42,-214.07 474.87,-215.04 483.72,-220.87 485.42,-214.07"/>
</g>
<!-- Node13 -->
<g id="node13" class="node">
<title>Node13</title>
<g id="a_node13"><a xlink:title=" ">
<polygon fill="none" stroke="#bfbfbf" points="509.5,-196 509.5,-215 677.5,-215 677.5,-196 509.5,-196"/>
<text text-anchor="middle" x="593.5" y="-203" font-family="Helvetica,sans-Serif" font-size="10.00">iDynTree/Core/MatrixDynSize.h</text>
</a>
</g>
</g>
<!-- Node9&#45;&gt;Node13 -->
<g id="edge14" class="edge">
<title>Node9&#45;&gt;Node13</title>
<path fill="none" stroke="midnightblue" d="M806.03,-257.48C755.98,-245.47 684.93,-228.43 639.02,-217.42"/>
<polygon fill="midnightblue" stroke="midnightblue" points="639.6,-213.96 629.06,-215.03 637.97,-220.76 639.6,-213.96"/>
</g>
<!-- Node14 -->
<g id="node14" class="node">
<title>Node14</title>
<g id="a_node14"><a xlink:title=" ">
<polygon fill="none" stroke="#bfbfbf" points="696,-196 696,-215 859,-215 859,-196 696,-196"/>
<text text-anchor="middle" x="777.5" y="-203" font-family="Helvetica,sans-Serif" font-size="10.00">iDynTree/Core/MatrixFixSize.h</text>
</a>
</g>
</g>
<!-- Node9&#45;&gt;Node14 -->
<g id="edge15" class="edge">
<title>Node9&#45;&gt;Node14</title>
<path fill="none" stroke="midnightblue" d="M845.62,-257.4C831.39,-246.76 811.9,-232.2 797.42,-221.38"/>
<polygon fill="midnightblue" stroke="midnightblue" points="799.24,-218.38 789.14,-215.19 795.05,-223.98 799.24,-218.38"/>
</g>
<!-- Node15 -->
<g id="node15" class="node">
<title>Node15</title>
<g id="a_node15"><a xlink:title=" ">
<polygon fill="none" stroke="#bfbfbf" points="877.5,-196 877.5,-215 1023.5,-215 1023.5,-196 877.5,-196"/>
<text text-anchor="middle" x="950.5" y="-203" font-family="Helvetica,sans-Serif" font-size="10.00">iDynTree/Core/Transform.h</text>
</a>
</g>
</g>
<!-- Node9&#45;&gt;Node15 -->
<g id="edge16" class="edge">
<title>Node9&#45;&gt;Node15</title>
<path fill="none" stroke="midnightblue" d="M883.16,-257.4C897.23,-246.76 916.49,-232.2 930.81,-221.38"/>
<polygon fill="midnightblue" stroke="midnightblue" points="933.13,-224.02 939,-215.19 928.91,-218.43 933.13,-224.02"/>
</g>
<!-- Node16 -->
<g id="node16" class="node">
<title>Node16</title>
<g id="a_node16"><a xlink:title=" ">
<polygon fill="none" stroke="#bfbfbf" points="1041.5,-196 1041.5,-215 1203.5,-215 1203.5,-196 1041.5,-196"/>
<text text-anchor="middle" x="1122.5" y="-203" font-family="Helvetica,sans-Serif" font-size="10.00">iDynTree/Core/VectorFixSize.h</text>
</a>
</g>
</g>
<!-- Node9&#45;&gt;Node16 -->
<g id="edge18" class="edge">
<title>Node9&#45;&gt;Node16</title>
<path fill="none" stroke="midnightblue" d="M920.16,-257.48C967.72,-245.5 1035.17,-228.5 1078.89,-217.49"/>
<polygon fill="midnightblue" stroke="midnightblue" points="1079.81,-220.87 1088.65,-215.03 1078.1,-214.08 1079.81,-220.87"/>
</g>
<!-- Node17 -->
<g id="node17" class="node">
<title>Node17</title>
<g id="a_node17"><a xlink:title=" ">
<polygon fill="none" stroke="#bfbfbf" points="1221.5,-196 1221.5,-215 1355.5,-215 1355.5,-196 1221.5,-196"/>
<text text-anchor="middle" x="1288.5" y="-203" font-family="Helvetica,sans-Serif" font-size="10.00">iDynTree/Core/Wrench.h</text>
</a>
</g>
</g>
<!-- Node9&#45;&gt;Node17 -->
<g id="edge19" class="edge">
<title>Node9&#45;&gt;Node17</title>
<path fill="none" stroke="midnightblue" d="M940,-261.53C1010.59,-251.97 1118.88,-236.72 1212.5,-221 1219.96,-219.75 1227.82,-218.34 1235.53,-216.92"/>
<polygon fill="midnightblue" stroke="midnightblue" points="1236.37,-220.32 1245.55,-215.04 1235.08,-213.44 1236.37,-220.32"/>
</g>
<!-- Node18 -->
<g id="node18" class="node">
<title>Node18</title>
<g id="a_node18"><a xlink:href="IParametersHandler_8h.html" target="_top" xlink:title=" ">
<polygon fill="none" stroke="black" points="1374,-190.5 1374,-220.5 1543,-220.5 1543,-190.5 1374,-190.5"/>
<text text-anchor="start" x="1382" y="-208.5" font-family="Helvetica,sans-Serif" font-size="10.00">BipedalLocomotion/Parameters</text>
<text text-anchor="middle" x="1458.5" y="-197.5" font-family="Helvetica,sans-Serif" font-size="10.00">Handler/IParametersHandler.h</text>
</a>
</g>
</g>
<!-- Node9&#45;&gt;Node18 -->
<g id="edge20" class="edge">
<title>Node9&#45;&gt;Node18</title>
<path fill="none" stroke="midnightblue" d="M940.03,-265.11C1035.95,-256.72 1206.8,-240.85 1363.67,-221.06"/>
<polygon fill="midnightblue" stroke="midnightblue" points="1364.5,-224.48 1373.98,-219.75 1363.62,-217.54 1364.5,-224.48"/>
</g>
<!-- Node18&#45;&gt;Node6 -->
<g id="edge21" class="edge">
<title>Node18&#45;&gt;Node6</title>
<path fill="none" stroke="midnightblue" d="M1473.75,-190.3C1492.46,-173.26 1525.51,-144.32 1556.5,-123 1576.99,-108.91 1601.72,-95.25 1620.07,-85.7"/>
<polygon fill="midnightblue" stroke="midnightblue" points="1621.73,-88.78 1629.02,-81.1 1618.53,-82.55 1621.73,-88.78"/>
</g>
<!-- Node18&#45;&gt;Node7 -->
<g id="edge23" class="edge">
<title>Node18&#45;&gt;Node7</title>
<path fill="none" stroke="midnightblue" d="M1374,-191.08C1370.79,-190.7 1367.62,-190.33 1364.5,-190 1047.25,-156.22 661.03,-143.55 545.62,-140.37"/>
<polygon fill="midnightblue" stroke="midnightblue" points="545.4,-136.86 535.31,-140.09 545.21,-143.86 545.4,-136.86"/>
</g>
<!-- Node18&#45;&gt;Node11 -->
<g id="edge22" class="edge">
<title>Node18&#45;&gt;Node11</title>
<path fill="none" stroke="midnightblue" d="M1373.86,-191.31C1281.37,-176.89 1137.87,-154.52 1074.03,-144.57"/>
<polygon fill="midnightblue" stroke="midnightblue" points="1074.2,-141.05 1063.78,-142.97 1073.12,-147.97 1074.2,-141.05"/>
</g>
<!-- Node19 -->
<g id="node19" class="node">
<title>Node19</title>
<g id="a_node19"><a xlink:href="TemplateHelpers_8h_source.html" target="_top" xlink:title=" ">
<polygon fill="none" stroke="black" points="1441.5,-56.5 1441.5,-86.5 1599.5,-86.5 1599.5,-56.5 1441.5,-56.5"/>
<text text-anchor="start" x="1449.5" y="-74.5" font-family="Helvetica,sans-Serif" font-size="10.00">BipedalLocomotion/Generic</text>
<text text-anchor="middle" x="1520.5" y="-63.5" font-family="Helvetica,sans-Serif" font-size="10.00">Container/TemplateHelpers.h</text>
</a>
</g>
</g>
<!-- Node18&#45;&gt;Node19 -->
<g id="edge24" class="edge">
<title>Node18&#45;&gt;Node19</title>
<path fill="none" stroke="midnightblue" d="M1465.14,-190.37C1475.76,-167.75 1496.71,-123.14 1509.57,-95.76"/>
<polygon fill="midnightblue" stroke="midnightblue" points="1512.83,-97.06 1513.91,-86.52 1506.49,-94.09 1512.83,-97.06"/>
</g>
<!-- Node23 -->
<g id="node23" class="node">
<title>Node23</title>
<g id="a_node23"><a xlink:href="Vector_8h_source.html" target="_top" xlink:title=" ">
<polygon fill="none" stroke="black" points="1315,-123.5 1315,-153.5 1466,-153.5 1466,-123.5 1315,-123.5"/>
<text text-anchor="start" x="1323" y="-141.5" font-family="Helvetica,sans-Serif" font-size="10.00">BipedalLocomotion/Generic</text>
<text text-anchor="middle" x="1390.5" y="-130.5" font-family="Helvetica,sans-Serif" font-size="10.00">Container/Vector.h</text>
</a>
</g>
</g>
<!-- Node18&#45;&gt;Node23 -->
<g id="edge28" class="edge">
<title>Node18&#45;&gt;Node23</title>
<path fill="none" stroke="midnightblue" d="M1443.75,-190.4C1434.66,-181.71 1422.83,-170.4 1412.63,-160.66"/>
<polygon fill="midnightblue" stroke="midnightblue" points="1414.87,-157.96 1405.23,-153.58 1410.04,-163.02 1414.87,-157.96"/>
</g>
<!-- Node20 -->
<g id="node20" class="node">
<title>Node20</title>
<g id="a_node20"><a xlink:title=" ">
<polygon fill="none" stroke="#bfbfbf" points="1397,-0.5 1397,-19.5 1466,-19.5 1466,-0.5 1397,-0.5"/>
<text text-anchor="middle" x="1431.5" y="-7.5" font-family="Helvetica,sans-Serif" font-size="10.00">type_traits</text>
</a>
</g>
</g>
<!-- Node19&#45;&gt;Node20 -->
<g id="edge25" class="edge">
<title>Node19&#45;&gt;Node20</title>
<path fill="none" stroke="midnightblue" d="M1499.41,-56.4C1485.41,-47.04 1467.09,-34.79 1453.01,-25.38"/>
<polygon fill="midnightblue" stroke="midnightblue" points="1454.71,-22.31 1444.45,-19.66 1450.82,-28.13 1454.71,-22.31"/>
</g>
<!-- Node21 -->
<g id="node21" class="node">
<title>Node21</title>
<g id="a_node21"><a xlink:title=" ">
<polygon fill="none" stroke="#bfbfbf" points="1484,-0.5 1484,-19.5 1557,-19.5 1557,-0.5 1484,-0.5"/>
<text text-anchor="middle" x="1520.5" y="-7.5" font-family="Helvetica,sans-Serif" font-size="10.00">string_view</text>
</a>
</g>
</g>
<!-- Node19&#45;&gt;Node21 -->
<g id="edge26" class="edge">
<title>Node19&#45;&gt;Node21</title>
<path fill="none" stroke="midnightblue" d="M1520.5,-56.4C1520.5,-48.47 1520.5,-38.46 1520.5,-29.86"/>
<polygon fill="midnightblue" stroke="midnightblue" points="1524,-29.66 1520.5,-19.66 1517,-29.66 1524,-29.66"/>
</g>
<!-- Node22 -->
<g id="node22" class="node">
<title>Node22</title>
<g id="a_node22"><a xlink:title=" ">
<polygon fill="none" stroke="#bfbfbf" points="1575,-0.5 1575,-19.5 1644,-19.5 1644,-0.5 1575,-0.5"/>
<text text-anchor="middle" x="1609.5" y="-7.5" font-family="Helvetica,sans-Serif" font-size="10.00">Eigen/Core</text>
</a>
</g>
</g>
<!-- Node19&#45;&gt;Node22 -->
<g id="edge27" class="edge">
<title>Node19&#45;&gt;Node22</title>
<path fill="none" stroke="midnightblue" d="M1541.59,-56.4C1555.59,-47.04 1573.91,-34.79 1587.99,-25.38"/>
<polygon fill="midnightblue" stroke="midnightblue" points="1590.18,-28.13 1596.55,-19.66 1586.29,-22.31 1590.18,-28.13"/>
</g>
<!-- Node23&#45;&gt;Node6 -->
<g id="edge34" class="edge">
<title>Node23&#45;&gt;Node6</title>
<path fill="none" stroke="midnightblue" d="M1462.33,-123.45C1505.16,-114.43 1560.38,-101.68 1608.5,-87 1610.92,-86.26 1613.41,-85.44 1615.9,-84.59"/>
<polygon fill="midnightblue" stroke="midnightblue" points="1617.17,-87.85 1625.37,-81.15 1614.78,-81.27 1617.17,-87.85"/>
</g>
<!-- Node23&#45;&gt;Node19 -->
<g id="edge30" class="edge">
<title>Node23&#45;&gt;Node19</title>
<path fill="none" stroke="midnightblue" d="M1418.71,-123.4C1437.62,-113.94 1462.72,-101.39 1483.27,-91.12"/>
<polygon fill="midnightblue" stroke="midnightblue" points="1484.97,-94.18 1492.35,-86.58 1481.84,-87.92 1484.97,-94.18"/>
</g>
<!-- Node24 -->
<g id="node24" class="node">
<title>Node24</title>
<g id="a_node24"><a xlink:title=" ">
<polygon fill="none" stroke="#bfbfbf" points="1071,-62 1071,-81 1192,-81 1192,-62 1071,-62"/>
<text text-anchor="middle" x="1131.5" y="-69" font-family="Helvetica,sans-Serif" font-size="10.00">iDynTree/Core/Span.h</text>
</a>
</g>
</g>
<!-- Node23&#45;&gt;Node24 -->
<g id="edge29" class="edge">
<title>Node23&#45;&gt;Node24</title>
<path fill="none" stroke="midnightblue" d="M1334.62,-123.48C1286.88,-111.5 1219.17,-94.5 1175.28,-83.49"/>
<polygon fill="midnightblue" stroke="midnightblue" points="1176.03,-80.07 1165.48,-81.03 1174.33,-86.86 1176.03,-80.07"/>
</g>
<!-- Node25 -->
<g id="node25" class="node">
<title>Node25</title>
<g id="a_node25"><a xlink:title=" ">
<polygon fill="none" stroke="#bfbfbf" points="1210,-62 1210,-81 1275,-81 1275,-62 1210,-62"/>
<text text-anchor="middle" x="1242.5" y="-69" font-family="Helvetica,sans-Serif" font-size="10.00">functional</text>
</a>
</g>
</g>
<!-- Node23&#45;&gt;Node25 -->
<g id="edge31" class="edge">
<title>Node23&#45;&gt;Node25</title>
<path fill="none" stroke="midnightblue" d="M1358.39,-123.4C1332.42,-111.99 1296.19,-96.08 1271.18,-85.1"/>
<polygon fill="midnightblue" stroke="midnightblue" points="1272.43,-81.82 1261.87,-81.01 1269.62,-88.23 1272.43,-81.82"/>
</g>
<!-- Node26 -->
<g id="node26" class="node">
<title>Node26</title>
<g id="a_node26"><a xlink:title=" ">
<polygon fill="none" stroke="#bfbfbf" points="1293.5,-62 1293.5,-81 1345.5,-81 1345.5,-62 1293.5,-62"/>
<text text-anchor="middle" x="1319.5" y="-69" font-family="Helvetica,sans-Serif" font-size="10.00">cassert</text>
</a>
</g>
</g>
<!-- Node23&#45;&gt;Node26 -->
<g id="edge32" class="edge">
<title>Node23&#45;&gt;Node26</title>
<path fill="none" stroke="midnightblue" d="M1375.09,-123.4C1363.69,-112.96 1348.17,-98.75 1336.43,-88"/>
<polygon fill="midnightblue" stroke="midnightblue" points="1338.74,-85.37 1329,-81.19 1334.01,-90.53 1338.74,-85.37"/>
</g>
<!-- Node27 -->
<g id="node27" class="node">
<title>Node27</title>
<g id="a_node27"><a xlink:title=" ">
<polygon fill="none" stroke="#bfbfbf" points="1363.5,-62 1363.5,-81 1423.5,-81 1423.5,-62 1363.5,-62"/>
<text text-anchor="middle" x="1393.5" y="-69" font-family="Helvetica,sans-Serif" font-size="10.00">iostream</text>
</a>
</g>
</g>
<!-- Node23&#45;&gt;Node27 -->
<g id="edge33" class="edge">
<title>Node23&#45;&gt;Node27</title>
<path fill="none" stroke="midnightblue" d="M1391.15,-123.4C1391.59,-113.96 1392.16,-101.45 1392.64,-91.19"/>
<polygon fill="midnightblue" stroke="midnightblue" points="1396.13,-91.35 1393.1,-81.19 1389.14,-91.02 1396.13,-91.35"/>
</g>
<!-- Node29&#45;&gt;Node6 -->
<g id="edge37" class="edge">
<title>Node29&#45;&gt;Node6</title>
<path fill="none" stroke="midnightblue" d="M1768.11,-257.11C1757.38,-229.51 1731.51,-167.92 1698.5,-123 1688.97,-110.04 1675.99,-97.43 1665.39,-88.05"/>
<polygon fill="midnightblue" stroke="midnightblue" points="1667.37,-85.14 1657.5,-81.28 1662.81,-90.45 1667.37,-85.14"/>
</g>
<!-- Node29&#45;&gt;Node18 -->
<g id="edge42" class="edge">
<title>Node29&#45;&gt;Node18</title>
<path fill="none" stroke="midnightblue" d="M1705.54,-257.48C1655.84,-247.22 1588.33,-233.29 1536.44,-222.58"/>
<polygon fill="midnightblue" stroke="midnightblue" points="1537.11,-219.15 1526.61,-220.55 1535.7,-226 1537.11,-219.15"/>
</g>
<!-- Node29&#45;&gt;Node19 -->
<g id="edge41" class="edge">
<title>Node29&#45;&gt;Node19</title>
<path fill="none" stroke="midnightblue" d="M1755.3,-257.19C1711.09,-222.41 1597.85,-133.34 1546.51,-92.96"/>
<polygon fill="midnightblue" stroke="midnightblue" points="1548.55,-90.11 1538.53,-86.68 1544.23,-95.62 1548.55,-90.11"/>
</g>
<!-- Node30 -->
<g id="node30" class="node">
<title>Node30</title>
<g id="a_node30"><a xlink:title=" ">
<polygon fill="none" stroke="#bfbfbf" points="1810,-129 1810,-148 1851,-148 1851,-129 1810,-129"/>
<text text-anchor="middle" x="1830.5" y="-136" font-family="Helvetica,sans-Serif" font-size="10.00">tuple</text>
</a>
</g>
</g>
<!-- Node29&#45;&gt;Node30 -->
<g id="edge38" class="edge">
<title>Node29&#45;&gt;Node30</title>
<path fill="none" stroke="midnightblue" d="M1774.99,-257.37C1777.16,-240.64 1782.11,-212.25 1792.5,-190 1798.33,-177.52 1807.58,-165.13 1815.5,-155.75"/>
<polygon fill="midnightblue" stroke="midnightblue" points="1818.28,-157.88 1822.26,-148.06 1813.03,-153.26 1818.28,-157.88"/>
</g>
<!-- Node29&#45;&gt;Node31 -->
<g id="edge39" class="edge">
<title>Node29&#45;&gt;Node31</title>
<path fill="none" stroke="midnightblue" d="M1797.8,-257.4C1813.8,-248.11 1834.94,-235.84 1852.46,-225.67"/>
<polygon fill="midnightblue" stroke="midnightblue" points="1854.35,-228.62 1861.25,-220.58 1850.84,-222.57 1854.35,-228.62"/>
</g>
<!-- Node31&#45;&gt;Node30 -->
<g id="edge40" class="edge">
<title>Node31&#45;&gt;Node30</title>
<path fill="none" stroke="midnightblue" d="M1873.57,-190.4C1864.99,-180.26 1853.4,-166.57 1844.41,-155.94"/>
<polygon fill="midnightblue" stroke="midnightblue" points="1846.99,-153.57 1837.86,-148.19 1841.64,-158.09 1846.99,-153.57"/>
</g>
<!-- Node35&#45;&gt;Node33 -->
<g id="edge48" class="edge">
<title>Node35&#45;&gt;Node33</title>
<path fill="none" stroke="midnightblue" d="M1917.77,-407.7C1922.32,-395.35 1928.92,-377.44 1933.83,-364.1"/>
<polygon fill="midnightblue" stroke="midnightblue" points="1937.17,-365.16 1937.35,-354.56 1930.6,-362.74 1937.17,-365.16"/>
</g>
<!-- Node37 -->
<g id="node37" class="node">
<title>Node37</title>
<g id="a_node37"><a xlink:title=" ">
<polygon fill="none" stroke="#bfbfbf" points="2147,-335.5 2147,-354.5 2246,-354.5 2246,-335.5 2147,-335.5"/>
<text text-anchor="middle" x="2196.5" y="-342.5" font-family="Helvetica,sans-Serif" font-size="10.00">spdlog/fmt/ostr.h</text>
</a>
</g>
</g>
<!-- Node36&#45;&gt;Node37 -->
<g id="edge51" class="edge">
<title>Node36&#45;&gt;Node37</title>
<path fill="none" stroke="midnightblue" d="M2120.99,-407.7C2137.3,-394.38 2161.54,-374.57 2178.13,-361.01"/>
<polygon fill="midnightblue" stroke="midnightblue" points="2180.49,-363.6 2186.02,-354.56 2176.06,-358.18 2180.49,-363.6"/>
</g>
<!-- Node38 -->
<g id="node38" class="node">
<title>Node38</title>
<g id="a_node38"><a xlink:title=" ">
<polygon fill="none" stroke="#bfbfbf" points="2036,-335.5 2036,-354.5 2129,-354.5 2129,-335.5 2036,-335.5"/>
<text text-anchor="middle" x="2082.5" y="-342.5" font-family="Helvetica,sans-Serif" font-size="10.00">spdlog/spdlog.h</text>
</a>
</g>
</g>
<!-- Node36&#45;&gt;Node38 -->
<g id="edge52" class="edge">
<title>Node36&#45;&gt;Node38</title>
<path fill="none" stroke="midnightblue" d="M2099.55,-407.7C2096.17,-395.48 2091.29,-377.8 2087.61,-364.49"/>
<polygon fill="midnightblue" stroke="midnightblue" points="2090.9,-363.27 2084.87,-354.56 2084.16,-365.13 2090.9,-363.27"/>
</g>
</g>
</svg>
