<?xml version="1.0" encoding="UTF-8" standalone="no"?>
<!DOCTYPE svg PUBLIC "-//W3C//DTD SVG 1.1//EN"
 "http://www.w3.org/Graphics/SVG/1.1/DTD/svg11.dtd">
<!-- Generated by graphviz version 2.43.0 (0)
 -->
<!-- Title: Estimators/src/FloatingBaseEstimator.cpp Pages: 1 -->
<svg width="1832pt" height="508pt"
 viewBox="0.00 0.00 1832.00 508.00" xmlns="http://www.w3.org/2000/svg" xmlns:xlink="http://www.w3.org/1999/xlink">
<g id="graph0" class="graph" transform="scale(1 1) rotate(0) translate(4 504)">
<title>Estimators/src/FloatingBaseEstimator.cpp</title>
<!-- Node1 -->
<g id="node1" class="node">
<title>Node1</title>
<g id="a_node1"><a xlink:title=" ">
<polygon fill="#bfbfbf" stroke="black" points="1349.5,-469.5 1349.5,-499.5 1502.5,-499.5 1502.5,-469.5 1349.5,-469.5"/>
<text text-anchor="start" x="1357.5" y="-487.5" font-family="Helvetica,sans-Serif" font-size="10.00">Estimators/src/FloatingBase</text>
<text text-anchor="middle" x="1426" y="-476.5" font-family="Helvetica,sans-Serif" font-size="10.00">Estimator.cpp</text>
</a>
</g>
</g>
<!-- Node2 -->
<g id="node2" class="node">
<title>Node2</title>
<g id="a_node2"><a xlink:href="FloatingBaseEstimator_8h.html" target="_top" xlink:title=" ">
<polygon fill="none" stroke="black" points="454.5,-402.5 454.5,-432.5 669.5,-432.5 669.5,-402.5 454.5,-402.5"/>
<text text-anchor="start" x="462.5" y="-420.5" font-family="Helvetica,sans-Serif" font-size="10.00">BipedalLocomotion/Floating</text>
<text text-anchor="middle" x="562" y="-409.5" font-family="Helvetica,sans-Serif" font-size="10.00">BaseEstimators/FloatingBaseEstimator.h</text>
</a>
</g>
</g>
<!-- Node1&#45;&gt;Node2 -->
<g id="edge1" class="edge">
<title>Node1&#45;&gt;Node2</title>
<path fill="none" stroke="midnightblue" d="M1349.33,-477.73C1197.93,-466.34 859.74,-440.9 679.84,-427.37"/>
<polygon fill="midnightblue" stroke="midnightblue" points="680.04,-423.87 669.81,-426.61 679.51,-430.85 680.04,-423.87"/>
</g>
<!-- Node29 -->
<g id="node29" class="node">
<title>Node29</title>
<g id="a_node29"><a xlink:href="ManifConversions_8h.html" target="_top" xlink:title=" ">
<polygon fill="none" stroke="black" points="1244.5,-402.5 1244.5,-432.5 1417.5,-432.5 1417.5,-402.5 1244.5,-402.5"/>
<text text-anchor="start" x="1252.5" y="-420.5" font-family="Helvetica,sans-Serif" font-size="10.00">BipedalLocomotion/Conversions</text>
<text text-anchor="middle" x="1331" y="-409.5" font-family="Helvetica,sans-Serif" font-size="10.00">/ManifConversions.h</text>
</a>
</g>
</g>
<!-- Node1&#45;&gt;Node29 -->
<g id="edge38" class="edge">
<title>Node1&#45;&gt;Node29</title>
<path fill="none" stroke="midnightblue" d="M1405.39,-469.4C1392.07,-460.28 1374.54,-448.29 1359.84,-438.24"/>
<polygon fill="midnightblue" stroke="midnightblue" points="1361.8,-435.33 1351.57,-432.58 1357.85,-441.11 1361.8,-435.33"/>
</g>
<!-- Node32 -->
<g id="node32" class="node">
<title>Node32</title>
<g id="a_node32"><a xlink:href="Logger_8h.html" target="_top" xlink:title=" ">
<polygon fill="none" stroke="black" points="1500,-402.5 1500,-432.5 1672,-432.5 1672,-402.5 1500,-402.5"/>
<text text-anchor="start" x="1508" y="-420.5" font-family="Helvetica,sans-Serif" font-size="10.00">BipedalLocomotion/TextLogging</text>
<text text-anchor="middle" x="1586" y="-409.5" font-family="Helvetica,sans-Serif" font-size="10.00">/Logger.h</text>
</a>
</g>
</g>
<!-- Node1&#45;&gt;Node32 -->
<g id="edge42" class="edge">
<title>Node1&#45;&gt;Node32</title>
<path fill="none" stroke="midnightblue" d="M1460.72,-469.4C1484.51,-459.73 1516.28,-446.82 1541.87,-436.43"/>
<polygon fill="midnightblue" stroke="midnightblue" points="1543.4,-439.58 1551.35,-432.58 1540.77,-433.1 1543.4,-439.58"/>
</g>
<!-- Node35 -->
<g id="node35" class="node">
<title>Node35</title>
<g id="a_node35"><a xlink:title=" ">
<polygon fill="none" stroke="#bfbfbf" points="1690,-408 1690,-427 1824,-427 1824,-408 1690,-408"/>
<text text-anchor="middle" x="1757" y="-415" font-family="Helvetica,sans-Serif" font-size="10.00">iDynTree/Model/Model.h</text>
</a>
</g>
</g>
<!-- Node1&#45;&gt;Node35 -->
<g id="edge45" class="edge">
<title>Node1&#45;&gt;Node35</title>
<path fill="none" stroke="midnightblue" d="M1497.41,-469.48C1559.32,-457.32 1647.52,-440 1703.5,-429.01"/>
<polygon fill="midnightblue" stroke="midnightblue" points="1704.43,-432.39 1713.57,-427.03 1703.08,-425.52 1704.43,-432.39"/>
</g>
<!-- Node3 -->
<g id="node3" class="node">
<title>Node3</title>
<g id="a_node3"><a xlink:href="Source_8h.html" target="_top" xlink:title=" ">
<polygon fill="none" stroke="black" points="0,-330 0,-360 150,-360 150,-330 0,-330"/>
<text text-anchor="start" x="8" y="-348" font-family="Helvetica,sans-Serif" font-size="10.00">BipedalLocomotion/System</text>
<text text-anchor="middle" x="75" y="-337" font-family="Helvetica,sans-Serif" font-size="10.00">/Source.h</text>
</a>
</g>
</g>
<!-- Node2&#45;&gt;Node3 -->
<g id="edge2" class="edge">
<title>Node2&#45;&gt;Node3</title>
<path fill="none" stroke="midnightblue" d="M454.32,-405.63C374.01,-396.85 261.76,-383.15 164,-366 157.4,-364.84 150.55,-363.52 143.71,-362.12"/>
<polygon fill="midnightblue" stroke="midnightblue" points="144.23,-358.65 133.73,-360.02 142.79,-365.5 144.23,-358.65"/>
</g>
<!-- Node6 -->
<g id="node6" class="node">
<title>Node6</title>
<g id="a_node6"><a xlink:href="IParametersHandler_8h.html" target="_top" xlink:title=" ">
<polygon fill="none" stroke="black" points="273.5,-190.5 273.5,-220.5 442.5,-220.5 442.5,-190.5 273.5,-190.5"/>
<text text-anchor="start" x="281.5" y="-208.5" font-family="Helvetica,sans-Serif" font-size="10.00">BipedalLocomotion/Parameters</text>
<text text-anchor="middle" x="358" y="-197.5" font-family="Helvetica,sans-Serif" font-size="10.00">Handler/IParametersHandler.h</text>
</a>
</g>
</g>
<!-- Node2&#45;&gt;Node6 -->
<g id="edge20" class="edge">
<title>Node2&#45;&gt;Node6</title>
<path fill="none" stroke="midnightblue" d="M534.81,-402.48C518.51,-393.34 497.94,-380.45 482,-366 435.21,-323.57 392.89,-261.92 371.91,-229.07"/>
<polygon fill="midnightblue" stroke="midnightblue" points="374.86,-227.2 366.57,-220.61 368.94,-230.94 374.86,-227.2"/>
</g>
<!-- Node7 -->
<g id="node7" class="node">
<title>Node7</title>
<g id="a_node7"><a xlink:title=" ">
<polygon fill="none" stroke="#bfbfbf" points="73,-62 73,-81 131,-81 131,-62 73,-62"/>
<text text-anchor="middle" x="102" y="-69" font-family="Helvetica,sans-Serif" font-size="10.00">memory</text>
</a>
</g>
</g>
<!-- Node2&#45;&gt;Node7 -->
<g id="edge37" class="edge">
<title>Node2&#45;&gt;Node7</title>
<path fill="none" stroke="midnightblue" d="M477.25,-402.49C364.17,-381.34 178,-336.9 178,-273.5 178,-273.5 178,-273.5 178,-204.5 178,-157.19 140.88,-111.54 118.53,-88.33"/>
<polygon fill="midnightblue" stroke="midnightblue" points="120.86,-85.71 111.32,-81.09 115.89,-90.65 120.86,-85.71"/>
</g>
<!-- Node18 -->
<g id="node18" class="node">
<title>Node18</title>
<g id="a_node18"><a xlink:title=" ">
<polygon fill="none" stroke="#bfbfbf" points="617,-62 617,-81 677,-81 677,-62 617,-62"/>
<text text-anchor="middle" x="647" y="-69" font-family="Helvetica,sans-Serif" font-size="10.00">iostream</text>
</a>
</g>
</g>
<!-- Node2&#45;&gt;Node18 -->
<g id="edge36" class="edge">
<title>Node2&#45;&gt;Node18</title>
<path fill="none" stroke="midnightblue" d="M543.19,-402.37C532.73,-393.29 520.7,-380.49 515,-366 508.17,-348.63 511.89,-342.41 515,-324 530.78,-230.73 530.72,-200.47 585,-123 595.23,-108.4 610.79,-95.75 623.76,-86.76"/>
<polygon fill="midnightblue" stroke="midnightblue" points="625.83,-89.58 632.23,-81.14 621.96,-83.75 625.83,-89.58"/>
</g>
<!-- Node19 -->
<g id="node19" class="node">
<title>Node19</title>
<g id="a_node19"><a xlink:href="FloatingBaseEstimatorParams_8h.html" target="_top" xlink:title=" ">
<polygon fill="none" stroke="black" points="524.5,-324.5 524.5,-365.5 731.5,-365.5 731.5,-324.5 524.5,-324.5"/>
<text text-anchor="start" x="532.5" y="-353.5" font-family="Helvetica,sans-Serif" font-size="10.00">BipedalLocomotion/Floating</text>
<text text-anchor="start" x="532.5" y="-342.5" font-family="Helvetica,sans-Serif" font-size="10.00">BaseEstimators/FloatingBaseEstimator</text>
<text text-anchor="middle" x="628" y="-331.5" font-family="Helvetica,sans-Serif" font-size="10.00">Params.h</text>
</a>
</g>
</g>
<!-- Node2&#45;&gt;Node19 -->
<g id="edge21" class="edge">
<title>Node2&#45;&gt;Node19</title>
<path fill="none" stroke="midnightblue" d="M575.36,-402.23C583.22,-393.83 593.42,-382.93 602.75,-372.97"/>
<polygon fill="midnightblue" stroke="midnightblue" points="605.38,-375.28 609.66,-365.59 600.27,-370.5 605.38,-375.28"/>
</g>
<!-- Node22 -->
<g id="node22" class="node">
<title>Node22</title>
<g id="a_node22"><a xlink:href="FloatingBaseEstimatorIO_8h.html" target="_top" xlink:title=" ">
<polygon fill="none" stroke="black" points="749.5,-330 749.5,-360 976.5,-360 976.5,-330 749.5,-330"/>
<text text-anchor="start" x="757.5" y="-348" font-family="Helvetica,sans-Serif" font-size="10.00">BipedalLocomotion/Floating</text>
<text text-anchor="middle" x="863" y="-337" font-family="Helvetica,sans-Serif" font-size="10.00">BaseEstimators/FloatingBaseEstimatorIO.h</text>
</a>
</g>
</g>
<!-- Node2&#45;&gt;Node22 -->
<g id="edge24" class="edge">
<title>Node2&#45;&gt;Node22</title>
<path fill="none" stroke="midnightblue" d="M621.83,-402.49C671.19,-390.92 741.31,-374.5 793.23,-362.34"/>
<polygon fill="midnightblue" stroke="midnightblue" points="794.09,-365.73 803.03,-360.05 792.49,-358.92 794.09,-365.73"/>
</g>
<!-- Node28 -->
<g id="node28" class="node">
<title>Node28</title>
<g id="a_node28"><a xlink:title=" ">
<polygon fill="none" stroke="#bfbfbf" points="994.5,-335.5 994.5,-354.5 1169.5,-354.5 1169.5,-335.5 994.5,-335.5"/>
<text text-anchor="middle" x="1082" y="-342.5" font-family="Helvetica,sans-Serif" font-size="10.00">iDynTree/KinDynComputations.h</text>
</a>
</g>
</g>
<!-- Node2&#45;&gt;Node28 -->
<g id="edge35" class="edge">
<title>Node2&#45;&gt;Node28</title>
<path fill="none" stroke="midnightblue" d="M669.71,-406.18C755.4,-397.36 878.24,-383.35 985,-366 1001.15,-363.38 1018.7,-359.94 1034.37,-356.66"/>
<polygon fill="midnightblue" stroke="midnightblue" points="1035.31,-360.03 1044.36,-354.53 1033.85,-353.19 1035.31,-360.03"/>
</g>
<!-- Node4 -->
<g id="node4" class="node">
<title>Node4</title>
<g id="a_node4"><a xlink:href="Advanceable_8h.html" target="_top" xlink:title=" ">
<polygon fill="none" stroke="black" points="0,-257.5 0,-287.5 150,-287.5 150,-257.5 0,-257.5"/>
<text text-anchor="start" x="8" y="-275.5" font-family="Helvetica,sans-Serif" font-size="10.00">BipedalLocomotion/System</text>
<text text-anchor="middle" x="75" y="-264.5" font-family="Helvetica,sans-Serif" font-size="10.00">/Advanceable.h</text>
</a>
</g>
</g>
<!-- Node3&#45;&gt;Node4 -->
<g id="edge3" class="edge">
<title>Node3&#45;&gt;Node4</title>
<path fill="none" stroke="midnightblue" d="M75,-329.73C75,-320.66 75,-308.66 75,-298.08"/>
<polygon fill="midnightblue" stroke="midnightblue" points="78.5,-297.75 75,-287.75 71.5,-297.75 78.5,-297.75"/>
</g>
<!-- Node5 -->
<g id="node5" class="node">
<title>Node5</title>
<g id="a_node5"><a xlink:title=" ">
<polygon fill="none" stroke="#bfbfbf" points="49.5,-196 49.5,-215 100.5,-215 100.5,-196 49.5,-196"/>
<text text-anchor="middle" x="75" y="-203" font-family="Helvetica,sans-Serif" font-size="10.00">variant</text>
</a>
</g>
</g>
<!-- Node4&#45;&gt;Node5 -->
<g id="edge4" class="edge">
<title>Node4&#45;&gt;Node5</title>
<path fill="none" stroke="midnightblue" d="M75,-257.4C75,-248.06 75,-235.71 75,-225.52"/>
<polygon fill="midnightblue" stroke="midnightblue" points="78.5,-225.19 75,-215.19 71.5,-225.19 78.5,-225.19"/>
</g>
<!-- Node4&#45;&gt;Node6 -->
<g id="edge5" class="edge">
<title>Node4&#45;&gt;Node6</title>
<path fill="none" stroke="midnightblue" d="M136.06,-257.48C180.26,-247.32 240.15,-233.57 286.57,-222.91"/>
<polygon fill="midnightblue" stroke="midnightblue" points="287.6,-226.26 296.56,-220.61 286.03,-219.44 287.6,-226.26"/>
</g>
<!-- Node6&#45;&gt;Node7 -->
<g id="edge6" class="edge">
<title>Node6&#45;&gt;Node7</title>
<path fill="none" stroke="midnightblue" d="M325.11,-190.43C302.83,-180.68 272.86,-167.14 247,-154 221.98,-141.29 216.46,-136.75 192,-123 169.66,-110.44 144.18,-96.14 126.05,-85.98"/>
<polygon fill="midnightblue" stroke="midnightblue" points="127.73,-82.91 117.29,-81.07 124.3,-89.01 127.73,-82.91"/>
</g>
<!-- Node8 -->
<g id="node8" class="node">
<title>Node8</title>
<g id="a_node8"><a xlink:title=" ">
<polygon fill="none" stroke="#bfbfbf" points="594,-129 594,-148 638,-148 638,-129 594,-129"/>
<text text-anchor="middle" x="616" y="-136" font-family="Helvetica,sans-Serif" font-size="10.00">string</text>
</a>
</g>
</g>
<!-- Node6&#45;&gt;Node8 -->
<g id="edge7" class="edge">
<title>Node6&#45;&gt;Node8</title>
<path fill="none" stroke="midnightblue" d="M413.66,-190.48C465.67,-177.37 541.48,-158.27 584.01,-147.56"/>
<polygon fill="midnightblue" stroke="midnightblue" points="584.97,-150.93 593.81,-145.09 583.26,-144.14 584.97,-150.93"/>
</g>
<!-- Node9 -->
<g id="node9" class="node">
<title>Node9</title>
<g id="a_node9"><a xlink:title=" ">
<polygon fill="none" stroke="#bfbfbf" points="451.5,-129 451.5,-148 498.5,-148 498.5,-129 451.5,-129"/>
<text text-anchor="middle" x="475" y="-136" font-family="Helvetica,sans-Serif" font-size="10.00">vector</text>
</a>
</g>
</g>
<!-- Node6&#45;&gt;Node9 -->
<g id="edge8" class="edge">
<title>Node6&#45;&gt;Node9</title>
<path fill="none" stroke="midnightblue" d="M383.39,-190.4C403.37,-179.29 431.04,-163.92 450.73,-152.98"/>
<polygon fill="midnightblue" stroke="midnightblue" points="452.65,-155.92 459.69,-148.01 449.25,-149.8 452.65,-155.92"/>
</g>
<!-- Node10 -->
<g id="node10" class="node">
<title>Node10</title>
<g id="a_node10"><a xlink:href="TemplateHelpers_8h_source.html" target="_top" xlink:title=" ">
<polygon fill="none" stroke="black" points="149,-56.5 149,-86.5 307,-86.5 307,-56.5 149,-56.5"/>
<text text-anchor="start" x="157" y="-74.5" font-family="Helvetica,sans-Serif" font-size="10.00">BipedalLocomotion/Generic</text>
<text text-anchor="middle" x="228" y="-63.5" font-family="Helvetica,sans-Serif" font-size="10.00">Container/TemplateHelpers.h</text>
</a>
</g>
</g>
<!-- Node6&#45;&gt;Node10 -->
<g id="edge9" class="edge">
<title>Node6&#45;&gt;Node10</title>
<path fill="none" stroke="midnightblue" d="M325.73,-190.47C308.55,-181.81 287.93,-169.41 273,-154 256.83,-137.31 244.63,-113.66 237.04,-96.13"/>
<polygon fill="midnightblue" stroke="midnightblue" points="240.16,-94.52 233.11,-86.62 233.69,-97.2 240.16,-94.52"/>
</g>
<!-- Node14 -->
<g id="node14" class="node">
<title>Node14</title>
<g id="a_node14"><a xlink:href="Vector_8h_source.html" target="_top" xlink:title=" ">
<polygon fill="none" stroke="black" points="282.5,-123.5 282.5,-153.5 433.5,-153.5 433.5,-123.5 282.5,-123.5"/>
<text text-anchor="start" x="290.5" y="-141.5" font-family="Helvetica,sans-Serif" font-size="10.00">BipedalLocomotion/Generic</text>
<text text-anchor="middle" x="358" y="-130.5" font-family="Helvetica,sans-Serif" font-size="10.00">Container/Vector.h</text>
</a>
</g>
</g>
<!-- Node6&#45;&gt;Node14 -->
<g id="edge13" class="edge">
<title>Node6&#45;&gt;Node14</title>
<path fill="none" stroke="midnightblue" d="M358,-190.4C358,-182.64 358,-172.81 358,-163.86"/>
<polygon fill="midnightblue" stroke="midnightblue" points="361.5,-163.58 358,-153.58 354.5,-163.58 361.5,-163.58"/>
</g>
<!-- Node11 -->
<g id="node11" class="node">
<title>Node11</title>
<g id="a_node11"><a xlink:title=" ">
<polygon fill="none" stroke="#bfbfbf" points="104.5,-0.5 104.5,-19.5 173.5,-19.5 173.5,-0.5 104.5,-0.5"/>
<text text-anchor="middle" x="139" y="-7.5" font-family="Helvetica,sans-Serif" font-size="10.00">type_traits</text>
</a>
</g>
</g>
<!-- Node10&#45;&gt;Node11 -->
<g id="edge10" class="edge">
<title>Node10&#45;&gt;Node11</title>
<path fill="none" stroke="midnightblue" d="M206.91,-56.4C192.91,-47.04 174.59,-34.79 160.51,-25.38"/>
<polygon fill="midnightblue" stroke="midnightblue" points="162.21,-22.31 151.95,-19.66 158.32,-28.13 162.21,-22.31"/>
</g>
<!-- Node12 -->
<g id="node12" class="node">
<title>Node12</title>
<g id="a_node12"><a xlink:title=" ">
<polygon fill="none" stroke="#bfbfbf" points="191.5,-0.5 191.5,-19.5 264.5,-19.5 264.5,-0.5 191.5,-0.5"/>
<text text-anchor="middle" x="228" y="-7.5" font-family="Helvetica,sans-Serif" font-size="10.00">string_view</text>
</a>
</g>
</g>
<!-- Node10&#45;&gt;Node12 -->
<g id="edge11" class="edge">
<title>Node10&#45;&gt;Node12</title>
<path fill="none" stroke="midnightblue" d="M228,-56.4C228,-48.47 228,-38.46 228,-29.86"/>
<polygon fill="midnightblue" stroke="midnightblue" points="231.5,-29.66 228,-19.66 224.5,-29.66 231.5,-29.66"/>
</g>
<!-- Node13 -->
<g id="node13" class="node">
<title>Node13</title>
<g id="a_node13"><a xlink:title=" ">
<polygon fill="none" stroke="#bfbfbf" points="282.5,-0.5 282.5,-19.5 351.5,-19.5 351.5,-0.5 282.5,-0.5"/>
<text text-anchor="middle" x="317" y="-7.5" font-family="Helvetica,sans-Serif" font-size="10.00">Eigen/Core</text>
</a>
</g>
</g>
<!-- Node10&#45;&gt;Node13 -->
<g id="edge12" class="edge">
<title>Node10&#45;&gt;Node13</title>
<path fill="none" stroke="midnightblue" d="M249.09,-56.4C263.09,-47.04 281.41,-34.79 295.49,-25.38"/>
<polygon fill="midnightblue" stroke="midnightblue" points="297.68,-28.13 304.05,-19.66 293.79,-22.31 297.68,-28.13"/>
</g>
<!-- Node14&#45;&gt;Node7 -->
<g id="edge19" class="edge">
<title>Node14&#45;&gt;Node7</title>
<path fill="none" stroke="midnightblue" d="M286.17,-123.45C243.34,-114.43 188.12,-101.68 140,-87 137.58,-86.26 135.09,-85.44 132.6,-84.59"/>
<polygon fill="midnightblue" stroke="midnightblue" points="133.72,-81.27 123.13,-81.15 131.33,-87.85 133.72,-81.27"/>
</g>
<!-- Node14&#45;&gt;Node10 -->
<g id="edge15" class="edge">
<title>Node14&#45;&gt;Node10</title>
<path fill="none" stroke="midnightblue" d="M329.79,-123.4C310.88,-113.94 285.78,-101.39 265.23,-91.12"/>
<polygon fill="midnightblue" stroke="midnightblue" points="266.66,-87.92 256.15,-86.58 263.53,-94.18 266.66,-87.92"/>
</g>
<!-- Node15 -->
<g id="node15" class="node">
<title>Node15</title>
<g id="a_node15"><a xlink:title=" ">
<polygon fill="none" stroke="#bfbfbf" points="324.5,-62 324.5,-81 445.5,-81 445.5,-62 324.5,-62"/>
<text text-anchor="middle" x="385" y="-69" font-family="Helvetica,sans-Serif" font-size="10.00">iDynTree/Core/Span.h</text>
</a>
</g>
</g>
<!-- Node14&#45;&gt;Node15 -->
<g id="edge14" class="edge">
<title>Node14&#45;&gt;Node15</title>
<path fill="none" stroke="midnightblue" d="M363.86,-123.4C367.86,-113.76 373.2,-100.91 377.51,-90.54"/>
<polygon fill="midnightblue" stroke="midnightblue" points="380.78,-91.77 381.39,-81.19 374.32,-89.09 380.78,-91.77"/>
</g>
<!-- Node16 -->
<g id="node16" class="node">
<title>Node16</title>
<g id="a_node16"><a xlink:title=" ">
<polygon fill="none" stroke="#bfbfbf" points="463.5,-62 463.5,-81 528.5,-81 528.5,-62 463.5,-62"/>
<text text-anchor="middle" x="496" y="-69" font-family="Helvetica,sans-Serif" font-size="10.00">functional</text>
</a>
</g>
</g>
<!-- Node14&#45;&gt;Node16 -->
<g id="edge16" class="edge">
<title>Node14&#45;&gt;Node16</title>
<path fill="none" stroke="midnightblue" d="M387.94,-123.4C411.94,-112.09 445.34,-96.36 468.63,-85.39"/>
<polygon fill="midnightblue" stroke="midnightblue" points="470.38,-88.43 477.94,-81.01 467.4,-82.1 470.38,-88.43"/>
</g>
<!-- Node17 -->
<g id="node17" class="node">
<title>Node17</title>
<g id="a_node17"><a xlink:title=" ">
<polygon fill="none" stroke="#bfbfbf" points="547,-62 547,-81 599,-81 599,-62 547,-62"/>
<text text-anchor="middle" x="573" y="-69" font-family="Helvetica,sans-Serif" font-size="10.00">cassert</text>
</a>
</g>
</g>
<!-- Node14&#45;&gt;Node17 -->
<g id="edge17" class="edge">
<title>Node14&#45;&gt;Node17</title>
<path fill="none" stroke="midnightblue" d="M413.71,-123.44C449.28,-114.06 496.2,-100.92 537,-87 539.12,-86.27 541.31,-85.49 543.49,-84.68"/>
<polygon fill="midnightblue" stroke="midnightblue" points="544.9,-87.89 552.96,-81.02 542.37,-81.36 544.9,-87.89"/>
</g>
<!-- Node14&#45;&gt;Node18 -->
<g id="edge18" class="edge">
<title>Node14&#45;&gt;Node18</title>
<path fill="none" stroke="midnightblue" d="M433.75,-123.55C494.92,-112.03 575.9,-96.15 608,-87 610.64,-86.25 613.36,-85.4 616.08,-84.5"/>
<polygon fill="midnightblue" stroke="midnightblue" points="617.48,-87.71 625.74,-81.09 615.15,-81.11 617.48,-87.71"/>
</g>
<!-- Node20 -->
<g id="node20" class="node">
<title>Node20</title>
<g id="a_node20"><a xlink:title=" ">
<polygon fill="none" stroke="#bfbfbf" points="713.5,-129 713.5,-148 790.5,-148 790.5,-129 713.5,-129"/>
<text text-anchor="middle" x="752" y="-136" font-family="Helvetica,sans-Serif" font-size="10.00">Eigen/Dense</text>
</a>
</g>
</g>
<!-- Node19&#45;&gt;Node20 -->
<g id="edge22" class="edge">
<title>Node19&#45;&gt;Node20</title>
<path fill="none" stroke="midnightblue" d="M638.29,-324.43C647.76,-306.65 662.36,-279.8 676,-257 697.72,-220.7 725.05,-179.42 740.32,-156.73"/>
<polygon fill="midnightblue" stroke="midnightblue" points="743.37,-158.46 746.07,-148.21 737.57,-154.54 743.37,-158.46"/>
</g>
<!-- Node21 -->
<g id="node21" class="node">
<title>Node21</title>
<g id="a_node21"><a xlink:title=" ">
<polygon fill="none" stroke="#bfbfbf" points="685,-263 685,-282 723,-282 723,-263 685,-263"/>
<text text-anchor="middle" x="704" y="-270" font-family="Helvetica,sans-Serif" font-size="10.00">map</text>
</a>
</g>
</g>
<!-- Node19&#45;&gt;Node21 -->
<g id="edge23" class="edge">
<title>Node19&#45;&gt;Node21</title>
<path fill="none" stroke="midnightblue" d="M649.17,-324.36C661.19,-313.21 676.02,-299.46 687.22,-289.06"/>
<polygon fill="midnightblue" stroke="midnightblue" points="689.7,-291.54 694.65,-282.17 684.94,-286.41 689.7,-291.54"/>
</g>
<!-- Node22&#45;&gt;Node20 -->
<g id="edge25" class="edge">
<title>Node22&#45;&gt;Node20</title>
<path fill="none" stroke="midnightblue" d="M824.44,-329.98C805.25,-320.97 783.52,-307.29 771,-288 744.89,-247.77 746.55,-188.39 749.51,-158.36"/>
<polygon fill="midnightblue" stroke="midnightblue" points="753.03,-158.41 750.7,-148.07 746.07,-157.6 753.03,-158.41"/>
</g>
<!-- Node22&#45;&gt;Node21 -->
<g id="edge34" class="edge">
<title>Node22&#45;&gt;Node21</title>
<path fill="none" stroke="midnightblue" d="M831.21,-329.9C802.35,-317.11 760.18,-298.41 732.42,-286.1"/>
<polygon fill="midnightblue" stroke="midnightblue" points="733.81,-282.89 723.25,-282.03 730.97,-289.29 733.81,-282.89"/>
</g>
<!-- Node23 -->
<g id="node23" class="node">
<title>Node23</title>
<g id="a_node23"><a xlink:title=" ">
<polygon fill="none" stroke="#bfbfbf" points="1054.5,-263 1054.5,-282 1139.5,-282 1139.5,-263 1054.5,-263"/>
<text text-anchor="middle" x="1097" y="-270" font-family="Helvetica,sans-Serif" font-size="10.00">manif/manif.h</text>
</a>
</g>
</g>
<!-- Node22&#45;&gt;Node23 -->
<g id="edge26" class="edge">
<title>Node22&#45;&gt;Node23</title>
<path fill="none" stroke="midnightblue" d="M909.51,-329.99C953.35,-316.78 1018.23,-297.23 1059.03,-284.94"/>
<polygon fill="midnightblue" stroke="midnightblue" points="1060.04,-288.29 1068.6,-282.05 1058.02,-281.59 1060.04,-288.29"/>
</g>
<!-- Node24 -->
<g id="node24" class="node">
<title>Node24</title>
<g id="a_node24"><a xlink:href="Contact_8h.html" target="_top" xlink:title=" ">
<polygon fill="none" stroke="black" points="780,-257.5 780,-287.5 936,-287.5 936,-257.5 780,-257.5"/>
<text text-anchor="start" x="788" y="-275.5" font-family="Helvetica,sans-Serif" font-size="10.00">BipedalLocomotion/Contacts</text>
<text text-anchor="middle" x="858" y="-264.5" font-family="Helvetica,sans-Serif" font-size="10.00">/Contact.h</text>
</a>
</g>
</g>
<!-- Node22&#45;&gt;Node24 -->
<g id="edge27" class="edge">
<title>Node22&#45;&gt;Node24</title>
<path fill="none" stroke="midnightblue" d="M861.99,-329.73C861.34,-320.56 860.48,-308.41 859.72,-297.74"/>
<polygon fill="midnightblue" stroke="midnightblue" points="863.21,-297.47 859.01,-287.75 856.23,-297.97 863.21,-297.47"/>
</g>
<!-- Node24&#45;&gt;Node8 -->
<g id="edge33" class="edge">
<title>Node24&#45;&gt;Node8</title>
<path fill="none" stroke="midnightblue" d="M832.1,-257.37C785.2,-231.79 686.81,-178.12 640.76,-153"/>
<polygon fill="midnightblue" stroke="midnightblue" points="642.22,-149.81 631.76,-148.1 638.86,-155.96 642.22,-149.81"/>
</g>
<!-- Node25 -->
<g id="node25" class="node">
<title>Node25</title>
<g id="a_node25"><a xlink:href="Wrench_8h.html" target="_top" xlink:title=" ">
<polygon fill="none" stroke="black" points="780,-190.5 780,-220.5 918,-220.5 918,-190.5 780,-190.5"/>
<text text-anchor="start" x="788" y="-208.5" font-family="Helvetica,sans-Serif" font-size="10.00">BipedalLocomotion/Math</text>
<text text-anchor="middle" x="849" y="-197.5" font-family="Helvetica,sans-Serif" font-size="10.00">/Wrench.h</text>
</a>
</g>
</g>
<!-- Node24&#45;&gt;Node25 -->
<g id="edge28" class="edge">
<title>Node24&#45;&gt;Node25</title>
<path fill="none" stroke="midnightblue" d="M856.05,-257.4C854.96,-249.56 853.58,-239.6 852.33,-230.57"/>
<polygon fill="midnightblue" stroke="midnightblue" points="855.79,-230 850.95,-220.58 848.85,-230.96 855.79,-230"/>
</g>
<!-- Node26 -->
<g id="node26" class="node">
<title>Node26</title>
<g id="a_node26"><a xlink:title=" ">
<polygon fill="none" stroke="#bfbfbf" points="907.5,-129 907.5,-148 982.5,-148 982.5,-129 907.5,-129"/>
<text text-anchor="middle" x="945" y="-136" font-family="Helvetica,sans-Serif" font-size="10.00">manif/SE3.h</text>
</a>
</g>
</g>
<!-- Node24&#45;&gt;Node26 -->
<g id="edge32" class="edge">
<title>Node24&#45;&gt;Node26</title>
<path fill="none" stroke="midnightblue" d="M886.09,-257.36C900.44,-248.75 916.94,-236.42 927,-221 939.41,-201.99 943.37,-175.72 944.58,-158.2"/>
<polygon fill="midnightblue" stroke="midnightblue" points="948.08,-158.26 945.03,-148.11 941.08,-157.94 948.08,-158.26"/>
</g>
<!-- Node25&#45;&gt;Node20 -->
<g id="edge29" class="edge">
<title>Node25&#45;&gt;Node20</title>
<path fill="none" stroke="midnightblue" d="M827.95,-190.4C811.69,-179.5 789.28,-164.48 773.02,-153.58"/>
<polygon fill="midnightblue" stroke="midnightblue" points="774.95,-150.67 764.7,-148.01 771.05,-156.48 774.95,-150.67"/>
</g>
<!-- Node25&#45;&gt;Node26 -->
<g id="edge30" class="edge">
<title>Node25&#45;&gt;Node26</title>
<path fill="none" stroke="midnightblue" d="M869.83,-190.4C885.78,-179.6 907.7,-164.76 923.75,-153.89"/>
<polygon fill="midnightblue" stroke="midnightblue" points="926.12,-156.51 932.44,-148.01 922.19,-150.72 926.12,-156.51"/>
</g>
<!-- Node27 -->
<g id="node27" class="node">
<title>Node27</title>
<g id="a_node27"><a xlink:title=" ">
<polygon fill="none" stroke="#bfbfbf" points="810.5,-129 810.5,-148 887.5,-148 887.5,-129 810.5,-129"/>
<text text-anchor="middle" x="849" y="-136" font-family="Helvetica,sans-Serif" font-size="10.00">manif/SO3.h</text>
</a>
</g>
</g>
<!-- Node25&#45;&gt;Node27 -->
<g id="edge31" class="edge">
<title>Node25&#45;&gt;Node27</title>
<path fill="none" stroke="midnightblue" d="M849,-190.4C849,-181.06 849,-168.71 849,-158.52"/>
<polygon fill="midnightblue" stroke="midnightblue" points="852.5,-158.19 849,-148.19 845.5,-158.19 852.5,-158.19"/>
</g>
<!-- Node29&#45;&gt;Node23 -->
<g id="edge41" class="edge">
<title>Node29&#45;&gt;Node23</title>
<path fill="none" stroke="midnightblue" d="M1288.48,-402.4C1266.06,-393.83 1238.76,-381.53 1217,-366 1196.26,-351.21 1197.65,-340.21 1178,-324 1160.69,-309.72 1139.03,-296.41 1122.46,-287.05"/>
<polygon fill="midnightblue" stroke="midnightblue" points="1123.81,-283.8 1113.37,-282.01 1120.42,-289.92 1123.81,-283.8"/>
</g>
<!-- Node30 -->
<g id="node30" class="node">
<title>Node30</title>
<g id="a_node30"><a xlink:title=" ">
<polygon fill="none" stroke="#bfbfbf" points="1226,-335.5 1226,-354.5 1372,-354.5 1372,-335.5 1226,-335.5"/>
<text text-anchor="middle" x="1299" y="-342.5" font-family="Helvetica,sans-Serif" font-size="10.00">iDynTree/Core/Transform.h</text>
</a>
</g>
</g>
<!-- Node29&#45;&gt;Node30 -->
<g id="edge39" class="edge">
<title>Node29&#45;&gt;Node30</title>
<path fill="none" stroke="midnightblue" d="M1324.52,-402.23C1319.55,-391.28 1312.65,-376.07 1307.28,-364.24"/>
<polygon fill="midnightblue" stroke="midnightblue" points="1310.36,-362.55 1303.04,-354.89 1303.98,-365.45 1310.36,-362.55"/>
</g>
<!-- Node31 -->
<g id="node31" class="node">
<title>Node31</title>
<g id="a_node31"><a xlink:title=" ">
<polygon fill="none" stroke="#bfbfbf" points="1390.5,-335.5 1390.5,-354.5 1551.5,-354.5 1551.5,-335.5 1390.5,-335.5"/>
<text text-anchor="middle" x="1471" y="-342.5" font-family="Helvetica,sans-Serif" font-size="10.00">iDynTree/Core/EigenHelpers.h</text>
</a>
</g>
</g>
<!-- Node29&#45;&gt;Node31 -->
<g id="edge40" class="edge">
<title>Node29&#45;&gt;Node31</title>
<path fill="none" stroke="midnightblue" d="M1358.99,-402.4C1384.07,-389.77 1420.57,-371.4 1445.01,-359.09"/>
<polygon fill="midnightblue" stroke="midnightblue" points="1446.7,-362.16 1454.05,-354.53 1443.55,-355.91 1446.7,-362.16"/>
</g>
<!-- Node33 -->
<g id="node33" class="node">
<title>Node33</title>
<g id="a_node33"><a xlink:title=" ">
<polygon fill="none" stroke="#bfbfbf" points="1569.5,-335.5 1569.5,-354.5 1668.5,-354.5 1668.5,-335.5 1569.5,-335.5"/>
<text text-anchor="middle" x="1619" y="-342.5" font-family="Helvetica,sans-Serif" font-size="10.00">spdlog/fmt/ostr.h</text>
</a>
</g>
</g>
<!-- Node32&#45;&gt;Node33 -->
<g id="edge43" class="edge">
<title>Node32&#45;&gt;Node33</title>
<path fill="none" stroke="midnightblue" d="M1592.68,-402.23C1597.81,-391.28 1604.92,-376.07 1610.46,-364.24"/>
<polygon fill="midnightblue" stroke="midnightblue" points="1613.77,-365.43 1614.84,-354.89 1607.43,-362.47 1613.77,-365.43"/>
</g>
<!-- Node34 -->
<g id="node34" class="node">
<title>Node34</title>
<g id="a_node34"><a xlink:title=" ">
<polygon fill="none" stroke="#bfbfbf" points="1686.5,-335.5 1686.5,-354.5 1779.5,-354.5 1779.5,-335.5 1686.5,-335.5"/>
<text text-anchor="middle" x="1733" y="-342.5" font-family="Helvetica,sans-Serif" font-size="10.00">spdlog/spdlog.h</text>
</a>
</g>
</g>
<!-- Node32&#45;&gt;Node34 -->
<g id="edge44" class="edge">
<title>Node32&#45;&gt;Node34</title>
<path fill="none" stroke="midnightblue" d="M1615.39,-402.4C1641.84,-389.72 1680.38,-371.23 1706.05,-358.92"/>
<polygon fill="midnightblue" stroke="midnightblue" points="1707.7,-362.01 1715.21,-354.53 1704.68,-355.7 1707.7,-362.01"/>
</g>
</g>
</svg>
