<?xml version="1.0" encoding="UTF-8" standalone="no"?>
<!DOCTYPE svg PUBLIC "-//W3C//DTD SVG 1.1//EN"
 "http://www.w3.org/Graphics/SVG/1.1/DTD/svg11.dtd">
<!-- Generated by graphviz version 2.43.0 (0)
 -->
<!-- Title: ContinuousDynamicalSystem/include/BipedalLocomotion/ContinuousDynamicalSystem/ForwardEuler.h Pages: 1 -->
<!--zoomable 519 -->
<svg id="main" version="1.1" xmlns="http://www.w3.org/2000/svg" xmlns:xlink="http://www.w3.org/1999/xlink" xml:space="preserve" onload="init(evt)">
<style type="text/css"><![CDATA[
.edge:hover path { stroke: red; }
.edge:hover polygon { stroke: red; fill: red; }
]]></style>
<script type="text/javascript"><![CDATA[
var edges = document.getElementsByTagName('g');
if (edges && edges.length) {
  for (var i=0;i<edges.length;i++) {
    if (edges[i].id.substr(0,4)=='edge') {
      edges[i].setAttribute('class','edge');
    }
  }
}
]]></script>
        <defs>
                <circle id="rim" cx="0" cy="0" r="7"/>
                <circle id="rim2" cx="0" cy="0" r="3.5"/>
                <g id="zoomPlus">
                        <use xlink:href="#rim" fill="#404040">
                                <set attributeName="fill" to="#808080" begin="zoomplus.mouseover" end="zoomplus.mouseout"/>
                        </use>
                        <path d="M-4,0h8M0,-4v8" fill="none" stroke="white" stroke-width="1.5" pointer-events="none"/>
                </g>
                <g id="zoomMin">
                        <use xlink:href="#rim" fill="#404040">
                                <set attributeName="fill" to="#808080" begin="zoomminus.mouseover" end="zoomminus.mouseout"/>
                        </use>
                        <path d="M-4,0h8" fill="none" stroke="white" stroke-width="1.5" pointer-events="none"/>
                </g>
                <g id="dirArrow">
                        <path fill="none" stroke="white" stroke-width="1.5" d="M0,-3.0v7 M-2.5,-0.5L0,-3.0L2.5,-0.5"/>
                </g>
               <g id="resetDef">
                       <use xlink:href="#rim2" fill="#404040">
                               <set attributeName="fill" to="#808080" begin="reset.mouseover" end="reset.mouseout"/>
                       </use>
               </g>
        </defs>

<script type="text/javascript">
var viewWidth = 849;
var viewHeight = 519;
var sectionId = 'dynsection-0';
</script>
<script xlink:href="svgpan.js"/>
<svg id="graph" class="graph">
<g id="viewport">
<title>ContinuousDynamicalSystem/include/BipedalLocomotion/ContinuousDynamicalSystem/ForwardEuler.h</title>
<!-- Node1 -->
<g id="node1" class="node">
<title>Node1</title>
<g id="a_node1"><a xlink:title=" ">
<polygon fill="#bfbfbf" stroke="black" points="230,-458.5 230,-510.5 394,-510.5 394,-458.5 230,-458.5"/>
<text text-anchor="start" x="238" y="-498.5" font-family="Helvetica,sans-Serif" font-size="10.00">ContinuousDynamicalSystem</text>
<text text-anchor="start" x="238" y="-487.5" font-family="Helvetica,sans-Serif" font-size="10.00">/include/BipedalLocomotion</text>
<text text-anchor="start" x="238" y="-476.5" font-family="Helvetica,sans-Serif" font-size="10.00">/ContinuousDynamicalSystem</text>
<text text-anchor="middle" x="312" y="-465.5" font-family="Helvetica,sans-Serif" font-size="10.00">/ForwardEuler.h</text>
</a>
</g>
</g>
<!-- Node2 -->
<g id="node2" class="node">
<title>Node2</title>
<g id="a_node2"><a xlink:title=" ">
<polygon fill="none" stroke="#bfbfbf" points="733.5,-129 733.5,-148 774.5,-148 774.5,-129 733.5,-129"/>
<text text-anchor="middle" x="754" y="-136" font-family="Helvetica,sans-Serif" font-size="10.00">tuple</text>
</a>
</g>
</g>
<!-- Node1&#45;&gt;Node2 -->
<g id="edge1" class="edge">
<title>Node1&#45;&gt;Node2</title>
<path fill="none" stroke="midnightblue" d="M394.08,-478.33C542.66,-466.69 841,-431.95 841,-340.5 841,-340.5 841,-340.5 841,-271.5 841,-222.22 798.2,-177.13 772.64,-154.59"/>
<polygon fill="midnightblue" stroke="midnightblue" points="774.9,-151.92 765.02,-148.09 770.35,-157.25 774.9,-151.92"/>
</g>
<!-- Node3 -->
<g id="node3" class="node">
<title>Node3</title>
<g id="a_node3"><a xlink:title=" ">
<polygon fill="none" stroke="#bfbfbf" points="55.5,-0.5 55.5,-19.5 124.5,-19.5 124.5,-0.5 55.5,-0.5"/>
<text text-anchor="middle" x="90" y="-7.5" font-family="Helvetica,sans-Serif" font-size="10.00">type_traits</text>
</a>
</g>
</g>
<!-- Node1&#45;&gt;Node3 -->
<g id="edge2" class="edge">
<title>Node1&#45;&gt;Node3</title>
<path fill="none" stroke="midnightblue" d="M229.62,-480.18C137.18,-471.53 0,-441.65 0,-340.5 0,-340.5 0,-340.5 0,-137.5 0,-89.59 43.39,-47.22 69.92,-25.8"/>
<polygon fill="midnightblue" stroke="midnightblue" points="72.13,-28.51 77.86,-19.6 67.83,-22.99 72.13,-28.51"/>
</g>
<!-- Node4 -->
<g id="node4" class="node">
<title>Node4</title>
<g id="a_node4"><a xlink:title=" ">
<polygon fill="none" stroke="#bfbfbf" points="334.5,-397 334.5,-416 495.5,-416 495.5,-397 334.5,-397"/>
<text text-anchor="middle" x="415" y="-404" font-family="Helvetica,sans-Serif" font-size="10.00">iDynTree/Core/EigenHelpers.h</text>
</a>
</g>
</g>
<!-- Node1&#45;&gt;Node4 -->
<g id="edge3" class="edge">
<title>Node1&#45;&gt;Node4</title>
<path fill="none" stroke="midnightblue" d="M346.01,-458.4C362.16,-446.49 380.92,-432.65 394.79,-422.41"/>
<polygon fill="midnightblue" stroke="midnightblue" points="397.16,-425.01 403.13,-416.26 393,-419.38 397.16,-425.01"/>
</g>
<!-- Node5 -->
<g id="node5" class="node">
<title>Node5</title>
<g id="a_node5"><a xlink:href="FixedStepIntegrator_8h.html" target="_top" xlink:title=" ">
<polygon fill="none" stroke="black" points="104,-391.5 104,-421.5 316,-421.5 316,-391.5 104,-391.5"/>
<text text-anchor="start" x="112" y="-409.5" font-family="Helvetica,sans-Serif" font-size="10.00">BipedalLocomotion/Continuous</text>
<text text-anchor="middle" x="210" y="-398.5" font-family="Helvetica,sans-Serif" font-size="10.00">DynamicalSystem/FixedStepIntegrator.h</text>
</a>
</g>
</g>
<!-- Node1&#45;&gt;Node5 -->
<g id="edge4" class="edge">
<title>Node1&#45;&gt;Node5</title>
<path fill="none" stroke="midnightblue" d="M278.32,-458.4C265.02,-448.5 249.95,-437.26 237.34,-427.87"/>
<polygon fill="midnightblue" stroke="midnightblue" points="239.18,-424.87 229.07,-421.71 234.99,-430.49 239.18,-424.87"/>
</g>
<!-- Node6 -->
<g id="node6" class="node">
<title>Node6</title>
<g id="a_node6"><a xlink:title=" ">
<polygon fill="none" stroke="#bfbfbf" points="134.5,-330 134.5,-349 181.5,-349 181.5,-330 134.5,-330"/>
<text text-anchor="middle" x="158" y="-337" font-family="Helvetica,sans-Serif" font-size="10.00">cmath</text>
</a>
</g>
</g>
<!-- Node5&#45;&gt;Node6 -->
<g id="edge5" class="edge">
<title>Node5&#45;&gt;Node6</title>
<path fill="none" stroke="midnightblue" d="M198.72,-391.4C190.69,-381.36 179.87,-367.84 171.4,-357.25"/>
<polygon fill="midnightblue" stroke="midnightblue" points="173.94,-354.82 164.96,-349.19 168.47,-359.19 173.94,-354.82"/>
</g>
<!-- Node7 -->
<g id="node7" class="node">
<title>Node7</title>
<g id="a_node7"><a xlink:href="Integrator_8h.html" target="_top" xlink:title=" ">
<polygon fill="none" stroke="black" points="295,-324.5 295,-354.5 463,-354.5 463,-324.5 295,-324.5"/>
<text text-anchor="start" x="303" y="-342.5" font-family="Helvetica,sans-Serif" font-size="10.00">BipedalLocomotion/Continuous</text>
<text text-anchor="middle" x="379" y="-331.5" font-family="Helvetica,sans-Serif" font-size="10.00">DynamicalSystem/Integrator.h</text>
</a>
</g>
</g>
<!-- Node5&#45;&gt;Node7 -->
<g id="edge6" class="edge">
<title>Node5&#45;&gt;Node7</title>
<path fill="none" stroke="midnightblue" d="M246.67,-391.4C271.92,-381.69 305.66,-368.71 332.75,-358.29"/>
<polygon fill="midnightblue" stroke="midnightblue" points="334.32,-361.43 342.4,-354.58 331.81,-354.9 334.32,-361.43"/>
</g>
<!-- Node22 -->
<g id="node22" class="node">
<title>Node22</title>
<g id="a_node22"><a xlink:href="Logger_8h.html" target="_top" xlink:title=" ">
<polygon fill="none" stroke="black" points="67,-257.5 67,-287.5 239,-287.5 239,-257.5 67,-257.5"/>
<text text-anchor="start" x="75" y="-275.5" font-family="Helvetica,sans-Serif" font-size="10.00">BipedalLocomotion/TextLogging</text>
<text text-anchor="middle" x="153" y="-264.5" font-family="Helvetica,sans-Serif" font-size="10.00">/Logger.h</text>
</a>
</g>
</g>
<!-- Node5&#45;&gt;Node22 -->
<g id="edge35" class="edge">
<title>Node5&#45;&gt;Node22</title>
<path fill="none" stroke="midnightblue" d="M208.25,-391.39C205.79,-374.68 200.41,-346.31 190,-324 185.31,-313.95 178.49,-303.9 171.97,-295.43"/>
<polygon fill="midnightblue" stroke="midnightblue" points="174.64,-293.16 165.65,-287.56 169.18,-297.54 174.64,-293.16"/>
</g>
<!-- Node8 -->
<g id="node8" class="node">
<title>Node8</title>
<g id="a_node8"><a xlink:title=" ">
<polygon fill="none" stroke="#bfbfbf" points="722,-62 722,-81 780,-81 780,-62 722,-62"/>
<text text-anchor="middle" x="751" y="-69" font-family="Helvetica,sans-Serif" font-size="10.00">memory</text>
</a>
</g>
</g>
<!-- Node7&#45;&gt;Node8 -->
<g id="edge7" class="edge">
<title>Node7&#45;&gt;Node8</title>
<path fill="none" stroke="midnightblue" d="M463.22,-331.49C521.72,-324.77 600.76,-311.94 667,-288 723.35,-267.63 753.95,-272.84 784,-221 805.84,-183.32 796.43,-164.74 784,-123 780.29,-110.52 772.4,-98.26 765.27,-88.94"/>
<polygon fill="midnightblue" stroke="midnightblue" points="767.84,-86.56 758.82,-81 762.41,-90.97 767.84,-86.56"/>
</g>
<!-- Node9 -->
<g id="node9" class="node">
<title>Node9</title>
<g id="a_node9"><a xlink:href="DynamicalSystem_8h.html" target="_top" xlink:title=" ">
<polygon fill="none" stroke="black" points="422.5,-257.5 422.5,-287.5 629.5,-287.5 629.5,-257.5 422.5,-257.5"/>
<text text-anchor="start" x="430.5" y="-275.5" font-family="Helvetica,sans-Serif" font-size="10.00">BipedalLocomotion/Continuous</text>
<text text-anchor="middle" x="526" y="-264.5" font-family="Helvetica,sans-Serif" font-size="10.00">DynamicalSystem/DynamicalSystem.h</text>
</a>
</g>
</g>
<!-- Node7&#45;&gt;Node9 -->
<g id="edge8" class="edge">
<title>Node7&#45;&gt;Node9</title>
<path fill="none" stroke="midnightblue" d="M410.9,-324.4C432.57,-314.81 461.43,-302.05 484.84,-291.7"/>
<polygon fill="midnightblue" stroke="midnightblue" points="486.44,-294.82 494.17,-287.58 483.6,-288.42 486.44,-294.82"/>
</g>
<!-- Node10 -->
<g id="node10" class="node">
<title>Node10</title>
<g id="a_node10"><a xlink:href="traits_8h.html" target="_top" xlink:title=" ">
<polygon fill="none" stroke="black" points="607,-190.5 607,-220.5 775,-220.5 775,-190.5 607,-190.5"/>
<text text-anchor="start" x="615" y="-208.5" font-family="Helvetica,sans-Serif" font-size="10.00">BipedalLocomotion/Continuous</text>
<text text-anchor="middle" x="691" y="-197.5" font-family="Helvetica,sans-Serif" font-size="10.00">DynamicalSystem/impl/traits.h</text>
</a>
</g>
</g>
<!-- Node7&#45;&gt;Node10 -->
<g id="edge29" class="edge">
<title>Node7&#45;&gt;Node10</title>
<path fill="none" stroke="midnightblue" d="M463.1,-329.42C527.8,-321.12 610.77,-307.2 639,-288 659.7,-273.92 673.94,-248.57 682.21,-229.87"/>
<polygon fill="midnightblue" stroke="midnightblue" points="685.48,-231.11 686.1,-220.53 679.02,-228.42 685.48,-231.11"/>
</g>
<!-- Node11 -->
<g id="node11" class="node">
<title>Node11</title>
<g id="a_node11"><a xlink:href="TemplateHelpers_8h_source.html" target="_top" xlink:title=" ">
<polygon fill="none" stroke="black" points="176,-56.5 176,-86.5 334,-86.5 334,-56.5 176,-56.5"/>
<text text-anchor="start" x="184" y="-74.5" font-family="Helvetica,sans-Serif" font-size="10.00">BipedalLocomotion/Generic</text>
<text text-anchor="middle" x="255" y="-63.5" font-family="Helvetica,sans-Serif" font-size="10.00">Container/TemplateHelpers.h</text>
</a>
</g>
</g>
<!-- Node7&#45;&gt;Node11 -->
<g id="edge30" class="edge">
<title>Node7&#45;&gt;Node11</title>
<path fill="none" stroke="midnightblue" d="M364.18,-324.45C343.34,-303.82 305.74,-263.18 286,-221 266.81,-180 259.42,-127.11 256.63,-96.78"/>
<polygon fill="midnightblue" stroke="midnightblue" points="260.1,-96.37 255.79,-86.69 253.13,-96.94 260.1,-96.37"/>
</g>
<!-- Node14 -->
<g id="node14" class="node">
<title>Node14</title>
<g id="a_node14"><a xlink:href="IParametersHandler_8h.html" target="_top" xlink:title=" ">
<polygon fill="none" stroke="black" points="294.5,-190.5 294.5,-220.5 463.5,-220.5 463.5,-190.5 294.5,-190.5"/>
<text text-anchor="start" x="302.5" y="-208.5" font-family="Helvetica,sans-Serif" font-size="10.00">BipedalLocomotion/Parameters</text>
<text text-anchor="middle" x="379" y="-197.5" font-family="Helvetica,sans-Serif" font-size="10.00">Handler/IParametersHandler.h</text>
</a>
</g>
</g>
<!-- Node7&#45;&gt;Node14 -->
<g id="edge31" class="edge">
<title>Node7&#45;&gt;Node14</title>
<path fill="none" stroke="midnightblue" d="M379,-324.37C379,-302.04 379,-258.31 379,-230.85"/>
<polygon fill="midnightblue" stroke="midnightblue" points="382.5,-230.52 379,-220.52 375.5,-230.52 382.5,-230.52"/>
</g>
<!-- Node7&#45;&gt;Node22 -->
<g id="edge32" class="edge">
<title>Node7&#45;&gt;Node22</title>
<path fill="none" stroke="midnightblue" d="M330.24,-324.48C295.46,-314.47 248.52,-300.97 211.68,-290.38"/>
<polygon fill="midnightblue" stroke="midnightblue" points="212.64,-287.01 202.06,-287.61 210.71,-293.74 212.64,-287.01"/>
</g>
<!-- Node9&#45;&gt;Node2 -->
<g id="edge10" class="edge">
<title>Node9&#45;&gt;Node2</title>
<path fill="none" stroke="midnightblue" d="M534.91,-257.21C547,-238.98 570.31,-207.68 598,-190 645.29,-159.81 666.12,-172.76 719,-154 720.86,-153.34 722.76,-152.64 724.68,-151.91"/>
<polygon fill="midnightblue" stroke="midnightblue" points="726.15,-155.09 734.15,-148.14 723.56,-148.58 726.15,-155.09"/>
</g>
<!-- Node9&#45;&gt;Node8 -->
<g id="edge9" class="edge">
<title>Node9&#45;&gt;Node8</title>
<path fill="none" stroke="midnightblue" d="M528.12,-257.26C531.59,-239.08 540.16,-207.84 560,-190 601.72,-152.48 633.92,-184.52 681,-154 706.86,-137.24 728.49,-108.17 740.59,-89.66"/>
<polygon fill="midnightblue" stroke="midnightblue" points="743.64,-91.39 746.01,-81.06 737.72,-87.65 743.64,-91.39"/>
</g>
<!-- Node9&#45;&gt;Node10 -->
<g id="edge11" class="edge">
<title>Node9&#45;&gt;Node10</title>
<path fill="none" stroke="midnightblue" d="M561.8,-257.4C586.45,-247.69 619.39,-234.71 645.84,-224.29"/>
<polygon fill="midnightblue" stroke="midnightblue" points="647.25,-227.5 655.27,-220.58 644.68,-220.99 647.25,-227.5"/>
</g>
<!-- Node9&#45;&gt;Node11 -->
<g id="edge13" class="edge">
<title>Node9&#45;&gt;Node11</title>
<path fill="none" stroke="midnightblue" d="M521.81,-257.18C512.36,-227.44 486.5,-158.81 440,-123 423.58,-110.35 379.36,-98.06 338.28,-88.77"/>
<polygon fill="midnightblue" stroke="midnightblue" points="338.99,-85.35 328.47,-86.6 337.48,-92.18 338.99,-85.35"/>
</g>
<!-- Node9&#45;&gt;Node14 -->
<g id="edge17" class="edge">
<title>Node9&#45;&gt;Node14</title>
<path fill="none" stroke="midnightblue" d="M494.1,-257.4C472.43,-247.81 443.57,-235.05 420.16,-224.7"/>
<polygon fill="midnightblue" stroke="midnightblue" points="421.4,-221.42 410.83,-220.58 418.56,-227.82 421.4,-221.42"/>
</g>
<!-- Node10&#45;&gt;Node2 -->
<g id="edge12" class="edge">
<title>Node10&#45;&gt;Node2</title>
<path fill="none" stroke="midnightblue" d="M704.67,-190.4C714.59,-180.16 728.03,-166.3 738.37,-155.62"/>
<polygon fill="midnightblue" stroke="midnightblue" points="741.13,-157.81 745.57,-148.19 736.1,-152.94 741.13,-157.81"/>
</g>
<!-- Node11&#45;&gt;Node3 -->
<g id="edge14" class="edge">
<title>Node11&#45;&gt;Node3</title>
<path fill="none" stroke="midnightblue" d="M215.9,-56.4C187.84,-46.28 150.43,-32.79 123.69,-23.15"/>
<polygon fill="midnightblue" stroke="midnightblue" points="124.6,-19.76 114.01,-19.66 122.23,-26.34 124.6,-19.76"/>
</g>
<!-- Node12 -->
<g id="node12" class="node">
<title>Node12</title>
<g id="a_node12"><a xlink:title=" ">
<polygon fill="none" stroke="#bfbfbf" points="262.5,-0.5 262.5,-19.5 335.5,-19.5 335.5,-0.5 262.5,-0.5"/>
<text text-anchor="middle" x="299" y="-7.5" font-family="Helvetica,sans-Serif" font-size="10.00">string_view</text>
</a>
</g>
</g>
<!-- Node11&#45;&gt;Node12 -->
<g id="edge15" class="edge">
<title>Node11&#45;&gt;Node12</title>
<path fill="none" stroke="midnightblue" d="M265.43,-56.4C271.76,-47.84 279.87,-36.87 286.53,-27.86"/>
<polygon fill="midnightblue" stroke="midnightblue" points="289.47,-29.78 292.6,-19.66 283.84,-25.62 289.47,-29.78"/>
</g>
<!-- Node13 -->
<g id="node13" class="node">
<title>Node13</title>
<g id="a_node13"><a xlink:title=" ">
<polygon fill="none" stroke="#bfbfbf" points="175.5,-0.5 175.5,-19.5 244.5,-19.5 244.5,-0.5 175.5,-0.5"/>
<text text-anchor="middle" x="210" y="-7.5" font-family="Helvetica,sans-Serif" font-size="10.00">Eigen/Core</text>
</a>
</g>
</g>
<!-- Node11&#45;&gt;Node13 -->
<g id="edge16" class="edge">
<title>Node11&#45;&gt;Node13</title>
<path fill="none" stroke="midnightblue" d="M244.34,-56.4C237.86,-47.84 229.57,-36.87 222.75,-27.86"/>
<polygon fill="midnightblue" stroke="midnightblue" points="225.37,-25.52 216.55,-19.66 219.79,-29.74 225.37,-25.52"/>
</g>
<!-- Node14&#45;&gt;Node8 -->
<g id="edge18" class="edge">
<title>Node14&#45;&gt;Node8</title>
<path fill="none" stroke="midnightblue" d="M463.66,-199.11C518.28,-193.14 589.73,-180.55 648,-154 657.46,-149.69 705.66,-110.2 732.64,-87.81"/>
<polygon fill="midnightblue" stroke="midnightblue" points="735.13,-90.3 740.58,-81.21 730.66,-84.91 735.13,-90.3"/>
</g>
<!-- Node14&#45;&gt;Node11 -->
<g id="edge21" class="edge">
<title>Node14&#45;&gt;Node11</title>
<path fill="none" stroke="midnightblue" d="M356.78,-190.38C343.01,-181.03 325.45,-167.94 312,-154 294.8,-136.18 278.98,-112.74 268.39,-95.58"/>
<polygon fill="midnightblue" stroke="midnightblue" points="271.24,-93.52 263.08,-86.76 265.24,-97.13 271.24,-93.52"/>
</g>
<!-- Node15 -->
<g id="node15" class="node">
<title>Node15</title>
<g id="a_node15"><a xlink:title=" ">
<polygon fill="none" stroke="#bfbfbf" points="321,-129 321,-148 365,-148 365,-129 321,-129"/>
<text text-anchor="middle" x="343" y="-136" font-family="Helvetica,sans-Serif" font-size="10.00">string</text>
</a>
</g>
</g>
<!-- Node14&#45;&gt;Node15 -->
<g id="edge19" class="edge">
<title>Node14&#45;&gt;Node15</title>
<path fill="none" stroke="midnightblue" d="M371.19,-190.4C365.8,-180.66 358.59,-167.65 352.81,-157.21"/>
<polygon fill="midnightblue" stroke="midnightblue" points="355.72,-155.25 347.82,-148.19 349.6,-158.64 355.72,-155.25"/>
</g>
<!-- Node16 -->
<g id="node16" class="node">
<title>Node16</title>
<g id="a_node16"><a xlink:title=" ">
<polygon fill="none" stroke="#bfbfbf" points="383.5,-129 383.5,-148 430.5,-148 430.5,-129 383.5,-129"/>
<text text-anchor="middle" x="407" y="-136" font-family="Helvetica,sans-Serif" font-size="10.00">vector</text>
</a>
</g>
</g>
<!-- Node14&#45;&gt;Node16 -->
<g id="edge20" class="edge">
<title>Node14&#45;&gt;Node16</title>
<path fill="none" stroke="midnightblue" d="M385.08,-190.4C389.23,-180.76 394.76,-167.91 399.23,-157.54"/>
<polygon fill="midnightblue" stroke="midnightblue" points="402.51,-158.76 403.25,-148.19 396.08,-155.99 402.51,-158.76"/>
</g>
<!-- Node17 -->
<g id="node17" class="node">
<title>Node17</title>
<g id="a_node17"><a xlink:href="Vector_8h_source.html" target="_top" xlink:title=" ">
<polygon fill="none" stroke="black" points="487.5,-123.5 487.5,-153.5 638.5,-153.5 638.5,-123.5 487.5,-123.5"/>
<text text-anchor="start" x="495.5" y="-141.5" font-family="Helvetica,sans-Serif" font-size="10.00">BipedalLocomotion/Generic</text>
<text text-anchor="middle" x="563" y="-130.5" font-family="Helvetica,sans-Serif" font-size="10.00">Container/Vector.h</text>
</a>
</g>
</g>
<!-- Node14&#45;&gt;Node17 -->
<g id="edge22" class="edge">
<title>Node14&#45;&gt;Node17</title>
<path fill="none" stroke="midnightblue" d="M418.93,-190.4C446.65,-180.6 483.79,-167.48 513.42,-157.02"/>
<polygon fill="midnightblue" stroke="midnightblue" points="514.89,-160.21 523.15,-153.58 512.56,-153.61 514.89,-160.21"/>
</g>
<!-- Node17&#45;&gt;Node8 -->
<g id="edge28" class="edge">
<title>Node17&#45;&gt;Node8</title>
<path fill="none" stroke="midnightblue" d="M606.15,-123.48C636.21,-113.58 677.18,-99.86 713,-87 715.11,-86.24 717.27,-85.45 719.45,-84.65"/>
<polygon fill="midnightblue" stroke="midnightblue" points="720.82,-87.87 728.95,-81.08 718.36,-81.32 720.82,-87.87"/>
</g>
<!-- Node17&#45;&gt;Node11 -->
<g id="edge24" class="edge">
<title>Node17&#45;&gt;Node11</title>
<path fill="none" stroke="midnightblue" d="M496.55,-123.48C448.05,-113.24 382.22,-99.35 331.53,-88.65"/>
<polygon fill="midnightblue" stroke="midnightblue" points="332.11,-85.2 321.6,-86.55 330.66,-92.04 332.11,-85.2"/>
</g>
<!-- Node18 -->
<g id="node18" class="node">
<title>Node18</title>
<g id="a_node18"><a xlink:title=" ">
<polygon fill="none" stroke="#bfbfbf" points="351.5,-62 351.5,-81 472.5,-81 472.5,-62 351.5,-62"/>
<text text-anchor="middle" x="412" y="-69" font-family="Helvetica,sans-Serif" font-size="10.00">iDynTree/Core/Span.h</text>
</a>
</g>
</g>
<!-- Node17&#45;&gt;Node18 -->
<g id="edge23" class="edge">
<title>Node17&#45;&gt;Node18</title>
<path fill="none" stroke="midnightblue" d="M530.24,-123.4C503.74,-111.99 466.78,-96.08 441.27,-85.1"/>
<polygon fill="midnightblue" stroke="midnightblue" points="442.33,-81.75 431.76,-81.01 439.56,-88.18 442.33,-81.75"/>
</g>
<!-- Node19 -->
<g id="node19" class="node">
<title>Node19</title>
<g id="a_node19"><a xlink:title=" ">
<polygon fill="none" stroke="#bfbfbf" points="490.5,-62 490.5,-81 555.5,-81 555.5,-62 490.5,-62"/>
<text text-anchor="middle" x="523" y="-69" font-family="Helvetica,sans-Serif" font-size="10.00">functional</text>
</a>
</g>
</g>
<!-- Node17&#45;&gt;Node19 -->
<g id="edge25" class="edge">
<title>Node17&#45;&gt;Node19</title>
<path fill="none" stroke="midnightblue" d="M554.32,-123.4C548.27,-113.56 540.16,-100.38 533.7,-89.89"/>
<polygon fill="midnightblue" stroke="midnightblue" points="536.57,-87.88 528.35,-81.19 530.61,-91.55 536.57,-87.88"/>
</g>
<!-- Node20 -->
<g id="node20" class="node">
<title>Node20</title>
<g id="a_node20"><a xlink:title=" ">
<polygon fill="none" stroke="#bfbfbf" points="574,-62 574,-81 626,-81 626,-62 574,-62"/>
<text text-anchor="middle" x="600" y="-69" font-family="Helvetica,sans-Serif" font-size="10.00">cassert</text>
</a>
</g>
</g>
<!-- Node17&#45;&gt;Node20 -->
<g id="edge26" class="edge">
<title>Node17&#45;&gt;Node20</title>
<path fill="none" stroke="midnightblue" d="M571.03,-123.4C576.63,-113.56 584.13,-100.38 590.1,-89.89"/>
<polygon fill="midnightblue" stroke="midnightblue" points="593.15,-91.62 595.05,-81.19 587.06,-88.15 593.15,-91.62"/>
</g>
<!-- Node21 -->
<g id="node21" class="node">
<title>Node21</title>
<g id="a_node21"><a xlink:title=" ">
<polygon fill="none" stroke="#bfbfbf" points="644,-62 644,-81 704,-81 704,-62 644,-62"/>
<text text-anchor="middle" x="674" y="-69" font-family="Helvetica,sans-Serif" font-size="10.00">iostream</text>
</a>
</g>
</g>
<!-- Node17&#45;&gt;Node21 -->
<g id="edge27" class="edge">
<title>Node17&#45;&gt;Node21</title>
<path fill="none" stroke="midnightblue" d="M587.09,-123.4C605.96,-112.34 632.06,-97.06 650.72,-86.13"/>
<polygon fill="midnightblue" stroke="midnightblue" points="652.61,-89.08 659.47,-81.01 649.07,-83.04 652.61,-89.08"/>
</g>
<!-- Node23 -->
<g id="node23" class="node">
<title>Node23</title>
<g id="a_node23"><a xlink:title=" ">
<polygon fill="none" stroke="#bfbfbf" points="139.5,-196 139.5,-215 238.5,-215 238.5,-196 139.5,-196"/>
<text text-anchor="middle" x="189" y="-203" font-family="Helvetica,sans-Serif" font-size="10.00">spdlog/fmt/ostr.h</text>
</a>
</g>
</g>
<!-- Node22&#45;&gt;Node23 -->
<g id="edge33" class="edge">
<title>Node22&#45;&gt;Node23</title>
<path fill="none" stroke="midnightblue" d="M160.81,-257.4C166.2,-247.66 173.41,-234.65 179.19,-224.21"/>
<polygon fill="midnightblue" stroke="midnightblue" points="182.4,-225.64 184.18,-215.19 176.28,-222.25 182.4,-225.64"/>
</g>
<!-- Node24 -->
<g id="node24" class="node">
<title>Node24</title>
<g id="a_node24"><a xlink:title=" ">
<polygon fill="none" stroke="#bfbfbf" points="28.5,-196 28.5,-215 121.5,-215 121.5,-196 28.5,-196"/>
<text text-anchor="middle" x="75" y="-203" font-family="Helvetica,sans-Serif" font-size="10.00">spdlog/spdlog.h</text>
</a>
</g>
</g>
<!-- Node22&#45;&gt;Node24 -->
<g id="edge34" class="edge">
<title>Node22&#45;&gt;Node24</title>
<path fill="none" stroke="midnightblue" d="M136.08,-257.4C123.43,-246.86 106.17,-232.48 93.23,-221.69"/>
<polygon fill="midnightblue" stroke="midnightblue" points="95.36,-218.91 85.43,-215.19 90.88,-224.29 95.36,-218.91"/>
</g>
</g>
</svg>
        <g id="navigator" transform="translate(0 0)" fill="#404254">
                <rect fill="#f2f5e9" fill-opacity="0.5" stroke="#606060" stroke-width=".5" x="0" y="0" width="60" height="60"/>
                <use id="zoomplus" xlink:href="#zoomPlus" x="17" y="9" onmousedown="handleZoom(evt,'in')"/>
                <use id="zoomminus" xlink:href="#zoomMin" x="42" y="9" onmousedown="handleZoom(evt,'out')"/>
                <use id="reset" xlink:href="#resetDef" x="30" y="36" onmousedown="handleReset()"/>
                <g id="arrowUp" xlink:href="#dirArrow" transform="translate(30 24)" onmousedown="handlePan(0,-1)">
                  <use xlink:href="#rim" fill="#404040">
                        <set attributeName="fill" to="#808080" begin="arrowUp.mouseover" end="arrowUp.mouseout"/>
                  </use>
                  <path fill="none" stroke="white" stroke-width="1.5" d="M0,-3.0v7 M-2.5,-0.5L0,-3.0L2.5,-0.5"/>
                </g>
                <g id="arrowRight" xlink:href="#dirArrow" transform="rotate(90) translate(36 -43)" onmousedown="handlePan(1,0)">
                  <use xlink:href="#rim" fill="#404040">
                        <set attributeName="fill" to="#808080" begin="arrowRight.mouseover" end="arrowRight.mouseout"/>
                  </use>
                  <path fill="none" stroke="white" stroke-width="1.5" d="M0,-3.0v7 M-2.5,-0.5L0,-3.0L2.5,-0.5"/>
                </g>
                <g id="arrowDown" xlink:href="#dirArrow" transform="rotate(180) translate(-30 -48)" onmousedown="handlePan(0,1)">
                  <use xlink:href="#rim" fill="#404040">
                        <set attributeName="fill" to="#808080" begin="arrowDown.mouseover" end="arrowDown.mouseout"/>
                  </use>
                  <path fill="none" stroke="white" stroke-width="1.5" d="M0,-3.0v7 M-2.5,-0.5L0,-3.0L2.5,-0.5"/>
                </g>
                <g id="arrowLeft" xlink:href="#dirArrow" transform="rotate(270) translate(-36 17)" onmousedown="handlePan(-1,0)">
                  <use xlink:href="#rim" fill="#404040">
                        <set attributeName="fill" to="#808080" begin="arrowLeft.mouseover" end="arrowLeft.mouseout"/>
                  </use>
                  <path fill="none" stroke="white" stroke-width="1.5" d="M0,-3.0v7 M-2.5,-0.5L0,-3.0L2.5,-0.5"/>
                </g>
        </g>
        <svg viewBox="0 0 15 15" width="100%" height="30px" preserveAspectRatio="xMaxYMin meet">
         <g id="arrow_out" transform="scale(0.3 0.3)">
          <a xlink:href="ForwardEuler_8h__incl_org.svg" target="_base">
           <rect id="button" ry="5" rx="5" y="6" x="6" height="38" width="38"
                fill="#f2f5e9" fill-opacity="0.5" stroke="#606060" stroke-width="1.0"/>
           <path id="arrow"
             d="M 11.500037,31.436501 C 11.940474,20.09759 22.043105,11.32322 32.158766,21.979434 L 37.068811,17.246167 C 37.068811,17.246167 37.088388,32 37.088388,32 L 22.160133,31.978069 C 22.160133,31.978069 26.997745,27.140456 26.997745,27.140456 C 18.528582,18.264221 13.291696,25.230495 11.500037,31.436501 z"
             style="fill:#404040;"/>
          </a>
         </g>
        </svg>
</svg>
