<?xml version="1.0" encoding="UTF-8" standalone="no"?>
<!DOCTYPE svg PUBLIC "-//W3C//DTD SVG 1.1//EN"
 "http://www.w3.org/Graphics/SVG/1.1/DTD/svg11.dtd">
<!-- Generated by graphviz version 2.43.0 (0)
 -->
<!-- Title: YarpUtilities/include/BipedalLocomotion/YarpUtilities/Helper.h Pages: 1 -->
<svg width="1401pt" height="296pt"
 viewBox="0.00 0.00 1401.00 296.00" xmlns="http://www.w3.org/2000/svg" xmlns:xlink="http://www.w3.org/1999/xlink">
<g id="graph0" class="graph" transform="scale(1 1) rotate(0) translate(4 292)">
<title>YarpUtilities/include/BipedalLocomotion/YarpUtilities/Helper.h</title>
<!-- Node1 -->
<g id="node1" class="node">
<title>Node1</title>
<g id="a_node1"><a xlink:title=" ">
<polygon fill="#bfbfbf" stroke="black" points="296,-246.5 296,-287.5 471,-287.5 471,-246.5 296,-246.5"/>
<text text-anchor="start" x="304" y="-275.5" font-family="Helvetica,sans-Serif" font-size="10.00">YarpUtilities/include</text>
<text text-anchor="start" x="304" y="-264.5" font-family="Helvetica,sans-Serif" font-size="10.00">/BipedalLocomotion/YarpUtilities</text>
<text text-anchor="middle" x="383.5" y="-253.5" font-family="Helvetica,sans-Serif" font-size="10.00">/Helper.h</text>
</a>
</g>
</g>
<!-- Node2 -->
<g id="node2" class="node">
<title>Node2</title>
<g id="a_node2"><a xlink:title=" ">
<polygon fill="none" stroke="#bfbfbf" points="0,-190.5 0,-209.5 47,-209.5 47,-190.5 0,-190.5"/>
<text text-anchor="middle" x="23.5" y="-197.5" font-family="Helvetica,sans-Serif" font-size="10.00">deque</text>
</a>
</g>
</g>
<!-- Node1&#45;&gt;Node2 -->
<g id="edge1" class="edge">
<title>Node1&#45;&gt;Node2</title>
<path fill="none" stroke="midnightblue" d="M296,-253.62C232.1,-243.98 143.26,-229.36 57.14,-210.2"/>
<polygon fill="midnightblue" stroke="midnightblue" points="57.72,-206.74 47.19,-207.96 56.18,-213.57 57.72,-206.74"/>
</g>
<!-- Node3 -->
<g id="node3" class="node">
<title>Node3</title>
<g id="a_node3"><a xlink:title=" ">
<polygon fill="none" stroke="#bfbfbf" points="65,-190.5 65,-209.5 112,-209.5 112,-190.5 65,-190.5"/>
<text text-anchor="middle" x="88.5" y="-197.5" font-family="Helvetica,sans-Serif" font-size="10.00">vector</text>
</a>
</g>
</g>
<!-- Node1&#45;&gt;Node3 -->
<g id="edge2" class="edge">
<title>Node1&#45;&gt;Node3</title>
<path fill="none" stroke="midnightblue" d="M295.81,-248.8C247.02,-238.88 185.03,-225.71 121.94,-210.25"/>
<polygon fill="midnightblue" stroke="midnightblue" points="122.77,-206.85 112.22,-207.85 121.09,-213.65 122.77,-206.85"/>
</g>
<!-- Node4 -->
<g id="node4" class="node">
<title>Node4</title>
<g id="a_node4"><a xlink:title=" ">
<polygon fill="none" stroke="#bfbfbf" points="130,-190.5 130,-209.5 255,-209.5 255,-190.5 130,-190.5"/>
<text text-anchor="middle" x="192.5" y="-197.5" font-family="Helvetica,sans-Serif" font-size="10.00">yarp/os/BufferedPort.h</text>
</a>
</g>
</g>
<!-- Node1&#45;&gt;Node4 -->
<g id="edge3" class="edge">
<title>Node1&#45;&gt;Node4</title>
<path fill="none" stroke="midnightblue" d="M326.19,-246.5C294.09,-235.57 255.1,-222.3 227.53,-212.92"/>
<polygon fill="midnightblue" stroke="midnightblue" points="228.52,-209.56 217.93,-209.65 226.26,-216.19 228.52,-209.56"/>
</g>
<!-- Node5 -->
<g id="node5" class="node">
<title>Node5</title>
<g id="a_node5"><a xlink:title=" ">
<polygon fill="none" stroke="#bfbfbf" points="273.5,-190.5 273.5,-209.5 377.5,-209.5 377.5,-190.5 273.5,-190.5"/>
<text text-anchor="middle" x="325.5" y="-197.5" font-family="Helvetica,sans-Serif" font-size="10.00">yarp/os/Property.h</text>
</a>
</g>
</g>
<!-- Node1&#45;&gt;Node5 -->
<g id="edge4" class="edge">
<title>Node1&#45;&gt;Node5</title>
<path fill="none" stroke="midnightblue" d="M366.1,-246.5C357.8,-237.2 347.99,-226.21 340.1,-217.36"/>
<polygon fill="midnightblue" stroke="midnightblue" points="342.49,-214.78 333.22,-209.65 337.27,-219.44 342.49,-214.78"/>
</g>
<!-- Node6 -->
<g id="node6" class="node">
<title>Node6</title>
<g id="a_node6"><a xlink:title=" ">
<polygon fill="none" stroke="#bfbfbf" points="395.5,-190.5 395.5,-209.5 487.5,-209.5 487.5,-190.5 395.5,-190.5"/>
<text text-anchor="middle" x="441.5" y="-197.5" font-family="Helvetica,sans-Serif" font-size="10.00">yarp/os/Value.h</text>
</a>
</g>
</g>
<!-- Node1&#45;&gt;Node6 -->
<g id="edge5" class="edge">
<title>Node1&#45;&gt;Node6</title>
<path fill="none" stroke="midnightblue" d="M400.9,-246.5C409.2,-237.2 419.01,-226.21 426.9,-217.36"/>
<polygon fill="midnightblue" stroke="midnightblue" points="429.73,-219.44 433.78,-209.65 424.51,-214.78 429.73,-219.44"/>
</g>
<!-- Node7 -->
<g id="node7" class="node">
<title>Node7</title>
<g id="a_node7"><a xlink:title=" ">
<polygon fill="none" stroke="#bfbfbf" points="505.5,-190.5 505.5,-209.5 603.5,-209.5 603.5,-190.5 505.5,-190.5"/>
<text text-anchor="middle" x="554.5" y="-197.5" font-family="Helvetica,sans-Serif" font-size="10.00">yarp/sig/Vector.h</text>
</a>
</g>
</g>
<!-- Node1&#45;&gt;Node7 -->
<g id="edge6" class="edge">
<title>Node1&#45;&gt;Node7</title>
<path fill="none" stroke="midnightblue" d="M434.81,-246.5C463.17,-235.72 497.54,-222.65 522.16,-213.29"/>
<polygon fill="midnightblue" stroke="midnightblue" points="523.63,-216.48 531.74,-209.65 521.15,-209.93 523.63,-216.48"/>
</g>
<!-- Node8 -->
<g id="node8" class="node">
<title>Node8</title>
<g id="a_node8"><a xlink:title=" ">
<polygon fill="none" stroke="#bfbfbf" points="622,-190.5 622,-209.5 789,-209.5 789,-190.5 622,-190.5"/>
<text text-anchor="middle" x="705.5" y="-197.5" font-family="Helvetica,sans-Serif" font-size="10.00">iDynTree/Core/VectorDynSize.h</text>
</a>
</g>
</g>
<!-- Node1&#45;&gt;Node8 -->
<g id="edge7" class="edge">
<title>Node1&#45;&gt;Node8</title>
<path fill="none" stroke="midnightblue" d="M471.06,-248.32C529.31,-236.57 603.87,-221.52 653.08,-211.58"/>
<polygon fill="midnightblue" stroke="midnightblue" points="654.08,-214.95 663.19,-209.54 652.69,-208.09 654.08,-214.95"/>
</g>
<!-- Node9 -->
<g id="node9" class="node">
<title>Node9</title>
<g id="a_node9"><a xlink:href="Helper_8tpp.html" target="_top" xlink:title=" ">
<polygon fill="none" stroke="black" points="807,-190.5 807,-209.5 874,-209.5 874,-190.5 807,-190.5"/>
<text text-anchor="middle" x="840.5" y="-197.5" font-family="Helvetica,sans-Serif" font-size="10.00">Helper.tpp</text>
</a>
</g>
</g>
<!-- Node1&#45;&gt;Node9 -->
<g id="edge8" class="edge">
<title>Node1&#45;&gt;Node9</title>
<path fill="none" stroke="midnightblue" d="M471.01,-256.02C552.7,-246.27 678.19,-230.22 796.76,-210.02"/>
<polygon fill="midnightblue" stroke="midnightblue" points="797.48,-213.45 806.74,-208.3 796.29,-206.55 797.48,-213.45"/>
</g>
<!-- Node10 -->
<g id="node10" class="node">
<title>Node10</title>
<g id="a_node10"><a xlink:title=" ">
<polygon fill="none" stroke="#bfbfbf" points="507,-0.5 507,-19.5 576,-19.5 576,-0.5 507,-0.5"/>
<text text-anchor="middle" x="541.5" y="-7.5" font-family="Helvetica,sans-Serif" font-size="10.00">type_traits</text>
</a>
</g>
</g>
<!-- Node9&#45;&gt;Node10 -->
<g id="edge9" class="edge">
<title>Node9&#45;&gt;Node10</title>
<path fill="none" stroke="midnightblue" d="M806.97,-190.64C738.01,-172.73 584.04,-128.92 551.5,-87 538.9,-70.77 537.86,-46.48 539.02,-29.75"/>
<polygon fill="midnightblue" stroke="midnightblue" points="542.53,-29.87 540.06,-19.57 535.56,-29.16 542.53,-29.87"/>
</g>
<!-- Node11 -->
<g id="node11" class="node">
<title>Node11</title>
<g id="a_node11"><a xlink:href="TemplateHelpers_8h_source.html" target="_top" xlink:title=" ">
<polygon fill="none" stroke="black" points="560.5,-56.5 560.5,-86.5 718.5,-86.5 718.5,-56.5 560.5,-56.5"/>
<text text-anchor="start" x="568.5" y="-74.5" font-family="Helvetica,sans-Serif" font-size="10.00">BipedalLocomotion/Generic</text>
<text text-anchor="middle" x="639.5" y="-63.5" font-family="Helvetica,sans-Serif" font-size="10.00">Container/TemplateHelpers.h</text>
</a>
</g>
</g>
<!-- Node9&#45;&gt;Node11 -->
<g id="edge10" class="edge">
<title>Node9&#45;&gt;Node11</title>
<path fill="none" stroke="midnightblue" d="M826.68,-190.31C794.74,-170.2 715.1,-120.08 670.69,-92.13"/>
<polygon fill="midnightblue" stroke="midnightblue" points="672.36,-89.05 662.03,-86.68 668.63,-94.97 672.36,-89.05"/>
</g>
<!-- Node14 -->
<g id="node14" class="node">
<title>Node14</title>
<g id="a_node14"><a xlink:href="Vector_8h_source.html" target="_top" xlink:title=" ">
<polygon fill="none" stroke="black" points="832,-123.5 832,-153.5 983,-153.5 983,-123.5 832,-123.5"/>
<text text-anchor="start" x="840" y="-141.5" font-family="Helvetica,sans-Serif" font-size="10.00">BipedalLocomotion/Generic</text>
<text text-anchor="middle" x="907.5" y="-130.5" font-family="Helvetica,sans-Serif" font-size="10.00">Container/Vector.h</text>
</a>
</g>
</g>
<!-- Node9&#45;&gt;Node14 -->
<g id="edge14" class="edge">
<title>Node9&#45;&gt;Node14</title>
<path fill="none" stroke="midnightblue" d="M850.1,-190.48C858.92,-182.64 872.35,-170.71 884,-160.37"/>
<polygon fill="midnightblue" stroke="midnightblue" points="886.56,-162.78 891.71,-153.52 881.91,-157.55 886.56,-162.78"/>
</g>
<!-- Node20 -->
<g id="node20" class="node">
<title>Node20</title>
<g id="a_node20"><a xlink:href="Logger_8h.html" target="_top" xlink:title=" ">
<polygon fill="none" stroke="black" points="1146.5,-123.5 1146.5,-153.5 1318.5,-153.5 1318.5,-123.5 1146.5,-123.5"/>
<text text-anchor="start" x="1154.5" y="-141.5" font-family="Helvetica,sans-Serif" font-size="10.00">BipedalLocomotion/TextLogging</text>
<text text-anchor="middle" x="1232.5" y="-130.5" font-family="Helvetica,sans-Serif" font-size="10.00">/Logger.h</text>
</a>
</g>
</g>
<!-- Node9&#45;&gt;Node20 -->
<g id="edge21" class="edge">
<title>Node9&#45;&gt;Node20</title>
<path fill="none" stroke="midnightblue" d="M874.26,-193.88C931.87,-185.13 1051.18,-167.02 1136.28,-154.11"/>
<polygon fill="midnightblue" stroke="midnightblue" points="1136.86,-157.56 1146.22,-152.6 1135.81,-150.64 1136.86,-157.56"/>
</g>
<!-- Node11&#45;&gt;Node10 -->
<g id="edge11" class="edge">
<title>Node11&#45;&gt;Node10</title>
<path fill="none" stroke="midnightblue" d="M616.28,-56.4C600.71,-46.95 580.3,-34.56 564.74,-25.11"/>
<polygon fill="midnightblue" stroke="midnightblue" points="566.12,-21.86 555.76,-19.66 562.49,-27.84 566.12,-21.86"/>
</g>
<!-- Node12 -->
<g id="node12" class="node">
<title>Node12</title>
<g id="a_node12"><a xlink:title=" ">
<polygon fill="none" stroke="#bfbfbf" points="598,-0.5 598,-19.5 671,-19.5 671,-0.5 598,-0.5"/>
<text text-anchor="middle" x="634.5" y="-7.5" font-family="Helvetica,sans-Serif" font-size="10.00">string_view</text>
</a>
</g>
</g>
<!-- Node11&#45;&gt;Node12 -->
<g id="edge12" class="edge">
<title>Node11&#45;&gt;Node12</title>
<path fill="none" stroke="midnightblue" d="M638.32,-56.4C637.65,-48.47 636.81,-38.46 636.08,-29.86"/>
<polygon fill="midnightblue" stroke="midnightblue" points="639.55,-29.33 635.23,-19.66 632.58,-29.92 639.55,-29.33"/>
</g>
<!-- Node13 -->
<g id="node13" class="node">
<title>Node13</title>
<g id="a_node13"><a xlink:title=" ">
<polygon fill="none" stroke="#bfbfbf" points="689,-0.5 689,-19.5 758,-19.5 758,-0.5 689,-0.5"/>
<text text-anchor="middle" x="723.5" y="-7.5" font-family="Helvetica,sans-Serif" font-size="10.00">Eigen/Core</text>
</a>
</g>
</g>
<!-- Node11&#45;&gt;Node13 -->
<g id="edge13" class="edge">
<title>Node11&#45;&gt;Node13</title>
<path fill="none" stroke="midnightblue" d="M659.41,-56.4C672.49,-47.13 689.58,-35.03 702.82,-25.65"/>
<polygon fill="midnightblue" stroke="midnightblue" points="705.14,-28.29 711.28,-19.66 701.09,-22.58 705.14,-28.29"/>
</g>
<!-- Node14&#45;&gt;Node11 -->
<g id="edge16" class="edge">
<title>Node14&#45;&gt;Node11</title>
<path fill="none" stroke="midnightblue" d="M849.68,-123.48C807.91,-113.34 751.34,-99.63 707.42,-88.97"/>
<polygon fill="midnightblue" stroke="midnightblue" points="708.22,-85.57 697.68,-86.61 706.57,-92.37 708.22,-85.57"/>
</g>
<!-- Node15 -->
<g id="node15" class="node">
<title>Node15</title>
<g id="a_node15"><a xlink:title=" ">
<polygon fill="none" stroke="#bfbfbf" points="736,-62 736,-81 857,-81 857,-62 736,-62"/>
<text text-anchor="middle" x="796.5" y="-69" font-family="Helvetica,sans-Serif" font-size="10.00">iDynTree/Core/Span.h</text>
</a>
</g>
</g>
<!-- Node14&#45;&gt;Node15 -->
<g id="edge15" class="edge">
<title>Node14&#45;&gt;Node15</title>
<path fill="none" stroke="midnightblue" d="M883.41,-123.4C864.54,-112.34 838.44,-97.06 819.78,-86.13"/>
<polygon fill="midnightblue" stroke="midnightblue" points="821.43,-83.04 811.03,-81.01 817.89,-89.08 821.43,-83.04"/>
</g>
<!-- Node16 -->
<g id="node16" class="node">
<title>Node16</title>
<g id="a_node16"><a xlink:title=" ">
<polygon fill="none" stroke="#bfbfbf" points="875,-62 875,-81 940,-81 940,-62 875,-62"/>
<text text-anchor="middle" x="907.5" y="-69" font-family="Helvetica,sans-Serif" font-size="10.00">functional</text>
</a>
</g>
</g>
<!-- Node14&#45;&gt;Node16 -->
<g id="edge17" class="edge">
<title>Node14&#45;&gt;Node16</title>
<path fill="none" stroke="midnightblue" d="M907.5,-123.4C907.5,-114.06 907.5,-101.71 907.5,-91.52"/>
<polygon fill="midnightblue" stroke="midnightblue" points="911,-91.19 907.5,-81.19 904,-91.19 911,-91.19"/>
</g>
<!-- Node17 -->
<g id="node17" class="node">
<title>Node17</title>
<g id="a_node17"><a xlink:title=" ">
<polygon fill="none" stroke="#bfbfbf" points="958.5,-62 958.5,-81 1010.5,-81 1010.5,-62 958.5,-62"/>
<text text-anchor="middle" x="984.5" y="-69" font-family="Helvetica,sans-Serif" font-size="10.00">cassert</text>
</a>
</g>
</g>
<!-- Node14&#45;&gt;Node17 -->
<g id="edge18" class="edge">
<title>Node14&#45;&gt;Node17</title>
<path fill="none" stroke="midnightblue" d="M924.21,-123.4C936.69,-112.86 953.73,-98.48 966.51,-87.69"/>
<polygon fill="midnightblue" stroke="midnightblue" points="968.82,-90.32 974.2,-81.19 964.3,-84.97 968.82,-90.32"/>
</g>
<!-- Node18 -->
<g id="node18" class="node">
<title>Node18</title>
<g id="a_node18"><a xlink:title=" ">
<polygon fill="none" stroke="#bfbfbf" points="1028.5,-62 1028.5,-81 1088.5,-81 1088.5,-62 1028.5,-62"/>
<text text-anchor="middle" x="1058.5" y="-69" font-family="Helvetica,sans-Serif" font-size="10.00">iostream</text>
</a>
</g>
</g>
<!-- Node14&#45;&gt;Node18 -->
<g id="edge19" class="edge">
<title>Node14&#45;&gt;Node18</title>
<path fill="none" stroke="midnightblue" d="M940.26,-123.4C966.76,-111.99 1003.72,-96.08 1029.23,-85.1"/>
<polygon fill="midnightblue" stroke="midnightblue" points="1030.94,-88.18 1038.74,-81.01 1028.17,-81.75 1030.94,-88.18"/>
</g>
<!-- Node19 -->
<g id="node19" class="node">
<title>Node19</title>
<g id="a_node19"><a xlink:title=" ">
<polygon fill="none" stroke="#bfbfbf" points="1106.5,-62 1106.5,-81 1164.5,-81 1164.5,-62 1106.5,-62"/>
<text text-anchor="middle" x="1135.5" y="-69" font-family="Helvetica,sans-Serif" font-size="10.00">memory</text>
</a>
</g>
</g>
<!-- Node14&#45;&gt;Node19 -->
<g id="edge20" class="edge">
<title>Node14&#45;&gt;Node19</title>
<path fill="none" stroke="midnightblue" d="M966.59,-123.49C1004.33,-114.13 1054.14,-100.99 1097.5,-87 1099.91,-86.22 1102.39,-85.38 1104.88,-84.5"/>
<polygon fill="midnightblue" stroke="midnightblue" points="1106.16,-87.76 1114.34,-81.03 1103.74,-81.19 1106.16,-87.76"/>
</g>
<!-- Node21 -->
<g id="node21" class="node">
<title>Node21</title>
<g id="a_node21"><a xlink:title=" ">
<polygon fill="none" stroke="#bfbfbf" points="1183,-62 1183,-81 1282,-81 1282,-62 1183,-62"/>
<text text-anchor="middle" x="1232.5" y="-69" font-family="Helvetica,sans-Serif" font-size="10.00">spdlog/fmt/ostr.h</text>
</a>
</g>
</g>
<!-- Node20&#45;&gt;Node21 -->
<g id="edge22" class="edge">
<title>Node20&#45;&gt;Node21</title>
<path fill="none" stroke="midnightblue" d="M1232.5,-123.4C1232.5,-114.06 1232.5,-101.71 1232.5,-91.52"/>
<polygon fill="midnightblue" stroke="midnightblue" points="1236,-91.19 1232.5,-81.19 1229,-91.19 1236,-91.19"/>
</g>
<!-- Node22 -->
<g id="node22" class="node">
<title>Node22</title>
<g id="a_node22"><a xlink:title=" ">
<polygon fill="none" stroke="#bfbfbf" points="1300,-62 1300,-81 1393,-81 1393,-62 1300,-62"/>
<text text-anchor="middle" x="1346.5" y="-69" font-family="Helvetica,sans-Serif" font-size="10.00">spdlog/spdlog.h</text>
</a>
</g>
</g>
<!-- Node20&#45;&gt;Node22 -->
<g id="edge23" class="edge">
<title>Node20&#45;&gt;Node22</title>
<path fill="none" stroke="midnightblue" d="M1257.24,-123.4C1276.71,-112.29 1303.67,-96.92 1322.85,-85.98"/>
<polygon fill="midnightblue" stroke="midnightblue" points="1324.63,-89 1331.58,-81.01 1321.16,-82.92 1324.63,-89"/>
</g>
</g>
</svg>
