<?xml version="1.0" encoding="UTF-8" standalone="no"?>
<!DOCTYPE svg PUBLIC "-//W3C//DTD SVG 1.1//EN"
 "http://www.w3.org/Graphics/SVG/1.1/DTD/svg11.dtd">
<!-- Generated by graphviz version 2.43.0 (0)
 -->
<!-- Title: YarpUtilities/include/BipedalLocomotion/YarpUtilities/Helper.tpp Pages: 1 -->
<svg width="894pt" height="240pt"
 viewBox="0.00 0.00 894.00 240.00" xmlns="http://www.w3.org/2000/svg" xmlns:xlink="http://www.w3.org/1999/xlink">
<g id="graph0" class="graph" transform="scale(1 1) rotate(0) translate(4 236)">
<title>YarpUtilities/include/BipedalLocomotion/YarpUtilities/Helper.tpp</title>
<!-- Node1 -->
<g id="node1" class="node">
<title>Node1</title>
<g id="a_node1"><a xlink:title=" ">
<polygon fill="#bfbfbf" stroke="black" points="246,-190.5 246,-231.5 421,-231.5 421,-190.5 246,-190.5"/>
<text text-anchor="start" x="254" y="-219.5" font-family="Helvetica,sans-Serif" font-size="10.00">YarpUtilities/include</text>
<text text-anchor="start" x="254" y="-208.5" font-family="Helvetica,sans-Serif" font-size="10.00">/BipedalLocomotion/YarpUtilities</text>
<text text-anchor="middle" x="333.5" y="-197.5" font-family="Helvetica,sans-Serif" font-size="10.00">/Helper.tpp</text>
</a>
</g>
</g>
<!-- Node2 -->
<g id="node2" class="node">
<title>Node2</title>
<g id="a_node2"><a xlink:title=" ">
<polygon fill="none" stroke="#bfbfbf" points="0,-0.5 0,-19.5 69,-19.5 69,-0.5 0,-0.5"/>
<text text-anchor="middle" x="34.5" y="-7.5" font-family="Helvetica,sans-Serif" font-size="10.00">type_traits</text>
</a>
</g>
</g>
<!-- Node1&#45;&gt;Node2 -->
<g id="edge1" class="edge">
<title>Node1&#45;&gt;Node2</title>
<path fill="none" stroke="midnightblue" d="M245.95,-196.5C179.88,-181.49 92.66,-150.4 44.5,-87 32.07,-70.64 31,-46.37 32.1,-29.69"/>
<polygon fill="midnightblue" stroke="midnightblue" points="35.6,-29.83 33.1,-19.53 28.64,-29.14 35.6,-29.83"/>
</g>
<!-- Node3 -->
<g id="node3" class="node">
<title>Node3</title>
<g id="a_node3"><a xlink:href="TemplateHelpers_8h_source.html" target="_top" xlink:title=" ">
<polygon fill="none" stroke="black" points="53.5,-56.5 53.5,-86.5 211.5,-86.5 211.5,-56.5 53.5,-56.5"/>
<text text-anchor="start" x="61.5" y="-74.5" font-family="Helvetica,sans-Serif" font-size="10.00">BipedalLocomotion/Generic</text>
<text text-anchor="middle" x="132.5" y="-63.5" font-family="Helvetica,sans-Serif" font-size="10.00">Container/TemplateHelpers.h</text>
</a>
</g>
</g>
<!-- Node1&#45;&gt;Node3 -->
<g id="edge2" class="edge">
<title>Node1&#45;&gt;Node3</title>
<path fill="none" stroke="midnightblue" d="M304.7,-190.3C266.61,-164.24 199.86,-118.58 161.61,-92.42"/>
<polygon fill="midnightblue" stroke="midnightblue" points="163.22,-89.28 152.99,-86.52 159.27,-95.05 163.22,-89.28"/>
</g>
<!-- Node6 -->
<g id="node6" class="node">
<title>Node6</title>
<g id="a_node6"><a xlink:href="Vector_8h_source.html" target="_top" xlink:title=" ">
<polygon fill="none" stroke="black" points="325,-123.5 325,-153.5 476,-153.5 476,-123.5 325,-123.5"/>
<text text-anchor="start" x="333" y="-141.5" font-family="Helvetica,sans-Serif" font-size="10.00">BipedalLocomotion/Generic</text>
<text text-anchor="middle" x="400.5" y="-130.5" font-family="Helvetica,sans-Serif" font-size="10.00">Container/Vector.h</text>
</a>
</g>
</g>
<!-- Node1&#45;&gt;Node6 -->
<g id="edge6" class="edge">
<title>Node1&#45;&gt;Node6</title>
<path fill="none" stroke="midnightblue" d="M352.16,-190.36C360.75,-181.32 370.98,-170.57 379.8,-161.28"/>
<polygon fill="midnightblue" stroke="midnightblue" points="382.47,-163.55 386.82,-153.89 377.4,-158.73 382.47,-163.55"/>
</g>
<!-- Node12 -->
<g id="node12" class="node">
<title>Node12</title>
<g id="a_node12"><a xlink:href="Logger_8h.html" target="_top" xlink:title=" ">
<polygon fill="none" stroke="black" points="639.5,-123.5 639.5,-153.5 811.5,-153.5 811.5,-123.5 639.5,-123.5"/>
<text text-anchor="start" x="647.5" y="-141.5" font-family="Helvetica,sans-Serif" font-size="10.00">BipedalLocomotion/TextLogging</text>
<text text-anchor="middle" x="725.5" y="-130.5" font-family="Helvetica,sans-Serif" font-size="10.00">/Logger.h</text>
</a>
</g>
</g>
<!-- Node1&#45;&gt;Node12 -->
<g id="edge13" class="edge">
<title>Node1&#45;&gt;Node12</title>
<path fill="none" stroke="midnightblue" d="M421.47,-194.18C485.86,-182.6 572.87,-166.95 637.31,-155.36"/>
<polygon fill="midnightblue" stroke="midnightblue" points="638.23,-158.75 647.45,-153.54 636.99,-151.86 638.23,-158.75"/>
</g>
<!-- Node3&#45;&gt;Node2 -->
<g id="edge3" class="edge">
<title>Node3&#45;&gt;Node2</title>
<path fill="none" stroke="midnightblue" d="M109.28,-56.4C93.71,-46.95 73.3,-34.56 57.74,-25.11"/>
<polygon fill="midnightblue" stroke="midnightblue" points="59.12,-21.86 48.76,-19.66 55.49,-27.84 59.12,-21.86"/>
</g>
<!-- Node4 -->
<g id="node4" class="node">
<title>Node4</title>
<g id="a_node4"><a xlink:title=" ">
<polygon fill="none" stroke="#bfbfbf" points="91,-0.5 91,-19.5 164,-19.5 164,-0.5 91,-0.5"/>
<text text-anchor="middle" x="127.5" y="-7.5" font-family="Helvetica,sans-Serif" font-size="10.00">string_view</text>
</a>
</g>
</g>
<!-- Node3&#45;&gt;Node4 -->
<g id="edge4" class="edge">
<title>Node3&#45;&gt;Node4</title>
<path fill="none" stroke="midnightblue" d="M131.32,-56.4C130.65,-48.47 129.81,-38.46 129.08,-29.86"/>
<polygon fill="midnightblue" stroke="midnightblue" points="132.55,-29.33 128.23,-19.66 125.58,-29.92 132.55,-29.33"/>
</g>
<!-- Node5 -->
<g id="node5" class="node">
<title>Node5</title>
<g id="a_node5"><a xlink:title=" ">
<polygon fill="none" stroke="#bfbfbf" points="182,-0.5 182,-19.5 251,-19.5 251,-0.5 182,-0.5"/>
<text text-anchor="middle" x="216.5" y="-7.5" font-family="Helvetica,sans-Serif" font-size="10.00">Eigen/Core</text>
</a>
</g>
</g>
<!-- Node3&#45;&gt;Node5 -->
<g id="edge5" class="edge">
<title>Node3&#45;&gt;Node5</title>
<path fill="none" stroke="midnightblue" d="M152.41,-56.4C165.49,-47.13 182.58,-35.03 195.82,-25.65"/>
<polygon fill="midnightblue" stroke="midnightblue" points="198.14,-28.29 204.28,-19.66 194.09,-22.58 198.14,-28.29"/>
</g>
<!-- Node6&#45;&gt;Node3 -->
<g id="edge8" class="edge">
<title>Node6&#45;&gt;Node3</title>
<path fill="none" stroke="midnightblue" d="M342.68,-123.48C300.91,-113.34 244.34,-99.63 200.42,-88.97"/>
<polygon fill="midnightblue" stroke="midnightblue" points="201.22,-85.57 190.68,-86.61 199.57,-92.37 201.22,-85.57"/>
</g>
<!-- Node7 -->
<g id="node7" class="node">
<title>Node7</title>
<g id="a_node7"><a xlink:title=" ">
<polygon fill="none" stroke="#bfbfbf" points="229,-62 229,-81 350,-81 350,-62 229,-62"/>
<text text-anchor="middle" x="289.5" y="-69" font-family="Helvetica,sans-Serif" font-size="10.00">iDynTree/Core/Span.h</text>
</a>
</g>
</g>
<!-- Node6&#45;&gt;Node7 -->
<g id="edge7" class="edge">
<title>Node6&#45;&gt;Node7</title>
<path fill="none" stroke="midnightblue" d="M376.41,-123.4C357.54,-112.34 331.44,-97.06 312.78,-86.13"/>
<polygon fill="midnightblue" stroke="midnightblue" points="314.43,-83.04 304.03,-81.01 310.89,-89.08 314.43,-83.04"/>
</g>
<!-- Node8 -->
<g id="node8" class="node">
<title>Node8</title>
<g id="a_node8"><a xlink:title=" ">
<polygon fill="none" stroke="#bfbfbf" points="368,-62 368,-81 433,-81 433,-62 368,-62"/>
<text text-anchor="middle" x="400.5" y="-69" font-family="Helvetica,sans-Serif" font-size="10.00">functional</text>
</a>
</g>
</g>
<!-- Node6&#45;&gt;Node8 -->
<g id="edge9" class="edge">
<title>Node6&#45;&gt;Node8</title>
<path fill="none" stroke="midnightblue" d="M400.5,-123.4C400.5,-114.06 400.5,-101.71 400.5,-91.52"/>
<polygon fill="midnightblue" stroke="midnightblue" points="404,-91.19 400.5,-81.19 397,-91.19 404,-91.19"/>
</g>
<!-- Node9 -->
<g id="node9" class="node">
<title>Node9</title>
<g id="a_node9"><a xlink:title=" ">
<polygon fill="none" stroke="#bfbfbf" points="451.5,-62 451.5,-81 503.5,-81 503.5,-62 451.5,-62"/>
<text text-anchor="middle" x="477.5" y="-69" font-family="Helvetica,sans-Serif" font-size="10.00">cassert</text>
</a>
</g>
</g>
<!-- Node6&#45;&gt;Node9 -->
<g id="edge10" class="edge">
<title>Node6&#45;&gt;Node9</title>
<path fill="none" stroke="midnightblue" d="M417.21,-123.4C429.69,-112.86 446.73,-98.48 459.51,-87.69"/>
<polygon fill="midnightblue" stroke="midnightblue" points="461.82,-90.32 467.2,-81.19 457.3,-84.97 461.82,-90.32"/>
</g>
<!-- Node10 -->
<g id="node10" class="node">
<title>Node10</title>
<g id="a_node10"><a xlink:title=" ">
<polygon fill="none" stroke="#bfbfbf" points="521.5,-62 521.5,-81 581.5,-81 581.5,-62 521.5,-62"/>
<text text-anchor="middle" x="551.5" y="-69" font-family="Helvetica,sans-Serif" font-size="10.00">iostream</text>
</a>
</g>
</g>
<!-- Node6&#45;&gt;Node10 -->
<g id="edge11" class="edge">
<title>Node6&#45;&gt;Node10</title>
<path fill="none" stroke="midnightblue" d="M433.26,-123.4C459.76,-111.99 496.72,-96.08 522.23,-85.1"/>
<polygon fill="midnightblue" stroke="midnightblue" points="523.94,-88.18 531.74,-81.01 521.17,-81.75 523.94,-88.18"/>
</g>
<!-- Node11 -->
<g id="node11" class="node">
<title>Node11</title>
<g id="a_node11"><a xlink:title=" ">
<polygon fill="none" stroke="#bfbfbf" points="599.5,-62 599.5,-81 657.5,-81 657.5,-62 599.5,-62"/>
<text text-anchor="middle" x="628.5" y="-69" font-family="Helvetica,sans-Serif" font-size="10.00">memory</text>
</a>
</g>
</g>
<!-- Node6&#45;&gt;Node11 -->
<g id="edge12" class="edge">
<title>Node6&#45;&gt;Node11</title>
<path fill="none" stroke="midnightblue" d="M459.59,-123.49C497.33,-114.13 547.14,-100.99 590.5,-87 592.91,-86.22 595.39,-85.38 597.88,-84.5"/>
<polygon fill="midnightblue" stroke="midnightblue" points="599.16,-87.76 607.34,-81.03 596.74,-81.19 599.16,-87.76"/>
</g>
<!-- Node13 -->
<g id="node13" class="node">
<title>Node13</title>
<g id="a_node13"><a xlink:title=" ">
<polygon fill="none" stroke="#bfbfbf" points="676,-62 676,-81 775,-81 775,-62 676,-62"/>
<text text-anchor="middle" x="725.5" y="-69" font-family="Helvetica,sans-Serif" font-size="10.00">spdlog/fmt/ostr.h</text>
</a>
</g>
</g>
<!-- Node12&#45;&gt;Node13 -->
<g id="edge14" class="edge">
<title>Node12&#45;&gt;Node13</title>
<path fill="none" stroke="midnightblue" d="M725.5,-123.4C725.5,-114.06 725.5,-101.71 725.5,-91.52"/>
<polygon fill="midnightblue" stroke="midnightblue" points="729,-91.19 725.5,-81.19 722,-91.19 729,-91.19"/>
</g>
<!-- Node14 -->
<g id="node14" class="node">
<title>Node14</title>
<g id="a_node14"><a xlink:title=" ">
<polygon fill="none" stroke="#bfbfbf" points="793,-62 793,-81 886,-81 886,-62 793,-62"/>
<text text-anchor="middle" x="839.5" y="-69" font-family="Helvetica,sans-Serif" font-size="10.00">spdlog/spdlog.h</text>
</a>
</g>
</g>
<!-- Node12&#45;&gt;Node14 -->
<g id="edge15" class="edge">
<title>Node12&#45;&gt;Node14</title>
<path fill="none" stroke="midnightblue" d="M750.24,-123.4C769.71,-112.29 796.67,-96.92 815.85,-85.98"/>
<polygon fill="midnightblue" stroke="midnightblue" points="817.63,-89 824.58,-81.01 814.16,-82.92 817.63,-89"/>
</g>
</g>
</svg>
