<?xml version="1.0" encoding="UTF-8" standalone="no"?>
<!DOCTYPE svg PUBLIC "-//W3C//DTD SVG 1.1//EN"
 "http://www.w3.org/Graphics/SVG/1.1/DTD/svg11.dtd">
<!-- Generated by graphviz version 2.43.0 (0)
 -->
<!-- Title: YarpUtilities/src/Helper.cpp Pages: 1 -->
<svg width="1394pt" height="341pt"
 viewBox="0.00 0.00 1393.75 341.00" xmlns="http://www.w3.org/2000/svg" xmlns:xlink="http://www.w3.org/1999/xlink">
<g id="graph0" class="graph" transform="scale(1 1) rotate(0) translate(4 337)">
<title>YarpUtilities/src/Helper.cpp</title>
<!-- Node1 -->
<g id="node1" class="node">
<title>Node1</title>
<g id="a_node1"><a xlink:title=" ">
<polygon fill="#bfbfbf" stroke="black" points="95.25,-313.5 95.25,-332.5 242.25,-332.5 242.25,-313.5 95.25,-313.5"/>
<text text-anchor="middle" x="168.75" y="-320.5" font-family="Helvetica,sans-Serif" font-size="10.00">YarpUtilities/src/Helper.cpp</text>
</a>
</g>
</g>
<!-- Node2 -->
<g id="node2" class="node">
<title>Node2</title>
<g id="a_node2"><a xlink:href="Logger_8h.html" target="_top" xlink:title=" ">
<polygon fill="none" stroke="black" points="210.75,-123.5 210.75,-153.5 382.75,-153.5 382.75,-123.5 210.75,-123.5"/>
<text text-anchor="start" x="218.75" y="-141.5" font-family="Helvetica,sans-Serif" font-size="10.00">BipedalLocomotion/TextLogging</text>
<text text-anchor="middle" x="296.75" y="-130.5" font-family="Helvetica,sans-Serif" font-size="10.00">/Logger.h</text>
</a>
</g>
</g>
<!-- Node1&#45;&gt;Node2 -->
<g id="edge1" class="edge">
<title>Node1&#45;&gt;Node2</title>
<path fill="none" stroke="midnightblue" d="M141.94,-313.39C85.87,-294.03 -34.97,-244.49 10.75,-190 34.77,-161.36 126.91,-148.96 200.21,-143.59"/>
<polygon fill="midnightblue" stroke="midnightblue" points="200.68,-147.06 210.41,-142.88 200.19,-140.08 200.68,-147.06"/>
</g>
<!-- Node5 -->
<g id="node5" class="node">
<title>Node5</title>
<g id="a_node5"><a xlink:href="Helper_8h.html" target="_top" xlink:title=" ">
<polygon fill="none" stroke="black" points="259.75,-246.5 259.75,-276.5 431.75,-276.5 431.75,-246.5 259.75,-246.5"/>
<text text-anchor="start" x="267.75" y="-264.5" font-family="Helvetica,sans-Serif" font-size="10.00">BipedalLocomotion/YarpUtilities</text>
<text text-anchor="middle" x="345.75" y="-253.5" font-family="Helvetica,sans-Serif" font-size="10.00">/Helper.h</text>
</a>
</g>
</g>
<!-- Node1&#45;&gt;Node5 -->
<g id="edge4" class="edge">
<title>Node1&#45;&gt;Node5</title>
<path fill="none" stroke="midnightblue" d="M194.11,-313.48C220.21,-304.7 261.6,-290.79 294.55,-279.71"/>
<polygon fill="midnightblue" stroke="midnightblue" points="295.67,-283.03 304.03,-276.52 293.44,-276.39 295.67,-283.03"/>
</g>
<!-- Node3 -->
<g id="node3" class="node">
<title>Node3</title>
<g id="a_node3"><a xlink:title=" ">
<polygon fill="none" stroke="#bfbfbf" points="210.25,-62 210.25,-81 309.25,-81 309.25,-62 210.25,-62"/>
<text text-anchor="middle" x="259.75" y="-69" font-family="Helvetica,sans-Serif" font-size="10.00">spdlog/fmt/ostr.h</text>
</a>
</g>
</g>
<!-- Node2&#45;&gt;Node3 -->
<g id="edge2" class="edge">
<title>Node2&#45;&gt;Node3</title>
<path fill="none" stroke="midnightblue" d="M288.72,-123.4C283.12,-113.56 275.62,-100.38 269.65,-89.89"/>
<polygon fill="midnightblue" stroke="midnightblue" points="272.69,-88.15 264.7,-81.19 266.6,-91.62 272.69,-88.15"/>
</g>
<!-- Node4 -->
<g id="node4" class="node">
<title>Node4</title>
<g id="a_node4"><a xlink:title=" ">
<polygon fill="none" stroke="#bfbfbf" points="327.25,-62 327.25,-81 420.25,-81 420.25,-62 327.25,-62"/>
<text text-anchor="middle" x="373.75" y="-69" font-family="Helvetica,sans-Serif" font-size="10.00">spdlog/spdlog.h</text>
</a>
</g>
</g>
<!-- Node2&#45;&gt;Node4 -->
<g id="edge3" class="edge">
<title>Node2&#45;&gt;Node4</title>
<path fill="none" stroke="midnightblue" d="M313.46,-123.4C325.94,-112.86 342.98,-98.48 355.76,-87.69"/>
<polygon fill="midnightblue" stroke="midnightblue" points="358.07,-90.32 363.45,-81.19 353.55,-84.97 358.07,-90.32"/>
</g>
<!-- Node6 -->
<g id="node6" class="node">
<title>Node6</title>
<g id="a_node6"><a xlink:title=" ">
<polygon fill="none" stroke="#bfbfbf" points="20.25,-190.5 20.25,-209.5 67.25,-209.5 67.25,-190.5 20.25,-190.5"/>
<text text-anchor="middle" x="43.75" y="-197.5" font-family="Helvetica,sans-Serif" font-size="10.00">deque</text>
</a>
</g>
</g>
<!-- Node5&#45;&gt;Node6 -->
<g id="edge5" class="edge">
<title>Node5&#45;&gt;Node6</title>
<path fill="none" stroke="midnightblue" d="M259.92,-246.46C209.15,-237.68 143.43,-225.5 77.22,-210.2"/>
<polygon fill="midnightblue" stroke="midnightblue" points="77.99,-206.79 67.45,-207.92 76.4,-213.6 77.99,-206.79"/>
</g>
<!-- Node7 -->
<g id="node7" class="node">
<title>Node7</title>
<g id="a_node7"><a xlink:title=" ">
<polygon fill="none" stroke="#bfbfbf" points="85.25,-190.5 85.25,-209.5 132.25,-209.5 132.25,-190.5 85.25,-190.5"/>
<text text-anchor="middle" x="108.75" y="-197.5" font-family="Helvetica,sans-Serif" font-size="10.00">vector</text>
</a>
</g>
</g>
<!-- Node5&#45;&gt;Node7 -->
<g id="edge6" class="edge">
<title>Node5&#45;&gt;Node7</title>
<path fill="none" stroke="midnightblue" d="M286.41,-246.42C247.73,-237.12 195.93,-224.43 142.19,-210.33"/>
<polygon fill="midnightblue" stroke="midnightblue" points="143.05,-206.93 132.49,-207.77 141.27,-213.7 143.05,-206.93"/>
</g>
<!-- Node8 -->
<g id="node8" class="node">
<title>Node8</title>
<g id="a_node8"><a xlink:title=" ">
<polygon fill="none" stroke="#bfbfbf" points="150.25,-190.5 150.25,-209.5 275.25,-209.5 275.25,-190.5 150.25,-190.5"/>
<text text-anchor="middle" x="212.75" y="-197.5" font-family="Helvetica,sans-Serif" font-size="10.00">yarp/os/BufferedPort.h</text>
</a>
</g>
</g>
<!-- Node5&#45;&gt;Node8 -->
<g id="edge7" class="edge">
<title>Node5&#45;&gt;Node8</title>
<path fill="none" stroke="midnightblue" d="M314.23,-246.4C292.11,-236.51 262.78,-223.38 241.34,-213.79"/>
<polygon fill="midnightblue" stroke="midnightblue" points="242.66,-210.55 232.1,-209.66 239.8,-216.94 242.66,-210.55"/>
</g>
<!-- Node9 -->
<g id="node9" class="node">
<title>Node9</title>
<g id="a_node9"><a xlink:title=" ">
<polygon fill="none" stroke="#bfbfbf" points="293.75,-190.5 293.75,-209.5 397.75,-209.5 397.75,-190.5 293.75,-190.5"/>
<text text-anchor="middle" x="345.75" y="-197.5" font-family="Helvetica,sans-Serif" font-size="10.00">yarp/os/Property.h</text>
</a>
</g>
</g>
<!-- Node5&#45;&gt;Node9 -->
<g id="edge8" class="edge">
<title>Node5&#45;&gt;Node9</title>
<path fill="none" stroke="midnightblue" d="M345.75,-246.4C345.75,-238.47 345.75,-228.46 345.75,-219.86"/>
<polygon fill="midnightblue" stroke="midnightblue" points="349.25,-219.66 345.75,-209.66 342.25,-219.66 349.25,-219.66"/>
</g>
<!-- Node10 -->
<g id="node10" class="node">
<title>Node10</title>
<g id="a_node10"><a xlink:title=" ">
<polygon fill="none" stroke="#bfbfbf" points="415.75,-190.5 415.75,-209.5 507.75,-209.5 507.75,-190.5 415.75,-190.5"/>
<text text-anchor="middle" x="461.75" y="-197.5" font-family="Helvetica,sans-Serif" font-size="10.00">yarp/os/Value.h</text>
</a>
</g>
</g>
<!-- Node5&#45;&gt;Node10 -->
<g id="edge9" class="edge">
<title>Node5&#45;&gt;Node10</title>
<path fill="none" stroke="midnightblue" d="M373.24,-246.4C392.18,-236.68 417.19,-223.86 435.79,-214.31"/>
<polygon fill="midnightblue" stroke="midnightblue" points="437.57,-217.34 444.87,-209.66 434.38,-211.11 437.57,-217.34"/>
</g>
<!-- Node11 -->
<g id="node11" class="node">
<title>Node11</title>
<g id="a_node11"><a xlink:title=" ">
<polygon fill="none" stroke="#bfbfbf" points="525.75,-190.5 525.75,-209.5 623.75,-209.5 623.75,-190.5 525.75,-190.5"/>
<text text-anchor="middle" x="574.75" y="-197.5" font-family="Helvetica,sans-Serif" font-size="10.00">yarp/sig/Vector.h</text>
</a>
</g>
</g>
<!-- Node5&#45;&gt;Node11 -->
<g id="edge10" class="edge">
<title>Node5&#45;&gt;Node11</title>
<path fill="none" stroke="midnightblue" d="M399.73,-246.47C440.1,-235.99 494.55,-221.84 531.94,-212.12"/>
<polygon fill="midnightblue" stroke="midnightblue" points="533.21,-215.41 542.01,-209.51 531.45,-208.63 533.21,-215.41"/>
</g>
<!-- Node12 -->
<g id="node12" class="node">
<title>Node12</title>
<g id="a_node12"><a xlink:title=" ">
<polygon fill="none" stroke="#bfbfbf" points="642.25,-190.5 642.25,-209.5 809.25,-209.5 809.25,-190.5 642.25,-190.5"/>
<text text-anchor="middle" x="725.75" y="-197.5" font-family="Helvetica,sans-Serif" font-size="10.00">iDynTree/Core/VectorDynSize.h</text>
</a>
</g>
</g>
<!-- Node5&#45;&gt;Node12 -->
<g id="edge11" class="edge">
<title>Node5&#45;&gt;Node12</title>
<path fill="none" stroke="midnightblue" d="M431.98,-247C501.57,-236.1 597.96,-221.01 661.06,-211.13"/>
<polygon fill="midnightblue" stroke="midnightblue" points="661.94,-214.53 671.28,-209.53 660.86,-207.62 661.94,-214.53"/>
</g>
<!-- Node13 -->
<g id="node13" class="node">
<title>Node13</title>
<g id="a_node13"><a xlink:href="Helper_8tpp.html" target="_top" xlink:title=" ">
<polygon fill="none" stroke="black" points="827.25,-190.5 827.25,-209.5 894.25,-209.5 894.25,-190.5 827.25,-190.5"/>
<text text-anchor="middle" x="860.75" y="-197.5" font-family="Helvetica,sans-Serif" font-size="10.00">Helper.tpp</text>
</a>
</g>
</g>
<!-- Node5&#45;&gt;Node13 -->
<g id="edge12" class="edge">
<title>Node5&#45;&gt;Node13</title>
<path fill="none" stroke="midnightblue" d="M431.99,-254.02C524.85,-246.43 677.06,-232.19 816.84,-210.17"/>
<polygon fill="midnightblue" stroke="midnightblue" points="817.56,-213.6 826.88,-208.58 816.45,-206.69 817.56,-213.6"/>
</g>
<!-- Node13&#45;&gt;Node2 -->
<g id="edge25" class="edge">
<title>Node13&#45;&gt;Node2</title>
<path fill="none" stroke="midnightblue" d="M826.89,-191.39C824.14,-190.88 821.4,-190.41 818.75,-190 671.16,-167.12 498.38,-152.83 393.3,-145.51"/>
<polygon fill="midnightblue" stroke="midnightblue" points="393.25,-142 383.03,-144.8 392.77,-148.98 393.25,-142"/>
</g>
<!-- Node14 -->
<g id="node14" class="node">
<title>Node14</title>
<g id="a_node14"><a xlink:title=" ">
<polygon fill="none" stroke="#bfbfbf" points="728.25,-0.5 728.25,-19.5 797.25,-19.5 797.25,-0.5 728.25,-0.5"/>
<text text-anchor="middle" x="762.75" y="-7.5" font-family="Helvetica,sans-Serif" font-size="10.00">type_traits</text>
</a>
</g>
</g>
<!-- Node13&#45;&gt;Node14 -->
<g id="edge13" class="edge">
<title>Node13&#45;&gt;Node14</title>
<path fill="none" stroke="midnightblue" d="M851.04,-190.25C832.3,-172.74 791.36,-131.22 772.75,-87 765.02,-68.64 762.91,-45.77 762.49,-29.94"/>
<polygon fill="midnightblue" stroke="midnightblue" points="765.99,-29.8 762.43,-19.82 758.99,-29.84 765.99,-29.8"/>
</g>
<!-- Node15 -->
<g id="node15" class="node">
<title>Node15</title>
<g id="a_node15"><a xlink:href="TemplateHelpers_8h_source.html" target="_top" xlink:title=" ">
<polygon fill="none" stroke="black" points="781.75,-56.5 781.75,-86.5 939.75,-86.5 939.75,-56.5 781.75,-56.5"/>
<text text-anchor="start" x="789.75" y="-74.5" font-family="Helvetica,sans-Serif" font-size="10.00">BipedalLocomotion/Generic</text>
<text text-anchor="middle" x="860.75" y="-63.5" font-family="Helvetica,sans-Serif" font-size="10.00">Container/TemplateHelpers.h</text>
</a>
</g>
</g>
<!-- Node13&#45;&gt;Node15 -->
<g id="edge14" class="edge">
<title>Node13&#45;&gt;Node15</title>
<path fill="none" stroke="midnightblue" d="M860.75,-190.31C860.75,-171.3 860.75,-125.47 860.75,-96.9"/>
<polygon fill="midnightblue" stroke="midnightblue" points="864.25,-96.89 860.75,-86.89 857.25,-96.89 864.25,-96.89"/>
</g>
<!-- Node18 -->
<g id="node18" class="node">
<title>Node18</title>
<g id="a_node18"><a xlink:href="Vector_8h_source.html" target="_top" xlink:title=" ">
<polygon fill="none" stroke="black" points="1053.25,-123.5 1053.25,-153.5 1204.25,-153.5 1204.25,-123.5 1053.25,-123.5"/>
<text text-anchor="start" x="1061.25" y="-141.5" font-family="Helvetica,sans-Serif" font-size="10.00">BipedalLocomotion/Generic</text>
<text text-anchor="middle" x="1128.75" y="-130.5" font-family="Helvetica,sans-Serif" font-size="10.00">Container/Vector.h</text>
</a>
</g>
</g>
<!-- Node13&#45;&gt;Node18 -->
<g id="edge18" class="edge">
<title>Node13&#45;&gt;Node18</title>
<path fill="none" stroke="midnightblue" d="M894.42,-191.52C934.64,-182.6 1003.06,-167.4 1055.62,-155.74"/>
<polygon fill="midnightblue" stroke="midnightblue" points="1056.57,-159.11 1065.58,-153.53 1055.05,-152.28 1056.57,-159.11"/>
</g>
<!-- Node15&#45;&gt;Node14 -->
<g id="edge15" class="edge">
<title>Node15&#45;&gt;Node14</title>
<path fill="none" stroke="midnightblue" d="M837.52,-56.4C821.96,-46.95 801.55,-34.56 785.99,-25.11"/>
<polygon fill="midnightblue" stroke="midnightblue" points="787.37,-21.86 777.01,-19.66 783.74,-27.84 787.37,-21.86"/>
</g>
<!-- Node16 -->
<g id="node16" class="node">
<title>Node16</title>
<g id="a_node16"><a xlink:title=" ">
<polygon fill="none" stroke="#bfbfbf" points="819.25,-0.5 819.25,-19.5 892.25,-19.5 892.25,-0.5 819.25,-0.5"/>
<text text-anchor="middle" x="855.75" y="-7.5" font-family="Helvetica,sans-Serif" font-size="10.00">string_view</text>
</a>
</g>
</g>
<!-- Node15&#45;&gt;Node16 -->
<g id="edge16" class="edge">
<title>Node15&#45;&gt;Node16</title>
<path fill="none" stroke="midnightblue" d="M859.56,-56.4C858.9,-48.47 858.06,-38.46 857.33,-29.86"/>
<polygon fill="midnightblue" stroke="midnightblue" points="860.8,-29.33 856.48,-19.66 853.83,-29.92 860.8,-29.33"/>
</g>
<!-- Node17 -->
<g id="node17" class="node">
<title>Node17</title>
<g id="a_node17"><a xlink:title=" ">
<polygon fill="none" stroke="#bfbfbf" points="910.25,-0.5 910.25,-19.5 979.25,-19.5 979.25,-0.5 910.25,-0.5"/>
<text text-anchor="middle" x="944.75" y="-7.5" font-family="Helvetica,sans-Serif" font-size="10.00">Eigen/Core</text>
</a>
</g>
</g>
<!-- Node15&#45;&gt;Node17 -->
<g id="edge17" class="edge">
<title>Node15&#45;&gt;Node17</title>
<path fill="none" stroke="midnightblue" d="M880.66,-56.4C893.74,-47.13 910.83,-35.03 924.07,-25.65"/>
<polygon fill="midnightblue" stroke="midnightblue" points="926.39,-28.29 932.53,-19.66 922.34,-22.58 926.39,-28.29"/>
</g>
<!-- Node18&#45;&gt;Node15 -->
<g id="edge20" class="edge">
<title>Node18&#45;&gt;Node15</title>
<path fill="none" stroke="midnightblue" d="M1070.93,-123.48C1029.15,-113.34 972.59,-99.63 928.67,-88.97"/>
<polygon fill="midnightblue" stroke="midnightblue" points="929.47,-85.57 918.93,-86.61 927.82,-92.37 929.47,-85.57"/>
</g>
<!-- Node19 -->
<g id="node19" class="node">
<title>Node19</title>
<g id="a_node19"><a xlink:title=" ">
<polygon fill="none" stroke="#bfbfbf" points="957.25,-62 957.25,-81 1078.25,-81 1078.25,-62 957.25,-62"/>
<text text-anchor="middle" x="1017.75" y="-69" font-family="Helvetica,sans-Serif" font-size="10.00">iDynTree/Core/Span.h</text>
</a>
</g>
</g>
<!-- Node18&#45;&gt;Node19 -->
<g id="edge19" class="edge">
<title>Node18&#45;&gt;Node19</title>
<path fill="none" stroke="midnightblue" d="M1104.66,-123.4C1085.79,-112.34 1059.69,-97.06 1041.03,-86.13"/>
<polygon fill="midnightblue" stroke="midnightblue" points="1042.67,-83.04 1032.28,-81.01 1039.14,-89.08 1042.67,-83.04"/>
</g>
<!-- Node20 -->
<g id="node20" class="node">
<title>Node20</title>
<g id="a_node20"><a xlink:title=" ">
<polygon fill="none" stroke="#bfbfbf" points="1096.25,-62 1096.25,-81 1161.25,-81 1161.25,-62 1096.25,-62"/>
<text text-anchor="middle" x="1128.75" y="-69" font-family="Helvetica,sans-Serif" font-size="10.00">functional</text>
</a>
</g>
</g>
<!-- Node18&#45;&gt;Node20 -->
<g id="edge21" class="edge">
<title>Node18&#45;&gt;Node20</title>
<path fill="none" stroke="midnightblue" d="M1128.75,-123.4C1128.75,-114.06 1128.75,-101.71 1128.75,-91.52"/>
<polygon fill="midnightblue" stroke="midnightblue" points="1132.25,-91.19 1128.75,-81.19 1125.25,-91.19 1132.25,-91.19"/>
</g>
<!-- Node21 -->
<g id="node21" class="node">
<title>Node21</title>
<g id="a_node21"><a xlink:title=" ">
<polygon fill="none" stroke="#bfbfbf" points="1179.75,-62 1179.75,-81 1231.75,-81 1231.75,-62 1179.75,-62"/>
<text text-anchor="middle" x="1205.75" y="-69" font-family="Helvetica,sans-Serif" font-size="10.00">cassert</text>
</a>
</g>
</g>
<!-- Node18&#45;&gt;Node21 -->
<g id="edge22" class="edge">
<title>Node18&#45;&gt;Node21</title>
<path fill="none" stroke="midnightblue" d="M1145.46,-123.4C1157.94,-112.86 1174.98,-98.48 1187.76,-87.69"/>
<polygon fill="midnightblue" stroke="midnightblue" points="1190.07,-90.32 1195.45,-81.19 1185.55,-84.97 1190.07,-90.32"/>
</g>
<!-- Node22 -->
<g id="node22" class="node">
<title>Node22</title>
<g id="a_node22"><a xlink:title=" ">
<polygon fill="none" stroke="#bfbfbf" points="1249.75,-62 1249.75,-81 1309.75,-81 1309.75,-62 1249.75,-62"/>
<text text-anchor="middle" x="1279.75" y="-69" font-family="Helvetica,sans-Serif" font-size="10.00">iostream</text>
</a>
</g>
</g>
<!-- Node18&#45;&gt;Node22 -->
<g id="edge23" class="edge">
<title>Node18&#45;&gt;Node22</title>
<path fill="none" stroke="midnightblue" d="M1161.51,-123.4C1188.01,-111.99 1224.97,-96.08 1250.48,-85.1"/>
<polygon fill="midnightblue" stroke="midnightblue" points="1252.19,-88.18 1259.99,-81.01 1249.42,-81.75 1252.19,-88.18"/>
</g>
<!-- Node23 -->
<g id="node23" class="node">
<title>Node23</title>
<g id="a_node23"><a xlink:title=" ">
<polygon fill="none" stroke="#bfbfbf" points="1327.75,-62 1327.75,-81 1385.75,-81 1385.75,-62 1327.75,-62"/>
<text text-anchor="middle" x="1356.75" y="-69" font-family="Helvetica,sans-Serif" font-size="10.00">memory</text>
</a>
</g>
</g>
<!-- Node18&#45;&gt;Node23 -->
<g id="edge24" class="edge">
<title>Node18&#45;&gt;Node23</title>
<path fill="none" stroke="midnightblue" d="M1187.84,-123.49C1225.58,-114.13 1275.39,-100.99 1318.75,-87 1321.16,-86.22 1323.64,-85.38 1326.13,-84.5"/>
<polygon fill="midnightblue" stroke="midnightblue" points="1327.41,-87.76 1335.59,-81.03 1324.99,-81.19 1327.41,-87.76"/>
</g>
</g>
</svg>
