<?xml version="1.0" encoding="UTF-8" standalone="no"?>
<!DOCTYPE svg PUBLIC "-//W3C//DTD SVG 1.1//EN"
 "http://www.w3.org/Graphics/SVG/1.1/DTD/svg11.dtd">
<!-- Generated by graphviz version 2.43.0 (0)
 -->
<!-- Title: System/include/BipedalLocomotion/System/IClock.h Pages: 1 -->
<svg width="611pt" height="251pt"
 viewBox="0.00 0.00 610.50 251.00" xmlns="http://www.w3.org/2000/svg" xmlns:xlink="http://www.w3.org/1999/xlink">
<g id="graph0" class="graph" transform="scale(1 1) rotate(0) translate(4 247)">
<title>System/include/BipedalLocomotion/System/IClock.h</title>
<!-- Node1 -->
<g id="node1" class="node">
<title>Node1</title>
<g id="a_node1"><a xlink:title=" ">
<polygon fill="#bfbfbf" stroke="black" points="232,-212.5 232,-242.5 420,-242.5 420,-212.5 232,-212.5"/>
<text text-anchor="start" x="240" y="-230.5" font-family="Helvetica,sans-Serif" font-size="10.00">System/include/BipedalLocomotion</text>
<text text-anchor="middle" x="326" y="-219.5" font-family="Helvetica,sans-Serif" font-size="10.00">/System/IClock.h</text>
</a>
</g>
</g>
<!-- Node2 -->
<g id="node2" class="node">
<title>Node2</title>
<g id="a_node2"><a xlink:href="Clock_8h.html" target="_top" xlink:title=" ">
<polygon fill="none" stroke="black" points="86,-67.5 86,-97.5 274,-97.5 274,-67.5 86,-67.5"/>
<text text-anchor="start" x="94" y="-85.5" font-family="Helvetica,sans-Serif" font-size="10.00">System/include/BipedalLocomotion</text>
<text text-anchor="middle" x="180" y="-74.5" font-family="Helvetica,sans-Serif" font-size="10.00">/System/Clock.h</text>
</a>
</g>
</g>
<!-- Node1&#45;&gt;Node2 -->
<g id="edge1" class="edge">
<title>Node1&#45;&gt;Node2</title>
<path fill="none" stroke="midnightblue" d="M272.04,-208.34C254.75,-200.49 236.58,-189.87 223,-176 200.94,-153.48 188.77,-117.56 183.4,-97.76"/>
<polygon fill="midnightblue" stroke="midnightblue" points="270.96,-211.68 281.52,-212.41 273.72,-205.25 270.96,-211.68"/>
</g>
<!-- Node5 -->
<g id="node5" class="node">
<title>Node5</title>
<g id="a_node5"><a xlink:href="StdClock_8h.html" target="_top" xlink:title=" ">
<polygon fill="none" stroke="black" points="232,-140 232,-170 420,-170 420,-140 232,-140"/>
<text text-anchor="start" x="240" y="-158" font-family="Helvetica,sans-Serif" font-size="10.00">System/include/BipedalLocomotion</text>
<text text-anchor="middle" x="326" y="-147" font-family="Helvetica,sans-Serif" font-size="10.00">/System/StdClock.h</text>
</a>
</g>
</g>
<!-- Node1&#45;&gt;Node5 -->
<g id="edge4" class="edge">
<title>Node1&#45;&gt;Node5</title>
<path fill="none" stroke="midnightblue" d="M326,-202.23C326,-191.57 326,-179.41 326,-170.25"/>
<polygon fill="midnightblue" stroke="midnightblue" points="322.5,-202.23 326,-212.23 329.5,-202.23 322.5,-202.23"/>
</g>
<!-- Node7 -->
<g id="node7" class="node">
<title>Node7</title>
<g id="a_node7"><a xlink:href="YarpClock_8h.html" target="_top" xlink:title=" ">
<polygon fill="none" stroke="black" points="442.5,-134.5 442.5,-175.5 597.5,-175.5 597.5,-134.5 442.5,-134.5"/>
<text text-anchor="start" x="450.5" y="-163.5" font-family="Helvetica,sans-Serif" font-size="10.00">System/YarpImplementation</text>
<text text-anchor="start" x="450.5" y="-152.5" font-family="Helvetica,sans-Serif" font-size="10.00">/include/BipedalLocomotion</text>
<text text-anchor="middle" x="520" y="-141.5" font-family="Helvetica,sans-Serif" font-size="10.00">/System/YarpClock.h</text>
</a>
</g>
</g>
<!-- Node1&#45;&gt;Node7 -->
<g id="edge7" class="edge">
<title>Node1&#45;&gt;Node7</title>
<path fill="none" stroke="midnightblue" d="M374.34,-208.93C402.26,-198.79 437.43,-186.01 466.21,-175.55"/>
<polygon fill="midnightblue" stroke="midnightblue" points="373,-205.7 364.79,-212.4 375.39,-212.28 373,-205.7"/>
</g>
<!-- Node3 -->
<g id="node3" class="node">
<title>Node3</title>
<g id="a_node3"><a xlink:href="AdvanceableRunner_8h.html" target="_top" xlink:title=" ">
<polygon fill="none" stroke="black" points="0,-0.5 0,-30.5 188,-30.5 188,-0.5 0,-0.5"/>
<text text-anchor="start" x="8" y="-18.5" font-family="Helvetica,sans-Serif" font-size="10.00">System/include/BipedalLocomotion</text>
<text text-anchor="middle" x="94" y="-7.5" font-family="Helvetica,sans-Serif" font-size="10.00">/System/AdvanceableRunner.h</text>
</a>
</g>
</g>
<!-- Node2&#45;&gt;Node3 -->
<g id="edge2" class="edge">
<title>Node2&#45;&gt;Node3</title>
<path fill="none" stroke="midnightblue" d="M153.1,-61.17C139.95,-51.23 124.45,-39.51 112.62,-30.58"/>
<polygon fill="midnightblue" stroke="midnightblue" points="151.25,-64.16 161.34,-67.4 155.47,-58.57 151.25,-64.16"/>
</g>
<!-- Node4 -->
<g id="node4" class="node">
<title>Node4</title>
<g id="a_node4"><a xlink:href="Clock_8cpp.html" target="_top" xlink:title=" ">
<polygon fill="none" stroke="black" points="206.5,-6 206.5,-25 327.5,-25 327.5,-6 206.5,-6"/>
<text text-anchor="middle" x="267" y="-13" font-family="Helvetica,sans-Serif" font-size="10.00">System/src/Clock.cpp</text>
</a>
</g>
</g>
<!-- Node2&#45;&gt;Node4 -->
<g id="edge3" class="edge">
<title>Node2&#45;&gt;Node4</title>
<path fill="none" stroke="midnightblue" d="M206.98,-61.34C223.22,-49.21 243.06,-34.39 255.36,-25.19"/>
<polygon fill="midnightblue" stroke="midnightblue" points="204.79,-58.61 198.88,-67.4 208.98,-64.21 204.79,-58.61"/>
</g>
<!-- Node5&#45;&gt;Node2 -->
<g id="edge5" class="edge">
<title>Node5&#45;&gt;Node2</title>
<path fill="none" stroke="midnightblue" d="M287.75,-135.53C263.16,-123.66 231.71,-108.47 209.14,-97.57"/>
<polygon fill="midnightblue" stroke="midnightblue" points="286.28,-138.71 296.81,-139.9 289.32,-132.4 286.28,-138.71"/>
</g>
<!-- Node6 -->
<g id="node6" class="node">
<title>Node6</title>
<g id="a_node6"><a xlink:href="StdClock_8cpp.html" target="_top" xlink:title=" ">
<polygon fill="none" stroke="black" points="292.5,-73 292.5,-92 429.5,-92 429.5,-73 292.5,-73"/>
<text text-anchor="middle" x="361" y="-80" font-family="Helvetica,sans-Serif" font-size="10.00">System/src/StdClock.cpp</text>
</a>
</g>
</g>
<!-- Node5&#45;&gt;Node6 -->
<g id="edge6" class="edge">
<title>Node5&#45;&gt;Node6</title>
<path fill="none" stroke="midnightblue" d="M337.55,-130.74C344.06,-117.62 351.83,-101.98 356.58,-92.39"/>
<polygon fill="midnightblue" stroke="midnightblue" points="334.39,-129.22 333.08,-139.73 340.66,-132.33 334.39,-129.22"/>
</g>
<!-- Node8 -->
<g id="node8" class="node">
<title>Node8</title>
<g id="a_node8"><a xlink:href="YarpClock_8cpp.html" target="_top" xlink:title=" ">
<polygon fill="none" stroke="black" points="447.5,-67.5 447.5,-97.5 602.5,-97.5 602.5,-67.5 447.5,-67.5"/>
<text text-anchor="start" x="455.5" y="-85.5" font-family="Helvetica,sans-Serif" font-size="10.00">System/YarpImplementation</text>
<text text-anchor="middle" x="525" y="-74.5" font-family="Helvetica,sans-Serif" font-size="10.00">/src/YarpClock.cpp</text>
</a>
</g>
</g>
<!-- Node7&#45;&gt;Node8 -->
<g id="edge8" class="edge">
<title>Node7&#45;&gt;Node8</title>
<path fill="none" stroke="midnightblue" d="M522.1,-124.38C522.75,-115.21 523.44,-105.53 523.98,-97.89"/>
<polygon fill="midnightblue" stroke="midnightblue" points="518.61,-124.14 521.39,-134.36 525.59,-124.63 518.61,-124.14"/>
</g>
</g>
</svg>
