<?xml version="1.0" encoding="UTF-8" standalone="no"?>
<!DOCTYPE svg PUBLIC "-//W3C//DTD SVG 1.1//EN"
 "http://www.w3.org/Graphics/SVG/1.1/DTD/svg11.dtd">
<!-- Generated by graphviz version 2.43.0 (0)
 -->
<!-- Title: Graphical Class Hierarchy Pages: 1 -->
<svg width="323pt" height="137pt"
 viewBox="0.00 0.00 323.00 137.00" xmlns="http://www.w3.org/2000/svg" xmlns:xlink="http://www.w3.org/1999/xlink">
<g id="graph0" class="graph" transform="scale(1 1) rotate(0) translate(4 133)">
<title>Graphical Class Hierarchy</title>
<!-- Node0 -->
<g id="node1" class="node">
<title>Node0</title>
<g id="a_node1"><a xlink:href="structBipedalLocomotion_1_1Contacts_1_1ContactBase.html" target="_top" xlink:title="Definition of the type of contact base class.">
<polygon fill="none" stroke="black" points="0,-49.5 0,-79.5 127,-79.5 127,-49.5 0,-49.5"/>
<text text-anchor="start" x="8" y="-67.5" font-family="Helvetica,sans-Serif" font-size="10.00">BipedalLocomotion::</text>
<text text-anchor="middle" x="63.5" y="-56.5" font-family="Helvetica,sans-Serif" font-size="10.00">Contacts::ContactBase</text>
</a>
</g>
</g>
<!-- Node1 -->
<g id="node2" class="node">
<title>Node1</title>
<g id="a_node2"><a xlink:href="structBipedalLocomotion_1_1Contacts_1_1ContactWrench.html" target="_top" xlink:title="Definition of an ContactWrench structure.">
<polygon fill="none" stroke="black" points="169,-98.5 169,-128.5 309,-128.5 309,-98.5 169,-98.5"/>
<text text-anchor="start" x="177" y="-116.5" font-family="Helvetica,sans-Serif" font-size="10.00">BipedalLocomotion::</text>
<text text-anchor="middle" x="239" y="-105.5" font-family="Helvetica,sans-Serif" font-size="10.00">Contacts::ContactWrench</text>
</a>
</g>
</g>
<!-- Node0&#45;&gt;Node1 -->
<g id="edge1" class="edge">
<title>Node0&#45;&gt;Node1</title>
<path fill="none" stroke="midnightblue" d="M127.6,-82.32C146.33,-87.61 166.66,-93.35 184.71,-98.45"/>
<polygon fill="midnightblue" stroke="midnightblue" points="128.55,-78.95 117.97,-79.6 126.64,-85.69 128.55,-78.95"/>
</g>
<!-- Node2 -->
<g id="node3" class="node">
<title>Node2</title>
<g id="a_node3"><a xlink:href="structBipedalLocomotion_1_1Contacts_1_1EstimatedContact.html" target="_top" xlink:title="Definition of an Estimated Contact structure.">
<polygon fill="none" stroke="black" points="163,-49.5 163,-79.5 315,-79.5 315,-49.5 163,-49.5"/>
<text text-anchor="start" x="171" y="-67.5" font-family="Helvetica,sans-Serif" font-size="10.00">BipedalLocomotion::</text>
<text text-anchor="middle" x="239" y="-56.5" font-family="Helvetica,sans-Serif" font-size="10.00">Contacts::EstimatedContact</text>
</a>
</g>
</g>
<!-- Node0&#45;&gt;Node2 -->
<g id="edge2" class="edge">
<title>Node0&#45;&gt;Node2</title>
<path fill="none" stroke="midnightblue" d="M137.29,-64.5C145.7,-64.5 154.29,-64.5 162.74,-64.5"/>
<polygon fill="midnightblue" stroke="midnightblue" points="137.14,-61 127.14,-64.5 137.14,-68 137.14,-61"/>
</g>
<!-- Node3 -->
<g id="node4" class="node">
<title>Node3</title>
<g id="a_node4"><a xlink:href="structBipedalLocomotion_1_1Contacts_1_1PlannedContact.html" target="_top" xlink:title="Definition of a Planned Contact structure.">
<polygon fill="none" stroke="black" points="168,-0.5 168,-30.5 310,-30.5 310,-0.5 168,-0.5"/>
<text text-anchor="start" x="176" y="-18.5" font-family="Helvetica,sans-Serif" font-size="10.00">BipedalLocomotion::</text>
<text text-anchor="middle" x="239" y="-7.5" font-family="Helvetica,sans-Serif" font-size="10.00">Contacts::PlannedContact</text>
</a>
</g>
</g>
<!-- Node0&#45;&gt;Node3 -->
<g id="edge3" class="edge">
<title>Node0&#45;&gt;Node3</title>
<path fill="none" stroke="midnightblue" d="M127.6,-46.68C146.33,-41.39 166.66,-35.65 184.71,-30.55"/>
<polygon fill="midnightblue" stroke="midnightblue" points="126.64,-43.31 117.97,-49.4 128.55,-50.05 126.64,-43.31"/>
</g>
</g>
</svg>
