<?xml version="1.0" encoding="UTF-8" standalone="no"?>
<!DOCTYPE svg PUBLIC "-//W3C//DTD SVG 1.1//EN"
 "http://www.w3.org/Graphics/SVG/1.1/DTD/svg11.dtd">
<!-- Generated by graphviz version 2.43.0 (0)
 -->
<!-- Title: Graphical Class Hierarchy Pages: 1 -->
<svg width="577pt" height="61pt"
 viewBox="0.00 0.00 577.00 61.00" xmlns="http://www.w3.org/2000/svg" xmlns:xlink="http://www.w3.org/1999/xlink">
<g id="graph0" class="graph" transform="scale(1 1) rotate(0) translate(4 57)">
<title>Graphical Class Hierarchy</title>
<!-- Node0 -->
<g id="node1" class="node">
<title>Node0</title>
<g id="a_node1"><a xlink:href="classBipedalLocomotion_1_1System_1_1Advanceable.html" target="_top" xlink:title=" ">
<polygon fill="none" stroke="black" points="0,-0.5 0,-52.5 170,-52.5 170,-0.5 0,-0.5"/>
<text text-anchor="start" x="8" y="-40.5" font-family="Helvetica,sans-Serif" font-size="10.00">BipedalLocomotion::</text>
<text text-anchor="start" x="8" y="-29.5" font-family="Helvetica,sans-Serif" font-size="10.00">System::Advanceable</text>
<text text-anchor="start" x="8" y="-18.5" font-family="Helvetica,sans-Serif" font-size="10.00">&lt; EmptySignal, RecursiveLeast</text>
<text text-anchor="middle" x="85" y="-7.5" font-family="Helvetica,sans-Serif" font-size="10.00">SquareState &gt;</text>
</a>
</g>
</g>
<!-- Node1 -->
<g id="node2" class="node">
<title>Node1</title>
<g id="a_node2"><a xlink:href="classBipedalLocomotion_1_1System_1_1Source.html" target="_top" xlink:title=" ">
<polygon fill="none" stroke="black" points="206,-6 206,-47 384,-47 384,-6 206,-6"/>
<text text-anchor="start" x="214" y="-35" font-family="Helvetica,sans-Serif" font-size="10.00">BipedalLocomotion::</text>
<text text-anchor="start" x="214" y="-24" font-family="Helvetica,sans-Serif" font-size="10.00">System::Source&lt; RecursiveLeast</text>
<text text-anchor="middle" x="295" y="-13" font-family="Helvetica,sans-Serif" font-size="10.00">SquareState &gt;</text>
</a>
</g>
</g>
<!-- Node0&#45;&gt;Node1 -->
<g id="edge1" class="edge">
<title>Node0&#45;&gt;Node1</title>
<path fill="none" stroke="midnightblue" d="M180.06,-26.5C188.68,-26.5 197.39,-26.5 205.95,-26.5"/>
<polygon fill="midnightblue" stroke="midnightblue" points="180,-23 170,-26.5 180,-30 180,-23"/>
</g>
<!-- Node2 -->
<g id="node3" class="node">
<title>Node2</title>
<g id="a_node3"><a xlink:href="classBipedalLocomotion_1_1Estimators_1_1RecursiveLeastSquare.html" target="_top" xlink:title=" ">
<polygon fill="none" stroke="black" points="420,-6 420,-47 569,-47 569,-6 420,-6"/>
<text text-anchor="start" x="428" y="-35" font-family="Helvetica,sans-Serif" font-size="10.00">BipedalLocomotion::</text>
<text text-anchor="start" x="428" y="-24" font-family="Helvetica,sans-Serif" font-size="10.00">Estimators::RecursiveLeast</text>
<text text-anchor="middle" x="494.5" y="-13" font-family="Helvetica,sans-Serif" font-size="10.00">Square</text>
</a>
</g>
</g>
<!-- Node1&#45;&gt;Node2 -->
<g id="edge2" class="edge">
<title>Node1&#45;&gt;Node2</title>
<path fill="none" stroke="midnightblue" d="M394.17,-26.5C402.79,-26.5 411.41,-26.5 419.78,-26.5"/>
<polygon fill="midnightblue" stroke="midnightblue" points="394.06,-23 384.06,-26.5 394.06,-30 394.06,-23"/>
</g>
</g>
</svg>
