<?xml version="1.0" encoding="UTF-8" standalone="no"?>
<!DOCTYPE svg PUBLIC "-//W3C//DTD SVG 1.1//EN"
 "http://www.w3.org/Graphics/SVG/1.1/DTD/svg11.dtd">
<!-- Generated by graphviz version 2.43.0 (0)
 -->
<!-- Title: Graphical Class Hierarchy Pages: 1 -->
<svg width="556pt" height="105pt"
 viewBox="0.00 0.00 556.00 105.00" xmlns="http://www.w3.org/2000/svg" xmlns:xlink="http://www.w3.org/1999/xlink">
<g id="graph0" class="graph" transform="scale(1 1) rotate(0) translate(4 101)">
<title>Graphical Class Hierarchy</title>
<!-- Node145 -->
<g id="node1" class="node">
<title>Node145</title>
<g id="a_node1"><a xlink:href="classBipedalLocomotion_1_1System_1_1Advanceable.html" target="_top" xlink:title=" ">
<polygon fill="none" stroke="black" points="0,-44.5 0,-96.5 160,-96.5 160,-44.5 0,-44.5"/>
<text text-anchor="start" x="8" y="-84.5" font-family="Helvetica,sans-Serif" font-size="10.00">BipedalLocomotion::</text>
<text text-anchor="start" x="8" y="-73.5" font-family="Helvetica,sans-Serif" font-size="10.00">System::Advanceable</text>
<text text-anchor="start" x="8" y="-62.5" font-family="Helvetica,sans-Serif" font-size="10.00">&lt; EmptySignal, SensorBridge</text>
<text text-anchor="middle" x="80" y="-51.5" font-family="Helvetica,sans-Serif" font-size="10.00">MetaData &gt;</text>
</a>
</g>
</g>
<!-- Node146 -->
<g id="node2" class="node">
<title>Node146</title>
<g id="a_node2"><a xlink:href="classBipedalLocomotion_1_1System_1_1Source.html" target="_top" xlink:title=" ">
<polygon fill="none" stroke="black" points="196,-50 196,-91 364,-91 364,-50 196,-50"/>
<text text-anchor="start" x="204" y="-79" font-family="Helvetica,sans-Serif" font-size="10.00">BipedalLocomotion::</text>
<text text-anchor="start" x="204" y="-68" font-family="Helvetica,sans-Serif" font-size="10.00">System::Source&lt; SensorBridge</text>
<text text-anchor="middle" x="280" y="-57" font-family="Helvetica,sans-Serif" font-size="10.00">MetaData &gt;</text>
</a>
</g>
</g>
<!-- Node145&#45;&gt;Node146 -->
<g id="edge1" class="edge">
<title>Node145&#45;&gt;Node146</title>
<path fill="none" stroke="midnightblue" d="M170.37,-70.5C178.84,-70.5 187.4,-70.5 195.8,-70.5"/>
<polygon fill="midnightblue" stroke="midnightblue" points="170.11,-67 160.11,-70.5 170.11,-74 170.11,-67"/>
</g>
<!-- Node1 -->
<g id="node3" class="node">
<title>Node1</title>
<g id="a_node3"><a xlink:href="classBipedalLocomotion_1_1RobotInterface_1_1YarpSensorBridge.html" target="_top" xlink:title="YarpSensorBridge Yarp implementation of the ISensorBridge interface Currently available interfaces.">
<polygon fill="none" stroke="black" points="400,-22 400,-63 548,-63 548,-22 400,-22"/>
<text text-anchor="start" x="408" y="-51" font-family="Helvetica,sans-Serif" font-size="10.00">BipedalLocomotion::</text>
<text text-anchor="start" x="408" y="-40" font-family="Helvetica,sans-Serif" font-size="10.00">RobotInterface::YarpSensor</text>
<text text-anchor="middle" x="474" y="-29" font-family="Helvetica,sans-Serif" font-size="10.00">Bridge</text>
</a>
</g>
</g>
<!-- Node146&#45;&gt;Node1 -->
<g id="edge2" class="edge">
<title>Node146&#45;&gt;Node1</title>
<path fill="none" stroke="midnightblue" d="M374.15,-56.92C382.74,-55.66 391.36,-54.41 399.73,-53.18"/>
<polygon fill="midnightblue" stroke="midnightblue" points="373.49,-53.48 364.1,-58.38 374.5,-60.4 373.49,-53.48"/>
</g>
<!-- Node0 -->
<g id="node4" class="node">
<title>Node0</title>
<g id="a_node4"><a xlink:href="classBipedalLocomotion_1_1RobotInterface_1_1ISensorBridge.html" target="_top" xlink:title="Sensor bridge interface.">
<polygon fill="none" stroke="black" points="199,-0.5 199,-30.5 361,-30.5 361,-0.5 199,-0.5"/>
<text text-anchor="start" x="207" y="-18.5" font-family="Helvetica,sans-Serif" font-size="10.00">BipedalLocomotion::</text>
<text text-anchor="middle" x="280" y="-7.5" font-family="Helvetica,sans-Serif" font-size="10.00">RobotInterface::ISensorBridge</text>
</a>
</g>
</g>
<!-- Node0&#45;&gt;Node1 -->
<g id="edge3" class="edge">
<title>Node0&#45;&gt;Node1</title>
<path fill="none" stroke="midnightblue" d="M371.04,-28.16C380.69,-29.52 390.42,-30.89 399.84,-32.21"/>
<polygon fill="midnightblue" stroke="midnightblue" points="371.42,-24.68 361.03,-26.75 370.45,-31.61 371.42,-24.68"/>
</g>
</g>
</svg>
