<?xml version="1.0" encoding="UTF-8" standalone="no"?>
<!DOCTYPE svg PUBLIC "-//W3C//DTD SVG 1.1//EN"
 "http://www.w3.org/Graphics/SVG/1.1/DTD/svg11.dtd">
<!-- Generated by graphviz version 2.43.0 (0)
 -->
<!-- Title: Graphical Class Hierarchy Pages: 1 -->
<svg width="289pt" height="193pt"
 viewBox="0.00 0.00 289.00 193.00" xmlns="http://www.w3.org/2000/svg" xmlns:xlink="http://www.w3.org/1999/xlink">
<g id="graph0" class="graph" transform="scale(1 1) rotate(0) translate(4 189)">
<title>Graphical Class Hierarchy</title>
<!-- Node0 -->
<g id="node1" class="node">
<title>Node0</title>
<g id="a_node1"><a xlink:href="https://en.cppreference.com/w/cpp/types/integral_constant.html" xlink:title=" ">
<polygon fill="none" stroke="black" points="0,-83 0,-102 89,-102 89,-83 0,-83"/>
<text text-anchor="middle" x="44.5" y="-90" font-family="Helvetica,sans-Serif" font-size="10.00">std::false_type</text>
</a>
</g>
</g>
<!-- Node1 -->
<g id="node2" class="node">
<title>Node1</title>
<g id="a_node2"><a xlink:href="structBipedalLocomotion_1_1GenericContainer_1_1is__span__constructible.html" target="_top" xlink:title="is_span_constructible is a utility metafunction to check if iDynTree::Span is constructible given a r...">
<polygon fill="none" stroke="black" points="142,-132.5 142,-184.5 264,-184.5 264,-132.5 142,-132.5"/>
<text text-anchor="start" x="150" y="-172.5" font-family="Helvetica,sans-Serif" font-size="10.00">BipedalLocomotion::</text>
<text text-anchor="start" x="150" y="-161.5" font-family="Helvetica,sans-Serif" font-size="10.00">GenericContainer::is</text>
<text text-anchor="start" x="150" y="-150.5" font-family="Helvetica,sans-Serif" font-size="10.00">_span_constructible&lt;</text>
<text text-anchor="middle" x="203" y="-139.5" font-family="Helvetica,sans-Serif" font-size="10.00"> Class, typename &gt;</text>
</a>
</g>
</g>
<!-- Node0&#45;&gt;Node1 -->
<g id="edge1" class="edge">
<title>Node0&#45;&gt;Node1</title>
<path fill="none" stroke="midnightblue" d="M77.65,-106.06C96.11,-113.84 119.89,-123.87 141.7,-133.07"/>
<polygon fill="midnightblue" stroke="midnightblue" points="78.83,-102.76 68.26,-102.1 76.11,-109.21 78.83,-102.76"/>
</g>
<!-- Node2 -->
<g id="node3" class="node">
<title>Node2</title>
<g id="a_node3"><a xlink:href="structBipedalLocomotion_1_1GenericContainer_1_1is__vector.html" target="_top" xlink:title="is_vector is a utility metafunction used to check if T is a GenericContainer::Vector.">
<polygon fill="none" stroke="black" points="145,-72 145,-113 261,-113 261,-72 145,-72"/>
<text text-anchor="start" x="153" y="-101" font-family="Helvetica,sans-Serif" font-size="10.00">BipedalLocomotion::</text>
<text text-anchor="start" x="153" y="-90" font-family="Helvetica,sans-Serif" font-size="10.00">GenericContainer::is</text>
<text text-anchor="middle" x="203" y="-79" font-family="Helvetica,sans-Serif" font-size="10.00">_vector&lt; T &gt;</text>
</a>
</g>
</g>
<!-- Node0&#45;&gt;Node2 -->
<g id="edge2" class="edge">
<title>Node0&#45;&gt;Node2</title>
<path fill="none" stroke="midnightblue" d="M99.51,-92.5C114.16,-92.5 130.06,-92.5 144.88,-92.5"/>
<polygon fill="midnightblue" stroke="midnightblue" points="99.09,-89 89.09,-92.5 99.09,-96 99.09,-89"/>
</g>
<!-- Node3 -->
<g id="node4" class="node">
<title>Node3</title>
<g id="a_node4"><a xlink:href="structBipedalLocomotion_1_1GenericContainer_1_1is__vector__constructible.html" target="_top" xlink:title="is_vector_constructible is a utility metafunction to check if GenericContainer::Vector is constructib...">
<polygon fill="none" stroke="black" points="125,-0.5 125,-52.5 281,-52.5 281,-0.5 125,-0.5"/>
<text text-anchor="start" x="133" y="-40.5" font-family="Helvetica,sans-Serif" font-size="10.00">BipedalLocomotion::</text>
<text text-anchor="start" x="133" y="-29.5" font-family="Helvetica,sans-Serif" font-size="10.00">GenericContainer::is</text>
<text text-anchor="start" x="133" y="-18.5" font-family="Helvetica,sans-Serif" font-size="10.00">_vector_constructible</text>
<text text-anchor="middle" x="203" y="-7.5" font-family="Helvetica,sans-Serif" font-size="10.00">&lt; T, typename, typename &gt;</text>
</a>
</g>
</g>
<!-- Node0&#45;&gt;Node3 -->
<g id="edge3" class="edge">
<title>Node0&#45;&gt;Node3</title>
<path fill="none" stroke="midnightblue" d="M77.73,-78.91C95.79,-71.29 118.93,-61.53 140.34,-52.5"/>
<polygon fill="midnightblue" stroke="midnightblue" points="76.11,-75.79 68.26,-82.9 78.83,-82.24 76.11,-75.79"/>
</g>
</g>
</svg>
