<?xml version="1.0" encoding="UTF-8" standalone="no"?>
<!DOCTYPE svg PUBLIC "-//W3C//DTD SVG 1.1//EN"
 "http://www.w3.org/Graphics/SVG/1.1/DTD/svg11.dtd">
<!-- Generated by graphviz version 2.43.0 (0)
 -->
<!-- Title: Graphical Class Hierarchy Pages: 1 -->
<svg width="276pt" height="88pt"
 viewBox="0.00 0.00 276.00 88.00" xmlns="http://www.w3.org/2000/svg" xmlns:xlink="http://www.w3.org/1999/xlink">
<g id="graph0" class="graph" transform="scale(1 1) rotate(0) translate(4 84)">
<title>Graphical Class Hierarchy</title>
<!-- Node0 -->
<g id="node1" class="node">
<title>Node0</title>
<g id="a_node1"><a xlink:href="classBipedalLocomotion_1_1System_1_1IClock.html" target="_top" xlink:title="IClock is the interface to the clock.">
<polygon fill="none" stroke="black" points="0,-24.5 0,-54.5 116,-54.5 116,-24.5 0,-24.5"/>
<text text-anchor="start" x="8" y="-42.5" font-family="Helvetica,sans-Serif" font-size="10.00">BipedalLocomotion::</text>
<text text-anchor="middle" x="58" y="-31.5" font-family="Helvetica,sans-Serif" font-size="10.00">System::IClock</text>
</a>
</g>
</g>
<!-- Node1 -->
<g id="node2" class="node">
<title>Node1</title>
<g id="a_node2"><a xlink:href="classBipedalLocomotion_1_1System_1_1StdClock.html" target="_top" xlink:title="StdClock implements the IClock interface using &lt;chrono&gt; from c++std library.">
<polygon fill="none" stroke="black" points="152,-49.5 152,-79.5 268,-79.5 268,-49.5 152,-49.5"/>
<text text-anchor="start" x="160" y="-67.5" font-family="Helvetica,sans-Serif" font-size="10.00">BipedalLocomotion::</text>
<text text-anchor="middle" x="210" y="-56.5" font-family="Helvetica,sans-Serif" font-size="10.00">System::StdClock</text>
</a>
</g>
</g>
<!-- Node0&#45;&gt;Node1 -->
<g id="edge1" class="edge">
<title>Node0&#45;&gt;Node1</title>
<path fill="none" stroke="midnightblue" d="M126.03,-50.67C134.54,-52.09 143.19,-53.53 151.53,-54.92"/>
<polygon fill="midnightblue" stroke="midnightblue" points="126.58,-47.21 116.14,-49.02 125.42,-54.12 126.58,-47.21"/>
</g>
<!-- Node2 -->
<g id="node3" class="node">
<title>Node2</title>
<g id="a_node3"><a xlink:href="classBipedalLocomotion_1_1System_1_1YarpClock.html" target="_top" xlink:title="YarpClock implements the IClock interface using yarp functions.">
<polygon fill="none" stroke="black" points="152,-0.5 152,-30.5 268,-30.5 268,-0.5 152,-0.5"/>
<text text-anchor="start" x="160" y="-18.5" font-family="Helvetica,sans-Serif" font-size="10.00">BipedalLocomotion::</text>
<text text-anchor="middle" x="210" y="-7.5" font-family="Helvetica,sans-Serif" font-size="10.00">System::YarpClock</text>
</a>
</g>
</g>
<!-- Node0&#45;&gt;Node2 -->
<g id="edge2" class="edge">
<title>Node0&#45;&gt;Node2</title>
<path fill="none" stroke="midnightblue" d="M126.03,-28.77C134.54,-27.41 143.19,-26.03 151.53,-24.7"/>
<polygon fill="midnightblue" stroke="midnightblue" points="125.46,-25.32 116.14,-30.36 126.56,-32.23 125.46,-25.32"/>
</g>
</g>
</svg>
