<?xml version="1.0" encoding="UTF-8" standalone="no"?>
<!DOCTYPE svg PUBLIC "-//W3C//DTD SVG 1.1//EN"
 "http://www.w3.org/Graphics/SVG/1.1/DTD/svg11.dtd">
<!-- Generated by graphviz version 2.43.0 (0)
 -->
<!-- Title: Graphical Class Hierarchy Pages: 1 -->
<svg width="364pt" height="110pt"
 viewBox="0.00 0.00 364.00 110.00" xmlns="http://www.w3.org/2000/svg" xmlns:xlink="http://www.w3.org/1999/xlink">
<g id="graph0" class="graph" transform="scale(1 1) rotate(0) translate(4 106)">
<title>Graphical Class Hierarchy</title>
<!-- Node98 -->
<g id="node1" class="node">
<title>Node98</title>
<g id="a_node1"><a xlink:href="classBipedalLocomotion_1_1RobotInterface_1_1ICameraBridge.html" target="_top" xlink:title="Sensor bridge interface.">
<polygon fill="none" stroke="black" points="0,-9 0,-39 167,-39 167,-9 0,-9"/>
<text text-anchor="start" x="8" y="-27" font-family="Helvetica,sans-Serif" font-size="10.00">BipedalLocomotion::</text>
<text text-anchor="middle" x="83.5" y="-16" font-family="Helvetica,sans-Serif" font-size="10.00">RobotInterface::ICameraBridge</text>
</a>
</g>
</g>
<!-- Node1 -->
<g id="node2" class="node">
<title>Node1</title>
<g id="a_node2"><a xlink:href="classBipedalLocomotion_1_1Perception_1_1Capture_1_1RealSense.html" target="_top" xlink:title="Realsense driver class.">
<polygon fill="none" stroke="black" points="221.5,-60.5 221.5,-101.5 337.5,-101.5 337.5,-60.5 221.5,-60.5"/>
<text text-anchor="start" x="229.5" y="-89.5" font-family="Helvetica,sans-Serif" font-size="10.00">BipedalLocomotion::</text>
<text text-anchor="start" x="229.5" y="-78.5" font-family="Helvetica,sans-Serif" font-size="10.00">Perception::Capture</text>
<text text-anchor="middle" x="279.5" y="-67.5" font-family="Helvetica,sans-Serif" font-size="10.00">::RealSense</text>
</a>
</g>
</g>
<!-- Node98&#45;&gt;Node1 -->
<g id="edge1" class="edge">
<title>Node98&#45;&gt;Node1</title>
<path fill="none" stroke="midnightblue" d="M145.5,-41.92C169.69,-49.03 197.35,-57.16 221.17,-64.15"/>
<polygon fill="midnightblue" stroke="midnightblue" points="146.31,-38.51 135.72,-39.05 144.33,-45.23 146.31,-38.51"/>
</g>
<!-- Node99 -->
<g id="node3" class="node">
<title>Node99</title>
<g id="a_node3"><a xlink:href="classBipedalLocomotion_1_1RobotInterface_1_1YarpCameraBridge.html" target="_top" xlink:title="YarpCameraBridge Yarp implementation of the ICameraBridge interface Currently available interfaces.">
<polygon fill="none" stroke="black" points="203,-0.5 203,-41.5 356,-41.5 356,-0.5 203,-0.5"/>
<text text-anchor="start" x="211" y="-29.5" font-family="Helvetica,sans-Serif" font-size="10.00">BipedalLocomotion::</text>
<text text-anchor="start" x="211" y="-18.5" font-family="Helvetica,sans-Serif" font-size="10.00">RobotInterface::YarpCamera</text>
<text text-anchor="middle" x="279.5" y="-7.5" font-family="Helvetica,sans-Serif" font-size="10.00">Bridge</text>
</a>
</g>
</g>
<!-- Node98&#45;&gt;Node99 -->
<g id="edge2" class="edge">
<title>Node98&#45;&gt;Node99</title>
<path fill="none" stroke="midnightblue" d="M177.12,-22.57C185.72,-22.43 194.36,-22.3 202.79,-22.17"/>
<polygon fill="midnightblue" stroke="midnightblue" points="177,-19.07 167.05,-22.72 177.11,-26.07 177,-19.07"/>
</g>
<!-- Node0 -->
<g id="node4" class="node">
<title>Node0</title>
<g id="a_node4"><a xlink:href="classBipedalLocomotion_1_1RobotInterface_1_1IPointCloudBridge.html" target="_top" xlink:title="Sensor bridge interface.">
<polygon fill="none" stroke="black" points="8.5,-60.5 8.5,-101.5 158.5,-101.5 158.5,-60.5 8.5,-60.5"/>
<text text-anchor="start" x="16.5" y="-89.5" font-family="Helvetica,sans-Serif" font-size="10.00">BipedalLocomotion::</text>
<text text-anchor="start" x="16.5" y="-78.5" font-family="Helvetica,sans-Serif" font-size="10.00">RobotInterface::IPointCloud</text>
<text text-anchor="middle" x="83.5" y="-67.5" font-family="Helvetica,sans-Serif" font-size="10.00">Bridge</text>
</a>
</g>
</g>
<!-- Node0&#45;&gt;Node1 -->
<g id="edge3" class="edge">
<title>Node0&#45;&gt;Node1</title>
<path fill="none" stroke="midnightblue" d="M168.99,-81C186.65,-81 204.87,-81 221.26,-81"/>
<polygon fill="midnightblue" stroke="midnightblue" points="168.67,-77.5 158.67,-81 168.67,-84.5 168.67,-77.5"/>
</g>
</g>
</svg>
