<?xml version="1.0" encoding="UTF-8" standalone="no"?>
<!DOCTYPE svg PUBLIC "-//W3C//DTD SVG 1.1//EN"
 "http://www.w3.org/Graphics/SVG/1.1/DTD/svg11.dtd">
<!-- Generated by graphviz version 2.43.0 (0)
 -->
<!-- Title: Graphical Class Hierarchy Pages: 1 -->
<svg width="714pt" height="61pt"
 viewBox="0.00 0.00 714.00 61.00" xmlns="http://www.w3.org/2000/svg" xmlns:xlink="http://www.w3.org/1999/xlink">
<g id="graph0" class="graph" transform="scale(1 1) rotate(0) translate(4 57)">
<title>Graphical Class Hierarchy</title>
<!-- Node0 -->
<g id="node1" class="node">
<title>Node0</title>
<g id="a_node1"><a xlink:href="classBipedalLocomotion_1_1System_1_1Advanceable.html" target="_top" xlink:title=" ">
<polygon fill="none" stroke="black" points="0,-0.5 0,-52.5 179,-52.5 179,-0.5 0,-0.5"/>
<text text-anchor="start" x="8" y="-40.5" font-family="Helvetica,sans-Serif" font-size="10.00">BipedalLocomotion::</text>
<text text-anchor="start" x="8" y="-29.5" font-family="Helvetica,sans-Serif" font-size="10.00">System::Advanceable</text>
<text text-anchor="start" x="8" y="-18.5" font-family="Helvetica,sans-Serif" font-size="10.00">&lt; EmptySignal, IntegrationBased</text>
<text text-anchor="middle" x="89.5" y="-7.5" font-family="Helvetica,sans-Serif" font-size="10.00">IKState &gt;</text>
</a>
</g>
</g>
<!-- Node1 -->
<g id="node2" class="node">
<title>Node1</title>
<g id="a_node2"><a xlink:href="classBipedalLocomotion_1_1System_1_1Source.html" target="_top" xlink:title=" ">
<polygon fill="none" stroke="black" points="215,-6 215,-47 372,-47 372,-6 215,-6"/>
<text text-anchor="start" x="223" y="-35" font-family="Helvetica,sans-Serif" font-size="10.00">BipedalLocomotion::</text>
<text text-anchor="start" x="223" y="-24" font-family="Helvetica,sans-Serif" font-size="10.00">System::Source&lt; Integration</text>
<text text-anchor="middle" x="293.5" y="-13" font-family="Helvetica,sans-Serif" font-size="10.00">BasedIKState &gt;</text>
</a>
</g>
</g>
<!-- Node0&#45;&gt;Node1 -->
<g id="edge1" class="edge">
<title>Node0&#45;&gt;Node1</title>
<path fill="none" stroke="midnightblue" d="M189.16,-26.5C197.75,-26.5 206.36,-26.5 214.74,-26.5"/>
<polygon fill="midnightblue" stroke="midnightblue" points="189.1,-23 179.1,-26.5 189.1,-30 189.1,-23"/>
</g>
<!-- Node2 -->
<g id="node3" class="node">
<title>Node2</title>
<g id="a_node3"><a xlink:href="classBipedalLocomotion_1_1IK_1_1IntegrationBasedIK.html" target="_top" xlink:title="IntegrationBasedInverseKinematics implements the interface for the integration base inverse kinematic...">
<polygon fill="none" stroke="black" points="408,-11.5 408,-41.5 533,-41.5 533,-11.5 408,-11.5"/>
<text text-anchor="start" x="416" y="-29.5" font-family="Helvetica,sans-Serif" font-size="10.00">BipedalLocomotion::</text>
<text text-anchor="middle" x="470.5" y="-18.5" font-family="Helvetica,sans-Serif" font-size="10.00">IK::IntegrationBasedIK</text>
</a>
</g>
</g>
<!-- Node1&#45;&gt;Node2 -->
<g id="edge2" class="edge">
<title>Node1&#45;&gt;Node2</title>
<path fill="none" stroke="midnightblue" d="M382.17,-26.5C390.83,-26.5 399.48,-26.5 407.8,-26.5"/>
<polygon fill="midnightblue" stroke="midnightblue" points="382.02,-23 372.02,-26.5 382.02,-30 382.02,-23"/>
</g>
<!-- Node3 -->
<g id="node4" class="node">
<title>Node3</title>
<g id="a_node4"><a xlink:href="classBipedalLocomotion_1_1IK_1_1QPInverseKinematics.html" target="_top" xlink:title="QPInverseKinematics is a concrete class and implements an integration base inverse kinematics.">
<polygon fill="none" stroke="black" points="569,-11.5 569,-41.5 706,-41.5 706,-11.5 569,-11.5"/>
<text text-anchor="start" x="577" y="-29.5" font-family="Helvetica,sans-Serif" font-size="10.00">BipedalLocomotion::</text>
<text text-anchor="middle" x="637.5" y="-18.5" font-family="Helvetica,sans-Serif" font-size="10.00">IK::QPInverseKinematics</text>
</a>
</g>
</g>
<!-- Node2&#45;&gt;Node3 -->
<g id="edge3" class="edge">
<title>Node2&#45;&gt;Node3</title>
<path fill="none" stroke="midnightblue" d="M543.6,-26.5C552.04,-26.5 560.62,-26.5 568.99,-26.5"/>
<polygon fill="midnightblue" stroke="midnightblue" points="543.41,-23 533.41,-26.5 543.41,-30 543.41,-23"/>
</g>
</g>
</svg>
