<?xml version="1.0" encoding="UTF-8" standalone="no"?>
<!DOCTYPE svg PUBLIC "-//W3C//DTD SVG 1.1//EN"
 "http://www.w3.org/Graphics/SVG/1.1/DTD/svg11.dtd">
<!-- Generated by graphviz version 2.43.0 (0)
 -->
<!-- Title: Graphical Class Hierarchy Pages: 1 -->
<svg width="300pt" height="431pt"
 viewBox="0.00 0.00 300.00 431.00" xmlns="http://www.w3.org/2000/svg" xmlns:xlink="http://www.w3.org/1999/xlink">
<g id="graph0" class="graph" transform="scale(1 1) rotate(0) translate(4 427)">
<title>Graphical Class Hierarchy</title>
<!-- Node0 -->
<g id="node1" class="node">
<title>Node0</title>
<g id="a_node1"><a xlink:href="classBipedalLocomotion_1_1System_1_1LinearTask.html" target="_top" xlink:title="LinearTask describes a Linear Task element.">
<polygon fill="none" stroke="black" points="0,-196.5 0,-226.5 116,-226.5 116,-196.5 0,-196.5"/>
<text text-anchor="start" x="8" y="-214.5" font-family="Helvetica,sans-Serif" font-size="10.00">BipedalLocomotion::</text>
<text text-anchor="middle" x="58" y="-203.5" font-family="Helvetica,sans-Serif" font-size="10.00">System::LinearTask</text>
</a>
</g>
</g>
<!-- Node1 -->
<g id="node2" class="node">
<title>Node1</title>
<g id="a_node2"><a xlink:href="classBipedalLocomotion_1_1IK_1_1CoMTask.html" target="_top" xlink:title="SE3Task is a concrete implementation of the Task.">
<polygon fill="none" stroke="black" points="164,-392.5 164,-422.5 280,-422.5 280,-392.5 164,-392.5"/>
<text text-anchor="start" x="172" y="-410.5" font-family="Helvetica,sans-Serif" font-size="10.00">BipedalLocomotion::</text>
<text text-anchor="middle" x="222" y="-399.5" font-family="Helvetica,sans-Serif" font-size="10.00">IK::CoMTask</text>
</a>
</g>
</g>
<!-- Node0&#45;&gt;Node1 -->
<g id="edge1" class="edge">
<title>Node0&#45;&gt;Node1</title>
<path fill="none" stroke="midnightblue" d="M66.11,-236.53C77.92,-273.75 105.05,-343.56 152,-383.5 156.06,-386.95 160.64,-389.92 165.47,-392.46"/>
<polygon fill="midnightblue" stroke="midnightblue" points="69.32,-235.07 63.05,-226.52 62.62,-237.11 69.32,-235.07"/>
</g>
<!-- Node2 -->
<g id="node3" class="node">
<title>Node2</title>
<g id="a_node3"><a xlink:href="classBipedalLocomotion_1_1IK_1_1JointTrackingTask.html" target="_top" xlink:title="JointsTrackingTask is a concrete implementation of the Task.">
<polygon fill="none" stroke="black" points="164,-343.5 164,-373.5 280,-373.5 280,-343.5 164,-343.5"/>
<text text-anchor="start" x="172" y="-361.5" font-family="Helvetica,sans-Serif" font-size="10.00">BipedalLocomotion::</text>
<text text-anchor="middle" x="222" y="-350.5" font-family="Helvetica,sans-Serif" font-size="10.00">IK::JointTrackingTask</text>
</a>
</g>
</g>
<!-- Node0&#45;&gt;Node2 -->
<g id="edge2" class="edge">
<title>Node0&#45;&gt;Node2</title>
<path fill="none" stroke="midnightblue" d="M71.47,-235.64C86.89,-263.24 115.6,-308.01 152,-334.5 156.72,-337.93 161.97,-340.91 167.41,-343.48"/>
<polygon fill="midnightblue" stroke="midnightblue" points="74.44,-233.77 66.59,-226.66 68.29,-237.11 74.44,-233.77"/>
</g>
<!-- Node3 -->
<g id="node4" class="node">
<title>Node3</title>
<g id="a_node4"><a xlink:href="classBipedalLocomotion_1_1IK_1_1SE3Task.html" target="_top" xlink:title="SE3Task is a concrete implementation of the Task.">
<polygon fill="none" stroke="black" points="164,-294.5 164,-324.5 280,-324.5 280,-294.5 164,-294.5"/>
<text text-anchor="start" x="172" y="-312.5" font-family="Helvetica,sans-Serif" font-size="10.00">BipedalLocomotion::</text>
<text text-anchor="middle" x="222" y="-301.5" font-family="Helvetica,sans-Serif" font-size="10.00">IK::SE3Task</text>
</a>
</g>
</g>
<!-- Node0&#45;&gt;Node3 -->
<g id="edge3" class="edge">
<title>Node0&#45;&gt;Node3</title>
<path fill="none" stroke="midnightblue" d="M82.22,-233.68C100.13,-249.82 126.14,-271.26 152,-285.5 158,-288.8 164.54,-291.78 171.12,-294.42"/>
<polygon fill="midnightblue" stroke="midnightblue" points="84.33,-230.86 74.59,-226.68 79.6,-236.02 84.33,-230.86"/>
</g>
<!-- Node4 -->
<g id="node5" class="node">
<title>Node4</title>
<g id="a_node5"><a xlink:href="classBipedalLocomotion_1_1IK_1_1SO3Task.html" target="_top" xlink:title="SO3Task is a concrete implementation of the IK::Task.">
<polygon fill="none" stroke="black" points="164,-245.5 164,-275.5 280,-275.5 280,-245.5 164,-245.5"/>
<text text-anchor="start" x="172" y="-263.5" font-family="Helvetica,sans-Serif" font-size="10.00">BipedalLocomotion::</text>
<text text-anchor="middle" x="222" y="-252.5" font-family="Helvetica,sans-Serif" font-size="10.00">IK::SO3Task</text>
</a>
</g>
</g>
<!-- Node0&#45;&gt;Node4 -->
<g id="edge4" class="edge">
<title>Node0&#45;&gt;Node4</title>
<path fill="none" stroke="midnightblue" d="M118.88,-229.61C136.11,-234.82 154.7,-240.45 171.24,-245.45"/>
<polygon fill="midnightblue" stroke="midnightblue" points="119.51,-226.15 108.93,-226.6 117.49,-232.85 119.51,-226.15"/>
</g>
<!-- Node5 -->
<g id="node6" class="node">
<title>Node5</title>
<g id="a_node6"><a xlink:href="classBipedalLocomotion_1_1TSID_1_1BaseDynamicsTask.html" target="_top" xlink:title="BaseDynamicsTask is a concrete implementation of the Task.">
<polygon fill="none" stroke="black" points="152,-196.5 152,-226.5 292,-226.5 292,-196.5 152,-196.5"/>
<text text-anchor="start" x="160" y="-214.5" font-family="Helvetica,sans-Serif" font-size="10.00">BipedalLocomotion::</text>
<text text-anchor="middle" x="222" y="-203.5" font-family="Helvetica,sans-Serif" font-size="10.00">TSID::BaseDynamicsTask</text>
</a>
</g>
</g>
<!-- Node0&#45;&gt;Node5 -->
<g id="edge5" class="edge">
<title>Node0&#45;&gt;Node5</title>
<path fill="none" stroke="midnightblue" d="M126.3,-211.5C134.76,-211.5 143.42,-211.5 151.9,-211.5"/>
<polygon fill="midnightblue" stroke="midnightblue" points="126.12,-208 116.12,-211.5 126.12,-215 126.12,-208"/>
</g>
<!-- Node6 -->
<g id="node7" class="node">
<title>Node6</title>
<g id="a_node7"><a xlink:href="classBipedalLocomotion_1_1TSID_1_1JointDynamicsTask.html" target="_top" xlink:title="JointsDynamicsTask is a concrete implementation of the Task.">
<polygon fill="none" stroke="black" points="153.5,-147.5 153.5,-177.5 290.5,-177.5 290.5,-147.5 153.5,-147.5"/>
<text text-anchor="start" x="161.5" y="-165.5" font-family="Helvetica,sans-Serif" font-size="10.00">BipedalLocomotion::</text>
<text text-anchor="middle" x="222" y="-154.5" font-family="Helvetica,sans-Serif" font-size="10.00">TSID::JointDynamicsTask</text>
</a>
</g>
</g>
<!-- Node0&#45;&gt;Node6 -->
<g id="edge6" class="edge">
<title>Node0&#45;&gt;Node6</title>
<path fill="none" stroke="midnightblue" d="M118.88,-193.39C136.11,-188.18 154.7,-182.55 171.24,-177.55"/>
<polygon fill="midnightblue" stroke="midnightblue" points="117.49,-190.15 108.93,-196.4 119.51,-196.85 117.49,-190.15"/>
</g>
<!-- Node7 -->
<g id="node8" class="node">
<title>Node7</title>
<g id="a_node8"><a xlink:href="classBipedalLocomotion_1_1TSID_1_1JointTrackingTask.html" target="_top" xlink:title="JointsTrackingTask is a concrete implementation of the Task.">
<polygon fill="none" stroke="black" points="157.5,-98.5 157.5,-128.5 286.5,-128.5 286.5,-98.5 157.5,-98.5"/>
<text text-anchor="start" x="165.5" y="-116.5" font-family="Helvetica,sans-Serif" font-size="10.00">BipedalLocomotion::</text>
<text text-anchor="middle" x="222" y="-105.5" font-family="Helvetica,sans-Serif" font-size="10.00">TSID::JointTrackingTask</text>
</a>
</g>
</g>
<!-- Node0&#45;&gt;Node7 -->
<g id="edge7" class="edge">
<title>Node0&#45;&gt;Node7</title>
<path fill="none" stroke="midnightblue" d="M82.66,-189.45C100.61,-173.62 126.47,-152.66 152,-138.5 158.68,-134.79 166.03,-131.45 173.35,-128.5"/>
<polygon fill="midnightblue" stroke="midnightblue" points="80.1,-187.04 75,-196.32 84.78,-192.25 80.1,-187.04"/>
</g>
<!-- Node8 -->
<g id="node9" class="node">
<title>Node8</title>
<g id="a_node9"><a xlink:href="classBipedalLocomotion_1_1TSID_1_1SE3Task.html" target="_top" xlink:title="SE3Task is a concrete implementation of the OptimalControlElement.">
<polygon fill="none" stroke="black" points="164,-49.5 164,-79.5 280,-79.5 280,-49.5 164,-49.5"/>
<text text-anchor="start" x="172" y="-67.5" font-family="Helvetica,sans-Serif" font-size="10.00">BipedalLocomotion::</text>
<text text-anchor="middle" x="222" y="-56.5" font-family="Helvetica,sans-Serif" font-size="10.00">TSID::SE3Task</text>
</a>
</g>
</g>
<!-- Node0&#45;&gt;Node8 -->
<g id="edge8" class="edge">
<title>Node0&#45;&gt;Node8</title>
<path fill="none" stroke="midnightblue" d="M71.83,-187.2C87.4,-159.87 116.1,-115.87 152,-89.5 157.24,-85.65 163.13,-82.35 169.2,-79.52"/>
<polygon fill="midnightblue" stroke="midnightblue" points="68.67,-185.67 66.88,-196.11 74.79,-189.07 68.67,-185.67"/>
</g>
<!-- Node9 -->
<g id="node10" class="node">
<title>Node9</title>
<g id="a_node10"><a xlink:href="classBipedalLocomotion_1_1TSID_1_1SO3Task.html" target="_top" xlink:title="SO3Task is a concrete implementation of the System::LinearTask.">
<polygon fill="none" stroke="black" points="164,-0.5 164,-30.5 280,-30.5 280,-0.5 164,-0.5"/>
<text text-anchor="start" x="172" y="-18.5" font-family="Helvetica,sans-Serif" font-size="10.00">BipedalLocomotion::</text>
<text text-anchor="middle" x="222" y="-7.5" font-family="Helvetica,sans-Serif" font-size="10.00">TSID::SO3Task</text>
</a>
</g>
</g>
<!-- Node0&#45;&gt;Node9 -->
<g id="edge9" class="edge">
<title>Node0&#45;&gt;Node9</title>
<path fill="none" stroke="midnightblue" d="M66.3,-186.41C78.3,-149.44 105.59,-80.4 152,-40.5 156.44,-36.68 161.52,-33.42 166.85,-30.65"/>
<polygon fill="midnightblue" stroke="midnightblue" points="62.83,-185.77 63.19,-196.36 69.52,-187.86 62.83,-185.77"/>
</g>
</g>
</svg>
