<?xml version="1.0" encoding="UTF-8" standalone="no"?>
<!DOCTYPE svg PUBLIC "-//W3C//DTD SVG 1.1//EN"
 "http://www.w3.org/Graphics/SVG/1.1/DTD/svg11.dtd">
<!-- Generated by graphviz version 2.43.0 (0)
 -->
<!-- Title: Graphical Class Hierarchy Pages: 1 -->
<svg width="562pt" height="122pt"
 viewBox="0.00 0.00 562.00 121.50" xmlns="http://www.w3.org/2000/svg" xmlns:xlink="http://www.w3.org/1999/xlink">
<g id="graph0" class="graph" transform="scale(1 1) rotate(0) translate(4 117.5)">
<title>Graphical Class Hierarchy</title>
<!-- Node0 -->
<g id="node1" class="node">
<title>Node0</title>
<g id="a_node1"><a xlink:href="classBipedalLocomotion_1_1System_1_1Advanceable.html" target="_top" xlink:title=" ">
<polygon fill="none" stroke="black" points="0,-39 0,-80 188,-80 188,-39 0,-39"/>
<text text-anchor="start" x="8" y="-68" font-family="Helvetica,sans-Serif" font-size="10.00">BipedalLocomotion::</text>
<text text-anchor="start" x="8" y="-57" font-family="Helvetica,sans-Serif" font-size="10.00">System::Advanceable</text>
<text text-anchor="middle" x="94" y="-46" font-family="Helvetica,sans-Serif" font-size="10.00">&lt; EmptySignal, SO3PlannerState &gt;</text>
</a>
</g>
</g>
<!-- Node1 -->
<g id="node2" class="node">
<title>Node1</title>
<g id="a_node2"><a xlink:href="classBipedalLocomotion_1_1System_1_1Source.html" target="_top" xlink:title=" ">
<polygon fill="none" stroke="black" points="224,-39 224,-80 384,-80 384,-39 224,-39"/>
<text text-anchor="start" x="232" y="-68" font-family="Helvetica,sans-Serif" font-size="10.00">BipedalLocomotion::</text>
<text text-anchor="start" x="232" y="-57" font-family="Helvetica,sans-Serif" font-size="10.00">System::Source&lt; SO3Planner</text>
<text text-anchor="middle" x="304" y="-46" font-family="Helvetica,sans-Serif" font-size="10.00">State &gt;</text>
</a>
</g>
</g>
<!-- Node0&#45;&gt;Node1 -->
<g id="edge1" class="edge">
<title>Node0&#45;&gt;Node1</title>
<path fill="none" stroke="midnightblue" d="M198.12,-59.5C206.71,-59.5 215.32,-59.5 223.69,-59.5"/>
<polygon fill="midnightblue" stroke="midnightblue" points="198.05,-56 188.05,-59.5 198.05,-63 198.05,-56"/>
</g>
<!-- Node2 -->
<g id="node3" class="node">
<title>Node2</title>
<g id="a_node3"><a xlink:href="classBipedalLocomotion_1_1Planners_1_1SO3Planner.html" target="_top" xlink:title="SO3Planner implements a minimum jerk trajectory planner for object belonging to SO(3).">
<polygon fill="none" stroke="black" points="426.5,-72 426.5,-113 547.5,-113 547.5,-72 426.5,-72"/>
<text text-anchor="start" x="434.5" y="-101" font-family="Helvetica,sans-Serif" font-size="10.00">BipedalLocomotion::</text>
<text text-anchor="start" x="434.5" y="-90" font-family="Helvetica,sans-Serif" font-size="10.00">Planners::SO3Planner</text>
<text text-anchor="middle" x="487" y="-79" font-family="Helvetica,sans-Serif" font-size="10.00">&lt; trivialization &gt;</text>
</a>
</g>
</g>
<!-- Node1&#45;&gt;Node2 -->
<g id="edge2" class="edge">
<title>Node1&#45;&gt;Node2</title>
<path fill="none" stroke="midnightblue" d="M394.14,-75.75C405.06,-77.74 416.02,-79.74 426.36,-81.63"/>
<polygon fill="midnightblue" stroke="midnightblue" points="394.59,-72.28 384.13,-73.93 393.34,-79.16 394.59,-72.28"/>
</g>
<!-- Node3 -->
<g id="node4" class="node">
<title>Node3</title>
<g id="a_node4"><a xlink:href="classBipedalLocomotion_1_1Planners_1_1SO3Planner.html" target="_top" xlink:title=" ">
<polygon fill="none" stroke="black" points="420,-0.5 420,-52.5 554,-52.5 554,-0.5 420,-0.5"/>
<text text-anchor="start" x="428" y="-40.5" font-family="Helvetica,sans-Serif" font-size="10.00">BipedalLocomotion::</text>
<text text-anchor="start" x="428" y="-29.5" font-family="Helvetica,sans-Serif" font-size="10.00">Planners::SO3Planner</text>
<text text-anchor="start" x="428" y="-18.5" font-family="Helvetica,sans-Serif" font-size="10.00">&lt; LieGroupTrivialization</text>
<text text-anchor="middle" x="487" y="-7.5" font-family="Helvetica,sans-Serif" font-size="10.00">::Right &gt;</text>
</a>
</g>
</g>
<!-- Node1&#45;&gt;Node3 -->
<g id="edge3" class="edge">
<title>Node1&#45;&gt;Node3</title>
<path fill="none" stroke="midnightblue" d="M394.2,-43.24C402.81,-41.67 411.43,-40.1 419.76,-38.58"/>
<polygon fill="midnightblue" stroke="midnightblue" points="393.34,-39.84 384.13,-45.07 394.59,-46.72 393.34,-39.84"/>
</g>
</g>
</svg>
