<?xml version="1.0" encoding="UTF-8" standalone="no"?>
<!DOCTYPE svg PUBLIC "-//W3C//DTD SVG 1.1//EN"
 "http://www.w3.org/Graphics/SVG/1.1/DTD/svg11.dtd">
<!-- Generated by graphviz version 2.43.0 (0)
 -->
<!-- Title: ContinuousDynamicalSystem/include/BipedalLocomotion/ContinuousDynamicalSystem/Integrator.h Pages: 1 -->
<!--zoomable 385 -->
<svg id="main" version="1.1" xmlns="http://www.w3.org/2000/svg" xmlns:xlink="http://www.w3.org/1999/xlink" xml:space="preserve" onload="init(evt)">
<style type="text/css"><![CDATA[
.edge:hover path { stroke: red; }
.edge:hover polygon { stroke: red; fill: red; }
]]></style>
<script type="text/javascript"><![CDATA[
var edges = document.getElementsByTagName('g');
if (edges && edges.length) {
  for (var i=0;i<edges.length;i++) {
    if (edges[i].id.substr(0,4)=='edge') {
      edges[i].setAttribute('class','edge');
    }
  }
}
]]></script>
        <defs>
                <circle id="rim" cx="0" cy="0" r="7"/>
                <circle id="rim2" cx="0" cy="0" r="3.5"/>
                <g id="zoomPlus">
                        <use xlink:href="#rim" fill="#404040">
                                <set attributeName="fill" to="#808080" begin="zoomplus.mouseover" end="zoomplus.mouseout"/>
                        </use>
                        <path d="M-4,0h8M0,-4v8" fill="none" stroke="white" stroke-width="1.5" pointer-events="none"/>
                </g>
                <g id="zoomMin">
                        <use xlink:href="#rim" fill="#404040">
                                <set attributeName="fill" to="#808080" begin="zoomminus.mouseover" end="zoomminus.mouseout"/>
                        </use>
                        <path d="M-4,0h8" fill="none" stroke="white" stroke-width="1.5" pointer-events="none"/>
                </g>
                <g id="dirArrow">
                        <path fill="none" stroke="white" stroke-width="1.5" d="M0,-3.0v7 M-2.5,-0.5L0,-3.0L2.5,-0.5"/>
                </g>
               <g id="resetDef">
                       <use xlink:href="#rim2" fill="#404040">
                               <set attributeName="fill" to="#808080" begin="reset.mouseover" end="reset.mouseout"/>
                       </use>
               </g>
        </defs>

<script type="text/javascript">
var viewWidth = 944;
var viewHeight = 385;
var sectionId = 'dynsection-0';
</script>
<script xlink:href="svgpan.js"/>
<svg id="graph" class="graph">
<g id="viewport">
<title>ContinuousDynamicalSystem/include/BipedalLocomotion/ContinuousDynamicalSystem/Integrator.h</title>
<!-- Node1 -->
<g id="node1" class="node">
<title>Node1</title>
<g id="a_node1"><a xlink:title=" ">
<polygon fill="#bfbfbf" stroke="black" points="417,-324.5 417,-376.5 581,-376.5 581,-324.5 417,-324.5"/>
<text text-anchor="start" x="425" y="-364.5" font-family="Helvetica,sans-Serif" font-size="10.00">ContinuousDynamicalSystem</text>
<text text-anchor="start" x="425" y="-353.5" font-family="Helvetica,sans-Serif" font-size="10.00">/include/BipedalLocomotion</text>
<text text-anchor="start" x="425" y="-342.5" font-family="Helvetica,sans-Serif" font-size="10.00">/ContinuousDynamicalSystem</text>
<text text-anchor="middle" x="499" y="-331.5" font-family="Helvetica,sans-Serif" font-size="10.00">/Integrator.h</text>
</a>
</g>
</g>
<!-- Node2 -->
<g id="node2" class="node">
<title>Node2</title>
<g id="a_node2"><a xlink:title=" ">
<polygon fill="none" stroke="#bfbfbf" points="0,-62 0,-81 58,-81 58,-62 0,-62"/>
<text text-anchor="middle" x="29" y="-69" font-family="Helvetica,sans-Serif" font-size="10.00">memory</text>
</a>
</g>
</g>
<!-- Node1&#45;&gt;Node2 -->
<g id="edge1" class="edge">
<title>Node1&#45;&gt;Node2</title>
<path fill="none" stroke="midnightblue" d="M416.65,-334.66C334.03,-317.06 205.53,-282.1 109,-221 73.68,-198.64 62.08,-191.19 43,-154 32.88,-134.28 29.88,-108.71 29.08,-91.51"/>
<polygon fill="midnightblue" stroke="midnightblue" points="32.57,-91.03 28.83,-81.12 25.58,-91.2 32.57,-91.03"/>
</g>
<!-- Node3 -->
<g id="node3" class="node">
<title>Node3</title>
<g id="a_node3"><a xlink:href="DynamicalSystem_8h.html" target="_top" xlink:title=" ">
<polygon fill="none" stroke="black" points="329.5,-257.5 329.5,-287.5 536.5,-287.5 536.5,-257.5 329.5,-257.5"/>
<text text-anchor="start" x="337.5" y="-275.5" font-family="Helvetica,sans-Serif" font-size="10.00">BipedalLocomotion/Continuous</text>
<text text-anchor="middle" x="433" y="-264.5" font-family="Helvetica,sans-Serif" font-size="10.00">DynamicalSystem/DynamicalSystem.h</text>
</a>
</g>
</g>
<!-- Node1&#45;&gt;Node3 -->
<g id="edge2" class="edge">
<title>Node1&#45;&gt;Node3</title>
<path fill="none" stroke="midnightblue" d="M477.02,-324.19C468.98,-314.94 459.96,-304.54 452.18,-295.59"/>
<polygon fill="midnightblue" stroke="midnightblue" points="454.66,-293.1 445.46,-287.85 449.37,-297.69 454.66,-293.1"/>
</g>
<!-- Node5 -->
<g id="node5" class="node">
<title>Node5</title>
<g id="a_node5"><a xlink:href="traits_8h.html" target="_top" xlink:title=" ">
<polygon fill="none" stroke="black" points="481,-190.5 481,-220.5 649,-220.5 649,-190.5 481,-190.5"/>
<text text-anchor="start" x="489" y="-208.5" font-family="Helvetica,sans-Serif" font-size="10.00">BipedalLocomotion/Continuous</text>
<text text-anchor="middle" x="565" y="-197.5" font-family="Helvetica,sans-Serif" font-size="10.00">DynamicalSystem/impl/traits.h</text>
</a>
</g>
</g>
<!-- Node1&#45;&gt;Node5 -->
<g id="edge23" class="edge">
<title>Node1&#45;&gt;Node5</title>
<path fill="none" stroke="midnightblue" d="M521.42,-324.36C529.87,-313.76 538.9,-300.9 545,-288 553.63,-269.74 558.78,-247.35 561.68,-230.67"/>
<polygon fill="midnightblue" stroke="midnightblue" points="565.17,-231.05 563.29,-220.63 558.25,-229.95 565.17,-231.05"/>
</g>
<!-- Node6 -->
<g id="node6" class="node">
<title>Node6</title>
<g id="a_node6"><a xlink:href="TemplateHelpers_8h_source.html" target="_top" xlink:title=" ">
<polygon fill="none" stroke="black" points="447,-56.5 447,-86.5 605,-86.5 605,-56.5 447,-56.5"/>
<text text-anchor="start" x="455" y="-74.5" font-family="Helvetica,sans-Serif" font-size="10.00">BipedalLocomotion/Generic</text>
<text text-anchor="middle" x="526" y="-63.5" font-family="Helvetica,sans-Serif" font-size="10.00">Container/TemplateHelpers.h</text>
</a>
</g>
</g>
<!-- Node1&#45;&gt;Node6 -->
<g id="edge24" class="edge">
<title>Node1&#45;&gt;Node6</title>
<path fill="none" stroke="midnightblue" d="M549.86,-324.39C587.43,-302.74 635.75,-267.6 658,-221 684.05,-166.46 612.61,-117.02 564.93,-91.24"/>
<polygon fill="midnightblue" stroke="midnightblue" points="566.51,-88.12 556.03,-86.56 563.25,-94.31 566.51,-88.12"/>
</g>
<!-- Node10 -->
<g id="node10" class="node">
<title>Node10</title>
<g id="a_node10"><a xlink:href="IParametersHandler_8h.html" target="_top" xlink:title=" ">
<polygon fill="none" stroke="black" points="216.5,-190.5 216.5,-220.5 385.5,-220.5 385.5,-190.5 216.5,-190.5"/>
<text text-anchor="start" x="224.5" y="-208.5" font-family="Helvetica,sans-Serif" font-size="10.00">BipedalLocomotion/Parameters</text>
<text text-anchor="middle" x="301" y="-197.5" font-family="Helvetica,sans-Serif" font-size="10.00">Handler/IParametersHandler.h</text>
</a>
</g>
</g>
<!-- Node1&#45;&gt;Node10 -->
<g id="edge25" class="edge">
<title>Node1&#45;&gt;Node10</title>
<path fill="none" stroke="midnightblue" d="M416.68,-339.05C382.34,-330.64 344.77,-315.44 320,-288 306.05,-272.55 301.76,-248.87 300.69,-231.01"/>
<polygon fill="midnightblue" stroke="midnightblue" points="304.18,-230.65 300.38,-220.76 297.19,-230.86 304.18,-230.65"/>
</g>
<!-- Node18 -->
<g id="node18" class="node">
<title>Node18</title>
<g id="a_node18"><a xlink:href="Logger_8h.html" target="_top" xlink:title=" ">
<polygon fill="none" stroke="black" points="705,-257.5 705,-287.5 877,-287.5 877,-257.5 705,-257.5"/>
<text text-anchor="start" x="713" y="-275.5" font-family="Helvetica,sans-Serif" font-size="10.00">BipedalLocomotion/TextLogging</text>
<text text-anchor="middle" x="791" y="-264.5" font-family="Helvetica,sans-Serif" font-size="10.00">/Logger.h</text>
</a>
</g>
</g>
<!-- Node1&#45;&gt;Node18 -->
<g id="edge26" class="edge">
<title>Node1&#45;&gt;Node18</title>
<path fill="none" stroke="midnightblue" d="M581.12,-328.13C627.44,-316.07 684.45,-301.23 727.35,-290.07"/>
<polygon fill="midnightblue" stroke="midnightblue" points="728.32,-293.43 737.11,-287.53 726.55,-286.66 728.32,-293.43"/>
</g>
<!-- Node3&#45;&gt;Node2 -->
<g id="edge3" class="edge">
<title>Node3&#45;&gt;Node2</title>
<path fill="none" stroke="midnightblue" d="M329.23,-263.83C247.58,-252.4 136.37,-224.07 67,-154 49.45,-136.28 39.01,-108.94 33.63,-90.88"/>
<polygon fill="midnightblue" stroke="midnightblue" points="37.01,-89.95 30.98,-81.24 30.26,-91.81 37.01,-89.95"/>
</g>
<!-- Node4 -->
<g id="node4" class="node">
<title>Node4</title>
<g id="a_node4"><a xlink:title=" ">
<polygon fill="none" stroke="#bfbfbf" points="539.5,-129 539.5,-148 580.5,-148 580.5,-129 539.5,-129"/>
<text text-anchor="middle" x="560" y="-136" font-family="Helvetica,sans-Serif" font-size="10.00">tuple</text>
</a>
</g>
</g>
<!-- Node3&#45;&gt;Node4 -->
<g id="edge4" class="edge">
<title>Node3&#45;&gt;Node4</title>
<path fill="none" stroke="midnightblue" d="M436.91,-257.32C442.35,-239.77 453.65,-209.78 472,-190 488.02,-172.74 511.31,-159.73 529.9,-151.25"/>
<polygon fill="midnightblue" stroke="midnightblue" points="531.37,-154.43 539.14,-147.22 528.57,-148.01 531.37,-154.43"/>
</g>
<!-- Node3&#45;&gt;Node5 -->
<g id="edge5" class="edge">
<title>Node3&#45;&gt;Node5</title>
<path fill="none" stroke="midnightblue" d="M461.64,-257.4C480.84,-247.94 506.33,-235.39 527.19,-225.12"/>
<polygon fill="midnightblue" stroke="midnightblue" points="528.99,-228.13 536.41,-220.58 525.9,-221.85 528.99,-228.13"/>
</g>
<!-- Node3&#45;&gt;Node6 -->
<g id="edge7" class="edge">
<title>Node3&#45;&gt;Node6</title>
<path fill="none" stroke="midnightblue" d="M433.86,-257.47C435.27,-240.84 438.89,-212.54 448,-190 462.64,-153.77 489.35,-117.04 507.38,-94.52"/>
<polygon fill="midnightblue" stroke="midnightblue" points="510.22,-96.58 513.82,-86.61 504.79,-92.15 510.22,-96.58"/>
</g>
<!-- Node3&#45;&gt;Node10 -->
<g id="edge11" class="edge">
<title>Node3&#45;&gt;Node10</title>
<path fill="none" stroke="midnightblue" d="M404.36,-257.4C385.16,-247.94 359.67,-235.39 338.81,-225.12"/>
<polygon fill="midnightblue" stroke="midnightblue" points="340.1,-221.85 329.59,-220.58 337.01,-228.13 340.1,-221.85"/>
</g>
<!-- Node5&#45;&gt;Node4 -->
<g id="edge6" class="edge">
<title>Node5&#45;&gt;Node4</title>
<path fill="none" stroke="midnightblue" d="M563.92,-190.4C563.19,-180.96 562.23,-168.45 561.44,-158.19"/>
<polygon fill="midnightblue" stroke="midnightblue" points="564.93,-157.9 560.67,-148.19 557.95,-158.43 564.93,-157.9"/>
</g>
<!-- Node7 -->
<g id="node7" class="node">
<title>Node7</title>
<g id="a_node7"><a xlink:title=" ">
<polygon fill="none" stroke="#bfbfbf" points="402.5,-0.5 402.5,-19.5 471.5,-19.5 471.5,-0.5 402.5,-0.5"/>
<text text-anchor="middle" x="437" y="-7.5" font-family="Helvetica,sans-Serif" font-size="10.00">type_traits</text>
</a>
</g>
</g>
<!-- Node6&#45;&gt;Node7 -->
<g id="edge8" class="edge">
<title>Node6&#45;&gt;Node7</title>
<path fill="none" stroke="midnightblue" d="M504.91,-56.4C490.91,-47.04 472.59,-34.79 458.51,-25.38"/>
<polygon fill="midnightblue" stroke="midnightblue" points="460.21,-22.31 449.95,-19.66 456.32,-28.13 460.21,-22.31"/>
</g>
<!-- Node8 -->
<g id="node8" class="node">
<title>Node8</title>
<g id="a_node8"><a xlink:title=" ">
<polygon fill="none" stroke="#bfbfbf" points="489.5,-0.5 489.5,-19.5 562.5,-19.5 562.5,-0.5 489.5,-0.5"/>
<text text-anchor="middle" x="526" y="-7.5" font-family="Helvetica,sans-Serif" font-size="10.00">string_view</text>
</a>
</g>
</g>
<!-- Node6&#45;&gt;Node8 -->
<g id="edge9" class="edge">
<title>Node6&#45;&gt;Node8</title>
<path fill="none" stroke="midnightblue" d="M526,-56.4C526,-48.47 526,-38.46 526,-29.86"/>
<polygon fill="midnightblue" stroke="midnightblue" points="529.5,-29.66 526,-19.66 522.5,-29.66 529.5,-29.66"/>
</g>
<!-- Node9 -->
<g id="node9" class="node">
<title>Node9</title>
<g id="a_node9"><a xlink:title=" ">
<polygon fill="none" stroke="#bfbfbf" points="580.5,-0.5 580.5,-19.5 649.5,-19.5 649.5,-0.5 580.5,-0.5"/>
<text text-anchor="middle" x="615" y="-7.5" font-family="Helvetica,sans-Serif" font-size="10.00">Eigen/Core</text>
</a>
</g>
</g>
<!-- Node6&#45;&gt;Node9 -->
<g id="edge10" class="edge">
<title>Node6&#45;&gt;Node9</title>
<path fill="none" stroke="midnightblue" d="M547.09,-56.4C561.09,-47.04 579.41,-34.79 593.49,-25.38"/>
<polygon fill="midnightblue" stroke="midnightblue" points="595.68,-28.13 602.05,-19.66 591.79,-22.31 595.68,-28.13"/>
</g>
<!-- Node10&#45;&gt;Node2 -->
<g id="edge12" class="edge">
<title>Node10&#45;&gt;Node2</title>
<path fill="none" stroke="midnightblue" d="M254.95,-190.41C229.36,-181.66 197.46,-169.19 171,-154 151.8,-142.98 150.72,-134.83 132,-123 108.6,-108.21 80.25,-94.59 59.22,-85.24"/>
<polygon fill="midnightblue" stroke="midnightblue" points="60.39,-81.93 49.83,-81.12 57.58,-88.34 60.39,-81.93"/>
</g>
<!-- Node10&#45;&gt;Node6 -->
<g id="edge15" class="edge">
<title>Node10&#45;&gt;Node6</title>
<path fill="none" stroke="midnightblue" d="M332.96,-190.33C353.44,-180.86 380.32,-167.66 403,-154 423.18,-141.84 426.47,-136.18 446,-123 461.56,-112.5 479.17,-101.31 493.9,-92.14"/>
<polygon fill="midnightblue" stroke="midnightblue" points="495.99,-94.96 502.65,-86.71 492.31,-89 495.99,-94.96"/>
</g>
<!-- Node11 -->
<g id="node11" class="node">
<title>Node11</title>
<g id="a_node11"><a xlink:title=" ">
<polygon fill="none" stroke="#bfbfbf" points="350,-129 350,-148 394,-148 394,-129 350,-129"/>
<text text-anchor="middle" x="372" y="-136" font-family="Helvetica,sans-Serif" font-size="10.00">string</text>
</a>
</g>
</g>
<!-- Node10&#45;&gt;Node11 -->
<g id="edge13" class="edge">
<title>Node10&#45;&gt;Node11</title>
<path fill="none" stroke="midnightblue" d="M316.41,-190.4C327.81,-179.96 343.33,-165.75 355.07,-155"/>
<polygon fill="midnightblue" stroke="midnightblue" points="357.49,-157.53 362.5,-148.19 352.76,-152.37 357.49,-157.53"/>
</g>
<!-- Node12 -->
<g id="node12" class="node">
<title>Node12</title>
<g id="a_node12"><a xlink:title=" ">
<polygon fill="none" stroke="#bfbfbf" points="76.5,-129 76.5,-148 123.5,-148 123.5,-129 76.5,-129"/>
<text text-anchor="middle" x="100" y="-136" font-family="Helvetica,sans-Serif" font-size="10.00">vector</text>
</a>
</g>
</g>
<!-- Node10&#45;&gt;Node12 -->
<g id="edge14" class="edge">
<title>Node10&#45;&gt;Node12</title>
<path fill="none" stroke="midnightblue" d="M252.95,-190.5C220.35,-180.78 176.36,-167.25 138,-154 135.75,-153.22 133.43,-152.4 131.1,-151.55"/>
<polygon fill="midnightblue" stroke="midnightblue" points="132.21,-148.23 121.62,-148.02 129.77,-154.79 132.21,-148.23"/>
</g>
<!-- Node13 -->
<g id="node13" class="node">
<title>Node13</title>
<g id="a_node13"><a xlink:href="Vector_8h_source.html" target="_top" xlink:title=" ">
<polygon fill="none" stroke="black" points="180.5,-123.5 180.5,-153.5 331.5,-153.5 331.5,-123.5 180.5,-123.5"/>
<text text-anchor="start" x="188.5" y="-141.5" font-family="Helvetica,sans-Serif" font-size="10.00">BipedalLocomotion/Generic</text>
<text text-anchor="middle" x="256" y="-130.5" font-family="Helvetica,sans-Serif" font-size="10.00">Container/Vector.h</text>
</a>
</g>
</g>
<!-- Node10&#45;&gt;Node13 -->
<g id="edge16" class="edge">
<title>Node10&#45;&gt;Node13</title>
<path fill="none" stroke="midnightblue" d="M291.24,-190.4C285.46,-182.05 278.01,-171.29 271.45,-161.81"/>
<polygon fill="midnightblue" stroke="midnightblue" points="274.32,-159.81 265.75,-153.58 268.56,-163.79 274.32,-159.81"/>
</g>
<!-- Node13&#45;&gt;Node2 -->
<g id="edge22" class="edge">
<title>Node13&#45;&gt;Node2</title>
<path fill="none" stroke="midnightblue" d="M197.22,-123.46C159.69,-114.09 110.14,-100.95 67,-87 64.59,-86.22 62.11,-85.37 59.62,-84.5"/>
<polygon fill="midnightblue" stroke="midnightblue" points="60.76,-81.18 50.17,-81.02 58.34,-87.76 60.76,-81.18"/>
</g>
<!-- Node13&#45;&gt;Node6 -->
<g id="edge18" class="edge">
<title>Node13&#45;&gt;Node6</title>
<path fill="none" stroke="midnightblue" d="M314.25,-123.48C356.34,-113.34 413.32,-99.63 457.58,-88.97"/>
<polygon fill="midnightblue" stroke="midnightblue" points="458.48,-92.35 467.39,-86.61 456.84,-85.55 458.48,-92.35"/>
</g>
<!-- Node14 -->
<g id="node14" class="node">
<title>Node14</title>
<g id="a_node14"><a xlink:title=" ">
<polygon fill="none" stroke="#bfbfbf" points="224.5,-62 224.5,-81 345.5,-81 345.5,-62 224.5,-62"/>
<text text-anchor="middle" x="285" y="-69" font-family="Helvetica,sans-Serif" font-size="10.00">iDynTree/Core/Span.h</text>
</a>
</g>
</g>
<!-- Node13&#45;&gt;Node14 -->
<g id="edge17" class="edge">
<title>Node13&#45;&gt;Node14</title>
<path fill="none" stroke="midnightblue" d="M262.29,-123.4C266.59,-113.76 272.32,-100.91 276.95,-90.54"/>
<polygon fill="midnightblue" stroke="midnightblue" points="280.24,-91.75 281.12,-81.19 273.85,-88.9 280.24,-91.75"/>
</g>
<!-- Node15 -->
<g id="node15" class="node">
<title>Node15</title>
<g id="a_node15"><a xlink:title=" ">
<polygon fill="none" stroke="#bfbfbf" points="363.5,-62 363.5,-81 428.5,-81 428.5,-62 363.5,-62"/>
<text text-anchor="middle" x="396" y="-69" font-family="Helvetica,sans-Serif" font-size="10.00">functional</text>
</a>
</g>
</g>
<!-- Node13&#45;&gt;Node15 -->
<g id="edge19" class="edge">
<title>Node13&#45;&gt;Node15</title>
<path fill="none" stroke="midnightblue" d="M286.38,-123.4C310.83,-112.04 344.91,-96.22 368.55,-85.24"/>
<polygon fill="midnightblue" stroke="midnightblue" points="370.08,-88.39 377.68,-81.01 367.13,-82.04 370.08,-88.39"/>
</g>
<!-- Node16 -->
<g id="node16" class="node">
<title>Node16</title>
<g id="a_node16"><a xlink:title=" ">
<polygon fill="none" stroke="#bfbfbf" points="76,-62 76,-81 128,-81 128,-62 76,-62"/>
<text text-anchor="middle" x="102" y="-69" font-family="Helvetica,sans-Serif" font-size="10.00">cassert</text>
</a>
</g>
</g>
<!-- Node13&#45;&gt;Node16 -->
<g id="edge20" class="edge">
<title>Node13&#45;&gt;Node16</title>
<path fill="none" stroke="midnightblue" d="M222.58,-123.4C195.44,-111.94 157.53,-95.94 131.5,-84.95"/>
<polygon fill="midnightblue" stroke="midnightblue" points="132.73,-81.67 122.16,-81.01 130.01,-88.12 132.73,-81.67"/>
</g>
<!-- Node17 -->
<g id="node17" class="node">
<title>Node17</title>
<g id="a_node17"><a xlink:title=" ">
<polygon fill="none" stroke="#bfbfbf" points="146,-62 146,-81 206,-81 206,-62 146,-62"/>
<text text-anchor="middle" x="176" y="-69" font-family="Helvetica,sans-Serif" font-size="10.00">iostream</text>
</a>
</g>
</g>
<!-- Node13&#45;&gt;Node17 -->
<g id="edge21" class="edge">
<title>Node13&#45;&gt;Node17</title>
<path fill="none" stroke="midnightblue" d="M238.64,-123.4C225.67,-112.86 207.97,-98.48 194.69,-87.69"/>
<polygon fill="midnightblue" stroke="midnightblue" points="196.67,-84.78 186.7,-81.19 192.26,-90.22 196.67,-84.78"/>
</g>
<!-- Node19 -->
<g id="node19" class="node">
<title>Node19</title>
<g id="a_node19"><a xlink:title=" ">
<polygon fill="none" stroke="#bfbfbf" points="836.5,-196 836.5,-215 935.5,-215 935.5,-196 836.5,-196"/>
<text text-anchor="middle" x="886" y="-203" font-family="Helvetica,sans-Serif" font-size="10.00">spdlog/fmt/ostr.h</text>
</a>
</g>
</g>
<!-- Node18&#45;&gt;Node19 -->
<g id="edge27" class="edge">
<title>Node18&#45;&gt;Node19</title>
<path fill="none" stroke="midnightblue" d="M811.61,-257.4C827.4,-246.6 849.09,-231.76 864.97,-220.89"/>
<polygon fill="midnightblue" stroke="midnightblue" points="867.29,-223.54 873.57,-215.01 863.34,-217.77 867.29,-223.54"/>
</g>
<!-- Node20 -->
<g id="node20" class="node">
<title>Node20</title>
<g id="a_node20"><a xlink:title=" ">
<polygon fill="none" stroke="#bfbfbf" points="725.5,-196 725.5,-215 818.5,-215 818.5,-196 725.5,-196"/>
<text text-anchor="middle" x="772" y="-203" font-family="Helvetica,sans-Serif" font-size="10.00">spdlog/spdlog.h</text>
</a>
</g>
</g>
<!-- Node18&#45;&gt;Node20 -->
<g id="edge28" class="edge">
<title>Node18&#45;&gt;Node20</title>
<path fill="none" stroke="midnightblue" d="M786.88,-257.4C784.09,-247.86 780.38,-235.18 777.37,-224.86"/>
<polygon fill="midnightblue" stroke="midnightblue" points="780.71,-223.81 774.54,-215.19 773.99,-225.77 780.71,-223.81"/>
</g>
</g>
</svg>
        <g id="navigator" transform="translate(0 0)" fill="#404254">
                <rect fill="#f2f5e9" fill-opacity="0.5" stroke="#606060" stroke-width=".5" x="0" y="0" width="60" height="60"/>
                <use id="zoomplus" xlink:href="#zoomPlus" x="17" y="9" onmousedown="handleZoom(evt,'in')"/>
                <use id="zoomminus" xlink:href="#zoomMin" x="42" y="9" onmousedown="handleZoom(evt,'out')"/>
                <use id="reset" xlink:href="#resetDef" x="30" y="36" onmousedown="handleReset()"/>
                <g id="arrowUp" xlink:href="#dirArrow" transform="translate(30 24)" onmousedown="handlePan(0,-1)">
                  <use xlink:href="#rim" fill="#404040">
                        <set attributeName="fill" to="#808080" begin="arrowUp.mouseover" end="arrowUp.mouseout"/>
                  </use>
                  <path fill="none" stroke="white" stroke-width="1.5" d="M0,-3.0v7 M-2.5,-0.5L0,-3.0L2.5,-0.5"/>
                </g>
                <g id="arrowRight" xlink:href="#dirArrow" transform="rotate(90) translate(36 -43)" onmousedown="handlePan(1,0)">
                  <use xlink:href="#rim" fill="#404040">
                        <set attributeName="fill" to="#808080" begin="arrowRight.mouseover" end="arrowRight.mouseout"/>
                  </use>
                  <path fill="none" stroke="white" stroke-width="1.5" d="M0,-3.0v7 M-2.5,-0.5L0,-3.0L2.5,-0.5"/>
                </g>
                <g id="arrowDown" xlink:href="#dirArrow" transform="rotate(180) translate(-30 -48)" onmousedown="handlePan(0,1)">
                  <use xlink:href="#rim" fill="#404040">
                        <set attributeName="fill" to="#808080" begin="arrowDown.mouseover" end="arrowDown.mouseout"/>
                  </use>
                  <path fill="none" stroke="white" stroke-width="1.5" d="M0,-3.0v7 M-2.5,-0.5L0,-3.0L2.5,-0.5"/>
                </g>
                <g id="arrowLeft" xlink:href="#dirArrow" transform="rotate(270) translate(-36 17)" onmousedown="handlePan(-1,0)">
                  <use xlink:href="#rim" fill="#404040">
                        <set attributeName="fill" to="#808080" begin="arrowLeft.mouseover" end="arrowLeft.mouseout"/>
                  </use>
                  <path fill="none" stroke="white" stroke-width="1.5" d="M0,-3.0v7 M-2.5,-0.5L0,-3.0L2.5,-0.5"/>
                </g>
        </g>
        <svg viewBox="0 0 15 15" width="100%" height="30px" preserveAspectRatio="xMaxYMin meet">
         <g id="arrow_out" transform="scale(0.3 0.3)">
          <a xlink:href="Integrator_8h__incl_org.svg" target="_base">
           <rect id="button" ry="5" rx="5" y="6" x="6" height="38" width="38"
                fill="#f2f5e9" fill-opacity="0.5" stroke="#606060" stroke-width="1.0"/>
           <path id="arrow"
             d="M 11.500037,31.436501 C 11.940474,20.09759 22.043105,11.32322 32.158766,21.979434 L 37.068811,17.246167 C 37.068811,17.246167 37.088388,32 37.088388,32 L 22.160133,31.978069 C 22.160133,31.978069 26.997745,27.140456 26.997745,27.140456 C 18.528582,18.264221 13.291696,25.230495 11.500037,31.436501 z"
             style="fill:#404040;"/>
          </a>
         </g>
        </svg>
</svg>
