<?xml version="1.0" encoding="UTF-8" standalone="no"?>
<!DOCTYPE svg PUBLIC "-//W3C//DTD SVG 1.1//EN"
 "http://www.w3.org/Graphics/SVG/1.1/DTD/svg11.dtd">
<!-- Generated by graphviz version 2.43.0 (0)
 -->
<!-- Title: IK/include/BipedalLocomotion/IK/IntegrationBasedIK.h Pages: 1 -->
<svg width="1203pt" height="430pt"
 viewBox="0.00 0.00 1203.00 430.00" xmlns="http://www.w3.org/2000/svg" xmlns:xlink="http://www.w3.org/1999/xlink">
<g id="graph0" class="graph" transform="scale(1 1) rotate(0) translate(4 426)">
<title>IK/include/BipedalLocomotion/IK/IntegrationBasedIK.h</title>
<!-- Node1 -->
<g id="node1" class="node">
<title>Node1</title>
<g id="a_node1"><a xlink:title=" ">
<polygon fill="#bfbfbf" stroke="black" points="817,-391.5 817,-421.5 978,-421.5 978,-391.5 817,-391.5"/>
<text text-anchor="start" x="825" y="-409.5" font-family="Helvetica,sans-Serif" font-size="10.00">IK/include/BipedalLocomotion</text>
<text text-anchor="middle" x="897.5" y="-398.5" font-family="Helvetica,sans-Serif" font-size="10.00">/IK/IntegrationBasedIK.h</text>
</a>
</g>
</g>
<!-- Node2 -->
<g id="node2" class="node">
<title>Node2</title>
<g id="a_node2"><a xlink:title=" ">
<polygon fill="none" stroke="#bfbfbf" points="590.5,-62 590.5,-81 648.5,-81 648.5,-62 590.5,-62"/>
<text text-anchor="middle" x="619.5" y="-69" font-family="Helvetica,sans-Serif" font-size="10.00">memory</text>
</a>
</g>
</g>
<!-- Node1&#45;&gt;Node2 -->
<g id="edge1" class="edge">
<title>Node1&#45;&gt;Node2</title>
<path fill="none" stroke="midnightblue" d="M816.84,-393.9C709.32,-376.61 527.95,-340.37 488.5,-288 461.16,-251.69 564.33,-132.53 604.3,-88.79"/>
<polygon fill="midnightblue" stroke="midnightblue" points="606.99,-91.04 611.19,-81.32 601.84,-86.3 606.99,-91.04"/>
</g>
<!-- Node3 -->
<g id="node3" class="node">
<title>Node3</title>
<g id="a_node3"><a xlink:title=" ">
<polygon fill="none" stroke="#bfbfbf" points="772.5,-129 772.5,-148 816.5,-148 816.5,-129 772.5,-129"/>
<text text-anchor="middle" x="794.5" y="-136" font-family="Helvetica,sans-Serif" font-size="10.00">string</text>
</a>
</g>
</g>
<!-- Node1&#45;&gt;Node3 -->
<g id="edge2" class="edge">
<title>Node1&#45;&gt;Node3</title>
<path fill="none" stroke="midnightblue" d="M919.79,-391.41C957.78,-365.55 1028.22,-308.42 998.5,-257 961.25,-192.55 873.74,-160.33 826.34,-147.1"/>
<polygon fill="midnightblue" stroke="midnightblue" points="827.16,-143.7 816.6,-144.49 825.35,-150.46 827.16,-143.7"/>
</g>
<!-- Node4 -->
<g id="node4" class="node">
<title>Node4</title>
<g id="a_node4"><a xlink:title=" ">
<polygon fill="none" stroke="#bfbfbf" points="1045.5,-330 1045.5,-349 1101.5,-349 1101.5,-330 1045.5,-330"/>
<text text-anchor="middle" x="1073.5" y="-337" font-family="Helvetica,sans-Serif" font-size="10.00">optional</text>
</a>
</g>
</g>
<!-- Node1&#45;&gt;Node4 -->
<g id="edge3" class="edge">
<title>Node1&#45;&gt;Node4</title>
<path fill="none" stroke="midnightblue" d="M935.69,-391.4C967.12,-379.79 1011.18,-363.51 1040.96,-352.52"/>
<polygon fill="midnightblue" stroke="midnightblue" points="1042.3,-355.75 1050.47,-349.01 1039.87,-349.19 1042.3,-355.75"/>
</g>
<!-- Node5 -->
<g id="node5" class="node">
<title>Node5</title>
<g id="a_node5"><a xlink:title=" ">
<polygon fill="none" stroke="#bfbfbf" points="912,-263 912,-282 989,-282 989,-263 912,-263"/>
<text text-anchor="middle" x="950.5" y="-270" font-family="Helvetica,sans-Serif" font-size="10.00">Eigen/Dense</text>
</a>
</g>
</g>
<!-- Node1&#45;&gt;Node5 -->
<g id="edge4" class="edge">
<title>Node1&#45;&gt;Node5</title>
<path fill="none" stroke="midnightblue" d="M908.31,-391.15C915.21,-381.4 923.89,-367.95 929.5,-355 938.37,-334.52 944.13,-309.46 947.33,-292.58"/>
<polygon fill="midnightblue" stroke="midnightblue" points="950.85,-292.82 949.15,-282.36 943.95,-291.59 950.85,-292.82"/>
</g>
<!-- Node6 -->
<g id="node6" class="node">
<title>Node6</title>
<g id="a_node6"><a xlink:title=" ">
<polygon fill="none" stroke="#bfbfbf" points="1120,-330 1120,-349 1195,-349 1195,-330 1120,-330"/>
<text text-anchor="middle" x="1157.5" y="-337" font-family="Helvetica,sans-Serif" font-size="10.00">manif/SE3.h</text>
</a>
</g>
</g>
<!-- Node1&#45;&gt;Node6 -->
<g id="edge5" class="edge">
<title>Node1&#45;&gt;Node6</title>
<path fill="none" stroke="midnightblue" d="M961.63,-391.47C1004.05,-381.89 1060.82,-368.54 1110.5,-355 1113.9,-354.07 1117.42,-353.07 1120.94,-352.04"/>
<polygon fill="midnightblue" stroke="midnightblue" points="1122.18,-355.32 1130.75,-349.09 1120.16,-348.62 1122.18,-355.32"/>
</g>
<!-- Node7 -->
<g id="node7" class="node">
<title>Node7</title>
<g id="a_node7"><a xlink:href="IParametersHandler_8h.html" target="_top" xlink:title=" ">
<polygon fill="none" stroke="black" points="322,-190.5 322,-220.5 491,-220.5 491,-190.5 322,-190.5"/>
<text text-anchor="start" x="330" y="-208.5" font-family="Helvetica,sans-Serif" font-size="10.00">BipedalLocomotion/Parameters</text>
<text text-anchor="middle" x="406.5" y="-197.5" font-family="Helvetica,sans-Serif" font-size="10.00">Handler/IParametersHandler.h</text>
</a>
</g>
</g>
<!-- Node1&#45;&gt;Node7 -->
<g id="edge6" class="edge">
<title>Node1&#45;&gt;Node7</title>
<path fill="none" stroke="midnightblue" d="M816.85,-402.57C687.34,-397.05 444.71,-383.07 417.5,-355 385.65,-322.15 392.58,-263.74 399.9,-230.82"/>
<polygon fill="midnightblue" stroke="midnightblue" points="403.39,-231.24 402.33,-220.7 396.59,-229.6 403.39,-231.24"/>
</g>
<!-- Node18 -->
<g id="node18" class="node">
<title>Node18</title>
<g id="a_node18"><a xlink:href="Source_8h.html" target="_top" xlink:title=" ">
<polygon fill="none" stroke="black" points="215.5,-324.5 215.5,-354.5 365.5,-354.5 365.5,-324.5 215.5,-324.5"/>
<text text-anchor="start" x="223.5" y="-342.5" font-family="Helvetica,sans-Serif" font-size="10.00">BipedalLocomotion/System</text>
<text text-anchor="middle" x="290.5" y="-331.5" font-family="Helvetica,sans-Serif" font-size="10.00">/Source.h</text>
</a>
</g>
</g>
<!-- Node1&#45;&gt;Node18 -->
<g id="edge21" class="edge">
<title>Node1&#45;&gt;Node18</title>
<path fill="none" stroke="midnightblue" d="M816.57,-399.23C714.47,-390.95 533.62,-375.05 379.5,-355 378.23,-354.84 376.96,-354.67 375.67,-354.49"/>
<polygon fill="midnightblue" stroke="midnightblue" points="376.1,-351.02 365.71,-353.1 375.13,-357.95 376.1,-351.02"/>
</g>
<!-- Node21 -->
<g id="node21" class="node">
<title>Node21</title>
<g id="a_node21"><a xlink:href="LinearTask_8h.html" target="_top" xlink:title=" ">
<polygon fill="none" stroke="black" points="770.5,-324.5 770.5,-354.5 920.5,-354.5 920.5,-324.5 770.5,-324.5"/>
<text text-anchor="start" x="778.5" y="-342.5" font-family="Helvetica,sans-Serif" font-size="10.00">BipedalLocomotion/System</text>
<text text-anchor="middle" x="845.5" y="-331.5" font-family="Helvetica,sans-Serif" font-size="10.00">/LinearTask.h</text>
</a>
</g>
</g>
<!-- Node1&#45;&gt;Node21 -->
<g id="edge25" class="edge">
<title>Node1&#45;&gt;Node21</title>
<path fill="none" stroke="midnightblue" d="M886.22,-391.4C879.47,-382.96 870.75,-372.07 863.12,-362.52"/>
<polygon fill="midnightblue" stroke="midnightblue" points="865.74,-360.2 856.76,-354.58 860.28,-364.57 865.74,-360.2"/>
</g>
<!-- Node7&#45;&gt;Node2 -->
<g id="edge7" class="edge">
<title>Node7&#45;&gt;Node2</title>
<path fill="none" stroke="midnightblue" d="M426.12,-190.34C458.4,-167.05 519.2,-123.18 519.5,-123 542.89,-108.78 570.78,-94.94 591.15,-85.35"/>
<polygon fill="midnightblue" stroke="midnightblue" points="592.63,-88.52 600.22,-81.13 589.68,-82.18 592.63,-88.52"/>
</g>
<!-- Node7&#45;&gt;Node3 -->
<g id="edge8" class="edge">
<title>Node7&#45;&gt;Node3</title>
<path fill="none" stroke="midnightblue" d="M490.21,-190.48C575.54,-176.18 703.48,-154.75 762.54,-144.85"/>
<polygon fill="midnightblue" stroke="midnightblue" points="763.12,-148.31 772.4,-143.2 761.96,-141.4 763.12,-148.31"/>
</g>
<!-- Node8 -->
<g id="node8" class="node">
<title>Node8</title>
<g id="a_node8"><a xlink:title=" ">
<polygon fill="none" stroke="#bfbfbf" points="251,-129 251,-148 298,-148 298,-129 251,-129"/>
<text text-anchor="middle" x="274.5" y="-136" font-family="Helvetica,sans-Serif" font-size="10.00">vector</text>
</a>
</g>
</g>
<!-- Node7&#45;&gt;Node8 -->
<g id="edge9" class="edge">
<title>Node7&#45;&gt;Node8</title>
<path fill="none" stroke="midnightblue" d="M377.86,-190.4C355,-179.14 323.24,-163.5 300.98,-152.54"/>
<polygon fill="midnightblue" stroke="midnightblue" points="302.29,-149.28 291.78,-148.01 299.2,-155.56 302.29,-149.28"/>
</g>
<!-- Node9 -->
<g id="node9" class="node">
<title>Node9</title>
<g id="a_node9"><a xlink:href="TemplateHelpers_8h_source.html" target="_top" xlink:title=" ">
<polygon fill="none" stroke="black" points="44.5,-56.5 44.5,-86.5 202.5,-86.5 202.5,-56.5 44.5,-56.5"/>
<text text-anchor="start" x="52.5" y="-74.5" font-family="Helvetica,sans-Serif" font-size="10.00">BipedalLocomotion/Generic</text>
<text text-anchor="middle" x="123.5" y="-63.5" font-family="Helvetica,sans-Serif" font-size="10.00">Container/TemplateHelpers.h</text>
</a>
</g>
</g>
<!-- Node7&#45;&gt;Node9 -->
<g id="edge10" class="edge">
<title>Node7&#45;&gt;Node9</title>
<path fill="none" stroke="midnightblue" d="M344.85,-190.46C313.09,-182.04 274.26,-169.86 241.5,-154 206.97,-137.29 171.26,-111.17 148.3,-93.02"/>
<polygon fill="midnightblue" stroke="midnightblue" points="150.43,-90.25 140.44,-86.73 146.06,-95.71 150.43,-90.25"/>
</g>
<!-- Node13 -->
<g id="node13" class="node">
<title>Node13</title>
<g id="a_node13"><a xlink:href="Vector_8h_source.html" target="_top" xlink:title=" ">
<polygon fill="none" stroke="black" points="316,-123.5 316,-153.5 467,-153.5 467,-123.5 316,-123.5"/>
<text text-anchor="start" x="324" y="-141.5" font-family="Helvetica,sans-Serif" font-size="10.00">BipedalLocomotion/Generic</text>
<text text-anchor="middle" x="391.5" y="-130.5" font-family="Helvetica,sans-Serif" font-size="10.00">Container/Vector.h</text>
</a>
</g>
</g>
<!-- Node7&#45;&gt;Node13 -->
<g id="edge14" class="edge">
<title>Node7&#45;&gt;Node13</title>
<path fill="none" stroke="midnightblue" d="M403.25,-190.4C401.44,-182.56 399.14,-172.6 397.05,-163.57"/>
<polygon fill="midnightblue" stroke="midnightblue" points="400.41,-162.53 394.75,-153.58 393.59,-164.11 400.41,-162.53"/>
</g>
<!-- Node10 -->
<g id="node10" class="node">
<title>Node10</title>
<g id="a_node10"><a xlink:title=" ">
<polygon fill="none" stroke="#bfbfbf" points="0,-0.5 0,-19.5 69,-19.5 69,-0.5 0,-0.5"/>
<text text-anchor="middle" x="34.5" y="-7.5" font-family="Helvetica,sans-Serif" font-size="10.00">type_traits</text>
</a>
</g>
</g>
<!-- Node9&#45;&gt;Node10 -->
<g id="edge11" class="edge">
<title>Node9&#45;&gt;Node10</title>
<path fill="none" stroke="midnightblue" d="M102.41,-56.4C88.41,-47.04 70.09,-34.79 56.01,-25.38"/>
<polygon fill="midnightblue" stroke="midnightblue" points="57.71,-22.31 47.45,-19.66 53.82,-28.13 57.71,-22.31"/>
</g>
<!-- Node11 -->
<g id="node11" class="node">
<title>Node11</title>
<g id="a_node11"><a xlink:title=" ">
<polygon fill="none" stroke="#bfbfbf" points="87,-0.5 87,-19.5 160,-19.5 160,-0.5 87,-0.5"/>
<text text-anchor="middle" x="123.5" y="-7.5" font-family="Helvetica,sans-Serif" font-size="10.00">string_view</text>
</a>
</g>
</g>
<!-- Node9&#45;&gt;Node11 -->
<g id="edge12" class="edge">
<title>Node9&#45;&gt;Node11</title>
<path fill="none" stroke="midnightblue" d="M123.5,-56.4C123.5,-48.47 123.5,-38.46 123.5,-29.86"/>
<polygon fill="midnightblue" stroke="midnightblue" points="127,-29.66 123.5,-19.66 120,-29.66 127,-29.66"/>
</g>
<!-- Node12 -->
<g id="node12" class="node">
<title>Node12</title>
<g id="a_node12"><a xlink:title=" ">
<polygon fill="none" stroke="#bfbfbf" points="178,-0.5 178,-19.5 247,-19.5 247,-0.5 178,-0.5"/>
<text text-anchor="middle" x="212.5" y="-7.5" font-family="Helvetica,sans-Serif" font-size="10.00">Eigen/Core</text>
</a>
</g>
</g>
<!-- Node9&#45;&gt;Node12 -->
<g id="edge13" class="edge">
<title>Node9&#45;&gt;Node12</title>
<path fill="none" stroke="midnightblue" d="M144.59,-56.4C158.59,-47.04 176.91,-34.79 190.99,-25.38"/>
<polygon fill="midnightblue" stroke="midnightblue" points="193.18,-28.13 199.55,-19.66 189.29,-22.31 193.18,-28.13"/>
</g>
<!-- Node13&#45;&gt;Node2 -->
<g id="edge20" class="edge">
<title>Node13&#45;&gt;Node2</title>
<path fill="none" stroke="midnightblue" d="M450.59,-123.49C488.33,-114.13 538.14,-100.99 581.5,-87 583.91,-86.22 586.39,-85.38 588.88,-84.5"/>
<polygon fill="midnightblue" stroke="midnightblue" points="590.16,-87.76 598.34,-81.03 587.74,-81.19 590.16,-87.76"/>
</g>
<!-- Node13&#45;&gt;Node9 -->
<g id="edge16" class="edge">
<title>Node13&#45;&gt;Node9</title>
<path fill="none" stroke="midnightblue" d="M333.68,-123.48C291.91,-113.34 235.34,-99.63 191.42,-88.97"/>
<polygon fill="midnightblue" stroke="midnightblue" points="192.22,-85.57 181.68,-86.61 190.57,-92.37 192.22,-85.57"/>
</g>
<!-- Node14 -->
<g id="node14" class="node">
<title>Node14</title>
<g id="a_node14"><a xlink:title=" ">
<polygon fill="none" stroke="#bfbfbf" points="220,-62 220,-81 341,-81 341,-62 220,-62"/>
<text text-anchor="middle" x="280.5" y="-69" font-family="Helvetica,sans-Serif" font-size="10.00">iDynTree/Core/Span.h</text>
</a>
</g>
</g>
<!-- Node13&#45;&gt;Node14 -->
<g id="edge15" class="edge">
<title>Node13&#45;&gt;Node14</title>
<path fill="none" stroke="midnightblue" d="M367.41,-123.4C348.54,-112.34 322.44,-97.06 303.78,-86.13"/>
<polygon fill="midnightblue" stroke="midnightblue" points="305.43,-83.04 295.03,-81.01 301.89,-89.08 305.43,-83.04"/>
</g>
<!-- Node15 -->
<g id="node15" class="node">
<title>Node15</title>
<g id="a_node15"><a xlink:title=" ">
<polygon fill="none" stroke="#bfbfbf" points="359,-62 359,-81 424,-81 424,-62 359,-62"/>
<text text-anchor="middle" x="391.5" y="-69" font-family="Helvetica,sans-Serif" font-size="10.00">functional</text>
</a>
</g>
</g>
<!-- Node13&#45;&gt;Node15 -->
<g id="edge17" class="edge">
<title>Node13&#45;&gt;Node15</title>
<path fill="none" stroke="midnightblue" d="M391.5,-123.4C391.5,-114.06 391.5,-101.71 391.5,-91.52"/>
<polygon fill="midnightblue" stroke="midnightblue" points="395,-91.19 391.5,-81.19 388,-91.19 395,-91.19"/>
</g>
<!-- Node16 -->
<g id="node16" class="node">
<title>Node16</title>
<g id="a_node16"><a xlink:title=" ">
<polygon fill="none" stroke="#bfbfbf" points="442.5,-62 442.5,-81 494.5,-81 494.5,-62 442.5,-62"/>
<text text-anchor="middle" x="468.5" y="-69" font-family="Helvetica,sans-Serif" font-size="10.00">cassert</text>
</a>
</g>
</g>
<!-- Node13&#45;&gt;Node16 -->
<g id="edge18" class="edge">
<title>Node13&#45;&gt;Node16</title>
<path fill="none" stroke="midnightblue" d="M408.21,-123.4C420.69,-112.86 437.73,-98.48 450.51,-87.69"/>
<polygon fill="midnightblue" stroke="midnightblue" points="452.82,-90.32 458.2,-81.19 448.3,-84.97 452.82,-90.32"/>
</g>
<!-- Node17 -->
<g id="node17" class="node">
<title>Node17</title>
<g id="a_node17"><a xlink:title=" ">
<polygon fill="none" stroke="#bfbfbf" points="512.5,-62 512.5,-81 572.5,-81 572.5,-62 512.5,-62"/>
<text text-anchor="middle" x="542.5" y="-69" font-family="Helvetica,sans-Serif" font-size="10.00">iostream</text>
</a>
</g>
</g>
<!-- Node13&#45;&gt;Node17 -->
<g id="edge19" class="edge">
<title>Node13&#45;&gt;Node17</title>
<path fill="none" stroke="midnightblue" d="M424.26,-123.4C450.76,-111.99 487.72,-96.08 513.23,-85.1"/>
<polygon fill="midnightblue" stroke="midnightblue" points="514.94,-88.18 522.74,-81.01 512.17,-81.75 514.94,-88.18"/>
</g>
<!-- Node19 -->
<g id="node19" class="node">
<title>Node19</title>
<g id="a_node19"><a xlink:href="Advanceable_8h.html" target="_top" xlink:title=" ">
<polygon fill="none" stroke="black" points="215.5,-257.5 215.5,-287.5 365.5,-287.5 365.5,-257.5 215.5,-257.5"/>
<text text-anchor="start" x="223.5" y="-275.5" font-family="Helvetica,sans-Serif" font-size="10.00">BipedalLocomotion/System</text>
<text text-anchor="middle" x="290.5" y="-264.5" font-family="Helvetica,sans-Serif" font-size="10.00">/Advanceable.h</text>
</a>
</g>
</g>
<!-- Node18&#45;&gt;Node19 -->
<g id="edge22" class="edge">
<title>Node18&#45;&gt;Node19</title>
<path fill="none" stroke="midnightblue" d="M290.5,-324.4C290.5,-316.64 290.5,-306.81 290.5,-297.86"/>
<polygon fill="midnightblue" stroke="midnightblue" points="294,-297.58 290.5,-287.58 287,-297.58 294,-297.58"/>
</g>
<!-- Node19&#45;&gt;Node7 -->
<g id="edge24" class="edge">
<title>Node19&#45;&gt;Node7</title>
<path fill="none" stroke="midnightblue" d="M315.67,-257.4C332.24,-248.11 354.14,-235.84 372.28,-225.67"/>
<polygon fill="midnightblue" stroke="midnightblue" points="374.37,-228.52 381.38,-220.58 370.94,-222.41 374.37,-228.52"/>
</g>
<!-- Node20 -->
<g id="node20" class="node">
<title>Node20</title>
<g id="a_node20"><a xlink:title=" ">
<polygon fill="none" stroke="#bfbfbf" points="253,-196 253,-215 304,-215 304,-196 253,-196"/>
<text text-anchor="middle" x="278.5" y="-203" font-family="Helvetica,sans-Serif" font-size="10.00">variant</text>
</a>
</g>
</g>
<!-- Node19&#45;&gt;Node20 -->
<g id="edge23" class="edge">
<title>Node19&#45;&gt;Node20</title>
<path fill="none" stroke="midnightblue" d="M287.9,-257.4C286.15,-247.96 283.84,-235.45 281.95,-225.19"/>
<polygon fill="midnightblue" stroke="midnightblue" points="285.36,-224.39 280.11,-215.19 278.48,-225.66 285.36,-224.39"/>
</g>
<!-- Node21&#45;&gt;Node2 -->
<g id="edge26" class="edge">
<title>Node21&#45;&gt;Node2</title>
<path fill="none" stroke="midnightblue" d="M849.16,-324.31C858.02,-286.45 876.28,-181.91 825.5,-123 804.03,-98.1 712.26,-83.36 658.72,-76.73"/>
<polygon fill="midnightblue" stroke="midnightblue" points="658.9,-73.22 648.56,-75.51 658.07,-80.18 658.9,-73.22"/>
</g>
<!-- Node21&#45;&gt;Node3 -->
<g id="edge27" class="edge">
<title>Node21&#45;&gt;Node3</title>
<path fill="none" stroke="midnightblue" d="M842.36,-324.33C838.72,-308.04 832.44,-280.52 826.5,-257 817.6,-221.77 806.23,-180.88 799.71,-157.81"/>
<polygon fill="midnightblue" stroke="midnightblue" points="803.03,-156.69 796.94,-148.02 796.3,-158.6 803.03,-156.69"/>
</g>
<!-- Node21&#45;&gt;Node5 -->
<g id="edge28" class="edge">
<title>Node21&#45;&gt;Node5</title>
<path fill="none" stroke="midnightblue" d="M868.28,-324.4C886.05,-313.39 910.6,-298.2 928.24,-287.28"/>
<polygon fill="midnightblue" stroke="midnightblue" points="930.1,-290.25 936.76,-282.01 926.41,-284.29 930.1,-290.25"/>
</g>
<!-- Node21&#45;&gt;Node7 -->
<g id="edge30" class="edge">
<title>Node21&#45;&gt;Node7</title>
<path fill="none" stroke="midnightblue" d="M770.2,-333.44C680.45,-326.44 536.56,-311.9 488.5,-288 461.07,-274.36 437.2,-248.02 422.4,-228.96"/>
<polygon fill="midnightblue" stroke="midnightblue" points="425.06,-226.68 416.25,-220.79 419.47,-230.89 425.06,-226.68"/>
</g>
<!-- Node22 -->
<g id="node22" class="node">
<title>Node22</title>
<g id="a_node22"><a xlink:title=" ">
<polygon fill="none" stroke="#bfbfbf" points="497.5,-263 497.5,-282 649.5,-282 649.5,-263 497.5,-263"/>
<text text-anchor="middle" x="573.5" y="-270" font-family="Helvetica,sans-Serif" font-size="10.00">iDynTree/Core/MatrixView.h</text>
</a>
</g>
</g>
<!-- Node21&#45;&gt;Node22 -->
<g id="edge29" class="edge">
<title>Node21&#45;&gt;Node22</title>
<path fill="none" stroke="midnightblue" d="M786.81,-324.48C736.58,-312.47 665.27,-295.43 619.19,-284.42"/>
<polygon fill="midnightblue" stroke="midnightblue" points="619.73,-280.95 609.19,-282.03 618.1,-287.76 619.73,-280.95"/>
</g>
<!-- Node23 -->
<g id="node23" class="node">
<title>Node23</title>
<g id="a_node23"><a xlink:href="VariablesHandler_8h.html" target="_top" xlink:title=" ">
<polygon fill="none" stroke="black" points="667.5,-257.5 667.5,-287.5 817.5,-287.5 817.5,-257.5 667.5,-257.5"/>
<text text-anchor="start" x="675.5" y="-275.5" font-family="Helvetica,sans-Serif" font-size="10.00">BipedalLocomotion/System</text>
<text text-anchor="middle" x="742.5" y="-264.5" font-family="Helvetica,sans-Serif" font-size="10.00">/VariablesHandler.h</text>
</a>
</g>
</g>
<!-- Node21&#45;&gt;Node23 -->
<g id="edge31" class="edge">
<title>Node21&#45;&gt;Node23</title>
<path fill="none" stroke="midnightblue" d="M823.15,-324.4C808.57,-315.2 789.35,-303.07 773.33,-292.95"/>
<polygon fill="midnightblue" stroke="midnightblue" points="775.13,-289.95 764.81,-287.58 771.39,-295.87 775.13,-289.95"/>
</g>
<!-- Node23&#45;&gt;Node2 -->
<g id="edge33" class="edge">
<title>Node23&#45;&gt;Node2</title>
<path fill="none" stroke="midnightblue" d="M741.31,-257.22C739.44,-240.35 734.77,-211.82 723.5,-190 701.68,-147.75 661.26,-108.48 637.75,-87.78"/>
<polygon fill="midnightblue" stroke="midnightblue" points="639.78,-84.91 629.92,-81.02 635.2,-90.2 639.78,-84.91"/>
</g>
<!-- Node23&#45;&gt;Node3 -->
<g id="edge32" class="edge">
<title>Node23&#45;&gt;Node3</title>
<path fill="none" stroke="midnightblue" d="M748.06,-257.37C757.55,-233.29 776.85,-184.31 787.33,-157.7"/>
<polygon fill="midnightblue" stroke="midnightblue" points="790.7,-158.68 791.11,-148.1 784.19,-156.12 790.7,-158.68"/>
</g>
<!-- Node23&#45;&gt;Node7 -->
<g id="edge35" class="edge">
<title>Node23&#45;&gt;Node7</title>
<path fill="none" stroke="midnightblue" d="M670.01,-257.48C616.88,-247.2 544.68,-233.23 489.29,-222.52"/>
<polygon fill="midnightblue" stroke="midnightblue" points="489.64,-219.02 479.15,-220.55 488.31,-225.89 489.64,-219.02"/>
</g>
<!-- Node24 -->
<g id="node24" class="node">
<title>Node24</title>
<g id="a_node24"><a xlink:title=" ">
<polygon fill="none" stroke="#bfbfbf" points="621,-196 621,-215 714,-215 714,-196 621,-196"/>
<text text-anchor="middle" x="667.5" y="-203" font-family="Helvetica,sans-Serif" font-size="10.00">unordered_map</text>
</a>
</g>
</g>
<!-- Node23&#45;&gt;Node24 -->
<g id="edge34" class="edge">
<title>Node23&#45;&gt;Node24</title>
<path fill="none" stroke="midnightblue" d="M726.23,-257.4C714.18,-246.96 697.79,-232.75 685.38,-222"/>
<polygon fill="midnightblue" stroke="midnightblue" points="687.38,-219.1 677.53,-215.19 682.8,-224.39 687.38,-219.1"/>
</g>
</g>
</svg>
