<?xml version="1.0" encoding="UTF-8" standalone="no"?>
<!DOCTYPE svg PUBLIC "-//W3C//DTD SVG 1.1//EN"
 "http://www.w3.org/Graphics/SVG/1.1/DTD/svg11.dtd">
<!-- Generated by graphviz version 2.43.0 (0)
 -->
<!-- Title: Estimators/src/InvariantEKFBaseEstimator.cpp Pages: 1 -->
<!--zoomable 586 -->
<svg id="main" version="1.1" xmlns="http://www.w3.org/2000/svg" xmlns:xlink="http://www.w3.org/1999/xlink" xml:space="preserve" onload="init(evt)">
<style type="text/css"><![CDATA[
.edge:hover path { stroke: red; }
.edge:hover polygon { stroke: red; fill: red; }
]]></style>
<script type="text/javascript"><![CDATA[
var edges = document.getElementsByTagName('g');
if (edges && edges.length) {
  for (var i=0;i<edges.length;i++) {
    if (edges[i].id.substr(0,4)=='edge') {
      edges[i].setAttribute('class','edge');
    }
  }
}
]]></script>
        <defs>
                <circle id="rim" cx="0" cy="0" r="7"/>
                <circle id="rim2" cx="0" cy="0" r="3.5"/>
                <g id="zoomPlus">
                        <use xlink:href="#rim" fill="#404040">
                                <set attributeName="fill" to="#808080" begin="zoomplus.mouseover" end="zoomplus.mouseout"/>
                        </use>
                        <path d="M-4,0h8M0,-4v8" fill="none" stroke="white" stroke-width="1.5" pointer-events="none"/>
                </g>
                <g id="zoomMin">
                        <use xlink:href="#rim" fill="#404040">
                                <set attributeName="fill" to="#808080" begin="zoomminus.mouseover" end="zoomminus.mouseout"/>
                        </use>
                        <path d="M-4,0h8" fill="none" stroke="white" stroke-width="1.5" pointer-events="none"/>
                </g>
                <g id="dirArrow">
                        <path fill="none" stroke="white" stroke-width="1.5" d="M0,-3.0v7 M-2.5,-0.5L0,-3.0L2.5,-0.5"/>
                </g>
               <g id="resetDef">
                       <use xlink:href="#rim2" fill="#404040">
                               <set attributeName="fill" to="#808080" begin="reset.mouseover" end="reset.mouseout"/>
                       </use>
               </g>
        </defs>

<script type="text/javascript">
var viewWidth = 1396;
var viewHeight = 586;
var sectionId = 'dynsection-0';
</script>
<script xlink:href="svgpan.js"/>
<svg id="graph" class="graph">
<g id="viewport">
<title>Estimators/src/InvariantEKFBaseEstimator.cpp</title>
<!-- Node1 -->
<g id="node1" class="node">
<title>Node1</title>
<g id="a_node1"><a xlink:title=" ">
<polygon fill="#bfbfbf" stroke="black" points="1131.5,-547.5 1131.5,-577.5 1264.5,-577.5 1264.5,-547.5 1131.5,-547.5"/>
<text text-anchor="start" x="1139.5" y="-565.5" font-family="Helvetica,sans-Serif" font-size="10.00">Estimators/src/Invariant</text>
<text text-anchor="middle" x="1198" y="-554.5" font-family="Helvetica,sans-Serif" font-size="10.00">EKFBaseEstimator.cpp</text>
</a>
</g>
</g>
<!-- Node2 -->
<g id="node2" class="node">
<title>Node2</title>
<g id="a_node2"><a xlink:href="InvariantEKFBaseEstimator_8h.html" target="_top" xlink:title=" ">
<polygon fill="none" stroke="black" points="763,-469.5 763,-510.5 945,-510.5 945,-469.5 763,-469.5"/>
<text text-anchor="start" x="771" y="-498.5" font-family="Helvetica,sans-Serif" font-size="10.00">BipedalLocomotion/Floating</text>
<text text-anchor="start" x="771" y="-487.5" font-family="Helvetica,sans-Serif" font-size="10.00">BaseEstimators/InvariantEKFBase</text>
<text text-anchor="middle" x="854" y="-476.5" font-family="Helvetica,sans-Serif" font-size="10.00">Estimator.h</text>
</a>
</g>
</g>
<!-- Node1&#45;&gt;Node2 -->
<g id="edge1" class="edge">
<title>Node1&#45;&gt;Node2</title>
<path fill="none" stroke="midnightblue" d="M1131.27,-547.82C1081.32,-537.59 1012.12,-523.41 955.35,-511.77"/>
<polygon fill="midnightblue" stroke="midnightblue" points="955.77,-508.28 945.27,-509.7 954.36,-515.14 955.77,-508.28"/>
</g>
<!-- Node24 -->
<g id="node24" class="node">
<title>Node24</title>
<g id="a_node24"><a xlink:title=" ">
<polygon fill="none" stroke="#bfbfbf" points="1054.5,-263 1054.5,-282 1139.5,-282 1139.5,-263 1054.5,-263"/>
<text text-anchor="middle" x="1097" y="-270" font-family="Helvetica,sans-Serif" font-size="10.00">manif/manif.h</text>
</a>
</g>
</g>
<!-- Node1&#45;&gt;Node24 -->
<g id="edge40" class="edge">
<title>Node1&#45;&gt;Node24</title>
<path fill="none" stroke="midnightblue" d="M1200.98,-547.32C1208.39,-508.3 1223.92,-397.38 1179,-324 1168.32,-306.55 1149.12,-294.25 1131.98,-286.16"/>
<polygon fill="midnightblue" stroke="midnightblue" points="1133.3,-282.91 1122.74,-282.09 1130.48,-289.32 1133.3,-282.91"/>
</g>
<!-- Node30 -->
<g id="node30" class="node">
<title>Node30</title>
<g id="a_node30"><a xlink:title=" ">
<polygon fill="none" stroke="#bfbfbf" points="1226.5,-480.5 1226.5,-499.5 1387.5,-499.5 1387.5,-480.5 1226.5,-480.5"/>
<text text-anchor="middle" x="1307" y="-487.5" font-family="Helvetica,sans-Serif" font-size="10.00">iDynTree/Core/EigenHelpers.h</text>
</a>
</g>
</g>
<!-- Node1&#45;&gt;Node30 -->
<g id="edge39" class="edge">
<title>Node1&#45;&gt;Node30</title>
<path fill="none" stroke="midnightblue" d="M1219.8,-547.4C1238.8,-535.11 1266.23,-517.37 1285.23,-505.08"/>
<polygon fill="midnightblue" stroke="midnightblue" points="1287.31,-507.9 1293.81,-499.53 1283.51,-502.03 1287.31,-507.9"/>
</g>
<!-- Node3 -->
<g id="node3" class="node">
<title>Node3</title>
<g id="a_node3"><a xlink:href="FloatingBaseEstimator_8h.html" target="_top" xlink:title=" ">
<polygon fill="none" stroke="black" points="454.5,-402.5 454.5,-432.5 669.5,-432.5 669.5,-402.5 454.5,-402.5"/>
<text text-anchor="start" x="462.5" y="-420.5" font-family="Helvetica,sans-Serif" font-size="10.00">BipedalLocomotion/Floating</text>
<text text-anchor="middle" x="562" y="-409.5" font-family="Helvetica,sans-Serif" font-size="10.00">BaseEstimators/FloatingBaseEstimator.h</text>
</a>
</g>
</g>
<!-- Node2&#45;&gt;Node3 -->
<g id="edge2" class="edge">
<title>Node2&#45;&gt;Node3</title>
<path fill="none" stroke="midnightblue" d="M773.05,-469.46C728.11,-458.61 672.83,-445.26 630.13,-434.95"/>
<polygon fill="midnightblue" stroke="midnightblue" points="630.93,-431.54 620.39,-432.6 629.29,-438.35 630.93,-431.54"/>
</g>
<!-- Node4 -->
<g id="node4" class="node">
<title>Node4</title>
<g id="a_node4"><a xlink:href="Source_8h.html" target="_top" xlink:title=" ">
<polygon fill="none" stroke="black" points="0,-330 0,-360 150,-360 150,-330 0,-330"/>
<text text-anchor="start" x="8" y="-348" font-family="Helvetica,sans-Serif" font-size="10.00">BipedalLocomotion/System</text>
<text text-anchor="middle" x="75" y="-337" font-family="Helvetica,sans-Serif" font-size="10.00">/Source.h</text>
</a>
</g>
</g>
<!-- Node3&#45;&gt;Node4 -->
<g id="edge3" class="edge">
<title>Node3&#45;&gt;Node4</title>
<path fill="none" stroke="midnightblue" d="M454.32,-405.63C374.01,-396.85 261.76,-383.15 164,-366 157.4,-364.84 150.55,-363.52 143.71,-362.12"/>
<polygon fill="midnightblue" stroke="midnightblue" points="144.23,-358.65 133.73,-360.02 142.79,-365.5 144.23,-358.65"/>
</g>
<!-- Node7 -->
<g id="node7" class="node">
<title>Node7</title>
<g id="a_node7"><a xlink:href="IParametersHandler_8h.html" target="_top" xlink:title=" ">
<polygon fill="none" stroke="black" points="273.5,-190.5 273.5,-220.5 442.5,-220.5 442.5,-190.5 273.5,-190.5"/>
<text text-anchor="start" x="281.5" y="-208.5" font-family="Helvetica,sans-Serif" font-size="10.00">BipedalLocomotion/Parameters</text>
<text text-anchor="middle" x="358" y="-197.5" font-family="Helvetica,sans-Serif" font-size="10.00">Handler/IParametersHandler.h</text>
</a>
</g>
</g>
<!-- Node3&#45;&gt;Node7 -->
<g id="edge21" class="edge">
<title>Node3&#45;&gt;Node7</title>
<path fill="none" stroke="midnightblue" d="M534.81,-402.48C518.51,-393.34 497.94,-380.45 482,-366 435.21,-323.57 392.89,-261.92 371.91,-229.07"/>
<polygon fill="midnightblue" stroke="midnightblue" points="374.86,-227.2 366.57,-220.61 368.94,-230.94 374.86,-227.2"/>
</g>
<!-- Node8 -->
<g id="node8" class="node">
<title>Node8</title>
<g id="a_node8"><a xlink:title=" ">
<polygon fill="none" stroke="#bfbfbf" points="73,-62 73,-81 131,-81 131,-62 73,-62"/>
<text text-anchor="middle" x="102" y="-69" font-family="Helvetica,sans-Serif" font-size="10.00">memory</text>
</a>
</g>
</g>
<!-- Node3&#45;&gt;Node8 -->
<g id="edge38" class="edge">
<title>Node3&#45;&gt;Node8</title>
<path fill="none" stroke="midnightblue" d="M477.25,-402.49C364.17,-381.34 178,-336.9 178,-273.5 178,-273.5 178,-273.5 178,-204.5 178,-157.19 140.88,-111.54 118.53,-88.33"/>
<polygon fill="midnightblue" stroke="midnightblue" points="120.86,-85.71 111.32,-81.09 115.89,-90.65 120.86,-85.71"/>
</g>
<!-- Node19 -->
<g id="node19" class="node">
<title>Node19</title>
<g id="a_node19"><a xlink:title=" ">
<polygon fill="none" stroke="#bfbfbf" points="617,-62 617,-81 677,-81 677,-62 617,-62"/>
<text text-anchor="middle" x="647" y="-69" font-family="Helvetica,sans-Serif" font-size="10.00">iostream</text>
</a>
</g>
</g>
<!-- Node3&#45;&gt;Node19 -->
<g id="edge37" class="edge">
<title>Node3&#45;&gt;Node19</title>
<path fill="none" stroke="midnightblue" d="M543.58,-402.29C533.34,-393.18 521.57,-380.38 516,-366 509.26,-348.59 512.93,-342.41 516,-324 531.55,-230.84 530.97,-200.47 585,-123 595.19,-108.38 610.76,-95.73 623.74,-86.74"/>
<polygon fill="midnightblue" stroke="midnightblue" points="625.81,-89.57 632.22,-81.13 621.94,-83.73 625.81,-89.57"/>
</g>
<!-- Node20 -->
<g id="node20" class="node">
<title>Node20</title>
<g id="a_node20"><a xlink:href="FloatingBaseEstimatorParams_8h.html" target="_top" xlink:title=" ">
<polygon fill="none" stroke="black" points="524.5,-324.5 524.5,-365.5 731.5,-365.5 731.5,-324.5 524.5,-324.5"/>
<text text-anchor="start" x="532.5" y="-353.5" font-family="Helvetica,sans-Serif" font-size="10.00">BipedalLocomotion/Floating</text>
<text text-anchor="start" x="532.5" y="-342.5" font-family="Helvetica,sans-Serif" font-size="10.00">BaseEstimators/FloatingBaseEstimator</text>
<text text-anchor="middle" x="628" y="-331.5" font-family="Helvetica,sans-Serif" font-size="10.00">Params.h</text>
</a>
</g>
</g>
<!-- Node3&#45;&gt;Node20 -->
<g id="edge22" class="edge">
<title>Node3&#45;&gt;Node20</title>
<path fill="none" stroke="midnightblue" d="M575.36,-402.23C583.22,-393.83 593.42,-382.93 602.75,-372.97"/>
<polygon fill="midnightblue" stroke="midnightblue" points="605.38,-375.28 609.66,-365.59 600.27,-370.5 605.38,-375.28"/>
</g>
<!-- Node23 -->
<g id="node23" class="node">
<title>Node23</title>
<g id="a_node23"><a xlink:href="FloatingBaseEstimatorIO_8h.html" target="_top" xlink:title=" ">
<polygon fill="none" stroke="black" points="749.5,-330 749.5,-360 976.5,-360 976.5,-330 749.5,-330"/>
<text text-anchor="start" x="757.5" y="-348" font-family="Helvetica,sans-Serif" font-size="10.00">BipedalLocomotion/Floating</text>
<text text-anchor="middle" x="863" y="-337" font-family="Helvetica,sans-Serif" font-size="10.00">BaseEstimators/FloatingBaseEstimatorIO.h</text>
</a>
</g>
</g>
<!-- Node3&#45;&gt;Node23 -->
<g id="edge25" class="edge">
<title>Node3&#45;&gt;Node23</title>
<path fill="none" stroke="midnightblue" d="M621.83,-402.49C671.19,-390.92 741.31,-374.5 793.23,-362.34"/>
<polygon fill="midnightblue" stroke="midnightblue" points="794.09,-365.73 803.03,-360.05 792.49,-358.92 794.09,-365.73"/>
</g>
<!-- Node29 -->
<g id="node29" class="node">
<title>Node29</title>
<g id="a_node29"><a xlink:title=" ">
<polygon fill="none" stroke="#bfbfbf" points="994.5,-335.5 994.5,-354.5 1169.5,-354.5 1169.5,-335.5 994.5,-335.5"/>
<text text-anchor="middle" x="1082" y="-342.5" font-family="Helvetica,sans-Serif" font-size="10.00">iDynTree/KinDynComputations.h</text>
</a>
</g>
</g>
<!-- Node3&#45;&gt;Node29 -->
<g id="edge36" class="edge">
<title>Node3&#45;&gt;Node29</title>
<path fill="none" stroke="midnightblue" d="M669.53,-406.3C755.46,-397.52 878.82,-383.51 986,-366 1001.99,-363.39 1019.35,-359.95 1034.86,-356.67"/>
<polygon fill="midnightblue" stroke="midnightblue" points="1035.72,-360.07 1044.76,-354.54 1034.24,-353.22 1035.72,-360.07"/>
</g>
<!-- Node5 -->
<g id="node5" class="node">
<title>Node5</title>
<g id="a_node5"><a xlink:href="Advanceable_8h.html" target="_top" xlink:title=" ">
<polygon fill="none" stroke="black" points="0,-257.5 0,-287.5 150,-287.5 150,-257.5 0,-257.5"/>
<text text-anchor="start" x="8" y="-275.5" font-family="Helvetica,sans-Serif" font-size="10.00">BipedalLocomotion/System</text>
<text text-anchor="middle" x="75" y="-264.5" font-family="Helvetica,sans-Serif" font-size="10.00">/Advanceable.h</text>
</a>
</g>
</g>
<!-- Node4&#45;&gt;Node5 -->
<g id="edge4" class="edge">
<title>Node4&#45;&gt;Node5</title>
<path fill="none" stroke="midnightblue" d="M75,-329.73C75,-320.66 75,-308.66 75,-298.08"/>
<polygon fill="midnightblue" stroke="midnightblue" points="78.5,-297.75 75,-287.75 71.5,-297.75 78.5,-297.75"/>
</g>
<!-- Node6 -->
<g id="node6" class="node">
<title>Node6</title>
<g id="a_node6"><a xlink:title=" ">
<polygon fill="none" stroke="#bfbfbf" points="49.5,-196 49.5,-215 100.5,-215 100.5,-196 49.5,-196"/>
<text text-anchor="middle" x="75" y="-203" font-family="Helvetica,sans-Serif" font-size="10.00">variant</text>
</a>
</g>
</g>
<!-- Node5&#45;&gt;Node6 -->
<g id="edge5" class="edge">
<title>Node5&#45;&gt;Node6</title>
<path fill="none" stroke="midnightblue" d="M75,-257.4C75,-248.06 75,-235.71 75,-225.52"/>
<polygon fill="midnightblue" stroke="midnightblue" points="78.5,-225.19 75,-215.19 71.5,-225.19 78.5,-225.19"/>
</g>
<!-- Node5&#45;&gt;Node7 -->
<g id="edge6" class="edge">
<title>Node5&#45;&gt;Node7</title>
<path fill="none" stroke="midnightblue" d="M136.06,-257.48C180.26,-247.32 240.15,-233.57 286.57,-222.91"/>
<polygon fill="midnightblue" stroke="midnightblue" points="287.6,-226.26 296.56,-220.61 286.03,-219.44 287.6,-226.26"/>
</g>
<!-- Node7&#45;&gt;Node8 -->
<g id="edge7" class="edge">
<title>Node7&#45;&gt;Node8</title>
<path fill="none" stroke="midnightblue" d="M325.11,-190.43C302.83,-180.68 272.86,-167.14 247,-154 221.98,-141.29 216.46,-136.75 192,-123 169.66,-110.44 144.18,-96.14 126.05,-85.98"/>
<polygon fill="midnightblue" stroke="midnightblue" points="127.73,-82.91 117.29,-81.07 124.3,-89.01 127.73,-82.91"/>
</g>
<!-- Node9 -->
<g id="node9" class="node">
<title>Node9</title>
<g id="a_node9"><a xlink:title=" ">
<polygon fill="none" stroke="#bfbfbf" points="594,-129 594,-148 638,-148 638,-129 594,-129"/>
<text text-anchor="middle" x="616" y="-136" font-family="Helvetica,sans-Serif" font-size="10.00">string</text>
</a>
</g>
</g>
<!-- Node7&#45;&gt;Node9 -->
<g id="edge8" class="edge">
<title>Node7&#45;&gt;Node9</title>
<path fill="none" stroke="midnightblue" d="M413.66,-190.48C465.67,-177.37 541.48,-158.27 584.01,-147.56"/>
<polygon fill="midnightblue" stroke="midnightblue" points="584.97,-150.93 593.81,-145.09 583.26,-144.14 584.97,-150.93"/>
</g>
<!-- Node10 -->
<g id="node10" class="node">
<title>Node10</title>
<g id="a_node10"><a xlink:title=" ">
<polygon fill="none" stroke="#bfbfbf" points="451.5,-129 451.5,-148 498.5,-148 498.5,-129 451.5,-129"/>
<text text-anchor="middle" x="475" y="-136" font-family="Helvetica,sans-Serif" font-size="10.00">vector</text>
</a>
</g>
</g>
<!-- Node7&#45;&gt;Node10 -->
<g id="edge9" class="edge">
<title>Node7&#45;&gt;Node10</title>
<path fill="none" stroke="midnightblue" d="M383.39,-190.4C403.37,-179.29 431.04,-163.92 450.73,-152.98"/>
<polygon fill="midnightblue" stroke="midnightblue" points="452.65,-155.92 459.69,-148.01 449.25,-149.8 452.65,-155.92"/>
</g>
<!-- Node11 -->
<g id="node11" class="node">
<title>Node11</title>
<g id="a_node11"><a xlink:href="TemplateHelpers_8h_source.html" target="_top" xlink:title=" ">
<polygon fill="none" stroke="black" points="149,-56.5 149,-86.5 307,-86.5 307,-56.5 149,-56.5"/>
<text text-anchor="start" x="157" y="-74.5" font-family="Helvetica,sans-Serif" font-size="10.00">BipedalLocomotion/Generic</text>
<text text-anchor="middle" x="228" y="-63.5" font-family="Helvetica,sans-Serif" font-size="10.00">Container/TemplateHelpers.h</text>
</a>
</g>
</g>
<!-- Node7&#45;&gt;Node11 -->
<g id="edge10" class="edge">
<title>Node7&#45;&gt;Node11</title>
<path fill="none" stroke="midnightblue" d="M325.73,-190.47C308.55,-181.81 287.93,-169.41 273,-154 256.83,-137.31 244.63,-113.66 237.04,-96.13"/>
<polygon fill="midnightblue" stroke="midnightblue" points="240.16,-94.52 233.11,-86.62 233.69,-97.2 240.16,-94.52"/>
</g>
<!-- Node15 -->
<g id="node15" class="node">
<title>Node15</title>
<g id="a_node15"><a xlink:href="Vector_8h_source.html" target="_top" xlink:title=" ">
<polygon fill="none" stroke="black" points="282.5,-123.5 282.5,-153.5 433.5,-153.5 433.5,-123.5 282.5,-123.5"/>
<text text-anchor="start" x="290.5" y="-141.5" font-family="Helvetica,sans-Serif" font-size="10.00">BipedalLocomotion/Generic</text>
<text text-anchor="middle" x="358" y="-130.5" font-family="Helvetica,sans-Serif" font-size="10.00">Container/Vector.h</text>
</a>
</g>
</g>
<!-- Node7&#45;&gt;Node15 -->
<g id="edge14" class="edge">
<title>Node7&#45;&gt;Node15</title>
<path fill="none" stroke="midnightblue" d="M358,-190.4C358,-182.64 358,-172.81 358,-163.86"/>
<polygon fill="midnightblue" stroke="midnightblue" points="361.5,-163.58 358,-153.58 354.5,-163.58 361.5,-163.58"/>
</g>
<!-- Node12 -->
<g id="node12" class="node">
<title>Node12</title>
<g id="a_node12"><a xlink:title=" ">
<polygon fill="none" stroke="#bfbfbf" points="104.5,-0.5 104.5,-19.5 173.5,-19.5 173.5,-0.5 104.5,-0.5"/>
<text text-anchor="middle" x="139" y="-7.5" font-family="Helvetica,sans-Serif" font-size="10.00">type_traits</text>
</a>
</g>
</g>
<!-- Node11&#45;&gt;Node12 -->
<g id="edge11" class="edge">
<title>Node11&#45;&gt;Node12</title>
<path fill="none" stroke="midnightblue" d="M206.91,-56.4C192.91,-47.04 174.59,-34.79 160.51,-25.38"/>
<polygon fill="midnightblue" stroke="midnightblue" points="162.21,-22.31 151.95,-19.66 158.32,-28.13 162.21,-22.31"/>
</g>
<!-- Node13 -->
<g id="node13" class="node">
<title>Node13</title>
<g id="a_node13"><a xlink:title=" ">
<polygon fill="none" stroke="#bfbfbf" points="191.5,-0.5 191.5,-19.5 264.5,-19.5 264.5,-0.5 191.5,-0.5"/>
<text text-anchor="middle" x="228" y="-7.5" font-family="Helvetica,sans-Serif" font-size="10.00">string_view</text>
</a>
</g>
</g>
<!-- Node11&#45;&gt;Node13 -->
<g id="edge12" class="edge">
<title>Node11&#45;&gt;Node13</title>
<path fill="none" stroke="midnightblue" d="M228,-56.4C228,-48.47 228,-38.46 228,-29.86"/>
<polygon fill="midnightblue" stroke="midnightblue" points="231.5,-29.66 228,-19.66 224.5,-29.66 231.5,-29.66"/>
</g>
<!-- Node14 -->
<g id="node14" class="node">
<title>Node14</title>
<g id="a_node14"><a xlink:title=" ">
<polygon fill="none" stroke="#bfbfbf" points="282.5,-0.5 282.5,-19.5 351.5,-19.5 351.5,-0.5 282.5,-0.5"/>
<text text-anchor="middle" x="317" y="-7.5" font-family="Helvetica,sans-Serif" font-size="10.00">Eigen/Core</text>
</a>
</g>
</g>
<!-- Node11&#45;&gt;Node14 -->
<g id="edge13" class="edge">
<title>Node11&#45;&gt;Node14</title>
<path fill="none" stroke="midnightblue" d="M249.09,-56.4C263.09,-47.04 281.41,-34.79 295.49,-25.38"/>
<polygon fill="midnightblue" stroke="midnightblue" points="297.68,-28.13 304.05,-19.66 293.79,-22.31 297.68,-28.13"/>
</g>
<!-- Node15&#45;&gt;Node8 -->
<g id="edge20" class="edge">
<title>Node15&#45;&gt;Node8</title>
<path fill="none" stroke="midnightblue" d="M286.17,-123.45C243.34,-114.43 188.12,-101.68 140,-87 137.58,-86.26 135.09,-85.44 132.6,-84.59"/>
<polygon fill="midnightblue" stroke="midnightblue" points="133.72,-81.27 123.13,-81.15 131.33,-87.85 133.72,-81.27"/>
</g>
<!-- Node15&#45;&gt;Node11 -->
<g id="edge16" class="edge">
<title>Node15&#45;&gt;Node11</title>
<path fill="none" stroke="midnightblue" d="M329.79,-123.4C310.88,-113.94 285.78,-101.39 265.23,-91.12"/>
<polygon fill="midnightblue" stroke="midnightblue" points="266.66,-87.92 256.15,-86.58 263.53,-94.18 266.66,-87.92"/>
</g>
<!-- Node16 -->
<g id="node16" class="node">
<title>Node16</title>
<g id="a_node16"><a xlink:title=" ">
<polygon fill="none" stroke="#bfbfbf" points="324.5,-62 324.5,-81 445.5,-81 445.5,-62 324.5,-62"/>
<text text-anchor="middle" x="385" y="-69" font-family="Helvetica,sans-Serif" font-size="10.00">iDynTree/Core/Span.h</text>
</a>
</g>
</g>
<!-- Node15&#45;&gt;Node16 -->
<g id="edge15" class="edge">
<title>Node15&#45;&gt;Node16</title>
<path fill="none" stroke="midnightblue" d="M363.86,-123.4C367.86,-113.76 373.2,-100.91 377.51,-90.54"/>
<polygon fill="midnightblue" stroke="midnightblue" points="380.78,-91.77 381.39,-81.19 374.32,-89.09 380.78,-91.77"/>
</g>
<!-- Node17 -->
<g id="node17" class="node">
<title>Node17</title>
<g id="a_node17"><a xlink:title=" ">
<polygon fill="none" stroke="#bfbfbf" points="463.5,-62 463.5,-81 528.5,-81 528.5,-62 463.5,-62"/>
<text text-anchor="middle" x="496" y="-69" font-family="Helvetica,sans-Serif" font-size="10.00">functional</text>
</a>
</g>
</g>
<!-- Node15&#45;&gt;Node17 -->
<g id="edge17" class="edge">
<title>Node15&#45;&gt;Node17</title>
<path fill="none" stroke="midnightblue" d="M387.94,-123.4C411.94,-112.09 445.34,-96.36 468.63,-85.39"/>
<polygon fill="midnightblue" stroke="midnightblue" points="470.38,-88.43 477.94,-81.01 467.4,-82.1 470.38,-88.43"/>
</g>
<!-- Node18 -->
<g id="node18" class="node">
<title>Node18</title>
<g id="a_node18"><a xlink:title=" ">
<polygon fill="none" stroke="#bfbfbf" points="547,-62 547,-81 599,-81 599,-62 547,-62"/>
<text text-anchor="middle" x="573" y="-69" font-family="Helvetica,sans-Serif" font-size="10.00">cassert</text>
</a>
</g>
</g>
<!-- Node15&#45;&gt;Node18 -->
<g id="edge18" class="edge">
<title>Node15&#45;&gt;Node18</title>
<path fill="none" stroke="midnightblue" d="M414.88,-123.4C450.57,-114.1 497.36,-101.06 538,-87 539.91,-86.34 541.87,-85.63 543.83,-84.89"/>
<polygon fill="midnightblue" stroke="midnightblue" points="545.53,-87.98 553.54,-81.05 542.95,-81.47 545.53,-87.98"/>
</g>
<!-- Node15&#45;&gt;Node19 -->
<g id="edge19" class="edge">
<title>Node15&#45;&gt;Node19</title>
<path fill="none" stroke="midnightblue" d="M433.75,-123.55C494.92,-112.03 575.9,-96.15 608,-87 610.64,-86.25 613.36,-85.4 616.08,-84.5"/>
<polygon fill="midnightblue" stroke="midnightblue" points="617.48,-87.71 625.74,-81.09 615.15,-81.11 617.48,-87.71"/>
</g>
<!-- Node21 -->
<g id="node21" class="node">
<title>Node21</title>
<g id="a_node21"><a xlink:title=" ">
<polygon fill="none" stroke="#bfbfbf" points="713.5,-129 713.5,-148 790.5,-148 790.5,-129 713.5,-129"/>
<text text-anchor="middle" x="752" y="-136" font-family="Helvetica,sans-Serif" font-size="10.00">Eigen/Dense</text>
</a>
</g>
</g>
<!-- Node20&#45;&gt;Node21 -->
<g id="edge23" class="edge">
<title>Node20&#45;&gt;Node21</title>
<path fill="none" stroke="midnightblue" d="M638.29,-324.43C647.76,-306.65 662.36,-279.8 676,-257 697.72,-220.7 725.05,-179.42 740.32,-156.73"/>
<polygon fill="midnightblue" stroke="midnightblue" points="743.37,-158.46 746.07,-148.21 737.57,-154.54 743.37,-158.46"/>
</g>
<!-- Node22 -->
<g id="node22" class="node">
<title>Node22</title>
<g id="a_node22"><a xlink:title=" ">
<polygon fill="none" stroke="#bfbfbf" points="685,-263 685,-282 723,-282 723,-263 685,-263"/>
<text text-anchor="middle" x="704" y="-270" font-family="Helvetica,sans-Serif" font-size="10.00">map</text>
</a>
</g>
</g>
<!-- Node20&#45;&gt;Node22 -->
<g id="edge24" class="edge">
<title>Node20&#45;&gt;Node22</title>
<path fill="none" stroke="midnightblue" d="M649.17,-324.36C661.19,-313.21 676.02,-299.46 687.22,-289.06"/>
<polygon fill="midnightblue" stroke="midnightblue" points="689.7,-291.54 694.65,-282.17 684.94,-286.41 689.7,-291.54"/>
</g>
<!-- Node23&#45;&gt;Node21 -->
<g id="edge26" class="edge">
<title>Node23&#45;&gt;Node21</title>
<path fill="none" stroke="midnightblue" d="M824.44,-329.98C805.25,-320.97 783.52,-307.29 771,-288 744.89,-247.77 746.55,-188.39 749.51,-158.36"/>
<polygon fill="midnightblue" stroke="midnightblue" points="753.03,-158.41 750.7,-148.07 746.07,-157.6 753.03,-158.41"/>
</g>
<!-- Node23&#45;&gt;Node22 -->
<g id="edge35" class="edge">
<title>Node23&#45;&gt;Node22</title>
<path fill="none" stroke="midnightblue" d="M831.21,-329.9C802.35,-317.11 760.18,-298.41 732.42,-286.1"/>
<polygon fill="midnightblue" stroke="midnightblue" points="733.81,-282.89 723.25,-282.03 730.97,-289.29 733.81,-282.89"/>
</g>
<!-- Node23&#45;&gt;Node24 -->
<g id="edge27" class="edge">
<title>Node23&#45;&gt;Node24</title>
<path fill="none" stroke="midnightblue" d="M909.51,-329.99C953.35,-316.78 1018.23,-297.23 1059.03,-284.94"/>
<polygon fill="midnightblue" stroke="midnightblue" points="1060.04,-288.29 1068.6,-282.05 1058.02,-281.59 1060.04,-288.29"/>
</g>
<!-- Node25 -->
<g id="node25" class="node">
<title>Node25</title>
<g id="a_node25"><a xlink:href="Contact_8h.html" target="_top" xlink:title=" ">
<polygon fill="none" stroke="black" points="780,-257.5 780,-287.5 936,-287.5 936,-257.5 780,-257.5"/>
<text text-anchor="start" x="788" y="-275.5" font-family="Helvetica,sans-Serif" font-size="10.00">BipedalLocomotion/Contacts</text>
<text text-anchor="middle" x="858" y="-264.5" font-family="Helvetica,sans-Serif" font-size="10.00">/Contact.h</text>
</a>
</g>
</g>
<!-- Node23&#45;&gt;Node25 -->
<g id="edge28" class="edge">
<title>Node23&#45;&gt;Node25</title>
<path fill="none" stroke="midnightblue" d="M861.99,-329.73C861.34,-320.56 860.48,-308.41 859.72,-297.74"/>
<polygon fill="midnightblue" stroke="midnightblue" points="863.21,-297.47 859.01,-287.75 856.23,-297.97 863.21,-297.47"/>
</g>
<!-- Node25&#45;&gt;Node9 -->
<g id="edge34" class="edge">
<title>Node25&#45;&gt;Node9</title>
<path fill="none" stroke="midnightblue" d="M832.1,-257.37C785.2,-231.79 686.81,-178.12 640.76,-153"/>
<polygon fill="midnightblue" stroke="midnightblue" points="642.22,-149.81 631.76,-148.1 638.86,-155.96 642.22,-149.81"/>
</g>
<!-- Node26 -->
<g id="node26" class="node">
<title>Node26</title>
<g id="a_node26"><a xlink:href="Wrench_8h.html" target="_top" xlink:title=" ">
<polygon fill="none" stroke="black" points="780,-190.5 780,-220.5 918,-220.5 918,-190.5 780,-190.5"/>
<text text-anchor="start" x="788" y="-208.5" font-family="Helvetica,sans-Serif" font-size="10.00">BipedalLocomotion/Math</text>
<text text-anchor="middle" x="849" y="-197.5" font-family="Helvetica,sans-Serif" font-size="10.00">/Wrench.h</text>
</a>
</g>
</g>
<!-- Node25&#45;&gt;Node26 -->
<g id="edge29" class="edge">
<title>Node25&#45;&gt;Node26</title>
<path fill="none" stroke="midnightblue" d="M856.05,-257.4C854.96,-249.56 853.58,-239.6 852.33,-230.57"/>
<polygon fill="midnightblue" stroke="midnightblue" points="855.79,-230 850.95,-220.58 848.85,-230.96 855.79,-230"/>
</g>
<!-- Node27 -->
<g id="node27" class="node">
<title>Node27</title>
<g id="a_node27"><a xlink:title=" ">
<polygon fill="none" stroke="#bfbfbf" points="907.5,-129 907.5,-148 982.5,-148 982.5,-129 907.5,-129"/>
<text text-anchor="middle" x="945" y="-136" font-family="Helvetica,sans-Serif" font-size="10.00">manif/SE3.h</text>
</a>
</g>
</g>
<!-- Node25&#45;&gt;Node27 -->
<g id="edge33" class="edge">
<title>Node25&#45;&gt;Node27</title>
<path fill="none" stroke="midnightblue" d="M886.09,-257.36C900.44,-248.75 916.94,-236.42 927,-221 939.41,-201.99 943.37,-175.72 944.58,-158.2"/>
<polygon fill="midnightblue" stroke="midnightblue" points="948.08,-158.26 945.03,-148.11 941.08,-157.94 948.08,-158.26"/>
</g>
<!-- Node26&#45;&gt;Node21 -->
<g id="edge30" class="edge">
<title>Node26&#45;&gt;Node21</title>
<path fill="none" stroke="midnightblue" d="M827.95,-190.4C811.69,-179.5 789.28,-164.48 773.02,-153.58"/>
<polygon fill="midnightblue" stroke="midnightblue" points="774.95,-150.67 764.7,-148.01 771.05,-156.48 774.95,-150.67"/>
</g>
<!-- Node26&#45;&gt;Node27 -->
<g id="edge31" class="edge">
<title>Node26&#45;&gt;Node27</title>
<path fill="none" stroke="midnightblue" d="M869.83,-190.4C885.78,-179.6 907.7,-164.76 923.75,-153.89"/>
<polygon fill="midnightblue" stroke="midnightblue" points="926.12,-156.51 932.44,-148.01 922.19,-150.72 926.12,-156.51"/>
</g>
<!-- Node28 -->
<g id="node28" class="node">
<title>Node28</title>
<g id="a_node28"><a xlink:title=" ">
<polygon fill="none" stroke="#bfbfbf" points="810.5,-129 810.5,-148 887.5,-148 887.5,-129 810.5,-129"/>
<text text-anchor="middle" x="849" y="-136" font-family="Helvetica,sans-Serif" font-size="10.00">manif/SO3.h</text>
</a>
</g>
</g>
<!-- Node26&#45;&gt;Node28 -->
<g id="edge32" class="edge">
<title>Node26&#45;&gt;Node28</title>
<path fill="none" stroke="midnightblue" d="M849,-190.4C849,-181.06 849,-168.71 849,-158.52"/>
<polygon fill="midnightblue" stroke="midnightblue" points="852.5,-158.19 849,-148.19 845.5,-158.19 852.5,-158.19"/>
</g>
</g>
</svg>
        <g id="navigator" transform="translate(0 0)" fill="#404254">
                <rect fill="#f2f5e9" fill-opacity="0.5" stroke="#606060" stroke-width=".5" x="0" y="0" width="60" height="60"/>
                <use id="zoomplus" xlink:href="#zoomPlus" x="17" y="9" onmousedown="handleZoom(evt,'in')"/>
                <use id="zoomminus" xlink:href="#zoomMin" x="42" y="9" onmousedown="handleZoom(evt,'out')"/>
                <use id="reset" xlink:href="#resetDef" x="30" y="36" onmousedown="handleReset()"/>
                <g id="arrowUp" xlink:href="#dirArrow" transform="translate(30 24)" onmousedown="handlePan(0,-1)">
                  <use xlink:href="#rim" fill="#404040">
                        <set attributeName="fill" to="#808080" begin="arrowUp.mouseover" end="arrowUp.mouseout"/>
                  </use>
                  <path fill="none" stroke="white" stroke-width="1.5" d="M0,-3.0v7 M-2.5,-0.5L0,-3.0L2.5,-0.5"/>
                </g>
                <g id="arrowRight" xlink:href="#dirArrow" transform="rotate(90) translate(36 -43)" onmousedown="handlePan(1,0)">
                  <use xlink:href="#rim" fill="#404040">
                        <set attributeName="fill" to="#808080" begin="arrowRight.mouseover" end="arrowRight.mouseout"/>
                  </use>
                  <path fill="none" stroke="white" stroke-width="1.5" d="M0,-3.0v7 M-2.5,-0.5L0,-3.0L2.5,-0.5"/>
                </g>
                <g id="arrowDown" xlink:href="#dirArrow" transform="rotate(180) translate(-30 -48)" onmousedown="handlePan(0,1)">
                  <use xlink:href="#rim" fill="#404040">
                        <set attributeName="fill" to="#808080" begin="arrowDown.mouseover" end="arrowDown.mouseout"/>
                  </use>
                  <path fill="none" stroke="white" stroke-width="1.5" d="M0,-3.0v7 M-2.5,-0.5L0,-3.0L2.5,-0.5"/>
                </g>
                <g id="arrowLeft" xlink:href="#dirArrow" transform="rotate(270) translate(-36 17)" onmousedown="handlePan(-1,0)">
                  <use xlink:href="#rim" fill="#404040">
                        <set attributeName="fill" to="#808080" begin="arrowLeft.mouseover" end="arrowLeft.mouseout"/>
                  </use>
                  <path fill="none" stroke="white" stroke-width="1.5" d="M0,-3.0v7 M-2.5,-0.5L0,-3.0L2.5,-0.5"/>
                </g>
        </g>
        <svg viewBox="0 0 15 15" width="100%" height="30px" preserveAspectRatio="xMaxYMin meet">
         <g id="arrow_out" transform="scale(0.3 0.3)">
          <a xlink:href="InvariantEKFBaseEstimator_8cpp__incl_org.svg" target="_base">
           <rect id="button" ry="5" rx="5" y="6" x="6" height="38" width="38"
                fill="#f2f5e9" fill-opacity="0.5" stroke="#606060" stroke-width="1.0"/>
           <path id="arrow"
             d="M 11.500037,31.436501 C 11.940474,20.09759 22.043105,11.32322 32.158766,21.979434 L 37.068811,17.246167 C 37.068811,17.246167 37.088388,32 37.088388,32 L 22.160133,31.978069 C 22.160133,31.978069 26.997745,27.140456 26.997745,27.140456 C 18.528582,18.264221 13.291696,25.230495 11.500037,31.436501 z"
             style="fill:#404040;"/>
          </a>
         </g>
        </svg>
</svg>
