<?xml version="1.0" encoding="UTF-8" standalone="no"?>
<!DOCTYPE svg PUBLIC "-//W3C//DTD SVG 1.1//EN"
 "http://www.w3.org/Graphics/SVG/1.1/DTD/svg11.dtd">
<!-- Generated by graphviz version 2.43.0 (0)
 -->
<!-- Title: RobotInterface/include/BipedalLocomotion/RobotInterface/ISensorBridge.h Pages: 1 -->
<svg width="218pt" height="273pt"
 viewBox="0.00 0.00 218.00 273.00" xmlns="http://www.w3.org/2000/svg" xmlns:xlink="http://www.w3.org/1999/xlink">
<g id="graph0" class="graph" transform="scale(1 1) rotate(0) translate(4 269)">
<title>RobotInterface/include/BipedalLocomotion/RobotInterface/ISensorBridge.h</title>
<!-- Node1 -->
<g id="node1" class="node">
<title>Node1</title>
<g id="a_node1"><a xlink:title=" ">
<polygon fill="#bfbfbf" stroke="black" points="11,-223.5 11,-264.5 199,-264.5 199,-223.5 11,-223.5"/>
<text text-anchor="start" x="19" y="-252.5" font-family="Helvetica,sans-Serif" font-size="10.00">RobotInterface/include</text>
<text text-anchor="start" x="19" y="-241.5" font-family="Helvetica,sans-Serif" font-size="10.00">/BipedalLocomotion/RobotInterface</text>
<text text-anchor="middle" x="105" y="-230.5" font-family="Helvetica,sans-Serif" font-size="10.00">/ISensorBridge.h</text>
</a>
</g>
</g>
<!-- Node2 -->
<g id="node2" class="node">
<title>Node2</title>
<g id="a_node2"><a xlink:href="YarpSensorBridge_8h.html" target="_top" xlink:title=" ">
<polygon fill="none" stroke="black" points="10,-145.5 10,-186.5 200,-186.5 200,-145.5 10,-145.5"/>
<text text-anchor="start" x="18" y="-174.5" font-family="Helvetica,sans-Serif" font-size="10.00">RobotInterface/YarpImplementation</text>
<text text-anchor="start" x="18" y="-163.5" font-family="Helvetica,sans-Serif" font-size="10.00">/include/BipedalLocomotion</text>
<text text-anchor="middle" x="105" y="-152.5" font-family="Helvetica,sans-Serif" font-size="10.00">/RobotInterface/YarpSensorBridge.h</text>
</a>
</g>
</g>
<!-- Node1&#45;&gt;Node2 -->
<g id="edge1" class="edge">
<title>Node1&#45;&gt;Node2</title>
<path fill="none" stroke="midnightblue" d="M105,-213.3C105,-204.3 105,-194.65 105,-186.51"/>
<polygon fill="midnightblue" stroke="midnightblue" points="101.5,-213.43 105,-223.43 108.5,-213.43 101.5,-213.43"/>
</g>
<!-- Node3 -->
<g id="node3" class="node">
<title>Node3</title>
<g id="a_node3"><a xlink:href="YarpSensorBridgeImpl_8h.html" target="_top" xlink:title=" ">
<polygon fill="none" stroke="black" points="0,-67.5 0,-108.5 210,-108.5 210,-67.5 0,-67.5"/>
<text text-anchor="start" x="8" y="-96.5" font-family="Helvetica,sans-Serif" font-size="10.00">RobotInterface/YarpImplementation</text>
<text text-anchor="start" x="8" y="-85.5" font-family="Helvetica,sans-Serif" font-size="10.00">/include/BipedalLocomotion</text>
<text text-anchor="middle" x="105" y="-74.5" font-family="Helvetica,sans-Serif" font-size="10.00">/RobotInterface/YarpSensorBridgeImpl.h</text>
</a>
</g>
</g>
<!-- Node2&#45;&gt;Node3 -->
<g id="edge2" class="edge">
<title>Node2&#45;&gt;Node3</title>
<path fill="none" stroke="midnightblue" d="M105,-135.3C105,-126.3 105,-116.65 105,-108.51"/>
<polygon fill="midnightblue" stroke="midnightblue" points="101.5,-135.43 105,-145.43 108.5,-135.43 101.5,-135.43"/>
</g>
<!-- Node4 -->
<g id="node4" class="node">
<title>Node4</title>
<g id="a_node4"><a xlink:href="YarpSensorBridge_8cpp.html" target="_top" xlink:title=" ">
<polygon fill="none" stroke="black" points="10,-0.5 10,-30.5 200,-30.5 200,-0.5 10,-0.5"/>
<text text-anchor="start" x="18" y="-18.5" font-family="Helvetica,sans-Serif" font-size="10.00">RobotInterface/YarpImplementation</text>
<text text-anchor="middle" x="105" y="-7.5" font-family="Helvetica,sans-Serif" font-size="10.00">/src/YarpSensorBridge.cpp</text>
</a>
</g>
</g>
<!-- Node3&#45;&gt;Node4 -->
<g id="edge3" class="edge">
<title>Node3&#45;&gt;Node4</title>
<path fill="none" stroke="midnightblue" d="M105,-57.08C105,-48.01 105,-38.45 105,-30.89"/>
<polygon fill="midnightblue" stroke="midnightblue" points="101.5,-57.36 105,-67.36 108.5,-57.36 101.5,-57.36"/>
</g>
</g>
</svg>
