<?xml version="1.0" encoding="UTF-8" standalone="no"?>
<!DOCTYPE svg PUBLIC "-//W3C//DTD SVG 1.1//EN"
 "http://www.w3.org/Graphics/SVG/1.1/DTD/svg11.dtd">
<!-- Generated by graphviz version 2.43.0 (0)
 -->
<!-- Title: RobotInterface/include/BipedalLocomotion/RobotInterface/ISensorBridge.h Pages: 1 -->
<svg width="619pt" height="307pt"
 viewBox="0.00 0.00 619.23 307.00" xmlns="http://www.w3.org/2000/svg" xmlns:xlink="http://www.w3.org/1999/xlink">
<g id="graph0" class="graph" transform="scale(1 1) rotate(0) translate(4 303)">
<title>RobotInterface/include/BipedalLocomotion/RobotInterface/ISensorBridge.h</title>
<!-- Node1 -->
<g id="node1" class="node">
<title>Node1</title>
<g id="a_node1"><a xlink:title=" ">
<polygon fill="#bfbfbf" stroke="black" points="237.5,-257.5 237.5,-298.5 425.5,-298.5 425.5,-257.5 237.5,-257.5"/>
<text text-anchor="start" x="245.5" y="-286.5" font-family="Helvetica,sans-Serif" font-size="10.00">RobotInterface/include</text>
<text text-anchor="start" x="245.5" y="-275.5" font-family="Helvetica,sans-Serif" font-size="10.00">/BipedalLocomotion/RobotInterface</text>
<text text-anchor="middle" x="331.5" y="-264.5" font-family="Helvetica,sans-Serif" font-size="10.00">/ISensorBridge.h</text>
</a>
</g>
</g>
<!-- Node2 -->
<g id="node2" class="node">
<title>Node2</title>
<g id="a_node2"><a xlink:title=" ">
<polygon fill="none" stroke="#bfbfbf" points="0,-62 0,-81 65,-81 65,-62 0,-62"/>
<text text-anchor="middle" x="32.5" y="-69" font-family="Helvetica,sans-Serif" font-size="10.00">functional</text>
</a>
</g>
</g>
<!-- Node1&#45;&gt;Node2 -->
<g id="edge1" class="edge">
<title>Node1&#45;&gt;Node2</title>
<path fill="none" stroke="midnightblue" d="M237.42,-265.98C175.83,-256.95 102.64,-242.19 79.5,-221 42.02,-186.68 34.24,-122.73 32.75,-91.14"/>
<polygon fill="midnightblue" stroke="midnightblue" points="36.25,-90.97 32.45,-81.08 29.25,-91.18 36.25,-90.97"/>
</g>
<!-- Node3 -->
<g id="node3" class="node">
<title>Node3</title>
<g id="a_node3"><a xlink:title=" ">
<polygon fill="none" stroke="#bfbfbf" points="547.5,-62 547.5,-81 605.5,-81 605.5,-62 547.5,-62"/>
<text text-anchor="middle" x="576.5" y="-69" font-family="Helvetica,sans-Serif" font-size="10.00">memory</text>
</a>
</g>
</g>
<!-- Node1&#45;&gt;Node3 -->
<g id="edge2" class="edge">
<title>Node1&#45;&gt;Node3</title>
<path fill="none" stroke="midnightblue" d="M425.65,-269.48C492.87,-261.93 575.03,-247.48 596.5,-221 627.41,-182.88 601.9,-120.29 586.34,-90"/>
<polygon fill="midnightblue" stroke="midnightblue" points="589.35,-88.21 581.54,-81.05 583.18,-91.52 589.35,-88.21"/>
</g>
<!-- Node4 -->
<g id="node4" class="node">
<title>Node4</title>
<g id="a_node4"><a xlink:title=" ">
<polygon fill="none" stroke="#bfbfbf" points="98.5,-196 98.5,-215 154.5,-215 154.5,-196 98.5,-196"/>
<text text-anchor="middle" x="126.5" y="-203" font-family="Helvetica,sans-Serif" font-size="10.00">optional</text>
</a>
</g>
</g>
<!-- Node1&#45;&gt;Node4 -->
<g id="edge3" class="edge">
<title>Node1&#45;&gt;Node4</title>
<path fill="none" stroke="midnightblue" d="M271,-257.38C239.2,-246.89 199.62,-233.58 164.5,-221 162.39,-220.25 160.23,-219.46 158.05,-218.65"/>
<polygon fill="midnightblue" stroke="midnightblue" points="159.14,-215.32 148.55,-215.09 156.68,-221.88 159.14,-215.32"/>
</g>
<!-- Node5 -->
<g id="node5" class="node">
<title>Node5</title>
<g id="a_node5"><a xlink:title=" ">
<polygon fill="none" stroke="#bfbfbf" points="86.5,-129 86.5,-148 130.5,-148 130.5,-129 86.5,-129"/>
<text text-anchor="middle" x="108.5" y="-136" font-family="Helvetica,sans-Serif" font-size="10.00">string</text>
</a>
</g>
</g>
<!-- Node1&#45;&gt;Node5 -->
<g id="edge4" class="edge">
<title>Node1&#45;&gt;Node5</title>
<path fill="none" stroke="midnightblue" d="M237.42,-267.26C177.64,-258.9 108.12,-244.42 89.5,-221 74.85,-202.58 86.35,-174.83 96.77,-156.94"/>
<polygon fill="midnightblue" stroke="midnightblue" points="99.94,-158.47 102.28,-148.14 94.01,-154.76 99.94,-158.47"/>
</g>
<!-- Node6 -->
<g id="node6" class="node">
<title>Node6</title>
<g id="a_node6"><a xlink:title=" ">
<polygon fill="none" stroke="#bfbfbf" points="360,-196 360,-215 453,-215 453,-196 360,-196"/>
<text text-anchor="middle" x="406.5" y="-203" font-family="Helvetica,sans-Serif" font-size="10.00">unordered_map</text>
</a>
</g>
</g>
<!-- Node1&#45;&gt;Node6 -->
<g id="edge5" class="edge">
<title>Node1&#45;&gt;Node6</title>
<path fill="none" stroke="midnightblue" d="M352.39,-257.36C364.25,-246.21 378.89,-232.46 389.94,-222.06"/>
<polygon fill="midnightblue" stroke="midnightblue" points="392.38,-224.57 397.27,-215.17 387.59,-219.47 392.38,-224.57"/>
</g>
<!-- Node7 -->
<g id="node7" class="node">
<title>Node7</title>
<g id="a_node7"><a xlink:title=" ">
<polygon fill="none" stroke="#bfbfbf" points="440,-129 440,-148 487,-148 487,-129 440,-129"/>
<text text-anchor="middle" x="463.5" y="-136" font-family="Helvetica,sans-Serif" font-size="10.00">vector</text>
</a>
</g>
</g>
<!-- Node1&#45;&gt;Node7 -->
<g id="edge6" class="edge">
<title>Node1&#45;&gt;Node7</title>
<path fill="none" stroke="midnightblue" d="M416.18,-257.46C434.37,-249.23 451.43,-237.55 462.5,-221 474.95,-202.39 472.39,-175.64 468.62,-157.93"/>
<polygon fill="midnightblue" stroke="midnightblue" points="471.96,-156.87 466.18,-148 465.17,-158.55 471.96,-156.87"/>
</g>
<!-- Node8 -->
<g id="node8" class="node">
<title>Node8</title>
<g id="a_node8"><a xlink:title=" ">
<polygon fill="none" stroke="#bfbfbf" points="510,-196 510,-215 587,-215 587,-196 510,-196"/>
<text text-anchor="middle" x="548.5" y="-203" font-family="Helvetica,sans-Serif" font-size="10.00">Eigen/Dense</text>
</a>
</g>
</g>
<!-- Node1&#45;&gt;Node8 -->
<g id="edge7" class="edge">
<title>Node1&#45;&gt;Node8</title>
<path fill="none" stroke="midnightblue" d="M391.66,-257.46C430.53,-244.83 479.82,-228.81 512.66,-218.14"/>
<polygon fill="midnightblue" stroke="midnightblue" points="513.87,-221.43 522.3,-215.01 511.7,-214.77 513.87,-221.43"/>
</g>
<!-- Node9 -->
<g id="node9" class="node">
<title>Node9</title>
<g id="a_node9"><a xlink:href="IParametersHandler_8h.html" target="_top" xlink:title=" ">
<polygon fill="none" stroke="black" points="173,-190.5 173,-220.5 342,-220.5 342,-190.5 173,-190.5"/>
<text text-anchor="start" x="181" y="-208.5" font-family="Helvetica,sans-Serif" font-size="10.00">BipedalLocomotion/Parameters</text>
<text text-anchor="middle" x="257.5" y="-197.5" font-family="Helvetica,sans-Serif" font-size="10.00">Handler/IParametersHandler.h</text>
</a>
</g>
</g>
<!-- Node1&#45;&gt;Node9 -->
<g id="edge8" class="edge">
<title>Node1&#45;&gt;Node9</title>
<path fill="none" stroke="midnightblue" d="M310.89,-257.36C301.3,-248.23 289.88,-237.35 280.07,-228"/>
<polygon fill="midnightblue" stroke="midnightblue" points="282.26,-225.26 272.61,-220.89 277.43,-230.32 282.26,-225.26"/>
</g>
<!-- Node9&#45;&gt;Node3 -->
<g id="edge9" class="edge">
<title>Node9&#45;&gt;Node3</title>
<path fill="none" stroke="midnightblue" d="M292.43,-190.4C315.88,-180.69 347.34,-167.21 374.5,-154 400.43,-141.38 405.07,-134.53 431.5,-123 477.49,-102.94 491.27,-103.95 538.5,-87 540.61,-86.24 542.77,-85.45 544.95,-84.65"/>
<polygon fill="midnightblue" stroke="midnightblue" points="546.32,-87.87 554.45,-81.08 543.86,-81.32 546.32,-87.87"/>
</g>
<!-- Node9&#45;&gt;Node5 -->
<g id="edge10" class="edge">
<title>Node9&#45;&gt;Node5</title>
<path fill="none" stroke="midnightblue" d="M225.17,-190.4C199.03,-178.99 162.55,-163.08 137.38,-152.1"/>
<polygon fill="midnightblue" stroke="midnightblue" points="138.57,-148.8 128,-148.01 135.77,-155.21 138.57,-148.8"/>
</g>
<!-- Node9&#45;&gt;Node7 -->
<g id="edge11" class="edge">
<title>Node9&#45;&gt;Node7</title>
<path fill="none" stroke="midnightblue" d="M301.95,-190.48C340.48,-178.32 395.4,-160.99 430.24,-149.99"/>
<polygon fill="midnightblue" stroke="midnightblue" points="431.45,-153.28 439.94,-146.93 429.35,-146.61 431.45,-153.28"/>
</g>
<!-- Node10 -->
<g id="node10" class="node">
<title>Node10</title>
<g id="a_node10"><a xlink:href="TemplateHelpers_8h_source.html" target="_top" xlink:title=" ">
<polygon fill="none" stroke="black" points="83.5,-56.5 83.5,-86.5 241.5,-86.5 241.5,-56.5 83.5,-56.5"/>
<text text-anchor="start" x="91.5" y="-74.5" font-family="Helvetica,sans-Serif" font-size="10.00">BipedalLocomotion/Generic</text>
<text text-anchor="middle" x="162.5" y="-63.5" font-family="Helvetica,sans-Serif" font-size="10.00">Container/TemplateHelpers.h</text>
</a>
</g>
</g>
<!-- Node9&#45;&gt;Node10 -->
<g id="edge12" class="edge">
<title>Node9&#45;&gt;Node10</title>
<path fill="none" stroke="midnightblue" d="M240.21,-190.22C229.38,-180.7 215.61,-167.5 205.5,-154 191.87,-135.8 180.12,-112.69 172.37,-95.73"/>
<polygon fill="midnightblue" stroke="midnightblue" points="175.54,-94.26 168.28,-86.54 169.15,-97.1 175.54,-94.26"/>
</g>
<!-- Node14 -->
<g id="node14" class="node">
<title>Node14</title>
<g id="a_node14"><a xlink:href="Vector_8h_source.html" target="_top" xlink:title=" ">
<polygon fill="none" stroke="black" points="214,-123.5 214,-153.5 365,-153.5 365,-123.5 214,-123.5"/>
<text text-anchor="start" x="222" y="-141.5" font-family="Helvetica,sans-Serif" font-size="10.00">BipedalLocomotion/Generic</text>
<text text-anchor="middle" x="289.5" y="-130.5" font-family="Helvetica,sans-Serif" font-size="10.00">Container/Vector.h</text>
</a>
</g>
</g>
<!-- Node9&#45;&gt;Node14 -->
<g id="edge16" class="edge">
<title>Node9&#45;&gt;Node14</title>
<path fill="none" stroke="midnightblue" d="M264.44,-190.4C268.43,-182.3 273.53,-171.94 278.09,-162.69"/>
<polygon fill="midnightblue" stroke="midnightblue" points="281.29,-164.09 282.57,-153.58 275.01,-161 281.29,-164.09"/>
</g>
<!-- Node11 -->
<g id="node11" class="node">
<title>Node11</title>
<g id="a_node11"><a xlink:title=" ">
<polygon fill="none" stroke="#bfbfbf" points="39,-0.5 39,-19.5 108,-19.5 108,-0.5 39,-0.5"/>
<text text-anchor="middle" x="73.5" y="-7.5" font-family="Helvetica,sans-Serif" font-size="10.00">type_traits</text>
</a>
</g>
</g>
<!-- Node10&#45;&gt;Node11 -->
<g id="edge13" class="edge">
<title>Node10&#45;&gt;Node11</title>
<path fill="none" stroke="midnightblue" d="M141.41,-56.4C127.41,-47.04 109.09,-34.79 95.01,-25.38"/>
<polygon fill="midnightblue" stroke="midnightblue" points="96.71,-22.31 86.45,-19.66 92.82,-28.13 96.71,-22.31"/>
</g>
<!-- Node12 -->
<g id="node12" class="node">
<title>Node12</title>
<g id="a_node12"><a xlink:title=" ">
<polygon fill="none" stroke="#bfbfbf" points="126,-0.5 126,-19.5 199,-19.5 199,-0.5 126,-0.5"/>
<text text-anchor="middle" x="162.5" y="-7.5" font-family="Helvetica,sans-Serif" font-size="10.00">string_view</text>
</a>
</g>
</g>
<!-- Node10&#45;&gt;Node12 -->
<g id="edge14" class="edge">
<title>Node10&#45;&gt;Node12</title>
<path fill="none" stroke="midnightblue" d="M162.5,-56.4C162.5,-48.47 162.5,-38.46 162.5,-29.86"/>
<polygon fill="midnightblue" stroke="midnightblue" points="166,-29.66 162.5,-19.66 159,-29.66 166,-29.66"/>
</g>
<!-- Node13 -->
<g id="node13" class="node">
<title>Node13</title>
<g id="a_node13"><a xlink:title=" ">
<polygon fill="none" stroke="#bfbfbf" points="217,-0.5 217,-19.5 286,-19.5 286,-0.5 217,-0.5"/>
<text text-anchor="middle" x="251.5" y="-7.5" font-family="Helvetica,sans-Serif" font-size="10.00">Eigen/Core</text>
</a>
</g>
</g>
<!-- Node10&#45;&gt;Node13 -->
<g id="edge15" class="edge">
<title>Node10&#45;&gt;Node13</title>
<path fill="none" stroke="midnightblue" d="M183.59,-56.4C197.59,-47.04 215.91,-34.79 229.99,-25.38"/>
<polygon fill="midnightblue" stroke="midnightblue" points="232.18,-28.13 238.55,-19.66 228.29,-22.31 232.18,-28.13"/>
</g>
<!-- Node14&#45;&gt;Node2 -->
<g id="edge19" class="edge">
<title>Node14&#45;&gt;Node2</title>
<path fill="none" stroke="midnightblue" d="M221.74,-123.44C179.18,-114.15 123.3,-101.12 74.5,-87 71.56,-86.15 68.52,-85.21 65.48,-84.24"/>
<polygon fill="midnightblue" stroke="midnightblue" points="66.51,-80.89 55.91,-81.05 64.29,-87.53 66.51,-80.89"/>
</g>
<!-- Node14&#45;&gt;Node3 -->
<g id="edge22" class="edge">
<title>Node14&#45;&gt;Node3</title>
<path fill="none" stroke="midnightblue" d="M365.19,-125.49C414.95,-116.77 481.2,-103.62 538.5,-87 541.08,-86.25 543.74,-85.4 546.38,-84.51"/>
<polygon fill="midnightblue" stroke="midnightblue" points="547.59,-87.79 555.8,-81.1 545.21,-81.21 547.59,-87.79"/>
</g>
<!-- Node14&#45;&gt;Node10 -->
<g id="edge18" class="edge">
<title>Node14&#45;&gt;Node10</title>
<path fill="none" stroke="midnightblue" d="M261.94,-123.4C243.55,-113.98 219.17,-101.5 199.15,-91.26"/>
<polygon fill="midnightblue" stroke="midnightblue" points="200.5,-88.02 190,-86.58 197.31,-94.25 200.5,-88.02"/>
</g>
<!-- Node15 -->
<g id="node15" class="node">
<title>Node15</title>
<g id="a_node15"><a xlink:title=" ">
<polygon fill="none" stroke="#bfbfbf" points="338,-62 338,-81 459,-81 459,-62 338,-62"/>
<text text-anchor="middle" x="398.5" y="-69" font-family="Helvetica,sans-Serif" font-size="10.00">iDynTree/Core/Span.h</text>
</a>
</g>
</g>
<!-- Node14&#45;&gt;Node15 -->
<g id="edge17" class="edge">
<title>Node14&#45;&gt;Node15</title>
<path fill="none" stroke="midnightblue" d="M313.15,-123.4C331.68,-112.34 357.31,-97.06 375.64,-86.13"/>
<polygon fill="midnightblue" stroke="midnightblue" points="377.44,-89.13 384.23,-81.01 373.85,-83.12 377.44,-89.13"/>
</g>
<!-- Node16 -->
<g id="node16" class="node">
<title>Node16</title>
<g id="a_node16"><a xlink:title=" ">
<polygon fill="none" stroke="#bfbfbf" points="477.5,-62 477.5,-81 529.5,-81 529.5,-62 477.5,-62"/>
<text text-anchor="middle" x="503.5" y="-69" font-family="Helvetica,sans-Serif" font-size="10.00">cassert</text>
</a>
</g>
</g>
<!-- Node14&#45;&gt;Node16 -->
<g id="edge20" class="edge">
<title>Node14&#45;&gt;Node16</title>
<path fill="none" stroke="midnightblue" d="M345.66,-123.48C381.2,-114.15 427.93,-101.07 468.5,-87 470.41,-86.34 472.37,-85.62 474.33,-84.88"/>
<polygon fill="midnightblue" stroke="midnightblue" points="476.03,-87.98 484.03,-81.04 473.45,-81.47 476.03,-87.98"/>
</g>
<!-- Node17 -->
<g id="node17" class="node">
<title>Node17</title>
<g id="a_node17"><a xlink:title=" ">
<polygon fill="none" stroke="#bfbfbf" points="259.5,-62 259.5,-81 319.5,-81 319.5,-62 259.5,-62"/>
<text text-anchor="middle" x="289.5" y="-69" font-family="Helvetica,sans-Serif" font-size="10.00">iostream</text>
</a>
</g>
</g>
<!-- Node14&#45;&gt;Node17 -->
<g id="edge21" class="edge">
<title>Node14&#45;&gt;Node17</title>
<path fill="none" stroke="midnightblue" d="M289.5,-123.4C289.5,-114.06 289.5,-101.71 289.5,-91.52"/>
<polygon fill="midnightblue" stroke="midnightblue" points="293,-91.19 289.5,-81.19 286,-91.19 293,-91.19"/>
</g>
</g>
</svg>
