<?xml version="1.0" encoding="UTF-8" standalone="no"?>
<!DOCTYPE svg PUBLIC "-//W3C//DTD SVG 1.1//EN"
 "http://www.w3.org/Graphics/SVG/1.1/DTD/svg11.dtd">
<!-- Generated by graphviz version 2.43.0 (0)
 -->
<!-- Title: Estimators/src/LeggedOdometry.cpp Pages: 1 -->
<svg width="1502pt" height="564pt"
 viewBox="0.00 0.00 1502.07 564.00" xmlns="http://www.w3.org/2000/svg" xmlns:xlink="http://www.w3.org/1999/xlink">
<g id="graph0" class="graph" transform="scale(1 1) rotate(0) translate(4 560)">
<title>Estimators/src/LeggedOdometry.cpp</title>
<!-- Node1 -->
<g id="node1" class="node">
<title>Node1</title>
<g id="a_node1"><a xlink:title=" ">
<polygon fill="#bfbfbf" stroke="black" points="1127.07,-536.5 1127.07,-555.5 1319.07,-555.5 1319.07,-536.5 1127.07,-536.5"/>
<text text-anchor="middle" x="1223.07" y="-543.5" font-family="Helvetica,sans-Serif" font-size="10.00">Estimators/src/LeggedOdometry.cpp</text>
</a>
</g>
</g>
<!-- Node2 -->
<g id="node2" class="node">
<title>Node2</title>
<g id="a_node2"><a xlink:href="LeggedOdometry_8h.html" target="_top" xlink:title=" ">
<polygon fill="none" stroke="black" points="647.07,-469.5 647.07,-499.5 835.07,-499.5 835.07,-469.5 647.07,-469.5"/>
<text text-anchor="start" x="655.07" y="-487.5" font-family="Helvetica,sans-Serif" font-size="10.00">BipedalLocomotion/Floating</text>
<text text-anchor="middle" x="741.07" y="-476.5" font-family="Helvetica,sans-Serif" font-size="10.00">BaseEstimators/LeggedOdometry.h</text>
</a>
</g>
</g>
<!-- Node1&#45;&gt;Node2 -->
<g id="edge1" class="edge">
<title>Node1&#45;&gt;Node2</title>
<path fill="none" stroke="midnightblue" d="M1154.01,-536.48C1073.26,-526.51 938.78,-509.91 845.32,-498.37"/>
<polygon fill="midnightblue" stroke="midnightblue" points="845.62,-494.88 835.27,-497.13 844.77,-501.83 845.62,-494.88"/>
</g>
<!-- Node24 -->
<g id="node24" class="node">
<title>Node24</title>
<g id="a_node24"><a xlink:title=" ">
<polygon fill="none" stroke="#bfbfbf" points="940.57,-263 940.57,-282 1025.57,-282 1025.57,-263 940.57,-263"/>
<text text-anchor="middle" x="983.07" y="-270" font-family="Helvetica,sans-Serif" font-size="10.00">manif/manif.h</text>
</a>
</g>
</g>
<!-- Node1&#45;&gt;Node24 -->
<g id="edge45" class="edge">
<title>Node1&#45;&gt;Node24</title>
<path fill="none" stroke="midnightblue" d="M1235.93,-536.47C1268.11,-514.08 1347.18,-451.88 1313.07,-402 1250.43,-310.39 1112.05,-284.08 1035.89,-276.53"/>
<polygon fill="midnightblue" stroke="midnightblue" points="1035.85,-273.01 1025.57,-275.59 1035.21,-279.99 1035.85,-273.01"/>
</g>
<!-- Node30 -->
<g id="node30" class="node">
<title>Node30</title>
<g id="a_node30"><a xlink:href="ManifConversions_8h.html" target="_top" xlink:title=" ">
<polygon fill="none" stroke="black" points="993.57,-469.5 993.57,-499.5 1166.57,-499.5 1166.57,-469.5 993.57,-469.5"/>
<text text-anchor="start" x="1001.57" y="-487.5" font-family="Helvetica,sans-Serif" font-size="10.00">BipedalLocomotion/Conversions</text>
<text text-anchor="middle" x="1080.07" y="-476.5" font-family="Helvetica,sans-Serif" font-size="10.00">/ManifConversions.h</text>
</a>
</g>
</g>
<!-- Node1&#45;&gt;Node30 -->
<g id="edge39" class="edge">
<title>Node1&#45;&gt;Node30</title>
<path fill="none" stroke="midnightblue" d="M1202.58,-536.48C1181.95,-527.89 1149.48,-514.38 1123.16,-503.43"/>
<polygon fill="midnightblue" stroke="midnightblue" points="1124.35,-500.13 1113.77,-499.52 1121.66,-506.6 1124.35,-500.13"/>
</g>
<!-- Node32 -->
<g id="node32" class="node">
<title>Node32</title>
<g id="a_node32"><a xlink:title=" ">
<polygon fill="none" stroke="#bfbfbf" points="1142.57,-408 1142.57,-427 1303.57,-427 1303.57,-408 1142.57,-408"/>
<text text-anchor="middle" x="1223.07" y="-415" font-family="Helvetica,sans-Serif" font-size="10.00">iDynTree/Core/EigenHelpers.h</text>
</a>
</g>
</g>
<!-- Node1&#45;&gt;Node32 -->
<g id="edge43" class="edge">
<title>Node1&#45;&gt;Node32</title>
<path fill="none" stroke="midnightblue" d="M1223.07,-536.31C1223.07,-515.99 1223.07,-465.05 1223.07,-437.28"/>
<polygon fill="midnightblue" stroke="midnightblue" points="1226.57,-437.26 1223.07,-427.26 1219.57,-437.26 1226.57,-437.26"/>
</g>
<!-- Node33 -->
<g id="node33" class="node">
<title>Node33</title>
<g id="a_node33"><a xlink:title=" ">
<polygon fill="none" stroke="#bfbfbf" points="1360.07,-475 1360.07,-494 1494.07,-494 1494.07,-475 1360.07,-475"/>
<text text-anchor="middle" x="1427.07" y="-482" font-family="Helvetica,sans-Serif" font-size="10.00">iDynTree/Model/Model.h</text>
</a>
</g>
</g>
<!-- Node1&#45;&gt;Node33 -->
<g id="edge44" class="edge">
<title>Node1&#45;&gt;Node33</title>
<path fill="none" stroke="midnightblue" d="M1252.3,-536.48C1287.97,-526.07 1348.43,-508.44 1388.05,-496.88"/>
<polygon fill="midnightblue" stroke="midnightblue" points="1389.27,-500.17 1397.89,-494.01 1387.31,-493.45 1389.27,-500.17"/>
</g>
<!-- Node3 -->
<g id="node3" class="node">
<title>Node3</title>
<g id="a_node3"><a xlink:href="FloatingBaseEstimator_8h.html" target="_top" xlink:title=" ">
<polygon fill="none" stroke="black" points="462.57,-402.5 462.57,-432.5 677.57,-432.5 677.57,-402.5 462.57,-402.5"/>
<text text-anchor="start" x="470.57" y="-420.5" font-family="Helvetica,sans-Serif" font-size="10.00">BipedalLocomotion/Floating</text>
<text text-anchor="middle" x="570.07" y="-409.5" font-family="Helvetica,sans-Serif" font-size="10.00">BaseEstimators/FloatingBaseEstimator.h</text>
</a>
</g>
</g>
<!-- Node2&#45;&gt;Node3 -->
<g id="edge2" class="edge">
<title>Node2&#45;&gt;Node3</title>
<path fill="none" stroke="midnightblue" d="M703.96,-469.4C678.31,-459.64 643.98,-446.59 616.51,-436.15"/>
<polygon fill="midnightblue" stroke="midnightblue" points="617.69,-432.86 607.1,-432.58 615.2,-439.4 617.69,-432.86"/>
</g>
<!-- Node4 -->
<g id="node4" class="node">
<title>Node4</title>
<g id="a_node4"><a xlink:href="Source_8h.html" target="_top" xlink:title=" ">
<polygon fill="none" stroke="black" points="734.07,-330 734.07,-360 884.07,-360 884.07,-330 734.07,-330"/>
<text text-anchor="start" x="742.07" y="-348" font-family="Helvetica,sans-Serif" font-size="10.00">BipedalLocomotion/System</text>
<text text-anchor="middle" x="809.07" y="-337" font-family="Helvetica,sans-Serif" font-size="10.00">/Source.h</text>
</a>
</g>
</g>
<!-- Node3&#45;&gt;Node4 -->
<g id="edge3" class="edge">
<title>Node3&#45;&gt;Node4</title>
<path fill="none" stroke="midnightblue" d="M617.57,-402.49C656.06,-391.14 710.42,-375.1 751.4,-363.01"/>
<polygon fill="midnightblue" stroke="midnightblue" points="752.64,-366.29 761.25,-360.11 750.66,-359.58 752.64,-366.29"/>
</g>
<!-- Node7 -->
<g id="node7" class="node">
<title>Node7</title>
<g id="a_node7"><a xlink:href="IParametersHandler_8h.html" target="_top" xlink:title=" ">
<polygon fill="none" stroke="black" points="565.57,-190.5 565.57,-220.5 734.57,-220.5 734.57,-190.5 565.57,-190.5"/>
<text text-anchor="start" x="573.57" y="-208.5" font-family="Helvetica,sans-Serif" font-size="10.00">BipedalLocomotion/Parameters</text>
<text text-anchor="middle" x="650.07" y="-197.5" font-family="Helvetica,sans-Serif" font-size="10.00">Handler/IParametersHandler.h</text>
</a>
</g>
</g>
<!-- Node3&#45;&gt;Node7 -->
<g id="edge21" class="edge">
<title>Node3&#45;&gt;Node7</title>
<path fill="none" stroke="midnightblue" d="M555.19,-402.1C546.62,-392.73 536.66,-379.74 532.07,-366 526.15,-348.3 524.91,-341.24 532.07,-324 549.56,-281.9 590.27,-247.08 618.96,-226.55"/>
<polygon fill="midnightblue" stroke="midnightblue" points="621.24,-229.23 627.44,-220.64 617.24,-223.49 621.24,-229.23"/>
</g>
<!-- Node8 -->
<g id="node8" class="node">
<title>Node8</title>
<g id="a_node8"><a xlink:title=" ">
<polygon fill="none" stroke="#bfbfbf" points="834.07,-62 834.07,-81 892.07,-81 892.07,-62 834.07,-62"/>
<text text-anchor="middle" x="863.07" y="-69" font-family="Helvetica,sans-Serif" font-size="10.00">memory</text>
</a>
</g>
</g>
<!-- Node3&#45;&gt;Node8 -->
<g id="edge38" class="edge">
<title>Node3&#45;&gt;Node8</title>
<path fill="none" stroke="midnightblue" d="M677.8,-412.6C759.47,-407.33 862.67,-394.99 893.07,-366 923.44,-337.04 912.07,-315.47 912.07,-273.5 912.07,-273.5 912.07,-273.5 912.07,-204.5 912.07,-161.1 888.5,-114.41 874.06,-89.87"/>
<polygon fill="midnightblue" stroke="midnightblue" points="876.88,-87.77 868.69,-81.05 870.9,-91.41 876.88,-87.77"/>
</g>
<!-- Node19 -->
<g id="node19" class="node">
<title>Node19</title>
<g id="a_node19"><a xlink:title=" ">
<polygon fill="none" stroke="#bfbfbf" points="141.07,-62 141.07,-81 201.07,-81 201.07,-62 141.07,-62"/>
<text text-anchor="middle" x="171.07" y="-69" font-family="Helvetica,sans-Serif" font-size="10.00">iostream</text>
</a>
</g>
</g>
<!-- Node3&#45;&gt;Node19 -->
<g id="edge37" class="edge">
<title>Node3&#45;&gt;Node19</title>
<path fill="none" stroke="midnightblue" d="M462.32,-413.37C312.01,-407.99 54.1,-394.67 22.07,-366 -9.2,-338.01 3.07,-315.47 3.07,-273.5 3.07,-273.5 3.07,-273.5 3.07,-204.5 3.07,-139.47 81.86,-101.6 131.52,-84.19"/>
<polygon fill="midnightblue" stroke="midnightblue" points="132.68,-87.5 141.03,-80.98 130.44,-80.86 132.68,-87.5"/>
</g>
<!-- Node20 -->
<g id="node20" class="node">
<title>Node20</title>
<g id="a_node20"><a xlink:href="FloatingBaseEstimatorParams_8h.html" target="_top" xlink:title=" ">
<polygon fill="none" stroke="black" points="31.57,-324.5 31.57,-365.5 238.57,-365.5 238.57,-324.5 31.57,-324.5"/>
<text text-anchor="start" x="39.57" y="-353.5" font-family="Helvetica,sans-Serif" font-size="10.00">BipedalLocomotion/Floating</text>
<text text-anchor="start" x="39.57" y="-342.5" font-family="Helvetica,sans-Serif" font-size="10.00">BaseEstimators/FloatingBaseEstimator</text>
<text text-anchor="middle" x="135.07" y="-331.5" font-family="Helvetica,sans-Serif" font-size="10.00">Params.h</text>
</a>
</g>
</g>
<!-- Node3&#45;&gt;Node20 -->
<g id="edge22" class="edge">
<title>Node3&#45;&gt;Node20</title>
<path fill="none" stroke="midnightblue" d="M476.69,-402.45C414.66,-392.98 331.14,-380 248.82,-366.28"/>
<polygon fill="midnightblue" stroke="midnightblue" points="249.23,-362.8 238.79,-364.6 248.07,-369.7 249.23,-362.8"/>
</g>
<!-- Node23 -->
<g id="node23" class="node">
<title>Node23</title>
<g id="a_node23"><a xlink:href="FloatingBaseEstimatorIO_8h.html" target="_top" xlink:title=" ">
<polygon fill="none" stroke="black" points="256.57,-330 256.57,-360 483.57,-360 483.57,-330 256.57,-330"/>
<text text-anchor="start" x="264.57" y="-348" font-family="Helvetica,sans-Serif" font-size="10.00">BipedalLocomotion/Floating</text>
<text text-anchor="middle" x="370.07" y="-337" font-family="Helvetica,sans-Serif" font-size="10.00">BaseEstimators/FloatingBaseEstimatorIO.h</text>
</a>
</g>
</g>
<!-- Node3&#45;&gt;Node23 -->
<g id="edge25" class="edge">
<title>Node3&#45;&gt;Node23</title>
<path fill="none" stroke="midnightblue" d="M530.08,-402.4C498.33,-391.21 453.77,-375.51 419.74,-363.51"/>
<polygon fill="midnightblue" stroke="midnightblue" points="420.59,-360.1 409.99,-360.07 418.26,-366.7 420.59,-360.1"/>
</g>
<!-- Node29 -->
<g id="node29" class="node">
<title>Node29</title>
<g id="a_node29"><a xlink:title=" ">
<polygon fill="none" stroke="#bfbfbf" points="540.57,-335.5 540.57,-354.5 715.57,-354.5 715.57,-335.5 540.57,-335.5"/>
<text text-anchor="middle" x="628.07" y="-342.5" font-family="Helvetica,sans-Serif" font-size="10.00">iDynTree/KinDynComputations.h</text>
</a>
</g>
</g>
<!-- Node3&#45;&gt;Node29 -->
<g id="edge36" class="edge">
<title>Node3&#45;&gt;Node29</title>
<path fill="none" stroke="midnightblue" d="M581.81,-402.23C591.18,-390.84 604.34,-374.84 614.23,-362.82"/>
<polygon fill="midnightblue" stroke="midnightblue" points="617.1,-364.84 620.75,-354.89 611.7,-360.39 617.1,-364.84"/>
</g>
<!-- Node5 -->
<g id="node5" class="node">
<title>Node5</title>
<g id="a_node5"><a xlink:href="Advanceable_8h.html" target="_top" xlink:title=" ">
<polygon fill="none" stroke="black" points="719.07,-257.5 719.07,-287.5 869.07,-287.5 869.07,-257.5 719.07,-257.5"/>
<text text-anchor="start" x="727.07" y="-275.5" font-family="Helvetica,sans-Serif" font-size="10.00">BipedalLocomotion/System</text>
<text text-anchor="middle" x="794.07" y="-264.5" font-family="Helvetica,sans-Serif" font-size="10.00">/Advanceable.h</text>
</a>
</g>
</g>
<!-- Node4&#45;&gt;Node5 -->
<g id="edge4" class="edge">
<title>Node4&#45;&gt;Node5</title>
<path fill="none" stroke="midnightblue" d="M806.03,-329.73C804.08,-320.56 801.49,-308.41 799.23,-297.74"/>
<polygon fill="midnightblue" stroke="midnightblue" points="802.6,-296.8 797.1,-287.75 795.76,-298.25 802.6,-296.8"/>
</g>
<!-- Node6 -->
<g id="node6" class="node">
<title>Node6</title>
<g id="a_node6"><a xlink:title=" ">
<polygon fill="none" stroke="#bfbfbf" points="768.57,-196 768.57,-215 819.57,-215 819.57,-196 768.57,-196"/>
<text text-anchor="middle" x="794.07" y="-203" font-family="Helvetica,sans-Serif" font-size="10.00">variant</text>
</a>
</g>
</g>
<!-- Node5&#45;&gt;Node6 -->
<g id="edge5" class="edge">
<title>Node5&#45;&gt;Node6</title>
<path fill="none" stroke="midnightblue" d="M794.07,-257.4C794.07,-248.06 794.07,-235.71 794.07,-225.52"/>
<polygon fill="midnightblue" stroke="midnightblue" points="797.57,-225.19 794.07,-215.19 790.57,-225.19 797.57,-225.19"/>
</g>
<!-- Node5&#45;&gt;Node7 -->
<g id="edge6" class="edge">
<title>Node5&#45;&gt;Node7</title>
<path fill="none" stroke="midnightblue" d="M762.82,-257.4C741.59,-247.81 713.32,-235.05 690.39,-224.7"/>
<polygon fill="midnightblue" stroke="midnightblue" points="691.81,-221.5 681.25,-220.58 688.93,-227.88 691.81,-221.5"/>
</g>
<!-- Node7&#45;&gt;Node8 -->
<g id="edge7" class="edge">
<title>Node7&#45;&gt;Node8</title>
<path fill="none" stroke="midnightblue" d="M719.02,-190.42C745.98,-182.67 776.12,-171.05 800.07,-154 823.9,-137.03 843,-108.47 853.69,-90.06"/>
<polygon fill="midnightblue" stroke="midnightblue" points="856.79,-91.68 858.61,-81.24 850.68,-88.27 856.79,-91.68"/>
</g>
<!-- Node9 -->
<g id="node9" class="node">
<title>Node9</title>
<g id="a_node9"><a xlink:title=" ">
<polygon fill="none" stroke="#bfbfbf" points="474.07,-129 474.07,-148 518.07,-148 518.07,-129 474.07,-129"/>
<text text-anchor="middle" x="496.07" y="-136" font-family="Helvetica,sans-Serif" font-size="10.00">string</text>
</a>
</g>
</g>
<!-- Node7&#45;&gt;Node9 -->
<g id="edge8" class="edge">
<title>Node7&#45;&gt;Node9</title>
<path fill="none" stroke="midnightblue" d="M616.65,-190.4C589.51,-178.94 551.6,-162.94 525.57,-151.95"/>
<polygon fill="midnightblue" stroke="midnightblue" points="526.8,-148.67 516.22,-148.01 524.08,-155.12 526.8,-148.67"/>
</g>
<!-- Node10 -->
<g id="node10" class="node">
<title>Node10</title>
<g id="a_node10"><a xlink:title=" ">
<polygon fill="none" stroke="#bfbfbf" points="743.57,-129 743.57,-148 790.57,-148 790.57,-129 743.57,-129"/>
<text text-anchor="middle" x="767.07" y="-136" font-family="Helvetica,sans-Serif" font-size="10.00">vector</text>
</a>
</g>
</g>
<!-- Node7&#45;&gt;Node10 -->
<g id="edge9" class="edge">
<title>Node7&#45;&gt;Node10</title>
<path fill="none" stroke="midnightblue" d="M675.46,-190.4C695.44,-179.29 723.11,-163.92 742.8,-152.98"/>
<polygon fill="midnightblue" stroke="midnightblue" points="744.71,-155.92 751.76,-148.01 741.31,-149.8 744.71,-155.92"/>
</g>
<!-- Node11 -->
<g id="node11" class="node">
<title>Node11</title>
<g id="a_node11"><a xlink:href="TemplateHelpers_8h_source.html" target="_top" xlink:title=" ">
<polygon fill="none" stroke="black" points="365.07,-56.5 365.07,-86.5 523.07,-86.5 523.07,-56.5 365.07,-56.5"/>
<text text-anchor="start" x="373.07" y="-74.5" font-family="Helvetica,sans-Serif" font-size="10.00">BipedalLocomotion/Generic</text>
<text text-anchor="middle" x="444.07" y="-63.5" font-family="Helvetica,sans-Serif" font-size="10.00">Container/TemplateHelpers.h</text>
</a>
</g>
</g>
<!-- Node7&#45;&gt;Node11 -->
<g id="edge10" class="edge">
<title>Node7&#45;&gt;Node11</title>
<path fill="none" stroke="midnightblue" d="M624.53,-190.31C607.6,-180.62 585.08,-167.19 566.07,-154 547.87,-141.38 545.23,-135.67 527.07,-123 511.23,-111.95 492.95,-100.68 477.58,-91.6"/>
<polygon fill="midnightblue" stroke="midnightblue" points="479.31,-88.55 468.91,-86.52 475.77,-94.59 479.31,-88.55"/>
</g>
<!-- Node15 -->
<g id="node15" class="node">
<title>Node15</title>
<g id="a_node15"><a xlink:href="Vector_8h_source.html" target="_top" xlink:title=" ">
<polygon fill="none" stroke="black" points="574.57,-123.5 574.57,-153.5 725.57,-153.5 725.57,-123.5 574.57,-123.5"/>
<text text-anchor="start" x="582.57" y="-141.5" font-family="Helvetica,sans-Serif" font-size="10.00">BipedalLocomotion/Generic</text>
<text text-anchor="middle" x="650.07" y="-130.5" font-family="Helvetica,sans-Serif" font-size="10.00">Container/Vector.h</text>
</a>
</g>
</g>
<!-- Node7&#45;&gt;Node15 -->
<g id="edge14" class="edge">
<title>Node7&#45;&gt;Node15</title>
<path fill="none" stroke="midnightblue" d="M650.07,-190.4C650.07,-182.64 650.07,-172.81 650.07,-163.86"/>
<polygon fill="midnightblue" stroke="midnightblue" points="653.57,-163.58 650.07,-153.58 646.57,-163.58 653.57,-163.58"/>
</g>
<!-- Node12 -->
<g id="node12" class="node">
<title>Node12</title>
<g id="a_node12"><a xlink:title=" ">
<polygon fill="none" stroke="#bfbfbf" points="320.57,-0.5 320.57,-19.5 389.57,-19.5 389.57,-0.5 320.57,-0.5"/>
<text text-anchor="middle" x="355.07" y="-7.5" font-family="Helvetica,sans-Serif" font-size="10.00">type_traits</text>
</a>
</g>
</g>
<!-- Node11&#45;&gt;Node12 -->
<g id="edge11" class="edge">
<title>Node11&#45;&gt;Node12</title>
<path fill="none" stroke="midnightblue" d="M422.98,-56.4C408.98,-47.04 390.66,-34.79 376.57,-25.38"/>
<polygon fill="midnightblue" stroke="midnightblue" points="378.28,-22.31 368.02,-19.66 374.39,-28.13 378.28,-22.31"/>
</g>
<!-- Node13 -->
<g id="node13" class="node">
<title>Node13</title>
<g id="a_node13"><a xlink:title=" ">
<polygon fill="none" stroke="#bfbfbf" points="407.57,-0.5 407.57,-19.5 480.57,-19.5 480.57,-0.5 407.57,-0.5"/>
<text text-anchor="middle" x="444.07" y="-7.5" font-family="Helvetica,sans-Serif" font-size="10.00">string_view</text>
</a>
</g>
</g>
<!-- Node11&#45;&gt;Node13 -->
<g id="edge12" class="edge">
<title>Node11&#45;&gt;Node13</title>
<path fill="none" stroke="midnightblue" d="M444.07,-56.4C444.07,-48.47 444.07,-38.46 444.07,-29.86"/>
<polygon fill="midnightblue" stroke="midnightblue" points="447.57,-29.66 444.07,-19.66 440.57,-29.66 447.57,-29.66"/>
</g>
<!-- Node14 -->
<g id="node14" class="node">
<title>Node14</title>
<g id="a_node14"><a xlink:title=" ">
<polygon fill="none" stroke="#bfbfbf" points="498.57,-0.5 498.57,-19.5 567.57,-19.5 567.57,-0.5 498.57,-0.5"/>
<text text-anchor="middle" x="533.07" y="-7.5" font-family="Helvetica,sans-Serif" font-size="10.00">Eigen/Core</text>
</a>
</g>
</g>
<!-- Node11&#45;&gt;Node14 -->
<g id="edge13" class="edge">
<title>Node11&#45;&gt;Node14</title>
<path fill="none" stroke="midnightblue" d="M465.16,-56.4C479.16,-47.04 497.48,-34.79 511.56,-25.38"/>
<polygon fill="midnightblue" stroke="midnightblue" points="513.75,-28.13 520.12,-19.66 509.86,-22.31 513.75,-28.13"/>
</g>
<!-- Node15&#45;&gt;Node8 -->
<g id="edge20" class="edge">
<title>Node15&#45;&gt;Node8</title>
<path fill="none" stroke="midnightblue" d="M702.88,-123.5C737.79,-113.94 784.43,-100.59 825.07,-87 827.33,-86.24 829.65,-85.44 831.99,-84.6"/>
<polygon fill="midnightblue" stroke="midnightblue" points="833.31,-87.84 841.48,-81.1 830.88,-81.28 833.31,-87.84"/>
</g>
<!-- Node15&#45;&gt;Node11 -->
<g id="edge16" class="edge">
<title>Node15&#45;&gt;Node11</title>
<path fill="none" stroke="midnightblue" d="M605.62,-123.48C574.19,-113.56 531.86,-100.2 498.41,-89.65"/>
<polygon fill="midnightblue" stroke="midnightblue" points="499.38,-86.28 488.79,-86.61 497.27,-92.96 499.38,-86.28"/>
</g>
<!-- Node16 -->
<g id="node16" class="node">
<title>Node16</title>
<g id="a_node16"><a xlink:title=" ">
<polygon fill="none" stroke="#bfbfbf" points="611.57,-62 611.57,-81 732.57,-81 732.57,-62 611.57,-62"/>
<text text-anchor="middle" x="672.07" y="-69" font-family="Helvetica,sans-Serif" font-size="10.00">iDynTree/Core/Span.h</text>
</a>
</g>
</g>
<!-- Node15&#45;&gt;Node16 -->
<g id="edge15" class="edge">
<title>Node15&#45;&gt;Node16</title>
<path fill="none" stroke="midnightblue" d="M654.84,-123.4C658.07,-113.86 662.36,-101.18 665.85,-90.86"/>
<polygon fill="midnightblue" stroke="midnightblue" points="669.23,-91.79 669.13,-81.19 662.6,-89.54 669.23,-91.79"/>
</g>
<!-- Node17 -->
<g id="node17" class="node">
<title>Node17</title>
<g id="a_node17"><a xlink:title=" ">
<polygon fill="none" stroke="#bfbfbf" points="750.57,-62 750.57,-81 815.57,-81 815.57,-62 750.57,-62"/>
<text text-anchor="middle" x="783.07" y="-69" font-family="Helvetica,sans-Serif" font-size="10.00">functional</text>
</a>
</g>
</g>
<!-- Node15&#45;&gt;Node17 -->
<g id="edge17" class="edge">
<title>Node15&#45;&gt;Node17</title>
<path fill="none" stroke="midnightblue" d="M678.93,-123.4C701.95,-112.14 733.96,-96.5 756.39,-85.54"/>
<polygon fill="midnightblue" stroke="midnightblue" points="758.21,-88.54 765.66,-81.01 755.14,-82.25 758.21,-88.54"/>
</g>
<!-- Node18 -->
<g id="node18" class="node">
<title>Node18</title>
<g id="a_node18"><a xlink:title=" ">
<polygon fill="none" stroke="#bfbfbf" points="541.07,-62 541.07,-81 593.07,-81 593.07,-62 541.07,-62"/>
<text text-anchor="middle" x="567.07" y="-69" font-family="Helvetica,sans-Serif" font-size="10.00">cassert</text>
</a>
</g>
</g>
<!-- Node15&#45;&gt;Node18 -->
<g id="edge18" class="edge">
<title>Node15&#45;&gt;Node18</title>
<path fill="none" stroke="midnightblue" d="M632.06,-123.4C618.48,-112.76 599.89,-98.2 586.07,-87.38"/>
<polygon fill="midnightblue" stroke="midnightblue" points="588.2,-84.6 578.17,-81.19 583.89,-90.12 588.2,-84.6"/>
</g>
<!-- Node15&#45;&gt;Node19 -->
<g id="edge19" class="edge">
<title>Node15&#45;&gt;Node19</title>
<path fill="none" stroke="midnightblue" d="M574.43,-127.24C471.62,-113.28 291.41,-88.83 211.35,-77.97"/>
<polygon fill="midnightblue" stroke="midnightblue" points="211.57,-74.46 201.19,-76.59 210.63,-81.4 211.57,-74.46"/>
</g>
<!-- Node21 -->
<g id="node21" class="node">
<title>Node21</title>
<g id="a_node21"><a xlink:title=" ">
<polygon fill="none" stroke="#bfbfbf" points="190.57,-129 190.57,-148 267.57,-148 267.57,-129 190.57,-129"/>
<text text-anchor="middle" x="229.07" y="-136" font-family="Helvetica,sans-Serif" font-size="10.00">Eigen/Dense</text>
</a>
</g>
</g>
<!-- Node20&#45;&gt;Node21 -->
<g id="edge23" class="edge">
<title>Node20&#45;&gt;Node21</title>
<path fill="none" stroke="midnightblue" d="M137.34,-324.4C139.89,-306.37 144.92,-279.15 154.07,-257 170.14,-218.07 199.02,-177.77 215.87,-155.95"/>
<polygon fill="midnightblue" stroke="midnightblue" points="218.66,-158.07 222.08,-148.04 213.15,-153.74 218.66,-158.07"/>
</g>
<!-- Node22 -->
<g id="node22" class="node">
<title>Node22</title>
<g id="a_node22"><a xlink:title=" ">
<polygon fill="none" stroke="#bfbfbf" points="163.07,-263 163.07,-282 201.07,-282 201.07,-263 163.07,-263"/>
<text text-anchor="middle" x="182.07" y="-270" font-family="Helvetica,sans-Serif" font-size="10.00">map</text>
</a>
</g>
</g>
<!-- Node20&#45;&gt;Node22 -->
<g id="edge24" class="edge">
<title>Node20&#45;&gt;Node22</title>
<path fill="none" stroke="midnightblue" d="M148.16,-324.36C155.23,-313.76 163.88,-300.79 170.67,-290.6"/>
<polygon fill="midnightblue" stroke="midnightblue" points="173.65,-292.44 176.29,-282.17 167.83,-288.55 173.65,-292.44"/>
</g>
<!-- Node23&#45;&gt;Node21 -->
<g id="edge26" class="edge">
<title>Node23&#45;&gt;Node21</title>
<path fill="none" stroke="midnightblue" d="M348.99,-329.79C320.66,-309.4 271.18,-268.96 248.07,-221 238.43,-201.01 233.53,-175.86 231.14,-158.82"/>
<polygon fill="midnightblue" stroke="midnightblue" points="234.57,-157.98 229.87,-148.49 227.62,-158.84 234.57,-157.98"/>
</g>
<!-- Node23&#45;&gt;Node22 -->
<g id="edge35" class="edge">
<title>Node23&#45;&gt;Node22</title>
<path fill="none" stroke="midnightblue" d="M328.66,-329.89C297.28,-318.99 253.19,-303.24 215.07,-288 213.47,-287.36 211.83,-286.69 210.19,-286.01"/>
<polygon fill="midnightblue" stroke="midnightblue" points="211.39,-282.72 200.82,-282 208.64,-289.15 211.39,-282.72"/>
</g>
<!-- Node23&#45;&gt;Node24 -->
<g id="edge27" class="edge">
<title>Node23&#45;&gt;Node24</title>
<path fill="none" stroke="midnightblue" d="M481.58,-329.95C498.49,-327.9 515.74,-325.86 532.07,-324 685.69,-306.53 724.58,-306.58 878.07,-288 895.09,-285.94 913.63,-283.46 930.32,-281.14"/>
<polygon fill="midnightblue" stroke="midnightblue" points="931.04,-284.57 940.45,-279.72 930.06,-277.64 931.04,-284.57"/>
</g>
<!-- Node25 -->
<g id="node25" class="node">
<title>Node25</title>
<g id="a_node25"><a xlink:href="Contact_8h.html" target="_top" xlink:title=" ">
<polygon fill="none" stroke="black" points="310.07,-257.5 310.07,-287.5 466.07,-287.5 466.07,-257.5 310.07,-257.5"/>
<text text-anchor="start" x="318.07" y="-275.5" font-family="Helvetica,sans-Serif" font-size="10.00">BipedalLocomotion/Contacts</text>
<text text-anchor="middle" x="388.07" y="-264.5" font-family="Helvetica,sans-Serif" font-size="10.00">/Contact.h</text>
</a>
</g>
</g>
<!-- Node23&#45;&gt;Node25 -->
<g id="edge28" class="edge">
<title>Node23&#45;&gt;Node25</title>
<path fill="none" stroke="midnightblue" d="M373.71,-329.73C376.05,-320.56 379.16,-308.41 381.88,-297.74"/>
<polygon fill="midnightblue" stroke="midnightblue" points="385.35,-298.3 384.43,-287.75 378.57,-296.57 385.35,-298.3"/>
</g>
<!-- Node25&#45;&gt;Node9 -->
<g id="edge34" class="edge">
<title>Node25&#45;&gt;Node9</title>
<path fill="none" stroke="midnightblue" d="M399.63,-257.37C419.77,-232.76 461.19,-182.12 482.6,-155.96"/>
<polygon fill="midnightblue" stroke="midnightblue" points="485.41,-158.05 489.03,-148.1 479.99,-153.62 485.41,-158.05"/>
</g>
<!-- Node26 -->
<g id="node26" class="node">
<title>Node26</title>
<g id="a_node26"><a xlink:href="Wrench_8h.html" target="_top" xlink:title=" ">
<polygon fill="none" stroke="black" points="257.07,-190.5 257.07,-220.5 395.07,-220.5 395.07,-190.5 257.07,-190.5"/>
<text text-anchor="start" x="265.07" y="-208.5" font-family="Helvetica,sans-Serif" font-size="10.00">BipedalLocomotion/Math</text>
<text text-anchor="middle" x="326.07" y="-197.5" font-family="Helvetica,sans-Serif" font-size="10.00">/Wrench.h</text>
</a>
</g>
</g>
<!-- Node25&#45;&gt;Node26 -->
<g id="edge29" class="edge">
<title>Node25&#45;&gt;Node26</title>
<path fill="none" stroke="midnightblue" d="M374.62,-257.4C366.41,-248.79 355.76,-237.63 346.52,-227.94"/>
<polygon fill="midnightblue" stroke="midnightblue" points="348.93,-225.4 339.5,-220.58 343.86,-230.23 348.93,-225.4"/>
</g>
<!-- Node27 -->
<g id="node27" class="node">
<title>Node27</title>
<g id="a_node27"><a xlink:title=" ">
<polygon fill="none" stroke="#bfbfbf" points="381.57,-129 381.57,-148 456.57,-148 456.57,-129 381.57,-129"/>
<text text-anchor="middle" x="419.07" y="-136" font-family="Helvetica,sans-Serif" font-size="10.00">manif/SE3.h</text>
</a>
</g>
</g>
<!-- Node25&#45;&gt;Node27 -->
<g id="edge33" class="edge">
<title>Node25&#45;&gt;Node27</title>
<path fill="none" stroke="midnightblue" d="M393.03,-257.49C396.46,-247.42 400.95,-233.49 404.07,-221 409.39,-199.68 413.7,-174.78 416.31,-158.17"/>
<polygon fill="midnightblue" stroke="midnightblue" points="419.79,-158.55 417.84,-148.14 412.87,-157.5 419.79,-158.55"/>
</g>
<!-- Node26&#45;&gt;Node21 -->
<g id="edge30" class="edge">
<title>Node26&#45;&gt;Node21</title>
<path fill="none" stroke="midnightblue" d="M305.02,-190.4C288.75,-179.5 266.34,-164.48 250.09,-153.58"/>
<polygon fill="midnightblue" stroke="midnightblue" points="252.02,-150.67 241.76,-148.01 248.12,-156.48 252.02,-150.67"/>
</g>
<!-- Node26&#45;&gt;Node27 -->
<g id="edge31" class="edge">
<title>Node26&#45;&gt;Node27</title>
<path fill="none" stroke="midnightblue" d="M346.25,-190.4C361.7,-179.6 382.93,-164.76 398.48,-153.89"/>
<polygon fill="midnightblue" stroke="midnightblue" points="400.71,-156.6 406.9,-148.01 396.7,-150.87 400.71,-156.6"/>
</g>
<!-- Node28 -->
<g id="node28" class="node">
<title>Node28</title>
<g id="a_node28"><a xlink:title=" ">
<polygon fill="none" stroke="#bfbfbf" points="286.57,-129 286.57,-148 363.57,-148 363.57,-129 286.57,-129"/>
<text text-anchor="middle" x="325.07" y="-136" font-family="Helvetica,sans-Serif" font-size="10.00">manif/SO3.h</text>
</a>
</g>
</g>
<!-- Node26&#45;&gt;Node28 -->
<g id="edge32" class="edge">
<title>Node26&#45;&gt;Node28</title>
<path fill="none" stroke="midnightblue" d="M325.85,-190.4C325.71,-181.06 325.52,-168.71 325.36,-158.52"/>
<polygon fill="midnightblue" stroke="midnightblue" points="328.86,-158.14 325.2,-148.19 321.86,-158.25 328.86,-158.14"/>
</g>
<!-- Node30&#45;&gt;Node24 -->
<g id="edge42" class="edge">
<title>Node30&#45;&gt;Node24</title>
<path fill="none" stroke="midnightblue" d="M1018.25,-469.47C999.2,-461.94 980.3,-450.45 969.07,-433 940.68,-388.9 961.74,-323.17 974.78,-291.64"/>
<polygon fill="midnightblue" stroke="midnightblue" points="978.05,-292.91 978.81,-282.34 971.62,-290.13 978.05,-292.91"/>
</g>
<!-- Node31 -->
<g id="node31" class="node">
<title>Node31</title>
<g id="a_node31"><a xlink:title=" ">
<polygon fill="none" stroke="#bfbfbf" points="978.07,-408 978.07,-427 1124.07,-427 1124.07,-408 978.07,-408"/>
<text text-anchor="middle" x="1051.07" y="-415" font-family="Helvetica,sans-Serif" font-size="10.00">iDynTree/Core/Transform.h</text>
</a>
</g>
</g>
<!-- Node30&#45;&gt;Node31 -->
<g id="edge40" class="edge">
<title>Node30&#45;&gt;Node31</title>
<path fill="none" stroke="midnightblue" d="M1073.78,-469.4C1069.48,-459.76 1063.75,-446.91 1059.12,-436.54"/>
<polygon fill="midnightblue" stroke="midnightblue" points="1062.22,-434.9 1054.95,-427.19 1055.83,-437.75 1062.22,-434.9"/>
</g>
<!-- Node30&#45;&gt;Node32 -->
<g id="edge41" class="edge">
<title>Node30&#45;&gt;Node32</title>
<path fill="none" stroke="midnightblue" d="M1111.1,-469.4C1136.08,-458.04 1170.88,-442.22 1195.03,-431.24"/>
<polygon fill="midnightblue" stroke="midnightblue" points="1196.7,-434.33 1204.35,-427.01 1193.8,-427.96 1196.7,-434.33"/>
</g>
</g>
</svg>
