<?xml version="1.0" encoding="UTF-8" standalone="no"?>
<!DOCTYPE svg PUBLIC "-//W3C//DTD SVG 1.1//EN"
 "http://www.w3.org/Graphics/SVG/1.1/DTD/svg11.dtd">
<!-- Generated by graphviz version 2.43.0 (0)
 -->
<!-- Title: System/include/BipedalLocomotion/System/LinearTask.h Pages: 1 -->
<svg width="791pt" height="363pt"
 viewBox="0.00 0.00 791.00 363.00" xmlns="http://www.w3.org/2000/svg" xmlns:xlink="http://www.w3.org/1999/xlink">
<g id="graph0" class="graph" transform="scale(1 1) rotate(0) translate(4 359)">
<title>System/include/BipedalLocomotion/System/LinearTask.h</title>
<!-- Node1 -->
<g id="node1" class="node">
<title>Node1</title>
<g id="a_node1"><a xlink:title=" ">
<polygon fill="#bfbfbf" stroke="black" points="338,-324.5 338,-354.5 526,-354.5 526,-324.5 338,-324.5"/>
<text text-anchor="start" x="346" y="-342.5" font-family="Helvetica,sans-Serif" font-size="10.00">System/include/BipedalLocomotion</text>
<text text-anchor="middle" x="432" y="-331.5" font-family="Helvetica,sans-Serif" font-size="10.00">/System/LinearTask.h</text>
</a>
</g>
</g>
<!-- Node2 -->
<g id="node2" class="node">
<title>Node2</title>
<g id="a_node2"><a xlink:title=" ">
<polygon fill="none" stroke="#bfbfbf" points="0,-62 0,-81 58,-81 58,-62 0,-62"/>
<text text-anchor="middle" x="29" y="-69" font-family="Helvetica,sans-Serif" font-size="10.00">memory</text>
</a>
</g>
</g>
<!-- Node1&#45;&gt;Node2 -->
<g id="edge1" class="edge">
<title>Node1&#45;&gt;Node2</title>
<path fill="none" stroke="midnightblue" d="M356.95,-324.49C288.6,-308.7 187.83,-277.52 117,-221 86.89,-196.97 81.68,-187.12 62,-154 49.98,-133.76 40.46,-108.33 34.8,-91.31"/>
<polygon fill="midnightblue" stroke="midnightblue" points="38.03,-89.93 31.65,-81.47 31.37,-92.06 38.03,-89.93"/>
</g>
<!-- Node3 -->
<g id="node3" class="node">
<title>Node3</title>
<g id="a_node3"><a xlink:title=" ">
<polygon fill="none" stroke="#bfbfbf" points="442,-129 442,-148 486,-148 486,-129 442,-129"/>
<text text-anchor="middle" x="464" y="-136" font-family="Helvetica,sans-Serif" font-size="10.00">string</text>
</a>
</g>
</g>
<!-- Node1&#45;&gt;Node3 -->
<g id="edge2" class="edge">
<title>Node1&#45;&gt;Node3</title>
<path fill="none" stroke="midnightblue" d="M441.28,-324.43C454.72,-303.11 478.98,-260.89 488,-221 491.04,-207.56 491.03,-203.44 488,-190 485.37,-178.33 479.71,-166.2 474.55,-156.75"/>
<polygon fill="midnightblue" stroke="midnightblue" points="477.53,-154.92 469.5,-148.01 471.47,-158.42 477.53,-154.92"/>
</g>
<!-- Node4 -->
<g id="node4" class="node">
<title>Node4</title>
<g id="a_node4"><a xlink:title=" ">
<polygon fill="none" stroke="#bfbfbf" points="535.5,-263 535.5,-282 612.5,-282 612.5,-263 535.5,-263"/>
<text text-anchor="middle" x="574" y="-270" font-family="Helvetica,sans-Serif" font-size="10.00">Eigen/Dense</text>
</a>
</g>
</g>
<!-- Node1&#45;&gt;Node4 -->
<g id="edge3" class="edge">
<title>Node1&#45;&gt;Node4</title>
<path fill="none" stroke="midnightblue" d="M462.81,-324.4C487.62,-313.04 522.18,-297.22 546.16,-286.24"/>
<polygon fill="midnightblue" stroke="midnightblue" points="547.78,-289.35 555.42,-282.01 544.87,-282.99 547.78,-289.35"/>
</g>
<!-- Node5 -->
<g id="node5" class="node">
<title>Node5</title>
<g id="a_node5"><a xlink:title=" ">
<polygon fill="none" stroke="#bfbfbf" points="631,-263 631,-282 783,-282 783,-263 631,-263"/>
<text text-anchor="middle" x="707" y="-270" font-family="Helvetica,sans-Serif" font-size="10.00">iDynTree/Core/MatrixView.h</text>
</a>
</g>
</g>
<!-- Node1&#45;&gt;Node5 -->
<g id="edge4" class="edge">
<title>Node1&#45;&gt;Node5</title>
<path fill="none" stroke="midnightblue" d="M491.33,-324.48C542.23,-312.45 614.52,-295.36 661.1,-284.35"/>
<polygon fill="midnightblue" stroke="midnightblue" points="661.99,-287.74 670.92,-282.03 660.38,-280.92 661.99,-287.74"/>
</g>
<!-- Node6 -->
<g id="node6" class="node">
<title>Node6</title>
<g id="a_node6"><a xlink:href="IParametersHandler_8h.html" target="_top" xlink:title=" ">
<polygon fill="none" stroke="black" points="160.5,-190.5 160.5,-220.5 329.5,-220.5 329.5,-190.5 160.5,-190.5"/>
<text text-anchor="start" x="168.5" y="-208.5" font-family="Helvetica,sans-Serif" font-size="10.00">BipedalLocomotion/Parameters</text>
<text text-anchor="middle" x="245" y="-197.5" font-family="Helvetica,sans-Serif" font-size="10.00">Handler/IParametersHandler.h</text>
</a>
</g>
</g>
<!-- Node1&#45;&gt;Node6 -->
<g id="edge5" class="edge">
<title>Node1&#45;&gt;Node6</title>
<path fill="none" stroke="midnightblue" d="M338.76,-324.42C314.88,-316.95 290.92,-305.51 273,-288 257.51,-272.86 250.58,-248.78 247.49,-230.71"/>
<polygon fill="midnightblue" stroke="midnightblue" points="250.93,-230.03 246.05,-220.63 244,-231.02 250.93,-230.03"/>
</g>
<!-- Node17 -->
<g id="node17" class="node">
<title>Node17</title>
<g id="a_node17"><a xlink:href="VariablesHandler_8h.html" target="_top" xlink:title=" ">
<polygon fill="none" stroke="black" points="282,-257.5 282,-287.5 432,-287.5 432,-257.5 282,-257.5"/>
<text text-anchor="start" x="290" y="-275.5" font-family="Helvetica,sans-Serif" font-size="10.00">BipedalLocomotion/System</text>
<text text-anchor="middle" x="357" y="-264.5" font-family="Helvetica,sans-Serif" font-size="10.00">/VariablesHandler.h</text>
</a>
</g>
</g>
<!-- Node1&#45;&gt;Node17 -->
<g id="edge20" class="edge">
<title>Node1&#45;&gt;Node17</title>
<path fill="none" stroke="midnightblue" d="M415.73,-324.4C405.6,-315.62 392.4,-304.18 381.08,-294.37"/>
<polygon fill="midnightblue" stroke="midnightblue" points="383.09,-291.48 373.24,-287.58 378.51,-296.77 383.09,-291.48"/>
</g>
<!-- Node6&#45;&gt;Node2 -->
<g id="edge6" class="edge">
<title>Node6&#45;&gt;Node2</title>
<path fill="none" stroke="midnightblue" d="M221.11,-190.48C204.03,-180.42 180.53,-166.48 160,-154 149.44,-147.58 86.05,-108.08 51.47,-86.52"/>
<polygon fill="midnightblue" stroke="midnightblue" points="53.29,-83.52 42.95,-81.2 49.58,-89.46 53.29,-83.52"/>
</g>
<!-- Node6&#45;&gt;Node3 -->
<g id="edge7" class="edge">
<title>Node6&#45;&gt;Node3</title>
<path fill="none" stroke="midnightblue" d="M302.38,-190.45C338.7,-181.12 386.48,-168.04 428,-154 430.13,-153.28 432.31,-152.5 434.5,-151.7"/>
<polygon fill="midnightblue" stroke="midnightblue" points="435.9,-154.9 443.97,-148.04 433.38,-148.37 435.9,-154.9"/>
</g>
<!-- Node7 -->
<g id="node7" class="node">
<title>Node7</title>
<g id="a_node7"><a xlink:title=" ">
<polygon fill="none" stroke="#bfbfbf" points="338.5,-129 338.5,-148 385.5,-148 385.5,-129 338.5,-129"/>
<text text-anchor="middle" x="362" y="-136" font-family="Helvetica,sans-Serif" font-size="10.00">vector</text>
</a>
</g>
</g>
<!-- Node6&#45;&gt;Node7 -->
<g id="edge8" class="edge">
<title>Node6&#45;&gt;Node7</title>
<path fill="none" stroke="midnightblue" d="M270.39,-190.4C290.37,-179.29 318.04,-163.92 337.73,-152.98"/>
<polygon fill="midnightblue" stroke="midnightblue" points="339.65,-155.92 346.69,-148.01 336.25,-149.8 339.65,-155.92"/>
</g>
<!-- Node8 -->
<g id="node8" class="node">
<title>Node8</title>
<g id="a_node8"><a xlink:href="TemplateHelpers_8h_source.html" target="_top" xlink:title=" ">
<polygon fill="none" stroke="black" points="447,-56.5 447,-86.5 605,-86.5 605,-56.5 447,-56.5"/>
<text text-anchor="start" x="455" y="-74.5" font-family="Helvetica,sans-Serif" font-size="10.00">BipedalLocomotion/Generic</text>
<text text-anchor="middle" x="526" y="-63.5" font-family="Helvetica,sans-Serif" font-size="10.00">Container/TemplateHelpers.h</text>
</a>
</g>
</g>
<!-- Node6&#45;&gt;Node8 -->
<g id="edge9" class="edge">
<title>Node6&#45;&gt;Node8</title>
<path fill="none" stroke="midnightblue" d="M302.22,-190.49C331.08,-182.13 366.01,-170.01 395,-154 414.08,-143.46 414.9,-135.14 433,-123 450.25,-111.43 470.4,-100.23 487.53,-91.33"/>
<polygon fill="midnightblue" stroke="midnightblue" points="489.39,-94.31 496.7,-86.63 486.2,-88.08 489.39,-94.31"/>
</g>
<!-- Node12 -->
<g id="node12" class="node">
<title>Node12</title>
<g id="a_node12"><a xlink:href="Vector_8h_source.html" target="_top" xlink:title=" ">
<polygon fill="none" stroke="black" points="169.5,-123.5 169.5,-153.5 320.5,-153.5 320.5,-123.5 169.5,-123.5"/>
<text text-anchor="start" x="177.5" y="-141.5" font-family="Helvetica,sans-Serif" font-size="10.00">BipedalLocomotion/Generic</text>
<text text-anchor="middle" x="245" y="-130.5" font-family="Helvetica,sans-Serif" font-size="10.00">Container/Vector.h</text>
</a>
</g>
</g>
<!-- Node6&#45;&gt;Node12 -->
<g id="edge13" class="edge">
<title>Node6&#45;&gt;Node12</title>
<path fill="none" stroke="midnightblue" d="M245,-190.4C245,-182.64 245,-172.81 245,-163.86"/>
<polygon fill="midnightblue" stroke="midnightblue" points="248.5,-163.58 245,-153.58 241.5,-163.58 248.5,-163.58"/>
</g>
<!-- Node9 -->
<g id="node9" class="node">
<title>Node9</title>
<g id="a_node9"><a xlink:title=" ">
<polygon fill="none" stroke="#bfbfbf" points="402.5,-0.5 402.5,-19.5 471.5,-19.5 471.5,-0.5 402.5,-0.5"/>
<text text-anchor="middle" x="437" y="-7.5" font-family="Helvetica,sans-Serif" font-size="10.00">type_traits</text>
</a>
</g>
</g>
<!-- Node8&#45;&gt;Node9 -->
<g id="edge10" class="edge">
<title>Node8&#45;&gt;Node9</title>
<path fill="none" stroke="midnightblue" d="M504.91,-56.4C490.91,-47.04 472.59,-34.79 458.51,-25.38"/>
<polygon fill="midnightblue" stroke="midnightblue" points="460.21,-22.31 449.95,-19.66 456.32,-28.13 460.21,-22.31"/>
</g>
<!-- Node10 -->
<g id="node10" class="node">
<title>Node10</title>
<g id="a_node10"><a xlink:title=" ">
<polygon fill="none" stroke="#bfbfbf" points="489.5,-0.5 489.5,-19.5 562.5,-19.5 562.5,-0.5 489.5,-0.5"/>
<text text-anchor="middle" x="526" y="-7.5" font-family="Helvetica,sans-Serif" font-size="10.00">string_view</text>
</a>
</g>
</g>
<!-- Node8&#45;&gt;Node10 -->
<g id="edge11" class="edge">
<title>Node8&#45;&gt;Node10</title>
<path fill="none" stroke="midnightblue" d="M526,-56.4C526,-48.47 526,-38.46 526,-29.86"/>
<polygon fill="midnightblue" stroke="midnightblue" points="529.5,-29.66 526,-19.66 522.5,-29.66 529.5,-29.66"/>
</g>
<!-- Node11 -->
<g id="node11" class="node">
<title>Node11</title>
<g id="a_node11"><a xlink:title=" ">
<polygon fill="none" stroke="#bfbfbf" points="580.5,-0.5 580.5,-19.5 649.5,-19.5 649.5,-0.5 580.5,-0.5"/>
<text text-anchor="middle" x="615" y="-7.5" font-family="Helvetica,sans-Serif" font-size="10.00">Eigen/Core</text>
</a>
</g>
</g>
<!-- Node8&#45;&gt;Node11 -->
<g id="edge12" class="edge">
<title>Node8&#45;&gt;Node11</title>
<path fill="none" stroke="midnightblue" d="M547.09,-56.4C561.09,-47.04 579.41,-34.79 593.49,-25.38"/>
<polygon fill="midnightblue" stroke="midnightblue" points="595.68,-28.13 602.05,-19.66 591.79,-22.31 595.68,-28.13"/>
</g>
<!-- Node12&#45;&gt;Node2 -->
<g id="edge19" class="edge">
<title>Node12&#45;&gt;Node2</title>
<path fill="none" stroke="midnightblue" d="M190.88,-123.48C155.41,-113.96 108.16,-100.66 67,-87 64.74,-86.25 62.41,-85.44 60.08,-84.61"/>
<polygon fill="midnightblue" stroke="midnightblue" points="61.18,-81.29 50.58,-81.11 58.76,-87.86 61.18,-81.29"/>
</g>
<!-- Node12&#45;&gt;Node8 -->
<g id="edge15" class="edge">
<title>Node12&#45;&gt;Node8</title>
<path fill="none" stroke="midnightblue" d="M305.63,-123.48C349.52,-113.32 408.98,-99.57 455.08,-88.91"/>
<polygon fill="midnightblue" stroke="midnightblue" points="456.04,-92.27 465,-86.61 454.47,-85.45 456.04,-92.27"/>
</g>
<!-- Node13 -->
<g id="node13" class="node">
<title>Node13</title>
<g id="a_node13"><a xlink:title=" ">
<polygon fill="none" stroke="#bfbfbf" points="76.5,-62 76.5,-81 197.5,-81 197.5,-62 76.5,-62"/>
<text text-anchor="middle" x="137" y="-69" font-family="Helvetica,sans-Serif" font-size="10.00">iDynTree/Core/Span.h</text>
</a>
</g>
</g>
<!-- Node12&#45;&gt;Node13 -->
<g id="edge14" class="edge">
<title>Node12&#45;&gt;Node13</title>
<path fill="none" stroke="midnightblue" d="M221.57,-123.4C203.29,-112.39 178.04,-97.2 159.9,-86.28"/>
<polygon fill="midnightblue" stroke="midnightblue" points="161.51,-83.16 151.13,-81.01 157.9,-89.16 161.51,-83.16"/>
</g>
<!-- Node14 -->
<g id="node14" class="node">
<title>Node14</title>
<g id="a_node14"><a xlink:title=" ">
<polygon fill="none" stroke="#bfbfbf" points="215.5,-62 215.5,-81 280.5,-81 280.5,-62 215.5,-62"/>
<text text-anchor="middle" x="248" y="-69" font-family="Helvetica,sans-Serif" font-size="10.00">functional</text>
</a>
</g>
</g>
<!-- Node12&#45;&gt;Node14 -->
<g id="edge16" class="edge">
<title>Node12&#45;&gt;Node14</title>
<path fill="none" stroke="midnightblue" d="M245.65,-123.4C246.09,-113.96 246.66,-101.45 247.14,-91.19"/>
<polygon fill="midnightblue" stroke="midnightblue" points="250.63,-91.35 247.6,-81.19 243.64,-91.02 250.63,-91.35"/>
</g>
<!-- Node15 -->
<g id="node15" class="node">
<title>Node15</title>
<g id="a_node15"><a xlink:title=" ">
<polygon fill="none" stroke="#bfbfbf" points="299,-62 299,-81 351,-81 351,-62 299,-62"/>
<text text-anchor="middle" x="325" y="-69" font-family="Helvetica,sans-Serif" font-size="10.00">cassert</text>
</a>
</g>
</g>
<!-- Node12&#45;&gt;Node15 -->
<g id="edge17" class="edge">
<title>Node12&#45;&gt;Node15</title>
<path fill="none" stroke="midnightblue" d="M262.36,-123.4C275.33,-112.86 293.03,-98.48 306.31,-87.69"/>
<polygon fill="midnightblue" stroke="midnightblue" points="308.74,-90.22 314.3,-81.19 304.33,-84.78 308.74,-90.22"/>
</g>
<!-- Node16 -->
<g id="node16" class="node">
<title>Node16</title>
<g id="a_node16"><a xlink:title=" ">
<polygon fill="none" stroke="#bfbfbf" points="369,-62 369,-81 429,-81 429,-62 369,-62"/>
<text text-anchor="middle" x="399" y="-69" font-family="Helvetica,sans-Serif" font-size="10.00">iostream</text>
</a>
</g>
</g>
<!-- Node12&#45;&gt;Node16 -->
<g id="edge18" class="edge">
<title>Node12&#45;&gt;Node16</title>
<path fill="none" stroke="midnightblue" d="M278.42,-123.4C305.56,-111.94 343.47,-95.94 369.5,-84.95"/>
<polygon fill="midnightblue" stroke="midnightblue" points="370.99,-88.12 378.84,-81.01 368.27,-81.67 370.99,-88.12"/>
</g>
<!-- Node17&#45;&gt;Node2 -->
<g id="edge22" class="edge">
<title>Node17&#45;&gt;Node2</title>
<path fill="none" stroke="midnightblue" d="M281.96,-264.78C240.78,-258.33 190.27,-245.71 151,-221 123.13,-203.46 65.72,-124.7 40.88,-89.54"/>
<polygon fill="midnightblue" stroke="midnightblue" points="43.66,-87.41 35.05,-81.24 37.93,-91.43 43.66,-87.41"/>
</g>
<!-- Node17&#45;&gt;Node3 -->
<g id="edge21" class="edge">
<title>Node17&#45;&gt;Node3</title>
<path fill="none" stroke="midnightblue" d="M357.2,-257.41C358.11,-239.95 361.98,-210.06 377,-190 384.92,-179.42 413.9,-163.69 436.25,-152.61"/>
<polygon fill="midnightblue" stroke="midnightblue" points="437.9,-155.7 445.35,-148.17 434.83,-149.41 437.9,-155.7"/>
</g>
<!-- Node17&#45;&gt;Node6 -->
<g id="edge24" class="edge">
<title>Node17&#45;&gt;Node6</title>
<path fill="none" stroke="midnightblue" d="M332.7,-257.4C316.7,-248.11 295.56,-235.84 278.04,-225.67"/>
<polygon fill="midnightblue" stroke="midnightblue" points="279.66,-222.57 269.25,-220.58 276.15,-228.62 279.66,-222.57"/>
</g>
<!-- Node18 -->
<g id="node18" class="node">
<title>Node18</title>
<g id="a_node18"><a xlink:title=" ">
<polygon fill="none" stroke="#bfbfbf" points="385.5,-196 385.5,-215 478.5,-215 478.5,-196 385.5,-196"/>
<text text-anchor="middle" x="432" y="-203" font-family="Helvetica,sans-Serif" font-size="10.00">unordered_map</text>
</a>
</g>
</g>
<!-- Node17&#45;&gt;Node18 -->
<g id="edge23" class="edge">
<title>Node17&#45;&gt;Node18</title>
<path fill="none" stroke="midnightblue" d="M373.27,-257.4C385.32,-246.96 401.71,-232.75 414.12,-222"/>
<polygon fill="midnightblue" stroke="midnightblue" points="416.7,-224.39 421.97,-215.19 412.12,-219.1 416.7,-224.39"/>
</g>
</g>
</svg>
