<?xml version="1.0" encoding="UTF-8" standalone="no"?>
<!DOCTYPE svg PUBLIC "-//W3C//DTD SVG 1.1//EN"
 "http://www.w3.org/Graphics/SVG/1.1/DTD/svg11.dtd">
<!-- Generated by graphviz version 2.43.0 (0)
 -->
<!-- Title: System/include/BipedalLocomotion/System/LinearTask.h Pages: 1 -->
<svg width="2257pt" height="229pt"
 viewBox="0.00 0.00 2256.50 229.00" xmlns="http://www.w3.org/2000/svg" xmlns:xlink="http://www.w3.org/1999/xlink">
<g id="graph0" class="graph" transform="scale(1 1) rotate(0) translate(4 225)">
<title>System/include/BipedalLocomotion/System/LinearTask.h</title>
<!-- Node1 -->
<g id="node1" class="node">
<title>Node1</title>
<g id="a_node1"><a xlink:title=" ">
<polygon fill="#bfbfbf" stroke="black" points="913.5,-190.5 913.5,-220.5 1101.5,-220.5 1101.5,-190.5 913.5,-190.5"/>
<text text-anchor="start" x="921.5" y="-208.5" font-family="Helvetica,sans-Serif" font-size="10.00">System/include/BipedalLocomotion</text>
<text text-anchor="middle" x="1007.5" y="-197.5" font-family="Helvetica,sans-Serif" font-size="10.00">/System/LinearTask.h</text>
</a>
</g>
</g>
<!-- Node2 -->
<g id="node2" class="node">
<title>Node2</title>
<g id="a_node2"><a xlink:href="CoMTask_8h.html" target="_top" xlink:title=" ">
<polygon fill="none" stroke="black" points="0,-123.5 0,-153.5 161,-153.5 161,-123.5 0,-123.5"/>
<text text-anchor="start" x="8" y="-141.5" font-family="Helvetica,sans-Serif" font-size="10.00">IK/include/BipedalLocomotion</text>
<text text-anchor="middle" x="80.5" y="-130.5" font-family="Helvetica,sans-Serif" font-size="10.00">/IK/CoMTask.h</text>
</a>
</g>
</g>
<!-- Node1&#45;&gt;Node2 -->
<g id="edge1" class="edge">
<title>Node1&#45;&gt;Node2</title>
<path fill="none" stroke="midnightblue" d="M903.05,-201.61C744.22,-196.44 432.61,-183.28 169.5,-154 166.85,-153.71 164.17,-153.39 161.46,-153.05"/>
<polygon fill="midnightblue" stroke="midnightblue" points="903.19,-205.11 913.29,-201.93 903.41,-198.11 903.19,-205.11"/>
</g>
<!-- Node4 -->
<g id="node4" class="node">
<title>Node4</title>
<g id="a_node4"><a xlink:href="IntegrationBasedIK_8h.html" target="_top" xlink:title=" ">
<polygon fill="none" stroke="black" points="179,-123.5 179,-153.5 340,-153.5 340,-123.5 179,-123.5"/>
<text text-anchor="start" x="187" y="-141.5" font-family="Helvetica,sans-Serif" font-size="10.00">IK/include/BipedalLocomotion</text>
<text text-anchor="middle" x="259.5" y="-130.5" font-family="Helvetica,sans-Serif" font-size="10.00">/IK/IntegrationBasedIK.h</text>
</a>
</g>
</g>
<!-- Node1&#45;&gt;Node4 -->
<g id="edge3" class="edge">
<title>Node1&#45;&gt;Node4</title>
<path fill="none" stroke="midnightblue" d="M903.21,-198.83C774.12,-191.26 547.66,-176.18 354.5,-154 349.78,-153.46 344.93,-152.86 340.04,-152.22"/>
<polygon fill="midnightblue" stroke="midnightblue" points="903.3,-202.34 913.48,-199.43 903.7,-195.35 903.3,-202.34"/>
</g>
<!-- Node5 -->
<g id="node5" class="node">
<title>Node5</title>
<g id="a_node5"><a xlink:href="QPInverseKinematics_8h.html" target="_top" xlink:title=" ">
<polygon fill="none" stroke="black" points="201,-56.5 201,-86.5 362,-86.5 362,-56.5 201,-56.5"/>
<text text-anchor="start" x="209" y="-74.5" font-family="Helvetica,sans-Serif" font-size="10.00">IK/include/BipedalLocomotion</text>
<text text-anchor="middle" x="281.5" y="-63.5" font-family="Helvetica,sans-Serif" font-size="10.00">/IK/QPInverseKinematics.h</text>
</a>
</g>
</g>
<!-- Node1&#45;&gt;Node5 -->
<g id="edge8" class="edge">
<title>Node1&#45;&gt;Node5</title>
<path fill="none" stroke="midnightblue" d="M902.97,-203.3C751.33,-200.32 478.5,-189.97 387.5,-154 366.91,-145.86 366.01,-136.55 348.5,-123 332.37,-110.52 313.85,-96.58 300.37,-86.52"/>
<polygon fill="midnightblue" stroke="midnightblue" points="903.16,-206.8 913.23,-203.49 903.3,-199.8 903.16,-206.8"/>
</g>
<!-- Node7 -->
<g id="node7" class="node">
<title>Node7</title>
<g id="a_node7"><a xlink:href="IK_2include_2BipedalLocomotion_2IK_2JointTrackingTask_8h.html" target="_top" xlink:title=" ">
<polygon fill="none" stroke="black" points="397,-123.5 397,-153.5 558,-153.5 558,-123.5 397,-123.5"/>
<text text-anchor="start" x="405" y="-141.5" font-family="Helvetica,sans-Serif" font-size="10.00">IK/include/BipedalLocomotion</text>
<text text-anchor="middle" x="477.5" y="-130.5" font-family="Helvetica,sans-Serif" font-size="10.00">/IK/JointTrackingTask.h</text>
</a>
</g>
</g>
<!-- Node1&#45;&gt;Node7 -->
<g id="edge6" class="edge">
<title>Node1&#45;&gt;Node7</title>
<path fill="none" stroke="midnightblue" d="M902.99,-193.94C813.52,-184.57 681.34,-169.92 566.5,-154 563.71,-153.61 560.87,-153.21 558,-152.79"/>
<polygon fill="midnightblue" stroke="midnightblue" points="902.83,-197.45 913.14,-195 903.55,-190.49 902.83,-197.45"/>
</g>
<!-- Node9 -->
<g id="node9" class="node">
<title>Node9</title>
<g id="a_node9"><a xlink:href="IK_2include_2BipedalLocomotion_2IK_2SE3Task_8h.html" target="_top" xlink:title=" ">
<polygon fill="none" stroke="black" points="576,-123.5 576,-153.5 737,-153.5 737,-123.5 576,-123.5"/>
<text text-anchor="start" x="584" y="-141.5" font-family="Helvetica,sans-Serif" font-size="10.00">IK/include/BipedalLocomotion</text>
<text text-anchor="middle" x="656.5" y="-130.5" font-family="Helvetica,sans-Serif" font-size="10.00">/IK/SE3Task.h</text>
</a>
</g>
</g>
<!-- Node1&#45;&gt;Node9 -->
<g id="edge9" class="edge">
<title>Node1&#45;&gt;Node9</title>
<path fill="none" stroke="midnightblue" d="M921.9,-188.65C863.98,-177.92 788.16,-163.88 732.4,-153.55"/>
<polygon fill="midnightblue" stroke="midnightblue" points="921.3,-192.1 931.77,-190.48 922.57,-185.21 921.3,-192.1"/>
</g>
<!-- Node11 -->
<g id="node11" class="node">
<title>Node11</title>
<g id="a_node11"><a xlink:href="IK_2include_2BipedalLocomotion_2IK_2SO3Task_8h.html" target="_top" xlink:title=" ">
<polygon fill="none" stroke="black" points="755,-123.5 755,-153.5 916,-153.5 916,-123.5 755,-123.5"/>
<text text-anchor="start" x="763" y="-141.5" font-family="Helvetica,sans-Serif" font-size="10.00">IK/include/BipedalLocomotion</text>
<text text-anchor="middle" x="835.5" y="-130.5" font-family="Helvetica,sans-Serif" font-size="10.00">/IK/SO3Task.h</text>
</a>
</g>
</g>
<!-- Node1&#45;&gt;Node11 -->
<g id="edge11" class="edge">
<title>Node1&#45;&gt;Node11</title>
<path fill="none" stroke="midnightblue" d="M960.71,-186.82C933.07,-176.37 898.54,-163.32 872.75,-153.58"/>
<polygon fill="midnightblue" stroke="midnightblue" points="959.59,-190.13 970.18,-190.4 962.06,-183.59 959.59,-190.13"/>
</g>
<!-- Node13 -->
<g id="node13" class="node">
<title>Node13</title>
<g id="a_node13"><a xlink:href="LinearTask_8cpp.html" target="_top" xlink:title=" ">
<polygon fill="none" stroke="black" points="934.5,-129 934.5,-148 1080.5,-148 1080.5,-129 934.5,-129"/>
<text text-anchor="middle" x="1007.5" y="-136" font-family="Helvetica,sans-Serif" font-size="10.00">System/src/LinearTask.cpp</text>
</a>
</g>
</g>
<!-- Node1&#45;&gt;Node13 -->
<g id="edge13" class="edge">
<title>Node1&#45;&gt;Node13</title>
<path fill="none" stroke="midnightblue" d="M1007.5,-180.25C1007.5,-169.02 1007.5,-156.38 1007.5,-148.19"/>
<polygon fill="midnightblue" stroke="midnightblue" points="1004,-180.4 1007.5,-190.4 1011,-180.4 1004,-180.4"/>
</g>
<!-- Node14 -->
<g id="node14" class="node">
<title>Node14</title>
<g id="a_node14"><a xlink:href="BaseDynamicsTask_8h.html" target="_top" xlink:title=" ">
<polygon fill="none" stroke="black" points="1098.5,-123.5 1098.5,-153.5 1272.5,-153.5 1272.5,-123.5 1098.5,-123.5"/>
<text text-anchor="start" x="1106.5" y="-141.5" font-family="Helvetica,sans-Serif" font-size="10.00">TSID/include/BipedalLocomotion</text>
<text text-anchor="middle" x="1185.5" y="-130.5" font-family="Helvetica,sans-Serif" font-size="10.00">/TSID/BaseDynamicsTask.h</text>
</a>
</g>
</g>
<!-- Node1&#45;&gt;Node14 -->
<g id="edge14" class="edge">
<title>Node1&#45;&gt;Node14</title>
<path fill="none" stroke="midnightblue" d="M1055.55,-186.96C1084.22,-176.48 1120.14,-163.37 1146.95,-153.58"/>
<polygon fill="midnightblue" stroke="midnightblue" points="1054.32,-183.68 1046.12,-190.4 1056.72,-190.25 1054.32,-183.68"/>
</g>
<!-- Node16 -->
<g id="node16" class="node">
<title>Node16</title>
<g id="a_node16"><a xlink:href="JointDynamicsTask_8h_source.html" target="_top" xlink:title=" ">
<polygon fill="none" stroke="black" points="1290.5,-123.5 1290.5,-153.5 1464.5,-153.5 1464.5,-123.5 1290.5,-123.5"/>
<text text-anchor="start" x="1298.5" y="-141.5" font-family="Helvetica,sans-Serif" font-size="10.00">TSID/include/BipedalLocomotion</text>
<text text-anchor="middle" x="1377.5" y="-130.5" font-family="Helvetica,sans-Serif" font-size="10.00">/TSID/JointDynamicsTask.h</text>
</a>
</g>
</g>
<!-- Node1&#45;&gt;Node16 -->
<g id="edge16" class="edge">
<title>Node1&#45;&gt;Node16</title>
<path fill="none" stroke="midnightblue" d="M1097.35,-188.72C1158.46,-177.98 1238.59,-163.9 1297.5,-153.55"/>
<polygon fill="midnightblue" stroke="midnightblue" points="1096.57,-185.3 1087.33,-190.48 1097.78,-192.19 1096.57,-185.3"/>
</g>
<!-- Node18 -->
<g id="node18" class="node">
<title>Node18</title>
<g id="a_node18"><a xlink:href="TSID_2include_2BipedalLocomotion_2TSID_2JointTrackingTask_8h_source.html" target="_top" xlink:title=" ">
<polygon fill="none" stroke="black" points="1482.5,-123.5 1482.5,-153.5 1656.5,-153.5 1656.5,-123.5 1482.5,-123.5"/>
<text text-anchor="start" x="1490.5" y="-141.5" font-family="Helvetica,sans-Serif" font-size="10.00">TSID/include/BipedalLocomotion</text>
<text text-anchor="middle" x="1569.5" y="-130.5" font-family="Helvetica,sans-Serif" font-size="10.00">/TSID/JointTrackingTask.h</text>
</a>
</g>
</g>
<!-- Node1&#45;&gt;Node18 -->
<g id="edge18" class="edge">
<title>Node1&#45;&gt;Node18</title>
<path fill="none" stroke="midnightblue" d="M1111.94,-194.45C1206.48,-185.05 1349.5,-170.08 1473.5,-154 1476.43,-153.62 1479.4,-153.23 1482.4,-152.82"/>
<polygon fill="midnightblue" stroke="midnightblue" points="1111.41,-190.98 1101.8,-195.45 1112.1,-197.95 1111.41,-190.98"/>
</g>
<!-- Node20 -->
<g id="node20" class="node">
<title>Node20</title>
<g id="a_node20"><a xlink:href="TSID_2include_2BipedalLocomotion_2TSID_2SE3Task_8h.html" target="_top" xlink:title=" ">
<polygon fill="none" stroke="black" points="1674.5,-123.5 1674.5,-153.5 1848.5,-153.5 1848.5,-123.5 1674.5,-123.5"/>
<text text-anchor="start" x="1682.5" y="-141.5" font-family="Helvetica,sans-Serif" font-size="10.00">TSID/include/BipedalLocomotion</text>
<text text-anchor="middle" x="1761.5" y="-130.5" font-family="Helvetica,sans-Serif" font-size="10.00">/TSID/SE3Task.h</text>
</a>
</g>
</g>
<!-- Node1&#45;&gt;Node20 -->
<g id="edge20" class="edge">
<title>Node1&#45;&gt;Node20</title>
<path fill="none" stroke="midnightblue" d="M1112.03,-198.85C1242.01,-191.28 1470.57,-176.17 1665.5,-154 1668.43,-153.67 1671.41,-153.31 1674.42,-152.94"/>
<polygon fill="midnightblue" stroke="midnightblue" points="1111.47,-195.38 1101.69,-199.45 1111.87,-202.36 1111.47,-195.38"/>
</g>
<!-- Node22 -->
<g id="node22" class="node">
<title>Node22</title>
<g id="a_node22"><a xlink:href="TSID_2include_2BipedalLocomotion_2TSID_2SO3Task_8h.html" target="_top" xlink:title=" ">
<polygon fill="none" stroke="black" points="1866.5,-123.5 1866.5,-153.5 2040.5,-153.5 2040.5,-123.5 1866.5,-123.5"/>
<text text-anchor="start" x="1874.5" y="-141.5" font-family="Helvetica,sans-Serif" font-size="10.00">TSID/include/BipedalLocomotion</text>
<text text-anchor="middle" x="1953.5" y="-130.5" font-family="Helvetica,sans-Serif" font-size="10.00">/TSID/SO3Task.h</text>
</a>
</g>
</g>
<!-- Node1&#45;&gt;Node22 -->
<g id="edge22" class="edge">
<title>Node1&#45;&gt;Node22</title>
<path fill="none" stroke="midnightblue" d="M1112.1,-201.34C1272.75,-195.79 1589.74,-182.12 1857.5,-154 1860.43,-153.69 1863.41,-153.36 1866.42,-153"/>
<polygon fill="midnightblue" stroke="midnightblue" points="1111.62,-197.85 1101.75,-201.69 1111.86,-204.85 1111.62,-197.85"/>
</g>
<!-- Node24 -->
<g id="node24" class="node">
<title>Node24</title>
<g id="a_node24"><a xlink:href="TaskSpaceInverseDynamics_8h.html" target="_top" xlink:title=" ">
<polygon fill="none" stroke="black" points="2058.5,-123.5 2058.5,-153.5 2248.5,-153.5 2248.5,-123.5 2058.5,-123.5"/>
<text text-anchor="start" x="2066.5" y="-141.5" font-family="Helvetica,sans-Serif" font-size="10.00">TSID/include/BipedalLocomotion</text>
<text text-anchor="middle" x="2153.5" y="-130.5" font-family="Helvetica,sans-Serif" font-size="10.00">/TSID/TaskSpaceInverseDynamics.h</text>
</a>
</g>
</g>
<!-- Node1&#45;&gt;Node24 -->
<g id="edge24" class="edge">
<title>Node1&#45;&gt;Node24</title>
<path fill="none" stroke="midnightblue" d="M1111.96,-202.55C1299.9,-198.35 1707.32,-186.08 2049.5,-154 2052.4,-153.73 2055.35,-153.43 2058.33,-153.12"/>
<polygon fill="midnightblue" stroke="midnightblue" points="1111.73,-199.05 1101.81,-202.77 1111.89,-206.05 1111.73,-199.05"/>
</g>
<!-- Node3 -->
<g id="node3" class="node">
<title>Node3</title>
<g id="a_node3"><a xlink:href="CoMTask_8cpp.html" target="_top" xlink:title=" ">
<polygon fill="none" stroke="black" points="25.5,-62 25.5,-81 135.5,-81 135.5,-62 25.5,-62"/>
<text text-anchor="middle" x="80.5" y="-69" font-family="Helvetica,sans-Serif" font-size="10.00">IK/src/CoMTask.cpp</text>
</a>
</g>
</g>
<!-- Node2&#45;&gt;Node3 -->
<g id="edge2" class="edge">
<title>Node2&#45;&gt;Node3</title>
<path fill="none" stroke="midnightblue" d="M80.5,-113.25C80.5,-102.02 80.5,-89.38 80.5,-81.19"/>
<polygon fill="midnightblue" stroke="midnightblue" points="77,-113.4 80.5,-123.4 84,-113.4 77,-113.4"/>
</g>
<!-- Node4&#45;&gt;Node5 -->
<g id="edge4" class="edge">
<title>Node4&#45;&gt;Node5</title>
<path fill="none" stroke="midnightblue" d="M267.56,-113.7C270.64,-104.59 274.06,-94.49 276.74,-86.58"/>
<polygon fill="midnightblue" stroke="midnightblue" points="264.16,-112.8 264.27,-123.4 270.79,-115.05 264.16,-112.8"/>
</g>
<!-- Node6 -->
<g id="node6" class="node">
<title>Node6</title>
<g id="a_node6"><a xlink:href="QPInverseKinematics_8cpp.html" target="_top" xlink:title=" ">
<polygon fill="none" stroke="black" points="196,-0.5 196,-19.5 367,-19.5 367,-0.5 196,-0.5"/>
<text text-anchor="middle" x="281.5" y="-7.5" font-family="Helvetica,sans-Serif" font-size="10.00">IK/src/QPInverseKinematics.cpp</text>
</a>
</g>
</g>
<!-- Node5&#45;&gt;Node6 -->
<g id="edge5" class="edge">
<title>Node5&#45;&gt;Node6</title>
<path fill="none" stroke="midnightblue" d="M281.5,-46.29C281.5,-36.86 281.5,-26.65 281.5,-19.66"/>
<polygon fill="midnightblue" stroke="midnightblue" points="278,-46.4 281.5,-56.4 285,-46.4 278,-46.4"/>
</g>
<!-- Node8 -->
<g id="node8" class="node">
<title>Node8</title>
<g id="a_node8"><a xlink:href="IK_2src_2JointTrackingTask_8cpp.html" target="_top" xlink:title=" ">
<polygon fill="none" stroke="black" points="402,-62 402,-81 553,-81 553,-62 402,-62"/>
<text text-anchor="middle" x="477.5" y="-69" font-family="Helvetica,sans-Serif" font-size="10.00">IK/src/JointTrackingTask.cpp</text>
</a>
</g>
</g>
<!-- Node7&#45;&gt;Node8 -->
<g id="edge7" class="edge">
<title>Node7&#45;&gt;Node8</title>
<path fill="none" stroke="midnightblue" d="M477.5,-113.25C477.5,-102.02 477.5,-89.38 477.5,-81.19"/>
<polygon fill="midnightblue" stroke="midnightblue" points="474,-113.4 477.5,-123.4 481,-113.4 474,-113.4"/>
</g>
<!-- Node10 -->
<g id="node10" class="node">
<title>Node10</title>
<g id="a_node10"><a xlink:href="IK_2src_2SE3Task_8cpp.html" target="_top" xlink:title=" ">
<polygon fill="none" stroke="black" points="603,-62 603,-81 710,-81 710,-62 603,-62"/>
<text text-anchor="middle" x="656.5" y="-69" font-family="Helvetica,sans-Serif" font-size="10.00">IK/src/SE3Task.cpp</text>
</a>
</g>
</g>
<!-- Node9&#45;&gt;Node10 -->
<g id="edge10" class="edge">
<title>Node9&#45;&gt;Node10</title>
<path fill="none" stroke="midnightblue" d="M656.5,-113.25C656.5,-102.02 656.5,-89.38 656.5,-81.19"/>
<polygon fill="midnightblue" stroke="midnightblue" points="653,-113.4 656.5,-123.4 660,-113.4 653,-113.4"/>
</g>
<!-- Node12 -->
<g id="node12" class="node">
<title>Node12</title>
<g id="a_node12"><a xlink:href="IK_2src_2SO3Task_8cpp.html" target="_top" xlink:title=" ">
<polygon fill="none" stroke="black" points="781.5,-62 781.5,-81 889.5,-81 889.5,-62 781.5,-62"/>
<text text-anchor="middle" x="835.5" y="-69" font-family="Helvetica,sans-Serif" font-size="10.00">IK/src/SO3Task.cpp</text>
</a>
</g>
</g>
<!-- Node11&#45;&gt;Node12 -->
<g id="edge12" class="edge">
<title>Node11&#45;&gt;Node12</title>
<path fill="none" stroke="midnightblue" d="M835.5,-113.25C835.5,-102.02 835.5,-89.38 835.5,-81.19"/>
<polygon fill="midnightblue" stroke="midnightblue" points="832,-113.4 835.5,-123.4 839,-113.4 832,-113.4"/>
</g>
<!-- Node15 -->
<g id="node15" class="node">
<title>Node15</title>
<g id="a_node15"><a xlink:href="BaseDynamicsTask_8cpp.html" target="_top" xlink:title=" ">
<polygon fill="none" stroke="black" points="1098.5,-62 1098.5,-81 1272.5,-81 1272.5,-62 1098.5,-62"/>
<text text-anchor="middle" x="1185.5" y="-69" font-family="Helvetica,sans-Serif" font-size="10.00">TSID/src/BaseDynamicsTask.cpp</text>
</a>
</g>
</g>
<!-- Node14&#45;&gt;Node15 -->
<g id="edge15" class="edge">
<title>Node14&#45;&gt;Node15</title>
<path fill="none" stroke="midnightblue" d="M1185.5,-113.25C1185.5,-102.02 1185.5,-89.38 1185.5,-81.19"/>
<polygon fill="midnightblue" stroke="midnightblue" points="1182,-113.4 1185.5,-123.4 1189,-113.4 1182,-113.4"/>
</g>
<!-- Node17 -->
<g id="node17" class="node">
<title>Node17</title>
<g id="a_node17"><a xlink:href="JointDynamicsTask_8cpp.html" target="_top" xlink:title=" ">
<polygon fill="none" stroke="black" points="1291.5,-62 1291.5,-81 1463.5,-81 1463.5,-62 1291.5,-62"/>
<text text-anchor="middle" x="1377.5" y="-69" font-family="Helvetica,sans-Serif" font-size="10.00">TSID/src/JointDynamicsTask.cpp</text>
</a>
</g>
</g>
<!-- Node16&#45;&gt;Node17 -->
<g id="edge17" class="edge">
<title>Node16&#45;&gt;Node17</title>
<path fill="none" stroke="midnightblue" d="M1377.5,-113.25C1377.5,-102.02 1377.5,-89.38 1377.5,-81.19"/>
<polygon fill="midnightblue" stroke="midnightblue" points="1374,-113.4 1377.5,-123.4 1381,-113.4 1374,-113.4"/>
</g>
<!-- Node19 -->
<g id="node19" class="node">
<title>Node19</title>
<g id="a_node19"><a xlink:href="TSID_2src_2JointTrackingTask_8cpp.html" target="_top" xlink:title=" ">
<polygon fill="none" stroke="black" points="1487.5,-62 1487.5,-81 1651.5,-81 1651.5,-62 1487.5,-62"/>
<text text-anchor="middle" x="1569.5" y="-69" font-family="Helvetica,sans-Serif" font-size="10.00">TSID/src/JointTrackingTask.cpp</text>
</a>
</g>
</g>
<!-- Node18&#45;&gt;Node19 -->
<g id="edge19" class="edge">
<title>Node18&#45;&gt;Node19</title>
<path fill="none" stroke="midnightblue" d="M1569.5,-113.25C1569.5,-102.02 1569.5,-89.38 1569.5,-81.19"/>
<polygon fill="midnightblue" stroke="midnightblue" points="1566,-113.4 1569.5,-123.4 1573,-113.4 1566,-113.4"/>
</g>
<!-- Node21 -->
<g id="node21" class="node">
<title>Node21</title>
<g id="a_node21"><a xlink:href="TSID_2src_2SE3Task_8cpp.html" target="_top" xlink:title=" ">
<polygon fill="none" stroke="black" points="1702,-62 1702,-81 1821,-81 1821,-62 1702,-62"/>
<text text-anchor="middle" x="1761.5" y="-69" font-family="Helvetica,sans-Serif" font-size="10.00">TSID/src/SE3Task.cpp</text>
</a>
</g>
</g>
<!-- Node20&#45;&gt;Node21 -->
<g id="edge21" class="edge">
<title>Node20&#45;&gt;Node21</title>
<path fill="none" stroke="midnightblue" d="M1761.5,-113.25C1761.5,-102.02 1761.5,-89.38 1761.5,-81.19"/>
<polygon fill="midnightblue" stroke="midnightblue" points="1758,-113.4 1761.5,-123.4 1765,-113.4 1758,-113.4"/>
</g>
<!-- Node23 -->
<g id="node23" class="node">
<title>Node23</title>
<g id="a_node23"><a xlink:href="TSID_2src_2SO3Task_8cpp.html" target="_top" xlink:title=" ">
<polygon fill="none" stroke="black" points="1893,-62 1893,-81 2014,-81 2014,-62 1893,-62"/>
<text text-anchor="middle" x="1953.5" y="-69" font-family="Helvetica,sans-Serif" font-size="10.00">TSID/src/SO3Task.cpp</text>
</a>
</g>
</g>
<!-- Node22&#45;&gt;Node23 -->
<g id="edge23" class="edge">
<title>Node22&#45;&gt;Node23</title>
<path fill="none" stroke="midnightblue" d="M1953.5,-113.25C1953.5,-102.02 1953.5,-89.38 1953.5,-81.19"/>
<polygon fill="midnightblue" stroke="midnightblue" points="1950,-113.4 1953.5,-123.4 1957,-113.4 1950,-113.4"/>
</g>
<!-- Node25 -->
<g id="node25" class="node">
<title>Node25</title>
<g id="a_node25"><a xlink:href="TaskSpaceInverseDynamics_8cpp.html" target="_top" xlink:title=" ">
<polygon fill="none" stroke="black" points="2080.5,-56.5 2080.5,-86.5 2226.5,-86.5 2226.5,-56.5 2080.5,-56.5"/>
<text text-anchor="start" x="2088.5" y="-74.5" font-family="Helvetica,sans-Serif" font-size="10.00">TSID/src/TaskSpaceInverse</text>
<text text-anchor="middle" x="2153.5" y="-63.5" font-family="Helvetica,sans-Serif" font-size="10.00">Dynamics.cpp</text>
</a>
</g>
</g>
<!-- Node24&#45;&gt;Node25 -->
<g id="edge25" class="edge">
<title>Node24&#45;&gt;Node25</title>
<path fill="none" stroke="midnightblue" d="M2153.5,-113.11C2153.5,-104.15 2153.5,-94.32 2153.5,-86.58"/>
<polygon fill="midnightblue" stroke="midnightblue" points="2150,-113.4 2153.5,-123.4 2157,-113.4 2150,-113.4"/>
</g>
</g>
</svg>
