<?xml version="1.0" encoding="UTF-8" standalone="no"?>
<!DOCTYPE svg PUBLIC "-//W3C//DTD SVG 1.1//EN"
 "http://www.w3.org/Graphics/SVG/1.1/DTD/svg11.dtd">
<!-- Generated by graphviz version 2.43.0 (0)
 -->
<!-- Title: TextLogging/src/Logger.cpp Pages: 1 -->
<svg width="327pt" height="151pt"
 viewBox="0.00 0.00 327.00 151.00" xmlns="http://www.w3.org/2000/svg" xmlns:xlink="http://www.w3.org/1999/xlink">
<g id="graph0" class="graph" transform="scale(1 1) rotate(0) translate(4 147)">
<title>TextLogging/src/Logger.cpp</title>
<!-- Node1 -->
<g id="node1" class="node">
<title>Node1</title>
<g id="a_node1"><a xlink:title=" ">
<polygon fill="#bfbfbf" stroke="black" points="61.5,-123.5 61.5,-142.5 209.5,-142.5 209.5,-123.5 61.5,-123.5"/>
<text text-anchor="middle" x="135.5" y="-130.5" font-family="Helvetica,sans-Serif" font-size="10.00">TextLogging/src/Logger.cpp</text>
</a>
</g>
</g>
<!-- Node2 -->
<g id="node2" class="node">
<title>Node2</title>
<g id="a_node2"><a xlink:title=" ">
<polygon fill="none" stroke="#bfbfbf" points="0,-56.5 0,-86.5 111,-86.5 111,-56.5 0,-56.5"/>
<text text-anchor="start" x="8" y="-74.5" font-family="Helvetica,sans-Serif" font-size="10.00">spdlog/sinks/stdout</text>
<text text-anchor="middle" x="55.5" y="-63.5" font-family="Helvetica,sans-Serif" font-size="10.00">_color_sinks.h</text>
</a>
</g>
</g>
<!-- Node1&#45;&gt;Node2 -->
<g id="edge1" class="edge">
<title>Node1&#45;&gt;Node2</title>
<path fill="none" stroke="midnightblue" d="M124.04,-123.48C113.3,-115.49 96.85,-103.25 82.75,-92.77"/>
<polygon fill="midnightblue" stroke="midnightblue" points="84.47,-89.68 74.35,-86.52 80.29,-95.3 84.47,-89.68"/>
</g>
<!-- Node3 -->
<g id="node3" class="node">
<title>Node3</title>
<g id="a_node3"><a xlink:href="Logger_8h.html" target="_top" xlink:title=" ">
<polygon fill="none" stroke="black" points="129.5,-56.5 129.5,-86.5 301.5,-86.5 301.5,-56.5 129.5,-56.5"/>
<text text-anchor="start" x="137.5" y="-74.5" font-family="Helvetica,sans-Serif" font-size="10.00">BipedalLocomotion/TextLogging</text>
<text text-anchor="middle" x="215.5" y="-63.5" font-family="Helvetica,sans-Serif" font-size="10.00">/Logger.h</text>
</a>
</g>
</g>
<!-- Node1&#45;&gt;Node3 -->
<g id="edge2" class="edge">
<title>Node1&#45;&gt;Node3</title>
<path fill="none" stroke="midnightblue" d="M146.96,-123.48C157.7,-115.49 174.15,-103.25 188.25,-92.77"/>
<polygon fill="midnightblue" stroke="midnightblue" points="190.71,-95.3 196.65,-86.52 186.53,-89.68 190.71,-95.3"/>
</g>
<!-- Node4 -->
<g id="node4" class="node">
<title>Node4</title>
<g id="a_node4"><a xlink:title=" ">
<polygon fill="none" stroke="#bfbfbf" points="109,-0.5 109,-19.5 208,-19.5 208,-0.5 109,-0.5"/>
<text text-anchor="middle" x="158.5" y="-7.5" font-family="Helvetica,sans-Serif" font-size="10.00">spdlog/fmt/ostr.h</text>
</a>
</g>
</g>
<!-- Node3&#45;&gt;Node4 -->
<g id="edge3" class="edge">
<title>Node3&#45;&gt;Node4</title>
<path fill="none" stroke="midnightblue" d="M201.99,-56.4C193.54,-47.58 182.62,-36.18 173.84,-27.02"/>
<polygon fill="midnightblue" stroke="midnightblue" points="176.24,-24.46 166.79,-19.66 171.18,-29.3 176.24,-24.46"/>
</g>
<!-- Node5 -->
<g id="node5" class="node">
<title>Node5</title>
<g id="a_node5"><a xlink:title=" ">
<polygon fill="none" stroke="#bfbfbf" points="226,-0.5 226,-19.5 319,-19.5 319,-0.5 226,-0.5"/>
<text text-anchor="middle" x="272.5" y="-7.5" font-family="Helvetica,sans-Serif" font-size="10.00">spdlog/spdlog.h</text>
</a>
</g>
</g>
<!-- Node3&#45;&gt;Node5 -->
<g id="edge4" class="edge">
<title>Node3&#45;&gt;Node5</title>
<path fill="none" stroke="midnightblue" d="M229.01,-56.4C237.46,-47.58 248.38,-36.18 257.16,-27.02"/>
<polygon fill="midnightblue" stroke="midnightblue" points="259.82,-29.3 264.21,-19.66 254.76,-24.46 259.82,-29.3"/>
</g>
</g>
</svg>
