<?xml version="1.0" encoding="UTF-8" standalone="no"?>
<!DOCTYPE svg PUBLIC "-//W3C//DTD SVG 1.1//EN"
 "http://www.w3.org/Graphics/SVG/1.1/DTD/svg11.dtd">
<!-- Generated by graphviz version 2.43.0 (0)
 -->
<!-- Title: TextLogging/include/BipedalLocomotion/TextLogging/Logger.h Pages: 1 -->
<!--zoomable 462 -->
<svg id="main" version="1.1" xmlns="http://www.w3.org/2000/svg" xmlns:xlink="http://www.w3.org/1999/xlink" xml:space="preserve" onload="init(evt)">
<style type="text/css"><![CDATA[
.edge:hover path { stroke: red; }
.edge:hover polygon { stroke: red; fill: red; }
]]></style>
<script type="text/javascript"><![CDATA[
var edges = document.getElementsByTagName('g');
if (edges && edges.length) {
  for (var i=0;i<edges.length;i++) {
    if (edges[i].id.substr(0,4)=='edge') {
      edges[i].setAttribute('class','edge');
    }
  }
}
]]></script>
        <defs>
                <circle id="rim" cx="0" cy="0" r="7"/>
                <circle id="rim2" cx="0" cy="0" r="3.5"/>
                <g id="zoomPlus">
                        <use xlink:href="#rim" fill="#404040">
                                <set attributeName="fill" to="#808080" begin="zoomplus.mouseover" end="zoomplus.mouseout"/>
                        </use>
                        <path d="M-4,0h8M0,-4v8" fill="none" stroke="white" stroke-width="1.5" pointer-events="none"/>
                </g>
                <g id="zoomMin">
                        <use xlink:href="#rim" fill="#404040">
                                <set attributeName="fill" to="#808080" begin="zoomminus.mouseover" end="zoomminus.mouseout"/>
                        </use>
                        <path d="M-4,0h8" fill="none" stroke="white" stroke-width="1.5" pointer-events="none"/>
                </g>
                <g id="dirArrow">
                        <path fill="none" stroke="white" stroke-width="1.5" d="M0,-3.0v7 M-2.5,-0.5L0,-3.0L2.5,-0.5"/>
                </g>
               <g id="resetDef">
                       <use xlink:href="#rim2" fill="#404040">
                               <set attributeName="fill" to="#808080" begin="reset.mouseover" end="reset.mouseout"/>
                       </use>
               </g>
        </defs>

<script type="text/javascript">
var viewWidth = 6550;
var viewHeight = 462;
var sectionId = 'dynsection-1';
</script>
<script xlink:href="svgpan.js"/>
<svg id="graph" class="graph">
<g id="viewport">
<title>TextLogging/include/BipedalLocomotion/TextLogging/Logger.h</title>
<!-- Node1 -->
<g id="node1" class="node">
<title>Node1</title>
<g id="a_node1"><a xlink:title=" ">
<polygon fill="#bfbfbf" stroke="black" points="3142,-412.5 3142,-453.5 3317,-453.5 3317,-412.5 3142,-412.5"/>
<text text-anchor="start" x="3150" y="-441.5" font-family="Helvetica,sans-Serif" font-size="10.00">TextLogging/include</text>
<text text-anchor="start" x="3150" y="-430.5" font-family="Helvetica,sans-Serif" font-size="10.00">/BipedalLocomotion/TextLogging</text>
<text text-anchor="middle" x="3229.5" y="-419.5" font-family="Helvetica,sans-Serif" font-size="10.00">/Logger.h</text>
</a>
</g>
</g>
<!-- Node2 -->
<g id="node2" class="node">
<title>Node2</title>
<g id="a_node2"><a xlink:href="ContactDetector_8cpp.html" target="_top" xlink:title=" ">
<polygon fill="none" stroke="black" points="0,-340 0,-359 179,-359 179,-340 0,-340"/>
<text text-anchor="middle" x="89.5" y="-347" font-family="Helvetica,sans-Serif" font-size="10.00">Contacts/src/ContactDetector.cpp</text>
</a>
</g>
</g>
<!-- Node1&#45;&gt;Node2 -->
<g id="edge1" class="edge">
<title>Node1&#45;&gt;Node2</title>
<path fill="none" stroke="midnightblue" d="M3131.51,-431.57C2643.19,-429.25 484.24,-416.75 187.5,-376 162.59,-372.58 134.93,-365.02 115.37,-359.02"/>
<polygon fill="midnightblue" stroke="midnightblue" points="3131.68,-435.07 3141.7,-431.62 3131.71,-428.07 3131.68,-435.07"/>
</g>
<!-- Node3 -->
<g id="node3" class="node">
<title>Node3</title>
<g id="a_node3"><a xlink:href="ContactList_8cpp.html" target="_top" xlink:title=" ">
<polygon fill="none" stroke="black" points="197,-340 197,-359 352,-359 352,-340 197,-340"/>
<text text-anchor="middle" x="274.5" y="-347" font-family="Helvetica,sans-Serif" font-size="10.00">Contacts/src/ContactList.cpp</text>
</a>
</g>
</g>
<!-- Node1&#45;&gt;Node3 -->
<g id="edge2" class="edge">
<title>Node1&#45;&gt;Node3</title>
<path fill="none" stroke="midnightblue" d="M3131.77,-431.63C2661.13,-429.65 639.57,-418.69 361.5,-376 339.25,-372.58 314.71,-365.03 297.38,-359.02"/>
<polygon fill="midnightblue" stroke="midnightblue" points="3131.92,-435.13 3141.93,-431.67 3131.95,-428.13 3131.92,-435.13"/>
</g>
<!-- Node4 -->
<g id="node4" class="node">
<title>Node4</title>
<g id="a_node4"><a xlink:href="ContactPhaseList_8cpp_source.html" target="_top" xlink:title=" ">
<polygon fill="none" stroke="black" points="370.5,-334.5 370.5,-364.5 516.5,-364.5 516.5,-334.5 370.5,-334.5"/>
<text text-anchor="start" x="378.5" y="-352.5" font-family="Helvetica,sans-Serif" font-size="10.00">Contacts/src/ContactPhase</text>
<text text-anchor="middle" x="443.5" y="-341.5" font-family="Helvetica,sans-Serif" font-size="10.00">List.cpp</text>
</a>
</g>
</g>
<!-- Node1&#45;&gt;Node4 -->
<g id="edge3" class="edge">
<title>Node1&#45;&gt;Node4</title>
<path fill="none" stroke="midnightblue" d="M3131.82,-431.6C2677.98,-429.52 786.24,-418.37 525.5,-376 510.64,-373.58 494.74,-369.11 480.93,-364.57"/>
<polygon fill="midnightblue" stroke="midnightblue" points="3131.94,-435.1 3141.96,-431.65 3131.97,-428.1 3131.94,-435.1"/>
</g>
<!-- Node5 -->
<g id="node5" class="node">
<title>Node5</title>
<g id="a_node5"><a xlink:href="FixedFootDetector_8cpp.html" target="_top" xlink:title=" ">
<polygon fill="none" stroke="black" points="534.5,-340 534.5,-359 722.5,-359 722.5,-340 534.5,-340"/>
<text text-anchor="middle" x="628.5" y="-347" font-family="Helvetica,sans-Serif" font-size="10.00">Contacts/src/FixedFootDetector.cpp</text>
</a>
</g>
</g>
<!-- Node1&#45;&gt;Node5 -->
<g id="edge4" class="edge">
<title>Node1&#45;&gt;Node5</title>
<path fill="none" stroke="midnightblue" d="M3131.47,-431.01C2699.48,-426.49 976.57,-406.69 736.5,-376 709.36,-372.53 679.1,-365.06 657.53,-359.1"/>
<polygon fill="midnightblue" stroke="midnightblue" points="3131.7,-434.51 3141.74,-431.12 3131.77,-427.52 3131.7,-434.51"/>
</g>
<!-- Node6 -->
<g id="node6" class="node">
<title>Node6</title>
<g id="a_node6"><a xlink:href="FixedStepIntegrator_8h.html" target="_top" xlink:title=" ">
<polygon fill="none" stroke="black" points="723.5,-234.5 723.5,-286.5 887.5,-286.5 887.5,-234.5 723.5,-234.5"/>
<text text-anchor="start" x="731.5" y="-274.5" font-family="Helvetica,sans-Serif" font-size="10.00">ContinuousDynamicalSystem</text>
<text text-anchor="start" x="731.5" y="-263.5" font-family="Helvetica,sans-Serif" font-size="10.00">/include/BipedalLocomotion</text>
<text text-anchor="start" x="731.5" y="-252.5" font-family="Helvetica,sans-Serif" font-size="10.00">/ContinuousDynamicalSystem</text>
<text text-anchor="middle" x="805.5" y="-241.5" font-family="Helvetica,sans-Serif" font-size="10.00">/FixedStepIntegrator.h</text>
</a>
</g>
</g>
<!-- Node1&#45;&gt;Node6 -->
<g id="edge5" class="edge">
<title>Node1&#45;&gt;Node6</title>
<path fill="none" stroke="midnightblue" d="M3131.7,-431.62C2679.49,-429.66 811.49,-418.95 769.5,-376 745.9,-351.86 766.59,-312.42 784.96,-286.71"/>
<polygon fill="midnightblue" stroke="midnightblue" points="3131.78,-435.12 3141.79,-431.67 3131.81,-428.12 3131.78,-435.12"/>
</g>
<!-- Node8 -->
<g id="node8" class="node">
<title>Node8</title>
<g id="a_node8"><a xlink:href="Integrator_8h.html" target="_top" xlink:title=" ">
<polygon fill="none" stroke="black" points="778.5,-323.5 778.5,-375.5 942.5,-375.5 942.5,-323.5 778.5,-323.5"/>
<text text-anchor="start" x="786.5" y="-363.5" font-family="Helvetica,sans-Serif" font-size="10.00">ContinuousDynamicalSystem</text>
<text text-anchor="start" x="786.5" y="-352.5" font-family="Helvetica,sans-Serif" font-size="10.00">/include/BipedalLocomotion</text>
<text text-anchor="start" x="786.5" y="-341.5" font-family="Helvetica,sans-Serif" font-size="10.00">/ContinuousDynamicalSystem</text>
<text text-anchor="middle" x="860.5" y="-330.5" font-family="Helvetica,sans-Serif" font-size="10.00">/Integrator.h</text>
</a>
</g>
</g>
<!-- Node1&#45;&gt;Node8 -->
<g id="edge7" class="edge">
<title>Node1&#45;&gt;Node8</title>
<path fill="none" stroke="midnightblue" d="M3131.59,-431.03C2723.47,-426.78 1168.72,-408.58 951.5,-376 948.58,-375.56 945.62,-375.06 942.64,-374.5"/>
<polygon fill="midnightblue" stroke="midnightblue" points="3131.85,-434.53 3141.89,-431.13 3131.92,-427.53 3131.85,-434.53"/>
</g>
<!-- Node9 -->
<g id="node9" class="node">
<title>Node9</title>
<g id="a_node9"><a xlink:href="FixedBaseDynamics_8cpp_source.html" target="_top" xlink:title=" ">
<polygon fill="none" stroke="black" points="961,-334.5 961,-364.5 1122,-364.5 1122,-334.5 961,-334.5"/>
<text text-anchor="start" x="969" y="-352.5" font-family="Helvetica,sans-Serif" font-size="10.00">ContinuousDynamicalSystem</text>
<text text-anchor="middle" x="1041.5" y="-341.5" font-family="Helvetica,sans-Serif" font-size="10.00">/src/FixedBaseDynamics.cpp</text>
</a>
</g>
</g>
<!-- Node1&#45;&gt;Node9 -->
<g id="edge9" class="edge">
<title>Node1&#45;&gt;Node9</title>
<path fill="none" stroke="midnightblue" d="M3131.67,-430.82C2744.41,-425.97 1330.16,-406.31 1131.5,-376 1115.29,-373.53 1097.86,-369.04 1082.69,-364.5"/>
<polygon fill="midnightblue" stroke="midnightblue" points="3131.69,-434.32 3141.73,-430.95 3131.77,-427.32 3131.69,-434.32"/>
</g>
<!-- Node10 -->
<g id="node10" class="node">
<title>Node10</title>
<g id="a_node10"><a xlink:href="FloatingBaseDynamicsWithCompliantContacts_8cpp.html" target="_top" xlink:title=" ">
<polygon fill="none" stroke="black" points="1140.5,-329 1140.5,-370 1362.5,-370 1362.5,-329 1140.5,-329"/>
<text text-anchor="start" x="1148.5" y="-358" font-family="Helvetica,sans-Serif" font-size="10.00">ContinuousDynamicalSystem</text>
<text text-anchor="start" x="1148.5" y="-347" font-family="Helvetica,sans-Serif" font-size="10.00">/src/FloatingBaseDynamicsWithCompliant</text>
<text text-anchor="middle" x="1251.5" y="-336" font-family="Helvetica,sans-Serif" font-size="10.00">Contacts.cpp</text>
</a>
</g>
</g>
<!-- Node1&#45;&gt;Node10 -->
<g id="edge10" class="edge">
<title>Node1&#45;&gt;Node10</title>
<path fill="none" stroke="midnightblue" d="M3131.85,-431.37C2800.01,-428.86 1717.16,-417.59 1371.5,-376 1359.24,-374.52 1346.37,-372.41 1333.8,-370.02"/>
<polygon fill="midnightblue" stroke="midnightblue" points="3131.9,-434.87 3141.92,-431.44 3131.95,-427.87 3131.9,-434.87"/>
</g>
<!-- Node11 -->
<g id="node11" class="node">
<title>Node11</title>
<g id="a_node11"><a xlink:href="FloatingBaseSystemKinematics_8cpp.html" target="_top" xlink:title=" ">
<polygon fill="none" stroke="black" points="1380.5,-334.5 1380.5,-364.5 1592.5,-364.5 1592.5,-334.5 1380.5,-334.5"/>
<text text-anchor="start" x="1388.5" y="-352.5" font-family="Helvetica,sans-Serif" font-size="10.00">ContinuousDynamicalSystem</text>
<text text-anchor="middle" x="1486.5" y="-341.5" font-family="Helvetica,sans-Serif" font-size="10.00">/src/FloatingBaseSystemKinematics.cpp</text>
</a>
</g>
</g>
<!-- Node1&#45;&gt;Node11 -->
<g id="edge11" class="edge">
<title>Node1&#45;&gt;Node11</title>
<path fill="none" stroke="midnightblue" d="M3131.71,-430.99C2827.44,-427.49 1900.05,-413.91 1601.5,-376 1581.31,-373.44 1559.45,-369.01 1540.26,-364.56"/>
<polygon fill="midnightblue" stroke="midnightblue" points="3131.79,-434.49 3141.83,-431.11 3131.87,-427.5 3131.79,-434.49"/>
</g>
<!-- Node12 -->
<g id="node12" class="node">
<title>Node12</title>
<g id="a_node12"><a xlink:href="LinearTimeInvariantSystem_8cpp.html" target="_top" xlink:title=" ">
<polygon fill="none" stroke="black" points="1610.5,-334.5 1610.5,-364.5 1802.5,-364.5 1802.5,-334.5 1610.5,-334.5"/>
<text text-anchor="start" x="1618.5" y="-352.5" font-family="Helvetica,sans-Serif" font-size="10.00">ContinuousDynamicalSystem</text>
<text text-anchor="middle" x="1706.5" y="-341.5" font-family="Helvetica,sans-Serif" font-size="10.00">/src/LinearTimeInvariantSystem.cpp</text>
</a>
</g>
</g>
<!-- Node1&#45;&gt;Node12 -->
<g id="edge12" class="edge">
<title>Node1&#45;&gt;Node12</title>
<path fill="none" stroke="midnightblue" d="M3131.58,-430.67C2854.27,-426.49 2067.13,-411.73 1811.5,-376 1793.01,-373.42 1773.04,-368.99 1755.52,-364.54"/>
<polygon fill="midnightblue" stroke="midnightblue" points="3131.58,-434.17 3141.63,-430.82 3131.68,-427.17 3131.58,-434.17"/>
</g>
<!-- Node13 -->
<g id="node13" class="node">
<title>Node13</title>
<g id="a_node13"><a xlink:href="FloatingBaseEstimator_8cpp.html" target="_top" xlink:title=" ">
<polygon fill="none" stroke="black" points="1821,-334.5 1821,-364.5 1974,-364.5 1974,-334.5 1821,-334.5"/>
<text text-anchor="start" x="1829" y="-352.5" font-family="Helvetica,sans-Serif" font-size="10.00">Estimators/src/FloatingBase</text>
<text text-anchor="middle" x="1897.5" y="-341.5" font-family="Helvetica,sans-Serif" font-size="10.00">Estimator.cpp</text>
</a>
</g>
</g>
<!-- Node1&#45;&gt;Node13 -->
<g id="edge13" class="edge">
<title>Node1&#45;&gt;Node13</title>
<path fill="none" stroke="midnightblue" d="M3131.63,-430.67C2877.97,-426.74 2203.73,-413.03 1983.5,-376 1968.3,-373.44 1951.99,-369.05 1937.71,-364.62"/>
<polygon fill="midnightblue" stroke="midnightblue" points="3131.88,-434.18 3141.93,-430.83 3131.99,-427.18 3131.88,-434.18"/>
</g>
<!-- Node14 -->
<g id="node14" class="node">
<title>Node14</title>
<g id="a_node14"><a xlink:href="CoMTask_8cpp.html" target="_top" xlink:title=" ">
<polygon fill="none" stroke="black" points="1992.5,-340 1992.5,-359 2102.5,-359 2102.5,-340 1992.5,-340"/>
<text text-anchor="middle" x="2047.5" y="-347" font-family="Helvetica,sans-Serif" font-size="10.00">IK/src/CoMTask.cpp</text>
</a>
</g>
</g>
<!-- Node1&#45;&gt;Node14 -->
<g id="edge14" class="edge">
<title>Node1&#45;&gt;Node14</title>
<path fill="none" stroke="midnightblue" d="M3131.59,-431.21C2896.35,-428.64 2304.56,-418.08 2111.5,-376 2094.91,-372.38 2077.03,-364.93 2064.4,-359.01"/>
<polygon fill="midnightblue" stroke="midnightblue" points="3131.81,-434.71 3141.84,-431.32 3131.88,-427.71 3131.81,-434.71"/>
</g>
<!-- Node15 -->
<g id="node15" class="node">
<title>Node15</title>
<g id="a_node15"><a xlink:href="IK_2src_2JointTrackingTask_8cpp.html" target="_top" xlink:title=" ">
<polygon fill="none" stroke="black" points="2121,-340 2121,-359 2272,-359 2272,-340 2121,-340"/>
<text text-anchor="middle" x="2196.5" y="-347" font-family="Helvetica,sans-Serif" font-size="10.00">IK/src/JointTrackingTask.cpp</text>
</a>
</g>
</g>
<!-- Node1&#45;&gt;Node15 -->
<g id="edge15" class="edge">
<title>Node1&#45;&gt;Node15</title>
<path fill="none" stroke="midnightblue" d="M3131.78,-429.15C2923.5,-422.61 2441.75,-404.82 2280.5,-376 2259.35,-372.22 2236.01,-364.87 2219.32,-359.03"/>
<polygon fill="midnightblue" stroke="midnightblue" points="3131.69,-432.65 3141.79,-429.47 3131.9,-425.66 3131.69,-432.65"/>
</g>
<!-- Node16 -->
<g id="node16" class="node">
<title>Node16</title>
<g id="a_node16"><a xlink:href="QPInverseKinematics_8cpp.html" target="_top" xlink:title=" ">
<polygon fill="none" stroke="black" points="2290,-340 2290,-359 2461,-359 2461,-340 2290,-340"/>
<text text-anchor="middle" x="2375.5" y="-347" font-family="Helvetica,sans-Serif" font-size="10.00">IK/src/QPInverseKinematics.cpp</text>
</a>
</g>
</g>
<!-- Node1&#45;&gt;Node16 -->
<g id="edge16" class="edge">
<title>Node1&#45;&gt;Node16</title>
<path fill="none" stroke="midnightblue" d="M3131.7,-430.76C2986.3,-427.57 2704.95,-416.23 2469.5,-376 2446.17,-372.01 2420.24,-364.76 2401.54,-359.01"/>
<polygon fill="midnightblue" stroke="midnightblue" points="3131.86,-434.26 3141.94,-430.97 3132.01,-427.26 3131.86,-434.26"/>
</g>
<!-- Node17 -->
<g id="node17" class="node">
<title>Node17</title>
<g id="a_node17"><a xlink:href="IK_2src_2SE3Task_8cpp.html" target="_top" xlink:title=" ">
<polygon fill="none" stroke="black" points="2479,-340 2479,-359 2586,-359 2586,-340 2479,-340"/>
<text text-anchor="middle" x="2532.5" y="-347" font-family="Helvetica,sans-Serif" font-size="10.00">IK/src/SE3Task.cpp</text>
</a>
</g>
</g>
<!-- Node1&#45;&gt;Node17 -->
<g id="edge17" class="edge">
<title>Node1&#45;&gt;Node17</title>
<path fill="none" stroke="midnightblue" d="M3131.41,-432.27C3005.57,-430.6 2781.36,-420.76 2595.5,-376 2579.44,-372.13 2562.1,-364.87 2549.69,-359.08"/>
<polygon fill="midnightblue" stroke="midnightblue" points="3131.75,-435.78 3141.79,-432.4 3131.83,-428.78 3131.75,-435.78"/>
</g>
<!-- Node18 -->
<g id="node18" class="node">
<title>Node18</title>
<g id="a_node18"><a xlink:href="IK_2src_2SO3Task_8cpp.html" target="_top" xlink:title=" ">
<polygon fill="none" stroke="black" points="2604.5,-340 2604.5,-359 2712.5,-359 2712.5,-340 2604.5,-340"/>
<text text-anchor="middle" x="2658.5" y="-347" font-family="Helvetica,sans-Serif" font-size="10.00">IK/src/SO3Task.cpp</text>
</a>
</g>
</g>
<!-- Node1&#45;&gt;Node18 -->
<g id="edge18" class="edge">
<title>Node1&#45;&gt;Node18</title>
<path fill="none" stroke="midnightblue" d="M3131.82,-429.17C3028.48,-424.35 2861.38,-411.3 2721.5,-376 2705.6,-371.99 2688.39,-364.81 2675.98,-359.1"/>
<polygon fill="midnightblue" stroke="midnightblue" points="3131.78,-432.67 3141.92,-429.63 3132.09,-425.68 3131.78,-432.67"/>
</g>
<!-- Node19 -->
<g id="node19" class="node">
<title>Node19</title>
<g id="a_node19"><a xlink:href="LinearizedFrictionCone_8cpp.html" target="_top" xlink:title=" ">
<polygon fill="none" stroke="black" points="2730.5,-334.5 2730.5,-364.5 2878.5,-364.5 2878.5,-334.5 2730.5,-334.5"/>
<text text-anchor="start" x="2738.5" y="-352.5" font-family="Helvetica,sans-Serif" font-size="10.00">Math/src/LinearizedFriction</text>
<text text-anchor="middle" x="2804.5" y="-341.5" font-family="Helvetica,sans-Serif" font-size="10.00">Cone.cpp</text>
</a>
</g>
</g>
<!-- Node1&#45;&gt;Node19 -->
<g id="edge19" class="edge">
<title>Node1&#45;&gt;Node19</title>
<path fill="none" stroke="midnightblue" d="M3131.74,-419.59C3062.96,-409.98 2969.02,-395.1 2887.5,-376 2874,-372.84 2859.48,-368.65 2846.42,-364.59"/>
<polygon fill="midnightblue" stroke="midnightblue" points="3131.32,-423.06 3141.7,-420.97 3132.28,-416.13 3131.32,-423.06"/>
</g>
<!-- Node20 -->
<g id="node20" class="node">
<title>Node20</title>
<g id="a_node20"><a xlink:href="StdImplementation_8tpp.html" target="_top" xlink:title=" ">
<polygon fill="none" stroke="black" points="2896.5,-329 2896.5,-370 3106.5,-370 3106.5,-329 2896.5,-329"/>
<text text-anchor="start" x="2904.5" y="-358" font-family="Helvetica,sans-Serif" font-size="10.00">ParametersHandler/include</text>
<text text-anchor="start" x="2904.5" y="-347" font-family="Helvetica,sans-Serif" font-size="10.00">/BipedalLocomotion/ParametersHandler</text>
<text text-anchor="middle" x="3001.5" y="-336" font-family="Helvetica,sans-Serif" font-size="10.00">/StdImplementation.tpp</text>
</a>
</g>
</g>
<!-- Node1&#45;&gt;Node20 -->
<g id="edge20" class="edge">
<title>Node1&#45;&gt;Node20</title>
<path fill="none" stroke="midnightblue" d="M3165.39,-409.08C3130.94,-396.77 3088.93,-381.75 3056.06,-370"/>
<polygon fill="midnightblue" stroke="midnightblue" points="3164.29,-412.41 3174.89,-412.48 3166.65,-405.82 3164.29,-412.41"/>
</g>
<!-- Node22 -->
<g id="node22" class="node">
<title>Node22</title>
<g id="a_node22"><a xlink:href="StdImplementation_8cpp.html" target="_top" xlink:title=" ">
<polygon fill="none" stroke="black" points="2972.5,-156.5 2972.5,-186.5 3106.5,-186.5 3106.5,-156.5 2972.5,-156.5"/>
<text text-anchor="start" x="2980.5" y="-174.5" font-family="Helvetica,sans-Serif" font-size="10.00">ParametersHandler/src</text>
<text text-anchor="middle" x="3039.5" y="-163.5" font-family="Helvetica,sans-Serif" font-size="10.00">/StdImplementation.cpp</text>
</a>
</g>
</g>
<!-- Node1&#45;&gt;Node22 -->
<g id="edge24" class="edge">
<title>Node1&#45;&gt;Node22</title>
<path fill="none" stroke="midnightblue" d="M3188.12,-406.18C3177.22,-397.7 3166.32,-387.47 3158.5,-376 3121.35,-321.52 3152.31,-288.71 3115.5,-234 3102.14,-214.14 3080.44,-197.5 3063.64,-186.56"/>
<polygon fill="midnightblue" stroke="midnightblue" points="3186.3,-409.18 3196.42,-412.31 3190.46,-403.55 3186.3,-409.18"/>
</g>
<!-- Node23 -->
<g id="node23" class="node">
<title>Node23</title>
<g id="a_node23"><a xlink:href="YarpImplementation_8cpp.html" target="_top" xlink:title=" ">
<polygon fill="none" stroke="black" points="3142.5,-0.5 3142.5,-30.5 3354.5,-30.5 3354.5,-0.5 3142.5,-0.5"/>
<text text-anchor="start" x="3150.5" y="-18.5" font-family="Helvetica,sans-Serif" font-size="10.00">ParametersHandler/YarpImplementation</text>
<text text-anchor="middle" x="3248.5" y="-7.5" font-family="Helvetica,sans-Serif" font-size="10.00">/src/YarpImplementation.cpp</text>
</a>
</g>
</g>
<!-- Node1&#45;&gt;Node23 -->
<g id="edge25" class="edge">
<title>Node1&#45;&gt;Node23</title>
<path fill="none" stroke="midnightblue" d="M3207.24,-404.28C3201.29,-395.66 3195.43,-385.82 3191.5,-376 3172.35,-328.1 3172.5,-313.08 3172.5,-261.5 3172.5,-261.5 3172.5,-261.5 3172.5,-170.5 3172.5,-113.85 3214.36,-56.46 3235.95,-30.63"/>
<polygon fill="midnightblue" stroke="midnightblue" points="3204.46,-406.41 3213.15,-412.46 3210.13,-402.31 3204.46,-406.41"/>
</g>
<!-- Node24 -->
<g id="node24" class="node">
<title>Node24</title>
<g id="a_node24"><a xlink:href="PointCloudProcessor_8h_source.html" target="_top" xlink:title=" ">
<polygon fill="none" stroke="black" points="3201,-329 3201,-370 3374,-370 3374,-329 3201,-329"/>
<text text-anchor="start" x="3209" y="-358" font-family="Helvetica,sans-Serif" font-size="10.00">Perception/include</text>
<text text-anchor="start" x="3209" y="-347" font-family="Helvetica,sans-Serif" font-size="10.00">/BipedalLocomotion/Perception</text>
<text text-anchor="middle" x="3287.5" y="-336" font-family="Helvetica,sans-Serif" font-size="10.00">/Features/PointCloudProcessor.h</text>
</a>
</g>
</g>
<!-- Node1&#45;&gt;Node24 -->
<g id="edge26" class="edge">
<title>Node1&#45;&gt;Node24</title>
<path fill="none" stroke="midnightblue" d="M3249.39,-404.05C3257.35,-392.86 3266.34,-380.23 3273.59,-370.05"/>
<polygon fill="midnightblue" stroke="midnightblue" points="3246.49,-402.09 3243.54,-412.27 3252.19,-406.15 3246.49,-402.09"/>
</g>
<!-- Node25 -->
<g id="node25" class="node">
<title>Node25</title>
<g id="a_node25"><a xlink:href="ArucoDetector_8cpp.html" target="_top" xlink:title=" ">
<polygon fill="none" stroke="black" points="3392.5,-340 3392.5,-359 3570.5,-359 3570.5,-340 3392.5,-340"/>
<text text-anchor="middle" x="3481.5" y="-347" font-family="Helvetica,sans-Serif" font-size="10.00">Perception/src/ArucoDetector.cpp</text>
</a>
</g>
</g>
<!-- Node1&#45;&gt;Node25 -->
<g id="edge27" class="edge">
<title>Node1&#45;&gt;Node25</title>
<path fill="none" stroke="midnightblue" d="M3299.63,-409.32C3351.22,-392.63 3418.49,-370.88 3455.04,-359.06"/>
<polygon fill="midnightblue" stroke="midnightblue" points="3298.3,-406.07 3289.86,-412.48 3300.45,-412.73 3298.3,-406.07"/>
</g>
<!-- Node26 -->
<g id="node26" class="node">
<title>Node26</title>
<g id="a_node26"><a xlink:href="RealSense_8cpp_source.html" target="_top" xlink:title=" ">
<polygon fill="none" stroke="black" points="3588.5,-340 3588.5,-359 3748.5,-359 3748.5,-340 3588.5,-340"/>
<text text-anchor="middle" x="3668.5" y="-347" font-family="Helvetica,sans-Serif" font-size="10.00">Perception/src/RealSense.cpp</text>
</a>
</g>
</g>
<!-- Node1&#45;&gt;Node26 -->
<g id="edge28" class="edge">
<title>Node1&#45;&gt;Node26</title>
<path fill="none" stroke="midnightblue" d="M3327.28,-419.57C3397.8,-409.82 3495.05,-394.78 3579.5,-376 3600.68,-371.29 3624.27,-364.46 3641.84,-359.05"/>
<polygon fill="midnightblue" stroke="midnightblue" points="3326.5,-416.14 3317.07,-420.97 3327.46,-423.08 3326.5,-416.14"/>
</g>
<!-- Node27 -->
<g id="node27" class="node">
<title>Node27</title>
<g id="a_node27"><a xlink:href="TimeVaryingDCMPlanner_8cpp.html" target="_top" xlink:title=" ">
<polygon fill="none" stroke="black" points="3766.5,-334.5 3766.5,-364.5 3906.5,-364.5 3906.5,-334.5 3766.5,-334.5"/>
<text text-anchor="start" x="3774.5" y="-352.5" font-family="Helvetica,sans-Serif" font-size="10.00">Planners/src/TimeVarying</text>
<text text-anchor="middle" x="3836.5" y="-341.5" font-family="Helvetica,sans-Serif" font-size="10.00">DCMPlanner.cpp</text>
</a>
</g>
</g>
<!-- Node1&#45;&gt;Node27 -->
<g id="edge29" class="edge">
<title>Node1&#45;&gt;Node27</title>
<path fill="none" stroke="midnightblue" d="M3327.37,-427.67C3434.08,-421.56 3609.43,-407.4 3757.5,-376 3771.03,-373.13 3785.53,-368.83 3798.36,-364.57"/>
<polygon fill="midnightblue" stroke="midnightblue" points="3327.04,-424.19 3317.26,-428.24 3327.44,-431.18 3327.04,-424.19"/>
</g>
<!-- Node28 -->
<g id="node28" class="node">
<title>Node28</title>
<g id="a_node28"><a xlink:href="YarpSensorBridgeImpl_8h.html" target="_top" xlink:title=" ">
<polygon fill="none" stroke="black" points="3924.5,-329 3924.5,-370 4134.5,-370 4134.5,-329 3924.5,-329"/>
<text text-anchor="start" x="3932.5" y="-358" font-family="Helvetica,sans-Serif" font-size="10.00">RobotInterface/YarpImplementation</text>
<text text-anchor="start" x="3932.5" y="-347" font-family="Helvetica,sans-Serif" font-size="10.00">/include/BipedalLocomotion</text>
<text text-anchor="middle" x="4029.5" y="-336" font-family="Helvetica,sans-Serif" font-size="10.00">/RobotInterface/YarpSensorBridgeImpl.h</text>
</a>
</g>
</g>
<!-- Node1&#45;&gt;Node28 -->
<g id="edge30" class="edge">
<title>Node1&#45;&gt;Node28</title>
<path fill="none" stroke="midnightblue" d="M3327.33,-428.28C3460.86,-422.24 3707.39,-407.61 3915.5,-376 3926.33,-374.36 3937.66,-372.27 3948.8,-370"/>
<polygon fill="midnightblue" stroke="midnightblue" points="3326.96,-424.79 3317.12,-428.74 3327.27,-431.79 3326.96,-424.79"/>
</g>
<!-- Node29 -->
<g id="node29" class="node">
<title>Node29</title>
<g id="a_node29"><a xlink:href="YarpSensorBridge_8cpp.html" target="_top" xlink:title=" ">
<polygon fill="none" stroke="black" points="4000.5,-245.5 4000.5,-275.5 4190.5,-275.5 4190.5,-245.5 4000.5,-245.5"/>
<text text-anchor="start" x="4008.5" y="-263.5" font-family="Helvetica,sans-Serif" font-size="10.00">RobotInterface/YarpImplementation</text>
<text text-anchor="middle" x="4095.5" y="-252.5" font-family="Helvetica,sans-Serif" font-size="10.00">/src/YarpSensorBridge.cpp</text>
</a>
</g>
</g>
<!-- Node1&#45;&gt;Node29 -->
<g id="edge34" class="edge">
<title>Node1&#45;&gt;Node29</title>
<path fill="none" stroke="midnightblue" d="M3327.31,-429.57C3557.43,-423.38 4115.86,-405.38 4143.5,-376 4171.12,-346.64 4132.77,-299.08 4110.1,-275.57"/>
<polygon fill="midnightblue" stroke="midnightblue" points="3327.17,-426.07 3317.27,-429.84 3327.36,-433.07 3327.17,-426.07"/>
</g>
<!-- Node30 -->
<g id="node30" class="node">
<title>Node30</title>
<g id="a_node30"><a xlink:href="YarpCameraBridge_8cpp_source.html" target="_top" xlink:title=" ">
<polygon fill="none" stroke="black" points="4190.5,-334.5 4190.5,-364.5 4380.5,-364.5 4380.5,-334.5 4190.5,-334.5"/>
<text text-anchor="start" x="4198.5" y="-352.5" font-family="Helvetica,sans-Serif" font-size="10.00">RobotInterface/YarpImplementation</text>
<text text-anchor="middle" x="4285.5" y="-341.5" font-family="Helvetica,sans-Serif" font-size="10.00">/src/YarpCameraBridge.cpp</text>
</a>
</g>
</g>
<!-- Node1&#45;&gt;Node30 -->
<g id="edge32" class="edge">
<title>Node1&#45;&gt;Node30</title>
<path fill="none" stroke="midnightblue" d="M3327.22,-431.7C3499.63,-429.96 3868.69,-420.77 4176.5,-376 4195.35,-373.26 4215.74,-368.88 4233.73,-364.52"/>
<polygon fill="midnightblue" stroke="midnightblue" points="3327.12,-428.2 3317.16,-431.8 3327.19,-435.2 3327.12,-428.2"/>
</g>
<!-- Node31 -->
<g id="node31" class="node">
<title>Node31</title>
<g id="a_node31"><a xlink:href="YarpRobotControl_8cpp.html" target="_top" xlink:title=" ">
<polygon fill="none" stroke="black" points="4398.5,-334.5 4398.5,-364.5 4588.5,-364.5 4588.5,-334.5 4398.5,-334.5"/>
<text text-anchor="start" x="4406.5" y="-352.5" font-family="Helvetica,sans-Serif" font-size="10.00">RobotInterface/YarpImplementation</text>
<text text-anchor="middle" x="4493.5" y="-341.5" font-family="Helvetica,sans-Serif" font-size="10.00">/src/YarpRobotControl.cpp</text>
</a>
</g>
</g>
<!-- Node1&#45;&gt;Node31 -->
<g id="edge33" class="edge">
<title>Node1&#45;&gt;Node31</title>
<path fill="none" stroke="midnightblue" d="M3327.33,-429.7C3568.31,-423.63 4185.67,-405.63 4389.5,-376 4407.71,-373.35 4427.39,-368.94 4444.68,-364.52"/>
<polygon fill="midnightblue" stroke="midnightblue" points="3327.09,-426.2 3317.18,-429.95 3327.27,-433.2 3327.09,-426.2"/>
</g>
<!-- Node32 -->
<g id="node32" class="node">
<title>Node32</title>
<g id="a_node32"><a xlink:href="AdvanceableRunner_8h.html" target="_top" xlink:title=" ">
<polygon fill="none" stroke="black" points="4606.5,-334.5 4606.5,-364.5 4794.5,-364.5 4794.5,-334.5 4606.5,-334.5"/>
<text text-anchor="start" x="4614.5" y="-352.5" font-family="Helvetica,sans-Serif" font-size="10.00">System/include/BipedalLocomotion</text>
<text text-anchor="middle" x="4700.5" y="-341.5" font-family="Helvetica,sans-Serif" font-size="10.00">/System/AdvanceableRunner.h</text>
</a>
</g>
</g>
<!-- Node1&#45;&gt;Node32 -->
<g id="edge35" class="edge">
<title>Node1&#45;&gt;Node32</title>
<path fill="none" stroke="midnightblue" d="M3327.23,-430.56C3597.64,-426.17 4351.96,-411.05 4597.5,-376 4615.65,-373.41 4635.25,-368.98 4652.43,-364.53"/>
<polygon fill="midnightblue" stroke="midnightblue" points="3326.98,-427.06 3317.04,-430.72 3327.1,-434.06 3326.98,-427.06"/>
</g>
<!-- Node33 -->
<g id="node33" class="node">
<title>Node33</title>
<g id="a_node33"><a xlink:href="Clock_8cpp.html" target="_top" xlink:title=" ">
<polygon fill="none" stroke="black" points="4813,-340 4813,-359 4934,-359 4934,-340 4813,-340"/>
<text text-anchor="middle" x="4873.5" y="-347" font-family="Helvetica,sans-Serif" font-size="10.00">System/src/Clock.cpp</text>
</a>
</g>
</g>
<!-- Node1&#45;&gt;Node33 -->
<g id="edge36" class="edge">
<title>Node1&#45;&gt;Node33</title>
<path fill="none" stroke="midnightblue" d="M3327.59,-432.52C3625.87,-433.46 4518.94,-431.45 4803.5,-376 4821.53,-372.49 4841.09,-365.03 4854.94,-359.08"/>
<polygon fill="midnightblue" stroke="midnightblue" points="3327.25,-429.02 3317.24,-432.48 3327.22,-436.02 3327.25,-429.02"/>
</g>
<!-- Node34 -->
<g id="node34" class="node">
<title>Node34</title>
<g id="a_node34"><a xlink:href="QuitHandler_8cpp.html" target="_top" xlink:title=" ">
<polygon fill="none" stroke="black" points="4952.5,-340 4952.5,-359 5104.5,-359 5104.5,-340 4952.5,-340"/>
<text text-anchor="middle" x="5028.5" y="-347" font-family="Helvetica,sans-Serif" font-size="10.00">System/src/QuitHandler.cpp</text>
</a>
</g>
</g>
<!-- Node1&#45;&gt;Node34 -->
<g id="edge37" class="edge">
<title>Node1&#45;&gt;Node34</title>
<path fill="none" stroke="midnightblue" d="M3327.16,-432.12C3642.14,-432 4629.03,-427.41 4943.5,-376 4965.09,-372.47 4988.88,-365.01 5005.79,-359.07"/>
<polygon fill="midnightblue" stroke="midnightblue" points="3327.13,-428.62 3317.13,-432.13 3327.13,-435.62 3327.13,-428.62"/>
</g>
<!-- Node35 -->
<g id="node35" class="node">
<title>Node35</title>
<g id="a_node35"><a xlink:href="VariablesHandler_8cpp.html" target="_top" xlink:title=" ">
<polygon fill="none" stroke="black" points="5122.5,-340 5122.5,-359 5298.5,-359 5298.5,-340 5122.5,-340"/>
<text text-anchor="middle" x="5210.5" y="-347" font-family="Helvetica,sans-Serif" font-size="10.00">System/src/VariablesHandler.cpp</text>
</a>
</g>
</g>
<!-- Node1&#45;&gt;Node35 -->
<g id="edge38" class="edge">
<title>Node1&#45;&gt;Node35</title>
<path fill="none" stroke="midnightblue" d="M3327.44,-432.02C3662.82,-431.65 4763.7,-426.51 5113.5,-376 5137.97,-372.47 5165.14,-365.01 5184.48,-359.06"/>
<polygon fill="midnightblue" stroke="midnightblue" points="3327.26,-428.52 3317.26,-432.03 3327.27,-435.52 3327.26,-428.52"/>
</g>
<!-- Node36 -->
<g id="node36" class="node">
<title>Node36</title>
<g id="a_node36"><a xlink:href="Logger_8cpp.html" target="_top" xlink:title=" ">
<polygon fill="none" stroke="black" points="5316.5,-340 5316.5,-359 5464.5,-359 5464.5,-340 5316.5,-340"/>
<text text-anchor="middle" x="5390.5" y="-347" font-family="Helvetica,sans-Serif" font-size="10.00">TextLogging/src/Logger.cpp</text>
</a>
</g>
</g>
<!-- Node1&#45;&gt;Node36 -->
<g id="edge39" class="edge">
<title>Node1&#45;&gt;Node36</title>
<path fill="none" stroke="midnightblue" d="M3327.35,-430.92C3712.32,-426.46 5111.24,-408.18 5307.5,-376 5328.62,-372.54 5351.85,-365.07 5368.35,-359.11"/>
<polygon fill="midnightblue" stroke="midnightblue" points="3327.03,-427.42 3317.07,-431.04 3327.11,-434.42 3327.03,-427.42"/>
</g>
<!-- Node37 -->
<g id="node37" class="node">
<title>Node37</title>
<g id="a_node37"><a xlink:href="BaseDynamicsTask_8cpp.html" target="_top" xlink:title=" ">
<polygon fill="none" stroke="black" points="5482.5,-340 5482.5,-359 5656.5,-359 5656.5,-340 5482.5,-340"/>
<text text-anchor="middle" x="5569.5" y="-347" font-family="Helvetica,sans-Serif" font-size="10.00">TSID/src/BaseDynamicsTask.cpp</text>
</a>
</g>
</g>
<!-- Node1&#45;&gt;Node37 -->
<g id="edge40" class="edge">
<title>Node1&#45;&gt;Node37</title>
<path fill="none" stroke="midnightblue" d="M3327.29,-430.91C3731.34,-426.23 5259.56,-406.65 5473.5,-376 5497.74,-372.53 5524.63,-365.06 5543.76,-359.1"/>
<polygon fill="midnightblue" stroke="midnightblue" points="3327.05,-427.41 3317.09,-431.03 3327.13,-434.41 3327.05,-427.41"/>
</g>
<!-- Node38 -->
<g id="node38" class="node">
<title>Node38</title>
<g id="a_node38"><a xlink:href="JointDynamicsTask_8cpp.html" target="_top" xlink:title=" ">
<polygon fill="none" stroke="black" points="5674.5,-340 5674.5,-359 5846.5,-359 5846.5,-340 5674.5,-340"/>
<text text-anchor="middle" x="5760.5" y="-347" font-family="Helvetica,sans-Serif" font-size="10.00">TSID/src/JointDynamicsTask.cpp</text>
</a>
</g>
</g>
<!-- Node1&#45;&gt;Node38 -->
<g id="edge41" class="edge">
<title>Node1&#45;&gt;Node38</title>
<path fill="none" stroke="midnightblue" d="M3327.43,-431.13C3753.12,-427.17 5431.79,-409.56 5665.5,-376 5689.5,-372.55 5716.11,-365.08 5735.04,-359.12"/>
<polygon fill="midnightblue" stroke="midnightblue" points="3327.28,-427.63 3317.31,-431.23 3327.34,-434.63 3327.28,-427.63"/>
</g>
<!-- Node39 -->
<g id="node39" class="node">
<title>Node39</title>
<g id="a_node39"><a xlink:href="TSID_2src_2JointTrackingTask_8cpp.html" target="_top" xlink:title=" ">
<polygon fill="none" stroke="black" points="5864.5,-340 5864.5,-359 6028.5,-359 6028.5,-340 5864.5,-340"/>
<text text-anchor="middle" x="5946.5" y="-347" font-family="Helvetica,sans-Serif" font-size="10.00">TSID/src/JointTrackingTask.cpp</text>
</a>
</g>
</g>
<!-- Node1&#45;&gt;Node39 -->
<g id="edge42" class="edge">
<title>Node1&#45;&gt;Node39</title>
<path fill="none" stroke="midnightblue" d="M3327.6,-431.37C3773.97,-428.31 5602.36,-413.55 5855.5,-376 5878.71,-372.56 5904.38,-365 5922.53,-359.01"/>
<polygon fill="midnightblue" stroke="midnightblue" points="3327.29,-427.87 3317.31,-431.44 3327.34,-434.87 3327.29,-427.87"/>
</g>
<!-- Node40 -->
<g id="node40" class="node">
<title>Node40</title>
<g id="a_node40"><a xlink:href="TSID_2src_2SE3Task_8cpp.html" target="_top" xlink:title=" ">
<polygon fill="none" stroke="black" points="6047,-340 6047,-359 6166,-359 6166,-340 6047,-340"/>
<text text-anchor="middle" x="6106.5" y="-347" font-family="Helvetica,sans-Serif" font-size="10.00">TSID/src/SE3Task.cpp</text>
</a>
</g>
</g>
<!-- Node1&#45;&gt;Node40 -->
<g id="edge43" class="edge">
<title>Node1&#45;&gt;Node40</title>
<path fill="none" stroke="midnightblue" d="M3327.16,-431.98C3791.79,-431.63 5767.23,-427.13 6037.5,-376 6055.44,-372.61 6074.87,-365.05 6088.53,-359.03"/>
<polygon fill="midnightblue" stroke="midnightblue" points="3327.12,-428.48 3317.13,-431.99 3327.13,-435.48 3327.12,-428.48"/>
</g>
<!-- Node41 -->
<g id="node41" class="node">
<title>Node41</title>
<g id="a_node41"><a xlink:href="TSID_2src_2SO3Task_8cpp.html" target="_top" xlink:title=" ">
<polygon fill="none" stroke="black" points="6184,-340 6184,-359 6305,-359 6305,-340 6184,-340"/>
<text text-anchor="middle" x="6244.5" y="-347" font-family="Helvetica,sans-Serif" font-size="10.00">TSID/src/SO3Task.cpp</text>
</a>
</g>
</g>
<!-- Node1&#45;&gt;Node41 -->
<g id="edge44" class="edge">
<title>Node1&#45;&gt;Node41</title>
<path fill="none" stroke="midnightblue" d="M3327.58,-432.08C3806.87,-432.21 5891.07,-429.67 6175.5,-376 6193.45,-372.61 6212.87,-365.05 6226.53,-359.04"/>
<polygon fill="midnightblue" stroke="midnightblue" points="3327.24,-428.58 3317.24,-432.08 3327.23,-435.58 3327.24,-428.58"/>
</g>
<!-- Node42 -->
<g id="node42" class="node">
<title>Node42</title>
<g id="a_node42"><a xlink:href="Helper_8tpp.html" target="_top" xlink:title=" ">
<polygon fill="none" stroke="black" points="6323,-329 6323,-370 6498,-370 6498,-329 6323,-329"/>
<text text-anchor="start" x="6331" y="-358" font-family="Helvetica,sans-Serif" font-size="10.00">YarpUtilities/include</text>
<text text-anchor="start" x="6331" y="-347" font-family="Helvetica,sans-Serif" font-size="10.00">/BipedalLocomotion/YarpUtilities</text>
<text text-anchor="middle" x="6410.5" y="-336" font-family="Helvetica,sans-Serif" font-size="10.00">/Helper.tpp</text>
</a>
</g>
</g>
<!-- Node1&#45;&gt;Node42 -->
<g id="edge45" class="edge">
<title>Node1&#45;&gt;Node42</title>
<path fill="none" stroke="midnightblue" d="M3327.67,-431.63C3820.52,-429.57 6013.42,-418.09 6314.5,-376 6324.58,-374.59 6335.11,-372.48 6345.35,-370.06"/>
<polygon fill="midnightblue" stroke="midnightblue" points="3327.37,-428.13 3317.38,-431.67 3327.4,-435.13 3327.37,-428.13"/>
</g>
<!-- Node46 -->
<g id="node46" class="node">
<title>Node46</title>
<g id="a_node46"><a xlink:href="Helper_8cpp.html" target="_top" xlink:title=" ">
<polygon fill="none" stroke="black" points="6395,-162 6395,-181 6542,-181 6542,-162 6395,-162"/>
<text text-anchor="middle" x="6468.5" y="-169" font-family="Helvetica,sans-Serif" font-size="10.00">YarpUtilities/src/Helper.cpp</text>
</a>
</g>
</g>
<!-- Node1&#45;&gt;Node46 -->
<g id="edge52" class="edge">
<title>Node1&#45;&gt;Node46</title>
<path fill="none" stroke="midnightblue" d="M3327.27,-432.2C3866.02,-433.06 6450.32,-434.17 6507.5,-376 6551.74,-330.99 6525.1,-294.61 6507.5,-234 6501.44,-213.12 6485.92,-192.53 6476.38,-181.27"/>
<polygon fill="midnightblue" stroke="midnightblue" points="3327.2,-428.7 3317.2,-432.18 3327.19,-435.7 3327.2,-428.7"/>
</g>
<!-- Node7 -->
<g id="node7" class="node">
<title>Node7</title>
<g id="a_node7"><a xlink:href="ForwardEuler_8h.html" target="_top" xlink:title=" ">
<polygon fill="none" stroke="black" points="723.5,-145.5 723.5,-197.5 887.5,-197.5 887.5,-145.5 723.5,-145.5"/>
<text text-anchor="start" x="731.5" y="-185.5" font-family="Helvetica,sans-Serif" font-size="10.00">ContinuousDynamicalSystem</text>
<text text-anchor="start" x="731.5" y="-174.5" font-family="Helvetica,sans-Serif" font-size="10.00">/include/BipedalLocomotion</text>
<text text-anchor="start" x="731.5" y="-163.5" font-family="Helvetica,sans-Serif" font-size="10.00">/ContinuousDynamicalSystem</text>
<text text-anchor="middle" x="805.5" y="-152.5" font-family="Helvetica,sans-Serif" font-size="10.00">/ForwardEuler.h</text>
</a>
</g>
</g>
<!-- Node6&#45;&gt;Node7 -->
<g id="edge6" class="edge">
<title>Node6&#45;&gt;Node7</title>
<path fill="none" stroke="midnightblue" d="M805.5,-224.19C805.5,-215.28 805.5,-205.9 805.5,-197.61"/>
<polygon fill="midnightblue" stroke="midnightblue" points="802,-224.34 805.5,-234.34 809,-224.34 802,-224.34"/>
</g>
<!-- Node8&#45;&gt;Node6 -->
<g id="edge8" class="edge">
<title>Node8&#45;&gt;Node6</title>
<path fill="none" stroke="midnightblue" d="M839.09,-314.64C833.19,-305.31 826.9,-295.35 821.37,-286.61"/>
<polygon fill="midnightblue" stroke="midnightblue" points="836.29,-316.75 844.59,-323.34 842.21,-313.01 836.29,-316.75"/>
</g>
<!-- Node21 -->
<g id="node21" class="node">
<title>Node21</title>
<g id="a_node21"><a xlink:href="StdImplementation_8h.html" target="_top" xlink:title=" ">
<polygon fill="none" stroke="black" points="2896.5,-240 2896.5,-281 3106.5,-281 3106.5,-240 2896.5,-240"/>
<text text-anchor="start" x="2904.5" y="-269" font-family="Helvetica,sans-Serif" font-size="10.00">ParametersHandler/include</text>
<text text-anchor="start" x="2904.5" y="-258" font-family="Helvetica,sans-Serif" font-size="10.00">/BipedalLocomotion/ParametersHandler</text>
<text text-anchor="middle" x="3001.5" y="-247" font-family="Helvetica,sans-Serif" font-size="10.00">/StdImplementation.h</text>
</a>
</g>
</g>
<!-- Node20&#45;&gt;Node21 -->
<g id="edge21" class="edge">
<title>Node20&#45;&gt;Node21</title>
<path fill="none" stroke="midnightblue" d="M2995.04,-318.44C2994.49,-306.1 2994.72,-292.16 2995.75,-281.16"/>
<polygon fill="midnightblue" stroke="midnightblue" points="2991.58,-319.02 2995.74,-328.76 2998.56,-318.55 2991.58,-319.02"/>
</g>
<!-- Node21&#45;&gt;Node20 -->
<g id="edge22" class="edge">
<title>Node21&#45;&gt;Node20</title>
<path fill="none" stroke="midnightblue" d="M3007.95,-291.47C3008.51,-303.8 3008.28,-317.75 3007.26,-328.76"/>
<polygon fill="midnightblue" stroke="midnightblue" points="3011.42,-290.9 3007.25,-281.16 3004.44,-291.38 3011.42,-290.9"/>
</g>
<!-- Node21&#45;&gt;Node22 -->
<g id="edge23" class="edge">
<title>Node21&#45;&gt;Node22</title>
<path fill="none" stroke="midnightblue" d="M3014.15,-230.53C3020.58,-215.81 3028.11,-198.58 3033.28,-186.74"/>
<polygon fill="midnightblue" stroke="midnightblue" points="3010.92,-229.19 3010.12,-239.76 3017.33,-232 3010.92,-229.19"/>
</g>
<!-- Node28&#45;&gt;Node29 -->
<g id="edge31" class="edge">
<title>Node28&#45;&gt;Node29</title>
<path fill="none" stroke="midnightblue" d="M4050.53,-320.78C4061.89,-305.8 4075.46,-287.92 4084.69,-275.74"/>
<polygon fill="midnightblue" stroke="midnightblue" points="4047.73,-318.68 4044.48,-328.76 4053.31,-322.91 4047.73,-318.68"/>
</g>
<!-- Node43 -->
<g id="node43" class="node">
<title>Node43</title>
<g id="a_node43"><a xlink:href="Helper_8h.html" target="_top" xlink:title=" ">
<polygon fill="none" stroke="black" points="6323,-240 6323,-281 6498,-281 6498,-240 6323,-240"/>
<text text-anchor="start" x="6331" y="-269" font-family="Helvetica,sans-Serif" font-size="10.00">YarpUtilities/include</text>
<text text-anchor="start" x="6331" y="-258" font-family="Helvetica,sans-Serif" font-size="10.00">/BipedalLocomotion/YarpUtilities</text>
<text text-anchor="middle" x="6410.5" y="-247" font-family="Helvetica,sans-Serif" font-size="10.00">/Helper.h</text>
</a>
</g>
</g>
<!-- Node42&#45;&gt;Node43 -->
<g id="edge46" class="edge">
<title>Node42&#45;&gt;Node43</title>
<path fill="none" stroke="midnightblue" d="M6410.5,-318.44C6410.5,-306.1 6410.5,-292.16 6410.5,-281.16"/>
<polygon fill="midnightblue" stroke="midnightblue" points="6407,-318.76 6410.5,-328.76 6414,-318.76 6407,-318.76"/>
</g>
<!-- Node44 -->
<g id="node44" class="node">
<title>Node44</title>
<g id="a_node44"><a xlink:href="YarpImplementation_8tpp.html" target="_top" xlink:title=" ">
<polygon fill="none" stroke="black" points="4635.5,-151 4635.5,-192 4883.5,-192 4883.5,-151 4635.5,-151"/>
<text text-anchor="start" x="4643.5" y="-180" font-family="Helvetica,sans-Serif" font-size="10.00">ParametersHandler/YarpImplementation</text>
<text text-anchor="start" x="4643.5" y="-169" font-family="Helvetica,sans-Serif" font-size="10.00">/include/BipedalLocomotion/ParametersHandler</text>
<text text-anchor="middle" x="4759.5" y="-158" font-family="Helvetica,sans-Serif" font-size="10.00">/YarpImplementation.tpp</text>
</a>
</g>
</g>
<!-- Node43&#45;&gt;Node44 -->
<g id="edge47" class="edge">
<title>Node43&#45;&gt;Node44</title>
<path fill="none" stroke="midnightblue" d="M6312.59,-254.34C6027.69,-239.33 5199.37,-195.68 4883.69,-179.04"/>
<polygon fill="midnightblue" stroke="midnightblue" points="6312.73,-257.85 6322.9,-254.88 6313.1,-250.86 6312.73,-257.85"/>
</g>
<!-- Node43&#45;&gt;Node46 -->
<g id="edge51" class="edge">
<title>Node43&#45;&gt;Node46</title>
<path fill="none" stroke="midnightblue" d="M6429.45,-231.07C6441.05,-213.68 6455.08,-192.62 6462.77,-181.09"/>
<polygon fill="midnightblue" stroke="midnightblue" points="6426.3,-229.5 6423.66,-239.76 6432.12,-233.38 6426.3,-229.5"/>
</g>
<!-- Node45 -->
<g id="node45" class="node">
<title>Node45</title>
<g id="a_node45"><a xlink:href="YarpImplementation_8h.html" target="_top" xlink:title=" ">
<polygon fill="none" stroke="black" points="4635.5,-67.5 4635.5,-108.5 4883.5,-108.5 4883.5,-67.5 4635.5,-67.5"/>
<text text-anchor="start" x="4643.5" y="-96.5" font-family="Helvetica,sans-Serif" font-size="10.00">ParametersHandler/YarpImplementation</text>
<text text-anchor="start" x="4643.5" y="-85.5" font-family="Helvetica,sans-Serif" font-size="10.00">/include/BipedalLocomotion/ParametersHandler</text>
<text text-anchor="middle" x="4759.5" y="-74.5" font-family="Helvetica,sans-Serif" font-size="10.00">/YarpImplementation.h</text>
</a>
</g>
</g>
<!-- Node44&#45;&gt;Node45 -->
<g id="edge48" class="edge">
<title>Node44&#45;&gt;Node45</title>
<path fill="none" stroke="midnightblue" d="M4752.97,-140.56C4752.53,-129.88 4752.75,-118.13 4753.64,-108.55"/>
<polygon fill="midnightblue" stroke="midnightblue" points="4749.49,-141.02 4753.62,-150.77 4756.47,-140.57 4749.49,-141.02"/>
</g>
<!-- Node45&#45;&gt;Node23 -->
<g id="edge50" class="edge">
<title>Node45&#45;&gt;Node23</title>
<path fill="none" stroke="midnightblue" d="M4624.82,-80.72C4328.11,-66.87 3623.11,-33.98 3354.73,-21.46"/>
<polygon fill="midnightblue" stroke="midnightblue" points="4625.05,-84.23 4635.21,-81.2 4625.38,-77.24 4625.05,-84.23"/>
</g>
<!-- Node45&#45;&gt;Node44 -->
<g id="edge49" class="edge">
<title>Node45&#45;&gt;Node44</title>
<path fill="none" stroke="midnightblue" d="M4766.03,-118.73C4766.47,-129.4 4766.25,-141.16 4765.38,-150.77"/>
<polygon fill="midnightblue" stroke="midnightblue" points="4769.5,-118.3 4765.36,-108.55 4762.52,-118.75 4769.5,-118.3"/>
</g>
</g>
</svg>
        <g id="navigator" transform="translate(0 0)" fill="#404254">
                <rect fill="#f2f5e9" fill-opacity="0.5" stroke="#606060" stroke-width=".5" x="0" y="0" width="60" height="60"/>
                <use id="zoomplus" xlink:href="#zoomPlus" x="17" y="9" onmousedown="handleZoom(evt,'in')"/>
                <use id="zoomminus" xlink:href="#zoomMin" x="42" y="9" onmousedown="handleZoom(evt,'out')"/>
                <use id="reset" xlink:href="#resetDef" x="30" y="36" onmousedown="handleReset()"/>
                <g id="arrowUp" xlink:href="#dirArrow" transform="translate(30 24)" onmousedown="handlePan(0,-1)">
                  <use xlink:href="#rim" fill="#404040">
                        <set attributeName="fill" to="#808080" begin="arrowUp.mouseover" end="arrowUp.mouseout"/>
                  </use>
                  <path fill="none" stroke="white" stroke-width="1.5" d="M0,-3.0v7 M-2.5,-0.5L0,-3.0L2.5,-0.5"/>
                </g>
                <g id="arrowRight" xlink:href="#dirArrow" transform="rotate(90) translate(36 -43)" onmousedown="handlePan(1,0)">
                  <use xlink:href="#rim" fill="#404040">
                        <set attributeName="fill" to="#808080" begin="arrowRight.mouseover" end="arrowRight.mouseout"/>
                  </use>
                  <path fill="none" stroke="white" stroke-width="1.5" d="M0,-3.0v7 M-2.5,-0.5L0,-3.0L2.5,-0.5"/>
                </g>
                <g id="arrowDown" xlink:href="#dirArrow" transform="rotate(180) translate(-30 -48)" onmousedown="handlePan(0,1)">
                  <use xlink:href="#rim" fill="#404040">
                        <set attributeName="fill" to="#808080" begin="arrowDown.mouseover" end="arrowDown.mouseout"/>
                  </use>
                  <path fill="none" stroke="white" stroke-width="1.5" d="M0,-3.0v7 M-2.5,-0.5L0,-3.0L2.5,-0.5"/>
                </g>
                <g id="arrowLeft" xlink:href="#dirArrow" transform="rotate(270) translate(-36 17)" onmousedown="handlePan(-1,0)">
                  <use xlink:href="#rim" fill="#404040">
                        <set attributeName="fill" to="#808080" begin="arrowLeft.mouseover" end="arrowLeft.mouseout"/>
                  </use>
                  <path fill="none" stroke="white" stroke-width="1.5" d="M0,-3.0v7 M-2.5,-0.5L0,-3.0L2.5,-0.5"/>
                </g>
        </g>
        <svg viewBox="0 0 15 15" width="100%" height="30px" preserveAspectRatio="xMaxYMin meet">
         <g id="arrow_out" transform="scale(0.3 0.3)">
          <a xlink:href="Logger_8h__dep__incl_org.svg" target="_base">
           <rect id="button" ry="5" rx="5" y="6" x="6" height="38" width="38"
                fill="#f2f5e9" fill-opacity="0.5" stroke="#606060" stroke-width="1.0"/>
           <path id="arrow"
             d="M 11.500037,31.436501 C 11.940474,20.09759 22.043105,11.32322 32.158766,21.979434 L 37.068811,17.246167 C 37.068811,17.246167 37.088388,32 37.088388,32 L 22.160133,31.978069 C 22.160133,31.978069 26.997745,27.140456 26.997745,27.140456 C 18.528582,18.264221 13.291696,25.230495 11.500037,31.436501 z"
             style="fill:#404040;"/>
          </a>
         </g>
        </svg>
</svg>
