<?xml version="1.0" encoding="UTF-8" standalone="no"?>
<!DOCTYPE svg PUBLIC "-//W3C//DTD SVG 1.1//EN"
 "http://www.w3.org/Graphics/SVG/1.1/DTD/svg11.dtd">
<!-- Generated by graphviz version 2.43.0 (0)
 -->
<!-- Title: Conversions/include/BipedalLocomotion/Conversions/matioCppConversions.h Pages: 1 -->
<!--zoomable 240 -->
<svg id="main" version="1.1" xmlns="http://www.w3.org/2000/svg" xmlns:xlink="http://www.w3.org/1999/xlink" xml:space="preserve" onload="init(evt)">
<style type="text/css"><![CDATA[
.edge:hover path { stroke: red; }
.edge:hover polygon { stroke: red; fill: red; }
]]></style>
<script type="text/javascript"><![CDATA[
var edges = document.getElementsByTagName('g');
if (edges && edges.length) {
  for (var i=0;i<edges.length;i++) {
    if (edges[i].id.substr(0,4)=='edge') {
      edges[i].setAttribute('class','edge');
    }
  }
}
]]></script>
        <defs>
                <circle id="rim" cx="0" cy="0" r="7"/>
                <circle id="rim2" cx="0" cy="0" r="3.5"/>
                <g id="zoomPlus">
                        <use xlink:href="#rim" fill="#404040">
                                <set attributeName="fill" to="#808080" begin="zoomplus.mouseover" end="zoomplus.mouseout"/>
                        </use>
                        <path d="M-4,0h8M0,-4v8" fill="none" stroke="white" stroke-width="1.5" pointer-events="none"/>
                </g>
                <g id="zoomMin">
                        <use xlink:href="#rim" fill="#404040">
                                <set attributeName="fill" to="#808080" begin="zoomminus.mouseover" end="zoomminus.mouseout"/>
                        </use>
                        <path d="M-4,0h8" fill="none" stroke="white" stroke-width="1.5" pointer-events="none"/>
                </g>
                <g id="dirArrow">
                        <path fill="none" stroke="white" stroke-width="1.5" d="M0,-3.0v7 M-2.5,-0.5L0,-3.0L2.5,-0.5"/>
                </g>
               <g id="resetDef">
                       <use xlink:href="#rim2" fill="#404040">
                               <set attributeName="fill" to="#808080" begin="reset.mouseover" end="reset.mouseout"/>
                       </use>
               </g>
        </defs>

<script type="text/javascript">
var viewWidth = 973;
var viewHeight = 240;
var sectionId = 'dynsection-0';
</script>
<script xlink:href="svgpan.js"/>
<svg id="graph" class="graph">
<g id="viewport">
<title>Conversions/include/BipedalLocomotion/Conversions/matioCppConversions.h</title>
<!-- Node1 -->
<g id="node1" class="node">
<title>Node1</title>
<g id="a_node1"><a xlink:title=" ">
<polygon fill="#bfbfbf" stroke="black" points="290.97,-190.5 290.97,-231.5 466.97,-231.5 466.97,-190.5 290.97,-190.5"/>
<text text-anchor="start" x="298.97" y="-219.5" font-family="Helvetica,sans-Serif" font-size="10.00">Conversions/include</text>
<text text-anchor="start" x="298.97" y="-208.5" font-family="Helvetica,sans-Serif" font-size="10.00">/BipedalLocomotion/Conversions</text>
<text text-anchor="middle" x="378.97" y="-197.5" font-family="Helvetica,sans-Serif" font-size="10.00">/matioCppConversions.h</text>
</a>
</g>
</g>
<!-- Node2 -->
<g id="node2" class="node">
<title>Node2</title>
<g id="a_node2"><a xlink:title=" ">
<polygon fill="none" stroke="#bfbfbf" points="207.47,-0.5 207.47,-19.5 276.47,-19.5 276.47,-0.5 207.47,-0.5"/>
<text text-anchor="middle" x="241.97" y="-7.5" font-family="Helvetica,sans-Serif" font-size="10.00">Eigen/Core</text>
</a>
</g>
</g>
<!-- Node1&#45;&gt;Node2 -->
<g id="edge1" class="edge">
<title>Node1&#45;&gt;Node2</title>
<path fill="none" stroke="midnightblue" d="M290.56,-209.19C193.9,-206.21 48.04,-194.84 12.97,-154 -46.24,-85.04 115.64,-38.5 197.64,-19.99"/>
<polygon fill="midnightblue" stroke="midnightblue" points="198.46,-23.39 207.47,-17.82 196.95,-16.56 198.46,-23.39"/>
</g>
<!-- Node3 -->
<g id="node3" class="node">
<title>Node3</title>
<g id="a_node3"><a xlink:title=" ">
<polygon fill="none" stroke="#bfbfbf" points="21.97,-129 21.97,-148 189.97,-148 189.97,-129 21.97,-129"/>
<text text-anchor="middle" x="105.97" y="-136" font-family="Helvetica,sans-Serif" font-size="10.00">iDynTree/Core/MatrixDynSize.h</text>
</a>
</g>
</g>
<!-- Node1&#45;&gt;Node3 -->
<g id="edge2" class="edge">
<title>Node1&#45;&gt;Node3</title>
<path fill="none" stroke="midnightblue" d="M303.28,-190.46C253.43,-177.58 189.97,-161.19 148.67,-150.53"/>
<polygon fill="midnightblue" stroke="midnightblue" points="149.49,-147.12 138.93,-148.01 147.74,-153.9 149.49,-147.12"/>
</g>
<!-- Node4 -->
<g id="node4" class="node">
<title>Node4</title>
<g id="a_node4"><a xlink:title=" ">
<polygon fill="none" stroke="#bfbfbf" points="208.47,-129 208.47,-148 369.47,-148 369.47,-129 208.47,-129"/>
<text text-anchor="middle" x="288.97" y="-136" font-family="Helvetica,sans-Serif" font-size="10.00">iDynTree/Core/EigenHelpers.h</text>
</a>
</g>
</g>
<!-- Node1&#45;&gt;Node4 -->
<g id="edge3" class="edge">
<title>Node1&#45;&gt;Node4</title>
<path fill="none" stroke="midnightblue" d="M353.9,-190.36C339.39,-179 321.42,-164.92 308.07,-154.46"/>
<polygon fill="midnightblue" stroke="midnightblue" points="310.07,-151.58 300.04,-148.17 305.75,-157.1 310.07,-151.58"/>
</g>
<!-- Node5 -->
<g id="node5" class="node">
<title>Node5</title>
<g id="a_node5"><a xlink:title=" ">
<polygon fill="none" stroke="#bfbfbf" points="387.47,-129 387.47,-148 550.47,-148 550.47,-129 387.47,-129"/>
<text text-anchor="middle" x="468.97" y="-136" font-family="Helvetica,sans-Serif" font-size="10.00">iDynTree/Core/MatrixFixSize.h</text>
</a>
</g>
</g>
<!-- Node1&#45;&gt;Node5 -->
<g id="edge4" class="edge">
<title>Node1&#45;&gt;Node5</title>
<path fill="none" stroke="midnightblue" d="M404.04,-190.36C418.54,-179 436.51,-164.92 449.87,-154.46"/>
<polygon fill="midnightblue" stroke="midnightblue" points="452.18,-157.1 457.9,-148.17 447.86,-151.58 452.18,-157.1"/>
</g>
<!-- Node6 -->
<g id="node6" class="node">
<title>Node6</title>
<g id="a_node6"><a xlink:title=" ">
<polygon fill="none" stroke="#bfbfbf" points="568.47,-129 568.47,-148 691.47,-148 691.47,-129 568.47,-129"/>
<text text-anchor="middle" x="629.97" y="-136" font-family="Helvetica,sans-Serif" font-size="10.00">matioCpp/matioCpp.h</text>
</a>
</g>
</g>
<!-- Node1&#45;&gt;Node6 -->
<g id="edge5" class="edge">
<title>Node1&#45;&gt;Node6</title>
<path fill="none" stroke="midnightblue" d="M448.55,-190.46C494.1,-177.66 552,-161.4 589.98,-150.73"/>
<polygon fill="midnightblue" stroke="midnightblue" points="590.98,-154.09 599.66,-148.01 589.09,-147.35 590.98,-154.09"/>
</g>
<!-- Node7 -->
<g id="node7" class="node">
<title>Node7</title>
<g id="a_node7"><a xlink:href="Vector_8h_source.html" target="_top" xlink:title=" ">
<polygon fill="none" stroke="black" points="709.47,-123.5 709.47,-153.5 860.47,-153.5 860.47,-123.5 709.47,-123.5"/>
<text text-anchor="start" x="717.47" y="-141.5" font-family="Helvetica,sans-Serif" font-size="10.00">BipedalLocomotion/Generic</text>
<text text-anchor="middle" x="784.97" y="-130.5" font-family="Helvetica,sans-Serif" font-size="10.00">Container/Vector.h</text>
</a>
</g>
</g>
<!-- Node1&#45;&gt;Node7 -->
<g id="edge6" class="edge">
<title>Node1&#45;&gt;Node7</title>
<path fill="none" stroke="midnightblue" d="M467.06,-194.7C535.97,-182.74 631.22,-166.2 699.46,-154.35"/>
<polygon fill="midnightblue" stroke="midnightblue" points="700.07,-157.79 709.32,-152.64 698.87,-150.9 700.07,-157.79"/>
</g>
<!-- Node8 -->
<g id="node8" class="node">
<title>Node8</title>
<g id="a_node8"><a xlink:title=" ">
<polygon fill="none" stroke="#bfbfbf" points="359.47,-62 359.47,-81 480.47,-81 480.47,-62 359.47,-62"/>
<text text-anchor="middle" x="419.97" y="-69" font-family="Helvetica,sans-Serif" font-size="10.00">iDynTree/Core/Span.h</text>
</a>
</g>
</g>
<!-- Node7&#45;&gt;Node8 -->
<g id="edge7" class="edge">
<title>Node7&#45;&gt;Node8</title>
<path fill="none" stroke="midnightblue" d="M709.3,-124.58C623.7,-109.96 495.39,-88.03 489.97,-87 483.41,-85.76 476.53,-84.4 469.73,-83.03"/>
<polygon fill="midnightblue" stroke="midnightblue" points="470.4,-79.59 459.9,-81.02 469,-86.45 470.4,-79.59"/>
</g>
<!-- Node9 -->
<g id="node9" class="node">
<title>Node9</title>
<g id="a_node9"><a xlink:href="TemplateHelpers_8h_source.html" target="_top" xlink:title=" ">
<polygon fill="none" stroke="black" points="498.97,-56.5 498.97,-86.5 656.97,-86.5 656.97,-56.5 498.97,-56.5"/>
<text text-anchor="start" x="506.97" y="-74.5" font-family="Helvetica,sans-Serif" font-size="10.00">BipedalLocomotion/Generic</text>
<text text-anchor="middle" x="577.97" y="-63.5" font-family="Helvetica,sans-Serif" font-size="10.00">Container/TemplateHelpers.h</text>
</a>
</g>
</g>
<!-- Node7&#45;&gt;Node9 -->
<g id="edge8" class="edge">
<title>Node7&#45;&gt;Node9</title>
<path fill="none" stroke="midnightblue" d="M740.31,-123.48C708.72,-113.56 666.18,-100.2 632.58,-89.65"/>
<polygon fill="midnightblue" stroke="midnightblue" points="633.49,-86.27 622.91,-86.61 631.4,-92.95 633.49,-86.27"/>
</g>
<!-- Node12 -->
<g id="node12" class="node">
<title>Node12</title>
<g id="a_node12"><a xlink:title=" ">
<polygon fill="none" stroke="#bfbfbf" points="675.47,-62 675.47,-81 740.47,-81 740.47,-62 675.47,-62"/>
<text text-anchor="middle" x="707.97" y="-69" font-family="Helvetica,sans-Serif" font-size="10.00">functional</text>
</a>
</g>
</g>
<!-- Node7&#45;&gt;Node12 -->
<g id="edge12" class="edge">
<title>Node7&#45;&gt;Node12</title>
<path fill="none" stroke="midnightblue" d="M768.26,-123.4C755.78,-112.86 738.74,-98.48 725.96,-87.69"/>
<polygon fill="midnightblue" stroke="midnightblue" points="728.17,-84.97 718.27,-81.19 723.65,-90.32 728.17,-84.97"/>
</g>
<!-- Node13 -->
<g id="node13" class="node">
<title>Node13</title>
<g id="a_node13"><a xlink:title=" ">
<polygon fill="none" stroke="#bfbfbf" points="758.97,-62 758.97,-81 810.97,-81 810.97,-62 758.97,-62"/>
<text text-anchor="middle" x="784.97" y="-69" font-family="Helvetica,sans-Serif" font-size="10.00">cassert</text>
</a>
</g>
</g>
<!-- Node7&#45;&gt;Node13 -->
<g id="edge13" class="edge">
<title>Node7&#45;&gt;Node13</title>
<path fill="none" stroke="midnightblue" d="M784.97,-123.4C784.97,-114.06 784.97,-101.71 784.97,-91.52"/>
<polygon fill="midnightblue" stroke="midnightblue" points="788.47,-91.19 784.97,-81.19 781.47,-91.19 788.47,-91.19"/>
</g>
<!-- Node14 -->
<g id="node14" class="node">
<title>Node14</title>
<g id="a_node14"><a xlink:title=" ">
<polygon fill="none" stroke="#bfbfbf" points="828.97,-62 828.97,-81 888.97,-81 888.97,-62 828.97,-62"/>
<text text-anchor="middle" x="858.97" y="-69" font-family="Helvetica,sans-Serif" font-size="10.00">iostream</text>
</a>
</g>
</g>
<!-- Node7&#45;&gt;Node14 -->
<g id="edge14" class="edge">
<title>Node7&#45;&gt;Node14</title>
<path fill="none" stroke="midnightblue" d="M801.02,-123.4C812.91,-112.96 829.08,-98.75 841.32,-88"/>
<polygon fill="midnightblue" stroke="midnightblue" points="843.87,-90.42 849.07,-81.19 839.25,-85.16 843.87,-90.42"/>
</g>
<!-- Node15 -->
<g id="node15" class="node">
<title>Node15</title>
<g id="a_node15"><a xlink:title=" ">
<polygon fill="none" stroke="#bfbfbf" points="906.97,-62 906.97,-81 964.97,-81 964.97,-62 906.97,-62"/>
<text text-anchor="middle" x="935.97" y="-69" font-family="Helvetica,sans-Serif" font-size="10.00">memory</text>
</a>
</g>
</g>
<!-- Node7&#45;&gt;Node15 -->
<g id="edge15" class="edge">
<title>Node7&#45;&gt;Node15</title>
<path fill="none" stroke="midnightblue" d="M817.73,-123.4C844.23,-111.99 881.19,-96.08 906.7,-85.1"/>
<polygon fill="midnightblue" stroke="midnightblue" points="908.4,-88.18 916.21,-81.01 905.64,-81.75 908.4,-88.18"/>
</g>
<!-- Node9&#45;&gt;Node2 -->
<g id="edge11" class="edge">
<title>Node9&#45;&gt;Node2</title>
<path fill="none" stroke="midnightblue" d="M498.77,-56.47C432.6,-44.76 340.65,-28.48 286.62,-18.91"/>
<polygon fill="midnightblue" stroke="midnightblue" points="287.12,-15.44 276.66,-17.14 285.9,-22.33 287.12,-15.44"/>
</g>
<!-- Node10 -->
<g id="node10" class="node">
<title>Node10</title>
<g id="a_node10"><a xlink:title=" ">
<polygon fill="none" stroke="#bfbfbf" points="498.47,-0.5 498.47,-19.5 567.47,-19.5 567.47,-0.5 498.47,-0.5"/>
<text text-anchor="middle" x="532.97" y="-7.5" font-family="Helvetica,sans-Serif" font-size="10.00">type_traits</text>
</a>
</g>
</g>
<!-- Node9&#45;&gt;Node10 -->
<g id="edge9" class="edge">
<title>Node9&#45;&gt;Node10</title>
<path fill="none" stroke="midnightblue" d="M567.3,-56.4C560.83,-47.84 552.53,-36.87 545.72,-27.86"/>
<polygon fill="midnightblue" stroke="midnightblue" points="548.34,-25.52 539.52,-19.66 542.76,-29.74 548.34,-25.52"/>
</g>
<!-- Node11 -->
<g id="node11" class="node">
<title>Node11</title>
<g id="a_node11"><a xlink:title=" ">
<polygon fill="none" stroke="#bfbfbf" points="585.47,-0.5 585.47,-19.5 658.47,-19.5 658.47,-0.5 585.47,-0.5"/>
<text text-anchor="middle" x="621.97" y="-7.5" font-family="Helvetica,sans-Serif" font-size="10.00">string_view</text>
</a>
</g>
</g>
<!-- Node9&#45;&gt;Node11 -->
<g id="edge10" class="edge">
<title>Node9&#45;&gt;Node11</title>
<path fill="none" stroke="midnightblue" d="M588.4,-56.4C594.72,-47.84 602.84,-36.87 609.5,-27.86"/>
<polygon fill="midnightblue" stroke="midnightblue" points="612.43,-29.78 615.57,-19.66 606.81,-25.62 612.43,-29.78"/>
</g>
</g>
</svg>
        <g id="navigator" transform="translate(0 0)" fill="#404254">
                <rect fill="#f2f5e9" fill-opacity="0.5" stroke="#606060" stroke-width=".5" x="0" y="0" width="60" height="60"/>
                <use id="zoomplus" xlink:href="#zoomPlus" x="17" y="9" onmousedown="handleZoom(evt,'in')"/>
                <use id="zoomminus" xlink:href="#zoomMin" x="42" y="9" onmousedown="handleZoom(evt,'out')"/>
                <use id="reset" xlink:href="#resetDef" x="30" y="36" onmousedown="handleReset()"/>
                <g id="arrowUp" xlink:href="#dirArrow" transform="translate(30 24)" onmousedown="handlePan(0,-1)">
                  <use xlink:href="#rim" fill="#404040">
                        <set attributeName="fill" to="#808080" begin="arrowUp.mouseover" end="arrowUp.mouseout"/>
                  </use>
                  <path fill="none" stroke="white" stroke-width="1.5" d="M0,-3.0v7 M-2.5,-0.5L0,-3.0L2.5,-0.5"/>
                </g>
                <g id="arrowRight" xlink:href="#dirArrow" transform="rotate(90) translate(36 -43)" onmousedown="handlePan(1,0)">
                  <use xlink:href="#rim" fill="#404040">
                        <set attributeName="fill" to="#808080" begin="arrowRight.mouseover" end="arrowRight.mouseout"/>
                  </use>
                  <path fill="none" stroke="white" stroke-width="1.5" d="M0,-3.0v7 M-2.5,-0.5L0,-3.0L2.5,-0.5"/>
                </g>
                <g id="arrowDown" xlink:href="#dirArrow" transform="rotate(180) translate(-30 -48)" onmousedown="handlePan(0,1)">
                  <use xlink:href="#rim" fill="#404040">
                        <set attributeName="fill" to="#808080" begin="arrowDown.mouseover" end="arrowDown.mouseout"/>
                  </use>
                  <path fill="none" stroke="white" stroke-width="1.5" d="M0,-3.0v7 M-2.5,-0.5L0,-3.0L2.5,-0.5"/>
                </g>
                <g id="arrowLeft" xlink:href="#dirArrow" transform="rotate(270) translate(-36 17)" onmousedown="handlePan(-1,0)">
                  <use xlink:href="#rim" fill="#404040">
                        <set attributeName="fill" to="#808080" begin="arrowLeft.mouseover" end="arrowLeft.mouseout"/>
                  </use>
                  <path fill="none" stroke="white" stroke-width="1.5" d="M0,-3.0v7 M-2.5,-0.5L0,-3.0L2.5,-0.5"/>
                </g>
        </g>
        <svg viewBox="0 0 15 15" width="100%" height="30px" preserveAspectRatio="xMaxYMin meet">
         <g id="arrow_out" transform="scale(0.3 0.3)">
          <a xlink:href="matioCppConversions_8h__incl_org.svg" target="_base">
           <rect id="button" ry="5" rx="5" y="6" x="6" height="38" width="38"
                fill="#f2f5e9" fill-opacity="0.5" stroke="#606060" stroke-width="1.0"/>
           <path id="arrow"
             d="M 11.500037,31.436501 C 11.940474,20.09759 22.043105,11.32322 32.158766,21.979434 L 37.068811,17.246167 C 37.068811,17.246167 37.088388,32 37.088388,32 L 22.160133,31.978069 C 22.160133,31.978069 26.997745,27.140456 26.997745,27.140456 C 18.528582,18.264221 13.291696,25.230495 11.500037,31.436501 z"
             style="fill:#404040;"/>
          </a>
         </g>
        </svg>
</svg>
