<?xml version="1.0" encoding="UTF-8" standalone="no"?>
<!DOCTYPE svg PUBLIC "-//W3C//DTD SVG 1.1//EN"
 "http://www.w3.org/Graphics/SVG/1.1/DTD/svg11.dtd">
<!-- Generated by graphviz version 2.43.0 (0)
 -->
<!-- Title: IK/src/QPInverseKinematics.cpp Pages: 1 -->
<!--zoomable 553 -->
<svg id="main" version="1.1" xmlns="http://www.w3.org/2000/svg" xmlns:xlink="http://www.w3.org/1999/xlink" xml:space="preserve" onload="init(evt)">
<style type="text/css"><![CDATA[
.edge:hover path { stroke: red; }
.edge:hover polygon { stroke: red; fill: red; }
]]></style>
<script type="text/javascript"><![CDATA[
var edges = document.getElementsByTagName('g');
if (edges && edges.length) {
  for (var i=0;i<edges.length;i++) {
    if (edges[i].id.substr(0,4)=='edge') {
      edges[i].setAttribute('class','edge');
    }
  }
}
]]></script>
        <defs>
                <circle id="rim" cx="0" cy="0" r="7"/>
                <circle id="rim2" cx="0" cy="0" r="3.5"/>
                <g id="zoomPlus">
                        <use xlink:href="#rim" fill="#404040">
                                <set attributeName="fill" to="#808080" begin="zoomplus.mouseover" end="zoomplus.mouseout"/>
                        </use>
                        <path d="M-4,0h8M0,-4v8" fill="none" stroke="white" stroke-width="1.5" pointer-events="none"/>
                </g>
                <g id="zoomMin">
                        <use xlink:href="#rim" fill="#404040">
                                <set attributeName="fill" to="#808080" begin="zoomminus.mouseover" end="zoomminus.mouseout"/>
                        </use>
                        <path d="M-4,0h8" fill="none" stroke="white" stroke-width="1.5" pointer-events="none"/>
                </g>
                <g id="dirArrow">
                        <path fill="none" stroke="white" stroke-width="1.5" d="M0,-3.0v7 M-2.5,-0.5L0,-3.0L2.5,-0.5"/>
                </g>
               <g id="resetDef">
                       <use xlink:href="#rim2" fill="#404040">
                               <set attributeName="fill" to="#808080" begin="reset.mouseover" end="reset.mouseout"/>
                       </use>
               </g>
        </defs>

<script type="text/javascript">
var viewWidth = 1313;
var viewHeight = 553;
var sectionId = 'dynsection-0';
</script>
<script xlink:href="svgpan.js"/>
<svg id="graph" class="graph">
<g id="viewport">
<title>IK/src/QPInverseKinematics.cpp</title>
<!-- Node1 -->
<g id="node1" class="node">
<title>Node1</title>
<g id="a_node1"><a xlink:title=" ">
<polygon fill="#bfbfbf" stroke="black" points="914.5,-525.5 914.5,-544.5 1085.5,-544.5 1085.5,-525.5 914.5,-525.5"/>
<text text-anchor="middle" x="1000" y="-532.5" font-family="Helvetica,sans-Serif" font-size="10.00">IK/src/QPInverseKinematics.cpp</text>
</a>
</g>
</g>
<!-- Node2 -->
<g id="node2" class="node">
<title>Node2</title>
<g id="a_node2"><a xlink:title=" ">
<polygon fill="none" stroke="#bfbfbf" points="441,-62 441,-81 499,-81 499,-62 441,-62"/>
<text text-anchor="middle" x="470" y="-69" font-family="Helvetica,sans-Serif" font-size="10.00">memory</text>
</a>
</g>
</g>
<!-- Node1&#45;&gt;Node2 -->
<g id="edge1" class="edge">
<title>Node1&#45;&gt;Node2</title>
<path fill="none" stroke="midnightblue" d="M1006.48,-525.5C1012.84,-516.78 1022.36,-502.6 1028,-489 1042.24,-454.64 1047,-444.69 1047,-407.5 1047,-407.5 1047,-407.5 1047,-204.5 1047,-164.15 1040.45,-145.56 1007,-123 914.82,-60.84 616.54,-111.07 508,-87 504.99,-86.33 501.91,-85.47 498.86,-84.51"/>
<polygon fill="midnightblue" stroke="midnightblue" points="499.98,-81.19 489.39,-81.15 497.64,-87.79 499.98,-81.19"/>
</g>
<!-- Node3 -->
<g id="node3" class="node">
<title>Node3</title>
<g id="a_node3"><a xlink:title=" ">
<polygon fill="none" stroke="#bfbfbf" points="887,-464 887,-483 1019,-483 1019,-464 887,-464"/>
<text text-anchor="middle" x="953" y="-471" font-family="Helvetica,sans-Serif" font-size="10.00">OsqpEigen/OsqpEigen.h</text>
</a>
</g>
</g>
<!-- Node1&#45;&gt;Node3 -->
<g id="edge2" class="edge">
<title>Node1&#45;&gt;Node3</title>
<path fill="none" stroke="midnightblue" d="M993.27,-525.48C986.22,-516.55 974.97,-502.31 966.15,-491.14"/>
<polygon fill="midnightblue" stroke="midnightblue" points="968.67,-488.69 959.72,-483.01 963.17,-493.03 968.67,-488.69"/>
</g>
<!-- Node4 -->
<g id="node4" class="node">
<title>Node4</title>
<g id="a_node4"><a xlink:href="QPInverseKinematics_8h.html" target="_top" xlink:title=" ">
<polygon fill="none" stroke="black" points="482.5,-458.5 482.5,-488.5 615.5,-488.5 615.5,-458.5 482.5,-458.5"/>
<text text-anchor="start" x="490.5" y="-476.5" font-family="Helvetica,sans-Serif" font-size="10.00">BipedalLocomotion/IK</text>
<text text-anchor="middle" x="549" y="-465.5" font-family="Helvetica,sans-Serif" font-size="10.00">/QPInverseKinematics.h</text>
</a>
</g>
</g>
<!-- Node1&#45;&gt;Node4 -->
<g id="edge3" class="edge">
<title>Node1&#45;&gt;Node4</title>
<path fill="none" stroke="midnightblue" d="M935.38,-525.48C853.62,-514.69 712.96,-496.13 625.8,-484.63"/>
<polygon fill="midnightblue" stroke="midnightblue" points="626.07,-481.14 615.7,-483.3 625.16,-488.08 626.07,-481.14"/>
</g>
<!-- Node28 -->
<g id="node28" class="node">
<title>Node28</title>
<g id="a_node28"><a xlink:href="Logger_8h.html" target="_top" xlink:title=" ">
<polygon fill="none" stroke="black" points="1075,-458.5 1075,-488.5 1247,-488.5 1247,-458.5 1075,-458.5"/>
<text text-anchor="start" x="1083" y="-476.5" font-family="Helvetica,sans-Serif" font-size="10.00">BipedalLocomotion/TextLogging</text>
<text text-anchor="middle" x="1161" y="-465.5" font-family="Helvetica,sans-Serif" font-size="10.00">/Logger.h</text>
</a>
</g>
</g>
<!-- Node1&#45;&gt;Node28 -->
<g id="edge47" class="edge">
<title>Node1&#45;&gt;Node28</title>
<path fill="none" stroke="midnightblue" d="M1023.07,-525.48C1046.6,-516.78 1083.81,-503.03 1113.65,-492"/>
<polygon fill="midnightblue" stroke="midnightblue" points="1114.89,-495.27 1123.06,-488.52 1112.46,-488.71 1114.89,-495.27"/>
</g>
<!-- Node4&#45;&gt;Node2 -->
<g id="edge4" class="edge">
<title>Node4&#45;&gt;Node2</title>
<path fill="none" stroke="midnightblue" d="M482.09,-470.94C369.46,-467.39 147.46,-456.16 78,-422 33.01,-399.87 0,-390.64 0,-340.5 0,-340.5 0,-340.5 0,-204.5 0,-115.31 317.66,-83.55 430.67,-75.08"/>
<polygon fill="midnightblue" stroke="midnightblue" points="431.23,-78.55 440.95,-74.33 430.73,-71.57 431.23,-78.55"/>
</g>
<!-- Node5 -->
<g id="node5" class="node">
<title>Node5</title>
<g id="a_node5"><a xlink:title=" ">
<polygon fill="none" stroke="#bfbfbf" points="951.5,-129 951.5,-148 998.5,-148 998.5,-129 951.5,-129"/>
<text text-anchor="middle" x="975" y="-136" font-family="Helvetica,sans-Serif" font-size="10.00">vector</text>
</a>
</g>
</g>
<!-- Node4&#45;&gt;Node5 -->
<g id="edge5" class="edge">
<title>Node4&#45;&gt;Node5</title>
<path fill="none" stroke="midnightblue" d="M615.89,-467.3C743.47,-455.52 1009,-421.3 1009,-340.5 1009,-340.5 1009,-340.5 1009,-271.5 1009,-229.67 992.79,-182.68 982.76,-157.59"/>
<polygon fill="midnightblue" stroke="midnightblue" points="985.96,-156.17 978.9,-148.26 979.49,-158.84 985.96,-156.17"/>
</g>
<!-- Node6 -->
<g id="node6" class="node">
<title>Node6</title>
<g id="a_node6"><a xlink:title=" ">
<polygon fill="none" stroke="#bfbfbf" points="526,-129 526,-148 570,-148 570,-129 526,-129"/>
<text text-anchor="middle" x="548" y="-136" font-family="Helvetica,sans-Serif" font-size="10.00">string</text>
</a>
</g>
</g>
<!-- Node4&#45;&gt;Node6 -->
<g id="edge6" class="edge">
<title>Node4&#45;&gt;Node6</title>
<path fill="none" stroke="midnightblue" d="M482.46,-469.23C344.07,-460.6 38,-431.27 38,-340.5 38,-340.5 38,-340.5 38,-271.5 38,-172.38 403.63,-146.48 515.72,-140.87"/>
<polygon fill="midnightblue" stroke="midnightblue" points="515.94,-144.36 525.76,-140.39 515.6,-137.37 515.94,-144.36"/>
</g>
<!-- Node7 -->
<g id="node7" class="node">
<title>Node7</title>
<g id="a_node7"><a xlink:title=" ">
<polygon fill="none" stroke="#bfbfbf" points="66.5,-263 66.5,-282 143.5,-282 143.5,-263 66.5,-263"/>
<text text-anchor="middle" x="105" y="-270" font-family="Helvetica,sans-Serif" font-size="10.00">Eigen/Dense</text>
</a>
</g>
</g>
<!-- Node4&#45;&gt;Node7 -->
<g id="edge7" class="edge">
<title>Node4&#45;&gt;Node7</title>
<path fill="none" stroke="midnightblue" d="M484.37,-458.47C412.11,-441.05 293.14,-407.11 201,-355 169.32,-337.08 138.24,-307.99 120.38,-289.85"/>
<polygon fill="midnightblue" stroke="midnightblue" points="122.61,-287.12 113.15,-282.36 117.58,-291.98 122.61,-287.12"/>
</g>
<!-- Node8 -->
<g id="node8" class="node">
<title>Node8</title>
<g id="a_node8"><a xlink:href="IntegrationBasedIK_8h.html" target="_top" xlink:title=" ">
<polygon fill="none" stroke="black" points="487.5,-391.5 487.5,-421.5 610.5,-421.5 610.5,-391.5 487.5,-391.5"/>
<text text-anchor="start" x="495.5" y="-409.5" font-family="Helvetica,sans-Serif" font-size="10.00">BipedalLocomotion/IK</text>
<text text-anchor="middle" x="549" y="-398.5" font-family="Helvetica,sans-Serif" font-size="10.00">/IntegrationBasedIK.h</text>
</a>
</g>
</g>
<!-- Node4&#45;&gt;Node8 -->
<g id="edge8" class="edge">
<title>Node4&#45;&gt;Node8</title>
<path fill="none" stroke="midnightblue" d="M549,-458.4C549,-450.64 549,-440.81 549,-431.86"/>
<polygon fill="midnightblue" stroke="midnightblue" points="552.5,-431.58 549,-421.58 545.5,-431.58 552.5,-431.58"/>
</g>
<!-- Node11 -->
<g id="node11" class="node">
<title>Node11</title>
<g id="a_node11"><a xlink:href="IParametersHandler_8h.html" target="_top" xlink:title=" ">
<polygon fill="none" stroke="black" points="651.5,-190.5 651.5,-220.5 820.5,-220.5 820.5,-190.5 651.5,-190.5"/>
<text text-anchor="start" x="659.5" y="-208.5" font-family="Helvetica,sans-Serif" font-size="10.00">BipedalLocomotion/Parameters</text>
<text text-anchor="middle" x="736" y="-197.5" font-family="Helvetica,sans-Serif" font-size="10.00">Handler/IParametersHandler.h</text>
</a>
</g>
</g>
<!-- Node4&#45;&gt;Node11 -->
<g id="edge44" class="edge">
<title>Node4&#45;&gt;Node11</title>
<path fill="none" stroke="midnightblue" d="M615.73,-468.89C675.19,-463.8 763.59,-451.52 835,-422 883.08,-402.12 905.24,-400.21 931,-355 952.59,-317.11 962.8,-291.41 936,-257 928.4,-247.25 870.8,-233.32 819.35,-222.56"/>
<polygon fill="midnightblue" stroke="midnightblue" points="820,-219.12 809.5,-220.52 818.58,-225.98 820,-219.12"/>
</g>
<!-- Node22 -->
<g id="node22" class="node">
<title>Node22</title>
<g id="a_node22"><a xlink:href="Advanceable_8h.html" target="_top" xlink:title=" ">
<polygon fill="none" stroke="black" points="777,-257.5 777,-287.5 927,-287.5 927,-257.5 777,-257.5"/>
<text text-anchor="start" x="785" y="-275.5" font-family="Helvetica,sans-Serif" font-size="10.00">BipedalLocomotion/System</text>
<text text-anchor="middle" x="852" y="-264.5" font-family="Helvetica,sans-Serif" font-size="10.00">/Advanceable.h</text>
</a>
</g>
</g>
<!-- Node4&#45;&gt;Node22 -->
<g id="edge45" class="edge">
<title>Node4&#45;&gt;Node22</title>
<path fill="none" stroke="midnightblue" d="M615.89,-460.62C711.21,-442.16 878.57,-403.62 914,-355 929.5,-333.72 906.33,-309.79 884.03,-293.4"/>
<polygon fill="midnightblue" stroke="midnightblue" points="885.81,-290.37 875.61,-287.5 881.8,-296.1 885.81,-290.37"/>
</g>
<!-- Node24 -->
<g id="node24" class="node">
<title>Node24</title>
<g id="a_node24"><a xlink:href="LinearTask_8h.html" target="_top" xlink:title=" ">
<polygon fill="none" stroke="black" points="287,-324.5 287,-354.5 437,-354.5 437,-324.5 287,-324.5"/>
<text text-anchor="start" x="295" y="-342.5" font-family="Helvetica,sans-Serif" font-size="10.00">BipedalLocomotion/System</text>
<text text-anchor="middle" x="362" y="-331.5" font-family="Helvetica,sans-Serif" font-size="10.00">/LinearTask.h</text>
</a>
</g>
</g>
<!-- Node4&#45;&gt;Node24 -->
<g id="edge46" class="edge">
<title>Node4&#45;&gt;Node24</title>
<path fill="none" stroke="midnightblue" d="M528.99,-458.37C495.67,-434.85 428.71,-387.59 390.48,-360.6"/>
<polygon fill="midnightblue" stroke="midnightblue" points="392.06,-357.43 381.87,-354.52 388.02,-363.15 392.06,-357.43"/>
</g>
<!-- Node8&#45;&gt;Node2 -->
<g id="edge9" class="edge">
<title>Node8&#45;&gt;Node2</title>
<path fill="none" stroke="midnightblue" d="M543.05,-391.45C536.85,-374.56 529.4,-345.76 540,-324 551.37,-300.66 574.46,-311.25 586,-288 618.64,-222.26 622.12,-182.4 579,-123 574.03,-116.15 531.49,-97.66 501.05,-85.06"/>
<polygon fill="midnightblue" stroke="midnightblue" points="502.24,-81.77 491.66,-81.2 499.58,-88.24 502.24,-81.77"/>
</g>
<!-- Node8&#45;&gt;Node6 -->
<g id="edge10" class="edge">
<title>Node8&#45;&gt;Node6</title>
<path fill="none" stroke="midnightblue" d="M532.85,-391.48C516.03,-375.1 493.82,-347.27 507,-324 522.32,-296.94 551.68,-315.06 567,-288 590.72,-246.1 570.16,-187.08 556.99,-157.66"/>
<polygon fill="midnightblue" stroke="midnightblue" points="559.98,-155.8 552.56,-148.24 553.65,-158.78 559.98,-155.8"/>
</g>
<!-- Node8&#45;&gt;Node7 -->
<g id="edge12" class="edge">
<title>Node8&#45;&gt;Node7</title>
<path fill="none" stroke="midnightblue" d="M487.35,-398.58C431.69,-391.27 348.02,-377.6 278,-355 222.21,-336.99 161.08,-305.05 128.52,-286.97"/>
<polygon fill="midnightblue" stroke="midnightblue" points="130.17,-283.88 119.74,-282.04 126.75,-289.99 130.17,-283.88"/>
</g>
<!-- Node9 -->
<g id="node9" class="node">
<title>Node9</title>
<g id="a_node9"><a xlink:title=" ">
<polygon fill="none" stroke="#bfbfbf" points="549,-330 549,-349 605,-349 605,-330 549,-330"/>
<text text-anchor="middle" x="577" y="-337" font-family="Helvetica,sans-Serif" font-size="10.00">optional</text>
</a>
</g>
</g>
<!-- Node8&#45;&gt;Node9 -->
<g id="edge11" class="edge">
<title>Node8&#45;&gt;Node9</title>
<path fill="none" stroke="midnightblue" d="M555.08,-391.4C559.23,-381.76 564.76,-368.91 569.23,-358.54"/>
<polygon fill="midnightblue" stroke="midnightblue" points="572.51,-359.76 573.25,-349.19 566.08,-356.99 572.51,-359.76"/>
</g>
<!-- Node10 -->
<g id="node10" class="node">
<title>Node10</title>
<g id="a_node10"><a xlink:title=" ">
<polygon fill="none" stroke="#bfbfbf" points="623.5,-330 623.5,-349 698.5,-349 698.5,-330 623.5,-330"/>
<text text-anchor="middle" x="661" y="-337" font-family="Helvetica,sans-Serif" font-size="10.00">manif/SE3.h</text>
</a>
</g>
</g>
<!-- Node8&#45;&gt;Node10 -->
<g id="edge13" class="edge">
<title>Node8&#45;&gt;Node10</title>
<path fill="none" stroke="midnightblue" d="M573.3,-391.4C592.35,-380.34 618.68,-365.06 637.51,-354.13"/>
<polygon fill="midnightblue" stroke="midnightblue" points="639.45,-357.05 646.34,-349.01 635.94,-351 639.45,-357.05"/>
</g>
<!-- Node8&#45;&gt;Node11 -->
<g id="edge14" class="edge">
<title>Node8&#45;&gt;Node11</title>
<path fill="none" stroke="midnightblue" d="M610.8,-400.7C643.92,-394.86 682.78,-382.22 707,-355 737.62,-320.59 739.9,-263.66 738.3,-231.2"/>
<polygon fill="midnightblue" stroke="midnightblue" points="741.76,-230.56 737.61,-220.81 734.78,-231.02 741.76,-230.56"/>
</g>
<!-- Node21 -->
<g id="node21" class="node">
<title>Node21</title>
<g id="a_node21"><a xlink:href="Source_8h.html" target="_top" xlink:title=" ">
<polygon fill="none" stroke="black" points="755,-324.5 755,-354.5 905,-354.5 905,-324.5 755,-324.5"/>
<text text-anchor="start" x="763" y="-342.5" font-family="Helvetica,sans-Serif" font-size="10.00">BipedalLocomotion/System</text>
<text text-anchor="middle" x="830" y="-331.5" font-family="Helvetica,sans-Serif" font-size="10.00">/Source.h</text>
</a>
</g>
</g>
<!-- Node8&#45;&gt;Node21 -->
<g id="edge29" class="edge">
<title>Node8&#45;&gt;Node21</title>
<path fill="none" stroke="midnightblue" d="M609.63,-391.48C653.52,-381.32 712.98,-367.57 759.08,-356.91"/>
<polygon fill="midnightblue" stroke="midnightblue" points="760.04,-360.27 769,-354.61 758.47,-353.45 760.04,-360.27"/>
</g>
<!-- Node8&#45;&gt;Node24 -->
<g id="edge33" class="edge">
<title>Node8&#45;&gt;Node24</title>
<path fill="none" stroke="midnightblue" d="M508.42,-391.4C480.12,-381.56 442.17,-368.37 412,-357.88"/>
<polygon fill="midnightblue" stroke="midnightblue" points="413.09,-354.55 402.5,-354.58 410.79,-361.17 413.09,-354.55"/>
</g>
<!-- Node11&#45;&gt;Node2 -->
<g id="edge15" class="edge">
<title>Node11&#45;&gt;Node2</title>
<path fill="none" stroke="midnightblue" d="M720.64,-190.35C697.85,-169.59 655.84,-132.33 638,-123 584.88,-95.21 564.96,-105.71 508,-87 505.74,-86.26 503.41,-85.46 501.07,-84.63"/>
<polygon fill="midnightblue" stroke="midnightblue" points="502.17,-81.3 491.58,-81.14 499.75,-87.87 502.17,-81.3"/>
</g>
<!-- Node11&#45;&gt;Node5 -->
<g id="edge17" class="edge">
<title>Node11&#45;&gt;Node5</title>
<path fill="none" stroke="midnightblue" d="M787.57,-190.48C834.27,-177.77 901.71,-159.43 941.68,-148.56"/>
<polygon fill="midnightblue" stroke="midnightblue" points="942.73,-151.9 951.46,-145.9 940.89,-145.15 942.73,-151.9"/>
</g>
<!-- Node11&#45;&gt;Node6 -->
<g id="edge16" class="edge">
<title>Node11&#45;&gt;Node6</title>
<path fill="none" stroke="midnightblue" d="M695.21,-190.4C660.61,-178.44 611.68,-161.52 579.9,-150.53"/>
<polygon fill="midnightblue" stroke="midnightblue" points="580.82,-147.14 570.22,-147.18 578.53,-153.76 580.82,-147.14"/>
</g>
<!-- Node12 -->
<g id="node12" class="node">
<title>Node12</title>
<g id="a_node12"><a xlink:href="TemplateHelpers_8h_source.html" target="_top" xlink:title=" ">
<polygon fill="none" stroke="black" points="888,-56.5 888,-86.5 1046,-86.5 1046,-56.5 888,-56.5"/>
<text text-anchor="start" x="896" y="-74.5" font-family="Helvetica,sans-Serif" font-size="10.00">BipedalLocomotion/Generic</text>
<text text-anchor="middle" x="967" y="-63.5" font-family="Helvetica,sans-Serif" font-size="10.00">Container/TemplateHelpers.h</text>
</a>
</g>
</g>
<!-- Node11&#45;&gt;Node12 -->
<g id="edge18" class="edge">
<title>Node11&#45;&gt;Node12</title>
<path fill="none" stroke="midnightblue" d="M772.54,-190.4C795.35,-181.1 825.01,-168.07 850,-154 882.71,-135.59 917.72,-110.39 940.83,-92.91"/>
<polygon fill="midnightblue" stroke="midnightblue" points="943.24,-95.47 949.07,-86.62 939,-89.91 943.24,-95.47"/>
</g>
<!-- Node16 -->
<g id="node16" class="node">
<title>Node16</title>
<g id="a_node16"><a xlink:href="Vector_8h_source.html" target="_top" xlink:title=" ">
<polygon fill="none" stroke="black" points="690.5,-123.5 690.5,-153.5 841.5,-153.5 841.5,-123.5 690.5,-123.5"/>
<text text-anchor="start" x="698.5" y="-141.5" font-family="Helvetica,sans-Serif" font-size="10.00">BipedalLocomotion/Generic</text>
<text text-anchor="middle" x="766" y="-130.5" font-family="Helvetica,sans-Serif" font-size="10.00">Container/Vector.h</text>
</a>
</g>
</g>
<!-- Node11&#45;&gt;Node16 -->
<g id="edge22" class="edge">
<title>Node11&#45;&gt;Node16</title>
<path fill="none" stroke="midnightblue" d="M742.51,-190.4C746.24,-182.3 751.03,-171.94 755.3,-162.69"/>
<polygon fill="midnightblue" stroke="midnightblue" points="758.49,-164.12 759.5,-153.58 752.13,-161.19 758.49,-164.12"/>
</g>
<!-- Node13 -->
<g id="node13" class="node">
<title>Node13</title>
<g id="a_node13"><a xlink:title=" ">
<polygon fill="none" stroke="#bfbfbf" points="843.5,-0.5 843.5,-19.5 912.5,-19.5 912.5,-0.5 843.5,-0.5"/>
<text text-anchor="middle" x="878" y="-7.5" font-family="Helvetica,sans-Serif" font-size="10.00">type_traits</text>
</a>
</g>
</g>
<!-- Node12&#45;&gt;Node13 -->
<g id="edge19" class="edge">
<title>Node12&#45;&gt;Node13</title>
<path fill="none" stroke="midnightblue" d="M945.91,-56.4C931.91,-47.04 913.59,-34.79 899.51,-25.38"/>
<polygon fill="midnightblue" stroke="midnightblue" points="901.21,-22.31 890.95,-19.66 897.32,-28.13 901.21,-22.31"/>
</g>
<!-- Node14 -->
<g id="node14" class="node">
<title>Node14</title>
<g id="a_node14"><a xlink:title=" ">
<polygon fill="none" stroke="#bfbfbf" points="930.5,-0.5 930.5,-19.5 1003.5,-19.5 1003.5,-0.5 930.5,-0.5"/>
<text text-anchor="middle" x="967" y="-7.5" font-family="Helvetica,sans-Serif" font-size="10.00">string_view</text>
</a>
</g>
</g>
<!-- Node12&#45;&gt;Node14 -->
<g id="edge20" class="edge">
<title>Node12&#45;&gt;Node14</title>
<path fill="none" stroke="midnightblue" d="M967,-56.4C967,-48.47 967,-38.46 967,-29.86"/>
<polygon fill="midnightblue" stroke="midnightblue" points="970.5,-29.66 967,-19.66 963.5,-29.66 970.5,-29.66"/>
</g>
<!-- Node15 -->
<g id="node15" class="node">
<title>Node15</title>
<g id="a_node15"><a xlink:title=" ">
<polygon fill="none" stroke="#bfbfbf" points="1021.5,-0.5 1021.5,-19.5 1090.5,-19.5 1090.5,-0.5 1021.5,-0.5"/>
<text text-anchor="middle" x="1056" y="-7.5" font-family="Helvetica,sans-Serif" font-size="10.00">Eigen/Core</text>
</a>
</g>
</g>
<!-- Node12&#45;&gt;Node15 -->
<g id="edge21" class="edge">
<title>Node12&#45;&gt;Node15</title>
<path fill="none" stroke="midnightblue" d="M988.09,-56.4C1002.09,-47.04 1020.41,-34.79 1034.49,-25.38"/>
<polygon fill="midnightblue" stroke="midnightblue" points="1036.68,-28.13 1043.05,-19.66 1032.79,-22.31 1036.68,-28.13"/>
</g>
<!-- Node16&#45;&gt;Node2 -->
<g id="edge28" class="edge">
<title>Node16&#45;&gt;Node2</title>
<path fill="none" stroke="midnightblue" d="M690.3,-124.17C626.89,-112.72 541.51,-96.6 508,-87 505.42,-86.26 502.76,-85.42 500.11,-84.52"/>
<polygon fill="midnightblue" stroke="midnightblue" points="501.28,-81.23 490.69,-81.13 498.91,-87.81 501.28,-81.23"/>
</g>
<!-- Node16&#45;&gt;Node12 -->
<g id="edge24" class="edge">
<title>Node16&#45;&gt;Node12</title>
<path fill="none" stroke="midnightblue" d="M809.61,-123.4C840.17,-113.52 881.18,-100.25 913.68,-89.74"/>
<polygon fill="midnightblue" stroke="midnightblue" points="915.03,-92.98 923.47,-86.58 912.88,-86.32 915.03,-92.98"/>
</g>
<!-- Node17 -->
<g id="node17" class="node">
<title>Node17</title>
<g id="a_node17"><a xlink:title=" ">
<polygon fill="none" stroke="#bfbfbf" points="517.5,-62 517.5,-81 638.5,-81 638.5,-62 517.5,-62"/>
<text text-anchor="middle" x="578" y="-69" font-family="Helvetica,sans-Serif" font-size="10.00">iDynTree/Core/Span.h</text>
</a>
</g>
</g>
<!-- Node16&#45;&gt;Node17 -->
<g id="edge23" class="edge">
<title>Node16&#45;&gt;Node17</title>
<path fill="none" stroke="midnightblue" d="M725.21,-123.4C691.49,-111.74 644.16,-95.37 612.35,-84.38"/>
<polygon fill="midnightblue" stroke="midnightblue" points="613.2,-80.97 602.6,-81.01 610.91,-87.58 613.2,-80.97"/>
</g>
<!-- Node18 -->
<g id="node18" class="node">
<title>Node18</title>
<g id="a_node18"><a xlink:title=" ">
<polygon fill="none" stroke="#bfbfbf" points="656.5,-62 656.5,-81 721.5,-81 721.5,-62 656.5,-62"/>
<text text-anchor="middle" x="689" y="-69" font-family="Helvetica,sans-Serif" font-size="10.00">functional</text>
</a>
</g>
</g>
<!-- Node16&#45;&gt;Node18 -->
<g id="edge25" class="edge">
<title>Node16&#45;&gt;Node18</title>
<path fill="none" stroke="midnightblue" d="M749.29,-123.4C736.81,-112.86 719.77,-98.48 706.99,-87.69"/>
<polygon fill="midnightblue" stroke="midnightblue" points="709.2,-84.97 699.3,-81.19 704.68,-90.32 709.2,-84.97"/>
</g>
<!-- Node19 -->
<g id="node19" class="node">
<title>Node19</title>
<g id="a_node19"><a xlink:title=" ">
<polygon fill="none" stroke="#bfbfbf" points="740,-62 740,-81 792,-81 792,-62 740,-62"/>
<text text-anchor="middle" x="766" y="-69" font-family="Helvetica,sans-Serif" font-size="10.00">cassert</text>
</a>
</g>
</g>
<!-- Node16&#45;&gt;Node19 -->
<g id="edge26" class="edge">
<title>Node16&#45;&gt;Node19</title>
<path fill="none" stroke="midnightblue" d="M766,-123.4C766,-114.06 766,-101.71 766,-91.52"/>
<polygon fill="midnightblue" stroke="midnightblue" points="769.5,-91.19 766,-81.19 762.5,-91.19 769.5,-91.19"/>
</g>
<!-- Node20 -->
<g id="node20" class="node">
<title>Node20</title>
<g id="a_node20"><a xlink:title=" ">
<polygon fill="none" stroke="#bfbfbf" points="810,-62 810,-81 870,-81 870,-62 810,-62"/>
<text text-anchor="middle" x="840" y="-69" font-family="Helvetica,sans-Serif" font-size="10.00">iostream</text>
</a>
</g>
</g>
<!-- Node16&#45;&gt;Node20 -->
<g id="edge27" class="edge">
<title>Node16&#45;&gt;Node20</title>
<path fill="none" stroke="midnightblue" d="M782.06,-123.4C793.94,-112.96 810.11,-98.75 822.36,-88"/>
<polygon fill="midnightblue" stroke="midnightblue" points="824.9,-90.42 830.1,-81.19 820.28,-85.16 824.9,-90.42"/>
</g>
<!-- Node21&#45;&gt;Node22 -->
<g id="edge30" class="edge">
<title>Node21&#45;&gt;Node22</title>
<path fill="none" stroke="midnightblue" d="M834.77,-324.4C837.45,-316.47 840.87,-306.38 843.95,-297.27"/>
<polygon fill="midnightblue" stroke="midnightblue" points="847.34,-298.17 847.24,-287.58 840.71,-295.93 847.34,-298.17"/>
</g>
<!-- Node22&#45;&gt;Node11 -->
<g id="edge32" class="edge">
<title>Node22&#45;&gt;Node11</title>
<path fill="none" stroke="midnightblue" d="M826.83,-257.4C810.26,-248.11 788.36,-235.84 770.22,-225.67"/>
<polygon fill="midnightblue" stroke="midnightblue" points="771.56,-222.41 761.12,-220.58 768.13,-228.52 771.56,-222.41"/>
</g>
<!-- Node23 -->
<g id="node23" class="node">
<title>Node23</title>
<g id="a_node23"><a xlink:title=" ">
<polygon fill="none" stroke="#bfbfbf" points="838.5,-196 838.5,-215 889.5,-215 889.5,-196 838.5,-196"/>
<text text-anchor="middle" x="864" y="-203" font-family="Helvetica,sans-Serif" font-size="10.00">variant</text>
</a>
</g>
</g>
<!-- Node22&#45;&gt;Node23 -->
<g id="edge31" class="edge">
<title>Node22&#45;&gt;Node23</title>
<path fill="none" stroke="midnightblue" d="M854.6,-257.4C856.35,-247.96 858.66,-235.45 860.55,-225.19"/>
<polygon fill="midnightblue" stroke="midnightblue" points="864.02,-225.66 862.39,-215.19 857.14,-224.39 864.02,-225.66"/>
</g>
<!-- Node24&#45;&gt;Node2 -->
<g id="edge34" class="edge">
<title>Node24&#45;&gt;Node2</title>
<path fill="none" stroke="midnightblue" d="M286.74,-329.44C261.31,-322.37 235.46,-309.91 220,-288 212.06,-276.74 216.34,-270.28 220,-257 246.82,-159.76 367.85,-106.14 431.15,-84.29"/>
<polygon fill="midnightblue" stroke="midnightblue" points="432.42,-87.56 440.79,-81.06 430.19,-80.92 432.42,-87.56"/>
</g>
<!-- Node24&#45;&gt;Node6 -->
<g id="edge35" class="edge">
<title>Node24&#45;&gt;Node6</title>
<path fill="none" stroke="midnightblue" d="M297.36,-324.38C253.14,-311.53 206.31,-289.54 229,-257 295.52,-161.62 448.61,-143.45 515.61,-140.15"/>
<polygon fill="midnightblue" stroke="midnightblue" points="516.12,-143.63 525.97,-139.72 515.83,-136.64 516.12,-143.63"/>
</g>
<!-- Node24&#45;&gt;Node7 -->
<g id="edge36" class="edge">
<title>Node24&#45;&gt;Node7</title>
<path fill="none" stroke="midnightblue" d="M303.43,-324.4C262.6,-314.48 206.9,-300.74 158,-288 153.95,-286.94 149.73,-285.83 145.52,-284.69"/>
<polygon fill="midnightblue" stroke="midnightblue" points="146.36,-281.3 135.79,-282.06 144.53,-288.05 146.36,-281.3"/>
</g>
<!-- Node24&#45;&gt;Node11 -->
<g id="edge38" class="edge">
<title>Node24&#45;&gt;Node11</title>
<path fill="none" stroke="midnightblue" d="M434.71,-324.45C474.4,-315.82 524.06,-303.45 567,-288 615.47,-270.56 668.54,-243.57 702.04,-225.48"/>
<polygon fill="midnightblue" stroke="midnightblue" points="703.84,-228.48 710.95,-220.63 700.49,-222.34 703.84,-228.48"/>
</g>
<!-- Node25 -->
<g id="node25" class="node">
<title>Node25</title>
<g id="a_node25"><a xlink:title=" ">
<polygon fill="none" stroke="#bfbfbf" points="238,-263 238,-282 390,-282 390,-263 238,-263"/>
<text text-anchor="middle" x="314" y="-270" font-family="Helvetica,sans-Serif" font-size="10.00">iDynTree/Core/MatrixView.h</text>
</a>
</g>
</g>
<!-- Node24&#45;&gt;Node25 -->
<g id="edge37" class="edge">
<title>Node24&#45;&gt;Node25</title>
<path fill="none" stroke="midnightblue" d="M351.58,-324.4C344.17,-314.36 334.19,-300.84 326.37,-290.25"/>
<polygon fill="midnightblue" stroke="midnightblue" points="329.18,-288.16 320.42,-282.19 323.55,-292.32 329.18,-288.16"/>
</g>
<!-- Node26 -->
<g id="node26" class="node">
<title>Node26</title>
<g id="a_node26"><a xlink:href="VariablesHandler_8h.html" target="_top" xlink:title=" ">
<polygon fill="none" stroke="black" points="408,-257.5 408,-287.5 558,-287.5 558,-257.5 408,-257.5"/>
<text text-anchor="start" x="416" y="-275.5" font-family="Helvetica,sans-Serif" font-size="10.00">BipedalLocomotion/System</text>
<text text-anchor="middle" x="483" y="-264.5" font-family="Helvetica,sans-Serif" font-size="10.00">/VariablesHandler.h</text>
</a>
</g>
</g>
<!-- Node24&#45;&gt;Node26 -->
<g id="edge39" class="edge">
<title>Node24&#45;&gt;Node26</title>
<path fill="none" stroke="midnightblue" d="M388.26,-324.4C405.7,-315.03 428.8,-302.62 447.83,-292.39"/>
<polygon fill="midnightblue" stroke="midnightblue" points="449.64,-295.39 456.8,-287.58 446.33,-289.23 449.64,-295.39"/>
</g>
<!-- Node26&#45;&gt;Node2 -->
<g id="edge41" class="edge">
<title>Node26&#45;&gt;Node2</title>
<path fill="none" stroke="midnightblue" d="M454.09,-257.45C440.15,-248.99 424.8,-236.78 417,-221 394.35,-175.16 432.97,-117.16 455.51,-89.14"/>
<polygon fill="midnightblue" stroke="midnightblue" points="458.45,-91.08 462.16,-81.16 453.07,-86.6 458.45,-91.08"/>
</g>
<!-- Node26&#45;&gt;Node6 -->
<g id="edge40" class="edge">
<title>Node26&#45;&gt;Node6</title>
<path fill="none" stroke="midnightblue" d="M499.37,-257.09C509.04,-247.72 520.78,-234.72 528,-221 538.47,-201.09 543.59,-175.56 546,-158.42"/>
<polygon fill="midnightblue" stroke="midnightblue" points="549.52,-158.42 547.27,-148.07 542.58,-157.57 549.52,-158.42"/>
</g>
<!-- Node26&#45;&gt;Node11 -->
<g id="edge43" class="edge">
<title>Node26&#45;&gt;Node11</title>
<path fill="none" stroke="midnightblue" d="M537.59,-257.48C576.85,-247.39 629.97,-233.74 671.36,-223.11"/>
<polygon fill="midnightblue" stroke="midnightblue" points="672.26,-226.49 681.08,-220.61 670.52,-219.71 672.26,-226.49"/>
</g>
<!-- Node27 -->
<g id="node27" class="node">
<title>Node27</title>
<g id="a_node27"><a xlink:title=" ">
<polygon fill="none" stroke="#bfbfbf" points="426.5,-196 426.5,-215 519.5,-215 519.5,-196 426.5,-196"/>
<text text-anchor="middle" x="473" y="-203" font-family="Helvetica,sans-Serif" font-size="10.00">unordered_map</text>
</a>
</g>
</g>
<!-- Node26&#45;&gt;Node27 -->
<g id="edge42" class="edge">
<title>Node26&#45;&gt;Node27</title>
<path fill="none" stroke="midnightblue" d="M480.83,-257.4C479.38,-247.96 477.45,-235.45 475.88,-225.19"/>
<polygon fill="midnightblue" stroke="midnightblue" points="479.32,-224.55 474.34,-215.19 472.4,-225.61 479.32,-224.55"/>
</g>
<!-- Node29 -->
<g id="node29" class="node">
<title>Node29</title>
<g id="a_node29"><a xlink:title=" ">
<polygon fill="none" stroke="#bfbfbf" points="1205.5,-397 1205.5,-416 1304.5,-416 1304.5,-397 1205.5,-397"/>
<text text-anchor="middle" x="1255" y="-404" font-family="Helvetica,sans-Serif" font-size="10.00">spdlog/fmt/ostr.h</text>
</a>
</g>
</g>
<!-- Node28&#45;&gt;Node29 -->
<g id="edge48" class="edge">
<title>Node28&#45;&gt;Node29</title>
<path fill="none" stroke="midnightblue" d="M1181.4,-458.4C1197.01,-447.6 1218.48,-432.76 1234.19,-421.89"/>
<polygon fill="midnightblue" stroke="midnightblue" points="1236.46,-424.57 1242.7,-416.01 1232.48,-418.82 1236.46,-424.57"/>
</g>
<!-- Node30 -->
<g id="node30" class="node">
<title>Node30</title>
<g id="a_node30"><a xlink:title=" ">
<polygon fill="none" stroke="#bfbfbf" points="1094.5,-397 1094.5,-416 1187.5,-416 1187.5,-397 1094.5,-397"/>
<text text-anchor="middle" x="1141" y="-404" font-family="Helvetica,sans-Serif" font-size="10.00">spdlog/spdlog.h</text>
</a>
</g>
</g>
<!-- Node28&#45;&gt;Node30 -->
<g id="edge49" class="edge">
<title>Node28&#45;&gt;Node30</title>
<path fill="none" stroke="midnightblue" d="M1156.66,-458.4C1153.73,-448.86 1149.83,-436.18 1146.65,-425.86"/>
<polygon fill="midnightblue" stroke="midnightblue" points="1149.96,-424.72 1143.68,-416.19 1143.27,-426.78 1149.96,-424.72"/>
</g>
</g>
</svg>
        <g id="navigator" transform="translate(0 0)" fill="#404254">
                <rect fill="#f2f5e9" fill-opacity="0.5" stroke="#606060" stroke-width=".5" x="0" y="0" width="60" height="60"/>
                <use id="zoomplus" xlink:href="#zoomPlus" x="17" y="9" onmousedown="handleZoom(evt,'in')"/>
                <use id="zoomminus" xlink:href="#zoomMin" x="42" y="9" onmousedown="handleZoom(evt,'out')"/>
                <use id="reset" xlink:href="#resetDef" x="30" y="36" onmousedown="handleReset()"/>
                <g id="arrowUp" xlink:href="#dirArrow" transform="translate(30 24)" onmousedown="handlePan(0,-1)">
                  <use xlink:href="#rim" fill="#404040">
                        <set attributeName="fill" to="#808080" begin="arrowUp.mouseover" end="arrowUp.mouseout"/>
                  </use>
                  <path fill="none" stroke="white" stroke-width="1.5" d="M0,-3.0v7 M-2.5,-0.5L0,-3.0L2.5,-0.5"/>
                </g>
                <g id="arrowRight" xlink:href="#dirArrow" transform="rotate(90) translate(36 -43)" onmousedown="handlePan(1,0)">
                  <use xlink:href="#rim" fill="#404040">
                        <set attributeName="fill" to="#808080" begin="arrowRight.mouseover" end="arrowRight.mouseout"/>
                  </use>
                  <path fill="none" stroke="white" stroke-width="1.5" d="M0,-3.0v7 M-2.5,-0.5L0,-3.0L2.5,-0.5"/>
                </g>
                <g id="arrowDown" xlink:href="#dirArrow" transform="rotate(180) translate(-30 -48)" onmousedown="handlePan(0,1)">
                  <use xlink:href="#rim" fill="#404040">
                        <set attributeName="fill" to="#808080" begin="arrowDown.mouseover" end="arrowDown.mouseout"/>
                  </use>
                  <path fill="none" stroke="white" stroke-width="1.5" d="M0,-3.0v7 M-2.5,-0.5L0,-3.0L2.5,-0.5"/>
                </g>
                <g id="arrowLeft" xlink:href="#dirArrow" transform="rotate(270) translate(-36 17)" onmousedown="handlePan(-1,0)">
                  <use xlink:href="#rim" fill="#404040">
                        <set attributeName="fill" to="#808080" begin="arrowLeft.mouseover" end="arrowLeft.mouseout"/>
                  </use>
                  <path fill="none" stroke="white" stroke-width="1.5" d="M0,-3.0v7 M-2.5,-0.5L0,-3.0L2.5,-0.5"/>
                </g>
        </g>
        <svg viewBox="0 0 15 15" width="100%" height="30px" preserveAspectRatio="xMaxYMin meet">
         <g id="arrow_out" transform="scale(0.3 0.3)">
          <a xlink:href="QPInverseKinematics_8cpp__incl_org.svg" target="_base">
           <rect id="button" ry="5" rx="5" y="6" x="6" height="38" width="38"
                fill="#f2f5e9" fill-opacity="0.5" stroke="#606060" stroke-width="1.0"/>
           <path id="arrow"
             d="M 11.500037,31.436501 C 11.940474,20.09759 22.043105,11.32322 32.158766,21.979434 L 37.068811,17.246167 C 37.068811,17.246167 37.088388,32 37.088388,32 L 22.160133,31.978069 C 22.160133,31.978069 26.997745,27.140456 26.997745,27.140456 C 18.528582,18.264221 13.291696,25.230495 11.500037,31.436501 z"
             style="fill:#404040;"/>
          </a>
         </g>
        </svg>
</svg>
