<?xml version="1.0" encoding="UTF-8" standalone="no"?>
<!DOCTYPE svg PUBLIC "-//W3C//DTD SVG 1.1//EN"
 "http://www.w3.org/Graphics/SVG/1.1/DTD/svg11.dtd">
<!-- Generated by graphviz version 2.43.0 (0)
 -->
<!-- Title: IK/include/BipedalLocomotion/IK/QPInverseKinematics.h Pages: 1 -->
<!--zoomable 497 -->
<svg id="main" version="1.1" xmlns="http://www.w3.org/2000/svg" xmlns:xlink="http://www.w3.org/1999/xlink" xml:space="preserve" onload="init(evt)">
<style type="text/css"><![CDATA[
.edge:hover path { stroke: red; }
.edge:hover polygon { stroke: red; fill: red; }
]]></style>
<script type="text/javascript"><![CDATA[
var edges = document.getElementsByTagName('g');
if (edges && edges.length) {
  for (var i=0;i<edges.length;i++) {
    if (edges[i].id.substr(0,4)=='edge') {
      edges[i].setAttribute('class','edge');
    }
  }
}
]]></script>
        <defs>
                <circle id="rim" cx="0" cy="0" r="7"/>
                <circle id="rim2" cx="0" cy="0" r="3.5"/>
                <g id="zoomPlus">
                        <use xlink:href="#rim" fill="#404040">
                                <set attributeName="fill" to="#808080" begin="zoomplus.mouseover" end="zoomplus.mouseout"/>
                        </use>
                        <path d="M-4,0h8M0,-4v8" fill="none" stroke="white" stroke-width="1.5" pointer-events="none"/>
                </g>
                <g id="zoomMin">
                        <use xlink:href="#rim" fill="#404040">
                                <set attributeName="fill" to="#808080" begin="zoomminus.mouseover" end="zoomminus.mouseout"/>
                        </use>
                        <path d="M-4,0h8" fill="none" stroke="white" stroke-width="1.5" pointer-events="none"/>
                </g>
                <g id="dirArrow">
                        <path fill="none" stroke="white" stroke-width="1.5" d="M0,-3.0v7 M-2.5,-0.5L0,-3.0L2.5,-0.5"/>
                </g>
               <g id="resetDef">
                       <use xlink:href="#rim2" fill="#404040">
                               <set attributeName="fill" to="#808080" begin="reset.mouseover" end="reset.mouseout"/>
                       </use>
               </g>
        </defs>

<script type="text/javascript">
var viewWidth = 952;
var viewHeight = 497;
var sectionId = 'dynsection-0';
</script>
<script xlink:href="svgpan.js"/>
<svg id="graph" class="graph">
<g id="viewport">
<title>IK/include/BipedalLocomotion/IK/QPInverseKinematics.h</title>
<!-- Node1 -->
<g id="node1" class="node">
<title>Node1</title>
<g id="a_node1"><a xlink:title=" ">
<polygon fill="#bfbfbf" stroke="black" points="585.5,-458.5 585.5,-488.5 746.5,-488.5 746.5,-458.5 585.5,-458.5"/>
<text text-anchor="start" x="593.5" y="-476.5" font-family="Helvetica,sans-Serif" font-size="10.00">IK/include/BipedalLocomotion</text>
<text text-anchor="middle" x="666" y="-465.5" font-family="Helvetica,sans-Serif" font-size="10.00">/IK/QPInverseKinematics.h</text>
</a>
</g>
</g>
<!-- Node2 -->
<g id="node2" class="node">
<title>Node2</title>
<g id="a_node2"><a xlink:title=" ">
<polygon fill="none" stroke="#bfbfbf" points="141,-62 141,-81 199,-81 199,-62 141,-62"/>
<text text-anchor="middle" x="170" y="-69" font-family="Helvetica,sans-Serif" font-size="10.00">memory</text>
</a>
</g>
</g>
<!-- Node1&#45;&gt;Node2 -->
<g id="edge1" class="edge">
<title>Node1&#45;&gt;Node2</title>
<path fill="none" stroke="midnightblue" d="M585.33,-473.24C408.02,-472.69 0,-458.6 0,-340.5 0,-340.5 0,-340.5 0,-204.5 0,-138.47 81.01,-100.7 131.19,-83.64"/>
<polygon fill="midnightblue" stroke="midnightblue" points="132.36,-86.94 140.78,-80.5 130.18,-80.28 132.36,-86.94"/>
</g>
<!-- Node3 -->
<g id="node3" class="node">
<title>Node3</title>
<g id="a_node3"><a xlink:title=" ">
<polygon fill="none" stroke="#bfbfbf" points="821.5,-129 821.5,-148 868.5,-148 868.5,-129 821.5,-129"/>
<text text-anchor="middle" x="845" y="-136" font-family="Helvetica,sans-Serif" font-size="10.00">vector</text>
</a>
</g>
</g>
<!-- Node1&#45;&gt;Node3 -->
<g id="edge2" class="edge">
<title>Node1&#45;&gt;Node3</title>
<path fill="none" stroke="midnightblue" d="M746.78,-467.69C828.86,-457.92 944,-428.52 944,-340.5 944,-340.5 944,-340.5 944,-271.5 944,-220.1 895.36,-175.9 866.27,-154.07"/>
<polygon fill="midnightblue" stroke="midnightblue" points="868.09,-151.06 857.94,-148.02 863.98,-156.73 868.09,-151.06"/>
</g>
<!-- Node4 -->
<g id="node4" class="node">
<title>Node4</title>
<g id="a_node4"><a xlink:title=" ">
<polygon fill="none" stroke="#bfbfbf" points="168,-129 168,-148 212,-148 212,-129 168,-129"/>
<text text-anchor="middle" x="190" y="-136" font-family="Helvetica,sans-Serif" font-size="10.00">string</text>
</a>
</g>
</g>
<!-- Node1&#45;&gt;Node4 -->
<g id="edge3" class="edge">
<title>Node1&#45;&gt;Node4</title>
<path fill="none" stroke="midnightblue" d="M585.2,-471.14C423.61,-466.21 76,-443.63 76,-340.5 76,-340.5 76,-340.5 76,-271.5 76,-217.25 131.83,-174.28 165.35,-153.38"/>
<polygon fill="midnightblue" stroke="midnightblue" points="167.39,-156.23 174.15,-148.07 163.78,-150.24 167.39,-156.23"/>
</g>
<!-- Node5 -->
<g id="node5" class="node">
<title>Node5</title>
<g id="a_node5"><a xlink:title=" ">
<polygon fill="none" stroke="#bfbfbf" points="632.5,-263 632.5,-282 709.5,-282 709.5,-263 632.5,-263"/>
<text text-anchor="middle" x="671" y="-270" font-family="Helvetica,sans-Serif" font-size="10.00">Eigen/Dense</text>
</a>
</g>
</g>
<!-- Node1&#45;&gt;Node5 -->
<g id="edge4" class="edge">
<title>Node1&#45;&gt;Node5</title>
<path fill="none" stroke="midnightblue" d="M676.44,-458.45C694.79,-431.95 729.33,-372.84 712,-324 707.33,-310.83 697.59,-298.59 688.78,-289.46"/>
<polygon fill="midnightblue" stroke="midnightblue" points="691.03,-286.77 681.42,-282.29 686.14,-291.78 691.03,-286.77"/>
</g>
<!-- Node6 -->
<g id="node6" class="node">
<title>Node6</title>
<g id="a_node6"><a xlink:href="IntegrationBasedIK_8h.html" target="_top" xlink:title=" ">
<polygon fill="none" stroke="black" points="322.5,-391.5 322.5,-421.5 445.5,-421.5 445.5,-391.5 322.5,-391.5"/>
<text text-anchor="start" x="330.5" y="-409.5" font-family="Helvetica,sans-Serif" font-size="10.00">BipedalLocomotion/IK</text>
<text text-anchor="middle" x="384" y="-398.5" font-family="Helvetica,sans-Serif" font-size="10.00">/IntegrationBasedIK.h</text>
</a>
</g>
</g>
<!-- Node1&#45;&gt;Node6 -->
<g id="edge5" class="edge">
<title>Node1&#45;&gt;Node6</title>
<path fill="none" stroke="midnightblue" d="M605.16,-458.48C561.11,-448.32 501.44,-434.57 455.17,-423.91"/>
<polygon fill="midnightblue" stroke="midnightblue" points="455.75,-420.45 445.22,-421.61 454.18,-427.27 455.75,-420.45"/>
</g>
<!-- Node9 -->
<g id="node9" class="node">
<title>Node9</title>
<g id="a_node9"><a xlink:href="IParametersHandler_8h.html" target="_top" xlink:title=" ">
<polygon fill="none" stroke="black" points="500.5,-190.5 500.5,-220.5 669.5,-220.5 669.5,-190.5 500.5,-190.5"/>
<text text-anchor="start" x="508.5" y="-208.5" font-family="Helvetica,sans-Serif" font-size="10.00">BipedalLocomotion/Parameters</text>
<text text-anchor="middle" x="585" y="-197.5" font-family="Helvetica,sans-Serif" font-size="10.00">Handler/IParametersHandler.h</text>
</a>
</g>
</g>
<!-- Node1&#45;&gt;Node9 -->
<g id="edge41" class="edge">
<title>Node1&#45;&gt;Node9</title>
<path fill="none" stroke="midnightblue" d="M685.96,-458.42C697.24,-449.35 710.53,-436.56 718,-422 751.48,-356.75 764.65,-314.39 719,-257 707.25,-242.23 690.68,-231.77 673.18,-224.38"/>
<polygon fill="midnightblue" stroke="midnightblue" points="673.98,-220.93 663.39,-220.58 671.44,-227.46 673.98,-220.93"/>
</g>
<!-- Node20 -->
<g id="node20" class="node">
<title>Node20</title>
<g id="a_node20"><a xlink:href="Advanceable_8h.html" target="_top" xlink:title=" ">
<polygon fill="none" stroke="black" points="766,-257.5 766,-287.5 916,-287.5 916,-257.5 766,-257.5"/>
<text text-anchor="start" x="774" y="-275.5" font-family="Helvetica,sans-Serif" font-size="10.00">BipedalLocomotion/System</text>
<text text-anchor="middle" x="841" y="-264.5" font-family="Helvetica,sans-Serif" font-size="10.00">/Advanceable.h</text>
</a>
</g>
</g>
<!-- Node1&#45;&gt;Node20 -->
<g id="edge42" class="edge">
<title>Node1&#45;&gt;Node20</title>
<path fill="none" stroke="midnightblue" d="M722.06,-458.4C743.42,-450.65 766.56,-439.03 783,-422 816.85,-386.94 831.58,-329.85 837.47,-297.62"/>
<polygon fill="midnightblue" stroke="midnightblue" points="840.93,-298.16 839.14,-287.72 834.03,-296.99 840.93,-298.16"/>
</g>
<!-- Node22 -->
<g id="node22" class="node">
<title>Node22</title>
<g id="a_node22"><a xlink:href="LinearTask_8h.html" target="_top" xlink:title=" ">
<polygon fill="none" stroke="black" points="309,-324.5 309,-354.5 459,-354.5 459,-324.5 309,-324.5"/>
<text text-anchor="start" x="317" y="-342.5" font-family="Helvetica,sans-Serif" font-size="10.00">BipedalLocomotion/System</text>
<text text-anchor="middle" x="384" y="-331.5" font-family="Helvetica,sans-Serif" font-size="10.00">/LinearTask.h</text>
</a>
</g>
</g>
<!-- Node1&#45;&gt;Node22 -->
<g id="edge43" class="edge">
<title>Node1&#45;&gt;Node22</title>
<path fill="none" stroke="midnightblue" d="M636.09,-458.5C584.79,-434.49 480.09,-385.48 423.09,-358.8"/>
<polygon fill="midnightblue" stroke="midnightblue" points="424.57,-355.63 414.03,-354.56 421.6,-361.97 424.57,-355.63"/>
</g>
<!-- Node6&#45;&gt;Node2 -->
<g id="edge6" class="edge">
<title>Node6&#45;&gt;Node2</title>
<path fill="none" stroke="midnightblue" d="M322.43,-404.81C265.19,-401.75 179.19,-390.84 114,-355 70.6,-331.14 38,-323.03 38,-273.5 38,-273.5 38,-273.5 38,-204.5 38,-146.69 102.09,-105.35 140.96,-85.6"/>
<polygon fill="midnightblue" stroke="midnightblue" points="142.8,-88.59 150.24,-81.05 139.72,-82.31 142.8,-88.59"/>
</g>
<!-- Node6&#45;&gt;Node4 -->
<g id="edge7" class="edge">
<title>Node6&#45;&gt;Node4</title>
<path fill="none" stroke="midnightblue" d="M322.31,-401.82C255.87,-396.42 156.48,-383.67 133,-355 83.52,-294.57 147.48,-195.49 176.77,-156.25"/>
<polygon fill="midnightblue" stroke="midnightblue" points="179.77,-158.09 183.07,-148.02 174.21,-153.83 179.77,-158.09"/>
</g>
<!-- Node6&#45;&gt;Node5 -->
<g id="edge9" class="edge">
<title>Node6&#45;&gt;Node5</title>
<path fill="none" stroke="midnightblue" d="M422.15,-391.47C445.52,-382.29 475.7,-369.36 501,-355 521.49,-343.37 523.34,-335.33 544,-324 573.15,-308.02 608.43,-294.4 634.4,-285.35"/>
<polygon fill="midnightblue" stroke="midnightblue" points="635.54,-288.66 643.87,-282.11 633.27,-282.04 635.54,-288.66"/>
</g>
<!-- Node7 -->
<g id="node7" class="node">
<title>Node7</title>
<g id="a_node7"><a xlink:title=" ">
<polygon fill="none" stroke="#bfbfbf" points="142,-330 142,-349 198,-349 198,-330 142,-330"/>
<text text-anchor="middle" x="170" y="-337" font-family="Helvetica,sans-Serif" font-size="10.00">optional</text>
</a>
</g>
</g>
<!-- Node6&#45;&gt;Node7 -->
<g id="edge8" class="edge">
<title>Node6&#45;&gt;Node7</title>
<path fill="none" stroke="midnightblue" d="M329.75,-391.47C294.51,-381.99 247.72,-368.75 207,-355 204.88,-354.28 202.69,-353.51 200.5,-352.72"/>
<polygon fill="midnightblue" stroke="midnightblue" points="201.6,-349.39 191,-349.13 199.12,-355.94 201.6,-349.39"/>
</g>
<!-- Node8 -->
<g id="node8" class="node">
<title>Node8</title>
<g id="a_node8"><a xlink:title=" ">
<polygon fill="none" stroke="#bfbfbf" points="216.5,-330 216.5,-349 291.5,-349 291.5,-330 216.5,-330"/>
<text text-anchor="middle" x="254" y="-337" font-family="Helvetica,sans-Serif" font-size="10.00">manif/SE3.h</text>
</a>
</g>
</g>
<!-- Node6&#45;&gt;Node8 -->
<g id="edge10" class="edge">
<title>Node6&#45;&gt;Node8</title>
<path fill="none" stroke="midnightblue" d="M355.79,-391.4C333.28,-380.14 302,-364.5 280.08,-353.54"/>
<polygon fill="midnightblue" stroke="midnightblue" points="281.52,-350.35 271.01,-349.01 278.39,-356.61 281.52,-350.35"/>
</g>
<!-- Node6&#45;&gt;Node9 -->
<g id="edge11" class="edge">
<title>Node6&#45;&gt;Node9</title>
<path fill="none" stroke="midnightblue" d="M410.66,-391.4C427.65,-381.95 449.82,-368.76 468,-355 484.05,-342.86 484.56,-335.6 501,-324 529.58,-303.83 550.31,-316.21 571,-288 583.1,-271.51 586.07,-248.14 586.32,-230.65"/>
<polygon fill="midnightblue" stroke="midnightblue" points="589.82,-230.59 586.19,-220.64 582.82,-230.68 589.82,-230.59"/>
</g>
<!-- Node19 -->
<g id="node19" class="node">
<title>Node19</title>
<g id="a_node19"><a xlink:href="Source_8h.html" target="_top" xlink:title=" ">
<polygon fill="none" stroke="black" points="553,-324.5 553,-354.5 703,-354.5 703,-324.5 553,-324.5"/>
<text text-anchor="start" x="561" y="-342.5" font-family="Helvetica,sans-Serif" font-size="10.00">BipedalLocomotion/System</text>
<text text-anchor="middle" x="628" y="-331.5" font-family="Helvetica,sans-Serif" font-size="10.00">/Source.h</text>
</a>
</g>
</g>
<!-- Node6&#45;&gt;Node19 -->
<g id="edge26" class="edge">
<title>Node6&#45;&gt;Node19</title>
<path fill="none" stroke="midnightblue" d="M436.64,-391.48C474.36,-381.43 525.31,-367.86 565.15,-357.24"/>
<polygon fill="midnightblue" stroke="midnightblue" points="566.27,-360.57 575.03,-354.61 564.47,-353.8 566.27,-360.57"/>
</g>
<!-- Node6&#45;&gt;Node22 -->
<g id="edge30" class="edge">
<title>Node6&#45;&gt;Node22</title>
<path fill="none" stroke="midnightblue" d="M384,-391.4C384,-383.64 384,-373.81 384,-364.86"/>
<polygon fill="midnightblue" stroke="midnightblue" points="387.5,-364.58 384,-354.58 380.5,-364.58 387.5,-364.58"/>
</g>
<!-- Node9&#45;&gt;Node2 -->
<g id="edge12" class="edge">
<title>Node9&#45;&gt;Node2</title>
<path fill="none" stroke="midnightblue" d="M551.47,-190.46C529.99,-181.04 501.79,-167.85 478,-154 457.33,-141.96 456.02,-132.35 434,-123 413.57,-114.33 277.72,-90.66 209.27,-79.07"/>
<polygon fill="midnightblue" stroke="midnightblue" points="209.73,-75.6 199.29,-77.38 208.57,-82.5 209.73,-75.6"/>
</g>
<!-- Node9&#45;&gt;Node3 -->
<g id="edge14" class="edge">
<title>Node9&#45;&gt;Node3</title>
<path fill="none" stroke="midnightblue" d="M641.1,-190.48C692.95,-177.51 768.3,-158.68 811.39,-147.9"/>
<polygon fill="midnightblue" stroke="midnightblue" points="812.51,-151.23 821.36,-145.41 810.81,-144.44 812.51,-151.23"/>
</g>
<!-- Node9&#45;&gt;Node4 -->
<g id="edge13" class="edge">
<title>Node9&#45;&gt;Node4</title>
<path fill="none" stroke="midnightblue" d="M500.26,-190.56C413.23,-176.23 282.25,-154.68 222.18,-144.8"/>
<polygon fill="midnightblue" stroke="midnightblue" points="222.59,-141.32 212.15,-143.15 221.45,-148.22 222.59,-141.32"/>
</g>
<!-- Node10 -->
<g id="node10" class="node">
<title>Node10</title>
<g id="a_node10"><a xlink:href="TemplateHelpers_8h_source.html" target="_top" xlink:title=" ">
<polygon fill="none" stroke="black" points="644,-56.5 644,-86.5 802,-86.5 802,-56.5 644,-56.5"/>
<text text-anchor="start" x="652" y="-74.5" font-family="Helvetica,sans-Serif" font-size="10.00">BipedalLocomotion/Generic</text>
<text text-anchor="middle" x="723" y="-63.5" font-family="Helvetica,sans-Serif" font-size="10.00">Container/TemplateHelpers.h</text>
</a>
</g>
</g>
<!-- Node9&#45;&gt;Node10 -->
<g id="edge15" class="edge">
<title>Node9&#45;&gt;Node10</title>
<path fill="none" stroke="midnightblue" d="M603.73,-190.33C616.33,-180.54 633.11,-166.99 647,-154 667.52,-134.81 689.22,-111.16 704.15,-94.29"/>
<polygon fill="midnightblue" stroke="midnightblue" points="706.94,-96.43 710.91,-86.6 701.68,-91.81 706.94,-96.43"/>
</g>
<!-- Node14 -->
<g id="node14" class="node">
<title>Node14</title>
<g id="a_node14"><a xlink:href="Vector_8h_source.html" target="_top" xlink:title=" ">
<polygon fill="none" stroke="black" points="486.5,-123.5 486.5,-153.5 637.5,-153.5 637.5,-123.5 486.5,-123.5"/>
<text text-anchor="start" x="494.5" y="-141.5" font-family="Helvetica,sans-Serif" font-size="10.00">BipedalLocomotion/Generic</text>
<text text-anchor="middle" x="562" y="-130.5" font-family="Helvetica,sans-Serif" font-size="10.00">Container/Vector.h</text>
</a>
</g>
</g>
<!-- Node9&#45;&gt;Node14 -->
<g id="edge19" class="edge">
<title>Node9&#45;&gt;Node14</title>
<path fill="none" stroke="midnightblue" d="M580.01,-190.4C577.21,-182.47 573.63,-172.38 570.41,-163.27"/>
<polygon fill="midnightblue" stroke="midnightblue" points="573.62,-161.84 566.98,-153.58 567.02,-164.17 573.62,-161.84"/>
</g>
<!-- Node11 -->
<g id="node11" class="node">
<title>Node11</title>
<g id="a_node11"><a xlink:title=" ">
<polygon fill="none" stroke="#bfbfbf" points="599.5,-0.5 599.5,-19.5 668.5,-19.5 668.5,-0.5 599.5,-0.5"/>
<text text-anchor="middle" x="634" y="-7.5" font-family="Helvetica,sans-Serif" font-size="10.00">type_traits</text>
</a>
</g>
</g>
<!-- Node10&#45;&gt;Node11 -->
<g id="edge16" class="edge">
<title>Node10&#45;&gt;Node11</title>
<path fill="none" stroke="midnightblue" d="M701.91,-56.4C687.91,-47.04 669.59,-34.79 655.51,-25.38"/>
<polygon fill="midnightblue" stroke="midnightblue" points="657.21,-22.31 646.95,-19.66 653.32,-28.13 657.21,-22.31"/>
</g>
<!-- Node12 -->
<g id="node12" class="node">
<title>Node12</title>
<g id="a_node12"><a xlink:title=" ">
<polygon fill="none" stroke="#bfbfbf" points="686.5,-0.5 686.5,-19.5 759.5,-19.5 759.5,-0.5 686.5,-0.5"/>
<text text-anchor="middle" x="723" y="-7.5" font-family="Helvetica,sans-Serif" font-size="10.00">string_view</text>
</a>
</g>
</g>
<!-- Node10&#45;&gt;Node12 -->
<g id="edge17" class="edge">
<title>Node10&#45;&gt;Node12</title>
<path fill="none" stroke="midnightblue" d="M723,-56.4C723,-48.47 723,-38.46 723,-29.86"/>
<polygon fill="midnightblue" stroke="midnightblue" points="726.5,-29.66 723,-19.66 719.5,-29.66 726.5,-29.66"/>
</g>
<!-- Node13 -->
<g id="node13" class="node">
<title>Node13</title>
<g id="a_node13"><a xlink:title=" ">
<polygon fill="none" stroke="#bfbfbf" points="777.5,-0.5 777.5,-19.5 846.5,-19.5 846.5,-0.5 777.5,-0.5"/>
<text text-anchor="middle" x="812" y="-7.5" font-family="Helvetica,sans-Serif" font-size="10.00">Eigen/Core</text>
</a>
</g>
</g>
<!-- Node10&#45;&gt;Node13 -->
<g id="edge18" class="edge">
<title>Node10&#45;&gt;Node13</title>
<path fill="none" stroke="midnightblue" d="M744.09,-56.4C758.09,-47.04 776.41,-34.79 790.49,-25.38"/>
<polygon fill="midnightblue" stroke="midnightblue" points="792.68,-28.13 799.05,-19.66 788.79,-22.31 792.68,-28.13"/>
</g>
<!-- Node14&#45;&gt;Node2 -->
<g id="edge25" class="edge">
<title>Node14&#45;&gt;Node2</title>
<path fill="none" stroke="midnightblue" d="M486.42,-124.97C403.59,-111.23 273.93,-89.73 209.33,-79.02"/>
<polygon fill="midnightblue" stroke="midnightblue" points="209.6,-75.52 199.16,-77.34 208.46,-82.42 209.6,-75.52"/>
</g>
<!-- Node14&#45;&gt;Node10 -->
<g id="edge21" class="edge">
<title>Node14&#45;&gt;Node10</title>
<path fill="none" stroke="midnightblue" d="M596.93,-123.4C620.88,-113.73 652.85,-100.82 678.6,-90.43"/>
<polygon fill="midnightblue" stroke="midnightblue" points="680.17,-93.57 688.13,-86.58 677.55,-87.07 680.17,-93.57"/>
</g>
<!-- Node15 -->
<g id="node15" class="node">
<title>Node15</title>
<g id="a_node15"><a xlink:title=" ">
<polygon fill="none" stroke="#bfbfbf" points="351.5,-62 351.5,-81 472.5,-81 472.5,-62 351.5,-62"/>
<text text-anchor="middle" x="412" y="-69" font-family="Helvetica,sans-Serif" font-size="10.00">iDynTree/Core/Span.h</text>
</a>
</g>
</g>
<!-- Node14&#45;&gt;Node15 -->
<g id="edge20" class="edge">
<title>Node14&#45;&gt;Node15</title>
<path fill="none" stroke="midnightblue" d="M529.45,-123.4C503.13,-111.99 466.41,-96.08 441.07,-85.1"/>
<polygon fill="midnightblue" stroke="midnightblue" points="442.2,-81.77 431.63,-81.01 439.42,-88.19 442.2,-81.77"/>
</g>
<!-- Node16 -->
<g id="node16" class="node">
<title>Node16</title>
<g id="a_node16"><a xlink:title=" ">
<polygon fill="none" stroke="#bfbfbf" points="490.5,-62 490.5,-81 555.5,-81 555.5,-62 490.5,-62"/>
<text text-anchor="middle" x="523" y="-69" font-family="Helvetica,sans-Serif" font-size="10.00">functional</text>
</a>
</g>
</g>
<!-- Node14&#45;&gt;Node16 -->
<g id="edge22" class="edge">
<title>Node14&#45;&gt;Node16</title>
<path fill="none" stroke="midnightblue" d="M553.54,-123.4C547.64,-113.56 539.73,-100.38 533.44,-89.89"/>
<polygon fill="midnightblue" stroke="midnightblue" points="536.36,-87.97 528.22,-81.19 530.36,-91.57 536.36,-87.97"/>
</g>
<!-- Node17 -->
<g id="node17" class="node">
<title>Node17</title>
<g id="a_node17"><a xlink:title=" ">
<polygon fill="none" stroke="#bfbfbf" points="574,-62 574,-81 626,-81 626,-62 574,-62"/>
<text text-anchor="middle" x="600" y="-69" font-family="Helvetica,sans-Serif" font-size="10.00">cassert</text>
</a>
</g>
</g>
<!-- Node14&#45;&gt;Node17 -->
<g id="edge23" class="edge">
<title>Node14&#45;&gt;Node17</title>
<path fill="none" stroke="midnightblue" d="M570.25,-123.4C575.99,-113.56 583.7,-100.38 589.83,-89.89"/>
<polygon fill="midnightblue" stroke="midnightblue" points="592.89,-91.59 594.92,-81.19 586.85,-88.06 592.89,-91.59"/>
</g>
<!-- Node18 -->
<g id="node18" class="node">
<title>Node18</title>
<g id="a_node18"><a xlink:title=" ">
<polygon fill="none" stroke="#bfbfbf" points="273,-62 273,-81 333,-81 333,-62 273,-62"/>
<text text-anchor="middle" x="303" y="-69" font-family="Helvetica,sans-Serif" font-size="10.00">iostream</text>
</a>
</g>
</g>
<!-- Node14&#45;&gt;Node18 -->
<g id="edge24" class="edge">
<title>Node14&#45;&gt;Node18</title>
<path fill="none" stroke="midnightblue" d="M491.41,-123.49C448.22,-114.36 392.02,-101.48 343,-87 340.37,-86.22 337.66,-85.37 334.95,-84.47"/>
<polygon fill="midnightblue" stroke="midnightblue" points="335.86,-81.08 325.27,-81.11 333.57,-87.69 335.86,-81.08"/>
</g>
<!-- Node19&#45;&gt;Node20 -->
<g id="edge27" class="edge">
<title>Node19&#45;&gt;Node20</title>
<path fill="none" stroke="midnightblue" d="M673.96,-324.48C706.46,-314.56 750.23,-301.2 784.81,-290.65"/>
<polygon fill="midnightblue" stroke="midnightblue" points="786.22,-293.88 794.76,-287.61 784.17,-287.18 786.22,-293.88"/>
</g>
<!-- Node20&#45;&gt;Node9 -->
<g id="edge29" class="edge">
<title>Node20&#45;&gt;Node9</title>
<path fill="none" stroke="midnightblue" d="M785.77,-257.48C746.03,-247.39 692.29,-233.74 650.41,-223.11"/>
<polygon fill="midnightblue" stroke="midnightblue" points="651.13,-219.68 640.58,-220.61 649.41,-226.46 651.13,-219.68"/>
</g>
<!-- Node21 -->
<g id="node21" class="node">
<title>Node21</title>
<g id="a_node21"><a xlink:title=" ">
<polygon fill="none" stroke="#bfbfbf" points="815.5,-196 815.5,-215 866.5,-215 866.5,-196 815.5,-196"/>
<text text-anchor="middle" x="841" y="-203" font-family="Helvetica,sans-Serif" font-size="10.00">variant</text>
</a>
</g>
</g>
<!-- Node20&#45;&gt;Node21 -->
<g id="edge28" class="edge">
<title>Node20&#45;&gt;Node21</title>
<path fill="none" stroke="midnightblue" d="M841,-257.4C841,-248.06 841,-235.71 841,-225.52"/>
<polygon fill="midnightblue" stroke="midnightblue" points="844.5,-225.19 841,-215.19 837.5,-225.19 844.5,-225.19"/>
</g>
<!-- Node22&#45;&gt;Node2 -->
<g id="edge31" class="edge">
<title>Node22&#45;&gt;Node2</title>
<path fill="none" stroke="midnightblue" d="M315.82,-324.49C263.28,-313.09 198.1,-297.41 189,-288 136.85,-234.09 154.5,-133.16 164.78,-91.37"/>
<polygon fill="midnightblue" stroke="midnightblue" points="168.24,-92 167.37,-81.45 161.46,-90.24 168.24,-92"/>
</g>
<!-- Node22&#45;&gt;Node4 -->
<g id="edge32" class="edge">
<title>Node22&#45;&gt;Node4</title>
<path fill="none" stroke="midnightblue" d="M308.74,-325.29C267.64,-316.48 222.43,-303.67 209,-288 177.51,-251.25 181.78,-189.39 186.44,-158.4"/>
<polygon fill="midnightblue" stroke="midnightblue" points="189.96,-158.59 188.18,-148.15 183.06,-157.42 189.96,-158.59"/>
</g>
<!-- Node22&#45;&gt;Node5 -->
<g id="edge33" class="edge">
<title>Node22&#45;&gt;Node5</title>
<path fill="none" stroke="midnightblue" d="M445.92,-324.48C499.15,-312.42 574.81,-295.29 623.4,-284.28"/>
<polygon fill="midnightblue" stroke="midnightblue" points="624.36,-287.65 633.34,-282.03 622.82,-280.82 624.36,-287.65"/>
</g>
<!-- Node22&#45;&gt;Node9 -->
<g id="edge35" class="edge">
<title>Node22&#45;&gt;Node9</title>
<path fill="none" stroke="midnightblue" d="M447.43,-324.45C486.44,-314.77 531.77,-301.29 547,-288 564.11,-273.07 574.04,-248.8 579.43,-230.62"/>
<polygon fill="midnightblue" stroke="midnightblue" points="582.87,-231.3 582.1,-220.73 576.12,-229.47 582.87,-231.3"/>
</g>
<!-- Node23 -->
<g id="node23" class="node">
<title>Node23</title>
<g id="a_node23"><a xlink:title=" ">
<polygon fill="none" stroke="#bfbfbf" points="218,-263 218,-282 370,-282 370,-263 218,-263"/>
<text text-anchor="middle" x="294" y="-270" font-family="Helvetica,sans-Serif" font-size="10.00">iDynTree/Core/MatrixView.h</text>
</a>
</g>
</g>
<!-- Node22&#45;&gt;Node23 -->
<g id="edge34" class="edge">
<title>Node22&#45;&gt;Node23</title>
<path fill="none" stroke="midnightblue" d="M364.47,-324.4C349.52,-313.6 328.97,-298.76 313.92,-287.89"/>
<polygon fill="midnightblue" stroke="midnightblue" points="315.93,-285.02 305.78,-282.01 311.84,-290.7 315.93,-285.02"/>
</g>
<!-- Node24 -->
<g id="node24" class="node">
<title>Node24</title>
<g id="a_node24"><a xlink:href="VariablesHandler_8h.html" target="_top" xlink:title=" ">
<polygon fill="none" stroke="black" points="388,-257.5 388,-287.5 538,-287.5 538,-257.5 388,-257.5"/>
<text text-anchor="start" x="396" y="-275.5" font-family="Helvetica,sans-Serif" font-size="10.00">BipedalLocomotion/System</text>
<text text-anchor="middle" x="463" y="-264.5" font-family="Helvetica,sans-Serif" font-size="10.00">/VariablesHandler.h</text>
</a>
</g>
</g>
<!-- Node22&#45;&gt;Node24 -->
<g id="edge36" class="edge">
<title>Node22&#45;&gt;Node24</title>
<path fill="none" stroke="midnightblue" d="M401.14,-324.4C411.91,-315.54 425.98,-303.96 437.98,-294.09"/>
<polygon fill="midnightblue" stroke="midnightblue" points="440.39,-296.63 445.89,-287.58 435.95,-291.23 440.39,-296.63"/>
</g>
<!-- Node24&#45;&gt;Node2 -->
<g id="edge38" class="edge">
<title>Node24&#45;&gt;Node2</title>
<path fill="none" stroke="midnightblue" d="M454.19,-257.32C442.72,-239.77 421.27,-209.79 397,-190 335.79,-140.11 250,-102.81 203.37,-84.7"/>
<polygon fill="midnightblue" stroke="midnightblue" points="204.36,-81.32 193.76,-81.02 201.85,-87.86 204.36,-81.32"/>
</g>
<!-- Node24&#45;&gt;Node4 -->
<g id="edge37" class="edge">
<title>Node24&#45;&gt;Node4</title>
<path fill="none" stroke="midnightblue" d="M447.29,-257.38C423.97,-236.67 381.04,-199.48 363,-190 317,-165.82 257.86,-151.76 222,-144.86"/>
<polygon fill="midnightblue" stroke="midnightblue" points="222.56,-141.41 212.09,-143.03 221.29,-148.29 222.56,-141.41"/>
</g>
<!-- Node24&#45;&gt;Node9 -->
<g id="edge40" class="edge">
<title>Node24&#45;&gt;Node9</title>
<path fill="none" stroke="midnightblue" d="M489.47,-257.4C507.06,-248.03 530.35,-235.62 549.54,-225.39"/>
<polygon fill="midnightblue" stroke="midnightblue" points="551.4,-228.37 558.58,-220.58 548.11,-222.19 551.4,-228.37"/>
</g>
<!-- Node25 -->
<g id="node25" class="node">
<title>Node25</title>
<g id="a_node25"><a xlink:title=" ">
<polygon fill="none" stroke="#bfbfbf" points="260.5,-196 260.5,-215 353.5,-215 353.5,-196 260.5,-196"/>
<text text-anchor="middle" x="307" y="-203" font-family="Helvetica,sans-Serif" font-size="10.00">unordered_map</text>
</a>
</g>
</g>
<!-- Node24&#45;&gt;Node25 -->
<g id="edge39" class="edge">
<title>Node24&#45;&gt;Node25</title>
<path fill="none" stroke="midnightblue" d="M429.15,-257.4C401.66,-245.94 363.25,-229.94 336.89,-218.95"/>
<polygon fill="midnightblue" stroke="midnightblue" points="337.99,-215.62 327.42,-215.01 335.3,-222.08 337.99,-215.62"/>
</g>
</g>
</svg>
        <g id="navigator" transform="translate(0 0)" fill="#404254">
                <rect fill="#f2f5e9" fill-opacity="0.5" stroke="#606060" stroke-width=".5" x="0" y="0" width="60" height="60"/>
                <use id="zoomplus" xlink:href="#zoomPlus" x="17" y="9" onmousedown="handleZoom(evt,'in')"/>
                <use id="zoomminus" xlink:href="#zoomMin" x="42" y="9" onmousedown="handleZoom(evt,'out')"/>
                <use id="reset" xlink:href="#resetDef" x="30" y="36" onmousedown="handleReset()"/>
                <g id="arrowUp" xlink:href="#dirArrow" transform="translate(30 24)" onmousedown="handlePan(0,-1)">
                  <use xlink:href="#rim" fill="#404040">
                        <set attributeName="fill" to="#808080" begin="arrowUp.mouseover" end="arrowUp.mouseout"/>
                  </use>
                  <path fill="none" stroke="white" stroke-width="1.5" d="M0,-3.0v7 M-2.5,-0.5L0,-3.0L2.5,-0.5"/>
                </g>
                <g id="arrowRight" xlink:href="#dirArrow" transform="rotate(90) translate(36 -43)" onmousedown="handlePan(1,0)">
                  <use xlink:href="#rim" fill="#404040">
                        <set attributeName="fill" to="#808080" begin="arrowRight.mouseover" end="arrowRight.mouseout"/>
                  </use>
                  <path fill="none" stroke="white" stroke-width="1.5" d="M0,-3.0v7 M-2.5,-0.5L0,-3.0L2.5,-0.5"/>
                </g>
                <g id="arrowDown" xlink:href="#dirArrow" transform="rotate(180) translate(-30 -48)" onmousedown="handlePan(0,1)">
                  <use xlink:href="#rim" fill="#404040">
                        <set attributeName="fill" to="#808080" begin="arrowDown.mouseover" end="arrowDown.mouseout"/>
                  </use>
                  <path fill="none" stroke="white" stroke-width="1.5" d="M0,-3.0v7 M-2.5,-0.5L0,-3.0L2.5,-0.5"/>
                </g>
                <g id="arrowLeft" xlink:href="#dirArrow" transform="rotate(270) translate(-36 17)" onmousedown="handlePan(-1,0)">
                  <use xlink:href="#rim" fill="#404040">
                        <set attributeName="fill" to="#808080" begin="arrowLeft.mouseover" end="arrowLeft.mouseout"/>
                  </use>
                  <path fill="none" stroke="white" stroke-width="1.5" d="M0,-3.0v7 M-2.5,-0.5L0,-3.0L2.5,-0.5"/>
                </g>
        </g>
        <svg viewBox="0 0 15 15" width="100%" height="30px" preserveAspectRatio="xMaxYMin meet">
         <g id="arrow_out" transform="scale(0.3 0.3)">
          <a xlink:href="QPInverseKinematics_8h__incl_org.svg" target="_base">
           <rect id="button" ry="5" rx="5" y="6" x="6" height="38" width="38"
                fill="#f2f5e9" fill-opacity="0.5" stroke="#606060" stroke-width="1.0"/>
           <path id="arrow"
             d="M 11.500037,31.436501 C 11.940474,20.09759 22.043105,11.32322 32.158766,21.979434 L 37.068811,17.246167 C 37.068811,17.246167 37.088388,32 37.088388,32 L 22.160133,31.978069 C 22.160133,31.978069 26.997745,27.140456 26.997745,27.140456 C 18.528582,18.264221 13.291696,25.230495 11.500037,31.436501 z"
             style="fill:#404040;"/>
          </a>
         </g>
        </svg>
</svg>
