<?xml version="1.0" encoding="UTF-8" standalone="no"?>
<!DOCTYPE svg PUBLIC "-//W3C//DTD SVG 1.1//EN"
 "http://www.w3.org/Graphics/SVG/1.1/DTD/svg11.dtd">
<!-- Generated by graphviz version 2.43.0 (0)
 -->
<!-- Title: Planners/src/QuinticSpline.cpp Pages: 1 -->
<svg width="649pt" height="486pt"
 viewBox="0.00 0.00 649.00 486.00" xmlns="http://www.w3.org/2000/svg" xmlns:xlink="http://www.w3.org/1999/xlink">
<g id="graph0" class="graph" transform="scale(1 1) rotate(0) translate(4 482)">
<title>Planners/src/QuinticSpline.cpp</title>
<!-- Node1 -->
<g id="node1" class="node">
<title>Node1</title>
<g id="a_node1"><a xlink:title=" ">
<polygon fill="#bfbfbf" stroke="black" points="70,-458.5 70,-477.5 234,-477.5 234,-458.5 70,-458.5"/>
<text text-anchor="middle" x="152" y="-465.5" font-family="Helvetica,sans-Serif" font-size="10.00">Planners/src/QuinticSpline.cpp</text>
</a>
</g>
</g>
<!-- Node2 -->
<g id="node2" class="node">
<title>Node2</title>
<g id="a_node2"><a xlink:title=" ">
<polygon fill="none" stroke="#bfbfbf" points="0,-397 0,-416 64,-416 64,-397 0,-397"/>
<text text-anchor="middle" x="32" y="-404" font-family="Helvetica,sans-Serif" font-size="10.00">algorithm</text>
</a>
</g>
</g>
<!-- Node1&#45;&gt;Node2 -->
<g id="edge1" class="edge">
<title>Node1&#45;&gt;Node2</title>
<path fill="none" stroke="midnightblue" d="M134.81,-458.48C114.76,-448.53 81.4,-431.99 58.14,-420.46"/>
<polygon fill="midnightblue" stroke="midnightblue" points="59.68,-417.32 49.16,-416.01 56.57,-423.59 59.68,-417.32"/>
</g>
<!-- Node3 -->
<g id="node3" class="node">
<title>Node3</title>
<g id="a_node3"><a xlink:title=" ">
<polygon fill="none" stroke="#bfbfbf" points="37,-62 37,-81 97,-81 97,-62 37,-62"/>
<text text-anchor="middle" x="67" y="-69" font-family="Helvetica,sans-Serif" font-size="10.00">iostream</text>
</a>
</g>
</g>
<!-- Node1&#45;&gt;Node3 -->
<g id="edge2" class="edge">
<title>Node1&#45;&gt;Node3</title>
<path fill="none" stroke="midnightblue" d="M144.64,-458.47C128.62,-438.98 92,-389.11 92,-340.5 92,-340.5 92,-340.5 92,-204.5 92,-163.26 80.07,-116.01 72.69,-90.73"/>
<polygon fill="midnightblue" stroke="midnightblue" points="76.01,-89.61 69.77,-81.04 69.31,-91.63 76.01,-89.61"/>
</g>
<!-- Node4 -->
<g id="node4" class="node">
<title>Node4</title>
<g id="a_node4"><a xlink:title=" ">
<polygon fill="none" stroke="#bfbfbf" points="308,-397 308,-416 388,-416 388,-397 308,-397"/>
<text text-anchor="middle" x="348" y="-404" font-family="Helvetica,sans-Serif" font-size="10.00">Eigen/Sparse</text>
</a>
</g>
</g>
<!-- Node1&#45;&gt;Node4 -->
<g id="edge3" class="edge">
<title>Node1&#45;&gt;Node4</title>
<path fill="none" stroke="midnightblue" d="M180.08,-458.48C214.29,-448.09 272.2,-430.51 310.27,-418.95"/>
<polygon fill="midnightblue" stroke="midnightblue" points="311.42,-422.26 319.97,-416.01 309.38,-415.56 311.42,-422.26"/>
</g>
<!-- Node5 -->
<g id="node5" class="node">
<title>Node5</title>
<g id="a_node5"><a xlink:href="QuinticSpline_8h.html" target="_top" xlink:title=" ">
<polygon fill="none" stroke="black" points="134.5,-391.5 134.5,-421.5 289.5,-421.5 289.5,-391.5 134.5,-391.5"/>
<text text-anchor="start" x="142.5" y="-409.5" font-family="Helvetica,sans-Serif" font-size="10.00">BipedalLocomotion/Planners</text>
<text text-anchor="middle" x="212" y="-398.5" font-family="Helvetica,sans-Serif" font-size="10.00">/QuinticSpline.h</text>
</a>
</g>
</g>
<!-- Node1&#45;&gt;Node5 -->
<g id="edge4" class="edge">
<title>Node1&#45;&gt;Node5</title>
<path fill="none" stroke="midnightblue" d="M160.6,-458.48C168.42,-450.72 180.29,-438.94 190.66,-428.66"/>
<polygon fill="midnightblue" stroke="midnightblue" points="193.22,-431.05 197.86,-421.52 188.29,-426.08 193.22,-431.05"/>
</g>
<!-- Node6 -->
<g id="node6" class="node">
<title>Node6</title>
<g id="a_node6"><a xlink:title=" ">
<polygon fill="none" stroke="#bfbfbf" points="215.5,-129 215.5,-148 262.5,-148 262.5,-129 215.5,-129"/>
<text text-anchor="middle" x="239" y="-136" font-family="Helvetica,sans-Serif" font-size="10.00">vector</text>
</a>
</g>
</g>
<!-- Node5&#45;&gt;Node6 -->
<g id="edge5" class="edge">
<title>Node5&#45;&gt;Node6</title>
<path fill="none" stroke="midnightblue" d="M213.45,-391.2C218,-346.35 232,-208.45 237.11,-158.13"/>
<polygon fill="midnightblue" stroke="midnightblue" points="240.6,-158.35 238.13,-148.05 233.64,-157.64 240.6,-158.35"/>
</g>
<!-- Node7 -->
<g id="node7" class="node">
<title>Node7</title>
<g id="a_node7"><a xlink:title=" ">
<polygon fill="none" stroke="#bfbfbf" points="583,-62 583,-81 641,-81 641,-62 583,-62"/>
<text text-anchor="middle" x="612" y="-69" font-family="Helvetica,sans-Serif" font-size="10.00">memory</text>
</a>
</g>
</g>
<!-- Node5&#45;&gt;Node7 -->
<g id="edge6" class="edge">
<title>Node5&#45;&gt;Node7</title>
<path fill="none" stroke="midnightblue" d="M274.34,-391.44C386.56,-365.26 611,-308.52 611,-273.5 611,-273.5 611,-273.5 611,-204.5 611,-164.16 611.47,-116.88 611.77,-91.28"/>
<polygon fill="midnightblue" stroke="midnightblue" points="615.27,-91.19 611.89,-81.15 608.27,-91.11 615.27,-91.19"/>
</g>
<!-- Node8 -->
<g id="node8" class="node">
<title>Node8</title>
<g id="a_node8"><a xlink:title=" ">
<polygon fill="none" stroke="#bfbfbf" points="120.5,-330 120.5,-349 197.5,-349 197.5,-330 120.5,-330"/>
<text text-anchor="middle" x="159" y="-337" font-family="Helvetica,sans-Serif" font-size="10.00">Eigen/Dense</text>
</a>
</g>
</g>
<!-- Node5&#45;&gt;Node8 -->
<g id="edge7" class="edge">
<title>Node5&#45;&gt;Node8</title>
<path fill="none" stroke="midnightblue" d="M200.5,-391.4C192.32,-381.36 181.29,-367.84 172.66,-357.25"/>
<polygon fill="midnightblue" stroke="midnightblue" points="175.12,-354.73 166.09,-349.19 169.7,-359.16 175.12,-354.73"/>
</g>
<!-- Node9 -->
<g id="node9" class="node">
<title>Node9</title>
<g id="a_node9"><a xlink:href="Source_8h.html" target="_top" xlink:title=" ">
<polygon fill="none" stroke="black" points="254,-324.5 254,-354.5 404,-354.5 404,-324.5 254,-324.5"/>
<text text-anchor="start" x="262" y="-342.5" font-family="Helvetica,sans-Serif" font-size="10.00">BipedalLocomotion/System</text>
<text text-anchor="middle" x="329" y="-331.5" font-family="Helvetica,sans-Serif" font-size="10.00">/Source.h</text>
</a>
</g>
</g>
<!-- Node5&#45;&gt;Node9 -->
<g id="edge8" class="edge">
<title>Node5&#45;&gt;Node9</title>
<path fill="none" stroke="midnightblue" d="M237.39,-391.4C254.18,-382.07 276.39,-369.73 294.74,-359.53"/>
<polygon fill="midnightblue" stroke="midnightblue" points="296.62,-362.49 303.66,-354.58 293.22,-356.37 296.62,-362.49"/>
</g>
<!-- Node10 -->
<g id="node10" class="node">
<title>Node10</title>
<g id="a_node10"><a xlink:href="Advanceable_8h.html" target="_top" xlink:title=" ">
<polygon fill="none" stroke="black" points="254,-257.5 254,-287.5 404,-287.5 404,-257.5 254,-257.5"/>
<text text-anchor="start" x="262" y="-275.5" font-family="Helvetica,sans-Serif" font-size="10.00">BipedalLocomotion/System</text>
<text text-anchor="middle" x="329" y="-264.5" font-family="Helvetica,sans-Serif" font-size="10.00">/Advanceable.h</text>
</a>
</g>
</g>
<!-- Node9&#45;&gt;Node10 -->
<g id="edge9" class="edge">
<title>Node9&#45;&gt;Node10</title>
<path fill="none" stroke="midnightblue" d="M329,-324.4C329,-316.64 329,-306.81 329,-297.86"/>
<polygon fill="midnightblue" stroke="midnightblue" points="332.5,-297.58 329,-287.58 325.5,-297.58 332.5,-297.58"/>
</g>
<!-- Node11 -->
<g id="node11" class="node">
<title>Node11</title>
<g id="a_node11"><a xlink:title=" ">
<polygon fill="none" stroke="#bfbfbf" points="254.5,-196 254.5,-215 305.5,-215 305.5,-196 254.5,-196"/>
<text text-anchor="middle" x="280" y="-203" font-family="Helvetica,sans-Serif" font-size="10.00">variant</text>
</a>
</g>
</g>
<!-- Node10&#45;&gt;Node11 -->
<g id="edge10" class="edge">
<title>Node10&#45;&gt;Node11</title>
<path fill="none" stroke="midnightblue" d="M318.37,-257.4C310.8,-247.36 300.61,-233.84 292.63,-223.25"/>
<polygon fill="midnightblue" stroke="midnightblue" points="295.37,-221.07 286.55,-215.19 289.78,-225.29 295.37,-221.07"/>
</g>
<!-- Node12 -->
<g id="node12" class="node">
<title>Node12</title>
<g id="a_node12"><a xlink:href="IParametersHandler_8h.html" target="_top" xlink:title=" ">
<polygon fill="none" stroke="black" points="323.5,-190.5 323.5,-220.5 492.5,-220.5 492.5,-190.5 323.5,-190.5"/>
<text text-anchor="start" x="331.5" y="-208.5" font-family="Helvetica,sans-Serif" font-size="10.00">BipedalLocomotion/Parameters</text>
<text text-anchor="middle" x="408" y="-197.5" font-family="Helvetica,sans-Serif" font-size="10.00">Handler/IParametersHandler.h</text>
</a>
</g>
</g>
<!-- Node10&#45;&gt;Node12 -->
<g id="edge11" class="edge">
<title>Node10&#45;&gt;Node12</title>
<path fill="none" stroke="midnightblue" d="M346.14,-257.4C356.91,-248.54 370.98,-236.96 382.98,-227.09"/>
<polygon fill="midnightblue" stroke="midnightblue" points="385.39,-229.63 390.89,-220.58 380.95,-224.23 385.39,-229.63"/>
</g>
<!-- Node12&#45;&gt;Node6 -->
<g id="edge14" class="edge">
<title>Node12&#45;&gt;Node6</title>
<path fill="none" stroke="midnightblue" d="M371.33,-190.4C341.28,-178.84 299.21,-162.66 270.62,-151.66"/>
<polygon fill="midnightblue" stroke="midnightblue" points="271.71,-148.33 261.12,-148.01 269.2,-154.86 271.71,-148.33"/>
</g>
<!-- Node12&#45;&gt;Node7 -->
<g id="edge12" class="edge">
<title>Node12&#45;&gt;Node7</title>
<path fill="none" stroke="midnightblue" d="M472.43,-190.48C498.52,-182.68 527.88,-171 551,-154 574.19,-136.95 592.56,-108.62 602.86,-90.25"/>
<polygon fill="midnightblue" stroke="midnightblue" points="606.07,-91.67 607.73,-81.21 599.91,-88.35 606.07,-91.67"/>
</g>
<!-- Node13 -->
<g id="node13" class="node">
<title>Node13</title>
<g id="a_node13"><a xlink:title=" ">
<polygon fill="none" stroke="#bfbfbf" points="498,-129 498,-148 542,-148 542,-129 498,-129"/>
<text text-anchor="middle" x="520" y="-136" font-family="Helvetica,sans-Serif" font-size="10.00">string</text>
</a>
</g>
</g>
<!-- Node12&#45;&gt;Node13 -->
<g id="edge13" class="edge">
<title>Node12&#45;&gt;Node13</title>
<path fill="none" stroke="midnightblue" d="M432.3,-190.4C451.35,-179.34 477.68,-164.06 496.51,-153.13"/>
<polygon fill="midnightblue" stroke="midnightblue" points="498.45,-156.05 505.34,-148.01 494.94,-150 498.45,-156.05"/>
</g>
<!-- Node14 -->
<g id="node14" class="node">
<title>Node14</title>
<g id="a_node14"><a xlink:href="TemplateHelpers_8h_source.html" target="_top" xlink:title=" ">
<polygon fill="none" stroke="black" points="115,-56.5 115,-86.5 273,-86.5 273,-56.5 115,-56.5"/>
<text text-anchor="start" x="123" y="-74.5" font-family="Helvetica,sans-Serif" font-size="10.00">BipedalLocomotion/Generic</text>
<text text-anchor="middle" x="194" y="-63.5" font-family="Helvetica,sans-Serif" font-size="10.00">Container/TemplateHelpers.h</text>
</a>
</g>
</g>
<!-- Node12&#45;&gt;Node14 -->
<g id="edge15" class="edge">
<title>Node12&#45;&gt;Node14</title>
<path fill="none" stroke="midnightblue" d="M382.05,-190.33C364.17,-180.43 339.94,-166.75 319,-154 309.63,-148.3 257.95,-114.47 224.04,-92.22"/>
<polygon fill="midnightblue" stroke="midnightblue" points="225.7,-89.13 215.42,-86.57 221.86,-94.98 225.7,-89.13"/>
</g>
<!-- Node18 -->
<g id="node18" class="node">
<title>Node18</title>
<g id="a_node18"><a xlink:href="Vector_8h_source.html" target="_top" xlink:title=" ">
<polygon fill="none" stroke="black" points="328.5,-123.5 328.5,-153.5 479.5,-153.5 479.5,-123.5 328.5,-123.5"/>
<text text-anchor="start" x="336.5" y="-141.5" font-family="Helvetica,sans-Serif" font-size="10.00">BipedalLocomotion/Generic</text>
<text text-anchor="middle" x="404" y="-130.5" font-family="Helvetica,sans-Serif" font-size="10.00">Container/Vector.h</text>
</a>
</g>
</g>
<!-- Node12&#45;&gt;Node18 -->
<g id="edge19" class="edge">
<title>Node12&#45;&gt;Node18</title>
<path fill="none" stroke="midnightblue" d="M407.13,-190.4C406.65,-182.56 406.04,-172.6 405.48,-163.57"/>
<polygon fill="midnightblue" stroke="midnightblue" points="408.97,-163.34 404.87,-153.58 401.99,-163.77 408.97,-163.34"/>
</g>
<!-- Node15 -->
<g id="node15" class="node">
<title>Node15</title>
<g id="a_node15"><a xlink:title=" ">
<polygon fill="none" stroke="#bfbfbf" points="70.5,-0.5 70.5,-19.5 139.5,-19.5 139.5,-0.5 70.5,-0.5"/>
<text text-anchor="middle" x="105" y="-7.5" font-family="Helvetica,sans-Serif" font-size="10.00">type_traits</text>
</a>
</g>
</g>
<!-- Node14&#45;&gt;Node15 -->
<g id="edge16" class="edge">
<title>Node14&#45;&gt;Node15</title>
<path fill="none" stroke="midnightblue" d="M172.91,-56.4C158.91,-47.04 140.59,-34.79 126.51,-25.38"/>
<polygon fill="midnightblue" stroke="midnightblue" points="128.21,-22.31 117.95,-19.66 124.32,-28.13 128.21,-22.31"/>
</g>
<!-- Node16 -->
<g id="node16" class="node">
<title>Node16</title>
<g id="a_node16"><a xlink:title=" ">
<polygon fill="none" stroke="#bfbfbf" points="157.5,-0.5 157.5,-19.5 230.5,-19.5 230.5,-0.5 157.5,-0.5"/>
<text text-anchor="middle" x="194" y="-7.5" font-family="Helvetica,sans-Serif" font-size="10.00">string_view</text>
</a>
</g>
</g>
<!-- Node14&#45;&gt;Node16 -->
<g id="edge17" class="edge">
<title>Node14&#45;&gt;Node16</title>
<path fill="none" stroke="midnightblue" d="M194,-56.4C194,-48.47 194,-38.46 194,-29.86"/>
<polygon fill="midnightblue" stroke="midnightblue" points="197.5,-29.66 194,-19.66 190.5,-29.66 197.5,-29.66"/>
</g>
<!-- Node17 -->
<g id="node17" class="node">
<title>Node17</title>
<g id="a_node17"><a xlink:title=" ">
<polygon fill="none" stroke="#bfbfbf" points="248.5,-0.5 248.5,-19.5 317.5,-19.5 317.5,-0.5 248.5,-0.5"/>
<text text-anchor="middle" x="283" y="-7.5" font-family="Helvetica,sans-Serif" font-size="10.00">Eigen/Core</text>
</a>
</g>
</g>
<!-- Node14&#45;&gt;Node17 -->
<g id="edge18" class="edge">
<title>Node14&#45;&gt;Node17</title>
<path fill="none" stroke="midnightblue" d="M215.09,-56.4C229.09,-47.04 247.41,-34.79 261.49,-25.38"/>
<polygon fill="midnightblue" stroke="midnightblue" points="263.68,-28.13 270.05,-19.66 259.79,-22.31 263.68,-28.13"/>
</g>
<!-- Node18&#45;&gt;Node3 -->
<g id="edge24" class="edge">
<title>Node18&#45;&gt;Node3</title>
<path fill="none" stroke="midnightblue" d="M328.45,-128.69C267.7,-120.66 180.51,-106.97 106,-87 103.19,-86.25 100.29,-85.37 97.41,-84.43"/>
<polygon fill="midnightblue" stroke="midnightblue" points="98.41,-81.07 87.81,-81.06 96.09,-87.67 98.41,-81.07"/>
</g>
<!-- Node18&#45;&gt;Node7 -->
<g id="edge25" class="edge">
<title>Node18&#45;&gt;Node7</title>
<path fill="none" stroke="midnightblue" d="M454.9,-123.47C488.84,-113.85 534.34,-100.44 574,-87 576.26,-86.24 578.58,-85.42 580.91,-84.58"/>
<polygon fill="midnightblue" stroke="midnightblue" points="582.24,-87.82 590.4,-81.07 579.81,-81.26 582.24,-87.82"/>
</g>
<!-- Node18&#45;&gt;Node14 -->
<g id="edge21" class="edge">
<title>Node18&#45;&gt;Node14</title>
<path fill="none" stroke="midnightblue" d="M358.69,-123.48C326.65,-113.56 283.5,-100.2 249.4,-89.65"/>
<polygon fill="midnightblue" stroke="midnightblue" points="250.18,-86.22 239.59,-86.61 248.11,-92.91 250.18,-86.22"/>
</g>
<!-- Node19 -->
<g id="node19" class="node">
<title>Node19</title>
<g id="a_node19"><a xlink:title=" ">
<polygon fill="none" stroke="#bfbfbf" points="290.5,-62 290.5,-81 411.5,-81 411.5,-62 290.5,-62"/>
<text text-anchor="middle" x="351" y="-69" font-family="Helvetica,sans-Serif" font-size="10.00">iDynTree/Core/Span.h</text>
</a>
</g>
</g>
<!-- Node18&#45;&gt;Node19 -->
<g id="edge20" class="edge">
<title>Node18&#45;&gt;Node19</title>
<path fill="none" stroke="midnightblue" d="M392.5,-123.4C384.32,-113.36 373.29,-99.84 364.66,-89.25"/>
<polygon fill="midnightblue" stroke="midnightblue" points="367.12,-86.73 358.09,-81.19 361.7,-91.16 367.12,-86.73"/>
</g>
<!-- Node20 -->
<g id="node20" class="node">
<title>Node20</title>
<g id="a_node20"><a xlink:title=" ">
<polygon fill="none" stroke="#bfbfbf" points="429.5,-62 429.5,-81 494.5,-81 494.5,-62 429.5,-62"/>
<text text-anchor="middle" x="462" y="-69" font-family="Helvetica,sans-Serif" font-size="10.00">functional</text>
</a>
</g>
</g>
<!-- Node18&#45;&gt;Node20 -->
<g id="edge22" class="edge">
<title>Node18&#45;&gt;Node20</title>
<path fill="none" stroke="midnightblue" d="M416.59,-123.4C425.63,-113.26 437.85,-99.57 447.33,-88.94"/>
<polygon fill="midnightblue" stroke="midnightblue" points="450.2,-90.99 454.24,-81.19 444.97,-86.33 450.2,-90.99"/>
</g>
<!-- Node21 -->
<g id="node21" class="node">
<title>Node21</title>
<g id="a_node21"><a xlink:title=" ">
<polygon fill="none" stroke="#bfbfbf" points="513,-62 513,-81 565,-81 565,-62 513,-62"/>
<text text-anchor="middle" x="539" y="-69" font-family="Helvetica,sans-Serif" font-size="10.00">cassert</text>
</a>
</g>
</g>
<!-- Node18&#45;&gt;Node21 -->
<g id="edge23" class="edge">
<title>Node18&#45;&gt;Node21</title>
<path fill="none" stroke="midnightblue" d="M433.29,-123.4C456.77,-112.09 489.44,-96.36 512.23,-85.39"/>
<polygon fill="midnightblue" stroke="midnightblue" points="513.84,-88.5 521.33,-81.01 510.8,-82.19 513.84,-88.5"/>
</g>
</g>
</svg>
