<?xml version="1.0" encoding="UTF-8" standalone="no"?>
<!DOCTYPE svg PUBLIC "-//W3C//DTD SVG 1.1//EN"
 "http://www.w3.org/Graphics/SVG/1.1/DTD/svg11.dtd">
<!-- Generated by graphviz version 2.43.0 (0)
 -->
<!-- Title: Estimators/include/BipedalLocomotion/Estimators/RecursiveLeastSquare.h Pages: 1 -->
<svg width="703pt" height="441pt"
 viewBox="0.00 0.00 702.50 441.00" xmlns="http://www.w3.org/2000/svg" xmlns:xlink="http://www.w3.org/1999/xlink">
<g id="graph0" class="graph" transform="scale(1 1) rotate(0) translate(4 437)">
<title>Estimators/include/BipedalLocomotion/Estimators/RecursiveLeastSquare.h</title>
<!-- Node1 -->
<g id="node1" class="node">
<title>Node1</title>
<g id="a_node1"><a xlink:title=" ">
<polygon fill="#bfbfbf" stroke="black" points="365,-391.5 365,-432.5 534,-432.5 534,-391.5 365,-391.5"/>
<text text-anchor="start" x="373" y="-420.5" font-family="Helvetica,sans-Serif" font-size="10.00">Estimators/include</text>
<text text-anchor="start" x="373" y="-409.5" font-family="Helvetica,sans-Serif" font-size="10.00">/BipedalLocomotion/Estimators</text>
<text text-anchor="middle" x="449.5" y="-398.5" font-family="Helvetica,sans-Serif" font-size="10.00">/RecursiveLeastSquare.h</text>
</a>
</g>
</g>
<!-- Node2 -->
<g id="node2" class="node">
<title>Node2</title>
<g id="a_node2"><a xlink:title=" ">
<polygon fill="none" stroke="#bfbfbf" points="0,-62 0,-81 65,-81 65,-62 0,-62"/>
<text text-anchor="middle" x="32.5" y="-69" font-family="Helvetica,sans-Serif" font-size="10.00">functional</text>
</a>
</g>
</g>
<!-- Node1&#45;&gt;Node2 -->
<g id="edge1" class="edge">
<title>Node1&#45;&gt;Node2</title>
<path fill="none" stroke="midnightblue" d="M364.65,-397.46C253.75,-377.31 73.5,-335.1 73.5,-273.5 73.5,-273.5 73.5,-273.5 73.5,-204.5 73.5,-162.09 53.96,-115.32 41.85,-90.42"/>
<polygon fill="midnightblue" stroke="midnightblue" points="44.82,-88.53 37.2,-81.17 38.57,-91.68 44.82,-88.53"/>
</g>
<!-- Node3 -->
<g id="node3" class="node">
<title>Node3</title>
<g id="a_node3"><a xlink:title=" ">
<polygon fill="none" stroke="#bfbfbf" points="547.5,-62 547.5,-81 605.5,-81 605.5,-62 547.5,-62"/>
<text text-anchor="middle" x="576.5" y="-69" font-family="Helvetica,sans-Serif" font-size="10.00">memory</text>
</a>
</g>
</g>
<!-- Node1&#45;&gt;Node3 -->
<g id="edge2" class="edge">
<title>Node1&#45;&gt;Node3</title>
<path fill="none" stroke="midnightblue" d="M469.84,-391.37C479.21,-381.3 489.72,-368.36 496.5,-355 513.37,-321.74 516.5,-310.8 516.5,-273.5 516.5,-273.5 516.5,-273.5 516.5,-204.5 516.5,-159.63 545.58,-113.26 563.25,-89.22"/>
<polygon fill="midnightblue" stroke="midnightblue" points="566.12,-91.23 569.38,-81.15 560.55,-87 566.12,-91.23"/>
</g>
<!-- Node4 -->
<g id="node4" class="node">
<title>Node4</title>
<g id="a_node4"><a xlink:title=" ">
<polygon fill="none" stroke="#bfbfbf" points="411,-330 411,-349 488,-349 488,-330 411,-330"/>
<text text-anchor="middle" x="449.5" y="-337" font-family="Helvetica,sans-Serif" font-size="10.00">Eigen/Dense</text>
</a>
</g>
</g>
<!-- Node1&#45;&gt;Node4 -->
<g id="edge3" class="edge">
<title>Node1&#45;&gt;Node4</title>
<path fill="none" stroke="midnightblue" d="M449.5,-391.36C449.5,-381.3 449.5,-369.1 449.5,-359.18"/>
<polygon fill="midnightblue" stroke="midnightblue" points="453,-359.17 449.5,-349.17 446,-359.17 453,-359.17"/>
</g>
<!-- Node5 -->
<g id="node5" class="node">
<title>Node5</title>
<g id="a_node5"><a xlink:href="IParametersHandler_8h.html" target="_top" xlink:title=" ">
<polygon fill="none" stroke="black" points="298,-190.5 298,-220.5 467,-220.5 467,-190.5 298,-190.5"/>
<text text-anchor="start" x="306" y="-208.5" font-family="Helvetica,sans-Serif" font-size="10.00">BipedalLocomotion/Parameters</text>
<text text-anchor="middle" x="382.5" y="-197.5" font-family="Helvetica,sans-Serif" font-size="10.00">Handler/IParametersHandler.h</text>
</a>
</g>
</g>
<!-- Node1&#45;&gt;Node5 -->
<g id="edge4" class="edge">
<title>Node1&#45;&gt;Node5</title>
<path fill="none" stroke="midnightblue" d="M427.54,-391.25C417.95,-381.35 407.53,-368.58 401.5,-355 383.37,-314.17 381.02,-261.22 381.43,-230.83"/>
<polygon fill="midnightblue" stroke="midnightblue" points="384.93,-230.81 381.69,-220.72 377.94,-230.63 384.93,-230.81"/>
</g>
<!-- Node16 -->
<g id="node16" class="node">
<title>Node16</title>
<g id="a_node16"><a xlink:href="Source_8h.html" target="_top" xlink:title=" ">
<polygon fill="none" stroke="black" points="544.5,-324.5 544.5,-354.5 694.5,-354.5 694.5,-324.5 544.5,-324.5"/>
<text text-anchor="start" x="552.5" y="-342.5" font-family="Helvetica,sans-Serif" font-size="10.00">BipedalLocomotion/System</text>
<text text-anchor="middle" x="619.5" y="-331.5" font-family="Helvetica,sans-Serif" font-size="10.00">/Source.h</text>
</a>
</g>
</g>
<!-- Node1&#45;&gt;Node16 -->
<g id="edge19" class="edge">
<title>Node1&#45;&gt;Node16</title>
<path fill="none" stroke="midnightblue" d="M496.85,-391.36C521.75,-381.04 552.04,-368.48 576.29,-358.42"/>
<polygon fill="midnightblue" stroke="midnightblue" points="577.7,-361.62 585.6,-354.56 575.02,-355.16 577.7,-361.62"/>
</g>
<!-- Node5&#45;&gt;Node3 -->
<g id="edge5" class="edge">
<title>Node5&#45;&gt;Node3</title>
<path fill="none" stroke="midnightblue" d="M403.26,-190.37C440.39,-165.11 517.76,-112.46 555.24,-86.96"/>
<polygon fill="midnightblue" stroke="midnightblue" points="557.57,-89.62 563.86,-81.1 553.63,-83.83 557.57,-89.62"/>
</g>
<!-- Node6 -->
<g id="node6" class="node">
<title>Node6</title>
<g id="a_node6"><a xlink:title=" ">
<polygon fill="none" stroke="#bfbfbf" points="133.5,-129 133.5,-148 177.5,-148 177.5,-129 133.5,-129"/>
<text text-anchor="middle" x="155.5" y="-136" font-family="Helvetica,sans-Serif" font-size="10.00">string</text>
</a>
</g>
</g>
<!-- Node5&#45;&gt;Node6 -->
<g id="edge6" class="edge">
<title>Node5&#45;&gt;Node6</title>
<path fill="none" stroke="midnightblue" d="M315.35,-190.45C277.06,-181.63 228.5,-169.09 186.5,-154 184.89,-153.42 183.24,-152.79 181.59,-152.12"/>
<polygon fill="midnightblue" stroke="midnightblue" points="182.88,-148.86 172.32,-148.06 180.07,-155.27 182.88,-148.86"/>
</g>
<!-- Node7 -->
<g id="node7" class="node">
<title>Node7</title>
<g id="a_node7"><a xlink:title=" ">
<polygon fill="none" stroke="#bfbfbf" points="196,-129 196,-148 243,-148 243,-129 196,-129"/>
<text text-anchor="middle" x="219.5" y="-136" font-family="Helvetica,sans-Serif" font-size="10.00">vector</text>
</a>
</g>
</g>
<!-- Node5&#45;&gt;Node7 -->
<g id="edge7" class="edge">
<title>Node5&#45;&gt;Node7</title>
<path fill="none" stroke="midnightblue" d="M344.43,-190.49C318.17,-180.66 282.52,-167 251.5,-154 250.13,-153.43 248.73,-152.83 247.32,-152.22"/>
<polygon fill="midnightblue" stroke="midnightblue" points="248.6,-148.96 238.03,-148.12 245.76,-155.36 248.6,-148.96"/>
</g>
<!-- Node8 -->
<g id="node8" class="node">
<title>Node8</title>
<g id="a_node8"><a xlink:href="TemplateHelpers_8h_source.html" target="_top" xlink:title=" ">
<polygon fill="none" stroke="black" points="371.5,-56.5 371.5,-86.5 529.5,-86.5 529.5,-56.5 371.5,-56.5"/>
<text text-anchor="start" x="379.5" y="-74.5" font-family="Helvetica,sans-Serif" font-size="10.00">BipedalLocomotion/Generic</text>
<text text-anchor="middle" x="450.5" y="-63.5" font-family="Helvetica,sans-Serif" font-size="10.00">Container/TemplateHelpers.h</text>
</a>
</g>
</g>
<!-- Node5&#45;&gt;Node8 -->
<g id="edge8" class="edge">
<title>Node5&#45;&gt;Node8</title>
<path fill="none" stroke="midnightblue" d="M395.01,-190.25C403.08,-180.54 413.36,-167.1 420.5,-154 430.5,-135.65 438.47,-113.27 443.67,-96.61"/>
<polygon fill="midnightblue" stroke="midnightblue" points="447.16,-97.17 446.68,-86.59 440.45,-95.16 447.16,-97.17"/>
</g>
<!-- Node12 -->
<g id="node12" class="node">
<title>Node12</title>
<g id="a_node12"><a xlink:href="Vector_8h_source.html" target="_top" xlink:title=" ">
<polygon fill="none" stroke="black" points="261,-123.5 261,-153.5 412,-153.5 412,-123.5 261,-123.5"/>
<text text-anchor="start" x="269" y="-141.5" font-family="Helvetica,sans-Serif" font-size="10.00">BipedalLocomotion/Generic</text>
<text text-anchor="middle" x="336.5" y="-130.5" font-family="Helvetica,sans-Serif" font-size="10.00">Container/Vector.h</text>
</a>
</g>
</g>
<!-- Node5&#45;&gt;Node12 -->
<g id="edge12" class="edge">
<title>Node5&#45;&gt;Node12</title>
<path fill="none" stroke="midnightblue" d="M372.52,-190.4C366.61,-182.05 359,-171.29 352.29,-161.81"/>
<polygon fill="midnightblue" stroke="midnightblue" points="355.1,-159.72 346.46,-153.58 349.38,-163.76 355.1,-159.72"/>
</g>
<!-- Node9 -->
<g id="node9" class="node">
<title>Node9</title>
<g id="a_node9"><a xlink:title=" ">
<polygon fill="none" stroke="#bfbfbf" points="327,-0.5 327,-19.5 396,-19.5 396,-0.5 327,-0.5"/>
<text text-anchor="middle" x="361.5" y="-7.5" font-family="Helvetica,sans-Serif" font-size="10.00">type_traits</text>
</a>
</g>
</g>
<!-- Node8&#45;&gt;Node9 -->
<g id="edge9" class="edge">
<title>Node8&#45;&gt;Node9</title>
<path fill="none" stroke="midnightblue" d="M429.41,-56.4C415.41,-47.04 397.09,-34.79 383.01,-25.38"/>
<polygon fill="midnightblue" stroke="midnightblue" points="384.71,-22.31 374.45,-19.66 380.82,-28.13 384.71,-22.31"/>
</g>
<!-- Node10 -->
<g id="node10" class="node">
<title>Node10</title>
<g id="a_node10"><a xlink:title=" ">
<polygon fill="none" stroke="#bfbfbf" points="414,-0.5 414,-19.5 487,-19.5 487,-0.5 414,-0.5"/>
<text text-anchor="middle" x="450.5" y="-7.5" font-family="Helvetica,sans-Serif" font-size="10.00">string_view</text>
</a>
</g>
</g>
<!-- Node8&#45;&gt;Node10 -->
<g id="edge10" class="edge">
<title>Node8&#45;&gt;Node10</title>
<path fill="none" stroke="midnightblue" d="M450.5,-56.4C450.5,-48.47 450.5,-38.46 450.5,-29.86"/>
<polygon fill="midnightblue" stroke="midnightblue" points="454,-29.66 450.5,-19.66 447,-29.66 454,-29.66"/>
</g>
<!-- Node11 -->
<g id="node11" class="node">
<title>Node11</title>
<g id="a_node11"><a xlink:title=" ">
<polygon fill="none" stroke="#bfbfbf" points="505,-0.5 505,-19.5 574,-19.5 574,-0.5 505,-0.5"/>
<text text-anchor="middle" x="539.5" y="-7.5" font-family="Helvetica,sans-Serif" font-size="10.00">Eigen/Core</text>
</a>
</g>
</g>
<!-- Node8&#45;&gt;Node11 -->
<g id="edge11" class="edge">
<title>Node8&#45;&gt;Node11</title>
<path fill="none" stroke="midnightblue" d="M471.59,-56.4C485.59,-47.04 503.91,-34.79 517.99,-25.38"/>
<polygon fill="midnightblue" stroke="midnightblue" points="520.18,-28.13 526.55,-19.66 516.29,-22.31 520.18,-28.13"/>
</g>
<!-- Node12&#45;&gt;Node2 -->
<g id="edge15" class="edge">
<title>Node12&#45;&gt;Node2</title>
<path fill="none" stroke="midnightblue" d="M260.96,-124.17C196.48,-112.57 108.9,-96.2 74.5,-87 71.47,-86.19 68.34,-85.27 65.22,-84.3"/>
<polygon fill="midnightblue" stroke="midnightblue" points="66.02,-80.87 55.42,-81.07 63.83,-87.52 66.02,-80.87"/>
</g>
<!-- Node12&#45;&gt;Node3 -->
<g id="edge18" class="edge">
<title>Node12&#45;&gt;Node3</title>
<path fill="none" stroke="midnightblue" d="M401.18,-123.41C441.1,-114.2 493.15,-101.26 538.5,-87 540.92,-86.24 543.4,-85.41 545.89,-84.54"/>
<polygon fill="midnightblue" stroke="midnightblue" points="547.16,-87.8 555.35,-81.08 544.76,-81.23 547.16,-87.8"/>
</g>
<!-- Node12&#45;&gt;Node8 -->
<g id="edge14" class="edge">
<title>Node12&#45;&gt;Node8</title>
<path fill="none" stroke="midnightblue" d="M361.24,-123.4C377.52,-114.11 399.04,-101.84 416.87,-91.67"/>
<polygon fill="midnightblue" stroke="midnightblue" points="418.86,-94.57 425.81,-86.58 415.39,-88.49 418.86,-94.57"/>
</g>
<!-- Node13 -->
<g id="node13" class="node">
<title>Node13</title>
<g id="a_node13"><a xlink:title=" ">
<polygon fill="none" stroke="#bfbfbf" points="162,-62 162,-81 283,-81 283,-62 162,-62"/>
<text text-anchor="middle" x="222.5" y="-69" font-family="Helvetica,sans-Serif" font-size="10.00">iDynTree/Core/Span.h</text>
</a>
</g>
</g>
<!-- Node12&#45;&gt;Node13 -->
<g id="edge13" class="edge">
<title>Node12&#45;&gt;Node13</title>
<path fill="none" stroke="midnightblue" d="M311.76,-123.4C292.29,-112.29 265.33,-96.92 246.15,-85.98"/>
<polygon fill="midnightblue" stroke="midnightblue" points="247.84,-82.92 237.42,-81.01 244.37,-89 247.84,-82.92"/>
</g>
<!-- Node14 -->
<g id="node14" class="node">
<title>Node14</title>
<g id="a_node14"><a xlink:title=" ">
<polygon fill="none" stroke="#bfbfbf" points="301.5,-62 301.5,-81 353.5,-81 353.5,-62 301.5,-62"/>
<text text-anchor="middle" x="327.5" y="-69" font-family="Helvetica,sans-Serif" font-size="10.00">cassert</text>
</a>
</g>
</g>
<!-- Node12&#45;&gt;Node14 -->
<g id="edge16" class="edge">
<title>Node12&#45;&gt;Node14</title>
<path fill="none" stroke="midnightblue" d="M334.55,-123.4C333.24,-113.96 331.51,-101.45 330.09,-91.19"/>
<polygon fill="midnightblue" stroke="midnightblue" points="333.54,-90.62 328.7,-81.19 326.61,-91.58 333.54,-90.62"/>
</g>
<!-- Node15 -->
<g id="node15" class="node">
<title>Node15</title>
<g id="a_node15"><a xlink:title=" ">
<polygon fill="none" stroke="#bfbfbf" points="83.5,-62 83.5,-81 143.5,-81 143.5,-62 83.5,-62"/>
<text text-anchor="middle" x="113.5" y="-69" font-family="Helvetica,sans-Serif" font-size="10.00">iostream</text>
</a>
</g>
</g>
<!-- Node12&#45;&gt;Node15 -->
<g id="edge17" class="edge">
<title>Node12&#45;&gt;Node15</title>
<path fill="none" stroke="midnightblue" d="M280.16,-123.41C243.54,-113.92 194.9,-100.67 152.5,-87 150.09,-86.22 147.62,-85.39 145.13,-84.53"/>
<polygon fill="midnightblue" stroke="midnightblue" points="146.25,-81.21 135.66,-81.12 143.88,-87.8 146.25,-81.21"/>
</g>
<!-- Node17 -->
<g id="node17" class="node">
<title>Node17</title>
<g id="a_node17"><a xlink:href="Advanceable_8h.html" target="_top" xlink:title=" ">
<polygon fill="none" stroke="black" points="544.5,-257.5 544.5,-287.5 694.5,-287.5 694.5,-257.5 544.5,-257.5"/>
<text text-anchor="start" x="552.5" y="-275.5" font-family="Helvetica,sans-Serif" font-size="10.00">BipedalLocomotion/System</text>
<text text-anchor="middle" x="619.5" y="-264.5" font-family="Helvetica,sans-Serif" font-size="10.00">/Advanceable.h</text>
</a>
</g>
</g>
<!-- Node16&#45;&gt;Node17 -->
<g id="edge20" class="edge">
<title>Node16&#45;&gt;Node17</title>
<path fill="none" stroke="midnightblue" d="M619.5,-324.4C619.5,-316.64 619.5,-306.81 619.5,-297.86"/>
<polygon fill="midnightblue" stroke="midnightblue" points="623,-297.58 619.5,-287.58 616,-297.58 623,-297.58"/>
</g>
<!-- Node17&#45;&gt;Node5 -->
<g id="edge22" class="edge">
<title>Node17&#45;&gt;Node5</title>
<path fill="none" stroke="midnightblue" d="M568.37,-257.48C531.89,-247.47 482.66,-233.97 444.04,-223.38"/>
<polygon fill="midnightblue" stroke="midnightblue" points="444.52,-219.88 433.95,-220.61 442.67,-226.63 444.52,-219.88"/>
</g>
<!-- Node18 -->
<g id="node18" class="node">
<title>Node18</title>
<g id="a_node18"><a xlink:title=" ">
<polygon fill="none" stroke="#bfbfbf" points="594,-196 594,-215 645,-215 645,-196 594,-196"/>
<text text-anchor="middle" x="619.5" y="-203" font-family="Helvetica,sans-Serif" font-size="10.00">variant</text>
</a>
</g>
</g>
<!-- Node17&#45;&gt;Node18 -->
<g id="edge21" class="edge">
<title>Node17&#45;&gt;Node18</title>
<path fill="none" stroke="midnightblue" d="M619.5,-257.4C619.5,-248.06 619.5,-235.71 619.5,-225.52"/>
<polygon fill="midnightblue" stroke="midnightblue" points="623,-225.19 619.5,-215.19 616,-225.19 623,-225.19"/>
</g>
</g>
</svg>
