<?xml version="1.0" encoding="UTF-8" standalone="no"?>
<!DOCTYPE svg PUBLIC "-//W3C//DTD SVG 1.1//EN"
 "http://www.w3.org/Graphics/SVG/1.1/DTD/svg11.dtd">
<!-- Generated by graphviz version 2.43.0 (0)
 -->
<!-- Title: YarpUtilities/src/RosPublisher.cpp Pages: 1 -->
<svg width="1775pt" height="352pt"
 viewBox="0.00 0.00 1775.00 352.00" xmlns="http://www.w3.org/2000/svg" xmlns:xlink="http://www.w3.org/1999/xlink">
<g id="graph0" class="graph" transform="scale(1 1) rotate(0) translate(4 348)">
<title>YarpUtilities/src/RosPublisher.cpp</title>
<!-- Node1 -->
<g id="node1" class="node">
<title>Node1</title>
<g id="a_node1"><a xlink:title=" ">
<polygon fill="#bfbfbf" stroke="black" points="933,-324.5 933,-343.5 1111,-343.5 1111,-324.5 933,-324.5"/>
<text text-anchor="middle" x="1022" y="-331.5" font-family="Helvetica,sans-Serif" font-size="10.00">YarpUtilities/src/RosPublisher.cpp</text>
</a>
</g>
</g>
<!-- Node2 -->
<g id="node2" class="node">
<title>Node2</title>
<g id="a_node2"><a xlink:href="RosPublisher_8h.html" target="_top" xlink:title=" ">
<polygon fill="none" stroke="black" points="199,-257.5 199,-287.5 371,-287.5 371,-257.5 199,-257.5"/>
<text text-anchor="start" x="207" y="-275.5" font-family="Helvetica,sans-Serif" font-size="10.00">BipedalLocomotion/YarpUtilities</text>
<text text-anchor="middle" x="285" y="-264.5" font-family="Helvetica,sans-Serif" font-size="10.00">/RosPublisher.h</text>
</a>
</g>
</g>
<!-- Node1&#45;&gt;Node2 -->
<g id="edge1" class="edge">
<title>Node1&#45;&gt;Node2</title>
<path fill="none" stroke="midnightblue" d="M932.88,-328.99C808.88,-322.91 577.4,-309.69 381,-288 380.9,-287.99 380.8,-287.98 380.69,-287.97"/>
<polygon fill="midnightblue" stroke="midnightblue" points="381.39,-284.52 371.05,-286.84 380.57,-291.48 381.39,-284.52"/>
</g>
<!-- Node16 -->
<g id="node16" class="node">
<title>Node16</title>
<g id="a_node16"><a xlink:title=" ">
<polygon fill="none" stroke="#bfbfbf" points="389.5,-263 389.5,-282 478.5,-282 478.5,-263 389.5,-263"/>
<text text-anchor="middle" x="434" y="-270" font-family="Helvetica,sans-Serif" font-size="10.00">yarp/os/Time.h</text>
</a>
</g>
</g>
<!-- Node1&#45;&gt;Node16 -->
<g id="edge21" class="edge">
<title>Node1&#45;&gt;Node16</title>
<path fill="none" stroke="midnightblue" d="M932.56,-330.33C825.99,-326.03 642.88,-315.1 488,-288 482.81,-287.09 477.4,-285.92 472.09,-284.63"/>
<polygon fill="midnightblue" stroke="midnightblue" points="472.65,-281.16 462.09,-282.06 470.91,-287.94 472.65,-281.16"/>
</g>
<!-- Node17 -->
<g id="node17" class="node">
<title>Node17</title>
<g id="a_node17"><a xlink:title=" ">
<polygon fill="none" stroke="#bfbfbf" points="497,-263 497,-282 587,-282 587,-263 497,-263"/>
<text text-anchor="middle" x="542" y="-270" font-family="Helvetica,sans-Serif" font-size="10.00">yarp/os/Node.h</text>
</a>
</g>
</g>
<!-- Node1&#45;&gt;Node17 -->
<g id="edge22" class="edge">
<title>Node1&#45;&gt;Node17</title>
<path fill="none" stroke="midnightblue" d="M932.71,-327.52C846.32,-321.28 711.94,-309.11 597,-288 591.79,-287.04 586.35,-285.85 581.01,-284.56"/>
<polygon fill="midnightblue" stroke="midnightblue" points="581.48,-281.07 570.93,-282.01 579.76,-287.86 581.48,-281.07"/>
</g>
<!-- Node18 -->
<g id="node18" class="node">
<title>Node18</title>
<g id="a_node18"><a xlink:title=" ">
<polygon fill="none" stroke="#bfbfbf" points="605.5,-263 605.5,-282 714.5,-282 714.5,-263 605.5,-263"/>
<text text-anchor="middle" x="660" y="-270" font-family="Helvetica,sans-Serif" font-size="10.00">yarp/os/Publisher.h</text>
</a>
</g>
</g>
<!-- Node1&#45;&gt;Node18 -->
<g id="edge23" class="edge">
<title>Node1&#45;&gt;Node18</title>
<path fill="none" stroke="midnightblue" d="M956.37,-324.49C895.83,-316.31 803.57,-303 724,-288 718.05,-286.88 711.81,-285.6 705.65,-284.27"/>
<polygon fill="midnightblue" stroke="midnightblue" points="705.97,-280.76 695.45,-282.02 704.46,-287.59 705.97,-280.76"/>
</g>
<!-- Node19 -->
<g id="node19" class="node">
<title>Node19</title>
<g id="a_node19"><a xlink:title=" ">
<polygon fill="none" stroke="#bfbfbf" points="733,-263 733,-282 855,-282 855,-263 733,-263"/>
<text text-anchor="middle" x="794" y="-270" font-family="Helvetica,sans-Serif" font-size="10.00">yarp/dev/PolyDriver.h</text>
</a>
</g>
</g>
<!-- Node1&#45;&gt;Node19 -->
<g id="edge24" class="edge">
<title>Node1&#45;&gt;Node19</title>
<path fill="none" stroke="midnightblue" d="M989.33,-324.48C949.12,-313.98 880.74,-296.14 836.48,-284.59"/>
<polygon fill="midnightblue" stroke="midnightblue" points="837.17,-281.15 826.61,-282.01 835.4,-287.92 837.17,-281.15"/>
</g>
<!-- Node20 -->
<g id="node20" class="node">
<title>Node20</title>
<g id="a_node20"><a xlink:title=" ">
<polygon fill="none" stroke="#bfbfbf" points="873,-263 873,-282 1027,-282 1027,-263 873,-263"/>
<text text-anchor="middle" x="950" y="-270" font-family="Helvetica,sans-Serif" font-size="10.00">yarp/dev/IFrameTransform.h</text>
</a>
</g>
</g>
<!-- Node1&#45;&gt;Node20 -->
<g id="edge25" class="edge">
<title>Node1&#45;&gt;Node20</title>
<path fill="none" stroke="midnightblue" d="M1011.68,-324.48C1000.35,-315.11 981.93,-299.88 968.16,-288.51"/>
<polygon fill="midnightblue" stroke="midnightblue" points="970.23,-285.68 960.3,-282.01 965.78,-291.08 970.23,-285.68"/>
</g>
<!-- Node21 -->
<g id="node21" class="node">
<title>Node21</title>
<g id="a_node21"><a xlink:title=" ">
<polygon fill="none" stroke="#bfbfbf" points="1045.5,-263 1045.5,-282 1144.5,-282 1144.5,-263 1045.5,-263"/>
<text text-anchor="middle" x="1095" y="-270" font-family="Helvetica,sans-Serif" font-size="10.00">yarp/sig/Matrix.h</text>
</a>
</g>
</g>
<!-- Node1&#45;&gt;Node21 -->
<g id="edge26" class="edge">
<title>Node1&#45;&gt;Node21</title>
<path fill="none" stroke="midnightblue" d="M1032.46,-324.48C1043.95,-315.11 1062.63,-299.88 1076.59,-288.51"/>
<polygon fill="midnightblue" stroke="midnightblue" points="1079.02,-291.04 1084.56,-282.01 1074.6,-285.61 1079.02,-291.04"/>
</g>
<!-- Node22 -->
<g id="node22" class="node">
<title>Node22</title>
<g id="a_node22"><a xlink:title=" ">
<polygon fill="none" stroke="#bfbfbf" points="1163,-263 1163,-282 1297,-282 1297,-263 1163,-263"/>
<text text-anchor="middle" x="1230" y="-270" font-family="Helvetica,sans-Serif" font-size="10.00">yarp/rosmsg/TickTime.h</text>
</a>
</g>
</g>
<!-- Node1&#45;&gt;Node22 -->
<g id="edge27" class="edge">
<title>Node1&#45;&gt;Node22</title>
<path fill="none" stroke="midnightblue" d="M1051.8,-324.48C1088.25,-314.05 1150.08,-296.36 1190.47,-284.81"/>
<polygon fill="midnightblue" stroke="midnightblue" points="1191.6,-288.12 1200.25,-282.01 1189.68,-281.39 1191.6,-288.12"/>
</g>
<!-- Node23 -->
<g id="node23" class="node">
<title>Node23</title>
<g id="a_node23"><a xlink:title=" ">
<polygon fill="none" stroke="#bfbfbf" points="1315.5,-257.5 1315.5,-287.5 1428.5,-287.5 1428.5,-257.5 1315.5,-257.5"/>
<text text-anchor="start" x="1323.5" y="-275.5" font-family="Helvetica,sans-Serif" font-size="10.00">yarp/rosmsg/sensor</text>
<text text-anchor="middle" x="1372" y="-264.5" font-family="Helvetica,sans-Serif" font-size="10.00">_msgs/JointState.h</text>
</a>
</g>
</g>
<!-- Node1&#45;&gt;Node23 -->
<g id="edge28" class="edge">
<title>Node1&#45;&gt;Node23</title>
<path fill="none" stroke="midnightblue" d="M1082.57,-324.46C1137.99,-316.41 1222.49,-303.53 1305.33,-288.06"/>
<polygon fill="midnightblue" stroke="midnightblue" points="1305.98,-291.5 1315.16,-286.21 1304.69,-284.62 1305.98,-291.5"/>
</g>
<!-- Node24 -->
<g id="node24" class="node">
<title>Node24</title>
<g id="a_node24"><a xlink:title=" ">
<polygon fill="none" stroke="#bfbfbf" points="1447,-257.5 1447,-287.5 1587,-287.5 1587,-257.5 1447,-257.5"/>
<text text-anchor="start" x="1455" y="-275.5" font-family="Helvetica,sans-Serif" font-size="10.00">yarp/rosmsg/geometry</text>
<text text-anchor="middle" x="1517" y="-264.5" font-family="Helvetica,sans-Serif" font-size="10.00">_msgs/WrenchStamped.h</text>
</a>
</g>
</g>
<!-- Node1&#45;&gt;Node24 -->
<g id="edge29" class="edge">
<title>Node1&#45;&gt;Node24</title>
<path fill="none" stroke="midnightblue" d="M1111.1,-325.28C1193.19,-317.73 1318.59,-305.08 1436.88,-288.1"/>
<polygon fill="midnightblue" stroke="midnightblue" points="1437.44,-291.55 1446.83,-286.66 1436.43,-284.63 1437.44,-291.55"/>
</g>
<!-- Node25 -->
<g id="node25" class="node">
<title>Node25</title>
<g id="a_node25"><a xlink:title=" ">
<polygon fill="none" stroke="#bfbfbf" points="1605.5,-263 1605.5,-282 1698.5,-282 1698.5,-263 1605.5,-263"/>
<text text-anchor="middle" x="1652" y="-270" font-family="Helvetica,sans-Serif" font-size="10.00">unordered_map</text>
</a>
</g>
</g>
<!-- Node1&#45;&gt;Node25 -->
<g id="edge30" class="edge">
<title>Node1&#45;&gt;Node25</title>
<path fill="none" stroke="midnightblue" d="M1111.09,-330.84C1224.44,-327 1425.94,-316.46 1596,-288 1601.57,-287.07 1607.4,-285.84 1613.1,-284.5"/>
<polygon fill="midnightblue" stroke="midnightblue" points="1614.29,-287.82 1623.14,-282 1612.59,-281.02 1614.29,-287.82"/>
</g>
<!-- Node26 -->
<g id="node26" class="node">
<title>Node26</title>
<g id="a_node26"><a xlink:title=" ">
<polygon fill="none" stroke="#bfbfbf" points="1717,-263 1717,-282 1767,-282 1767,-263 1717,-263"/>
<text text-anchor="middle" x="1742" y="-270" font-family="Helvetica,sans-Serif" font-size="10.00">chrono</text>
</a>
</g>
</g>
<!-- Node1&#45;&gt;Node26 -->
<g id="edge31" class="edge">
<title>Node1&#45;&gt;Node26</title>
<path fill="none" stroke="midnightblue" d="M1111.09,-330.88C1270.26,-326.47 1597.2,-314.45 1708,-288 1710.51,-287.4 1713.08,-286.63 1715.61,-285.76"/>
<polygon fill="midnightblue" stroke="midnightblue" points="1717.06,-288.95 1725.09,-282.04 1714.5,-282.44 1717.06,-288.95"/>
</g>
<!-- Node3 -->
<g id="node3" class="node">
<title>Node3</title>
<g id="a_node3"><a xlink:href="IParametersHandler_8h.html" target="_top" xlink:title=" ">
<polygon fill="none" stroke="black" points="88.5,-190.5 88.5,-220.5 257.5,-220.5 257.5,-190.5 88.5,-190.5"/>
<text text-anchor="start" x="96.5" y="-208.5" font-family="Helvetica,sans-Serif" font-size="10.00">BipedalLocomotion/Parameters</text>
<text text-anchor="middle" x="173" y="-197.5" font-family="Helvetica,sans-Serif" font-size="10.00">Handler/IParametersHandler.h</text>
</a>
</g>
</g>
<!-- Node2&#45;&gt;Node3 -->
<g id="edge2" class="edge">
<title>Node2&#45;&gt;Node3</title>
<path fill="none" stroke="midnightblue" d="M260.7,-257.4C244.7,-248.11 223.56,-235.84 206.04,-225.67"/>
<polygon fill="midnightblue" stroke="midnightblue" points="207.66,-222.57 197.25,-220.58 204.15,-228.62 207.66,-222.57"/>
</g>
<!-- Node4 -->
<g id="node4" class="node">
<title>Node4</title>
<g id="a_node4"><a xlink:title=" ">
<polygon fill="none" stroke="#bfbfbf" points="0,-62 0,-81 58,-81 58,-62 0,-62"/>
<text text-anchor="middle" x="29" y="-69" font-family="Helvetica,sans-Serif" font-size="10.00">memory</text>
</a>
</g>
</g>
<!-- Node2&#45;&gt;Node4 -->
<g id="edge18" class="edge">
<title>Node2&#45;&gt;Node4</title>
<path fill="none" stroke="midnightblue" d="M198.87,-258.91C150.69,-250.26 96.83,-237.38 79,-221 41.36,-186.41 32.04,-122.58 29.74,-91.08"/>
<polygon fill="midnightblue" stroke="midnightblue" points="33.23,-90.84 29.17,-81.05 26.24,-91.23 33.23,-90.84"/>
</g>
<!-- Node5 -->
<g id="node5" class="node">
<title>Node5</title>
<g id="a_node5"><a xlink:title=" ">
<polygon fill="none" stroke="#bfbfbf" points="371,-129 371,-148 415,-148 415,-129 371,-129"/>
<text text-anchor="middle" x="393" y="-136" font-family="Helvetica,sans-Serif" font-size="10.00">string</text>
</a>
</g>
</g>
<!-- Node2&#45;&gt;Node5 -->
<g id="edge20" class="edge">
<title>Node2&#45;&gt;Node5</title>
<path fill="none" stroke="midnightblue" d="M296.56,-257.37C316.7,-232.76 358.13,-182.12 379.53,-155.96"/>
<polygon fill="midnightblue" stroke="midnightblue" points="382.34,-158.05 385.97,-148.1 376.92,-153.62 382.34,-158.05"/>
</g>
<!-- Node11 -->
<g id="node11" class="node">
<title>Node11</title>
<g id="a_node11"><a xlink:href="Vector_8h_source.html" target="_top" xlink:title=" ">
<polygon fill="none" stroke="black" points="201.5,-123.5 201.5,-153.5 352.5,-153.5 352.5,-123.5 201.5,-123.5"/>
<text text-anchor="start" x="209.5" y="-141.5" font-family="Helvetica,sans-Serif" font-size="10.00">BipedalLocomotion/Generic</text>
<text text-anchor="middle" x="277" y="-130.5" font-family="Helvetica,sans-Serif" font-size="10.00">Container/Vector.h</text>
</a>
</g>
</g>
<!-- Node2&#45;&gt;Node11 -->
<g id="edge17" class="edge">
<title>Node2&#45;&gt;Node11</title>
<path fill="none" stroke="midnightblue" d="M284.14,-257.37C282.79,-235.04 280.14,-191.31 278.48,-163.85"/>
<polygon fill="midnightblue" stroke="midnightblue" points="281.95,-163.29 277.85,-153.52 274.96,-163.72 281.95,-163.29"/>
</g>
<!-- Node15 -->
<g id="node15" class="node">
<title>Node15</title>
<g id="a_node15"><a xlink:title=" ">
<polygon fill="none" stroke="#bfbfbf" points="545,-62 545,-81 605,-81 605,-62 545,-62"/>
<text text-anchor="middle" x="575" y="-69" font-family="Helvetica,sans-Serif" font-size="10.00">iostream</text>
</a>
</g>
</g>
<!-- Node2&#45;&gt;Node15 -->
<g id="edge19" class="edge">
<title>Node2&#45;&gt;Node15</title>
<path fill="none" stroke="midnightblue" d="M305.86,-257.19C359.26,-220.54 500.49,-123.63 554.03,-86.89"/>
<polygon fill="midnightblue" stroke="midnightblue" points="556.14,-89.69 562.4,-81.14 552.18,-83.92 556.14,-89.69"/>
</g>
<!-- Node3&#45;&gt;Node4 -->
<g id="edge3" class="edge">
<title>Node3&#45;&gt;Node4</title>
<path fill="none" stroke="midnightblue" d="M142.67,-190.36C125.47,-181.44 104.22,-168.82 88,-154 67.21,-135.02 49.22,-107.64 38.74,-89.95"/>
<polygon fill="midnightblue" stroke="midnightblue" points="41.74,-88.16 33.71,-81.24 35.68,-91.65 41.74,-88.16"/>
</g>
<!-- Node3&#45;&gt;Node5 -->
<g id="edge4" class="edge">
<title>Node3&#45;&gt;Node5</title>
<path fill="none" stroke="midnightblue" d="M236.86,-190.41C273.9,-181.5 321.15,-168.88 362,-154 363.61,-153.41 365.25,-152.77 366.9,-152.1"/>
<polygon fill="midnightblue" stroke="midnightblue" points="368.43,-155.25 376.17,-148.03 365.61,-148.85 368.43,-155.25"/>
</g>
<!-- Node6 -->
<g id="node6" class="node">
<title>Node6</title>
<g id="a_node6"><a xlink:title=" ">
<polygon fill="none" stroke="#bfbfbf" points="97.5,-129 97.5,-148 144.5,-148 144.5,-129 97.5,-129"/>
<text text-anchor="middle" x="121" y="-136" font-family="Helvetica,sans-Serif" font-size="10.00">vector</text>
</a>
</g>
</g>
<!-- Node3&#45;&gt;Node6 -->
<g id="edge5" class="edge">
<title>Node3&#45;&gt;Node6</title>
<path fill="none" stroke="midnightblue" d="M161.72,-190.4C153.69,-180.36 142.87,-166.84 134.4,-156.25"/>
<polygon fill="midnightblue" stroke="midnightblue" points="136.94,-153.82 127.96,-148.19 131.47,-158.19 136.94,-153.82"/>
</g>
<!-- Node7 -->
<g id="node7" class="node">
<title>Node7</title>
<g id="a_node7"><a xlink:href="TemplateHelpers_8h_source.html" target="_top" xlink:title=" ">
<polygon fill="none" stroke="black" points="76,-56.5 76,-86.5 234,-86.5 234,-56.5 76,-56.5"/>
<text text-anchor="start" x="84" y="-74.5" font-family="Helvetica,sans-Serif" font-size="10.00">BipedalLocomotion/Generic</text>
<text text-anchor="middle" x="155" y="-63.5" font-family="Helvetica,sans-Serif" font-size="10.00">Container/TemplateHelpers.h</text>
</a>
</g>
</g>
<!-- Node3&#45;&gt;Node7 -->
<g id="edge6" class="edge">
<title>Node3&#45;&gt;Node7</title>
<path fill="none" stroke="midnightblue" d="M171.07,-190.37C168.02,-167.94 162.01,-123.92 158.27,-96.49"/>
<polygon fill="midnightblue" stroke="midnightblue" points="161.73,-95.96 156.91,-86.52 154.8,-96.91 161.73,-95.96"/>
</g>
<!-- Node3&#45;&gt;Node11 -->
<g id="edge10" class="edge">
<title>Node3&#45;&gt;Node11</title>
<path fill="none" stroke="midnightblue" d="M195.57,-190.4C210.29,-181.2 229.69,-169.07 245.87,-158.95"/>
<polygon fill="midnightblue" stroke="midnightblue" points="247.85,-161.84 254.48,-153.58 244.14,-155.91 247.85,-161.84"/>
</g>
<!-- Node8 -->
<g id="node8" class="node">
<title>Node8</title>
<g id="a_node8"><a xlink:title=" ">
<polygon fill="none" stroke="#bfbfbf" points="31.5,-0.5 31.5,-19.5 100.5,-19.5 100.5,-0.5 31.5,-0.5"/>
<text text-anchor="middle" x="66" y="-7.5" font-family="Helvetica,sans-Serif" font-size="10.00">type_traits</text>
</a>
</g>
</g>
<!-- Node7&#45;&gt;Node8 -->
<g id="edge7" class="edge">
<title>Node7&#45;&gt;Node8</title>
<path fill="none" stroke="midnightblue" d="M133.91,-56.4C119.91,-47.04 101.59,-34.79 87.51,-25.38"/>
<polygon fill="midnightblue" stroke="midnightblue" points="89.21,-22.31 78.95,-19.66 85.32,-28.13 89.21,-22.31"/>
</g>
<!-- Node9 -->
<g id="node9" class="node">
<title>Node9</title>
<g id="a_node9"><a xlink:title=" ">
<polygon fill="none" stroke="#bfbfbf" points="118.5,-0.5 118.5,-19.5 191.5,-19.5 191.5,-0.5 118.5,-0.5"/>
<text text-anchor="middle" x="155" y="-7.5" font-family="Helvetica,sans-Serif" font-size="10.00">string_view</text>
</a>
</g>
</g>
<!-- Node7&#45;&gt;Node9 -->
<g id="edge8" class="edge">
<title>Node7&#45;&gt;Node9</title>
<path fill="none" stroke="midnightblue" d="M155,-56.4C155,-48.47 155,-38.46 155,-29.86"/>
<polygon fill="midnightblue" stroke="midnightblue" points="158.5,-29.66 155,-19.66 151.5,-29.66 158.5,-29.66"/>
</g>
<!-- Node10 -->
<g id="node10" class="node">
<title>Node10</title>
<g id="a_node10"><a xlink:title=" ">
<polygon fill="none" stroke="#bfbfbf" points="209.5,-0.5 209.5,-19.5 278.5,-19.5 278.5,-0.5 209.5,-0.5"/>
<text text-anchor="middle" x="244" y="-7.5" font-family="Helvetica,sans-Serif" font-size="10.00">Eigen/Core</text>
</a>
</g>
</g>
<!-- Node7&#45;&gt;Node10 -->
<g id="edge9" class="edge">
<title>Node7&#45;&gt;Node10</title>
<path fill="none" stroke="midnightblue" d="M176.09,-56.4C190.09,-47.04 208.41,-34.79 222.49,-25.38"/>
<polygon fill="midnightblue" stroke="midnightblue" points="224.68,-28.13 231.05,-19.66 220.79,-22.31 224.68,-28.13"/>
</g>
<!-- Node11&#45;&gt;Node4 -->
<g id="edge16" class="edge">
<title>Node11&#45;&gt;Node4</title>
<path fill="none" stroke="midnightblue" d="M208.78,-123.42C167.4,-114.31 113.75,-101.47 67,-87 64.58,-86.25 62.09,-85.43 59.6,-84.56"/>
<polygon fill="midnightblue" stroke="midnightblue" points="60.73,-81.25 50.14,-81.12 58.33,-87.83 60.73,-81.25"/>
</g>
<!-- Node11&#45;&gt;Node7 -->
<g id="edge12" class="edge">
<title>Node11&#45;&gt;Node7</title>
<path fill="none" stroke="midnightblue" d="M250.53,-123.4C232.94,-114.03 209.65,-101.62 190.46,-91.39"/>
<polygon fill="midnightblue" stroke="midnightblue" points="191.89,-88.19 181.42,-86.58 188.6,-94.37 191.89,-88.19"/>
</g>
<!-- Node12 -->
<g id="node12" class="node">
<title>Node12</title>
<g id="a_node12"><a xlink:title=" ">
<polygon fill="none" stroke="#bfbfbf" points="322.5,-62 322.5,-81 443.5,-81 443.5,-62 322.5,-62"/>
<text text-anchor="middle" x="383" y="-69" font-family="Helvetica,sans-Serif" font-size="10.00">iDynTree/Core/Span.h</text>
</a>
</g>
</g>
<!-- Node11&#45;&gt;Node12 -->
<g id="edge11" class="edge">
<title>Node11&#45;&gt;Node12</title>
<path fill="none" stroke="midnightblue" d="M300,-123.4C317.94,-112.39 342.72,-97.2 360.52,-86.28"/>
<polygon fill="midnightblue" stroke="midnightblue" points="362.43,-89.22 369.13,-81.01 358.77,-83.25 362.43,-89.22"/>
</g>
<!-- Node13 -->
<g id="node13" class="node">
<title>Node13</title>
<g id="a_node13"><a xlink:title=" ">
<polygon fill="none" stroke="#bfbfbf" points="461.5,-62 461.5,-81 526.5,-81 526.5,-62 461.5,-62"/>
<text text-anchor="middle" x="494" y="-69" font-family="Helvetica,sans-Serif" font-size="10.00">functional</text>
</a>
</g>
</g>
<!-- Node11&#45;&gt;Node13 -->
<g id="edge13" class="edge">
<title>Node11&#45;&gt;Node13</title>
<path fill="none" stroke="midnightblue" d="M329.23,-123.41C364.38,-113.7 411.67,-100.22 453,-87 455.61,-86.17 458.3,-85.28 461,-84.37"/>
<polygon fill="midnightblue" stroke="midnightblue" points="462.36,-87.6 470.67,-81.03 460.07,-80.98 462.36,-87.6"/>
</g>
<!-- Node14 -->
<g id="node14" class="node">
<title>Node14</title>
<g id="a_node14"><a xlink:title=" ">
<polygon fill="none" stroke="#bfbfbf" points="252,-62 252,-81 304,-81 304,-62 252,-62"/>
<text text-anchor="middle" x="278" y="-69" font-family="Helvetica,sans-Serif" font-size="10.00">cassert</text>
</a>
</g>
</g>
<!-- Node11&#45;&gt;Node14 -->
<g id="edge14" class="edge">
<title>Node11&#45;&gt;Node14</title>
<path fill="none" stroke="midnightblue" d="M277.22,-123.4C277.36,-114.06 277.55,-101.71 277.71,-91.52"/>
<polygon fill="midnightblue" stroke="midnightblue" points="281.21,-91.25 277.87,-81.19 274.21,-91.14 281.21,-91.25"/>
</g>
<!-- Node11&#45;&gt;Node15 -->
<g id="edge15" class="edge">
<title>Node11&#45;&gt;Node15</title>
<path fill="none" stroke="midnightblue" d="M352.66,-124.16C416.34,-112.68 502.26,-96.49 536,-87 538.65,-86.26 541.37,-85.41 544.08,-84.51"/>
<polygon fill="midnightblue" stroke="midnightblue" points="545.48,-87.73 553.75,-81.12 543.16,-81.13 545.48,-87.73"/>
</g>
</g>
</svg>
