<?xml version="1.0" encoding="UTF-8" standalone="no"?>
<!DOCTYPE svg PUBLIC "-//W3C//DTD SVG 1.1//EN"
 "http://www.w3.org/Graphics/SVG/1.1/DTD/svg11.dtd">
<!-- Generated by graphviz version 2.43.0 (0)
 -->
<!-- Title: YarpUtilities/include/BipedalLocomotion/YarpUtilities/RosPublisher.h Pages: 1 -->
<svg width="613pt" height="307pt"
 viewBox="0.00 0.00 613.00 307.00" xmlns="http://www.w3.org/2000/svg" xmlns:xlink="http://www.w3.org/1999/xlink">
<g id="graph0" class="graph" transform="scale(1 1) rotate(0) translate(4 303)">
<title>YarpUtilities/include/BipedalLocomotion/YarpUtilities/RosPublisher.h</title>
<!-- Node1 -->
<g id="node1" class="node">
<title>Node1</title>
<g id="a_node1"><a xlink:title=" ">
<polygon fill="#bfbfbf" stroke="black" points="197.5,-257.5 197.5,-298.5 372.5,-298.5 372.5,-257.5 197.5,-257.5"/>
<text text-anchor="start" x="205.5" y="-286.5" font-family="Helvetica,sans-Serif" font-size="10.00">YarpUtilities/include</text>
<text text-anchor="start" x="205.5" y="-275.5" font-family="Helvetica,sans-Serif" font-size="10.00">/BipedalLocomotion/YarpUtilities</text>
<text text-anchor="middle" x="285" y="-264.5" font-family="Helvetica,sans-Serif" font-size="10.00">/RosPublisher.h</text>
</a>
</g>
</g>
<!-- Node2 -->
<g id="node2" class="node">
<title>Node2</title>
<g id="a_node2"><a xlink:href="IParametersHandler_8h.html" target="_top" xlink:title=" ">
<polygon fill="none" stroke="black" points="88.5,-190.5 88.5,-220.5 257.5,-220.5 257.5,-190.5 88.5,-190.5"/>
<text text-anchor="start" x="96.5" y="-208.5" font-family="Helvetica,sans-Serif" font-size="10.00">BipedalLocomotion/Parameters</text>
<text text-anchor="middle" x="173" y="-197.5" font-family="Helvetica,sans-Serif" font-size="10.00">Handler/IParametersHandler.h</text>
</a>
</g>
</g>
<!-- Node1&#45;&gt;Node2 -->
<g id="edge1" class="edge">
<title>Node1&#45;&gt;Node2</title>
<path fill="none" stroke="midnightblue" d="M253.8,-257.36C238.33,-247.62 219.69,-235.89 204.21,-226.15"/>
<polygon fill="midnightblue" stroke="midnightblue" points="205.84,-223.04 195.51,-220.67 202.11,-228.96 205.84,-223.04"/>
</g>
<!-- Node3 -->
<g id="node3" class="node">
<title>Node3</title>
<g id="a_node3"><a xlink:title=" ">
<polygon fill="none" stroke="#bfbfbf" points="0,-62 0,-81 58,-81 58,-62 0,-62"/>
<text text-anchor="middle" x="29" y="-69" font-family="Helvetica,sans-Serif" font-size="10.00">memory</text>
</a>
</g>
</g>
<!-- Node1&#45;&gt;Node3 -->
<g id="edge17" class="edge">
<title>Node1&#45;&gt;Node3</title>
<path fill="none" stroke="midnightblue" d="M197.44,-271.83C156.89,-265.17 110.76,-250.93 79,-221 41.96,-186.09 32.35,-122.89 29.87,-91.4"/>
<polygon fill="midnightblue" stroke="midnightblue" points="33.33,-90.77 29.22,-81 26.35,-91.2 33.33,-90.77"/>
</g>
<!-- Node4 -->
<g id="node4" class="node">
<title>Node4</title>
<g id="a_node4"><a xlink:title=" ">
<polygon fill="none" stroke="#bfbfbf" points="371,-129 371,-148 415,-148 415,-129 371,-129"/>
<text text-anchor="middle" x="393" y="-136" font-family="Helvetica,sans-Serif" font-size="10.00">string</text>
</a>
</g>
</g>
<!-- Node1&#45;&gt;Node4 -->
<g id="edge19" class="edge">
<title>Node1&#45;&gt;Node4</title>
<path fill="none" stroke="midnightblue" d="M300.47,-257.3C321.87,-230.06 360.09,-181.4 380.05,-155.99"/>
<polygon fill="midnightblue" stroke="midnightblue" points="382.87,-158.06 386.29,-148.04 377.36,-153.74 382.87,-158.06"/>
</g>
<!-- Node10 -->
<g id="node10" class="node">
<title>Node10</title>
<g id="a_node10"><a xlink:href="Vector_8h_source.html" target="_top" xlink:title=" ">
<polygon fill="none" stroke="black" points="201.5,-123.5 201.5,-153.5 352.5,-153.5 352.5,-123.5 201.5,-123.5"/>
<text text-anchor="start" x="209.5" y="-141.5" font-family="Helvetica,sans-Serif" font-size="10.00">BipedalLocomotion/Generic</text>
<text text-anchor="middle" x="277" y="-130.5" font-family="Helvetica,sans-Serif" font-size="10.00">Container/Vector.h</text>
</a>
</g>
</g>
<!-- Node1&#45;&gt;Node10 -->
<g id="edge16" class="edge">
<title>Node1&#45;&gt;Node10</title>
<path fill="none" stroke="midnightblue" d="M283.85,-257.3C282.42,-232.63 279.96,-190.38 278.41,-163.75"/>
<polygon fill="midnightblue" stroke="midnightblue" points="281.9,-163.49 277.83,-153.72 274.91,-163.9 281.9,-163.49"/>
</g>
<!-- Node14 -->
<g id="node14" class="node">
<title>Node14</title>
<g id="a_node14"><a xlink:title=" ">
<polygon fill="none" stroke="#bfbfbf" points="545,-62 545,-81 605,-81 605,-62 545,-62"/>
<text text-anchor="middle" x="575" y="-69" font-family="Helvetica,sans-Serif" font-size="10.00">iostream</text>
</a>
</g>
</g>
<!-- Node1&#45;&gt;Node14 -->
<g id="edge18" class="edge">
<title>Node1&#45;&gt;Node14</title>
<path fill="none" stroke="midnightblue" d="M312.81,-257.39C370.85,-216.46 503.72,-122.77 554.63,-86.86"/>
<polygon fill="midnightblue" stroke="midnightblue" points="556.73,-89.67 562.88,-81.04 552.69,-83.95 556.73,-89.67"/>
</g>
<!-- Node2&#45;&gt;Node3 -->
<g id="edge2" class="edge">
<title>Node2&#45;&gt;Node3</title>
<path fill="none" stroke="midnightblue" d="M142.67,-190.36C125.47,-181.44 104.22,-168.82 88,-154 67.21,-135.02 49.22,-107.64 38.74,-89.95"/>
<polygon fill="midnightblue" stroke="midnightblue" points="41.74,-88.16 33.71,-81.24 35.68,-91.65 41.74,-88.16"/>
</g>
<!-- Node2&#45;&gt;Node4 -->
<g id="edge3" class="edge">
<title>Node2&#45;&gt;Node4</title>
<path fill="none" stroke="midnightblue" d="M236.86,-190.41C273.9,-181.5 321.15,-168.88 362,-154 363.61,-153.41 365.25,-152.77 366.9,-152.1"/>
<polygon fill="midnightblue" stroke="midnightblue" points="368.43,-155.25 376.17,-148.03 365.61,-148.85 368.43,-155.25"/>
</g>
<!-- Node5 -->
<g id="node5" class="node">
<title>Node5</title>
<g id="a_node5"><a xlink:title=" ">
<polygon fill="none" stroke="#bfbfbf" points="97.5,-129 97.5,-148 144.5,-148 144.5,-129 97.5,-129"/>
<text text-anchor="middle" x="121" y="-136" font-family="Helvetica,sans-Serif" font-size="10.00">vector</text>
</a>
</g>
</g>
<!-- Node2&#45;&gt;Node5 -->
<g id="edge4" class="edge">
<title>Node2&#45;&gt;Node5</title>
<path fill="none" stroke="midnightblue" d="M161.72,-190.4C153.69,-180.36 142.87,-166.84 134.4,-156.25"/>
<polygon fill="midnightblue" stroke="midnightblue" points="136.94,-153.82 127.96,-148.19 131.47,-158.19 136.94,-153.82"/>
</g>
<!-- Node6 -->
<g id="node6" class="node">
<title>Node6</title>
<g id="a_node6"><a xlink:href="TemplateHelpers_8h_source.html" target="_top" xlink:title=" ">
<polygon fill="none" stroke="black" points="76,-56.5 76,-86.5 234,-86.5 234,-56.5 76,-56.5"/>
<text text-anchor="start" x="84" y="-74.5" font-family="Helvetica,sans-Serif" font-size="10.00">BipedalLocomotion/Generic</text>
<text text-anchor="middle" x="155" y="-63.5" font-family="Helvetica,sans-Serif" font-size="10.00">Container/TemplateHelpers.h</text>
</a>
</g>
</g>
<!-- Node2&#45;&gt;Node6 -->
<g id="edge5" class="edge">
<title>Node2&#45;&gt;Node6</title>
<path fill="none" stroke="midnightblue" d="M171.07,-190.37C168.02,-167.94 162.01,-123.92 158.27,-96.49"/>
<polygon fill="midnightblue" stroke="midnightblue" points="161.73,-95.96 156.91,-86.52 154.8,-96.91 161.73,-95.96"/>
</g>
<!-- Node2&#45;&gt;Node10 -->
<g id="edge9" class="edge">
<title>Node2&#45;&gt;Node10</title>
<path fill="none" stroke="midnightblue" d="M195.57,-190.4C210.29,-181.2 229.69,-169.07 245.87,-158.95"/>
<polygon fill="midnightblue" stroke="midnightblue" points="247.85,-161.84 254.48,-153.58 244.14,-155.91 247.85,-161.84"/>
</g>
<!-- Node7 -->
<g id="node7" class="node">
<title>Node7</title>
<g id="a_node7"><a xlink:title=" ">
<polygon fill="none" stroke="#bfbfbf" points="31.5,-0.5 31.5,-19.5 100.5,-19.5 100.5,-0.5 31.5,-0.5"/>
<text text-anchor="middle" x="66" y="-7.5" font-family="Helvetica,sans-Serif" font-size="10.00">type_traits</text>
</a>
</g>
</g>
<!-- Node6&#45;&gt;Node7 -->
<g id="edge6" class="edge">
<title>Node6&#45;&gt;Node7</title>
<path fill="none" stroke="midnightblue" d="M133.91,-56.4C119.91,-47.04 101.59,-34.79 87.51,-25.38"/>
<polygon fill="midnightblue" stroke="midnightblue" points="89.21,-22.31 78.95,-19.66 85.32,-28.13 89.21,-22.31"/>
</g>
<!-- Node8 -->
<g id="node8" class="node">
<title>Node8</title>
<g id="a_node8"><a xlink:title=" ">
<polygon fill="none" stroke="#bfbfbf" points="118.5,-0.5 118.5,-19.5 191.5,-19.5 191.5,-0.5 118.5,-0.5"/>
<text text-anchor="middle" x="155" y="-7.5" font-family="Helvetica,sans-Serif" font-size="10.00">string_view</text>
</a>
</g>
</g>
<!-- Node6&#45;&gt;Node8 -->
<g id="edge7" class="edge">
<title>Node6&#45;&gt;Node8</title>
<path fill="none" stroke="midnightblue" d="M155,-56.4C155,-48.47 155,-38.46 155,-29.86"/>
<polygon fill="midnightblue" stroke="midnightblue" points="158.5,-29.66 155,-19.66 151.5,-29.66 158.5,-29.66"/>
</g>
<!-- Node9 -->
<g id="node9" class="node">
<title>Node9</title>
<g id="a_node9"><a xlink:title=" ">
<polygon fill="none" stroke="#bfbfbf" points="209.5,-0.5 209.5,-19.5 278.5,-19.5 278.5,-0.5 209.5,-0.5"/>
<text text-anchor="middle" x="244" y="-7.5" font-family="Helvetica,sans-Serif" font-size="10.00">Eigen/Core</text>
</a>
</g>
</g>
<!-- Node6&#45;&gt;Node9 -->
<g id="edge8" class="edge">
<title>Node6&#45;&gt;Node9</title>
<path fill="none" stroke="midnightblue" d="M176.09,-56.4C190.09,-47.04 208.41,-34.79 222.49,-25.38"/>
<polygon fill="midnightblue" stroke="midnightblue" points="224.68,-28.13 231.05,-19.66 220.79,-22.31 224.68,-28.13"/>
</g>
<!-- Node10&#45;&gt;Node3 -->
<g id="edge15" class="edge">
<title>Node10&#45;&gt;Node3</title>
<path fill="none" stroke="midnightblue" d="M208.78,-123.42C167.4,-114.31 113.75,-101.47 67,-87 64.58,-86.25 62.09,-85.43 59.6,-84.56"/>
<polygon fill="midnightblue" stroke="midnightblue" points="60.73,-81.25 50.14,-81.12 58.33,-87.83 60.73,-81.25"/>
</g>
<!-- Node10&#45;&gt;Node6 -->
<g id="edge11" class="edge">
<title>Node10&#45;&gt;Node6</title>
<path fill="none" stroke="midnightblue" d="M250.53,-123.4C232.94,-114.03 209.65,-101.62 190.46,-91.39"/>
<polygon fill="midnightblue" stroke="midnightblue" points="191.89,-88.19 181.42,-86.58 188.6,-94.37 191.89,-88.19"/>
</g>
<!-- Node11 -->
<g id="node11" class="node">
<title>Node11</title>
<g id="a_node11"><a xlink:title=" ">
<polygon fill="none" stroke="#bfbfbf" points="322.5,-62 322.5,-81 443.5,-81 443.5,-62 322.5,-62"/>
<text text-anchor="middle" x="383" y="-69" font-family="Helvetica,sans-Serif" font-size="10.00">iDynTree/Core/Span.h</text>
</a>
</g>
</g>
<!-- Node10&#45;&gt;Node11 -->
<g id="edge10" class="edge">
<title>Node10&#45;&gt;Node11</title>
<path fill="none" stroke="midnightblue" d="M300,-123.4C317.94,-112.39 342.72,-97.2 360.52,-86.28"/>
<polygon fill="midnightblue" stroke="midnightblue" points="362.43,-89.22 369.13,-81.01 358.77,-83.25 362.43,-89.22"/>
</g>
<!-- Node12 -->
<g id="node12" class="node">
<title>Node12</title>
<g id="a_node12"><a xlink:title=" ">
<polygon fill="none" stroke="#bfbfbf" points="461.5,-62 461.5,-81 526.5,-81 526.5,-62 461.5,-62"/>
<text text-anchor="middle" x="494" y="-69" font-family="Helvetica,sans-Serif" font-size="10.00">functional</text>
</a>
</g>
</g>
<!-- Node10&#45;&gt;Node12 -->
<g id="edge12" class="edge">
<title>Node10&#45;&gt;Node12</title>
<path fill="none" stroke="midnightblue" d="M329.23,-123.41C364.38,-113.7 411.67,-100.22 453,-87 455.61,-86.17 458.3,-85.28 461,-84.37"/>
<polygon fill="midnightblue" stroke="midnightblue" points="462.36,-87.6 470.67,-81.03 460.07,-80.98 462.36,-87.6"/>
</g>
<!-- Node13 -->
<g id="node13" class="node">
<title>Node13</title>
<g id="a_node13"><a xlink:title=" ">
<polygon fill="none" stroke="#bfbfbf" points="252,-62 252,-81 304,-81 304,-62 252,-62"/>
<text text-anchor="middle" x="278" y="-69" font-family="Helvetica,sans-Serif" font-size="10.00">cassert</text>
</a>
</g>
</g>
<!-- Node10&#45;&gt;Node13 -->
<g id="edge13" class="edge">
<title>Node10&#45;&gt;Node13</title>
<path fill="none" stroke="midnightblue" d="M277.22,-123.4C277.36,-114.06 277.55,-101.71 277.71,-91.52"/>
<polygon fill="midnightblue" stroke="midnightblue" points="281.21,-91.25 277.87,-81.19 274.21,-91.14 281.21,-91.25"/>
</g>
<!-- Node10&#45;&gt;Node14 -->
<g id="edge14" class="edge">
<title>Node10&#45;&gt;Node14</title>
<path fill="none" stroke="midnightblue" d="M352.66,-124.16C416.34,-112.68 502.26,-96.49 536,-87 538.65,-86.26 541.37,-85.41 544.08,-84.51"/>
<polygon fill="midnightblue" stroke="midnightblue" points="545.48,-87.73 553.75,-81.12 543.16,-81.13 545.48,-87.73"/>
</g>
</g>
</svg>
