<?xml version="1.0" encoding="UTF-8" standalone="no"?>
<!DOCTYPE svg PUBLIC "-//W3C//DTD SVG 1.1//EN"
 "http://www.w3.org/Graphics/SVG/1.1/DTD/svg11.dtd">
<!-- Generated by graphviz version 2.43.0 (0)
 -->
<!-- Title: Contacts/src/SchmittTriggerDetector.cpp Pages: 1 -->
<!--zoomable 564 -->
<svg id="main" version="1.1" xmlns="http://www.w3.org/2000/svg" xmlns:xlink="http://www.w3.org/1999/xlink" xml:space="preserve" onload="init(evt)">
<style type="text/css"><![CDATA[
.edge:hover path { stroke: red; }
.edge:hover polygon { stroke: red; fill: red; }
]]></style>
<script type="text/javascript"><![CDATA[
var edges = document.getElementsByTagName('g');
if (edges && edges.length) {
  for (var i=0;i<edges.length;i++) {
    if (edges[i].id.substr(0,4)=='edge') {
      edges[i].setAttribute('class','edge');
    }
  }
}
]]></script>
        <defs>
                <circle id="rim" cx="0" cy="0" r="7"/>
                <circle id="rim2" cx="0" cy="0" r="3.5"/>
                <g id="zoomPlus">
                        <use xlink:href="#rim" fill="#404040">
                                <set attributeName="fill" to="#808080" begin="zoomplus.mouseover" end="zoomplus.mouseout"/>
                        </use>
                        <path d="M-4,0h8M0,-4v8" fill="none" stroke="white" stroke-width="1.5" pointer-events="none"/>
                </g>
                <g id="zoomMin">
                        <use xlink:href="#rim" fill="#404040">
                                <set attributeName="fill" to="#808080" begin="zoomminus.mouseover" end="zoomminus.mouseout"/>
                        </use>
                        <path d="M-4,0h8" fill="none" stroke="white" stroke-width="1.5" pointer-events="none"/>
                </g>
                <g id="dirArrow">
                        <path fill="none" stroke="white" stroke-width="1.5" d="M0,-3.0v7 M-2.5,-0.5L0,-3.0L2.5,-0.5"/>
                </g>
               <g id="resetDef">
                       <use xlink:href="#rim2" fill="#404040">
                               <set attributeName="fill" to="#808080" begin="reset.mouseover" end="reset.mouseout"/>
                       </use>
               </g>
        </defs>

<script type="text/javascript">
var viewWidth = 664;
var viewHeight = 564;
var sectionId = 'dynsection-0';
</script>
<script xlink:href="svgpan.js"/>
<svg id="graph" class="graph">
<g id="viewport">
<title>Contacts/src/SchmittTriggerDetector.cpp</title>
<!-- Node1 -->
<g id="node1" class="node">
<title>Node1</title>
<g id="a_node1"><a xlink:title=" ">
<polygon fill="#bfbfbf" stroke="black" points="476.21,-525.5 476.21,-555.5 626.21,-555.5 626.21,-525.5 476.21,-525.5"/>
<text text-anchor="start" x="484.21" y="-543.5" font-family="Helvetica,sans-Serif" font-size="10.00">Contacts/src/SchmittTrigger</text>
<text text-anchor="middle" x="551.21" y="-532.5" font-family="Helvetica,sans-Serif" font-size="10.00">Detector.cpp</text>
</a>
</g>
</g>
<!-- Node2 -->
<g id="node2" class="node">
<title>Node2</title>
<g id="a_node2"><a xlink:href="SchmittTriggerDetector_8h.html" target="_top" xlink:title=" ">
<polygon fill="none" stroke="black" points="457.21,-458.5 457.21,-488.5 645.21,-488.5 645.21,-458.5 457.21,-458.5"/>
<text text-anchor="start" x="465.21" y="-476.5" font-family="Helvetica,sans-Serif" font-size="10.00">BipedalLocomotion/Contact</text>
<text text-anchor="middle" x="551.21" y="-465.5" font-family="Helvetica,sans-Serif" font-size="10.00">Detectors/SchmittTriggerDetector.h</text>
</a>
</g>
</g>
<!-- Node1&#45;&gt;Node2 -->
<g id="edge1" class="edge">
<title>Node1&#45;&gt;Node2</title>
<path fill="none" stroke="midnightblue" d="M551.21,-525.4C551.21,-517.64 551.21,-507.81 551.21,-498.86"/>
<polygon fill="midnightblue" stroke="midnightblue" points="554.71,-498.58 551.21,-488.58 547.71,-498.58 554.71,-498.58"/>
</g>
<!-- Node3 -->
<g id="node3" class="node">
<title>Node3</title>
<g id="a_node3"><a xlink:href="ContactDetector_8h.html" target="_top" xlink:title=" ">
<polygon fill="none" stroke="black" points="334.71,-391.5 334.71,-421.5 489.71,-421.5 489.71,-391.5 334.71,-391.5"/>
<text text-anchor="start" x="342.71" y="-409.5" font-family="Helvetica,sans-Serif" font-size="10.00">BipedalLocomotion/Contact</text>
<text text-anchor="middle" x="412.21" y="-398.5" font-family="Helvetica,sans-Serif" font-size="10.00">Detectors/ContactDetector.h</text>
</a>
</g>
</g>
<!-- Node2&#45;&gt;Node3 -->
<g id="edge2" class="edge">
<title>Node2&#45;&gt;Node3</title>
<path fill="none" stroke="midnightblue" d="M521.05,-458.4C500.64,-448.86 473.5,-436.16 451.43,-425.84"/>
<polygon fill="midnightblue" stroke="midnightblue" points="452.85,-422.64 442.31,-421.58 449.88,-428.98 452.85,-422.64"/>
</g>
<!-- Node21 -->
<g id="node21" class="node">
<title>Node21</title>
<g id="a_node21"><a xlink:title=" ">
<polygon fill="none" stroke="#bfbfbf" points="596.21,-62 596.21,-81 656.21,-81 656.21,-62 596.21,-62"/>
<text text-anchor="middle" x="626.21" y="-69" font-family="Helvetica,sans-Serif" font-size="10.00">iostream</text>
</a>
</g>
</g>
<!-- Node2&#45;&gt;Node21 -->
<g id="edge30" class="edge">
<title>Node2&#45;&gt;Node21</title>
<path fill="none" stroke="midnightblue" d="M566.02,-458.19C587.88,-435.46 626.21,-388.73 626.21,-340.5 626.21,-340.5 626.21,-340.5 626.21,-204.5 626.21,-164.16 626.21,-116.88 626.21,-91.28"/>
<polygon fill="midnightblue" stroke="midnightblue" points="629.71,-91.15 626.21,-81.15 622.71,-91.15 629.71,-91.15"/>
</g>
<!-- Node25 -->
<g id="node25" class="node">
<title>Node25</title>
<g id="a_node25"><a xlink:title=" ">
<polygon fill="none" stroke="#bfbfbf" points="504.71,-330 504.71,-349 597.71,-349 597.71,-330 504.71,-330"/>
<text text-anchor="middle" x="551.21" y="-337" font-family="Helvetica,sans-Serif" font-size="10.00">unordered_map</text>
</a>
</g>
</g>
<!-- Node2&#45;&gt;Node25 -->
<g id="edge31" class="edge">
<title>Node2&#45;&gt;Node25</title>
<path fill="none" stroke="midnightblue" d="M551.21,-458.37C551.21,-434.5 551.21,-386.18 551.21,-359.41"/>
<polygon fill="midnightblue" stroke="midnightblue" points="554.71,-359.1 551.21,-349.1 547.71,-359.1 554.71,-359.1"/>
</g>
<!-- Node4 -->
<g id="node4" class="node">
<title>Node4</title>
<g id="a_node4"><a xlink:href="Contact_8h.html" target="_top" xlink:title=" ">
<polygon fill="none" stroke="black" points="24.21,-324.5 24.21,-354.5 180.21,-354.5 180.21,-324.5 24.21,-324.5"/>
<text text-anchor="start" x="32.21" y="-342.5" font-family="Helvetica,sans-Serif" font-size="10.00">BipedalLocomotion/Contacts</text>
<text text-anchor="middle" x="102.21" y="-331.5" font-family="Helvetica,sans-Serif" font-size="10.00">/Contact.h</text>
</a>
</g>
</g>
<!-- Node3&#45;&gt;Node4 -->
<g id="edge3" class="edge">
<title>Node3&#45;&gt;Node4</title>
<path fill="none" stroke="midnightblue" d="M345.32,-391.48C296.51,-381.24 230.25,-367.35 179.23,-356.65"/>
<polygon fill="midnightblue" stroke="midnightblue" points="179.74,-353.18 169.24,-354.55 178.31,-360.03 179.74,-353.18"/>
</g>
<!-- Node10 -->
<g id="node10" class="node">
<title>Node10</title>
<g id="a_node10"><a xlink:href="IParametersHandler_8h.html" target="_top" xlink:title=" ">
<polygon fill="none" stroke="black" points="300.71,-190.5 300.71,-220.5 469.71,-220.5 469.71,-190.5 300.71,-190.5"/>
<text text-anchor="start" x="308.71" y="-208.5" font-family="Helvetica,sans-Serif" font-size="10.00">BipedalLocomotion/Parameters</text>
<text text-anchor="middle" x="385.21" y="-197.5" font-family="Helvetica,sans-Serif" font-size="10.00">Handler/IParametersHandler.h</text>
</a>
</g>
</g>
<!-- Node3&#45;&gt;Node10 -->
<g id="edge10" class="edge">
<title>Node3&#45;&gt;Node10</title>
<path fill="none" stroke="midnightblue" d="M371.72,-391.5C355.15,-383.54 337.67,-371.74 328.21,-355 306.76,-317.09 310.33,-296.72 328.21,-257 333.55,-245.13 343.21,-234.92 353.08,-226.85"/>
<polygon fill="midnightblue" stroke="midnightblue" points="355.48,-229.43 361.33,-220.59 351.25,-223.85 355.48,-229.43"/>
</g>
<!-- Node22 -->
<g id="node22" class="node">
<title>Node22</title>
<g id="a_node22"><a xlink:href="Source_8h.html" target="_top" xlink:title=" ">
<polygon fill="none" stroke="black" points="337.21,-324.5 337.21,-354.5 487.21,-354.5 487.21,-324.5 337.21,-324.5"/>
<text text-anchor="start" x="345.21" y="-342.5" font-family="Helvetica,sans-Serif" font-size="10.00">BipedalLocomotion/System</text>
<text text-anchor="middle" x="412.21" y="-331.5" font-family="Helvetica,sans-Serif" font-size="10.00">/Source.h</text>
</a>
</g>
</g>
<!-- Node3&#45;&gt;Node22 -->
<g id="edge25" class="edge">
<title>Node3&#45;&gt;Node22</title>
<path fill="none" stroke="midnightblue" d="M412.21,-391.4C412.21,-383.64 412.21,-373.81 412.21,-364.86"/>
<polygon fill="midnightblue" stroke="midnightblue" points="415.71,-364.58 412.21,-354.58 408.71,-364.58 415.71,-364.58"/>
</g>
<!-- Node3&#45;&gt;Node25 -->
<g id="edge29" class="edge">
<title>Node3&#45;&gt;Node25</title>
<path fill="none" stroke="midnightblue" d="M442.37,-391.4C466.65,-380.04 500.48,-364.22 523.95,-353.24"/>
<polygon fill="midnightblue" stroke="midnightblue" points="525.44,-356.41 533.01,-349.01 522.47,-350.07 525.44,-356.41"/>
</g>
<!-- Node5 -->
<g id="node5" class="node">
<title>Node5</title>
<g id="a_node5"><a xlink:href="Wrench_8h.html" target="_top" xlink:title=" ">
<polygon fill="none" stroke="black" points="81.21,-257.5 81.21,-287.5 219.21,-287.5 219.21,-257.5 81.21,-257.5"/>
<text text-anchor="start" x="89.21" y="-275.5" font-family="Helvetica,sans-Serif" font-size="10.00">BipedalLocomotion/Math</text>
<text text-anchor="middle" x="150.21" y="-264.5" font-family="Helvetica,sans-Serif" font-size="10.00">/Wrench.h</text>
</a>
</g>
</g>
<!-- Node4&#45;&gt;Node5 -->
<g id="edge4" class="edge">
<title>Node4&#45;&gt;Node5</title>
<path fill="none" stroke="midnightblue" d="M112.62,-324.4C118.79,-316.05 126.73,-305.29 133.73,-295.81"/>
<polygon fill="midnightblue" stroke="midnightblue" points="136.69,-297.7 139.81,-287.58 131.06,-293.54 136.69,-297.7"/>
</g>
<!-- Node7 -->
<g id="node7" class="node">
<title>Node7</title>
<g id="a_node7"><a xlink:title=" ">
<polygon fill="none" stroke="#bfbfbf" points="17.71,-196 17.71,-215 92.71,-215 92.71,-196 17.71,-196"/>
<text text-anchor="middle" x="55.21" y="-203" font-family="Helvetica,sans-Serif" font-size="10.00">manif/SE3.h</text>
</a>
</g>
</g>
<!-- Node4&#45;&gt;Node7 -->
<g id="edge8" class="edge">
<title>Node4&#45;&gt;Node7</title>
<path fill="none" stroke="midnightblue" d="M91.92,-324.13C85.39,-314.37 77.23,-300.93 72.21,-288 64.21,-267.42 59.7,-242.39 57.37,-225.54"/>
<polygon fill="midnightblue" stroke="midnightblue" points="60.8,-224.82 56.08,-215.34 53.86,-225.69 60.8,-224.82"/>
</g>
<!-- Node9 -->
<g id="node9" class="node">
<title>Node9</title>
<g id="a_node9"><a xlink:title=" ">
<polygon fill="none" stroke="#bfbfbf" points="88.21,-129 88.21,-148 132.21,-148 132.21,-129 88.21,-129"/>
<text text-anchor="middle" x="110.21" y="-136" font-family="Helvetica,sans-Serif" font-size="10.00">string</text>
</a>
</g>
</g>
<!-- Node4&#45;&gt;Node9 -->
<g id="edge9" class="edge">
<title>Node4&#45;&gt;Node9</title>
<path fill="none" stroke="midnightblue" d="M81.44,-324.42C45.28,-298.11 -22.61,-239.64 8.21,-190 23.43,-165.47 54.51,-152.49 78.38,-145.87"/>
<polygon fill="midnightblue" stroke="midnightblue" points="79.27,-149.25 88.1,-143.4 77.55,-142.47 79.27,-149.25"/>
</g>
<!-- Node6 -->
<g id="node6" class="node">
<title>Node6</title>
<g id="a_node6"><a xlink:title=" ">
<polygon fill="none" stroke="#bfbfbf" points="205.71,-196 205.71,-215 282.71,-215 282.71,-196 205.71,-196"/>
<text text-anchor="middle" x="244.21" y="-203" font-family="Helvetica,sans-Serif" font-size="10.00">Eigen/Dense</text>
</a>
</g>
</g>
<!-- Node5&#45;&gt;Node6 -->
<g id="edge5" class="edge">
<title>Node5&#45;&gt;Node6</title>
<path fill="none" stroke="midnightblue" d="M170.6,-257.4C186.22,-246.6 207.68,-231.76 223.4,-220.89"/>
<polygon fill="midnightblue" stroke="midnightblue" points="225.67,-223.57 231.9,-215.01 221.69,-217.82 225.67,-223.57"/>
</g>
<!-- Node5&#45;&gt;Node7 -->
<g id="edge6" class="edge">
<title>Node5&#45;&gt;Node7</title>
<path fill="none" stroke="midnightblue" d="M129.59,-257.4C113.81,-246.6 92.12,-231.76 76.23,-220.89"/>
<polygon fill="midnightblue" stroke="midnightblue" points="77.87,-217.77 67.64,-215.01 73.92,-223.54 77.87,-217.77"/>
</g>
<!-- Node8 -->
<g id="node8" class="node">
<title>Node8</title>
<g id="a_node8"><a xlink:title=" ">
<polygon fill="none" stroke="#bfbfbf" points="110.71,-196 110.71,-215 187.71,-215 187.71,-196 110.71,-196"/>
<text text-anchor="middle" x="149.21" y="-203" font-family="Helvetica,sans-Serif" font-size="10.00">manif/SO3.h</text>
</a>
</g>
</g>
<!-- Node5&#45;&gt;Node8 -->
<g id="edge7" class="edge">
<title>Node5&#45;&gt;Node8</title>
<path fill="none" stroke="midnightblue" d="M149.99,-257.4C149.85,-248.06 149.66,-235.71 149.5,-225.52"/>
<polygon fill="midnightblue" stroke="midnightblue" points="152.99,-225.14 149.34,-215.19 145.99,-225.25 152.99,-225.14"/>
</g>
<!-- Node10&#45;&gt;Node9 -->
<g id="edge12" class="edge">
<title>Node10&#45;&gt;Node9</title>
<path fill="none" stroke="midnightblue" d="M325.87,-190.48C269.48,-177.15 186.81,-157.61 141.97,-147.01"/>
<polygon fill="midnightblue" stroke="midnightblue" points="142.75,-143.6 132.21,-144.7 141.14,-150.41 142.75,-143.6"/>
</g>
<!-- Node11 -->
<g id="node11" class="node">
<title>Node11</title>
<g id="a_node11"><a xlink:title=" ">
<polygon fill="none" stroke="#bfbfbf" points="520.21,-62 520.21,-81 578.21,-81 578.21,-62 520.21,-62"/>
<text text-anchor="middle" x="549.21" y="-69" font-family="Helvetica,sans-Serif" font-size="10.00">memory</text>
</a>
</g>
</g>
<!-- Node10&#45;&gt;Node11 -->
<g id="edge11" class="edge">
<title>Node10&#45;&gt;Node11</title>
<path fill="none" stroke="midnightblue" d="M441.5,-190.4C463.97,-182.58 488.82,-170.92 507.21,-154 525.92,-136.78 537.63,-109.32 543.8,-91.1"/>
<polygon fill="midnightblue" stroke="midnightblue" points="547.2,-91.94 546.86,-81.35 540.52,-89.84 547.2,-91.94"/>
</g>
<!-- Node12 -->
<g id="node12" class="node">
<title>Node12</title>
<g id="a_node12"><a xlink:title=" ">
<polygon fill="none" stroke="#bfbfbf" points="451.71,-129 451.71,-148 498.71,-148 498.71,-129 451.71,-129"/>
<text text-anchor="middle" x="475.21" y="-136" font-family="Helvetica,sans-Serif" font-size="10.00">vector</text>
</a>
</g>
</g>
<!-- Node10&#45;&gt;Node12 -->
<g id="edge13" class="edge">
<title>Node10&#45;&gt;Node12</title>
<path fill="none" stroke="midnightblue" d="M404.74,-190.4C419.69,-179.6 440.24,-164.76 455.29,-153.89"/>
<polygon fill="midnightblue" stroke="midnightblue" points="457.37,-156.7 463.43,-148.01 453.27,-151.02 457.37,-156.7"/>
</g>
<!-- Node13 -->
<g id="node13" class="node">
<title>Node13</title>
<g id="a_node13"><a xlink:href="TemplateHelpers_8h_source.html" target="_top" xlink:title=" ">
<polygon fill="none" stroke="black" points="50.21,-56.5 50.21,-86.5 208.21,-86.5 208.21,-56.5 50.21,-56.5"/>
<text text-anchor="start" x="58.21" y="-74.5" font-family="Helvetica,sans-Serif" font-size="10.00">BipedalLocomotion/Generic</text>
<text text-anchor="middle" x="129.21" y="-63.5" font-family="Helvetica,sans-Serif" font-size="10.00">Container/TemplateHelpers.h</text>
</a>
</g>
</g>
<!-- Node10&#45;&gt;Node13 -->
<g id="edge14" class="edge">
<title>Node10&#45;&gt;Node13</title>
<path fill="none" stroke="midnightblue" d="M352,-190.48C329.51,-180.75 299.27,-167.22 273.21,-154 234.14,-134.19 190.52,-109.06 161.63,-91.98"/>
<polygon fill="midnightblue" stroke="midnightblue" points="163.18,-88.83 152.79,-86.73 159.61,-94.85 163.18,-88.83"/>
</g>
<!-- Node17 -->
<g id="node17" class="node">
<title>Node17</title>
<g id="a_node17"><a xlink:href="Vector_8h_source.html" target="_top" xlink:title=" ">
<polygon fill="none" stroke="black" points="282.71,-123.5 282.71,-153.5 433.71,-153.5 433.71,-123.5 282.71,-123.5"/>
<text text-anchor="start" x="290.71" y="-141.5" font-family="Helvetica,sans-Serif" font-size="10.00">BipedalLocomotion/Generic</text>
<text text-anchor="middle" x="358.21" y="-130.5" font-family="Helvetica,sans-Serif" font-size="10.00">Container/Vector.h</text>
</a>
</g>
</g>
<!-- Node10&#45;&gt;Node17 -->
<g id="edge18" class="edge">
<title>Node10&#45;&gt;Node17</title>
<path fill="none" stroke="midnightblue" d="M379.35,-190.4C376.02,-182.39 371.77,-172.16 367.96,-162.98"/>
<polygon fill="midnightblue" stroke="midnightblue" points="371.12,-161.47 364.05,-153.58 364.66,-164.15 371.12,-161.47"/>
</g>
<!-- Node14 -->
<g id="node14" class="node">
<title>Node14</title>
<g id="a_node14"><a xlink:title=" ">
<polygon fill="none" stroke="#bfbfbf" points="5.71,-0.5 5.71,-19.5 74.71,-19.5 74.71,-0.5 5.71,-0.5"/>
<text text-anchor="middle" x="40.21" y="-7.5" font-family="Helvetica,sans-Serif" font-size="10.00">type_traits</text>
</a>
</g>
</g>
<!-- Node13&#45;&gt;Node14 -->
<g id="edge15" class="edge">
<title>Node13&#45;&gt;Node14</title>
<path fill="none" stroke="midnightblue" d="M108.11,-56.4C94.12,-47.04 75.8,-34.79 61.71,-25.38"/>
<polygon fill="midnightblue" stroke="midnightblue" points="63.42,-22.31 53.16,-19.66 59.52,-28.13 63.42,-22.31"/>
</g>
<!-- Node15 -->
<g id="node15" class="node">
<title>Node15</title>
<g id="a_node15"><a xlink:title=" ">
<polygon fill="none" stroke="#bfbfbf" points="92.71,-0.5 92.71,-19.5 165.71,-19.5 165.71,-0.5 92.71,-0.5"/>
<text text-anchor="middle" x="129.21" y="-7.5" font-family="Helvetica,sans-Serif" font-size="10.00">string_view</text>
</a>
</g>
</g>
<!-- Node13&#45;&gt;Node15 -->
<g id="edge16" class="edge">
<title>Node13&#45;&gt;Node15</title>
<path fill="none" stroke="midnightblue" d="M129.21,-56.4C129.21,-48.47 129.21,-38.46 129.21,-29.86"/>
<polygon fill="midnightblue" stroke="midnightblue" points="132.71,-29.66 129.21,-19.66 125.71,-29.66 132.71,-29.66"/>
</g>
<!-- Node16 -->
<g id="node16" class="node">
<title>Node16</title>
<g id="a_node16"><a xlink:title=" ">
<polygon fill="none" stroke="#bfbfbf" points="183.71,-0.5 183.71,-19.5 252.71,-19.5 252.71,-0.5 183.71,-0.5"/>
<text text-anchor="middle" x="218.21" y="-7.5" font-family="Helvetica,sans-Serif" font-size="10.00">Eigen/Core</text>
</a>
</g>
</g>
<!-- Node13&#45;&gt;Node16 -->
<g id="edge17" class="edge">
<title>Node13&#45;&gt;Node16</title>
<path fill="none" stroke="midnightblue" d="M150.3,-56.4C164.3,-47.04 182.62,-34.79 196.7,-25.38"/>
<polygon fill="midnightblue" stroke="midnightblue" points="198.89,-28.13 205.26,-19.66 195,-22.31 198.89,-28.13"/>
</g>
<!-- Node17&#45;&gt;Node11 -->
<g id="edge24" class="edge">
<title>Node17&#45;&gt;Node11</title>
<path fill="none" stroke="midnightblue" d="M401.92,-123.43C432.37,-113.52 473.88,-99.78 510.21,-87 512.45,-86.21 514.76,-85.39 517.08,-84.55"/>
<polygon fill="midnightblue" stroke="midnightblue" points="518.38,-87.8 526.57,-81.07 515.98,-81.22 518.38,-87.8"/>
</g>
<!-- Node17&#45;&gt;Node13 -->
<g id="edge20" class="edge">
<title>Node17&#45;&gt;Node13</title>
<path fill="none" stroke="midnightblue" d="M308.8,-123.48C273.55,-113.47 225.99,-99.97 188.67,-89.38"/>
<polygon fill="midnightblue" stroke="midnightblue" points="189.5,-85.97 178.92,-86.61 187.58,-92.71 189.5,-85.97"/>
</g>
<!-- Node18 -->
<g id="node18" class="node">
<title>Node18</title>
<g id="a_node18"><a xlink:title=" ">
<polygon fill="none" stroke="#bfbfbf" points="380.71,-62 380.71,-81 501.71,-81 501.71,-62 380.71,-62"/>
<text text-anchor="middle" x="441.21" y="-69" font-family="Helvetica,sans-Serif" font-size="10.00">iDynTree/Core/Span.h</text>
</a>
</g>
</g>
<!-- Node17&#45;&gt;Node18 -->
<g id="edge19" class="edge">
<title>Node17&#45;&gt;Node18</title>
<path fill="none" stroke="midnightblue" d="M376.22,-123.4C389.8,-112.76 408.39,-98.2 422.2,-87.38"/>
<polygon fill="midnightblue" stroke="midnightblue" points="424.39,-90.12 430.1,-81.19 420.07,-84.6 424.39,-90.12"/>
</g>
<!-- Node19 -->
<g id="node19" class="node">
<title>Node19</title>
<g id="a_node19"><a xlink:title=" ">
<polygon fill="none" stroke="#bfbfbf" points="226.71,-62 226.71,-81 291.71,-81 291.71,-62 226.71,-62"/>
<text text-anchor="middle" x="259.21" y="-69" font-family="Helvetica,sans-Serif" font-size="10.00">functional</text>
</a>
</g>
</g>
<!-- Node17&#45;&gt;Node19 -->
<g id="edge21" class="edge">
<title>Node17&#45;&gt;Node19</title>
<path fill="none" stroke="midnightblue" d="M336.72,-123.4C320.12,-112.5 297.25,-97.48 280.66,-86.58"/>
<polygon fill="midnightblue" stroke="midnightblue" points="282.44,-83.57 272.16,-81.01 278.6,-89.42 282.44,-83.57"/>
</g>
<!-- Node20 -->
<g id="node20" class="node">
<title>Node20</title>
<g id="a_node20"><a xlink:title=" ">
<polygon fill="none" stroke="#bfbfbf" points="310.21,-62 310.21,-81 362.21,-81 362.21,-62 310.21,-62"/>
<text text-anchor="middle" x="336.21" y="-69" font-family="Helvetica,sans-Serif" font-size="10.00">cassert</text>
</a>
</g>
</g>
<!-- Node17&#45;&gt;Node20 -->
<g id="edge22" class="edge">
<title>Node17&#45;&gt;Node20</title>
<path fill="none" stroke="midnightblue" d="M353.43,-123.4C350.21,-113.86 345.91,-101.18 342.42,-90.86"/>
<polygon fill="midnightblue" stroke="midnightblue" points="345.67,-89.54 339.15,-81.19 339.04,-91.79 345.67,-89.54"/>
</g>
<!-- Node17&#45;&gt;Node21 -->
<g id="edge23" class="edge">
<title>Node17&#45;&gt;Node21</title>
<path fill="none" stroke="midnightblue" d="M433.91,-123.56C478.85,-114.6 536.73,-101.87 587.21,-87 589.84,-86.22 592.56,-85.36 595.27,-84.44"/>
<polygon fill="midnightblue" stroke="midnightblue" points="596.68,-87.66 604.93,-81.02 594.34,-81.06 596.68,-87.66"/>
</g>
<!-- Node23 -->
<g id="node23" class="node">
<title>Node23</title>
<g id="a_node23"><a xlink:href="Advanceable_8h.html" target="_top" xlink:title=" ">
<polygon fill="none" stroke="black" points="337.21,-257.5 337.21,-287.5 487.21,-287.5 487.21,-257.5 337.21,-257.5"/>
<text text-anchor="start" x="345.21" y="-275.5" font-family="Helvetica,sans-Serif" font-size="10.00">BipedalLocomotion/System</text>
<text text-anchor="middle" x="412.21" y="-264.5" font-family="Helvetica,sans-Serif" font-size="10.00">/Advanceable.h</text>
</a>
</g>
</g>
<!-- Node22&#45;&gt;Node23 -->
<g id="edge26" class="edge">
<title>Node22&#45;&gt;Node23</title>
<path fill="none" stroke="midnightblue" d="M412.21,-324.4C412.21,-316.64 412.21,-306.81 412.21,-297.86"/>
<polygon fill="midnightblue" stroke="midnightblue" points="415.71,-297.58 412.21,-287.58 408.71,-297.58 415.71,-297.58"/>
</g>
<!-- Node23&#45;&gt;Node10 -->
<g id="edge28" class="edge">
<title>Node23&#45;&gt;Node10</title>
<path fill="none" stroke="midnightblue" d="M406.35,-257.4C403.02,-249.39 398.77,-239.16 394.96,-229.98"/>
<polygon fill="midnightblue" stroke="midnightblue" points="398.12,-228.47 391.05,-220.58 391.66,-231.15 398.12,-228.47"/>
</g>
<!-- Node24 -->
<g id="node24" class="node">
<title>Node24</title>
<g id="a_node24"><a xlink:title=" ">
<polygon fill="none" stroke="#bfbfbf" points="487.71,-196 487.71,-215 538.71,-215 538.71,-196 487.71,-196"/>
<text text-anchor="middle" x="513.21" y="-203" font-family="Helvetica,sans-Serif" font-size="10.00">variant</text>
</a>
</g>
</g>
<!-- Node23&#45;&gt;Node24 -->
<g id="edge27" class="edge">
<title>Node23&#45;&gt;Node24</title>
<path fill="none" stroke="midnightblue" d="M434.12,-257.4C451.06,-246.5 474.39,-231.48 491.32,-220.58"/>
<polygon fill="midnightblue" stroke="midnightblue" points="493.47,-223.36 499.99,-215.01 489.68,-217.48 493.47,-223.36"/>
</g>
</g>
</svg>
        <g id="navigator" transform="translate(0 0)" fill="#404254">
                <rect fill="#f2f5e9" fill-opacity="0.5" stroke="#606060" stroke-width=".5" x="0" y="0" width="60" height="60"/>
                <use id="zoomplus" xlink:href="#zoomPlus" x="17" y="9" onmousedown="handleZoom(evt,'in')"/>
                <use id="zoomminus" xlink:href="#zoomMin" x="42" y="9" onmousedown="handleZoom(evt,'out')"/>
                <use id="reset" xlink:href="#resetDef" x="30" y="36" onmousedown="handleReset()"/>
                <g id="arrowUp" xlink:href="#dirArrow" transform="translate(30 24)" onmousedown="handlePan(0,-1)">
                  <use xlink:href="#rim" fill="#404040">
                        <set attributeName="fill" to="#808080" begin="arrowUp.mouseover" end="arrowUp.mouseout"/>
                  </use>
                  <path fill="none" stroke="white" stroke-width="1.5" d="M0,-3.0v7 M-2.5,-0.5L0,-3.0L2.5,-0.5"/>
                </g>
                <g id="arrowRight" xlink:href="#dirArrow" transform="rotate(90) translate(36 -43)" onmousedown="handlePan(1,0)">
                  <use xlink:href="#rim" fill="#404040">
                        <set attributeName="fill" to="#808080" begin="arrowRight.mouseover" end="arrowRight.mouseout"/>
                  </use>
                  <path fill="none" stroke="white" stroke-width="1.5" d="M0,-3.0v7 M-2.5,-0.5L0,-3.0L2.5,-0.5"/>
                </g>
                <g id="arrowDown" xlink:href="#dirArrow" transform="rotate(180) translate(-30 -48)" onmousedown="handlePan(0,1)">
                  <use xlink:href="#rim" fill="#404040">
                        <set attributeName="fill" to="#808080" begin="arrowDown.mouseover" end="arrowDown.mouseout"/>
                  </use>
                  <path fill="none" stroke="white" stroke-width="1.5" d="M0,-3.0v7 M-2.5,-0.5L0,-3.0L2.5,-0.5"/>
                </g>
                <g id="arrowLeft" xlink:href="#dirArrow" transform="rotate(270) translate(-36 17)" onmousedown="handlePan(-1,0)">
                  <use xlink:href="#rim" fill="#404040">
                        <set attributeName="fill" to="#808080" begin="arrowLeft.mouseover" end="arrowLeft.mouseout"/>
                  </use>
                  <path fill="none" stroke="white" stroke-width="1.5" d="M0,-3.0v7 M-2.5,-0.5L0,-3.0L2.5,-0.5"/>
                </g>
        </g>
        <svg viewBox="0 0 15 15" width="100%" height="30px" preserveAspectRatio="xMaxYMin meet">
         <g id="arrow_out" transform="scale(0.3 0.3)">
          <a xlink:href="SchmittTriggerDetector_8cpp__incl_org.svg" target="_base">
           <rect id="button" ry="5" rx="5" y="6" x="6" height="38" width="38"
                fill="#f2f5e9" fill-opacity="0.5" stroke="#606060" stroke-width="1.0"/>
           <path id="arrow"
             d="M 11.500037,31.436501 C 11.940474,20.09759 22.043105,11.32322 32.158766,21.979434 L 37.068811,17.246167 C 37.068811,17.246167 37.088388,32 37.088388,32 L 22.160133,31.978069 C 22.160133,31.978069 26.997745,27.140456 26.997745,27.140456 C 18.528582,18.264221 13.291696,25.230495 11.500037,31.436501 z"
             style="fill:#404040;"/>
          </a>
         </g>
        </svg>
</svg>
