<?xml version="1.0" encoding="UTF-8" standalone="no"?>
<!DOCTYPE svg PUBLIC "-//W3C//DTD SVG 1.1//EN"
 "http://www.w3.org/Graphics/SVG/1.1/DTD/svg11.dtd">
<!-- Generated by graphviz version 2.43.0 (0)
 -->
<!-- Title: Planners/include/BipedalLocomotion/Planners/SO3Planner.h Pages: 1 -->
<svg width="706pt" height="430pt"
 viewBox="0.00 0.00 705.50 430.00" xmlns="http://www.w3.org/2000/svg" xmlns:xlink="http://www.w3.org/1999/xlink">
<g id="graph0" class="graph" transform="scale(1 1) rotate(0) translate(4 426)">
<title>Planners/include/BipedalLocomotion/Planners/SO3Planner.h</title>
<!-- Node1 -->
<g id="node1" class="node">
<title>Node1</title>
<g id="a_node1"><a xlink:title=" ">
<polygon fill="#bfbfbf" stroke="black" points="32.5,-391.5 32.5,-421.5 218.5,-421.5 218.5,-391.5 32.5,-391.5"/>
<text text-anchor="start" x="40.5" y="-409.5" font-family="Helvetica,sans-Serif" font-size="10.00">Planners/include/Bipedal</text>
<text text-anchor="middle" x="125.5" y="-398.5" font-family="Helvetica,sans-Serif" font-size="10.00">Locomotion/Planners/SO3Planner.h</text>
</a>
</g>
</g>
<!-- Node2 -->
<g id="node2" class="node">
<title>Node2</title>
<g id="a_node2"><a xlink:title=" ">
<polygon fill="none" stroke="#bfbfbf" points="0,-263 0,-282 77,-282 77,-263 0,-263"/>
<text text-anchor="middle" x="38.5" y="-270" font-family="Helvetica,sans-Serif" font-size="10.00">manif/SO3.h</text>
</a>
</g>
</g>
<!-- Node1&#45;&gt;Node2 -->
<g id="edge1" class="edge">
<title>Node1&#45;&gt;Node2</title>
<path fill="none" stroke="midnightblue" d="M82.69,-391.42C65.81,-383.52 48.17,-371.8 38.5,-355 27.44,-335.79 29.92,-309.56 33.5,-292.11"/>
<polygon fill="midnightblue" stroke="midnightblue" points="36.98,-292.6 35.89,-282.06 30.17,-290.98 36.98,-292.6"/>
</g>
<!-- Node3 -->
<g id="node3" class="node">
<title>Node3</title>
<g id="a_node3"><a xlink:href="Source_8h.html" target="_top" xlink:title=" ">
<polygon fill="none" stroke="black" points="222.5,-324.5 222.5,-354.5 372.5,-354.5 372.5,-324.5 222.5,-324.5"/>
<text text-anchor="start" x="230.5" y="-342.5" font-family="Helvetica,sans-Serif" font-size="10.00">BipedalLocomotion/System</text>
<text text-anchor="middle" x="297.5" y="-331.5" font-family="Helvetica,sans-Serif" font-size="10.00">/Source.h</text>
</a>
</g>
</g>
<!-- Node1&#45;&gt;Node3 -->
<g id="edge2" class="edge">
<title>Node1&#45;&gt;Node3</title>
<path fill="none" stroke="midnightblue" d="M162.82,-391.4C188.63,-381.64 223.16,-368.59 250.79,-358.15"/>
<polygon fill="midnightblue" stroke="midnightblue" points="252.13,-361.39 260.25,-354.58 249.66,-354.84 252.13,-361.39"/>
</g>
<!-- Node19 -->
<g id="node19" class="node">
<title>Node19</title>
<g id="a_node19"><a xlink:href="SO3Planner_8tpp.html" target="_top" xlink:title=" ">
<polygon fill="none" stroke="black" points="48,-324.5 48,-354.5 203,-354.5 203,-324.5 48,-324.5"/>
<text text-anchor="start" x="56" y="-342.5" font-family="Helvetica,sans-Serif" font-size="10.00">BipedalLocomotion/Planners</text>
<text text-anchor="middle" x="125.5" y="-331.5" font-family="Helvetica,sans-Serif" font-size="10.00">/SO3Planner.tpp</text>
</a>
</g>
</g>
<!-- Node1&#45;&gt;Node19 -->
<g id="edge20" class="edge">
<title>Node1&#45;&gt;Node19</title>
<path fill="none" stroke="midnightblue" d="M119.82,-391.4C118.79,-383.56 118.51,-373.6 118.96,-364.57"/>
<polygon fill="midnightblue" stroke="midnightblue" points="122.45,-364.84 119.83,-354.58 115.47,-364.24 122.45,-364.84"/>
</g>
<!-- Node4 -->
<g id="node4" class="node">
<title>Node4</title>
<g id="a_node4"><a xlink:href="Advanceable_8h.html" target="_top" xlink:title=" ">
<polygon fill="none" stroke="black" points="222.5,-257.5 222.5,-287.5 372.5,-287.5 372.5,-257.5 222.5,-257.5"/>
<text text-anchor="start" x="230.5" y="-275.5" font-family="Helvetica,sans-Serif" font-size="10.00">BipedalLocomotion/System</text>
<text text-anchor="middle" x="297.5" y="-264.5" font-family="Helvetica,sans-Serif" font-size="10.00">/Advanceable.h</text>
</a>
</g>
</g>
<!-- Node3&#45;&gt;Node4 -->
<g id="edge3" class="edge">
<title>Node3&#45;&gt;Node4</title>
<path fill="none" stroke="midnightblue" d="M297.5,-324.4C297.5,-316.64 297.5,-306.81 297.5,-297.86"/>
<polygon fill="midnightblue" stroke="midnightblue" points="301,-297.58 297.5,-287.58 294,-297.58 301,-297.58"/>
</g>
<!-- Node5 -->
<g id="node5" class="node">
<title>Node5</title>
<g id="a_node5"><a xlink:title=" ">
<polygon fill="none" stroke="#bfbfbf" points="272,-196 272,-215 323,-215 323,-196 272,-196"/>
<text text-anchor="middle" x="297.5" y="-203" font-family="Helvetica,sans-Serif" font-size="10.00">variant</text>
</a>
</g>
</g>
<!-- Node4&#45;&gt;Node5 -->
<g id="edge4" class="edge">
<title>Node4&#45;&gt;Node5</title>
<path fill="none" stroke="midnightblue" d="M297.5,-257.4C297.5,-248.06 297.5,-235.71 297.5,-225.52"/>
<polygon fill="midnightblue" stroke="midnightblue" points="301,-225.19 297.5,-215.19 294,-225.19 301,-225.19"/>
</g>
<!-- Node6 -->
<g id="node6" class="node">
<title>Node6</title>
<g id="a_node6"><a xlink:href="IParametersHandler_8h.html" target="_top" xlink:title=" ">
<polygon fill="none" stroke="black" points="374,-190.5 374,-220.5 543,-220.5 543,-190.5 374,-190.5"/>
<text text-anchor="start" x="382" y="-208.5" font-family="Helvetica,sans-Serif" font-size="10.00">BipedalLocomotion/Parameters</text>
<text text-anchor="middle" x="458.5" y="-197.5" font-family="Helvetica,sans-Serif" font-size="10.00">Handler/IParametersHandler.h</text>
</a>
</g>
</g>
<!-- Node4&#45;&gt;Node6 -->
<g id="edge5" class="edge">
<title>Node4&#45;&gt;Node6</title>
<path fill="none" stroke="midnightblue" d="M332.43,-257.4C356.38,-247.73 388.35,-234.82 414.1,-224.43"/>
<polygon fill="midnightblue" stroke="midnightblue" points="415.67,-227.57 423.63,-220.58 413.05,-221.07 415.67,-227.57"/>
</g>
<!-- Node7 -->
<g id="node7" class="node">
<title>Node7</title>
<g id="a_node7"><a xlink:title=" ">
<polygon fill="none" stroke="#bfbfbf" points="639.5,-62 639.5,-81 697.5,-81 697.5,-62 639.5,-62"/>
<text text-anchor="middle" x="668.5" y="-69" font-family="Helvetica,sans-Serif" font-size="10.00">memory</text>
</a>
</g>
</g>
<!-- Node6&#45;&gt;Node7 -->
<g id="edge6" class="edge">
<title>Node6&#45;&gt;Node7</title>
<path fill="none" stroke="midnightblue" d="M482.84,-190.4C499.93,-180.42 523.25,-166.61 543.5,-154 580.36,-131.05 622.53,-103.22 647.26,-86.74"/>
<polygon fill="midnightblue" stroke="midnightblue" points="649.46,-89.47 655.84,-81.01 645.58,-83.65 649.46,-89.47"/>
</g>
<!-- Node8 -->
<g id="node8" class="node">
<title>Node8</title>
<g id="a_node8"><a xlink:title=" ">
<polygon fill="none" stroke="#bfbfbf" points="404.5,-129 404.5,-148 448.5,-148 448.5,-129 404.5,-129"/>
<text text-anchor="middle" x="426.5" y="-136" font-family="Helvetica,sans-Serif" font-size="10.00">string</text>
</a>
</g>
</g>
<!-- Node6&#45;&gt;Node8 -->
<g id="edge7" class="edge">
<title>Node6&#45;&gt;Node8</title>
<path fill="none" stroke="midnightblue" d="M451.56,-190.4C446.76,-180.66 440.36,-167.65 435.22,-157.21"/>
<polygon fill="midnightblue" stroke="midnightblue" points="438.34,-155.62 430.78,-148.19 432.06,-158.71 438.34,-155.62"/>
</g>
<!-- Node9 -->
<g id="node9" class="node">
<title>Node9</title>
<g id="a_node9"><a xlink:title=" ">
<polygon fill="none" stroke="#bfbfbf" points="467,-129 467,-148 514,-148 514,-129 467,-129"/>
<text text-anchor="middle" x="490.5" y="-136" font-family="Helvetica,sans-Serif" font-size="10.00">vector</text>
</a>
</g>
</g>
<!-- Node6&#45;&gt;Node9 -->
<g id="edge8" class="edge">
<title>Node6&#45;&gt;Node9</title>
<path fill="none" stroke="midnightblue" d="M465.44,-190.4C470.24,-180.66 476.64,-167.65 481.78,-157.21"/>
<polygon fill="midnightblue" stroke="midnightblue" points="484.94,-158.71 486.22,-148.19 478.66,-155.62 484.94,-158.71"/>
</g>
<!-- Node10 -->
<g id="node10" class="node">
<title>Node10</title>
<g id="a_node10"><a xlink:href="TemplateHelpers_8h_source.html" target="_top" xlink:title=" ">
<polygon fill="none" stroke="black" points="463.5,-56.5 463.5,-86.5 621.5,-86.5 621.5,-56.5 463.5,-56.5"/>
<text text-anchor="start" x="471.5" y="-74.5" font-family="Helvetica,sans-Serif" font-size="10.00">BipedalLocomotion/Generic</text>
<text text-anchor="middle" x="542.5" y="-63.5" font-family="Helvetica,sans-Serif" font-size="10.00">Container/TemplateHelpers.h</text>
</a>
</g>
</g>
<!-- Node6&#45;&gt;Node10 -->
<g id="edge9" class="edge">
<title>Node6&#45;&gt;Node10</title>
<path fill="none" stroke="midnightblue" d="M484.25,-190.39C497.89,-181.63 513.79,-169.16 523.5,-154 534.49,-136.84 539.14,-114.01 541.1,-96.89"/>
<polygon fill="midnightblue" stroke="midnightblue" points="544.62,-96.84 542.04,-86.57 537.65,-96.21 544.62,-96.84"/>
</g>
<!-- Node14 -->
<g id="node14" class="node">
<title>Node14</title>
<g id="a_node14"><a xlink:href="Vector_8h_source.html" target="_top" xlink:title=" ">
<polygon fill="none" stroke="black" points="235,-123.5 235,-153.5 386,-153.5 386,-123.5 235,-123.5"/>
<text text-anchor="start" x="243" y="-141.5" font-family="Helvetica,sans-Serif" font-size="10.00">BipedalLocomotion/Generic</text>
<text text-anchor="middle" x="310.5" y="-130.5" font-family="Helvetica,sans-Serif" font-size="10.00">Container/Vector.h</text>
</a>
</g>
</g>
<!-- Node6&#45;&gt;Node14 -->
<g id="edge13" class="edge">
<title>Node6&#45;&gt;Node14</title>
<path fill="none" stroke="midnightblue" d="M426.39,-190.4C404.57,-180.81 375.51,-168.05 351.94,-157.7"/>
<polygon fill="midnightblue" stroke="midnightblue" points="353.11,-154.39 342.55,-153.58 350.3,-160.8 353.11,-154.39"/>
</g>
<!-- Node11 -->
<g id="node11" class="node">
<title>Node11</title>
<g id="a_node11"><a xlink:title=" ">
<polygon fill="none" stroke="#bfbfbf" points="419,-0.5 419,-19.5 488,-19.5 488,-0.5 419,-0.5"/>
<text text-anchor="middle" x="453.5" y="-7.5" font-family="Helvetica,sans-Serif" font-size="10.00">type_traits</text>
</a>
</g>
</g>
<!-- Node10&#45;&gt;Node11 -->
<g id="edge10" class="edge">
<title>Node10&#45;&gt;Node11</title>
<path fill="none" stroke="midnightblue" d="M521.41,-56.4C507.41,-47.04 489.09,-34.79 475.01,-25.38"/>
<polygon fill="midnightblue" stroke="midnightblue" points="476.71,-22.31 466.45,-19.66 472.82,-28.13 476.71,-22.31"/>
</g>
<!-- Node12 -->
<g id="node12" class="node">
<title>Node12</title>
<g id="a_node12"><a xlink:title=" ">
<polygon fill="none" stroke="#bfbfbf" points="506,-0.5 506,-19.5 579,-19.5 579,-0.5 506,-0.5"/>
<text text-anchor="middle" x="542.5" y="-7.5" font-family="Helvetica,sans-Serif" font-size="10.00">string_view</text>
</a>
</g>
</g>
<!-- Node10&#45;&gt;Node12 -->
<g id="edge11" class="edge">
<title>Node10&#45;&gt;Node12</title>
<path fill="none" stroke="midnightblue" d="M542.5,-56.4C542.5,-48.47 542.5,-38.46 542.5,-29.86"/>
<polygon fill="midnightblue" stroke="midnightblue" points="546,-29.66 542.5,-19.66 539,-29.66 546,-29.66"/>
</g>
<!-- Node13 -->
<g id="node13" class="node">
<title>Node13</title>
<g id="a_node13"><a xlink:title=" ">
<polygon fill="none" stroke="#bfbfbf" points="597,-0.5 597,-19.5 666,-19.5 666,-0.5 597,-0.5"/>
<text text-anchor="middle" x="631.5" y="-7.5" font-family="Helvetica,sans-Serif" font-size="10.00">Eigen/Core</text>
</a>
</g>
</g>
<!-- Node10&#45;&gt;Node13 -->
<g id="edge12" class="edge">
<title>Node10&#45;&gt;Node13</title>
<path fill="none" stroke="midnightblue" d="M563.59,-56.4C577.59,-47.04 595.91,-34.79 609.99,-25.38"/>
<polygon fill="midnightblue" stroke="midnightblue" points="612.18,-28.13 618.55,-19.66 608.29,-22.31 612.18,-28.13"/>
</g>
<!-- Node14&#45;&gt;Node7 -->
<g id="edge19" class="edge">
<title>Node14&#45;&gt;Node7</title>
<path fill="none" stroke="midnightblue" d="M386.03,-124.55C389.23,-124.02 392.4,-123.5 395.5,-123 499.81,-106.12 528.34,-113.99 630.5,-87 633.16,-86.3 635.89,-85.47 638.61,-84.58"/>
<polygon fill="midnightblue" stroke="midnightblue" points="640.01,-87.8 648.25,-81.14 637.66,-81.2 640.01,-87.8"/>
</g>
<!-- Node14&#45;&gt;Node10 -->
<g id="edge15" class="edge">
<title>Node14&#45;&gt;Node10</title>
<path fill="none" stroke="midnightblue" d="M360.55,-123.48C396.26,-113.47 444.45,-99.97 482.26,-89.38"/>
<polygon fill="midnightblue" stroke="midnightblue" points="483.45,-92.68 492.13,-86.61 481.56,-85.94 483.45,-92.68"/>
</g>
<!-- Node15 -->
<g id="node15" class="node">
<title>Node15</title>
<g id="a_node15"><a xlink:title=" ">
<polygon fill="none" stroke="#bfbfbf" points="241,-62 241,-81 362,-81 362,-62 241,-62"/>
<text text-anchor="middle" x="301.5" y="-69" font-family="Helvetica,sans-Serif" font-size="10.00">iDynTree/Core/Span.h</text>
</a>
</g>
</g>
<!-- Node14&#45;&gt;Node15 -->
<g id="edge14" class="edge">
<title>Node14&#45;&gt;Node15</title>
<path fill="none" stroke="midnightblue" d="M308.55,-123.4C307.24,-113.96 305.51,-101.45 304.09,-91.19"/>
<polygon fill="midnightblue" stroke="midnightblue" points="307.54,-90.62 302.7,-81.19 300.61,-91.58 307.54,-90.62"/>
</g>
<!-- Node16 -->
<g id="node16" class="node">
<title>Node16</title>
<g id="a_node16"><a xlink:title=" ">
<polygon fill="none" stroke="#bfbfbf" points="380,-62 380,-81 445,-81 445,-62 380,-62"/>
<text text-anchor="middle" x="412.5" y="-69" font-family="Helvetica,sans-Serif" font-size="10.00">functional</text>
</a>
</g>
</g>
<!-- Node14&#45;&gt;Node16 -->
<g id="edge16" class="edge">
<title>Node14&#45;&gt;Node16</title>
<path fill="none" stroke="midnightblue" d="M332.63,-123.4C349.74,-112.5 373.3,-97.48 390.4,-86.58"/>
<polygon fill="midnightblue" stroke="midnightblue" points="392.6,-89.33 399.15,-81.01 388.84,-83.43 392.6,-89.33"/>
</g>
<!-- Node17 -->
<g id="node17" class="node">
<title>Node17</title>
<g id="a_node17"><a xlink:title=" ">
<polygon fill="none" stroke="#bfbfbf" points="170.5,-62 170.5,-81 222.5,-81 222.5,-62 170.5,-62"/>
<text text-anchor="middle" x="196.5" y="-69" font-family="Helvetica,sans-Serif" font-size="10.00">cassert</text>
</a>
</g>
</g>
<!-- Node14&#45;&gt;Node17 -->
<g id="edge17" class="edge">
<title>Node14&#45;&gt;Node17</title>
<path fill="none" stroke="midnightblue" d="M285.76,-123.4C266.29,-112.29 239.33,-96.92 220.15,-85.98"/>
<polygon fill="midnightblue" stroke="midnightblue" points="221.84,-82.92 211.42,-81.01 218.37,-89 221.84,-82.92"/>
</g>
<!-- Node18 -->
<g id="node18" class="node">
<title>Node18</title>
<g id="a_node18"><a xlink:title=" ">
<polygon fill="none" stroke="#bfbfbf" points="92.5,-62 92.5,-81 152.5,-81 152.5,-62 92.5,-62"/>
<text text-anchor="middle" x="122.5" y="-69" font-family="Helvetica,sans-Serif" font-size="10.00">iostream</text>
</a>
</g>
</g>
<!-- Node14&#45;&gt;Node18 -->
<g id="edge18" class="edge">
<title>Node14&#45;&gt;Node18</title>
<path fill="none" stroke="midnightblue" d="M268,-123.46C238.13,-113.51 197.27,-99.71 161.5,-87 159.26,-86.2 156.95,-85.37 154.63,-84.53"/>
<polygon fill="midnightblue" stroke="midnightblue" points="155.74,-81.21 145.14,-81.05 153.32,-87.78 155.74,-81.21"/>
</g>
<!-- Node19&#45;&gt;Node1 -->
<g id="edge23" class="edge">
<title>Node19&#45;&gt;Node1</title>
<path fill="none" stroke="midnightblue" d="M131.17,-354.58C132.2,-362.41 132.49,-372.37 132.05,-381.4"/>
<polygon fill="midnightblue" stroke="midnightblue" points="128.56,-381.13 131.18,-391.4 135.53,-381.74 128.56,-381.13"/>
</g>
<!-- Node19&#45;&gt;Node2 -->
<g id="edge22" class="edge">
<title>Node19&#45;&gt;Node2</title>
<path fill="none" stroke="midnightblue" d="M106.62,-324.4C92.39,-313.76 72.9,-299.2 58.42,-288.38"/>
<polygon fill="midnightblue" stroke="midnightblue" points="60.24,-285.38 50.14,-282.19 56.05,-290.98 60.24,-285.38"/>
</g>
<!-- Node19&#45;&gt;Node18 -->
<g id="edge21" class="edge">
<title>Node19&#45;&gt;Node18</title>
<path fill="none" stroke="midnightblue" d="M125.34,-324.2C124.83,-279.35 123.28,-141.45 122.71,-91.13"/>
<polygon fill="midnightblue" stroke="midnightblue" points="126.21,-91.01 122.6,-81.05 119.21,-91.09 126.21,-91.01"/>
</g>
</g>
</svg>
