<?xml version="1.0" encoding="UTF-8" standalone="no"?>
<!DOCTYPE svg PUBLIC "-//W3C//DTD SVG 1.1//EN"
 "http://www.w3.org/Graphics/SVG/1.1/DTD/svg11.dtd">
<!-- Generated by graphviz version 2.43.0 (0)
 -->
<!-- Title: Planners/include/BipedalLocomotion/Planners/SO3Planner.tpp Pages: 1 -->
<svg width="613pt" height="497pt"
 viewBox="0.00 0.00 613.00 497.00" xmlns="http://www.w3.org/2000/svg" xmlns:xlink="http://www.w3.org/1999/xlink">
<g id="graph0" class="graph" transform="scale(1 1) rotate(0) translate(4 493)">
<title>Planners/include/BipedalLocomotion/Planners/SO3Planner.tpp</title>
<!-- Node1 -->
<g id="node1" class="node">
<title>Node1</title>
<g id="a_node1"><a xlink:title=" ">
<polygon fill="#bfbfbf" stroke="black" points="100,-458.5 100,-488.5 296,-488.5 296,-458.5 100,-458.5"/>
<text text-anchor="start" x="108" y="-476.5" font-family="Helvetica,sans-Serif" font-size="10.00">Planners/include/Bipedal</text>
<text text-anchor="middle" x="198" y="-465.5" font-family="Helvetica,sans-Serif" font-size="10.00">Locomotion/Planners/SO3Planner.tpp</text>
</a>
</g>
</g>
<!-- Node2 -->
<g id="node2" class="node">
<title>Node2</title>
<g id="a_node2"><a xlink:title=" ">
<polygon fill="none" stroke="#bfbfbf" points="0,-62 0,-81 60,-81 60,-62 0,-62"/>
<text text-anchor="middle" x="30" y="-69" font-family="Helvetica,sans-Serif" font-size="10.00">iostream</text>
</a>
</g>
</g>
<!-- Node1&#45;&gt;Node2 -->
<g id="edge1" class="edge">
<title>Node1&#45;&gt;Node2</title>
<path fill="none" stroke="midnightblue" d="M161.84,-458.47C144.44,-450.14 124.48,-438.05 111,-422 86.17,-392.45 81,-379.1 81,-340.5 81,-340.5 81,-340.5 81,-204.5 81,-160.69 56.25,-113.86 41.24,-89.48"/>
<polygon fill="midnightblue" stroke="midnightblue" points="44.17,-87.58 35.85,-81.02 38.27,-91.33 44.17,-87.58"/>
</g>
<!-- Node3 -->
<g id="node3" class="node">
<title>Node3</title>
<g id="a_node3"><a xlink:title=" ">
<polygon fill="none" stroke="#bfbfbf" points="277.5,-330 277.5,-349 354.5,-349 354.5,-330 277.5,-330"/>
<text text-anchor="middle" x="316" y="-337" font-family="Helvetica,sans-Serif" font-size="10.00">manif/SO3.h</text>
</a>
</g>
</g>
<!-- Node1&#45;&gt;Node3 -->
<g id="edge2" class="edge">
<title>Node1&#45;&gt;Node3</title>
<path fill="none" stroke="midnightblue" d="M234.09,-458.41C251.47,-450.07 271.43,-437.97 285,-422 300.51,-403.74 308.69,-376.91 312.68,-359.09"/>
<polygon fill="midnightblue" stroke="midnightblue" points="316.15,-359.57 314.68,-349.08 309.28,-358.2 316.15,-359.57"/>
</g>
<!-- Node4 -->
<g id="node4" class="node">
<title>Node4</title>
<g id="a_node4"><a xlink:href="SO3Planner_8h.html" target="_top" xlink:title=" ">
<polygon fill="none" stroke="black" points="120.5,-391.5 120.5,-421.5 275.5,-421.5 275.5,-391.5 120.5,-391.5"/>
<text text-anchor="start" x="128.5" y="-409.5" font-family="Helvetica,sans-Serif" font-size="10.00">BipedalLocomotion/Planners</text>
<text text-anchor="middle" x="198" y="-398.5" font-family="Helvetica,sans-Serif" font-size="10.00">/SO3Planner.h</text>
</a>
</g>
</g>
<!-- Node1&#45;&gt;Node4 -->
<g id="edge3" class="edge">
<title>Node1&#45;&gt;Node4</title>
<path fill="none" stroke="midnightblue" d="M192.32,-458.4C191.29,-450.56 191.01,-440.6 191.46,-431.57"/>
<polygon fill="midnightblue" stroke="midnightblue" points="194.95,-431.84 192.33,-421.58 187.97,-431.24 194.95,-431.84"/>
</g>
<!-- Node4&#45;&gt;Node1 -->
<g id="edge23" class="edge">
<title>Node4&#45;&gt;Node1</title>
<path fill="none" stroke="midnightblue" d="M203.67,-421.58C204.7,-429.41 204.99,-439.37 204.55,-448.4"/>
<polygon fill="midnightblue" stroke="midnightblue" points="201.06,-448.13 203.68,-458.4 208.03,-448.74 201.06,-448.13"/>
</g>
<!-- Node4&#45;&gt;Node3 -->
<g id="edge4" class="edge">
<title>Node4&#45;&gt;Node3</title>
<path fill="none" stroke="midnightblue" d="M223.6,-391.4C243.85,-380.24 271.92,-364.78 291.79,-353.83"/>
<polygon fill="midnightblue" stroke="midnightblue" points="293.49,-356.9 300.56,-349.01 290.11,-350.77 293.49,-356.9"/>
</g>
<!-- Node5 -->
<g id="node5" class="node">
<title>Node5</title>
<g id="a_node5"><a xlink:href="Source_8h.html" target="_top" xlink:title=" ">
<polygon fill="none" stroke="black" points="109,-324.5 109,-354.5 259,-354.5 259,-324.5 109,-324.5"/>
<text text-anchor="start" x="117" y="-342.5" font-family="Helvetica,sans-Serif" font-size="10.00">BipedalLocomotion/System</text>
<text text-anchor="middle" x="184" y="-331.5" font-family="Helvetica,sans-Serif" font-size="10.00">/Source.h</text>
</a>
</g>
</g>
<!-- Node4&#45;&gt;Node5 -->
<g id="edge5" class="edge">
<title>Node4&#45;&gt;Node5</title>
<path fill="none" stroke="midnightblue" d="M194.96,-391.4C193.27,-383.56 191.13,-373.6 189.18,-364.57"/>
<polygon fill="midnightblue" stroke="midnightblue" points="192.56,-363.62 187.03,-354.58 185.72,-365.09 192.56,-363.62"/>
</g>
<!-- Node6 -->
<g id="node6" class="node">
<title>Node6</title>
<g id="a_node6"><a xlink:href="Advanceable_8h.html" target="_top" xlink:title=" ">
<polygon fill="none" stroke="black" points="145,-257.5 145,-287.5 295,-287.5 295,-257.5 145,-257.5"/>
<text text-anchor="start" x="153" y="-275.5" font-family="Helvetica,sans-Serif" font-size="10.00">BipedalLocomotion/System</text>
<text text-anchor="middle" x="220" y="-264.5" font-family="Helvetica,sans-Serif" font-size="10.00">/Advanceable.h</text>
</a>
</g>
</g>
<!-- Node5&#45;&gt;Node6 -->
<g id="edge6" class="edge">
<title>Node5&#45;&gt;Node6</title>
<path fill="none" stroke="midnightblue" d="M191.81,-324.4C196.34,-316.22 202.15,-305.73 207.32,-296.39"/>
<polygon fill="midnightblue" stroke="midnightblue" points="210.42,-298.02 212.2,-287.58 204.3,-294.63 210.42,-298.02"/>
</g>
<!-- Node7 -->
<g id="node7" class="node">
<title>Node7</title>
<g id="a_node7"><a xlink:title=" ">
<polygon fill="none" stroke="#bfbfbf" points="194.5,-196 194.5,-215 245.5,-215 245.5,-196 194.5,-196"/>
<text text-anchor="middle" x="220" y="-203" font-family="Helvetica,sans-Serif" font-size="10.00">variant</text>
</a>
</g>
</g>
<!-- Node6&#45;&gt;Node7 -->
<g id="edge7" class="edge">
<title>Node6&#45;&gt;Node7</title>
<path fill="none" stroke="midnightblue" d="M220,-257.4C220,-248.06 220,-235.71 220,-225.52"/>
<polygon fill="midnightblue" stroke="midnightblue" points="223.5,-225.19 220,-215.19 216.5,-225.19 223.5,-225.19"/>
</g>
<!-- Node8 -->
<g id="node8" class="node">
<title>Node8</title>
<g id="a_node8"><a xlink:href="IParametersHandler_8h.html" target="_top" xlink:title=" ">
<polygon fill="none" stroke="black" points="281.5,-190.5 281.5,-220.5 450.5,-220.5 450.5,-190.5 281.5,-190.5"/>
<text text-anchor="start" x="289.5" y="-208.5" font-family="Helvetica,sans-Serif" font-size="10.00">BipedalLocomotion/Parameters</text>
<text text-anchor="middle" x="366" y="-197.5" font-family="Helvetica,sans-Serif" font-size="10.00">Handler/IParametersHandler.h</text>
</a>
</g>
</g>
<!-- Node6&#45;&gt;Node8 -->
<g id="edge8" class="edge">
<title>Node6&#45;&gt;Node8</title>
<path fill="none" stroke="midnightblue" d="M251.68,-257.4C273.2,-247.81 301.87,-235.05 325.12,-224.7"/>
<polygon fill="midnightblue" stroke="midnightblue" points="326.67,-227.84 334.38,-220.58 323.82,-221.45 326.67,-227.84"/>
</g>
<!-- Node9 -->
<g id="node9" class="node">
<title>Node9</title>
<g id="a_node9"><a xlink:title=" ">
<polygon fill="none" stroke="#bfbfbf" points="547,-62 547,-81 605,-81 605,-62 547,-62"/>
<text text-anchor="middle" x="576" y="-69" font-family="Helvetica,sans-Serif" font-size="10.00">memory</text>
</a>
</g>
</g>
<!-- Node8&#45;&gt;Node9 -->
<g id="edge9" class="edge">
<title>Node8&#45;&gt;Node9</title>
<path fill="none" stroke="midnightblue" d="M390.34,-190.4C407.43,-180.42 430.75,-166.61 451,-154 487.86,-131.05 530.03,-103.22 554.76,-86.74"/>
<polygon fill="midnightblue" stroke="midnightblue" points="556.96,-89.47 563.34,-81.01 553.08,-83.65 556.96,-89.47"/>
</g>
<!-- Node10 -->
<g id="node10" class="node">
<title>Node10</title>
<g id="a_node10"><a xlink:title=" ">
<polygon fill="none" stroke="#bfbfbf" points="312,-129 312,-148 356,-148 356,-129 312,-129"/>
<text text-anchor="middle" x="334" y="-136" font-family="Helvetica,sans-Serif" font-size="10.00">string</text>
</a>
</g>
</g>
<!-- Node8&#45;&gt;Node10 -->
<g id="edge10" class="edge">
<title>Node8&#45;&gt;Node10</title>
<path fill="none" stroke="midnightblue" d="M359.06,-190.4C354.26,-180.66 347.86,-167.65 342.72,-157.21"/>
<polygon fill="midnightblue" stroke="midnightblue" points="345.84,-155.62 338.28,-148.19 339.56,-158.71 345.84,-155.62"/>
</g>
<!-- Node11 -->
<g id="node11" class="node">
<title>Node11</title>
<g id="a_node11"><a xlink:title=" ">
<polygon fill="none" stroke="#bfbfbf" points="374.5,-129 374.5,-148 421.5,-148 421.5,-129 374.5,-129"/>
<text text-anchor="middle" x="398" y="-136" font-family="Helvetica,sans-Serif" font-size="10.00">vector</text>
</a>
</g>
</g>
<!-- Node8&#45;&gt;Node11 -->
<g id="edge11" class="edge">
<title>Node8&#45;&gt;Node11</title>
<path fill="none" stroke="midnightblue" d="M372.94,-190.4C377.74,-180.66 384.14,-167.65 389.28,-157.21"/>
<polygon fill="midnightblue" stroke="midnightblue" points="392.44,-158.71 393.72,-148.19 386.16,-155.62 392.44,-158.71"/>
</g>
<!-- Node12 -->
<g id="node12" class="node">
<title>Node12</title>
<g id="a_node12"><a xlink:href="TemplateHelpers_8h_source.html" target="_top" xlink:title=" ">
<polygon fill="none" stroke="black" points="371,-56.5 371,-86.5 529,-86.5 529,-56.5 371,-56.5"/>
<text text-anchor="start" x="379" y="-74.5" font-family="Helvetica,sans-Serif" font-size="10.00">BipedalLocomotion/Generic</text>
<text text-anchor="middle" x="450" y="-63.5" font-family="Helvetica,sans-Serif" font-size="10.00">Container/TemplateHelpers.h</text>
</a>
</g>
</g>
<!-- Node8&#45;&gt;Node12 -->
<g id="edge12" class="edge">
<title>Node8&#45;&gt;Node12</title>
<path fill="none" stroke="midnightblue" d="M391.75,-190.39C405.39,-181.63 421.29,-169.16 431,-154 441.99,-136.84 446.64,-114.01 448.6,-96.89"/>
<polygon fill="midnightblue" stroke="midnightblue" points="452.12,-96.84 449.54,-86.57 445.15,-96.21 452.12,-96.84"/>
</g>
<!-- Node16 -->
<g id="node16" class="node">
<title>Node16</title>
<g id="a_node16"><a xlink:href="Vector_8h_source.html" target="_top" xlink:title=" ">
<polygon fill="none" stroke="black" points="142.5,-123.5 142.5,-153.5 293.5,-153.5 293.5,-123.5 142.5,-123.5"/>
<text text-anchor="start" x="150.5" y="-141.5" font-family="Helvetica,sans-Serif" font-size="10.00">BipedalLocomotion/Generic</text>
<text text-anchor="middle" x="218" y="-130.5" font-family="Helvetica,sans-Serif" font-size="10.00">Container/Vector.h</text>
</a>
</g>
</g>
<!-- Node8&#45;&gt;Node16 -->
<g id="edge16" class="edge">
<title>Node8&#45;&gt;Node16</title>
<path fill="none" stroke="midnightblue" d="M333.89,-190.4C312.07,-180.81 283.01,-168.05 259.44,-157.7"/>
<polygon fill="midnightblue" stroke="midnightblue" points="260.61,-154.39 250.05,-153.58 257.8,-160.8 260.61,-154.39"/>
</g>
<!-- Node13 -->
<g id="node13" class="node">
<title>Node13</title>
<g id="a_node13"><a xlink:title=" ">
<polygon fill="none" stroke="#bfbfbf" points="326.5,-0.5 326.5,-19.5 395.5,-19.5 395.5,-0.5 326.5,-0.5"/>
<text text-anchor="middle" x="361" y="-7.5" font-family="Helvetica,sans-Serif" font-size="10.00">type_traits</text>
</a>
</g>
</g>
<!-- Node12&#45;&gt;Node13 -->
<g id="edge13" class="edge">
<title>Node12&#45;&gt;Node13</title>
<path fill="none" stroke="midnightblue" d="M428.91,-56.4C414.91,-47.04 396.59,-34.79 382.51,-25.38"/>
<polygon fill="midnightblue" stroke="midnightblue" points="384.21,-22.31 373.95,-19.66 380.32,-28.13 384.21,-22.31"/>
</g>
<!-- Node14 -->
<g id="node14" class="node">
<title>Node14</title>
<g id="a_node14"><a xlink:title=" ">
<polygon fill="none" stroke="#bfbfbf" points="413.5,-0.5 413.5,-19.5 486.5,-19.5 486.5,-0.5 413.5,-0.5"/>
<text text-anchor="middle" x="450" y="-7.5" font-family="Helvetica,sans-Serif" font-size="10.00">string_view</text>
</a>
</g>
</g>
<!-- Node12&#45;&gt;Node14 -->
<g id="edge14" class="edge">
<title>Node12&#45;&gt;Node14</title>
<path fill="none" stroke="midnightblue" d="M450,-56.4C450,-48.47 450,-38.46 450,-29.86"/>
<polygon fill="midnightblue" stroke="midnightblue" points="453.5,-29.66 450,-19.66 446.5,-29.66 453.5,-29.66"/>
</g>
<!-- Node15 -->
<g id="node15" class="node">
<title>Node15</title>
<g id="a_node15"><a xlink:title=" ">
<polygon fill="none" stroke="#bfbfbf" points="504.5,-0.5 504.5,-19.5 573.5,-19.5 573.5,-0.5 504.5,-0.5"/>
<text text-anchor="middle" x="539" y="-7.5" font-family="Helvetica,sans-Serif" font-size="10.00">Eigen/Core</text>
</a>
</g>
</g>
<!-- Node12&#45;&gt;Node15 -->
<g id="edge15" class="edge">
<title>Node12&#45;&gt;Node15</title>
<path fill="none" stroke="midnightblue" d="M471.09,-56.4C485.09,-47.04 503.41,-34.79 517.49,-25.38"/>
<polygon fill="midnightblue" stroke="midnightblue" points="519.68,-28.13 526.05,-19.66 515.79,-22.31 519.68,-28.13"/>
</g>
<!-- Node16&#45;&gt;Node2 -->
<g id="edge21" class="edge">
<title>Node16&#45;&gt;Node2</title>
<path fill="none" stroke="midnightblue" d="M175.5,-123.46C145.63,-113.51 104.77,-99.71 69,-87 66.76,-86.2 64.45,-85.37 62.13,-84.53"/>
<polygon fill="midnightblue" stroke="midnightblue" points="63.24,-81.21 52.64,-81.05 60.82,-87.78 63.24,-81.21"/>
</g>
<!-- Node16&#45;&gt;Node9 -->
<g id="edge22" class="edge">
<title>Node16&#45;&gt;Node9</title>
<path fill="none" stroke="midnightblue" d="M293.53,-124.55C296.73,-124.02 299.9,-123.5 303,-123 407.31,-106.12 435.84,-113.99 538,-87 540.66,-86.3 543.39,-85.47 546.11,-84.58"/>
<polygon fill="midnightblue" stroke="midnightblue" points="547.51,-87.8 555.75,-81.14 545.16,-81.2 547.51,-87.8"/>
</g>
<!-- Node16&#45;&gt;Node12 -->
<g id="edge18" class="edge">
<title>Node16&#45;&gt;Node12</title>
<path fill="none" stroke="midnightblue" d="M268.05,-123.48C303.76,-113.47 351.95,-99.97 389.76,-89.38"/>
<polygon fill="midnightblue" stroke="midnightblue" points="390.95,-92.68 399.63,-86.61 389.06,-85.94 390.95,-92.68"/>
</g>
<!-- Node17 -->
<g id="node17" class="node">
<title>Node17</title>
<g id="a_node17"><a xlink:title=" ">
<polygon fill="none" stroke="#bfbfbf" points="148.5,-62 148.5,-81 269.5,-81 269.5,-62 148.5,-62"/>
<text text-anchor="middle" x="209" y="-69" font-family="Helvetica,sans-Serif" font-size="10.00">iDynTree/Core/Span.h</text>
</a>
</g>
</g>
<!-- Node16&#45;&gt;Node17 -->
<g id="edge17" class="edge">
<title>Node16&#45;&gt;Node17</title>
<path fill="none" stroke="midnightblue" d="M216.05,-123.4C214.74,-113.96 213.01,-101.45 211.59,-91.19"/>
<polygon fill="midnightblue" stroke="midnightblue" points="215.04,-90.62 210.2,-81.19 208.11,-91.58 215.04,-90.62"/>
</g>
<!-- Node18 -->
<g id="node18" class="node">
<title>Node18</title>
<g id="a_node18"><a xlink:title=" ">
<polygon fill="none" stroke="#bfbfbf" points="287.5,-62 287.5,-81 352.5,-81 352.5,-62 287.5,-62"/>
<text text-anchor="middle" x="320" y="-69" font-family="Helvetica,sans-Serif" font-size="10.00">functional</text>
</a>
</g>
</g>
<!-- Node16&#45;&gt;Node18 -->
<g id="edge19" class="edge">
<title>Node16&#45;&gt;Node18</title>
<path fill="none" stroke="midnightblue" d="M240.13,-123.4C257.24,-112.5 280.8,-97.48 297.9,-86.58"/>
<polygon fill="midnightblue" stroke="midnightblue" points="300.1,-89.33 306.65,-81.01 296.34,-83.43 300.1,-89.33"/>
</g>
<!-- Node19 -->
<g id="node19" class="node">
<title>Node19</title>
<g id="a_node19"><a xlink:title=" ">
<polygon fill="none" stroke="#bfbfbf" points="78,-62 78,-81 130,-81 130,-62 78,-62"/>
<text text-anchor="middle" x="104" y="-69" font-family="Helvetica,sans-Serif" font-size="10.00">cassert</text>
</a>
</g>
</g>
<!-- Node16&#45;&gt;Node19 -->
<g id="edge20" class="edge">
<title>Node16&#45;&gt;Node19</title>
<path fill="none" stroke="midnightblue" d="M193.26,-123.4C173.79,-112.29 146.83,-96.92 127.65,-85.98"/>
<polygon fill="midnightblue" stroke="midnightblue" points="129.34,-82.92 118.92,-81.01 125.87,-89 129.34,-82.92"/>
</g>
</g>
</svg>
