<?xml version="1.0" encoding="UTF-8" standalone="no"?>
<!DOCTYPE svg PUBLIC "-//W3C//DTD SVG 1.1//EN"
 "http://www.w3.org/Graphics/SVG/1.1/DTD/svg11.dtd">
<!-- Generated by graphviz version 2.43.0 (0)
 -->
<!-- Title: System/include/BipedalLocomotion/System/Source.h Pages: 1 -->
<!--zoomable 273 -->
<svg id="main" version="1.1" xmlns="http://www.w3.org/2000/svg" xmlns:xlink="http://www.w3.org/1999/xlink" xml:space="preserve" onload="init(evt)">
<style type="text/css"><![CDATA[
.edge:hover path { stroke: red; }
.edge:hover polygon { stroke: red; fill: red; }
]]></style>
<script type="text/javascript"><![CDATA[
var edges = document.getElementsByTagName('g');
if (edges && edges.length) {
  for (var i=0;i<edges.length;i++) {
    if (edges[i].id.substr(0,4)=='edge') {
      edges[i].setAttribute('class','edge');
    }
  }
}
]]></script>
        <defs>
                <circle id="rim" cx="0" cy="0" r="7"/>
                <circle id="rim2" cx="0" cy="0" r="3.5"/>
                <g id="zoomPlus">
                        <use xlink:href="#rim" fill="#404040">
                                <set attributeName="fill" to="#808080" begin="zoomplus.mouseover" end="zoomplus.mouseout"/>
                        </use>
                        <path d="M-4,0h8M0,-4v8" fill="none" stroke="white" stroke-width="1.5" pointer-events="none"/>
                </g>
                <g id="zoomMin">
                        <use xlink:href="#rim" fill="#404040">
                                <set attributeName="fill" to="#808080" begin="zoomminus.mouseover" end="zoomminus.mouseout"/>
                        </use>
                        <path d="M-4,0h8" fill="none" stroke="white" stroke-width="1.5" pointer-events="none"/>
                </g>
                <g id="dirArrow">
                        <path fill="none" stroke="white" stroke-width="1.5" d="M0,-3.0v7 M-2.5,-0.5L0,-3.0L2.5,-0.5"/>
                </g>
               <g id="resetDef">
                       <use xlink:href="#rim2" fill="#404040">
                               <set attributeName="fill" to="#808080" begin="reset.mouseover" end="reset.mouseout"/>
                       </use>
               </g>
        </defs>

<script type="text/javascript">
var viewWidth = 3067;
var viewHeight = 273;
var sectionId = 'dynsection-1';
</script>
<script xlink:href="svgpan.js"/>
<svg id="graph" class="graph">
<g id="viewport">
<title>System/include/BipedalLocomotion/System/Source.h</title>
<!-- Node1 -->
<g id="node1" class="node">
<title>Node1</title>
<g id="a_node1"><a xlink:title=" ">
<polygon fill="#bfbfbf" stroke="black" points="1723,-234.5 1723,-264.5 1911,-264.5 1911,-234.5 1723,-234.5"/>
<text text-anchor="start" x="1731" y="-252.5" font-family="Helvetica,sans-Serif" font-size="10.00">System/include/BipedalLocomotion</text>
<text text-anchor="middle" x="1817" y="-241.5" font-family="Helvetica,sans-Serif" font-size="10.00">/System/Source.h</text>
</a>
</g>
</g>
<!-- Node2 -->
<g id="node2" class="node">
<title>Node2</title>
<g id="a_node2"><a xlink:href="ContactDetector_8h.html" target="_top" xlink:title=" ">
<polygon fill="none" stroke="black" points="292.5,-156.5 292.5,-197.5 453.5,-197.5 453.5,-156.5 292.5,-156.5"/>
<text text-anchor="start" x="300.5" y="-185.5" font-family="Helvetica,sans-Serif" font-size="10.00">Contacts/include/Bipedal</text>
<text text-anchor="start" x="300.5" y="-174.5" font-family="Helvetica,sans-Serif" font-size="10.00">Locomotion/ContactDetectors</text>
<text text-anchor="middle" x="373" y="-163.5" font-family="Helvetica,sans-Serif" font-size="10.00">/ContactDetector.h</text>
</a>
</g>
</g>
<!-- Node1&#45;&gt;Node2 -->
<g id="edge1" class="edge">
<title>Node1&#45;&gt;Node2</title>
<path fill="none" stroke="midnightblue" d="M1712.77,-245.17C1507.14,-238.36 1034.71,-221.46 638,-198 576.05,-194.34 506.05,-189 453.55,-184.76"/>
<polygon fill="midnightblue" stroke="midnightblue" points="1712.85,-248.68 1722.96,-245.51 1713.08,-241.68 1712.85,-248.68"/>
</g>
<!-- Node8 -->
<g id="node8" class="node">
<title>Node8</title>
<g id="a_node8"><a xlink:href="RecursiveLeastSquare_8h.html" target="_top" xlink:title=" ">
<polygon fill="none" stroke="black" points="647.5,-156.5 647.5,-197.5 816.5,-197.5 816.5,-156.5 647.5,-156.5"/>
<text text-anchor="start" x="655.5" y="-185.5" font-family="Helvetica,sans-Serif" font-size="10.00">Estimators/include</text>
<text text-anchor="start" x="655.5" y="-174.5" font-family="Helvetica,sans-Serif" font-size="10.00">/BipedalLocomotion/Estimators</text>
<text text-anchor="middle" x="732" y="-163.5" font-family="Helvetica,sans-Serif" font-size="10.00">/RecursiveLeastSquare.h</text>
</a>
</g>
</g>
<!-- Node1&#45;&gt;Node8 -->
<g id="edge7" class="edge">
<title>Node1&#45;&gt;Node8</title>
<path fill="none" stroke="midnightblue" d="M1712.66,-242.72C1555.46,-233.88 1248.57,-216.11 988,-198 930.85,-194.03 866.58,-189 816.72,-184.99"/>
<polygon fill="midnightblue" stroke="midnightblue" points="1712.61,-246.22 1722.79,-243.29 1713,-239.23 1712.61,-246.22"/>
</g>
<!-- Node10 -->
<g id="node10" class="node">
<title>Node10</title>
<g id="a_node10"><a xlink:href="FloatingBaseEstimator_8h.html" target="_top" xlink:title=" ">
<polygon fill="none" stroke="black" points="997.5,-156.5 997.5,-197.5 1212.5,-197.5 1212.5,-156.5 997.5,-156.5"/>
<text text-anchor="start" x="1005.5" y="-185.5" font-family="Helvetica,sans-Serif" font-size="10.00">Estimators/include</text>
<text text-anchor="start" x="1005.5" y="-174.5" font-family="Helvetica,sans-Serif" font-size="10.00">/BipedalLocomotion/Floating</text>
<text text-anchor="middle" x="1105" y="-163.5" font-family="Helvetica,sans-Serif" font-size="10.00">BaseEstimators/FloatingBaseEstimator.h</text>
</a>
</g>
</g>
<!-- Node1&#45;&gt;Node10 -->
<g id="edge9" class="edge">
<title>Node1&#45;&gt;Node10</title>
<path fill="none" stroke="midnightblue" d="M1712.35,-238.34C1608.29,-228.22 1444.1,-212.18 1302,-198 1273.01,-195.11 1241.62,-191.94 1212.6,-188.99"/>
<polygon fill="midnightblue" stroke="midnightblue" points="1712.25,-241.85 1722.54,-239.34 1712.93,-234.88 1712.25,-241.85"/>
</g>
<!-- Node16 -->
<g id="node16" class="node">
<title>Node16</title>
<g id="a_node16"><a xlink:href="IntegrationBasedIK_8h.html" target="_top" xlink:title=" ">
<polygon fill="none" stroke="black" points="1311.5,-162 1311.5,-192 1472.5,-192 1472.5,-162 1311.5,-162"/>
<text text-anchor="start" x="1319.5" y="-180" font-family="Helvetica,sans-Serif" font-size="10.00">IK/include/BipedalLocomotion</text>
<text text-anchor="middle" x="1392" y="-169" font-family="Helvetica,sans-Serif" font-size="10.00">/IK/IntegrationBasedIK.h</text>
</a>
</g>
</g>
<!-- Node1&#45;&gt;Node16 -->
<g id="edge15" class="edge">
<title>Node1&#45;&gt;Node16</title>
<path fill="none" stroke="midnightblue" d="M1712.76,-234.43C1646.97,-225.12 1560.3,-212.06 1484,-198 1474.36,-196.22 1464.18,-194.18 1454.25,-192.09"/>
<polygon fill="midnightblue" stroke="midnightblue" points="1712.33,-237.9 1722.72,-235.83 1713.3,-230.97 1712.33,-237.9"/>
</g>
<!-- Node19 -->
<g id="node19" class="node">
<title>Node19</title>
<g id="a_node19"><a xlink:href="ArucoDetector_8h.html" target="_top" xlink:title=" ">
<polygon fill="none" stroke="black" points="1493,-156.5 1493,-197.5 1661,-197.5 1661,-156.5 1493,-156.5"/>
<text text-anchor="start" x="1501" y="-185.5" font-family="Helvetica,sans-Serif" font-size="10.00">Perception/include</text>
<text text-anchor="start" x="1501" y="-174.5" font-family="Helvetica,sans-Serif" font-size="10.00">/BipedalLocomotion/Perception</text>
<text text-anchor="middle" x="1577" y="-163.5" font-family="Helvetica,sans-Serif" font-size="10.00">/Features/ArucoDetector.h</text>
</a>
</g>
</g>
<!-- Node1&#45;&gt;Node19 -->
<g id="edge18" class="edge">
<title>Node1&#45;&gt;Node19</title>
<path fill="none" stroke="midnightblue" d="M1759.29,-231.55C1724.48,-221.32 1680,-208.26 1643.7,-197.59"/>
<polygon fill="midnightblue" stroke="midnightblue" points="1758.72,-235.03 1769.3,-234.49 1760.69,-228.31 1758.72,-235.03"/>
</g>
<!-- Node21 -->
<g id="node21" class="node">
<title>Node21</title>
<g id="a_node21"><a xlink:href="DCMPlanner_8h.html" target="_top" xlink:title=" ">
<polygon fill="none" stroke="black" points="1722,-162 1722,-192 1912,-192 1912,-162 1722,-162"/>
<text text-anchor="start" x="1730" y="-180" font-family="Helvetica,sans-Serif" font-size="10.00">Planners/include/Bipedal</text>
<text text-anchor="middle" x="1817" y="-169" font-family="Helvetica,sans-Serif" font-size="10.00">Locomotion/Planners/DCMPlanner.h</text>
</a>
</g>
</g>
<!-- Node1&#45;&gt;Node21 -->
<g id="edge20" class="edge">
<title>Node1&#45;&gt;Node21</title>
<path fill="none" stroke="midnightblue" d="M1817,-224.23C1817,-213.57 1817,-201.41 1817,-192.25"/>
<polygon fill="midnightblue" stroke="midnightblue" points="1813.5,-224.23 1817,-234.23 1820.5,-224.23 1813.5,-224.23"/>
</g>
<!-- Node25 -->
<g id="node25" class="node">
<title>Node25</title>
<g id="a_node25"><a xlink:href="QuinticSpline_8h.html" target="_top" xlink:title=" ">
<polygon fill="none" stroke="black" points="1985.5,-162 1985.5,-192 2180.5,-192 2180.5,-162 1985.5,-162"/>
<text text-anchor="start" x="1993.5" y="-180" font-family="Helvetica,sans-Serif" font-size="10.00">Planners/include/Bipedal</text>
<text text-anchor="middle" x="2083" y="-169" font-family="Helvetica,sans-Serif" font-size="10.00">Locomotion/Planners/QuinticSpline.h</text>
</a>
</g>
</g>
<!-- Node1&#45;&gt;Node25 -->
<g id="edge24" class="edge">
<title>Node1&#45;&gt;Node25</title>
<path fill="none" stroke="midnightblue" d="M1879.66,-231.89C1925.31,-219.79 1986.48,-203.58 2029.77,-192.11"/>
<polygon fill="midnightblue" stroke="midnightblue" points="1878.64,-228.54 1869.87,-234.49 1880.43,-235.31 1878.64,-228.54"/>
</g>
<!-- Node26 -->
<g id="node26" class="node">
<title>Node26</title>
<g id="a_node26"><a xlink:href="SwingFootPlanner_8h.html" target="_top" xlink:title=" ">
<polygon fill="none" stroke="black" points="2281,-73 2281,-114 2453,-114 2453,-73 2281,-73"/>
<text text-anchor="start" x="2289" y="-102" font-family="Helvetica,sans-Serif" font-size="10.00">Planners/include/Bipedal</text>
<text text-anchor="start" x="2289" y="-91" font-family="Helvetica,sans-Serif" font-size="10.00">Locomotion/Planners/SwingFoot</text>
<text text-anchor="middle" x="2367" y="-80" font-family="Helvetica,sans-Serif" font-size="10.00">Planner.h</text>
</a>
</g>
</g>
<!-- Node1&#45;&gt;Node26 -->
<g id="edge33" class="edge">
<title>Node1&#45;&gt;Node26</title>
<path fill="none" stroke="midnightblue" d="M1921.11,-245.22C1997.12,-240.25 2101.69,-227.98 2189,-198 2247.15,-178.03 2307.51,-138.17 2340.87,-114.17"/>
<polygon fill="midnightblue" stroke="midnightblue" points="1920.81,-241.73 1911.05,-245.85 1921.25,-248.72 1920.81,-241.73"/>
</g>
<!-- Node29 -->
<g id="node29" class="node">
<title>Node29</title>
<g id="a_node29"><a xlink:href="SO3Planner_8h.html" target="_top" xlink:title=" ">
<polygon fill="none" stroke="black" points="2300,-162 2300,-192 2486,-192 2486,-162 2300,-162"/>
<text text-anchor="start" x="2308" y="-180" font-family="Helvetica,sans-Serif" font-size="10.00">Planners/include/Bipedal</text>
<text text-anchor="middle" x="2393" y="-169" font-family="Helvetica,sans-Serif" font-size="10.00">Locomotion/Planners/SO3Planner.h</text>
</a>
</g>
</g>
<!-- Node1&#45;&gt;Node29 -->
<g id="edge29" class="edge">
<title>Node1&#45;&gt;Node29</title>
<path fill="none" stroke="midnightblue" d="M1921.32,-237.74C2011.38,-228.19 2144.92,-213.39 2261,-198 2274.79,-196.17 2289.36,-194.1 2303.6,-192"/>
<polygon fill="midnightblue" stroke="midnightblue" points="1920.68,-234.29 1911.1,-238.82 1921.42,-241.25 1920.68,-234.29"/>
</g>
<!-- Node31 -->
<g id="node31" class="node">
<title>Node31</title>
<g id="a_node31"><a xlink:href="YarpSensorBridge_8h.html" target="_top" xlink:title=" ">
<polygon fill="none" stroke="black" points="2606,-156.5 2606,-197.5 2796,-197.5 2796,-156.5 2606,-156.5"/>
<text text-anchor="start" x="2614" y="-185.5" font-family="Helvetica,sans-Serif" font-size="10.00">RobotInterface/YarpImplementation</text>
<text text-anchor="start" x="2614" y="-174.5" font-family="Helvetica,sans-Serif" font-size="10.00">/include/BipedalLocomotion</text>
<text text-anchor="middle" x="2701" y="-163.5" font-family="Helvetica,sans-Serif" font-size="10.00">/RobotInterface/YarpSensorBridge.h</text>
</a>
</g>
</g>
<!-- Node1&#45;&gt;Node31 -->
<g id="edge34" class="edge">
<title>Node1&#45;&gt;Node31</title>
<path fill="none" stroke="midnightblue" d="M1921.3,-241.46C2054.47,-232.31 2291.99,-215.41 2495,-198 2531.25,-194.89 2571.05,-191.11 2605.92,-187.68"/>
<polygon fill="midnightblue" stroke="midnightblue" points="1920.84,-237.98 1911.1,-242.16 1921.32,-244.97 1920.84,-237.98"/>
</g>
<!-- Node34 -->
<g id="node34" class="node">
<title>Node34</title>
<g id="a_node34"><a xlink:href="TaskSpaceInverseDynamics_8h.html" target="_top" xlink:title=" ">
<polygon fill="none" stroke="black" points="2865,-162 2865,-192 3055,-192 3055,-162 2865,-162"/>
<text text-anchor="start" x="2873" y="-180" font-family="Helvetica,sans-Serif" font-size="10.00">TSID/include/BipedalLocomotion</text>
<text text-anchor="middle" x="2960" y="-169" font-family="Helvetica,sans-Serif" font-size="10.00">/TSID/TaskSpaceInverseDynamics.h</text>
</a>
</g>
</g>
<!-- Node1&#45;&gt;Node34 -->
<g id="edge37" class="edge">
<title>Node1&#45;&gt;Node34</title>
<path fill="none" stroke="midnightblue" d="M1921.18,-245.82C2101.53,-240.59 2483.5,-226.92 2805,-198 2824.32,-196.26 2844.94,-193.94 2864.63,-191.48"/>
<polygon fill="midnightblue" stroke="midnightblue" points="1921.06,-242.32 1911.17,-246.11 1921.26,-249.32 1921.06,-242.32"/>
</g>
<!-- Node3 -->
<g id="node3" class="node">
<title>Node3</title>
<g id="a_node3"><a xlink:href="FixedFootDetector_8h.html" target="_top" xlink:title=" ">
<polygon fill="none" stroke="black" points="17.5,-73 17.5,-114 178.5,-114 178.5,-73 17.5,-73"/>
<text text-anchor="start" x="25.5" y="-102" font-family="Helvetica,sans-Serif" font-size="10.00">Contacts/include/Bipedal</text>
<text text-anchor="start" x="25.5" y="-91" font-family="Helvetica,sans-Serif" font-size="10.00">Locomotion/ContactDetectors</text>
<text text-anchor="middle" x="98" y="-80" font-family="Helvetica,sans-Serif" font-size="10.00">/FixedFootDetector.h</text>
</a>
</g>
</g>
<!-- Node2&#45;&gt;Node3 -->
<g id="edge2" class="edge">
<title>Node2&#45;&gt;Node3</title>
<path fill="none" stroke="midnightblue" d="M297.53,-153.63C255.64,-141.22 204.04,-125.93 163.81,-114"/>
<polygon fill="midnightblue" stroke="midnightblue" points="296.55,-156.99 307.13,-156.48 298.54,-150.28 296.55,-156.99"/>
</g>
<!-- Node5 -->
<g id="node5" class="node">
<title>Node5</title>
<g id="a_node5"><a xlink:href="SchmittTriggerDetector_8h.html" target="_top" xlink:title=" ">
<polygon fill="none" stroke="black" points="198.5,-73 198.5,-114 359.5,-114 359.5,-73 198.5,-73"/>
<text text-anchor="start" x="206.5" y="-102" font-family="Helvetica,sans-Serif" font-size="10.00">Contacts/include/Bipedal</text>
<text text-anchor="start" x="206.5" y="-91" font-family="Helvetica,sans-Serif" font-size="10.00">Locomotion/ContactDetectors</text>
<text text-anchor="middle" x="279" y="-80" font-family="Helvetica,sans-Serif" font-size="10.00">/SchmittTriggerDetector.h</text>
</a>
</g>
</g>
<!-- Node2&#45;&gt;Node5 -->
<g id="edge4" class="edge">
<title>Node2&#45;&gt;Node5</title>
<path fill="none" stroke="midnightblue" d="M342.65,-149.69C329.29,-138.1 313.86,-124.73 301.55,-114.05"/>
<polygon fill="midnightblue" stroke="midnightblue" points="340.4,-152.36 350.25,-156.27 344.98,-147.08 340.4,-152.36"/>
</g>
<!-- Node7 -->
<g id="node7" class="node">
<title>Node7</title>
<g id="a_node7"><a xlink:href="ContactDetector_8cpp.html" target="_top" xlink:title=" ">
<polygon fill="none" stroke="black" points="377.5,-84 377.5,-103 556.5,-103 556.5,-84 377.5,-84"/>
<text text-anchor="middle" x="467" y="-91" font-family="Helvetica,sans-Serif" font-size="10.00">Contacts/src/ContactDetector.cpp</text>
</a>
</g>
</g>
<!-- Node2&#45;&gt;Node7 -->
<g id="edge6" class="edge">
<title>Node2&#45;&gt;Node7</title>
<path fill="none" stroke="midnightblue" d="M403.41,-149.63C421.93,-133.57 444.4,-114.09 457.06,-103.12"/>
<polygon fill="midnightblue" stroke="midnightblue" points="401.02,-147.08 395.75,-156.27 405.6,-152.36 401.02,-147.08"/>
</g>
<!-- Node4 -->
<g id="node4" class="node">
<title>Node4</title>
<g id="a_node4"><a xlink:href="FixedFootDetector_8cpp.html" target="_top" xlink:title=" ">
<polygon fill="none" stroke="black" points="0,-6 0,-25 188,-25 188,-6 0,-6"/>
<text text-anchor="middle" x="94" y="-13" font-family="Helvetica,sans-Serif" font-size="10.00">Contacts/src/FixedFootDetector.cpp</text>
</a>
</g>
</g>
<!-- Node3&#45;&gt;Node4 -->
<g id="edge3" class="edge">
<title>Node3&#45;&gt;Node4</title>
<path fill="none" stroke="midnightblue" d="M96.42,-62.55C95.71,-49.06 94.93,-34.15 94.45,-25.05"/>
<polygon fill="midnightblue" stroke="midnightblue" points="92.95,-63.13 96.97,-72.93 99.94,-62.76 92.95,-63.13"/>
</g>
<!-- Node6 -->
<g id="node6" class="node">
<title>Node6</title>
<g id="a_node6"><a xlink:href="SchmittTriggerDetector_8cpp.html" target="_top" xlink:title=" ">
<polygon fill="none" stroke="black" points="206,-0.5 206,-30.5 356,-30.5 356,-0.5 206,-0.5"/>
<text text-anchor="start" x="214" y="-18.5" font-family="Helvetica,sans-Serif" font-size="10.00">Contacts/src/SchmittTrigger</text>
<text text-anchor="middle" x="281" y="-7.5" font-family="Helvetica,sans-Serif" font-size="10.00">Detector.cpp</text>
</a>
</g>
</g>
<!-- Node5&#45;&gt;Node6 -->
<g id="edge5" class="edge">
<title>Node5&#45;&gt;Node6</title>
<path fill="none" stroke="midnightblue" d="M279.78,-62.78C280.07,-51.75 280.39,-39.75 280.63,-30.73"/>
<polygon fill="midnightblue" stroke="midnightblue" points="276.28,-62.84 279.52,-72.93 283.28,-63.02 276.28,-62.84"/>
</g>
<!-- Node9 -->
<g id="node9" class="node">
<title>Node9</title>
<g id="a_node9"><a xlink:href="RecursiveLeastSquare_8cpp.html" target="_top" xlink:title=" ">
<polygon fill="none" stroke="black" points="574.5,-78.5 574.5,-108.5 711.5,-108.5 711.5,-78.5 574.5,-78.5"/>
<text text-anchor="start" x="582.5" y="-96.5" font-family="Helvetica,sans-Serif" font-size="10.00">Estimators/src/Recursive</text>
<text text-anchor="middle" x="643" y="-85.5" font-family="Helvetica,sans-Serif" font-size="10.00">LeastSquare.cpp</text>
</a>
</g>
</g>
<!-- Node8&#45;&gt;Node9 -->
<g id="edge8" class="edge">
<title>Node8&#45;&gt;Node9</title>
<path fill="none" stroke="midnightblue" d="M702.99,-149.43C688.17,-135.86 670.73,-119.9 658.49,-108.68"/>
<polygon fill="midnightblue" stroke="midnightblue" points="700.72,-152.1 710.46,-156.27 705.44,-146.94 700.72,-152.1"/>
</g>
<!-- Node11 -->
<g id="node11" class="node">
<title>Node11</title>
<g id="a_node11"><a xlink:href="InvariantEKFBaseEstimator_8h.html" target="_top" xlink:title=" ">
<polygon fill="none" stroke="black" points="730,-67.5 730,-119.5 912,-119.5 912,-67.5 730,-67.5"/>
<text text-anchor="start" x="738" y="-107.5" font-family="Helvetica,sans-Serif" font-size="10.00">Estimators/include</text>
<text text-anchor="start" x="738" y="-96.5" font-family="Helvetica,sans-Serif" font-size="10.00">/BipedalLocomotion/Floating</text>
<text text-anchor="start" x="738" y="-85.5" font-family="Helvetica,sans-Serif" font-size="10.00">BaseEstimators/InvariantEKFBase</text>
<text text-anchor="middle" x="821" y="-74.5" font-family="Helvetica,sans-Serif" font-size="10.00">Estimator.h</text>
</a>
</g>
</g>
<!-- Node10&#45;&gt;Node11 -->
<g id="edge10" class="edge">
<title>Node10&#45;&gt;Node11</title>
<path fill="none" stroke="midnightblue" d="M1027.27,-153.69C990.37,-143.11 946.14,-130.41 908.12,-119.5"/>
<polygon fill="midnightblue" stroke="midnightblue" points="1026.4,-157.08 1036.97,-156.48 1028.33,-150.36 1026.4,-157.08"/>
</g>
<!-- Node13 -->
<g id="node13" class="node">
<title>Node13</title>
<g id="a_node13"><a xlink:href="LeggedOdometry_8h.html" target="_top" xlink:title=" ">
<polygon fill="none" stroke="black" points="930,-73 930,-114 1118,-114 1118,-73 930,-73"/>
<text text-anchor="start" x="938" y="-102" font-family="Helvetica,sans-Serif" font-size="10.00">Estimators/include</text>
<text text-anchor="start" x="938" y="-91" font-family="Helvetica,sans-Serif" font-size="10.00">/BipedalLocomotion/Floating</text>
<text text-anchor="middle" x="1024" y="-80" font-family="Helvetica,sans-Serif" font-size="10.00">BaseEstimators/LeggedOdometry.h</text>
</a>
</g>
</g>
<!-- Node10&#45;&gt;Node13 -->
<g id="edge12" class="edge">
<title>Node10&#45;&gt;Node13</title>
<path fill="none" stroke="midnightblue" d="M1078.2,-149.04C1066.84,-137.6 1053.84,-124.53 1043.43,-114.05"/>
<polygon fill="midnightblue" stroke="midnightblue" points="1075.86,-151.65 1085.39,-156.27 1080.83,-146.71 1075.86,-151.65"/>
</g>
<!-- Node15 -->
<g id="node15" class="node">
<title>Node15</title>
<g id="a_node15"><a xlink:href="FloatingBaseEstimator_8cpp.html" target="_top" xlink:title=" ">
<polygon fill="none" stroke="black" points="1136.5,-78.5 1136.5,-108.5 1289.5,-108.5 1289.5,-78.5 1136.5,-78.5"/>
<text text-anchor="start" x="1144.5" y="-96.5" font-family="Helvetica,sans-Serif" font-size="10.00">Estimators/src/FloatingBase</text>
<text text-anchor="middle" x="1213" y="-85.5" font-family="Helvetica,sans-Serif" font-size="10.00">Estimator.cpp</text>
</a>
</g>
</g>
<!-- Node10&#45;&gt;Node15 -->
<g id="edge14" class="edge">
<title>Node10&#45;&gt;Node15</title>
<path fill="none" stroke="midnightblue" d="M1139,-150.34C1157.33,-136.51 1179.24,-119.97 1194.44,-108.5"/>
<polygon fill="midnightblue" stroke="midnightblue" points="1136.74,-147.66 1130.87,-156.48 1140.96,-153.25 1136.74,-147.66"/>
</g>
<!-- Node12 -->
<g id="node12" class="node">
<title>Node12</title>
<g id="a_node12"><a xlink:href="InvariantEKFBaseEstimator_8cpp.html" target="_top" xlink:title=" ">
<polygon fill="none" stroke="black" points="754.5,-0.5 754.5,-30.5 887.5,-30.5 887.5,-0.5 754.5,-0.5"/>
<text text-anchor="start" x="762.5" y="-18.5" font-family="Helvetica,sans-Serif" font-size="10.00">Estimators/src/Invariant</text>
<text text-anchor="middle" x="821" y="-7.5" font-family="Helvetica,sans-Serif" font-size="10.00">EKFBaseEstimator.cpp</text>
</a>
</g>
</g>
<!-- Node11&#45;&gt;Node12 -->
<g id="edge11" class="edge">
<title>Node11&#45;&gt;Node12</title>
<path fill="none" stroke="midnightblue" d="M821,-56.96C821,-47.72 821,-38.28 821,-30.85"/>
<polygon fill="midnightblue" stroke="midnightblue" points="817.5,-57.19 821,-67.19 824.5,-57.19 817.5,-57.19"/>
</g>
<!-- Node14 -->
<g id="node14" class="node">
<title>Node14</title>
<g id="a_node14"><a xlink:href="LeggedOdometry_8cpp.html" target="_top" xlink:title=" ">
<polygon fill="none" stroke="black" points="928,-6 928,-25 1120,-25 1120,-6 928,-6"/>
<text text-anchor="middle" x="1024" y="-13" font-family="Helvetica,sans-Serif" font-size="10.00">Estimators/src/LeggedOdometry.cpp</text>
</a>
</g>
</g>
<!-- Node13&#45;&gt;Node14 -->
<g id="edge13" class="edge">
<title>Node13&#45;&gt;Node14</title>
<path fill="none" stroke="midnightblue" d="M1024,-62.55C1024,-49.06 1024,-34.15 1024,-25.05"/>
<polygon fill="midnightblue" stroke="midnightblue" points="1020.5,-62.93 1024,-72.93 1027.5,-62.93 1020.5,-62.93"/>
</g>
<!-- Node17 -->
<g id="node17" class="node">
<title>Node17</title>
<g id="a_node17"><a xlink:href="QPInverseKinematics_8h.html" target="_top" xlink:title=" ">
<polygon fill="none" stroke="black" points="1307.5,-78.5 1307.5,-108.5 1468.5,-108.5 1468.5,-78.5 1307.5,-78.5"/>
<text text-anchor="start" x="1315.5" y="-96.5" font-family="Helvetica,sans-Serif" font-size="10.00">IK/include/BipedalLocomotion</text>
<text text-anchor="middle" x="1388" y="-85.5" font-family="Helvetica,sans-Serif" font-size="10.00">/IK/QPInverseKinematics.h</text>
</a>
</g>
</g>
<!-- Node16&#45;&gt;Node17 -->
<g id="edge16" class="edge">
<title>Node16&#45;&gt;Node17</title>
<path fill="none" stroke="midnightblue" d="M1390.81,-151.78C1390.12,-137.68 1389.27,-120.4 1388.69,-108.53"/>
<polygon fill="midnightblue" stroke="midnightblue" points="1387.32,-151.99 1391.3,-161.8 1394.31,-151.64 1387.32,-151.99"/>
</g>
<!-- Node18 -->
<g id="node18" class="node">
<title>Node18</title>
<g id="a_node18"><a xlink:href="QPInverseKinematics_8cpp.html" target="_top" xlink:title=" ">
<polygon fill="none" stroke="black" points="1302.5,-6 1302.5,-25 1473.5,-25 1473.5,-6 1302.5,-6"/>
<text text-anchor="middle" x="1388" y="-13" font-family="Helvetica,sans-Serif" font-size="10.00">IK/src/QPInverseKinematics.cpp</text>
</a>
</g>
</g>
<!-- Node17&#45;&gt;Node18 -->
<g id="edge17" class="edge">
<title>Node17&#45;&gt;Node18</title>
<path fill="none" stroke="midnightblue" d="M1388,-68.17C1388,-53.4 1388,-35.45 1388,-25.06"/>
<polygon fill="midnightblue" stroke="midnightblue" points="1384.5,-68.2 1388,-78.2 1391.5,-68.21 1384.5,-68.2"/>
</g>
<!-- Node20 -->
<g id="node20" class="node">
<title>Node20</title>
<g id="a_node20"><a xlink:href="ArucoDetector_8cpp.html" target="_top" xlink:title=" ">
<polygon fill="none" stroke="black" points="1487,-84 1487,-103 1665,-103 1665,-84 1487,-84"/>
<text text-anchor="middle" x="1576" y="-91" font-family="Helvetica,sans-Serif" font-size="10.00">Perception/src/ArucoDetector.cpp</text>
</a>
</g>
</g>
<!-- Node19&#45;&gt;Node20 -->
<g id="edge19" class="edge">
<title>Node19&#45;&gt;Node20</title>
<path fill="none" stroke="midnightblue" d="M1576.63,-146.14C1576.45,-130.83 1576.23,-113.31 1576.11,-103.12"/>
<polygon fill="midnightblue" stroke="midnightblue" points="1573.14,-146.31 1576.76,-156.27 1580.13,-146.23 1573.14,-146.31"/>
</g>
<!-- Node22 -->
<g id="node22" class="node">
<title>Node22</title>
<g id="a_node22"><a xlink:href="TimeVaryingDCMPlanner_8h.html" target="_top" xlink:title=" ">
<polygon fill="none" stroke="black" points="1683.5,-73 1683.5,-114 1866.5,-114 1866.5,-73 1683.5,-73"/>
<text text-anchor="start" x="1691.5" y="-102" font-family="Helvetica,sans-Serif" font-size="10.00">Planners/include/Bipedal</text>
<text text-anchor="start" x="1691.5" y="-91" font-family="Helvetica,sans-Serif" font-size="10.00">Locomotion/Planners/TimeVarying</text>
<text text-anchor="middle" x="1775" y="-80" font-family="Helvetica,sans-Serif" font-size="10.00">DCMPlanner.h</text>
</a>
</g>
</g>
<!-- Node21&#45;&gt;Node22 -->
<g id="edge21" class="edge">
<title>Node21&#45;&gt;Node22</title>
<path fill="none" stroke="midnightblue" d="M1804.97,-152.66C1798.67,-140.44 1791.05,-125.64 1785.06,-114.03"/>
<polygon fill="midnightblue" stroke="midnightblue" points="1801.99,-154.52 1809.68,-161.8 1808.21,-151.31 1801.99,-154.52"/>
</g>
<!-- Node24 -->
<g id="node24" class="node">
<title>Node24</title>
<g id="a_node24"><a xlink:href="DCMPlanner_8cpp.html" target="_top" xlink:title=" ">
<polygon fill="none" stroke="black" points="1885,-84 1885,-103 2043,-103 2043,-84 1885,-84"/>
<text text-anchor="middle" x="1964" y="-91" font-family="Helvetica,sans-Serif" font-size="10.00">Planners/src/DCMPlanner.cpp</text>
</a>
</g>
</g>
<!-- Node21&#45;&gt;Node24 -->
<g id="edge23" class="edge">
<title>Node21&#45;&gt;Node24</title>
<path fill="none" stroke="midnightblue" d="M1851.35,-156.96C1882.04,-139.94 1925.6,-115.79 1948.52,-103.08"/>
<polygon fill="midnightblue" stroke="midnightblue" points="1849.32,-154.08 1842.27,-161.99 1852.71,-160.2 1849.32,-154.08"/>
</g>
<!-- Node23 -->
<g id="node23" class="node">
<title>Node23</title>
<g id="a_node23"><a xlink:href="TimeVaryingDCMPlanner_8cpp.html" target="_top" xlink:title=" ">
<polygon fill="none" stroke="black" points="1853,-0.5 1853,-30.5 1993,-30.5 1993,-0.5 1853,-0.5"/>
<text text-anchor="start" x="1861" y="-18.5" font-family="Helvetica,sans-Serif" font-size="10.00">Planners/src/TimeVarying</text>
<text text-anchor="middle" x="1923" y="-7.5" font-family="Helvetica,sans-Serif" font-size="10.00">DCMPlanner.cpp</text>
</a>
</g>
</g>
<!-- Node22&#45;&gt;Node23 -->
<g id="edge22" class="edge">
<title>Node22&#45;&gt;Node23</title>
<path fill="none" stroke="midnightblue" d="M1822.11,-68.31C1846.22,-55.93 1874.74,-41.28 1895.3,-30.73"/>
<polygon fill="midnightblue" stroke="midnightblue" points="1820.41,-65.25 1813.11,-72.93 1823.61,-71.47 1820.41,-65.25"/>
</g>
<!-- Node25&#45;&gt;Node23 -->
<g id="edge28" class="edge">
<title>Node25&#45;&gt;Node23</title>
<path fill="none" stroke="midnightblue" d="M2082.14,-151.54C2080.02,-127.25 2073.22,-90.36 2052,-67 2036.15,-49.55 2013.53,-38.06 1991.65,-30.53"/>
<polygon fill="midnightblue" stroke="midnightblue" points="2078.66,-151.97 2082.82,-161.72 2085.64,-151.5 2078.66,-151.97"/>
</g>
<!-- Node25&#45;&gt;Node26 -->
<g id="edge25" class="edge">
<title>Node25&#45;&gt;Node26</title>
<path fill="none" stroke="midnightblue" d="M2141.58,-159.19C2187.31,-146.07 2250.91,-127.81 2298.91,-114.04"/>
<polygon fill="midnightblue" stroke="midnightblue" points="2140.47,-155.87 2131.82,-161.99 2142.4,-162.6 2140.47,-155.87"/>
</g>
<!-- Node28 -->
<g id="node28" class="node">
<title>Node28</title>
<g id="a_node28"><a xlink:href="QuinticSpline_8cpp.html" target="_top" xlink:title=" ">
<polygon fill="none" stroke="black" points="2099,-84 2099,-103 2263,-103 2263,-84 2099,-84"/>
<text text-anchor="middle" x="2181" y="-91" font-family="Helvetica,sans-Serif" font-size="10.00">Planners/src/QuinticSpline.cpp</text>
</a>
</g>
</g>
<!-- Node25&#45;&gt;Node28 -->
<g id="edge27" class="edge">
<title>Node25&#45;&gt;Node28</title>
<path fill="none" stroke="midnightblue" d="M2108,-155.21C2128.33,-138.3 2155.98,-115.31 2170.73,-103.04"/>
<polygon fill="midnightblue" stroke="midnightblue" points="2105.52,-152.72 2100.07,-161.8 2110,-158.1 2105.52,-152.72"/>
</g>
<!-- Node27 -->
<g id="node27" class="node">
<title>Node27</title>
<g id="a_node27"><a xlink:href="SwingFootPlanner_8cpp.html" target="_top" xlink:title=" ">
<polygon fill="none" stroke="black" points="2274.5,-6 2274.5,-25 2459.5,-25 2459.5,-6 2274.5,-6"/>
<text text-anchor="middle" x="2367" y="-13" font-family="Helvetica,sans-Serif" font-size="10.00">Planners/src/SwingFootPlanner.cpp</text>
</a>
</g>
</g>
<!-- Node26&#45;&gt;Node27 -->
<g id="edge26" class="edge">
<title>Node26&#45;&gt;Node27</title>
<path fill="none" stroke="midnightblue" d="M2367,-62.55C2367,-49.06 2367,-34.15 2367,-25.05"/>
<polygon fill="midnightblue" stroke="midnightblue" points="2363.5,-62.93 2367,-72.93 2370.5,-62.93 2363.5,-62.93"/>
</g>
<!-- Node29&#45;&gt;Node26 -->
<g id="edge32" class="edge">
<title>Node29&#45;&gt;Node26</title>
<path fill="none" stroke="midnightblue" d="M2385.32,-151.93C2381.47,-139.85 2376.86,-125.41 2373.23,-114.03"/>
<polygon fill="midnightblue" stroke="midnightblue" points="2382.1,-153.34 2388.47,-161.8 2388.77,-151.21 2382.1,-153.34"/>
</g>
<!-- Node30 -->
<g id="node30" class="node">
<title>Node30</title>
<g id="a_node30"><a xlink:href="SO3Planner_8tpp.html" target="_top" xlink:title=" ">
<polygon fill="none" stroke="black" points="2471,-78.5 2471,-108.5 2667,-108.5 2667,-78.5 2471,-78.5"/>
<text text-anchor="start" x="2479" y="-96.5" font-family="Helvetica,sans-Serif" font-size="10.00">Planners/include/Bipedal</text>
<text text-anchor="middle" x="2569" y="-85.5" font-family="Helvetica,sans-Serif" font-size="10.00">Locomotion/Planners/SO3Planner.tpp</text>
</a>
</g>
</g>
<!-- Node29&#45;&gt;Node30 -->
<g id="edge30" class="edge">
<title>Node29&#45;&gt;Node30</title>
<path fill="none" stroke="midnightblue" d="M2427.03,-157.58C2457.61,-142.73 2502.2,-122.16 2533.3,-108.6"/>
<polygon fill="midnightblue" stroke="midnightblue" points="2425.46,-154.45 2418.01,-161.99 2428.53,-160.74 2425.46,-154.45"/>
</g>
<!-- Node30&#45;&gt;Node29 -->
<g id="edge31" class="edge">
<title>Node30&#45;&gt;Node29</title>
<path fill="none" stroke="midnightblue" d="M2534.77,-113.02C2504.12,-127.89 2459.53,-148.46 2428.5,-161.99"/>
<polygon fill="midnightblue" stroke="midnightblue" points="2536.36,-116.14 2543.8,-108.6 2533.28,-109.85 2536.36,-116.14"/>
</g>
<!-- Node32 -->
<g id="node32" class="node">
<title>Node32</title>
<g id="a_node32"><a xlink:href="YarpSensorBridgeImpl_8h.html" target="_top" xlink:title=" ">
<polygon fill="none" stroke="black" points="2685,-73 2685,-114 2895,-114 2895,-73 2685,-73"/>
<text text-anchor="start" x="2693" y="-102" font-family="Helvetica,sans-Serif" font-size="10.00">RobotInterface/YarpImplementation</text>
<text text-anchor="start" x="2693" y="-91" font-family="Helvetica,sans-Serif" font-size="10.00">/include/BipedalLocomotion</text>
<text text-anchor="middle" x="2790" y="-80" font-family="Helvetica,sans-Serif" font-size="10.00">/RobotInterface/YarpSensorBridgeImpl.h</text>
</a>
</g>
</g>
<!-- Node31&#45;&gt;Node32 -->
<g id="edge35" class="edge">
<title>Node31&#45;&gt;Node32</title>
<path fill="none" stroke="midnightblue" d="M2730.09,-149.36C2742.66,-137.85 2757.1,-124.63 2768.65,-114.05"/>
<polygon fill="midnightblue" stroke="midnightblue" points="2727.56,-146.94 2722.54,-156.27 2732.28,-152.1 2727.56,-146.94"/>
</g>
<!-- Node33 -->
<g id="node33" class="node">
<title>Node33</title>
<g id="a_node33"><a xlink:href="YarpSensorBridge_8cpp.html" target="_top" xlink:title=" ">
<polygon fill="none" stroke="black" points="2695,-0.5 2695,-30.5 2885,-30.5 2885,-0.5 2695,-0.5"/>
<text text-anchor="start" x="2703" y="-18.5" font-family="Helvetica,sans-Serif" font-size="10.00">RobotInterface/YarpImplementation</text>
<text text-anchor="middle" x="2790" y="-7.5" font-family="Helvetica,sans-Serif" font-size="10.00">/src/YarpSensorBridge.cpp</text>
</a>
</g>
</g>
<!-- Node32&#45;&gt;Node33 -->
<g id="edge36" class="edge">
<title>Node32&#45;&gt;Node33</title>
<path fill="none" stroke="midnightblue" d="M2790,-62.78C2790,-51.75 2790,-39.75 2790,-30.73"/>
<polygon fill="midnightblue" stroke="midnightblue" points="2786.5,-62.93 2790,-72.93 2793.5,-62.93 2786.5,-62.93"/>
</g>
<!-- Node35 -->
<g id="node35" class="node">
<title>Node35</title>
<g id="a_node35"><a xlink:href="TaskSpaceInverseDynamics_8cpp.html" target="_top" xlink:title=" ">
<polygon fill="none" stroke="black" points="2913,-78.5 2913,-108.5 3059,-108.5 3059,-78.5 2913,-78.5"/>
<text text-anchor="start" x="2921" y="-96.5" font-family="Helvetica,sans-Serif" font-size="10.00">TSID/src/TaskSpaceInverse</text>
<text text-anchor="middle" x="2986" y="-85.5" font-family="Helvetica,sans-Serif" font-size="10.00">Dynamics.cpp</text>
</a>
</g>
</g>
<!-- Node34&#45;&gt;Node35 -->
<g id="edge38" class="edge">
<title>Node34&#45;&gt;Node35</title>
<path fill="none" stroke="midnightblue" d="M2967.59,-152.2C2972.12,-138.02 2977.7,-120.52 2981.52,-108.53"/>
<polygon fill="midnightblue" stroke="midnightblue" points="2964.23,-151.21 2964.53,-161.8 2970.9,-153.34 2964.23,-151.21"/>
</g>
</g>
</svg>
        <g id="navigator" transform="translate(0 0)" fill="#404254">
                <rect fill="#f2f5e9" fill-opacity="0.5" stroke="#606060" stroke-width=".5" x="0" y="0" width="60" height="60"/>
                <use id="zoomplus" xlink:href="#zoomPlus" x="17" y="9" onmousedown="handleZoom(evt,'in')"/>
                <use id="zoomminus" xlink:href="#zoomMin" x="42" y="9" onmousedown="handleZoom(evt,'out')"/>
                <use id="reset" xlink:href="#resetDef" x="30" y="36" onmousedown="handleReset()"/>
                <g id="arrowUp" xlink:href="#dirArrow" transform="translate(30 24)" onmousedown="handlePan(0,-1)">
                  <use xlink:href="#rim" fill="#404040">
                        <set attributeName="fill" to="#808080" begin="arrowUp.mouseover" end="arrowUp.mouseout"/>
                  </use>
                  <path fill="none" stroke="white" stroke-width="1.5" d="M0,-3.0v7 M-2.5,-0.5L0,-3.0L2.5,-0.5"/>
                </g>
                <g id="arrowRight" xlink:href="#dirArrow" transform="rotate(90) translate(36 -43)" onmousedown="handlePan(1,0)">
                  <use xlink:href="#rim" fill="#404040">
                        <set attributeName="fill" to="#808080" begin="arrowRight.mouseover" end="arrowRight.mouseout"/>
                  </use>
                  <path fill="none" stroke="white" stroke-width="1.5" d="M0,-3.0v7 M-2.5,-0.5L0,-3.0L2.5,-0.5"/>
                </g>
                <g id="arrowDown" xlink:href="#dirArrow" transform="rotate(180) translate(-30 -48)" onmousedown="handlePan(0,1)">
                  <use xlink:href="#rim" fill="#404040">
                        <set attributeName="fill" to="#808080" begin="arrowDown.mouseover" end="arrowDown.mouseout"/>
                  </use>
                  <path fill="none" stroke="white" stroke-width="1.5" d="M0,-3.0v7 M-2.5,-0.5L0,-3.0L2.5,-0.5"/>
                </g>
                <g id="arrowLeft" xlink:href="#dirArrow" transform="rotate(270) translate(-36 17)" onmousedown="handlePan(-1,0)">
                  <use xlink:href="#rim" fill="#404040">
                        <set attributeName="fill" to="#808080" begin="arrowLeft.mouseover" end="arrowLeft.mouseout"/>
                  </use>
                  <path fill="none" stroke="white" stroke-width="1.5" d="M0,-3.0v7 M-2.5,-0.5L0,-3.0L2.5,-0.5"/>
                </g>
        </g>
        <svg viewBox="0 0 15 15" width="100%" height="30px" preserveAspectRatio="xMaxYMin meet">
         <g id="arrow_out" transform="scale(0.3 0.3)">
          <a xlink:href="Source_8h__dep__incl_org.svg" target="_base">
           <rect id="button" ry="5" rx="5" y="6" x="6" height="38" width="38"
                fill="#f2f5e9" fill-opacity="0.5" stroke="#606060" stroke-width="1.0"/>
           <path id="arrow"
             d="M 11.500037,31.436501 C 11.940474,20.09759 22.043105,11.32322 32.158766,21.979434 L 37.068811,17.246167 C 37.068811,17.246167 37.088388,32 37.088388,32 L 22.160133,31.978069 C 22.160133,31.978069 26.997745,27.140456 26.997745,27.140456 C 18.528582,18.264221 13.291696,25.230495 11.500037,31.436501 z"
             style="fill:#404040;"/>
          </a>
         </g>
        </svg>
</svg>
