<?xml version="1.0" encoding="UTF-8" standalone="no"?>
<!DOCTYPE svg PUBLIC "-//W3C//DTD SVG 1.1//EN"
 "http://www.w3.org/Graphics/SVG/1.1/DTD/svg11.dtd">
<!-- Generated by graphviz version 2.43.0 (0)
 -->
<!-- Title: System/src/StdClock.cpp Pages: 1 -->
<svg width="269pt" height="218pt"
 viewBox="0.00 0.00 268.50 218.00" xmlns="http://www.w3.org/2000/svg" xmlns:xlink="http://www.w3.org/1999/xlink">
<g id="graph0" class="graph" transform="scale(1 1) rotate(0) translate(4 214)">
<title>System/src/StdClock.cpp</title>
<!-- Node1 -->
<g id="node1" class="node">
<title>Node1</title>
<g id="a_node1"><a xlink:title=" ">
<polygon fill="#bfbfbf" stroke="black" points="0,-190.5 0,-209.5 137,-209.5 137,-190.5 0,-190.5"/>
<text text-anchor="middle" x="68.5" y="-197.5" font-family="Helvetica,sans-Serif" font-size="10.00">System/src/StdClock.cpp</text>
</a>
</g>
</g>
<!-- Node2 -->
<g id="node2" class="node">
<title>Node2</title>
<g id="a_node2"><a xlink:title=" ">
<polygon fill="none" stroke="#bfbfbf" points="57.5,-0.5 57.5,-19.5 107.5,-19.5 107.5,-0.5 57.5,-0.5"/>
<text text-anchor="middle" x="82.5" y="-7.5" font-family="Helvetica,sans-Serif" font-size="10.00">chrono</text>
</a>
</g>
</g>
<!-- Node1&#45;&gt;Node2 -->
<g id="edge1" class="edge">
<title>Node1&#45;&gt;Node2</title>
<path fill="none" stroke="midnightblue" d="M59.48,-190.34C51.43,-181.93 40.2,-168.36 35.5,-154 31.21,-140.91 32.78,-136.51 35.5,-123 42.58,-87.84 60.99,-49.97 72.56,-28.5"/>
<polygon fill="midnightblue" stroke="midnightblue" points="75.7,-30.06 77.47,-19.62 69.57,-26.68 75.7,-30.06"/>
</g>
<!-- Node3 -->
<g id="node3" class="node">
<title>Node3</title>
<g id="a_node3"><a xlink:title=" ">
<polygon fill="none" stroke="#bfbfbf" points="44.5,-129 44.5,-148 92.5,-148 92.5,-129 44.5,-129"/>
<text text-anchor="middle" x="68.5" y="-136" font-family="Helvetica,sans-Serif" font-size="10.00">thread</text>
</a>
</g>
</g>
<!-- Node1&#45;&gt;Node3 -->
<g id="edge2" class="edge">
<title>Node1&#45;&gt;Node3</title>
<path fill="none" stroke="midnightblue" d="M68.5,-190.48C68.5,-182.08 68.5,-168.98 68.5,-158.16"/>
<polygon fill="midnightblue" stroke="midnightblue" points="72,-158.01 68.5,-148.01 65,-158.01 72,-158.01"/>
</g>
<!-- Node4 -->
<g id="node4" class="node">
<title>Node4</title>
<g id="a_node4"><a xlink:href="StdClock_8h.html" target="_top" xlink:title=" ">
<polygon fill="none" stroke="black" points="110.5,-123.5 110.5,-153.5 260.5,-153.5 260.5,-123.5 110.5,-123.5"/>
<text text-anchor="start" x="118.5" y="-141.5" font-family="Helvetica,sans-Serif" font-size="10.00">BipedalLocomotion/System</text>
<text text-anchor="middle" x="185.5" y="-130.5" font-family="Helvetica,sans-Serif" font-size="10.00">/StdClock.h</text>
</a>
</g>
</g>
<!-- Node1&#45;&gt;Node4 -->
<g id="edge3" class="edge">
<title>Node1&#45;&gt;Node4</title>
<path fill="none" stroke="midnightblue" d="M85.26,-190.48C101.78,-182.08 127.55,-168.97 148.82,-158.15"/>
<polygon fill="midnightblue" stroke="midnightblue" points="150.6,-161.18 157.93,-153.52 147.43,-154.94 150.6,-161.18"/>
</g>
<!-- Node4&#45;&gt;Node2 -->
<g id="edge6" class="edge">
<title>Node4&#45;&gt;Node2</title>
<path fill="none" stroke="midnightblue" d="M149,-123.37C132.23,-115.13 113.45,-103.14 101.5,-87 89.14,-70.3 84.76,-46.47 83.25,-29.97"/>
<polygon fill="midnightblue" stroke="midnightblue" points="86.73,-29.64 82.59,-19.89 79.75,-30.09 86.73,-29.64"/>
</g>
<!-- Node5 -->
<g id="node5" class="node">
<title>Node5</title>
<g id="a_node5"><a xlink:href="IClock_8h.html" target="_top" xlink:title=" ">
<polygon fill="none" stroke="black" points="110.5,-56.5 110.5,-86.5 260.5,-86.5 260.5,-56.5 110.5,-56.5"/>
<text text-anchor="start" x="118.5" y="-74.5" font-family="Helvetica,sans-Serif" font-size="10.00">BipedalLocomotion/System</text>
<text text-anchor="middle" x="185.5" y="-63.5" font-family="Helvetica,sans-Serif" font-size="10.00">/IClock.h</text>
</a>
</g>
</g>
<!-- Node4&#45;&gt;Node5 -->
<g id="edge4" class="edge">
<title>Node4&#45;&gt;Node5</title>
<path fill="none" stroke="midnightblue" d="M185.5,-123.4C185.5,-115.64 185.5,-105.81 185.5,-96.86"/>
<polygon fill="midnightblue" stroke="midnightblue" points="189,-96.58 185.5,-86.58 182,-96.58 189,-96.58"/>
</g>
<!-- Node5&#45;&gt;Node2 -->
<g id="edge5" class="edge">
<title>Node5&#45;&gt;Node2</title>
<path fill="none" stroke="midnightblue" d="M161.09,-56.4C144.58,-46.86 122.88,-34.32 106.46,-24.84"/>
<polygon fill="midnightblue" stroke="midnightblue" points="107.9,-21.63 97.49,-19.66 104.4,-27.69 107.9,-21.63"/>
</g>
</g>
</svg>
