<?xml version="1.0" encoding="UTF-8" standalone="no"?>
<!DOCTYPE svg PUBLIC "-//W3C//DTD SVG 1.1//EN"
 "http://www.w3.org/Graphics/SVG/1.1/DTD/svg11.dtd">
<!-- Generated by graphviz version 2.43.0 (0)
 -->
<!-- Title: System/include/BipedalLocomotion/System/StdClock.h Pages: 1 -->
<svg width="438pt" height="173pt"
 viewBox="0.00 0.00 437.50 173.00" xmlns="http://www.w3.org/2000/svg" xmlns:xlink="http://www.w3.org/1999/xlink">
<g id="graph0" class="graph" transform="scale(1 1) rotate(0) translate(4 169)">
<title>System/include/BipedalLocomotion/System/StdClock.h</title>
<!-- Node1 -->
<g id="node1" class="node">
<title>Node1</title>
<g id="a_node1"><a xlink:title=" ">
<polygon fill="#bfbfbf" stroke="black" points="176,-134.5 176,-164.5 364,-164.5 364,-134.5 176,-134.5"/>
<text text-anchor="start" x="184" y="-152.5" font-family="Helvetica,sans-Serif" font-size="10.00">System/include/BipedalLocomotion</text>
<text text-anchor="middle" x="270" y="-141.5" font-family="Helvetica,sans-Serif" font-size="10.00">/System/StdClock.h</text>
</a>
</g>
</g>
<!-- Node2 -->
<g id="node2" class="node">
<title>Node2</title>
<g id="a_node2"><a xlink:href="Clock_8h.html" target="_top" xlink:title=" ">
<polygon fill="none" stroke="black" points="86,-67.5 86,-97.5 274,-97.5 274,-67.5 86,-67.5"/>
<text text-anchor="start" x="94" y="-85.5" font-family="Helvetica,sans-Serif" font-size="10.00">System/include/BipedalLocomotion</text>
<text text-anchor="middle" x="180" y="-74.5" font-family="Helvetica,sans-Serif" font-size="10.00">/System/Clock.h</text>
</a>
</g>
</g>
<!-- Node1&#45;&gt;Node2 -->
<g id="edge1" class="edge">
<title>Node1&#45;&gt;Node2</title>
<path fill="none" stroke="midnightblue" d="M242.24,-128.45C228.39,-118.45 211.98,-106.6 199.49,-97.58"/>
<polygon fill="midnightblue" stroke="midnightblue" points="240.32,-131.38 250.47,-134.4 244.41,-125.7 240.32,-131.38"/>
</g>
<!-- Node5 -->
<g id="node5" class="node">
<title>Node5</title>
<g id="a_node5"><a xlink:href="StdClock_8cpp.html" target="_top" xlink:title=" ">
<polygon fill="none" stroke="black" points="292.5,-73 292.5,-92 429.5,-92 429.5,-73 292.5,-73"/>
<text text-anchor="middle" x="361" y="-80" font-family="Helvetica,sans-Serif" font-size="10.00">System/src/StdClock.cpp</text>
</a>
</g>
</g>
<!-- Node1&#45;&gt;Node5 -->
<g id="edge4" class="edge">
<title>Node1&#45;&gt;Node5</title>
<path fill="none" stroke="midnightblue" d="M298.27,-128.31C315.36,-116.1 336.25,-101.18 349.09,-92.01"/>
<polygon fill="midnightblue" stroke="midnightblue" points="295.85,-125.74 289.75,-134.4 299.92,-131.43 295.85,-125.74"/>
</g>
<!-- Node3 -->
<g id="node3" class="node">
<title>Node3</title>
<g id="a_node3"><a xlink:href="AdvanceableRunner_8h.html" target="_top" xlink:title=" ">
<polygon fill="none" stroke="black" points="0,-0.5 0,-30.5 188,-30.5 188,-0.5 0,-0.5"/>
<text text-anchor="start" x="8" y="-18.5" font-family="Helvetica,sans-Serif" font-size="10.00">System/include/BipedalLocomotion</text>
<text text-anchor="middle" x="94" y="-7.5" font-family="Helvetica,sans-Serif" font-size="10.00">/System/AdvanceableRunner.h</text>
</a>
</g>
</g>
<!-- Node2&#45;&gt;Node3 -->
<g id="edge2" class="edge">
<title>Node2&#45;&gt;Node3</title>
<path fill="none" stroke="midnightblue" d="M153.1,-61.17C139.95,-51.23 124.45,-39.51 112.62,-30.58"/>
<polygon fill="midnightblue" stroke="midnightblue" points="151.25,-64.16 161.34,-67.4 155.47,-58.57 151.25,-64.16"/>
</g>
<!-- Node4 -->
<g id="node4" class="node">
<title>Node4</title>
<g id="a_node4"><a xlink:href="Clock_8cpp.html" target="_top" xlink:title=" ">
<polygon fill="none" stroke="black" points="206.5,-6 206.5,-25 327.5,-25 327.5,-6 206.5,-6"/>
<text text-anchor="middle" x="267" y="-13" font-family="Helvetica,sans-Serif" font-size="10.00">System/src/Clock.cpp</text>
</a>
</g>
</g>
<!-- Node2&#45;&gt;Node4 -->
<g id="edge3" class="edge">
<title>Node2&#45;&gt;Node4</title>
<path fill="none" stroke="midnightblue" d="M206.98,-61.34C223.22,-49.21 243.06,-34.39 255.36,-25.19"/>
<polygon fill="midnightblue" stroke="midnightblue" points="204.79,-58.61 198.88,-67.4 208.98,-64.21 204.79,-58.61"/>
</g>
</g>
</svg>
