<?xml version="1.0" encoding="UTF-8" standalone="no"?>
<!DOCTYPE svg PUBLIC "-//W3C//DTD SVG 1.1//EN"
 "http://www.w3.org/Graphics/SVG/1.1/DTD/svg11.dtd">
<!-- Generated by graphviz version 2.43.0 (0)
 -->
<!-- Title: ParametersHandler/src/StdImplementation.cpp Pages: 1 -->
<!--zoomable 363 -->
<svg id="main" version="1.1" xmlns="http://www.w3.org/2000/svg" xmlns:xlink="http://www.w3.org/1999/xlink" xml:space="preserve" onload="init(evt)">
<style type="text/css"><![CDATA[
.edge:hover path { stroke: red; }
.edge:hover polygon { stroke: red; fill: red; }
]]></style>
<script type="text/javascript"><![CDATA[
var edges = document.getElementsByTagName('g');
if (edges && edges.length) {
  for (var i=0;i<edges.length;i++) {
    if (edges[i].id.substr(0,4)=='edge') {
      edges[i].setAttribute('class','edge');
    }
  }
}
]]></script>
        <defs>
                <circle id="rim" cx="0" cy="0" r="7"/>
                <circle id="rim2" cx="0" cy="0" r="3.5"/>
                <g id="zoomPlus">
                        <use xlink:href="#rim" fill="#404040">
                                <set attributeName="fill" to="#808080" begin="zoomplus.mouseover" end="zoomplus.mouseout"/>
                        </use>
                        <path d="M-4,0h8M0,-4v8" fill="none" stroke="white" stroke-width="1.5" pointer-events="none"/>
                </g>
                <g id="zoomMin">
                        <use xlink:href="#rim" fill="#404040">
                                <set attributeName="fill" to="#808080" begin="zoomminus.mouseover" end="zoomminus.mouseout"/>
                        </use>
                        <path d="M-4,0h8" fill="none" stroke="white" stroke-width="1.5" pointer-events="none"/>
                </g>
                <g id="dirArrow">
                        <path fill="none" stroke="white" stroke-width="1.5" d="M0,-3.0v7 M-2.5,-0.5L0,-3.0L2.5,-0.5"/>
                </g>
               <g id="resetDef">
                       <use xlink:href="#rim2" fill="#404040">
                               <set attributeName="fill" to="#808080" begin="reset.mouseover" end="reset.mouseout"/>
                       </use>
               </g>
        </defs>

<script type="text/javascript">
var viewWidth = 900;
var viewHeight = 363;
var sectionId = 'dynsection-0';
</script>
<script xlink:href="svgpan.js"/>
<svg id="graph" class="graph">
<g id="viewport">
<title>ParametersHandler/src/StdImplementation.cpp</title>
<!-- Node1 -->
<g id="node1" class="node">
<title>Node1</title>
<g id="a_node1"><a xlink:title=" ">
<polygon fill="#bfbfbf" stroke="black" points="299,-324.5 299,-354.5 433,-354.5 433,-324.5 299,-324.5"/>
<text text-anchor="start" x="307" y="-342.5" font-family="Helvetica,sans-Serif" font-size="10.00">ParametersHandler/src</text>
<text text-anchor="middle" x="366" y="-331.5" font-family="Helvetica,sans-Serif" font-size="10.00">/StdImplementation.cpp</text>
</a>
</g>
</g>
<!-- Node2 -->
<g id="node2" class="node">
<title>Node2</title>
<g id="a_node2"><a xlink:title=" ">
<polygon fill="none" stroke="#bfbfbf" points="127,-129 127,-148 171,-148 171,-129 127,-129"/>
<text text-anchor="middle" x="149" y="-136" font-family="Helvetica,sans-Serif" font-size="10.00">string</text>
</a>
</g>
</g>
<!-- Node1&#45;&gt;Node2 -->
<g id="edge1" class="edge">
<title>Node1&#45;&gt;Node2</title>
<path fill="none" stroke="midnightblue" d="M298.73,-333.18C227.84,-323.58 119.47,-296.63 68,-221 60.25,-209.61 61.31,-202.05 68,-190 78.52,-171.05 99.43,-158.28 117.37,-150.33"/>
<polygon fill="midnightblue" stroke="midnightblue" points="119.02,-153.43 126.94,-146.39 116.36,-146.95 119.02,-153.43"/>
</g>
<!-- Node3 -->
<g id="node3" class="node">
<title>Node3</title>
<g id="a_node3"><a xlink:href="StdImplementation_8h.html" target="_top" xlink:title=" ">
<polygon fill="none" stroke="black" points="281.5,-257.5 281.5,-287.5 450.5,-287.5 450.5,-257.5 281.5,-257.5"/>
<text text-anchor="start" x="289.5" y="-275.5" font-family="Helvetica,sans-Serif" font-size="10.00">BipedalLocomotion/Parameters</text>
<text text-anchor="middle" x="366" y="-264.5" font-family="Helvetica,sans-Serif" font-size="10.00">Handler/StdImplementation.h</text>
</a>
</g>
</g>
<!-- Node1&#45;&gt;Node3 -->
<g id="edge2" class="edge">
<title>Node1&#45;&gt;Node3</title>
<path fill="none" stroke="midnightblue" d="M366,-324.4C366,-316.64 366,-306.81 366,-297.86"/>
<polygon fill="midnightblue" stroke="midnightblue" points="369.5,-297.58 366,-287.58 362.5,-297.58 369.5,-297.58"/>
</g>
<!-- Node19 -->
<g id="node19" class="node">
<title>Node19</title>
<g id="a_node19"><a xlink:href="Logger_8h.html" target="_top" xlink:title=" ">
<polygon fill="none" stroke="black" points="661,-123.5 661,-153.5 833,-153.5 833,-123.5 661,-123.5"/>
<text text-anchor="start" x="669" y="-141.5" font-family="Helvetica,sans-Serif" font-size="10.00">BipedalLocomotion/TextLogging</text>
<text text-anchor="middle" x="747" y="-130.5" font-family="Helvetica,sans-Serif" font-size="10.00">/Logger.h</text>
</a>
</g>
</g>
<!-- Node1&#45;&gt;Node19 -->
<g id="edge29" class="edge">
<title>Node1&#45;&gt;Node19</title>
<path fill="none" stroke="midnightblue" d="M433.02,-324.97C500.95,-308.79 606.65,-276.67 683,-221 704.54,-205.29 722.58,-180.47 733.97,-162.34"/>
<polygon fill="midnightblue" stroke="midnightblue" points="737.1,-163.92 739.29,-153.55 731.12,-160.29 737.1,-163.92"/>
</g>
<!-- Node3&#45;&gt;Node2 -->
<g id="edge4" class="edge">
<title>Node3&#45;&gt;Node2</title>
<path fill="none" stroke="midnightblue" d="M299.69,-257.43C272.49,-249.6 241.67,-237.91 217,-221 192.02,-203.87 171.09,-175.14 159.3,-156.77"/>
<polygon fill="midnightblue" stroke="midnightblue" points="162.24,-154.88 154,-148.22 156.3,-158.57 162.24,-154.88"/>
</g>
<!-- Node4 -->
<g id="node4" class="node">
<title>Node4</title>
<g id="a_node4"><a xlink:title=" ">
<polygon fill="none" stroke="#bfbfbf" points="638.5,-196 638.5,-215 673.5,-215 673.5,-196 638.5,-196"/>
<text text-anchor="middle" x="656" y="-203" font-family="Helvetica,sans-Serif" font-size="10.00">any</text>
</a>
</g>
</g>
<!-- Node3&#45;&gt;Node4 -->
<g id="edge3" class="edge">
<title>Node3&#45;&gt;Node4</title>
<path fill="none" stroke="midnightblue" d="M450.63,-261.89C503.05,-254.32 571.17,-241.54 629,-221 630.24,-220.56 631.49,-220.07 632.75,-219.54"/>
<polygon fill="midnightblue" stroke="midnightblue" points="634.61,-222.53 642.08,-215.01 631.55,-216.23 634.61,-222.53"/>
</g>
<!-- Node5 -->
<g id="node5" class="node">
<title>Node5</title>
<g id="a_node5"><a xlink:title=" ">
<polygon fill="none" stroke="#bfbfbf" points="76.5,-196 76.5,-215 169.5,-215 169.5,-196 76.5,-196"/>
<text text-anchor="middle" x="123" y="-203" font-family="Helvetica,sans-Serif" font-size="10.00">unordered_map</text>
</a>
</g>
</g>
<!-- Node3&#45;&gt;Node5 -->
<g id="edge5" class="edge">
<title>Node3&#45;&gt;Node5</title>
<path fill="none" stroke="midnightblue" d="M313.57,-257.48C268.97,-245.55 205.78,-228.64 164.6,-217.63"/>
<polygon fill="midnightblue" stroke="midnightblue" points="165.45,-214.23 154.88,-215.03 163.64,-220.99 165.45,-214.23"/>
</g>
<!-- Node6 -->
<g id="node6" class="node">
<title>Node6</title>
<g id="a_node6"><a xlink:href="TemplateHelpers_8h_source.html" target="_top" xlink:title=" ">
<polygon fill="none" stroke="black" points="0,-56.5 0,-86.5 158,-86.5 158,-56.5 0,-56.5"/>
<text text-anchor="start" x="8" y="-74.5" font-family="Helvetica,sans-Serif" font-size="10.00">BipedalLocomotion/Generic</text>
<text text-anchor="middle" x="79" y="-63.5" font-family="Helvetica,sans-Serif" font-size="10.00">Container/TemplateHelpers.h</text>
</a>
</g>
</g>
<!-- Node3&#45;&gt;Node6 -->
<g id="edge6" class="edge">
<title>Node3&#45;&gt;Node6</title>
<path fill="none" stroke="midnightblue" d="M281.3,-268.95C203.02,-264.59 94.88,-252.82 68,-221 38.49,-186.07 55.01,-128.53 68.04,-96.29"/>
<polygon fill="midnightblue" stroke="midnightblue" points="71.39,-97.34 72.08,-86.77 64.95,-94.6 71.39,-97.34"/>
</g>
<!-- Node10 -->
<g id="node10" class="node">
<title>Node10</title>
<g id="a_node10"><a xlink:href="Vector_8h_source.html" target="_top" xlink:title=" ">
<polygon fill="none" stroke="black" points="330.5,-123.5 330.5,-153.5 481.5,-153.5 481.5,-123.5 330.5,-123.5"/>
<text text-anchor="start" x="338.5" y="-141.5" font-family="Helvetica,sans-Serif" font-size="10.00">BipedalLocomotion/Generic</text>
<text text-anchor="middle" x="406" y="-130.5" font-family="Helvetica,sans-Serif" font-size="10.00">Container/Vector.h</text>
</a>
</g>
</g>
<!-- Node3&#45;&gt;Node10 -->
<g id="edge10" class="edge">
<title>Node3&#45;&gt;Node10</title>
<path fill="none" stroke="midnightblue" d="M380.37,-257.49C388.98,-248.07 399.17,-234.89 404,-221 410.45,-202.47 410.5,-180.11 409.19,-163.5"/>
<polygon fill="midnightblue" stroke="midnightblue" points="412.67,-163.11 408.19,-153.51 405.7,-163.81 412.67,-163.11"/>
</g>
<!-- Node16 -->
<g id="node16" class="node">
<title>Node16</title>
<g id="a_node16"><a xlink:href="IParametersHandler_8h.html" target="_top" xlink:title=" ">
<polygon fill="none" stroke="black" points="225.5,-190.5 225.5,-220.5 394.5,-220.5 394.5,-190.5 225.5,-190.5"/>
<text text-anchor="start" x="233.5" y="-208.5" font-family="Helvetica,sans-Serif" font-size="10.00">BipedalLocomotion/Parameters</text>
<text text-anchor="middle" x="310" y="-197.5" font-family="Helvetica,sans-Serif" font-size="10.00">Handler/IParametersHandler.h</text>
</a>
</g>
</g>
<!-- Node3&#45;&gt;Node16 -->
<g id="edge17" class="edge">
<title>Node3&#45;&gt;Node16</title>
<path fill="none" stroke="midnightblue" d="M353.85,-257.4C346.51,-248.88 337.01,-237.85 328.72,-228.23"/>
<polygon fill="midnightblue" stroke="midnightblue" points="331.31,-225.87 322.13,-220.58 326,-230.44 331.31,-225.87"/>
</g>
<!-- Node18 -->
<g id="node18" class="node">
<title>Node18</title>
<g id="a_node18"><a xlink:href="StdImplementation_8tpp.html" target="_top" xlink:title=" ">
<polygon fill="none" stroke="black" points="450,-190.5 450,-220.5 620,-220.5 620,-190.5 450,-190.5"/>
<text text-anchor="start" x="458" y="-208.5" font-family="Helvetica,sans-Serif" font-size="10.00">BipedalLocomotion/Parameters</text>
<text text-anchor="middle" x="535" y="-197.5" font-family="Helvetica,sans-Serif" font-size="10.00">Handler/StdImplementation.tpp</text>
</a>
</g>
</g>
<!-- Node3&#45;&gt;Node18 -->
<g id="edge23" class="edge">
<title>Node3&#45;&gt;Node18</title>
<path fill="none" stroke="midnightblue" d="M396.99,-257.4C421.07,-247.64 454.86,-234.59 483.02,-224.15"/>
<polygon fill="midnightblue" stroke="midnightblue" points="484.55,-227.32 492.73,-220.58 482.13,-220.75 484.55,-227.32"/>
</g>
<!-- Node7 -->
<g id="node7" class="node">
<title>Node7</title>
<g id="a_node7"><a xlink:title=" ">
<polygon fill="none" stroke="#bfbfbf" points="388.5,-0.5 388.5,-19.5 457.5,-19.5 457.5,-0.5 388.5,-0.5"/>
<text text-anchor="middle" x="423" y="-7.5" font-family="Helvetica,sans-Serif" font-size="10.00">type_traits</text>
</a>
</g>
</g>
<!-- Node6&#45;&gt;Node7 -->
<g id="edge7" class="edge">
<title>Node6&#45;&gt;Node7</title>
<path fill="none" stroke="midnightblue" d="M158.35,-56.77C226.72,-44.95 322.92,-28.31 378.53,-18.69"/>
<polygon fill="midnightblue" stroke="midnightblue" points="379.17,-22.13 388.43,-16.98 377.98,-15.24 379.17,-22.13"/>
</g>
<!-- Node8 -->
<g id="node8" class="node">
<title>Node8</title>
<g id="a_node8"><a xlink:title=" ">
<polygon fill="none" stroke="#bfbfbf" points="87.5,-0.5 87.5,-19.5 160.5,-19.5 160.5,-0.5 87.5,-0.5"/>
<text text-anchor="middle" x="124" y="-7.5" font-family="Helvetica,sans-Serif" font-size="10.00">string_view</text>
</a>
</g>
</g>
<!-- Node6&#45;&gt;Node8 -->
<g id="edge8" class="edge">
<title>Node6&#45;&gt;Node8</title>
<path fill="none" stroke="midnightblue" d="M89.66,-56.4C96.14,-47.84 104.43,-36.87 111.25,-27.86"/>
<polygon fill="midnightblue" stroke="midnightblue" points="114.21,-29.74 117.45,-19.66 108.63,-25.52 114.21,-29.74"/>
</g>
<!-- Node9 -->
<g id="node9" class="node">
<title>Node9</title>
<g id="a_node9"><a xlink:title=" ">
<polygon fill="none" stroke="#bfbfbf" points="0.5,-0.5 0.5,-19.5 69.5,-19.5 69.5,-0.5 0.5,-0.5"/>
<text text-anchor="middle" x="35" y="-7.5" font-family="Helvetica,sans-Serif" font-size="10.00">Eigen/Core</text>
</a>
</g>
</g>
<!-- Node6&#45;&gt;Node9 -->
<g id="edge9" class="edge">
<title>Node6&#45;&gt;Node9</title>
<path fill="none" stroke="midnightblue" d="M68.57,-56.4C62.24,-47.84 54.13,-36.87 47.47,-27.86"/>
<polygon fill="midnightblue" stroke="midnightblue" points="50.16,-25.62 41.4,-19.66 44.53,-29.78 50.16,-25.62"/>
</g>
<!-- Node10&#45;&gt;Node6 -->
<g id="edge12" class="edge">
<title>Node10&#45;&gt;Node6</title>
<path fill="none" stroke="midnightblue" d="M335.45,-123.48C283.75,-113.2 213.48,-99.23 159.57,-88.52"/>
<polygon fill="midnightblue" stroke="midnightblue" points="160.2,-85.07 149.71,-86.55 158.83,-91.94 160.2,-85.07"/>
</g>
<!-- Node11 -->
<g id="node11" class="node">
<title>Node11</title>
<g id="a_node11"><a xlink:title=" ">
<polygon fill="none" stroke="#bfbfbf" points="330.5,-62 330.5,-81 451.5,-81 451.5,-62 330.5,-62"/>
<text text-anchor="middle" x="391" y="-69" font-family="Helvetica,sans-Serif" font-size="10.00">iDynTree/Core/Span.h</text>
</a>
</g>
</g>
<!-- Node10&#45;&gt;Node11 -->
<g id="edge11" class="edge">
<title>Node10&#45;&gt;Node11</title>
<path fill="none" stroke="midnightblue" d="M402.75,-123.4C400.57,-113.96 397.68,-101.45 395.31,-91.19"/>
<polygon fill="midnightblue" stroke="midnightblue" points="398.67,-90.15 393.01,-81.19 391.84,-91.73 398.67,-90.15"/>
</g>
<!-- Node12 -->
<g id="node12" class="node">
<title>Node12</title>
<g id="a_node12"><a xlink:title=" ">
<polygon fill="none" stroke="#bfbfbf" points="469.5,-62 469.5,-81 534.5,-81 534.5,-62 469.5,-62"/>
<text text-anchor="middle" x="502" y="-69" font-family="Helvetica,sans-Serif" font-size="10.00">functional</text>
</a>
</g>
</g>
<!-- Node10&#45;&gt;Node12 -->
<g id="edge13" class="edge">
<title>Node10&#45;&gt;Node12</title>
<path fill="none" stroke="midnightblue" d="M426.83,-123.4C442.78,-112.6 464.7,-97.76 480.75,-86.89"/>
<polygon fill="midnightblue" stroke="midnightblue" points="483.12,-89.51 489.44,-81.01 479.19,-83.72 483.12,-89.51"/>
</g>
<!-- Node13 -->
<g id="node13" class="node">
<title>Node13</title>
<g id="a_node13"><a xlink:title=" ">
<polygon fill="none" stroke="#bfbfbf" points="553,-62 553,-81 605,-81 605,-62 553,-62"/>
<text text-anchor="middle" x="579" y="-69" font-family="Helvetica,sans-Serif" font-size="10.00">cassert</text>
</a>
</g>
</g>
<!-- Node10&#45;&gt;Node13 -->
<g id="edge14" class="edge">
<title>Node10&#45;&gt;Node13</title>
<path fill="none" stroke="midnightblue" d="M445.72,-123.46C473.39,-113.56 511.08,-99.84 544,-87 545.64,-86.36 547.33,-85.69 549.02,-85.02"/>
<polygon fill="midnightblue" stroke="midnightblue" points="550.76,-88.09 558.7,-81.08 548.12,-81.6 550.76,-88.09"/>
</g>
<!-- Node14 -->
<g id="node14" class="node">
<title>Node14</title>
<g id="a_node14"><a xlink:title=" ">
<polygon fill="none" stroke="#bfbfbf" points="252,-62 252,-81 312,-81 312,-62 252,-62"/>
<text text-anchor="middle" x="282" y="-69" font-family="Helvetica,sans-Serif" font-size="10.00">iostream</text>
</a>
</g>
</g>
<!-- Node10&#45;&gt;Node14 -->
<g id="edge15" class="edge">
<title>Node10&#45;&gt;Node14</title>
<path fill="none" stroke="midnightblue" d="M379.09,-123.4C357.72,-112.19 328.05,-96.64 307.15,-85.69"/>
<polygon fill="midnightblue" stroke="midnightblue" points="308.71,-82.55 298.23,-81.01 305.46,-88.75 308.71,-82.55"/>
</g>
<!-- Node15 -->
<g id="node15" class="node">
<title>Node15</title>
<g id="a_node15"><a xlink:title=" ">
<polygon fill="none" stroke="#bfbfbf" points="176,-62 176,-81 234,-81 234,-62 176,-62"/>
<text text-anchor="middle" x="205" y="-69" font-family="Helvetica,sans-Serif" font-size="10.00">memory</text>
</a>
</g>
</g>
<!-- Node10&#45;&gt;Node15 -->
<g id="edge16" class="edge">
<title>Node10&#45;&gt;Node15</title>
<path fill="none" stroke="midnightblue" d="M357.95,-123.5C325.35,-113.78 281.36,-100.25 243,-87 240.75,-86.22 238.43,-85.4 236.1,-84.55"/>
<polygon fill="midnightblue" stroke="midnightblue" points="237.21,-81.23 226.62,-81.02 234.77,-87.79 237.21,-81.23"/>
</g>
<!-- Node16&#45;&gt;Node2 -->
<g id="edge19" class="edge">
<title>Node16&#45;&gt;Node2</title>
<path fill="none" stroke="midnightblue" d="M275.07,-190.4C246.57,-178.89 206.71,-162.8 179.48,-151.81"/>
<polygon fill="midnightblue" stroke="midnightblue" points="180.65,-148.51 170.07,-148.01 178.03,-155 180.65,-148.51"/>
</g>
<!-- Node16&#45;&gt;Node6 -->
<g id="edge21" class="edge">
<title>Node16&#45;&gt;Node6</title>
<path fill="none" stroke="midnightblue" d="M288.22,-190.49C256.99,-170.46 200.96,-134.77 180,-123 159.97,-111.75 137.11,-100.21 118.21,-91.01"/>
<polygon fill="midnightblue" stroke="midnightblue" points="119.53,-87.76 109,-86.56 116.48,-94.07 119.53,-87.76"/>
</g>
<!-- Node16&#45;&gt;Node10 -->
<g id="edge22" class="edge">
<title>Node16&#45;&gt;Node10</title>
<path fill="none" stroke="midnightblue" d="M330.83,-190.4C344.29,-181.28 362,-169.29 376.85,-159.24"/>
<polygon fill="midnightblue" stroke="midnightblue" points="378.89,-162.08 385.21,-153.58 374.97,-156.28 378.89,-162.08"/>
</g>
<!-- Node16&#45;&gt;Node15 -->
<g id="edge18" class="edge">
<title>Node16&#45;&gt;Node15</title>
<path fill="none" stroke="midnightblue" d="M293.22,-190.41C282.26,-180.76 267.99,-167.34 257,-154 240.06,-133.42 224.12,-107 214.47,-89.92"/>
<polygon fill="midnightblue" stroke="midnightblue" points="217.46,-88.1 209.55,-81.05 211.34,-91.49 217.46,-88.1"/>
</g>
<!-- Node17 -->
<g id="node17" class="node">
<title>Node17</title>
<g id="a_node17"><a xlink:title=" ">
<polygon fill="none" stroke="#bfbfbf" points="265.5,-129 265.5,-148 312.5,-148 312.5,-129 265.5,-129"/>
<text text-anchor="middle" x="289" y="-136" font-family="Helvetica,sans-Serif" font-size="10.00">vector</text>
</a>
</g>
</g>
<!-- Node16&#45;&gt;Node17 -->
<g id="edge20" class="edge">
<title>Node16&#45;&gt;Node17</title>
<path fill="none" stroke="midnightblue" d="M305.44,-190.4C302.36,-180.86 298.27,-168.18 294.93,-157.86"/>
<polygon fill="midnightblue" stroke="midnightblue" points="298.21,-156.63 291.81,-148.19 291.55,-158.79 298.21,-156.63"/>
</g>
<!-- Node18&#45;&gt;Node3 -->
<g id="edge25" class="edge">
<title>Node18&#45;&gt;Node3</title>
<path fill="none" stroke="midnightblue" d="M504.08,-220.58C480.02,-230.32 446.23,-243.37 418.05,-253.82"/>
<polygon fill="midnightblue" stroke="midnightblue" points="416.52,-250.65 408.35,-257.4 418.94,-257.22 416.52,-250.65"/>
</g>
<!-- Node18&#45;&gt;Node7 -->
<g id="edge24" class="edge">
<title>Node18&#45;&gt;Node7</title>
<path fill="none" stroke="midnightblue" d="M552.84,-190.4C585.67,-162.79 649.17,-100.42 614,-56 596.09,-33.39 518.31,-21 467.69,-15.2"/>
<polygon fill="midnightblue" stroke="midnightblue" points="467.97,-11.71 457.65,-14.1 467.2,-18.67 467.97,-11.71"/>
</g>
<!-- Node18&#45;&gt;Node19 -->
<g id="edge26" class="edge">
<title>Node18&#45;&gt;Node19</title>
<path fill="none" stroke="midnightblue" d="M580.74,-190.48C613.09,-180.56 656.65,-167.2 691.07,-156.65"/>
<polygon fill="midnightblue" stroke="midnightblue" points="692.44,-159.89 700.98,-153.61 690.39,-153.2 692.44,-159.89"/>
</g>
<!-- Node20 -->
<g id="node20" class="node">
<title>Node20</title>
<g id="a_node20"><a xlink:title=" ">
<polygon fill="none" stroke="#bfbfbf" points="792.5,-62 792.5,-81 891.5,-81 891.5,-62 792.5,-62"/>
<text text-anchor="middle" x="842" y="-69" font-family="Helvetica,sans-Serif" font-size="10.00">spdlog/fmt/ostr.h</text>
</a>
</g>
</g>
<!-- Node19&#45;&gt;Node20 -->
<g id="edge27" class="edge">
<title>Node19&#45;&gt;Node20</title>
<path fill="none" stroke="midnightblue" d="M767.61,-123.4C783.4,-112.6 805.09,-97.76 820.97,-86.89"/>
<polygon fill="midnightblue" stroke="midnightblue" points="823.29,-89.54 829.57,-81.01 819.34,-83.77 823.29,-89.54"/>
</g>
<!-- Node21 -->
<g id="node21" class="node">
<title>Node21</title>
<g id="a_node21"><a xlink:title=" ">
<polygon fill="none" stroke="#bfbfbf" points="681.5,-62 681.5,-81 774.5,-81 774.5,-62 681.5,-62"/>
<text text-anchor="middle" x="728" y="-69" font-family="Helvetica,sans-Serif" font-size="10.00">spdlog/spdlog.h</text>
</a>
</g>
</g>
<!-- Node19&#45;&gt;Node21 -->
<g id="edge28" class="edge">
<title>Node19&#45;&gt;Node21</title>
<path fill="none" stroke="midnightblue" d="M742.88,-123.4C740.09,-113.86 736.38,-101.18 733.37,-90.86"/>
<polygon fill="midnightblue" stroke="midnightblue" points="736.71,-89.81 730.54,-81.19 729.99,-91.77 736.71,-89.81"/>
</g>
</g>
</svg>
        <g id="navigator" transform="translate(0 0)" fill="#404254">
                <rect fill="#f2f5e9" fill-opacity="0.5" stroke="#606060" stroke-width=".5" x="0" y="0" width="60" height="60"/>
                <use id="zoomplus" xlink:href="#zoomPlus" x="17" y="9" onmousedown="handleZoom(evt,'in')"/>
                <use id="zoomminus" xlink:href="#zoomMin" x="42" y="9" onmousedown="handleZoom(evt,'out')"/>
                <use id="reset" xlink:href="#resetDef" x="30" y="36" onmousedown="handleReset()"/>
                <g id="arrowUp" xlink:href="#dirArrow" transform="translate(30 24)" onmousedown="handlePan(0,-1)">
                  <use xlink:href="#rim" fill="#404040">
                        <set attributeName="fill" to="#808080" begin="arrowUp.mouseover" end="arrowUp.mouseout"/>
                  </use>
                  <path fill="none" stroke="white" stroke-width="1.5" d="M0,-3.0v7 M-2.5,-0.5L0,-3.0L2.5,-0.5"/>
                </g>
                <g id="arrowRight" xlink:href="#dirArrow" transform="rotate(90) translate(36 -43)" onmousedown="handlePan(1,0)">
                  <use xlink:href="#rim" fill="#404040">
                        <set attributeName="fill" to="#808080" begin="arrowRight.mouseover" end="arrowRight.mouseout"/>
                  </use>
                  <path fill="none" stroke="white" stroke-width="1.5" d="M0,-3.0v7 M-2.5,-0.5L0,-3.0L2.5,-0.5"/>
                </g>
                <g id="arrowDown" xlink:href="#dirArrow" transform="rotate(180) translate(-30 -48)" onmousedown="handlePan(0,1)">
                  <use xlink:href="#rim" fill="#404040">
                        <set attributeName="fill" to="#808080" begin="arrowDown.mouseover" end="arrowDown.mouseout"/>
                  </use>
                  <path fill="none" stroke="white" stroke-width="1.5" d="M0,-3.0v7 M-2.5,-0.5L0,-3.0L2.5,-0.5"/>
                </g>
                <g id="arrowLeft" xlink:href="#dirArrow" transform="rotate(270) translate(-36 17)" onmousedown="handlePan(-1,0)">
                  <use xlink:href="#rim" fill="#404040">
                        <set attributeName="fill" to="#808080" begin="arrowLeft.mouseover" end="arrowLeft.mouseout"/>
                  </use>
                  <path fill="none" stroke="white" stroke-width="1.5" d="M0,-3.0v7 M-2.5,-0.5L0,-3.0L2.5,-0.5"/>
                </g>
        </g>
        <svg viewBox="0 0 15 15" width="100%" height="30px" preserveAspectRatio="xMaxYMin meet">
         <g id="arrow_out" transform="scale(0.3 0.3)">
          <a xlink:href="StdImplementation_8cpp__incl_org.svg" target="_base">
           <rect id="button" ry="5" rx="5" y="6" x="6" height="38" width="38"
                fill="#f2f5e9" fill-opacity="0.5" stroke="#606060" stroke-width="1.0"/>
           <path id="arrow"
             d="M 11.500037,31.436501 C 11.940474,20.09759 22.043105,11.32322 32.158766,21.979434 L 37.068811,17.246167 C 37.068811,17.246167 37.088388,32 37.088388,32 L 22.160133,31.978069 C 22.160133,31.978069 26.997745,27.140456 26.997745,27.140456 C 18.528582,18.264221 13.291696,25.230495 11.500037,31.436501 z"
             style="fill:#404040;"/>
          </a>
         </g>
        </svg>
</svg>
