<?xml version="1.0" encoding="UTF-8" standalone="no"?>
<!DOCTYPE svg PUBLIC "-//W3C//DTD SVG 1.1//EN"
 "http://www.w3.org/Graphics/SVG/1.1/DTD/svg11.dtd">
<!-- Generated by graphviz version 2.43.0 (0)
 -->
<!-- Title: ParametersHandler/include/BipedalLocomotion/ParametersHandler/StdImplementation.tpp Pages: 1 -->
<svg width="218pt" height="195pt"
 viewBox="0.00 0.00 218.00 195.00" xmlns="http://www.w3.org/2000/svg" xmlns:xlink="http://www.w3.org/1999/xlink">
<g id="graph0" class="graph" transform="scale(1 1) rotate(0) translate(4 191)">
<title>ParametersHandler/include/BipedalLocomotion/ParametersHandler/StdImplementation.tpp</title>
<!-- Node1 -->
<g id="node1" class="node">
<title>Node1</title>
<g id="a_node1"><a xlink:title=" ">
<polygon fill="#bfbfbf" stroke="black" points="0,-145.5 0,-186.5 210,-186.5 210,-145.5 0,-145.5"/>
<text text-anchor="start" x="8" y="-174.5" font-family="Helvetica,sans-Serif" font-size="10.00">ParametersHandler/include</text>
<text text-anchor="start" x="8" y="-163.5" font-family="Helvetica,sans-Serif" font-size="10.00">/BipedalLocomotion/ParametersHandler</text>
<text text-anchor="middle" x="105" y="-152.5" font-family="Helvetica,sans-Serif" font-size="10.00">/StdImplementation.tpp</text>
</a>
</g>
</g>
<!-- Node2 -->
<g id="node2" class="node">
<title>Node2</title>
<g id="a_node2"><a xlink:href="StdImplementation_8h.html" target="_top" xlink:title=" ">
<polygon fill="none" stroke="black" points="0,-67.5 0,-108.5 210,-108.5 210,-67.5 0,-67.5"/>
<text text-anchor="start" x="8" y="-96.5" font-family="Helvetica,sans-Serif" font-size="10.00">ParametersHandler/include</text>
<text text-anchor="start" x="8" y="-85.5" font-family="Helvetica,sans-Serif" font-size="10.00">/BipedalLocomotion/ParametersHandler</text>
<text text-anchor="middle" x="105" y="-74.5" font-family="Helvetica,sans-Serif" font-size="10.00">/StdImplementation.h</text>
</a>
</g>
</g>
<!-- Node1&#45;&gt;Node2 -->
<g id="edge1" class="edge">
<title>Node1&#45;&gt;Node2</title>
<path fill="none" stroke="midnightblue" d="M98.4,-135.3C98.08,-126.3 98.28,-116.65 99.02,-108.51"/>
<polygon fill="midnightblue" stroke="midnightblue" points="94.91,-135.66 99.01,-145.43 101.9,-135.23 94.91,-135.66"/>
</g>
<!-- Node2&#45;&gt;Node1 -->
<g id="edge2" class="edge">
<title>Node2&#45;&gt;Node1</title>
<path fill="none" stroke="midnightblue" d="M111.6,-118.63C111.92,-127.62 111.72,-137.27 110.99,-145.43"/>
<polygon fill="midnightblue" stroke="midnightblue" points="115.09,-118.27 110.98,-108.51 108.1,-118.7 115.09,-118.27"/>
</g>
<!-- Node3 -->
<g id="node3" class="node">
<title>Node3</title>
<g id="a_node3"><a xlink:href="StdImplementation_8cpp.html" target="_top" xlink:title=" ">
<polygon fill="none" stroke="black" points="38,-0.5 38,-30.5 172,-30.5 172,-0.5 38,-0.5"/>
<text text-anchor="start" x="46" y="-18.5" font-family="Helvetica,sans-Serif" font-size="10.00">ParametersHandler/src</text>
<text text-anchor="middle" x="105" y="-7.5" font-family="Helvetica,sans-Serif" font-size="10.00">/StdImplementation.cpp</text>
</a>
</g>
</g>
<!-- Node2&#45;&gt;Node3 -->
<g id="edge3" class="edge">
<title>Node2&#45;&gt;Node3</title>
<path fill="none" stroke="midnightblue" d="M105,-57.08C105,-48.01 105,-38.45 105,-30.89"/>
<polygon fill="midnightblue" stroke="midnightblue" points="101.5,-57.36 105,-67.36 108.5,-57.36 101.5,-57.36"/>
</g>
</g>
</svg>
