<?xml version="1.0" encoding="UTF-8" standalone="no"?>
<!DOCTYPE svg PUBLIC "-//W3C//DTD SVG 1.1//EN"
 "http://www.w3.org/Graphics/SVG/1.1/DTD/svg11.dtd">
<!-- Generated by graphviz version 2.43.0 (0)
 -->
<!-- Title: ParametersHandler/include/BipedalLocomotion/ParametersHandler/StdImplementation.h Pages: 1 -->
<svg width="370pt" height="128pt"
 viewBox="0.00 0.00 370.00 128.00" xmlns="http://www.w3.org/2000/svg" xmlns:xlink="http://www.w3.org/1999/xlink">
<g id="graph0" class="graph" transform="scale(1 1) rotate(0) translate(4 124)">
<title>ParametersHandler/include/BipedalLocomotion/ParametersHandler/StdImplementation.h</title>
<!-- Node1 -->
<g id="node1" class="node">
<title>Node1</title>
<g id="a_node1"><a xlink:title=" ">
<polygon fill="#bfbfbf" stroke="black" points="0,-78.5 0,-119.5 210,-119.5 210,-78.5 0,-78.5"/>
<text text-anchor="start" x="8" y="-107.5" font-family="Helvetica,sans-Serif" font-size="10.00">ParametersHandler/include</text>
<text text-anchor="start" x="8" y="-96.5" font-family="Helvetica,sans-Serif" font-size="10.00">/BipedalLocomotion/ParametersHandler</text>
<text text-anchor="middle" x="105" y="-85.5" font-family="Helvetica,sans-Serif" font-size="10.00">/StdImplementation.h</text>
</a>
</g>
</g>
<!-- Node2 -->
<g id="node2" class="node">
<title>Node2</title>
<g id="a_node2"><a xlink:href="StdImplementation_8tpp.html" target="_top" xlink:title=" ">
<polygon fill="none" stroke="black" points="0,-0.5 0,-41.5 210,-41.5 210,-0.5 0,-0.5"/>
<text text-anchor="start" x="8" y="-29.5" font-family="Helvetica,sans-Serif" font-size="10.00">ParametersHandler/include</text>
<text text-anchor="start" x="8" y="-18.5" font-family="Helvetica,sans-Serif" font-size="10.00">/BipedalLocomotion/ParametersHandler</text>
<text text-anchor="middle" x="105" y="-7.5" font-family="Helvetica,sans-Serif" font-size="10.00">/StdImplementation.tpp</text>
</a>
</g>
</g>
<!-- Node1&#45;&gt;Node2 -->
<g id="edge1" class="edge">
<title>Node1&#45;&gt;Node2</title>
<path fill="none" stroke="midnightblue" d="M98.4,-68.3C98.08,-59.3 98.28,-49.65 99.02,-41.51"/>
<polygon fill="midnightblue" stroke="midnightblue" points="94.91,-68.66 99.01,-78.43 101.9,-68.23 94.91,-68.66"/>
</g>
<!-- Node3 -->
<g id="node3" class="node">
<title>Node3</title>
<g id="a_node3"><a xlink:href="StdImplementation_8cpp.html" target="_top" xlink:title=" ">
<polygon fill="none" stroke="black" points="228,-6 228,-36 362,-36 362,-6 228,-6"/>
<text text-anchor="start" x="236" y="-24" font-family="Helvetica,sans-Serif" font-size="10.00">ParametersHandler/src</text>
<text text-anchor="middle" x="295" y="-13" font-family="Helvetica,sans-Serif" font-size="10.00">/StdImplementation.cpp</text>
</a>
</g>
</g>
<!-- Node1&#45;&gt;Node3 -->
<g id="edge3" class="edge">
<title>Node1&#45;&gt;Node3</title>
<path fill="none" stroke="midnightblue" d="M163.48,-74.61C194.96,-62.02 232.75,-46.9 259.73,-36.11"/>
<polygon fill="midnightblue" stroke="midnightblue" points="161.91,-71.46 153.93,-78.43 164.51,-77.96 161.91,-71.46"/>
</g>
<!-- Node2&#45;&gt;Node1 -->
<g id="edge2" class="edge">
<title>Node2&#45;&gt;Node1</title>
<path fill="none" stroke="midnightblue" d="M111.6,-51.63C111.92,-60.62 111.72,-70.27 110.99,-78.43"/>
<polygon fill="midnightblue" stroke="midnightblue" points="115.09,-51.27 110.98,-41.51 108.1,-51.7 115.09,-51.27"/>
</g>
</g>
</svg>
