<?xml version="1.0" encoding="UTF-8" standalone="no"?>
<!DOCTYPE svg PUBLIC "-//W3C//DTD SVG 1.1//EN"
 "http://www.w3.org/Graphics/SVG/1.1/DTD/svg11.dtd">
<!-- Generated by graphviz version 2.43.0 (0)
 -->
<!-- Title: ParametersHandler/include/BipedalLocomotion/ParametersHandler/StdImplementation.tpp Pages: 1 -->
<svg width="922pt" height="374pt"
 viewBox="0.00 0.00 922.00 374.00" xmlns="http://www.w3.org/2000/svg" xmlns:xlink="http://www.w3.org/1999/xlink">
<g id="graph0" class="graph" transform="scale(1 1) rotate(0) translate(4 370)">
<title>ParametersHandler/include/BipedalLocomotion/ParametersHandler/StdImplementation.tpp</title>
<!-- Node1 -->
<g id="node1" class="node">
<title>Node1</title>
<g id="a_node1"><a xlink:title=" ">
<polygon fill="#bfbfbf" stroke="black" points="353.5,-324.5 353.5,-365.5 563.5,-365.5 563.5,-324.5 353.5,-324.5"/>
<text text-anchor="start" x="361.5" y="-353.5" font-family="Helvetica,sans-Serif" font-size="10.00">ParametersHandler/include</text>
<text text-anchor="start" x="361.5" y="-342.5" font-family="Helvetica,sans-Serif" font-size="10.00">/BipedalLocomotion/ParametersHandler</text>
<text text-anchor="middle" x="458.5" y="-331.5" font-family="Helvetica,sans-Serif" font-size="10.00">/StdImplementation.tpp</text>
</a>
</g>
</g>
<!-- Node2 -->
<g id="node2" class="node">
<title>Node2</title>
<g id="a_node2"><a xlink:title=" ">
<polygon fill="none" stroke="#bfbfbf" points="0,-0.5 0,-19.5 69,-19.5 69,-0.5 0,-0.5"/>
<text text-anchor="middle" x="34.5" y="-7.5" font-family="Helvetica,sans-Serif" font-size="10.00">type_traits</text>
</a>
</g>
</g>
<!-- Node1&#45;&gt;Node2 -->
<g id="edge1" class="edge">
<title>Node1&#45;&gt;Node2</title>
<path fill="none" stroke="midnightblue" d="M353.41,-331.8C225.25,-313.92 25.5,-275.07 25.5,-206.5 25.5,-206.5 25.5,-206.5 25.5,-137.5 25.5,-99.11 29.68,-54.32 32.34,-29.67"/>
<polygon fill="midnightblue" stroke="midnightblue" points="35.83,-29.9 33.47,-19.57 28.88,-29.12 35.83,-29.9"/>
</g>
<!-- Node3 -->
<g id="node3" class="node">
<title>Node3</title>
<g id="a_node3"><a xlink:href="StdImplementation_8h.html" target="_top" xlink:title=" ">
<polygon fill="none" stroke="black" points="374,-257.5 374,-287.5 543,-287.5 543,-257.5 374,-257.5"/>
<text text-anchor="start" x="382" y="-275.5" font-family="Helvetica,sans-Serif" font-size="10.00">BipedalLocomotion/Parameters</text>
<text text-anchor="middle" x="458.5" y="-264.5" font-family="Helvetica,sans-Serif" font-size="10.00">Handler/StdImplementation.h</text>
</a>
</g>
</g>
<!-- Node1&#45;&gt;Node3 -->
<g id="edge2" class="edge">
<title>Node1&#45;&gt;Node3</title>
<path fill="none" stroke="midnightblue" d="M452.38,-324.36C451.68,-316.23 451.56,-306.7 452.03,-298.11"/>
<polygon fill="midnightblue" stroke="midnightblue" points="455.54,-298.16 452.94,-287.89 448.57,-297.54 455.54,-298.16"/>
</g>
<!-- Node18 -->
<g id="node18" class="node">
<title>Node18</title>
<g id="a_node18"><a xlink:href="Logger_8h.html" target="_top" xlink:title=" ">
<polygon fill="none" stroke="black" points="667.5,-257.5 667.5,-287.5 839.5,-287.5 839.5,-257.5 667.5,-257.5"/>
<text text-anchor="start" x="675.5" y="-275.5" font-family="Helvetica,sans-Serif" font-size="10.00">BipedalLocomotion/TextLogging</text>
<text text-anchor="middle" x="753.5" y="-264.5" font-family="Helvetica,sans-Serif" font-size="10.00">/Logger.h</text>
</a>
</g>
</g>
<!-- Node1&#45;&gt;Node18 -->
<g id="edge24" class="edge">
<title>Node1&#45;&gt;Node18</title>
<path fill="none" stroke="midnightblue" d="M540.28,-324.46C585.68,-313.61 641.53,-300.26 684.67,-289.95"/>
<polygon fill="midnightblue" stroke="midnightblue" points="685.6,-293.33 694.51,-287.6 683.97,-286.52 685.6,-293.33"/>
</g>
<!-- Node3&#45;&gt;Node1 -->
<g id="edge23" class="edge">
<title>Node3&#45;&gt;Node1</title>
<path fill="none" stroke="midnightblue" d="M464.06,-287.89C465.06,-295.53 465.43,-305.21 465.17,-314.38"/>
<polygon fill="midnightblue" stroke="midnightblue" points="461.68,-314.18 464.62,-324.36 468.67,-314.57 461.68,-314.18"/>
</g>
<!-- Node4 -->
<g id="node4" class="node">
<title>Node4</title>
<g id="a_node4"><a xlink:title=" ">
<polygon fill="none" stroke="#bfbfbf" points="501,-196 501,-215 536,-215 536,-196 501,-196"/>
<text text-anchor="middle" x="518.5" y="-203" font-family="Helvetica,sans-Serif" font-size="10.00">any</text>
</a>
</g>
</g>
<!-- Node3&#45;&gt;Node4 -->
<g id="edge3" class="edge">
<title>Node3&#45;&gt;Node4</title>
<path fill="none" stroke="midnightblue" d="M471.52,-257.4C480.97,-247.16 493.77,-233.3 503.62,-222.62"/>
<polygon fill="midnightblue" stroke="midnightblue" points="506.26,-224.92 510.47,-215.19 501.12,-220.17 506.26,-224.92"/>
</g>
<!-- Node5 -->
<g id="node5" class="node">
<title>Node5</title>
<g id="a_node5"><a xlink:title=" ">
<polygon fill="none" stroke="#bfbfbf" points="542.5,-129 542.5,-148 586.5,-148 586.5,-129 542.5,-129"/>
<text text-anchor="middle" x="564.5" y="-136" font-family="Helvetica,sans-Serif" font-size="10.00">string</text>
</a>
</g>
</g>
<!-- Node3&#45;&gt;Node5 -->
<g id="edge4" class="edge">
<title>Node3&#45;&gt;Node5</title>
<path fill="none" stroke="midnightblue" d="M496.33,-257.37C513.39,-249.19 532.4,-237.25 544.5,-221 558.21,-202.6 562.62,-175.99 563.98,-158.24"/>
<polygon fill="midnightblue" stroke="midnightblue" points="567.49,-158.19 564.51,-148.03 560.5,-157.84 567.49,-158.19"/>
</g>
<!-- Node6 -->
<g id="node6" class="node">
<title>Node6</title>
<g id="a_node6"><a xlink:title=" ">
<polygon fill="none" stroke="#bfbfbf" points="593,-196 593,-215 686,-215 686,-196 593,-196"/>
<text text-anchor="middle" x="639.5" y="-203" font-family="Helvetica,sans-Serif" font-size="10.00">unordered_map</text>
</a>
</g>
</g>
<!-- Node3&#45;&gt;Node6 -->
<g id="edge5" class="edge">
<title>Node3&#45;&gt;Node6</title>
<path fill="none" stroke="midnightblue" d="M497.77,-257.4C530.09,-245.79 575.41,-229.51 606.03,-218.52"/>
<polygon fill="midnightblue" stroke="midnightblue" points="607.58,-221.68 615.81,-215.01 605.22,-215.09 607.58,-221.68"/>
</g>
<!-- Node7 -->
<g id="node7" class="node">
<title>Node7</title>
<g id="a_node7"><a xlink:href="TemplateHelpers_8h_source.html" target="_top" xlink:title=" ">
<polygon fill="none" stroke="black" points="53.5,-56.5 53.5,-86.5 211.5,-86.5 211.5,-56.5 53.5,-56.5"/>
<text text-anchor="start" x="61.5" y="-74.5" font-family="Helvetica,sans-Serif" font-size="10.00">BipedalLocomotion/Generic</text>
<text text-anchor="middle" x="132.5" y="-63.5" font-family="Helvetica,sans-Serif" font-size="10.00">Container/TemplateHelpers.h</text>
</a>
</g>
</g>
<!-- Node3&#45;&gt;Node7 -->
<g id="edge6" class="edge">
<title>Node3&#45;&gt;Node7</title>
<path fill="none" stroke="midnightblue" d="M395.81,-257.42C364.67,-249.11 327.06,-237.04 295.5,-221 251.04,-198.41 242.32,-187.63 205.5,-154 185.01,-135.28 164.13,-111.39 149.98,-94.32"/>
<polygon fill="midnightblue" stroke="midnightblue" points="152.65,-92.06 143.61,-86.54 147.24,-96.49 152.65,-92.06"/>
</g>
<!-- Node10 -->
<g id="node10" class="node">
<title>Node10</title>
<g id="a_node10"><a xlink:href="Vector_8h_source.html" target="_top" xlink:title=" ">
<polygon fill="none" stroke="black" points="269,-123.5 269,-153.5 420,-153.5 420,-123.5 269,-123.5"/>
<text text-anchor="start" x="277" y="-141.5" font-family="Helvetica,sans-Serif" font-size="10.00">BipedalLocomotion/Generic</text>
<text text-anchor="middle" x="344.5" y="-130.5" font-family="Helvetica,sans-Serif" font-size="10.00">Container/Vector.h</text>
</a>
</g>
</g>
<!-- Node3&#45;&gt;Node10 -->
<g id="edge10" class="edge">
<title>Node3&#45;&gt;Node10</title>
<path fill="none" stroke="midnightblue" d="M373.82,-263.16C347.31,-256.09 320.76,-243.44 304.5,-221 290.87,-202.18 306.2,-178.01 321.66,-160.89"/>
<polygon fill="midnightblue" stroke="midnightblue" points="324.28,-163.21 328.67,-153.57 319.23,-158.37 324.28,-163.21"/>
</g>
<!-- Node16 -->
<g id="node16" class="node">
<title>Node16</title>
<g id="a_node16"><a xlink:href="IParametersHandler_8h.html" target="_top" xlink:title=" ">
<polygon fill="none" stroke="black" points="314,-190.5 314,-220.5 483,-220.5 483,-190.5 314,-190.5"/>
<text text-anchor="start" x="322" y="-208.5" font-family="Helvetica,sans-Serif" font-size="10.00">BipedalLocomotion/Parameters</text>
<text text-anchor="middle" x="398.5" y="-197.5" font-family="Helvetica,sans-Serif" font-size="10.00">Handler/IParametersHandler.h</text>
</a>
</g>
</g>
<!-- Node3&#45;&gt;Node16 -->
<g id="edge17" class="edge">
<title>Node3&#45;&gt;Node16</title>
<path fill="none" stroke="midnightblue" d="M445.48,-257.4C437.54,-248.79 427.23,-237.63 418.3,-227.94"/>
<polygon fill="midnightblue" stroke="midnightblue" points="420.85,-225.55 411.49,-220.58 415.7,-230.3 420.85,-225.55"/>
</g>
<!-- Node7&#45;&gt;Node2 -->
<g id="edge7" class="edge">
<title>Node7&#45;&gt;Node2</title>
<path fill="none" stroke="midnightblue" d="M109.28,-56.4C93.71,-46.95 73.3,-34.56 57.74,-25.11"/>
<polygon fill="midnightblue" stroke="midnightblue" points="59.12,-21.86 48.76,-19.66 55.49,-27.84 59.12,-21.86"/>
</g>
<!-- Node8 -->
<g id="node8" class="node">
<title>Node8</title>
<g id="a_node8"><a xlink:title=" ">
<polygon fill="none" stroke="#bfbfbf" points="91,-0.5 91,-19.5 164,-19.5 164,-0.5 91,-0.5"/>
<text text-anchor="middle" x="127.5" y="-7.5" font-family="Helvetica,sans-Serif" font-size="10.00">string_view</text>
</a>
</g>
</g>
<!-- Node7&#45;&gt;Node8 -->
<g id="edge8" class="edge">
<title>Node7&#45;&gt;Node8</title>
<path fill="none" stroke="midnightblue" d="M131.32,-56.4C130.65,-48.47 129.81,-38.46 129.08,-29.86"/>
<polygon fill="midnightblue" stroke="midnightblue" points="132.55,-29.33 128.23,-19.66 125.58,-29.92 132.55,-29.33"/>
</g>
<!-- Node9 -->
<g id="node9" class="node">
<title>Node9</title>
<g id="a_node9"><a xlink:title=" ">
<polygon fill="none" stroke="#bfbfbf" points="182,-0.5 182,-19.5 251,-19.5 251,-0.5 182,-0.5"/>
<text text-anchor="middle" x="216.5" y="-7.5" font-family="Helvetica,sans-Serif" font-size="10.00">Eigen/Core</text>
</a>
</g>
</g>
<!-- Node7&#45;&gt;Node9 -->
<g id="edge9" class="edge">
<title>Node7&#45;&gt;Node9</title>
<path fill="none" stroke="midnightblue" d="M152.41,-56.4C165.49,-47.13 182.58,-35.03 195.82,-25.65"/>
<polygon fill="midnightblue" stroke="midnightblue" points="198.14,-28.29 204.28,-19.66 194.09,-22.58 198.14,-28.29"/>
</g>
<!-- Node10&#45;&gt;Node7 -->
<g id="edge12" class="edge">
<title>Node10&#45;&gt;Node7</title>
<path fill="none" stroke="midnightblue" d="M298.76,-123.48C266.41,-113.56 222.85,-100.2 188.43,-89.65"/>
<polygon fill="midnightblue" stroke="midnightblue" points="189.11,-86.2 178.52,-86.61 187.06,-92.89 189.11,-86.2"/>
</g>
<!-- Node11 -->
<g id="node11" class="node">
<title>Node11</title>
<g id="a_node11"><a xlink:title=" ">
<polygon fill="none" stroke="#bfbfbf" points="229,-62 229,-81 350,-81 350,-62 229,-62"/>
<text text-anchor="middle" x="289.5" y="-69" font-family="Helvetica,sans-Serif" font-size="10.00">iDynTree/Core/Span.h</text>
</a>
</g>
</g>
<!-- Node10&#45;&gt;Node11 -->
<g id="edge11" class="edge">
<title>Node10&#45;&gt;Node11</title>
<path fill="none" stroke="midnightblue" d="M332.57,-123.4C323.99,-113.26 312.4,-99.57 303.41,-88.94"/>
<polygon fill="midnightblue" stroke="midnightblue" points="305.99,-86.57 296.86,-81.19 300.64,-91.09 305.99,-86.57"/>
</g>
<!-- Node12 -->
<g id="node12" class="node">
<title>Node12</title>
<g id="a_node12"><a xlink:title=" ">
<polygon fill="none" stroke="#bfbfbf" points="368,-62 368,-81 433,-81 433,-62 368,-62"/>
<text text-anchor="middle" x="400.5" y="-69" font-family="Helvetica,sans-Serif" font-size="10.00">functional</text>
</a>
</g>
</g>
<!-- Node10&#45;&gt;Node12 -->
<g id="edge13" class="edge">
<title>Node10&#45;&gt;Node12</title>
<path fill="none" stroke="midnightblue" d="M356.65,-123.4C365.38,-113.26 377.18,-99.57 386.34,-88.94"/>
<polygon fill="midnightblue" stroke="midnightblue" points="389.13,-91.06 393.01,-81.19 383.83,-86.49 389.13,-91.06"/>
</g>
<!-- Node13 -->
<g id="node13" class="node">
<title>Node13</title>
<g id="a_node13"><a xlink:title=" ">
<polygon fill="none" stroke="#bfbfbf" points="451.5,-62 451.5,-81 503.5,-81 503.5,-62 451.5,-62"/>
<text text-anchor="middle" x="477.5" y="-69" font-family="Helvetica,sans-Serif" font-size="10.00">cassert</text>
</a>
</g>
</g>
<!-- Node10&#45;&gt;Node13 -->
<g id="edge14" class="edge">
<title>Node10&#45;&gt;Node13</title>
<path fill="none" stroke="midnightblue" d="M373.36,-123.4C396.39,-112.14 428.39,-96.5 450.82,-85.54"/>
<polygon fill="midnightblue" stroke="midnightblue" points="452.65,-88.54 460.09,-81.01 449.57,-82.25 452.65,-88.54"/>
</g>
<!-- Node14 -->
<g id="node14" class="node">
<title>Node14</title>
<g id="a_node14"><a xlink:title=" ">
<polygon fill="none" stroke="#bfbfbf" points="521.5,-62 521.5,-81 581.5,-81 581.5,-62 521.5,-62"/>
<text text-anchor="middle" x="551.5" y="-69" font-family="Helvetica,sans-Serif" font-size="10.00">iostream</text>
</a>
</g>
</g>
<!-- Node10&#45;&gt;Node14 -->
<g id="edge15" class="edge">
<title>Node10&#45;&gt;Node14</title>
<path fill="none" stroke="midnightblue" d="M394.38,-123.41C427.94,-113.71 473.09,-100.23 512.5,-87 514.9,-86.2 517.37,-85.34 519.85,-84.46"/>
<polygon fill="midnightblue" stroke="midnightblue" points="521.11,-87.73 529.31,-81.03 518.72,-81.15 521.11,-87.73"/>
</g>
<!-- Node15 -->
<g id="node15" class="node">
<title>Node15</title>
<g id="a_node15"><a xlink:title=" ">
<polygon fill="none" stroke="#bfbfbf" points="599.5,-62 599.5,-81 657.5,-81 657.5,-62 599.5,-62"/>
<text text-anchor="middle" x="628.5" y="-69" font-family="Helvetica,sans-Serif" font-size="10.00">memory</text>
</a>
</g>
</g>
<!-- Node10&#45;&gt;Node15 -->
<g id="edge16" class="edge">
<title>Node10&#45;&gt;Node15</title>
<path fill="none" stroke="midnightblue" d="M420.09,-125.26C469.15,-116.51 534.2,-103.4 590.5,-87 593.08,-86.25 595.73,-85.4 598.38,-84.5"/>
<polygon fill="midnightblue" stroke="midnightblue" points="599.59,-87.79 607.8,-81.09 597.21,-81.2 599.59,-87.79"/>
</g>
<!-- Node16&#45;&gt;Node5 -->
<g id="edge19" class="edge">
<title>Node16&#45;&gt;Node5</title>
<path fill="none" stroke="midnightblue" d="M437.76,-190.47C464.61,-180.69 500.92,-167.09 532.5,-154 533.87,-153.43 535.28,-152.84 536.69,-152.23"/>
<polygon fill="midnightblue" stroke="midnightblue" points="538.24,-155.38 545.98,-148.14 535.41,-148.97 538.24,-155.38"/>
</g>
<!-- Node16&#45;&gt;Node7 -->
<g id="edge21" class="edge">
<title>Node16&#45;&gt;Node7</title>
<path fill="none" stroke="midnightblue" d="M352.05,-190.5C324.52,-181.5 289.3,-168.75 259.5,-154 240.08,-144.39 192.71,-113.16 161.64,-92.27"/>
<polygon fill="midnightblue" stroke="midnightblue" points="163.59,-89.37 153.34,-86.68 159.68,-95.17 163.59,-89.37"/>
</g>
<!-- Node16&#45;&gt;Node10 -->
<g id="edge22" class="edge">
<title>Node16&#45;&gt;Node10</title>
<path fill="none" stroke="midnightblue" d="M386.78,-190.4C379.78,-181.96 370.73,-171.07 362.79,-161.52"/>
<polygon fill="midnightblue" stroke="midnightblue" points="365.28,-159.03 356.19,-153.58 359.89,-163.51 365.28,-159.03"/>
</g>
<!-- Node16&#45;&gt;Node15 -->
<g id="edge18" class="edge">
<title>Node16&#45;&gt;Node15</title>
<path fill="none" stroke="midnightblue" d="M406.68,-190.5C418.04,-172.28 440.3,-140.68 467.5,-123 515.25,-91.95 536.52,-105.17 590.5,-87 592.76,-86.24 595.08,-85.43 597.41,-84.59"/>
<polygon fill="midnightblue" stroke="midnightblue" points="598.74,-87.83 606.91,-81.08 596.31,-81.27 598.74,-87.83"/>
</g>
<!-- Node17 -->
<g id="node17" class="node">
<title>Node17</title>
<g id="a_node17"><a xlink:title=" ">
<polygon fill="none" stroke="#bfbfbf" points="477,-129 477,-148 524,-148 524,-129 477,-129"/>
<text text-anchor="middle" x="500.5" y="-136" font-family="Helvetica,sans-Serif" font-size="10.00">vector</text>
</a>
</g>
</g>
<!-- Node16&#45;&gt;Node17 -->
<g id="edge20" class="edge">
<title>Node16&#45;&gt;Node17</title>
<path fill="none" stroke="midnightblue" d="M420.63,-190.4C437.74,-179.5 461.3,-164.48 478.4,-153.58"/>
<polygon fill="midnightblue" stroke="midnightblue" points="480.6,-156.33 487.15,-148.01 476.84,-150.43 480.6,-156.33"/>
</g>
<!-- Node19 -->
<g id="node19" class="node">
<title>Node19</title>
<g id="a_node19"><a xlink:title=" ">
<polygon fill="none" stroke="#bfbfbf" points="704,-196 704,-215 803,-215 803,-196 704,-196"/>
<text text-anchor="middle" x="753.5" y="-203" font-family="Helvetica,sans-Serif" font-size="10.00">spdlog/fmt/ostr.h</text>
</a>
</g>
</g>
<!-- Node18&#45;&gt;Node19 -->
<g id="edge25" class="edge">
<title>Node18&#45;&gt;Node19</title>
<path fill="none" stroke="midnightblue" d="M753.5,-257.4C753.5,-248.06 753.5,-235.71 753.5,-225.52"/>
<polygon fill="midnightblue" stroke="midnightblue" points="757,-225.19 753.5,-215.19 750,-225.19 757,-225.19"/>
</g>
<!-- Node20 -->
<g id="node20" class="node">
<title>Node20</title>
<g id="a_node20"><a xlink:title=" ">
<polygon fill="none" stroke="#bfbfbf" points="821,-196 821,-215 914,-215 914,-196 821,-196"/>
<text text-anchor="middle" x="867.5" y="-203" font-family="Helvetica,sans-Serif" font-size="10.00">spdlog/spdlog.h</text>
</a>
</g>
</g>
<!-- Node18&#45;&gt;Node20 -->
<g id="edge26" class="edge">
<title>Node18&#45;&gt;Node20</title>
<path fill="none" stroke="midnightblue" d="M778.24,-257.4C797.71,-246.29 824.67,-230.92 843.85,-219.98"/>
<polygon fill="midnightblue" stroke="midnightblue" points="845.63,-223 852.58,-215.01 842.16,-216.92 845.63,-223"/>
</g>
</g>
</svg>
