<?xml version="1.0" encoding="UTF-8" standalone="no"?>
<!DOCTYPE svg PUBLIC "-//W3C//DTD SVG 1.1//EN"
 "http://www.w3.org/Graphics/SVG/1.1/DTD/svg11.dtd">
<!-- Generated by graphviz version 2.43.0 (0)
 -->
<!-- Title: BipedalLocomotion::ContinuousDynamicalSystem::internal::traits&lt; T &gt; Pages: 1 -->
<svg width="520pt" height="122pt"
 viewBox="0.00 0.00 520.00 121.50" xmlns="http://www.w3.org/2000/svg" xmlns:xlink="http://www.w3.org/1999/xlink">
<g id="graph0" class="graph" transform="scale(1 1) rotate(0) translate(4 117.5)">
<title>BipedalLocomotion::ContinuousDynamicalSystem::internal::traits&lt; T &gt;</title>
<!-- Node1 -->
<g id="node1" class="node">
<title>Node1</title>
<g id="a_node1"><a xlink:title=" ">
<polygon fill="#bfbfbf" stroke="black" points="0,-39 0,-80 161,-80 161,-39 0,-39"/>
<text text-anchor="start" x="8" y="-68" font-family="Helvetica,sans-Serif" font-size="10.00">BipedalLocomotion::</text>
<text text-anchor="start" x="8" y="-57" font-family="Helvetica,sans-Serif" font-size="10.00">ContinuousDynamicalSystem</text>
<text text-anchor="middle" x="80.5" y="-46" font-family="Helvetica,sans-Serif" font-size="10.00">::internal::traits&lt; T &gt;</text>
</a>
</g>
</g>
<!-- Node2 -->
<g id="node2" class="node">
<title>Node2</title>
<g id="a_node2"><a xlink:href="structBipedalLocomotion_1_1ContinuousDynamicalSystem_1_1internal_1_1traits_3_01const_01T_01_4.html" target="_top" xlink:title=" ">
<polygon fill="none" stroke="black" points="348,-72 348,-113 509,-113 509,-72 348,-72"/>
<text text-anchor="start" x="356" y="-101" font-family="Helvetica,sans-Serif" font-size="10.00">BipedalLocomotion::</text>
<text text-anchor="start" x="356" y="-90" font-family="Helvetica,sans-Serif" font-size="10.00">ContinuousDynamicalSystem</text>
<text text-anchor="middle" x="428.5" y="-79" font-family="Helvetica,sans-Serif" font-size="10.00">::internal::traits&lt; const T &gt;</text>
</a>
</g>
</g>
<!-- Node1&#45;&gt;Node2 -->
<g id="edge1" class="edge">
<title>Node1&#45;&gt;Node2</title>
<path fill="none" stroke="midnightblue" d="M171.34,-68.07C225.97,-73.28 295.11,-79.87 347.79,-84.9"/>
<polygon fill="midnightblue" stroke="midnightblue" points="171.6,-64.58 161.31,-67.11 170.94,-71.55 171.6,-64.58"/>
</g>
<!-- Node3 -->
<g id="node3" class="node">
<title>Node3</title>
<g id="a_node3"><a xlink:href="structBipedalLocomotion_1_1ContinuousDynamicalSystem_1_1internal_1_1traits.html" target="_top" xlink:title=" ">
<polygon fill="none" stroke="black" points="345,-0.5 345,-52.5 512,-52.5 512,-0.5 345,-0.5"/>
<text text-anchor="start" x="353" y="-40.5" font-family="Helvetica,sans-Serif" font-size="10.00">BipedalLocomotion::</text>
<text text-anchor="start" x="353" y="-29.5" font-family="Helvetica,sans-Serif" font-size="10.00">ContinuousDynamicalSystem</text>
<text text-anchor="start" x="353" y="-18.5" font-family="Helvetica,sans-Serif" font-size="10.00">::internal::traits&lt; ForwardEuler</text>
<text text-anchor="middle" x="428.5" y="-7.5" font-family="Helvetica,sans-Serif" font-size="10.00">&lt; _DynamicalSystem &gt; &gt;</text>
</a>
</g>
</g>
<!-- Node1&#45;&gt;Node3 -->
<g id="edge2" class="edge">
<title>Node1&#45;&gt;Node3</title>
<path fill="none" stroke="orange" stroke-dasharray="5,2" d="M171.3,-43.47C173.89,-43.13 176.46,-42.8 179,-42.5 234.06,-35.95 296.32,-31.94 344.74,-29.58"/>
<polygon fill="orange" stroke="orange" points="170.63,-40.03 161.21,-44.88 171.6,-46.96 170.63,-40.03"/>
<text text-anchor="start" x="179" y="-56.5" font-family="Helvetica,sans-Serif" font-size="10.00"> &lt; ForwardEuler&lt; _Dynamical</text>
<text text-anchor="middle" x="253" y="-45.5" font-family="Helvetica,sans-Serif" font-size="10.00">System &gt; &gt;</text>
</g>
</g>
</svg>
