<?xml version="1.0" encoding="UTF-8" standalone="no"?>
<!DOCTYPE svg PUBLIC "-//W3C//DTD SVG 1.1//EN"
 "http://www.w3.org/Graphics/SVG/1.1/DTD/svg11.dtd">
<!-- Generated by graphviz version 2.43.0 (0)
 -->
<!-- Title: Planners/src/SwingFootPlanner.cpp Pages: 1 -->
<!--zoomable 553 -->
<svg id="main" version="1.1" xmlns="http://www.w3.org/2000/svg" xmlns:xlink="http://www.w3.org/1999/xlink" xml:space="preserve" onload="init(evt)">
<style type="text/css"><![CDATA[
.edge:hover path { stroke: red; }
.edge:hover polygon { stroke: red; fill: red; }
]]></style>
<script type="text/javascript"><![CDATA[
var edges = document.getElementsByTagName('g');
if (edges && edges.length) {
  for (var i=0;i<edges.length;i++) {
    if (edges[i].id.substr(0,4)=='edge') {
      edges[i].setAttribute('class','edge');
    }
  }
}
]]></script>
        <defs>
                <circle id="rim" cx="0" cy="0" r="7"/>
                <circle id="rim2" cx="0" cy="0" r="3.5"/>
                <g id="zoomPlus">
                        <use xlink:href="#rim" fill="#404040">
                                <set attributeName="fill" to="#808080" begin="zoomplus.mouseover" end="zoomplus.mouseout"/>
                        </use>
                        <path d="M-4,0h8M0,-4v8" fill="none" stroke="white" stroke-width="1.5" pointer-events="none"/>
                </g>
                <g id="zoomMin">
                        <use xlink:href="#rim" fill="#404040">
                                <set attributeName="fill" to="#808080" begin="zoomminus.mouseover" end="zoomminus.mouseout"/>
                        </use>
                        <path d="M-4,0h8" fill="none" stroke="white" stroke-width="1.5" pointer-events="none"/>
                </g>
                <g id="dirArrow">
                        <path fill="none" stroke="white" stroke-width="1.5" d="M0,-3.0v7 M-2.5,-0.5L0,-3.0L2.5,-0.5"/>
                </g>
               <g id="resetDef">
                       <use xlink:href="#rim2" fill="#404040">
                               <set attributeName="fill" to="#808080" begin="reset.mouseover" end="reset.mouseout"/>
                       </use>
               </g>
        </defs>

<script type="text/javascript">
var viewWidth = 974;
var viewHeight = 553;
var sectionId = 'dynsection-0';
</script>
<script xlink:href="svgpan.js"/>
<svg id="graph" class="graph">
<g id="viewport">
<title>Planners/src/SwingFootPlanner.cpp</title>
<!-- Node1 -->
<g id="node1" class="node">
<title>Node1</title>
<g id="a_node1"><a xlink:title=" ">
<polygon fill="#bfbfbf" stroke="black" points="469.5,-525.5 469.5,-544.5 654.5,-544.5 654.5,-525.5 469.5,-525.5"/>
<text text-anchor="middle" x="562" y="-532.5" font-family="Helvetica,sans-Serif" font-size="10.00">Planners/src/SwingFootPlanner.cpp</text>
</a>
</g>
</g>
<!-- Node2 -->
<g id="node2" class="node">
<title>Node2</title>
<g id="a_node2"><a xlink:href="SwingFootPlanner_8h.html" target="_top" xlink:title=" ">
<polygon fill="none" stroke="black" points="431.5,-458.5 431.5,-488.5 586.5,-488.5 586.5,-458.5 431.5,-458.5"/>
<text text-anchor="start" x="439.5" y="-476.5" font-family="Helvetica,sans-Serif" font-size="10.00">BipedalLocomotion/Planners</text>
<text text-anchor="middle" x="509" y="-465.5" font-family="Helvetica,sans-Serif" font-size="10.00">/SwingFootPlanner.h</text>
</a>
</g>
</g>
<!-- Node1&#45;&gt;Node2 -->
<g id="edge1" class="edge">
<title>Node1&#45;&gt;Node2</title>
<path fill="none" stroke="midnightblue" d="M554.41,-525.48C547.63,-517.87 537.41,-506.4 528.39,-496.26"/>
<polygon fill="midnightblue" stroke="midnightblue" points="530.76,-493.66 521.49,-488.52 525.53,-498.32 530.76,-493.66"/>
</g>
<!-- Node17 -->
<g id="node17" class="node">
<title>Node17</title>
<g id="a_node17"><a xlink:href="ContactList_8h.html" target="_top" xlink:title=" ">
<polygon fill="none" stroke="black" points="694,-391.5 694,-421.5 850,-421.5 850,-391.5 694,-391.5"/>
<text text-anchor="start" x="702" y="-409.5" font-family="Helvetica,sans-Serif" font-size="10.00">BipedalLocomotion/Contacts</text>
<text text-anchor="middle" x="772" y="-398.5" font-family="Helvetica,sans-Serif" font-size="10.00">/ContactList.h</text>
</a>
</g>
</g>
<!-- Node1&#45;&gt;Node17 -->
<g id="edge47" class="edge">
<title>Node1&#45;&gt;Node17</title>
<path fill="none" stroke="midnightblue" d="M576.43,-525.31C609.88,-505.16 693.36,-454.87 739.71,-426.95"/>
<polygon fill="midnightblue" stroke="midnightblue" points="741.7,-429.84 748.46,-421.68 738.08,-423.84 741.7,-429.84"/>
</g>
<!-- Node3 -->
<g id="node3" class="node">
<title>Node3</title>
<g id="a_node3"><a xlink:title=" ">
<polygon fill="none" stroke="#bfbfbf" points="463,-62 463,-81 521,-81 521,-62 463,-62"/>
<text text-anchor="middle" x="492" y="-69" font-family="Helvetica,sans-Serif" font-size="10.00">memory</text>
</a>
</g>
</g>
<!-- Node2&#45;&gt;Node3 -->
<g id="edge2" class="edge">
<title>Node2&#45;&gt;Node3</title>
<path fill="none" stroke="midnightblue" d="M520.62,-458.3C528.02,-448.61 537.26,-435.18 543,-422 557.85,-387.9 562,-377.69 562,-340.5 562,-340.5 562,-340.5 562,-204.5 562,-158.3 528.11,-112.48 507.49,-88.89"/>
<polygon fill="midnightblue" stroke="midnightblue" points="509.88,-86.31 500.58,-81.24 504.69,-91.01 509.88,-86.31"/>
</g>
<!-- Node4 -->
<g id="node4" class="node">
<title>Node4</title>
<g id="a_node4"><a xlink:title=" ">
<polygon fill="none" stroke="#bfbfbf" points="590.5,-330 590.5,-349 675.5,-349 675.5,-330 590.5,-330"/>
<text text-anchor="middle" x="633" y="-337" font-family="Helvetica,sans-Serif" font-size="10.00">manif/manif.h</text>
</a>
</g>
</g>
<!-- Node2&#45;&gt;Node4 -->
<g id="edge3" class="edge">
<title>Node2&#45;&gt;Node4</title>
<path fill="none" stroke="midnightblue" d="M531.22,-458.38C544.99,-449.03 562.55,-435.94 576,-422 595.14,-402.16 612.58,-375.37 622.99,-358.01"/>
<polygon fill="midnightblue" stroke="midnightblue" points="626.23,-359.4 628.27,-349 620.19,-355.86 626.23,-359.4"/>
</g>
<!-- Node5 -->
<g id="node5" class="node">
<title>Node5</title>
<g id="a_node5"><a xlink:href="IParametersHandler_8h.html" target="_top" xlink:title=" ">
<polygon fill="none" stroke="black" points="181.5,-190.5 181.5,-220.5 350.5,-220.5 350.5,-190.5 181.5,-190.5"/>
<text text-anchor="start" x="189.5" y="-208.5" font-family="Helvetica,sans-Serif" font-size="10.00">BipedalLocomotion/Parameters</text>
<text text-anchor="middle" x="266" y="-197.5" font-family="Helvetica,sans-Serif" font-size="10.00">Handler/IParametersHandler.h</text>
</a>
</g>
</g>
<!-- Node2&#45;&gt;Node5 -->
<g id="edge4" class="edge">
<title>Node2&#45;&gt;Node5</title>
<path fill="none" stroke="midnightblue" d="M431.46,-461.35C371.09,-447.88 292.46,-418.5 261,-355 241.13,-314.89 250.49,-260.92 258.59,-230.31"/>
<polygon fill="midnightblue" stroke="midnightblue" points="262.01,-231.1 261.35,-220.52 255.27,-229.2 262.01,-231.1"/>
</g>
<!-- Node2&#45;&gt;Node17 -->
<g id="edge19" class="edge">
<title>Node2&#45;&gt;Node17</title>
<path fill="none" stroke="midnightblue" d="M565.74,-458.48C606.65,-448.37 662.01,-434.68 705.08,-424.04"/>
<polygon fill="midnightblue" stroke="midnightblue" points="706.04,-427.41 714.91,-421.61 704.36,-420.61 706.04,-427.41"/>
</g>
<!-- Node24 -->
<g id="node24" class="node">
<title>Node24</title>
<g id="a_node24"><a xlink:href="QuinticSpline_8h.html" target="_top" xlink:title=" ">
<polygon fill="none" stroke="black" points="378.5,-391.5 378.5,-421.5 533.5,-421.5 533.5,-391.5 378.5,-391.5"/>
<text text-anchor="start" x="386.5" y="-409.5" font-family="Helvetica,sans-Serif" font-size="10.00">BipedalLocomotion/Planners</text>
<text text-anchor="middle" x="456" y="-398.5" font-family="Helvetica,sans-Serif" font-size="10.00">/QuinticSpline.h</text>
</a>
</g>
</g>
<!-- Node2&#45;&gt;Node24 -->
<g id="edge31" class="edge">
<title>Node2&#45;&gt;Node24</title>
<path fill="none" stroke="midnightblue" d="M497.5,-458.4C490.62,-449.96 481.74,-439.07 473.96,-429.52"/>
<polygon fill="midnightblue" stroke="midnightblue" points="476.51,-427.11 467.48,-421.58 471.08,-431.54 476.51,-427.11"/>
</g>
<!-- Node25 -->
<g id="node25" class="node">
<title>Node25</title>
<g id="a_node25"><a xlink:href="Source_8h.html" target="_top" xlink:title=" ">
<polygon fill="none" stroke="black" points="270,-324.5 270,-354.5 420,-354.5 420,-324.5 270,-324.5"/>
<text text-anchor="start" x="278" y="-342.5" font-family="Helvetica,sans-Serif" font-size="10.00">BipedalLocomotion/System</text>
<text text-anchor="middle" x="345" y="-331.5" font-family="Helvetica,sans-Serif" font-size="10.00">/Source.h</text>
</a>
</g>
</g>
<!-- Node2&#45;&gt;Node25 -->
<g id="edge46" class="edge">
<title>Node2&#45;&gt;Node25</title>
<path fill="none" stroke="midnightblue" d="M432.43,-458.44C409.78,-450.95 386.63,-439.49 370,-422 355.32,-406.56 349.25,-382.72 346.74,-364.8"/>
<polygon fill="midnightblue" stroke="midnightblue" points="350.21,-364.34 345.62,-354.79 343.26,-365.12 350.21,-364.34"/>
</g>
<!-- Node28 -->
<g id="node28" class="node">
<title>Node28</title>
<g id="a_node28"><a xlink:href="SO3Planner_8h.html" target="_top" xlink:title=" ">
<polygon fill="none" stroke="black" points="58.5,-391.5 58.5,-421.5 213.5,-421.5 213.5,-391.5 58.5,-391.5"/>
<text text-anchor="start" x="66.5" y="-409.5" font-family="Helvetica,sans-Serif" font-size="10.00">BipedalLocomotion/Planners</text>
<text text-anchor="middle" x="136" y="-398.5" font-family="Helvetica,sans-Serif" font-size="10.00">/SO3Planner.h</text>
</a>
</g>
</g>
<!-- Node2&#45;&gt;Node28 -->
<g id="edge39" class="edge">
<title>Node2&#45;&gt;Node28</title>
<path fill="none" stroke="midnightblue" d="M431.26,-458.95C370.66,-448.39 286.52,-433.73 223.56,-422.76"/>
<polygon fill="midnightblue" stroke="midnightblue" points="224.09,-419.3 213.64,-421.03 222.89,-426.19 224.09,-419.3"/>
</g>
<!-- Node5&#45;&gt;Node3 -->
<g id="edge5" class="edge">
<title>Node5&#45;&gt;Node3</title>
<path fill="none" stroke="midnightblue" d="M296.55,-190.46C316.08,-181.04 341.66,-167.85 363,-154 381.57,-141.94 383.62,-135.35 402,-123 422.77,-109.05 447.66,-95.29 466,-85.67"/>
<polygon fill="midnightblue" stroke="midnightblue" points="467.67,-88.74 474.93,-81.03 464.45,-82.53 467.67,-88.74"/>
</g>
<!-- Node6 -->
<g id="node6" class="node">
<title>Node6</title>
<g id="a_node6"><a xlink:title=" ">
<polygon fill="none" stroke="#bfbfbf" points="772,-129 772,-148 816,-148 816,-129 772,-129"/>
<text text-anchor="middle" x="794" y="-136" font-family="Helvetica,sans-Serif" font-size="10.00">string</text>
</a>
</g>
</g>
<!-- Node5&#45;&gt;Node6 -->
<g id="edge6" class="edge">
<title>Node5&#45;&gt;Node6</title>
<path fill="none" stroke="midnightblue" d="M350.53,-191.31C353.73,-190.86 356.89,-190.42 360,-190 509.79,-169.74 689.35,-150.42 761.58,-142.86"/>
<polygon fill="midnightblue" stroke="midnightblue" points="762.25,-146.3 771.83,-141.78 761.52,-139.34 762.25,-146.3"/>
</g>
<!-- Node7 -->
<g id="node7" class="node">
<title>Node7</title>
<g id="a_node7"><a xlink:title=" ">
<polygon fill="none" stroke="#bfbfbf" points="410.5,-129 410.5,-148 457.5,-148 457.5,-129 410.5,-129"/>
<text text-anchor="middle" x="434" y="-136" font-family="Helvetica,sans-Serif" font-size="10.00">vector</text>
</a>
</g>
</g>
<!-- Node5&#45;&gt;Node7 -->
<g id="edge7" class="edge">
<title>Node5&#45;&gt;Node7</title>
<path fill="none" stroke="midnightblue" d="M302.45,-190.4C332.32,-178.84 374.15,-162.66 402.56,-151.66"/>
<polygon fill="midnightblue" stroke="midnightblue" points="403.95,-154.88 412.01,-148.01 401.42,-148.35 403.95,-154.88"/>
</g>
<!-- Node8 -->
<g id="node8" class="node">
<title>Node8</title>
<g id="a_node8"><a xlink:href="TemplateHelpers_8h_source.html" target="_top" xlink:title=" ">
<polygon fill="none" stroke="black" points="78,-56.5 78,-86.5 236,-86.5 236,-56.5 78,-56.5"/>
<text text-anchor="start" x="86" y="-74.5" font-family="Helvetica,sans-Serif" font-size="10.00">BipedalLocomotion/Generic</text>
<text text-anchor="middle" x="157" y="-63.5" font-family="Helvetica,sans-Serif" font-size="10.00">Container/TemplateHelpers.h</text>
</a>
</g>
</g>
<!-- Node5&#45;&gt;Node8 -->
<g id="edge8" class="edge">
<title>Node5&#45;&gt;Node8</title>
<path fill="none" stroke="midnightblue" d="M238.57,-190.45C223.53,-181.63 205.47,-169.08 193,-154 179.04,-137.12 169.51,-113.97 163.78,-96.66"/>
<polygon fill="midnightblue" stroke="midnightblue" points="167.01,-95.26 160.7,-86.75 160.32,-97.33 167.01,-95.26"/>
</g>
<!-- Node12 -->
<g id="node12" class="node">
<title>Node12</title>
<g id="a_node12"><a xlink:href="Vector_8h_source.html" target="_top" xlink:title=" ">
<polygon fill="none" stroke="black" points="202.5,-123.5 202.5,-153.5 353.5,-153.5 353.5,-123.5 202.5,-123.5"/>
<text text-anchor="start" x="210.5" y="-141.5" font-family="Helvetica,sans-Serif" font-size="10.00">BipedalLocomotion/Generic</text>
<text text-anchor="middle" x="278" y="-130.5" font-family="Helvetica,sans-Serif" font-size="10.00">Container/Vector.h</text>
</a>
</g>
</g>
<!-- Node5&#45;&gt;Node12 -->
<g id="edge12" class="edge">
<title>Node5&#45;&gt;Node12</title>
<path fill="none" stroke="midnightblue" d="M268.6,-190.4C270.05,-182.56 271.89,-172.6 273.56,-163.57"/>
<polygon fill="midnightblue" stroke="midnightblue" points="277.03,-164.05 275.4,-153.58 270.14,-162.77 277.03,-164.05"/>
</g>
<!-- Node9 -->
<g id="node9" class="node">
<title>Node9</title>
<g id="a_node9"><a xlink:title=" ">
<polygon fill="none" stroke="#bfbfbf" points="33.5,-0.5 33.5,-19.5 102.5,-19.5 102.5,-0.5 33.5,-0.5"/>
<text text-anchor="middle" x="68" y="-7.5" font-family="Helvetica,sans-Serif" font-size="10.00">type_traits</text>
</a>
</g>
</g>
<!-- Node8&#45;&gt;Node9 -->
<g id="edge9" class="edge">
<title>Node8&#45;&gt;Node9</title>
<path fill="none" stroke="midnightblue" d="M135.91,-56.4C121.91,-47.04 103.59,-34.79 89.51,-25.38"/>
<polygon fill="midnightblue" stroke="midnightblue" points="91.21,-22.31 80.95,-19.66 87.32,-28.13 91.21,-22.31"/>
</g>
<!-- Node10 -->
<g id="node10" class="node">
<title>Node10</title>
<g id="a_node10"><a xlink:title=" ">
<polygon fill="none" stroke="#bfbfbf" points="120.5,-0.5 120.5,-19.5 193.5,-19.5 193.5,-0.5 120.5,-0.5"/>
<text text-anchor="middle" x="157" y="-7.5" font-family="Helvetica,sans-Serif" font-size="10.00">string_view</text>
</a>
</g>
</g>
<!-- Node8&#45;&gt;Node10 -->
<g id="edge10" class="edge">
<title>Node8&#45;&gt;Node10</title>
<path fill="none" stroke="midnightblue" d="M157,-56.4C157,-48.47 157,-38.46 157,-29.86"/>
<polygon fill="midnightblue" stroke="midnightblue" points="160.5,-29.66 157,-19.66 153.5,-29.66 160.5,-29.66"/>
</g>
<!-- Node11 -->
<g id="node11" class="node">
<title>Node11</title>
<g id="a_node11"><a xlink:title=" ">
<polygon fill="none" stroke="#bfbfbf" points="211.5,-0.5 211.5,-19.5 280.5,-19.5 280.5,-0.5 211.5,-0.5"/>
<text text-anchor="middle" x="246" y="-7.5" font-family="Helvetica,sans-Serif" font-size="10.00">Eigen/Core</text>
</a>
</g>
</g>
<!-- Node8&#45;&gt;Node11 -->
<g id="edge11" class="edge">
<title>Node8&#45;&gt;Node11</title>
<path fill="none" stroke="midnightblue" d="M178.09,-56.4C192.09,-47.04 210.41,-34.79 224.49,-25.38"/>
<polygon fill="midnightblue" stroke="midnightblue" points="226.68,-28.13 233.05,-19.66 222.79,-22.31 226.68,-28.13"/>
</g>
<!-- Node12&#45;&gt;Node3 -->
<g id="edge18" class="edge">
<title>Node12&#45;&gt;Node3</title>
<path fill="none" stroke="midnightblue" d="M331.5,-123.42C366.57,-113.88 413.29,-100.58 454,-87 456.26,-86.25 458.59,-85.44 460.92,-84.61"/>
<polygon fill="midnightblue" stroke="midnightblue" points="462.24,-87.85 470.41,-81.1 459.82,-81.28 462.24,-87.85"/>
</g>
<!-- Node12&#45;&gt;Node8 -->
<g id="edge14" class="edge">
<title>Node12&#45;&gt;Node8</title>
<path fill="none" stroke="midnightblue" d="M251.74,-123.4C234.3,-114.03 211.2,-101.62 192.17,-91.39"/>
<polygon fill="midnightblue" stroke="midnightblue" points="193.67,-88.23 183.2,-86.58 190.36,-94.39 193.67,-88.23"/>
</g>
<!-- Node13 -->
<g id="node13" class="node">
<title>Node13</title>
<g id="a_node13"><a xlink:title=" ">
<polygon fill="none" stroke="#bfbfbf" points="253.5,-62 253.5,-81 374.5,-81 374.5,-62 253.5,-62"/>
<text text-anchor="middle" x="314" y="-69" font-family="Helvetica,sans-Serif" font-size="10.00">iDynTree/Core/Span.h</text>
</a>
</g>
</g>
<!-- Node12&#45;&gt;Node13 -->
<g id="edge13" class="edge">
<title>Node12&#45;&gt;Node13</title>
<path fill="none" stroke="midnightblue" d="M285.81,-123.4C291.2,-113.66 298.41,-100.65 304.19,-90.21"/>
<polygon fill="midnightblue" stroke="midnightblue" points="307.4,-91.64 309.18,-81.19 301.28,-88.25 307.4,-91.64"/>
</g>
<!-- Node14 -->
<g id="node14" class="node">
<title>Node14</title>
<g id="a_node14"><a xlink:title=" ">
<polygon fill="none" stroke="#bfbfbf" points="739.5,-62 739.5,-81 804.5,-81 804.5,-62 739.5,-62"/>
<text text-anchor="middle" x="772" y="-69" font-family="Helvetica,sans-Serif" font-size="10.00">functional</text>
</a>
</g>
</g>
<!-- Node12&#45;&gt;Node14 -->
<g id="edge15" class="edge">
<title>Node12&#45;&gt;Node14</title>
<path fill="none" stroke="midnightblue" d="M353.57,-127.56C458.67,-113.73 645.49,-89.15 729.27,-78.12"/>
<polygon fill="midnightblue" stroke="midnightblue" points="729.99,-81.56 739.44,-76.78 729.07,-74.62 729.99,-81.56"/>
</g>
<!-- Node15 -->
<g id="node15" class="node">
<title>Node15</title>
<g id="a_node15"><a xlink:title=" ">
<polygon fill="none" stroke="#bfbfbf" points="393,-62 393,-81 445,-81 445,-62 393,-62"/>
<text text-anchor="middle" x="419" y="-69" font-family="Helvetica,sans-Serif" font-size="10.00">cassert</text>
</a>
</g>
</g>
<!-- Node12&#45;&gt;Node15 -->
<g id="edge16" class="edge">
<title>Node12&#45;&gt;Node15</title>
<path fill="none" stroke="midnightblue" d="M308.59,-123.4C333.23,-112.04 367.55,-96.22 391.36,-85.24"/>
<polygon fill="midnightblue" stroke="midnightblue" points="392.93,-88.37 400.55,-81.01 390,-82.02 392.93,-88.37"/>
</g>
<!-- Node16 -->
<g id="node16" class="node">
<title>Node16</title>
<g id="a_node16"><a xlink:title=" ">
<polygon fill="none" stroke="#bfbfbf" points="0,-62 0,-81 60,-81 60,-62 0,-62"/>
<text text-anchor="middle" x="30" y="-69" font-family="Helvetica,sans-Serif" font-size="10.00">iostream</text>
</a>
</g>
</g>
<!-- Node12&#45;&gt;Node16 -->
<g id="edge17" class="edge">
<title>Node12&#45;&gt;Node16</title>
<path fill="none" stroke="midnightblue" d="M211.09,-123.46C169.81,-114.28 115.95,-101.34 69,-87 66.43,-86.22 63.79,-85.35 61.15,-84.45"/>
<polygon fill="midnightblue" stroke="midnightblue" points="62.3,-81.15 51.71,-81.09 59.95,-87.74 62.3,-81.15"/>
</g>
<!-- Node17&#45;&gt;Node4 -->
<g id="edge27" class="edge">
<title>Node17&#45;&gt;Node4</title>
<path fill="none" stroke="midnightblue" d="M741.84,-391.4C717.56,-380.04 683.72,-364.22 660.25,-353.24"/>
<polygon fill="midnightblue" stroke="midnightblue" points="661.73,-350.07 651.19,-349.01 658.77,-356.41 661.73,-350.07"/>
</g>
<!-- Node17&#45;&gt;Node6 -->
<g id="edge29" class="edge">
<title>Node17&#45;&gt;Node6</title>
<path fill="none" stroke="midnightblue" d="M850.06,-394.14C872.81,-386.8 895.23,-374.75 909,-355 958.11,-284.56 857.57,-190.72 813.4,-154.57"/>
<polygon fill="midnightblue" stroke="midnightblue" points="815.37,-151.66 805.38,-148.14 810.99,-157.12 815.37,-151.66"/>
</g>
<!-- Node17&#45;&gt;Node14 -->
<g id="edge30" class="edge">
<title>Node17&#45;&gt;Node14</title>
<path fill="none" stroke="midnightblue" d="M850.02,-393.86C877.56,-386.51 907.09,-374.53 929,-355 958.7,-328.53 966,-313.28 966,-273.5 966,-273.5 966,-273.5 966,-204.5 966,-131.87 871.9,-96.38 814.77,-81.53"/>
<polygon fill="midnightblue" stroke="midnightblue" points="815.46,-78.09 804.91,-79.07 813.77,-84.88 815.46,-78.09"/>
</g>
<!-- Node18 -->
<g id="node18" class="node">
<title>Node18</title>
<g id="a_node18"><a xlink:href="Contact_8h.html" target="_top" xlink:title=" ">
<polygon fill="none" stroke="black" points="694,-324.5 694,-354.5 850,-354.5 850,-324.5 694,-324.5"/>
<text text-anchor="start" x="702" y="-342.5" font-family="Helvetica,sans-Serif" font-size="10.00">BipedalLocomotion/Contacts</text>
<text text-anchor="middle" x="772" y="-331.5" font-family="Helvetica,sans-Serif" font-size="10.00">/Contact.h</text>
</a>
</g>
</g>
<!-- Node17&#45;&gt;Node18 -->
<g id="edge20" class="edge">
<title>Node17&#45;&gt;Node18</title>
<path fill="none" stroke="midnightblue" d="M772,-391.4C772,-383.64 772,-373.81 772,-364.86"/>
<polygon fill="midnightblue" stroke="midnightblue" points="775.5,-364.58 772,-354.58 768.5,-364.58 775.5,-364.58"/>
</g>
<!-- Node23 -->
<g id="node23" class="node">
<title>Node23</title>
<g id="a_node23"><a xlink:title=" ">
<polygon fill="none" stroke="#bfbfbf" points="868,-330 868,-349 900,-349 900,-330 868,-330"/>
<text text-anchor="middle" x="884" y="-337" font-family="Helvetica,sans-Serif" font-size="10.00">set</text>
</a>
</g>
</g>
<!-- Node17&#45;&gt;Node23 -->
<g id="edge28" class="edge">
<title>Node17&#45;&gt;Node23</title>
<path fill="none" stroke="midnightblue" d="M796.3,-391.4C815.35,-380.34 841.68,-365.06 860.51,-354.13"/>
<polygon fill="midnightblue" stroke="midnightblue" points="862.45,-357.05 869.34,-349.01 858.94,-351 862.45,-357.05"/>
</g>
<!-- Node18&#45;&gt;Node6 -->
<g id="edge26" class="edge">
<title>Node18&#45;&gt;Node6</title>
<path fill="none" stroke="midnightblue" d="M773.58,-324.19C777.47,-288.99 787.51,-198.17 791.9,-158.51"/>
<polygon fill="midnightblue" stroke="midnightblue" points="795.4,-158.68 793.02,-148.36 788.44,-157.91 795.4,-158.68"/>
</g>
<!-- Node19 -->
<g id="node19" class="node">
<title>Node19</title>
<g id="a_node19"><a xlink:href="Wrench_8h.html" target="_top" xlink:title=" ">
<polygon fill="none" stroke="black" points="590,-257.5 590,-287.5 728,-287.5 728,-257.5 590,-257.5"/>
<text text-anchor="start" x="598" y="-275.5" font-family="Helvetica,sans-Serif" font-size="10.00">BipedalLocomotion/Math</text>
<text text-anchor="middle" x="659" y="-264.5" font-family="Helvetica,sans-Serif" font-size="10.00">/Wrench.h</text>
</a>
</g>
</g>
<!-- Node18&#45;&gt;Node19 -->
<g id="edge21" class="edge">
<title>Node18&#45;&gt;Node19</title>
<path fill="none" stroke="midnightblue" d="M747.48,-324.4C731.34,-315.11 710.01,-302.84 692.33,-292.67"/>
<polygon fill="midnightblue" stroke="midnightblue" points="693.88,-289.53 683.47,-287.58 690.39,-295.6 693.88,-289.53"/>
</g>
<!-- Node21 -->
<g id="node21" class="node">
<title>Node21</title>
<g id="a_node21"><a xlink:title=" ">
<polygon fill="none" stroke="#bfbfbf" points="689.5,-196 689.5,-215 764.5,-215 764.5,-196 689.5,-196"/>
<text text-anchor="middle" x="727" y="-203" font-family="Helvetica,sans-Serif" font-size="10.00">manif/SE3.h</text>
</a>
</g>
</g>
<!-- Node18&#45;&gt;Node21 -->
<g id="edge25" class="edge">
<title>Node18&#45;&gt;Node21</title>
<path fill="none" stroke="midnightblue" d="M767.18,-324.37C758.97,-300.29 742.28,-251.31 733.2,-224.7"/>
<polygon fill="midnightblue" stroke="midnightblue" points="736.47,-223.43 729.93,-215.1 729.84,-225.69 736.47,-223.43"/>
</g>
<!-- Node20 -->
<g id="node20" class="node">
<title>Node20</title>
<g id="a_node20"><a xlink:title=" ">
<polygon fill="none" stroke="#bfbfbf" points="592.5,-196 592.5,-215 669.5,-215 669.5,-196 592.5,-196"/>
<text text-anchor="middle" x="631" y="-203" font-family="Helvetica,sans-Serif" font-size="10.00">Eigen/Dense</text>
</a>
</g>
</g>
<!-- Node19&#45;&gt;Node20 -->
<g id="edge22" class="edge">
<title>Node19&#45;&gt;Node20</title>
<path fill="none" stroke="midnightblue" d="M652.92,-257.4C648.77,-247.76 643.24,-234.91 638.77,-224.54"/>
<polygon fill="midnightblue" stroke="midnightblue" points="641.92,-222.99 634.75,-215.19 635.49,-225.76 641.92,-222.99"/>
</g>
<!-- Node19&#45;&gt;Node21 -->
<g id="edge23" class="edge">
<title>Node19&#45;&gt;Node21</title>
<path fill="none" stroke="midnightblue" d="M673.75,-257.4C684.57,-247.06 699.25,-233.02 710.46,-222.31"/>
<polygon fill="midnightblue" stroke="midnightblue" points="713.09,-224.63 717.9,-215.19 708.26,-219.57 713.09,-224.63"/>
</g>
<!-- Node22 -->
<g id="node22" class="node">
<title>Node22</title>
<g id="a_node22"><a xlink:title=" ">
<polygon fill="none" stroke="#bfbfbf" points="86.5,-196 86.5,-215 163.5,-215 163.5,-196 86.5,-196"/>
<text text-anchor="middle" x="125" y="-203" font-family="Helvetica,sans-Serif" font-size="10.00">manif/SO3.h</text>
</a>
</g>
</g>
<!-- Node19&#45;&gt;Node22 -->
<g id="edge24" class="edge">
<title>Node19&#45;&gt;Node22</title>
<path fill="none" stroke="midnightblue" d="M589.97,-268.45C495.19,-263.34 319.79,-250.52 173,-221 168.78,-220.15 164.39,-219.09 160.06,-217.92"/>
<polygon fill="midnightblue" stroke="midnightblue" points="160.76,-214.48 150.18,-215.09 158.83,-221.21 160.76,-214.48"/>
</g>
<!-- Node24&#45;&gt;Node3 -->
<g id="edge33" class="edge">
<title>Node24&#45;&gt;Node3</title>
<path fill="none" stroke="midnightblue" d="M461.36,-391.48C469.99,-367.62 486,-317.45 486,-273.5 486,-273.5 486,-273.5 486,-204.5 486,-164.12 488.84,-116.85 490.61,-91.27"/>
<polygon fill="midnightblue" stroke="midnightblue" points="494.11,-91.37 491.33,-81.14 487.13,-90.87 494.11,-91.37"/>
</g>
<!-- Node24&#45;&gt;Node7 -->
<g id="edge32" class="edge">
<title>Node24&#45;&gt;Node7</title>
<path fill="none" stroke="midnightblue" d="M454.82,-391.2C451.11,-346.35 439.7,-208.45 435.54,-158.13"/>
<polygon fill="midnightblue" stroke="midnightblue" points="439.02,-157.73 434.71,-148.05 432.04,-158.3 439.02,-157.73"/>
</g>
<!-- Node24&#45;&gt;Node20 -->
<g id="edge34" class="edge">
<title>Node24&#45;&gt;Node20</title>
<path fill="none" stroke="midnightblue" d="M468.43,-391.44C477.29,-381.35 489.47,-367.41 500,-355 536.56,-311.92 543.08,-298.9 581,-257 591.84,-245.02 604.68,-232.08 614.63,-222.29"/>
<polygon fill="midnightblue" stroke="midnightblue" points="617.19,-224.69 621.9,-215.21 612.3,-219.68 617.19,-224.69"/>
</g>
<!-- Node24&#45;&gt;Node25 -->
<g id="edge35" class="edge">
<title>Node24&#45;&gt;Node25</title>
<path fill="none" stroke="midnightblue" d="M431.91,-391.4C416.06,-382.11 395.11,-369.84 377.74,-359.67"/>
<polygon fill="midnightblue" stroke="midnightblue" points="379.44,-356.61 369.04,-354.58 375.9,-362.65 379.44,-356.61"/>
</g>
<!-- Node26 -->
<g id="node26" class="node">
<title>Node26</title>
<g id="a_node26"><a xlink:href="Advanceable_8h.html" target="_top" xlink:title=" ">
<polygon fill="none" stroke="black" points="270,-257.5 270,-287.5 420,-287.5 420,-257.5 270,-257.5"/>
<text text-anchor="start" x="278" y="-275.5" font-family="Helvetica,sans-Serif" font-size="10.00">BipedalLocomotion/System</text>
<text text-anchor="middle" x="345" y="-264.5" font-family="Helvetica,sans-Serif" font-size="10.00">/Advanceable.h</text>
</a>
</g>
</g>
<!-- Node25&#45;&gt;Node26 -->
<g id="edge36" class="edge">
<title>Node25&#45;&gt;Node26</title>
<path fill="none" stroke="midnightblue" d="M345,-324.4C345,-316.64 345,-306.81 345,-297.86"/>
<polygon fill="midnightblue" stroke="midnightblue" points="348.5,-297.58 345,-287.58 341.5,-297.58 348.5,-297.58"/>
</g>
<!-- Node26&#45;&gt;Node5 -->
<g id="edge38" class="edge">
<title>Node26&#45;&gt;Node5</title>
<path fill="none" stroke="midnightblue" d="M327.86,-257.4C317.09,-248.54 303.02,-236.96 291.02,-227.09"/>
<polygon fill="midnightblue" stroke="midnightblue" points="293.05,-224.23 283.11,-220.58 288.61,-229.63 293.05,-224.23"/>
</g>
<!-- Node27 -->
<g id="node27" class="node">
<title>Node27</title>
<g id="a_node27"><a xlink:title=" ">
<polygon fill="none" stroke="#bfbfbf" points="368.5,-196 368.5,-215 419.5,-215 419.5,-196 368.5,-196"/>
<text text-anchor="middle" x="394" y="-203" font-family="Helvetica,sans-Serif" font-size="10.00">variant</text>
</a>
</g>
</g>
<!-- Node26&#45;&gt;Node27 -->
<g id="edge37" class="edge">
<title>Node26&#45;&gt;Node27</title>
<path fill="none" stroke="midnightblue" d="M355.63,-257.4C363.2,-247.36 373.39,-233.84 381.37,-223.25"/>
<polygon fill="midnightblue" stroke="midnightblue" points="384.22,-225.29 387.45,-215.19 378.63,-221.07 384.22,-225.29"/>
</g>
<!-- Node28&#45;&gt;Node22 -->
<g id="edge40" class="edge">
<title>Node28&#45;&gt;Node22</title>
<path fill="none" stroke="midnightblue" d="M143.42,-391.24C156.38,-364.37 180.27,-304.67 164,-257 159.52,-243.86 150.08,-231.49 141.61,-222.28"/>
<polygon fill="midnightblue" stroke="midnightblue" points="144.06,-219.77 134.57,-215.06 139.05,-224.66 144.06,-219.77"/>
</g>
<!-- Node28&#45;&gt;Node25 -->
<g id="edge41" class="edge">
<title>Node28&#45;&gt;Node25</title>
<path fill="none" stroke="midnightblue" d="M181.09,-391.48C212.98,-381.56 255.93,-368.2 289.86,-357.65"/>
<polygon fill="midnightblue" stroke="midnightblue" points="291.12,-360.92 299.63,-354.61 289.04,-354.24 291.12,-360.92"/>
</g>
<!-- Node29 -->
<g id="node29" class="node">
<title>Node29</title>
<g id="a_node29"><a xlink:href="SO3Planner_8tpp.html" target="_top" xlink:title=" ">
<polygon fill="none" stroke="black" points="0.5,-257.5 0.5,-287.5 155.5,-287.5 155.5,-257.5 0.5,-257.5"/>
<text text-anchor="start" x="8.5" y="-275.5" font-family="Helvetica,sans-Serif" font-size="10.00">BipedalLocomotion/Planners</text>
<text text-anchor="middle" x="78" y="-264.5" font-family="Helvetica,sans-Serif" font-size="10.00">/SO3Planner.tpp</text>
</a>
</g>
</g>
<!-- Node28&#45;&gt;Node29 -->
<g id="edge42" class="edge">
<title>Node28&#45;&gt;Node29</title>
<path fill="none" stroke="midnightblue" d="M125.42,-391.37C112.71,-368.85 92.92,-324.53 83.06,-297.12"/>
<polygon fill="midnightblue" stroke="midnightblue" points="86.33,-295.87 79.8,-287.52 79.7,-298.12 86.33,-295.87"/>
</g>
<!-- Node29&#45;&gt;Node16 -->
<g id="edge43" class="edge">
<title>Node29&#45;&gt;Node16</title>
<path fill="none" stroke="midnightblue" d="M74.55,-257.19C66.04,-221.91 44.06,-130.78 34.52,-91.25"/>
<polygon fill="midnightblue" stroke="midnightblue" points="37.88,-90.26 32.14,-81.36 31.08,-91.9 37.88,-90.26"/>
</g>
<!-- Node29&#45;&gt;Node22 -->
<g id="edge44" class="edge">
<title>Node29&#45;&gt;Node22</title>
<path fill="none" stroke="midnightblue" d="M88.2,-257.4C95.38,-247.46 105.04,-234.11 112.66,-223.57"/>
<polygon fill="midnightblue" stroke="midnightblue" points="115.69,-225.35 118.71,-215.19 110.02,-221.25 115.69,-225.35"/>
</g>
<!-- Node29&#45;&gt;Node28 -->
<g id="edge45" class="edge">
<title>Node29&#45;&gt;Node28</title>
<path fill="none" stroke="midnightblue" d="M88.52,-287.52C101.21,-309.99 121,-354.29 130.89,-381.75"/>
<polygon fill="midnightblue" stroke="midnightblue" points="127.63,-383.03 134.16,-391.37 134.26,-380.78 127.63,-383.03"/>
</g>
</g>
</svg>
        <g id="navigator" transform="translate(0 0)" fill="#404254">
                <rect fill="#f2f5e9" fill-opacity="0.5" stroke="#606060" stroke-width=".5" x="0" y="0" width="60" height="60"/>
                <use id="zoomplus" xlink:href="#zoomPlus" x="17" y="9" onmousedown="handleZoom(evt,'in')"/>
                <use id="zoomminus" xlink:href="#zoomMin" x="42" y="9" onmousedown="handleZoom(evt,'out')"/>
                <use id="reset" xlink:href="#resetDef" x="30" y="36" onmousedown="handleReset()"/>
                <g id="arrowUp" xlink:href="#dirArrow" transform="translate(30 24)" onmousedown="handlePan(0,-1)">
                  <use xlink:href="#rim" fill="#404040">
                        <set attributeName="fill" to="#808080" begin="arrowUp.mouseover" end="arrowUp.mouseout"/>
                  </use>
                  <path fill="none" stroke="white" stroke-width="1.5" d="M0,-3.0v7 M-2.5,-0.5L0,-3.0L2.5,-0.5"/>
                </g>
                <g id="arrowRight" xlink:href="#dirArrow" transform="rotate(90) translate(36 -43)" onmousedown="handlePan(1,0)">
                  <use xlink:href="#rim" fill="#404040">
                        <set attributeName="fill" to="#808080" begin="arrowRight.mouseover" end="arrowRight.mouseout"/>
                  </use>
                  <path fill="none" stroke="white" stroke-width="1.5" d="M0,-3.0v7 M-2.5,-0.5L0,-3.0L2.5,-0.5"/>
                </g>
                <g id="arrowDown" xlink:href="#dirArrow" transform="rotate(180) translate(-30 -48)" onmousedown="handlePan(0,1)">
                  <use xlink:href="#rim" fill="#404040">
                        <set attributeName="fill" to="#808080" begin="arrowDown.mouseover" end="arrowDown.mouseout"/>
                  </use>
                  <path fill="none" stroke="white" stroke-width="1.5" d="M0,-3.0v7 M-2.5,-0.5L0,-3.0L2.5,-0.5"/>
                </g>
                <g id="arrowLeft" xlink:href="#dirArrow" transform="rotate(270) translate(-36 17)" onmousedown="handlePan(-1,0)">
                  <use xlink:href="#rim" fill="#404040">
                        <set attributeName="fill" to="#808080" begin="arrowLeft.mouseover" end="arrowLeft.mouseout"/>
                  </use>
                  <path fill="none" stroke="white" stroke-width="1.5" d="M0,-3.0v7 M-2.5,-0.5L0,-3.0L2.5,-0.5"/>
                </g>
        </g>
        <svg viewBox="0 0 15 15" width="100%" height="30px" preserveAspectRatio="xMaxYMin meet">
         <g id="arrow_out" transform="scale(0.3 0.3)">
          <a xlink:href="SwingFootPlanner_8cpp__incl_org.svg" target="_base">
           <rect id="button" ry="5" rx="5" y="6" x="6" height="38" width="38"
                fill="#f2f5e9" fill-opacity="0.5" stroke="#606060" stroke-width="1.0"/>
           <path id="arrow"
             d="M 11.500037,31.436501 C 11.940474,20.09759 22.043105,11.32322 32.158766,21.979434 L 37.068811,17.246167 C 37.068811,17.246167 37.088388,32 37.088388,32 L 22.160133,31.978069 C 22.160133,31.978069 26.997745,27.140456 26.997745,27.140456 C 18.528582,18.264221 13.291696,25.230495 11.500037,31.436501 z"
             style="fill:#404040;"/>
          </a>
         </g>
        </svg>
</svg>
