<?xml version="1.0" encoding="UTF-8" standalone="no"?>
<!DOCTYPE svg PUBLIC "-//W3C//DTD SVG 1.1//EN"
 "http://www.w3.org/Graphics/SVG/1.1/DTD/svg11.dtd">
<!-- Generated by graphviz version 2.43.0 (0)
 -->
<!-- Title: Planners/include/BipedalLocomotion/Planners/SwingFootPlanner.h Pages: 1 -->
<svg width="1000pt" height="508pt"
 viewBox="0.00 0.00 999.50 508.00" xmlns="http://www.w3.org/2000/svg" xmlns:xlink="http://www.w3.org/1999/xlink">
<g id="graph0" class="graph" transform="scale(1 1) rotate(0) translate(4 504)">
<title>Planners/include/BipedalLocomotion/Planners/SwingFootPlanner.h</title>
<!-- Node1 -->
<g id="node1" class="node">
<title>Node1</title>
<g id="a_node1"><a xlink:title=" ">
<polygon fill="#bfbfbf" stroke="black" points="339,-458.5 339,-499.5 511,-499.5 511,-458.5 339,-458.5"/>
<text text-anchor="start" x="347" y="-487.5" font-family="Helvetica,sans-Serif" font-size="10.00">Planners/include/Bipedal</text>
<text text-anchor="start" x="347" y="-476.5" font-family="Helvetica,sans-Serif" font-size="10.00">Locomotion/Planners/SwingFoot</text>
<text text-anchor="middle" x="425" y="-465.5" font-family="Helvetica,sans-Serif" font-size="10.00">Planner.h</text>
</a>
</g>
</g>
<!-- Node2 -->
<g id="node2" class="node">
<title>Node2</title>
<g id="a_node2"><a xlink:title=" ">
<polygon fill="none" stroke="#bfbfbf" points="8,-62 8,-81 66,-81 66,-62 8,-62"/>
<text text-anchor="middle" x="37" y="-69" font-family="Helvetica,sans-Serif" font-size="10.00">memory</text>
</a>
</g>
</g>
<!-- Node1&#45;&gt;Node2 -->
<g id="edge1" class="edge">
<title>Node1&#45;&gt;Node2</title>
<path fill="none" stroke="midnightblue" d="M338.99,-467.86C214.81,-450.8 0,-411.07 0,-340.5 0,-340.5 0,-340.5 0,-204.5 0,-162.43 17.64,-115.53 28.56,-90.52"/>
<polygon fill="midnightblue" stroke="midnightblue" points="31.83,-91.78 32.76,-81.22 25.45,-88.9 31.83,-91.78"/>
</g>
<!-- Node3 -->
<g id="node3" class="node">
<title>Node3</title>
<g id="a_node3"><a xlink:title=" ">
<polygon fill="none" stroke="#bfbfbf" points="906.5,-330 906.5,-349 991.5,-349 991.5,-330 906.5,-330"/>
<text text-anchor="middle" x="949" y="-337" font-family="Helvetica,sans-Serif" font-size="10.00">manif/manif.h</text>
</a>
</g>
</g>
<!-- Node1&#45;&gt;Node3 -->
<g id="edge2" class="edge">
<title>Node1&#45;&gt;Node3</title>
<path fill="none" stroke="midnightblue" d="M511.26,-471.42C614.68,-462.64 781.3,-445.45 839,-422 876.74,-406.66 913.25,-375.33 933.26,-356.3"/>
<polygon fill="midnightblue" stroke="midnightblue" points="935.83,-358.69 940.55,-349.2 930.94,-353.67 935.83,-358.69"/>
</g>
<!-- Node4 -->
<g id="node4" class="node">
<title>Node4</title>
<g id="a_node4"><a xlink:href="IParametersHandler_8h.html" target="_top" xlink:title=" ">
<polygon fill="none" stroke="black" points="336.5,-190.5 336.5,-220.5 505.5,-220.5 505.5,-190.5 336.5,-190.5"/>
<text text-anchor="start" x="344.5" y="-208.5" font-family="Helvetica,sans-Serif" font-size="10.00">BipedalLocomotion/Parameters</text>
<text text-anchor="middle" x="421" y="-197.5" font-family="Helvetica,sans-Serif" font-size="10.00">Handler/IParametersHandler.h</text>
</a>
</g>
</g>
<!-- Node1&#45;&gt;Node4 -->
<g id="edge3" class="edge">
<title>Node1&#45;&gt;Node4</title>
<path fill="none" stroke="midnightblue" d="M472.42,-458.41C487.53,-449.63 502.51,-437.66 511,-422 517.57,-409.89 514.1,-404.42 511,-391 496.64,-328.79 458.3,-263.29 436.58,-229.58"/>
<polygon fill="midnightblue" stroke="midnightblue" points="439.33,-227.39 430.92,-220.94 433.47,-231.22 439.33,-227.39"/>
</g>
<!-- Node16 -->
<g id="node16" class="node">
<title>Node16</title>
<g id="a_node16"><a xlink:href="ContactList_8h.html" target="_top" xlink:title=" ">
<polygon fill="none" stroke="black" points="674,-391.5 674,-421.5 830,-421.5 830,-391.5 674,-391.5"/>
<text text-anchor="start" x="682" y="-409.5" font-family="Helvetica,sans-Serif" font-size="10.00">BipedalLocomotion/Contacts</text>
<text text-anchor="middle" x="752" y="-398.5" font-family="Helvetica,sans-Serif" font-size="10.00">/ContactList.h</text>
</a>
</g>
</g>
<!-- Node1&#45;&gt;Node16 -->
<g id="edge18" class="edge">
<title>Node1&#45;&gt;Node16</title>
<path fill="none" stroke="midnightblue" d="M511.34,-459.38C562.86,-448.28 627.63,-434.31 677,-423.67"/>
<polygon fill="midnightblue" stroke="midnightblue" points="677.93,-427.05 686.97,-421.52 676.46,-420.21 677.93,-427.05"/>
</g>
<!-- Node23 -->
<g id="node23" class="node">
<title>Node23</title>
<g id="a_node23"><a xlink:href="QuinticSpline_8h.html" target="_top" xlink:title=" ">
<polygon fill="none" stroke="black" points="347.5,-391.5 347.5,-421.5 502.5,-421.5 502.5,-391.5 347.5,-391.5"/>
<text text-anchor="start" x="355.5" y="-409.5" font-family="Helvetica,sans-Serif" font-size="10.00">BipedalLocomotion/Planners</text>
<text text-anchor="middle" x="425" y="-398.5" font-family="Helvetica,sans-Serif" font-size="10.00">/QuinticSpline.h</text>
</a>
</g>
</g>
<!-- Node1&#45;&gt;Node23 -->
<g id="edge30" class="edge">
<title>Node1&#45;&gt;Node23</title>
<path fill="none" stroke="midnightblue" d="M425,-458.36C425,-450.23 425,-440.7 425,-432.11"/>
<polygon fill="midnightblue" stroke="midnightblue" points="428.5,-431.89 425,-421.89 421.5,-431.89 428.5,-431.89"/>
</g>
<!-- Node24 -->
<g id="node24" class="node">
<title>Node24</title>
<g id="a_node24"><a xlink:href="Source_8h.html" target="_top" xlink:title=" ">
<polygon fill="none" stroke="black" points="240,-324.5 240,-354.5 390,-354.5 390,-324.5 240,-324.5"/>
<text text-anchor="start" x="248" y="-342.5" font-family="Helvetica,sans-Serif" font-size="10.00">BipedalLocomotion/System</text>
<text text-anchor="middle" x="315" y="-331.5" font-family="Helvetica,sans-Serif" font-size="10.00">/Source.h</text>
</a>
</g>
</g>
<!-- Node1&#45;&gt;Node24 -->
<g id="edge45" class="edge">
<title>Node1&#45;&gt;Node24</title>
<path fill="none" stroke="midnightblue" d="M381.61,-458.36C365.87,-449.31 349.22,-437.16 338,-422 325.62,-405.26 319.9,-382.1 317.26,-364.75"/>
<polygon fill="midnightblue" stroke="midnightblue" points="320.72,-364.28 315.98,-354.8 313.78,-365.17 320.72,-364.28"/>
</g>
<!-- Node27 -->
<g id="node27" class="node">
<title>Node27</title>
<g id="a_node27"><a xlink:href="SO3Planner_8h.html" target="_top" xlink:title=" ">
<polygon fill="none" stroke="black" points="134.5,-391.5 134.5,-421.5 289.5,-421.5 289.5,-391.5 134.5,-391.5"/>
<text text-anchor="start" x="142.5" y="-409.5" font-family="Helvetica,sans-Serif" font-size="10.00">BipedalLocomotion/Planners</text>
<text text-anchor="middle" x="212" y="-398.5" font-family="Helvetica,sans-Serif" font-size="10.00">/SO3Planner.h</text>
</a>
</g>
</g>
<!-- Node1&#45;&gt;Node27 -->
<g id="edge38" class="edge">
<title>Node1&#45;&gt;Node27</title>
<path fill="none" stroke="midnightblue" d="M365.95,-458.46C334.07,-447.9 295.05,-434.99 264.27,-424.8"/>
<polygon fill="midnightblue" stroke="midnightblue" points="265.18,-421.42 254.59,-421.6 262.98,-428.06 265.18,-421.42"/>
</g>
<!-- Node4&#45;&gt;Node2 -->
<g id="edge4" class="edge">
<title>Node4&#45;&gt;Node2</title>
<path fill="none" stroke="midnightblue" d="M366.03,-190.43C330.63,-181 283.77,-167.81 243,-154 178.86,-132.27 105.5,-101.88 65.94,-85.02"/>
<polygon fill="midnightblue" stroke="midnightblue" points="67.21,-81.75 56.64,-81.04 64.46,-88.19 67.21,-81.75"/>
</g>
<!-- Node5 -->
<g id="node5" class="node">
<title>Node5</title>
<g id="a_node5"><a xlink:title=" ">
<polygon fill="none" stroke="#bfbfbf" points="818,-129 818,-148 862,-148 862,-129 818,-129"/>
<text text-anchor="middle" x="840" y="-136" font-family="Helvetica,sans-Serif" font-size="10.00">string</text>
</a>
</g>
</g>
<!-- Node4&#45;&gt;Node5 -->
<g id="edge5" class="edge">
<title>Node4&#45;&gt;Node5</title>
<path fill="none" stroke="midnightblue" d="M505.54,-191.39C598.83,-176.91 744.23,-154.36 808.09,-144.45"/>
<polygon fill="midnightblue" stroke="midnightblue" points="808.63,-147.91 817.98,-142.92 807.56,-140.99 808.63,-147.91"/>
</g>
<!-- Node6 -->
<g id="node6" class="node">
<title>Node6</title>
<g id="a_node6"><a xlink:title=" ">
<polygon fill="none" stroke="#bfbfbf" points="483.5,-129 483.5,-148 530.5,-148 530.5,-129 483.5,-129"/>
<text text-anchor="middle" x="507" y="-136" font-family="Helvetica,sans-Serif" font-size="10.00">vector</text>
</a>
</g>
</g>
<!-- Node4&#45;&gt;Node6 -->
<g id="edge6" class="edge">
<title>Node4&#45;&gt;Node6</title>
<path fill="none" stroke="midnightblue" d="M439.66,-190.4C453.73,-179.76 472.99,-165.2 487.31,-154.38"/>
<polygon fill="midnightblue" stroke="midnightblue" points="489.63,-157.02 495.5,-148.19 485.41,-151.43 489.63,-157.02"/>
</g>
<!-- Node7 -->
<g id="node7" class="node">
<title>Node7</title>
<g id="a_node7"><a xlink:href="TemplateHelpers_8h_source.html" target="_top" xlink:title=" ">
<polygon fill="none" stroke="black" points="372,-56.5 372,-86.5 530,-86.5 530,-56.5 372,-56.5"/>
<text text-anchor="start" x="380" y="-74.5" font-family="Helvetica,sans-Serif" font-size="10.00">BipedalLocomotion/Generic</text>
<text text-anchor="middle" x="451" y="-63.5" font-family="Helvetica,sans-Serif" font-size="10.00">Container/TemplateHelpers.h</text>
</a>
</g>
</g>
<!-- Node4&#45;&gt;Node7 -->
<g id="edge7" class="edge">
<title>Node4&#45;&gt;Node7</title>
<path fill="none" stroke="midnightblue" d="M424.21,-190.37C429.31,-167.94 439.31,-123.92 445.55,-96.49"/>
<polygon fill="midnightblue" stroke="midnightblue" points="449.01,-97.05 447.81,-86.52 442.18,-95.5 449.01,-97.05"/>
</g>
<!-- Node11 -->
<g id="node11" class="node">
<title>Node11</title>
<g id="a_node11"><a xlink:href="Vector_8h_source.html" target="_top" xlink:title=" ">
<polygon fill="none" stroke="black" points="252.5,-123.5 252.5,-153.5 403.5,-153.5 403.5,-123.5 252.5,-123.5"/>
<text text-anchor="start" x="260.5" y="-141.5" font-family="Helvetica,sans-Serif" font-size="10.00">BipedalLocomotion/Generic</text>
<text text-anchor="middle" x="328" y="-130.5" font-family="Helvetica,sans-Serif" font-size="10.00">Container/Vector.h</text>
</a>
</g>
</g>
<!-- Node4&#45;&gt;Node11 -->
<g id="edge11" class="edge">
<title>Node4&#45;&gt;Node11</title>
<path fill="none" stroke="midnightblue" d="M400.82,-190.4C387.9,-181.37 370.94,-169.51 356.64,-159.52"/>
<polygon fill="midnightblue" stroke="midnightblue" points="358.34,-156.44 348.14,-153.58 354.33,-162.17 358.34,-156.44"/>
</g>
<!-- Node8 -->
<g id="node8" class="node">
<title>Node8</title>
<g id="a_node8"><a xlink:title=" ">
<polygon fill="none" stroke="#bfbfbf" points="327.5,-0.5 327.5,-19.5 396.5,-19.5 396.5,-0.5 327.5,-0.5"/>
<text text-anchor="middle" x="362" y="-7.5" font-family="Helvetica,sans-Serif" font-size="10.00">type_traits</text>
</a>
</g>
</g>
<!-- Node7&#45;&gt;Node8 -->
<g id="edge8" class="edge">
<title>Node7&#45;&gt;Node8</title>
<path fill="none" stroke="midnightblue" d="M429.91,-56.4C415.91,-47.04 397.59,-34.79 383.51,-25.38"/>
<polygon fill="midnightblue" stroke="midnightblue" points="385.21,-22.31 374.95,-19.66 381.32,-28.13 385.21,-22.31"/>
</g>
<!-- Node9 -->
<g id="node9" class="node">
<title>Node9</title>
<g id="a_node9"><a xlink:title=" ">
<polygon fill="none" stroke="#bfbfbf" points="414.5,-0.5 414.5,-19.5 487.5,-19.5 487.5,-0.5 414.5,-0.5"/>
<text text-anchor="middle" x="451" y="-7.5" font-family="Helvetica,sans-Serif" font-size="10.00">string_view</text>
</a>
</g>
</g>
<!-- Node7&#45;&gt;Node9 -->
<g id="edge9" class="edge">
<title>Node7&#45;&gt;Node9</title>
<path fill="none" stroke="midnightblue" d="M451,-56.4C451,-48.47 451,-38.46 451,-29.86"/>
<polygon fill="midnightblue" stroke="midnightblue" points="454.5,-29.66 451,-19.66 447.5,-29.66 454.5,-29.66"/>
</g>
<!-- Node10 -->
<g id="node10" class="node">
<title>Node10</title>
<g id="a_node10"><a xlink:title=" ">
<polygon fill="none" stroke="#bfbfbf" points="505.5,-0.5 505.5,-19.5 574.5,-19.5 574.5,-0.5 505.5,-0.5"/>
<text text-anchor="middle" x="540" y="-7.5" font-family="Helvetica,sans-Serif" font-size="10.00">Eigen/Core</text>
</a>
</g>
</g>
<!-- Node7&#45;&gt;Node10 -->
<g id="edge10" class="edge">
<title>Node7&#45;&gt;Node10</title>
<path fill="none" stroke="midnightblue" d="M472.09,-56.4C486.09,-47.04 504.41,-34.79 518.49,-25.38"/>
<polygon fill="midnightblue" stroke="midnightblue" points="520.68,-28.13 527.05,-19.66 516.79,-22.31 520.68,-28.13"/>
</g>
<!-- Node11&#45;&gt;Node2 -->
<g id="edge17" class="edge">
<title>Node11&#45;&gt;Node2</title>
<path fill="none" stroke="midnightblue" d="M252.48,-125.84C201.77,-117.17 133.74,-103.94 75,-87 72.42,-86.26 69.76,-85.41 67.11,-84.51"/>
<polygon fill="midnightblue" stroke="midnightblue" points="68.29,-81.22 57.69,-81.12 65.91,-87.8 68.29,-81.22"/>
</g>
<!-- Node11&#45;&gt;Node7 -->
<g id="edge13" class="edge">
<title>Node11&#45;&gt;Node7</title>
<path fill="none" stroke="midnightblue" d="M354.69,-123.4C372.5,-113.98 396.12,-101.5 415.51,-91.26"/>
<polygon fill="midnightblue" stroke="midnightblue" points="417.16,-94.34 424.36,-86.58 413.89,-88.15 417.16,-94.34"/>
</g>
<!-- Node12 -->
<g id="node12" class="node">
<title>Node12</title>
<g id="a_node12"><a xlink:title=" ">
<polygon fill="none" stroke="#bfbfbf" points="162.5,-62 162.5,-81 283.5,-81 283.5,-62 162.5,-62"/>
<text text-anchor="middle" x="223" y="-69" font-family="Helvetica,sans-Serif" font-size="10.00">iDynTree/Core/Span.h</text>
</a>
</g>
</g>
<!-- Node11&#45;&gt;Node12 -->
<g id="edge12" class="edge">
<title>Node11&#45;&gt;Node12</title>
<path fill="none" stroke="midnightblue" d="M305.22,-123.4C287.45,-112.39 262.9,-97.2 245.26,-86.28"/>
<polygon fill="midnightblue" stroke="midnightblue" points="247.09,-83.29 236.74,-81.01 243.4,-89.25 247.09,-83.29"/>
</g>
<!-- Node13 -->
<g id="node13" class="node">
<title>Node13</title>
<g id="a_node13"><a xlink:title=" ">
<polygon fill="none" stroke="#bfbfbf" points="548.5,-62 548.5,-81 613.5,-81 613.5,-62 548.5,-62"/>
<text text-anchor="middle" x="581" y="-69" font-family="Helvetica,sans-Serif" font-size="10.00">functional</text>
</a>
</g>
</g>
<!-- Node11&#45;&gt;Node13 -->
<g id="edge14" class="edge">
<title>Node11&#45;&gt;Node13</title>
<path fill="none" stroke="midnightblue" d="M394.01,-123.44C435.83,-114.1 490.91,-101.02 539,-87 541.94,-86.14 544.98,-85.2 548.02,-84.22"/>
<polygon fill="midnightblue" stroke="midnightblue" points="549.2,-87.52 557.58,-81.04 546.99,-80.88 549.2,-87.52"/>
</g>
<!-- Node14 -->
<g id="node14" class="node">
<title>Node14</title>
<g id="a_node14"><a xlink:title=" ">
<polygon fill="none" stroke="#bfbfbf" points="302,-62 302,-81 354,-81 354,-62 302,-62"/>
<text text-anchor="middle" x="328" y="-69" font-family="Helvetica,sans-Serif" font-size="10.00">cassert</text>
</a>
</g>
</g>
<!-- Node11&#45;&gt;Node14 -->
<g id="edge15" class="edge">
<title>Node11&#45;&gt;Node14</title>
<path fill="none" stroke="midnightblue" d="M328,-123.4C328,-114.06 328,-101.71 328,-91.52"/>
<polygon fill="midnightblue" stroke="midnightblue" points="331.5,-91.19 328,-81.19 324.5,-91.19 331.5,-91.19"/>
</g>
<!-- Node15 -->
<g id="node15" class="node">
<title>Node15</title>
<g id="a_node15"><a xlink:title=" ">
<polygon fill="none" stroke="#bfbfbf" points="84,-62 84,-81 144,-81 144,-62 84,-62"/>
<text text-anchor="middle" x="114" y="-69" font-family="Helvetica,sans-Serif" font-size="10.00">iostream</text>
</a>
</g>
</g>
<!-- Node11&#45;&gt;Node15 -->
<g id="edge16" class="edge">
<title>Node11&#45;&gt;Node15</title>
<path fill="none" stroke="midnightblue" d="M275.62,-123.49C240.68,-113.88 193.84,-100.46 153,-87 150.6,-86.21 148.13,-85.36 145.64,-84.49"/>
<polygon fill="midnightblue" stroke="midnightblue" points="146.77,-81.18 136.17,-81.07 144.39,-87.76 146.77,-81.18"/>
</g>
<!-- Node16&#45;&gt;Node3 -->
<g id="edge26" class="edge">
<title>Node16&#45;&gt;Node3</title>
<path fill="none" stroke="midnightblue" d="M794.75,-391.4C830.23,-379.69 880.11,-363.23 913.44,-352.23"/>
<polygon fill="midnightblue" stroke="midnightblue" points="914.82,-355.46 923.22,-349.01 912.62,-348.82 914.82,-355.46"/>
</g>
<!-- Node16&#45;&gt;Node5 -->
<g id="edge28" class="edge">
<title>Node16&#45;&gt;Node5</title>
<path fill="none" stroke="midnightblue" d="M810.52,-391.43C829.27,-383.85 848,-372.35 859,-355 898.97,-291.94 865.41,-196.88 848.41,-157.54"/>
<polygon fill="midnightblue" stroke="midnightblue" points="851.51,-155.88 844.23,-148.19 845.12,-158.74 851.51,-155.88"/>
</g>
<!-- Node16&#45;&gt;Node13 -->
<g id="edge29" class="edge">
<title>Node16&#45;&gt;Node13</title>
<path fill="none" stroke="midnightblue" d="M692.05,-391.47C671.33,-383.85 649.65,-372.31 635,-355 568.4,-276.31 574.1,-140.82 578.8,-91.31"/>
<polygon fill="midnightblue" stroke="midnightblue" points="582.31,-91.45 579.87,-81.14 575.34,-90.71 582.31,-91.45"/>
</g>
<!-- Node17 -->
<g id="node17" class="node">
<title>Node17</title>
<g id="a_node17"><a xlink:href="Contact_8h.html" target="_top" xlink:title=" ">
<polygon fill="none" stroke="black" points="644,-324.5 644,-354.5 800,-354.5 800,-324.5 644,-324.5"/>
<text text-anchor="start" x="652" y="-342.5" font-family="Helvetica,sans-Serif" font-size="10.00">BipedalLocomotion/Contacts</text>
<text text-anchor="middle" x="722" y="-331.5" font-family="Helvetica,sans-Serif" font-size="10.00">/Contact.h</text>
</a>
</g>
</g>
<!-- Node16&#45;&gt;Node17 -->
<g id="edge19" class="edge">
<title>Node16&#45;&gt;Node17</title>
<path fill="none" stroke="midnightblue" d="M745.49,-391.4C741.76,-383.3 736.97,-372.94 732.7,-363.69"/>
<polygon fill="midnightblue" stroke="midnightblue" points="735.87,-362.19 728.5,-354.58 729.51,-365.12 735.87,-362.19"/>
</g>
<!-- Node22 -->
<g id="node22" class="node">
<title>Node22</title>
<g id="a_node22"><a xlink:title=" ">
<polygon fill="none" stroke="#bfbfbf" points="818,-330 818,-349 850,-349 850,-330 818,-330"/>
<text text-anchor="middle" x="834" y="-337" font-family="Helvetica,sans-Serif" font-size="10.00">set</text>
</a>
</g>
</g>
<!-- Node16&#45;&gt;Node22 -->
<g id="edge27" class="edge">
<title>Node16&#45;&gt;Node22</title>
<path fill="none" stroke="midnightblue" d="M769.79,-391.4C783.08,-380.86 801.23,-366.48 814.84,-355.69"/>
<polygon fill="midnightblue" stroke="midnightblue" points="817.37,-358.15 823.03,-349.19 813.02,-352.66 817.37,-358.15"/>
</g>
<!-- Node17&#45;&gt;Node5 -->
<g id="edge25" class="edge">
<title>Node17&#45;&gt;Node5</title>
<path fill="none" stroke="midnightblue" d="M753.76,-324.43C769.49,-315.97 787.51,-303.76 799,-288 828.07,-248.12 836.53,-188.59 838.99,-158.45"/>
<polygon fill="midnightblue" stroke="midnightblue" points="842.51,-158.32 839.69,-148.11 835.53,-157.85 842.51,-158.32"/>
</g>
<!-- Node18 -->
<g id="node18" class="node">
<title>Node18</title>
<g id="a_node18"><a xlink:href="Wrench_8h.html" target="_top" xlink:title=" ">
<polygon fill="none" stroke="black" points="636,-257.5 636,-287.5 774,-287.5 774,-257.5 636,-257.5"/>
<text text-anchor="start" x="644" y="-275.5" font-family="Helvetica,sans-Serif" font-size="10.00">BipedalLocomotion/Math</text>
<text text-anchor="middle" x="705" y="-264.5" font-family="Helvetica,sans-Serif" font-size="10.00">/Wrench.h</text>
</a>
</g>
</g>
<!-- Node17&#45;&gt;Node18 -->
<g id="edge20" class="edge">
<title>Node17&#45;&gt;Node18</title>
<path fill="none" stroke="midnightblue" d="M718.31,-324.4C716.24,-316.47 713.6,-306.38 711.22,-297.27"/>
<polygon fill="midnightblue" stroke="midnightblue" points="714.6,-296.37 708.68,-287.58 707.83,-298.14 714.6,-296.37"/>
</g>
<!-- Node20 -->
<g id="node20" class="node">
<title>Node20</title>
<g id="a_node20"><a xlink:title=" ">
<polygon fill="none" stroke="#bfbfbf" points="726.5,-196 726.5,-215 801.5,-215 801.5,-196 726.5,-196"/>
<text text-anchor="middle" x="764" y="-203" font-family="Helvetica,sans-Serif" font-size="10.00">manif/SE3.h</text>
</a>
</g>
</g>
<!-- Node17&#45;&gt;Node20 -->
<g id="edge24" class="edge">
<title>Node17&#45;&gt;Node20</title>
<path fill="none" stroke="midnightblue" d="M748.14,-324.37C761.21,-315.76 775.74,-303.43 783,-288 792.72,-267.34 783.34,-241.33 774.66,-224.33"/>
<polygon fill="midnightblue" stroke="midnightblue" points="777.66,-222.53 769.77,-215.46 771.53,-225.91 777.66,-222.53"/>
</g>
<!-- Node19 -->
<g id="node19" class="node">
<title>Node19</title>
<g id="a_node19"><a xlink:title=" ">
<polygon fill="none" stroke="#bfbfbf" points="610.5,-196 610.5,-215 687.5,-215 687.5,-196 610.5,-196"/>
<text text-anchor="middle" x="649" y="-203" font-family="Helvetica,sans-Serif" font-size="10.00">Eigen/Dense</text>
</a>
</g>
</g>
<!-- Node18&#45;&gt;Node19 -->
<g id="edge21" class="edge">
<title>Node18&#45;&gt;Node19</title>
<path fill="none" stroke="midnightblue" d="M692.85,-257.4C684.12,-247.26 672.32,-233.57 663.16,-222.94"/>
<polygon fill="midnightblue" stroke="midnightblue" points="665.67,-220.49 656.49,-215.19 660.37,-225.06 665.67,-220.49"/>
</g>
<!-- Node18&#45;&gt;Node20 -->
<g id="edge22" class="edge">
<title>Node18&#45;&gt;Node20</title>
<path fill="none" stroke="midnightblue" d="M717.8,-257.4C727.09,-247.16 739.68,-233.3 749.37,-222.62"/>
<polygon fill="midnightblue" stroke="midnightblue" points="751.98,-224.95 756.11,-215.19 746.8,-220.25 751.98,-224.95"/>
</g>
<!-- Node21 -->
<g id="node21" class="node">
<title>Node21</title>
<g id="a_node21"><a xlink:title=" ">
<polygon fill="none" stroke="#bfbfbf" points="134.5,-196 134.5,-215 211.5,-215 211.5,-196 134.5,-196"/>
<text text-anchor="middle" x="173" y="-203" font-family="Helvetica,sans-Serif" font-size="10.00">manif/SO3.h</text>
</a>
</g>
</g>
<!-- Node18&#45;&gt;Node21 -->
<g id="edge23" class="edge">
<title>Node18&#45;&gt;Node21</title>
<path fill="none" stroke="midnightblue" d="M635.68,-268.54C540.97,-263.54 366.19,-250.86 220,-221 215.86,-220.15 211.56,-219.09 207.32,-217.93"/>
<polygon fill="midnightblue" stroke="midnightblue" points="208.23,-214.55 197.64,-215.09 206.26,-221.27 208.23,-214.55"/>
</g>
<!-- Node23&#45;&gt;Node2 -->
<g id="edge32" class="edge">
<title>Node23&#45;&gt;Node2</title>
<path fill="none" stroke="midnightblue" d="M426.47,-391.2C428.62,-362.67 429.49,-297.93 399,-257 377.63,-228.31 357.04,-240.43 327,-221 308.7,-209.17 308.36,-200.01 289,-190 235.75,-162.46 213.51,-178.97 159,-154 119.37,-135.85 78.2,-105.54 55.27,-87.45"/>
<polygon fill="midnightblue" stroke="midnightblue" points="57.4,-84.67 47.41,-81.16 53.03,-90.14 57.4,-84.67"/>
</g>
<!-- Node23&#45;&gt;Node6 -->
<g id="edge31" class="edge">
<title>Node23&#45;&gt;Node6</title>
<path fill="none" stroke="midnightblue" d="M434.82,-391.04C454.55,-361 498.47,-288.95 514,-221 518.83,-199.85 515.41,-174.93 511.86,-158.26"/>
<polygon fill="midnightblue" stroke="midnightblue" points="515.18,-157.12 509.48,-148.19 508.37,-158.72 515.18,-157.12"/>
</g>
<!-- Node23&#45;&gt;Node19 -->
<g id="edge33" class="edge">
<title>Node23&#45;&gt;Node19</title>
<path fill="none" stroke="midnightblue" d="M441.11,-391.19C481.93,-354.93 589.16,-259.67 631.47,-222.07"/>
<polygon fill="midnightblue" stroke="midnightblue" points="633.88,-224.62 639.03,-215.36 629.23,-219.39 633.88,-224.62"/>
</g>
<!-- Node23&#45;&gt;Node24 -->
<g id="edge34" class="edge">
<title>Node23&#45;&gt;Node24</title>
<path fill="none" stroke="midnightblue" d="M401.13,-391.4C385.42,-382.11 364.65,-369.84 347.45,-359.67"/>
<polygon fill="midnightblue" stroke="midnightblue" points="349.21,-356.65 338.82,-354.58 345.65,-362.68 349.21,-356.65"/>
</g>
<!-- Node25 -->
<g id="node25" class="node">
<title>Node25</title>
<g id="a_node25"><a xlink:href="Advanceable_8h.html" target="_top" xlink:title=" ">
<polygon fill="none" stroke="black" points="240,-257.5 240,-287.5 390,-287.5 390,-257.5 240,-257.5"/>
<text text-anchor="start" x="248" y="-275.5" font-family="Helvetica,sans-Serif" font-size="10.00">BipedalLocomotion/System</text>
<text text-anchor="middle" x="315" y="-264.5" font-family="Helvetica,sans-Serif" font-size="10.00">/Advanceable.h</text>
</a>
</g>
</g>
<!-- Node24&#45;&gt;Node25 -->
<g id="edge35" class="edge">
<title>Node24&#45;&gt;Node25</title>
<path fill="none" stroke="midnightblue" d="M315,-324.4C315,-316.64 315,-306.81 315,-297.86"/>
<polygon fill="midnightblue" stroke="midnightblue" points="318.5,-297.58 315,-287.58 311.5,-297.58 318.5,-297.58"/>
</g>
<!-- Node25&#45;&gt;Node4 -->
<g id="edge37" class="edge">
<title>Node25&#45;&gt;Node4</title>
<path fill="none" stroke="midnightblue" d="M338,-257.4C353,-248.2 372.79,-236.07 389.27,-225.95"/>
<polygon fill="midnightblue" stroke="midnightblue" points="391.35,-228.79 398.04,-220.58 387.69,-222.82 391.35,-228.79"/>
</g>
<!-- Node26 -->
<g id="node26" class="node">
<title>Node26</title>
<g id="a_node26"><a xlink:title=" ">
<polygon fill="none" stroke="#bfbfbf" points="229.5,-196 229.5,-215 280.5,-215 280.5,-196 229.5,-196"/>
<text text-anchor="middle" x="255" y="-203" font-family="Helvetica,sans-Serif" font-size="10.00">variant</text>
</a>
</g>
</g>
<!-- Node25&#45;&gt;Node26 -->
<g id="edge36" class="edge">
<title>Node25&#45;&gt;Node26</title>
<path fill="none" stroke="midnightblue" d="M301.98,-257.4C292.53,-247.16 279.73,-233.3 269.88,-222.62"/>
<polygon fill="midnightblue" stroke="midnightblue" points="272.38,-220.17 263.03,-215.19 267.24,-224.92 272.38,-220.17"/>
</g>
<!-- Node27&#45;&gt;Node21 -->
<g id="edge39" class="edge">
<title>Node27&#45;&gt;Node21</title>
<path fill="none" stroke="midnightblue" d="M211.16,-391.38C209.35,-364.75 204.21,-305.43 192,-257 189.24,-246.04 184.86,-234.2 181.01,-224.74"/>
<polygon fill="midnightblue" stroke="midnightblue" points="184.11,-223.09 176.98,-215.25 177.66,-225.82 184.11,-223.09"/>
</g>
<!-- Node27&#45;&gt;Node24 -->
<g id="edge40" class="edge">
<title>Node27&#45;&gt;Node24</title>
<path fill="none" stroke="midnightblue" d="M234.35,-391.4C248.93,-382.2 268.15,-370.07 284.17,-359.95"/>
<polygon fill="midnightblue" stroke="midnightblue" points="286.11,-362.87 292.69,-354.58 282.37,-356.95 286.11,-362.87"/>
</g>
<!-- Node28 -->
<g id="node28" class="node">
<title>Node28</title>
<g id="a_node28"><a xlink:href="SO3Planner_8tpp.html" target="_top" xlink:title=" ">
<polygon fill="none" stroke="black" points="28.5,-257.5 28.5,-287.5 183.5,-287.5 183.5,-257.5 28.5,-257.5"/>
<text text-anchor="start" x="36.5" y="-275.5" font-family="Helvetica,sans-Serif" font-size="10.00">BipedalLocomotion/Planners</text>
<text text-anchor="middle" x="106" y="-264.5" font-family="Helvetica,sans-Serif" font-size="10.00">/SO3Planner.tpp</text>
</a>
</g>
</g>
<!-- Node27&#45;&gt;Node28 -->
<g id="edge41" class="edge">
<title>Node27&#45;&gt;Node28</title>
<path fill="none" stroke="midnightblue" d="M196.29,-391.37C175.1,-368.55 138.53,-323.36 118.87,-296.04"/>
<polygon fill="midnightblue" stroke="midnightblue" points="121.51,-293.71 112.9,-287.52 115.78,-297.72 121.51,-293.71"/>
</g>
<!-- Node28&#45;&gt;Node15 -->
<g id="edge42" class="edge">
<title>Node28&#45;&gt;Node15</title>
<path fill="none" stroke="midnightblue" d="M106.58,-257.19C107.99,-221.99 111.64,-131.17 113.24,-91.51"/>
<polygon fill="midnightblue" stroke="midnightblue" points="116.74,-91.49 113.64,-81.36 109.74,-91.21 116.74,-91.49"/>
</g>
<!-- Node28&#45;&gt;Node21 -->
<g id="edge43" class="edge">
<title>Node28&#45;&gt;Node21</title>
<path fill="none" stroke="midnightblue" d="M120.54,-257.4C131.19,-247.06 145.66,-233.02 156.7,-222.31"/>
<polygon fill="midnightblue" stroke="midnightblue" points="159.3,-224.67 164.04,-215.19 154.42,-219.65 159.3,-224.67"/>
</g>
<!-- Node28&#45;&gt;Node27 -->
<g id="edge44" class="edge">
<title>Node28&#45;&gt;Node27</title>
<path fill="none" stroke="midnightblue" d="M121.62,-287.52C142.76,-310.28 179.33,-355.47 199.04,-382.83"/>
<polygon fill="midnightblue" stroke="midnightblue" points="196.42,-385.2 205.03,-391.37 202.15,-381.18 196.42,-385.2"/>
</g>
</g>
</svg>
