<?xml version="1.0" encoding="UTF-8" standalone="no"?>
<!DOCTYPE svg PUBLIC "-//W3C//DTD SVG 1.1//EN"
 "http://www.w3.org/Graphics/SVG/1.1/DTD/svg11.dtd">
<!-- Generated by graphviz version 2.43.0 (0)
 -->
<!-- Title: TSID/include/BipedalLocomotion/TSID/TaskSpaceInverseDynamics.h Pages: 1 -->
<!--zoomable 430 -->
<svg id="main" version="1.1" xmlns="http://www.w3.org/2000/svg" xmlns:xlink="http://www.w3.org/1999/xlink" xml:space="preserve" onload="init(evt)">
<style type="text/css"><![CDATA[
.edge:hover path { stroke: red; }
.edge:hover polygon { stroke: red; fill: red; }
]]></style>
<script type="text/javascript"><![CDATA[
var edges = document.getElementsByTagName('g');
if (edges && edges.length) {
  for (var i=0;i<edges.length;i++) {
    if (edges[i].id.substr(0,4)=='edge') {
      edges[i].setAttribute('class','edge');
    }
  }
}
]]></script>
        <defs>
                <circle id="rim" cx="0" cy="0" r="7"/>
                <circle id="rim2" cx="0" cy="0" r="3.5"/>
                <g id="zoomPlus">
                        <use xlink:href="#rim" fill="#404040">
                                <set attributeName="fill" to="#808080" begin="zoomplus.mouseover" end="zoomplus.mouseout"/>
                        </use>
                        <path d="M-4,0h8M0,-4v8" fill="none" stroke="white" stroke-width="1.5" pointer-events="none"/>
                </g>
                <g id="zoomMin">
                        <use xlink:href="#rim" fill="#404040">
                                <set attributeName="fill" to="#808080" begin="zoomminus.mouseover" end="zoomminus.mouseout"/>
                        </use>
                        <path d="M-4,0h8" fill="none" stroke="white" stroke-width="1.5" pointer-events="none"/>
                </g>
                <g id="dirArrow">
                        <path fill="none" stroke="white" stroke-width="1.5" d="M0,-3.0v7 M-2.5,-0.5L0,-3.0L2.5,-0.5"/>
                </g>
               <g id="resetDef">
                       <use xlink:href="#rim2" fill="#404040">
                               <set attributeName="fill" to="#808080" begin="reset.mouseover" end="reset.mouseout"/>
                       </use>
               </g>
        </defs>

<script type="text/javascript">
var viewWidth = 1246;
var viewHeight = 430;
var sectionId = 'dynsection-0';
</script>
<script xlink:href="svgpan.js"/>
<svg id="graph" class="graph">
<g id="viewport">
<title>TSID/include/BipedalLocomotion/TSID/TaskSpaceInverseDynamics.h</title>
<!-- Node1 -->
<g id="node1" class="node">
<title>Node1</title>
<g id="a_node1"><a xlink:title=" ">
<polygon fill="#bfbfbf" stroke="black" points="730.5,-391.5 730.5,-421.5 920.5,-421.5 920.5,-391.5 730.5,-391.5"/>
<text text-anchor="start" x="738.5" y="-409.5" font-family="Helvetica,sans-Serif" font-size="10.00">TSID/include/BipedalLocomotion</text>
<text text-anchor="middle" x="825.5" y="-398.5" font-family="Helvetica,sans-Serif" font-size="10.00">/TSID/TaskSpaceInverseDynamics.h</text>
</a>
</g>
</g>
<!-- Node2 -->
<g id="node2" class="node">
<title>Node2</title>
<g id="a_node2"><a xlink:title=" ">
<polygon fill="none" stroke="#bfbfbf" points="0,-62 0,-81 65,-81 65,-62 0,-62"/>
<text text-anchor="middle" x="32.5" y="-69" font-family="Helvetica,sans-Serif" font-size="10.00">functional</text>
</a>
</g>
</g>
<!-- Node1&#45;&gt;Node2 -->
<g id="edge1" class="edge">
<title>Node1&#45;&gt;Node2</title>
<path fill="none" stroke="midnightblue" d="M730.36,-401.49C582.33,-394.61 303.87,-378.95 207.5,-355 124.23,-334.31 32.5,-359.3 32.5,-273.5 32.5,-273.5 32.5,-273.5 32.5,-204.5 32.5,-164.16 32.5,-116.88 32.5,-91.28"/>
<polygon fill="midnightblue" stroke="midnightblue" points="36,-91.15 32.5,-81.15 29,-91.15 36,-91.15"/>
</g>
<!-- Node3 -->
<g id="node3" class="node">
<title>Node3</title>
<g id="a_node3"><a xlink:title=" ">
<polygon fill="none" stroke="#bfbfbf" points="988.5,-330 988.5,-349 1044.5,-349 1044.5,-330 988.5,-330"/>
<text text-anchor="middle" x="1016.5" y="-337" font-family="Helvetica,sans-Serif" font-size="10.00">optional</text>
</a>
</g>
</g>
<!-- Node1&#45;&gt;Node3 -->
<g id="edge2" class="edge">
<title>Node1&#45;&gt;Node3</title>
<path fill="none" stroke="midnightblue" d="M867.27,-391.41C897.15,-381.32 938.32,-367.38 974.5,-355 976.93,-354.17 979.43,-353.31 981.95,-352.44"/>
<polygon fill="midnightblue" stroke="midnightblue" points="983.32,-355.68 991.63,-349.11 981.04,-349.06 983.32,-355.68"/>
</g>
<!-- Node4 -->
<g id="node4" class="node">
<title>Node4</title>
<g id="a_node4"><a xlink:href="LinearTask_8h.html" target="_top" xlink:title=" ">
<polygon fill="none" stroke="black" points="539.5,-324.5 539.5,-354.5 689.5,-354.5 689.5,-324.5 539.5,-324.5"/>
<text text-anchor="start" x="547.5" y="-342.5" font-family="Helvetica,sans-Serif" font-size="10.00">BipedalLocomotion/System</text>
<text text-anchor="middle" x="614.5" y="-331.5" font-family="Helvetica,sans-Serif" font-size="10.00">/LinearTask.h</text>
</a>
</g>
</g>
<!-- Node1&#45;&gt;Node4 -->
<g id="edge3" class="edge">
<title>Node1&#45;&gt;Node4</title>
<path fill="none" stroke="midnightblue" d="M779.98,-391.48C747.78,-381.56 704.42,-368.2 670.17,-357.65"/>
<polygon fill="midnightblue" stroke="midnightblue" points="670.89,-354.21 660.31,-354.61 668.83,-360.9 670.89,-354.21"/>
</g>
<!-- Node21 -->
<g id="node21" class="node">
<title>Node21</title>
<g id="a_node21"><a xlink:href="Source_8h.html" target="_top" xlink:title=" ">
<polygon fill="none" stroke="black" points="216.5,-324.5 216.5,-354.5 366.5,-354.5 366.5,-324.5 216.5,-324.5"/>
<text text-anchor="start" x="224.5" y="-342.5" font-family="Helvetica,sans-Serif" font-size="10.00">BipedalLocomotion/System</text>
<text text-anchor="middle" x="291.5" y="-331.5" font-family="Helvetica,sans-Serif" font-size="10.00">/Source.h</text>
</a>
</g>
</g>
<!-- Node1&#45;&gt;Node21 -->
<g id="edge28" class="edge">
<title>Node1&#45;&gt;Node21</title>
<path fill="none" stroke="midnightblue" d="M730.34,-393.92C629.99,-381.7 473.34,-362.63 376.86,-350.89"/>
<polygon fill="midnightblue" stroke="midnightblue" points="377.2,-347.41 366.85,-349.67 376.35,-354.35 377.2,-347.41"/>
</g>
<!-- Node24 -->
<g id="node24" class="node">
<title>Node24</title>
<g id="a_node24"><a xlink:href="Contact_8h.html" target="_top" xlink:title=" ">
<polygon fill="none" stroke="black" points="747.5,-324.5 747.5,-354.5 903.5,-354.5 903.5,-324.5 747.5,-324.5"/>
<text text-anchor="start" x="755.5" y="-342.5" font-family="Helvetica,sans-Serif" font-size="10.00">BipedalLocomotion/Contacts</text>
<text text-anchor="middle" x="825.5" y="-331.5" font-family="Helvetica,sans-Serif" font-size="10.00">/Contact.h</text>
</a>
</g>
</g>
<!-- Node1&#45;&gt;Node24 -->
<g id="edge32" class="edge">
<title>Node1&#45;&gt;Node24</title>
<path fill="none" stroke="midnightblue" d="M825.5,-391.4C825.5,-383.64 825.5,-373.81 825.5,-364.86"/>
<polygon fill="midnightblue" stroke="midnightblue" points="829,-364.58 825.5,-354.58 822,-364.58 829,-364.58"/>
</g>
<!-- Node26 -->
<g id="node26" class="node">
<title>Node26</title>
<g id="a_node26"><a xlink:title=" ">
<polygon fill="none" stroke="#bfbfbf" points="923,-196 923,-215 998,-215 998,-196 923,-196"/>
<text text-anchor="middle" x="960.5" y="-203" font-family="Helvetica,sans-Serif" font-size="10.00">manif/SE3.h</text>
</a>
</g>
</g>
<!-- Node1&#45;&gt;Node26 -->
<g id="edge40" class="edge">
<title>Node1&#45;&gt;Node26</title>
<path fill="none" stroke="midnightblue" d="M862.37,-391.49C879.74,-383.23 899.45,-371.18 912.5,-355 944.02,-315.92 955.06,-255.6 958.75,-225.27"/>
<polygon fill="midnightblue" stroke="midnightblue" points="962.24,-225.54 959.84,-215.22 955.28,-224.79 962.24,-225.54"/>
</g>
<!-- Node28 -->
<g id="node28" class="node">
<title>Node28</title>
<g id="a_node28"><a xlink:title=" ">
<polygon fill="none" stroke="#bfbfbf" points="1063,-330 1063,-349 1238,-349 1238,-330 1063,-330"/>
<text text-anchor="middle" x="1150.5" y="-337" font-family="Helvetica,sans-Serif" font-size="10.00">iDynTree/KinDynComputations.h</text>
</a>
</g>
</g>
<!-- Node1&#45;&gt;Node28 -->
<g id="edge39" class="edge">
<title>Node1&#45;&gt;Node28</title>
<path fill="none" stroke="midnightblue" d="M895.62,-391.48C956.4,-379.32 1043,-362 1097.97,-351.01"/>
<polygon fill="midnightblue" stroke="midnightblue" points="1098.74,-354.42 1107.86,-349.03 1097.36,-347.56 1098.74,-354.42"/>
</g>
<!-- Node5 -->
<g id="node5" class="node">
<title>Node5</title>
<g id="a_node5"><a xlink:title=" ">
<polygon fill="none" stroke="#bfbfbf" points="547.5,-62 547.5,-81 605.5,-81 605.5,-62 547.5,-62"/>
<text text-anchor="middle" x="576.5" y="-69" font-family="Helvetica,sans-Serif" font-size="10.00">memory</text>
</a>
</g>
</g>
<!-- Node4&#45;&gt;Node5 -->
<g id="edge4" class="edge">
<title>Node4&#45;&gt;Node5</title>
<path fill="none" stroke="midnightblue" d="M619.3,-324.45C630.57,-289.03 655.65,-193.87 626.5,-123 620.59,-108.63 608.4,-96.18 597.54,-87.24"/>
<polygon fill="midnightblue" stroke="midnightblue" points="599.66,-84.46 589.61,-81.11 595.38,-90 599.66,-84.46"/>
</g>
<!-- Node6 -->
<g id="node6" class="node">
<title>Node6</title>
<g id="a_node6"><a xlink:title=" ">
<polygon fill="none" stroke="#bfbfbf" points="573.5,-129 573.5,-148 617.5,-148 617.5,-129 573.5,-129"/>
<text text-anchor="middle" x="595.5" y="-136" font-family="Helvetica,sans-Serif" font-size="10.00">string</text>
</a>
</g>
</g>
<!-- Node4&#45;&gt;Node6 -->
<g id="edge5" class="edge">
<title>Node4&#45;&gt;Node6</title>
<path fill="none" stroke="midnightblue" d="M613.13,-324.19C609.77,-288.99 601.1,-198.17 597.31,-158.51"/>
<polygon fill="midnightblue" stroke="midnightblue" points="600.78,-157.98 596.35,-148.36 593.81,-158.65 600.78,-157.98"/>
</g>
<!-- Node7 -->
<g id="node7" class="node">
<title>Node7</title>
<g id="a_node7"><a xlink:title=" ">
<polygon fill="none" stroke="#bfbfbf" points="733,-196 733,-215 810,-215 810,-196 733,-196"/>
<text text-anchor="middle" x="771.5" y="-203" font-family="Helvetica,sans-Serif" font-size="10.00">Eigen/Dense</text>
</a>
</g>
</g>
<!-- Node4&#45;&gt;Node7 -->
<g id="edge6" class="edge">
<title>Node4&#45;&gt;Node7</title>
<path fill="none" stroke="midnightblue" d="M631.3,-324.37C661.09,-299.33 722.91,-247.35 753.52,-221.62"/>
<polygon fill="midnightblue" stroke="midnightblue" points="755.87,-224.21 761.27,-215.1 751.37,-218.85 755.87,-224.21"/>
</g>
<!-- Node8 -->
<g id="node8" class="node">
<title>Node8</title>
<g id="a_node8"><a xlink:title=" ">
<polygon fill="none" stroke="#bfbfbf" points="228.5,-263 228.5,-282 380.5,-282 380.5,-263 228.5,-263"/>
<text text-anchor="middle" x="304.5" y="-270" font-family="Helvetica,sans-Serif" font-size="10.00">iDynTree/Core/MatrixView.h</text>
</a>
</g>
</g>
<!-- Node4&#45;&gt;Node8 -->
<g id="edge7" class="edge">
<title>Node4&#45;&gt;Node8</title>
<path fill="none" stroke="midnightblue" d="M547.62,-324.48C489.88,-312.37 407.72,-295.14 355.26,-284.14"/>
<polygon fill="midnightblue" stroke="midnightblue" points="355.68,-280.66 345.18,-282.03 354.24,-287.51 355.68,-280.66"/>
</g>
<!-- Node9 -->
<g id="node9" class="node">
<title>Node9</title>
<g id="a_node9"><a xlink:href="IParametersHandler_8h.html" target="_top" xlink:title=" ">
<polygon fill="none" stroke="black" points="230,-190.5 230,-220.5 399,-220.5 399,-190.5 230,-190.5"/>
<text text-anchor="start" x="238" y="-208.5" font-family="Helvetica,sans-Serif" font-size="10.00">BipedalLocomotion/Parameters</text>
<text text-anchor="middle" x="314.5" y="-197.5" font-family="Helvetica,sans-Serif" font-size="10.00">Handler/IParametersHandler.h</text>
</a>
</g>
</g>
<!-- Node4&#45;&gt;Node9 -->
<g id="edge8" class="edge">
<title>Node4&#45;&gt;Node9</title>
<path fill="none" stroke="midnightblue" d="M539.48,-325.79C504.22,-317.95 462.36,-305.88 427.5,-288 408.11,-278.05 407,-269.99 389.5,-257 375.23,-246.41 358.92,-235.31 345.15,-226.22"/>
<polygon fill="midnightblue" stroke="midnightblue" points="346.81,-223.12 336.53,-220.57 342.97,-228.98 346.81,-223.12"/>
</g>
<!-- Node19 -->
<g id="node19" class="node">
<title>Node19</title>
<g id="a_node19"><a xlink:href="VariablesHandler_8h.html" target="_top" xlink:title=" ">
<polygon fill="none" stroke="black" points="436.5,-257.5 436.5,-287.5 586.5,-287.5 586.5,-257.5 436.5,-257.5"/>
<text text-anchor="start" x="444.5" y="-275.5" font-family="Helvetica,sans-Serif" font-size="10.00">BipedalLocomotion/System</text>
<text text-anchor="middle" x="511.5" y="-264.5" font-family="Helvetica,sans-Serif" font-size="10.00">/VariablesHandler.h</text>
</a>
</g>
</g>
<!-- Node4&#45;&gt;Node19 -->
<g id="edge23" class="edge">
<title>Node4&#45;&gt;Node19</title>
<path fill="none" stroke="midnightblue" d="M592.15,-324.4C577.57,-315.2 558.35,-303.07 542.33,-292.95"/>
<polygon fill="midnightblue" stroke="midnightblue" points="544.13,-289.95 533.81,-287.58 540.39,-295.87 544.13,-289.95"/>
</g>
<!-- Node9&#45;&gt;Node5 -->
<g id="edge9" class="edge">
<title>Node9&#45;&gt;Node5</title>
<path fill="none" stroke="midnightblue" d="M353.74,-190.41C378.72,-181.02 411.51,-167.88 439.5,-154 481.86,-133 528.7,-103.73 555.17,-86.58"/>
<polygon fill="midnightblue" stroke="midnightblue" points="557.18,-89.45 563.65,-81.05 553.36,-83.58 557.18,-89.45"/>
</g>
<!-- Node9&#45;&gt;Node6 -->
<g id="edge10" class="edge">
<title>Node9&#45;&gt;Node6</title>
<path fill="none" stroke="midnightblue" d="M375.13,-190.48C432.9,-177.11 517.66,-157.5 563.4,-146.93"/>
<polygon fill="midnightblue" stroke="midnightblue" points="564.39,-150.29 573.35,-144.62 562.81,-143.47 564.39,-150.29"/>
</g>
<!-- Node10 -->
<g id="node10" class="node">
<title>Node10</title>
<g id="a_node10"><a xlink:title=" ">
<polygon fill="none" stroke="#bfbfbf" points="176,-129 176,-148 223,-148 223,-129 176,-129"/>
<text text-anchor="middle" x="199.5" y="-136" font-family="Helvetica,sans-Serif" font-size="10.00">vector</text>
</a>
</g>
</g>
<!-- Node9&#45;&gt;Node10 -->
<g id="edge11" class="edge">
<title>Node9&#45;&gt;Node10</title>
<path fill="none" stroke="midnightblue" d="M289.55,-190.4C269.9,-179.29 242.71,-163.92 223.35,-152.98"/>
<polygon fill="midnightblue" stroke="midnightblue" points="224.98,-149.88 214.55,-148.01 221.53,-155.97 224.98,-149.88"/>
</g>
<!-- Node11 -->
<g id="node11" class="node">
<title>Node11</title>
<g id="a_node11"><a xlink:href="TemplateHelpers_8h_source.html" target="_top" xlink:title=" ">
<polygon fill="none" stroke="black" points="83.5,-56.5 83.5,-86.5 241.5,-86.5 241.5,-56.5 83.5,-56.5"/>
<text text-anchor="start" x="91.5" y="-74.5" font-family="Helvetica,sans-Serif" font-size="10.00">BipedalLocomotion/Generic</text>
<text text-anchor="middle" x="162.5" y="-63.5" font-family="Helvetica,sans-Serif" font-size="10.00">Container/TemplateHelpers.h</text>
</a>
</g>
</g>
<!-- Node9&#45;&gt;Node11 -->
<g id="edge12" class="edge">
<title>Node9&#45;&gt;Node11</title>
<path fill="none" stroke="midnightblue" d="M301.27,-190.31C285.35,-173.53 257.51,-145.09 231.5,-123 218.9,-112.3 204.22,-101.36 191.64,-92.41"/>
<polygon fill="midnightblue" stroke="midnightblue" points="193.51,-89.45 183.32,-86.56 189.48,-95.17 193.51,-89.45"/>
</g>
<!-- Node15 -->
<g id="node15" class="node">
<title>Node15</title>
<g id="a_node15"><a xlink:href="Vector_8h_source.html" target="_top" xlink:title=" ">
<polygon fill="none" stroke="black" points="280,-123.5 280,-153.5 431,-153.5 431,-123.5 280,-123.5"/>
<text text-anchor="start" x="288" y="-141.5" font-family="Helvetica,sans-Serif" font-size="10.00">BipedalLocomotion/Generic</text>
<text text-anchor="middle" x="355.5" y="-130.5" font-family="Helvetica,sans-Serif" font-size="10.00">Container/Vector.h</text>
</a>
</g>
</g>
<!-- Node9&#45;&gt;Node15 -->
<g id="edge16" class="edge">
<title>Node9&#45;&gt;Node15</title>
<path fill="none" stroke="midnightblue" d="M323.4,-190.4C328.61,-182.13 335.31,-171.51 341.24,-162.1"/>
<polygon fill="midnightblue" stroke="midnightblue" points="344.25,-163.9 346.62,-153.58 338.33,-160.17 344.25,-163.9"/>
</g>
<!-- Node12 -->
<g id="node12" class="node">
<title>Node12</title>
<g id="a_node12"><a xlink:title=" ">
<polygon fill="none" stroke="#bfbfbf" points="39,-0.5 39,-19.5 108,-19.5 108,-0.5 39,-0.5"/>
<text text-anchor="middle" x="73.5" y="-7.5" font-family="Helvetica,sans-Serif" font-size="10.00">type_traits</text>
</a>
</g>
</g>
<!-- Node11&#45;&gt;Node12 -->
<g id="edge13" class="edge">
<title>Node11&#45;&gt;Node12</title>
<path fill="none" stroke="midnightblue" d="M141.41,-56.4C127.41,-47.04 109.09,-34.79 95.01,-25.38"/>
<polygon fill="midnightblue" stroke="midnightblue" points="96.71,-22.31 86.45,-19.66 92.82,-28.13 96.71,-22.31"/>
</g>
<!-- Node13 -->
<g id="node13" class="node">
<title>Node13</title>
<g id="a_node13"><a xlink:title=" ">
<polygon fill="none" stroke="#bfbfbf" points="126,-0.5 126,-19.5 199,-19.5 199,-0.5 126,-0.5"/>
<text text-anchor="middle" x="162.5" y="-7.5" font-family="Helvetica,sans-Serif" font-size="10.00">string_view</text>
</a>
</g>
</g>
<!-- Node11&#45;&gt;Node13 -->
<g id="edge14" class="edge">
<title>Node11&#45;&gt;Node13</title>
<path fill="none" stroke="midnightblue" d="M162.5,-56.4C162.5,-48.47 162.5,-38.46 162.5,-29.86"/>
<polygon fill="midnightblue" stroke="midnightblue" points="166,-29.66 162.5,-19.66 159,-29.66 166,-29.66"/>
</g>
<!-- Node14 -->
<g id="node14" class="node">
<title>Node14</title>
<g id="a_node14"><a xlink:title=" ">
<polygon fill="none" stroke="#bfbfbf" points="217,-0.5 217,-19.5 286,-19.5 286,-0.5 217,-0.5"/>
<text text-anchor="middle" x="251.5" y="-7.5" font-family="Helvetica,sans-Serif" font-size="10.00">Eigen/Core</text>
</a>
</g>
</g>
<!-- Node11&#45;&gt;Node14 -->
<g id="edge15" class="edge">
<title>Node11&#45;&gt;Node14</title>
<path fill="none" stroke="midnightblue" d="M183.59,-56.4C197.59,-47.04 215.91,-34.79 229.99,-25.38"/>
<polygon fill="midnightblue" stroke="midnightblue" points="232.18,-28.13 238.55,-19.66 228.29,-22.31 232.18,-28.13"/>
</g>
<!-- Node15&#45;&gt;Node2 -->
<g id="edge19" class="edge">
<title>Node15&#45;&gt;Node2</title>
<path fill="none" stroke="midnightblue" d="M279.97,-127.17C223.01,-118.6 143.21,-104.92 74.5,-87 71.46,-86.21 68.33,-85.3 65.21,-84.34"/>
<polygon fill="midnightblue" stroke="midnightblue" points="66,-80.91 55.41,-81.13 63.82,-87.57 66,-80.91"/>
</g>
<!-- Node15&#45;&gt;Node5 -->
<g id="edge22" class="edge">
<title>Node15&#45;&gt;Node5</title>
<path fill="none" stroke="midnightblue" d="M411.98,-123.4C448.36,-113.95 496.53,-100.76 538.5,-87 540.76,-86.26 543.09,-85.46 545.43,-84.63"/>
<polygon fill="midnightblue" stroke="midnightblue" points="546.75,-87.88 554.92,-81.14 544.33,-81.31 546.75,-87.88"/>
</g>
<!-- Node15&#45;&gt;Node11 -->
<g id="edge18" class="edge">
<title>Node15&#45;&gt;Node11</title>
<path fill="none" stroke="midnightblue" d="M313.62,-123.4C284.41,-113.56 245.24,-100.37 214.1,-89.88"/>
<polygon fill="midnightblue" stroke="midnightblue" points="214.89,-86.45 204.3,-86.58 212.66,-93.09 214.89,-86.45"/>
</g>
<!-- Node16 -->
<g id="node16" class="node">
<title>Node16</title>
<g id="a_node16"><a xlink:title=" ">
<polygon fill="none" stroke="#bfbfbf" points="338,-62 338,-81 459,-81 459,-62 338,-62"/>
<text text-anchor="middle" x="398.5" y="-69" font-family="Helvetica,sans-Serif" font-size="10.00">iDynTree/Core/Span.h</text>
</a>
</g>
</g>
<!-- Node15&#45;&gt;Node16 -->
<g id="edge17" class="edge">
<title>Node15&#45;&gt;Node16</title>
<path fill="none" stroke="midnightblue" d="M364.83,-123.4C371.4,-113.46 380.24,-100.11 387.21,-89.57"/>
<polygon fill="midnightblue" stroke="midnightblue" points="390.15,-91.47 392.75,-81.19 384.31,-87.6 390.15,-91.47"/>
</g>
<!-- Node17 -->
<g id="node17" class="node">
<title>Node17</title>
<g id="a_node17"><a xlink:title=" ">
<polygon fill="none" stroke="#bfbfbf" points="477.5,-62 477.5,-81 529.5,-81 529.5,-62 477.5,-62"/>
<text text-anchor="middle" x="503.5" y="-69" font-family="Helvetica,sans-Serif" font-size="10.00">cassert</text>
</a>
</g>
</g>
<!-- Node15&#45;&gt;Node17 -->
<g id="edge20" class="edge">
<title>Node15&#45;&gt;Node17</title>
<path fill="none" stroke="midnightblue" d="M387.61,-123.4C413.58,-111.99 449.81,-96.08 474.82,-85.1"/>
<polygon fill="midnightblue" stroke="midnightblue" points="476.38,-88.23 484.13,-81.01 473.57,-81.82 476.38,-88.23"/>
</g>
<!-- Node18 -->
<g id="node18" class="node">
<title>Node18</title>
<g id="a_node18"><a xlink:title=" ">
<polygon fill="none" stroke="#bfbfbf" points="259.5,-62 259.5,-81 319.5,-81 319.5,-62 259.5,-62"/>
<text text-anchor="middle" x="289.5" y="-69" font-family="Helvetica,sans-Serif" font-size="10.00">iostream</text>
</a>
</g>
</g>
<!-- Node15&#45;&gt;Node18 -->
<g id="edge21" class="edge">
<title>Node15&#45;&gt;Node18</title>
<path fill="none" stroke="midnightblue" d="M341.18,-123.4C330.68,-113.06 316.43,-99.02 305.55,-88.31"/>
<polygon fill="midnightblue" stroke="midnightblue" points="307.91,-85.72 298.33,-81.19 303,-90.71 307.91,-85.72"/>
</g>
<!-- Node19&#45;&gt;Node5 -->
<g id="edge25" class="edge">
<title>Node19&#45;&gt;Node5</title>
<path fill="none" stroke="midnightblue" d="M516.17,-257.19C527.72,-221.83 557.59,-130.39 570.46,-91"/>
<polygon fill="midnightblue" stroke="midnightblue" points="573.83,-91.95 573.61,-81.36 567.17,-89.78 573.83,-91.95"/>
</g>
<!-- Node19&#45;&gt;Node6 -->
<g id="edge24" class="edge">
<title>Node19&#45;&gt;Node6</title>
<path fill="none" stroke="midnightblue" d="M524.13,-257.49C532.67,-247.66 543.91,-234 552.5,-221 566.23,-200.22 579.16,-174.57 587.19,-157.66"/>
<polygon fill="midnightblue" stroke="midnightblue" points="590.46,-158.93 591.52,-148.38 584.12,-155.97 590.46,-158.93"/>
</g>
<!-- Node19&#45;&gt;Node9 -->
<g id="edge27" class="edge">
<title>Node19&#45;&gt;Node9</title>
<path fill="none" stroke="midnightblue" d="M468.75,-257.4C438.81,-247.52 398.61,-234.25 366.76,-223.74"/>
<polygon fill="midnightblue" stroke="midnightblue" points="367.76,-220.39 357.16,-220.58 365.56,-227.03 367.76,-220.39"/>
</g>
<!-- Node20 -->
<g id="node20" class="node">
<title>Node20</title>
<g id="a_node20"><a xlink:title=" ">
<polygon fill="none" stroke="#bfbfbf" points="417,-196 417,-215 510,-215 510,-196 417,-196"/>
<text text-anchor="middle" x="463.5" y="-203" font-family="Helvetica,sans-Serif" font-size="10.00">unordered_map</text>
</a>
</g>
</g>
<!-- Node19&#45;&gt;Node20 -->
<g id="edge26" class="edge">
<title>Node19&#45;&gt;Node20</title>
<path fill="none" stroke="midnightblue" d="M501.08,-257.4C493.67,-247.36 483.69,-233.84 475.87,-223.25"/>
<polygon fill="midnightblue" stroke="midnightblue" points="478.68,-221.16 469.92,-215.19 473.05,-225.32 478.68,-221.16"/>
</g>
<!-- Node22 -->
<g id="node22" class="node">
<title>Node22</title>
<g id="a_node22"><a xlink:href="Advanceable_8h.html" target="_top" xlink:title=" ">
<polygon fill="none" stroke="black" points="60.5,-257.5 60.5,-287.5 210.5,-287.5 210.5,-257.5 60.5,-257.5"/>
<text text-anchor="start" x="68.5" y="-275.5" font-family="Helvetica,sans-Serif" font-size="10.00">BipedalLocomotion/System</text>
<text text-anchor="middle" x="135.5" y="-264.5" font-family="Helvetica,sans-Serif" font-size="10.00">/Advanceable.h</text>
</a>
</g>
</g>
<!-- Node21&#45;&gt;Node22 -->
<g id="edge29" class="edge">
<title>Node21&#45;&gt;Node22</title>
<path fill="none" stroke="midnightblue" d="M257.65,-324.4C234.45,-314.73 203.47,-301.82 178.52,-291.43"/>
<polygon fill="midnightblue" stroke="midnightblue" points="179.86,-288.19 169.28,-287.58 177.17,-294.65 179.86,-288.19"/>
</g>
<!-- Node22&#45;&gt;Node9 -->
<g id="edge31" class="edge">
<title>Node22&#45;&gt;Node9</title>
<path fill="none" stroke="midnightblue" d="M174.34,-257.4C201.32,-247.6 237.44,-234.48 266.27,-224.02"/>
<polygon fill="midnightblue" stroke="midnightblue" points="267.53,-227.28 275.74,-220.58 265.14,-220.7 267.53,-227.28"/>
</g>
<!-- Node23 -->
<g id="node23" class="node">
<title>Node23</title>
<g id="a_node23"><a xlink:title=" ">
<polygon fill="none" stroke="#bfbfbf" points="110,-196 110,-215 161,-215 161,-196 110,-196"/>
<text text-anchor="middle" x="135.5" y="-203" font-family="Helvetica,sans-Serif" font-size="10.00">variant</text>
</a>
</g>
</g>
<!-- Node22&#45;&gt;Node23 -->
<g id="edge30" class="edge">
<title>Node22&#45;&gt;Node23</title>
<path fill="none" stroke="midnightblue" d="M135.5,-257.4C135.5,-248.06 135.5,-235.71 135.5,-225.52"/>
<polygon fill="midnightblue" stroke="midnightblue" points="139,-225.19 135.5,-215.19 132,-225.19 139,-225.19"/>
</g>
<!-- Node24&#45;&gt;Node6 -->
<g id="edge38" class="edge">
<title>Node24&#45;&gt;Node6</title>
<path fill="none" stroke="midnightblue" d="M801.1,-324.43C785.27,-314.9 764.51,-301.59 747.5,-288 692.94,-244.4 635.95,-184.08 609.96,-155.61"/>
<polygon fill="midnightblue" stroke="midnightblue" points="612.51,-153.21 603.2,-148.15 607.33,-157.91 612.51,-153.21"/>
</g>
<!-- Node25 -->
<g id="node25" class="node">
<title>Node25</title>
<g id="a_node25"><a xlink:href="Wrench_8h.html" target="_top" xlink:title=" ">
<polygon fill="none" stroke="black" points="756.5,-257.5 756.5,-287.5 894.5,-287.5 894.5,-257.5 756.5,-257.5"/>
<text text-anchor="start" x="764.5" y="-275.5" font-family="Helvetica,sans-Serif" font-size="10.00">BipedalLocomotion/Math</text>
<text text-anchor="middle" x="825.5" y="-264.5" font-family="Helvetica,sans-Serif" font-size="10.00">/Wrench.h</text>
</a>
</g>
</g>
<!-- Node24&#45;&gt;Node25 -->
<g id="edge33" class="edge">
<title>Node24&#45;&gt;Node25</title>
<path fill="none" stroke="midnightblue" d="M825.5,-324.4C825.5,-316.64 825.5,-306.81 825.5,-297.86"/>
<polygon fill="midnightblue" stroke="midnightblue" points="829,-297.58 825.5,-287.58 822,-297.58 829,-297.58"/>
</g>
<!-- Node24&#45;&gt;Node26 -->
<g id="edge37" class="edge">
<title>Node24&#45;&gt;Node26</title>
<path fill="none" stroke="midnightblue" d="M852.62,-324.42C868.53,-315.36 888.41,-302.56 903.5,-288 923.34,-268.86 940.6,-241.89 950.79,-224.31"/>
<polygon fill="midnightblue" stroke="midnightblue" points="954.08,-225.6 955.93,-215.17 947.98,-222.16 954.08,-225.6"/>
</g>
<!-- Node25&#45;&gt;Node7 -->
<g id="edge34" class="edge">
<title>Node25&#45;&gt;Node7</title>
<path fill="none" stroke="midnightblue" d="M813.78,-257.4C805.36,-247.26 793.99,-233.57 785.16,-222.94"/>
<polygon fill="midnightblue" stroke="midnightblue" points="787.81,-220.65 778.72,-215.19 782.42,-225.12 787.81,-220.65"/>
</g>
<!-- Node25&#45;&gt;Node26 -->
<g id="edge35" class="edge">
<title>Node25&#45;&gt;Node26</title>
<path fill="none" stroke="midnightblue" d="M854.79,-257.4C878.27,-246.09 910.94,-230.36 933.73,-219.39"/>
<polygon fill="midnightblue" stroke="midnightblue" points="935.34,-222.5 942.83,-215.01 932.3,-216.19 935.34,-222.5"/>
</g>
<!-- Node27 -->
<g id="node27" class="node">
<title>Node27</title>
<g id="a_node27"><a xlink:title=" ">
<polygon fill="none" stroke="#bfbfbf" points="828,-196 828,-215 905,-215 905,-196 828,-196"/>
<text text-anchor="middle" x="866.5" y="-203" font-family="Helvetica,sans-Serif" font-size="10.00">manif/SO3.h</text>
</a>
</g>
</g>
<!-- Node25&#45;&gt;Node27 -->
<g id="edge36" class="edge">
<title>Node25&#45;&gt;Node27</title>
<path fill="none" stroke="midnightblue" d="M834.4,-257.4C840.6,-247.56 848.92,-234.38 855.53,-223.89"/>
<polygon fill="midnightblue" stroke="midnightblue" points="858.64,-225.52 861.02,-215.19 852.72,-221.79 858.64,-225.52"/>
</g>
</g>
</svg>
        <g id="navigator" transform="translate(0 0)" fill="#404254">
                <rect fill="#f2f5e9" fill-opacity="0.5" stroke="#606060" stroke-width=".5" x="0" y="0" width="60" height="60"/>
                <use id="zoomplus" xlink:href="#zoomPlus" x="17" y="9" onmousedown="handleZoom(evt,'in')"/>
                <use id="zoomminus" xlink:href="#zoomMin" x="42" y="9" onmousedown="handleZoom(evt,'out')"/>
                <use id="reset" xlink:href="#resetDef" x="30" y="36" onmousedown="handleReset()"/>
                <g id="arrowUp" xlink:href="#dirArrow" transform="translate(30 24)" onmousedown="handlePan(0,-1)">
                  <use xlink:href="#rim" fill="#404040">
                        <set attributeName="fill" to="#808080" begin="arrowUp.mouseover" end="arrowUp.mouseout"/>
                  </use>
                  <path fill="none" stroke="white" stroke-width="1.5" d="M0,-3.0v7 M-2.5,-0.5L0,-3.0L2.5,-0.5"/>
                </g>
                <g id="arrowRight" xlink:href="#dirArrow" transform="rotate(90) translate(36 -43)" onmousedown="handlePan(1,0)">
                  <use xlink:href="#rim" fill="#404040">
                        <set attributeName="fill" to="#808080" begin="arrowRight.mouseover" end="arrowRight.mouseout"/>
                  </use>
                  <path fill="none" stroke="white" stroke-width="1.5" d="M0,-3.0v7 M-2.5,-0.5L0,-3.0L2.5,-0.5"/>
                </g>
                <g id="arrowDown" xlink:href="#dirArrow" transform="rotate(180) translate(-30 -48)" onmousedown="handlePan(0,1)">
                  <use xlink:href="#rim" fill="#404040">
                        <set attributeName="fill" to="#808080" begin="arrowDown.mouseover" end="arrowDown.mouseout"/>
                  </use>
                  <path fill="none" stroke="white" stroke-width="1.5" d="M0,-3.0v7 M-2.5,-0.5L0,-3.0L2.5,-0.5"/>
                </g>
                <g id="arrowLeft" xlink:href="#dirArrow" transform="rotate(270) translate(-36 17)" onmousedown="handlePan(-1,0)">
                  <use xlink:href="#rim" fill="#404040">
                        <set attributeName="fill" to="#808080" begin="arrowLeft.mouseover" end="arrowLeft.mouseout"/>
                  </use>
                  <path fill="none" stroke="white" stroke-width="1.5" d="M0,-3.0v7 M-2.5,-0.5L0,-3.0L2.5,-0.5"/>
                </g>
        </g>
        <svg viewBox="0 0 15 15" width="100%" height="30px" preserveAspectRatio="xMaxYMin meet">
         <g id="arrow_out" transform="scale(0.3 0.3)">
          <a xlink:href="TaskSpaceInverseDynamics_8h__incl_org.svg" target="_base">
           <rect id="button" ry="5" rx="5" y="6" x="6" height="38" width="38"
                fill="#f2f5e9" fill-opacity="0.5" stroke="#606060" stroke-width="1.0"/>
           <path id="arrow"
             d="M 11.500037,31.436501 C 11.940474,20.09759 22.043105,11.32322 32.158766,21.979434 L 37.068811,17.246167 C 37.068811,17.246167 37.088388,32 37.088388,32 L 22.160133,31.978069 C 22.160133,31.978069 26.997745,27.140456 26.997745,27.140456 C 18.528582,18.264221 13.291696,25.230495 11.500037,31.436501 z"
             style="fill:#404040;"/>
          </a>
         </g>
        </svg>
</svg>
