<?xml version="1.0" encoding="UTF-8" standalone="no"?>
<!DOCTYPE svg PUBLIC "-//W3C//DTD SVG 1.1//EN"
 "http://www.w3.org/Graphics/SVG/1.1/DTD/svg11.dtd">
<!-- Generated by graphviz version 2.43.0 (0)
 -->
<!-- Title: Planners/include/BipedalLocomotion/Planners/TimeVaryingDCMPlanner.h Pages: 1 -->
<svg width="1027pt" height="508pt"
 viewBox="0.00 0.00 1026.50 508.00" xmlns="http://www.w3.org/2000/svg" xmlns:xlink="http://www.w3.org/1999/xlink">
<g id="graph0" class="graph" transform="scale(1 1) rotate(0) translate(4 504)">
<title>Planners/include/BipedalLocomotion/Planners/TimeVaryingDCMPlanner.h</title>
<!-- Node1 -->
<g id="node1" class="node">
<title>Node1</title>
<g id="a_node1"><a xlink:title=" ">
<polygon fill="#bfbfbf" stroke="black" points="44.5,-458.5 44.5,-499.5 227.5,-499.5 227.5,-458.5 44.5,-458.5"/>
<text text-anchor="start" x="52.5" y="-487.5" font-family="Helvetica,sans-Serif" font-size="10.00">Planners/include/Bipedal</text>
<text text-anchor="start" x="52.5" y="-476.5" font-family="Helvetica,sans-Serif" font-size="10.00">Locomotion/Planners/TimeVarying</text>
<text text-anchor="middle" x="136" y="-465.5" font-family="Helvetica,sans-Serif" font-size="10.00">DCMPlanner.h</text>
</a>
</g>
</g>
<!-- Node2 -->
<g id="node2" class="node">
<title>Node2</title>
<g id="a_node2"><a xlink:title=" ">
<polygon fill="none" stroke="#bfbfbf" points="0,-62 0,-81 58,-81 58,-62 0,-62"/>
<text text-anchor="middle" x="29" y="-69" font-family="Helvetica,sans-Serif" font-size="10.00">memory</text>
</a>
</g>
</g>
<!-- Node1&#45;&gt;Node2 -->
<g id="edge1" class="edge">
<title>Node1&#45;&gt;Node2</title>
<path fill="none" stroke="midnightblue" d="M113.14,-458.13C87.37,-433.4 49,-388.52 49,-340.5 49,-340.5 49,-340.5 49,-204.5 49,-163.51 39.46,-116.17 33.56,-90.8"/>
<polygon fill="midnightblue" stroke="midnightblue" points="36.96,-89.98 31.22,-81.08 30.15,-91.62 36.96,-89.98"/>
</g>
<!-- Node3 -->
<g id="node3" class="node">
<title>Node3</title>
<g id="a_node3"><a xlink:href="DCMPlanner_8h.html" target="_top" xlink:title=" ">
<polygon fill="none" stroke="black" points="184.5,-391.5 184.5,-421.5 339.5,-421.5 339.5,-391.5 184.5,-391.5"/>
<text text-anchor="start" x="192.5" y="-409.5" font-family="Helvetica,sans-Serif" font-size="10.00">BipedalLocomotion/Planners</text>
<text text-anchor="middle" x="262" y="-398.5" font-family="Helvetica,sans-Serif" font-size="10.00">/DCMPlanner.h</text>
</a>
</g>
</g>
<!-- Node1&#45;&gt;Node3 -->
<g id="edge2" class="edge">
<title>Node1&#45;&gt;Node3</title>
<path fill="none" stroke="midnightblue" d="M171.1,-458.36C188.83,-448.44 210.26,-436.45 227.86,-426.6"/>
<polygon fill="midnightblue" stroke="midnightblue" points="229.66,-429.61 236.67,-421.67 226.24,-423.5 229.66,-429.61"/>
</g>
<!-- Node3&#45;&gt;Node2 -->
<g id="edge3" class="edge">
<title>Node3&#45;&gt;Node2</title>
<path fill="none" stroke="midnightblue" d="M194.12,-391.46C170.63,-383.86 145.56,-372.34 127,-355 97.93,-327.85 90,-313.28 90,-273.5 90,-273.5 90,-273.5 90,-204.5 90,-159.51 60.43,-113.18 42.47,-89.19"/>
<polygon fill="midnightblue" stroke="midnightblue" points="45.12,-86.9 36.24,-81.13 39.59,-91.18 45.12,-86.9"/>
</g>
<!-- Node4 -->
<g id="node4" class="node">
<title>Node4</title>
<g id="a_node4"><a xlink:title=" ">
<polygon fill="none" stroke="#bfbfbf" points="630.5,-0.5 630.5,-19.5 707.5,-19.5 707.5,-0.5 630.5,-0.5"/>
<text text-anchor="middle" x="669" y="-7.5" font-family="Helvetica,sans-Serif" font-size="10.00">Eigen/Dense</text>
</a>
</g>
</g>
<!-- Node3&#45;&gt;Node4 -->
<g id="edge4" class="edge">
<title>Node3&#45;&gt;Node4</title>
<path fill="none" stroke="midnightblue" d="M339.5,-401.94C423.9,-393.41 547,-365.24 547,-273.5 547,-273.5 547,-273.5 547,-204.5 547,-137.78 528.75,-109.22 569,-56 581.52,-39.45 601.5,-28.83 620.33,-22.1"/>
<polygon fill="midnightblue" stroke="midnightblue" points="621.61,-25.36 630.02,-18.92 619.43,-18.71 621.61,-25.36"/>
</g>
<!-- Node5 -->
<g id="node5" class="node">
<title>Node5</title>
<g id="a_node5"><a xlink:href="IParametersHandler_8h.html" target="_top" xlink:title=" ">
<polygon fill="none" stroke="black" points="229.5,-190.5 229.5,-220.5 398.5,-220.5 398.5,-190.5 229.5,-190.5"/>
<text text-anchor="start" x="237.5" y="-208.5" font-family="Helvetica,sans-Serif" font-size="10.00">BipedalLocomotion/Parameters</text>
<text text-anchor="middle" x="314" y="-197.5" font-family="Helvetica,sans-Serif" font-size="10.00">Handler/IParametersHandler.h</text>
</a>
</g>
</g>
<!-- Node3&#45;&gt;Node5 -->
<g id="edge5" class="edge">
<title>Node3&#45;&gt;Node5</title>
<path fill="none" stroke="midnightblue" d="M273.71,-391.42C281.07,-381.78 290.08,-368.37 295,-355 310.38,-313.26 313.69,-260.96 314.19,-230.88"/>
<polygon fill="midnightblue" stroke="midnightblue" points="317.69,-230.53 314.27,-220.5 310.69,-230.48 317.69,-230.53"/>
</g>
<!-- Node17 -->
<g id="node17" class="node">
<title>Node17</title>
<g id="a_node17"><a xlink:href="ContactPhaseList_8h_source.html" target="_top" xlink:title=" ">
<polygon fill="none" stroke="black" points="615,-324.5 615,-354.5 771,-354.5 771,-324.5 615,-324.5"/>
<text text-anchor="start" x="623" y="-342.5" font-family="Helvetica,sans-Serif" font-size="10.00">BipedalLocomotion/Contacts</text>
<text text-anchor="middle" x="693" y="-331.5" font-family="Helvetica,sans-Serif" font-size="10.00">/ContactPhaseList.h</text>
</a>
</g>
</g>
<!-- Node3&#45;&gt;Node17 -->
<g id="edge20" class="edge">
<title>Node3&#45;&gt;Node17</title>
<path fill="none" stroke="midnightblue" d="M339.55,-393.8C414.12,-382.56 526.71,-365.58 604.69,-353.82"/>
<polygon fill="midnightblue" stroke="midnightblue" points="605.61,-357.22 614.98,-352.27 604.57,-350.3 605.61,-357.22"/>
</g>
<!-- Node28 -->
<g id="node28" class="node">
<title>Node28</title>
<g id="a_node28"><a xlink:href="Source_8h.html" target="_top" xlink:title=" ">
<polygon fill="none" stroke="black" points="136,-324.5 136,-354.5 286,-354.5 286,-324.5 136,-324.5"/>
<text text-anchor="start" x="144" y="-342.5" font-family="Helvetica,sans-Serif" font-size="10.00">BipedalLocomotion/System</text>
<text text-anchor="middle" x="211" y="-331.5" font-family="Helvetica,sans-Serif" font-size="10.00">/Source.h</text>
</a>
</g>
</g>
<!-- Node3&#45;&gt;Node28 -->
<g id="edge42" class="edge">
<title>Node3&#45;&gt;Node28</title>
<path fill="none" stroke="midnightblue" d="M250.93,-391.4C244.32,-382.96 235.77,-372.07 228.28,-362.52"/>
<polygon fill="midnightblue" stroke="midnightblue" points="230.97,-360.28 222.04,-354.58 225.46,-364.6 230.97,-360.28"/>
</g>
<!-- Node5&#45;&gt;Node2 -->
<g id="edge6" class="edge">
<title>Node5&#45;&gt;Node2</title>
<path fill="none" stroke="midnightblue" d="M279.41,-190.41C255.55,-180.55 223.17,-166.88 195,-154 144.99,-131.13 87.59,-102.38 55.08,-85.86"/>
<polygon fill="midnightblue" stroke="midnightblue" points="56.32,-82.56 45.82,-81.14 53.14,-88.8 56.32,-82.56"/>
</g>
<!-- Node6 -->
<g id="node6" class="node">
<title>Node6</title>
<g id="a_node6"><a xlink:title=" ">
<polygon fill="none" stroke="#bfbfbf" points="755,-62 755,-81 799,-81 799,-62 755,-62"/>
<text text-anchor="middle" x="777" y="-69" font-family="Helvetica,sans-Serif" font-size="10.00">string</text>
</a>
</g>
</g>
<!-- Node5&#45;&gt;Node6 -->
<g id="edge7" class="edge">
<title>Node5&#45;&gt;Node6</title>
<path fill="none" stroke="midnightblue" d="M338.06,-190.36C375.9,-168.22 446.35,-127.4 459,-123 511.6,-104.7 674.99,-84.29 744.82,-76.14"/>
<polygon fill="midnightblue" stroke="midnightblue" points="745.28,-79.62 754.81,-74.99 744.47,-72.66 745.28,-79.62"/>
</g>
<!-- Node7 -->
<g id="node7" class="node">
<title>Node7</title>
<g id="a_node7"><a xlink:title=" ">
<polygon fill="none" stroke="#bfbfbf" points="467.5,-129 467.5,-148 514.5,-148 514.5,-129 467.5,-129"/>
<text text-anchor="middle" x="491" y="-136" font-family="Helvetica,sans-Serif" font-size="10.00">vector</text>
</a>
</g>
</g>
<!-- Node5&#45;&gt;Node7 -->
<g id="edge8" class="edge">
<title>Node5&#45;&gt;Node7</title>
<path fill="none" stroke="midnightblue" d="M352.41,-190.4C384.01,-178.79 428.33,-162.51 458.27,-151.52"/>
<polygon fill="midnightblue" stroke="midnightblue" points="459.65,-154.74 467.83,-148.01 457.24,-148.17 459.65,-154.74"/>
</g>
<!-- Node8 -->
<g id="node8" class="node">
<title>Node8</title>
<g id="a_node8"><a xlink:href="TemplateHelpers_8h_source.html" target="_top" xlink:title=" ">
<polygon fill="none" stroke="black" points="76,-56.5 76,-86.5 234,-86.5 234,-56.5 76,-56.5"/>
<text text-anchor="start" x="84" y="-74.5" font-family="Helvetica,sans-Serif" font-size="10.00">BipedalLocomotion/Generic</text>
<text text-anchor="middle" x="155" y="-63.5" font-family="Helvetica,sans-Serif" font-size="10.00">Container/TemplateHelpers.h</text>
</a>
</g>
</g>
<!-- Node5&#45;&gt;Node8 -->
<g id="edge9" class="edge">
<title>Node5&#45;&gt;Node8</title>
<path fill="none" stroke="midnightblue" d="M286.22,-190.42C269.2,-181.18 247.41,-168.19 230,-154 208.1,-136.14 186.63,-111.93 172.31,-94.54"/>
<polygon fill="midnightblue" stroke="midnightblue" points="174.9,-92.18 165.89,-86.62 169.46,-96.59 174.9,-92.18"/>
</g>
<!-- Node12 -->
<g id="node12" class="node">
<title>Node12</title>
<g id="a_node12"><a xlink:href="Vector_8h_source.html" target="_top" xlink:title=" ">
<polygon fill="none" stroke="black" points="238.5,-123.5 238.5,-153.5 389.5,-153.5 389.5,-123.5 238.5,-123.5"/>
<text text-anchor="start" x="246.5" y="-141.5" font-family="Helvetica,sans-Serif" font-size="10.00">BipedalLocomotion/Generic</text>
<text text-anchor="middle" x="314" y="-130.5" font-family="Helvetica,sans-Serif" font-size="10.00">Container/Vector.h</text>
</a>
</g>
</g>
<!-- Node5&#45;&gt;Node12 -->
<g id="edge13" class="edge">
<title>Node5&#45;&gt;Node12</title>
<path fill="none" stroke="midnightblue" d="M314,-190.4C314,-182.64 314,-172.81 314,-163.86"/>
<polygon fill="midnightblue" stroke="midnightblue" points="317.5,-163.58 314,-153.58 310.5,-163.58 317.5,-163.58"/>
</g>
<!-- Node9 -->
<g id="node9" class="node">
<title>Node9</title>
<g id="a_node9"><a xlink:title=" ">
<polygon fill="none" stroke="#bfbfbf" points="207.5,-0.5 207.5,-19.5 276.5,-19.5 276.5,-0.5 207.5,-0.5"/>
<text text-anchor="middle" x="242" y="-7.5" font-family="Helvetica,sans-Serif" font-size="10.00">type_traits</text>
</a>
</g>
</g>
<!-- Node8&#45;&gt;Node9 -->
<g id="edge10" class="edge">
<title>Node8&#45;&gt;Node9</title>
<path fill="none" stroke="midnightblue" d="M175.62,-56.4C189.3,-47.04 207.21,-34.79 220.98,-25.38"/>
<polygon fill="midnightblue" stroke="midnightblue" points="223.06,-28.19 229.34,-19.66 219.11,-22.41 223.06,-28.19"/>
</g>
<!-- Node10 -->
<g id="node10" class="node">
<title>Node10</title>
<g id="a_node10"><a xlink:title=" ">
<polygon fill="none" stroke="#bfbfbf" points="29.5,-0.5 29.5,-19.5 102.5,-19.5 102.5,-0.5 29.5,-0.5"/>
<text text-anchor="middle" x="66" y="-7.5" font-family="Helvetica,sans-Serif" font-size="10.00">string_view</text>
</a>
</g>
</g>
<!-- Node8&#45;&gt;Node10 -->
<g id="edge11" class="edge">
<title>Node8&#45;&gt;Node10</title>
<path fill="none" stroke="midnightblue" d="M133.91,-56.4C119.91,-47.04 101.59,-34.79 87.51,-25.38"/>
<polygon fill="midnightblue" stroke="midnightblue" points="89.21,-22.31 78.95,-19.66 85.32,-28.13 89.21,-22.31"/>
</g>
<!-- Node11 -->
<g id="node11" class="node">
<title>Node11</title>
<g id="a_node11"><a xlink:title=" ">
<polygon fill="none" stroke="#bfbfbf" points="120.5,-0.5 120.5,-19.5 189.5,-19.5 189.5,-0.5 120.5,-0.5"/>
<text text-anchor="middle" x="155" y="-7.5" font-family="Helvetica,sans-Serif" font-size="10.00">Eigen/Core</text>
</a>
</g>
</g>
<!-- Node8&#45;&gt;Node11 -->
<g id="edge12" class="edge">
<title>Node8&#45;&gt;Node11</title>
<path fill="none" stroke="midnightblue" d="M155,-56.4C155,-48.47 155,-38.46 155,-29.86"/>
<polygon fill="midnightblue" stroke="midnightblue" points="158.5,-29.66 155,-19.66 151.5,-29.66 158.5,-29.66"/>
</g>
<!-- Node12&#45;&gt;Node2 -->
<g id="edge19" class="edge">
<title>Node12&#45;&gt;Node2</title>
<path fill="none" stroke="midnightblue" d="M238.37,-125.33C189.08,-116.6 123.63,-103.47 67,-87 64.42,-86.25 61.77,-85.4 59.12,-84.5"/>
<polygon fill="midnightblue" stroke="midnightblue" points="60.29,-81.2 49.7,-81.1 57.91,-87.79 60.29,-81.2"/>
</g>
<!-- Node12&#45;&gt;Node8 -->
<g id="edge15" class="edge">
<title>Node12&#45;&gt;Node8</title>
<path fill="none" stroke="midnightblue" d="M279.5,-123.4C255.85,-113.73 224.28,-100.82 198.85,-90.43"/>
<polygon fill="midnightblue" stroke="midnightblue" points="200.01,-87.12 189.43,-86.58 197.37,-93.6 200.01,-87.12"/>
</g>
<!-- Node13 -->
<g id="node13" class="node">
<title>Node13</title>
<g id="a_node13"><a xlink:title=" ">
<polygon fill="none" stroke="#bfbfbf" points="251.5,-62 251.5,-81 372.5,-81 372.5,-62 251.5,-62"/>
<text text-anchor="middle" x="312" y="-69" font-family="Helvetica,sans-Serif" font-size="10.00">iDynTree/Core/Span.h</text>
</a>
</g>
</g>
<!-- Node12&#45;&gt;Node13 -->
<g id="edge14" class="edge">
<title>Node12&#45;&gt;Node13</title>
<path fill="none" stroke="midnightblue" d="M313.57,-123.4C313.28,-114.06 312.9,-101.71 312.59,-91.52"/>
<polygon fill="midnightblue" stroke="midnightblue" points="316.07,-91.08 312.27,-81.19 309.08,-91.3 316.07,-91.08"/>
</g>
<!-- Node14 -->
<g id="node14" class="node">
<title>Node14</title>
<g id="a_node14"><a xlink:title=" ">
<polygon fill="none" stroke="#bfbfbf" points="577.5,-62 577.5,-81 642.5,-81 642.5,-62 577.5,-62"/>
<text text-anchor="middle" x="610" y="-69" font-family="Helvetica,sans-Serif" font-size="10.00">functional</text>
</a>
</g>
</g>
<!-- Node12&#45;&gt;Node14 -->
<g id="edge16" class="edge">
<title>Node12&#45;&gt;Node14</title>
<path fill="none" stroke="midnightblue" d="M377.86,-123.48C435.26,-110.87 517.94,-92.72 567.58,-81.82"/>
<polygon fill="midnightblue" stroke="midnightblue" points="568.33,-85.23 577.35,-79.67 566.83,-78.4 568.33,-85.23"/>
</g>
<!-- Node15 -->
<g id="node15" class="node">
<title>Node15</title>
<g id="a_node15"><a xlink:title=" ">
<polygon fill="none" stroke="#bfbfbf" points="391,-62 391,-81 443,-81 443,-62 391,-62"/>
<text text-anchor="middle" x="417" y="-69" font-family="Helvetica,sans-Serif" font-size="10.00">cassert</text>
</a>
</g>
</g>
<!-- Node12&#45;&gt;Node15 -->
<g id="edge17" class="edge">
<title>Node12&#45;&gt;Node15</title>
<path fill="none" stroke="midnightblue" d="M336.35,-123.4C353.62,-112.5 377.42,-97.48 394.68,-86.58"/>
<polygon fill="midnightblue" stroke="midnightblue" points="396.93,-89.3 403.52,-81.01 393.19,-83.38 396.93,-89.3"/>
</g>
<!-- Node16 -->
<g id="node16" class="node">
<title>Node16</title>
<g id="a_node16"><a xlink:title=" ">
<polygon fill="none" stroke="#bfbfbf" points="461,-62 461,-81 521,-81 521,-62 461,-62"/>
<text text-anchor="middle" x="491" y="-69" font-family="Helvetica,sans-Serif" font-size="10.00">iostream</text>
</a>
</g>
</g>
<!-- Node12&#45;&gt;Node16 -->
<g id="edge18" class="edge">
<title>Node12&#45;&gt;Node16</title>
<path fill="none" stroke="midnightblue" d="M352.68,-123.4C380.36,-113.31 418.49,-99.36 452,-87 454.09,-86.23 456.25,-85.43 458.42,-84.63"/>
<polygon fill="midnightblue" stroke="midnightblue" points="459.75,-87.87 467.91,-81.11 457.32,-81.3 459.75,-87.87"/>
</g>
<!-- Node17&#45;&gt;Node7 -->
<g id="edge41" class="edge">
<title>Node17&#45;&gt;Node7</title>
<path fill="none" stroke="midnightblue" d="M675.58,-324.34C663.62,-314.44 647.54,-300.77 634,-288 585.15,-241.93 531.11,-183.64 505.71,-155.78"/>
<polygon fill="midnightblue" stroke="midnightblue" points="508.1,-153.2 498.79,-148.15 502.92,-157.91 508.1,-153.2"/>
</g>
<!-- Node18 -->
<g id="node18" class="node">
<title>Node18</title>
<g id="a_node18"><a xlink:href="Contact_8h.html" target="_top" xlink:title=" ">
<polygon fill="none" stroke="black" points="843,-123.5 843,-153.5 999,-153.5 999,-123.5 843,-123.5"/>
<text text-anchor="start" x="851" y="-141.5" font-family="Helvetica,sans-Serif" font-size="10.00">BipedalLocomotion/Contacts</text>
<text text-anchor="middle" x="921" y="-130.5" font-family="Helvetica,sans-Serif" font-size="10.00">/Contact.h</text>
</a>
</g>
</g>
<!-- Node17&#45;&gt;Node18 -->
<g id="edge21" class="edge">
<title>Node17&#45;&gt;Node18</title>
<path fill="none" stroke="midnightblue" d="M771.03,-337.2C822.24,-332.97 888.62,-320.79 938,-288 978.08,-261.38 1004.82,-233.38 984,-190 978.05,-177.61 967.43,-167.31 956.57,-159.31"/>
<polygon fill="midnightblue" stroke="midnightblue" points="958.53,-156.41 948.3,-153.64 954.57,-162.18 958.53,-156.41"/>
</g>
<!-- Node22 -->
<g id="node22" class="node">
<title>Node22</title>
<g id="a_node22"><a xlink:href="ContactList_8h.html" target="_top" xlink:title=" ">
<polygon fill="none" stroke="black" points="631,-190.5 631,-220.5 787,-220.5 787,-190.5 631,-190.5"/>
<text text-anchor="start" x="639" y="-208.5" font-family="Helvetica,sans-Serif" font-size="10.00">BipedalLocomotion/Contacts</text>
<text text-anchor="middle" x="709" y="-197.5" font-family="Helvetica,sans-Serif" font-size="10.00">/ContactList.h</text>
</a>
</g>
</g>
<!-- Node17&#45;&gt;Node22 -->
<g id="edge28" class="edge">
<title>Node17&#45;&gt;Node22</title>
<path fill="none" stroke="midnightblue" d="M672.76,-324.41C661.7,-315.43 649.05,-302.72 643,-288 637.76,-275.26 636.9,-269.35 643,-257 649.21,-244.42 660.22,-234.12 671.5,-226.17"/>
<polygon fill="midnightblue" stroke="midnightblue" points="673.63,-228.95 680.09,-220.55 669.8,-223.09 673.63,-228.95"/>
</g>
<!-- Node25 -->
<g id="node25" class="node">
<title>Node25</title>
<g id="a_node25"><a xlink:href="ContactPhase_8h.html" target="_top" xlink:title=" ">
<polygon fill="none" stroke="black" points="753,-257.5 753,-287.5 909,-287.5 909,-257.5 753,-257.5"/>
<text text-anchor="start" x="761" y="-275.5" font-family="Helvetica,sans-Serif" font-size="10.00">BipedalLocomotion/Contacts</text>
<text text-anchor="middle" x="831" y="-264.5" font-family="Helvetica,sans-Serif" font-size="10.00">/ContactPhase.h</text>
</a>
</g>
</g>
<!-- Node17&#45;&gt;Node25 -->
<g id="edge34" class="edge">
<title>Node17&#45;&gt;Node25</title>
<path fill="none" stroke="midnightblue" d="M722.94,-324.4C743.2,-314.86 770.15,-302.16 792.06,-291.84"/>
<polygon fill="midnightblue" stroke="midnightblue" points="793.56,-295 801.11,-287.58 790.58,-288.67 793.56,-295"/>
</g>
<!-- Node26 -->
<g id="node26" class="node">
<title>Node26</title>
<g id="a_node26"><a xlink:title=" ">
<polygon fill="none" stroke="#bfbfbf" points="881.5,-196 881.5,-215 974.5,-215 974.5,-196 881.5,-196"/>
<text text-anchor="middle" x="928" y="-203" font-family="Helvetica,sans-Serif" font-size="10.00">unordered_map</text>
</a>
</g>
</g>
<!-- Node17&#45;&gt;Node26 -->
<g id="edge39" class="edge">
<title>Node17&#45;&gt;Node26</title>
<path fill="none" stroke="midnightblue" d="M771.06,-330.54C827.96,-323.04 898.38,-309.66 918,-288 933.22,-271.2 933.39,-243.83 931.34,-225.5"/>
<polygon fill="midnightblue" stroke="midnightblue" points="934.77,-224.83 929.88,-215.43 927.85,-225.83 934.77,-224.83"/>
</g>
<!-- Node27 -->
<g id="node27" class="node">
<title>Node27</title>
<g id="a_node27"><a xlink:title=" ">
<polygon fill="none" stroke="#bfbfbf" points="651.5,-263 651.5,-282 734.5,-282 734.5,-263 651.5,-263"/>
<text text-anchor="middle" x="693" y="-270" font-family="Helvetica,sans-Serif" font-size="10.00">initializer_list</text>
</a>
</g>
</g>
<!-- Node17&#45;&gt;Node27 -->
<g id="edge40" class="edge">
<title>Node17&#45;&gt;Node27</title>
<path fill="none" stroke="midnightblue" d="M693,-324.4C693,-315.06 693,-302.71 693,-292.52"/>
<polygon fill="midnightblue" stroke="midnightblue" points="696.5,-292.19 693,-282.19 689.5,-292.19 696.5,-292.19"/>
</g>
<!-- Node18&#45;&gt;Node6 -->
<g id="edge27" class="edge">
<title>Node18&#45;&gt;Node6</title>
<path fill="none" stroke="midnightblue" d="M889.27,-123.5C866.59,-113.44 835.36,-99.51 808,-87 806.85,-86.47 805.67,-85.93 804.48,-85.38"/>
<polygon fill="midnightblue" stroke="midnightblue" points="805.88,-82.17 795.33,-81.14 802.93,-88.52 805.88,-82.17"/>
</g>
<!-- Node19 -->
<g id="node19" class="node">
<title>Node19</title>
<g id="a_node19"><a xlink:href="Wrench_8h.html" target="_top" xlink:title=" ">
<polygon fill="none" stroke="black" points="817,-56.5 817,-86.5 955,-86.5 955,-56.5 817,-56.5"/>
<text text-anchor="start" x="825" y="-74.5" font-family="Helvetica,sans-Serif" font-size="10.00">BipedalLocomotion/Math</text>
<text text-anchor="middle" x="886" y="-63.5" font-family="Helvetica,sans-Serif" font-size="10.00">/Wrench.h</text>
</a>
</g>
</g>
<!-- Node18&#45;&gt;Node19 -->
<g id="edge22" class="edge">
<title>Node18&#45;&gt;Node19</title>
<path fill="none" stroke="midnightblue" d="M913.41,-123.4C909,-115.22 903.35,-104.73 898.33,-95.39"/>
<polygon fill="midnightblue" stroke="midnightblue" points="901.4,-93.72 893.58,-86.58 895.24,-97.04 901.4,-93.72"/>
</g>
<!-- Node20 -->
<g id="node20" class="node">
<title>Node20</title>
<g id="a_node20"><a xlink:title=" ">
<polygon fill="none" stroke="#bfbfbf" points="943.5,-0.5 943.5,-19.5 1018.5,-19.5 1018.5,-0.5 943.5,-0.5"/>
<text text-anchor="middle" x="981" y="-7.5" font-family="Helvetica,sans-Serif" font-size="10.00">manif/SE3.h</text>
</a>
</g>
</g>
<!-- Node18&#45;&gt;Node20 -->
<g id="edge26" class="edge">
<title>Node18&#45;&gt;Node20</title>
<path fill="none" stroke="midnightblue" d="M936.3,-123.43C945.65,-114 957.11,-100.81 964,-87 973.03,-68.89 977.31,-45.98 979.31,-30.07"/>
<polygon fill="midnightblue" stroke="midnightblue" points="982.82,-30.21 980.4,-19.89 975.86,-29.46 982.82,-30.21"/>
</g>
<!-- Node19&#45;&gt;Node4 -->
<g id="edge23" class="edge">
<title>Node19&#45;&gt;Node4</title>
<path fill="none" stroke="midnightblue" d="M834.85,-56.47C796.76,-46.03 745.43,-31.96 710.02,-22.25"/>
<polygon fill="midnightblue" stroke="midnightblue" points="710.59,-18.78 700.02,-19.51 708.74,-25.53 710.59,-18.78"/>
</g>
<!-- Node19&#45;&gt;Node20 -->
<g id="edge24" class="edge">
<title>Node19&#45;&gt;Node20</title>
<path fill="none" stroke="midnightblue" d="M908.51,-56.4C923.6,-46.95 943.39,-34.56 958.47,-25.11"/>
<polygon fill="midnightblue" stroke="midnightblue" points="960.56,-27.93 967.18,-19.66 956.84,-22 960.56,-27.93"/>
</g>
<!-- Node21 -->
<g id="node21" class="node">
<title>Node21</title>
<g id="a_node21"><a xlink:title=" ">
<polygon fill="none" stroke="#bfbfbf" points="847.5,-0.5 847.5,-19.5 924.5,-19.5 924.5,-0.5 847.5,-0.5"/>
<text text-anchor="middle" x="886" y="-7.5" font-family="Helvetica,sans-Serif" font-size="10.00">manif/SO3.h</text>
</a>
</g>
</g>
<!-- Node19&#45;&gt;Node21 -->
<g id="edge25" class="edge">
<title>Node19&#45;&gt;Node21</title>
<path fill="none" stroke="midnightblue" d="M886,-56.4C886,-48.47 886,-38.46 886,-29.86"/>
<polygon fill="midnightblue" stroke="midnightblue" points="889.5,-29.66 886,-19.66 882.5,-29.66 889.5,-29.66"/>
</g>
<!-- Node22&#45;&gt;Node6 -->
<g id="edge32" class="edge">
<title>Node22&#45;&gt;Node6</title>
<path fill="none" stroke="midnightblue" d="M726.91,-190.4C737.49,-181.14 750.27,-168.15 758,-154 768.75,-134.31 773.44,-108.73 775.48,-91.53"/>
<polygon fill="midnightblue" stroke="midnightblue" points="779,-91.42 776.5,-81.13 772.04,-90.74 779,-91.42"/>
</g>
<!-- Node22&#45;&gt;Node14 -->
<g id="edge33" class="edge">
<title>Node22&#45;&gt;Node14</title>
<path fill="none" stroke="midnightblue" d="M652.9,-190.39C634.4,-182.78 615.81,-171.27 605,-154 593.1,-135 597.81,-108.36 603.15,-90.78"/>
<polygon fill="midnightblue" stroke="midnightblue" points="606.52,-91.75 606.42,-81.16 599.89,-89.5 606.52,-91.75"/>
</g>
<!-- Node22&#45;&gt;Node18 -->
<g id="edge29" class="edge">
<title>Node22&#45;&gt;Node18</title>
<path fill="none" stroke="midnightblue" d="M754.74,-190.48C787.09,-180.56 830.65,-167.2 865.07,-156.65"/>
<polygon fill="midnightblue" stroke="midnightblue" points="866.44,-159.89 874.98,-153.61 864.39,-153.2 866.44,-159.89"/>
</g>
<!-- Node23 -->
<g id="node23" class="node">
<title>Node23</title>
<g id="a_node23"><a xlink:title=" ">
<polygon fill="none" stroke="#bfbfbf" points="613.5,-129 613.5,-148 698.5,-148 698.5,-129 613.5,-129"/>
<text text-anchor="middle" x="656" y="-136" font-family="Helvetica,sans-Serif" font-size="10.00">manif/manif.h</text>
</a>
</g>
</g>
<!-- Node22&#45;&gt;Node23 -->
<g id="edge30" class="edge">
<title>Node22&#45;&gt;Node23</title>
<path fill="none" stroke="midnightblue" d="M697.5,-190.4C689.32,-180.36 678.29,-166.84 669.66,-156.25"/>
<polygon fill="midnightblue" stroke="midnightblue" points="672.12,-153.73 663.09,-148.19 666.7,-158.16 672.12,-153.73"/>
</g>
<!-- Node24 -->
<g id="node24" class="node">
<title>Node24</title>
<g id="a_node24"><a xlink:title=" ">
<polygon fill="none" stroke="#bfbfbf" points="717,-129 717,-148 749,-148 749,-129 717,-129"/>
<text text-anchor="middle" x="733" y="-136" font-family="Helvetica,sans-Serif" font-size="10.00">set</text>
</a>
</g>
</g>
<!-- Node22&#45;&gt;Node24 -->
<g id="edge31" class="edge">
<title>Node22&#45;&gt;Node24</title>
<path fill="none" stroke="midnightblue" d="M714.21,-190.4C717.73,-180.86 722.41,-168.18 726.22,-157.86"/>
<polygon fill="midnightblue" stroke="midnightblue" points="729.61,-158.79 729.79,-148.19 723.04,-156.36 729.61,-158.79"/>
</g>
<!-- Node25&#45;&gt;Node6 -->
<g id="edge38" class="edge">
<title>Node25&#45;&gt;Node6</title>
<path fill="none" stroke="midnightblue" d="M827.12,-257.19C817.54,-221.91 792.82,-130.78 782.09,-91.25"/>
<polygon fill="midnightblue" stroke="midnightblue" points="785.4,-90.09 779.4,-81.36 778.65,-91.93 785.4,-90.09"/>
</g>
<!-- Node25&#45;&gt;Node18 -->
<g id="edge35" class="edge">
<title>Node25&#45;&gt;Node18</title>
<path fill="none" stroke="midnightblue" d="M836.86,-257.26C844.1,-240.42 857.41,-211.93 873,-190 880.37,-179.63 889.79,-169.26 898.33,-160.63"/>
<polygon fill="midnightblue" stroke="midnightblue" points="900.85,-163.05 905.53,-153.55 895.95,-158.06 900.85,-163.05"/>
</g>
<!-- Node25&#45;&gt;Node22 -->
<g id="edge36" class="edge">
<title>Node25&#45;&gt;Node22</title>
<path fill="none" stroke="midnightblue" d="M804.53,-257.4C786.94,-248.03 763.65,-235.62 744.46,-225.39"/>
<polygon fill="midnightblue" stroke="midnightblue" points="745.89,-222.19 735.42,-220.58 742.6,-228.37 745.89,-222.19"/>
</g>
<!-- Node25&#45;&gt;Node26 -->
<g id="edge37" class="edge">
<title>Node25&#45;&gt;Node26</title>
<path fill="none" stroke="midnightblue" d="M852.05,-257.4C868.31,-246.5 890.72,-231.48 906.98,-220.58"/>
<polygon fill="midnightblue" stroke="midnightblue" points="908.95,-223.48 915.3,-215.01 905.05,-217.67 908.95,-223.48"/>
</g>
<!-- Node29 -->
<g id="node29" class="node">
<title>Node29</title>
<g id="a_node29"><a xlink:href="Advanceable_8h.html" target="_top" xlink:title=" ">
<polygon fill="none" stroke="black" points="136,-257.5 136,-287.5 286,-287.5 286,-257.5 136,-257.5"/>
<text text-anchor="start" x="144" y="-275.5" font-family="Helvetica,sans-Serif" font-size="10.00">BipedalLocomotion/System</text>
<text text-anchor="middle" x="211" y="-264.5" font-family="Helvetica,sans-Serif" font-size="10.00">/Advanceable.h</text>
</a>
</g>
</g>
<!-- Node28&#45;&gt;Node29 -->
<g id="edge43" class="edge">
<title>Node28&#45;&gt;Node29</title>
<path fill="none" stroke="midnightblue" d="M211,-324.4C211,-316.64 211,-306.81 211,-297.86"/>
<polygon fill="midnightblue" stroke="midnightblue" points="214.5,-297.58 211,-287.58 207.5,-297.58 214.5,-297.58"/>
</g>
<!-- Node29&#45;&gt;Node5 -->
<g id="edge45" class="edge">
<title>Node29&#45;&gt;Node5</title>
<path fill="none" stroke="midnightblue" d="M233.35,-257.4C247.93,-248.2 267.15,-236.07 283.17,-225.95"/>
<polygon fill="midnightblue" stroke="midnightblue" points="285.11,-228.87 291.69,-220.58 281.37,-222.95 285.11,-228.87"/>
</g>
<!-- Node30 -->
<g id="node30" class="node">
<title>Node30</title>
<g id="a_node30"><a xlink:title=" ">
<polygon fill="none" stroke="#bfbfbf" points="160.5,-196 160.5,-215 211.5,-215 211.5,-196 160.5,-196"/>
<text text-anchor="middle" x="186" y="-203" font-family="Helvetica,sans-Serif" font-size="10.00">variant</text>
</a>
</g>
</g>
<!-- Node29&#45;&gt;Node30 -->
<g id="edge44" class="edge">
<title>Node29&#45;&gt;Node30</title>
<path fill="none" stroke="midnightblue" d="M205.58,-257.4C201.87,-247.76 196.93,-234.91 192.94,-224.54"/>
<polygon fill="midnightblue" stroke="midnightblue" points="196.2,-223.27 189.34,-215.19 189.67,-225.78 196.2,-223.27"/>
</g>
</g>
</svg>
