<?xml version="1.0" encoding="UTF-8" standalone="no"?>
<!DOCTYPE svg PUBLIC "-//W3C//DTD SVG 1.1//EN"
 "http://www.w3.org/Graphics/SVG/1.1/DTD/svg11.dtd">
<!-- Generated by graphviz version 2.43.0 (0)
 -->
<!-- Title: Planners/src/TimeVaryingDCMPlanner.cpp Pages: 1 -->
<!--zoomable 564 -->
<svg id="main" version="1.1" xmlns="http://www.w3.org/2000/svg" xmlns:xlink="http://www.w3.org/1999/xlink" xml:space="preserve" onload="init(evt)">
<style type="text/css"><![CDATA[
.edge:hover path { stroke: red; }
.edge:hover polygon { stroke: red; fill: red; }
]]></style>
<script type="text/javascript"><![CDATA[
var edges = document.getElementsByTagName('g');
if (edges && edges.length) {
  for (var i=0;i<edges.length;i++) {
    if (edges[i].id.substr(0,4)=='edge') {
      edges[i].setAttribute('class','edge');
    }
  }
}
]]></script>
        <defs>
                <circle id="rim" cx="0" cy="0" r="7"/>
                <circle id="rim2" cx="0" cy="0" r="3.5"/>
                <g id="zoomPlus">
                        <use xlink:href="#rim" fill="#404040">
                                <set attributeName="fill" to="#808080" begin="zoomplus.mouseover" end="zoomplus.mouseout"/>
                        </use>
                        <path d="M-4,0h8M0,-4v8" fill="none" stroke="white" stroke-width="1.5" pointer-events="none"/>
                </g>
                <g id="zoomMin">
                        <use xlink:href="#rim" fill="#404040">
                                <set attributeName="fill" to="#808080" begin="zoomminus.mouseover" end="zoomminus.mouseout"/>
                        </use>
                        <path d="M-4,0h8" fill="none" stroke="white" stroke-width="1.5" pointer-events="none"/>
                </g>
                <g id="dirArrow">
                        <path fill="none" stroke="white" stroke-width="1.5" d="M0,-3.0v7 M-2.5,-0.5L0,-3.0L2.5,-0.5"/>
                </g>
               <g id="resetDef">
                       <use xlink:href="#rim2" fill="#404040">
                               <set attributeName="fill" to="#808080" begin="reset.mouseover" end="reset.mouseout"/>
                       </use>
               </g>
        </defs>

<script type="text/javascript">
var viewWidth = 1411;
var viewHeight = 564;
var sectionId = 'dynsection-0';
</script>
<script xlink:href="svgpan.js"/>
<svg id="graph" class="graph">
<g id="viewport">
<title>Planners/src/TimeVaryingDCMPlanner.cpp</title>
<!-- Node1 -->
<g id="node1" class="node">
<title>Node1</title>
<g id="a_node1"><a xlink:title=" ">
<polygon fill="#bfbfbf" stroke="black" points="254,-525.5 254,-555.5 394,-555.5 394,-525.5 254,-525.5"/>
<text text-anchor="start" x="262" y="-543.5" font-family="Helvetica,sans-Serif" font-size="10.00">Planners/src/TimeVarying</text>
<text text-anchor="middle" x="324" y="-532.5" font-family="Helvetica,sans-Serif" font-size="10.00">DCMPlanner.cpp</text>
</a>
</g>
</g>
<!-- Node2 -->
<g id="node2" class="node">
<title>Node2</title>
<g id="a_node2"><a xlink:title=" ">
<polygon fill="none" stroke="#bfbfbf" points="0,-464 0,-483 104,-483 104,-464 0,-464"/>
<text text-anchor="middle" x="52" y="-471" font-family="Helvetica,sans-Serif" font-size="10.00">casadi/casadi.hpp</text>
</a>
</g>
</g>
<!-- Node1&#45;&gt;Node2 -->
<g id="edge1" class="edge">
<title>Node1&#45;&gt;Node2</title>
<path fill="none" stroke="midnightblue" d="M265.31,-525.48C215.08,-513.47 143.77,-496.43 97.69,-485.42"/>
<polygon fill="midnightblue" stroke="midnightblue" points="98.23,-481.95 87.69,-483.03 96.6,-488.76 98.23,-481.95"/>
</g>
<!-- Node3 -->
<g id="node3" class="node">
<title>Node3</title>
<g id="a_node3"><a xlink:href="Constants_8h.html" target="_top" xlink:title=" ">
<polygon fill="none" stroke="black" points="122,-458.5 122,-488.5 260,-488.5 260,-458.5 122,-458.5"/>
<text text-anchor="start" x="130" y="-476.5" font-family="Helvetica,sans-Serif" font-size="10.00">BipedalLocomotion/Math</text>
<text text-anchor="middle" x="191" y="-465.5" font-family="Helvetica,sans-Serif" font-size="10.00">/Constants.h</text>
</a>
</g>
</g>
<!-- Node1&#45;&gt;Node3 -->
<g id="edge2" class="edge">
<title>Node1&#45;&gt;Node3</title>
<path fill="none" stroke="midnightblue" d="M295.14,-525.4C275.71,-515.9 249.88,-503.28 228.81,-492.98"/>
<polygon fill="midnightblue" stroke="midnightblue" points="230.32,-489.82 219.8,-488.58 227.25,-496.11 230.32,-489.82"/>
</g>
<!-- Node4 -->
<g id="node4" class="node">
<title>Node4</title>
<g id="a_node4"><a xlink:href="ConvexHullHelper_8h.html" target="_top" xlink:title=" ">
<polygon fill="none" stroke="black" points="240.5,-190.5 240.5,-220.5 395.5,-220.5 395.5,-190.5 240.5,-190.5"/>
<text text-anchor="start" x="248.5" y="-208.5" font-family="Helvetica,sans-Serif" font-size="10.00">BipedalLocomotion/Planners</text>
<text text-anchor="middle" x="318" y="-197.5" font-family="Helvetica,sans-Serif" font-size="10.00">/ConvexHullHelper.h</text>
</a>
</g>
</g>
<!-- Node1&#45;&gt;Node4 -->
<g id="edge3" class="edge">
<title>Node1&#45;&gt;Node4</title>
<path fill="none" stroke="midnightblue" d="M317.4,-525.2C307,-501.34 288,-451.68 288,-407.5 288,-407.5 288,-407.5 288,-338.5 288,-299.87 300.37,-256.44 309.22,-230.29"/>
<polygon fill="midnightblue" stroke="midnightblue" points="312.64,-231.12 312.64,-220.52 306.03,-228.8 312.64,-231.12"/>
</g>
<!-- Node8 -->
<g id="node8" class="node">
<title>Node8</title>
<g id="a_node8"><a xlink:href="QuinticSpline_8h.html" target="_top" xlink:title=" ">
<polygon fill="none" stroke="black" points="316.5,-391.5 316.5,-421.5 471.5,-421.5 471.5,-391.5 316.5,-391.5"/>
<text text-anchor="start" x="324.5" y="-409.5" font-family="Helvetica,sans-Serif" font-size="10.00">BipedalLocomotion/Planners</text>
<text text-anchor="middle" x="394" y="-398.5" font-family="Helvetica,sans-Serif" font-size="10.00">/QuinticSpline.h</text>
</a>
</g>
</g>
<!-- Node1&#45;&gt;Node8 -->
<g id="edge7" class="edge">
<title>Node1&#45;&gt;Node8</title>
<path fill="none" stroke="midnightblue" d="M331.49,-525.37C343.54,-502.65 367.35,-457.75 381.86,-430.4"/>
<polygon fill="midnightblue" stroke="midnightblue" points="384.97,-432 386.56,-421.52 378.79,-428.72 384.97,-432"/>
</g>
<!-- Node23 -->
<g id="node23" class="node">
<title>Node23</title>
<g id="a_node23"><a xlink:href="TimeVaryingDCMPlanner_8h.html" target="_top" xlink:title=" ">
<polygon fill="none" stroke="black" points="422.5,-458.5 422.5,-488.5 577.5,-488.5 577.5,-458.5 422.5,-458.5"/>
<text text-anchor="start" x="430.5" y="-476.5" font-family="Helvetica,sans-Serif" font-size="10.00">BipedalLocomotion/Planners</text>
<text text-anchor="middle" x="500" y="-465.5" font-family="Helvetica,sans-Serif" font-size="10.00">/TimeVaryingDCMPlanner.h</text>
</a>
</g>
</g>
<!-- Node1&#45;&gt;Node23 -->
<g id="edge29" class="edge">
<title>Node1&#45;&gt;Node23</title>
<path fill="none" stroke="midnightblue" d="M362.19,-525.4C388.6,-515.64 423.93,-502.59 452.2,-492.15"/>
<polygon fill="midnightblue" stroke="midnightblue" points="453.72,-495.32 461.89,-488.58 451.29,-488.76 453.72,-495.32"/>
</g>
<!-- Node36 -->
<g id="node36" class="node">
<title>Node36</title>
<g id="a_node36"><a xlink:href="Logger_8h.html" target="_top" xlink:title=" ">
<polygon fill="none" stroke="black" points="765,-458.5 765,-488.5 937,-488.5 937,-458.5 765,-458.5"/>
<text text-anchor="start" x="773" y="-476.5" font-family="Helvetica,sans-Serif" font-size="10.00">BipedalLocomotion/TextLogging</text>
<text text-anchor="middle" x="851" y="-465.5" font-family="Helvetica,sans-Serif" font-size="10.00">/Logger.h</text>
</a>
</g>
</g>
<!-- Node1&#45;&gt;Node36 -->
<g id="edge58" class="edge">
<title>Node1&#45;&gt;Node36</title>
<path fill="none" stroke="midnightblue" d="M394.25,-530.83C486.87,-519.41 650.23,-499.26 754.41,-486.41"/>
<polygon fill="midnightblue" stroke="midnightblue" points="755.12,-489.85 764.62,-485.15 754.27,-482.9 755.12,-489.85"/>
</g>
<!-- Node5 -->
<g id="node5" class="node">
<title>Node5</title>
<g id="a_node5"><a xlink:title=" ">
<polygon fill="none" stroke="#bfbfbf" points="325.5,-0.5 325.5,-19.5 402.5,-19.5 402.5,-0.5 325.5,-0.5"/>
<text text-anchor="middle" x="364" y="-7.5" font-family="Helvetica,sans-Serif" font-size="10.00">Eigen/Dense</text>
</a>
</g>
</g>
<!-- Node4&#45;&gt;Node5 -->
<g id="edge4" class="edge">
<title>Node4&#45;&gt;Node5</title>
<path fill="none" stroke="midnightblue" d="M321.38,-190.27C329.58,-155.8 350.49,-67.81 359.63,-29.4"/>
<polygon fill="midnightblue" stroke="midnightblue" points="363.05,-30.12 361.96,-19.58 356.24,-28.5 363.05,-30.12"/>
</g>
<!-- Node6 -->
<g id="node6" class="node">
<title>Node6</title>
<g id="a_node6"><a xlink:title=" ">
<polygon fill="none" stroke="#bfbfbf" points="552.5,-129 552.5,-148 599.5,-148 599.5,-129 552.5,-129"/>
<text text-anchor="middle" x="576" y="-136" font-family="Helvetica,sans-Serif" font-size="10.00">vector</text>
</a>
</g>
</g>
<!-- Node4&#45;&gt;Node6 -->
<g id="edge5" class="edge">
<title>Node4&#45;&gt;Node6</title>
<path fill="none" stroke="midnightblue" d="M373.66,-190.48C424.98,-177.55 499.49,-158.78 542.31,-147.99"/>
<polygon fill="midnightblue" stroke="midnightblue" points="543.38,-151.33 552.22,-145.49 541.67,-144.54 543.38,-151.33"/>
</g>
<!-- Node7 -->
<g id="node7" class="node">
<title>Node7</title>
<g id="a_node7"><a xlink:title=" ">
<polygon fill="none" stroke="#bfbfbf" points="471,-62 471,-81 529,-81 529,-62 471,-62"/>
<text text-anchor="middle" x="500" y="-69" font-family="Helvetica,sans-Serif" font-size="10.00">memory</text>
</a>
</g>
</g>
<!-- Node4&#45;&gt;Node7 -->
<g id="edge6" class="edge">
<title>Node4&#45;&gt;Node7</title>
<path fill="none" stroke="midnightblue" d="M337.48,-190.37C372.16,-165.22 444.28,-112.91 479.61,-87.29"/>
<polygon fill="midnightblue" stroke="midnightblue" points="482.11,-89.8 488.15,-81.1 478,-84.14 482.11,-89.8"/>
</g>
<!-- Node8&#45;&gt;Node5 -->
<g id="edge10" class="edge">
<title>Node8&#45;&gt;Node5</title>
<path fill="none" stroke="midnightblue" d="M374.55,-391.5C338.02,-363.84 260.2,-298.15 231,-221 200.5,-140.4 298.5,-57.77 343.1,-25.31"/>
<polygon fill="midnightblue" stroke="midnightblue" points="345.13,-28.16 351.25,-19.51 341.07,-22.46 345.13,-28.16"/>
</g>
<!-- Node8&#45;&gt;Node6 -->
<g id="edge8" class="edge">
<title>Node8&#45;&gt;Node6</title>
<path fill="none" stroke="midnightblue" d="M403.79,-391.2C434.8,-345.88 530.82,-205.54 564.32,-156.57"/>
<polygon fill="midnightblue" stroke="midnightblue" points="567.39,-158.28 570.15,-148.05 561.62,-154.33 567.39,-158.28"/>
</g>
<!-- Node8&#45;&gt;Node7 -->
<g id="edge9" class="edge">
<title>Node8&#45;&gt;Node7</title>
<path fill="none" stroke="midnightblue" d="M398.55,-391.19C415.53,-337.86 475.12,-150.67 494.13,-90.95"/>
<polygon fill="midnightblue" stroke="midnightblue" points="497.58,-91.66 497.27,-81.07 490.9,-89.53 497.58,-91.66"/>
</g>
<!-- Node9 -->
<g id="node9" class="node">
<title>Node9</title>
<g id="a_node9"><a xlink:href="Source_8h.html" target="_top" xlink:title=" ">
<polygon fill="none" stroke="black" points="528,-324.5 528,-354.5 678,-354.5 678,-324.5 528,-324.5"/>
<text text-anchor="start" x="536" y="-342.5" font-family="Helvetica,sans-Serif" font-size="10.00">BipedalLocomotion/System</text>
<text text-anchor="middle" x="603" y="-331.5" font-family="Helvetica,sans-Serif" font-size="10.00">/Source.h</text>
</a>
</g>
</g>
<!-- Node8&#45;&gt;Node9 -->
<g id="edge11" class="edge">
<title>Node8&#45;&gt;Node9</title>
<path fill="none" stroke="midnightblue" d="M439.09,-391.48C470.98,-381.56 513.93,-368.2 547.86,-357.65"/>
<polygon fill="midnightblue" stroke="midnightblue" points="549.12,-360.92 557.63,-354.61 547.04,-354.24 549.12,-360.92"/>
</g>
<!-- Node10 -->
<g id="node10" class="node">
<title>Node10</title>
<g id="a_node10"><a xlink:href="Advanceable_8h.html" target="_top" xlink:title=" ">
<polygon fill="none" stroke="black" points="528,-257.5 528,-287.5 678,-287.5 678,-257.5 528,-257.5"/>
<text text-anchor="start" x="536" y="-275.5" font-family="Helvetica,sans-Serif" font-size="10.00">BipedalLocomotion/System</text>
<text text-anchor="middle" x="603" y="-264.5" font-family="Helvetica,sans-Serif" font-size="10.00">/Advanceable.h</text>
</a>
</g>
</g>
<!-- Node9&#45;&gt;Node10 -->
<g id="edge12" class="edge">
<title>Node9&#45;&gt;Node10</title>
<path fill="none" stroke="midnightblue" d="M603,-324.4C603,-316.64 603,-306.81 603,-297.86"/>
<polygon fill="midnightblue" stroke="midnightblue" points="606.5,-297.58 603,-287.58 599.5,-297.58 606.5,-297.58"/>
</g>
<!-- Node11 -->
<g id="node11" class="node">
<title>Node11</title>
<g id="a_node11"><a xlink:title=" ">
<polygon fill="none" stroke="#bfbfbf" points="571.5,-196 571.5,-215 622.5,-215 622.5,-196 571.5,-196"/>
<text text-anchor="middle" x="597" y="-203" font-family="Helvetica,sans-Serif" font-size="10.00">variant</text>
</a>
</g>
</g>
<!-- Node10&#45;&gt;Node11 -->
<g id="edge13" class="edge">
<title>Node10&#45;&gt;Node11</title>
<path fill="none" stroke="midnightblue" d="M601.7,-257.4C600.83,-247.96 599.67,-235.45 598.73,-225.19"/>
<polygon fill="midnightblue" stroke="midnightblue" points="602.21,-224.83 597.8,-215.19 595.24,-225.47 602.21,-224.83"/>
</g>
<!-- Node12 -->
<g id="node12" class="node">
<title>Node12</title>
<g id="a_node12"><a xlink:href="IParametersHandler_8h.html" target="_top" xlink:title=" ">
<polygon fill="none" stroke="black" points="716.5,-190.5 716.5,-220.5 885.5,-220.5 885.5,-190.5 716.5,-190.5"/>
<text text-anchor="start" x="724.5" y="-208.5" font-family="Helvetica,sans-Serif" font-size="10.00">BipedalLocomotion/Parameters</text>
<text text-anchor="middle" x="801" y="-197.5" font-family="Helvetica,sans-Serif" font-size="10.00">Handler/IParametersHandler.h</text>
</a>
</g>
</g>
<!-- Node10&#45;&gt;Node12 -->
<g id="edge14" class="edge">
<title>Node10&#45;&gt;Node12</title>
<path fill="none" stroke="midnightblue" d="M645.96,-257.4C676.06,-247.52 716.46,-234.25 748.48,-223.74"/>
<polygon fill="midnightblue" stroke="midnightblue" points="749.71,-227.02 758.12,-220.58 747.53,-220.37 749.71,-227.02"/>
</g>
<!-- Node12&#45;&gt;Node6 -->
<g id="edge17" class="edge">
<title>Node12&#45;&gt;Node6</title>
<path fill="none" stroke="midnightblue" d="M752.46,-190.48C709.35,-178.02 647.5,-160.16 609.63,-149.22"/>
<polygon fill="midnightblue" stroke="midnightblue" points="610.2,-145.74 599.62,-146.32 608.26,-152.46 610.2,-145.74"/>
</g>
<!-- Node12&#45;&gt;Node7 -->
<g id="edge15" class="edge">
<title>Node12&#45;&gt;Node7</title>
<path fill="none" stroke="midnightblue" d="M771.1,-190.33C751.6,-180.76 725.82,-167.45 704,-154 683.94,-141.64 682.17,-133.35 661,-123 609.83,-97.98 591.98,-105.17 538,-87 535.74,-86.24 533.42,-85.43 531.09,-84.59"/>
<polygon fill="midnightblue" stroke="midnightblue" points="532.19,-81.27 521.59,-81.08 529.76,-87.83 532.19,-81.27"/>
</g>
<!-- Node13 -->
<g id="node13" class="node">
<title>Node13</title>
<g id="a_node13"><a xlink:title=" ">
<polygon fill="none" stroke="#bfbfbf" points="1139,-62 1139,-81 1183,-81 1183,-62 1139,-62"/>
<text text-anchor="middle" x="1161" y="-69" font-family="Helvetica,sans-Serif" font-size="10.00">string</text>
</a>
</g>
</g>
<!-- Node12&#45;&gt;Node13 -->
<g id="edge16" class="edge">
<title>Node12&#45;&gt;Node13</title>
<path fill="none" stroke="midnightblue" d="M830.5,-190.36C867.13,-173.11 931.8,-143.71 989,-123 1037,-105.62 1094.1,-89.78 1128.94,-80.64"/>
<polygon fill="midnightblue" stroke="midnightblue" points="1130.2,-83.93 1139,-78.03 1128.44,-77.16 1130.2,-83.93"/>
</g>
<!-- Node14 -->
<g id="node14" class="node">
<title>Node14</title>
<g id="a_node14"><a xlink:href="TemplateHelpers_8h_source.html" target="_top" xlink:title=" ">
<polygon fill="none" stroke="black" points="835,-56.5 835,-86.5 993,-86.5 993,-56.5 835,-56.5"/>
<text text-anchor="start" x="843" y="-74.5" font-family="Helvetica,sans-Serif" font-size="10.00">BipedalLocomotion/Generic</text>
<text text-anchor="middle" x="914" y="-63.5" font-family="Helvetica,sans-Serif" font-size="10.00">Container/TemplateHelpers.h</text>
</a>
</g>
</g>
<!-- Node12&#45;&gt;Node14 -->
<g id="edge18" class="edge">
<title>Node12&#45;&gt;Node14</title>
<path fill="none" stroke="midnightblue" d="M827.85,-190.46C842.88,-181.57 861.13,-168.95 874,-154 888.7,-136.93 899.46,-113.51 906.09,-96.16"/>
<polygon fill="midnightblue" stroke="midnightblue" points="909.39,-97.33 909.52,-86.73 902.81,-94.94 909.39,-97.33"/>
</g>
<!-- Node18 -->
<g id="node18" class="node">
<title>Node18</title>
<g id="a_node18"><a xlink:href="Vector_8h_source.html" target="_top" xlink:title=" ">
<polygon fill="none" stroke="black" points="713.5,-123.5 713.5,-153.5 864.5,-153.5 864.5,-123.5 713.5,-123.5"/>
<text text-anchor="start" x="721.5" y="-141.5" font-family="Helvetica,sans-Serif" font-size="10.00">BipedalLocomotion/Generic</text>
<text text-anchor="middle" x="789" y="-130.5" font-family="Helvetica,sans-Serif" font-size="10.00">Container/Vector.h</text>
</a>
</g>
</g>
<!-- Node12&#45;&gt;Node18 -->
<g id="edge22" class="edge">
<title>Node12&#45;&gt;Node18</title>
<path fill="none" stroke="midnightblue" d="M798.4,-190.4C796.95,-182.56 795.11,-172.6 793.44,-163.57"/>
<polygon fill="midnightblue" stroke="midnightblue" points="796.86,-162.77 791.6,-153.58 789.97,-164.05 796.86,-162.77"/>
</g>
<!-- Node15 -->
<g id="node15" class="node">
<title>Node15</title>
<g id="a_node15"><a xlink:title=" ">
<polygon fill="none" stroke="#bfbfbf" points="790.5,-0.5 790.5,-19.5 859.5,-19.5 859.5,-0.5 790.5,-0.5"/>
<text text-anchor="middle" x="825" y="-7.5" font-family="Helvetica,sans-Serif" font-size="10.00">type_traits</text>
</a>
</g>
</g>
<!-- Node14&#45;&gt;Node15 -->
<g id="edge19" class="edge">
<title>Node14&#45;&gt;Node15</title>
<path fill="none" stroke="midnightblue" d="M892.91,-56.4C878.91,-47.04 860.59,-34.79 846.51,-25.38"/>
<polygon fill="midnightblue" stroke="midnightblue" points="848.21,-22.31 837.95,-19.66 844.32,-28.13 848.21,-22.31"/>
</g>
<!-- Node16 -->
<g id="node16" class="node">
<title>Node16</title>
<g id="a_node16"><a xlink:title=" ">
<polygon fill="none" stroke="#bfbfbf" points="877.5,-0.5 877.5,-19.5 950.5,-19.5 950.5,-0.5 877.5,-0.5"/>
<text text-anchor="middle" x="914" y="-7.5" font-family="Helvetica,sans-Serif" font-size="10.00">string_view</text>
</a>
</g>
</g>
<!-- Node14&#45;&gt;Node16 -->
<g id="edge20" class="edge">
<title>Node14&#45;&gt;Node16</title>
<path fill="none" stroke="midnightblue" d="M914,-56.4C914,-48.47 914,-38.46 914,-29.86"/>
<polygon fill="midnightblue" stroke="midnightblue" points="917.5,-29.66 914,-19.66 910.5,-29.66 917.5,-29.66"/>
</g>
<!-- Node17 -->
<g id="node17" class="node">
<title>Node17</title>
<g id="a_node17"><a xlink:title=" ">
<polygon fill="none" stroke="#bfbfbf" points="968.5,-0.5 968.5,-19.5 1037.5,-19.5 1037.5,-0.5 968.5,-0.5"/>
<text text-anchor="middle" x="1003" y="-7.5" font-family="Helvetica,sans-Serif" font-size="10.00">Eigen/Core</text>
</a>
</g>
</g>
<!-- Node14&#45;&gt;Node17 -->
<g id="edge21" class="edge">
<title>Node14&#45;&gt;Node17</title>
<path fill="none" stroke="midnightblue" d="M935.09,-56.4C949.09,-47.04 967.41,-34.79 981.49,-25.38"/>
<polygon fill="midnightblue" stroke="midnightblue" points="983.68,-28.13 990.05,-19.66 979.79,-22.31 983.68,-28.13"/>
</g>
<!-- Node18&#45;&gt;Node7 -->
<g id="edge28" class="edge">
<title>Node18&#45;&gt;Node7</title>
<path fill="none" stroke="midnightblue" d="M713.23,-123.69C651.77,-112.22 570.24,-96.32 538,-87 535.42,-86.25 532.76,-85.41 530.12,-84.51"/>
<polygon fill="midnightblue" stroke="midnightblue" points="531.29,-81.21 520.69,-81.11 528.91,-87.8 531.29,-81.21"/>
</g>
<!-- Node18&#45;&gt;Node14 -->
<g id="edge24" class="edge">
<title>Node18&#45;&gt;Node14</title>
<path fill="none" stroke="midnightblue" d="M816.12,-123.4C834.22,-113.98 858.23,-101.5 877.93,-91.26"/>
<polygon fill="midnightblue" stroke="midnightblue" points="879.67,-94.3 886.93,-86.58 876.44,-88.08 879.67,-94.3"/>
</g>
<!-- Node19 -->
<g id="node19" class="node">
<title>Node19</title>
<g id="a_node19"><a xlink:title=" ">
<polygon fill="none" stroke="#bfbfbf" points="695.5,-62 695.5,-81 816.5,-81 816.5,-62 695.5,-62"/>
<text text-anchor="middle" x="756" y="-69" font-family="Helvetica,sans-Serif" font-size="10.00">iDynTree/Core/Span.h</text>
</a>
</g>
</g>
<!-- Node18&#45;&gt;Node19 -->
<g id="edge23" class="edge">
<title>Node18&#45;&gt;Node19</title>
<path fill="none" stroke="midnightblue" d="M781.84,-123.4C776.9,-113.66 770.29,-100.65 764.99,-90.21"/>
<polygon fill="midnightblue" stroke="midnightblue" points="768.06,-88.53 760.41,-81.19 761.82,-91.7 768.06,-88.53"/>
</g>
<!-- Node20 -->
<g id="node20" class="node">
<title>Node20</title>
<g id="a_node20"><a xlink:title=" ">
<polygon fill="none" stroke="#bfbfbf" points="1011.5,-62 1011.5,-81 1076.5,-81 1076.5,-62 1011.5,-62"/>
<text text-anchor="middle" x="1044" y="-69" font-family="Helvetica,sans-Serif" font-size="10.00">functional</text>
</a>
</g>
</g>
<!-- Node18&#45;&gt;Node20 -->
<g id="edge25" class="edge">
<title>Node18&#45;&gt;Node20</title>
<path fill="none" stroke="midnightblue" d="M855.65,-123.49C897.86,-114.18 953.46,-101.1 1002,-87 1004.94,-86.15 1007.98,-85.21 1011.02,-84.23"/>
<polygon fill="midnightblue" stroke="midnightblue" points="1012.2,-87.53 1020.59,-81.05 1009.99,-80.88 1012.2,-87.53"/>
</g>
<!-- Node21 -->
<g id="node21" class="node">
<title>Node21</title>
<g id="a_node21"><a xlink:title=" ">
<polygon fill="none" stroke="#bfbfbf" points="547,-62 547,-81 599,-81 599,-62 547,-62"/>
<text text-anchor="middle" x="573" y="-69" font-family="Helvetica,sans-Serif" font-size="10.00">cassert</text>
</a>
</g>
</g>
<!-- Node18&#45;&gt;Node21 -->
<g id="edge26" class="edge">
<title>Node18&#45;&gt;Node21</title>
<path fill="none" stroke="midnightblue" d="M731.8,-123.43C695.91,-114.14 648.86,-101.11 608,-87 606.09,-86.34 604.13,-85.63 602.17,-84.89"/>
<polygon fill="midnightblue" stroke="midnightblue" points="603.05,-81.47 592.46,-81.05 600.47,-87.98 603.05,-81.47"/>
</g>
<!-- Node22 -->
<g id="node22" class="node">
<title>Node22</title>
<g id="a_node22"><a xlink:title=" ">
<polygon fill="none" stroke="#bfbfbf" points="617,-62 617,-81 677,-81 677,-62 617,-62"/>
<text text-anchor="middle" x="647" y="-69" font-family="Helvetica,sans-Serif" font-size="10.00">iostream</text>
</a>
</g>
</g>
<!-- Node18&#45;&gt;Node22 -->
<g id="edge27" class="edge">
<title>Node18&#45;&gt;Node22</title>
<path fill="none" stroke="midnightblue" d="M758.19,-123.4C733.38,-112.04 698.82,-96.22 674.84,-85.24"/>
<polygon fill="midnightblue" stroke="midnightblue" points="676.13,-81.99 665.58,-81.01 673.22,-88.35 676.13,-81.99"/>
</g>
<!-- Node23&#45;&gt;Node7 -->
<g id="edge30" class="edge">
<title>Node23&#45;&gt;Node7</title>
<path fill="none" stroke="midnightblue" d="M500,-458.24C500,-434.03 500,-383.35 500,-340.5 500,-340.5 500,-340.5 500,-204.5 500,-164.16 500,-116.88 500,-91.28"/>
<polygon fill="midnightblue" stroke="midnightblue" points="503.5,-91.15 500,-81.15 496.5,-91.15 503.5,-91.15"/>
</g>
<!-- Node24 -->
<g id="node24" class="node">
<title>Node24</title>
<g id="a_node24"><a xlink:href="DCMPlanner_8h.html" target="_top" xlink:title=" ">
<polygon fill="none" stroke="black" points="628.5,-391.5 628.5,-421.5 783.5,-421.5 783.5,-391.5 628.5,-391.5"/>
<text text-anchor="start" x="636.5" y="-409.5" font-family="Helvetica,sans-Serif" font-size="10.00">BipedalLocomotion/Planners</text>
<text text-anchor="middle" x="706" y="-398.5" font-family="Helvetica,sans-Serif" font-size="10.00">/DCMPlanner.h</text>
</a>
</g>
</g>
<!-- Node23&#45;&gt;Node24 -->
<g id="edge31" class="edge">
<title>Node23&#45;&gt;Node24</title>
<path fill="none" stroke="midnightblue" d="M544.45,-458.48C575.88,-448.56 618.21,-435.2 651.65,-424.65"/>
<polygon fill="midnightblue" stroke="midnightblue" points="652.8,-427.96 661.28,-421.61 650.69,-421.28 652.8,-427.96"/>
</g>
<!-- Node24&#45;&gt;Node5 -->
<g id="edge33" class="edge">
<title>Node24&#45;&gt;Node5</title>
<path fill="none" stroke="midnightblue" d="M706.95,-391.22C707.33,-373 705.04,-341.71 687,-324 632.52,-270.49 580.44,-333.35 519,-288 426.87,-220 382.19,-79.9 368.62,-29.54"/>
<polygon fill="midnightblue" stroke="midnightblue" points="371.97,-28.52 366.07,-19.72 365.2,-30.28 371.97,-28.52"/>
</g>
<!-- Node24&#45;&gt;Node7 -->
<g id="edge32" class="edge">
<title>Node24&#45;&gt;Node7</title>
<path fill="none" stroke="midnightblue" d="M711.87,-391.26C717.82,-374.92 725.44,-347.35 720,-324 708.95,-276.55 618.05,-132.14 608,-123 596.2,-112.27 559.48,-96.17 532.11,-85.04"/>
<polygon fill="midnightblue" stroke="midnightblue" points="533.1,-81.67 522.52,-81.19 530.49,-88.16 533.1,-81.67"/>
</g>
<!-- Node24&#45;&gt;Node9 -->
<g id="edge57" class="edge">
<title>Node24&#45;&gt;Node9</title>
<path fill="none" stroke="midnightblue" d="M683.65,-391.4C669.07,-382.2 649.85,-370.07 633.83,-359.95"/>
<polygon fill="midnightblue" stroke="midnightblue" points="635.63,-356.95 625.31,-354.58 631.89,-362.87 635.63,-356.95"/>
</g>
<!-- Node24&#45;&gt;Node12 -->
<g id="edge34" class="edge">
<title>Node24&#45;&gt;Node12</title>
<path fill="none" stroke="midnightblue" d="M724.76,-391.46C735.89,-382.22 749.45,-369.24 758,-355 781.88,-315.25 793.11,-261.51 797.89,-230.77"/>
<polygon fill="midnightblue" stroke="midnightblue" points="801.4,-230.96 799.37,-220.56 794.48,-229.95 801.4,-230.96"/>
</g>
<!-- Node25 -->
<g id="node25" class="node">
<title>Node25</title>
<g id="a_node25"><a xlink:href="ContactPhaseList_8h_source.html" target="_top" xlink:title=" ">
<polygon fill="none" stroke="black" points="872,-324.5 872,-354.5 1028,-354.5 1028,-324.5 872,-324.5"/>
<text text-anchor="start" x="880" y="-342.5" font-family="Helvetica,sans-Serif" font-size="10.00">BipedalLocomotion/Contacts</text>
<text text-anchor="middle" x="950" y="-331.5" font-family="Helvetica,sans-Serif" font-size="10.00">/ContactPhaseList.h</text>
</a>
</g>
</g>
<!-- Node24&#45;&gt;Node25 -->
<g id="edge35" class="edge">
<title>Node24&#45;&gt;Node25</title>
<path fill="none" stroke="midnightblue" d="M758.64,-391.48C796.36,-381.43 847.31,-367.86 887.15,-357.24"/>
<polygon fill="midnightblue" stroke="midnightblue" points="888.27,-360.57 897.03,-354.61 886.47,-353.8 888.27,-360.57"/>
</g>
<!-- Node25&#45;&gt;Node6 -->
<g id="edge56" class="edge">
<title>Node25&#45;&gt;Node6</title>
<path fill="none" stroke="midnightblue" d="M913.86,-324.43C889.81,-314.79 857.68,-301.38 830,-288 740.67,-244.82 640.66,-181.67 597.61,-153.72"/>
<polygon fill="midnightblue" stroke="midnightblue" points="599.37,-150.68 589.09,-148.15 595.55,-156.55 599.37,-150.68"/>
</g>
<!-- Node26 -->
<g id="node26" class="node">
<title>Node26</title>
<g id="a_node26"><a xlink:href="Contact_8h.html" target="_top" xlink:title=" ">
<polygon fill="none" stroke="black" points="1227,-123.5 1227,-153.5 1383,-153.5 1383,-123.5 1227,-123.5"/>
<text text-anchor="start" x="1235" y="-141.5" font-family="Helvetica,sans-Serif" font-size="10.00">BipedalLocomotion/Contacts</text>
<text text-anchor="middle" x="1305" y="-130.5" font-family="Helvetica,sans-Serif" font-size="10.00">/Contact.h</text>
</a>
</g>
</g>
<!-- Node25&#45;&gt;Node26 -->
<g id="edge36" class="edge">
<title>Node25&#45;&gt;Node26</title>
<path fill="none" stroke="midnightblue" d="M1028.03,-332.68C1074.75,-326.54 1134,-313.92 1181,-288 1234.27,-258.62 1274.23,-196.48 1293.05,-162.64"/>
<polygon fill="midnightblue" stroke="midnightblue" points="1296.31,-163.97 1298,-153.51 1290.16,-160.63 1296.31,-163.97"/>
</g>
<!-- Node30 -->
<g id="node30" class="node">
<title>Node30</title>
<g id="a_node30"><a xlink:href="ContactList_8h.html" target="_top" xlink:title=" ">
<polygon fill="none" stroke="black" points="1015,-190.5 1015,-220.5 1171,-220.5 1171,-190.5 1015,-190.5"/>
<text text-anchor="start" x="1023" y="-208.5" font-family="Helvetica,sans-Serif" font-size="10.00">BipedalLocomotion/Contacts</text>
<text text-anchor="middle" x="1093" y="-197.5" font-family="Helvetica,sans-Serif" font-size="10.00">/ContactList.h</text>
</a>
</g>
</g>
<!-- Node25&#45;&gt;Node30 -->
<g id="edge43" class="edge">
<title>Node25&#45;&gt;Node30</title>
<path fill="none" stroke="midnightblue" d="M957.34,-324.44C966.95,-307.01 985.18,-277.15 1007,-257 1020.38,-244.64 1037.28,-233.92 1052.55,-225.57"/>
<polygon fill="midnightblue" stroke="midnightblue" points="1054.59,-228.45 1061.8,-220.68 1051.32,-222.26 1054.59,-228.45"/>
</g>
<!-- Node33 -->
<g id="node33" class="node">
<title>Node33</title>
<g id="a_node33"><a xlink:href="ContactPhase_8h.html" target="_top" xlink:title=" ">
<polygon fill="none" stroke="black" points="1016,-257.5 1016,-287.5 1172,-287.5 1172,-257.5 1016,-257.5"/>
<text text-anchor="start" x="1024" y="-275.5" font-family="Helvetica,sans-Serif" font-size="10.00">BipedalLocomotion/Contacts</text>
<text text-anchor="middle" x="1094" y="-264.5" font-family="Helvetica,sans-Serif" font-size="10.00">/ContactPhase.h</text>
</a>
</g>
</g>
<!-- Node25&#45;&gt;Node33 -->
<g id="edge49" class="edge">
<title>Node25&#45;&gt;Node33</title>
<path fill="none" stroke="midnightblue" d="M981.25,-324.4C1002.47,-314.81 1030.75,-302.05 1053.68,-291.7"/>
<polygon fill="midnightblue" stroke="midnightblue" points="1055.14,-294.88 1062.82,-287.58 1052.26,-288.5 1055.14,-294.88"/>
</g>
<!-- Node34 -->
<g id="node34" class="node">
<title>Node34</title>
<g id="a_node34"><a xlink:title=" ">
<polygon fill="none" stroke="#bfbfbf" points="903.5,-196 903.5,-215 996.5,-215 996.5,-196 903.5,-196"/>
<text text-anchor="middle" x="950" y="-203" font-family="Helvetica,sans-Serif" font-size="10.00">unordered_map</text>
</a>
</g>
</g>
<!-- Node25&#45;&gt;Node34 -->
<g id="edge54" class="edge">
<title>Node25&#45;&gt;Node34</title>
<path fill="none" stroke="midnightblue" d="M950,-324.37C950,-300.5 950,-252.18 950,-225.41"/>
<polygon fill="midnightblue" stroke="midnightblue" points="953.5,-225.1 950,-215.1 946.5,-225.1 953.5,-225.1"/>
</g>
<!-- Node35 -->
<g id="node35" class="node">
<title>Node35</title>
<g id="a_node35"><a xlink:title=" ">
<polygon fill="none" stroke="#bfbfbf" points="838.5,-263 838.5,-282 921.5,-282 921.5,-263 838.5,-263"/>
<text text-anchor="middle" x="880" y="-270" font-family="Helvetica,sans-Serif" font-size="10.00">initializer_list</text>
</a>
</g>
</g>
<!-- Node25&#45;&gt;Node35 -->
<g id="edge55" class="edge">
<title>Node25&#45;&gt;Node35</title>
<path fill="none" stroke="midnightblue" d="M934.81,-324.4C923.68,-314.06 908.56,-300.02 897.03,-289.31"/>
<polygon fill="midnightblue" stroke="midnightblue" points="899.07,-286.43 889.36,-282.19 894.31,-291.56 899.07,-286.43"/>
</g>
<!-- Node26&#45;&gt;Node13 -->
<g id="edge42" class="edge">
<title>Node26&#45;&gt;Node13</title>
<path fill="none" stroke="midnightblue" d="M1273.27,-123.5C1250.59,-113.44 1219.36,-99.51 1192,-87 1190.85,-86.47 1189.67,-85.93 1188.48,-85.38"/>
<polygon fill="midnightblue" stroke="midnightblue" points="1189.88,-82.17 1179.33,-81.14 1186.93,-88.52 1189.88,-82.17"/>
</g>
<!-- Node27 -->
<g id="node27" class="node">
<title>Node27</title>
<g id="a_node27"><a xlink:href="Wrench_8h.html" target="_top" xlink:title=" ">
<polygon fill="none" stroke="black" points="1201,-56.5 1201,-86.5 1339,-86.5 1339,-56.5 1201,-56.5"/>
<text text-anchor="start" x="1209" y="-74.5" font-family="Helvetica,sans-Serif" font-size="10.00">BipedalLocomotion/Math</text>
<text text-anchor="middle" x="1270" y="-63.5" font-family="Helvetica,sans-Serif" font-size="10.00">/Wrench.h</text>
</a>
</g>
</g>
<!-- Node26&#45;&gt;Node27 -->
<g id="edge37" class="edge">
<title>Node26&#45;&gt;Node27</title>
<path fill="none" stroke="midnightblue" d="M1297.41,-123.4C1293,-115.22 1287.35,-104.73 1282.33,-95.39"/>
<polygon fill="midnightblue" stroke="midnightblue" points="1285.4,-93.72 1277.58,-86.58 1279.24,-97.04 1285.4,-93.72"/>
</g>
<!-- Node28 -->
<g id="node28" class="node">
<title>Node28</title>
<g id="a_node28"><a xlink:title=" ">
<polygon fill="none" stroke="#bfbfbf" points="1327.5,-0.5 1327.5,-19.5 1402.5,-19.5 1402.5,-0.5 1327.5,-0.5"/>
<text text-anchor="middle" x="1365" y="-7.5" font-family="Helvetica,sans-Serif" font-size="10.00">manif/SE3.h</text>
</a>
</g>
</g>
<!-- Node26&#45;&gt;Node28 -->
<g id="edge41" class="edge">
<title>Node26&#45;&gt;Node28</title>
<path fill="none" stroke="midnightblue" d="M1320.3,-123.43C1329.65,-114 1341.11,-100.81 1348,-87 1357.03,-68.89 1361.31,-45.98 1363.31,-30.07"/>
<polygon fill="midnightblue" stroke="midnightblue" points="1366.82,-30.21 1364.4,-19.89 1359.86,-29.46 1366.82,-30.21"/>
</g>
<!-- Node27&#45;&gt;Node5 -->
<g id="edge38" class="edge">
<title>Node27&#45;&gt;Node5</title>
<path fill="none" stroke="midnightblue" d="M1200.75,-57.15C1197.8,-56.73 1194.87,-56.34 1192,-56 897.59,-20.79 540.97,-13.11 412.8,-11.45"/>
<polygon fill="midnightblue" stroke="midnightblue" points="412.58,-7.95 402.53,-11.32 412.49,-14.95 412.58,-7.95"/>
</g>
<!-- Node27&#45;&gt;Node28 -->
<g id="edge39" class="edge">
<title>Node27&#45;&gt;Node28</title>
<path fill="none" stroke="midnightblue" d="M1292.51,-56.4C1307.6,-46.95 1327.39,-34.56 1342.47,-25.11"/>
<polygon fill="midnightblue" stroke="midnightblue" points="1344.56,-27.93 1351.18,-19.66 1340.84,-22 1344.56,-27.93"/>
</g>
<!-- Node29 -->
<g id="node29" class="node">
<title>Node29</title>
<g id="a_node29"><a xlink:title=" ">
<polygon fill="none" stroke="#bfbfbf" points="1231.5,-0.5 1231.5,-19.5 1308.5,-19.5 1308.5,-0.5 1231.5,-0.5"/>
<text text-anchor="middle" x="1270" y="-7.5" font-family="Helvetica,sans-Serif" font-size="10.00">manif/SO3.h</text>
</a>
</g>
</g>
<!-- Node27&#45;&gt;Node29 -->
<g id="edge40" class="edge">
<title>Node27&#45;&gt;Node29</title>
<path fill="none" stroke="midnightblue" d="M1270,-56.4C1270,-48.47 1270,-38.46 1270,-29.86"/>
<polygon fill="midnightblue" stroke="midnightblue" points="1273.5,-29.66 1270,-19.66 1266.5,-29.66 1273.5,-29.66"/>
</g>
<!-- Node30&#45;&gt;Node13 -->
<g id="edge47" class="edge">
<title>Node30&#45;&gt;Node13</title>
<path fill="none" stroke="midnightblue" d="M1110.91,-190.4C1121.49,-181.14 1134.27,-168.15 1142,-154 1152.75,-134.31 1157.44,-108.73 1159.48,-91.53"/>
<polygon fill="midnightblue" stroke="midnightblue" points="1163,-91.42 1160.5,-81.13 1156.04,-90.74 1163,-91.42"/>
</g>
<!-- Node30&#45;&gt;Node20 -->
<g id="edge48" class="edge">
<title>Node30&#45;&gt;Node20</title>
<path fill="none" stroke="midnightblue" d="M1036.9,-190.39C1018.4,-182.78 999.81,-171.27 989,-154 981.69,-142.32 983.46,-135.61 989,-123 995.55,-108.1 1008.9,-95.67 1020.81,-86.87"/>
<polygon fill="midnightblue" stroke="midnightblue" points="1022.88,-89.69 1029.1,-81.12 1018.89,-83.94 1022.88,-89.69"/>
</g>
<!-- Node30&#45;&gt;Node26 -->
<g id="edge44" class="edge">
<title>Node30&#45;&gt;Node26</title>
<path fill="none" stroke="midnightblue" d="M1138.74,-190.48C1171.09,-180.56 1214.65,-167.2 1249.07,-156.65"/>
<polygon fill="midnightblue" stroke="midnightblue" points="1250.44,-159.89 1258.98,-153.61 1248.39,-153.2 1250.44,-159.89"/>
</g>
<!-- Node31 -->
<g id="node31" class="node">
<title>Node31</title>
<g id="a_node31"><a xlink:title=" ">
<polygon fill="none" stroke="#bfbfbf" points="997.5,-129 997.5,-148 1082.5,-148 1082.5,-129 997.5,-129"/>
<text text-anchor="middle" x="1040" y="-136" font-family="Helvetica,sans-Serif" font-size="10.00">manif/manif.h</text>
</a>
</g>
</g>
<!-- Node30&#45;&gt;Node31 -->
<g id="edge45" class="edge">
<title>Node30&#45;&gt;Node31</title>
<path fill="none" stroke="midnightblue" d="M1081.5,-190.4C1073.32,-180.36 1062.29,-166.84 1053.66,-156.25"/>
<polygon fill="midnightblue" stroke="midnightblue" points="1056.12,-153.73 1047.09,-148.19 1050.7,-158.16 1056.12,-153.73"/>
</g>
<!-- Node32 -->
<g id="node32" class="node">
<title>Node32</title>
<g id="a_node32"><a xlink:title=" ">
<polygon fill="none" stroke="#bfbfbf" points="1101,-129 1101,-148 1133,-148 1133,-129 1101,-129"/>
<text text-anchor="middle" x="1117" y="-136" font-family="Helvetica,sans-Serif" font-size="10.00">set</text>
</a>
</g>
</g>
<!-- Node30&#45;&gt;Node32 -->
<g id="edge46" class="edge">
<title>Node30&#45;&gt;Node32</title>
<path fill="none" stroke="midnightblue" d="M1098.21,-190.4C1101.73,-180.86 1106.41,-168.18 1110.22,-157.86"/>
<polygon fill="midnightblue" stroke="midnightblue" points="1113.61,-158.79 1113.79,-148.19 1107.04,-156.36 1113.61,-158.79"/>
</g>
<!-- Node33&#45;&gt;Node13 -->
<g id="edge53" class="edge">
<title>Node33&#45;&gt;Node13</title>
<path fill="none" stroke="midnightblue" d="M1136.33,-257.3C1153.02,-249.39 1170.45,-237.68 1180,-221 1203.92,-179.21 1183.27,-120.14 1170.03,-90.68"/>
<polygon fill="midnightblue" stroke="midnightblue" points="1173.02,-88.81 1165.59,-81.26 1166.69,-91.79 1173.02,-88.81"/>
</g>
<!-- Node33&#45;&gt;Node26 -->
<g id="edge50" class="edge">
<title>Node33&#45;&gt;Node26</title>
<path fill="none" stroke="midnightblue" d="M1136.12,-257.44C1159.66,-248.66 1188.99,-236.16 1213,-221 1239.91,-204.01 1266.7,-179.15 1284.36,-161.36"/>
<polygon fill="midnightblue" stroke="midnightblue" points="1287.33,-163.34 1291.81,-153.74 1282.32,-158.45 1287.33,-163.34"/>
</g>
<!-- Node33&#45;&gt;Node30 -->
<g id="edge51" class="edge">
<title>Node33&#45;&gt;Node30</title>
<path fill="none" stroke="midnightblue" d="M1093.78,-257.4C1093.66,-249.64 1093.51,-239.81 1093.37,-230.86"/>
<polygon fill="midnightblue" stroke="midnightblue" points="1096.87,-230.52 1093.22,-220.58 1089.87,-230.63 1096.87,-230.52"/>
</g>
<!-- Node33&#45;&gt;Node34 -->
<g id="edge52" class="edge">
<title>Node33&#45;&gt;Node34</title>
<path fill="none" stroke="midnightblue" d="M1062.75,-257.4C1037.6,-246.04 1002.55,-230.22 978.23,-219.24"/>
<polygon fill="midnightblue" stroke="midnightblue" points="979.4,-215.93 968.85,-215.01 976.52,-222.31 979.4,-215.93"/>
</g>
<!-- Node37 -->
<g id="node37" class="node">
<title>Node37</title>
<g id="a_node37"><a xlink:title=" ">
<polygon fill="none" stroke="#bfbfbf" points="801.5,-397 801.5,-416 900.5,-416 900.5,-397 801.5,-397"/>
<text text-anchor="middle" x="851" y="-404" font-family="Helvetica,sans-Serif" font-size="10.00">spdlog/fmt/ostr.h</text>
</a>
</g>
</g>
<!-- Node36&#45;&gt;Node37 -->
<g id="edge59" class="edge">
<title>Node36&#45;&gt;Node37</title>
<path fill="none" stroke="midnightblue" d="M851,-458.4C851,-449.06 851,-436.71 851,-426.52"/>
<polygon fill="midnightblue" stroke="midnightblue" points="854.5,-426.19 851,-416.19 847.5,-426.19 854.5,-426.19"/>
</g>
<!-- Node38 -->
<g id="node38" class="node">
<title>Node38</title>
<g id="a_node38"><a xlink:title=" ">
<polygon fill="none" stroke="#bfbfbf" points="918.5,-397 918.5,-416 1011.5,-416 1011.5,-397 918.5,-397"/>
<text text-anchor="middle" x="965" y="-404" font-family="Helvetica,sans-Serif" font-size="10.00">spdlog/spdlog.h</text>
</a>
</g>
</g>
<!-- Node36&#45;&gt;Node38 -->
<g id="edge60" class="edge">
<title>Node36&#45;&gt;Node38</title>
<path fill="none" stroke="midnightblue" d="M875.74,-458.4C895.21,-447.29 922.17,-431.92 941.35,-420.98"/>
<polygon fill="midnightblue" stroke="midnightblue" points="943.13,-424 950.08,-416.01 939.66,-417.92 943.13,-424"/>
</g>
</g>
</svg>
        <g id="navigator" transform="translate(0 0)" fill="#404254">
                <rect fill="#f2f5e9" fill-opacity="0.5" stroke="#606060" stroke-width=".5" x="0" y="0" width="60" height="60"/>
                <use id="zoomplus" xlink:href="#zoomPlus" x="17" y="9" onmousedown="handleZoom(evt,'in')"/>
                <use id="zoomminus" xlink:href="#zoomMin" x="42" y="9" onmousedown="handleZoom(evt,'out')"/>
                <use id="reset" xlink:href="#resetDef" x="30" y="36" onmousedown="handleReset()"/>
                <g id="arrowUp" xlink:href="#dirArrow" transform="translate(30 24)" onmousedown="handlePan(0,-1)">
                  <use xlink:href="#rim" fill="#404040">
                        <set attributeName="fill" to="#808080" begin="arrowUp.mouseover" end="arrowUp.mouseout"/>
                  </use>
                  <path fill="none" stroke="white" stroke-width="1.5" d="M0,-3.0v7 M-2.5,-0.5L0,-3.0L2.5,-0.5"/>
                </g>
                <g id="arrowRight" xlink:href="#dirArrow" transform="rotate(90) translate(36 -43)" onmousedown="handlePan(1,0)">
                  <use xlink:href="#rim" fill="#404040">
                        <set attributeName="fill" to="#808080" begin="arrowRight.mouseover" end="arrowRight.mouseout"/>
                  </use>
                  <path fill="none" stroke="white" stroke-width="1.5" d="M0,-3.0v7 M-2.5,-0.5L0,-3.0L2.5,-0.5"/>
                </g>
                <g id="arrowDown" xlink:href="#dirArrow" transform="rotate(180) translate(-30 -48)" onmousedown="handlePan(0,1)">
                  <use xlink:href="#rim" fill="#404040">
                        <set attributeName="fill" to="#808080" begin="arrowDown.mouseover" end="arrowDown.mouseout"/>
                  </use>
                  <path fill="none" stroke="white" stroke-width="1.5" d="M0,-3.0v7 M-2.5,-0.5L0,-3.0L2.5,-0.5"/>
                </g>
                <g id="arrowLeft" xlink:href="#dirArrow" transform="rotate(270) translate(-36 17)" onmousedown="handlePan(-1,0)">
                  <use xlink:href="#rim" fill="#404040">
                        <set attributeName="fill" to="#808080" begin="arrowLeft.mouseover" end="arrowLeft.mouseout"/>
                  </use>
                  <path fill="none" stroke="white" stroke-width="1.5" d="M0,-3.0v7 M-2.5,-0.5L0,-3.0L2.5,-0.5"/>
                </g>
        </g>
        <svg viewBox="0 0 15 15" width="100%" height="30px" preserveAspectRatio="xMaxYMin meet">
         <g id="arrow_out" transform="scale(0.3 0.3)">
          <a xlink:href="TimeVaryingDCMPlanner_8cpp__incl_org.svg" target="_base">
           <rect id="button" ry="5" rx="5" y="6" x="6" height="38" width="38"
                fill="#f2f5e9" fill-opacity="0.5" stroke="#606060" stroke-width="1.0"/>
           <path id="arrow"
             d="M 11.500037,31.436501 C 11.940474,20.09759 22.043105,11.32322 32.158766,21.979434 L 37.068811,17.246167 C 37.068811,17.246167 37.088388,32 37.088388,32 L 22.160133,31.978069 C 22.160133,31.978069 26.997745,27.140456 26.997745,27.140456 C 18.528582,18.264221 13.291696,25.230495 11.500037,31.436501 z"
             style="fill:#404040;"/>
          </a>
         </g>
        </svg>
</svg>
