<?xml version="1.0" encoding="UTF-8" standalone="no"?>
<!DOCTYPE svg PUBLIC "-//W3C//DTD SVG 1.1//EN"
 "http://www.w3.org/Graphics/SVG/1.1/DTD/svg11.dtd">
<!-- Generated by graphviz version 2.43.0 (0)
 -->
<!-- Title: TSID/src/SO3Task.cpp Pages: 1 -->
<!--zoomable 486 -->
<svg id="main" version="1.1" xmlns="http://www.w3.org/2000/svg" xmlns:xlink="http://www.w3.org/1999/xlink" xml:space="preserve" onload="init(evt)">
<style type="text/css"><![CDATA[
.edge:hover path { stroke: red; }
.edge:hover polygon { stroke: red; fill: red; }
]]></style>
<script type="text/javascript"><![CDATA[
var edges = document.getElementsByTagName('g');
if (edges && edges.length) {
  for (var i=0;i<edges.length;i++) {
    if (edges[i].id.substr(0,4)=='edge') {
      edges[i].setAttribute('class','edge');
    }
  }
}
]]></script>
        <defs>
                <circle id="rim" cx="0" cy="0" r="7"/>
                <circle id="rim2" cx="0" cy="0" r="3.5"/>
                <g id="zoomPlus">
                        <use xlink:href="#rim" fill="#404040">
                                <set attributeName="fill" to="#808080" begin="zoomplus.mouseover" end="zoomplus.mouseout"/>
                        </use>
                        <path d="M-4,0h8M0,-4v8" fill="none" stroke="white" stroke-width="1.5" pointer-events="none"/>
                </g>
                <g id="zoomMin">
                        <use xlink:href="#rim" fill="#404040">
                                <set attributeName="fill" to="#808080" begin="zoomminus.mouseover" end="zoomminus.mouseout"/>
                        </use>
                        <path d="M-4,0h8" fill="none" stroke="white" stroke-width="1.5" pointer-events="none"/>
                </g>
                <g id="dirArrow">
                        <path fill="none" stroke="white" stroke-width="1.5" d="M0,-3.0v7 M-2.5,-0.5L0,-3.0L2.5,-0.5"/>
                </g>
               <g id="resetDef">
                       <use xlink:href="#rim2" fill="#404040">
                               <set attributeName="fill" to="#808080" begin="reset.mouseover" end="reset.mouseout"/>
                       </use>
               </g>
        </defs>

<script type="text/javascript">
var viewWidth = 1486;
var viewHeight = 486;
var sectionId = 'dynsection-0';
</script>
<script xlink:href="svgpan.js"/>
<svg id="graph" class="graph">
<g id="viewport">
<title>TSID/src/SO3Task.cpp</title>
<!-- Node1 -->
<g id="node1" class="node">
<title>Node1</title>
<g id="a_node1"><a xlink:title=" ">
<polygon fill="#bfbfbf" stroke="black" points="753,-458.5 753,-477.5 874,-477.5 874,-458.5 753,-458.5"/>
<text text-anchor="middle" x="813.5" y="-465.5" font-family="Helvetica,sans-Serif" font-size="10.00">TSID/src/SO3Task.cpp</text>
</a>
</g>
</g>
<!-- Node2 -->
<g id="node2" class="node">
<title>Node2</title>
<g id="a_node2"><a xlink:href="ManifConversions_8h.html" target="_top" xlink:title=" ">
<polygon fill="none" stroke="black" points="516,-391.5 516,-421.5 689,-421.5 689,-391.5 516,-391.5"/>
<text text-anchor="start" x="524" y="-409.5" font-family="Helvetica,sans-Serif" font-size="10.00">BipedalLocomotion/Conversions</text>
<text text-anchor="middle" x="602.5" y="-398.5" font-family="Helvetica,sans-Serif" font-size="10.00">/ManifConversions.h</text>
</a>
</g>
</g>
<!-- Node1&#45;&gt;Node2 -->
<g id="edge1" class="edge">
<title>Node1&#45;&gt;Node2</title>
<path fill="none" stroke="midnightblue" d="M783.27,-458.48C751.75,-449.59 701.54,-435.43 662.03,-424.29"/>
<polygon fill="midnightblue" stroke="midnightblue" points="662.8,-420.87 652.23,-421.52 660.9,-427.61 662.8,-420.87"/>
</g>
<!-- Node4 -->
<g id="node4" class="node">
<title>Node4</title>
<g id="a_node4"><a xlink:title=" ">
<polygon fill="none" stroke="#bfbfbf" points="254,-330 254,-349 415,-349 415,-330 254,-330"/>
<text text-anchor="middle" x="334.5" y="-337" font-family="Helvetica,sans-Serif" font-size="10.00">iDynTree/Core/EigenHelpers.h</text>
</a>
</g>
</g>
<!-- Node1&#45;&gt;Node4 -->
<g id="edge37" class="edge">
<title>Node1&#45;&gt;Node4</title>
<path fill="none" stroke="midnightblue" d="M752.92,-463.44C690.15,-458.52 589.76,-447.21 506.5,-422 450.66,-405.09 390.02,-372.74 357.77,-354.29"/>
<polygon fill="midnightblue" stroke="midnightblue" points="359.49,-351.24 349.08,-349.26 355.98,-357.3 359.49,-351.24"/>
</g>
<!-- Node6 -->
<g id="node6" class="node">
<title>Node6</title>
<g id="a_node6"><a xlink:href="TSID_2include_2BipedalLocomotion_2TSID_2SO3Task_8h.html" target="_top" xlink:title=" ">
<polygon fill="none" stroke="black" points="745.5,-391.5 745.5,-421.5 881.5,-421.5 881.5,-391.5 745.5,-391.5"/>
<text text-anchor="start" x="753.5" y="-409.5" font-family="Helvetica,sans-Serif" font-size="10.00">BipedalLocomotion/TSID</text>
<text text-anchor="middle" x="813.5" y="-398.5" font-family="Helvetica,sans-Serif" font-size="10.00">/SO3Task.h</text>
</a>
</g>
</g>
<!-- Node1&#45;&gt;Node6 -->
<g id="edge5" class="edge">
<title>Node1&#45;&gt;Node6</title>
<path fill="none" stroke="midnightblue" d="M813.5,-458.48C813.5,-451.47 813.5,-441.19 813.5,-431.7"/>
<polygon fill="midnightblue" stroke="midnightblue" points="817,-431.52 813.5,-421.52 810,-431.52 817,-431.52"/>
</g>
<!-- Node27 -->
<g id="node27" class="node">
<title>Node27</title>
<g id="a_node27"><a xlink:href="Logger_8h.html" target="_top" xlink:title=" ">
<polygon fill="none" stroke="black" points="1083.5,-391.5 1083.5,-421.5 1255.5,-421.5 1255.5,-391.5 1083.5,-391.5"/>
<text text-anchor="start" x="1091.5" y="-409.5" font-family="Helvetica,sans-Serif" font-size="10.00">BipedalLocomotion/TextLogging</text>
<text text-anchor="middle" x="1169.5" y="-398.5" font-family="Helvetica,sans-Serif" font-size="10.00">/Logger.h</text>
</a>
</g>
</g>
<!-- Node1&#45;&gt;Node27 -->
<g id="edge34" class="edge">
<title>Node1&#45;&gt;Node27</title>
<path fill="none" stroke="midnightblue" d="M864.51,-458.48C919.37,-449.31 1007.81,-434.52 1075.37,-423.23"/>
<polygon fill="midnightblue" stroke="midnightblue" points="1076.31,-426.62 1085.6,-421.52 1075.16,-419.72 1076.31,-426.62"/>
</g>
<!-- Node30 -->
<g id="node30" class="node">
<title>Node30</title>
<g id="a_node30"><a xlink:title=" ">
<polygon fill="none" stroke="#bfbfbf" points="1273.5,-397 1273.5,-416 1407.5,-416 1407.5,-397 1273.5,-397"/>
<text text-anchor="middle" x="1340.5" y="-404" font-family="Helvetica,sans-Serif" font-size="10.00">iDynTree/Model/Model.h</text>
</a>
</g>
</g>
<!-- Node1&#45;&gt;Node30 -->
<g id="edge38" class="edge">
<title>Node1&#45;&gt;Node30</title>
<path fill="none" stroke="midnightblue" d="M874.26,-462.67C961.07,-456.08 1125.5,-442.15 1264.5,-422 1272.53,-420.84 1281.01,-419.41 1289.27,-417.92"/>
<polygon fill="midnightblue" stroke="midnightblue" points="1290,-421.34 1299.2,-416.07 1288.73,-414.46 1290,-421.34"/>
</g>
<!-- Node3 -->
<g id="node3" class="node">
<title>Node3</title>
<g id="a_node3"><a xlink:title=" ">
<polygon fill="none" stroke="#bfbfbf" points="433.5,-330 433.5,-349 579.5,-349 579.5,-330 433.5,-330"/>
<text text-anchor="middle" x="506.5" y="-337" font-family="Helvetica,sans-Serif" font-size="10.00">iDynTree/Core/Transform.h</text>
</a>
</g>
</g>
<!-- Node2&#45;&gt;Node3 -->
<g id="edge2" class="edge">
<title>Node2&#45;&gt;Node3</title>
<path fill="none" stroke="midnightblue" d="M581.67,-391.4C565.72,-380.6 543.8,-365.76 527.75,-354.89"/>
<polygon fill="midnightblue" stroke="midnightblue" points="529.31,-351.72 519.06,-349.01 525.38,-357.51 529.31,-351.72"/>
</g>
<!-- Node2&#45;&gt;Node4 -->
<g id="edge3" class="edge">
<title>Node2&#45;&gt;Node4</title>
<path fill="none" stroke="midnightblue" d="M544.68,-391.48C495.18,-379.47 424.92,-362.43 379.52,-351.42"/>
<polygon fill="midnightblue" stroke="midnightblue" points="380.21,-347.98 369.66,-349.03 378.56,-354.79 380.21,-347.98"/>
</g>
<!-- Node5 -->
<g id="node5" class="node">
<title>Node5</title>
<g id="a_node5"><a xlink:title=" ">
<polygon fill="none" stroke="#bfbfbf" points="598,-330 598,-349 683,-349 683,-330 598,-330"/>
<text text-anchor="middle" x="640.5" y="-337" font-family="Helvetica,sans-Serif" font-size="10.00">manif/manif.h</text>
</a>
</g>
</g>
<!-- Node2&#45;&gt;Node5 -->
<g id="edge4" class="edge">
<title>Node2&#45;&gt;Node5</title>
<path fill="none" stroke="midnightblue" d="M610.75,-391.4C616.49,-381.56 624.2,-368.38 630.33,-357.89"/>
<polygon fill="midnightblue" stroke="midnightblue" points="633.39,-359.59 635.42,-349.19 627.35,-356.06 633.39,-359.59"/>
</g>
<!-- Node6&#45;&gt;Node5 -->
<g id="edge6" class="edge">
<title>Node6&#45;&gt;Node5</title>
<path fill="none" stroke="midnightblue" d="M775.96,-391.4C745.2,-379.84 702.13,-363.66 672.87,-352.66"/>
<polygon fill="midnightblue" stroke="midnightblue" points="673.73,-349.25 663.14,-349.01 671.27,-355.8 673.73,-349.25"/>
</g>
<!-- Node7 -->
<g id="node7" class="node">
<title>Node7</title>
<g id="a_node7"><a xlink:href="LinearTask_8h.html" target="_top" xlink:title=" ">
<polygon fill="none" stroke="black" points="701.5,-324.5 701.5,-354.5 851.5,-354.5 851.5,-324.5 701.5,-324.5"/>
<text text-anchor="start" x="709.5" y="-342.5" font-family="Helvetica,sans-Serif" font-size="10.00">BipedalLocomotion/System</text>
<text text-anchor="middle" x="776.5" y="-331.5" font-family="Helvetica,sans-Serif" font-size="10.00">/LinearTask.h</text>
</a>
</g>
</g>
<!-- Node6&#45;&gt;Node7 -->
<g id="edge7" class="edge">
<title>Node6&#45;&gt;Node7</title>
<path fill="none" stroke="midnightblue" d="M805.47,-391.4C800.82,-383.22 794.84,-372.73 789.53,-363.39"/>
<polygon fill="midnightblue" stroke="midnightblue" points="792.5,-361.54 784.51,-354.58 786.42,-365 792.5,-361.54"/>
</g>
<!-- Node25 -->
<g id="node25" class="node">
<title>Node25</title>
<g id="a_node25"><a xlink:title=" ">
<polygon fill="none" stroke="#bfbfbf" points="870,-330 870,-349 1045,-349 1045,-330 870,-330"/>
<text text-anchor="middle" x="957.5" y="-337" font-family="Helvetica,sans-Serif" font-size="10.00">iDynTree/KinDynComputations.h</text>
</a>
</g>
</g>
<!-- Node6&#45;&gt;Node25 -->
<g id="edge32" class="edge">
<title>Node6&#45;&gt;Node25</title>
<path fill="none" stroke="midnightblue" d="M844.75,-391.4C869.9,-380.04 904.95,-364.22 929.27,-353.24"/>
<polygon fill="midnightblue" stroke="midnightblue" points="930.98,-356.31 938.65,-349.01 928.1,-349.93 930.98,-356.31"/>
</g>
<!-- Node26 -->
<g id="node26" class="node">
<title>Node26</title>
<g id="a_node26"><a xlink:title=" ">
<polygon fill="none" stroke="#bfbfbf" points="1063.5,-324.5 1063.5,-354.5 1249.5,-354.5 1249.5,-324.5 1063.5,-324.5"/>
<text text-anchor="start" x="1071.5" y="-342.5" font-family="Helvetica,sans-Serif" font-size="10.00">LieGroupControllers</text>
<text text-anchor="middle" x="1156.5" y="-331.5" font-family="Helvetica,sans-Serif" font-size="10.00">/ProportionalDerivativeController.h</text>
</a>
</g>
</g>
<!-- Node6&#45;&gt;Node26 -->
<g id="edge33" class="edge">
<title>Node6&#45;&gt;Node26</title>
<path fill="none" stroke="midnightblue" d="M881.68,-392.58C936.53,-382.19 1013.86,-367.53 1072.53,-356.41"/>
<polygon fill="midnightblue" stroke="midnightblue" points="1073.34,-359.82 1082.51,-354.52 1072.04,-352.94 1073.34,-359.82"/>
</g>
<!-- Node8 -->
<g id="node8" class="node">
<title>Node8</title>
<g id="a_node8"><a xlink:title=" ">
<polygon fill="none" stroke="#bfbfbf" points="592.5,-62 592.5,-81 650.5,-81 650.5,-62 592.5,-62"/>
<text text-anchor="middle" x="621.5" y="-69" font-family="Helvetica,sans-Serif" font-size="10.00">memory</text>
</a>
</g>
</g>
<!-- Node7&#45;&gt;Node8 -->
<g id="edge8" class="edge">
<title>Node7&#45;&gt;Node8</title>
<path fill="none" stroke="midnightblue" d="M851.76,-325.14C891.21,-316.44 933.75,-303.78 945.5,-288 953.73,-276.95 949.84,-270.08 945.5,-257 905.71,-137.16 738.43,-92.83 661.06,-78.51"/>
<polygon fill="midnightblue" stroke="midnightblue" points="661.22,-74.99 650.76,-76.69 660,-81.88 661.22,-74.99"/>
</g>
<!-- Node9 -->
<g id="node9" class="node">
<title>Node9</title>
<g id="a_node9"><a xlink:title=" ">
<polygon fill="none" stroke="#bfbfbf" points="715.5,-129 715.5,-148 759.5,-148 759.5,-129 715.5,-129"/>
<text text-anchor="middle" x="737.5" y="-136" font-family="Helvetica,sans-Serif" font-size="10.00">string</text>
</a>
</g>
</g>
<!-- Node7&#45;&gt;Node9 -->
<g id="edge9" class="edge">
<title>Node7&#45;&gt;Node9</title>
<path fill="none" stroke="midnightblue" d="M843.03,-324.49C878.89,-315.45 917.92,-302.66 928.5,-288 936.56,-276.83 935.22,-269.03 928.5,-257 894.4,-195.99 814.21,-162.77 769.33,-148.36"/>
<polygon fill="midnightblue" stroke="midnightblue" points="770.11,-144.94 759.52,-145.33 768.04,-151.63 770.11,-144.94"/>
</g>
<!-- Node10 -->
<g id="node10" class="node">
<title>Node10</title>
<g id="a_node10"><a xlink:title=" ">
<polygon fill="none" stroke="#bfbfbf" points="672,-263 672,-282 749,-282 749,-263 672,-263"/>
<text text-anchor="middle" x="710.5" y="-270" font-family="Helvetica,sans-Serif" font-size="10.00">Eigen/Dense</text>
</a>
</g>
</g>
<!-- Node7&#45;&gt;Node10 -->
<g id="edge10" class="edge">
<title>Node7&#45;&gt;Node10</title>
<path fill="none" stroke="midnightblue" d="M762.18,-324.4C751.68,-314.06 737.43,-300.02 726.55,-289.31"/>
<polygon fill="midnightblue" stroke="midnightblue" points="728.91,-286.72 719.33,-282.19 724,-291.71 728.91,-286.72"/>
</g>
<!-- Node11 -->
<g id="node11" class="node">
<title>Node11</title>
<g id="a_node11"><a xlink:title=" ">
<polygon fill="none" stroke="#bfbfbf" points="767.5,-263 767.5,-282 919.5,-282 919.5,-263 767.5,-263"/>
<text text-anchor="middle" x="843.5" y="-270" font-family="Helvetica,sans-Serif" font-size="10.00">iDynTree/Core/MatrixView.h</text>
</a>
</g>
</g>
<!-- Node7&#45;&gt;Node11 -->
<g id="edge11" class="edge">
<title>Node7&#45;&gt;Node11</title>
<path fill="none" stroke="midnightblue" d="M791.04,-324.4C801.69,-314.06 816.16,-300.02 827.2,-289.31"/>
<polygon fill="midnightblue" stroke="midnightblue" points="829.8,-291.67 834.54,-282.19 824.92,-286.65 829.8,-291.67"/>
</g>
<!-- Node12 -->
<g id="node12" class="node">
<title>Node12</title>
<g id="a_node12"><a xlink:href="IParametersHandler_8h.html" target="_top" xlink:title=" ">
<polygon fill="none" stroke="black" points="391,-190.5 391,-220.5 560,-220.5 560,-190.5 391,-190.5"/>
<text text-anchor="start" x="399" y="-208.5" font-family="Helvetica,sans-Serif" font-size="10.00">BipedalLocomotion/Parameters</text>
<text text-anchor="middle" x="475.5" y="-197.5" font-family="Helvetica,sans-Serif" font-size="10.00">Handler/IParametersHandler.h</text>
</a>
</g>
</g>
<!-- Node7&#45;&gt;Node12 -->
<g id="edge12" class="edge">
<title>Node7&#45;&gt;Node12</title>
<path fill="none" stroke="midnightblue" d="M701.22,-325.53C618.33,-311.17 496.4,-289.81 494.5,-288 479.16,-273.43 475.12,-249.07 474.49,-230.77"/>
<polygon fill="midnightblue" stroke="midnightblue" points="477.99,-230.55 474.47,-220.56 470.99,-230.57 477.99,-230.55"/>
</g>
<!-- Node23 -->
<g id="node23" class="node">
<title>Node23</title>
<g id="a_node23"><a xlink:href="VariablesHandler_8h.html" target="_top" xlink:title=" ">
<polygon fill="none" stroke="black" points="503.5,-257.5 503.5,-287.5 653.5,-287.5 653.5,-257.5 503.5,-257.5"/>
<text text-anchor="start" x="511.5" y="-275.5" font-family="Helvetica,sans-Serif" font-size="10.00">BipedalLocomotion/System</text>
<text text-anchor="middle" x="578.5" y="-264.5" font-family="Helvetica,sans-Serif" font-size="10.00">/VariablesHandler.h</text>
</a>
</g>
</g>
<!-- Node7&#45;&gt;Node23 -->
<g id="edge27" class="edge">
<title>Node7&#45;&gt;Node23</title>
<path fill="none" stroke="midnightblue" d="M733.54,-324.4C703.44,-314.52 663.04,-301.25 631.02,-290.74"/>
<polygon fill="midnightblue" stroke="midnightblue" points="631.97,-287.37 621.38,-287.58 629.79,-294.02 631.97,-287.37"/>
</g>
<!-- Node12&#45;&gt;Node8 -->
<g id="edge13" class="edge">
<title>Node12&#45;&gt;Node8</title>
<path fill="none" stroke="midnightblue" d="M491.12,-190.37C518.71,-165.43 575.82,-113.8 604.41,-87.95"/>
<polygon fill="midnightblue" stroke="midnightblue" points="606.92,-90.4 611.99,-81.1 602.23,-85.21 606.92,-90.4"/>
</g>
<!-- Node12&#45;&gt;Node9 -->
<g id="edge14" class="edge">
<title>Node12&#45;&gt;Node9</title>
<path fill="none" stroke="midnightblue" d="M532.03,-190.48C584.98,-177.34 662.23,-158.17 705.35,-147.48"/>
<polygon fill="midnightblue" stroke="midnightblue" points="706.42,-150.82 715.29,-145.01 704.74,-144.02 706.42,-150.82"/>
</g>
<!-- Node13 -->
<g id="node13" class="node">
<title>Node13</title>
<g id="a_node13"><a xlink:title=" ">
<polygon fill="none" stroke="#bfbfbf" points="458,-129 458,-148 505,-148 505,-129 458,-129"/>
<text text-anchor="middle" x="481.5" y="-136" font-family="Helvetica,sans-Serif" font-size="10.00">vector</text>
</a>
</g>
</g>
<!-- Node12&#45;&gt;Node13 -->
<g id="edge15" class="edge">
<title>Node12&#45;&gt;Node13</title>
<path fill="none" stroke="midnightblue" d="M476.8,-190.4C477.67,-180.96 478.83,-168.45 479.77,-158.19"/>
<polygon fill="midnightblue" stroke="midnightblue" points="483.26,-158.47 480.7,-148.19 476.29,-157.83 483.26,-158.47"/>
</g>
<!-- Node14 -->
<g id="node14" class="node">
<title>Node14</title>
<g id="a_node14"><a xlink:href="TemplateHelpers_8h_source.html" target="_top" xlink:title=" ">
<polygon fill="none" stroke="black" points="44.5,-56.5 44.5,-86.5 202.5,-86.5 202.5,-56.5 44.5,-56.5"/>
<text text-anchor="start" x="52.5" y="-74.5" font-family="Helvetica,sans-Serif" font-size="10.00">BipedalLocomotion/Generic</text>
<text text-anchor="middle" x="123.5" y="-63.5" font-family="Helvetica,sans-Serif" font-size="10.00">Container/TemplateHelpers.h</text>
</a>
</g>
</g>
<!-- Node12&#45;&gt;Node14 -->
<g id="edge16" class="edge">
<title>Node12&#45;&gt;Node14</title>
<path fill="none" stroke="midnightblue" d="M404.89,-190.43C367.05,-181.86 320.01,-169.56 279.5,-154 234.65,-136.77 186.04,-109.96 155.22,-91.84"/>
<polygon fill="midnightblue" stroke="midnightblue" points="156.63,-88.61 146.24,-86.51 153.06,-94.63 156.63,-88.61"/>
</g>
<!-- Node18 -->
<g id="node18" class="node">
<title>Node18</title>
<g id="a_node18"><a xlink:href="Vector_8h_source.html" target="_top" xlink:title=" ">
<polygon fill="none" stroke="black" points="289,-123.5 289,-153.5 440,-153.5 440,-123.5 289,-123.5"/>
<text text-anchor="start" x="297" y="-141.5" font-family="Helvetica,sans-Serif" font-size="10.00">BipedalLocomotion/Generic</text>
<text text-anchor="middle" x="364.5" y="-130.5" font-family="Helvetica,sans-Serif" font-size="10.00">Container/Vector.h</text>
</a>
</g>
</g>
<!-- Node12&#45;&gt;Node18 -->
<g id="edge20" class="edge">
<title>Node12&#45;&gt;Node18</title>
<path fill="none" stroke="midnightblue" d="M451.41,-190.4C435.56,-181.11 414.61,-168.84 397.24,-158.67"/>
<polygon fill="midnightblue" stroke="midnightblue" points="398.94,-155.61 388.54,-153.58 395.4,-161.65 398.94,-155.61"/>
</g>
<!-- Node15 -->
<g id="node15" class="node">
<title>Node15</title>
<g id="a_node15"><a xlink:title=" ">
<polygon fill="none" stroke="#bfbfbf" points="0,-0.5 0,-19.5 69,-19.5 69,-0.5 0,-0.5"/>
<text text-anchor="middle" x="34.5" y="-7.5" font-family="Helvetica,sans-Serif" font-size="10.00">type_traits</text>
</a>
</g>
</g>
<!-- Node14&#45;&gt;Node15 -->
<g id="edge17" class="edge">
<title>Node14&#45;&gt;Node15</title>
<path fill="none" stroke="midnightblue" d="M102.41,-56.4C88.41,-47.04 70.09,-34.79 56.01,-25.38"/>
<polygon fill="midnightblue" stroke="midnightblue" points="57.71,-22.31 47.45,-19.66 53.82,-28.13 57.71,-22.31"/>
</g>
<!-- Node16 -->
<g id="node16" class="node">
<title>Node16</title>
<g id="a_node16"><a xlink:title=" ">
<polygon fill="none" stroke="#bfbfbf" points="87,-0.5 87,-19.5 160,-19.5 160,-0.5 87,-0.5"/>
<text text-anchor="middle" x="123.5" y="-7.5" font-family="Helvetica,sans-Serif" font-size="10.00">string_view</text>
</a>
</g>
</g>
<!-- Node14&#45;&gt;Node16 -->
<g id="edge18" class="edge">
<title>Node14&#45;&gt;Node16</title>
<path fill="none" stroke="midnightblue" d="M123.5,-56.4C123.5,-48.47 123.5,-38.46 123.5,-29.86"/>
<polygon fill="midnightblue" stroke="midnightblue" points="127,-29.66 123.5,-19.66 120,-29.66 127,-29.66"/>
</g>
<!-- Node17 -->
<g id="node17" class="node">
<title>Node17</title>
<g id="a_node17"><a xlink:title=" ">
<polygon fill="none" stroke="#bfbfbf" points="178,-0.5 178,-19.5 247,-19.5 247,-0.5 178,-0.5"/>
<text text-anchor="middle" x="212.5" y="-7.5" font-family="Helvetica,sans-Serif" font-size="10.00">Eigen/Core</text>
</a>
</g>
</g>
<!-- Node14&#45;&gt;Node17 -->
<g id="edge19" class="edge">
<title>Node14&#45;&gt;Node17</title>
<path fill="none" stroke="midnightblue" d="M144.59,-56.4C158.59,-47.04 176.91,-34.79 190.99,-25.38"/>
<polygon fill="midnightblue" stroke="midnightblue" points="193.18,-28.13 199.55,-19.66 189.29,-22.31 193.18,-28.13"/>
</g>
<!-- Node18&#45;&gt;Node8 -->
<g id="edge26" class="edge">
<title>Node18&#45;&gt;Node8</title>
<path fill="none" stroke="midnightblue" d="M435.79,-123.4C478.67,-114.32 534.13,-101.53 582.5,-87 585.07,-86.23 587.72,-85.37 590.36,-84.48"/>
<polygon fill="midnightblue" stroke="midnightblue" points="591.55,-87.77 599.8,-81.13 589.21,-81.18 591.55,-87.77"/>
</g>
<!-- Node18&#45;&gt;Node14 -->
<g id="edge22" class="edge">
<title>Node18&#45;&gt;Node14</title>
<path fill="none" stroke="midnightblue" d="M312.5,-123.48C275.25,-113.43 224.93,-99.86 185.57,-89.24"/>
<polygon fill="midnightblue" stroke="midnightblue" points="186.39,-85.84 175.82,-86.61 184.56,-92.59 186.39,-85.84"/>
</g>
<!-- Node19 -->
<g id="node19" class="node">
<title>Node19</title>
<g id="a_node19"><a xlink:title=" ">
<polygon fill="none" stroke="#bfbfbf" points="453,-62 453,-81 574,-81 574,-62 453,-62"/>
<text text-anchor="middle" x="513.5" y="-69" font-family="Helvetica,sans-Serif" font-size="10.00">iDynTree/Core/Span.h</text>
</a>
</g>
</g>
<!-- Node18&#45;&gt;Node19 -->
<g id="edge21" class="edge">
<title>Node18&#45;&gt;Node19</title>
<path fill="none" stroke="midnightblue" d="M396.83,-123.4C422.97,-111.99 459.45,-96.08 484.62,-85.1"/>
<polygon fill="midnightblue" stroke="midnightblue" points="486.23,-88.21 494,-81.01 483.43,-81.8 486.23,-88.21"/>
</g>
<!-- Node20 -->
<g id="node20" class="node">
<title>Node20</title>
<g id="a_node20"><a xlink:title=" ">
<polygon fill="none" stroke="#bfbfbf" points="221,-62 221,-81 286,-81 286,-62 221,-62"/>
<text text-anchor="middle" x="253.5" y="-69" font-family="Helvetica,sans-Serif" font-size="10.00">functional</text>
</a>
</g>
</g>
<!-- Node18&#45;&gt;Node20 -->
<g id="edge23" class="edge">
<title>Node18&#45;&gt;Node20</title>
<path fill="none" stroke="midnightblue" d="M340.41,-123.4C321.54,-112.34 295.44,-97.06 276.78,-86.13"/>
<polygon fill="midnightblue" stroke="midnightblue" points="278.43,-83.04 268.03,-81.01 274.89,-89.08 278.43,-83.04"/>
</g>
<!-- Node21 -->
<g id="node21" class="node">
<title>Node21</title>
<g id="a_node21"><a xlink:title=" ">
<polygon fill="none" stroke="#bfbfbf" points="304.5,-62 304.5,-81 356.5,-81 356.5,-62 304.5,-62"/>
<text text-anchor="middle" x="330.5" y="-69" font-family="Helvetica,sans-Serif" font-size="10.00">cassert</text>
</a>
</g>
</g>
<!-- Node18&#45;&gt;Node21 -->
<g id="edge24" class="edge">
<title>Node18&#45;&gt;Node21</title>
<path fill="none" stroke="midnightblue" d="M357.12,-123.4C352.03,-113.66 345.22,-100.65 339.77,-90.21"/>
<polygon fill="midnightblue" stroke="midnightblue" points="342.78,-88.43 335.05,-81.19 336.58,-91.68 342.78,-88.43"/>
</g>
<!-- Node22 -->
<g id="node22" class="node">
<title>Node22</title>
<g id="a_node22"><a xlink:title=" ">
<polygon fill="none" stroke="#bfbfbf" points="374.5,-62 374.5,-81 434.5,-81 434.5,-62 374.5,-62"/>
<text text-anchor="middle" x="404.5" y="-69" font-family="Helvetica,sans-Serif" font-size="10.00">iostream</text>
</a>
</g>
</g>
<!-- Node18&#45;&gt;Node22 -->
<g id="edge25" class="edge">
<title>Node18&#45;&gt;Node22</title>
<path fill="none" stroke="midnightblue" d="M373.18,-123.4C379.23,-113.56 387.34,-100.38 393.8,-89.89"/>
<polygon fill="midnightblue" stroke="midnightblue" points="396.89,-91.55 399.15,-81.19 390.93,-87.88 396.89,-91.55"/>
</g>
<!-- Node23&#45;&gt;Node8 -->
<g id="edge29" class="edge">
<title>Node23&#45;&gt;Node8</title>
<path fill="none" stroke="midnightblue" d="M581.59,-257.19C589.22,-221.91 608.91,-130.78 617.45,-91.25"/>
<polygon fill="midnightblue" stroke="midnightblue" points="620.89,-91.87 619.59,-81.36 614.05,-90.4 620.89,-91.87"/>
</g>
<!-- Node23&#45;&gt;Node9 -->
<g id="edge28" class="edge">
<title>Node23&#45;&gt;Node9</title>
<path fill="none" stroke="midnightblue" d="M653.5,-258.71C676.88,-251.27 700.86,-239.53 717.5,-221 732.9,-203.84 736.9,-176.75 737.72,-158.57"/>
<polygon fill="midnightblue" stroke="midnightblue" points="741.22,-158.39 737.88,-148.33 734.22,-158.27 741.22,-158.39"/>
</g>
<!-- Node23&#45;&gt;Node12 -->
<g id="edge31" class="edge">
<title>Node23&#45;&gt;Node12</title>
<path fill="none" stroke="midnightblue" d="M556.15,-257.4C541.57,-248.2 522.35,-236.07 506.33,-225.95"/>
<polygon fill="midnightblue" stroke="midnightblue" points="508.13,-222.95 497.81,-220.58 504.39,-228.87 508.13,-222.95"/>
</g>
<!-- Node24 -->
<g id="node24" class="node">
<title>Node24</title>
<g id="a_node24"><a xlink:title=" ">
<polygon fill="none" stroke="#bfbfbf" points="616,-196 616,-215 709,-215 709,-196 616,-196"/>
<text text-anchor="middle" x="662.5" y="-203" font-family="Helvetica,sans-Serif" font-size="10.00">unordered_map</text>
</a>
</g>
</g>
<!-- Node23&#45;&gt;Node24 -->
<g id="edge30" class="edge">
<title>Node23&#45;&gt;Node24</title>
<path fill="none" stroke="midnightblue" d="M596.73,-257.4C610.47,-246.76 629.28,-232.2 643.27,-221.38"/>
<polygon fill="midnightblue" stroke="midnightblue" points="645.5,-224.08 651.26,-215.19 641.21,-218.55 645.5,-224.08"/>
</g>
<!-- Node28 -->
<g id="node28" class="node">
<title>Node28</title>
<g id="a_node28"><a xlink:title=" ">
<polygon fill="none" stroke="#bfbfbf" points="1268,-330 1268,-349 1367,-349 1367,-330 1268,-330"/>
<text text-anchor="middle" x="1317.5" y="-337" font-family="Helvetica,sans-Serif" font-size="10.00">spdlog/fmt/ostr.h</text>
</a>
</g>
</g>
<!-- Node27&#45;&gt;Node28 -->
<g id="edge35" class="edge">
<title>Node27&#45;&gt;Node28</title>
<path fill="none" stroke="midnightblue" d="M1201.61,-391.4C1227.58,-379.99 1263.81,-364.08 1288.82,-353.1"/>
<polygon fill="midnightblue" stroke="midnightblue" points="1290.38,-356.23 1298.13,-349.01 1287.57,-349.82 1290.38,-356.23"/>
</g>
<!-- Node29 -->
<g id="node29" class="node">
<title>Node29</title>
<g id="a_node29"><a xlink:title=" ">
<polygon fill="none" stroke="#bfbfbf" points="1385,-330 1385,-349 1478,-349 1478,-330 1385,-330"/>
<text text-anchor="middle" x="1431.5" y="-337" font-family="Helvetica,sans-Serif" font-size="10.00">spdlog/spdlog.h</text>
</a>
</g>
</g>
<!-- Node27&#45;&gt;Node29 -->
<g id="edge36" class="edge">
<title>Node27&#45;&gt;Node29</title>
<path fill="none" stroke="midnightblue" d="M1228.46,-391.42C1269.92,-381.45 1326.66,-367.65 1376.5,-355 1380.82,-353.9 1385.32,-352.75 1389.81,-351.58"/>
<polygon fill="midnightblue" stroke="midnightblue" points="1390.75,-354.95 1399.53,-349.03 1388.97,-348.18 1390.75,-354.95"/>
</g>
</g>
</svg>
        <g id="navigator" transform="translate(0 0)" fill="#404254">
                <rect fill="#f2f5e9" fill-opacity="0.5" stroke="#606060" stroke-width=".5" x="0" y="0" width="60" height="60"/>
                <use id="zoomplus" xlink:href="#zoomPlus" x="17" y="9" onmousedown="handleZoom(evt,'in')"/>
                <use id="zoomminus" xlink:href="#zoomMin" x="42" y="9" onmousedown="handleZoom(evt,'out')"/>
                <use id="reset" xlink:href="#resetDef" x="30" y="36" onmousedown="handleReset()"/>
                <g id="arrowUp" xlink:href="#dirArrow" transform="translate(30 24)" onmousedown="handlePan(0,-1)">
                  <use xlink:href="#rim" fill="#404040">
                        <set attributeName="fill" to="#808080" begin="arrowUp.mouseover" end="arrowUp.mouseout"/>
                  </use>
                  <path fill="none" stroke="white" stroke-width="1.5" d="M0,-3.0v7 M-2.5,-0.5L0,-3.0L2.5,-0.5"/>
                </g>
                <g id="arrowRight" xlink:href="#dirArrow" transform="rotate(90) translate(36 -43)" onmousedown="handlePan(1,0)">
                  <use xlink:href="#rim" fill="#404040">
                        <set attributeName="fill" to="#808080" begin="arrowRight.mouseover" end="arrowRight.mouseout"/>
                  </use>
                  <path fill="none" stroke="white" stroke-width="1.5" d="M0,-3.0v7 M-2.5,-0.5L0,-3.0L2.5,-0.5"/>
                </g>
                <g id="arrowDown" xlink:href="#dirArrow" transform="rotate(180) translate(-30 -48)" onmousedown="handlePan(0,1)">
                  <use xlink:href="#rim" fill="#404040">
                        <set attributeName="fill" to="#808080" begin="arrowDown.mouseover" end="arrowDown.mouseout"/>
                  </use>
                  <path fill="none" stroke="white" stroke-width="1.5" d="M0,-3.0v7 M-2.5,-0.5L0,-3.0L2.5,-0.5"/>
                </g>
                <g id="arrowLeft" xlink:href="#dirArrow" transform="rotate(270) translate(-36 17)" onmousedown="handlePan(-1,0)">
                  <use xlink:href="#rim" fill="#404040">
                        <set attributeName="fill" to="#808080" begin="arrowLeft.mouseover" end="arrowLeft.mouseout"/>
                  </use>
                  <path fill="none" stroke="white" stroke-width="1.5" d="M0,-3.0v7 M-2.5,-0.5L0,-3.0L2.5,-0.5"/>
                </g>
        </g>
        <svg viewBox="0 0 15 15" width="100%" height="30px" preserveAspectRatio="xMaxYMin meet">
         <g id="arrow_out" transform="scale(0.3 0.3)">
          <a xlink:href="TSID_2src_2SO3Task_8cpp__incl_org.svg" target="_base">
           <rect id="button" ry="5" rx="5" y="6" x="6" height="38" width="38"
                fill="#f2f5e9" fill-opacity="0.5" stroke="#606060" stroke-width="1.0"/>
           <path id="arrow"
             d="M 11.500037,31.436501 C 11.940474,20.09759 22.043105,11.32322 32.158766,21.979434 L 37.068811,17.246167 C 37.068811,17.246167 37.088388,32 37.088388,32 L 22.160133,31.978069 C 22.160133,31.978069 26.997745,27.140456 26.997745,27.140456 C 18.528582,18.264221 13.291696,25.230495 11.500037,31.436501 z"
             style="fill:#404040;"/>
          </a>
         </g>
        </svg>
</svg>
