<?xml version="1.0" encoding="UTF-8" standalone="no"?>
<!DOCTYPE svg PUBLIC "-//W3C//DTD SVG 1.1//EN"
 "http://www.w3.org/Graphics/SVG/1.1/DTD/svg11.dtd">
<!-- Generated by graphviz version 2.43.0 (0)
 -->
<!-- Title: TSID/src/JointTrackingTask.cpp Pages: 1 -->
<svg width="1247pt" height="486pt"
 viewBox="0.00 0.00 1246.50 486.00" xmlns="http://www.w3.org/2000/svg" xmlns:xlink="http://www.w3.org/1999/xlink">
<g id="graph0" class="graph" transform="scale(1 1) rotate(0) translate(4 482)">
<title>TSID/src/JointTrackingTask.cpp</title>
<!-- Node1 -->
<g id="node1" class="node">
<title>Node1</title>
<g id="a_node1"><a xlink:title=" ">
<polygon fill="#bfbfbf" stroke="black" points="891,-458.5 891,-477.5 1055,-477.5 1055,-458.5 891,-458.5"/>
<text text-anchor="middle" x="973" y="-465.5" font-family="Helvetica,sans-Serif" font-size="10.00">TSID/src/JointTrackingTask.cpp</text>
</a>
</g>
</g>
<!-- Node2 -->
<g id="node2" class="node">
<title>Node2</title>
<g id="a_node2"><a xlink:href="TSID_2include_2BipedalLocomotion_2TSID_2JointTrackingTask_8h_source.html" target="_top" xlink:title=" ">
<polygon fill="none" stroke="black" points="639,-391.5 639,-421.5 775,-421.5 775,-391.5 639,-391.5"/>
<text text-anchor="start" x="647" y="-409.5" font-family="Helvetica,sans-Serif" font-size="10.00">BipedalLocomotion/TSID</text>
<text text-anchor="middle" x="707" y="-398.5" font-family="Helvetica,sans-Serif" font-size="10.00">/JointTrackingTask.h</text>
</a>
</g>
</g>
<!-- Node1&#45;&gt;Node2 -->
<g id="edge1" class="edge">
<title>Node1&#45;&gt;Node2</title>
<path fill="none" stroke="midnightblue" d="M934.89,-458.48C894.49,-449.44 829.71,-434.95 779.52,-423.72"/>
<polygon fill="midnightblue" stroke="midnightblue" points="780.21,-420.29 769.69,-421.52 778.69,-427.12 780.21,-420.29"/>
</g>
<!-- Node23 -->
<g id="node23" class="node">
<title>Node23</title>
<g id="a_node23"><a xlink:href="Logger_8h.html" target="_top" xlink:title=" ">
<polygon fill="none" stroke="black" points="887,-391.5 887,-421.5 1059,-421.5 1059,-391.5 887,-391.5"/>
<text text-anchor="start" x="895" y="-409.5" font-family="Helvetica,sans-Serif" font-size="10.00">BipedalLocomotion/TextLogging</text>
<text text-anchor="middle" x="973" y="-398.5" font-family="Helvetica,sans-Serif" font-size="10.00">/Logger.h</text>
</a>
</g>
</g>
<!-- Node1&#45;&gt;Node23 -->
<g id="edge29" class="edge">
<title>Node1&#45;&gt;Node23</title>
<path fill="none" stroke="midnightblue" d="M973,-458.48C973,-451.47 973,-441.19 973,-431.7"/>
<polygon fill="midnightblue" stroke="midnightblue" points="976.5,-431.52 973,-421.52 969.5,-431.52 976.5,-431.52"/>
</g>
<!-- Node26 -->
<g id="node26" class="node">
<title>Node26</title>
<g id="a_node26"><a xlink:title=" ">
<polygon fill="none" stroke="#bfbfbf" points="1077.5,-397 1077.5,-416 1238.5,-416 1238.5,-397 1077.5,-397"/>
<text text-anchor="middle" x="1158" y="-404" font-family="Helvetica,sans-Serif" font-size="10.00">iDynTree/Core/EigenHelpers.h</text>
</a>
</g>
</g>
<!-- Node1&#45;&gt;Node26 -->
<g id="edge32" class="edge">
<title>Node1&#45;&gt;Node26</title>
<path fill="none" stroke="midnightblue" d="M999.51,-458.48C1031.65,-448.14 1085.99,-430.66 1121.93,-419.1"/>
<polygon fill="midnightblue" stroke="midnightblue" points="1123.1,-422.4 1131.54,-416.01 1120.95,-415.74 1123.1,-422.4"/>
</g>
<!-- Node3 -->
<g id="node3" class="node">
<title>Node3</title>
<g id="a_node3"><a xlink:href="LinearTask_8h.html" target="_top" xlink:title=" ">
<polygon fill="none" stroke="black" points="357,-324.5 357,-354.5 507,-354.5 507,-324.5 357,-324.5"/>
<text text-anchor="start" x="365" y="-342.5" font-family="Helvetica,sans-Serif" font-size="10.00">BipedalLocomotion/System</text>
<text text-anchor="middle" x="432" y="-331.5" font-family="Helvetica,sans-Serif" font-size="10.00">/LinearTask.h</text>
</a>
</g>
</g>
<!-- Node2&#45;&gt;Node3 -->
<g id="edge2" class="edge">
<title>Node2&#45;&gt;Node3</title>
<path fill="none" stroke="midnightblue" d="M647.67,-391.48C604.8,-381.34 546.76,-367.63 501.69,-356.97"/>
<polygon fill="midnightblue" stroke="midnightblue" points="502.24,-353.51 491.7,-354.61 500.63,-360.32 502.24,-353.51"/>
</g>
<!-- Node21 -->
<g id="node21" class="node">
<title>Node21</title>
<g id="a_node21"><a xlink:title=" ">
<polygon fill="none" stroke="#bfbfbf" points="525.5,-330 525.5,-349 700.5,-349 700.5,-330 525.5,-330"/>
<text text-anchor="middle" x="613" y="-337" font-family="Helvetica,sans-Serif" font-size="10.00">iDynTree/KinDynComputations.h</text>
</a>
</g>
</g>
<!-- Node2&#45;&gt;Node21 -->
<g id="edge27" class="edge">
<title>Node2&#45;&gt;Node21</title>
<path fill="none" stroke="midnightblue" d="M686.6,-391.4C670.99,-380.6 649.52,-365.76 633.81,-354.89"/>
<polygon fill="midnightblue" stroke="midnightblue" points="635.52,-351.82 625.3,-349.01 631.54,-357.57 635.52,-351.82"/>
</g>
<!-- Node22 -->
<g id="node22" class="node">
<title>Node22</title>
<g id="a_node22"><a xlink:title=" ">
<polygon fill="none" stroke="#bfbfbf" points="719,-324.5 719,-354.5 905,-354.5 905,-324.5 719,-324.5"/>
<text text-anchor="start" x="727" y="-342.5" font-family="Helvetica,sans-Serif" font-size="10.00">LieGroupControllers</text>
<text text-anchor="middle" x="812" y="-331.5" font-family="Helvetica,sans-Serif" font-size="10.00">/ProportionalDerivativeController.h</text>
</a>
</g>
</g>
<!-- Node2&#45;&gt;Node22 -->
<g id="edge28" class="edge">
<title>Node2&#45;&gt;Node22</title>
<path fill="none" stroke="midnightblue" d="M729.78,-391.4C744.64,-382.2 764.24,-370.07 780.57,-359.95"/>
<polygon fill="midnightblue" stroke="midnightblue" points="782.6,-362.82 789.26,-354.58 778.92,-356.86 782.6,-362.82"/>
</g>
<!-- Node4 -->
<g id="node4" class="node">
<title>Node4</title>
<g id="a_node4"><a xlink:title=" ">
<polygon fill="none" stroke="#bfbfbf" points="0,-62 0,-81 58,-81 58,-62 0,-62"/>
<text text-anchor="middle" x="29" y="-69" font-family="Helvetica,sans-Serif" font-size="10.00">memory</text>
</a>
</g>
</g>
<!-- Node3&#45;&gt;Node4 -->
<g id="edge3" class="edge">
<title>Node3&#45;&gt;Node4</title>
<path fill="none" stroke="midnightblue" d="M356.95,-324.49C288.6,-308.7 187.83,-277.52 117,-221 86.89,-196.97 81.68,-187.12 62,-154 49.98,-133.76 40.46,-108.33 34.8,-91.31"/>
<polygon fill="midnightblue" stroke="midnightblue" points="38.03,-89.93 31.65,-81.47 31.37,-92.06 38.03,-89.93"/>
</g>
<!-- Node5 -->
<g id="node5" class="node">
<title>Node5</title>
<g id="a_node5"><a xlink:title=" ">
<polygon fill="none" stroke="#bfbfbf" points="442,-129 442,-148 486,-148 486,-129 442,-129"/>
<text text-anchor="middle" x="464" y="-136" font-family="Helvetica,sans-Serif" font-size="10.00">string</text>
</a>
</g>
</g>
<!-- Node3&#45;&gt;Node5 -->
<g id="edge4" class="edge">
<title>Node3&#45;&gt;Node5</title>
<path fill="none" stroke="midnightblue" d="M441.12,-324.4C454.32,-303.05 478.15,-260.79 487,-221 489.99,-207.55 489.92,-203.46 487,-190 484.48,-178.4 479.06,-166.27 474.11,-156.81"/>
<polygon fill="midnightblue" stroke="midnightblue" points="477.17,-155.1 469.27,-148.04 471.04,-158.49 477.17,-155.1"/>
</g>
<!-- Node6 -->
<g id="node6" class="node">
<title>Node6</title>
<g id="a_node6"><a xlink:title=" ">
<polygon fill="none" stroke="#bfbfbf" points="535.5,-263 535.5,-282 612.5,-282 612.5,-263 535.5,-263"/>
<text text-anchor="middle" x="574" y="-270" font-family="Helvetica,sans-Serif" font-size="10.00">Eigen/Dense</text>
</a>
</g>
</g>
<!-- Node3&#45;&gt;Node6 -->
<g id="edge5" class="edge">
<title>Node3&#45;&gt;Node6</title>
<path fill="none" stroke="midnightblue" d="M462.81,-324.4C487.62,-313.04 522.18,-297.22 546.16,-286.24"/>
<polygon fill="midnightblue" stroke="midnightblue" points="547.78,-289.35 555.42,-282.01 544.87,-282.99 547.78,-289.35"/>
</g>
<!-- Node7 -->
<g id="node7" class="node">
<title>Node7</title>
<g id="a_node7"><a xlink:title=" ">
<polygon fill="none" stroke="#bfbfbf" points="631,-263 631,-282 783,-282 783,-263 631,-263"/>
<text text-anchor="middle" x="707" y="-270" font-family="Helvetica,sans-Serif" font-size="10.00">iDynTree/Core/MatrixView.h</text>
</a>
</g>
</g>
<!-- Node3&#45;&gt;Node7 -->
<g id="edge6" class="edge">
<title>Node3&#45;&gt;Node7</title>
<path fill="none" stroke="midnightblue" d="M491.33,-324.48C542.23,-312.45 614.52,-295.36 661.1,-284.35"/>
<polygon fill="midnightblue" stroke="midnightblue" points="661.99,-287.74 670.92,-282.03 660.38,-280.92 661.99,-287.74"/>
</g>
<!-- Node8 -->
<g id="node8" class="node">
<title>Node8</title>
<g id="a_node8"><a xlink:href="IParametersHandler_8h.html" target="_top" xlink:title=" ">
<polygon fill="none" stroke="black" points="160.5,-190.5 160.5,-220.5 329.5,-220.5 329.5,-190.5 160.5,-190.5"/>
<text text-anchor="start" x="168.5" y="-208.5" font-family="Helvetica,sans-Serif" font-size="10.00">BipedalLocomotion/Parameters</text>
<text text-anchor="middle" x="245" y="-197.5" font-family="Helvetica,sans-Serif" font-size="10.00">Handler/IParametersHandler.h</text>
</a>
</g>
</g>
<!-- Node3&#45;&gt;Node8 -->
<g id="edge7" class="edge">
<title>Node3&#45;&gt;Node8</title>
<path fill="none" stroke="midnightblue" d="M356.86,-329.39C327.46,-322.38 295.48,-309.96 273,-288 257.51,-272.86 250.58,-248.78 247.49,-230.71"/>
<polygon fill="midnightblue" stroke="midnightblue" points="250.93,-230.03 246.05,-220.63 244,-231.02 250.93,-230.03"/>
</g>
<!-- Node19 -->
<g id="node19" class="node">
<title>Node19</title>
<g id="a_node19"><a xlink:href="VariablesHandler_8h.html" target="_top" xlink:title=" ">
<polygon fill="none" stroke="black" points="282,-257.5 282,-287.5 432,-287.5 432,-257.5 282,-257.5"/>
<text text-anchor="start" x="290" y="-275.5" font-family="Helvetica,sans-Serif" font-size="10.00">BipedalLocomotion/System</text>
<text text-anchor="middle" x="357" y="-264.5" font-family="Helvetica,sans-Serif" font-size="10.00">/VariablesHandler.h</text>
</a>
</g>
</g>
<!-- Node3&#45;&gt;Node19 -->
<g id="edge22" class="edge">
<title>Node3&#45;&gt;Node19</title>
<path fill="none" stroke="midnightblue" d="M415.73,-324.4C405.6,-315.62 392.4,-304.18 381.08,-294.37"/>
<polygon fill="midnightblue" stroke="midnightblue" points="383.09,-291.48 373.24,-287.58 378.51,-296.77 383.09,-291.48"/>
</g>
<!-- Node8&#45;&gt;Node4 -->
<g id="edge8" class="edge">
<title>Node8&#45;&gt;Node4</title>
<path fill="none" stroke="midnightblue" d="M221.11,-190.48C204.03,-180.42 180.53,-166.48 160,-154 149.44,-147.58 86.05,-108.08 51.47,-86.52"/>
<polygon fill="midnightblue" stroke="midnightblue" points="53.29,-83.52 42.95,-81.2 49.58,-89.46 53.29,-83.52"/>
</g>
<!-- Node8&#45;&gt;Node5 -->
<g id="edge9" class="edge">
<title>Node8&#45;&gt;Node5</title>
<path fill="none" stroke="midnightblue" d="M302.38,-190.45C338.7,-181.12 386.48,-168.04 428,-154 430.13,-153.28 432.31,-152.5 434.5,-151.7"/>
<polygon fill="midnightblue" stroke="midnightblue" points="435.9,-154.9 443.97,-148.04 433.38,-148.37 435.9,-154.9"/>
</g>
<!-- Node9 -->
<g id="node9" class="node">
<title>Node9</title>
<g id="a_node9"><a xlink:title=" ">
<polygon fill="none" stroke="#bfbfbf" points="338.5,-129 338.5,-148 385.5,-148 385.5,-129 338.5,-129"/>
<text text-anchor="middle" x="362" y="-136" font-family="Helvetica,sans-Serif" font-size="10.00">vector</text>
</a>
</g>
</g>
<!-- Node8&#45;&gt;Node9 -->
<g id="edge10" class="edge">
<title>Node8&#45;&gt;Node9</title>
<path fill="none" stroke="midnightblue" d="M270.39,-190.4C290.37,-179.29 318.04,-163.92 337.73,-152.98"/>
<polygon fill="midnightblue" stroke="midnightblue" points="339.65,-155.92 346.69,-148.01 336.25,-149.8 339.65,-155.92"/>
</g>
<!-- Node10 -->
<g id="node10" class="node">
<title>Node10</title>
<g id="a_node10"><a xlink:href="TemplateHelpers_8h_source.html" target="_top" xlink:title=" ">
<polygon fill="none" stroke="black" points="447,-56.5 447,-86.5 605,-86.5 605,-56.5 447,-56.5"/>
<text text-anchor="start" x="455" y="-74.5" font-family="Helvetica,sans-Serif" font-size="10.00">BipedalLocomotion/Generic</text>
<text text-anchor="middle" x="526" y="-63.5" font-family="Helvetica,sans-Serif" font-size="10.00">Container/TemplateHelpers.h</text>
</a>
</g>
</g>
<!-- Node8&#45;&gt;Node10 -->
<g id="edge11" class="edge">
<title>Node8&#45;&gt;Node10</title>
<path fill="none" stroke="midnightblue" d="M301.04,-190.48C329.82,-182.07 364.86,-169.89 394,-154 413.44,-143.4 414.53,-135.22 433,-123 450.45,-111.45 470.79,-100.18 487.98,-91.23"/>
<polygon fill="midnightblue" stroke="midnightblue" points="489.88,-94.19 497.17,-86.51 486.68,-87.96 489.88,-94.19"/>
</g>
<!-- Node14 -->
<g id="node14" class="node">
<title>Node14</title>
<g id="a_node14"><a xlink:href="Vector_8h_source.html" target="_top" xlink:title=" ">
<polygon fill="none" stroke="black" points="169.5,-123.5 169.5,-153.5 320.5,-153.5 320.5,-123.5 169.5,-123.5"/>
<text text-anchor="start" x="177.5" y="-141.5" font-family="Helvetica,sans-Serif" font-size="10.00">BipedalLocomotion/Generic</text>
<text text-anchor="middle" x="245" y="-130.5" font-family="Helvetica,sans-Serif" font-size="10.00">Container/Vector.h</text>
</a>
</g>
</g>
<!-- Node8&#45;&gt;Node14 -->
<g id="edge15" class="edge">
<title>Node8&#45;&gt;Node14</title>
<path fill="none" stroke="midnightblue" d="M245,-190.4C245,-182.64 245,-172.81 245,-163.86"/>
<polygon fill="midnightblue" stroke="midnightblue" points="248.5,-163.58 245,-153.58 241.5,-163.58 248.5,-163.58"/>
</g>
<!-- Node11 -->
<g id="node11" class="node">
<title>Node11</title>
<g id="a_node11"><a xlink:title=" ">
<polygon fill="none" stroke="#bfbfbf" points="402.5,-0.5 402.5,-19.5 471.5,-19.5 471.5,-0.5 402.5,-0.5"/>
<text text-anchor="middle" x="437" y="-7.5" font-family="Helvetica,sans-Serif" font-size="10.00">type_traits</text>
</a>
</g>
</g>
<!-- Node10&#45;&gt;Node11 -->
<g id="edge12" class="edge">
<title>Node10&#45;&gt;Node11</title>
<path fill="none" stroke="midnightblue" d="M504.91,-56.4C490.91,-47.04 472.59,-34.79 458.51,-25.38"/>
<polygon fill="midnightblue" stroke="midnightblue" points="460.21,-22.31 449.95,-19.66 456.32,-28.13 460.21,-22.31"/>
</g>
<!-- Node12 -->
<g id="node12" class="node">
<title>Node12</title>
<g id="a_node12"><a xlink:title=" ">
<polygon fill="none" stroke="#bfbfbf" points="489.5,-0.5 489.5,-19.5 562.5,-19.5 562.5,-0.5 489.5,-0.5"/>
<text text-anchor="middle" x="526" y="-7.5" font-family="Helvetica,sans-Serif" font-size="10.00">string_view</text>
</a>
</g>
</g>
<!-- Node10&#45;&gt;Node12 -->
<g id="edge13" class="edge">
<title>Node10&#45;&gt;Node12</title>
<path fill="none" stroke="midnightblue" d="M526,-56.4C526,-48.47 526,-38.46 526,-29.86"/>
<polygon fill="midnightblue" stroke="midnightblue" points="529.5,-29.66 526,-19.66 522.5,-29.66 529.5,-29.66"/>
</g>
<!-- Node13 -->
<g id="node13" class="node">
<title>Node13</title>
<g id="a_node13"><a xlink:title=" ">
<polygon fill="none" stroke="#bfbfbf" points="580.5,-0.5 580.5,-19.5 649.5,-19.5 649.5,-0.5 580.5,-0.5"/>
<text text-anchor="middle" x="615" y="-7.5" font-family="Helvetica,sans-Serif" font-size="10.00">Eigen/Core</text>
</a>
</g>
</g>
<!-- Node10&#45;&gt;Node13 -->
<g id="edge14" class="edge">
<title>Node10&#45;&gt;Node13</title>
<path fill="none" stroke="midnightblue" d="M547.09,-56.4C561.09,-47.04 579.41,-34.79 593.49,-25.38"/>
<polygon fill="midnightblue" stroke="midnightblue" points="595.68,-28.13 602.05,-19.66 591.79,-22.31 595.68,-28.13"/>
</g>
<!-- Node14&#45;&gt;Node4 -->
<g id="edge21" class="edge">
<title>Node14&#45;&gt;Node4</title>
<path fill="none" stroke="midnightblue" d="M190.88,-123.48C155.41,-113.96 108.16,-100.66 67,-87 64.74,-86.25 62.41,-85.44 60.08,-84.61"/>
<polygon fill="midnightblue" stroke="midnightblue" points="61.18,-81.29 50.58,-81.11 58.76,-87.86 61.18,-81.29"/>
</g>
<!-- Node14&#45;&gt;Node10 -->
<g id="edge17" class="edge">
<title>Node14&#45;&gt;Node10</title>
<path fill="none" stroke="midnightblue" d="M305.63,-123.48C349.52,-113.32 408.98,-99.57 455.08,-88.91"/>
<polygon fill="midnightblue" stroke="midnightblue" points="456.04,-92.27 465,-86.61 454.47,-85.45 456.04,-92.27"/>
</g>
<!-- Node15 -->
<g id="node15" class="node">
<title>Node15</title>
<g id="a_node15"><a xlink:title=" ">
<polygon fill="none" stroke="#bfbfbf" points="76.5,-62 76.5,-81 197.5,-81 197.5,-62 76.5,-62"/>
<text text-anchor="middle" x="137" y="-69" font-family="Helvetica,sans-Serif" font-size="10.00">iDynTree/Core/Span.h</text>
</a>
</g>
</g>
<!-- Node14&#45;&gt;Node15 -->
<g id="edge16" class="edge">
<title>Node14&#45;&gt;Node15</title>
<path fill="none" stroke="midnightblue" d="M221.57,-123.4C203.29,-112.39 178.04,-97.2 159.9,-86.28"/>
<polygon fill="midnightblue" stroke="midnightblue" points="161.51,-83.16 151.13,-81.01 157.9,-89.16 161.51,-83.16"/>
</g>
<!-- Node16 -->
<g id="node16" class="node">
<title>Node16</title>
<g id="a_node16"><a xlink:title=" ">
<polygon fill="none" stroke="#bfbfbf" points="215.5,-62 215.5,-81 280.5,-81 280.5,-62 215.5,-62"/>
<text text-anchor="middle" x="248" y="-69" font-family="Helvetica,sans-Serif" font-size="10.00">functional</text>
</a>
</g>
</g>
<!-- Node14&#45;&gt;Node16 -->
<g id="edge18" class="edge">
<title>Node14&#45;&gt;Node16</title>
<path fill="none" stroke="midnightblue" d="M245.65,-123.4C246.09,-113.96 246.66,-101.45 247.14,-91.19"/>
<polygon fill="midnightblue" stroke="midnightblue" points="250.63,-91.35 247.6,-81.19 243.64,-91.02 250.63,-91.35"/>
</g>
<!-- Node17 -->
<g id="node17" class="node">
<title>Node17</title>
<g id="a_node17"><a xlink:title=" ">
<polygon fill="none" stroke="#bfbfbf" points="299,-62 299,-81 351,-81 351,-62 299,-62"/>
<text text-anchor="middle" x="325" y="-69" font-family="Helvetica,sans-Serif" font-size="10.00">cassert</text>
</a>
</g>
</g>
<!-- Node14&#45;&gt;Node17 -->
<g id="edge19" class="edge">
<title>Node14&#45;&gt;Node17</title>
<path fill="none" stroke="midnightblue" d="M262.36,-123.4C275.33,-112.86 293.03,-98.48 306.31,-87.69"/>
<polygon fill="midnightblue" stroke="midnightblue" points="308.74,-90.22 314.3,-81.19 304.33,-84.78 308.74,-90.22"/>
</g>
<!-- Node18 -->
<g id="node18" class="node">
<title>Node18</title>
<g id="a_node18"><a xlink:title=" ">
<polygon fill="none" stroke="#bfbfbf" points="369,-62 369,-81 429,-81 429,-62 369,-62"/>
<text text-anchor="middle" x="399" y="-69" font-family="Helvetica,sans-Serif" font-size="10.00">iostream</text>
</a>
</g>
</g>
<!-- Node14&#45;&gt;Node18 -->
<g id="edge20" class="edge">
<title>Node14&#45;&gt;Node18</title>
<path fill="none" stroke="midnightblue" d="M278.42,-123.4C305.56,-111.94 343.47,-95.94 369.5,-84.95"/>
<polygon fill="midnightblue" stroke="midnightblue" points="370.99,-88.12 378.84,-81.01 368.27,-81.67 370.99,-88.12"/>
</g>
<!-- Node19&#45;&gt;Node4 -->
<g id="edge24" class="edge">
<title>Node19&#45;&gt;Node4</title>
<path fill="none" stroke="midnightblue" d="M281.96,-264.78C240.78,-258.33 190.27,-245.71 151,-221 123.13,-203.46 65.72,-124.7 40.88,-89.54"/>
<polygon fill="midnightblue" stroke="midnightblue" points="43.66,-87.41 35.05,-81.24 37.93,-91.43 43.66,-87.41"/>
</g>
<!-- Node19&#45;&gt;Node5 -->
<g id="edge23" class="edge">
<title>Node19&#45;&gt;Node5</title>
<path fill="none" stroke="midnightblue" d="M356.98,-257.41C357.64,-239.95 361.09,-210.05 376,-190 383.96,-179.3 413.27,-163.6 435.91,-152.55"/>
<polygon fill="midnightblue" stroke="midnightblue" points="437.61,-155.61 445.11,-148.13 434.58,-149.3 437.61,-155.61"/>
</g>
<!-- Node19&#45;&gt;Node8 -->
<g id="edge26" class="edge">
<title>Node19&#45;&gt;Node8</title>
<path fill="none" stroke="midnightblue" d="M332.7,-257.4C316.7,-248.11 295.56,-235.84 278.04,-225.67"/>
<polygon fill="midnightblue" stroke="midnightblue" points="279.66,-222.57 269.25,-220.58 276.15,-228.62 279.66,-222.57"/>
</g>
<!-- Node20 -->
<g id="node20" class="node">
<title>Node20</title>
<g id="a_node20"><a xlink:title=" ">
<polygon fill="none" stroke="#bfbfbf" points="385.5,-196 385.5,-215 478.5,-215 478.5,-196 385.5,-196"/>
<text text-anchor="middle" x="432" y="-203" font-family="Helvetica,sans-Serif" font-size="10.00">unordered_map</text>
</a>
</g>
</g>
<!-- Node19&#45;&gt;Node20 -->
<g id="edge25" class="edge">
<title>Node19&#45;&gt;Node20</title>
<path fill="none" stroke="midnightblue" d="M373.27,-257.4C385.32,-246.96 401.71,-232.75 414.12,-222"/>
<polygon fill="midnightblue" stroke="midnightblue" points="416.7,-224.39 421.97,-215.19 412.12,-219.1 416.7,-224.39"/>
</g>
<!-- Node24 -->
<g id="node24" class="node">
<title>Node24</title>
<g id="a_node24"><a xlink:title=" ">
<polygon fill="none" stroke="#bfbfbf" points="923.5,-330 923.5,-349 1022.5,-349 1022.5,-330 923.5,-330"/>
<text text-anchor="middle" x="973" y="-337" font-family="Helvetica,sans-Serif" font-size="10.00">spdlog/fmt/ostr.h</text>
</a>
</g>
</g>
<!-- Node23&#45;&gt;Node24 -->
<g id="edge30" class="edge">
<title>Node23&#45;&gt;Node24</title>
<path fill="none" stroke="midnightblue" d="M973,-391.4C973,-382.06 973,-369.71 973,-359.52"/>
<polygon fill="midnightblue" stroke="midnightblue" points="976.5,-359.19 973,-349.19 969.5,-359.19 976.5,-359.19"/>
</g>
<!-- Node25 -->
<g id="node25" class="node">
<title>Node25</title>
<g id="a_node25"><a xlink:title=" ">
<polygon fill="none" stroke="#bfbfbf" points="1040.5,-330 1040.5,-349 1133.5,-349 1133.5,-330 1040.5,-330"/>
<text text-anchor="middle" x="1087" y="-337" font-family="Helvetica,sans-Serif" font-size="10.00">spdlog/spdlog.h</text>
</a>
</g>
</g>
<!-- Node23&#45;&gt;Node25 -->
<g id="edge31" class="edge">
<title>Node23&#45;&gt;Node25</title>
<path fill="none" stroke="midnightblue" d="M997.74,-391.4C1017.21,-380.29 1044.17,-364.92 1063.35,-353.98"/>
<polygon fill="midnightblue" stroke="midnightblue" points="1065.13,-357 1072.08,-349.01 1061.66,-350.92 1065.13,-357"/>
</g>
</g>
</svg>
