<?xml version="1.0" encoding="UTF-8" standalone="no"?>
<!DOCTYPE svg PUBLIC "-//W3C//DTD SVG 1.1//EN"
 "http://www.w3.org/Graphics/SVG/1.1/DTD/svg11.dtd">
<!-- Generated by graphviz version 2.43.0 (0)
 -->
<!-- Title: System/include/BipedalLocomotion/System/VariablesHandler.h Pages: 1 -->
<svg width="2257pt" height="296pt"
 viewBox="0.00 0.00 2257.00 296.00" xmlns="http://www.w3.org/2000/svg" xmlns:xlink="http://www.w3.org/1999/xlink">
<g id="graph0" class="graph" transform="scale(1 1) rotate(0) translate(4 292)">
<title>System/include/BipedalLocomotion/System/VariablesHandler.h</title>
<!-- Node1 -->
<g id="node1" class="node">
<title>Node1</title>
<g id="a_node1"><a xlink:title=" ">
<polygon fill="#bfbfbf" stroke="black" points="1895,-257.5 1895,-287.5 2083,-287.5 2083,-257.5 1895,-257.5"/>
<text text-anchor="start" x="1903" y="-275.5" font-family="Helvetica,sans-Serif" font-size="10.00">System/include/BipedalLocomotion</text>
<text text-anchor="middle" x="1989" y="-264.5" font-family="Helvetica,sans-Serif" font-size="10.00">/System/VariablesHandler.h</text>
</a>
</g>
</g>
<!-- Node2 -->
<g id="node2" class="node">
<title>Node2</title>
<g id="a_node2"><a xlink:href="LinearTask_8h.html" target="_top" xlink:title=" ">
<polygon fill="none" stroke="black" points="1197,-190.5 1197,-220.5 1385,-220.5 1385,-190.5 1197,-190.5"/>
<text text-anchor="start" x="1205" y="-208.5" font-family="Helvetica,sans-Serif" font-size="10.00">System/include/BipedalLocomotion</text>
<text text-anchor="middle" x="1291" y="-197.5" font-family="Helvetica,sans-Serif" font-size="10.00">/System/LinearTask.h</text>
</a>
</g>
</g>
<!-- Node1&#45;&gt;Node2 -->
<g id="edge1" class="edge">
<title>Node1&#45;&gt;Node2</title>
<path fill="none" stroke="midnightblue" d="M1884.89,-261.81C1749.57,-249.2 1515.22,-227.38 1385.03,-215.26"/>
<polygon fill="midnightblue" stroke="midnightblue" points="1884.58,-265.29 1894.86,-262.73 1885.23,-258.32 1884.58,-265.29"/>
</g>
<!-- Node15 -->
<g id="node15" class="node">
<title>Node15</title>
<g id="a_node15"><a xlink:href="BaseDynamicsTask_8h.html" target="_top" xlink:title=" ">
<polygon fill="none" stroke="black" points="1883,-123.5 1883,-153.5 2057,-153.5 2057,-123.5 1883,-123.5"/>
<text text-anchor="start" x="1891" y="-141.5" font-family="Helvetica,sans-Serif" font-size="10.00">TSID/include/BipedalLocomotion</text>
<text text-anchor="middle" x="1970" y="-130.5" font-family="Helvetica,sans-Serif" font-size="10.00">/TSID/BaseDynamicsTask.h</text>
</a>
</g>
</g>
<!-- Node1&#45;&gt;Node15 -->
<g id="edge28" class="edge">
<title>Node1&#45;&gt;Node15</title>
<path fill="none" stroke="midnightblue" d="M1985.53,-247.39C1981.57,-219.9 1975.24,-175.89 1972.02,-153.52"/>
<polygon fill="midnightblue" stroke="midnightblue" points="1982.08,-247.97 1986.97,-257.37 1989.01,-246.98 1982.08,-247.97"/>
</g>
<!-- Node17 -->
<g id="node17" class="node">
<title>Node17</title>
<g id="a_node17"><a xlink:href="JointDynamicsTask_8h_source.html" target="_top" xlink:title=" ">
<polygon fill="none" stroke="black" points="2075,-123.5 2075,-153.5 2249,-153.5 2249,-123.5 2075,-123.5"/>
<text text-anchor="start" x="2083" y="-141.5" font-family="Helvetica,sans-Serif" font-size="10.00">TSID/include/BipedalLocomotion</text>
<text text-anchor="middle" x="2162" y="-130.5" font-family="Helvetica,sans-Serif" font-size="10.00">/TSID/JointDynamicsTask.h</text>
</a>
</g>
</g>
<!-- Node1&#45;&gt;Node17 -->
<g id="edge29" class="edge">
<title>Node1&#45;&gt;Node17</title>
<path fill="none" stroke="midnightblue" d="M1994.81,-247.66C2000.33,-229.62 2010.33,-205.42 2027,-190 2045.74,-172.67 2070.98,-161.14 2094.56,-153.53"/>
<polygon fill="midnightblue" stroke="midnightblue" points="1991.4,-246.87 1992.06,-257.45 1998.13,-248.77 1991.4,-246.87"/>
</g>
<!-- Node27 -->
<g id="node27" class="node">
<title>Node27</title>
<g id="a_node27"><a xlink:href="VariablesHandler_8cpp.html" target="_top" xlink:title=" ">
<polygon fill="none" stroke="black" points="2036,-196 2036,-215 2212,-215 2212,-196 2036,-196"/>
<text text-anchor="middle" x="2124" y="-203" font-family="Helvetica,sans-Serif" font-size="10.00">System/src/VariablesHandler.cpp</text>
</a>
</g>
</g>
<!-- Node1&#45;&gt;Node27 -->
<g id="edge27" class="edge">
<title>Node1&#45;&gt;Node27</title>
<path fill="none" stroke="midnightblue" d="M2027.49,-252.97C2053.42,-240.48 2086.41,-224.6 2106.33,-215.01"/>
<polygon fill="midnightblue" stroke="midnightblue" points="2025.78,-249.9 2018.29,-257.4 2028.82,-256.21 2025.78,-249.9"/>
</g>
<!-- Node3 -->
<g id="node3" class="node">
<title>Node3</title>
<g id="a_node3"><a xlink:href="CoMTask_8h.html" target="_top" xlink:title=" ">
<polygon fill="none" stroke="black" points="343.5,-123.5 343.5,-153.5 504.5,-153.5 504.5,-123.5 343.5,-123.5"/>
<text text-anchor="start" x="351.5" y="-141.5" font-family="Helvetica,sans-Serif" font-size="10.00">IK/include/BipedalLocomotion</text>
<text text-anchor="middle" x="424" y="-130.5" font-family="Helvetica,sans-Serif" font-size="10.00">/IK/CoMTask.h</text>
</a>
</g>
</g>
<!-- Node2&#45;&gt;Node3 -->
<g id="edge2" class="edge">
<title>Node2&#45;&gt;Node3</title>
<path fill="none" stroke="midnightblue" d="M1186.77,-200.87C1037.4,-194.95 753.97,-181.07 514,-154 511.01,-153.66 507.97,-153.3 504.9,-152.91"/>
<polygon fill="midnightblue" stroke="midnightblue" points="1186.73,-204.37 1196.86,-201.26 1187,-197.37 1186.73,-204.37"/>
</g>
<!-- Node5 -->
<g id="node5" class="node">
<title>Node5</title>
<g id="a_node5"><a xlink:href="IntegrationBasedIK_8h.html" target="_top" xlink:title=" ">
<polygon fill="none" stroke="black" points="1665.5,-123.5 1665.5,-153.5 1826.5,-153.5 1826.5,-123.5 1665.5,-123.5"/>
<text text-anchor="start" x="1673.5" y="-141.5" font-family="Helvetica,sans-Serif" font-size="10.00">IK/include/BipedalLocomotion</text>
<text text-anchor="middle" x="1746" y="-130.5" font-family="Helvetica,sans-Serif" font-size="10.00">/IK/IntegrationBasedIK.h</text>
</a>
</g>
</g>
<!-- Node2&#45;&gt;Node5 -->
<g id="edge4" class="edge">
<title>Node2&#45;&gt;Node5</title>
<path fill="none" stroke="midnightblue" d="M1395.28,-190.8C1468.56,-181 1568.86,-167.26 1657,-154 1659.79,-153.58 1662.62,-153.15 1665.48,-152.71"/>
<polygon fill="midnightblue" stroke="midnightblue" points="1394.57,-187.36 1385.12,-192.16 1395.49,-194.3 1394.57,-187.36"/>
</g>
<!-- Node6 -->
<g id="node6" class="node">
<title>Node6</title>
<g id="a_node6"><a xlink:href="QPInverseKinematics_8h.html" target="_top" xlink:title=" ">
<polygon fill="none" stroke="black" points="1684.5,-56.5 1684.5,-86.5 1845.5,-86.5 1845.5,-56.5 1684.5,-56.5"/>
<text text-anchor="start" x="1692.5" y="-74.5" font-family="Helvetica,sans-Serif" font-size="10.00">IK/include/BipedalLocomotion</text>
<text text-anchor="middle" x="1765" y="-63.5" font-family="Helvetica,sans-Serif" font-size="10.00">/IK/QPInverseKinematics.h</text>
</a>
</g>
</g>
<!-- Node2&#45;&gt;Node6 -->
<g id="edge9" class="edge">
<title>Node2&#45;&gt;Node6</title>
<path fill="none" stroke="midnightblue" d="M1395.33,-202.25C1545.27,-197.92 1806.96,-185.86 1836,-154 1857.24,-130.7 1820.02,-102.88 1791.93,-86.51"/>
<polygon fill="midnightblue" stroke="midnightblue" points="1395.08,-198.76 1385.18,-202.54 1395.27,-205.75 1395.08,-198.76"/>
</g>
<!-- Node8 -->
<g id="node8" class="node">
<title>Node8</title>
<g id="a_node8"><a xlink:href="IK_2include_2BipedalLocomotion_2IK_2JointTrackingTask_8h.html" target="_top" xlink:title=" ">
<polygon fill="none" stroke="black" points="1307.5,-123.5 1307.5,-153.5 1468.5,-153.5 1468.5,-123.5 1307.5,-123.5"/>
<text text-anchor="start" x="1315.5" y="-141.5" font-family="Helvetica,sans-Serif" font-size="10.00">IK/include/BipedalLocomotion</text>
<text text-anchor="middle" x="1388" y="-130.5" font-family="Helvetica,sans-Serif" font-size="10.00">/IK/JointTrackingTask.h</text>
</a>
</g>
</g>
<!-- Node2&#45;&gt;Node8 -->
<g id="edge7" class="edge">
<title>Node2&#45;&gt;Node8</title>
<path fill="none" stroke="midnightblue" d="M1320.5,-184.73C1335.51,-174.68 1353.4,-162.68 1366.99,-153.58"/>
<polygon fill="midnightblue" stroke="midnightblue" points="1318.41,-181.92 1312.05,-190.4 1322.3,-187.74 1318.41,-181.92"/>
</g>
<!-- Node10 -->
<g id="node10" class="node">
<title>Node10</title>
<g id="a_node10"><a xlink:href="IK_2include_2BipedalLocomotion_2IK_2SE3Task_8h.html" target="_top" xlink:title=" ">
<polygon fill="none" stroke="black" points="1486.5,-123.5 1486.5,-153.5 1647.5,-153.5 1647.5,-123.5 1486.5,-123.5"/>
<text text-anchor="start" x="1494.5" y="-141.5" font-family="Helvetica,sans-Serif" font-size="10.00">IK/include/BipedalLocomotion</text>
<text text-anchor="middle" x="1567" y="-130.5" font-family="Helvetica,sans-Serif" font-size="10.00">/IK/SE3Task.h</text>
</a>
</g>
</g>
<!-- Node2&#45;&gt;Node10 -->
<g id="edge10" class="edge">
<title>Node2&#45;&gt;Node10</title>
<path fill="none" stroke="midnightblue" d="M1360.56,-188.12C1405.72,-177.48 1463.98,-163.76 1507.08,-153.61"/>
<polygon fill="midnightblue" stroke="midnightblue" points="1359.48,-184.78 1350.55,-190.48 1361.08,-191.59 1359.48,-184.78"/>
</g>
<!-- Node12 -->
<g id="node12" class="node">
<title>Node12</title>
<g id="a_node12"><a xlink:href="IK_2include_2BipedalLocomotion_2IK_2SO3Task_8h.html" target="_top" xlink:title=" ">
<polygon fill="none" stroke="black" points="164.5,-123.5 164.5,-153.5 325.5,-153.5 325.5,-123.5 164.5,-123.5"/>
<text text-anchor="start" x="172.5" y="-141.5" font-family="Helvetica,sans-Serif" font-size="10.00">IK/include/BipedalLocomotion</text>
<text text-anchor="middle" x="245" y="-130.5" font-family="Helvetica,sans-Serif" font-size="10.00">/IK/SO3Task.h</text>
</a>
</g>
</g>
<!-- Node2&#45;&gt;Node12 -->
<g id="edge12" class="edge">
<title>Node2&#45;&gt;Node12</title>
<path fill="none" stroke="midnightblue" d="M1186.62,-202.71C1010.41,-198.84 642.93,-187.22 334,-154 331.35,-153.72 328.67,-153.4 325.96,-153.07"/>
<polygon fill="midnightblue" stroke="midnightblue" points="1186.59,-206.21 1196.66,-202.92 1186.74,-199.21 1186.59,-206.21"/>
</g>
<!-- Node14 -->
<g id="node14" class="node">
<title>Node14</title>
<g id="a_node14"><a xlink:href="LinearTask_8cpp.html" target="_top" xlink:title=" ">
<polygon fill="none" stroke="black" points="0,-129 0,-148 146,-148 146,-129 0,-129"/>
<text text-anchor="middle" x="73" y="-136" font-family="Helvetica,sans-Serif" font-size="10.00">System/src/LinearTask.cpp</text>
</a>
</g>
</g>
<!-- Node2&#45;&gt;Node14 -->
<g id="edge14" class="edge">
<title>Node2&#45;&gt;Node14</title>
<path fill="none" stroke="midnightblue" d="M1186.57,-204.41C986.01,-203.22 533.28,-195.67 155,-154 141.92,-152.56 127.78,-150.31 114.99,-148.01"/>
<polygon fill="midnightblue" stroke="midnightblue" points="1186.78,-207.91 1196.8,-204.46 1186.82,-200.91 1186.78,-207.91"/>
</g>
<!-- Node2&#45;&gt;Node15 -->
<g id="edge15" class="edge">
<title>Node2&#45;&gt;Node15</title>
<path fill="none" stroke="midnightblue" d="M1395.3,-197.14C1511.18,-188.55 1703.75,-173.07 1869,-154 1873.58,-153.47 1878.26,-152.9 1882.99,-152.3"/>
<polygon fill="midnightblue" stroke="midnightblue" points="1394.73,-193.67 1385.02,-197.9 1395.25,-200.65 1394.73,-193.67"/>
</g>
<!-- Node2&#45;&gt;Node17 -->
<g id="edge17" class="edge">
<title>Node2&#45;&gt;Node17</title>
<path fill="none" stroke="midnightblue" d="M1395.23,-200.52C1544.26,-194.19 1826.68,-179.82 2066,-154 2068.93,-153.68 2071.91,-153.34 2074.92,-152.98"/>
<polygon fill="midnightblue" stroke="midnightblue" points="1395.01,-197.03 1385.17,-200.94 1395.31,-204.02 1395.01,-197.03"/>
</g>
<!-- Node19 -->
<g id="node19" class="node">
<title>Node19</title>
<g id="a_node19"><a xlink:href="TSID_2include_2BipedalLocomotion_2TSID_2JointTrackingTask_8h_source.html" target="_top" xlink:title=" ">
<polygon fill="none" stroke="black" points="523,-123.5 523,-153.5 697,-153.5 697,-123.5 523,-123.5"/>
<text text-anchor="start" x="531" y="-141.5" font-family="Helvetica,sans-Serif" font-size="10.00">TSID/include/BipedalLocomotion</text>
<text text-anchor="middle" x="610" y="-130.5" font-family="Helvetica,sans-Serif" font-size="10.00">/TSID/JointTrackingTask.h</text>
</a>
</g>
</g>
<!-- Node2&#45;&gt;Node19 -->
<g id="edge19" class="edge">
<title>Node2&#45;&gt;Node19</title>
<path fill="none" stroke="midnightblue" d="M1186.8,-197.52C1069.64,-189.2 873.83,-173.9 706,-154 703.07,-153.65 700.09,-153.29 697.09,-152.9"/>
<polygon fill="midnightblue" stroke="midnightblue" points="1186.62,-201.02 1196.84,-198.23 1187.11,-194.03 1186.62,-201.02"/>
</g>
<!-- Node21 -->
<g id="node21" class="node">
<title>Node21</title>
<g id="a_node21"><a xlink:href="TSID_2include_2BipedalLocomotion_2TSID_2SE3Task_8h.html" target="_top" xlink:title=" ">
<polygon fill="none" stroke="black" points="715,-123.5 715,-153.5 889,-153.5 889,-123.5 715,-123.5"/>
<text text-anchor="start" x="723" y="-141.5" font-family="Helvetica,sans-Serif" font-size="10.00">TSID/include/BipedalLocomotion</text>
<text text-anchor="middle" x="802" y="-130.5" font-family="Helvetica,sans-Serif" font-size="10.00">/TSID/SE3Task.h</text>
</a>
</g>
</g>
<!-- Node2&#45;&gt;Node21 -->
<g id="edge21" class="edge">
<title>Node2&#45;&gt;Node21</title>
<path fill="none" stroke="midnightblue" d="M1186.84,-191.75C1107.58,-181.9 995.84,-167.67 898,-154 895.08,-153.59 892.11,-153.17 889.11,-152.74"/>
<polygon fill="midnightblue" stroke="midnightblue" points="1186.47,-195.23 1196.82,-192.99 1187.33,-188.29 1186.47,-195.23"/>
</g>
<!-- Node23 -->
<g id="node23" class="node">
<title>Node23</title>
<g id="a_node23"><a xlink:href="TSID_2include_2BipedalLocomotion_2TSID_2SO3Task_8h.html" target="_top" xlink:title=" ">
<polygon fill="none" stroke="black" points="907,-123.5 907,-153.5 1081,-153.5 1081,-123.5 907,-123.5"/>
<text text-anchor="start" x="915" y="-141.5" font-family="Helvetica,sans-Serif" font-size="10.00">TSID/include/BipedalLocomotion</text>
<text text-anchor="middle" x="994" y="-130.5" font-family="Helvetica,sans-Serif" font-size="10.00">/TSID/SO3Task.h</text>
</a>
</g>
</g>
<!-- Node2&#45;&gt;Node23 -->
<g id="edge23" class="edge">
<title>Node2&#45;&gt;Node23</title>
<path fill="none" stroke="midnightblue" d="M1217.05,-188.32C1168.24,-177.63 1104.92,-163.77 1058.22,-153.55"/>
<polygon fill="midnightblue" stroke="midnightblue" points="1216.4,-191.76 1226.92,-190.48 1217.9,-184.92 1216.4,-191.76"/>
</g>
<!-- Node25 -->
<g id="node25" class="node">
<title>Node25</title>
<g id="a_node25"><a xlink:href="TaskSpaceInverseDynamics_8h.html" target="_top" xlink:title=" ">
<polygon fill="none" stroke="black" points="1099,-123.5 1099,-153.5 1289,-153.5 1289,-123.5 1099,-123.5"/>
<text text-anchor="start" x="1107" y="-141.5" font-family="Helvetica,sans-Serif" font-size="10.00">TSID/include/BipedalLocomotion</text>
<text text-anchor="middle" x="1194" y="-130.5" font-family="Helvetica,sans-Serif" font-size="10.00">/TSID/TaskSpaceInverseDynamics.h</text>
</a>
</g>
</g>
<!-- Node2&#45;&gt;Node25 -->
<g id="edge25" class="edge">
<title>Node2&#45;&gt;Node25</title>
<path fill="none" stroke="midnightblue" d="M1261.5,-184.73C1246.49,-174.68 1228.6,-162.68 1215.01,-153.58"/>
<polygon fill="midnightblue" stroke="midnightblue" points="1259.7,-187.74 1269.95,-190.4 1263.59,-181.92 1259.7,-187.74"/>
</g>
<!-- Node4 -->
<g id="node4" class="node">
<title>Node4</title>
<g id="a_node4"><a xlink:href="CoMTask_8cpp.html" target="_top" xlink:title=" ">
<polygon fill="none" stroke="black" points="369,-62 369,-81 479,-81 479,-62 369,-62"/>
<text text-anchor="middle" x="424" y="-69" font-family="Helvetica,sans-Serif" font-size="10.00">IK/src/CoMTask.cpp</text>
</a>
</g>
</g>
<!-- Node3&#45;&gt;Node4 -->
<g id="edge3" class="edge">
<title>Node3&#45;&gt;Node4</title>
<path fill="none" stroke="midnightblue" d="M424,-113.25C424,-102.02 424,-89.38 424,-81.19"/>
<polygon fill="midnightblue" stroke="midnightblue" points="420.5,-113.4 424,-123.4 427.5,-113.4 420.5,-113.4"/>
</g>
<!-- Node5&#45;&gt;Node6 -->
<g id="edge5" class="edge">
<title>Node5&#45;&gt;Node6</title>
<path fill="none" stroke="midnightblue" d="M1752.96,-113.7C1755.62,-104.59 1758.57,-94.49 1760.89,-86.58"/>
<polygon fill="midnightblue" stroke="midnightblue" points="1749.57,-112.82 1750.12,-123.4 1756.29,-114.78 1749.57,-112.82"/>
</g>
<!-- Node7 -->
<g id="node7" class="node">
<title>Node7</title>
<g id="a_node7"><a xlink:href="QPInverseKinematics_8cpp.html" target="_top" xlink:title=" ">
<polygon fill="none" stroke="black" points="1679.5,-0.5 1679.5,-19.5 1850.5,-19.5 1850.5,-0.5 1679.5,-0.5"/>
<text text-anchor="middle" x="1765" y="-7.5" font-family="Helvetica,sans-Serif" font-size="10.00">IK/src/QPInverseKinematics.cpp</text>
</a>
</g>
</g>
<!-- Node6&#45;&gt;Node7 -->
<g id="edge6" class="edge">
<title>Node6&#45;&gt;Node7</title>
<path fill="none" stroke="midnightblue" d="M1765,-46.29C1765,-36.86 1765,-26.65 1765,-19.66"/>
<polygon fill="midnightblue" stroke="midnightblue" points="1761.5,-46.4 1765,-56.4 1768.5,-46.4 1761.5,-46.4"/>
</g>
<!-- Node9 -->
<g id="node9" class="node">
<title>Node9</title>
<g id="a_node9"><a xlink:href="IK_2src_2JointTrackingTask_8cpp.html" target="_top" xlink:title=" ">
<polygon fill="none" stroke="black" points="1312.5,-62 1312.5,-81 1463.5,-81 1463.5,-62 1312.5,-62"/>
<text text-anchor="middle" x="1388" y="-69" font-family="Helvetica,sans-Serif" font-size="10.00">IK/src/JointTrackingTask.cpp</text>
</a>
</g>
</g>
<!-- Node8&#45;&gt;Node9 -->
<g id="edge8" class="edge">
<title>Node8&#45;&gt;Node9</title>
<path fill="none" stroke="midnightblue" d="M1388,-113.25C1388,-102.02 1388,-89.38 1388,-81.19"/>
<polygon fill="midnightblue" stroke="midnightblue" points="1384.5,-113.4 1388,-123.4 1391.5,-113.4 1384.5,-113.4"/>
</g>
<!-- Node11 -->
<g id="node11" class="node">
<title>Node11</title>
<g id="a_node11"><a xlink:href="IK_2src_2SE3Task_8cpp.html" target="_top" xlink:title=" ">
<polygon fill="none" stroke="black" points="1513.5,-62 1513.5,-81 1620.5,-81 1620.5,-62 1513.5,-62"/>
<text text-anchor="middle" x="1567" y="-69" font-family="Helvetica,sans-Serif" font-size="10.00">IK/src/SE3Task.cpp</text>
</a>
</g>
</g>
<!-- Node10&#45;&gt;Node11 -->
<g id="edge11" class="edge">
<title>Node10&#45;&gt;Node11</title>
<path fill="none" stroke="midnightblue" d="M1567,-113.25C1567,-102.02 1567,-89.38 1567,-81.19"/>
<polygon fill="midnightblue" stroke="midnightblue" points="1563.5,-113.4 1567,-123.4 1570.5,-113.4 1563.5,-113.4"/>
</g>
<!-- Node13 -->
<g id="node13" class="node">
<title>Node13</title>
<g id="a_node13"><a xlink:href="IK_2src_2SO3Task_8cpp.html" target="_top" xlink:title=" ">
<polygon fill="none" stroke="black" points="191,-62 191,-81 299,-81 299,-62 191,-62"/>
<text text-anchor="middle" x="245" y="-69" font-family="Helvetica,sans-Serif" font-size="10.00">IK/src/SO3Task.cpp</text>
</a>
</g>
</g>
<!-- Node12&#45;&gt;Node13 -->
<g id="edge13" class="edge">
<title>Node12&#45;&gt;Node13</title>
<path fill="none" stroke="midnightblue" d="M245,-113.25C245,-102.02 245,-89.38 245,-81.19"/>
<polygon fill="midnightblue" stroke="midnightblue" points="241.5,-113.4 245,-123.4 248.5,-113.4 241.5,-113.4"/>
</g>
<!-- Node16 -->
<g id="node16" class="node">
<title>Node16</title>
<g id="a_node16"><a xlink:href="BaseDynamicsTask_8cpp.html" target="_top" xlink:title=" ">
<polygon fill="none" stroke="black" points="1883,-62 1883,-81 2057,-81 2057,-62 1883,-62"/>
<text text-anchor="middle" x="1970" y="-69" font-family="Helvetica,sans-Serif" font-size="10.00">TSID/src/BaseDynamicsTask.cpp</text>
</a>
</g>
</g>
<!-- Node15&#45;&gt;Node16 -->
<g id="edge16" class="edge">
<title>Node15&#45;&gt;Node16</title>
<path fill="none" stroke="midnightblue" d="M1970,-113.25C1970,-102.02 1970,-89.38 1970,-81.19"/>
<polygon fill="midnightblue" stroke="midnightblue" points="1966.5,-113.4 1970,-123.4 1973.5,-113.4 1966.5,-113.4"/>
</g>
<!-- Node18 -->
<g id="node18" class="node">
<title>Node18</title>
<g id="a_node18"><a xlink:href="JointDynamicsTask_8cpp.html" target="_top" xlink:title=" ">
<polygon fill="none" stroke="black" points="2076,-62 2076,-81 2248,-81 2248,-62 2076,-62"/>
<text text-anchor="middle" x="2162" y="-69" font-family="Helvetica,sans-Serif" font-size="10.00">TSID/src/JointDynamicsTask.cpp</text>
</a>
</g>
</g>
<!-- Node17&#45;&gt;Node18 -->
<g id="edge18" class="edge">
<title>Node17&#45;&gt;Node18</title>
<path fill="none" stroke="midnightblue" d="M2162,-113.25C2162,-102.02 2162,-89.38 2162,-81.19"/>
<polygon fill="midnightblue" stroke="midnightblue" points="2158.5,-113.4 2162,-123.4 2165.5,-113.4 2158.5,-113.4"/>
</g>
<!-- Node20 -->
<g id="node20" class="node">
<title>Node20</title>
<g id="a_node20"><a xlink:href="TSID_2src_2JointTrackingTask_8cpp.html" target="_top" xlink:title=" ">
<polygon fill="none" stroke="black" points="528,-62 528,-81 692,-81 692,-62 528,-62"/>
<text text-anchor="middle" x="610" y="-69" font-family="Helvetica,sans-Serif" font-size="10.00">TSID/src/JointTrackingTask.cpp</text>
</a>
</g>
</g>
<!-- Node19&#45;&gt;Node20 -->
<g id="edge20" class="edge">
<title>Node19&#45;&gt;Node20</title>
<path fill="none" stroke="midnightblue" d="M610,-113.25C610,-102.02 610,-89.38 610,-81.19"/>
<polygon fill="midnightblue" stroke="midnightblue" points="606.5,-113.4 610,-123.4 613.5,-113.4 606.5,-113.4"/>
</g>
<!-- Node22 -->
<g id="node22" class="node">
<title>Node22</title>
<g id="a_node22"><a xlink:href="TSID_2src_2SE3Task_8cpp.html" target="_top" xlink:title=" ">
<polygon fill="none" stroke="black" points="742.5,-62 742.5,-81 861.5,-81 861.5,-62 742.5,-62"/>
<text text-anchor="middle" x="802" y="-69" font-family="Helvetica,sans-Serif" font-size="10.00">TSID/src/SE3Task.cpp</text>
</a>
</g>
</g>
<!-- Node21&#45;&gt;Node22 -->
<g id="edge22" class="edge">
<title>Node21&#45;&gt;Node22</title>
<path fill="none" stroke="midnightblue" d="M802,-113.25C802,-102.02 802,-89.38 802,-81.19"/>
<polygon fill="midnightblue" stroke="midnightblue" points="798.5,-113.4 802,-123.4 805.5,-113.4 798.5,-113.4"/>
</g>
<!-- Node24 -->
<g id="node24" class="node">
<title>Node24</title>
<g id="a_node24"><a xlink:href="TSID_2src_2SO3Task_8cpp.html" target="_top" xlink:title=" ">
<polygon fill="none" stroke="black" points="933.5,-62 933.5,-81 1054.5,-81 1054.5,-62 933.5,-62"/>
<text text-anchor="middle" x="994" y="-69" font-family="Helvetica,sans-Serif" font-size="10.00">TSID/src/SO3Task.cpp</text>
</a>
</g>
</g>
<!-- Node23&#45;&gt;Node24 -->
<g id="edge24" class="edge">
<title>Node23&#45;&gt;Node24</title>
<path fill="none" stroke="midnightblue" d="M994,-113.25C994,-102.02 994,-89.38 994,-81.19"/>
<polygon fill="midnightblue" stroke="midnightblue" points="990.5,-113.4 994,-123.4 997.5,-113.4 990.5,-113.4"/>
</g>
<!-- Node26 -->
<g id="node26" class="node">
<title>Node26</title>
<g id="a_node26"><a xlink:href="TaskSpaceInverseDynamics_8cpp.html" target="_top" xlink:title=" ">
<polygon fill="none" stroke="black" points="1121,-56.5 1121,-86.5 1267,-86.5 1267,-56.5 1121,-56.5"/>
<text text-anchor="start" x="1129" y="-74.5" font-family="Helvetica,sans-Serif" font-size="10.00">TSID/src/TaskSpaceInverse</text>
<text text-anchor="middle" x="1194" y="-63.5" font-family="Helvetica,sans-Serif" font-size="10.00">Dynamics.cpp</text>
</a>
</g>
</g>
<!-- Node25&#45;&gt;Node26 -->
<g id="edge26" class="edge">
<title>Node25&#45;&gt;Node26</title>
<path fill="none" stroke="midnightblue" d="M1194,-113.11C1194,-104.15 1194,-94.32 1194,-86.58"/>
<polygon fill="midnightblue" stroke="midnightblue" points="1190.5,-113.4 1194,-123.4 1197.5,-113.4 1190.5,-113.4"/>
</g>
</g>
</svg>
