<?xml version="1.0" encoding="UTF-8" standalone="no"?>
<!DOCTYPE svg PUBLIC "-//W3C//DTD SVG 1.1//EN"
 "http://www.w3.org/Graphics/SVG/1.1/DTD/svg11.dtd">
<!-- Generated by graphviz version 2.43.0 (0)
 -->
<!-- Title: Math/include/BipedalLocomotion/Math/Wrench.h Pages: 1 -->
<svg width="273pt" height="95pt"
 viewBox="0.00 0.00 273.00 95.00" xmlns="http://www.w3.org/2000/svg" xmlns:xlink="http://www.w3.org/1999/xlink">
<g id="graph0" class="graph" transform="scale(1 1) rotate(0) translate(4 91)">
<title>Math/include/BipedalLocomotion/Math/Wrench.h</title>
<!-- Node1 -->
<g id="node1" class="node">
<title>Node1</title>
<g id="a_node1"><a xlink:title=" ">
<polygon fill="#bfbfbf" stroke="black" points="44.5,-56.5 44.5,-86.5 220.5,-86.5 220.5,-56.5 44.5,-56.5"/>
<text text-anchor="start" x="52.5" y="-74.5" font-family="Helvetica,sans-Serif" font-size="10.00">Math/include/BipedalLocomotion</text>
<text text-anchor="middle" x="132.5" y="-63.5" font-family="Helvetica,sans-Serif" font-size="10.00">/Math/Wrench.h</text>
</a>
</g>
</g>
<!-- Node2 -->
<g id="node2" class="node">
<title>Node2</title>
<g id="a_node2"><a xlink:title=" ">
<polygon fill="none" stroke="#bfbfbf" points="0,-0.5 0,-19.5 77,-19.5 77,-0.5 0,-0.5"/>
<text text-anchor="middle" x="38.5" y="-7.5" font-family="Helvetica,sans-Serif" font-size="10.00">Eigen/Dense</text>
</a>
</g>
</g>
<!-- Node1&#45;&gt;Node2 -->
<g id="edge1" class="edge">
<title>Node1&#45;&gt;Node2</title>
<path fill="none" stroke="midnightblue" d="M110.22,-56.4C95.3,-46.95 75.72,-34.56 60.79,-25.11"/>
<polygon fill="midnightblue" stroke="midnightblue" points="62.5,-22.05 52.18,-19.66 58.76,-27.96 62.5,-22.05"/>
</g>
<!-- Node3 -->
<g id="node3" class="node">
<title>Node3</title>
<g id="a_node3"><a xlink:title=" ">
<polygon fill="none" stroke="#bfbfbf" points="95,-0.5 95,-19.5 170,-19.5 170,-0.5 95,-0.5"/>
<text text-anchor="middle" x="132.5" y="-7.5" font-family="Helvetica,sans-Serif" font-size="10.00">manif/SE3.h</text>
</a>
</g>
</g>
<!-- Node1&#45;&gt;Node3 -->
<g id="edge2" class="edge">
<title>Node1&#45;&gt;Node3</title>
<path fill="none" stroke="midnightblue" d="M132.5,-56.4C132.5,-48.47 132.5,-38.46 132.5,-29.86"/>
<polygon fill="midnightblue" stroke="midnightblue" points="136,-29.66 132.5,-19.66 129,-29.66 136,-29.66"/>
</g>
<!-- Node4 -->
<g id="node4" class="node">
<title>Node4</title>
<g id="a_node4"><a xlink:title=" ">
<polygon fill="none" stroke="#bfbfbf" points="188,-0.5 188,-19.5 265,-19.5 265,-0.5 188,-0.5"/>
<text text-anchor="middle" x="226.5" y="-7.5" font-family="Helvetica,sans-Serif" font-size="10.00">manif/SO3.h</text>
</a>
</g>
</g>
<!-- Node1&#45;&gt;Node4 -->
<g id="edge3" class="edge">
<title>Node1&#45;&gt;Node4</title>
<path fill="none" stroke="midnightblue" d="M154.78,-56.4C169.7,-46.95 189.28,-34.56 204.21,-25.11"/>
<polygon fill="midnightblue" stroke="midnightblue" points="206.24,-27.96 212.82,-19.66 202.5,-22.05 206.24,-27.96"/>
</g>
</g>
</svg>
