<?xml version="1.0" encoding="UTF-8" standalone="no"?>
<!DOCTYPE svg PUBLIC "-//W3C//DTD SVG 1.1//EN"
 "http://www.w3.org/Graphics/SVG/1.1/DTD/svg11.dtd">
<!-- Generated by graphviz version 2.43.0 (0)
 -->
<!-- Title: RobotInterface/YarpImplementation/include/BipedalLocomotion/RobotInterface/YarpSensorBridge.h Pages: 1 -->
<!--zoomable 441 -->
<svg id="main" version="1.1" xmlns="http://www.w3.org/2000/svg" xmlns:xlink="http://www.w3.org/1999/xlink" xml:space="preserve" onload="init(evt)">
<style type="text/css"><![CDATA[
.edge:hover path { stroke: red; }
.edge:hover polygon { stroke: red; fill: red; }
]]></style>
<script type="text/javascript"><![CDATA[
var edges = document.getElementsByTagName('g');
if (edges && edges.length) {
  for (var i=0;i<edges.length;i++) {
    if (edges[i].id.substr(0,4)=='edge') {
      edges[i].setAttribute('class','edge');
    }
  }
}
]]></script>
        <defs>
                <circle id="rim" cx="0" cy="0" r="7"/>
                <circle id="rim2" cx="0" cy="0" r="3.5"/>
                <g id="zoomPlus">
                        <use xlink:href="#rim" fill="#404040">
                                <set attributeName="fill" to="#808080" begin="zoomplus.mouseover" end="zoomplus.mouseout"/>
                        </use>
                        <path d="M-4,0h8M0,-4v8" fill="none" stroke="white" stroke-width="1.5" pointer-events="none"/>
                </g>
                <g id="zoomMin">
                        <use xlink:href="#rim" fill="#404040">
                                <set attributeName="fill" to="#808080" begin="zoomminus.mouseover" end="zoomminus.mouseout"/>
                        </use>
                        <path d="M-4,0h8" fill="none" stroke="white" stroke-width="1.5" pointer-events="none"/>
                </g>
                <g id="dirArrow">
                        <path fill="none" stroke="white" stroke-width="1.5" d="M0,-3.0v7 M-2.5,-0.5L0,-3.0L2.5,-0.5"/>
                </g>
               <g id="resetDef">
                       <use xlink:href="#rim2" fill="#404040">
                               <set attributeName="fill" to="#808080" begin="reset.mouseover" end="reset.mouseout"/>
                       </use>
               </g>
        </defs>

<script type="text/javascript">
var viewWidth = 743;
var viewHeight = 441;
var sectionId = 'dynsection-0';
</script>
<script xlink:href="svgpan.js"/>
<svg id="graph" class="graph">
<g id="viewport">
<title>RobotInterface/YarpImplementation/include/BipedalLocomotion/RobotInterface/YarpSensorBridge.h</title>
<!-- Node1 -->
<g id="node1" class="node">
<title>Node1</title>
<g id="a_node1"><a xlink:title=" ">
<polygon fill="#bfbfbf" stroke="black" points="156,-391.5 156,-432.5 346,-432.5 346,-391.5 156,-391.5"/>
<text text-anchor="start" x="164" y="-420.5" font-family="Helvetica,sans-Serif" font-size="10.00">RobotInterface/YarpImplementation</text>
<text text-anchor="start" x="164" y="-409.5" font-family="Helvetica,sans-Serif" font-size="10.00">/include/BipedalLocomotion</text>
<text text-anchor="middle" x="251" y="-398.5" font-family="Helvetica,sans-Serif" font-size="10.00">/RobotInterface/YarpSensorBridge.h</text>
</a>
</g>
</g>
<!-- Node2 -->
<g id="node2" class="node">
<title>Node2</title>
<g id="a_node2"><a xlink:title=" ">
<polygon fill="none" stroke="#bfbfbf" points="630.5,-62 630.5,-81 695.5,-81 695.5,-62 630.5,-62"/>
<text text-anchor="middle" x="663" y="-69" font-family="Helvetica,sans-Serif" font-size="10.00">functional</text>
</a>
</g>
</g>
<!-- Node1&#45;&gt;Node2 -->
<g id="edge1" class="edge">
<title>Node1&#45;&gt;Node2</title>
<path fill="none" stroke="midnightblue" d="M346.05,-403.39C487,-389.44 735,-353.54 735,-273.5 735,-273.5 735,-273.5 735,-204.5 735,-158 700.14,-112.3 678.93,-88.8"/>
<polygon fill="midnightblue" stroke="midnightblue" points="681.21,-86.11 671.83,-81.19 676.09,-90.89 681.21,-86.11"/>
</g>
<!-- Node3 -->
<g id="node3" class="node">
<title>Node3</title>
<g id="a_node3"><a xlink:title=" ">
<polygon fill="none" stroke="#bfbfbf" points="91,-62 91,-81 149,-81 149,-62 91,-62"/>
<text text-anchor="middle" x="120" y="-69" font-family="Helvetica,sans-Serif" font-size="10.00">memory</text>
</a>
</g>
</g>
<!-- Node1&#45;&gt;Node3 -->
<g id="edge2" class="edge">
<title>Node1&#45;&gt;Node3</title>
<path fill="none" stroke="midnightblue" d="M155.75,-397.74C84.74,-381.85 0,-347.41 0,-273.5 0,-273.5 0,-273.5 0,-204.5 0,-149.06 58.67,-106.61 93.96,-86.09"/>
<polygon fill="midnightblue" stroke="midnightblue" points="95.8,-89.08 102.81,-81.13 92.37,-82.97 95.8,-89.08"/>
</g>
<!-- Node4 -->
<g id="node4" class="node">
<title>Node4</title>
<g id="a_node4"><a xlink:title=" ">
<polygon fill="none" stroke="#bfbfbf" points="28,-196 28,-215 84,-215 84,-196 28,-196"/>
<text text-anchor="middle" x="56" y="-203" font-family="Helvetica,sans-Serif" font-size="10.00">optional</text>
</a>
</g>
</g>
<!-- Node1&#45;&gt;Node4 -->
<g id="edge3" class="edge">
<title>Node1&#45;&gt;Node4</title>
<path fill="none" stroke="midnightblue" d="M155.95,-396.82C130,-388.58 104.08,-375.56 86,-355 53.65,-318.23 52.49,-256.38 54.26,-225.39"/>
<polygon fill="midnightblue" stroke="midnightblue" points="57.77,-225.38 55.02,-215.14 50.79,-224.86 57.77,-225.38"/>
</g>
<!-- Node5 -->
<g id="node5" class="node">
<title>Node5</title>
<g id="a_node5"><a xlink:title=" ">
<polygon fill="none" stroke="#bfbfbf" points="263,-330 263,-349 403,-349 403,-330 263,-330"/>
<text text-anchor="middle" x="333" y="-337" font-family="Helvetica,sans-Serif" font-size="10.00">yarp/dev/PolyDriverList.h</text>
</a>
</g>
</g>
<!-- Node1&#45;&gt;Node5 -->
<g id="edge4" class="edge">
<title>Node1&#45;&gt;Node5</title>
<path fill="none" stroke="midnightblue" d="M273.84,-391.36C286.93,-380.11 303.12,-366.19 315.25,-355.76"/>
<polygon fill="midnightblue" stroke="midnightblue" points="317.61,-358.35 322.91,-349.17 313.05,-353.04 317.61,-358.35"/>
</g>
<!-- Node6 -->
<g id="node6" class="node">
<title>Node6</title>
<g id="a_node6"><a xlink:href="Source_8h.html" target="_top" xlink:title=" ">
<polygon fill="none" stroke="black" points="95,-324.5 95,-354.5 245,-354.5 245,-324.5 95,-324.5"/>
<text text-anchor="start" x="103" y="-342.5" font-family="Helvetica,sans-Serif" font-size="10.00">BipedalLocomotion/System</text>
<text text-anchor="middle" x="170" y="-331.5" font-family="Helvetica,sans-Serif" font-size="10.00">/Source.h</text>
</a>
</g>
</g>
<!-- Node1&#45;&gt;Node6 -->
<g id="edge5" class="edge">
<title>Node1&#45;&gt;Node6</title>
<path fill="none" stroke="midnightblue" d="M228.44,-391.36C217.66,-381.99 204.77,-370.76 193.84,-361.25"/>
<polygon fill="midnightblue" stroke="midnightblue" points="196.12,-358.6 186.28,-354.67 191.53,-363.88 196.12,-358.6"/>
</g>
<!-- Node20 -->
<g id="node20" class="node">
<title>Node20</title>
<g id="a_node20"><a xlink:href="ISensorBridge_8h.html" target="_top" xlink:title=" ">
<polygon fill="none" stroke="black" points="342.5,-257.5 342.5,-287.5 527.5,-287.5 527.5,-257.5 342.5,-257.5"/>
<text text-anchor="start" x="350.5" y="-275.5" font-family="Helvetica,sans-Serif" font-size="10.00">BipedalLocomotion/RobotInterface</text>
<text text-anchor="middle" x="435" y="-264.5" font-family="Helvetica,sans-Serif" font-size="10.00">/ISensorBridge.h</text>
</a>
</g>
</g>
<!-- Node1&#45;&gt;Node20 -->
<g id="edge23" class="edge">
<title>Node1&#45;&gt;Node20</title>
<path fill="none" stroke="midnightblue" d="M346.19,-394.37C370.37,-386.07 394.45,-373.63 412,-355 426.51,-339.6 431.98,-315.75 433.98,-297.82"/>
<polygon fill="midnightblue" stroke="midnightblue" points="437.47,-298.06 434.81,-287.81 430.49,-297.48 437.47,-298.06"/>
</g>
<!-- Node7 -->
<g id="node7" class="node">
<title>Node7</title>
<g id="a_node7"><a xlink:href="Advanceable_8h.html" target="_top" xlink:title=" ">
<polygon fill="none" stroke="black" points="95,-257.5 95,-287.5 245,-287.5 245,-257.5 95,-257.5"/>
<text text-anchor="start" x="103" y="-275.5" font-family="Helvetica,sans-Serif" font-size="10.00">BipedalLocomotion/System</text>
<text text-anchor="middle" x="170" y="-264.5" font-family="Helvetica,sans-Serif" font-size="10.00">/Advanceable.h</text>
</a>
</g>
</g>
<!-- Node6&#45;&gt;Node7 -->
<g id="edge6" class="edge">
<title>Node6&#45;&gt;Node7</title>
<path fill="none" stroke="midnightblue" d="M170,-324.4C170,-316.64 170,-306.81 170,-297.86"/>
<polygon fill="midnightblue" stroke="midnightblue" points="173.5,-297.58 170,-287.58 166.5,-297.58 173.5,-297.58"/>
</g>
<!-- Node8 -->
<g id="node8" class="node">
<title>Node8</title>
<g id="a_node8"><a xlink:title=" ">
<polygon fill="none" stroke="#bfbfbf" points="102.5,-196 102.5,-215 153.5,-215 153.5,-196 102.5,-196"/>
<text text-anchor="middle" x="128" y="-203" font-family="Helvetica,sans-Serif" font-size="10.00">variant</text>
</a>
</g>
</g>
<!-- Node7&#45;&gt;Node8 -->
<g id="edge7" class="edge">
<title>Node7&#45;&gt;Node8</title>
<path fill="none" stroke="midnightblue" d="M160.89,-257.4C154.53,-247.56 146.01,-234.38 139.24,-223.89"/>
<polygon fill="midnightblue" stroke="midnightblue" points="141.98,-221.69 133.62,-215.19 136.11,-225.49 141.98,-221.69"/>
</g>
<!-- Node9 -->
<g id="node9" class="node">
<title>Node9</title>
<g id="a_node9"><a xlink:href="IParametersHandler_8h.html" target="_top" xlink:title=" ">
<polygon fill="none" stroke="black" points="209.5,-190.5 209.5,-220.5 378.5,-220.5 378.5,-190.5 209.5,-190.5"/>
<text text-anchor="start" x="217.5" y="-208.5" font-family="Helvetica,sans-Serif" font-size="10.00">BipedalLocomotion/Parameters</text>
<text text-anchor="middle" x="294" y="-197.5" font-family="Helvetica,sans-Serif" font-size="10.00">Handler/IParametersHandler.h</text>
</a>
</g>
</g>
<!-- Node7&#45;&gt;Node9 -->
<g id="edge8" class="edge">
<title>Node7&#45;&gt;Node9</title>
<path fill="none" stroke="midnightblue" d="M196.91,-257.4C214.86,-247.98 238.67,-235.5 258.22,-225.26"/>
<polygon fill="midnightblue" stroke="midnightblue" points="259.91,-228.32 267.15,-220.58 256.66,-222.12 259.91,-228.32"/>
</g>
<!-- Node9&#45;&gt;Node3 -->
<g id="edge9" class="edge">
<title>Node9&#45;&gt;Node3</title>
<path fill="none" stroke="midnightblue" d="M277.36,-190.21C257.79,-173.58 224.15,-145.51 194,-123 176.87,-110.21 156.8,-96.59 141.88,-86.73"/>
<polygon fill="midnightblue" stroke="midnightblue" points="143.62,-83.68 133.34,-81.11 139.77,-89.53 143.62,-83.68"/>
</g>
<!-- Node10 -->
<g id="node10" class="node">
<title>Node10</title>
<g id="a_node10"><a xlink:title=" ">
<polygon fill="none" stroke="#bfbfbf" points="454,-129 454,-148 498,-148 498,-129 454,-129"/>
<text text-anchor="middle" x="476" y="-136" font-family="Helvetica,sans-Serif" font-size="10.00">string</text>
</a>
</g>
</g>
<!-- Node9&#45;&gt;Node10 -->
<g id="edge10" class="edge">
<title>Node9&#45;&gt;Node10</title>
<path fill="none" stroke="midnightblue" d="M340.42,-190.49C370.55,-181.03 410.47,-167.79 445,-154 446.38,-153.45 447.78,-152.87 449.2,-152.27"/>
<polygon fill="midnightblue" stroke="midnightblue" points="450.74,-155.41 458.45,-148.14 447.89,-149.02 450.74,-155.41"/>
</g>
<!-- Node11 -->
<g id="node11" class="node">
<title>Node11</title>
<g id="a_node11"><a xlink:title=" ">
<polygon fill="none" stroke="#bfbfbf" points="516.5,-129 516.5,-148 563.5,-148 563.5,-129 516.5,-129"/>
<text text-anchor="middle" x="540" y="-136" font-family="Helvetica,sans-Serif" font-size="10.00">vector</text>
</a>
</g>
</g>
<!-- Node9&#45;&gt;Node11 -->
<g id="edge11" class="edge">
<title>Node9&#45;&gt;Node11</title>
<path fill="none" stroke="midnightblue" d="M367.87,-190.43C409.29,-181.69 461.6,-169.22 507,-154 508.87,-153.37 510.78,-152.68 512.69,-151.95"/>
<polygon fill="midnightblue" stroke="midnightblue" points="514.17,-155.13 522.08,-148.08 511.5,-148.66 514.17,-155.13"/>
</g>
<!-- Node12 -->
<g id="node12" class="node">
<title>Node12</title>
<g id="a_node12"><a xlink:href="TemplateHelpers_8h_source.html" target="_top" xlink:title=" ">
<polygon fill="none" stroke="black" points="167,-56.5 167,-86.5 325,-86.5 325,-56.5 167,-56.5"/>
<text text-anchor="start" x="175" y="-74.5" font-family="Helvetica,sans-Serif" font-size="10.00">BipedalLocomotion/Generic</text>
<text text-anchor="middle" x="246" y="-63.5" font-family="Helvetica,sans-Serif" font-size="10.00">Container/TemplateHelpers.h</text>
</a>
</g>
</g>
<!-- Node9&#45;&gt;Node12 -->
<g id="edge12" class="edge">
<title>Node9&#45;&gt;Node12</title>
<path fill="none" stroke="midnightblue" d="M288.86,-190.37C280.67,-167.85 264.56,-123.53 254.59,-96.12"/>
<polygon fill="midnightblue" stroke="midnightblue" points="257.81,-94.73 251.1,-86.52 251.23,-97.12 257.81,-94.73"/>
</g>
<!-- Node16 -->
<g id="node16" class="node">
<title>Node16</title>
<g id="a_node16"><a xlink:href="Vector_8h_source.html" target="_top" xlink:title=" ">
<polygon fill="none" stroke="black" points="284.5,-123.5 284.5,-153.5 435.5,-153.5 435.5,-123.5 284.5,-123.5"/>
<text text-anchor="start" x="292.5" y="-141.5" font-family="Helvetica,sans-Serif" font-size="10.00">BipedalLocomotion/Generic</text>
<text text-anchor="middle" x="360" y="-130.5" font-family="Helvetica,sans-Serif" font-size="10.00">Container/Vector.h</text>
</a>
</g>
</g>
<!-- Node9&#45;&gt;Node16 -->
<g id="edge16" class="edge">
<title>Node9&#45;&gt;Node16</title>
<path fill="none" stroke="midnightblue" d="M308.32,-190.4C317.14,-181.71 328.62,-170.4 338.52,-160.66"/>
<polygon fill="midnightblue" stroke="midnightblue" points="341.04,-163.09 345.71,-153.58 336.13,-158.1 341.04,-163.09"/>
</g>
<!-- Node13 -->
<g id="node13" class="node">
<title>Node13</title>
<g id="a_node13"><a xlink:title=" ">
<polygon fill="none" stroke="#bfbfbf" points="122.5,-0.5 122.5,-19.5 191.5,-19.5 191.5,-0.5 122.5,-0.5"/>
<text text-anchor="middle" x="157" y="-7.5" font-family="Helvetica,sans-Serif" font-size="10.00">type_traits</text>
</a>
</g>
</g>
<!-- Node12&#45;&gt;Node13 -->
<g id="edge13" class="edge">
<title>Node12&#45;&gt;Node13</title>
<path fill="none" stroke="midnightblue" d="M224.91,-56.4C210.91,-47.04 192.59,-34.79 178.51,-25.38"/>
<polygon fill="midnightblue" stroke="midnightblue" points="180.21,-22.31 169.95,-19.66 176.32,-28.13 180.21,-22.31"/>
</g>
<!-- Node14 -->
<g id="node14" class="node">
<title>Node14</title>
<g id="a_node14"><a xlink:title=" ">
<polygon fill="none" stroke="#bfbfbf" points="209.5,-0.5 209.5,-19.5 282.5,-19.5 282.5,-0.5 209.5,-0.5"/>
<text text-anchor="middle" x="246" y="-7.5" font-family="Helvetica,sans-Serif" font-size="10.00">string_view</text>
</a>
</g>
</g>
<!-- Node12&#45;&gt;Node14 -->
<g id="edge14" class="edge">
<title>Node12&#45;&gt;Node14</title>
<path fill="none" stroke="midnightblue" d="M246,-56.4C246,-48.47 246,-38.46 246,-29.86"/>
<polygon fill="midnightblue" stroke="midnightblue" points="249.5,-29.66 246,-19.66 242.5,-29.66 249.5,-29.66"/>
</g>
<!-- Node15 -->
<g id="node15" class="node">
<title>Node15</title>
<g id="a_node15"><a xlink:title=" ">
<polygon fill="none" stroke="#bfbfbf" points="300.5,-0.5 300.5,-19.5 369.5,-19.5 369.5,-0.5 300.5,-0.5"/>
<text text-anchor="middle" x="335" y="-7.5" font-family="Helvetica,sans-Serif" font-size="10.00">Eigen/Core</text>
</a>
</g>
</g>
<!-- Node12&#45;&gt;Node15 -->
<g id="edge15" class="edge">
<title>Node12&#45;&gt;Node15</title>
<path fill="none" stroke="midnightblue" d="M267.09,-56.4C281.09,-47.04 299.41,-34.79 313.49,-25.38"/>
<polygon fill="midnightblue" stroke="midnightblue" points="315.68,-28.13 322.05,-19.66 311.79,-22.31 315.68,-28.13"/>
</g>
<!-- Node16&#45;&gt;Node2 -->
<g id="edge19" class="edge">
<title>Node16&#45;&gt;Node2</title>
<path fill="none" stroke="midnightblue" d="M435.56,-124.23C500.04,-112.67 587.63,-96.33 622,-87 624.96,-86.19 628.02,-85.28 631.07,-84.31"/>
<polygon fill="midnightblue" stroke="midnightblue" points="632.27,-87.6 640.63,-81.09 630.04,-80.96 632.27,-87.6"/>
</g>
<!-- Node16&#45;&gt;Node3 -->
<g id="edge22" class="edge">
<title>Node16&#45;&gt;Node3</title>
<path fill="none" stroke="midnightblue" d="M295.32,-123.41C255.4,-114.2 203.35,-101.26 158,-87 155.58,-86.24 153.1,-85.41 150.61,-84.54"/>
<polygon fill="midnightblue" stroke="midnightblue" points="151.74,-81.23 141.15,-81.08 149.34,-87.8 151.74,-81.23"/>
</g>
<!-- Node16&#45;&gt;Node12 -->
<g id="edge18" class="edge">
<title>Node16&#45;&gt;Node12</title>
<path fill="none" stroke="midnightblue" d="M335.26,-123.4C318.98,-114.11 297.46,-101.84 279.63,-91.67"/>
<polygon fill="midnightblue" stroke="midnightblue" points="281.11,-88.49 270.69,-86.58 277.64,-94.57 281.11,-88.49"/>
</g>
<!-- Node17 -->
<g id="node17" class="node">
<title>Node17</title>
<g id="a_node17"><a xlink:title=" ">
<polygon fill="none" stroke="#bfbfbf" points="491.5,-62 491.5,-81 612.5,-81 612.5,-62 491.5,-62"/>
<text text-anchor="middle" x="552" y="-69" font-family="Helvetica,sans-Serif" font-size="10.00">iDynTree/Core/Span.h</text>
</a>
</g>
</g>
<!-- Node16&#45;&gt;Node17 -->
<g id="edge17" class="edge">
<title>Node16&#45;&gt;Node17</title>
<path fill="none" stroke="midnightblue" d="M401.66,-123.4C436.24,-111.69 484.86,-95.23 517.34,-84.23"/>
<polygon fill="midnightblue" stroke="midnightblue" points="518.52,-87.53 526.87,-81.01 516.28,-80.9 518.52,-87.53"/>
</g>
<!-- Node18 -->
<g id="node18" class="node">
<title>Node18</title>
<g id="a_node18"><a xlink:title=" ">
<polygon fill="none" stroke="#bfbfbf" points="343,-62 343,-81 395,-81 395,-62 343,-62"/>
<text text-anchor="middle" x="369" y="-69" font-family="Helvetica,sans-Serif" font-size="10.00">cassert</text>
</a>
</g>
</g>
<!-- Node16&#45;&gt;Node18 -->
<g id="edge20" class="edge">
<title>Node16&#45;&gt;Node18</title>
<path fill="none" stroke="midnightblue" d="M361.95,-123.4C363.26,-113.96 364.99,-101.45 366.41,-91.19"/>
<polygon fill="midnightblue" stroke="midnightblue" points="369.89,-91.58 367.8,-81.19 362.96,-90.62 369.89,-91.58"/>
</g>
<!-- Node19 -->
<g id="node19" class="node">
<title>Node19</title>
<g id="a_node19"><a xlink:title=" ">
<polygon fill="none" stroke="#bfbfbf" points="413,-62 413,-81 473,-81 473,-62 413,-62"/>
<text text-anchor="middle" x="443" y="-69" font-family="Helvetica,sans-Serif" font-size="10.00">iostream</text>
</a>
</g>
</g>
<!-- Node16&#45;&gt;Node19 -->
<g id="edge21" class="edge">
<title>Node16&#45;&gt;Node19</title>
<path fill="none" stroke="midnightblue" d="M378.01,-123.4C391.59,-112.76 410.18,-98.2 424,-87.38"/>
<polygon fill="midnightblue" stroke="midnightblue" points="426.18,-90.12 431.9,-81.19 421.87,-84.6 426.18,-90.12"/>
</g>
<!-- Node20&#45;&gt;Node2 -->
<g id="edge24" class="edge">
<title>Node20&#45;&gt;Node2</title>
<path fill="none" stroke="midnightblue" d="M463.73,-257.49C481.35,-248.27 503.91,-235.29 522,-221 574.84,-179.26 626.67,-117.99 650.07,-88.94"/>
<polygon fill="midnightblue" stroke="midnightblue" points="652.89,-91.02 656.38,-81.02 647.41,-86.66 652.89,-91.02"/>
</g>
<!-- Node20&#45;&gt;Node3 -->
<g id="edge25" class="edge">
<title>Node20&#45;&gt;Node3</title>
<path fill="none" stroke="midnightblue" d="M342.34,-259.53C287.08,-250.87 223.43,-237.77 201,-221 156.61,-187.81 133.64,-122.84 124.64,-90.99"/>
<polygon fill="midnightblue" stroke="midnightblue" points="127.99,-89.97 122.03,-81.21 121.23,-91.78 127.99,-89.97"/>
</g>
<!-- Node20&#45;&gt;Node4 -->
<g id="edge26" class="edge">
<title>Node20&#45;&gt;Node4</title>
<path fill="none" stroke="midnightblue" d="M342.4,-263.57C272.93,-256.24 175.94,-243.07 93,-221 90.34,-220.29 87.61,-219.45 84.9,-218.54"/>
<polygon fill="midnightblue" stroke="midnightblue" points="85.9,-215.18 75.31,-215.02 83.49,-221.75 85.9,-215.18"/>
</g>
<!-- Node20&#45;&gt;Node9 -->
<g id="edge31" class="edge">
<title>Node20&#45;&gt;Node9</title>
<path fill="none" stroke="midnightblue" d="M404.41,-257.4C383.71,-247.86 356.18,-235.16 333.78,-224.84"/>
<polygon fill="midnightblue" stroke="midnightblue" points="335.08,-221.58 324.54,-220.58 332.15,-227.94 335.08,-221.58"/>
</g>
<!-- Node20&#45;&gt;Node10 -->
<g id="edge27" class="edge">
<title>Node20&#45;&gt;Node10</title>
<path fill="none" stroke="midnightblue" d="M454.2,-257.45C464.88,-248.4 477.17,-235.6 483,-221 491.12,-200.66 486.92,-175.25 482.29,-158.26"/>
<polygon fill="midnightblue" stroke="midnightblue" points="485.57,-157 479.32,-148.45 478.87,-159.03 485.57,-157"/>
</g>
<!-- Node20&#45;&gt;Node11 -->
<g id="edge29" class="edge">
<title>Node20&#45;&gt;Node11</title>
<path fill="none" stroke="midnightblue" d="M457.49,-257.41C470.79,-248.25 487.28,-235.37 499,-221 514.84,-201.59 526.76,-175.05 533.55,-157.61"/>
<polygon fill="midnightblue" stroke="midnightblue" points="536.9,-158.65 537.11,-148.06 530.34,-156.21 536.9,-158.65"/>
</g>
<!-- Node21 -->
<g id="node21" class="node">
<title>Node21</title>
<g id="a_node21"><a xlink:title=" ">
<polygon fill="none" stroke="#bfbfbf" points="613.5,-196 613.5,-215 706.5,-215 706.5,-196 613.5,-196"/>
<text text-anchor="middle" x="660" y="-203" font-family="Helvetica,sans-Serif" font-size="10.00">unordered_map</text>
</a>
</g>
</g>
<!-- Node20&#45;&gt;Node21 -->
<g id="edge28" class="edge">
<title>Node20&#45;&gt;Node21</title>
<path fill="none" stroke="midnightblue" d="M483.54,-257.48C524.58,-245.62 582.61,-228.86 620.75,-217.84"/>
<polygon fill="midnightblue" stroke="midnightblue" points="621.84,-221.17 630.48,-215.03 619.9,-214.44 621.84,-221.17"/>
</g>
<!-- Node22 -->
<g id="node22" class="node">
<title>Node22</title>
<g id="a_node22"><a xlink:title=" ">
<polygon fill="none" stroke="#bfbfbf" points="396.5,-196 396.5,-215 473.5,-215 473.5,-196 396.5,-196"/>
<text text-anchor="middle" x="435" y="-203" font-family="Helvetica,sans-Serif" font-size="10.00">Eigen/Dense</text>
</a>
</g>
</g>
<!-- Node20&#45;&gt;Node22 -->
<g id="edge30" class="edge">
<title>Node20&#45;&gt;Node22</title>
<path fill="none" stroke="midnightblue" d="M435,-257.4C435,-248.06 435,-235.71 435,-225.52"/>
<polygon fill="midnightblue" stroke="midnightblue" points="438.5,-225.19 435,-215.19 431.5,-225.19 438.5,-225.19"/>
</g>
</g>
</svg>
        <g id="navigator" transform="translate(0 0)" fill="#404254">
                <rect fill="#f2f5e9" fill-opacity="0.5" stroke="#606060" stroke-width=".5" x="0" y="0" width="60" height="60"/>
                <use id="zoomplus" xlink:href="#zoomPlus" x="17" y="9" onmousedown="handleZoom(evt,'in')"/>
                <use id="zoomminus" xlink:href="#zoomMin" x="42" y="9" onmousedown="handleZoom(evt,'out')"/>
                <use id="reset" xlink:href="#resetDef" x="30" y="36" onmousedown="handleReset()"/>
                <g id="arrowUp" xlink:href="#dirArrow" transform="translate(30 24)" onmousedown="handlePan(0,-1)">
                  <use xlink:href="#rim" fill="#404040">
                        <set attributeName="fill" to="#808080" begin="arrowUp.mouseover" end="arrowUp.mouseout"/>
                  </use>
                  <path fill="none" stroke="white" stroke-width="1.5" d="M0,-3.0v7 M-2.5,-0.5L0,-3.0L2.5,-0.5"/>
                </g>
                <g id="arrowRight" xlink:href="#dirArrow" transform="rotate(90) translate(36 -43)" onmousedown="handlePan(1,0)">
                  <use xlink:href="#rim" fill="#404040">
                        <set attributeName="fill" to="#808080" begin="arrowRight.mouseover" end="arrowRight.mouseout"/>
                  </use>
                  <path fill="none" stroke="white" stroke-width="1.5" d="M0,-3.0v7 M-2.5,-0.5L0,-3.0L2.5,-0.5"/>
                </g>
                <g id="arrowDown" xlink:href="#dirArrow" transform="rotate(180) translate(-30 -48)" onmousedown="handlePan(0,1)">
                  <use xlink:href="#rim" fill="#404040">
                        <set attributeName="fill" to="#808080" begin="arrowDown.mouseover" end="arrowDown.mouseout"/>
                  </use>
                  <path fill="none" stroke="white" stroke-width="1.5" d="M0,-3.0v7 M-2.5,-0.5L0,-3.0L2.5,-0.5"/>
                </g>
                <g id="arrowLeft" xlink:href="#dirArrow" transform="rotate(270) translate(-36 17)" onmousedown="handlePan(-1,0)">
                  <use xlink:href="#rim" fill="#404040">
                        <set attributeName="fill" to="#808080" begin="arrowLeft.mouseover" end="arrowLeft.mouseout"/>
                  </use>
                  <path fill="none" stroke="white" stroke-width="1.5" d="M0,-3.0v7 M-2.5,-0.5L0,-3.0L2.5,-0.5"/>
                </g>
        </g>
        <svg viewBox="0 0 15 15" width="100%" height="30px" preserveAspectRatio="xMaxYMin meet">
         <g id="arrow_out" transform="scale(0.3 0.3)">
          <a xlink:href="YarpSensorBridge_8h__incl_org.svg" target="_base">
           <rect id="button" ry="5" rx="5" y="6" x="6" height="38" width="38"
                fill="#f2f5e9" fill-opacity="0.5" stroke="#606060" stroke-width="1.0"/>
           <path id="arrow"
             d="M 11.500037,31.436501 C 11.940474,20.09759 22.043105,11.32322 32.158766,21.979434 L 37.068811,17.246167 C 37.068811,17.246167 37.088388,32 37.088388,32 L 22.160133,31.978069 C 22.160133,31.978069 26.997745,27.140456 26.997745,27.140456 C 18.528582,18.264221 13.291696,25.230495 11.500037,31.436501 z"
             style="fill:#404040;"/>
          </a>
         </g>
        </svg>
</svg>
