<?xml version="1.0" encoding="UTF-8" standalone="no"?>
<!DOCTYPE svg PUBLIC "-//W3C//DTD SVG 1.1//EN"
 "http://www.w3.org/Graphics/SVG/1.1/DTD/svg11.dtd">
<!-- Generated by graphviz version 2.43.0 (0)
 -->
<!-- Title: RobotInterface/YarpImplementation/include/BipedalLocomotion/RobotInterface/YarpSensorBridgeImpl.h Pages: 1 -->
<!--zoomable 508 -->
<svg id="main" version="1.1" xmlns="http://www.w3.org/2000/svg" xmlns:xlink="http://www.w3.org/1999/xlink" xml:space="preserve" onload="init(evt)">
<style type="text/css"><![CDATA[
.edge:hover path { stroke: red; }
.edge:hover polygon { stroke: red; fill: red; }
]]></style>
<script type="text/javascript"><![CDATA[
var edges = document.getElementsByTagName('g');
if (edges && edges.length) {
  for (var i=0;i<edges.length;i++) {
    if (edges[i].id.substr(0,4)=='edge') {
      edges[i].setAttribute('class','edge');
    }
  }
}
]]></script>
        <defs>
                <circle id="rim" cx="0" cy="0" r="7"/>
                <circle id="rim2" cx="0" cy="0" r="3.5"/>
                <g id="zoomPlus">
                        <use xlink:href="#rim" fill="#404040">
                                <set attributeName="fill" to="#808080" begin="zoomplus.mouseover" end="zoomplus.mouseout"/>
                        </use>
                        <path d="M-4,0h8M0,-4v8" fill="none" stroke="white" stroke-width="1.5" pointer-events="none"/>
                </g>
                <g id="zoomMin">
                        <use xlink:href="#rim" fill="#404040">
                                <set attributeName="fill" to="#808080" begin="zoomminus.mouseover" end="zoomminus.mouseout"/>
                        </use>
                        <path d="M-4,0h8" fill="none" stroke="white" stroke-width="1.5" pointer-events="none"/>
                </g>
                <g id="dirArrow">
                        <path fill="none" stroke="white" stroke-width="1.5" d="M0,-3.0v7 M-2.5,-0.5L0,-3.0L2.5,-0.5"/>
                </g>
               <g id="resetDef">
                       <use xlink:href="#rim2" fill="#404040">
                               <set attributeName="fill" to="#808080" begin="reset.mouseover" end="reset.mouseout"/>
                       </use>
               </g>
        </defs>

<script type="text/javascript">
var viewWidth = 2935;
var viewHeight = 508;
var sectionId = 'dynsection-0';
</script>
<script xlink:href="svgpan.js"/>
<svg id="graph" class="graph">
<g id="viewport">
<title>RobotInterface/YarpImplementation/include/BipedalLocomotion/RobotInterface/YarpSensorBridgeImpl.h</title>
<!-- Node1 -->
<g id="node1" class="node">
<title>Node1</title>
<g id="a_node1"><a xlink:title=" ">
<polygon fill="#bfbfbf" stroke="black" points="1661,-458.5 1661,-499.5 1871,-499.5 1871,-458.5 1661,-458.5"/>
<text text-anchor="start" x="1669" y="-487.5" font-family="Helvetica,sans-Serif" font-size="10.00">RobotInterface/YarpImplementation</text>
<text text-anchor="start" x="1669" y="-476.5" font-family="Helvetica,sans-Serif" font-size="10.00">/include/BipedalLocomotion</text>
<text text-anchor="middle" x="1766" y="-465.5" font-family="Helvetica,sans-Serif" font-size="10.00">/RobotInterface/YarpSensorBridgeImpl.h</text>
</a>
</g>
</g>
<!-- Node2 -->
<g id="node2" class="node">
<title>Node2</title>
<g id="a_node2"><a xlink:href="Vector_8h_source.html" target="_top" xlink:title=" ">
<polygon fill="none" stroke="black" points="393.5,-123.5 393.5,-153.5 544.5,-153.5 544.5,-123.5 393.5,-123.5"/>
<text text-anchor="start" x="401.5" y="-141.5" font-family="Helvetica,sans-Serif" font-size="10.00">BipedalLocomotion/Generic</text>
<text text-anchor="middle" x="469" y="-130.5" font-family="Helvetica,sans-Serif" font-size="10.00">Container/Vector.h</text>
</a>
</g>
</g>
<!-- Node1&#45;&gt;Node2 -->
<g id="edge1" class="edge">
<title>Node1&#45;&gt;Node2</title>
<path fill="none" stroke="midnightblue" d="M1660.66,-475.59C1407.01,-469.35 780.62,-451.06 746,-422 717.51,-398.09 727,-377.69 727,-340.5 727,-340.5 727,-340.5 727,-271.5 727,-234.2 733.79,-215.95 707,-190 685.35,-169.02 613.85,-155.74 554.82,-148.09"/>
<polygon fill="midnightblue" stroke="midnightblue" points="555.07,-144.59 544.71,-146.82 554.2,-151.54 555.07,-144.59"/>
</g>
<!-- Node12 -->
<g id="node12" class="node">
<title>Node12</title>
<g id="a_node12"><a xlink:href="YarpSensorBridge_8h.html" target="_top" xlink:title=" ">
<polygon fill="none" stroke="black" points="263.5,-391.5 263.5,-421.5 448.5,-421.5 448.5,-391.5 263.5,-391.5"/>
<text text-anchor="start" x="271.5" y="-409.5" font-family="Helvetica,sans-Serif" font-size="10.00">BipedalLocomotion/RobotInterface</text>
<text text-anchor="middle" x="356" y="-398.5" font-family="Helvetica,sans-Serif" font-size="10.00">/YarpSensorBridge.h</text>
</a>
</g>
</g>
<!-- Node1&#45;&gt;Node12 -->
<g id="edge11" class="edge">
<title>Node1&#45;&gt;Node12</title>
<path fill="none" stroke="midnightblue" d="M1660.89,-472.74C1398.81,-459.64 718.88,-425.64 459.04,-412.65"/>
<polygon fill="midnightblue" stroke="midnightblue" points="459.01,-409.15 448.85,-412.14 458.66,-416.14 459.01,-409.15"/>
</g>
<!-- Node24 -->
<g id="node24" class="node">
<title>Node24</title>
<g id="a_node24"><a xlink:href="Logger_8h.html" target="_top" xlink:title=" ">
<polygon fill="none" stroke="black" points="755,-391.5 755,-421.5 927,-421.5 927,-391.5 755,-391.5"/>
<text text-anchor="start" x="763" y="-409.5" font-family="Helvetica,sans-Serif" font-size="10.00">BipedalLocomotion/TextLogging</text>
<text text-anchor="middle" x="841" y="-398.5" font-family="Helvetica,sans-Serif" font-size="10.00">/Logger.h</text>
</a>
</g>
</g>
<!-- Node1&#45;&gt;Node24 -->
<g id="edge34" class="edge">
<title>Node1&#45;&gt;Node24</title>
<path fill="none" stroke="midnightblue" d="M1660.74,-473.67C1503.07,-466.57 1196.38,-450.3 937,-422 936.9,-421.99 936.8,-421.98 936.69,-421.97"/>
<polygon fill="midnightblue" stroke="midnightblue" points="937.38,-418.52 927.05,-420.85 936.58,-425.48 937.38,-418.52"/>
</g>
<!-- Node27 -->
<g id="node27" class="node">
<title>Node27</title>
<g id="a_node27"><a xlink:title=" ">
<polygon fill="none" stroke="#bfbfbf" points="945.5,-397 945.5,-416 1034.5,-416 1034.5,-397 945.5,-397"/>
<text text-anchor="middle" x="990" y="-404" font-family="Helvetica,sans-Serif" font-size="10.00">yarp/os/Time.h</text>
</a>
</g>
</g>
<!-- Node1&#45;&gt;Node27 -->
<g id="edge37" class="edge">
<title>Node1&#45;&gt;Node27</title>
<path fill="none" stroke="midnightblue" d="M1660.76,-476.09C1519.32,-472.11 1260.53,-459.83 1043,-422 1037.85,-421.1 1032.47,-419.93 1027.2,-418.63"/>
<polygon fill="midnightblue" stroke="midnightblue" points="1027.85,-415.18 1017.28,-416.03 1026.07,-421.95 1027.85,-415.18"/>
</g>
<!-- Node28 -->
<g id="node28" class="node">
<title>Node28</title>
<g id="a_node28"><a xlink:title=" ">
<polygon fill="none" stroke="#bfbfbf" points="1052,-397 1052,-416 1150,-416 1150,-397 1052,-397"/>
<text text-anchor="middle" x="1101" y="-404" font-family="Helvetica,sans-Serif" font-size="10.00">yarp/sig/Image.h</text>
</a>
</g>
</g>
<!-- Node1&#45;&gt;Node28 -->
<g id="edge38" class="edge">
<title>Node1&#45;&gt;Node28</title>
<path fill="none" stroke="midnightblue" d="M1660.91,-473.19C1539.38,-466.5 1333.62,-451.7 1159,-422 1153.23,-421.02 1147.19,-419.77 1141.28,-418.41"/>
<polygon fill="midnightblue" stroke="midnightblue" points="1142.06,-415 1131.52,-416.06 1140.42,-421.8 1142.06,-415"/>
</g>
<!-- Node29 -->
<g id="node29" class="node">
<title>Node29</title>
<g id="a_node29"><a xlink:title=" ">
<polygon fill="none" stroke="#bfbfbf" points="1168,-397 1168,-416 1266,-416 1266,-397 1168,-397"/>
<text text-anchor="middle" x="1217" y="-404" font-family="Helvetica,sans-Serif" font-size="10.00">yarp/sig/Vector.h</text>
</a>
</g>
</g>
<!-- Node1&#45;&gt;Node29 -->
<g id="edge39" class="edge">
<title>Node1&#45;&gt;Node29</title>
<path fill="none" stroke="midnightblue" d="M1660.54,-470.01C1560.71,-461.49 1406.91,-445.9 1275,-422 1269.45,-420.99 1263.64,-419.76 1257.93,-418.44"/>
<polygon fill="midnightblue" stroke="midnightblue" points="1258.38,-414.95 1247.84,-416.01 1256.74,-421.76 1258.38,-414.95"/>
</g>
<!-- Node30 -->
<g id="node30" class="node">
<title>Node30</title>
<g id="a_node30"><a xlink:title=" ">
<polygon fill="none" stroke="#bfbfbf" points="1284,-397 1284,-416 1424,-416 1424,-397 1284,-397"/>
<text text-anchor="middle" x="1354" y="-404" font-family="Helvetica,sans-Serif" font-size="10.00">yarp/dev/IAnalogSensor.h</text>
</a>
</g>
</g>
<!-- Node1&#45;&gt;Node30 -->
<g id="edge40" class="edge">
<title>Node1&#45;&gt;Node30</title>
<path fill="none" stroke="midnightblue" d="M1660.95,-460.75C1595.37,-449.87 1509.21,-435.4 1433,-422 1425.55,-420.69 1417.71,-419.28 1409.99,-417.88"/>
<polygon fill="midnightblue" stroke="midnightblue" points="1410.4,-414.4 1399.93,-416.05 1409.14,-421.29 1410.4,-414.4"/>
</g>
<!-- Node31 -->
<g id="node31" class="node">
<title>Node31</title>
<g id="a_node31"><a xlink:title=" ">
<polygon fill="none" stroke="#bfbfbf" points="1442,-397 1442,-416 1588,-416 1588,-397 1442,-397"/>
<text text-anchor="middle" x="1515" y="-404" font-family="Helvetica,sans-Serif" font-size="10.00">yarp/dev/ICurrentControl.h</text>
</a>
</g>
</g>
<!-- Node1&#45;&gt;Node31 -->
<g id="edge41" class="edge">
<title>Node1&#45;&gt;Node31</title>
<path fill="none" stroke="midnightblue" d="M1696.42,-458.46C1650.87,-445.66 1592.97,-429.4 1554.99,-418.73"/>
<polygon fill="midnightblue" stroke="midnightblue" points="1555.88,-415.35 1545.31,-416.01 1553.99,-422.09 1555.88,-415.35"/>
</g>
<!-- Node32 -->
<g id="node32" class="node">
<title>Node32</title>
<g id="a_node32"><a xlink:title=" ">
<polygon fill="none" stroke="#bfbfbf" points="1606,-397 1606,-416 1750,-416 1750,-397 1606,-397"/>
<text text-anchor="middle" x="1678" y="-404" font-family="Helvetica,sans-Serif" font-size="10.00">yarp/dev/IGenericSensor.h</text>
</a>
</g>
</g>
<!-- Node1&#45;&gt;Node32 -->
<g id="edge42" class="edge">
<title>Node1&#45;&gt;Node32</title>
<path fill="none" stroke="midnightblue" d="M1741.49,-458.36C1727.3,-447 1709.73,-432.92 1696.67,-422.46"/>
<polygon fill="midnightblue" stroke="midnightblue" points="1698.82,-419.69 1688.83,-416.17 1694.44,-425.16 1698.82,-419.69"/>
</g>
<!-- Node33 -->
<g id="node33" class="node">
<title>Node33</title>
<g id="a_node33"><a xlink:title=" ">
<polygon fill="none" stroke="#bfbfbf" points="1768,-391.5 1768,-421.5 1942,-421.5 1942,-391.5 1768,-391.5"/>
<text text-anchor="start" x="1776" y="-409.5" font-family="Helvetica,sans-Serif" font-size="10.00">yarp/dev/MultipleAnalogSensors</text>
<text text-anchor="middle" x="1855" y="-398.5" font-family="Helvetica,sans-Serif" font-size="10.00">Interfaces.h</text>
</a>
</g>
</g>
<!-- Node1&#45;&gt;Node33 -->
<g id="edge43" class="edge">
<title>Node1&#45;&gt;Node33</title>
<path fill="none" stroke="midnightblue" d="M1790.79,-458.36C1802.74,-448.89 1817.07,-437.54 1829.16,-427.97"/>
<polygon fill="midnightblue" stroke="midnightblue" points="1831.45,-430.62 1837.11,-421.67 1827.1,-425.14 1831.45,-430.62"/>
</g>
<!-- Node34 -->
<g id="node34" class="node">
<title>Node34</title>
<g id="a_node34"><a xlink:title=" ">
<polygon fill="none" stroke="#bfbfbf" points="1960,-397 1960,-416 2150,-416 2150,-397 1960,-397"/>
<text text-anchor="middle" x="2055" y="-404" font-family="Helvetica,sans-Serif" font-size="10.00">yarp/dev/FrameGrabberInterfaces.h</text>
</a>
</g>
</g>
<!-- Node1&#45;&gt;Node34 -->
<g id="edge44" class="edge">
<title>Node1&#45;&gt;Node34</title>
<path fill="none" stroke="midnightblue" d="M1846.12,-458.46C1899.12,-445.53 1966.65,-429.05 2010.34,-418.39"/>
<polygon fill="midnightblue" stroke="midnightblue" points="2011.22,-421.78 2020.1,-416.01 2009.56,-414.98 2011.22,-421.78"/>
</g>
<!-- Node35 -->
<g id="node35" class="node">
<title>Node35</title>
<g id="a_node35"><a xlink:title=" ">
<polygon fill="none" stroke="#bfbfbf" points="2168.5,-397 2168.5,-416 2303.5,-416 2303.5,-397 2168.5,-397"/>
<text text-anchor="middle" x="2236" y="-404" font-family="Helvetica,sans-Serif" font-size="10.00">yarp/dev/IRGBDSensor.h</text>
</a>
</g>
</g>
<!-- Node1&#45;&gt;Node35 -->
<g id="edge45" class="edge">
<title>Node1&#45;&gt;Node35</title>
<path fill="none" stroke="midnightblue" d="M1871.28,-464.3C1950.53,-453.66 2061.77,-438.07 2159,-422 2166.64,-420.74 2174.7,-419.32 2182.6,-417.87"/>
<polygon fill="midnightblue" stroke="midnightblue" points="2183.29,-421.31 2192.49,-416.04 2182.02,-414.42 2183.29,-421.31"/>
</g>
<!-- Node36 -->
<g id="node36" class="node">
<title>Node36</title>
<g id="a_node36"><a xlink:title=" ">
<polygon fill="none" stroke="#bfbfbf" points="2322,-397 2322,-416 2436,-416 2436,-397 2322,-397"/>
<text text-anchor="middle" x="2379" y="-404" font-family="Helvetica,sans-Serif" font-size="10.00">yarp/dev/IAxisInfo.h</text>
</a>
</g>
</g>
<!-- Node1&#45;&gt;Node36 -->
<g id="edge46" class="edge">
<title>Node1&#45;&gt;Node36</title>
<path fill="none" stroke="midnightblue" d="M1871.07,-470.83C1981.54,-462.45 2160.19,-446.53 2313,-422 2319.69,-420.93 2326.73,-419.6 2333.61,-418.19"/>
<polygon fill="midnightblue" stroke="midnightblue" points="2334.47,-421.58 2343.52,-416.08 2333.01,-414.73 2334.47,-421.58"/>
</g>
<!-- Node37 -->
<g id="node37" class="node">
<title>Node37</title>
<g id="a_node37"><a xlink:title=" ">
<polygon fill="none" stroke="#bfbfbf" points="2454.5,-397 2454.5,-416 2603.5,-416 2603.5,-397 2454.5,-397"/>
<text text-anchor="middle" x="2529" y="-404" font-family="Helvetica,sans-Serif" font-size="10.00">yarp/dev/IEncodersTimed.h</text>
</a>
</g>
</g>
<!-- Node1&#45;&gt;Node37 -->
<g id="edge47" class="edge">
<title>Node1&#45;&gt;Node37</title>
<path fill="none" stroke="midnightblue" d="M1871.28,-472.22C2005.01,-464.21 2242.74,-447.75 2445,-422 2454.37,-420.81 2464.29,-419.31 2473.9,-417.73"/>
<polygon fill="midnightblue" stroke="midnightblue" points="2474.49,-421.18 2483.77,-416.06 2473.33,-414.28 2474.49,-421.18"/>
</g>
<!-- Node38 -->
<g id="node38" class="node">
<title>Node38</title>
<g id="a_node38"><a xlink:title=" ">
<polygon fill="none" stroke="#bfbfbf" points="2621.5,-397 2621.5,-416 2728.5,-416 2728.5,-397 2621.5,-397"/>
<text text-anchor="middle" x="2675" y="-404" font-family="Helvetica,sans-Serif" font-size="10.00">yarp/eigen/Eigen.h</text>
</a>
</g>
</g>
<!-- Node1&#45;&gt;Node38 -->
<g id="edge48" class="edge">
<title>Node1&#45;&gt;Node38</title>
<path fill="none" stroke="midnightblue" d="M1871.23,-476.57C2031.97,-473.14 2347.9,-461.49 2613,-422 2619.46,-421.04 2626.24,-419.75 2632.84,-418.33"/>
<polygon fill="midnightblue" stroke="midnightblue" points="2634.03,-421.65 2643.01,-416.03 2632.49,-414.82 2634.03,-421.65"/>
</g>
<!-- Node39 -->
<g id="node39" class="node">
<title>Node39</title>
<g id="a_node39"><a xlink:title=" ">
<polygon fill="none" stroke="#bfbfbf" points="2747,-397 2747,-416 2811,-416 2811,-397 2747,-397"/>
<text text-anchor="middle" x="2779" y="-404" font-family="Helvetica,sans-Serif" font-size="10.00">algorithm</text>
</a>
</g>
</g>
<!-- Node1&#45;&gt;Node39 -->
<g id="edge49" class="edge">
<title>Node1&#45;&gt;Node39</title>
<path fill="none" stroke="midnightblue" d="M1871.08,-475.69C2087.17,-470.31 2574.78,-454.87 2738,-422 2741.51,-421.29 2745.13,-420.35 2748.69,-419.28"/>
<polygon fill="midnightblue" stroke="midnightblue" points="2750.08,-422.51 2758.46,-416.04 2747.87,-415.87 2750.08,-422.51"/>
</g>
<!-- Node40 -->
<g id="node40" class="node">
<title>Node40</title>
<g id="a_node40"><a xlink:title=" ">
<polygon fill="none" stroke="#bfbfbf" points="2829.5,-397 2829.5,-416 2876.5,-416 2876.5,-397 2829.5,-397"/>
<text text-anchor="middle" x="2853" y="-404" font-family="Helvetica,sans-Serif" font-size="10.00">cmath</text>
</a>
</g>
</g>
<!-- Node1&#45;&gt;Node40 -->
<g id="edge50" class="edge">
<title>Node1&#45;&gt;Node40</title>
<path fill="none" stroke="midnightblue" d="M1871.37,-477.2C2101.41,-474.68 2642.18,-464.3 2820,-422 2822.36,-421.44 2824.77,-420.71 2827.15,-419.89"/>
<polygon fill="midnightblue" stroke="midnightblue" points="2828.64,-423.06 2836.62,-416.09 2826.03,-416.56 2828.64,-423.06"/>
</g>
<!-- Node41 -->
<g id="node41" class="node">
<title>Node41</title>
<g id="a_node41"><a xlink:title=" ">
<polygon fill="none" stroke="#bfbfbf" points="2895,-397 2895,-416 2927,-416 2927,-397 2895,-397"/>
<text text-anchor="middle" x="2911" y="-404" font-family="Helvetica,sans-Serif" font-size="10.00">set</text>
</a>
</g>
</g>
<!-- Node1&#45;&gt;Node41 -->
<g id="edge51" class="edge">
<title>Node1&#45;&gt;Node41</title>
<path fill="none" stroke="midnightblue" d="M1871.2,-475.57C2131.29,-469.15 2790.44,-450.28 2886,-422 2887.24,-421.63 2888.49,-421.19 2889.73,-420.69"/>
<polygon fill="midnightblue" stroke="midnightblue" points="2891.46,-423.74 2898.82,-416.11 2888.31,-417.49 2891.46,-423.74"/>
</g>
<!-- Node3 -->
<g id="node3" class="node">
<title>Node3</title>
<g id="a_node3"><a xlink:title=" ">
<polygon fill="none" stroke="#bfbfbf" points="294.5,-62 294.5,-81 415.5,-81 415.5,-62 294.5,-62"/>
<text text-anchor="middle" x="355" y="-69" font-family="Helvetica,sans-Serif" font-size="10.00">iDynTree/Core/Span.h</text>
</a>
</g>
</g>
<!-- Node2&#45;&gt;Node3 -->
<g id="edge2" class="edge">
<title>Node2&#45;&gt;Node3</title>
<path fill="none" stroke="midnightblue" d="M444.26,-123.4C424.79,-112.29 397.83,-96.92 378.65,-85.98"/>
<polygon fill="midnightblue" stroke="midnightblue" points="380.34,-82.92 369.92,-81.01 376.87,-89 380.34,-82.92"/>
</g>
<!-- Node4 -->
<g id="node4" class="node">
<title>Node4</title>
<g id="a_node4"><a xlink:href="TemplateHelpers_8h_source.html" target="_top" xlink:title=" ">
<polygon fill="none" stroke="black" points="504,-56.5 504,-86.5 662,-86.5 662,-56.5 504,-56.5"/>
<text text-anchor="start" x="512" y="-74.5" font-family="Helvetica,sans-Serif" font-size="10.00">BipedalLocomotion/Generic</text>
<text text-anchor="middle" x="583" y="-63.5" font-family="Helvetica,sans-Serif" font-size="10.00">Container/TemplateHelpers.h</text>
</a>
</g>
</g>
<!-- Node2&#45;&gt;Node4 -->
<g id="edge3" class="edge">
<title>Node2&#45;&gt;Node4</title>
<path fill="none" stroke="midnightblue" d="M493.74,-123.4C510.02,-114.11 531.54,-101.84 549.37,-91.67"/>
<polygon fill="midnightblue" stroke="midnightblue" points="551.36,-94.57 558.31,-86.58 547.89,-88.49 551.36,-94.57"/>
</g>
<!-- Node8 -->
<g id="node8" class="node">
<title>Node8</title>
<g id="a_node8"><a xlink:title=" ">
<polygon fill="none" stroke="#bfbfbf" points="680.5,-62 680.5,-81 745.5,-81 745.5,-62 680.5,-62"/>
<text text-anchor="middle" x="713" y="-69" font-family="Helvetica,sans-Serif" font-size="10.00">functional</text>
</a>
</g>
</g>
<!-- Node2&#45;&gt;Node8 -->
<g id="edge7" class="edge">
<title>Node2&#45;&gt;Node8</title>
<path fill="none" stroke="midnightblue" d="M531.27,-123.42C571.4,-113.98 624.57,-100.79 671,-87 673.77,-86.18 676.63,-85.28 679.5,-84.36"/>
<polygon fill="midnightblue" stroke="midnightblue" points="680.75,-87.63 689.13,-81.15 678.54,-80.99 680.75,-87.63"/>
</g>
<!-- Node9 -->
<g id="node9" class="node">
<title>Node9</title>
<g id="a_node9"><a xlink:title=" ">
<polygon fill="none" stroke="#bfbfbf" points="434,-62 434,-81 486,-81 486,-62 434,-62"/>
<text text-anchor="middle" x="460" y="-69" font-family="Helvetica,sans-Serif" font-size="10.00">cassert</text>
</a>
</g>
</g>
<!-- Node2&#45;&gt;Node9 -->
<g id="edge8" class="edge">
<title>Node2&#45;&gt;Node9</title>
<path fill="none" stroke="midnightblue" d="M467.05,-123.4C465.74,-113.96 464.01,-101.45 462.59,-91.19"/>
<polygon fill="midnightblue" stroke="midnightblue" points="466.04,-90.62 461.2,-81.19 459.11,-91.58 466.04,-90.62"/>
</g>
<!-- Node10 -->
<g id="node10" class="node">
<title>Node10</title>
<g id="a_node10"><a xlink:title=" ">
<polygon fill="none" stroke="#bfbfbf" points="216,-62 216,-81 276,-81 276,-62 216,-62"/>
<text text-anchor="middle" x="246" y="-69" font-family="Helvetica,sans-Serif" font-size="10.00">iostream</text>
</a>
</g>
</g>
<!-- Node2&#45;&gt;Node10 -->
<g id="edge9" class="edge">
<title>Node2&#45;&gt;Node10</title>
<path fill="none" stroke="midnightblue" d="M412.66,-123.41C376.04,-113.92 327.4,-100.67 285,-87 282.59,-86.22 280.12,-85.39 277.63,-84.53"/>
<polygon fill="midnightblue" stroke="midnightblue" points="278.75,-81.21 268.16,-81.12 276.38,-87.8 278.75,-81.21"/>
</g>
<!-- Node11 -->
<g id="node11" class="node">
<title>Node11</title>
<g id="a_node11"><a xlink:title=" ">
<polygon fill="none" stroke="#bfbfbf" points="112,-62 112,-81 170,-81 170,-62 112,-62"/>
<text text-anchor="middle" x="141" y="-69" font-family="Helvetica,sans-Serif" font-size="10.00">memory</text>
</a>
</g>
</g>
<!-- Node2&#45;&gt;Node11 -->
<g id="edge10" class="edge">
<title>Node2&#45;&gt;Node11</title>
<path fill="none" stroke="midnightblue" d="M393.51,-123.48C341.11,-113.62 269.72,-99.93 207,-87 198.33,-85.21 189.03,-83.22 180.24,-81.3"/>
<polygon fill="midnightblue" stroke="midnightblue" points="180.73,-77.82 170.21,-79.09 179.22,-84.66 180.73,-77.82"/>
</g>
<!-- Node5 -->
<g id="node5" class="node">
<title>Node5</title>
<g id="a_node5"><a xlink:title=" ">
<polygon fill="none" stroke="#bfbfbf" points="459.5,-0.5 459.5,-19.5 528.5,-19.5 528.5,-0.5 459.5,-0.5"/>
<text text-anchor="middle" x="494" y="-7.5" font-family="Helvetica,sans-Serif" font-size="10.00">type_traits</text>
</a>
</g>
</g>
<!-- Node4&#45;&gt;Node5 -->
<g id="edge4" class="edge">
<title>Node4&#45;&gt;Node5</title>
<path fill="none" stroke="midnightblue" d="M561.91,-56.4C547.91,-47.04 529.59,-34.79 515.51,-25.38"/>
<polygon fill="midnightblue" stroke="midnightblue" points="517.21,-22.31 506.95,-19.66 513.32,-28.13 517.21,-22.31"/>
</g>
<!-- Node6 -->
<g id="node6" class="node">
<title>Node6</title>
<g id="a_node6"><a xlink:title=" ">
<polygon fill="none" stroke="#bfbfbf" points="546.5,-0.5 546.5,-19.5 619.5,-19.5 619.5,-0.5 546.5,-0.5"/>
<text text-anchor="middle" x="583" y="-7.5" font-family="Helvetica,sans-Serif" font-size="10.00">string_view</text>
</a>
</g>
</g>
<!-- Node4&#45;&gt;Node6 -->
<g id="edge5" class="edge">
<title>Node4&#45;&gt;Node6</title>
<path fill="none" stroke="midnightblue" d="M583,-56.4C583,-48.47 583,-38.46 583,-29.86"/>
<polygon fill="midnightblue" stroke="midnightblue" points="586.5,-29.66 583,-19.66 579.5,-29.66 586.5,-29.66"/>
</g>
<!-- Node7 -->
<g id="node7" class="node">
<title>Node7</title>
<g id="a_node7"><a xlink:title=" ">
<polygon fill="none" stroke="#bfbfbf" points="637.5,-0.5 637.5,-19.5 706.5,-19.5 706.5,-0.5 637.5,-0.5"/>
<text text-anchor="middle" x="672" y="-7.5" font-family="Helvetica,sans-Serif" font-size="10.00">Eigen/Core</text>
</a>
</g>
</g>
<!-- Node4&#45;&gt;Node7 -->
<g id="edge6" class="edge">
<title>Node4&#45;&gt;Node7</title>
<path fill="none" stroke="midnightblue" d="M604.09,-56.4C618.09,-47.04 636.41,-34.79 650.49,-25.38"/>
<polygon fill="midnightblue" stroke="midnightblue" points="652.68,-28.13 659.05,-19.66 648.79,-22.31 652.68,-28.13"/>
</g>
<!-- Node12&#45;&gt;Node8 -->
<g id="edge12" class="edge">
<title>Node12&#45;&gt;Node8</title>
<path fill="none" stroke="midnightblue" d="M448.68,-392.4C484.58,-384.83 525.11,-373.07 559,-355 637.3,-313.26 669.39,-301.37 707,-221 727.08,-178.09 721.44,-120.33 716.65,-91.11"/>
<polygon fill="midnightblue" stroke="midnightblue" points="720.06,-90.3 714.85,-81.08 713.17,-91.54 720.06,-90.3"/>
</g>
<!-- Node12&#45;&gt;Node11 -->
<g id="edge13" class="edge">
<title>Node12&#45;&gt;Node11</title>
<path fill="none" stroke="midnightblue" d="M271.18,-391.46C165.88,-371.57 0,-331.1 0,-273.5 0,-273.5 0,-273.5 0,-204.5 0,-144.77 68.26,-104.25 109.8,-85.13"/>
<polygon fill="midnightblue" stroke="midnightblue" points="111.25,-88.31 118.97,-81.05 108.41,-81.92 111.25,-88.31"/>
</g>
<!-- Node13 -->
<g id="node13" class="node">
<title>Node13</title>
<g id="a_node13"><a xlink:title=" ">
<polygon fill="none" stroke="#bfbfbf" points="28,-196 28,-215 84,-215 84,-196 28,-196"/>
<text text-anchor="middle" x="56" y="-203" font-family="Helvetica,sans-Serif" font-size="10.00">optional</text>
</a>
</g>
</g>
<!-- Node12&#45;&gt;Node13 -->
<g id="edge14" class="edge">
<title>Node12&#45;&gt;Node13</title>
<path fill="none" stroke="midnightblue" d="M268.28,-391.45C238.29,-383.88 205.62,-372.38 179,-355 125.63,-320.15 83.61,-255 65.58,-223.89"/>
<polygon fill="midnightblue" stroke="midnightblue" points="68.56,-222.05 60.58,-215.07 62.47,-225.5 68.56,-222.05"/>
</g>
<!-- Node14 -->
<g id="node14" class="node">
<title>Node14</title>
<g id="a_node14"><a xlink:title=" ">
<polygon fill="none" stroke="#bfbfbf" points="188,-330 188,-349 328,-349 328,-330 188,-330"/>
<text text-anchor="middle" x="258" y="-337" font-family="Helvetica,sans-Serif" font-size="10.00">yarp/dev/PolyDriverList.h</text>
</a>
</g>
</g>
<!-- Node12&#45;&gt;Node14 -->
<g id="edge15" class="edge">
<title>Node12&#45;&gt;Node14</title>
<path fill="none" stroke="midnightblue" d="M334.74,-391.4C318.3,-380.5 295.66,-365.48 279.23,-354.58"/>
<polygon fill="midnightblue" stroke="midnightblue" points="281.09,-351.62 270.83,-349.01 277.22,-357.45 281.09,-351.62"/>
</g>
<!-- Node15 -->
<g id="node15" class="node">
<title>Node15</title>
<g id="a_node15"><a xlink:href="Source_8h.html" target="_top" xlink:title=" ">
<polygon fill="none" stroke="black" points="400,-324.5 400,-354.5 550,-354.5 550,-324.5 400,-324.5"/>
<text text-anchor="start" x="408" y="-342.5" font-family="Helvetica,sans-Serif" font-size="10.00">BipedalLocomotion/System</text>
<text text-anchor="middle" x="475" y="-331.5" font-family="Helvetica,sans-Serif" font-size="10.00">/Source.h</text>
</a>
</g>
</g>
<!-- Node12&#45;&gt;Node15 -->
<g id="edge16" class="edge">
<title>Node12&#45;&gt;Node15</title>
<path fill="none" stroke="midnightblue" d="M381.82,-391.4C398.97,-382.03 421.7,-369.62 440.41,-359.39"/>
<polygon fill="midnightblue" stroke="midnightblue" points="442.13,-362.44 449.23,-354.58 438.78,-356.3 442.13,-362.44"/>
</g>
<!-- Node21 -->
<g id="node21" class="node">
<title>Node21</title>
<g id="a_node21"><a xlink:href="ISensorBridge_8h.html" target="_top" xlink:title=" ">
<polygon fill="none" stroke="black" points="170.5,-257.5 170.5,-287.5 355.5,-287.5 355.5,-257.5 170.5,-257.5"/>
<text text-anchor="start" x="178.5" y="-275.5" font-family="Helvetica,sans-Serif" font-size="10.00">BipedalLocomotion/RobotInterface</text>
<text text-anchor="middle" x="263" y="-264.5" font-family="Helvetica,sans-Serif" font-size="10.00">/ISensorBridge.h</text>
</a>
</g>
</g>
<!-- Node12&#45;&gt;Node21 -->
<g id="edge25" class="edge">
<title>Node12&#45;&gt;Node21</title>
<path fill="none" stroke="midnightblue" d="M355.75,-391.29C354.8,-373.98 351.04,-344.5 337,-324 328.29,-311.28 315.23,-300.84 302.49,-292.82"/>
<polygon fill="midnightblue" stroke="midnightblue" points="304.17,-289.75 293.79,-287.66 300.6,-295.77 304.17,-289.75"/>
</g>
<!-- Node16 -->
<g id="node16" class="node">
<title>Node16</title>
<g id="a_node16"><a xlink:href="Advanceable_8h.html" target="_top" xlink:title=" ">
<polygon fill="none" stroke="black" points="432,-257.5 432,-287.5 582,-287.5 582,-257.5 432,-257.5"/>
<text text-anchor="start" x="440" y="-275.5" font-family="Helvetica,sans-Serif" font-size="10.00">BipedalLocomotion/System</text>
<text text-anchor="middle" x="507" y="-264.5" font-family="Helvetica,sans-Serif" font-size="10.00">/Advanceable.h</text>
</a>
</g>
</g>
<!-- Node15&#45;&gt;Node16 -->
<g id="edge17" class="edge">
<title>Node15&#45;&gt;Node16</title>
<path fill="none" stroke="midnightblue" d="M481.94,-324.4C485.93,-316.3 491.03,-305.94 495.59,-296.69"/>
<polygon fill="midnightblue" stroke="midnightblue" points="498.79,-298.09 500.07,-287.58 492.51,-295 498.79,-298.09"/>
</g>
<!-- Node17 -->
<g id="node17" class="node">
<title>Node17</title>
<g id="a_node17"><a xlink:title=" ">
<polygon fill="none" stroke="#bfbfbf" points="647.5,-196 647.5,-215 698.5,-215 698.5,-196 647.5,-196"/>
<text text-anchor="middle" x="673" y="-203" font-family="Helvetica,sans-Serif" font-size="10.00">variant</text>
</a>
</g>
</g>
<!-- Node16&#45;&gt;Node17 -->
<g id="edge18" class="edge">
<title>Node16&#45;&gt;Node17</title>
<path fill="none" stroke="midnightblue" d="M543.02,-257.4C572.53,-245.84 613.86,-229.66 641.94,-218.66"/>
<polygon fill="midnightblue" stroke="midnightblue" points="643.24,-221.91 651.27,-215.01 640.69,-215.39 643.24,-221.91"/>
</g>
<!-- Node18 -->
<g id="node18" class="node">
<title>Node18</title>
<g id="a_node18"><a xlink:href="IParametersHandler_8h.html" target="_top" xlink:title=" ">
<polygon fill="none" stroke="black" points="422.5,-190.5 422.5,-220.5 591.5,-220.5 591.5,-190.5 422.5,-190.5"/>
<text text-anchor="start" x="430.5" y="-208.5" font-family="Helvetica,sans-Serif" font-size="10.00">BipedalLocomotion/Parameters</text>
<text text-anchor="middle" x="507" y="-197.5" font-family="Helvetica,sans-Serif" font-size="10.00">Handler/IParametersHandler.h</text>
</a>
</g>
</g>
<!-- Node16&#45;&gt;Node18 -->
<g id="edge19" class="edge">
<title>Node16&#45;&gt;Node18</title>
<path fill="none" stroke="midnightblue" d="M507,-257.4C507,-249.64 507,-239.81 507,-230.86"/>
<polygon fill="midnightblue" stroke="midnightblue" points="510.5,-230.58 507,-220.58 503.5,-230.58 510.5,-230.58"/>
</g>
<!-- Node18&#45;&gt;Node2 -->
<g id="edge24" class="edge">
<title>Node18&#45;&gt;Node2</title>
<path fill="none" stroke="midnightblue" d="M498.75,-190.4C493.97,-182.22 487.84,-171.73 482.38,-162.39"/>
<polygon fill="midnightblue" stroke="midnightblue" points="485.3,-160.44 477.23,-153.58 479.25,-163.98 485.3,-160.44"/>
</g>
<!-- Node18&#45;&gt;Node4 -->
<g id="edge23" class="edge">
<title>Node18&#45;&gt;Node4</title>
<path fill="none" stroke="midnightblue" d="M522.76,-190.28C532.53,-180.78 544.75,-167.58 553,-154 563.95,-135.96 571.9,-113.29 576.85,-96.44"/>
<polygon fill="midnightblue" stroke="midnightblue" points="580.22,-97.37 579.54,-86.79 573.48,-95.48 580.22,-97.37"/>
</g>
<!-- Node18&#45;&gt;Node11 -->
<g id="edge20" class="edge">
<title>Node18&#45;&gt;Node11</title>
<path fill="none" stroke="midnightblue" d="M472.51,-190.42C447.84,-180.32 413.85,-166.38 384,-154 351.06,-140.34 343.57,-135.01 310,-123 265.91,-107.23 214.2,-92.28 179.7,-82.8"/>
<polygon fill="midnightblue" stroke="midnightblue" points="180.58,-79.41 170.01,-80.16 178.73,-86.17 180.58,-79.41"/>
</g>
<!-- Node19 -->
<g id="node19" class="node">
<title>Node19</title>
<g id="a_node19"><a xlink:title=" ">
<polygon fill="none" stroke="#bfbfbf" points="257,-129 257,-148 301,-148 301,-129 257,-129"/>
<text text-anchor="middle" x="279" y="-136" font-family="Helvetica,sans-Serif" font-size="10.00">string</text>
</a>
</g>
</g>
<!-- Node18&#45;&gt;Node19 -->
<g id="edge21" class="edge">
<title>Node18&#45;&gt;Node19</title>
<path fill="none" stroke="midnightblue" d="M457.81,-190.48C413.41,-177.82 349.39,-159.57 311.21,-148.68"/>
<polygon fill="midnightblue" stroke="midnightblue" points="311.74,-145.19 301.16,-145.82 309.82,-151.93 311.74,-145.19"/>
</g>
<!-- Node20 -->
<g id="node20" class="node">
<title>Node20</title>
<g id="a_node20"><a xlink:title=" ">
<polygon fill="none" stroke="#bfbfbf" points="144.5,-129 144.5,-148 191.5,-148 191.5,-129 144.5,-129"/>
<text text-anchor="middle" x="168" y="-136" font-family="Helvetica,sans-Serif" font-size="10.00">vector</text>
</a>
</g>
</g>
<!-- Node18&#45;&gt;Node20 -->
<g id="edge22" class="edge">
<title>Node18&#45;&gt;Node20</title>
<path fill="none" stroke="midnightblue" d="M433.86,-190.48C361.96,-176.69 255.43,-156.26 201.66,-145.95"/>
<polygon fill="midnightblue" stroke="midnightblue" points="202.11,-142.48 191.63,-144.03 200.8,-149.35 202.11,-142.48"/>
</g>
<!-- Node21&#45;&gt;Node8 -->
<g id="edge26" class="edge">
<title>Node21&#45;&gt;Node8</title>
<path fill="none" stroke="midnightblue" d="M355.9,-261.21C448.3,-250.4 579.26,-233.28 600,-221 627.39,-204.78 679.32,-125.95 701.97,-90.2"/>
<polygon fill="midnightblue" stroke="midnightblue" points="705.18,-91.67 707.54,-81.34 699.25,-87.94 705.18,-91.67"/>
</g>
<!-- Node21&#45;&gt;Node11 -->
<g id="edge27" class="edge">
<title>Node21&#45;&gt;Node11</title>
<path fill="none" stroke="midnightblue" d="M233.2,-257.44C216.35,-248.55 195.6,-235.92 180,-221 154.07,-196.21 145.45,-188.31 135,-154 128.68,-133.27 132.04,-108.26 135.78,-91.46"/>
<polygon fill="midnightblue" stroke="midnightblue" points="139.29,-91.84 138.31,-81.3 132.5,-90.15 139.29,-91.84"/>
</g>
<!-- Node21&#45;&gt;Node13 -->
<g id="edge28" class="edge">
<title>Node21&#45;&gt;Node13</title>
<path fill="none" stroke="midnightblue" d="M215.56,-257.47C182.51,-247.57 137.45,-233.84 98,-221 95.41,-220.16 92.73,-219.27 90.04,-218.37"/>
<polygon fill="midnightblue" stroke="midnightblue" points="90.98,-214.99 80.38,-215.08 88.72,-221.61 90.98,-214.99"/>
</g>
<!-- Node21&#45;&gt;Node18 -->
<g id="edge33" class="edge">
<title>Node21&#45;&gt;Node18</title>
<path fill="none" stroke="midnightblue" d="M315.64,-257.48C353.36,-247.43 404.31,-233.86 444.15,-223.24"/>
<polygon fill="midnightblue" stroke="midnightblue" points="445.27,-226.57 454.03,-220.61 443.47,-219.8 445.27,-226.57"/>
</g>
<!-- Node21&#45;&gt;Node19 -->
<g id="edge29" class="edge">
<title>Node21&#45;&gt;Node19</title>
<path fill="none" stroke="midnightblue" d="M239.53,-257.32C227.37,-248.54 213.7,-236.07 207,-221 201.4,-208.41 200.64,-202.22 207,-190 215.69,-173.29 232.73,-160.95 248.05,-152.66"/>
<polygon fill="midnightblue" stroke="midnightblue" points="249.92,-155.64 257.28,-148.01 246.78,-149.38 249.92,-155.64"/>
</g>
<!-- Node21&#45;&gt;Node20 -->
<g id="edge31" class="edge">
<title>Node21&#45;&gt;Node20</title>
<path fill="none" stroke="midnightblue" d="M239.35,-257.41C225.97,-248.43 209.8,-235.72 199,-221 184.97,-201.88 176.5,-175.63 172.04,-158.15"/>
<polygon fill="midnightblue" stroke="midnightblue" points="175.37,-157.02 169.67,-148.09 168.56,-158.62 175.37,-157.02"/>
</g>
<!-- Node22 -->
<g id="node22" class="node">
<title>Node22</title>
<g id="a_node22"><a xlink:title=" ">
<polygon fill="none" stroke="#bfbfbf" points="216.5,-196 216.5,-215 309.5,-215 309.5,-196 216.5,-196"/>
<text text-anchor="middle" x="263" y="-203" font-family="Helvetica,sans-Serif" font-size="10.00">unordered_map</text>
</a>
</g>
</g>
<!-- Node21&#45;&gt;Node22 -->
<g id="edge30" class="edge">
<title>Node21&#45;&gt;Node22</title>
<path fill="none" stroke="midnightblue" d="M263,-257.4C263,-248.06 263,-235.71 263,-225.52"/>
<polygon fill="midnightblue" stroke="midnightblue" points="266.5,-225.19 263,-215.19 259.5,-225.19 266.5,-225.19"/>
</g>
<!-- Node23 -->
<g id="node23" class="node">
<title>Node23</title>
<g id="a_node23"><a xlink:title=" ">
<polygon fill="none" stroke="#bfbfbf" points="327.5,-196 327.5,-215 404.5,-215 404.5,-196 327.5,-196"/>
<text text-anchor="middle" x="366" y="-203" font-family="Helvetica,sans-Serif" font-size="10.00">Eigen/Dense</text>
</a>
</g>
</g>
<!-- Node21&#45;&gt;Node23 -->
<g id="edge32" class="edge">
<title>Node21&#45;&gt;Node23</title>
<path fill="none" stroke="midnightblue" d="M285.35,-257.4C302.62,-246.5 326.42,-231.48 343.68,-220.58"/>
<polygon fill="midnightblue" stroke="midnightblue" points="345.93,-223.3 352.52,-215.01 342.19,-217.38 345.93,-223.3"/>
</g>
<!-- Node25 -->
<g id="node25" class="node">
<title>Node25</title>
<g id="a_node25"><a xlink:title=" ">
<polygon fill="none" stroke="#bfbfbf" points="886.5,-330 886.5,-349 985.5,-349 985.5,-330 886.5,-330"/>
<text text-anchor="middle" x="936" y="-337" font-family="Helvetica,sans-Serif" font-size="10.00">spdlog/fmt/ostr.h</text>
</a>
</g>
</g>
<!-- Node24&#45;&gt;Node25 -->
<g id="edge35" class="edge">
<title>Node24&#45;&gt;Node25</title>
<path fill="none" stroke="midnightblue" d="M861.61,-391.4C877.4,-380.6 899.09,-365.76 914.97,-354.89"/>
<polygon fill="midnightblue" stroke="midnightblue" points="917.29,-357.54 923.57,-349.01 913.34,-351.77 917.29,-357.54"/>
</g>
<!-- Node26 -->
<g id="node26" class="node">
<title>Node26</title>
<g id="a_node26"><a xlink:title=" ">
<polygon fill="none" stroke="#bfbfbf" points="775.5,-330 775.5,-349 868.5,-349 868.5,-330 775.5,-330"/>
<text text-anchor="middle" x="822" y="-337" font-family="Helvetica,sans-Serif" font-size="10.00">spdlog/spdlog.h</text>
</a>
</g>
</g>
<!-- Node24&#45;&gt;Node26 -->
<g id="edge36" class="edge">
<title>Node24&#45;&gt;Node26</title>
<path fill="none" stroke="midnightblue" d="M836.88,-391.4C834.09,-381.86 830.38,-369.18 827.37,-358.86"/>
<polygon fill="midnightblue" stroke="midnightblue" points="830.71,-357.81 824.54,-349.19 823.99,-359.77 830.71,-357.81"/>
</g>
</g>
</svg>
        <g id="navigator" transform="translate(0 0)" fill="#404254">
                <rect fill="#f2f5e9" fill-opacity="0.5" stroke="#606060" stroke-width=".5" x="0" y="0" width="60" height="60"/>
                <use id="zoomplus" xlink:href="#zoomPlus" x="17" y="9" onmousedown="handleZoom(evt,'in')"/>
                <use id="zoomminus" xlink:href="#zoomMin" x="42" y="9" onmousedown="handleZoom(evt,'out')"/>
                <use id="reset" xlink:href="#resetDef" x="30" y="36" onmousedown="handleReset()"/>
                <g id="arrowUp" xlink:href="#dirArrow" transform="translate(30 24)" onmousedown="handlePan(0,-1)">
                  <use xlink:href="#rim" fill="#404040">
                        <set attributeName="fill" to="#808080" begin="arrowUp.mouseover" end="arrowUp.mouseout"/>
                  </use>
                  <path fill="none" stroke="white" stroke-width="1.5" d="M0,-3.0v7 M-2.5,-0.5L0,-3.0L2.5,-0.5"/>
                </g>
                <g id="arrowRight" xlink:href="#dirArrow" transform="rotate(90) translate(36 -43)" onmousedown="handlePan(1,0)">
                  <use xlink:href="#rim" fill="#404040">
                        <set attributeName="fill" to="#808080" begin="arrowRight.mouseover" end="arrowRight.mouseout"/>
                  </use>
                  <path fill="none" stroke="white" stroke-width="1.5" d="M0,-3.0v7 M-2.5,-0.5L0,-3.0L2.5,-0.5"/>
                </g>
                <g id="arrowDown" xlink:href="#dirArrow" transform="rotate(180) translate(-30 -48)" onmousedown="handlePan(0,1)">
                  <use xlink:href="#rim" fill="#404040">
                        <set attributeName="fill" to="#808080" begin="arrowDown.mouseover" end="arrowDown.mouseout"/>
                  </use>
                  <path fill="none" stroke="white" stroke-width="1.5" d="M0,-3.0v7 M-2.5,-0.5L0,-3.0L2.5,-0.5"/>
                </g>
                <g id="arrowLeft" xlink:href="#dirArrow" transform="rotate(270) translate(-36 17)" onmousedown="handlePan(-1,0)">
                  <use xlink:href="#rim" fill="#404040">
                        <set attributeName="fill" to="#808080" begin="arrowLeft.mouseover" end="arrowLeft.mouseout"/>
                  </use>
                  <path fill="none" stroke="white" stroke-width="1.5" d="M0,-3.0v7 M-2.5,-0.5L0,-3.0L2.5,-0.5"/>
                </g>
        </g>
        <svg viewBox="0 0 15 15" width="100%" height="30px" preserveAspectRatio="xMaxYMin meet">
         <g id="arrow_out" transform="scale(0.3 0.3)">
          <a xlink:href="YarpSensorBridgeImpl_8h__incl_org.svg" target="_base">
           <rect id="button" ry="5" rx="5" y="6" x="6" height="38" width="38"
                fill="#f2f5e9" fill-opacity="0.5" stroke="#606060" stroke-width="1.0"/>
           <path id="arrow"
             d="M 11.500037,31.436501 C 11.940474,20.09759 22.043105,11.32322 32.158766,21.979434 L 37.068811,17.246167 C 37.068811,17.246167 37.088388,32 37.088388,32 L 22.160133,31.978069 C 22.160133,31.978069 26.997745,27.140456 26.997745,27.140456 C 18.528582,18.264221 13.291696,25.230495 11.500037,31.436501 z"
             style="fill:#404040;"/>
          </a>
         </g>
        </svg>
</svg>
