<?xml version="1.0" encoding="UTF-8" standalone="no"?>
<!DOCTYPE svg PUBLIC "-//W3C//DTD SVG 1.1//EN"
 "http://www.w3.org/Graphics/SVG/1.1/DTD/svg11.dtd">
<!-- Generated by graphviz version 2.43.0 (0)
 -->
<!-- Title: RobotInterface/YarpImplementation/src/YarpRobotControl.cpp Pages: 1 -->
<svg width="2062pt" height="430pt"
 viewBox="0.00 0.00 2062.00 430.00" xmlns="http://www.w3.org/2000/svg" xmlns:xlink="http://www.w3.org/1999/xlink">
<g id="graph0" class="graph" transform="scale(1 1) rotate(0) translate(4 426)">
<title>RobotInterface/YarpImplementation/src/YarpRobotControl.cpp</title>
<!-- Node1 -->
<g id="node1" class="node">
<title>Node1</title>
<g id="a_node1"><a xlink:title=" ">
<polygon fill="#bfbfbf" stroke="black" points="759.5,-391.5 759.5,-421.5 949.5,-421.5 949.5,-391.5 759.5,-391.5"/>
<text text-anchor="start" x="767.5" y="-409.5" font-family="Helvetica,sans-Serif" font-size="10.00">RobotInterface/YarpImplementation</text>
<text text-anchor="middle" x="854.5" y="-398.5" font-family="Helvetica,sans-Serif" font-size="10.00">/src/YarpRobotControl.cpp</text>
</a>
</g>
</g>
<!-- Node2 -->
<g id="node2" class="node">
<title>Node2</title>
<g id="a_node2"><a xlink:title=" ">
<polygon fill="none" stroke="#bfbfbf" points="0,-330 0,-349 47,-349 47,-330 0,-330"/>
<text text-anchor="middle" x="23.5" y="-337" font-family="Helvetica,sans-Serif" font-size="10.00">cmath</text>
</a>
</g>
</g>
<!-- Node1&#45;&gt;Node2 -->
<g id="edge1" class="edge">
<title>Node1&#45;&gt;Node2</title>
<path fill="none" stroke="midnightblue" d="M759.42,-403.64C577.65,-399.4 187.26,-386.8 56.5,-355 54.14,-354.43 51.74,-353.69 49.36,-352.86"/>
<polygon fill="midnightblue" stroke="midnightblue" points="50.47,-349.54 39.89,-349.05 47.86,-356.03 50.47,-349.54"/>
</g>
<!-- Node3 -->
<g id="node3" class="node">
<title>Node3</title>
<g id="a_node3"><a xlink:title=" ">
<polygon fill="none" stroke="#bfbfbf" points="65.5,-330 65.5,-349 113.5,-349 113.5,-330 65.5,-330"/>
<text text-anchor="middle" x="89.5" y="-337" font-family="Helvetica,sans-Serif" font-size="10.00">thread</text>
</a>
</g>
</g>
<!-- Node1&#45;&gt;Node3 -->
<g id="edge2" class="edge">
<title>Node1&#45;&gt;Node3</title>
<path fill="none" stroke="midnightblue" d="M759.4,-403C589.5,-397.86 240.55,-384.07 122.5,-355 120.14,-354.42 117.74,-353.68 115.36,-352.85"/>
<polygon fill="midnightblue" stroke="midnightblue" points="116.48,-349.52 105.89,-349.03 113.86,-356.02 116.48,-349.52"/>
</g>
<!-- Node4 -->
<g id="node4" class="node">
<title>Node4</title>
<g id="a_node4"><a xlink:title=" ">
<polygon fill="none" stroke="#bfbfbf" points="132,-330 132,-349 225,-349 225,-330 132,-330"/>
<text text-anchor="middle" x="178.5" y="-337" font-family="Helvetica,sans-Serif" font-size="10.00">unordered_map</text>
</a>
</g>
</g>
<!-- Node1&#45;&gt;Node4 -->
<g id="edge3" class="edge">
<title>Node1&#45;&gt;Node4</title>
<path fill="none" stroke="midnightblue" d="M759.34,-402.83C637.1,-398.24 418.72,-386.11 234.5,-355 228.99,-354.07 223.23,-352.86 217.59,-351.53"/>
<polygon fill="midnightblue" stroke="midnightblue" points="218.2,-348.08 207.65,-349.06 216.51,-354.87 218.2,-348.08"/>
</g>
<!-- Node5 -->
<g id="node5" class="node">
<title>Node5</title>
<g id="a_node5"><a xlink:title=" ">
<polygon fill="none" stroke="#bfbfbf" points="243.5,-330 243.5,-349 357.5,-349 357.5,-330 243.5,-330"/>
<text text-anchor="middle" x="300.5" y="-337" font-family="Helvetica,sans-Serif" font-size="10.00">yarp/dev/IAxisInfo.h</text>
</a>
</g>
</g>
<!-- Node1&#45;&gt;Node5 -->
<g id="edge4" class="edge">
<title>Node1&#45;&gt;Node5</title>
<path fill="none" stroke="midnightblue" d="M759.16,-398.84C660.49,-391.2 502.1,-376.84 366.5,-355 359.81,-353.92 352.77,-352.59 345.89,-351.18"/>
<polygon fill="midnightblue" stroke="midnightblue" points="346.49,-347.73 335.98,-349.07 345.03,-354.57 346.49,-347.73"/>
</g>
<!-- Node6 -->
<g id="node6" class="node">
<title>Node6</title>
<g id="a_node6"><a xlink:title=" ">
<polygon fill="none" stroke="#bfbfbf" points="376,-330 376,-349 513,-349 513,-330 376,-330"/>
<text text-anchor="middle" x="444.5" y="-337" font-family="Helvetica,sans-Serif" font-size="10.00">yarp/dev/IControlMode.h</text>
</a>
</g>
</g>
<!-- Node1&#45;&gt;Node6 -->
<g id="edge5" class="edge">
<title>Node1&#45;&gt;Node6</title>
<path fill="none" stroke="midnightblue" d="M759.26,-391.98C692.59,-382.28 601.49,-368.59 521.5,-355 514.04,-353.73 506.19,-352.33 498.46,-350.91"/>
<polygon fill="midnightblue" stroke="midnightblue" points="498.9,-347.44 488.43,-349.05 497.62,-354.32 498.9,-347.44"/>
</g>
<!-- Node7 -->
<g id="node7" class="node">
<title>Node7</title>
<g id="a_node7"><a xlink:title=" ">
<polygon fill="none" stroke="#bfbfbf" points="531,-330 531,-349 680,-349 680,-330 531,-330"/>
<text text-anchor="middle" x="605.5" y="-337" font-family="Helvetica,sans-Serif" font-size="10.00">yarp/dev/IEncodersTimed.h</text>
</a>
</g>
</g>
<!-- Node1&#45;&gt;Node7 -->
<g id="edge6" class="edge">
<title>Node1&#45;&gt;Node7</title>
<path fill="none" stroke="midnightblue" d="M800.78,-391.48C754.98,-379.52 690.06,-362.57 647.86,-351.56"/>
<polygon fill="midnightblue" stroke="midnightblue" points="648.73,-348.17 638.17,-349.03 646.96,-354.94 648.73,-348.17"/>
</g>
<!-- Node8 -->
<g id="node8" class="node">
<title>Node8</title>
<g id="a_node8"><a xlink:title=" ">
<polygon fill="none" stroke="#bfbfbf" points="698,-330 698,-349 847,-349 847,-330 698,-330"/>
<text text-anchor="middle" x="772.5" y="-337" font-family="Helvetica,sans-Serif" font-size="10.00">yarp/dev/IPositionControl.h</text>
</a>
</g>
</g>
<!-- Node1&#45;&gt;Node8 -->
<g id="edge7" class="edge">
<title>Node1&#45;&gt;Node8</title>
<path fill="none" stroke="midnightblue" d="M836.71,-391.4C823.42,-380.86 805.27,-366.48 791.66,-355.69"/>
<polygon fill="midnightblue" stroke="midnightblue" points="793.48,-352.66 783.47,-349.19 789.13,-358.15 793.48,-352.66"/>
</g>
<!-- Node9 -->
<g id="node9" class="node">
<title>Node9</title>
<g id="a_node9"><a xlink:title=" ">
<polygon fill="none" stroke="#bfbfbf" points="865,-330 865,-349 1008,-349 1008,-330 865,-330"/>
<text text-anchor="middle" x="936.5" y="-337" font-family="Helvetica,sans-Serif" font-size="10.00">yarp/dev/IPositionDirect.h</text>
</a>
</g>
</g>
<!-- Node1&#45;&gt;Node9 -->
<g id="edge8" class="edge">
<title>Node1&#45;&gt;Node9</title>
<path fill="none" stroke="midnightblue" d="M872.29,-391.4C885.58,-380.86 903.73,-366.48 917.34,-355.69"/>
<polygon fill="midnightblue" stroke="midnightblue" points="919.87,-358.15 925.53,-349.19 915.52,-352.66 919.87,-358.15"/>
</g>
<!-- Node10 -->
<g id="node10" class="node">
<title>Node10</title>
<g id="a_node10"><a xlink:title=" ">
<polygon fill="none" stroke="#bfbfbf" points="1026.5,-330 1026.5,-349 1168.5,-349 1168.5,-330 1026.5,-330"/>
<text text-anchor="middle" x="1097.5" y="-337" font-family="Helvetica,sans-Serif" font-size="10.00">yarp/dev/ITorqueControl.h</text>
</a>
</g>
</g>
<!-- Node1&#45;&gt;Node10 -->
<g id="edge9" class="edge">
<title>Node1&#45;&gt;Node10</title>
<path fill="none" stroke="midnightblue" d="M906.93,-391.48C951.53,-379.55 1014.72,-362.64 1055.9,-351.63"/>
<polygon fill="midnightblue" stroke="midnightblue" points="1056.86,-354.99 1065.62,-349.03 1055.05,-348.23 1056.86,-354.99"/>
</g>
<!-- Node11 -->
<g id="node11" class="node">
<title>Node11</title>
<g id="a_node11"><a xlink:title=" ">
<polygon fill="none" stroke="#bfbfbf" points="1187,-330 1187,-349 1336,-349 1336,-330 1187,-330"/>
<text text-anchor="middle" x="1261.5" y="-337" font-family="Helvetica,sans-Serif" font-size="10.00">yarp/dev/IVelocityControl.h</text>
</a>
</g>
</g>
<!-- Node1&#45;&gt;Node11 -->
<g id="edge10" class="edge">
<title>Node1&#45;&gt;Node11</title>
<path fill="none" stroke="midnightblue" d="M946.8,-391.47C1011.44,-381.54 1099.79,-367.78 1177.5,-355 1185.69,-353.65 1194.32,-352.2 1202.8,-350.75"/>
<polygon fill="midnightblue" stroke="midnightblue" points="1203.4,-354.2 1212.66,-349.06 1202.21,-347.3 1203.4,-354.2"/>
</g>
<!-- Node12 -->
<g id="node12" class="node">
<title>Node12</title>
<g id="a_node12"><a xlink:title=" ">
<polygon fill="none" stroke="#bfbfbf" points="1302.5,-263 1302.5,-282 1424.5,-282 1424.5,-263 1302.5,-263"/>
<text text-anchor="middle" x="1363.5" y="-270" font-family="Helvetica,sans-Serif" font-size="10.00">yarp/dev/PolyDriver.h</text>
</a>
</g>
</g>
<!-- Node1&#45;&gt;Node12 -->
<g id="edge11" class="edge">
<title>Node1&#45;&gt;Node12</title>
<path fill="none" stroke="midnightblue" d="M949.66,-401.57C1083.82,-395.15 1315.54,-380.51 1344.5,-355 1362.1,-339.5 1365.06,-311.14 1364.84,-292.31"/>
<polygon fill="midnightblue" stroke="midnightblue" points="1368.34,-292.09 1364.42,-282.25 1361.34,-292.39 1368.34,-292.09"/>
</g>
<!-- Node13 -->
<g id="node13" class="node">
<title>Node13</title>
<g id="a_node13"><a xlink:title=" ">
<polygon fill="none" stroke="#bfbfbf" points="1594,-330 1594,-349 1683,-349 1683,-330 1594,-330"/>
<text text-anchor="middle" x="1638.5" y="-337" font-family="Helvetica,sans-Serif" font-size="10.00">yarp/os/Time.h</text>
</a>
</g>
</g>
<!-- Node1&#45;&gt;Node13 -->
<g id="edge12" class="edge">
<title>Node1&#45;&gt;Node13</title>
<path fill="none" stroke="midnightblue" d="M949.68,-404.76C1089.69,-402.36 1358.96,-392.72 1584.5,-355 1589.89,-354.1 1595.51,-352.89 1601.01,-351.56"/>
<polygon fill="midnightblue" stroke="midnightblue" points="1601.89,-354.95 1610.7,-349.07 1600.14,-348.17 1601.89,-354.95"/>
</g>
<!-- Node14 -->
<g id="node14" class="node">
<title>Node14</title>
<g id="a_node14"><a xlink:href="YarpRobotControl_8h.html" target="_top" xlink:title=" ">
<polygon fill="none" stroke="black" points="1391,-324.5 1391,-354.5 1576,-354.5 1576,-324.5 1391,-324.5"/>
<text text-anchor="start" x="1399" y="-342.5" font-family="Helvetica,sans-Serif" font-size="10.00">BipedalLocomotion/RobotInterface</text>
<text text-anchor="middle" x="1483.5" y="-331.5" font-family="Helvetica,sans-Serif" font-size="10.00">/YarpRobotControl.h</text>
</a>
</g>
</g>
<!-- Node1&#45;&gt;Node14 -->
<g id="edge13" class="edge">
<title>Node1&#45;&gt;Node14</title>
<path fill="none" stroke="midnightblue" d="M949.58,-397.46C1054.48,-388.33 1228.23,-372.41 1377.5,-355 1378.58,-354.87 1379.67,-354.75 1380.77,-354.62"/>
<polygon fill="midnightblue" stroke="midnightblue" points="1381.24,-358.08 1390.74,-353.4 1380.4,-351.14 1381.24,-358.08"/>
</g>
<!-- Node30 -->
<g id="node30" class="node">
<title>Node30</title>
<g id="a_node30"><a xlink:href="Logger_8h.html" target="_top" xlink:title=" ">
<polygon fill="none" stroke="black" points="1701.5,-324.5 1701.5,-354.5 1873.5,-354.5 1873.5,-324.5 1701.5,-324.5"/>
<text text-anchor="start" x="1709.5" y="-342.5" font-family="Helvetica,sans-Serif" font-size="10.00">BipedalLocomotion/TextLogging</text>
<text text-anchor="middle" x="1787.5" y="-331.5" font-family="Helvetica,sans-Serif" font-size="10.00">/Logger.h</text>
</a>
</g>
</g>
<!-- Node1&#45;&gt;Node30 -->
<g id="edge35" class="edge">
<title>Node1&#45;&gt;Node30</title>
<path fill="none" stroke="midnightblue" d="M949.81,-402.53C1105.4,-397.06 1423.49,-383.27 1691.5,-355 1691.6,-354.99 1691.7,-354.98 1691.81,-354.97"/>
<polygon fill="midnightblue" stroke="midnightblue" points="1691.91,-358.48 1701.46,-353.88 1691.13,-351.52 1691.91,-358.48"/>
</g>
<!-- Node14&#45;&gt;Node12 -->
<g id="edge16" class="edge">
<title>Node14&#45;&gt;Node12</title>
<path fill="none" stroke="midnightblue" d="M1457.46,-324.4C1436.87,-313.24 1408.33,-297.78 1388.12,-286.83"/>
<polygon fill="midnightblue" stroke="midnightblue" points="1389.67,-283.69 1379.21,-282.01 1386.33,-289.85 1389.67,-283.69"/>
</g>
<!-- Node15 -->
<g id="node15" class="node">
<title>Node15</title>
<g id="a_node15"><a xlink:title=" ">
<polygon fill="none" stroke="#bfbfbf" points="1404.5,-62 1404.5,-81 1462.5,-81 1462.5,-62 1404.5,-62"/>
<text text-anchor="middle" x="1433.5" y="-69" font-family="Helvetica,sans-Serif" font-size="10.00">memory</text>
</a>
</g>
</g>
<!-- Node14&#45;&gt;Node15 -->
<g id="edge14" class="edge">
<title>Node14&#45;&gt;Node15</title>
<path fill="none" stroke="midnightblue" d="M1480.81,-324.2C1472.38,-279.35 1446.46,-141.45 1437,-91.13"/>
<polygon fill="midnightblue" stroke="midnightblue" points="1440.39,-90.23 1435.11,-81.05 1433.51,-91.52 1440.39,-90.23"/>
</g>
<!-- Node16 -->
<g id="node16" class="node">
<title>Node16</title>
<g id="a_node16"><a xlink:title=" ">
<polygon fill="none" stroke="#bfbfbf" points="1720,-196 1720,-215 1797,-215 1797,-196 1720,-196"/>
<text text-anchor="middle" x="1758.5" y="-203" font-family="Helvetica,sans-Serif" font-size="10.00">Eigen/Dense</text>
</a>
</g>
</g>
<!-- Node14&#45;&gt;Node16 -->
<g id="edge15" class="edge">
<title>Node14&#45;&gt;Node16</title>
<path fill="none" stroke="midnightblue" d="M1555.69,-324.49C1603.09,-314.46 1660.13,-300.57 1681.5,-288 1709.34,-271.62 1733.45,-242.23 1746.96,-223.57"/>
<polygon fill="midnightblue" stroke="midnightblue" points="1749.99,-225.35 1752.87,-215.16 1744.26,-221.33 1749.99,-225.35"/>
</g>
<!-- Node17 -->
<g id="node17" class="node">
<title>Node17</title>
<g id="a_node17"><a xlink:href="IRobotControl_8h.html" target="_top" xlink:title=" ">
<polygon fill="none" stroke="black" points="1488,-257.5 1488,-287.5 1673,-287.5 1673,-257.5 1488,-257.5"/>
<text text-anchor="start" x="1496" y="-275.5" font-family="Helvetica,sans-Serif" font-size="10.00">BipedalLocomotion/RobotInterface</text>
<text text-anchor="middle" x="1580.5" y="-264.5" font-family="Helvetica,sans-Serif" font-size="10.00">/IRobotControl.h</text>
</a>
</g>
</g>
<!-- Node14&#45;&gt;Node17 -->
<g id="edge17" class="edge">
<title>Node14&#45;&gt;Node17</title>
<path fill="none" stroke="midnightblue" d="M1504.55,-324.4C1518.15,-315.28 1536.04,-303.29 1551.05,-293.24"/>
<polygon fill="midnightblue" stroke="midnightblue" points="1553.13,-296.05 1559.49,-287.58 1549.24,-290.24 1553.13,-296.05"/>
</g>
<!-- Node17&#45;&gt;Node15 -->
<g id="edge18" class="edge">
<title>Node17&#45;&gt;Node15</title>
<path fill="none" stroke="midnightblue" d="M1561.65,-257.36C1549.82,-247.9 1534.73,-234.71 1523.5,-221 1491.57,-182.02 1492.96,-165.88 1466.5,-123 1459.58,-111.79 1451.49,-99.4 1445.06,-89.7"/>
<polygon fill="midnightblue" stroke="midnightblue" points="1447.95,-87.72 1439.48,-81.35 1442.12,-91.61 1447.95,-87.72"/>
</g>
<!-- Node17&#45;&gt;Node16 -->
<g id="edge19" class="edge">
<title>Node17&#45;&gt;Node16</title>
<path fill="none" stroke="midnightblue" d="M1619.12,-257.4C1650.91,-245.79 1695.48,-229.51 1725.59,-218.52"/>
<polygon fill="midnightblue" stroke="midnightblue" points="1727.01,-221.72 1735.2,-215.01 1724.61,-215.15 1727.01,-221.72"/>
</g>
<!-- Node18 -->
<g id="node18" class="node">
<title>Node18</title>
<g id="a_node18"><a xlink:href="IParametersHandler_8h.html" target="_top" xlink:title=" ">
<polygon fill="none" stroke="black" points="1533,-190.5 1533,-220.5 1702,-220.5 1702,-190.5 1533,-190.5"/>
<text text-anchor="start" x="1541" y="-208.5" font-family="Helvetica,sans-Serif" font-size="10.00">BipedalLocomotion/Parameters</text>
<text text-anchor="middle" x="1617.5" y="-197.5" font-family="Helvetica,sans-Serif" font-size="10.00">Handler/IParametersHandler.h</text>
</a>
</g>
</g>
<!-- Node17&#45;&gt;Node18 -->
<g id="edge20" class="edge">
<title>Node17&#45;&gt;Node18</title>
<path fill="none" stroke="midnightblue" d="M1588.53,-257.4C1593.18,-249.22 1599.16,-238.73 1604.47,-229.39"/>
<polygon fill="midnightblue" stroke="midnightblue" points="1607.58,-231 1609.49,-220.58 1601.5,-227.54 1607.58,-231"/>
</g>
<!-- Node18&#45;&gt;Node15 -->
<g id="edge21" class="edge">
<title>Node18&#45;&gt;Node15</title>
<path fill="none" stroke="midnightblue" d="M1597.86,-190.32C1567.96,-168.75 1513.55,-129.48 1504.5,-123 1487.55,-110.86 1468.28,-97.16 1454.09,-87.09"/>
<polygon fill="midnightblue" stroke="midnightblue" points="1455.76,-83.98 1445.58,-81.05 1451.71,-89.69 1455.76,-83.98"/>
</g>
<!-- Node19 -->
<g id="node19" class="node">
<title>Node19</title>
<g id="a_node19"><a xlink:title=" ">
<polygon fill="none" stroke="#bfbfbf" points="1726.5,-129 1726.5,-148 1770.5,-148 1770.5,-129 1726.5,-129"/>
<text text-anchor="middle" x="1748.5" y="-136" font-family="Helvetica,sans-Serif" font-size="10.00">string</text>
</a>
</g>
</g>
<!-- Node18&#45;&gt;Node19 -->
<g id="edge22" class="edge">
<title>Node18&#45;&gt;Node19</title>
<path fill="none" stroke="midnightblue" d="M1645.93,-190.4C1668.61,-179.14 1700.13,-163.5 1722.22,-152.54"/>
<polygon fill="midnightblue" stroke="midnightblue" points="1723.95,-155.59 1731.36,-148.01 1720.84,-149.32 1723.95,-155.59"/>
</g>
<!-- Node20 -->
<g id="node20" class="node">
<title>Node20</title>
<g id="a_node20"><a xlink:title=" ">
<polygon fill="none" stroke="#bfbfbf" points="1789,-129 1789,-148 1836,-148 1836,-129 1789,-129"/>
<text text-anchor="middle" x="1812.5" y="-136" font-family="Helvetica,sans-Serif" font-size="10.00">vector</text>
</a>
</g>
</g>
<!-- Node18&#45;&gt;Node20 -->
<g id="edge23" class="edge">
<title>Node18&#45;&gt;Node20</title>
<path fill="none" stroke="midnightblue" d="M1667.62,-190.45C1699.88,-181.02 1742.53,-167.84 1779.5,-154 1781.11,-153.4 1782.76,-152.76 1784.41,-152.09"/>
<polygon fill="midnightblue" stroke="midnightblue" points="1785.94,-155.25 1793.8,-148.15 1783.23,-148.79 1785.94,-155.25"/>
</g>
<!-- Node21 -->
<g id="node21" class="node">
<title>Node21</title>
<g id="a_node21"><a xlink:href="TemplateHelpers_8h_source.html" target="_top" xlink:title=" ">
<polygon fill="none" stroke="black" points="1851.5,-56.5 1851.5,-86.5 2009.5,-86.5 2009.5,-56.5 1851.5,-56.5"/>
<text text-anchor="start" x="1859.5" y="-74.5" font-family="Helvetica,sans-Serif" font-size="10.00">BipedalLocomotion/Generic</text>
<text text-anchor="middle" x="1930.5" y="-63.5" font-family="Helvetica,sans-Serif" font-size="10.00">Container/TemplateHelpers.h</text>
</a>
</g>
</g>
<!-- Node18&#45;&gt;Node21 -->
<g id="edge24" class="edge">
<title>Node18&#45;&gt;Node21</title>
<path fill="none" stroke="midnightblue" d="M1702.15,-190.67C1756.27,-180.89 1820.79,-167.22 1845.5,-154 1872.98,-139.3 1897.87,-113.21 1913.52,-94.5"/>
<polygon fill="midnightblue" stroke="midnightblue" points="1916.23,-96.71 1919.83,-86.75 1910.8,-92.29 1916.23,-96.71"/>
</g>
<!-- Node25 -->
<g id="node25" class="node">
<title>Node25</title>
<g id="a_node25"><a xlink:href="Vector_8h_source.html" target="_top" xlink:title=" ">
<polygon fill="none" stroke="black" points="1557,-123.5 1557,-153.5 1708,-153.5 1708,-123.5 1557,-123.5"/>
<text text-anchor="start" x="1565" y="-141.5" font-family="Helvetica,sans-Serif" font-size="10.00">BipedalLocomotion/Generic</text>
<text text-anchor="middle" x="1632.5" y="-130.5" font-family="Helvetica,sans-Serif" font-size="10.00">Container/Vector.h</text>
</a>
</g>
</g>
<!-- Node18&#45;&gt;Node25 -->
<g id="edge28" class="edge">
<title>Node18&#45;&gt;Node25</title>
<path fill="none" stroke="midnightblue" d="M1620.75,-190.4C1622.56,-182.56 1624.86,-172.6 1626.95,-163.57"/>
<polygon fill="midnightblue" stroke="midnightblue" points="1630.41,-164.11 1629.25,-153.58 1623.59,-162.53 1630.41,-164.11"/>
</g>
<!-- Node22 -->
<g id="node22" class="node">
<title>Node22</title>
<g id="a_node22"><a xlink:title=" ">
<polygon fill="none" stroke="#bfbfbf" points="1807,-0.5 1807,-19.5 1876,-19.5 1876,-0.5 1807,-0.5"/>
<text text-anchor="middle" x="1841.5" y="-7.5" font-family="Helvetica,sans-Serif" font-size="10.00">type_traits</text>
</a>
</g>
</g>
<!-- Node21&#45;&gt;Node22 -->
<g id="edge25" class="edge">
<title>Node21&#45;&gt;Node22</title>
<path fill="none" stroke="midnightblue" d="M1909.41,-56.4C1895.41,-47.04 1877.09,-34.79 1863.01,-25.38"/>
<polygon fill="midnightblue" stroke="midnightblue" points="1864.71,-22.31 1854.45,-19.66 1860.82,-28.13 1864.71,-22.31"/>
</g>
<!-- Node23 -->
<g id="node23" class="node">
<title>Node23</title>
<g id="a_node23"><a xlink:title=" ">
<polygon fill="none" stroke="#bfbfbf" points="1894,-0.5 1894,-19.5 1967,-19.5 1967,-0.5 1894,-0.5"/>
<text text-anchor="middle" x="1930.5" y="-7.5" font-family="Helvetica,sans-Serif" font-size="10.00">string_view</text>
</a>
</g>
</g>
<!-- Node21&#45;&gt;Node23 -->
<g id="edge26" class="edge">
<title>Node21&#45;&gt;Node23</title>
<path fill="none" stroke="midnightblue" d="M1930.5,-56.4C1930.5,-48.47 1930.5,-38.46 1930.5,-29.86"/>
<polygon fill="midnightblue" stroke="midnightblue" points="1934,-29.66 1930.5,-19.66 1927,-29.66 1934,-29.66"/>
</g>
<!-- Node24 -->
<g id="node24" class="node">
<title>Node24</title>
<g id="a_node24"><a xlink:title=" ">
<polygon fill="none" stroke="#bfbfbf" points="1985,-0.5 1985,-19.5 2054,-19.5 2054,-0.5 1985,-0.5"/>
<text text-anchor="middle" x="2019.5" y="-7.5" font-family="Helvetica,sans-Serif" font-size="10.00">Eigen/Core</text>
</a>
</g>
</g>
<!-- Node21&#45;&gt;Node24 -->
<g id="edge27" class="edge">
<title>Node21&#45;&gt;Node24</title>
<path fill="none" stroke="midnightblue" d="M1951.59,-56.4C1965.59,-47.04 1983.91,-34.79 1997.99,-25.38"/>
<polygon fill="midnightblue" stroke="midnightblue" points="2000.18,-28.13 2006.55,-19.66 1996.29,-22.31 2000.18,-28.13"/>
</g>
<!-- Node25&#45;&gt;Node15 -->
<g id="edge34" class="edge">
<title>Node25&#45;&gt;Node15</title>
<path fill="none" stroke="midnightblue" d="M1585.05,-123.44C1552.86,-113.7 1509.41,-100.17 1471.5,-87 1469.25,-86.22 1466.93,-85.39 1464.6,-84.54"/>
<polygon fill="midnightblue" stroke="midnightblue" points="1465.71,-81.22 1455.12,-81.01 1463.27,-87.78 1465.71,-81.22"/>
</g>
<!-- Node25&#45;&gt;Node21 -->
<g id="edge30" class="edge">
<title>Node25&#45;&gt;Node21</title>
<path fill="none" stroke="midnightblue" d="M1696.79,-123.48C1743.62,-113.26 1807.15,-99.41 1856.15,-88.72"/>
<polygon fill="midnightblue" stroke="midnightblue" points="1857.04,-92.11 1866.06,-86.55 1855.55,-85.27 1857.04,-92.11"/>
</g>
<!-- Node26 -->
<g id="node26" class="node">
<title>Node26</title>
<g id="a_node26"><a xlink:title=" ">
<polygon fill="none" stroke="#bfbfbf" points="1481,-62 1481,-81 1602,-81 1602,-62 1481,-62"/>
<text text-anchor="middle" x="1541.5" y="-69" font-family="Helvetica,sans-Serif" font-size="10.00">iDynTree/Core/Span.h</text>
</a>
</g>
</g>
<!-- Node25&#45;&gt;Node26 -->
<g id="edge29" class="edge">
<title>Node25&#45;&gt;Node26</title>
<path fill="none" stroke="midnightblue" d="M1612.75,-123.4C1597.64,-112.6 1576.86,-97.76 1561.64,-86.89"/>
<polygon fill="midnightblue" stroke="midnightblue" points="1563.58,-83.97 1553.41,-81.01 1559.51,-89.67 1563.58,-83.97"/>
</g>
<!-- Node27 -->
<g id="node27" class="node">
<title>Node27</title>
<g id="a_node27"><a xlink:title=" ">
<polygon fill="none" stroke="#bfbfbf" points="1620,-62 1620,-81 1685,-81 1685,-62 1620,-62"/>
<text text-anchor="middle" x="1652.5" y="-69" font-family="Helvetica,sans-Serif" font-size="10.00">functional</text>
</a>
</g>
</g>
<!-- Node25&#45;&gt;Node27 -->
<g id="edge31" class="edge">
<title>Node25&#45;&gt;Node27</title>
<path fill="none" stroke="midnightblue" d="M1636.84,-123.4C1639.77,-113.86 1643.67,-101.18 1646.85,-90.86"/>
<polygon fill="midnightblue" stroke="midnightblue" points="1650.23,-91.78 1649.82,-81.19 1643.54,-89.72 1650.23,-91.78"/>
</g>
<!-- Node28 -->
<g id="node28" class="node">
<title>Node28</title>
<g id="a_node28"><a xlink:title=" ">
<polygon fill="none" stroke="#bfbfbf" points="1703.5,-62 1703.5,-81 1755.5,-81 1755.5,-62 1703.5,-62"/>
<text text-anchor="middle" x="1729.5" y="-69" font-family="Helvetica,sans-Serif" font-size="10.00">cassert</text>
</a>
</g>
</g>
<!-- Node25&#45;&gt;Node28 -->
<g id="edge32" class="edge">
<title>Node25&#45;&gt;Node28</title>
<path fill="none" stroke="midnightblue" d="M1653.55,-123.4C1669.81,-112.5 1692.22,-97.48 1708.48,-86.58"/>
<polygon fill="midnightblue" stroke="midnightblue" points="1710.45,-89.48 1716.8,-81.01 1706.55,-83.67 1710.45,-89.48"/>
</g>
<!-- Node29 -->
<g id="node29" class="node">
<title>Node29</title>
<g id="a_node29"><a xlink:title=" ">
<polygon fill="none" stroke="#bfbfbf" points="1773.5,-62 1773.5,-81 1833.5,-81 1833.5,-62 1773.5,-62"/>
<text text-anchor="middle" x="1803.5" y="-69" font-family="Helvetica,sans-Serif" font-size="10.00">iostream</text>
</a>
</g>
</g>
<!-- Node25&#45;&gt;Node29 -->
<g id="edge33" class="edge">
<title>Node25&#45;&gt;Node29</title>
<path fill="none" stroke="midnightblue" d="M1669.6,-123.4C1700.01,-111.84 1742.58,-95.66 1771.5,-84.66"/>
<polygon fill="midnightblue" stroke="midnightblue" points="1773.02,-87.83 1781.12,-81.01 1770.53,-81.29 1773.02,-87.83"/>
</g>
<!-- Node31 -->
<g id="node31" class="node">
<title>Node31</title>
<g id="a_node31"><a xlink:title=" ">
<polygon fill="none" stroke="#bfbfbf" points="1735,-263 1735,-282 1834,-282 1834,-263 1735,-263"/>
<text text-anchor="middle" x="1784.5" y="-270" font-family="Helvetica,sans-Serif" font-size="10.00">spdlog/fmt/ostr.h</text>
</a>
</g>
</g>
<!-- Node30&#45;&gt;Node31 -->
<g id="edge36" class="edge">
<title>Node30&#45;&gt;Node31</title>
<path fill="none" stroke="midnightblue" d="M1786.85,-324.4C1786.41,-314.96 1785.84,-302.45 1785.36,-292.19"/>
<polygon fill="midnightblue" stroke="midnightblue" points="1788.86,-292.02 1784.9,-282.19 1781.87,-292.35 1788.86,-292.02"/>
</g>
<!-- Node32 -->
<g id="node32" class="node">
<title>Node32</title>
<g id="a_node32"><a xlink:title=" ">
<polygon fill="none" stroke="#bfbfbf" points="1852,-263 1852,-282 1945,-282 1945,-263 1852,-263"/>
<text text-anchor="middle" x="1898.5" y="-270" font-family="Helvetica,sans-Serif" font-size="10.00">spdlog/spdlog.h</text>
</a>
</g>
</g>
<!-- Node30&#45;&gt;Node32 -->
<g id="edge37" class="edge">
<title>Node30&#45;&gt;Node32</title>
<path fill="none" stroke="midnightblue" d="M1811.59,-324.4C1830.46,-313.34 1856.56,-298.06 1875.22,-287.13"/>
<polygon fill="midnightblue" stroke="midnightblue" points="1877.11,-290.08 1883.97,-282.01 1873.57,-284.04 1877.11,-290.08"/>
</g>
</g>
</svg>
