<?xml version="1.0" encoding="UTF-8" standalone="no"?>
<!DOCTYPE svg PUBLIC "-//W3C//DTD SVG 1.1//EN"
 "http://www.w3.org/Graphics/SVG/1.1/DTD/svg11.dtd">
<!-- Generated by graphviz version 2.43.0 (0)
 -->
<!-- Title: ParametersHandler/YarpImplementation/src/YarpImplementation.cpp Pages: 1 -->
<svg width="1343pt" height="475pt"
 viewBox="0.00 0.00 1343.14 475.00" xmlns="http://www.w3.org/2000/svg" xmlns:xlink="http://www.w3.org/1999/xlink">
<g id="graph0" class="graph" transform="scale(1 1) rotate(0) translate(4 471)">
<title>ParametersHandler/YarpImplementation/src/YarpImplementation.cpp</title>
<!-- Node1 -->
<g id="node1" class="node">
<title>Node1</title>
<g id="a_node1"><a xlink:title=" ">
<polygon fill="#bfbfbf" stroke="black" points="7,-436.5 7,-466.5 219,-466.5 219,-436.5 7,-436.5"/>
<text text-anchor="start" x="15" y="-454.5" font-family="Helvetica,sans-Serif" font-size="10.00">ParametersHandler/YarpImplementation</text>
<text text-anchor="middle" x="113" y="-443.5" font-family="Helvetica,sans-Serif" font-size="10.00">/src/YarpImplementation.cpp</text>
</a>
</g>
</g>
<!-- Node2 -->
<g id="node2" class="node">
<title>Node2</title>
<g id="a_node2"><a xlink:title=" ">
<polygon fill="none" stroke="#bfbfbf" points="66,-313.5 66,-332.5 160,-332.5 160,-313.5 66,-313.5"/>
<text text-anchor="middle" x="113" y="-320.5" font-family="Helvetica,sans-Serif" font-size="10.00">yarp/os/Bottle.h</text>
</a>
</g>
</g>
<!-- Node1&#45;&gt;Node2 -->
<g id="edge1" class="edge">
<title>Node1&#45;&gt;Node2</title>
<path fill="none" stroke="midnightblue" d="M113,-436.48C113,-413.72 113,-368.7 113,-343.06"/>
<polygon fill="midnightblue" stroke="midnightblue" points="116.5,-342.79 113,-332.79 109.5,-342.79 116.5,-342.79"/>
</g>
<!-- Node3 -->
<g id="node3" class="node">
<title>Node3</title>
<g id="a_node3"><a xlink:title=" ">
<polygon fill="none" stroke="#bfbfbf" points="73,-62 73,-81 125,-81 125,-62 73,-62"/>
<text text-anchor="middle" x="99" y="-69" font-family="Helvetica,sans-Serif" font-size="10.00">cassert</text>
</a>
</g>
</g>
<!-- Node1&#45;&gt;Node3 -->
<g id="edge2" class="edge">
<title>Node1&#45;&gt;Node3</title>
<path fill="none" stroke="midnightblue" d="M86.79,-436.34C53.41,-416.18 0,-375.83 0,-324 0,-324 0,-324 0,-199 0,-149.46 47.66,-107.77 76.84,-86.88"/>
<polygon fill="midnightblue" stroke="midnightblue" points="79,-89.65 85.23,-81.08 75.02,-83.89 79,-89.65"/>
</g>
<!-- Node4 -->
<g id="node4" class="node">
<title>Node4</title>
<g id="a_node4"><a xlink:title=" ">
<polygon fill="none" stroke="#bfbfbf" points="166,-190.5 166,-209.5 210,-209.5 210,-190.5 166,-190.5"/>
<text text-anchor="middle" x="188" y="-197.5" font-family="Helvetica,sans-Serif" font-size="10.00">string</text>
</a>
</g>
</g>
<!-- Node1&#45;&gt;Node4 -->
<g id="edge3" class="edge">
<title>Node1&#45;&gt;Node4</title>
<path fill="none" stroke="midnightblue" d="M99.31,-436.27C76.85,-411.11 36.62,-357.25 57,-313 78.33,-266.7 129.29,-232.42 161,-214.67"/>
<polygon fill="midnightblue" stroke="midnightblue" points="163.04,-217.54 170.16,-209.69 159.71,-211.39 163.04,-217.54"/>
</g>
<!-- Node5 -->
<g id="node5" class="node">
<title>Node5</title>
<g id="a_node5"><a xlink:href="YarpImplementation_8h.html" target="_top" xlink:title=" ">
<polygon fill="none" stroke="black" points="298.5,-369.5 298.5,-399.5 467.5,-399.5 467.5,-369.5 298.5,-369.5"/>
<text text-anchor="start" x="306.5" y="-387.5" font-family="Helvetica,sans-Serif" font-size="10.00">BipedalLocomotion/Parameters</text>
<text text-anchor="middle" x="383" y="-376.5" font-family="Helvetica,sans-Serif" font-size="10.00">Handler/YarpImplementation.h</text>
</a>
</g>
</g>
<!-- Node1&#45;&gt;Node5 -->
<g id="edge4" class="edge">
<title>Node1&#45;&gt;Node5</title>
<path fill="none" stroke="midnightblue" d="M171.25,-436.48C213.34,-426.34 270.32,-412.63 314.58,-401.97"/>
<polygon fill="midnightblue" stroke="midnightblue" points="315.48,-405.35 324.39,-399.61 313.84,-398.55 315.48,-405.35"/>
</g>
<!-- Node28 -->
<g id="node28" class="node">
<title>Node28</title>
<g id="a_node28"><a xlink:href="Logger_8h.html" target="_top" xlink:title=" ">
<polygon fill="none" stroke="black" points="1146,-123.5 1146,-153.5 1318,-153.5 1318,-123.5 1146,-123.5"/>
<text text-anchor="start" x="1154" y="-141.5" font-family="Helvetica,sans-Serif" font-size="10.00">BipedalLocomotion/TextLogging</text>
<text text-anchor="middle" x="1232" y="-130.5" font-family="Helvetica,sans-Serif" font-size="10.00">/Logger.h</text>
</a>
</g>
</g>
<!-- Node1&#45;&gt;Node28 -->
<g id="edge44" class="edge">
<title>Node1&#45;&gt;Node28</title>
<path fill="none" stroke="midnightblue" d="M219.04,-450.55C516.12,-449.31 1335,-435.74 1335,-324 1335,-324 1335,-324 1335,-260.5 1335,-228.05 1335.55,-215.9 1316,-190 1306,-176.74 1291.41,-166.25 1277.19,-158.35"/>
<polygon fill="midnightblue" stroke="midnightblue" points="1278.43,-155.05 1267.94,-153.52 1275.19,-161.25 1278.43,-155.05"/>
</g>
<!-- Node5&#45;&gt;Node2 -->
<g id="edge8" class="edge">
<title>Node5&#45;&gt;Node2</title>
<path fill="none" stroke="midnightblue" d="M319.36,-369.47C271.05,-358.83 205.63,-344.41 161.51,-334.69"/>
<polygon fill="midnightblue" stroke="midnightblue" points="162.12,-331.24 151.6,-332.51 160.61,-338.08 162.12,-331.24"/>
</g>
<!-- Node5&#45;&gt;Node4 -->
<g id="edge6" class="edge">
<title>Node5&#45;&gt;Node4</title>
<path fill="none" stroke="midnightblue" d="M298.08,-378.5C265.06,-372.15 229.77,-359.11 207,-333 179.31,-301.25 181.38,-247.96 184.9,-219.78"/>
<polygon fill="midnightblue" stroke="midnightblue" points="188.39,-220.08 186.36,-209.69 181.46,-219.08 188.39,-220.08"/>
</g>
<!-- Node6 -->
<g id="node6" class="node">
<title>Node6</title>
<g id="a_node6"><a xlink:title=" ">
<polygon fill="none" stroke="#bfbfbf" points="280,-62 280,-81 338,-81 338,-62 280,-62"/>
<text text-anchor="middle" x="309" y="-69" font-family="Helvetica,sans-Serif" font-size="10.00">memory</text>
</a>
</g>
</g>
<!-- Node5&#45;&gt;Node6 -->
<g id="edge5" class="edge">
<title>Node5&#45;&gt;Node6</title>
<path fill="none" stroke="midnightblue" d="M376.55,-369.33C369.53,-354.6 357.5,-331.2 344,-313 330.7,-295.08 317.39,-297.68 309,-277 282.98,-212.9 296.57,-127.91 304.54,-90.96"/>
<polygon fill="midnightblue" stroke="midnightblue" points="307.98,-91.64 306.79,-81.11 301.15,-90.09 307.98,-91.64"/>
</g>
<!-- Node7 -->
<g id="node7" class="node">
<title>Node7</title>
<g id="a_node7"><a xlink:title=" ">
<polygon fill="none" stroke="#bfbfbf" points="582.5,-313.5 582.5,-332.5 675.5,-332.5 675.5,-313.5 582.5,-313.5"/>
<text text-anchor="middle" x="629" y="-320.5" font-family="Helvetica,sans-Serif" font-size="10.00">unordered_map</text>
</a>
</g>
</g>
<!-- Node5&#45;&gt;Node7 -->
<g id="edge7" class="edge">
<title>Node5&#45;&gt;Node7</title>
<path fill="none" stroke="midnightblue" d="M440.99,-369.47C484.72,-358.9 543.85,-344.59 584.04,-334.87"/>
<polygon fill="midnightblue" stroke="midnightblue" points="584.93,-338.26 593.83,-332.51 583.29,-331.46 584.93,-338.26"/>
</g>
<!-- Node8 -->
<g id="node8" class="node">
<title>Node8</title>
<g id="a_node8"><a xlink:title=" ">
<polygon fill="none" stroke="#bfbfbf" points="1203,-190.5 1203,-209.5 1307,-209.5 1307,-190.5 1203,-190.5"/>
<text text-anchor="middle" x="1255" y="-197.5" font-family="Helvetica,sans-Serif" font-size="10.00">yarp/os/Property.h</text>
</a>
</g>
</g>
<!-- Node5&#45;&gt;Node8 -->
<g id="edge9" class="edge">
<title>Node5&#45;&gt;Node8</title>
<path fill="none" stroke="midnightblue" d="M467.54,-370.8C528.24,-361.33 611.88,-347.57 685,-333 882.76,-293.61 1116.57,-235.93 1211.6,-212.02"/>
<polygon fill="midnightblue" stroke="midnightblue" points="1212.59,-215.38 1221.43,-209.54 1210.88,-208.59 1212.59,-215.38"/>
</g>
<!-- Node9 -->
<g id="node9" class="node">
<title>Node9</title>
<g id="a_node9"><a xlink:title=" ">
<polygon fill="none" stroke="#bfbfbf" points="216.5,-313.5 216.5,-332.5 335.5,-332.5 335.5,-313.5 216.5,-313.5"/>
<text text-anchor="middle" x="276" y="-320.5" font-family="Helvetica,sans-Serif" font-size="10.00">yarp/os/Searchable.h</text>
</a>
</g>
</g>
<!-- Node5&#45;&gt;Node9 -->
<g id="edge10" class="edge">
<title>Node5&#45;&gt;Node9</title>
<path fill="none" stroke="midnightblue" d="M357.64,-369.4C340.33,-359.77 317.52,-347.09 300.42,-337.58"/>
<polygon fill="midnightblue" stroke="midnightblue" points="302.01,-334.46 291.57,-332.66 298.61,-340.58 302.01,-334.46"/>
</g>
<!-- Node10 -->
<g id="node10" class="node">
<title>Node10</title>
<g id="a_node10"><a xlink:href="IParametersHandler_8h.html" target="_top" xlink:title=" ">
<polygon fill="none" stroke="black" points="317.5,-246.5 317.5,-276.5 486.5,-276.5 486.5,-246.5 317.5,-246.5"/>
<text text-anchor="start" x="325.5" y="-264.5" font-family="Helvetica,sans-Serif" font-size="10.00">BipedalLocomotion/Parameters</text>
<text text-anchor="middle" x="402" y="-253.5" font-family="Helvetica,sans-Serif" font-size="10.00">Handler/IParametersHandler.h</text>
</a>
</g>
</g>
<!-- Node5&#45;&gt;Node10 -->
<g id="edge11" class="edge">
<title>Node5&#45;&gt;Node10</title>
<path fill="none" stroke="midnightblue" d="M385.25,-369.14C388.44,-348.86 394.3,-311.53 398.17,-286.86"/>
<polygon fill="midnightblue" stroke="midnightblue" points="401.66,-287.26 399.75,-276.84 394.74,-286.17 401.66,-287.26"/>
</g>
<!-- Node20 -->
<g id="node20" class="node">
<title>Node20</title>
<g id="a_node20"><a xlink:href="YarpImplementation_8tpp.html" target="_top" xlink:title=" ">
<polygon fill="none" stroke="black" points="430,-313.5 430,-332.5 564,-332.5 564,-313.5 430,-313.5"/>
<text text-anchor="middle" x="497" y="-320.5" font-family="Helvetica,sans-Serif" font-size="10.00">YarpImplementation.tpp</text>
</a>
</g>
</g>
<!-- Node5&#45;&gt;Node20 -->
<g id="edge26" class="edge">
<title>Node5&#45;&gt;Node20</title>
<path fill="none" stroke="midnightblue" d="M404.18,-369.4C421.7,-359.59 446.61,-346.62 466.29,-337.05"/>
<polygon fill="midnightblue" stroke="midnightblue" points="467.97,-340.13 475.48,-332.66 464.95,-333.81 467.97,-340.13"/>
</g>
<!-- Node10&#45;&gt;Node4 -->
<g id="edge13" class="edge">
<title>Node10&#45;&gt;Node4</title>
<path fill="none" stroke="midnightblue" d="M351.56,-246.47C310.91,-235.17 254.97,-219.62 220.18,-209.95"/>
<polygon fill="midnightblue" stroke="midnightblue" points="220.67,-206.45 210.1,-207.14 218.79,-213.19 220.67,-206.45"/>
</g>
<!-- Node10&#45;&gt;Node6 -->
<g id="edge12" class="edge">
<title>Node10&#45;&gt;Node6</title>
<path fill="none" stroke="midnightblue" d="M394.52,-246.47C383.77,-226.18 363.42,-187.43 347,-154 336.39,-132.39 324.77,-107.24 317.21,-90.66"/>
<polygon fill="midnightblue" stroke="midnightblue" points="320.2,-88.78 312.88,-81.12 313.83,-91.67 320.2,-88.78"/>
</g>
<!-- Node11 -->
<g id="node11" class="node">
<title>Node11</title>
<g id="a_node11"><a xlink:title=" ">
<polygon fill="none" stroke="#bfbfbf" points="432.5,-190.5 432.5,-209.5 479.5,-209.5 479.5,-190.5 432.5,-190.5"/>
<text text-anchor="middle" x="456" y="-197.5" font-family="Helvetica,sans-Serif" font-size="10.00">vector</text>
</a>
</g>
</g>
<!-- Node10&#45;&gt;Node11 -->
<g id="edge14" class="edge">
<title>Node10&#45;&gt;Node11</title>
<path fill="none" stroke="midnightblue" d="M414.8,-246.4C422.72,-237.66 432.94,-226.41 441.21,-217.3"/>
<polygon fill="midnightblue" stroke="midnightblue" points="444.01,-219.42 448.14,-209.66 438.83,-214.71 444.01,-219.42"/>
</g>
<!-- Node12 -->
<g id="node12" class="node">
<title>Node12</title>
<g id="a_node12"><a xlink:href="TemplateHelpers_8h_source.html" target="_top" xlink:title=" ">
<polygon fill="none" stroke="black" points="657,-56.5 657,-86.5 815,-86.5 815,-56.5 657,-56.5"/>
<text text-anchor="start" x="665" y="-74.5" font-family="Helvetica,sans-Serif" font-size="10.00">BipedalLocomotion/Generic</text>
<text text-anchor="middle" x="736" y="-63.5" font-family="Helvetica,sans-Serif" font-size="10.00">Container/TemplateHelpers.h</text>
</a>
</g>
</g>
<!-- Node10&#45;&gt;Node12 -->
<g id="edge15" class="edge">
<title>Node10&#45;&gt;Node12</title>
<path fill="none" stroke="midnightblue" d="M402.83,-246.23C404.48,-230.53 409.39,-205.48 424,-190 426.39,-187.47 601.74,-122.25 688.48,-90.1"/>
<polygon fill="midnightblue" stroke="midnightblue" points="689.94,-93.29 698.1,-86.53 687.51,-86.72 689.94,-93.29"/>
</g>
<!-- Node16 -->
<g id="node16" class="node">
<title>Node16</title>
<g id="a_node16"><a xlink:href="Vector_8h_source.html" target="_top" xlink:title=" ">
<polygon fill="none" stroke="black" points="356.5,-123.5 356.5,-153.5 507.5,-153.5 507.5,-123.5 356.5,-123.5"/>
<text text-anchor="start" x="364.5" y="-141.5" font-family="Helvetica,sans-Serif" font-size="10.00">BipedalLocomotion/Generic</text>
<text text-anchor="middle" x="432" y="-130.5" font-family="Helvetica,sans-Serif" font-size="10.00">Container/Vector.h</text>
</a>
</g>
</g>
<!-- Node10&#45;&gt;Node16 -->
<g id="edge19" class="edge">
<title>Node10&#45;&gt;Node16</title>
<path fill="none" stroke="midnightblue" d="M395.46,-246.35C389.7,-231.84 383.2,-208.8 390,-190 393.88,-179.27 401.14,-169.22 408.54,-160.95"/>
<polygon fill="midnightblue" stroke="midnightblue" points="411.19,-163.24 415.59,-153.6 406.14,-158.4 411.19,-163.24"/>
</g>
<!-- Node13 -->
<g id="node13" class="node">
<title>Node13</title>
<g id="a_node13"><a xlink:title=" ">
<polygon fill="none" stroke="#bfbfbf" points="614.5,-0.5 614.5,-19.5 683.5,-19.5 683.5,-0.5 614.5,-0.5"/>
<text text-anchor="middle" x="649" y="-7.5" font-family="Helvetica,sans-Serif" font-size="10.00">type_traits</text>
</a>
</g>
</g>
<!-- Node12&#45;&gt;Node13 -->
<g id="edge16" class="edge">
<title>Node12&#45;&gt;Node13</title>
<path fill="none" stroke="midnightblue" d="M715.38,-56.4C701.7,-47.04 683.79,-34.79 670.02,-25.38"/>
<polygon fill="midnightblue" stroke="midnightblue" points="671.89,-22.41 661.66,-19.66 667.94,-28.19 671.89,-22.41"/>
</g>
<!-- Node14 -->
<g id="node14" class="node">
<title>Node14</title>
<g id="a_node14"><a xlink:title=" ">
<polygon fill="none" stroke="#bfbfbf" points="788.5,-0.5 788.5,-19.5 861.5,-19.5 861.5,-0.5 788.5,-0.5"/>
<text text-anchor="middle" x="825" y="-7.5" font-family="Helvetica,sans-Serif" font-size="10.00">string_view</text>
</a>
</g>
</g>
<!-- Node12&#45;&gt;Node14 -->
<g id="edge17" class="edge">
<title>Node12&#45;&gt;Node14</title>
<path fill="none" stroke="midnightblue" d="M757.09,-56.4C771.09,-47.04 789.41,-34.79 803.49,-25.38"/>
<polygon fill="midnightblue" stroke="midnightblue" points="805.68,-28.13 812.05,-19.66 801.79,-22.31 805.68,-28.13"/>
</g>
<!-- Node15 -->
<g id="node15" class="node">
<title>Node15</title>
<g id="a_node15"><a xlink:title=" ">
<polygon fill="none" stroke="#bfbfbf" points="701.5,-0.5 701.5,-19.5 770.5,-19.5 770.5,-0.5 701.5,-0.5"/>
<text text-anchor="middle" x="736" y="-7.5" font-family="Helvetica,sans-Serif" font-size="10.00">Eigen/Core</text>
</a>
</g>
</g>
<!-- Node12&#45;&gt;Node15 -->
<g id="edge18" class="edge">
<title>Node12&#45;&gt;Node15</title>
<path fill="none" stroke="midnightblue" d="M736,-56.4C736,-48.47 736,-38.46 736,-29.86"/>
<polygon fill="midnightblue" stroke="midnightblue" points="739.5,-29.66 736,-19.66 732.5,-29.66 739.5,-29.66"/>
</g>
<!-- Node16&#45;&gt;Node3 -->
<g id="edge23" class="edge">
<title>Node16&#45;&gt;Node3</title>
<path fill="none" stroke="midnightblue" d="M360.15,-123.48C290.96,-109.97 189.12,-90.09 135.35,-79.59"/>
<polygon fill="midnightblue" stroke="midnightblue" points="135.74,-76.11 125.25,-77.62 134.4,-82.98 135.74,-76.11"/>
</g>
<!-- Node16&#45;&gt;Node6 -->
<g id="edge25" class="edge">
<title>Node16&#45;&gt;Node6</title>
<path fill="none" stroke="midnightblue" d="M405.31,-123.4C384.11,-112.19 354.68,-96.64 333.95,-85.69"/>
<polygon fill="midnightblue" stroke="midnightblue" points="335.57,-82.58 325.1,-81.01 332.3,-88.77 335.57,-82.58"/>
</g>
<!-- Node16&#45;&gt;Node12 -->
<g id="edge21" class="edge">
<title>Node16&#45;&gt;Node12</title>
<path fill="none" stroke="midnightblue" d="M497.59,-123.48C545.45,-113.24 610.43,-99.35 660.47,-88.65"/>
<polygon fill="midnightblue" stroke="midnightblue" points="661.22,-92.07 670.27,-86.55 659.76,-85.22 661.22,-92.07"/>
</g>
<!-- Node17 -->
<g id="node17" class="node">
<title>Node17</title>
<g id="a_node17"><a xlink:title=" ">
<polygon fill="none" stroke="#bfbfbf" points="356.5,-62 356.5,-81 477.5,-81 477.5,-62 356.5,-62"/>
<text text-anchor="middle" x="417" y="-69" font-family="Helvetica,sans-Serif" font-size="10.00">iDynTree/Core/Span.h</text>
</a>
</g>
</g>
<!-- Node16&#45;&gt;Node17 -->
<g id="edge20" class="edge">
<title>Node16&#45;&gt;Node17</title>
<path fill="none" stroke="midnightblue" d="M428.75,-123.4C426.57,-113.96 423.68,-101.45 421.31,-91.19"/>
<polygon fill="midnightblue" stroke="midnightblue" points="424.67,-90.15 419.01,-81.19 417.84,-91.73 424.67,-90.15"/>
</g>
<!-- Node18 -->
<g id="node18" class="node">
<title>Node18</title>
<g id="a_node18"><a xlink:title=" ">
<polygon fill="none" stroke="#bfbfbf" points="495.5,-62 495.5,-81 560.5,-81 560.5,-62 495.5,-62"/>
<text text-anchor="middle" x="528" y="-69" font-family="Helvetica,sans-Serif" font-size="10.00">functional</text>
</a>
</g>
</g>
<!-- Node16&#45;&gt;Node18 -->
<g id="edge22" class="edge">
<title>Node16&#45;&gt;Node18</title>
<path fill="none" stroke="midnightblue" d="M452.83,-123.4C468.78,-112.6 490.7,-97.76 506.75,-86.89"/>
<polygon fill="midnightblue" stroke="midnightblue" points="509.12,-89.51 515.44,-81.01 505.19,-83.72 509.12,-89.51"/>
</g>
<!-- Node19 -->
<g id="node19" class="node">
<title>Node19</title>
<g id="a_node19"><a xlink:title=" ">
<polygon fill="none" stroke="#bfbfbf" points="579,-62 579,-81 639,-81 639,-62 579,-62"/>
<text text-anchor="middle" x="609" y="-69" font-family="Helvetica,sans-Serif" font-size="10.00">iostream</text>
</a>
</g>
</g>
<!-- Node16&#45;&gt;Node19 -->
<g id="edge24" class="edge">
<title>Node16&#45;&gt;Node19</title>
<path fill="none" stroke="midnightblue" d="M470.68,-123.4C498.36,-113.31 536.49,-99.36 570,-87 572.09,-86.23 574.25,-85.43 576.42,-84.63"/>
<polygon fill="midnightblue" stroke="midnightblue" points="577.75,-87.87 585.91,-81.11 575.32,-81.3 577.75,-87.87"/>
</g>
<!-- Node20&#45;&gt;Node5 -->
<g id="edge43" class="edge">
<title>Node20&#45;&gt;Node5</title>
<path fill="none" stroke="midnightblue" d="M485.34,-332.66C471.01,-341.08 446.42,-354.16 424.87,-364.94"/>
<polygon fill="midnightblue" stroke="midnightblue" points="423.27,-361.83 415.86,-369.4 426.37,-368.1 423.27,-361.83"/>
</g>
<!-- Node20&#45;&gt;Node13 -->
<g id="edge27" class="edge">
<title>Node20&#45;&gt;Node13</title>
<path fill="none" stroke="midnightblue" d="M429.73,-317.15C357.2,-307.82 252,-280.58 252,-201 252,-201 252,-201 252,-137.5 252,-100.31 243.29,-80.81 271,-56 319.25,-12.81 515.18,-9.37 604.38,-10.14"/>
<polygon fill="midnightblue" stroke="midnightblue" points="604.42,-13.64 614.46,-10.25 604.5,-6.64 604.42,-13.64"/>
</g>
<!-- Node21 -->
<g id="node21" class="node">
<title>Node21</title>
<g id="a_node21"><a xlink:href="Helper_8h.html" target="_top" xlink:title=" ">
<polygon fill="none" stroke="black" points="722,-246.5 722,-276.5 894,-276.5 894,-246.5 722,-246.5"/>
<text text-anchor="start" x="730" y="-264.5" font-family="Helvetica,sans-Serif" font-size="10.00">BipedalLocomotion/YarpUtilities</text>
<text text-anchor="middle" x="808" y="-253.5" font-family="Helvetica,sans-Serif" font-size="10.00">/Helper.h</text>
</a>
</g>
</g>
<!-- Node20&#45;&gt;Node21 -->
<g id="edge28" class="edge">
<title>Node20&#45;&gt;Node21</title>
<path fill="none" stroke="midnightblue" d="M541.56,-313.48C589.19,-304.36 665.8,-289.71 724.67,-278.44"/>
<polygon fill="midnightblue" stroke="midnightblue" points="725.54,-281.84 734.7,-276.52 724.22,-274.96 725.54,-281.84"/>
</g>
<!-- Node21&#45;&gt;Node8 -->
<g id="edge32" class="edge">
<title>Node21&#45;&gt;Node8</title>
<path fill="none" stroke="midnightblue" d="M894.29,-249.62C970.18,-239.96 1083.94,-225.25 1192.6,-210.18"/>
<polygon fill="midnightblue" stroke="midnightblue" points="1193.34,-213.61 1202.76,-208.76 1192.38,-206.67 1193.34,-213.61"/>
</g>
<!-- Node21&#45;&gt;Node11 -->
<g id="edge30" class="edge">
<title>Node21&#45;&gt;Node11</title>
<path fill="none" stroke="midnightblue" d="M721.89,-249.47C659.88,-240.92 574.09,-227.85 489.73,-209.95"/>
<polygon fill="midnightblue" stroke="midnightblue" points="490.23,-206.48 479.72,-207.8 488.76,-213.32 490.23,-206.48"/>
</g>
<!-- Node22 -->
<g id="node22" class="node">
<title>Node22</title>
<g id="a_node22"><a xlink:title=" ">
<polygon fill="none" stroke="#bfbfbf" points="909.5,-190.5 909.5,-209.5 956.5,-209.5 956.5,-190.5 909.5,-190.5"/>
<text text-anchor="middle" x="933" y="-197.5" font-family="Helvetica,sans-Serif" font-size="10.00">deque</text>
</a>
</g>
</g>
<!-- Node21&#45;&gt;Node22 -->
<g id="edge29" class="edge">
<title>Node21&#45;&gt;Node22</title>
<path fill="none" stroke="midnightblue" d="M837.62,-246.4C858.22,-236.59 885.48,-223.62 905.58,-214.05"/>
<polygon fill="midnightblue" stroke="midnightblue" points="907.29,-217.12 914.81,-209.66 904.28,-210.8 907.29,-217.12"/>
</g>
<!-- Node23 -->
<g id="node23" class="node">
<title>Node23</title>
<g id="a_node23"><a xlink:title=" ">
<polygon fill="none" stroke="#bfbfbf" points="974.5,-190.5 974.5,-209.5 1099.5,-209.5 1099.5,-190.5 974.5,-190.5"/>
<text text-anchor="middle" x="1037" y="-197.5" font-family="Helvetica,sans-Serif" font-size="10.00">yarp/os/BufferedPort.h</text>
</a>
</g>
</g>
<!-- Node21&#45;&gt;Node23 -->
<g id="edge31" class="edge">
<title>Node21&#45;&gt;Node23</title>
<path fill="none" stroke="midnightblue" d="M861.98,-246.47C902.35,-235.99 956.8,-221.84 994.19,-212.12"/>
<polygon fill="midnightblue" stroke="midnightblue" points="995.46,-215.41 1004.26,-209.51 993.7,-208.63 995.46,-215.41"/>
</g>
<!-- Node24 -->
<g id="node24" class="node">
<title>Node24</title>
<g id="a_node24"><a xlink:title=" ">
<polygon fill="none" stroke="#bfbfbf" points="498,-190.5 498,-209.5 590,-209.5 590,-190.5 498,-190.5"/>
<text text-anchor="middle" x="544" y="-197.5" font-family="Helvetica,sans-Serif" font-size="10.00">yarp/os/Value.h</text>
</a>
</g>
</g>
<!-- Node21&#45;&gt;Node24 -->
<g id="edge33" class="edge">
<title>Node21&#45;&gt;Node24</title>
<path fill="none" stroke="midnightblue" d="M745.77,-246.47C698.63,-235.85 634.84,-221.47 591.7,-211.75"/>
<polygon fill="midnightblue" stroke="midnightblue" points="592.27,-208.29 581.74,-209.51 590.73,-215.12 592.27,-208.29"/>
</g>
<!-- Node25 -->
<g id="node25" class="node">
<title>Node25</title>
<g id="a_node25"><a xlink:title=" ">
<polygon fill="none" stroke="#bfbfbf" points="608,-190.5 608,-209.5 706,-209.5 706,-190.5 608,-190.5"/>
<text text-anchor="middle" x="657" y="-197.5" font-family="Helvetica,sans-Serif" font-size="10.00">yarp/sig/Vector.h</text>
</a>
</g>
</g>
<!-- Node21&#45;&gt;Node25 -->
<g id="edge34" class="edge">
<title>Node21&#45;&gt;Node25</title>
<path fill="none" stroke="midnightblue" d="M772.22,-246.4C746.77,-236.37 712.9,-223.03 688.48,-213.4"/>
<polygon fill="midnightblue" stroke="midnightblue" points="689.56,-210.07 678.97,-209.66 686.99,-216.58 689.56,-210.07"/>
</g>
<!-- Node26 -->
<g id="node26" class="node">
<title>Node26</title>
<g id="a_node26"><a xlink:title=" ">
<polygon fill="none" stroke="#bfbfbf" points="724.5,-190.5 724.5,-209.5 891.5,-209.5 891.5,-190.5 724.5,-190.5"/>
<text text-anchor="middle" x="808" y="-197.5" font-family="Helvetica,sans-Serif" font-size="10.00">iDynTree/Core/VectorDynSize.h</text>
</a>
</g>
</g>
<!-- Node21&#45;&gt;Node26 -->
<g id="edge35" class="edge">
<title>Node21&#45;&gt;Node26</title>
<path fill="none" stroke="midnightblue" d="M808,-246.4C808,-238.47 808,-228.46 808,-219.86"/>
<polygon fill="midnightblue" stroke="midnightblue" points="811.5,-219.66 808,-209.66 804.5,-219.66 811.5,-219.66"/>
</g>
<!-- Node27 -->
<g id="node27" class="node">
<title>Node27</title>
<g id="a_node27"><a xlink:href="Helper_8tpp.html" target="_top" xlink:title=" ">
<polygon fill="none" stroke="black" points="1117.5,-190.5 1117.5,-209.5 1184.5,-209.5 1184.5,-190.5 1117.5,-190.5"/>
<text text-anchor="middle" x="1151" y="-197.5" font-family="Helvetica,sans-Serif" font-size="10.00">Helper.tpp</text>
</a>
</g>
</g>
<!-- Node21&#45;&gt;Node27 -->
<g id="edge36" class="edge">
<title>Node21&#45;&gt;Node27</title>
<path fill="none" stroke="midnightblue" d="M894.14,-247.1C951.96,-237.86 1030.07,-224.9 1107.21,-210.29"/>
<polygon fill="midnightblue" stroke="midnightblue" points="1107.93,-213.71 1117.1,-208.4 1106.62,-206.83 1107.93,-213.71"/>
</g>
<!-- Node27&#45;&gt;Node12 -->
<g id="edge38" class="edge">
<title>Node27&#45;&gt;Node12</title>
<path fill="none" stroke="midnightblue" d="M1122.8,-190.4C1054.93,-169.72 881.45,-116.84 791.68,-89.47"/>
<polygon fill="midnightblue" stroke="midnightblue" points="792.54,-86.08 781.95,-86.51 790.5,-92.77 792.54,-86.08"/>
</g>
<!-- Node27&#45;&gt;Node13 -->
<g id="edge37" class="edge">
<title>Node27&#45;&gt;Node13</title>
<path fill="none" stroke="midnightblue" d="M1134.02,-190.41C1086.23,-166.48 946.14,-98.1 824,-56 780.54,-41.02 729.5,-28.44 693.79,-20.43"/>
<polygon fill="midnightblue" stroke="midnightblue" points="694.21,-16.94 683.69,-18.19 692.69,-23.77 694.21,-16.94"/>
</g>
<!-- Node27&#45;&gt;Node16 -->
<g id="edge39" class="edge">
<title>Node27&#45;&gt;Node16</title>
<path fill="none" stroke="midnightblue" d="M1117.15,-191.33C1114.4,-190.83 1111.66,-190.38 1109,-190 897.73,-159.63 646.58,-146.96 517.7,-142.14"/>
<polygon fill="midnightblue" stroke="midnightblue" points="517.62,-138.63 507.5,-141.77 517.37,-145.63 517.62,-138.63"/>
</g>
<!-- Node27&#45;&gt;Node28 -->
<g id="edge40" class="edge">
<title>Node27&#45;&gt;Node28</title>
<path fill="none" stroke="midnightblue" d="M1162.61,-190.48C1173.58,-182.42 1190.45,-170.02 1204.81,-159.47"/>
<polygon fill="midnightblue" stroke="midnightblue" points="1206.92,-162.26 1212.91,-153.52 1202.78,-156.62 1206.92,-162.26"/>
</g>
<!-- Node29 -->
<g id="node29" class="node">
<title>Node29</title>
<g id="a_node29"><a xlink:title=" ">
<polygon fill="none" stroke="#bfbfbf" points="1116.5,-62 1116.5,-81 1215.5,-81 1215.5,-62 1116.5,-62"/>
<text text-anchor="middle" x="1166" y="-69" font-family="Helvetica,sans-Serif" font-size="10.00">spdlog/fmt/ostr.h</text>
</a>
</g>
</g>
<!-- Node28&#45;&gt;Node29 -->
<g id="edge41" class="edge">
<title>Node28&#45;&gt;Node29</title>
<path fill="none" stroke="midnightblue" d="M1217.68,-123.4C1207.18,-113.06 1192.93,-99.02 1182.05,-88.31"/>
<polygon fill="midnightblue" stroke="midnightblue" points="1184.41,-85.72 1174.83,-81.19 1179.5,-90.71 1184.41,-85.72"/>
</g>
<!-- Node30 -->
<g id="node30" class="node">
<title>Node30</title>
<g id="a_node30"><a xlink:title=" ">
<polygon fill="none" stroke="#bfbfbf" points="1233.5,-62 1233.5,-81 1326.5,-81 1326.5,-62 1233.5,-62"/>
<text text-anchor="middle" x="1280" y="-69" font-family="Helvetica,sans-Serif" font-size="10.00">spdlog/spdlog.h</text>
</a>
</g>
</g>
<!-- Node28&#45;&gt;Node30 -->
<g id="edge42" class="edge">
<title>Node28&#45;&gt;Node30</title>
<path fill="none" stroke="midnightblue" d="M1242.42,-123.4C1249.83,-113.36 1259.81,-99.84 1267.63,-89.25"/>
<polygon fill="midnightblue" stroke="midnightblue" points="1270.45,-91.32 1273.58,-81.19 1264.82,-87.16 1270.45,-91.32"/>
</g>
</g>
</svg>
