<?xml version="1.0" encoding="UTF-8" standalone="no"?>
<!DOCTYPE svg PUBLIC "-//W3C//DTD SVG 1.1//EN"
 "http://www.w3.org/Graphics/SVG/1.1/DTD/svg11.dtd">
<!-- Generated by graphviz version 2.43.0 (0)
 -->
<!-- Title: ParametersHandler/YarpImplementation/include/BipedalLocomotion/ParametersHandler/YarpImplementation.h Pages: 1 -->
<!--zoomable 419 -->
<svg id="main" version="1.1" xmlns="http://www.w3.org/2000/svg" xmlns:xlink="http://www.w3.org/1999/xlink" xml:space="preserve" onload="init(evt)">
<style type="text/css"><![CDATA[
.edge:hover path { stroke: red; }
.edge:hover polygon { stroke: red; fill: red; }
]]></style>
<script type="text/javascript"><![CDATA[
var edges = document.getElementsByTagName('g');
if (edges && edges.length) {
  for (var i=0;i<edges.length;i++) {
    if (edges[i].id.substr(0,4)=='edge') {
      edges[i].setAttribute('class','edge');
    }
  }
}
]]></script>
        <defs>
                <circle id="rim" cx="0" cy="0" r="7"/>
                <circle id="rim2" cx="0" cy="0" r="3.5"/>
                <g id="zoomPlus">
                        <use xlink:href="#rim" fill="#404040">
                                <set attributeName="fill" to="#808080" begin="zoomplus.mouseover" end="zoomplus.mouseout"/>
                        </use>
                        <path d="M-4,0h8M0,-4v8" fill="none" stroke="white" stroke-width="1.5" pointer-events="none"/>
                </g>
                <g id="zoomMin">
                        <use xlink:href="#rim" fill="#404040">
                                <set attributeName="fill" to="#808080" begin="zoomminus.mouseover" end="zoomminus.mouseout"/>
                        </use>
                        <path d="M-4,0h8" fill="none" stroke="white" stroke-width="1.5" pointer-events="none"/>
                </g>
                <g id="dirArrow">
                        <path fill="none" stroke="white" stroke-width="1.5" d="M0,-3.0v7 M-2.5,-0.5L0,-3.0L2.5,-0.5"/>
                </g>
               <g id="resetDef">
                       <use xlink:href="#rim2" fill="#404040">
                               <set attributeName="fill" to="#808080" begin="reset.mouseover" end="reset.mouseout"/>
                       </use>
               </g>
        </defs>

<script type="text/javascript">
var viewWidth = 1144;
var viewHeight = 419;
var sectionId = 'dynsection-0';
</script>
<script xlink:href="svgpan.js"/>
<svg id="graph" class="graph">
<g id="viewport">
<title>ParametersHandler/YarpImplementation/include/BipedalLocomotion/ParametersHandler/YarpImplementation.h</title>
<!-- Node1 -->
<g id="node1" class="node">
<title>Node1</title>
<g id="a_node1"><a xlink:title=" ">
<polygon fill="#bfbfbf" stroke="black" points="314,-369.5 314,-410.5 562,-410.5 562,-369.5 314,-369.5"/>
<text text-anchor="start" x="322" y="-398.5" font-family="Helvetica,sans-Serif" font-size="10.00">ParametersHandler/YarpImplementation</text>
<text text-anchor="start" x="322" y="-387.5" font-family="Helvetica,sans-Serif" font-size="10.00">/include/BipedalLocomotion/ParametersHandler</text>
<text text-anchor="middle" x="438" y="-376.5" font-family="Helvetica,sans-Serif" font-size="10.00">/YarpImplementation.h</text>
</a>
</g>
</g>
<!-- Node2 -->
<g id="node2" class="node">
<title>Node2</title>
<g id="a_node2"><a xlink:title=" ">
<polygon fill="none" stroke="#bfbfbf" points="0,-62 0,-81 58,-81 58,-62 0,-62"/>
<text text-anchor="middle" x="29" y="-69" font-family="Helvetica,sans-Serif" font-size="10.00">memory</text>
</a>
</g>
</g>
<!-- Node1&#45;&gt;Node2 -->
<g id="edge1" class="edge">
<title>Node1&#45;&gt;Node2</title>
<path fill="none" stroke="midnightblue" d="M313.9,-374.83C193.54,-357.53 29,-322.84 29,-262.5 29,-262.5 29,-262.5 29,-199 29,-160.7 29,-115.88 29,-91.2"/>
<polygon fill="midnightblue" stroke="midnightblue" points="32.5,-91.09 29,-81.09 25.5,-91.09 32.5,-91.09"/>
</g>
<!-- Node3 -->
<g id="node3" class="node">
<title>Node3</title>
<g id="a_node3"><a xlink:title=" ">
<polygon fill="none" stroke="#bfbfbf" points="171,-190.5 171,-209.5 215,-209.5 215,-190.5 171,-190.5"/>
<text text-anchor="middle" x="193" y="-197.5" font-family="Helvetica,sans-Serif" font-size="10.00">string</text>
</a>
</g>
</g>
<!-- Node1&#45;&gt;Node3 -->
<g id="edge2" class="edge">
<title>Node1&#45;&gt;Node3</title>
<path fill="none" stroke="midnightblue" d="M404.72,-369.26C387.95,-358.96 367.52,-345.85 350,-333 296.69,-293.89 238.12,-242.08 209.97,-216.56"/>
<polygon fill="midnightblue" stroke="midnightblue" points="212.3,-213.95 202.55,-209.81 207.59,-219.13 212.3,-213.95"/>
</g>
<!-- Node4 -->
<g id="node4" class="node">
<title>Node4</title>
<g id="a_node4"><a xlink:title=" ">
<polygon fill="none" stroke="#bfbfbf" points="523.5,-313.5 523.5,-332.5 616.5,-332.5 616.5,-313.5 523.5,-313.5"/>
<text text-anchor="middle" x="570" y="-320.5" font-family="Helvetica,sans-Serif" font-size="10.00">unordered_map</text>
</a>
</g>
</g>
<!-- Node1&#45;&gt;Node4 -->
<g id="edge3" class="edge">
<title>Node1&#45;&gt;Node4</title>
<path fill="none" stroke="midnightblue" d="M477.6,-369.5C498.82,-359.05 524.38,-346.46 543.24,-337.18"/>
<polygon fill="midnightblue" stroke="midnightblue" points="545,-340.21 552.43,-332.65 541.91,-333.93 545,-340.21"/>
</g>
<!-- Node5 -->
<g id="node5" class="node">
<title>Node5</title>
<g id="a_node5"><a xlink:title=" ">
<polygon fill="none" stroke="#bfbfbf" points="635,-313.5 635,-332.5 729,-332.5 729,-313.5 635,-313.5"/>
<text text-anchor="middle" x="682" y="-320.5" font-family="Helvetica,sans-Serif" font-size="10.00">yarp/os/Bottle.h</text>
</a>
</g>
</g>
<!-- Node1&#45;&gt;Node5 -->
<g id="edge4" class="edge">
<title>Node1&#45;&gt;Node5</title>
<path fill="none" stroke="midnightblue" d="M511.21,-369.5C553.24,-358.3 604.53,-344.64 639.87,-335.22"/>
<polygon fill="midnightblue" stroke="midnightblue" points="641.08,-338.52 649.84,-332.57 639.28,-331.76 641.08,-338.52"/>
</g>
<!-- Node6 -->
<g id="node6" class="node">
<title>Node6</title>
<g id="a_node6"><a xlink:title=" ">
<polygon fill="none" stroke="#bfbfbf" points="299,-190.5 299,-209.5 403,-209.5 403,-190.5 299,-190.5"/>
<text text-anchor="middle" x="351" y="-197.5" font-family="Helvetica,sans-Serif" font-size="10.00">yarp/os/Property.h</text>
</a>
</g>
</g>
<!-- Node1&#45;&gt;Node6 -->
<g id="edge5" class="edge">
<title>Node1&#45;&gt;Node6</title>
<path fill="none" stroke="midnightblue" d="M399.03,-369.47C384.96,-360.37 370.47,-348.17 362,-333 341.88,-296.99 344.56,-246.64 347.96,-219.72"/>
<polygon fill="midnightblue" stroke="midnightblue" points="351.44,-220.13 349.4,-209.73 344.51,-219.13 351.44,-220.13"/>
</g>
<!-- Node7 -->
<g id="node7" class="node">
<title>Node7</title>
<g id="a_node7"><a xlink:title=" ">
<polygon fill="none" stroke="#bfbfbf" points="747.5,-313.5 747.5,-332.5 866.5,-332.5 866.5,-313.5 747.5,-313.5"/>
<text text-anchor="middle" x="807" y="-320.5" font-family="Helvetica,sans-Serif" font-size="10.00">yarp/os/Searchable.h</text>
</a>
</g>
</g>
<!-- Node1&#45;&gt;Node7 -->
<g id="edge6" class="edge">
<title>Node1&#45;&gt;Node7</title>
<path fill="none" stroke="midnightblue" d="M548.71,-369.5C614.33,-357.94 694.85,-343.76 748.37,-334.33"/>
<polygon fill="midnightblue" stroke="midnightblue" points="749.12,-337.75 758.37,-332.57 747.91,-330.86 749.12,-337.75"/>
</g>
<!-- Node8 -->
<g id="node8" class="node">
<title>Node8</title>
<g id="a_node8"><a xlink:href="IParametersHandler_8h.html" target="_top" xlink:title=" ">
<polygon fill="none" stroke="black" points="65.5,-246.5 65.5,-276.5 234.5,-276.5 234.5,-246.5 65.5,-246.5"/>
<text text-anchor="start" x="73.5" y="-264.5" font-family="Helvetica,sans-Serif" font-size="10.00">BipedalLocomotion/Parameters</text>
<text text-anchor="middle" x="150" y="-253.5" font-family="Helvetica,sans-Serif" font-size="10.00">Handler/IParametersHandler.h</text>
</a>
</g>
</g>
<!-- Node1&#45;&gt;Node8 -->
<g id="edge7" class="edge">
<title>Node1&#45;&gt;Node8</title>
<path fill="none" stroke="midnightblue" d="M361.9,-369.38C330.31,-360.06 293.7,-347.73 262,-333 231.46,-318.81 199.19,-297.77 177.17,-282.36"/>
<polygon fill="midnightblue" stroke="midnightblue" points="179.15,-279.48 168.97,-276.56 175.11,-285.19 179.15,-279.48"/>
</g>
<!-- Node19 -->
<g id="node19" class="node">
<title>Node19</title>
<g id="a_node19"><a xlink:href="YarpImplementation_8tpp.html" target="_top" xlink:title=" ">
<polygon fill="none" stroke="black" points="371,-313.5 371,-332.5 505,-332.5 505,-313.5 371,-313.5"/>
<text text-anchor="middle" x="438" y="-320.5" font-family="Helvetica,sans-Serif" font-size="10.00">YarpImplementation.tpp</text>
</a>
</g>
</g>
<!-- Node1&#45;&gt;Node19 -->
<g id="edge22" class="edge">
<title>Node1&#45;&gt;Node19</title>
<path fill="none" stroke="midnightblue" d="M431.75,-369.5C431.06,-360.97 431.08,-351.01 431.83,-342.59"/>
<polygon fill="midnightblue" stroke="midnightblue" points="435.3,-343.04 433.24,-332.65 428.37,-342.06 435.3,-343.04"/>
</g>
<!-- Node8&#45;&gt;Node2 -->
<g id="edge8" class="edge">
<title>Node8&#45;&gt;Node2</title>
<path fill="none" stroke="midnightblue" d="M140.91,-246.37C119.11,-212.51 63.94,-126.79 40.18,-89.87"/>
<polygon fill="midnightblue" stroke="midnightblue" points="42.96,-87.72 34.6,-81.21 37.07,-91.51 42.96,-87.72"/>
</g>
<!-- Node8&#45;&gt;Node3 -->
<g id="edge9" class="edge">
<title>Node8&#45;&gt;Node3</title>
<path fill="none" stroke="midnightblue" d="M160.19,-246.4C166.37,-237.84 174.3,-226.87 180.82,-217.86"/>
<polygon fill="midnightblue" stroke="midnightblue" points="183.72,-219.81 186.74,-209.66 178.05,-215.71 183.72,-219.81"/>
</g>
<!-- Node9 -->
<g id="node9" class="node">
<title>Node9</title>
<g id="a_node9"><a xlink:title=" ">
<polygon fill="none" stroke="#bfbfbf" points="233.5,-190.5 233.5,-209.5 280.5,-209.5 280.5,-190.5 233.5,-190.5"/>
<text text-anchor="middle" x="257" y="-197.5" font-family="Helvetica,sans-Serif" font-size="10.00">vector</text>
</a>
</g>
</g>
<!-- Node8&#45;&gt;Node9 -->
<g id="edge10" class="edge">
<title>Node8&#45;&gt;Node9</title>
<path fill="none" stroke="midnightblue" d="M175.36,-246.4C192.67,-236.77 215.48,-224.09 232.58,-214.58"/>
<polygon fill="midnightblue" stroke="midnightblue" points="234.39,-217.58 241.43,-209.66 230.99,-211.46 234.39,-217.58"/>
</g>
<!-- Node10 -->
<g id="node10" class="node">
<title>Node10</title>
<g id="a_node10"><a xlink:href="TemplateHelpers_8h_source.html" target="_top" xlink:title=" ">
<polygon fill="none" stroke="black" points="76,-56.5 76,-86.5 234,-86.5 234,-56.5 76,-56.5"/>
<text text-anchor="start" x="84" y="-74.5" font-family="Helvetica,sans-Serif" font-size="10.00">BipedalLocomotion/Generic</text>
<text text-anchor="middle" x="155" y="-63.5" font-family="Helvetica,sans-Serif" font-size="10.00">Container/TemplateHelpers.h</text>
</a>
</g>
</g>
<!-- Node8&#45;&gt;Node10 -->
<g id="edge11" class="edge">
<title>Node8&#45;&gt;Node10</title>
<path fill="none" stroke="midnightblue" d="M149.29,-246.36C148.82,-236.23 148.24,-222.28 148,-210 147.21,-170.3 150.4,-124.23 152.73,-96.77"/>
<polygon fill="midnightblue" stroke="midnightblue" points="156.24,-96.81 153.63,-86.54 149.26,-96.2 156.24,-96.81"/>
</g>
<!-- Node14 -->
<g id="node14" class="node">
<title>Node14</title>
<g id="a_node14"><a xlink:href="Vector_8h_source.html" target="_top" xlink:title=" ">
<polygon fill="none" stroke="black" points="291.5,-123.5 291.5,-153.5 442.5,-153.5 442.5,-123.5 291.5,-123.5"/>
<text text-anchor="start" x="299.5" y="-141.5" font-family="Helvetica,sans-Serif" font-size="10.00">BipedalLocomotion/Generic</text>
<text text-anchor="middle" x="367" y="-130.5" font-family="Helvetica,sans-Serif" font-size="10.00">Container/Vector.h</text>
</a>
</g>
</g>
<!-- Node8&#45;&gt;Node14 -->
<g id="edge15" class="edge">
<title>Node8&#45;&gt;Node14</title>
<path fill="none" stroke="midnightblue" d="M148.22,-246.37C147.08,-230.56 147.88,-205.19 162,-190 178.52,-172.23 232.77,-159.33 281.31,-151.02"/>
<polygon fill="midnightblue" stroke="midnightblue" points="281.96,-154.46 291.25,-149.37 280.81,-147.56 281.96,-154.46"/>
</g>
<!-- Node11 -->
<g id="node11" class="node">
<title>Node11</title>
<g id="a_node11"><a xlink:title=" ">
<polygon fill="none" stroke="#bfbfbf" points="597.5,-0.5 597.5,-19.5 666.5,-19.5 666.5,-0.5 597.5,-0.5"/>
<text text-anchor="middle" x="632" y="-7.5" font-family="Helvetica,sans-Serif" font-size="10.00">type_traits</text>
</a>
</g>
</g>
<!-- Node10&#45;&gt;Node11 -->
<g id="edge12" class="edge">
<title>Node10&#45;&gt;Node11</title>
<path fill="none" stroke="midnightblue" d="M234.16,-57.13C236.8,-56.74 239.42,-56.36 242,-56 366.79,-38.41 514.78,-22.75 587.35,-15.41"/>
<polygon fill="midnightblue" stroke="midnightblue" points="587.89,-18.88 597.49,-14.39 587.19,-11.91 587.89,-18.88"/>
</g>
<!-- Node12 -->
<g id="node12" class="node">
<title>Node12</title>
<g id="a_node12"><a xlink:title=" ">
<polygon fill="none" stroke="#bfbfbf" points="162.5,-0.5 162.5,-19.5 235.5,-19.5 235.5,-0.5 162.5,-0.5"/>
<text text-anchor="middle" x="199" y="-7.5" font-family="Helvetica,sans-Serif" font-size="10.00">string_view</text>
</a>
</g>
</g>
<!-- Node10&#45;&gt;Node12 -->
<g id="edge13" class="edge">
<title>Node10&#45;&gt;Node12</title>
<path fill="none" stroke="midnightblue" d="M165.43,-56.4C171.76,-47.84 179.87,-36.87 186.53,-27.86"/>
<polygon fill="midnightblue" stroke="midnightblue" points="189.47,-29.78 192.6,-19.66 183.84,-25.62 189.47,-29.78"/>
</g>
<!-- Node13 -->
<g id="node13" class="node">
<title>Node13</title>
<g id="a_node13"><a xlink:title=" ">
<polygon fill="none" stroke="#bfbfbf" points="75.5,-0.5 75.5,-19.5 144.5,-19.5 144.5,-0.5 75.5,-0.5"/>
<text text-anchor="middle" x="110" y="-7.5" font-family="Helvetica,sans-Serif" font-size="10.00">Eigen/Core</text>
</a>
</g>
</g>
<!-- Node10&#45;&gt;Node13 -->
<g id="edge14" class="edge">
<title>Node10&#45;&gt;Node13</title>
<path fill="none" stroke="midnightblue" d="M144.34,-56.4C137.86,-47.84 129.57,-36.87 122.75,-27.86"/>
<polygon fill="midnightblue" stroke="midnightblue" points="125.37,-25.52 116.55,-19.66 119.79,-29.74 125.37,-25.52"/>
</g>
<!-- Node14&#45;&gt;Node2 -->
<g id="edge21" class="edge">
<title>Node14&#45;&gt;Node2</title>
<path fill="none" stroke="midnightblue" d="M291.21,-128.96C230.01,-121.06 142.04,-107.42 67,-87 64.34,-86.28 61.62,-85.44 58.9,-84.54"/>
<polygon fill="midnightblue" stroke="midnightblue" points="59.86,-81.16 49.26,-81.08 57.5,-87.75 59.86,-81.16"/>
</g>
<!-- Node14&#45;&gt;Node10 -->
<g id="edge17" class="edge">
<title>Node14&#45;&gt;Node10</title>
<path fill="none" stroke="midnightblue" d="M321.26,-123.48C288.91,-113.56 245.35,-100.2 210.93,-89.65"/>
<polygon fill="midnightblue" stroke="midnightblue" points="211.61,-86.2 201.02,-86.61 209.56,-92.89 211.61,-86.2"/>
</g>
<!-- Node15 -->
<g id="node15" class="node">
<title>Node15</title>
<g id="a_node15"><a xlink:title=" ">
<polygon fill="none" stroke="#bfbfbf" points="251.5,-62 251.5,-81 372.5,-81 372.5,-62 251.5,-62"/>
<text text-anchor="middle" x="312" y="-69" font-family="Helvetica,sans-Serif" font-size="10.00">iDynTree/Core/Span.h</text>
</a>
</g>
</g>
<!-- Node14&#45;&gt;Node15 -->
<g id="edge16" class="edge">
<title>Node14&#45;&gt;Node15</title>
<path fill="none" stroke="midnightblue" d="M355.07,-123.4C346.49,-113.26 334.9,-99.57 325.91,-88.94"/>
<polygon fill="midnightblue" stroke="midnightblue" points="328.49,-86.57 319.36,-81.19 323.14,-91.09 328.49,-86.57"/>
</g>
<!-- Node16 -->
<g id="node16" class="node">
<title>Node16</title>
<g id="a_node16"><a xlink:title=" ">
<polygon fill="none" stroke="#bfbfbf" points="390.5,-62 390.5,-81 455.5,-81 455.5,-62 390.5,-62"/>
<text text-anchor="middle" x="423" y="-69" font-family="Helvetica,sans-Serif" font-size="10.00">functional</text>
</a>
</g>
</g>
<!-- Node14&#45;&gt;Node16 -->
<g id="edge18" class="edge">
<title>Node14&#45;&gt;Node16</title>
<path fill="none" stroke="midnightblue" d="M379.15,-123.4C387.88,-113.26 399.68,-99.57 408.84,-88.94"/>
<polygon fill="midnightblue" stroke="midnightblue" points="411.63,-91.06 415.51,-81.19 406.33,-86.49 411.63,-91.06"/>
</g>
<!-- Node17 -->
<g id="node17" class="node">
<title>Node17</title>
<g id="a_node17"><a xlink:title=" ">
<polygon fill="none" stroke="#bfbfbf" points="474,-62 474,-81 526,-81 526,-62 474,-62"/>
<text text-anchor="middle" x="500" y="-69" font-family="Helvetica,sans-Serif" font-size="10.00">cassert</text>
</a>
</g>
</g>
<!-- Node14&#45;&gt;Node17 -->
<g id="edge19" class="edge">
<title>Node14&#45;&gt;Node17</title>
<path fill="none" stroke="midnightblue" d="M395.86,-123.4C418.89,-112.14 450.89,-96.5 473.32,-85.54"/>
<polygon fill="midnightblue" stroke="midnightblue" points="475.15,-88.54 482.59,-81.01 472.07,-82.25 475.15,-88.54"/>
</g>
<!-- Node18 -->
<g id="node18" class="node">
<title>Node18</title>
<g id="a_node18"><a xlink:title=" ">
<polygon fill="none" stroke="#bfbfbf" points="544,-62 544,-81 604,-81 604,-62 544,-62"/>
<text text-anchor="middle" x="574" y="-69" font-family="Helvetica,sans-Serif" font-size="10.00">iostream</text>
</a>
</g>
</g>
<!-- Node14&#45;&gt;Node18 -->
<g id="edge20" class="edge">
<title>Node14&#45;&gt;Node18</title>
<path fill="none" stroke="midnightblue" d="M416.88,-123.41C450.44,-113.71 495.59,-100.23 535,-87 537.4,-86.2 539.87,-85.34 542.35,-84.46"/>
<polygon fill="midnightblue" stroke="midnightblue" points="543.61,-87.73 551.81,-81.03 541.22,-81.15 543.61,-87.73"/>
</g>
<!-- Node19&#45;&gt;Node1 -->
<g id="edge39" class="edge">
<title>Node19&#45;&gt;Node1</title>
<path fill="none" stroke="midnightblue" d="M442.76,-332.65C444.23,-339.52 444.88,-349.56 444.73,-359.26"/>
<polygon fill="midnightblue" stroke="midnightblue" points="441.22,-359.34 444.25,-369.5 448.21,-359.67 441.22,-359.34"/>
</g>
<!-- Node19&#45;&gt;Node11 -->
<g id="edge23" class="edge">
<title>Node19&#45;&gt;Node11</title>
<path fill="none" stroke="midnightblue" d="M505.24,-313.86C680.18,-292.22 1136,-232.8 1136,-201 1136,-201 1136,-201 1136,-137.5 1136,-43.27 800.36,-18.59 676.88,-12.7"/>
<polygon fill="midnightblue" stroke="midnightblue" points="676.79,-9.19 666.64,-12.23 676.47,-16.19 676.79,-9.19"/>
</g>
<!-- Node20 -->
<g id="node20" class="node">
<title>Node20</title>
<g id="a_node20"><a xlink:href="Helper_8h.html" target="_top" xlink:title=" ">
<polygon fill="none" stroke="black" points="444,-246.5 444,-276.5 616,-276.5 616,-246.5 444,-246.5"/>
<text text-anchor="start" x="452" y="-264.5" font-family="Helvetica,sans-Serif" font-size="10.00">BipedalLocomotion/YarpUtilities</text>
<text text-anchor="middle" x="530" y="-253.5" font-family="Helvetica,sans-Serif" font-size="10.00">/Helper.h</text>
</a>
</g>
</g>
<!-- Node19&#45;&gt;Node20 -->
<g id="edge24" class="edge">
<title>Node19&#45;&gt;Node20</title>
<path fill="none" stroke="midnightblue" d="M451.18,-313.48C463.76,-305.34 483.16,-292.79 499.57,-282.18"/>
<polygon fill="midnightblue" stroke="midnightblue" points="501.82,-284.89 508.32,-276.52 498.02,-279.01 501.82,-284.89"/>
</g>
<!-- Node20&#45;&gt;Node6 -->
<g id="edge28" class="edge">
<title>Node20&#45;&gt;Node6</title>
<path fill="none" stroke="midnightblue" d="M487.58,-246.4C456.78,-236.16 415.59,-222.47 386.52,-212.81"/>
<polygon fill="midnightblue" stroke="midnightblue" points="387.38,-209.4 376.78,-209.57 385.17,-216.05 387.38,-209.4"/>
</g>
<!-- Node20&#45;&gt;Node9 -->
<g id="edge26" class="edge">
<title>Node20&#45;&gt;Node9</title>
<path fill="none" stroke="midnightblue" d="M457.81,-246.46C412.46,-237.38 352.54,-224.88 290.69,-210.06"/>
<polygon fill="midnightblue" stroke="midnightblue" points="291.29,-206.6 280.75,-207.66 289.65,-213.41 291.29,-206.6"/>
</g>
<!-- Node21 -->
<g id="node21" class="node">
<title>Node21</title>
<g id="a_node21"><a xlink:title=" ">
<polygon fill="none" stroke="#bfbfbf" points="506.5,-190.5 506.5,-209.5 553.5,-209.5 553.5,-190.5 506.5,-190.5"/>
<text text-anchor="middle" x="530" y="-197.5" font-family="Helvetica,sans-Serif" font-size="10.00">deque</text>
</a>
</g>
</g>
<!-- Node20&#45;&gt;Node21 -->
<g id="edge25" class="edge">
<title>Node20&#45;&gt;Node21</title>
<path fill="none" stroke="midnightblue" d="M530,-246.4C530,-238.47 530,-228.46 530,-219.86"/>
<polygon fill="midnightblue" stroke="midnightblue" points="533.5,-219.66 530,-209.66 526.5,-219.66 533.5,-219.66"/>
</g>
<!-- Node22 -->
<g id="node22" class="node">
<title>Node22</title>
<g id="a_node22"><a xlink:title=" ">
<polygon fill="none" stroke="#bfbfbf" points="571.5,-190.5 571.5,-209.5 696.5,-209.5 696.5,-190.5 571.5,-190.5"/>
<text text-anchor="middle" x="634" y="-197.5" font-family="Helvetica,sans-Serif" font-size="10.00">yarp/os/BufferedPort.h</text>
</a>
</g>
</g>
<!-- Node20&#45;&gt;Node22 -->
<g id="edge27" class="edge">
<title>Node20&#45;&gt;Node22</title>
<path fill="none" stroke="midnightblue" d="M554.65,-246.4C571.32,-236.86 593.23,-224.32 609.81,-214.84"/>
<polygon fill="midnightblue" stroke="midnightblue" points="611.93,-217.66 618.87,-209.66 608.45,-211.59 611.93,-217.66"/>
</g>
<!-- Node23 -->
<g id="node23" class="node">
<title>Node23</title>
<g id="a_node23"><a xlink:title=" ">
<polygon fill="none" stroke="#bfbfbf" points="715,-190.5 715,-209.5 807,-209.5 807,-190.5 715,-190.5"/>
<text text-anchor="middle" x="761" y="-197.5" font-family="Helvetica,sans-Serif" font-size="10.00">yarp/os/Value.h</text>
</a>
</g>
</g>
<!-- Node20&#45;&gt;Node23 -->
<g id="edge29" class="edge">
<title>Node20&#45;&gt;Node23</title>
<path fill="none" stroke="midnightblue" d="M584.45,-246.47C625.17,-235.99 680.1,-221.84 717.82,-212.12"/>
<polygon fill="midnightblue" stroke="midnightblue" points="719.16,-215.39 727.98,-209.51 717.42,-208.61 719.16,-215.39"/>
</g>
<!-- Node24 -->
<g id="node24" class="node">
<title>Node24</title>
<g id="a_node24"><a xlink:title=" ">
<polygon fill="none" stroke="#bfbfbf" points="825,-190.5 825,-209.5 923,-209.5 923,-190.5 825,-190.5"/>
<text text-anchor="middle" x="874" y="-197.5" font-family="Helvetica,sans-Serif" font-size="10.00">yarp/sig/Vector.h</text>
</a>
</g>
</g>
<!-- Node20&#45;&gt;Node24 -->
<g id="edge30" class="edge">
<title>Node20&#45;&gt;Node24</title>
<path fill="none" stroke="midnightblue" d="M611.09,-246.47C673.54,-235.67 758.45,-220.99 814.67,-211.26"/>
<polygon fill="midnightblue" stroke="midnightblue" points="815.56,-214.66 824.82,-209.51 814.37,-207.76 815.56,-214.66"/>
</g>
<!-- Node25 -->
<g id="node25" class="node">
<title>Node25</title>
<g id="a_node25"><a xlink:title=" ">
<polygon fill="none" stroke="#bfbfbf" points="941.5,-190.5 941.5,-209.5 1108.5,-209.5 1108.5,-190.5 941.5,-190.5"/>
<text text-anchor="middle" x="1025" y="-197.5" font-family="Helvetica,sans-Serif" font-size="10.00">iDynTree/Core/VectorDynSize.h</text>
</a>
</g>
</g>
<!-- Node20&#45;&gt;Node25 -->
<g id="edge31" class="edge">
<title>Node20&#45;&gt;Node25</title>
<path fill="none" stroke="midnightblue" d="M616.22,-250.14C708.51,-239.04 853.77,-221.58 944,-210.74"/>
<polygon fill="midnightblue" stroke="midnightblue" points="944.67,-214.18 954.18,-209.51 943.83,-207.23 944.67,-214.18"/>
</g>
<!-- Node26 -->
<g id="node26" class="node">
<title>Node26</title>
<g id="a_node26"><a xlink:href="Helper_8tpp.html" target="_top" xlink:title=" ">
<polygon fill="none" stroke="black" points="421.5,-190.5 421.5,-209.5 488.5,-209.5 488.5,-190.5 421.5,-190.5"/>
<text text-anchor="middle" x="455" y="-197.5" font-family="Helvetica,sans-Serif" font-size="10.00">Helper.tpp</text>
</a>
</g>
</g>
<!-- Node20&#45;&gt;Node26 -->
<g id="edge32" class="edge">
<title>Node20&#45;&gt;Node26</title>
<path fill="none" stroke="midnightblue" d="M512.23,-246.4C500.65,-237.22 485.58,-225.26 473.8,-215.92"/>
<polygon fill="midnightblue" stroke="midnightblue" points="475.92,-213.13 465.91,-209.66 471.57,-218.61 475.92,-213.13"/>
</g>
<!-- Node26&#45;&gt;Node10 -->
<g id="edge34" class="edge">
<title>Node26&#45;&gt;Node10</title>
<path fill="none" stroke="midnightblue" d="M421.47,-191.61C378.59,-181.92 306.88,-164.89 282,-154 244.64,-137.65 205.76,-111.06 181.02,-92.72"/>
<polygon fill="midnightblue" stroke="midnightblue" points="182.99,-89.81 172.89,-86.6 178.78,-95.41 182.99,-89.81"/>
</g>
<!-- Node26&#45;&gt;Node11 -->
<g id="edge33" class="edge">
<title>Node26&#45;&gt;Node11</title>
<path fill="none" stroke="midnightblue" d="M475.24,-190.41C509.2,-174.94 577.43,-139.05 613,-87 624.72,-69.85 629.22,-46.11 630.94,-29.75"/>
<polygon fill="midnightblue" stroke="midnightblue" points="634.43,-30.02 631.74,-19.77 627.45,-29.46 634.43,-30.02"/>
</g>
<!-- Node26&#45;&gt;Node14 -->
<g id="edge35" class="edge">
<title>Node26&#45;&gt;Node14</title>
<path fill="none" stroke="midnightblue" d="M442.39,-190.48C430.36,-182.34 411.8,-169.79 396.1,-159.18"/>
<polygon fill="midnightblue" stroke="midnightblue" points="397.98,-156.22 387.74,-153.52 394.06,-162.02 397.98,-156.22"/>
</g>
<!-- Node27 -->
<g id="node27" class="node">
<title>Node27</title>
<g id="a_node27"><a xlink:href="Logger_8h.html" target="_top" xlink:title=" ">
<polygon fill="none" stroke="black" points="660,-123.5 660,-153.5 832,-153.5 832,-123.5 660,-123.5"/>
<text text-anchor="start" x="668" y="-141.5" font-family="Helvetica,sans-Serif" font-size="10.00">BipedalLocomotion/TextLogging</text>
<text text-anchor="middle" x="746" y="-130.5" font-family="Helvetica,sans-Serif" font-size="10.00">/Logger.h</text>
</a>
</g>
</g>
<!-- Node26&#45;&gt;Node27 -->
<g id="edge36" class="edge">
<title>Node26&#45;&gt;Node27</title>
<path fill="none" stroke="midnightblue" d="M488.92,-191.7C491.65,-191.12 494.37,-190.55 497,-190 553.35,-178.25 616.96,-165.35 665.78,-155.54"/>
<polygon fill="midnightblue" stroke="midnightblue" points="666.54,-158.95 675.66,-153.55 665.16,-152.09 666.54,-158.95"/>
</g>
<!-- Node28 -->
<g id="node28" class="node">
<title>Node28</title>
<g id="a_node28"><a xlink:title=" ">
<polygon fill="none" stroke="#bfbfbf" points="678.5,-62 678.5,-81 777.5,-81 777.5,-62 678.5,-62"/>
<text text-anchor="middle" x="728" y="-69" font-family="Helvetica,sans-Serif" font-size="10.00">spdlog/fmt/ostr.h</text>
</a>
</g>
</g>
<!-- Node27&#45;&gt;Node28 -->
<g id="edge37" class="edge">
<title>Node27&#45;&gt;Node28</title>
<path fill="none" stroke="midnightblue" d="M742.09,-123.4C739.45,-113.86 735.94,-101.18 733.08,-90.86"/>
<polygon fill="midnightblue" stroke="midnightblue" points="736.45,-89.9 730.41,-81.19 729.7,-91.77 736.45,-89.9"/>
</g>
<!-- Node29 -->
<g id="node29" class="node">
<title>Node29</title>
<g id="a_node29"><a xlink:title=" ">
<polygon fill="none" stroke="#bfbfbf" points="795.5,-62 795.5,-81 888.5,-81 888.5,-62 795.5,-62"/>
<text text-anchor="middle" x="842" y="-69" font-family="Helvetica,sans-Serif" font-size="10.00">spdlog/spdlog.h</text>
</a>
</g>
</g>
<!-- Node27&#45;&gt;Node29 -->
<g id="edge38" class="edge">
<title>Node27&#45;&gt;Node29</title>
<path fill="none" stroke="midnightblue" d="M766.83,-123.4C782.78,-112.6 804.7,-97.76 820.75,-86.89"/>
<polygon fill="midnightblue" stroke="midnightblue" points="823.12,-89.51 829.44,-81.01 819.19,-83.72 823.12,-89.51"/>
</g>
</g>
</svg>
        <g id="navigator" transform="translate(0 0)" fill="#404254">
                <rect fill="#f2f5e9" fill-opacity="0.5" stroke="#606060" stroke-width=".5" x="0" y="0" width="60" height="60"/>
                <use id="zoomplus" xlink:href="#zoomPlus" x="17" y="9" onmousedown="handleZoom(evt,'in')"/>
                <use id="zoomminus" xlink:href="#zoomMin" x="42" y="9" onmousedown="handleZoom(evt,'out')"/>
                <use id="reset" xlink:href="#resetDef" x="30" y="36" onmousedown="handleReset()"/>
                <g id="arrowUp" xlink:href="#dirArrow" transform="translate(30 24)" onmousedown="handlePan(0,-1)">
                  <use xlink:href="#rim" fill="#404040">
                        <set attributeName="fill" to="#808080" begin="arrowUp.mouseover" end="arrowUp.mouseout"/>
                  </use>
                  <path fill="none" stroke="white" stroke-width="1.5" d="M0,-3.0v7 M-2.5,-0.5L0,-3.0L2.5,-0.5"/>
                </g>
                <g id="arrowRight" xlink:href="#dirArrow" transform="rotate(90) translate(36 -43)" onmousedown="handlePan(1,0)">
                  <use xlink:href="#rim" fill="#404040">
                        <set attributeName="fill" to="#808080" begin="arrowRight.mouseover" end="arrowRight.mouseout"/>
                  </use>
                  <path fill="none" stroke="white" stroke-width="1.5" d="M0,-3.0v7 M-2.5,-0.5L0,-3.0L2.5,-0.5"/>
                </g>
                <g id="arrowDown" xlink:href="#dirArrow" transform="rotate(180) translate(-30 -48)" onmousedown="handlePan(0,1)">
                  <use xlink:href="#rim" fill="#404040">
                        <set attributeName="fill" to="#808080" begin="arrowDown.mouseover" end="arrowDown.mouseout"/>
                  </use>
                  <path fill="none" stroke="white" stroke-width="1.5" d="M0,-3.0v7 M-2.5,-0.5L0,-3.0L2.5,-0.5"/>
                </g>
                <g id="arrowLeft" xlink:href="#dirArrow" transform="rotate(270) translate(-36 17)" onmousedown="handlePan(-1,0)">
                  <use xlink:href="#rim" fill="#404040">
                        <set attributeName="fill" to="#808080" begin="arrowLeft.mouseover" end="arrowLeft.mouseout"/>
                  </use>
                  <path fill="none" stroke="white" stroke-width="1.5" d="M0,-3.0v7 M-2.5,-0.5L0,-3.0L2.5,-0.5"/>
                </g>
        </g>
        <svg viewBox="0 0 15 15" width="100%" height="30px" preserveAspectRatio="xMaxYMin meet">
         <g id="arrow_out" transform="scale(0.3 0.3)">
          <a xlink:href="YarpImplementation_8h__incl_org.svg" target="_base">
           <rect id="button" ry="5" rx="5" y="6" x="6" height="38" width="38"
                fill="#f2f5e9" fill-opacity="0.5" stroke="#606060" stroke-width="1.0"/>
           <path id="arrow"
             d="M 11.500037,31.436501 C 11.940474,20.09759 22.043105,11.32322 32.158766,21.979434 L 37.068811,17.246167 C 37.068811,17.246167 37.088388,32 37.088388,32 L 22.160133,31.978069 C 22.160133,31.978069 26.997745,27.140456 26.997745,27.140456 C 18.528582,18.264221 13.291696,25.230495 11.500037,31.436501 z"
             style="fill:#404040;"/>
          </a>
         </g>
        </svg>
</svg>
