<?xml version="1.0" encoding="UTF-8" standalone="no"?>
<!DOCTYPE svg PUBLIC "-//W3C//DTD SVG 1.1//EN"
 "http://www.w3.org/Graphics/SVG/1.1/DTD/svg11.dtd">
<!-- Generated by graphviz version 2.43.0 (0)
 -->
<!-- Title: System/YarpImplementation/include/BipedalLocomotion/System/YarpClock.h Pages: 1 -->
<svg width="320pt" height="173pt"
 viewBox="0.00 0.00 320.00 173.00" xmlns="http://www.w3.org/2000/svg" xmlns:xlink="http://www.w3.org/1999/xlink">
<g id="graph0" class="graph" transform="scale(1 1) rotate(0) translate(4 169)">
<title>System/YarpImplementation/include/BipedalLocomotion/System/YarpClock.h</title>
<!-- Node1 -->
<g id="node1" class="node">
<title>Node1</title>
<g id="a_node1"><a xlink:title=" ">
<polygon fill="#bfbfbf" stroke="black" points="100.5,-123.5 100.5,-164.5 255.5,-164.5 255.5,-123.5 100.5,-123.5"/>
<text text-anchor="start" x="108.5" y="-152.5" font-family="Helvetica,sans-Serif" font-size="10.00">System/YarpImplementation</text>
<text text-anchor="start" x="108.5" y="-141.5" font-family="Helvetica,sans-Serif" font-size="10.00">/include/BipedalLocomotion</text>
<text text-anchor="middle" x="178" y="-130.5" font-family="Helvetica,sans-Serif" font-size="10.00">/System/YarpClock.h</text>
</a>
</g>
</g>
<!-- Node2 -->
<g id="node2" class="node">
<title>Node2</title>
<g id="a_node2"><a xlink:href="IClock_8h.html" target="_top" xlink:title=" ">
<polygon fill="none" stroke="black" points="0,-56.5 0,-86.5 150,-86.5 150,-56.5 0,-56.5"/>
<text text-anchor="start" x="8" y="-74.5" font-family="Helvetica,sans-Serif" font-size="10.00">BipedalLocomotion/System</text>
<text text-anchor="middle" x="75" y="-63.5" font-family="Helvetica,sans-Serif" font-size="10.00">/IClock.h</text>
</a>
</g>
</g>
<!-- Node1&#45;&gt;Node2 -->
<g id="edge1" class="edge">
<title>Node1&#45;&gt;Node2</title>
<path fill="none" stroke="midnightblue" d="M149.31,-123.36C135.21,-113.71 118.25,-102.11 104.1,-92.42"/>
<polygon fill="midnightblue" stroke="midnightblue" points="105.93,-89.43 95.7,-86.67 101.98,-95.21 105.93,-89.43"/>
</g>
<!-- Node3 -->
<g id="node3" class="node">
<title>Node3</title>
<g id="a_node3"><a xlink:title=" ">
<polygon fill="none" stroke="#bfbfbf" points="101,-0.5 101,-19.5 151,-19.5 151,-0.5 101,-0.5"/>
<text text-anchor="middle" x="126" y="-7.5" font-family="Helvetica,sans-Serif" font-size="10.00">chrono</text>
</a>
</g>
</g>
<!-- Node1&#45;&gt;Node3 -->
<g id="edge4" class="edge">
<title>Node1&#45;&gt;Node3</title>
<path fill="none" stroke="midnightblue" d="M176.06,-123.26C173.74,-105.13 168.86,-77.84 159,-56 154.38,-45.75 147.16,-35.55 140.66,-27.46"/>
<polygon fill="midnightblue" stroke="midnightblue" points="143.16,-24.99 134.04,-19.6 137.81,-29.5 143.16,-24.99"/>
</g>
<!-- Node4 -->
<g id="node4" class="node">
<title>Node4</title>
<g id="a_node4"><a xlink:title=" ">
<polygon fill="none" stroke="#bfbfbf" points="206,-62 206,-81 312,-81 312,-62 206,-62"/>
<text text-anchor="middle" x="259" y="-69" font-family="Helvetica,sans-Serif" font-size="10.00">yarp/os/Network.h</text>
</a>
</g>
</g>
<!-- Node1&#45;&gt;Node4 -->
<g id="edge3" class="edge">
<title>Node1&#45;&gt;Node4</title>
<path fill="none" stroke="midnightblue" d="M200.56,-123.36C213.49,-112.11 229.48,-98.19 241.47,-87.76"/>
<polygon fill="midnightblue" stroke="midnightblue" points="243.79,-90.38 249.03,-81.17 239.19,-85.1 243.79,-90.38"/>
</g>
<!-- Node2&#45;&gt;Node3 -->
<g id="edge2" class="edge">
<title>Node2&#45;&gt;Node3</title>
<path fill="none" stroke="midnightblue" d="M87.09,-56.4C94.57,-47.66 104.22,-36.41 112.03,-27.3"/>
<polygon fill="midnightblue" stroke="midnightblue" points="114.73,-29.53 118.58,-19.66 109.41,-24.97 114.73,-29.53"/>
</g>
</g>
</svg>
