<?xml version="1.0" encoding="UTF-8" standalone="no"?>
<!DOCTYPE svg PUBLIC "-//W3C//DTD SVG 1.1//EN"
 "http://www.w3.org/Graphics/SVG/1.1/DTD/svg11.dtd">
<!-- Generated by graphviz version 2.43.0 (0)
 -->
<!-- Title: ParametersHandler/YarpImplementation/include/BipedalLocomotion/ParametersHandler/YarpImplementation.tpp Pages: 1 -->
<svg width="1508pt" height="374pt"
 viewBox="0.00 0.00 1507.50 374.00" xmlns="http://www.w3.org/2000/svg" xmlns:xlink="http://www.w3.org/1999/xlink">
<g id="graph0" class="graph" transform="scale(1 1) rotate(0) translate(4 370)">
<title>ParametersHandler/YarpImplementation/include/BipedalLocomotion/ParametersHandler/YarpImplementation.tpp</title>
<!-- Node1 -->
<g id="node1" class="node">
<title>Node1</title>
<g id="a_node1"><a xlink:title=" ">
<polygon fill="#bfbfbf" stroke="black" points="692,-324.5 692,-365.5 940,-365.5 940,-324.5 692,-324.5"/>
<text text-anchor="start" x="700" y="-353.5" font-family="Helvetica,sans-Serif" font-size="10.00">ParametersHandler/YarpImplementation</text>
<text text-anchor="start" x="700" y="-342.5" font-family="Helvetica,sans-Serif" font-size="10.00">/include/BipedalLocomotion/ParametersHandler</text>
<text text-anchor="middle" x="816" y="-331.5" font-family="Helvetica,sans-Serif" font-size="10.00">/YarpImplementation.tpp</text>
</a>
</g>
</g>
<!-- Node2 -->
<g id="node2" class="node">
<title>Node2</title>
<g id="a_node2"><a xlink:title=" ">
<polygon fill="none" stroke="#bfbfbf" points="15.5,-0.5 15.5,-19.5 84.5,-19.5 84.5,-0.5 15.5,-0.5"/>
<text text-anchor="middle" x="50" y="-7.5" font-family="Helvetica,sans-Serif" font-size="10.00">type_traits</text>
</a>
</g>
</g>
<!-- Node1&#45;&gt;Node2 -->
<g id="edge1" class="edge">
<title>Node1&#45;&gt;Node2</title>
<path fill="none" stroke="midnightblue" d="M691.62,-335.68C463.19,-318.71 0,-275.77 0,-206.5 0,-206.5 0,-206.5 0,-137.5 0,-95.99 23.57,-51.84 38.35,-28.25"/>
<polygon fill="midnightblue" stroke="midnightblue" points="41.37,-30.03 43.87,-19.73 35.49,-26.22 41.37,-30.03"/>
</g>
<!-- Node3 -->
<g id="node3" class="node">
<title>Node3</title>
<g id="a_node3"><a xlink:href="Helper_8h.html" target="_top" xlink:title=" ">
<polygon fill="none" stroke="black" points="481,-257.5 481,-287.5 653,-287.5 653,-257.5 481,-257.5"/>
<text text-anchor="start" x="489" y="-275.5" font-family="Helvetica,sans-Serif" font-size="10.00">BipedalLocomotion/YarpUtilities</text>
<text text-anchor="middle" x="567" y="-264.5" font-family="Helvetica,sans-Serif" font-size="10.00">/Helper.h</text>
</a>
</g>
</g>
<!-- Node1&#45;&gt;Node3 -->
<g id="edge2" class="edge">
<title>Node1&#45;&gt;Node3</title>
<path fill="none" stroke="midnightblue" d="M746.97,-324.46C709.21,-313.77 662.9,-300.65 626.71,-290.41"/>
<polygon fill="midnightblue" stroke="midnightblue" points="627.36,-286.95 616.79,-287.6 625.46,-293.69 627.36,-286.95"/>
</g>
<!-- Node24 -->
<g id="node24" class="node">
<title>Node24</title>
<g id="a_node24"><a xlink:href="YarpImplementation_8h.html" target="_top" xlink:title=" ">
<polygon fill="none" stroke="black" points="981.5,-257.5 981.5,-287.5 1150.5,-287.5 1150.5,-257.5 981.5,-257.5"/>
<text text-anchor="start" x="989.5" y="-275.5" font-family="Helvetica,sans-Serif" font-size="10.00">BipedalLocomotion/Parameters</text>
<text text-anchor="middle" x="1066" y="-264.5" font-family="Helvetica,sans-Serif" font-size="10.00">Handler/YarpImplementation.h</text>
</a>
</g>
</g>
<!-- Node1&#45;&gt;Node24 -->
<g id="edge26" class="edge">
<title>Node1&#45;&gt;Node24</title>
<path fill="none" stroke="midnightblue" d="M879.19,-324.46C916.33,-313.72 963.16,-300.54 1000.67,-290.28"/>
<polygon fill="midnightblue" stroke="midnightblue" points="1001.76,-293.61 1010.49,-287.6 999.92,-286.85 1001.76,-293.61"/>
</g>
<!-- Node4 -->
<g id="node4" class="node">
<title>Node4</title>
<g id="a_node4"><a xlink:title=" ">
<polygon fill="none" stroke="#bfbfbf" points="706.5,-196 706.5,-215 753.5,-215 753.5,-196 706.5,-196"/>
<text text-anchor="middle" x="730" y="-203" font-family="Helvetica,sans-Serif" font-size="10.00">deque</text>
</a>
</g>
</g>
<!-- Node3&#45;&gt;Node4 -->
<g id="edge3" class="edge">
<title>Node3&#45;&gt;Node4</title>
<path fill="none" stroke="midnightblue" d="M602.37,-257.4C631.22,-245.89 671.58,-229.8 699.14,-218.81"/>
<polygon fill="midnightblue" stroke="midnightblue" points="700.67,-221.96 708.67,-215.01 698.08,-215.46 700.67,-221.96"/>
</g>
<!-- Node5 -->
<g id="node5" class="node">
<title>Node5</title>
<g id="a_node5"><a xlink:title=" ">
<polygon fill="none" stroke="#bfbfbf" points="669.5,-129 669.5,-148 716.5,-148 716.5,-129 669.5,-129"/>
<text text-anchor="middle" x="693" y="-136" font-family="Helvetica,sans-Serif" font-size="10.00">vector</text>
</a>
</g>
</g>
<!-- Node3&#45;&gt;Node5 -->
<g id="edge4" class="edge">
<title>Node3&#45;&gt;Node5</title>
<path fill="none" stroke="midnightblue" d="M606.35,-257.39C624.67,-249.16 645.56,-237.17 660,-221 676.17,-202.9 684.98,-175.84 689.34,-157.94"/>
<polygon fill="midnightblue" stroke="midnightblue" points="692.77,-158.66 691.5,-148.14 685.93,-157.15 692.77,-158.66"/>
</g>
<!-- Node6 -->
<g id="node6" class="node">
<title>Node6</title>
<g id="a_node6"><a xlink:title=" ">
<polygon fill="none" stroke="#bfbfbf" points="113.5,-196 113.5,-215 238.5,-215 238.5,-196 113.5,-196"/>
<text text-anchor="middle" x="176" y="-203" font-family="Helvetica,sans-Serif" font-size="10.00">yarp/os/BufferedPort.h</text>
</a>
</g>
</g>
<!-- Node3&#45;&gt;Node6 -->
<g id="edge5" class="edge">
<title>Node3&#45;&gt;Node6</title>
<path fill="none" stroke="midnightblue" d="M480.86,-258.86C416.57,-249.18 326.64,-235.14 248,-221 241.17,-219.77 233.99,-218.41 226.92,-217.03"/>
<polygon fill="midnightblue" stroke="midnightblue" points="227.18,-213.51 216.69,-215 225.82,-220.38 227.18,-213.51"/>
</g>
<!-- Node7 -->
<g id="node7" class="node">
<title>Node7</title>
<g id="a_node7"><a xlink:title=" ">
<polygon fill="none" stroke="#bfbfbf" points="772,-196 772,-215 876,-215 876,-196 772,-196"/>
<text text-anchor="middle" x="824" y="-203" font-family="Helvetica,sans-Serif" font-size="10.00">yarp/os/Property.h</text>
</a>
</g>
</g>
<!-- Node3&#45;&gt;Node7 -->
<g id="edge6" class="edge">
<title>Node3&#45;&gt;Node7</title>
<path fill="none" stroke="midnightblue" d="M622.45,-257.48C669.82,-245.5 737.01,-228.5 780.55,-217.49"/>
<polygon fill="midnightblue" stroke="midnightblue" points="781.44,-220.87 790.28,-215.03 779.73,-214.09 781.44,-220.87"/>
</g>
<!-- Node8 -->
<g id="node8" class="node">
<title>Node8</title>
<g id="a_node8"><a xlink:title=" ">
<polygon fill="none" stroke="#bfbfbf" points="257,-196 257,-215 349,-215 349,-196 257,-196"/>
<text text-anchor="middle" x="303" y="-203" font-family="Helvetica,sans-Serif" font-size="10.00">yarp/os/Value.h</text>
</a>
</g>
</g>
<!-- Node3&#45;&gt;Node8 -->
<g id="edge7" class="edge">
<title>Node3&#45;&gt;Node8</title>
<path fill="none" stroke="midnightblue" d="M507.46,-257.46C465.6,-247.5 408.31,-233.71 358,-221 353.68,-219.91 349.18,-218.75 344.69,-217.59"/>
<polygon fill="midnightblue" stroke="midnightblue" points="345.52,-214.19 334.96,-215.05 343.75,-220.96 345.52,-214.19"/>
</g>
<!-- Node9 -->
<g id="node9" class="node">
<title>Node9</title>
<g id="a_node9"><a xlink:title=" ">
<polygon fill="none" stroke="#bfbfbf" points="367,-196 367,-215 465,-215 465,-196 367,-196"/>
<text text-anchor="middle" x="416" y="-203" font-family="Helvetica,sans-Serif" font-size="10.00">yarp/sig/Vector.h</text>
</a>
</g>
</g>
<!-- Node3&#45;&gt;Node9 -->
<g id="edge8" class="edge">
<title>Node3&#45;&gt;Node9</title>
<path fill="none" stroke="midnightblue" d="M534.24,-257.4C507.74,-245.99 470.78,-230.08 445.27,-219.1"/>
<polygon fill="midnightblue" stroke="midnightblue" points="446.33,-215.75 435.76,-215.01 443.56,-222.18 446.33,-215.75"/>
</g>
<!-- Node10 -->
<g id="node10" class="node">
<title>Node10</title>
<g id="a_node10"><a xlink:title=" ">
<polygon fill="none" stroke="#bfbfbf" points="483.5,-196 483.5,-215 650.5,-215 650.5,-196 483.5,-196"/>
<text text-anchor="middle" x="567" y="-203" font-family="Helvetica,sans-Serif" font-size="10.00">iDynTree/Core/VectorDynSize.h</text>
</a>
</g>
</g>
<!-- Node3&#45;&gt;Node10 -->
<g id="edge9" class="edge">
<title>Node3&#45;&gt;Node10</title>
<path fill="none" stroke="midnightblue" d="M567,-257.4C567,-248.06 567,-235.71 567,-225.52"/>
<polygon fill="midnightblue" stroke="midnightblue" points="570.5,-225.19 567,-215.19 563.5,-225.19 570.5,-225.19"/>
</g>
<!-- Node11 -->
<g id="node11" class="node">
<title>Node11</title>
<g id="a_node11"><a xlink:href="Helper_8tpp.html" target="_top" xlink:title=" ">
<polygon fill="none" stroke="black" points="28.5,-196 28.5,-215 95.5,-215 95.5,-196 28.5,-196"/>
<text text-anchor="middle" x="62" y="-203" font-family="Helvetica,sans-Serif" font-size="10.00">Helper.tpp</text>
</a>
</g>
</g>
<!-- Node3&#45;&gt;Node11 -->
<g id="edge10" class="edge">
<title>Node3&#45;&gt;Node11</title>
<path fill="none" stroke="midnightblue" d="M480.95,-267.66C387.48,-262.21 234.22,-249.5 105,-221 101.51,-220.23 97.9,-219.28 94.34,-218.23"/>
<polygon fill="midnightblue" stroke="midnightblue" points="95.09,-214.8 84.5,-215.11 92.97,-221.47 95.09,-214.8"/>
</g>
<!-- Node11&#45;&gt;Node2 -->
<g id="edge11" class="edge">
<title>Node11&#45;&gt;Node2</title>
<path fill="none" stroke="midnightblue" d="M61.47,-195.94C59.66,-166.79 53.72,-70.97 51.17,-29.93"/>
<polygon fill="midnightblue" stroke="midnightblue" points="54.66,-29.67 50.55,-19.91 47.68,-30.1 54.66,-29.67"/>
</g>
<!-- Node12 -->
<g id="node12" class="node">
<title>Node12</title>
<g id="a_node12"><a xlink:href="TemplateHelpers_8h_source.html" target="_top" xlink:title=" ">
<polygon fill="none" stroke="black" points="436,-56.5 436,-86.5 594,-86.5 594,-56.5 436,-56.5"/>
<text text-anchor="start" x="444" y="-74.5" font-family="Helvetica,sans-Serif" font-size="10.00">BipedalLocomotion/Generic</text>
<text text-anchor="middle" x="515" y="-63.5" font-family="Helvetica,sans-Serif" font-size="10.00">Container/TemplateHelpers.h</text>
</a>
</g>
</g>
<!-- Node11&#45;&gt;Node12 -->
<g id="edge12" class="edge">
<title>Node11&#45;&gt;Node12</title>
<path fill="none" stroke="midnightblue" d="M85.98,-195.96C92.14,-193.89 98.79,-191.77 105,-190 172.6,-170.75 191.24,-172.68 259,-154 331.02,-134.15 413.14,-107.23 464.52,-89.86"/>
<polygon fill="midnightblue" stroke="midnightblue" points="465.72,-93.16 474.06,-86.63 463.47,-86.53 465.72,-93.16"/>
</g>
<!-- Node15 -->
<g id="node15" class="node">
<title>Node15</title>
<g id="a_node15"><a xlink:href="Vector_8h_source.html" target="_top" xlink:title=" ">
<polygon fill="none" stroke="black" points="910.5,-123.5 910.5,-153.5 1061.5,-153.5 1061.5,-123.5 910.5,-123.5"/>
<text text-anchor="start" x="918.5" y="-141.5" font-family="Helvetica,sans-Serif" font-size="10.00">BipedalLocomotion/Generic</text>
<text text-anchor="middle" x="986" y="-130.5" font-family="Helvetica,sans-Serif" font-size="10.00">Container/Vector.h</text>
</a>
</g>
</g>
<!-- Node11&#45;&gt;Node15 -->
<g id="edge16" class="edge">
<title>Node11&#45;&gt;Node15</title>
<path fill="none" stroke="midnightblue" d="M83.57,-195.97C90.33,-193.64 97.88,-191.38 105,-190 109.85,-189.06 679.29,-156.82 899.98,-144.36"/>
<polygon fill="midnightblue" stroke="midnightblue" points="900.44,-147.84 910.23,-143.78 900.04,-140.85 900.44,-147.84"/>
</g>
<!-- Node21 -->
<g id="node21" class="node">
<title>Node21</title>
<g id="a_node21"><a xlink:href="Logger_8h.html" target="_top" xlink:title=" ">
<polygon fill="none" stroke="black" points="78,-123.5 78,-153.5 250,-153.5 250,-123.5 78,-123.5"/>
<text text-anchor="start" x="86" y="-141.5" font-family="Helvetica,sans-Serif" font-size="10.00">BipedalLocomotion/TextLogging</text>
<text text-anchor="middle" x="164" y="-130.5" font-family="Helvetica,sans-Serif" font-size="10.00">/Logger.h</text>
</a>
</g>
</g>
<!-- Node11&#45;&gt;Node21 -->
<g id="edge23" class="edge">
<title>Node11&#45;&gt;Node21</title>
<path fill="none" stroke="midnightblue" d="M75.76,-195.73C90.47,-186.36 114.27,-171.19 133.45,-158.97"/>
<polygon fill="midnightblue" stroke="midnightblue" points="135.34,-161.91 141.89,-153.59 131.58,-156.01 135.34,-161.91"/>
</g>
<!-- Node12&#45;&gt;Node2 -->
<g id="edge13" class="edge">
<title>Node12&#45;&gt;Node2</title>
<path fill="none" stroke="midnightblue" d="M435.86,-60.37C337.6,-47.8 173.39,-26.79 94.7,-16.72"/>
<polygon fill="midnightblue" stroke="midnightblue" points="95,-13.23 84.63,-15.43 94.11,-20.17 95,-13.23"/>
</g>
<!-- Node13 -->
<g id="node13" class="node">
<title>Node13</title>
<g id="a_node13"><a xlink:title=" ">
<polygon fill="none" stroke="#bfbfbf" points="522.5,-0.5 522.5,-19.5 595.5,-19.5 595.5,-0.5 522.5,-0.5"/>
<text text-anchor="middle" x="559" y="-7.5" font-family="Helvetica,sans-Serif" font-size="10.00">string_view</text>
</a>
</g>
</g>
<!-- Node12&#45;&gt;Node13 -->
<g id="edge14" class="edge">
<title>Node12&#45;&gt;Node13</title>
<path fill="none" stroke="midnightblue" d="M525.43,-56.4C531.76,-47.84 539.87,-36.87 546.53,-27.86"/>
<polygon fill="midnightblue" stroke="midnightblue" points="549.47,-29.78 552.6,-19.66 543.84,-25.62 549.47,-29.78"/>
</g>
<!-- Node14 -->
<g id="node14" class="node">
<title>Node14</title>
<g id="a_node14"><a xlink:title=" ">
<polygon fill="none" stroke="#bfbfbf" points="435.5,-0.5 435.5,-19.5 504.5,-19.5 504.5,-0.5 435.5,-0.5"/>
<text text-anchor="middle" x="470" y="-7.5" font-family="Helvetica,sans-Serif" font-size="10.00">Eigen/Core</text>
</a>
</g>
</g>
<!-- Node12&#45;&gt;Node14 -->
<g id="edge15" class="edge">
<title>Node12&#45;&gt;Node14</title>
<path fill="none" stroke="midnightblue" d="M504.34,-56.4C497.86,-47.84 489.57,-36.87 482.75,-27.86"/>
<polygon fill="midnightblue" stroke="midnightblue" points="485.37,-25.52 476.55,-19.66 479.79,-29.74 485.37,-25.52"/>
</g>
<!-- Node15&#45;&gt;Node12 -->
<g id="edge18" class="edge">
<title>Node15&#45;&gt;Node12</title>
<path fill="none" stroke="midnightblue" d="M910.33,-127.06C826.82,-115.53 692.55,-97 604.05,-84.79"/>
<polygon fill="midnightblue" stroke="midnightblue" points="604.41,-81.31 594.02,-83.41 603.45,-88.24 604.41,-81.31"/>
</g>
<!-- Node16 -->
<g id="node16" class="node">
<title>Node16</title>
<g id="a_node16"><a xlink:title=" ">
<polygon fill="none" stroke="#bfbfbf" points="767.5,-62 767.5,-81 888.5,-81 888.5,-62 767.5,-62"/>
<text text-anchor="middle" x="828" y="-69" font-family="Helvetica,sans-Serif" font-size="10.00">iDynTree/Core/Span.h</text>
</a>
</g>
</g>
<!-- Node15&#45;&gt;Node16 -->
<g id="edge17" class="edge">
<title>Node15&#45;&gt;Node16</title>
<path fill="none" stroke="midnightblue" d="M951.72,-123.4C923.87,-111.94 884.97,-95.94 858.27,-84.95"/>
<polygon fill="midnightblue" stroke="midnightblue" points="859.26,-81.57 848.68,-81.01 856.59,-88.05 859.26,-81.57"/>
</g>
<!-- Node17 -->
<g id="node17" class="node">
<title>Node17</title>
<g id="a_node17"><a xlink:title=" ">
<polygon fill="none" stroke="#bfbfbf" points="906.5,-62 906.5,-81 971.5,-81 971.5,-62 906.5,-62"/>
<text text-anchor="middle" x="939" y="-69" font-family="Helvetica,sans-Serif" font-size="10.00">functional</text>
</a>
</g>
</g>
<!-- Node15&#45;&gt;Node17 -->
<g id="edge19" class="edge">
<title>Node15&#45;&gt;Node17</title>
<path fill="none" stroke="midnightblue" d="M975.8,-123.4C968.62,-113.46 958.96,-100.11 951.34,-89.57"/>
<polygon fill="midnightblue" stroke="midnightblue" points="953.98,-87.25 945.29,-81.19 948.31,-91.35 953.98,-87.25"/>
</g>
<!-- Node18 -->
<g id="node18" class="node">
<title>Node18</title>
<g id="a_node18"><a xlink:title=" ">
<polygon fill="none" stroke="#bfbfbf" points="990,-62 990,-81 1042,-81 1042,-62 990,-62"/>
<text text-anchor="middle" x="1016" y="-69" font-family="Helvetica,sans-Serif" font-size="10.00">cassert</text>
</a>
</g>
</g>
<!-- Node15&#45;&gt;Node18 -->
<g id="edge20" class="edge">
<title>Node15&#45;&gt;Node18</title>
<path fill="none" stroke="midnightblue" d="M992.51,-123.4C996.96,-113.76 1002.89,-100.91 1007.68,-90.54"/>
<polygon fill="midnightblue" stroke="midnightblue" points="1010.97,-91.74 1011.99,-81.19 1004.62,-88.81 1010.97,-91.74"/>
</g>
<!-- Node19 -->
<g id="node19" class="node">
<title>Node19</title>
<g id="a_node19"><a xlink:title=" ">
<polygon fill="none" stroke="#bfbfbf" points="1060,-62 1060,-81 1120,-81 1120,-62 1060,-62"/>
<text text-anchor="middle" x="1090" y="-69" font-family="Helvetica,sans-Serif" font-size="10.00">iostream</text>
</a>
</g>
</g>
<!-- Node15&#45;&gt;Node19 -->
<g id="edge21" class="edge">
<title>Node15&#45;&gt;Node19</title>
<path fill="none" stroke="midnightblue" d="M1008.57,-123.4C1026.01,-112.5 1050.03,-97.48 1067.47,-86.58"/>
<polygon fill="midnightblue" stroke="midnightblue" points="1069.76,-89.28 1076.39,-81.01 1066.05,-83.34 1069.76,-89.28"/>
</g>
<!-- Node20 -->
<g id="node20" class="node">
<title>Node20</title>
<g id="a_node20"><a xlink:title=" ">
<polygon fill="none" stroke="#bfbfbf" points="1199,-62 1199,-81 1257,-81 1257,-62 1199,-62"/>
<text text-anchor="middle" x="1228" y="-69" font-family="Helvetica,sans-Serif" font-size="10.00">memory</text>
</a>
</g>
</g>
<!-- Node15&#45;&gt;Node20 -->
<g id="edge22" class="edge">
<title>Node15&#45;&gt;Node20</title>
<path fill="none" stroke="midnightblue" d="M1038.21,-123.48C1083.56,-111.3 1148.2,-93.93 1189.12,-82.94"/>
<polygon fill="midnightblue" stroke="midnightblue" points="1190.24,-86.27 1198.99,-80.29 1188.42,-79.51 1190.24,-86.27"/>
</g>
<!-- Node22 -->
<g id="node22" class="node">
<title>Node22</title>
<g id="a_node22"><a xlink:title=" ">
<polygon fill="none" stroke="#bfbfbf" points="96.5,-62 96.5,-81 195.5,-81 195.5,-62 96.5,-62"/>
<text text-anchor="middle" x="146" y="-69" font-family="Helvetica,sans-Serif" font-size="10.00">spdlog/fmt/ostr.h</text>
</a>
</g>
</g>
<!-- Node21&#45;&gt;Node22 -->
<g id="edge24" class="edge">
<title>Node21&#45;&gt;Node22</title>
<path fill="none" stroke="midnightblue" d="M160.09,-123.4C157.45,-113.86 153.94,-101.18 151.08,-90.86"/>
<polygon fill="midnightblue" stroke="midnightblue" points="154.45,-89.9 148.41,-81.19 147.7,-91.77 154.45,-89.9"/>
</g>
<!-- Node23 -->
<g id="node23" class="node">
<title>Node23</title>
<g id="a_node23"><a xlink:title=" ">
<polygon fill="none" stroke="#bfbfbf" points="213.5,-62 213.5,-81 306.5,-81 306.5,-62 213.5,-62"/>
<text text-anchor="middle" x="260" y="-69" font-family="Helvetica,sans-Serif" font-size="10.00">spdlog/spdlog.h</text>
</a>
</g>
</g>
<!-- Node21&#45;&gt;Node23 -->
<g id="edge25" class="edge">
<title>Node21&#45;&gt;Node23</title>
<path fill="none" stroke="midnightblue" d="M184.83,-123.4C200.78,-112.6 222.7,-97.76 238.75,-86.89"/>
<polygon fill="midnightblue" stroke="midnightblue" points="241.12,-89.51 247.44,-81.01 237.19,-83.72 241.12,-89.51"/>
</g>
<!-- Node24&#45;&gt;Node1 -->
<g id="edge39" class="edge">
<title>Node24&#45;&gt;Node1</title>
<path fill="none" stroke="midnightblue" d="M1021.54,-287.6C988.21,-297.36 941.67,-310.56 901.28,-321.74"/>
<polygon fill="midnightblue" stroke="midnightblue" points="900.13,-318.42 891.42,-324.46 901.99,-325.17 900.13,-318.42"/>
</g>
<!-- Node24&#45;&gt;Node7 -->
<g id="edge31" class="edge">
<title>Node24&#45;&gt;Node7</title>
<path fill="none" stroke="midnightblue" d="M1013.79,-257.48C969.37,-245.55 906.44,-228.64 865.43,-217.63"/>
<polygon fill="midnightblue" stroke="midnightblue" points="866.32,-214.24 855.75,-215.03 864.5,-221 866.32,-214.24"/>
</g>
<!-- Node24&#45;&gt;Node20 -->
<g id="edge27" class="edge">
<title>Node24&#45;&gt;Node20</title>
<path fill="none" stroke="midnightblue" d="M1150.52,-267.4C1221.6,-261.97 1315.3,-249.48 1339,-221 1349.82,-207.99 1349.77,-146.03 1334,-123 1318.58,-100.48 1290.3,-87.71 1266.83,-80.64"/>
<polygon fill="midnightblue" stroke="midnightblue" points="1267.68,-77.24 1257.11,-77.95 1265.82,-83.99 1267.68,-77.24"/>
</g>
<!-- Node25 -->
<g id="node25" class="node">
<title>Node25</title>
<g id="a_node25"><a xlink:title=" ">
<polygon fill="none" stroke="#bfbfbf" points="1281,-129 1281,-148 1325,-148 1325,-129 1281,-129"/>
<text text-anchor="middle" x="1303" y="-136" font-family="Helvetica,sans-Serif" font-size="10.00">string</text>
</a>
</g>
</g>
<!-- Node24&#45;&gt;Node25 -->
<g id="edge28" class="edge">
<title>Node24&#45;&gt;Node25</title>
<path fill="none" stroke="midnightblue" d="M1150.56,-266.16C1216.52,-260.03 1300.46,-247.2 1322,-221 1336.95,-202.82 1325.37,-175.01 1314.85,-157.04"/>
<polygon fill="midnightblue" stroke="midnightblue" points="1317.57,-154.8 1309.29,-148.19 1311.65,-158.52 1317.57,-154.8"/>
</g>
<!-- Node26 -->
<g id="node26" class="node">
<title>Node26</title>
<g id="a_node26"><a xlink:title=" ">
<polygon fill="none" stroke="#bfbfbf" points="1406.5,-196 1406.5,-215 1499.5,-215 1499.5,-196 1406.5,-196"/>
<text text-anchor="middle" x="1453" y="-203" font-family="Helvetica,sans-Serif" font-size="10.00">unordered_map</text>
</a>
</g>
</g>
<!-- Node24&#45;&gt;Node26 -->
<g id="edge29" class="edge">
<title>Node24&#45;&gt;Node26</title>
<path fill="none" stroke="midnightblue" d="M1150.75,-260.26C1216.74,-251.05 1310.51,-236.97 1392,-221 1397.54,-219.91 1403.34,-218.67 1409.07,-217.38"/>
<polygon fill="midnightblue" stroke="midnightblue" points="1410.27,-220.7 1419.23,-215.04 1408.69,-213.88 1410.27,-220.7"/>
</g>
<!-- Node27 -->
<g id="node27" class="node">
<title>Node27</title>
<g id="a_node27"><a xlink:title=" ">
<polygon fill="none" stroke="#bfbfbf" points="894,-196 894,-215 988,-215 988,-196 894,-196"/>
<text text-anchor="middle" x="941" y="-203" font-family="Helvetica,sans-Serif" font-size="10.00">yarp/os/Bottle.h</text>
</a>
</g>
</g>
<!-- Node24&#45;&gt;Node27 -->
<g id="edge30" class="edge">
<title>Node24&#45;&gt;Node27</title>
<path fill="none" stroke="midnightblue" d="M1038.88,-257.4C1017.33,-246.19 987.43,-230.64 966.36,-219.69"/>
<polygon fill="midnightblue" stroke="midnightblue" points="967.85,-216.52 957.36,-215.01 964.62,-222.73 967.85,-216.52"/>
</g>
<!-- Node28 -->
<g id="node28" class="node">
<title>Node28</title>
<g id="a_node28"><a xlink:title=" ">
<polygon fill="none" stroke="#bfbfbf" points="1006.5,-196 1006.5,-215 1125.5,-215 1125.5,-196 1006.5,-196"/>
<text text-anchor="middle" x="1066" y="-203" font-family="Helvetica,sans-Serif" font-size="10.00">yarp/os/Searchable.h</text>
</a>
</g>
</g>
<!-- Node24&#45;&gt;Node28 -->
<g id="edge32" class="edge">
<title>Node24&#45;&gt;Node28</title>
<path fill="none" stroke="midnightblue" d="M1066,-257.4C1066,-248.06 1066,-235.71 1066,-225.52"/>
<polygon fill="midnightblue" stroke="midnightblue" points="1069.5,-225.19 1066,-215.19 1062.5,-225.19 1069.5,-225.19"/>
</g>
<!-- Node29 -->
<g id="node29" class="node">
<title>Node29</title>
<g id="a_node29"><a xlink:href="IParametersHandler_8h.html" target="_top" xlink:title=" ">
<polygon fill="none" stroke="black" points="1143.5,-190.5 1143.5,-220.5 1312.5,-220.5 1312.5,-190.5 1143.5,-190.5"/>
<text text-anchor="start" x="1151.5" y="-208.5" font-family="Helvetica,sans-Serif" font-size="10.00">BipedalLocomotion/Parameters</text>
<text text-anchor="middle" x="1228" y="-197.5" font-family="Helvetica,sans-Serif" font-size="10.00">Handler/IParametersHandler.h</text>
</a>
</g>
</g>
<!-- Node24&#45;&gt;Node29 -->
<g id="edge33" class="edge">
<title>Node24&#45;&gt;Node29</title>
<path fill="none" stroke="midnightblue" d="M1101.15,-257.4C1125.25,-247.73 1157.41,-234.82 1183.32,-224.43"/>
<polygon fill="midnightblue" stroke="midnightblue" points="1184.94,-227.55 1192.92,-220.58 1182.33,-221.05 1184.94,-227.55"/>
</g>
<!-- Node29&#45;&gt;Node5 -->
<g id="edge36" class="edge">
<title>Node29&#45;&gt;Node5</title>
<path fill="none" stroke="midnightblue" d="M1143.38,-191.08C1140.56,-190.7 1137.76,-190.34 1135,-190 963.14,-168.65 917.47,-184.57 747,-154 740.42,-152.82 733.46,-151.22 726.82,-149.52"/>
<polygon fill="midnightblue" stroke="midnightblue" points="727.29,-146.03 716.73,-146.81 725.47,-152.78 727.29,-146.03"/>
</g>
<!-- Node29&#45;&gt;Node12 -->
<g id="edge37" class="edge">
<title>Node29&#45;&gt;Node12</title>
<path fill="none" stroke="midnightblue" d="M1143.35,-191.3C1140.54,-190.86 1137.75,-190.43 1135,-190 1031.46,-173.93 1005.08,-172.8 902,-154 791.46,-133.84 664.1,-106.15 586.59,-88.79"/>
<polygon fill="midnightblue" stroke="midnightblue" points="586.98,-85.29 576.46,-86.52 585.45,-92.12 586.98,-85.29"/>
</g>
<!-- Node29&#45;&gt;Node15 -->
<g id="edge38" class="edge">
<title>Node29&#45;&gt;Node15</title>
<path fill="none" stroke="midnightblue" d="M1175.79,-190.48C1138.38,-180.43 1087.85,-166.86 1048.33,-156.24"/>
<polygon fill="midnightblue" stroke="midnightblue" points="1049.1,-152.82 1038.54,-153.61 1047.29,-159.59 1049.1,-152.82"/>
</g>
<!-- Node29&#45;&gt;Node20 -->
<g id="edge34" class="edge">
<title>Node29&#45;&gt;Node20</title>
<path fill="none" stroke="midnightblue" d="M1228,-190.37C1228,-166.5 1228,-118.18 1228,-91.41"/>
<polygon fill="midnightblue" stroke="midnightblue" points="1231.5,-91.1 1228,-81.1 1224.5,-91.1 1231.5,-91.1"/>
</g>
<!-- Node29&#45;&gt;Node25 -->
<g id="edge35" class="edge">
<title>Node29&#45;&gt;Node25</title>
<path fill="none" stroke="midnightblue" d="M1244.27,-190.4C1256.32,-179.96 1272.71,-165.75 1285.12,-155"/>
<polygon fill="midnightblue" stroke="midnightblue" points="1287.7,-157.39 1292.97,-148.19 1283.12,-152.1 1287.7,-157.39"/>
</g>
</g>
</svg>
