<?xml version="1.0" encoding="UTF-8" standalone="no"?>
<!DOCTYPE svg PUBLIC "-//W3C//DTD SVG 1.1//EN"
 "http://www.w3.org/Graphics/SVG/1.1/DTD/svg11.dtd">
<!-- Generated by graphviz version 2.43.0 (0)
 -->
<!-- Title: System/YarpImplementation/src/YarpClock.cpp Pages: 1 -->
<svg width="324pt" height="229pt"
 viewBox="0.00 0.00 323.50 229.00" xmlns="http://www.w3.org/2000/svg" xmlns:xlink="http://www.w3.org/1999/xlink">
<g id="graph0" class="graph" transform="scale(1 1) rotate(0) translate(4 225)">
<title>System/YarpImplementation/src/YarpClock.cpp</title>
<!-- Node1 -->
<g id="node1" class="node">
<title>Node1</title>
<g id="a_node1"><a xlink:title=" ">
<polygon fill="#bfbfbf" stroke="black" points="35,-190.5 35,-220.5 190,-220.5 190,-190.5 35,-190.5"/>
<text text-anchor="start" x="43" y="-208.5" font-family="Helvetica,sans-Serif" font-size="10.00">System/YarpImplementation</text>
<text text-anchor="middle" x="112.5" y="-197.5" font-family="Helvetica,sans-Serif" font-size="10.00">/src/YarpClock.cpp</text>
</a>
</g>
</g>
<!-- Node2 -->
<g id="node2" class="node">
<title>Node2</title>
<g id="a_node2"><a xlink:title=" ">
<polygon fill="none" stroke="#bfbfbf" points="0,-129 0,-148 89,-148 89,-129 0,-129"/>
<text text-anchor="middle" x="44.5" y="-136" font-family="Helvetica,sans-Serif" font-size="10.00">yarp/os/Time.h</text>
</a>
</g>
</g>
<!-- Node1&#45;&gt;Node2 -->
<g id="edge1" class="edge">
<title>Node1&#45;&gt;Node2</title>
<path fill="none" stroke="midnightblue" d="M97.75,-190.4C86.93,-180.06 72.25,-166.02 61.04,-155.31"/>
<polygon fill="midnightblue" stroke="midnightblue" points="63.24,-152.57 53.6,-148.19 58.41,-157.63 63.24,-152.57"/>
</g>
<!-- Node3 -->
<g id="node3" class="node">
<title>Node3</title>
<g id="a_node3"><a xlink:href="YarpClock_8h.html" target="_top" xlink:title=" ">
<polygon fill="none" stroke="black" points="106.5,-123.5 106.5,-153.5 256.5,-153.5 256.5,-123.5 106.5,-123.5"/>
<text text-anchor="start" x="114.5" y="-141.5" font-family="Helvetica,sans-Serif" font-size="10.00">BipedalLocomotion/System</text>
<text text-anchor="middle" x="181.5" y="-130.5" font-family="Helvetica,sans-Serif" font-size="10.00">/YarpClock.h</text>
</a>
</g>
</g>
<!-- Node1&#45;&gt;Node3 -->
<g id="edge2" class="edge">
<title>Node1&#45;&gt;Node3</title>
<path fill="none" stroke="midnightblue" d="M127.47,-190.4C136.69,-181.71 148.69,-170.4 159.04,-160.66"/>
<polygon fill="midnightblue" stroke="midnightblue" points="161.68,-162.98 166.56,-153.58 156.88,-157.89 161.68,-162.98"/>
</g>
<!-- Node4 -->
<g id="node4" class="node">
<title>Node4</title>
<g id="a_node4"><a xlink:href="IClock_8h.html" target="_top" xlink:title=" ">
<polygon fill="none" stroke="black" points="3.5,-56.5 3.5,-86.5 153.5,-86.5 153.5,-56.5 3.5,-56.5"/>
<text text-anchor="start" x="11.5" y="-74.5" font-family="Helvetica,sans-Serif" font-size="10.00">BipedalLocomotion/System</text>
<text text-anchor="middle" x="78.5" y="-63.5" font-family="Helvetica,sans-Serif" font-size="10.00">/IClock.h</text>
</a>
</g>
</g>
<!-- Node3&#45;&gt;Node4 -->
<g id="edge3" class="edge">
<title>Node3&#45;&gt;Node4</title>
<path fill="none" stroke="midnightblue" d="M159.15,-123.4C144.57,-114.2 125.35,-102.07 109.33,-91.95"/>
<polygon fill="midnightblue" stroke="midnightblue" points="111.13,-88.95 100.81,-86.58 107.39,-94.87 111.13,-88.95"/>
</g>
<!-- Node5 -->
<g id="node5" class="node">
<title>Node5</title>
<g id="a_node5"><a xlink:title=" ">
<polygon fill="none" stroke="#bfbfbf" points="104.5,-0.5 104.5,-19.5 154.5,-19.5 154.5,-0.5 104.5,-0.5"/>
<text text-anchor="middle" x="129.5" y="-7.5" font-family="Helvetica,sans-Serif" font-size="10.00">chrono</text>
</a>
</g>
</g>
<!-- Node3&#45;&gt;Node5 -->
<g id="edge6" class="edge">
<title>Node3&#45;&gt;Node5</title>
<path fill="none" stroke="midnightblue" d="M179.96,-123.39C177.75,-106.68 172.76,-78.31 162.5,-56 157.8,-45.79 150.59,-35.59 144.1,-27.49"/>
<polygon fill="midnightblue" stroke="midnightblue" points="146.6,-25.03 137.49,-19.62 141.24,-29.53 146.6,-25.03"/>
</g>
<!-- Node6 -->
<g id="node6" class="node">
<title>Node6</title>
<g id="a_node6"><a xlink:title=" ">
<polygon fill="none" stroke="#bfbfbf" points="209.5,-62 209.5,-81 315.5,-81 315.5,-62 209.5,-62"/>
<text text-anchor="middle" x="262.5" y="-69" font-family="Helvetica,sans-Serif" font-size="10.00">yarp/os/Network.h</text>
</a>
</g>
</g>
<!-- Node3&#45;&gt;Node6 -->
<g id="edge5" class="edge">
<title>Node3&#45;&gt;Node6</title>
<path fill="none" stroke="midnightblue" d="M199.08,-123.4C212.21,-112.86 230.13,-98.48 243.57,-87.69"/>
<polygon fill="midnightblue" stroke="midnightblue" points="246.06,-90.18 251.67,-81.19 241.68,-84.72 246.06,-90.18"/>
</g>
<!-- Node4&#45;&gt;Node5 -->
<g id="edge4" class="edge">
<title>Node4&#45;&gt;Node5</title>
<path fill="none" stroke="midnightblue" d="M90.59,-56.4C98.07,-47.66 107.72,-36.41 115.53,-27.3"/>
<polygon fill="midnightblue" stroke="midnightblue" points="118.23,-29.53 122.08,-19.66 112.91,-24.97 118.23,-29.53"/>
</g>
</g>
</svg>
