<?xml version="1.0" encoding="UTF-8" standalone="no"?>
<!DOCTYPE svg PUBLIC "-//W3C//DTD SVG 1.1//EN"
 "http://www.w3.org/Graphics/SVG/1.1/DTD/svg11.dtd">
<!-- Generated by graphviz version 2.43.0 (0)
 -->
<!-- Title: RobotInterface/YarpImplementation/src/YarpSensorBridge.cpp Pages: 1 -->
<svg width="2440pt" height="564pt"
 viewBox="0.00 0.00 2440.00 564.00" xmlns="http://www.w3.org/2000/svg" xmlns:xlink="http://www.w3.org/1999/xlink">
<g id="graph0" class="graph" transform="scale(1 1) rotate(0) translate(4 560)">
<title>RobotInterface/YarpImplementation/src/YarpSensorBridge.cpp</title>
<!-- Node1 -->
<g id="node1" class="node">
<title>Node1</title>
<g id="a_node1"><a xlink:title=" ">
<polygon fill="#bfbfbf" stroke="black" points="1363.5,-525.5 1363.5,-555.5 1553.5,-555.5 1553.5,-525.5 1363.5,-525.5"/>
<text text-anchor="start" x="1371.5" y="-543.5" font-family="Helvetica,sans-Serif" font-size="10.00">RobotInterface/YarpImplementation</text>
<text text-anchor="middle" x="1458.5" y="-532.5" font-family="Helvetica,sans-Serif" font-size="10.00">/src/YarpSensorBridge.cpp</text>
</a>
</g>
</g>
<!-- Node2 -->
<g id="node2" class="node">
<title>Node2</title>
<g id="a_node2"><a xlink:href="YarpSensorBridgeImpl_8h.html" target="_top" xlink:title=" ">
<polygon fill="none" stroke="black" points="1366,-458.5 1366,-488.5 1551,-488.5 1551,-458.5 1366,-458.5"/>
<text text-anchor="start" x="1374" y="-476.5" font-family="Helvetica,sans-Serif" font-size="10.00">BipedalLocomotion/RobotInterface</text>
<text text-anchor="middle" x="1458.5" y="-465.5" font-family="Helvetica,sans-Serif" font-size="10.00">/YarpSensorBridgeImpl.h</text>
</a>
</g>
</g>
<!-- Node1&#45;&gt;Node2 -->
<g id="edge1" class="edge">
<title>Node1&#45;&gt;Node2</title>
<path fill="none" stroke="midnightblue" d="M1458.5,-525.4C1458.5,-517.64 1458.5,-507.81 1458.5,-498.86"/>
<polygon fill="midnightblue" stroke="midnightblue" points="1462,-498.58 1458.5,-488.58 1455,-498.58 1462,-498.58"/>
</g>
<!-- Node25 -->
<g id="node25" class="node">
<title>Node25</title>
<g id="a_node25"><a xlink:href="Logger_8h.html" target="_top" xlink:title=" ">
<polygon fill="none" stroke="black" points="20.5,-391.5 20.5,-421.5 192.5,-421.5 192.5,-391.5 20.5,-391.5"/>
<text text-anchor="start" x="28.5" y="-409.5" font-family="Helvetica,sans-Serif" font-size="10.00">BipedalLocomotion/TextLogging</text>
<text text-anchor="middle" x="106.5" y="-398.5" font-family="Helvetica,sans-Serif" font-size="10.00">/Logger.h</text>
</a>
</g>
</g>
<!-- Node1&#45;&gt;Node25 -->
<g id="edge53" class="edge">
<title>Node1&#45;&gt;Node25</title>
<path fill="none" stroke="midnightblue" d="M1363.29,-532.5C1154.78,-516.77 641.98,-475.82 202.72,-422.11"/>
<polygon fill="midnightblue" stroke="midnightblue" points="203.03,-418.62 192.68,-420.88 202.18,-425.57 203.03,-418.62"/>
</g>
<!-- Node39 -->
<g id="node39" class="node">
<title>Node39</title>
<g id="a_node39"><a xlink:title=" ">
<polygon fill="none" stroke="#bfbfbf" points="2325,-397 2325,-416 2432,-416 2432,-397 2325,-397"/>
<text text-anchor="middle" x="2378.5" y="-404" font-family="Helvetica,sans-Serif" font-size="10.00">yarp/eigen/Eigen.h</text>
</a>
</g>
</g>
<!-- Node1&#45;&gt;Node39 -->
<g id="edge54" class="edge">
<title>Node1&#45;&gt;Node39</title>
<path fill="none" stroke="midnightblue" d="M1553.74,-529.28C1712.4,-511.61 2040.56,-472.38 2315.5,-422 2321.44,-420.91 2327.67,-419.64 2333.8,-418.31"/>
<polygon fill="midnightblue" stroke="midnightblue" points="2334.96,-421.64 2343.96,-416.04 2333.43,-414.81 2334.96,-421.64"/>
</g>
<!-- Node3 -->
<g id="node3" class="node">
<title>Node3</title>
<g id="a_node3"><a xlink:href="Vector_8h_source.html" target="_top" xlink:title=" ">
<polygon fill="none" stroke="black" points="1476,-123.5 1476,-153.5 1627,-153.5 1627,-123.5 1476,-123.5"/>
<text text-anchor="start" x="1484" y="-141.5" font-family="Helvetica,sans-Serif" font-size="10.00">BipedalLocomotion/Generic</text>
<text text-anchor="middle" x="1551.5" y="-130.5" font-family="Helvetica,sans-Serif" font-size="10.00">Container/Vector.h</text>
</a>
</g>
</g>
<!-- Node2&#45;&gt;Node3 -->
<g id="edge2" class="edge">
<title>Node2&#45;&gt;Node3</title>
<path fill="none" stroke="midnightblue" d="M1551.19,-470.56C1635.32,-466.65 1750.65,-455.19 1780.5,-422 1849.52,-345.26 1855.5,-270.17 1790.5,-190 1771.21,-166.21 1697.59,-153.19 1637.09,-146.36"/>
<polygon fill="midnightblue" stroke="midnightblue" points="1637.44,-142.87 1627.12,-145.27 1636.69,-149.83 1637.44,-142.87"/>
</g>
<!-- Node13 -->
<g id="node13" class="node">
<title>Node13</title>
<g id="a_node13"><a xlink:href="YarpSensorBridge_8h.html" target="_top" xlink:title=" ">
<polygon fill="none" stroke="black" points="1587,-391.5 1587,-421.5 1772,-421.5 1772,-391.5 1587,-391.5"/>
<text text-anchor="start" x="1595" y="-409.5" font-family="Helvetica,sans-Serif" font-size="10.00">BipedalLocomotion/RobotInterface</text>
<text text-anchor="middle" x="1679.5" y="-398.5" font-family="Helvetica,sans-Serif" font-size="10.00">/YarpSensorBridge.h</text>
</a>
</g>
</g>
<!-- Node2&#45;&gt;Node13 -->
<g id="edge12" class="edge">
<title>Node2&#45;&gt;Node13</title>
<path fill="none" stroke="midnightblue" d="M1506.18,-458.48C1540.05,-448.51 1585.71,-435.09 1621.66,-424.51"/>
<polygon fill="midnightblue" stroke="midnightblue" points="1622.92,-427.79 1631.52,-421.61 1620.94,-421.07 1622.92,-427.79"/>
</g>
<!-- Node2&#45;&gt;Node25 -->
<g id="edge35" class="edge">
<title>Node2&#45;&gt;Node25</title>
<path fill="none" stroke="midnightblue" d="M1365.89,-470.12C1118.83,-463.56 446.86,-444.27 202.91,-422.04"/>
<polygon fill="midnightblue" stroke="midnightblue" points="202.94,-418.53 192.66,-421.08 202.29,-425.5 202.94,-418.53"/>
</g>
<!-- Node28 -->
<g id="node28" class="node">
<title>Node28</title>
<g id="a_node28"><a xlink:title=" ">
<polygon fill="none" stroke="#bfbfbf" points="1828,-397 1828,-416 1917,-416 1917,-397 1828,-397"/>
<text text-anchor="middle" x="1872.5" y="-404" font-family="Helvetica,sans-Serif" font-size="10.00">yarp/os/Time.h</text>
</a>
</g>
</g>
<!-- Node2&#45;&gt;Node28 -->
<g id="edge38" class="edge">
<title>Node2&#45;&gt;Node28</title>
<path fill="none" stroke="midnightblue" d="M1551.23,-461.88C1623.11,-453.02 1725.03,-439.12 1813.5,-422 1818.94,-420.95 1824.62,-419.72 1830.23,-418.43"/>
<polygon fill="midnightblue" stroke="midnightblue" points="1831.25,-421.78 1840.17,-416.06 1829.63,-414.97 1831.25,-421.78"/>
</g>
<!-- Node29 -->
<g id="node29" class="node">
<title>Node29</title>
<g id="a_node29"><a xlink:title=" ">
<polygon fill="none" stroke="#bfbfbf" points="1934.5,-397 1934.5,-416 2032.5,-416 2032.5,-397 1934.5,-397"/>
<text text-anchor="middle" x="1983.5" y="-404" font-family="Helvetica,sans-Serif" font-size="10.00">yarp/sig/Image.h</text>
</a>
</g>
</g>
<!-- Node2&#45;&gt;Node29 -->
<g id="edge39" class="edge">
<title>Node2&#45;&gt;Node29</title>
<path fill="none" stroke="midnightblue" d="M1551.4,-466.37C1646.23,-459.21 1797.42,-445.26 1926.5,-422 1931.96,-421.02 1937.68,-419.79 1943.29,-418.48"/>
<polygon fill="midnightblue" stroke="midnightblue" points="1944.33,-421.83 1953.21,-416.05 1942.66,-415.03 1944.33,-421.83"/>
</g>
<!-- Node30 -->
<g id="node30" class="node">
<title>Node30</title>
<g id="a_node30"><a xlink:title=" ">
<polygon fill="none" stroke="#bfbfbf" points="2050.5,-397 2050.5,-416 2148.5,-416 2148.5,-397 2050.5,-397"/>
<text text-anchor="middle" x="2099.5" y="-404" font-family="Helvetica,sans-Serif" font-size="10.00">yarp/sig/Vector.h</text>
</a>
</g>
</g>
<!-- Node2&#45;&gt;Node30 -->
<g id="edge40" class="edge">
<title>Node2&#45;&gt;Node30</title>
<path fill="none" stroke="midnightblue" d="M1551.21,-469.01C1666.7,-463.62 1869.78,-450.72 2041.5,-422 2047.34,-421.02 2053.45,-419.76 2059.43,-418.39"/>
<polygon fill="midnightblue" stroke="midnightblue" points="2060.39,-421.76 2069.29,-416.02 2058.75,-414.96 2060.39,-421.76"/>
</g>
<!-- Node31 -->
<g id="node31" class="node">
<title>Node31</title>
<g id="a_node31"><a xlink:title=" ">
<polygon fill="none" stroke="#bfbfbf" points="2166.5,-397 2166.5,-416 2306.5,-416 2306.5,-397 2166.5,-397"/>
<text text-anchor="middle" x="2236.5" y="-404" font-family="Helvetica,sans-Serif" font-size="10.00">yarp/dev/IAnalogSensor.h</text>
</a>
</g>
</g>
<!-- Node2&#45;&gt;Node31 -->
<g id="edge41" class="edge">
<title>Node2&#45;&gt;Node31</title>
<path fill="none" stroke="midnightblue" d="M1551.26,-469.03C1685.43,-463.28 1941.31,-449.57 2157.5,-422 2166.34,-420.87 2175.7,-419.4 2184.76,-417.83"/>
<polygon fill="midnightblue" stroke="midnightblue" points="2185.59,-421.24 2194.81,-416.03 2184.35,-414.35 2185.59,-421.24"/>
</g>
<!-- Node32 -->
<g id="node32" class="node">
<title>Node32</title>
<g id="a_node32"><a xlink:title=" ">
<polygon fill="none" stroke="#bfbfbf" points="210.5,-397 210.5,-416 356.5,-416 356.5,-397 210.5,-397"/>
<text text-anchor="middle" x="283.5" y="-404" font-family="Helvetica,sans-Serif" font-size="10.00">yarp/dev/ICurrentControl.h</text>
</a>
</g>
</g>
<!-- Node2&#45;&gt;Node32 -->
<g id="edge42" class="edge">
<title>Node2&#45;&gt;Node32</title>
<path fill="none" stroke="midnightblue" d="M1365.7,-472.24C1176.82,-470.81 734.37,-462.96 365.5,-422 355.9,-420.93 345.73,-419.44 335.94,-417.81"/>
<polygon fill="midnightblue" stroke="midnightblue" points="336.36,-414.33 325.91,-416.07 335.17,-421.23 336.36,-414.33"/>
</g>
<!-- Node33 -->
<g id="node33" class="node">
<title>Node33</title>
<g id="a_node33"><a xlink:title=" ">
<polygon fill="none" stroke="#bfbfbf" points="374.5,-397 374.5,-416 518.5,-416 518.5,-397 374.5,-397"/>
<text text-anchor="middle" x="446.5" y="-404" font-family="Helvetica,sans-Serif" font-size="10.00">yarp/dev/IGenericSensor.h</text>
</a>
</g>
</g>
<!-- Node2&#45;&gt;Node33 -->
<g id="edge43" class="edge">
<title>Node2&#45;&gt;Node33</title>
<path fill="none" stroke="midnightblue" d="M1365.68,-471.24C1197.86,-468.12 833,-457.49 527.5,-422 518.02,-420.9 507.97,-419.38 498.3,-417.75"/>
<polygon fill="midnightblue" stroke="midnightblue" points="498.85,-414.29 488.4,-416.01 497.64,-421.19 498.85,-414.29"/>
</g>
<!-- Node34 -->
<g id="node34" class="node">
<title>Node34</title>
<g id="a_node34"><a xlink:title=" ">
<polygon fill="none" stroke="#bfbfbf" points="536.5,-391.5 536.5,-421.5 710.5,-421.5 710.5,-391.5 536.5,-391.5"/>
<text text-anchor="start" x="544.5" y="-409.5" font-family="Helvetica,sans-Serif" font-size="10.00">yarp/dev/MultipleAnalogSensors</text>
<text text-anchor="middle" x="623.5" y="-398.5" font-family="Helvetica,sans-Serif" font-size="10.00">Interfaces.h</text>
</a>
</g>
</g>
<!-- Node2&#45;&gt;Node34 -->
<g id="edge44" class="edge">
<title>Node2&#45;&gt;Node34</title>
<path fill="none" stroke="midnightblue" d="M1365.83,-468.6C1227.61,-462.24 959.1,-447.81 720.83,-422.09"/>
<polygon fill="midnightblue" stroke="midnightblue" points="720.9,-418.57 710.58,-420.97 720.14,-425.53 720.9,-418.57"/>
</g>
<!-- Node35 -->
<g id="node35" class="node">
<title>Node35</title>
<g id="a_node35"><a xlink:title=" ">
<polygon fill="none" stroke="#bfbfbf" points="728.5,-397 728.5,-416 918.5,-416 918.5,-397 728.5,-397"/>
<text text-anchor="middle" x="823.5" y="-404" font-family="Helvetica,sans-Serif" font-size="10.00">yarp/dev/FrameGrabberInterfaces.h</text>
</a>
</g>
</g>
<!-- Node2&#45;&gt;Node35 -->
<g id="edge45" class="edge">
<title>Node2&#45;&gt;Node35</title>
<path fill="none" stroke="midnightblue" d="M1365.8,-464.92C1259.73,-455.96 1080.87,-439.98 927.5,-422 915.76,-420.62 903.29,-419.01 891.22,-417.38"/>
<polygon fill="midnightblue" stroke="midnightblue" points="891.59,-413.9 881.2,-416 890.63,-420.83 891.59,-413.9"/>
</g>
<!-- Node36 -->
<g id="node36" class="node">
<title>Node36</title>
<g id="a_node36"><a xlink:title=" ">
<polygon fill="none" stroke="#bfbfbf" points="937,-397 937,-416 1072,-416 1072,-397 937,-397"/>
<text text-anchor="middle" x="1004.5" y="-404" font-family="Helvetica,sans-Serif" font-size="10.00">yarp/dev/IRGBDSensor.h</text>
</a>
</g>
</g>
<!-- Node2&#45;&gt;Node36 -->
<g id="edge46" class="edge">
<title>Node2&#45;&gt;Node36</title>
<path fill="none" stroke="midnightblue" d="M1365.73,-461.46C1289.29,-452.04 1178.15,-437.56 1081.5,-422 1073.76,-420.75 1065.6,-419.33 1057.6,-417.88"/>
<polygon fill="midnightblue" stroke="midnightblue" points="1058.07,-414.41 1047.6,-416.03 1056.8,-421.29 1058.07,-414.41"/>
</g>
<!-- Node37 -->
<g id="node37" class="node">
<title>Node37</title>
<g id="a_node37"><a xlink:title=" ">
<polygon fill="none" stroke="#bfbfbf" points="1090.5,-397 1090.5,-416 1204.5,-416 1204.5,-397 1090.5,-397"/>
<text text-anchor="middle" x="1147.5" y="-404" font-family="Helvetica,sans-Serif" font-size="10.00">yarp/dev/IAxisInfo.h</text>
</a>
</g>
</g>
<!-- Node2&#45;&gt;Node37 -->
<g id="edge47" class="edge">
<title>Node2&#45;&gt;Node37</title>
<path fill="none" stroke="midnightblue" d="M1389.28,-458.48C1340.18,-448.48 1272.76,-434.62 1213.5,-422 1207.77,-420.78 1201.76,-419.48 1195.8,-418.19"/>
<polygon fill="midnightblue" stroke="midnightblue" points="1196.39,-414.73 1185.87,-416.02 1194.89,-421.57 1196.39,-414.73"/>
</g>
<!-- Node38 -->
<g id="node38" class="node">
<title>Node38</title>
<g id="a_node38"><a xlink:title=" ">
<polygon fill="none" stroke="#bfbfbf" points="1223,-397 1223,-416 1372,-416 1372,-397 1223,-397"/>
<text text-anchor="middle" x="1297.5" y="-404" font-family="Helvetica,sans-Serif" font-size="10.00">yarp/dev/IEncodersTimed.h</text>
</a>
</g>
</g>
<!-- Node2&#45;&gt;Node38 -->
<g id="edge48" class="edge">
<title>Node2&#45;&gt;Node38</title>
<path fill="none" stroke="midnightblue" d="M1423.57,-458.4C1395.07,-446.89 1355.21,-430.8 1327.98,-419.81"/>
<polygon fill="midnightblue" stroke="midnightblue" points="1329.15,-416.51 1318.57,-416.01 1326.53,-423 1329.15,-416.51"/>
</g>
<!-- Node2&#45;&gt;Node39 -->
<g id="edge49" class="edge">
<title>Node2&#45;&gt;Node39</title>
<path fill="none" stroke="midnightblue" d="M1551.27,-472.1C1709.06,-470.3 2039.43,-461.62 2315.5,-422 2322.22,-421.04 2329.28,-419.72 2336.14,-418.27"/>
<polygon fill="midnightblue" stroke="midnightblue" points="2337,-421.66 2346,-416.07 2335.48,-414.83 2337,-421.66"/>
</g>
<!-- Node40 -->
<g id="node40" class="node">
<title>Node40</title>
<g id="a_node40"><a xlink:title=" ">
<polygon fill="none" stroke="#bfbfbf" points="1389.5,-397 1389.5,-416 1453.5,-416 1453.5,-397 1389.5,-397"/>
<text text-anchor="middle" x="1421.5" y="-404" font-family="Helvetica,sans-Serif" font-size="10.00">algorithm</text>
</a>
</g>
</g>
<!-- Node2&#45;&gt;Node40 -->
<g id="edge50" class="edge">
<title>Node2&#45;&gt;Node40</title>
<path fill="none" stroke="midnightblue" d="M1450.47,-458.4C1444.87,-448.56 1437.37,-435.38 1431.4,-424.89"/>
<polygon fill="midnightblue" stroke="midnightblue" points="1434.44,-423.15 1426.45,-416.19 1428.35,-426.62 1434.44,-423.15"/>
</g>
<!-- Node41 -->
<g id="node41" class="node">
<title>Node41</title>
<g id="a_node41"><a xlink:title=" ">
<polygon fill="none" stroke="#bfbfbf" points="1472,-397 1472,-416 1519,-416 1519,-397 1472,-397"/>
<text text-anchor="middle" x="1495.5" y="-404" font-family="Helvetica,sans-Serif" font-size="10.00">cmath</text>
</a>
</g>
</g>
<!-- Node2&#45;&gt;Node41 -->
<g id="edge51" class="edge">
<title>Node2&#45;&gt;Node41</title>
<path fill="none" stroke="midnightblue" d="M1466.53,-458.4C1472.13,-448.56 1479.63,-435.38 1485.6,-424.89"/>
<polygon fill="midnightblue" stroke="midnightblue" points="1488.65,-426.62 1490.55,-416.19 1482.56,-423.15 1488.65,-426.62"/>
</g>
<!-- Node42 -->
<g id="node42" class="node">
<title>Node42</title>
<g id="a_node42"><a xlink:title=" ">
<polygon fill="none" stroke="#bfbfbf" points="1537.5,-397 1537.5,-416 1569.5,-416 1569.5,-397 1537.5,-397"/>
<text text-anchor="middle" x="1553.5" y="-404" font-family="Helvetica,sans-Serif" font-size="10.00">set</text>
</a>
</g>
</g>
<!-- Node2&#45;&gt;Node42 -->
<g id="edge52" class="edge">
<title>Node2&#45;&gt;Node42</title>
<path fill="none" stroke="midnightblue" d="M1479.11,-458.4C1494.9,-447.6 1516.59,-432.76 1532.47,-421.89"/>
<polygon fill="midnightblue" stroke="midnightblue" points="1534.79,-424.54 1541.07,-416.01 1530.84,-418.77 1534.79,-424.54"/>
</g>
<!-- Node4 -->
<g id="node4" class="node">
<title>Node4</title>
<g id="a_node4"><a xlink:title=" ">
<polygon fill="none" stroke="#bfbfbf" points="1377,-62 1377,-81 1498,-81 1498,-62 1377,-62"/>
<text text-anchor="middle" x="1437.5" y="-69" font-family="Helvetica,sans-Serif" font-size="10.00">iDynTree/Core/Span.h</text>
</a>
</g>
</g>
<!-- Node3&#45;&gt;Node4 -->
<g id="edge3" class="edge">
<title>Node3&#45;&gt;Node4</title>
<path fill="none" stroke="midnightblue" d="M1526.76,-123.4C1507.29,-112.29 1480.33,-96.92 1461.15,-85.98"/>
<polygon fill="midnightblue" stroke="midnightblue" points="1462.84,-82.92 1452.42,-81.01 1459.37,-89 1462.84,-82.92"/>
</g>
<!-- Node5 -->
<g id="node5" class="node">
<title>Node5</title>
<g id="a_node5"><a xlink:href="TemplateHelpers_8h_source.html" target="_top" xlink:title=" ">
<polygon fill="none" stroke="black" points="1586.5,-56.5 1586.5,-86.5 1744.5,-86.5 1744.5,-56.5 1586.5,-56.5"/>
<text text-anchor="start" x="1594.5" y="-74.5" font-family="Helvetica,sans-Serif" font-size="10.00">BipedalLocomotion/Generic</text>
<text text-anchor="middle" x="1665.5" y="-63.5" font-family="Helvetica,sans-Serif" font-size="10.00">Container/TemplateHelpers.h</text>
</a>
</g>
</g>
<!-- Node3&#45;&gt;Node5 -->
<g id="edge4" class="edge">
<title>Node3&#45;&gt;Node5</title>
<path fill="none" stroke="midnightblue" d="M1576.24,-123.4C1592.52,-114.11 1614.04,-101.84 1631.87,-91.67"/>
<polygon fill="midnightblue" stroke="midnightblue" points="1633.86,-94.57 1640.81,-86.58 1630.39,-88.49 1633.86,-94.57"/>
</g>
<!-- Node9 -->
<g id="node9" class="node">
<title>Node9</title>
<g id="a_node9"><a xlink:title=" ">
<polygon fill="none" stroke="#bfbfbf" points="1763,-62 1763,-81 1828,-81 1828,-62 1763,-62"/>
<text text-anchor="middle" x="1795.5" y="-69" font-family="Helvetica,sans-Serif" font-size="10.00">functional</text>
</a>
</g>
</g>
<!-- Node3&#45;&gt;Node9 -->
<g id="edge8" class="edge">
<title>Node3&#45;&gt;Node9</title>
<path fill="none" stroke="midnightblue" d="M1613.77,-123.42C1653.9,-113.98 1707.07,-100.79 1753.5,-87 1756.27,-86.18 1759.13,-85.28 1762,-84.36"/>
<polygon fill="midnightblue" stroke="midnightblue" points="1763.25,-87.63 1771.63,-81.15 1761.04,-80.99 1763.25,-87.63"/>
</g>
<!-- Node10 -->
<g id="node10" class="node">
<title>Node10</title>
<g id="a_node10"><a xlink:title=" ">
<polygon fill="none" stroke="#bfbfbf" points="1516.5,-62 1516.5,-81 1568.5,-81 1568.5,-62 1516.5,-62"/>
<text text-anchor="middle" x="1542.5" y="-69" font-family="Helvetica,sans-Serif" font-size="10.00">cassert</text>
</a>
</g>
</g>
<!-- Node3&#45;&gt;Node10 -->
<g id="edge9" class="edge">
<title>Node3&#45;&gt;Node10</title>
<path fill="none" stroke="midnightblue" d="M1549.55,-123.4C1548.24,-113.96 1546.51,-101.45 1545.09,-91.19"/>
<polygon fill="midnightblue" stroke="midnightblue" points="1548.54,-90.62 1543.7,-81.19 1541.61,-91.58 1548.54,-90.62"/>
</g>
<!-- Node11 -->
<g id="node11" class="node">
<title>Node11</title>
<g id="a_node11"><a xlink:title=" ">
<polygon fill="none" stroke="#bfbfbf" points="1298.5,-62 1298.5,-81 1358.5,-81 1358.5,-62 1298.5,-62"/>
<text text-anchor="middle" x="1328.5" y="-69" font-family="Helvetica,sans-Serif" font-size="10.00">iostream</text>
</a>
</g>
</g>
<!-- Node3&#45;&gt;Node11 -->
<g id="edge10" class="edge">
<title>Node3&#45;&gt;Node11</title>
<path fill="none" stroke="midnightblue" d="M1495.16,-123.41C1458.54,-113.92 1409.9,-100.67 1367.5,-87 1365.09,-86.22 1362.62,-85.39 1360.13,-84.53"/>
<polygon fill="midnightblue" stroke="midnightblue" points="1361.25,-81.21 1350.66,-81.12 1358.88,-87.8 1361.25,-81.21"/>
</g>
<!-- Node12 -->
<g id="node12" class="node">
<title>Node12</title>
<g id="a_node12"><a xlink:title=" ">
<polygon fill="none" stroke="#bfbfbf" points="1194.5,-62 1194.5,-81 1252.5,-81 1252.5,-62 1194.5,-62"/>
<text text-anchor="middle" x="1223.5" y="-69" font-family="Helvetica,sans-Serif" font-size="10.00">memory</text>
</a>
</g>
</g>
<!-- Node3&#45;&gt;Node12 -->
<g id="edge11" class="edge">
<title>Node3&#45;&gt;Node12</title>
<path fill="none" stroke="midnightblue" d="M1476.01,-123.48C1423.61,-113.62 1352.22,-99.93 1289.5,-87 1280.83,-85.21 1271.53,-83.22 1262.74,-81.3"/>
<polygon fill="midnightblue" stroke="midnightblue" points="1263.23,-77.82 1252.71,-79.09 1261.72,-84.66 1263.23,-77.82"/>
</g>
<!-- Node6 -->
<g id="node6" class="node">
<title>Node6</title>
<g id="a_node6"><a xlink:title=" ">
<polygon fill="none" stroke="#bfbfbf" points="1542,-0.5 1542,-19.5 1611,-19.5 1611,-0.5 1542,-0.5"/>
<text text-anchor="middle" x="1576.5" y="-7.5" font-family="Helvetica,sans-Serif" font-size="10.00">type_traits</text>
</a>
</g>
</g>
<!-- Node5&#45;&gt;Node6 -->
<g id="edge5" class="edge">
<title>Node5&#45;&gt;Node6</title>
<path fill="none" stroke="midnightblue" d="M1644.41,-56.4C1630.41,-47.04 1612.09,-34.79 1598.01,-25.38"/>
<polygon fill="midnightblue" stroke="midnightblue" points="1599.71,-22.31 1589.45,-19.66 1595.82,-28.13 1599.71,-22.31"/>
</g>
<!-- Node7 -->
<g id="node7" class="node">
<title>Node7</title>
<g id="a_node7"><a xlink:title=" ">
<polygon fill="none" stroke="#bfbfbf" points="1629,-0.5 1629,-19.5 1702,-19.5 1702,-0.5 1629,-0.5"/>
<text text-anchor="middle" x="1665.5" y="-7.5" font-family="Helvetica,sans-Serif" font-size="10.00">string_view</text>
</a>
</g>
</g>
<!-- Node5&#45;&gt;Node7 -->
<g id="edge6" class="edge">
<title>Node5&#45;&gt;Node7</title>
<path fill="none" stroke="midnightblue" d="M1665.5,-56.4C1665.5,-48.47 1665.5,-38.46 1665.5,-29.86"/>
<polygon fill="midnightblue" stroke="midnightblue" points="1669,-29.66 1665.5,-19.66 1662,-29.66 1669,-29.66"/>
</g>
<!-- Node8 -->
<g id="node8" class="node">
<title>Node8</title>
<g id="a_node8"><a xlink:title=" ">
<polygon fill="none" stroke="#bfbfbf" points="1720,-0.5 1720,-19.5 1789,-19.5 1789,-0.5 1720,-0.5"/>
<text text-anchor="middle" x="1754.5" y="-7.5" font-family="Helvetica,sans-Serif" font-size="10.00">Eigen/Core</text>
</a>
</g>
</g>
<!-- Node5&#45;&gt;Node8 -->
<g id="edge7" class="edge">
<title>Node5&#45;&gt;Node8</title>
<path fill="none" stroke="midnightblue" d="M1686.59,-56.4C1700.59,-47.04 1718.91,-34.79 1732.99,-25.38"/>
<polygon fill="midnightblue" stroke="midnightblue" points="1735.18,-28.13 1741.55,-19.66 1731.29,-22.31 1735.18,-28.13"/>
</g>
<!-- Node13&#45;&gt;Node9 -->
<g id="edge13" class="edge">
<title>Node13&#45;&gt;Node9</title>
<path fill="none" stroke="midnightblue" d="M1708.84,-391.46C1723.91,-382.88 1741.38,-370.54 1752.5,-355 1811.82,-272.07 1803.61,-140.22 1798.06,-91.45"/>
<polygon fill="midnightblue" stroke="midnightblue" points="1801.52,-90.88 1796.82,-81.39 1794.57,-91.74 1801.52,-90.88"/>
</g>
<!-- Node13&#45;&gt;Node12 -->
<g id="edge14" class="edge">
<title>Node13&#45;&gt;Node12</title>
<path fill="none" stroke="midnightblue" d="M1586.77,-392.14C1583.98,-391.75 1581.22,-391.37 1578.5,-391 1466.28,-375.63 1082.5,-386.77 1082.5,-273.5 1082.5,-273.5 1082.5,-273.5 1082.5,-204.5 1082.5,-144.77 1150.76,-104.25 1192.3,-85.13"/>
<polygon fill="midnightblue" stroke="midnightblue" points="1193.75,-88.31 1201.47,-81.05 1190.91,-81.92 1193.75,-88.31"/>
</g>
<!-- Node14 -->
<g id="node14" class="node">
<title>Node14</title>
<g id="a_node14"><a xlink:title=" ">
<polygon fill="none" stroke="#bfbfbf" points="1110.5,-196 1110.5,-215 1166.5,-215 1166.5,-196 1110.5,-196"/>
<text text-anchor="middle" x="1138.5" y="-203" font-family="Helvetica,sans-Serif" font-size="10.00">optional</text>
</a>
</g>
</g>
<!-- Node13&#45;&gt;Node14 -->
<g id="edge15" class="edge">
<title>Node13&#45;&gt;Node14</title>
<path fill="none" stroke="midnightblue" d="M1586.81,-392.1C1516.01,-381.36 1424.66,-366.28 1388.5,-355 1320.73,-333.86 1304.15,-324.89 1243.5,-288 1210.55,-267.96 1175.87,-239.35 1155.76,-221.9"/>
<polygon fill="midnightblue" stroke="midnightblue" points="1157.91,-219.13 1148.09,-215.16 1153.3,-224.39 1157.91,-219.13"/>
</g>
<!-- Node15 -->
<g id="node15" class="node">
<title>Node15</title>
<g id="a_node15"><a xlink:title=" ">
<polygon fill="none" stroke="#bfbfbf" points="1397.5,-330 1397.5,-349 1537.5,-349 1537.5,-330 1397.5,-330"/>
<text text-anchor="middle" x="1467.5" y="-337" font-family="Helvetica,sans-Serif" font-size="10.00">yarp/dev/PolyDriverList.h</text>
</a>
</g>
</g>
<!-- Node13&#45;&gt;Node15 -->
<g id="edge16" class="edge">
<title>Node13&#45;&gt;Node15</title>
<path fill="none" stroke="midnightblue" d="M1633.76,-391.48C1595.26,-379.67 1540.89,-363 1504.94,-351.98"/>
<polygon fill="midnightblue" stroke="midnightblue" points="1505.9,-348.61 1495.32,-349.03 1503.85,-355.31 1505.9,-348.61"/>
</g>
<!-- Node16 -->
<g id="node16" class="node">
<title>Node16</title>
<g id="a_node16"><a xlink:href="Source_8h.html" target="_top" xlink:title=" ">
<polygon fill="none" stroke="black" points="1593.5,-324.5 1593.5,-354.5 1743.5,-354.5 1743.5,-324.5 1593.5,-324.5"/>
<text text-anchor="start" x="1601.5" y="-342.5" font-family="Helvetica,sans-Serif" font-size="10.00">BipedalLocomotion/System</text>
<text text-anchor="middle" x="1668.5" y="-331.5" font-family="Helvetica,sans-Serif" font-size="10.00">/Source.h</text>
</a>
</g>
</g>
<!-- Node13&#45;&gt;Node16 -->
<g id="edge17" class="edge">
<title>Node13&#45;&gt;Node16</title>
<path fill="none" stroke="midnightblue" d="M1677.11,-391.4C1675.79,-383.56 1674.1,-373.6 1672.57,-364.57"/>
<polygon fill="midnightblue" stroke="midnightblue" points="1676,-363.85 1670.88,-354.58 1669.1,-365.02 1676,-363.85"/>
</g>
<!-- Node22 -->
<g id="node22" class="node">
<title>Node22</title>
<g id="a_node22"><a xlink:href="ISensorBridge_8h.html" target="_top" xlink:title=" ">
<polygon fill="none" stroke="black" points="1253,-257.5 1253,-287.5 1438,-287.5 1438,-257.5 1253,-257.5"/>
<text text-anchor="start" x="1261" y="-275.5" font-family="Helvetica,sans-Serif" font-size="10.00">BipedalLocomotion/RobotInterface</text>
<text text-anchor="middle" x="1345.5" y="-264.5" font-family="Helvetica,sans-Serif" font-size="10.00">/ISensorBridge.h</text>
</a>
</g>
</g>
<!-- Node13&#45;&gt;Node22 -->
<g id="edge26" class="edge">
<title>Node13&#45;&gt;Node22</title>
<path fill="none" stroke="midnightblue" d="M1649.54,-391.46C1630.4,-382.04 1605.35,-368.85 1584.5,-355 1566.35,-342.94 1565.98,-333.78 1546.5,-324 1515.54,-308.46 1479.43,-297.46 1446.43,-289.79"/>
<polygon fill="midnightblue" stroke="midnightblue" points="1446.82,-286.29 1436.3,-287.52 1445.29,-293.12 1446.82,-286.29"/>
</g>
<!-- Node17 -->
<g id="node17" class="node">
<title>Node17</title>
<g id="a_node17"><a xlink:href="Advanceable_8h.html" target="_top" xlink:title=" ">
<polygon fill="none" stroke="black" points="1593.5,-257.5 1593.5,-287.5 1743.5,-287.5 1743.5,-257.5 1593.5,-257.5"/>
<text text-anchor="start" x="1601.5" y="-275.5" font-family="Helvetica,sans-Serif" font-size="10.00">BipedalLocomotion/System</text>
<text text-anchor="middle" x="1668.5" y="-264.5" font-family="Helvetica,sans-Serif" font-size="10.00">/Advanceable.h</text>
</a>
</g>
</g>
<!-- Node16&#45;&gt;Node17 -->
<g id="edge18" class="edge">
<title>Node16&#45;&gt;Node17</title>
<path fill="none" stroke="midnightblue" d="M1668.5,-324.4C1668.5,-316.64 1668.5,-306.81 1668.5,-297.86"/>
<polygon fill="midnightblue" stroke="midnightblue" points="1672,-297.58 1668.5,-287.58 1665,-297.58 1672,-297.58"/>
</g>
<!-- Node18 -->
<g id="node18" class="node">
<title>Node18</title>
<g id="a_node18"><a xlink:title=" ">
<polygon fill="none" stroke="#bfbfbf" points="1730,-196 1730,-215 1781,-215 1781,-196 1730,-196"/>
<text text-anchor="middle" x="1755.5" y="-203" font-family="Helvetica,sans-Serif" font-size="10.00">variant</text>
</a>
</g>
</g>
<!-- Node17&#45;&gt;Node18 -->
<g id="edge19" class="edge">
<title>Node17&#45;&gt;Node18</title>
<path fill="none" stroke="midnightblue" d="M1687.38,-257.4C1701.61,-246.76 1721.1,-232.2 1735.58,-221.38"/>
<polygon fill="midnightblue" stroke="midnightblue" points="1737.95,-223.98 1743.86,-215.19 1733.76,-218.38 1737.95,-223.98"/>
</g>
<!-- Node19 -->
<g id="node19" class="node">
<title>Node19</title>
<g id="a_node19"><a xlink:href="IParametersHandler_8h.html" target="_top" xlink:title=" ">
<polygon fill="none" stroke="black" points="1505,-190.5 1505,-220.5 1674,-220.5 1674,-190.5 1505,-190.5"/>
<text text-anchor="start" x="1513" y="-208.5" font-family="Helvetica,sans-Serif" font-size="10.00">BipedalLocomotion/Parameters</text>
<text text-anchor="middle" x="1589.5" y="-197.5" font-family="Helvetica,sans-Serif" font-size="10.00">Handler/IParametersHandler.h</text>
</a>
</g>
</g>
<!-- Node17&#45;&gt;Node19 -->
<g id="edge20" class="edge">
<title>Node17&#45;&gt;Node19</title>
<path fill="none" stroke="midnightblue" d="M1651.36,-257.4C1640.59,-248.54 1626.52,-236.96 1614.52,-227.09"/>
<polygon fill="midnightblue" stroke="midnightblue" points="1616.55,-224.23 1606.61,-220.58 1612.11,-229.63 1616.55,-224.23"/>
</g>
<!-- Node19&#45;&gt;Node3 -->
<g id="edge25" class="edge">
<title>Node19&#45;&gt;Node3</title>
<path fill="none" stroke="midnightblue" d="M1581.25,-190.4C1576.47,-182.22 1570.34,-171.73 1564.88,-162.39"/>
<polygon fill="midnightblue" stroke="midnightblue" points="1567.8,-160.44 1559.73,-153.58 1561.75,-163.98 1567.8,-160.44"/>
</g>
<!-- Node19&#45;&gt;Node5 -->
<g id="edge24" class="edge">
<title>Node19&#45;&gt;Node5</title>
<path fill="none" stroke="midnightblue" d="M1605.26,-190.28C1615.03,-180.78 1627.25,-167.58 1635.5,-154 1646.45,-135.96 1654.4,-113.29 1659.35,-96.44"/>
<polygon fill="midnightblue" stroke="midnightblue" points="1662.72,-97.37 1662.04,-86.79 1655.98,-95.48 1662.72,-97.37"/>
</g>
<!-- Node19&#45;&gt;Node12 -->
<g id="edge21" class="edge">
<title>Node19&#45;&gt;Node12</title>
<path fill="none" stroke="midnightblue" d="M1555.01,-190.42C1530.34,-180.32 1496.35,-166.38 1466.5,-154 1433.56,-140.34 1426.07,-135.01 1392.5,-123 1348.41,-107.23 1296.7,-92.28 1262.2,-82.8"/>
<polygon fill="midnightblue" stroke="midnightblue" points="1263.08,-79.41 1252.51,-80.16 1261.23,-86.17 1263.08,-79.41"/>
</g>
<!-- Node20 -->
<g id="node20" class="node">
<title>Node20</title>
<g id="a_node20"><a xlink:title=" ">
<polygon fill="none" stroke="#bfbfbf" points="1339.5,-129 1339.5,-148 1383.5,-148 1383.5,-129 1339.5,-129"/>
<text text-anchor="middle" x="1361.5" y="-136" font-family="Helvetica,sans-Serif" font-size="10.00">string</text>
</a>
</g>
</g>
<!-- Node19&#45;&gt;Node20 -->
<g id="edge22" class="edge">
<title>Node19&#45;&gt;Node20</title>
<path fill="none" stroke="midnightblue" d="M1540.31,-190.48C1495.91,-177.82 1431.89,-159.57 1393.71,-148.68"/>
<polygon fill="midnightblue" stroke="midnightblue" points="1394.24,-145.19 1383.66,-145.82 1392.32,-151.93 1394.24,-145.19"/>
</g>
<!-- Node21 -->
<g id="node21" class="node">
<title>Node21</title>
<g id="a_node21"><a xlink:title=" ">
<polygon fill="none" stroke="#bfbfbf" points="1227,-129 1227,-148 1274,-148 1274,-129 1227,-129"/>
<text text-anchor="middle" x="1250.5" y="-136" font-family="Helvetica,sans-Serif" font-size="10.00">vector</text>
</a>
</g>
</g>
<!-- Node19&#45;&gt;Node21 -->
<g id="edge23" class="edge">
<title>Node19&#45;&gt;Node21</title>
<path fill="none" stroke="midnightblue" d="M1516.36,-190.48C1444.46,-176.69 1337.93,-156.26 1284.16,-145.95"/>
<polygon fill="midnightblue" stroke="midnightblue" points="1284.61,-142.48 1274.13,-144.03 1283.3,-149.35 1284.61,-142.48"/>
</g>
<!-- Node22&#45;&gt;Node9 -->
<g id="edge27" class="edge">
<title>Node22&#45;&gt;Node9</title>
<path fill="none" stroke="midnightblue" d="M1438.17,-265.43C1523.34,-258.47 1642.28,-244.81 1682.5,-221 1709.89,-204.78 1761.82,-125.95 1784.47,-90.2"/>
<polygon fill="midnightblue" stroke="midnightblue" points="1787.68,-91.67 1790.04,-81.34 1781.75,-87.94 1787.68,-91.67"/>
</g>
<!-- Node22&#45;&gt;Node12 -->
<g id="edge28" class="edge">
<title>Node22&#45;&gt;Node12</title>
<path fill="none" stroke="midnightblue" d="M1315.7,-257.44C1298.85,-248.55 1278.1,-235.92 1262.5,-221 1236.57,-196.21 1227.95,-188.31 1217.5,-154 1211.18,-133.27 1214.54,-108.26 1218.28,-91.46"/>
<polygon fill="midnightblue" stroke="midnightblue" points="1221.79,-91.84 1220.81,-81.3 1215,-90.15 1221.79,-91.84"/>
</g>
<!-- Node22&#45;&gt;Node14 -->
<g id="edge29" class="edge">
<title>Node22&#45;&gt;Node14</title>
<path fill="none" stroke="midnightblue" d="M1298.06,-257.47C1265.01,-247.57 1219.95,-233.84 1180.5,-221 1177.91,-220.16 1175.23,-219.27 1172.54,-218.37"/>
<polygon fill="midnightblue" stroke="midnightblue" points="1173.48,-214.99 1162.88,-215.08 1171.22,-221.61 1173.48,-214.99"/>
</g>
<!-- Node22&#45;&gt;Node19 -->
<g id="edge34" class="edge">
<title>Node22&#45;&gt;Node19</title>
<path fill="none" stroke="midnightblue" d="M1398.14,-257.48C1435.86,-247.43 1486.81,-233.86 1526.65,-223.24"/>
<polygon fill="midnightblue" stroke="midnightblue" points="1527.77,-226.57 1536.53,-220.61 1525.97,-219.8 1527.77,-226.57"/>
</g>
<!-- Node22&#45;&gt;Node20 -->
<g id="edge30" class="edge">
<title>Node22&#45;&gt;Node20</title>
<path fill="none" stroke="midnightblue" d="M1322.03,-257.32C1309.87,-248.54 1296.2,-236.07 1289.5,-221 1283.9,-208.41 1283.14,-202.22 1289.5,-190 1298.19,-173.29 1315.23,-160.95 1330.55,-152.66"/>
<polygon fill="midnightblue" stroke="midnightblue" points="1332.42,-155.64 1339.78,-148.01 1329.28,-149.38 1332.42,-155.64"/>
</g>
<!-- Node22&#45;&gt;Node21 -->
<g id="edge32" class="edge">
<title>Node22&#45;&gt;Node21</title>
<path fill="none" stroke="midnightblue" d="M1321.85,-257.41C1308.47,-248.43 1292.3,-235.72 1281.5,-221 1267.47,-201.88 1259,-175.63 1254.54,-158.15"/>
<polygon fill="midnightblue" stroke="midnightblue" points="1257.87,-157.02 1252.17,-148.09 1251.06,-158.62 1257.87,-157.02"/>
</g>
<!-- Node23 -->
<g id="node23" class="node">
<title>Node23</title>
<g id="a_node23"><a xlink:title=" ">
<polygon fill="none" stroke="#bfbfbf" points="1299,-196 1299,-215 1392,-215 1392,-196 1299,-196"/>
<text text-anchor="middle" x="1345.5" y="-203" font-family="Helvetica,sans-Serif" font-size="10.00">unordered_map</text>
</a>
</g>
</g>
<!-- Node22&#45;&gt;Node23 -->
<g id="edge31" class="edge">
<title>Node22&#45;&gt;Node23</title>
<path fill="none" stroke="midnightblue" d="M1345.5,-257.4C1345.5,-248.06 1345.5,-235.71 1345.5,-225.52"/>
<polygon fill="midnightblue" stroke="midnightblue" points="1349,-225.19 1345.5,-215.19 1342,-225.19 1349,-225.19"/>
</g>
<!-- Node24 -->
<g id="node24" class="node">
<title>Node24</title>
<g id="a_node24"><a xlink:title=" ">
<polygon fill="none" stroke="#bfbfbf" points="1410,-196 1410,-215 1487,-215 1487,-196 1410,-196"/>
<text text-anchor="middle" x="1448.5" y="-203" font-family="Helvetica,sans-Serif" font-size="10.00">Eigen/Dense</text>
</a>
</g>
</g>
<!-- Node22&#45;&gt;Node24 -->
<g id="edge33" class="edge">
<title>Node22&#45;&gt;Node24</title>
<path fill="none" stroke="midnightblue" d="M1367.85,-257.4C1385.12,-246.5 1408.92,-231.48 1426.18,-220.58"/>
<polygon fill="midnightblue" stroke="midnightblue" points="1428.43,-223.3 1435.02,-215.01 1424.69,-217.38 1428.43,-223.3"/>
</g>
<!-- Node26 -->
<g id="node26" class="node">
<title>Node26</title>
<g id="a_node26"><a xlink:title=" ">
<polygon fill="none" stroke="#bfbfbf" points="0,-330 0,-349 99,-349 99,-330 0,-330"/>
<text text-anchor="middle" x="49.5" y="-337" font-family="Helvetica,sans-Serif" font-size="10.00">spdlog/fmt/ostr.h</text>
</a>
</g>
</g>
<!-- Node25&#45;&gt;Node26 -->
<g id="edge36" class="edge">
<title>Node25&#45;&gt;Node26</title>
<path fill="none" stroke="midnightblue" d="M94.13,-391.4C85.24,-381.26 73.24,-367.57 63.91,-356.94"/>
<polygon fill="midnightblue" stroke="midnightblue" points="66.35,-354.41 57.12,-349.19 61.09,-359.02 66.35,-354.41"/>
</g>
<!-- Node27 -->
<g id="node27" class="node">
<title>Node27</title>
<g id="a_node27"><a xlink:title=" ">
<polygon fill="none" stroke="#bfbfbf" points="117,-330 117,-349 210,-349 210,-330 117,-330"/>
<text text-anchor="middle" x="163.5" y="-337" font-family="Helvetica,sans-Serif" font-size="10.00">spdlog/spdlog.h</text>
</a>
</g>
</g>
<!-- Node25&#45;&gt;Node27 -->
<g id="edge37" class="edge">
<title>Node25&#45;&gt;Node27</title>
<path fill="none" stroke="midnightblue" d="M118.87,-391.4C127.76,-381.26 139.76,-367.57 149.09,-356.94"/>
<polygon fill="midnightblue" stroke="midnightblue" points="151.91,-359.02 155.88,-349.19 146.65,-354.41 151.91,-359.02"/>
</g>
</g>
</svg>
